<svg width="36" height="36" viewBox="0 0 36 36" fill="none" xmlns="http://www.w3.org/2000/svg">
<rect width="36" height="36" rx="8" fill="white"/>
<path d="M19.5604 8.97624C18.559 8.57563 17.4418 8.57563 16.4404 8.97624L9.53199 11.7422C9.19828 11.8757 8.91217 12.106 8.71049 12.4035C8.50881 12.701 8.40081 13.052 8.40039 13.4114V22.5866C8.40033 22.9465 8.50811 23.298 8.70982 23.596C8.91152 23.894 9.1979 24.1246 9.53199 24.2582L16.4404 27.0218C16.965 27.2319 17.5266 27.3339 18.0916 27.3218C17.7995 26.9274 17.5524 26.5015 17.3548 26.0522C17.1951 26.0171 17.0386 25.969 16.8868 25.9082L9.97719 23.1446C9.86578 23.1 9.77031 23.023 9.70314 22.9235C9.63597 22.824 9.60018 22.7067 9.60039 22.5866V13.4858L17.4004 16.6058V20.6462C17.7011 19.9929 18.1065 19.393 18.6004 18.8702V16.6046L26.4004 13.4846V17.5178C26.83 17.7374 27.232 18.0026 27.6004 18.3074V13.4114C27.6005 13.0516 27.4927 12.7001 27.291 12.4021C27.0893 12.1041 26.8029 11.8735 26.4688 11.7398L19.5604 8.97624ZM16.8868 10.0922C17.602 9.80613 18.3999 9.80613 19.1152 10.0922L25.3852 12.6002L22.6504 13.6922L15.2656 10.7402L16.8856 10.0922H16.8868ZM13.6504 11.3846L21.0352 14.3378L18.0004 15.5534L10.6156 12.599L13.6504 11.3858V11.3846ZM23.4004 28.799C24.8326 28.799 26.2061 28.2301 27.2188 27.2174C28.2315 26.2047 28.8004 24.8312 28.8004 23.399C28.8004 21.9669 28.2315 20.5934 27.2188 19.5807C26.2061 18.568 24.8326 17.999 23.4004 17.999C21.9682 17.999 20.5947 18.568 19.582 19.5807C18.5693 20.5934 18.0004 21.9669 18.0004 23.399C18.0004 24.8312 18.5693 26.2047 19.582 27.2174C20.5947 28.2301 21.9682 28.799 23.4004 28.799ZM22.2004 24.3506L25.3756 21.1754C25.4881 21.0628 25.6407 20.9994 25.8 20.9993C25.8788 20.9993 25.9569 21.0147 26.0297 21.0448C26.1026 21.075 26.1688 21.1191 26.2246 21.1748C26.2804 21.2305 26.3246 21.2967 26.3549 21.3695C26.3851 21.4423 26.4007 21.5204 26.4007 21.5992C26.4008 21.6781 26.3853 21.7561 26.3552 21.829C26.3251 21.9018 26.2809 21.9681 26.2252 22.0238L22.6252 25.6238C22.5695 25.6797 22.5032 25.724 22.4303 25.7543C22.3575 25.7845 22.2793 25.8001 22.2004 25.8001C22.1215 25.8001 22.0433 25.7845 21.9704 25.7543C21.8975 25.724 21.8313 25.6797 21.7756 25.6238L20.5756 24.4238C20.4631 24.3112 20.3999 24.1584 20.4001 23.9992C20.4002 23.84 20.4635 23.6873 20.5762 23.5748C20.6889 23.4623 20.8416 23.3992 21.0008 23.3993C21.16 23.3994 21.3127 23.4628 21.4252 23.5754L22.2004 24.3506Z" fill="#49A09D"/>
</svg>
