<svg width="16" height="17" viewBox="0 0 16 17" fill="none" xmlns="http://www.w3.org/2000/svg">
<path d="M8 14.5C11.3137 14.5 14 11.8137 14 8.5C14 5.18629 11.3137 2.5 8 2.5C4.68629 2.5 2 5.18629 2 8.5C2 11.8137 4.68629 14.5 8 14.5Z" fill="#F6FFED"/>
<path d="M6 8.5L7.33333 9.83333L10 7.16667" fill="#F6FFED"/>
<path d="M6 8.5L7.33333 9.83333L10 7.16667M14 8.5C14 11.8137 11.3137 14.5 8 14.5C4.68629 14.5 2 11.8137 2 8.5C2 5.18629 4.68629 2.5 8 2.5C11.3137 2.5 14 5.18629 14 8.5Z" stroke="#52C41A" stroke-width="1.5" stroke-linecap="round" stroke-linejoin="round"/>
</svg>
