<svg width="14" height="14" viewBox="0 0 14 14" fill="none" xmlns="http://www.w3.org/2000/svg">
<path d="M13.1669 3.11704L10.8836 0.833703C10.5856 0.553783 10.1951 0.393169 9.78636 0.382413C9.37764 0.371658 8.97923 0.511511 8.66691 0.77537L1.16691 8.27537C0.897552 8.54701 0.729834 8.90304 0.691914 9.2837L0.333581 12.7587C0.322355 12.8808 0.338193 13.0038 0.379965 13.119C0.421737 13.2343 0.488416 13.3389 0.575247 13.4254C0.653114 13.5026 0.745461 13.5637 0.846992 13.6052C0.948523 13.6466 1.05724 13.6677 1.16691 13.667H1.24191L4.71691 13.3504C5.09758 13.3124 5.45361 13.1447 5.72525 12.8754L13.2252 5.37537C13.5163 5.06784 13.6737 4.65746 13.6627 4.23415C13.6518 3.81084 13.4735 3.40913 13.1669 3.11704ZM4.56691 11.6837L2.06691 11.917L2.29191 9.41704L7.00025 4.76704L9.25025 7.01704L4.56691 11.6837ZM10.3336 5.90037L8.10025 3.66704L9.72525 2.00037L12.0002 4.27537L10.3336 5.90037Z" fill="#D7244F"/>
</svg>
