<svg width="14" height="13" viewBox="0 0 14 13" fill="none" xmlns="http://www.w3.org/2000/svg">
<path d="M6.9998 9.49967V9.50634V9.49967Z" fill="#FFFBE6"/>
<path d="M2.33313 12.1664H11.6665C11.884 12.1648 12.0979 12.1101 12.2894 12.0069C12.4809 11.9038 12.6443 11.7553 12.7653 11.5745C12.8862 11.3937 12.9611 11.186 12.9834 10.9696C13.0057 10.7533 12.9747 10.5347 12.8931 10.333L8.1598 2.16635C8.0445 1.95795 7.87547 1.78424 7.6703 1.66328C7.46513 1.54231 7.23131 1.47852 6.99313 1.47852C6.75496 1.47852 6.52114 1.54231 6.31597 1.66328C6.1108 1.78424 5.94177 1.95795 5.82647 2.16635L1.09313 10.333C1.0131 10.5301 0.981357 10.7434 1.00057 10.9552C1.01978 11.167 1.08938 11.3712 1.20357 11.5506C1.31775 11.7301 1.47321 11.8796 1.65695 11.9867C1.8407 12.0938 2.0474 12.1554 2.2598 12.1664" fill="#FFFBE6"/>
<path d="M6.9998 5.49967V6.83301M6.9998 9.49967V9.50634M2.33313 12.1664H11.6665C11.884 12.1648 12.0979 12.1101 12.2894 12.0069C12.4809 11.9038 12.6443 11.7553 12.7653 11.5745C12.8862 11.3937 12.9611 11.186 12.9834 10.9696C13.0057 10.7532 12.9747 10.5347 12.8931 10.333L8.1598 2.16635C8.0445 1.95795 7.87547 1.78424 7.6703 1.66328C7.46513 1.54231 7.23131 1.47852 6.99313 1.47852C6.75496 1.47852 6.52114 1.54231 6.31597 1.66328C6.1108 1.78424 5.94177 1.95795 5.82647 2.16635L1.09313 10.333C1.0131 10.5301 0.981357 10.7434 1.00057 10.9552C1.01978 11.167 1.08938 11.3712 1.20357 11.5506C1.31775 11.7301 1.47321 11.8796 1.65695 11.9867C1.8407 12.0938 2.0474 12.1554 2.2598 12.1664" stroke="#D48806" stroke-width="1.5" stroke-linecap="round" stroke-linejoin="round"/>
</svg>
