<svg width="36" height="37" viewBox="0 0 36 37" fill="none" xmlns="http://www.w3.org/2000/svg">
<g clip-path="url(#clip0_11006_236340)">
<path d="M34.0172 8.41598L34.0171 8.41593L18.0328 0.700402L18.0327 0.700356C17.8146 0.595177 17.5605 0.595151 17.3424 0.700379L17.3423 0.700402L1.35796 8.41592C1.35795 8.41592 1.35794 8.41593 1.35793 8.41593C1.08344 8.54841 0.909062 8.82633 0.909062 9.13102V27.8687C0.909062 28.1734 1.08344 28.4514 1.35793 28.5838C1.35794 28.5838 1.35795 28.5838 1.35796 28.5839L17.3422 36.2994L17.3423 36.2994C17.4513 36.352 17.5694 36.3783 17.6875 36.3783C17.8056 36.3783 17.9237 36.3519 18.0326 36.2994L18.0328 36.2994L34.017 28.5839C34.2916 28.4514 34.4659 28.1734 34.4659 27.8687V9.13109C34.4659 8.82615 34.2914 8.54847 34.0172 8.41598ZM21.891 15.6993L21.891 15.6993C22.2859 15.5086 22.4516 15.0339 22.2609 14.6389L22.2608 14.6389C22.0702 14.2442 21.5955 14.0783 21.2004 14.2691L17.6875 15.9648L16.3787 15.333C16.3787 15.333 16.3787 15.333 16.3786 15.333C15.9835 15.1421 15.5089 15.3081 15.3182 15.7028C15.1275 16.0978 15.2931 16.5725 15.6881 16.7632L15.6881 16.7632L16.8934 17.3449V34.3191L2.49733 27.3703V10.3961L13.4842 15.6994C13.4843 15.6994 13.4843 15.6995 13.4844 15.6995C13.5953 15.7531 13.7131 15.7786 13.8292 15.7786C14.1237 15.7786 14.4076 15.6137 14.5447 15.3296C14.7354 14.9347 14.5698 14.46 14.1748 14.2693L14.1748 14.2693L3.52988 9.13102L8.01226 6.9674L23.232 14.3139V20.3322C23.232 20.6055 23.3726 20.8594 23.6039 21.0047L23.604 21.0048C23.7326 21.0855 23.8793 21.1262 24.0262 21.1262C24.1439 21.1262 24.262 21.1001 24.3715 21.0472L28.2297 19.1849C28.5041 19.0524 28.6785 18.7746 28.6785 18.4698V12.4231L32.8777 10.3962V27.3704L18.4816 34.3191V17.3449L21.891 15.6993ZM28.2093 10.886L14.0516 4.05233L17.6875 2.29729L31.8451 9.13102L28.2093 10.886ZM23.9966 12.9195L9.86555 6.09858L12.2466 4.94462L26.3825 11.7679L23.9966 12.9195ZM24.8203 14.2854L27.0903 13.1896V17.9713L24.8203 19.067V14.2854Z" fill="#0F0F0F" stroke="#0F0F0F" stroke-width="0.556875"/>
<path d="M6.48588 25.0376L6.48593 25.0377C6.8297 25.2104 6.9671 25.6336 6.80556 25.9817C6.80555 25.9817 6.80555 25.9817 6.80554 25.9817L6.63717 25.9036C6.5503 26.0908 6.37038 26.2 6.18307 26.2C6.10964 26.2 6.03499 26.1832 5.96438 26.1477L6.48588 25.0376ZM6.48588 25.0376L4.19391 23.8865C4.19389 23.8865 4.19388 23.8865 4.19386 23.8865C3.8454 23.7113 3.43246 23.8668 3.26931 24.2183C3.10784 24.5663 3.24519 24.9897 3.58904 25.1624L3.58905 25.1624L5.88099 26.3136M6.48588 25.0376L5.88099 26.3136M5.88099 26.3136C5.88101 26.3136 5.88104 26.3136 5.88107 26.3136L5.88099 26.3136Z" fill="#DB284E" stroke="#DB284E" stroke-width="0.37125"/>
<path d="M4.20607 21.687L4.20606 21.687C3.854 21.5109 3.43581 21.6667 3.27026 22.022L3.27025 22.022C3.10635 22.3738 3.24618 22.8014 3.5943 22.9755L3.59431 22.9755L8.06886 25.2131L8.06891 25.2131C8.16679 25.262 8.27117 25.2857 8.37436 25.2857C8.63702 25.2857 8.88572 25.1333 9.0046 24.8782L9.0046 24.8782C9.16856 24.5262 9.0288 24.0987 8.68062 23.9246C8.68061 23.9246 8.6806 23.9246 8.68059 23.9246L4.20607 21.687Z" fill="#DB284E" stroke="#DB284E" stroke-width="0.37125"/>
</g>
<defs>
<clipPath id="clip0_11006_236340">
<rect width="35.2" height="35.2" fill="white" transform="translate(0.0874023 0.899902)"/>
</clipPath>
</defs>
</svg>
