<svg width="36" height="29" viewBox="0 0 36 29" fill="none" xmlns="http://www.w3.org/2000/svg">
<path d="M34.9743 4.16337C34.5182 3.63194 33.8796 3.30733 33.1758 3.24939L8.38759 1.2092C7.68373 1.15126 6.99939 1.36696 6.46019 1.81646C5.92318 2.2642 5.59436 2.89057 5.53372 3.58091L5.03501 8.19286H3.04367C1.5859 8.19286 0.399902 9.3619 0.399902 10.7988V26.094C0.399902 27.5309 1.5859 28.7 3.04367 28.7H27.9182C29.376 28.7 30.562 27.5309 30.562 26.094V23.6128L31.4447 23.6855C31.5192 23.6916 31.5932 23.6946 31.6666 23.6946C33.0257 23.6946 34.1843 22.6639 34.2994 21.3054L35.5905 6.06328C35.6493 5.36955 35.4304 4.69486 34.9743 4.16337ZM3.04367 9.54819H27.9182C28.6178 9.54819 29.1871 10.1092 29.1871 10.7988V12.1925H1.7749V10.7988C1.7749 10.1092 2.34408 9.54819 3.04367 9.54819ZM1.7749 13.5479H29.1871V16.3595H1.7749V13.5479ZM27.9182 27.3446H3.04367C2.34408 27.3446 1.7749 26.7836 1.7749 26.094V17.7148H29.1871V26.094C29.1871 26.7836 28.6178 27.3446 27.9182 27.3446ZM34.2203 5.95045L32.9291 21.1925C32.8709 21.8797 32.2562 22.3924 31.5591 22.3348L30.562 22.2527V10.7988C30.562 9.3619 29.376 8.19286 27.9182 8.19286H6.41784L6.90177 3.71753C6.90232 3.71238 6.9028 3.70729 6.90321 3.70208C6.96144 3.01485 7.57579 2.50226 8.27319 2.55986L33.0614 4.60006C33.3992 4.62784 33.7058 4.78364 33.9246 5.03871C34.1434 5.29379 34.2485 5.61751 34.2203 5.95045Z" fill="#0F0F0F" stroke="#0F0F0F" stroke-width="0.55"/>
<path d="M26.1377 19.8999H19.7625C19.3967 19.8999 19.1001 20.1973 19.1001 20.5642V24.7356C19.1001 25.1025 19.3967 25.3999 19.7625 25.3999H26.1377C26.5035 25.3999 26.8001 25.1025 26.8001 24.7356V20.5642C26.8001 20.1973 26.5035 19.8999 26.1377 19.8999ZM25.4753 24.0712H20.4249V21.2286H25.4753V24.0712Z" fill="#DB284E"/>
</svg>
