<svg width="32" height="32" viewBox="0 0 32 32" fill="none" xmlns="http://www.w3.org/2000/svg">
<path d="M26.6549 2.66943C26.4798 2.66933 26.3064 2.70375 26.1446 2.77072C25.9828 2.8377 25.8357 2.9359 25.7119 3.05974C25.5881 3.18357 25.4899 3.33059 25.4229 3.4924C25.3559 3.65422 25.3215 3.82764 25.3216 4.00277V4.85173C24.1971 6.246 22.7758 7.37198 21.1613 8.14773C19.5467 8.92347 17.7795 9.32944 15.9883 9.3361H7.98828C6.92777 9.33726 5.91103 9.75906 5.16113 10.509C4.41124 11.2588 3.98944 12.2756 3.98828 13.3361V16.0028C3.98944 17.0633 4.41124 18.08 5.16113 18.8299C5.91103 19.5798 6.92777 20.0016 7.98828 20.0028H8.63333L5.42969 27.478C5.34263 27.6807 5.30729 27.9019 5.32683 28.1217C5.34637 28.3415 5.42019 28.553 5.54166 28.7372C5.66312 28.9214 5.82843 29.0725 6.02275 29.1771C6.21706 29.2816 6.4343 29.3363 6.65495 29.3361H11.9883C12.2493 29.3363 12.5046 29.2597 12.7224 29.1159C12.9403 28.9722 13.1111 28.7675 13.2135 28.5275L16.8452 20.0534C18.4861 20.1739 20.0848 20.6295 21.5427 21.392C23.0006 22.1545 24.2867 23.2078 25.3216 24.4869V25.3361C25.3216 25.6897 25.4621 26.0289 25.7121 26.2789C25.9622 26.529 26.3013 26.6694 26.6549 26.6694C27.0086 26.6694 27.3477 26.529 27.5978 26.2789C27.8478 26.0289 27.9883 25.6897 27.9883 25.3361V4.00277C27.9884 3.82764 27.954 3.65422 27.887 3.4924C27.82 3.33059 27.7218 3.18356 27.598 3.05973C27.4741 2.9359 27.3271 2.83769 27.1653 2.77072C27.0035 2.70375 26.8301 2.66933 26.6549 2.66943ZM7.98828 17.3361C7.63473 17.3359 7.29573 17.1953 7.04573 16.9453C6.79574 16.6953 6.65518 16.3563 6.65495 16.0028V13.3361C6.65519 12.9826 6.79574 12.6436 7.04574 12.3936C7.29573 12.1436 7.63473 12.003 7.98828 12.0028H9.32161V17.3361H7.98828ZM11.1094 26.6694H8.67708L11.5339 20.0028H13.9661L11.1094 26.6694ZM25.3216 20.6985C22.6926 18.5327 19.3945 17.3445 15.9883 17.336H11.9883V12.0027H15.9883C19.3946 11.994 22.6927 10.8056 25.3216 8.63958V20.6985Z" fill="black"/>
<rect x="9" y="12" width="3" height="5.35" fill="#DA264D"/>
</svg>
