<svg width="32" height="32" viewBox="0 0 32 32" fill="none" xmlns="http://www.w3.org/2000/svg">
<path d="M10.3496 14.3438C11.1407 14.3438 11.9141 14.1092 12.5719 13.6696C13.2297 13.2301 13.7424 12.6054 14.0451 11.8745C14.3479 11.1436 14.4271 10.3393 14.2727 9.56339C14.1184 8.78747 13.7374 8.07473 13.178 7.51532C12.6186 6.95591 11.9059 6.57495 11.13 6.42061C10.354 6.26627 9.54978 6.34548 8.81888 6.64823C8.08797 6.95098 7.46326 7.46367 7.02373 8.12147C6.5842 8.77927 6.34961 9.55263 6.34961 10.3438C6.35077 11.4043 6.77257 12.421 7.52246 13.1709C8.27236 13.9208 9.2891 14.3426 10.3496 14.3438ZM10.3496 9.01042C10.6133 9.01042 10.8711 9.08862 11.0904 9.23513C11.3096 9.38163 11.4805 9.58987 11.5814 9.83351C11.6824 10.0771 11.7088 10.3452 11.6573 10.6039C11.6059 10.8625 11.4789 11.1001 11.2924 11.2866C11.1059 11.473 10.8684 11.6 10.6097 11.6515C10.3511 11.7029 10.083 11.6765 9.83936 11.5756C9.59573 11.4747 9.38749 11.3038 9.24098 11.0845C9.09447 10.8652 9.01628 10.6075 9.01628 10.3438C9.01651 9.9902 9.15706 9.6512 9.40706 9.4012C9.65706 9.15121 9.99606 9.01066 10.3496 9.01042ZM21.6621 17.6563C20.871 17.6563 20.0976 17.8909 19.4398 18.3304C18.782 18.7699 18.2693 19.3946 17.9666 20.1255C17.6638 20.8564 17.5846 21.6607 17.739 22.4366C17.8933 23.2125 18.2743 23.9253 18.8337 24.4847C19.3931 25.0441 20.1058 25.4251 20.8818 25.5794C21.6577 25.7337 22.4619 25.6545 23.1928 25.3518C23.9237 25.049 24.5485 24.5363 24.988 23.8785C25.4275 23.2207 25.6621 22.4474 25.6621 21.6563C25.661 20.5957 25.2392 19.579 24.4893 18.8291C23.7394 18.0792 22.7226 17.6574 21.6621 17.6563ZM21.6621 22.9896C21.3984 22.9896 21.1406 22.9114 20.9214 22.7649C20.7021 22.6184 20.5312 22.4101 20.4303 22.1665C20.3294 21.9229 20.303 21.6548 20.3544 21.3961C20.4058 21.1375 20.5328 20.8999 20.7193 20.7134C20.9058 20.527 21.1434 20.4 21.402 20.3485C21.6606 20.2971 21.9287 20.3235 22.1724 20.4244C22.416 20.5253 22.6242 20.6962 22.7707 20.9155C22.9172 21.1348 22.9954 21.3925 22.9954 21.6563C22.9952 22.0098 22.8547 22.3488 22.6047 22.5988C22.3547 22.8488 22.0157 22.9894 21.6621 22.9896Z" fill="#DA264D" stroke="#DA264D" stroke-width="0.1"/>
<line x1="6" y1="25.8787" x2="25.8787" y2="6" stroke="#0F0F0F" stroke-width="3" stroke-linecap="round"/>
</svg>
