<svg width="32" height="32" viewBox="0 0 32 32" fill="none" xmlns="http://www.w3.org/2000/svg">
<path d="M1 17V22C1 22.2652 1.10536 22.5196 1.29289 22.7071C1.48043 22.8946 1.73478 23 2 23H3C3 23.7956 3.31607 24.5587 3.87868 25.1213C4.44129 25.6839 5.20435 26 6 26C6.79565 26 7.55871 25.6839 8.12132 25.1213C8.68393 24.5587 9 23.7956 9 23H15C15 23.7956 15.3161 24.5587 15.8787 25.1213C16.4413 25.6839 17.2044 26 18 26C18.7956 26 19.5587 25.6839 20.1213 25.1213C20.6839 24.5587 21 23.7956 21 23H22C22.2652 23 22.5196 22.8946 22.7071 22.7071C22.8946 22.5196 23 22.2652 23 22V10C23 9.20435 22.6839 8.44129 22.1213 7.87868C21.5587 7.31607 20.7956 7 20 7H11C10.2044 7 9.44129 7.31607 8.87868 7.87868C8.31607 8.44129 8 9.20435 8 10V12H6C5.53426 12 5.07493 12.1084 4.65836 12.3167C4.24179 12.525 3.87944 12.8274 3.6 13.2L1.2 16.4C1.17075 16.4435 1.14722 16.4905 1.13 16.54L1.07 16.65C1.02587 16.7615 1.00216 16.8801 1 17V17ZM17 23C17 22.8022 17.0586 22.6089 17.1685 22.4444C17.2784 22.28 17.4346 22.1518 17.6173 22.0761C17.8 22.0004 18.0011 21.9806 18.1951 22.0192C18.3891 22.0578 18.5673 22.153 18.7071 22.2929C18.847 22.4327 18.9422 22.6109 18.9808 22.8049C19.0194 22.9989 18.9996 23.2 18.9239 23.3827C18.8482 23.5654 18.72 23.7216 18.5556 23.8315C18.3911 23.9414 18.1978 24 18 24C17.7348 24 17.4804 23.8946 17.2929 23.7071C17.1054 23.5196 17 23.2652 17 23ZM10 10C10 9.73478 10.1054 9.48043 10.2929 9.29289C10.4804 9.10536 10.7348 9 11 9H20C20.2652 9 20.5196 9.10536 20.7071 9.29289C20.8946 9.48043 21 9.73478 21 10V21H20.22C19.9388 20.6906 19.5961 20.4435 19.2138 20.2743C18.8315 20.1052 18.418 20.0178 18 20.0178C17.582 20.0178 17.1685 20.1052 16.7862 20.2743C16.4039 20.4435 16.0612 20.6906 15.78 21H10V10ZM8 16H4L5.2 14.4C5.29315 14.2758 5.41393 14.175 5.55279 14.1056C5.69164 14.0361 5.84475 14 6 14H8V16ZM5 23C5 22.8022 5.05865 22.6089 5.16853 22.4444C5.27841 22.28 5.43459 22.1518 5.61732 22.0761C5.80004 22.0004 6.00111 21.9806 6.19509 22.0192C6.38907 22.0578 6.56725 22.153 6.70711 22.2929C6.84696 22.4327 6.9422 22.6109 6.98079 22.8049C7.01937 22.9989 6.99957 23.2 6.92388 23.3827C6.84819 23.5654 6.72002 23.7216 6.55557 23.8315C6.39112 23.9414 6.19778 24 6 24C5.73478 24 5.48043 23.8946 5.29289 23.7071C5.10536 23.5196 5 23.2652 5 23ZM3 18H8V20.78C7.40983 20.2526 6.63513 19.9797 5.84469 20.0209C5.05425 20.0621 4.31212 20.414 3.78 21H3V18Z" fill="black"/>
<path d="M27 18H25C24.7348 18 24.4804 17.8946 24.2929 17.7071C24.1054 17.5196 24 17.2652 24 17C24 16.7348 24.1054 16.4804 24.2929 16.2929C24.4804 16.1054 24.7348 16 25 16H27C27.2652 16 27.5196 16.1054 27.7071 16.2929C27.8946 16.4804 28 16.7348 28 17C28 17.2652 27.8946 17.5196 27.7071 17.7071C27.5196 17.8946 27.2652 18 27 18Z" fill="#DA264D"/>
<path d="M25 20H31C31.2652 20 31.5196 20.1054 31.7071 20.2929C31.8946 20.4804 32 20.7348 32 21C32 21.2652 31.8946 21.5196 31.7071 21.7071C31.5196 21.8946 31.2652 22 31 22H25C24.7348 22 24.4804 21.8946 24.2929 21.7071C24.1054 21.5196 24 21.2652 24 21C24 20.7348 24.1054 20.4804 24.2929 20.2929C24.4804 20.1054 24.7348 20 25 20Z" fill="#DA264D"/>
</svg>
