<svg width="32" height="32" viewBox="0 0 32 32" fill="none" xmlns="http://www.w3.org/2000/svg">
<path d="M29.3333 10.4266C29.3398 10.3423 29.3398 10.2576 29.3333 10.1733L26.6667 3.5066C26.5625 3.24308 26.3771 3.01958 26.1374 2.86854C25.8976 2.7175 25.616 2.64677 25.3333 2.6666H6.66666C6.39962 2.66634 6.13865 2.74627 5.91757 2.89604C5.69648 3.04581 5.52546 3.25851 5.42666 3.5066L2.75999 10.1733C2.75356 10.2576 2.75356 10.3423 2.75999 10.4266C2.71568 10.5008 2.68414 10.5819 2.66666 10.6666C2.6815 11.5883 2.93496 12.4903 3.40232 13.2848C3.86967 14.0793 4.53497 14.7392 5.33332 15.1999V27.9999C5.33332 28.3536 5.4738 28.6927 5.72385 28.9427C5.9739 29.1928 6.31303 29.3333 6.66666 29.3333H25.3333C25.6869 29.3333 26.0261 29.1928 26.2761 28.9427C26.5262 28.6927 26.6667 28.3536 26.6667 27.9999V15.2533C27.4727 14.7879 28.143 14.1197 28.6108 13.3151C29.0786 12.5104 29.3277 11.5973 29.3333 10.6666C29.3458 10.5871 29.3458 10.5061 29.3333 10.4266ZM17.3333 26.6666H14.6667V21.3333H17.3333V26.6666ZM24 26.6666H20V19.9999C20 19.6463 19.8595 19.3072 19.6095 19.0571C19.3594 18.8071 19.0203 18.6666 18.6667 18.6666H13.3333C12.9797 18.6666 12.6406 18.8071 12.3905 19.0571C12.1405 19.3072 12 19.6463 12 19.9999V26.6666H7.99999V15.9999C8.75928 15.9957 9.50891 15.8293 10.1987 15.512C10.8885 15.1947 11.5027 14.7337 12 14.1599C12.5005 14.7274 13.116 15.1819 13.8057 15.4933C14.4953 15.8046 15.2433 15.9656 16 15.9656C16.7567 15.9656 17.5047 15.8046 18.1943 15.4933C18.884 15.1819 19.4995 14.7274 20 14.1599C20.4973 14.7337 21.1114 15.1947 21.8013 15.512C22.4911 15.8293 23.2407 15.9957 24 15.9999V26.6666ZM24 13.3333C23.2927 13.3333 22.6145 13.0523 22.1144 12.5522C21.6143 12.0521 21.3333 11.3738 21.3333 10.6666C21.3333 10.313 21.1928 9.97384 20.9428 9.72379C20.6928 9.47374 20.3536 9.33327 20 9.33327C19.6464 9.33327 19.3072 9.47374 19.0572 9.72379C18.8071 9.97384 18.6667 10.313 18.6667 10.6666C18.6667 11.3738 18.3857 12.0521 17.8856 12.5522C17.3855 13.0523 16.7072 13.3333 16 13.3333C15.2927 13.3333 14.6145 13.0523 14.1144 12.5522C13.6143 12.0521 13.3333 11.3738 13.3333 10.6666C13.3333 10.313 13.1928 9.97384 12.9428 9.72379C12.6927 9.47374 12.3536 9.33327 12 9.33327C11.6464 9.33327 11.3072 9.47374 11.0572 9.72379C10.8071 9.97384 10.6667 10.313 10.6667 10.6666C10.6798 11.0168 10.6238 11.3661 10.5019 11.6947C10.3801 12.0233 10.1947 12.3246 9.95632 12.5815C9.71798 12.8384 9.43138 13.0459 9.11287 13.192C8.79436 13.3382 8.45018 13.4201 8.09999 13.4333C7.39275 13.4598 6.70393 13.2043 6.18508 12.7229C5.92817 12.4846 5.72072 12.198 5.57458 11.8795C5.42843 11.561 5.34646 11.2168 5.33332 10.8666L7.57332 5.33327H24.4267L26.6667 10.8666C26.6161 11.5386 26.313 12.1666 25.8183 12.6242C25.3236 13.0818 24.6739 13.3352 24 13.3333Z" fill="black"/>
<path d="M13.5 18.5C12.3 18.5 12 19.4249 12 19.8873V26.6808H14.668V21.5H17.3359V26.6601H20V19.8873C20 18.5972 19 18.4249 18.5 18.5H13.5Z" fill="#DA264D"/>
</svg>
