<svg width="36" height="37" viewBox="0 0 36 37" fill="none" xmlns="http://www.w3.org/2000/svg">
<path d="M31.2728 35.1718L31.2728 35.1717H31.26H5.99836V35.1716L5.98577 35.1718C5.96345 35.1721 5.94137 35.1679 5.92088 35.1596C5.90043 35.1513 5.88215 35.1392 5.867 35.1241C5.85186 35.1091 5.84016 35.0914 5.83236 35.0723L4.97424 35.4226L5.83235 35.0723C5.82456 35.0532 5.82074 35.0329 5.82102 35.0125H5.8211V34.9998V2.01467V2.00202L5.82076 1.98937C5.8202 1.96884 5.82381 1.94831 5.83148 1.92897C5.83915 1.90962 5.85079 1.8917 5.86595 1.87642C5.88112 1.86113 5.89949 1.84878 5.9201 1.84038C5.94072 1.83197 5.96299 1.82773 5.98554 1.82804L5.98554 1.82813H5.99836H24.4214V1.82822L24.4339 1.82805C24.4563 1.82774 24.4784 1.83191 24.4988 1.84019C24.5193 1.84845 24.5376 1.8606 24.5527 1.87567L25.2067 1.2185L24.5527 1.87568C24.5679 1.89074 24.5795 1.90842 24.5874 1.92753C24.5952 1.94664 24.599 1.96696 24.5987 1.9873L24.5986 1.9873V2C24.5986 2.04412 24.581 2.08735 24.5483 2.11993C24.5154 2.15266 24.4698 2.17187 24.4214 2.17187H7.10374H6.17561V3.09999V33.8998V34.8279H7.10374H30.1546H31.0827V33.8998V8.2333C31.0827 8.18918 31.1003 8.14595 31.133 8.11337C31.1659 8.08063 31.2115 8.06143 31.26 8.06143C31.3084 8.06143 31.354 8.08063 31.3869 8.11337L32.0416 7.45548L31.3869 8.11337C31.4197 8.14595 31.4372 8.18918 31.4372 8.2333V34.9851V34.9978L31.4376 35.0104C31.4381 35.031 31.4345 35.0515 31.4269 35.0708L32.2896 35.4129L31.4268 35.0708C31.4192 35.0902 31.4075 35.1081 31.3924 35.1234C31.3772 35.1387 31.3588 35.151 31.3382 35.1594C31.3176 35.1678 31.2953 35.1721 31.2728 35.1718Z" fill="#0F0F0F" stroke="#0F0F0F" stroke-width="1.85625"/>
<path d="M23.9702 8.55703V8.55709H24.0606L30.4461 8.45436C30.4614 8.45344 30.4804 8.44793 30.5007 8.43273L23.9702 8.55703ZM23.9702 8.55703L23.9601 8.55714M23.9702 8.55703L23.9601 8.55714M23.9601 8.55714C23.9547 8.5572 23.9483 8.55623 23.9406 8.55297C23.9328 8.54965 23.9225 8.54339 23.9116 8.53206L23.9059 8.52614M23.9601 8.55714L23.9059 8.52614M23.9059 8.52614L23.9 8.52032M23.9059 8.52614L23.9 8.52032M23.9 8.52032C23.8873 8.50758 23.8745 8.4895 23.865 8.46582C23.8554 8.44207 23.8499 8.41484 23.85 8.38624H23.85M23.9 8.52032L23.85 8.38624M23.85 8.38624V8.38171M23.85 8.38624V8.38171M23.85 8.38171V2.01392C23.8505 1.96802 23.8636 1.92649 23.8833 1.89455C23.9031 1.86266 23.9267 1.84451 23.9458 1.8355L23.5509 0.995668L23.9453 1.83574C23.9616 1.82811 23.9763 1.82678 23.9895 1.829C24.0028 1.83125 24.0212 1.83837 24.0406 1.8566L30.5239 8.12217L30.5239 8.12217M23.85 8.38171L30.5239 8.12217M30.5239 8.12217L30.527 8.12513M30.5239 8.12217L30.527 8.12513M30.527 8.12513C30.5461 8.14339 30.5652 8.17327 30.5741 8.21392L31.4805 8.0144M30.527 8.12513L31.4805 8.0144M31.4805 8.0144L30.5741 8.21392C30.5831 8.25478 30.5797 8.29747 30.5659 8.33427L30.5658 8.33424M31.4805 8.0144L30.5658 8.33424M30.5658 8.33424L30.5614 8.3464M30.5658 8.33424L30.5614 8.3464M30.5614 8.3464C30.5465 8.38786 30.5228 8.41622 30.5007 8.43273L30.5614 8.3464ZM25.6696 3.8506L24.0905 2.29641V4.51209V7.26349V8.19162H25.0186H27.8142H30.0804L28.4652 6.602L25.6696 3.8506Z" fill="#0F0F0F" stroke="#0F0F0F" stroke-width="1.85625"/>
<path d="M12.3366 8.55715H10.3272C10.3091 8.55715 10.2655 8.55001 10.2144 8.49239C10.1601 8.43114 10.1137 8.32654 10.1137 8.19747C10.1137 8.0684 10.1601 7.9638 10.2144 7.90255C10.2655 7.84493 10.3091 7.83779 10.3272 7.83779H12.3366C12.3546 7.83779 12.3983 7.84493 12.4493 7.90255C12.5036 7.9638 12.5501 8.0684 12.5501 8.19747C12.5501 8.32654 12.5036 8.43114 12.4493 8.49239C12.3983 8.55001 12.3546 8.55715 12.3366 8.55715Z" fill="#0F0F0F" stroke="#0F0F0F" stroke-width="1.85625"/>
<path d="M20.0602 8.55715H15.4814C15.4616 8.55715 15.417 8.54925 15.3656 8.49148C15.3111 8.43014 15.2648 8.32585 15.2648 8.19747C15.2648 8.0691 15.3111 7.96481 15.3656 7.90347C15.417 7.84569 15.4616 7.83779 15.4814 7.83779H20.0602C20.08 7.83779 20.1246 7.84569 20.176 7.90347C20.2305 7.96481 20.2768 8.0691 20.2768 8.19747C20.2768 8.32585 20.2305 8.43014 20.176 8.49148C20.1246 8.54925 20.08 8.55715 20.0602 8.55715Z" fill="#0F0F0F" stroke="#0F0F0F" stroke-width="1.85625"/>
<path d="M12.3366 14.5669H10.3272C10.3091 14.5669 10.2655 14.5598 10.2144 14.5022C10.1601 14.4409 10.1137 14.3363 10.1137 14.2072C10.1137 14.0782 10.1601 13.9736 10.2144 13.9123C10.2655 13.8547 10.3091 13.8476 10.3272 13.8476H12.3366C12.3547 13.8476 12.3983 13.8547 12.4493 13.9123C12.5036 13.9736 12.5501 14.0782 12.5501 14.2072C12.5501 14.3363 12.5036 14.4409 12.4493 14.5022C12.3983 14.5598 12.3546 14.5669 12.3366 14.5669Z" fill="#0F0F0F" stroke="#0F0F0F" stroke-width="1.85625"/>
<path d="M26.1243 14.5669H15.4271C15.4259 14.5667 15.4228 14.5659 15.4176 14.5633C15.408 14.5587 15.3882 14.5464 15.3644 14.5182C15.3135 14.4581 15.2648 14.348 15.2648 14.2072C15.2648 14.0665 15.3135 13.9564 15.3644 13.8963C15.3882 13.8681 15.408 13.8558 15.4176 13.8511C15.4228 13.8485 15.4259 13.8478 15.4271 13.8476H26.1243C26.1255 13.8478 26.1285 13.8485 26.1338 13.8511C26.1434 13.8558 26.1632 13.8681 26.187 13.8963C26.2379 13.9564 26.2866 14.0665 26.2866 14.2072C26.2866 14.348 26.2379 14.4581 26.187 14.5182C26.1632 14.5464 26.1434 14.5587 26.1338 14.5633C26.1285 14.5659 26.1255 14.5667 26.1243 14.5669Z" fill="#0F0F0F" stroke="#0F0F0F" stroke-width="1.85625"/>
<path d="M12.3366 19.7183H10.3272C10.3091 19.7183 10.2655 19.7111 10.2144 19.6535C10.1601 19.5923 10.1137 19.4877 10.1137 19.3586C10.1137 19.2295 10.1601 19.1249 10.2144 19.0637C10.2655 19.0061 10.3091 18.9989 10.3272 18.9989H12.3366C12.3546 18.9989 12.3983 19.0061 12.4493 19.0637C12.5036 19.1249 12.5501 19.2295 12.5501 19.3586C12.5501 19.4877 12.5036 19.5923 12.4493 19.6535C12.3983 19.7111 12.3547 19.7183 12.3366 19.7183Z" fill="#0F0F0F" stroke="#0F0F0F" stroke-width="1.85625"/>
<path d="M26.1243 19.7183H15.4271C15.4259 19.7181 15.4228 19.7173 15.4176 19.7147C15.408 19.71 15.3882 19.6978 15.3644 19.6696C15.3135 19.6095 15.2648 19.4994 15.2648 19.3586C15.2648 19.2179 15.3135 19.1078 15.3644 19.0476C15.3882 19.0194 15.408 19.0072 15.4176 19.0025C15.4228 18.9999 15.4259 18.9991 15.4271 18.9989H26.1243C26.1255 18.9991 26.1285 18.9999 26.1338 19.0025C26.1434 19.0072 26.1632 19.0194 26.187 19.0477C26.2379 19.1078 26.2866 19.2179 26.2866 19.3586C26.2866 19.4994 26.2379 19.6095 26.187 19.6696C26.1632 19.6978 26.1434 19.71 26.1338 19.7147C26.1285 19.7173 26.1255 19.7181 26.1243 19.7183Z" fill="#0F0F0F" stroke="#0F0F0F" stroke-width="1.85625"/>
<path d="M26.6273 23.2219H17.4998C17.344 23.2219 17.1946 23.2856 17.0844 23.3991C16.9742 23.5125 16.9124 23.6663 16.9124 23.8267V31.2025C16.9124 31.3629 16.9742 31.5167 17.0844 31.6301C17.1946 31.7436 17.344 31.8073 17.4998 31.8073H26.6273C26.7831 31.8073 26.9325 31.7436 27.0427 31.6301C27.1529 31.5167 27.2148 31.3629 27.2148 31.2025V23.8267C27.2112 23.6675 27.1481 23.5158 27.0387 23.4032C26.9293 23.2906 26.782 23.2257 26.6273 23.2219ZM25.6673 26.0837L21.8415 30.0519C21.7048 30.1931 21.5193 30.2726 21.3256 30.2731C21.2349 30.276 21.1446 30.259 21.0606 30.2234C20.9767 30.1879 20.901 30.1344 20.8385 30.0666L18.4599 27.7211C18.339 27.5827 18.2734 27.4024 18.2762 27.2162C18.2791 27.0301 18.3502 26.852 18.4753 26.7176C18.6004 26.5832 18.7703 26.5025 18.9508 26.4916C19.1313 26.4807 19.3091 26.5405 19.4486 26.659L19.7638 27.0131L23.8045 25.9509L24.6356 25.0806C24.7022 25.0115 24.7814 24.9566 24.8687 24.9192C24.9561 24.8817 25.0497 24.8624 25.1443 24.8624C25.2389 24.8624 25.3325 24.8817 25.4198 24.9192C25.5071 24.9566 25.5863 25.0115 25.6529 25.0806C25.7778 25.2151 25.8486 25.3932 25.8513 25.5793C25.8539 25.7653 25.7882 25.9455 25.6673 26.0837Z" fill="#DB284E"/>
<path d="M23.7805 25.7974L19.4878 26.851L21.1166 28.373L23.7805 25.7974Z" fill="#DB284E"/>
<path d="M24.2629 25.1178L23.4183 25.9373L24.7871 25.6039L20.8845 29.354L18.4817 27.1456L19.2972 26.9789L18.9623 26.6873C18.8205 26.5757 18.6398 26.5194 18.4564 26.5296C18.2729 26.5399 18.1003 26.6159 17.9732 26.7424C17.846 26.869 17.7738 27.0367 17.7708 27.2119C17.7679 27.3872 17.8346 27.557 17.9575 27.6873L20.3748 29.8957C20.4383 29.9595 20.5152 30.0098 20.6006 30.0433C20.6859 30.0769 20.7777 30.0928 20.8699 30.0901C21.0667 30.0897 21.2552 30.0148 21.3941 29.8818L25.2822 26.1456C25.3505 26.081 25.4046 26.0042 25.4416 25.9196C25.4786 25.835 25.4976 25.7442 25.4976 25.6525C25.4976 25.5608 25.4786 25.4701 25.4416 25.3854C25.4046 25.3008 25.3505 25.224 25.2822 25.1595C25.1519 25.0265 24.9721 24.9476 24.7815 24.9398C24.5908 24.9321 24.4046 24.9959 24.2629 25.1178Z" fill="white"/>
<path d="M20.9192 30.09L24.6389 25.7974L23.3342 26.1644L20.9054 28.973L19.4203 27.3134L18.6292 27.5527L20.9192 30.09Z" fill="white"/>
</svg>
