<svg width="177" height="50" viewBox="0 0 177 50" fill="none" xmlns="http://www.w3.org/2000/svg">
<g clip-path="url(#clip0_28033_52133)">
<path d="M19.4856 14.8394L20.0188 14.7287C19.2211 20.0316 18.4379 26.7453 18.5112 28.8639C18.5485 29.9646 19.339 30.7567 20.3939 30.7567C20.7268 30.7541 21.0547 30.6744 21.3525 30.5237C26.1283 28.1635 29.0832 27.4035 33.9798 26.144C35.1295 25.8528 35.4313 24.8671 35.3379 24.1172C35.2301 23.2436 34.5604 22.354 33.4911 22.354C33.32 22.3546 33.1496 22.3766 32.9838 22.4195C28.7929 23.4969 25.9846 24.2643 22.4994 25.7684C22.5756 24.9413 22.6747 23.9862 22.7969 22.9276C23.4738 22.6466 24.1019 22.3831 24.694 22.1327C27.9564 20.7611 30.1108 19.854 33.9812 18.7838C35.131 18.4649 35.4184 17.4734 35.3221 16.7119C35.2071 15.8557 34.5474 14.9879 33.5084 14.9879C33.3262 14.9885 33.1449 15.014 32.9694 15.0636C29.0502 16.1527 26.88 17.0671 23.5917 18.4518L23.343 18.5552C23.6305 16.4833 23.9179 14.4914 24.1809 12.9335C26.9447 11.7104 29.4986 11.0756 33.5342 10.266C34.4756 10.0767 35.0232 9.33271 34.9297 8.37319C34.8421 7.46171 34.1292 6.49345 32.9852 6.49345C32.8472 6.49395 32.7095 6.50809 32.5742 6.53568C29.3922 7.17488 26.9274 7.75146 24.4971 8.65129C24.4337 8.54617 24.359 8.4485 24.2743 8.36008C24.0842 8.16943 23.8586 8.01878 23.6107 7.91683C23.3628 7.81487 23.0975 7.76362 22.8299 7.76602C22.1272 7.76602 21.2864 8.13294 21.0363 9.1609C21.0104 9.26573 20.963 9.43754 20.907 9.63847V9.65886C20.8092 10.0083 20.6885 10.4393 20.6195 10.7611C20.128 10.9067 18.3387 11.2255 16.6054 11.5284L16.5192 11.5444C14.4856 11.8982 12.1832 12.3001 10.7129 12.6393C10.756 11.5036 10.7977 10.5034 10.8394 9.58169C10.8638 9.02985 10.8767 8.45909 10.8897 7.90435V7.58402C12.5827 7.33067 14.2657 7.06713 16.2892 6.74972L16.3395 6.74098C18.5471 6.39444 21.0493 6.00132 23.481 5.65041C23.6939 5.61572 23.8971 5.53528 24.0768 5.41448C24.2565 5.29369 24.4086 5.13534 24.523 4.95007C24.6703 4.72185 24.7701 4.4656 24.8163 4.19697C24.8625 3.92834 24.8541 3.65299 24.7917 3.38775C24.5675 2.55927 23.8877 2.06713 22.9737 2.06713C22.8511 2.06731 22.7286 2.07607 22.6072 2.09334C20.3077 2.42677 17.9665 2.79369 15.7086 3.14896L15.6066 3.16643C14.1119 3.40231 12.6431 3.63236 11.1512 3.86096C11.228 3.33183 11.3394 2.80845 11.4847 2.29427C11.5692 2.036 11.5904 1.76075 11.5463 1.49233C11.5022 1.22391 11.3943 0.970417 11.2317 0.753793C11.0467 0.517069 10.8109 0.32613 10.5422 0.195451C10.2736 0.0647732 9.97903 -0.00221353 9.68099 -0.000429842C9.29367 -0.0123061 8.91391 0.109873 8.60432 0.345968C8.29473 0.582063 8.07379 0.91798 7.97791 1.29835C7.69754 2.30963 7.51653 3.34651 7.43752 4.39386C5.35645 4.68507 3.5039 4.91658 1.77494 5.10295C0.718601 5.21506 0 5.95327 0 6.93754C0 7.83446 0.826391 8.88134 1.85255 8.77214C3.5039 8.59741 5.27309 8.37755 7.26218 8.10528C7.25212 8.39648 7.24206 8.68769 7.22912 8.97889C7.16589 10.3374 7.10552 11.7774 7.04229 13.6586C6.35674 13.8784 5.73156 14.0954 5.13081 14.3196C4.33891 14.6108 3.77265 15.5922 3.86751 16.492C3.94656 17.2419 4.44239 17.7544 5.20698 17.865C5.64736 17.9413 6.09805 17.9319 6.53496 17.8374C6.63556 17.8155 6.75628 17.7893 6.89569 17.7544L6.84539 19.2104C6.71604 22.9728 6.58238 26.8633 6.36968 30.6883C6.34914 30.9184 6.37624 31.1503 6.44924 31.3692C6.52225 31.588 6.63955 31.7891 6.79365 31.9594C6.96468 32.1335 7.16872 32.2707 7.39349 32.3628C7.61826 32.4549 7.8591 32.4999 8.1015 32.4952C8.99544 32.4952 9.9325 31.8895 9.99574 30.7305C10.2113 26.8735 10.345 22.9684 10.4743 19.1929L10.5577 16.7832C12.5554 16.2619 17.005 15.3505 19.1493 14.9108L19.4856 14.8394Z" fill="#D7244F"/>
<path d="M102.382 21.8682C102.274 20.9946 101.604 20.1035 100.534 20.1035C100.363 20.1045 100.193 20.127 100.028 20.1705C95.6257 21.3018 92.4552 22.1638 88.7616 23.7421C88.8191 22.9267 88.9053 21.9716 89.0217 20.8985C89.0505 20.8883 89.0778 20.8796 89.1036 20.8679C90.2362 20.3976 91.1818 19.9943 91.807 19.7176C94.1698 18.6984 95.4705 18.1379 98.9542 17.1696C100.104 16.8493 100.391 15.8592 100.292 15.0962C100.18 14.2401 99.5205 13.3723 98.4799 13.3723C98.2983 13.3735 98.1175 13.399 97.9424 13.448C94.4069 14.4308 93.0933 14.9987 90.7104 16.0266C90.3497 16.1824 89.9717 16.3469 89.5607 16.5217C89.8481 14.4454 90.1672 12.321 90.4733 10.5243C91.6834 10.0088 92.997 9.65066 94.2345 9.33325C95.9217 8.90518 96.9651 8.72463 98.1753 8.51496H98.1882C98.8105 8.40722 99.5852 8.27472 100.575 8.07815C101.517 7.89178 102.066 7.15212 101.974 6.18532C101.888 5.27093 101.173 4.29248 100.024 4.29248C99.888 4.29243 99.7527 4.30559 99.6197 4.33179C98.6366 4.52545 97.678 4.68706 96.7452 4.84432C94.8769 5.15882 92.9352 5.48351 91.0784 6.06447C90.9957 5.81757 90.8585 5.593 90.6774 5.4078C90.2941 5.02626 89.7775 4.81376 89.2402 4.81665C88.5374 4.81665 87.6966 5.18211 87.4466 6.20861C87.3531 6.593 87.2353 7.15503 87.0988 7.88305C86.314 8.38006 85.5768 8.9504 84.897 9.5866C84.3221 10.1239 84.1467 10.8344 84.4169 11.5377C84.5678 11.9131 84.8213 12.2371 85.1477 12.4716C85.4741 12.706 85.8598 12.8412 86.2594 12.8612C85.4417 18.1772 84.6641 24.6084 84.9243 26.7867C85.0565 27.8845 85.8354 28.6518 86.8214 28.6518C87.1485 28.6489 87.4707 28.5697 87.7627 28.4203C92.4983 26.079 96.0798 25.1588 101.037 23.8848C102.175 23.598 102.472 22.618 102.382 21.8682Z" fill="#D7244F"/>
<path d="M50.8152 31.1795C51.0264 28.5485 51.3455 25.4821 51.6559 22.5191V22.4535C51.873 20.3743 52.0972 18.231 52.2768 16.2887C52.4708 14.1702 52.6878 11.8813 52.9609 9.51235C52.9868 9.2954 53.0112 9.07554 53.0342 8.85714C53.1607 7.71707 53.29 6.53769 53.5688 5.418C53.6318 5.18225 53.6396 4.93488 53.5917 4.69553C53.5438 4.45617 53.4415 4.23143 53.2929 4.03914C53.1124 3.81493 52.8849 3.63429 52.6268 3.51038C52.3687 3.38646 52.0867 3.32237 51.8011 3.32278C51.4992 3.31736 51.2014 3.39491 50.9395 3.5472C50.6776 3.69948 50.4613 3.92081 50.3136 4.18766C49.595 5.44858 48.9583 6.7459 48.3389 8.00099C47.9494 8.7887 47.5082 9.68271 47.0655 10.5257C46.2492 12.0852 45.5593 13.3286 44.8738 14.4366C44.6654 14.7773 44.4613 15.0948 44.2515 15.4034C43.9065 14.4439 43.1089 12.1041 42.6145 10.3292C42.2854 9.15562 41.9103 7.98935 41.5467 6.85947C41.3771 6.33093 41.2075 5.80094 41.0436 5.27968C41.0278 5.13407 41.0063 4.99721 40.9804 4.86034L40.9732 4.83996C40.9159 4.66652 40.8492 4.4964 40.7734 4.33035C40.5047 3.80472 39.9241 3.47711 39.2572 3.47711C38.9499 3.47589 38.6468 3.54929 38.3733 3.69115C38.1782 3.79507 38.006 3.93826 37.8674 4.11194C37.8161 4.1626 37.7681 4.21658 37.7237 4.27356C37.5699 4.48348 37.471 4.72941 37.4363 4.98847C37.3194 5.4904 37.2539 6.00321 37.2408 6.51876C37.2279 6.75318 37.2135 6.99488 37.1876 7.18999C36.916 9.22843 36.7464 11.3965 36.6357 14.227C36.4633 18.7043 36.3066 24.7759 36.2276 30.07C36.2183 30.282 36.2518 30.4937 36.3259 30.6923C36.4001 30.8908 36.5133 31.0719 36.6587 31.2246C36.8318 31.3935 37.036 31.5262 37.2596 31.6152C37.4833 31.7041 37.722 31.7475 37.9623 31.743C38.8347 31.743 39.7272 31.1722 39.7444 30.0817C39.7846 27.356 39.8752 24.211 39.9614 21.1693C40.0218 19.0785 40.0706 17.3516 40.1051 15.7471C40.1166 15.2709 40.1296 14.7817 40.1483 14.291C40.9215 16.4503 41.8413 18.0403 43.0313 19.2808C43.3649 19.6003 43.8098 19.7731 44.2687 19.7613C44.6011 19.768 44.9274 19.6704 45.2029 19.4818C46.8312 18.2995 47.9336 16.3979 48.9224 14.5211C48.8735 15.0297 48.8256 15.5389 48.7787 16.0485C48.6062 17.9209 48.3877 20.0176 48.1765 22.0458L48.1664 22.1405C47.8459 25.2243 47.5139 28.413 47.2897 31.2013C47.2661 31.4064 47.2857 31.6143 47.3474 31.8111C47.4091 32.0079 47.5114 32.1892 47.6476 32.3429C47.8092 32.5089 48.0029 32.6395 48.2166 32.7264C48.4302 32.8133 48.6592 32.8547 48.8893 32.8481C49.7847 32.8481 50.7332 32.2744 50.8152 31.1795Z" fill="#D7244F"/>
<path d="M56.4201 29.2546C57.1746 26.8667 57.8702 24.4497 58.3948 22.5962C60.2847 21.6178 62.0123 20.7369 63.6708 19.9026C64.7084 23.3745 65.9564 26.7784 67.4075 30.0948C67.6705 30.6917 68.3187 31.0761 69.0603 31.0761C69.3999 31.0788 69.7344 30.9914 70.0304 30.8228C70.9085 30.303 71.1902 29.2575 70.7318 28.2209C69.4383 25.3088 68.2698 22.0225 67.1388 18.1874C68.0816 17.7287 68.9295 17.3137 69.7257 16.9381C70.4975 16.5712 70.8654 15.8388 70.6858 15.0278C70.5061 14.2168 69.7602 13.3766 68.7154 13.3766C68.4202 13.3784 68.1291 13.4466 67.8631 13.5761C67.2786 13.8547 66.687 14.1386 66.0882 14.4279C65.6426 12.7433 65.2 10.9334 64.651 8.58486C64.4713 7.80297 64.2701 7.00798 64.0387 6.15184C63.9482 5.81695 63.8677 5.47333 63.7944 5.10204L63.7771 5.01177C63.8893 4.74694 63.9378 4.45896 63.9189 4.17144C63.8999 3.88392 63.8139 3.60505 63.6679 3.35772C63.4863 3.06519 63.2357 2.82308 62.9386 2.65327C62.6415 2.48347 62.3073 2.3913 61.9663 2.38509C61.6297 2.38162 61.3011 2.48835 61.0292 2.6894C60.5441 3.04044 60.2009 3.55773 60.0634 4.14543L59.9973 4.1265L59.9197 4.48468C58.2022 9.20658 56.8283 14.0945 55.5003 18.8324L55.1884 19.9317L55.0548 20.003C54.9421 20.0421 54.833 20.0908 54.7285 20.1486C54.6049 20.2142 54.4871 20.2826 54.3778 20.3481C54.2686 20.4136 54.1651 20.4719 54.0559 20.5301L53.7239 20.7034L53.7369 20.7354C53.4711 20.9378 53.2719 21.2168 53.1652 21.5358C53.0585 21.8548 53.0494 22.199 53.139 22.5234C53.2739 23.067 53.6112 23.5366 54.0803 23.8338C53.5946 25.501 53.1763 26.8915 52.7596 28.2019C52.6638 28.4666 52.6337 28.7511 52.6718 29.0303C52.7099 29.3096 52.815 29.5751 52.978 29.8036C53.1717 30.0547 53.4201 30.2571 53.7039 30.3948C53.9876 30.5324 54.299 30.6017 54.6135 30.5971C55.019 30.6081 55.4166 30.4821 55.7436 30.2391C56.0707 29.996 56.3087 29.6497 56.4201 29.2546ZM59.8177 17.5467C60.2704 15.9451 60.8625 13.8775 61.5193 11.7401L61.5509 11.8857C61.7636 12.8103 62.0022 13.8571 62.2695 14.8895C62.3773 15.3146 62.4908 15.7325 62.6015 16.1475C61.7205 16.5828 60.8093 17.0356 59.8177 17.5467Z" fill="#D7244F"/>
<path d="M82.244 23.7856C81.9201 23.7878 81.602 23.8735 81.3199 24.0346C79.7519 24.8981 78.4871 25.4484 77.2181 25.8183C76.5596 26.011 75.8785 26.1133 75.1931 26.1226L75.1227 26.1124C75.0278 25.5795 75.1615 24.8209 75.2664 24.2035C75.4532 23.1377 75.6674 21.9292 75.8413 20.7091C76.8473 13.6968 77.3819 8.06637 77.5874 2.45192C77.6033 2.20965 77.57 1.96665 77.4894 1.73798C77.4088 1.50932 77.2827 1.29985 77.1189 1.12257C76.9374 0.941091 76.7221 0.798055 76.4854 0.701809C76.2488 0.605562 75.9956 0.558034 75.7406 0.561996C74.8007 0.561996 73.8249 1.20119 73.7803 2.4228C73.5159 9.6942 72.8892 15.9202 71.8099 22.0166C71.7754 22.2131 71.7352 22.417 71.6935 22.6368L71.6791 22.714C71.248 24.9941 70.6975 27.8319 72.9252 29.3418C73.5733 29.7787 74.3624 29.9941 75.3195 29.9941C76.1894 29.9694 77.0538 29.8458 77.8964 29.6258C79.7964 29.1817 81.5786 28.2833 83.2141 27.3762C83.9873 26.951 84.3207 26.191 84.108 25.3378C83.9226 24.5704 83.2141 23.7856 82.244 23.7856Z" fill="#D7244F"/>
<path d="M147.661 25H147.517C145.969 25 145.134 26.2566 145.107 27.4971C145.08 28.6896 145.8 30.0087 147.44 30.0815H147.567C149.122 30.0815 149.965 28.8264 149.992 27.5859C150.016 26.392 149.298 25.0728 147.661 25Z" fill="#D7244F"/>
<path d="M128.63 10.8489C128.107 7.06326 125.817 3.82215 122.654 2.38359C121.577 1.88989 120.41 1.63142 119.229 1.625C117.014 1.625 115.083 2.55686 113.793 4.24585C113.423 4.71856 113.104 5.23012 112.842 5.77177C112.685 6.08111 112.612 6.42672 112.628 6.77399C112.645 7.12126 112.751 7.45801 112.937 7.75051C113.216 8.20528 113.649 8.54205 114.154 8.69838C114.061 11.5609 114.041 14.5225 114.092 17.4928C114.13 19.5778 114.206 22.0443 114.498 24.5356L114.547 24.9637C114.232 25.0001 113.926 25.0219 113.634 25.0292C112.355 25.0598 111.699 26.095 111.712 27.1011C111.722 28.0417 112.32 29.0507 113.605 29.0507H113.655C114.269 29.0351 114.881 28.9782 115.486 28.8804C115.58 29.0663 115.689 29.2441 115.811 29.4118C116.255 30.0146 116.879 30.3597 117.524 30.3597C117.866 30.3582 118.201 30.2631 118.495 30.0845C118.741 29.9296 118.953 29.7253 119.118 29.4841C119.283 29.243 119.398 28.9701 119.455 28.6824C119.526 28.3502 119.503 28.0045 119.388 27.685C121.498 26.689 123.369 25.2414 124.873 23.4421C127.871 19.8632 129.24 15.2738 128.63 10.8489ZM118.246 5.75284C118.525 5.64474 118.824 5.5952 119.123 5.60724H119.345C119.803 5.62374 120.255 5.71927 120.68 5.88971C122.648 6.56239 124.23 8.71149 124.713 11.36C125.258 14.3536 124.186 18.0432 121.983 20.7572C120.989 21.9823 119.769 22.9983 118.39 23.7479C118.155 21.5027 118.092 19.1963 118.058 17.0385C117.994 13.2033 118.058 9.40601 118.246 5.75138V5.75284Z" fill="#D7244F"/>
<path d="M142.557 18.7565C142.27 16.0643 141.96 13.2804 141.449 10.5707C141.096 8.69684 140.693 6.71082 139.995 4.82381C139.68 3.97203 139.345 3.15957 138.71 2.57279C138.25 2.13989 137.647 1.89727 137.02 1.89282C136.694 1.89289 136.372 1.96271 136.075 2.09771C135.778 2.23271 135.512 2.42984 135.295 2.67617C135.047 2.94036 134.878 3.26962 134.805 3.62658C134.733 3.98354 134.761 4.35391 134.886 4.69568C134.889 4.70753 134.893 4.7192 134.897 4.73062C134.868 4.78883 134.843 4.84863 134.821 4.90971C134.102 6.83895 133.466 8.81478 132.843 10.7251V10.7396C132.152 12.864 131.524 14.7772 130.818 16.673C129.853 16.9875 129.598 17.8625 129.676 18.5221C129.703 18.7361 129.763 18.9445 129.854 19.1395C129.528 19.9461 129.157 20.8867 128.869 21.8055C128.479 23.0576 128.027 24.9083 128.628 26.5026C128.961 27.3762 129.692 27.9295 130.534 27.9295C130.71 27.9294 130.885 27.9054 131.054 27.8582C131.327 27.7739 131.58 27.6347 131.799 27.4488C132.018 27.2629 132.197 27.0342 132.326 26.7763C132.441 26.5571 132.51 26.3156 132.527 26.0678C132.544 25.8199 132.509 25.5712 132.425 25.3378C132.118 24.5239 132.501 23.4085 132.839 22.4257L132.92 22.1942C133.185 21.4109 133.504 20.6363 133.812 19.8864L133.895 19.6811C135.252 19.3899 136.672 19.1235 138.628 18.79L138.726 19.6884C139.095 23.1115 139.479 26.6497 140.292 30.067C140.376 30.4878 140.603 30.8654 140.934 31.1331C141.266 31.4008 141.68 31.5414 142.103 31.5303C142.424 31.5282 142.74 31.4547 143.029 31.315C143.319 31.1754 143.574 30.973 143.778 30.7222C143.961 30.4873 144.087 30.2121 144.146 29.9187C144.205 29.6253 144.195 29.3219 144.117 29.0332C143.315 25.6668 142.93 22.1549 142.557 18.7565ZM138.188 15.198C137.1 15.3829 136.199 15.5416 135.364 15.6974C135.788 14.4627 136.206 13.1843 136.599 11.9831L136.642 11.8506C136.83 11.2769 137.049 10.6057 137.277 9.91699C137.457 10.7426 137.631 11.6642 137.813 12.7155C137.858 12.9732 137.899 13.2324 137.938 13.4901C137.954 13.5949 137.971 13.6998 137.984 13.8046L138.035 14.1497C138.046 14.2356 138.056 14.2953 138.06 14.3273C138.105 14.6156 138.148 14.9068 138.188 15.198Z" fill="#D7244F"/>
<path d="M149.538 13.3781C149.559 13.0301 149.581 12.669 149.605 12.2802V12.2424C149.651 11.4532 149.686 10.9873 149.712 10.6407V10.5606C149.758 9.94621 149.787 9.57492 149.831 8.16548C149.831 8.03007 149.84 7.89175 149.845 7.75343L149.854 7.53794C149.91 6.14015 149.968 4.69431 149.607 3.35331C149.502 2.92048 149.254 2.53708 148.904 2.26688C148.554 1.99668 148.124 1.85597 147.684 1.86816C147.367 1.86525 147.054 1.9347 146.768 2.07133C146.481 2.20796 146.229 2.40826 146.03 2.65733C145.856 2.8864 145.739 3.15436 145.689 3.43866C145.639 3.72296 145.657 4.01527 145.742 4.29099C145.794 4.49272 145.83 4.69812 145.851 4.90544V5.03211C145.864 5.24324 145.87 5.44999 145.874 5.62471C145.902 6.58715 145.874 7.54085 145.837 8.51347C145.788 9.91272 145.751 10.3947 145.693 11.0717V11.0906C145.66 11.5275 145.619 12.0633 145.563 13.033L145.517 13.8076C145.416 15.4733 145.344 16.6789 145.363 18.5644C145.363 18.662 145.363 18.7683 145.363 18.8804V18.9284C145.363 20.4427 145.363 22.9762 147.267 23.2776C147.426 23.3026 147.586 23.3152 147.747 23.3155C148.404 23.3155 148.897 23.081 149.236 22.6166C149.769 21.8653 149.623 20.7732 149.45 20.2461C149.414 20.1221 149.389 19.9949 149.377 19.8661C149.377 19.8516 149.377 19.8035 149.368 19.7336V19.6987C149.368 19.6346 149.357 19.5691 149.354 19.54C149.344 19.3565 149.338 19.1716 149.334 18.9911V18.9503C149.324 18.5222 149.334 18.0767 149.334 17.6966C149.377 15.9771 149.444 14.8865 149.538 13.3781Z" fill="#D7244F"/>
<path d="M175.339 2.92818C175.068 2.92389 174.8 2.98823 174.559 3.11535C174.319 3.24248 174.113 3.42837 173.962 3.65619L173.897 3.63727L173.753 4.07407C173.008 6.26103 172.121 8.45672 171.182 10.7747L171.172 10.7995C170.776 11.7808 170.445 12.602 170.123 13.4203C169.278 12.1914 168.398 10.8781 167.457 9.41333C167.128 8.90372 166.955 8.6693 166.815 8.48001C166.563 8.14058 166.335 7.78451 166.131 7.4142C165.843 6.92352 165.59 6.46342 165.356 6.00914C165.27 5.84024 165.181 5.65823 165.087 5.45584L165.05 5.36411C165.025 5.30005 165.004 5.23016 164.984 5.16318C164.888 4.82153 164.683 4.52172 164.401 4.31087C164.119 4.10002 163.776 3.99009 163.426 3.99836C163.157 3.99636 162.891 4.05719 162.649 4.17612C162.407 4.29506 162.195 4.4689 162.03 4.68415C161.883 4.8875 161.788 5.12454 161.752 5.37422C161.717 5.62391 161.744 5.87851 161.829 6.11542V6.1329C162.701 8.15823 163.133 8.82509 164.078 10.2826C164.212 10.4879 164.351 10.7063 164.509 10.9451L164.518 10.9567C165.984 13.2398 167.354 15.2666 168.706 17.1507C167.2 21.3921 166.406 24.8312 166.211 27.9733C166.191 28.184 166.216 28.3964 166.282 28.597C166.348 28.7976 166.455 28.982 166.596 29.1381C166.75 29.297 166.934 29.4224 167.138 29.5065C167.341 29.5906 167.559 29.6318 167.779 29.6274C168.582 29.6274 169.43 29.0814 169.495 28.0374C169.831 22.637 172.098 17.1172 174.287 11.7663L174.304 11.7226C175.034 9.93895 175.725 8.25287 176.352 6.56097C176.458 6.41098 176.541 6.24489 176.596 6.06883C176.654 5.88974 176.704 5.70774 176.757 5.50972C176.802 5.3481 176.848 5.18065 176.901 5.01467C176.986 4.78466 177.014 4.5369 176.982 4.29334C176.95 4.04978 176.86 3.81793 176.718 3.61834C176.557 3.40294 176.348 3.22849 176.109 3.10873C175.869 2.98897 175.606 2.92716 175.339 2.92818Z" fill="#D7244F"/>
<path d="M162.649 23.2804C162.322 23.2831 162.001 23.3693 161.715 23.5308C160.278 24.3258 159.114 24.8296 157.951 25.1688C157.382 25.3342 156.795 25.4262 156.204 25.4426C156.162 24.9941 156.267 24.387 156.347 23.8875L156.357 23.8366C156.531 22.8523 156.728 21.7384 156.888 20.6246C157.786 14.3433 158.325 8.65603 158.516 3.23815C158.531 2.99121 158.497 2.74372 158.414 2.51087C158.332 2.27801 158.203 2.06471 158.036 1.88404C157.853 1.69993 157.635 1.55485 157.395 1.45734C157.155 1.35982 156.899 1.31183 156.641 1.31619C155.691 1.31619 154.706 1.96267 154.662 3.20029C154.46 8.69097 153.86 14.7743 152.825 21.7967C152.787 22.0602 152.737 22.3412 152.681 22.679C152.316 24.748 151.86 27.3252 153.934 28.7288C154.562 29.1554 155.317 29.3622 156.242 29.3622C157.059 29.3391 157.871 29.2229 158.663 29.0157C160.438 28.6007 162.099 27.762 163.631 26.9204C164.416 26.4836 164.755 25.7134 164.539 24.8514C164.345 24.071 163.633 23.2804 162.649 23.2804Z" fill="#D7244F"/>
<path d="M176.998 36.092H99.3982V50H176.998V36.092Z" fill="#D8254F"/>
<path d="M111.788 44.2631C111.602 44.0678 111.374 43.9184 111.122 43.8263C110.826 43.7113 110.523 43.614 110.216 43.5351C109.879 43.4489 109.547 43.3439 109.222 43.2206C108.905 43.1038 108.601 42.954 108.315 42.7736C108.033 42.5884 107.804 42.332 107.649 42.0296C107.467 41.6696 107.378 41.2689 107.391 40.8648C107.385 40.5362 107.453 40.2106 107.588 39.9118C107.723 39.613 107.922 39.3486 108.171 39.1379C108.691 38.6759 109.395 38.4448 110.284 38.4448C110.602 38.4438 110.919 38.4844 111.226 38.5657C111.487 38.6323 111.738 38.7301 111.975 38.8569C112.156 38.9554 112.331 39.0653 112.498 39.186C112.617 39.2716 112.727 39.3691 112.826 39.4772L112.924 39.6009L112.046 40.4964C112.03 40.4804 112.007 40.4527 111.975 40.4134C111.912 40.3442 111.842 40.2818 111.767 40.227C111.657 40.1405 111.54 40.0631 111.418 39.9955C111.261 39.9152 111.096 39.8537 110.926 39.8121C110.716 39.7576 110.5 39.7307 110.284 39.732C109.89 39.7121 109.502 39.8332 109.187 40.0741C109.061 40.166 108.958 40.2864 108.886 40.4257C108.815 40.565 108.776 40.7193 108.773 40.8764C108.766 41.1317 108.859 41.3795 109.03 41.5666C109.217 41.7618 109.445 41.9113 109.697 42.0034C109.993 42.1184 110.296 42.2156 110.603 42.2946C110.939 42.3816 111.271 42.4856 111.597 42.6062C111.914 42.7214 112.218 42.8703 112.504 43.0503C112.786 43.2362 113.016 43.4937 113.17 43.7972C113.35 44.155 113.439 44.553 113.428 44.9547C113.439 45.3189 113.37 45.6809 113.225 46.0146C113.081 46.3483 112.865 46.6452 112.593 46.884C112.036 47.3819 111.266 47.6309 110.284 47.6309C109.896 47.6334 109.509 47.5845 109.134 47.4853C108.823 47.4076 108.522 47.2907 108.24 47.1373C108.028 47.0162 107.825 46.88 107.632 46.7296C107.498 46.6268 107.373 46.5123 107.258 46.3875L107.135 46.2317L108.013 45.342C108.03 45.3668 108.057 45.4032 108.096 45.4512C108.178 45.5402 108.266 45.6234 108.359 45.7002C108.497 45.8183 108.646 45.9222 108.805 46.0104C109.007 46.1163 109.221 46.198 109.441 46.2535C109.715 46.3276 109.997 46.3643 110.279 46.3627C110.824 46.3627 111.255 46.2278 111.573 45.9579C111.722 45.8388 111.842 45.6865 111.924 45.5129C112.006 45.3392 112.048 45.1487 112.046 44.9562C112.05 44.8292 112.03 44.7025 111.986 44.5836C111.941 44.4646 111.874 44.3557 111.788 44.2631Z" fill="white"/>
<path d="M123.743 38.5847V39.8602H121.097V47.5073H119.719V39.8602H117.074V38.5847H123.743Z" fill="white"/>
<path d="M133.486 45.6465C133.709 45.4242 133.885 45.1586 134.004 44.8656C134.122 44.5726 134.182 44.2582 134.177 43.9414V38.5847H135.566V43.9414C135.573 44.4289 135.48 44.9125 135.294 45.3619C135.107 45.8112 134.831 46.2165 134.482 46.5521C133.778 47.2457 132.835 47.6337 131.853 47.6337C130.871 47.6337 129.928 47.2457 129.225 46.5521C128.876 46.2167 128.6 45.8118 128.414 45.3631C128.227 44.9143 128.134 44.4312 128.141 43.9444V38.5847H129.528V43.9414C129.524 44.2588 129.583 44.5738 129.701 44.8675C129.82 45.1613 129.996 45.4277 130.219 45.6508C130.429 45.8763 130.682 46.056 130.963 46.1788C131.244 46.3016 131.547 46.3649 131.853 46.3649C132.158 46.3649 132.461 46.3016 132.742 46.1788C133.023 46.056 133.276 45.8763 133.486 45.6508V45.6465Z" fill="white"/>
<path d="M144.052 38.5847C144.638 38.5761 145.22 38.6886 145.762 38.9155C146.303 39.1423 146.794 39.4786 147.203 39.9038C147.619 40.3112 147.95 40.7994 148.176 41.3392C148.403 41.8791 148.519 42.4595 148.519 43.046C148.519 43.6324 148.403 44.2129 148.176 44.7527C147.95 45.2925 147.619 45.7807 147.203 46.1881C146.794 46.6133 146.303 46.9496 145.762 47.1765C145.22 47.4033 144.638 47.5158 144.052 47.5072H140.968V38.5847H144.052ZM142.351 39.8602V46.2317H144.052C144.459 46.2391 144.862 46.1606 145.238 46.0015C145.613 45.8423 145.951 45.6059 146.231 45.3072C146.807 44.6992 147.129 43.8889 147.129 43.046C147.129 42.203 146.807 41.3927 146.231 40.7847C145.951 40.4863 145.612 40.2501 145.237 40.0909C144.862 39.9318 144.459 39.8532 144.052 39.8602H142.351Z" fill="white"/>
<path d="M153.545 38.5847H154.93V47.5073H153.548L153.545 38.5847Z" fill="white"/>
<path d="M161.294 39.7917C162.187 38.9045 163.289 38.4609 164.6 38.4609C165.911 38.4609 167.015 38.9045 167.914 39.7917C168.338 40.2178 168.675 40.7248 168.904 41.2833C169.134 41.8418 169.252 42.4409 169.252 43.046C169.252 43.651 169.134 44.2501 168.904 44.8086C168.675 45.3672 168.338 45.8741 167.914 46.3002C167.021 47.1884 165.916 47.6325 164.6 47.6325C163.283 47.6325 162.181 47.1884 161.294 46.3002C160.87 45.8743 160.533 45.3674 160.303 44.8089C160.073 44.2503 159.955 43.6511 159.955 43.046C159.955 42.4408 160.073 41.8416 160.303 41.2831C160.533 40.7245 160.87 40.2176 161.294 39.7917ZM162.286 45.3989C162.823 45.9521 163.533 46.2992 164.294 46.3811C165.055 46.463 165.821 46.2745 166.461 45.8478C167.1 45.4212 167.574 44.7828 167.8 44.0417C168.027 43.3007 167.993 42.5029 167.703 41.7848C167.414 41.0666 166.887 40.4725 166.213 40.104C165.539 39.7355 164.76 39.6155 164.008 39.7643C163.257 39.9132 162.58 40.3218 162.093 40.9204C161.605 41.5189 161.338 42.2702 161.337 43.046C161.329 43.483 161.408 43.9172 161.571 44.3218C161.735 44.7265 161.978 45.093 162.286 45.3989Z" fill="white"/>
</g>
<defs>
<clipPath id="clip0_28033_52133">
<rect width="177" height="50" fill="white"/>
</clipPath>
</defs>
</svg>
