<svg width="80" height="80" viewBox="0 0 80 80" fill="none" xmlns="http://www.w3.org/2000/svg">
<g clip-path="url(#clip0_13608_280754)">
<path d="M69.4697 2.28003H10.3197C5.82409 2.28003 2.17969 5.92443 2.17969 10.42V69.57C2.17969 74.0656 5.82409 77.71 10.3197 77.71H69.4697C73.9653 77.71 77.6097 74.0656 77.6097 69.57V10.42C77.6097 5.92443 73.9653 2.28003 69.4697 2.28003Z" fill="#ED9FB2"/>
<path d="M57.8306 2.28003C57.8306 2.28003 54.2606 59.82 2.39062 62V69.7C2.40633 71.8169 3.25422 73.8426 4.75112 75.3395C6.24802 76.8364 8.27375 77.6843 10.3906 77.7H69.8306C71.9524 77.7 73.9872 76.8572 75.4875 75.3569C76.9878 73.8566 77.8306 71.8218 77.8306 69.7V10.58C77.8306 8.37873 76.9562 6.2676 75.3996 4.71104C73.8431 3.15449 71.7319 2.28003 69.5306 2.28003H57.8306Z" fill="#EB92A7"/>
<path d="M67.3691 32.88H12.6291C11.0606 32.88 9.78906 34.1515 9.78906 35.72V47.96C9.78906 49.5285 11.0606 50.8 12.6291 50.8H67.3691C68.9376 50.8 70.2091 49.5285 70.2091 47.96V35.72C70.2091 34.1515 68.9376 32.88 67.3691 32.88Z" fill="white"/>
<path d="M67.3691 28.7H12.6291C10.7844 28.7 9.28906 30.1954 9.28906 32.04V44.28C9.28906 46.1246 10.7844 47.62 12.6291 47.62H67.3691C69.2137 47.62 70.7091 46.1246 70.7091 44.28V32.04C70.7091 30.1954 69.2137 28.7 67.3691 28.7Z" fill="white"/>
<path d="M67.3691 29.2C68.1154 29.2 68.8318 29.4937 69.3632 30.0177C69.8947 30.5416 70.1985 31.2538 70.2091 32V44.28C70.2091 44.653 70.1356 45.0223 69.9929 45.3669C69.8502 45.7114 69.641 46.0245 69.3772 46.2882C69.1135 46.5519 68.8004 46.7611 68.4559 46.9039C68.1113 47.0466 67.742 47.12 67.3691 47.12H12.6291C12.2561 47.12 11.8868 47.0466 11.5422 46.9039C11.1977 46.7611 10.8846 46.5519 10.6209 46.2882C10.3572 46.0245 10.148 45.7114 10.0052 45.3669C9.86252 45.0223 9.78906 44.653 9.78906 44.28V32C9.78906 31.2468 10.0883 30.5245 10.6209 29.9919C11.1535 29.4592 11.8758 29.16 12.6291 29.16H67.3691V29.2ZM67.3691 28.16H12.6291C11.6106 28.16 10.6339 28.5646 9.91377 29.2847C9.19363 30.0049 8.78906 30.9816 8.78906 32V44.28C8.7917 45.2977 9.19712 46.2728 9.91669 46.9924C10.6363 47.712 11.6114 48.1174 12.6291 48.12H67.3691C68.3867 48.1174 69.3619 47.712 70.0814 46.9924C70.801 46.2728 71.2064 45.2977 71.2091 44.28V32C71.2091 30.9816 70.8045 30.0049 70.0844 29.2847C69.3642 28.5646 68.3875 28.16 67.3691 28.16Z" fill="#ED9FB2"/>
<path d="M18.2896 36.68C18.5207 36.2581 18.8677 35.9111 19.2896 35.68C19.7378 35.438 20.2403 35.3141 20.7496 35.32C21.3631 35.2987 21.9658 35.4855 22.4596 35.85C22.9552 36.1942 23.3102 36.7054 23.4596 37.29H21.9096C21.8121 37.0661 21.648 36.8775 21.4396 36.75C21.2264 36.6289 20.9848 36.5668 20.7396 36.57C20.5508 36.565 20.3632 36.6019 20.1903 36.678C20.0174 36.7541 19.8635 36.8675 19.7396 37.01C19.4669 37.337 19.3276 37.7548 19.3496 38.18C19.329 38.6081 19.468 39.0286 19.7396 39.36C19.8652 39.5005 20.0195 39.6125 20.192 39.6883C20.3645 39.7642 20.5512 39.8023 20.7396 39.8C20.9863 39.805 21.2293 39.739 21.4396 39.61C21.6453 39.4837 21.8088 39.2993 21.9096 39.08H23.4196C23.2731 39.6633 22.9172 40.1723 22.4196 40.51C21.9233 40.8697 21.3224 41.056 20.7096 41.04C20.1986 41.0494 19.6945 40.9216 19.2496 40.67C18.829 40.4372 18.4824 40.0907 18.2496 39.67C18.0061 39.2075 17.8789 38.6927 17.8789 38.17C17.8789 37.6474 18.0061 37.1325 18.2496 36.67L18.2896 36.68Z" fill="#ED9FB2"/>
<path d="M29.1198 35.36V41H27.7498V38.67H25.6198V41H24.2598V35.36H25.6198V37.56H27.7498V35.36H29.1198Z" fill="#ED9FB2"/>
<path d="M31.4696 36.46V37.59H33.2996V38.65H31.4696V39.88H33.5396V41H30.0996V35.36H33.5396V36.46H31.4696Z" fill="#ED9FB2"/>
<path d="M34.5604 36.68C34.7915 36.2581 35.1385 35.9111 35.5604 35.68C36.0008 35.4343 36.4961 35.3036 37.0004 35.3C37.6168 35.2803 38.2221 35.4668 38.7204 35.83C39.1954 36.1845 39.5314 36.6939 39.6704 37.27H38.1804C38.0829 37.046 37.9188 36.8575 37.7104 36.73C37.4972 36.6089 37.2556 36.5467 37.0104 36.55C36.8194 36.5468 36.6301 36.5855 36.4556 36.6632C36.2811 36.741 36.1258 36.8559 36.0004 37C35.7277 37.3269 35.5884 37.7448 35.6104 38.17C35.5923 38.5947 35.7311 39.0112 36.0004 39.34C36.1268 39.4795 36.2812 39.5907 36.4535 39.6665C36.6258 39.7424 36.8122 39.781 37.0004 39.78C37.2471 39.7849 37.49 39.719 37.7004 39.59C37.906 39.4637 38.0696 39.2793 38.1704 39.06H39.6804C39.5433 39.6342 39.2066 40.141 38.7304 40.49C38.2661 40.8059 37.7238 40.988 37.1629 41.0162C36.602 41.0444 36.0441 40.9177 35.5504 40.65C35.1298 40.4172 34.7832 40.0706 34.5504 39.65C34.3069 39.1875 34.1797 38.6727 34.1797 38.15C34.1797 37.6273 34.3069 37.1125 34.5504 36.65L34.5604 36.68Z" fill="#ED9FB2"/>
<path d="M43.7793 41L41.8993 38.5V41H40.5293V35.36H41.8993V37.83L43.7693 35.36H45.3793L43.1993 38.11L45.4593 41H43.7793Z" fill="#ED9FB2"/>
<path d="M47.3102 40.6701C46.8785 40.4347 46.5163 40.0898 46.2602 39.6701C45.9201 39.1129 45.7772 38.4575 45.8545 37.8093C45.9317 37.1611 46.2247 36.5578 46.6863 36.0962C47.1479 35.6346 47.7513 35.3416 48.3995 35.2643C49.0477 35.187 49.703 35.3299 50.2602 35.6701C50.675 35.9105 51.0197 36.2552 51.2602 36.6701C51.5187 37.1198 51.6501 37.6314 51.6402 38.1501C51.6451 38.6713 51.5142 39.1848 51.2602 39.6401C51.0186 40.054 50.6742 40.3985 50.2602 40.6401C49.8134 40.8765 49.3157 41.0001 48.8102 41.0001C48.3047 41.0001 47.807 40.8765 47.3602 40.6401L47.3102 40.6701ZM49.8402 39.3401C50.1205 39.009 50.2636 38.5832 50.2402 38.1501C50.2641 37.7198 50.1208 37.2971 49.8402 36.9701C49.7041 36.8205 49.5369 36.7027 49.3503 36.6249C49.1636 36.5472 48.9622 36.5114 48.7602 36.5201C48.5592 36.5121 48.3589 36.5473 48.1726 36.6232C47.9863 36.6991 47.8184 36.8139 47.6802 36.9601C47.3963 37.2897 47.2496 37.7155 47.2702 38.1501C47.2486 38.5847 47.3954 39.011 47.6802 39.3401C47.8215 39.4828 47.9897 39.596 48.1751 39.6734C48.3605 39.7507 48.5594 39.7905 48.7602 39.7905C48.961 39.7905 49.1599 39.7507 49.3453 39.6734C49.5307 39.596 49.6989 39.4828 49.8402 39.3401Z" fill="#ED9FB2"/>
<path d="M53.7405 35.36V38.72C53.7215 39.0008 53.807 39.2786 53.9805 39.5C54.0779 39.5916 54.1928 39.6626 54.3181 39.709C54.4435 39.7554 54.5769 39.7761 54.7105 39.77C54.8457 39.7775 54.981 39.7574 55.1082 39.711C55.2354 39.6646 55.3518 39.5928 55.4505 39.5C55.6321 39.2824 55.7217 39.0027 55.7005 38.72V35.36H57.0705V38.71C57.0907 39.1619 56.9796 39.61 56.7505 40C56.5432 40.3361 56.2451 40.6065 55.8905 40.78C55.5165 40.9598 55.1054 41.0489 54.6905 41.04C54.2787 41.05 53.8706 40.9608 53.5005 40.78C53.1502 40.6116 52.8604 40.3392 52.6705 40C52.4594 39.6073 52.3559 39.1657 52.3705 38.72V35.36H53.7405Z" fill="#ED9FB2"/>
<path d="M62.0705 35.36V36.46H60.5805V41H59.2205V36.46H57.7305V35.36H62.0705Z" fill="#ED9FB2"/>
<path d="M64.3606 55.31C64.2691 55.312 64.1788 55.2877 64.1006 55.24L59.5106 52.48L58.0706 54.88C58.0258 54.9537 57.9626 55.0146 57.8872 55.0566C57.8119 55.0987 57.7269 55.1205 57.6406 55.12C57.5506 55.1155 57.4634 55.0872 57.3878 55.038C57.3123 54.9888 57.2512 54.9205 57.2106 54.84L52.4506 45.24C52.4112 45.1662 52.3906 45.0837 52.3906 45C52.3906 44.9163 52.4112 44.8339 52.4506 44.76C52.4939 44.6871 52.5553 44.6266 52.6289 44.5846C52.7026 44.5425 52.7858 44.5203 52.8706 44.52L63.6006 44.19C63.6869 44.1895 63.7719 44.2113 63.8472 44.2534C63.9226 44.2955 63.9858 44.3563 64.0306 44.43C64.0797 44.506 64.1058 44.5945 64.1058 44.685C64.1058 44.7755 64.0797 44.864 64.0306 44.94L62.6006 47.34L67.1906 50.09C67.3048 50.1587 67.3876 50.2694 67.4213 50.3983C67.4549 50.5273 67.4367 50.6643 67.3706 50.78L64.8006 55.06C64.7554 55.1364 64.691 55.1996 64.6138 55.2434C64.5367 55.2873 64.4494 55.3102 64.3606 55.31Z" fill="white"/>
<path d="M63.5894 44.69L61.8994 47.51L66.8994 50.51L64.3294 54.8L59.3294 51.8L57.6394 54.62L52.8694 45L63.5894 44.67V44.69ZM63.5894 43.67L52.8394 44C52.6718 44.008 52.5089 44.0579 52.3657 44.1453C52.2225 44.2327 52.1036 44.3548 52.0199 44.5002C51.9363 44.6456 51.8905 44.8097 51.8869 44.9775C51.8834 45.1452 51.922 45.3111 51.9994 45.46L56.7694 55.07C56.8493 55.229 56.9702 55.3638 57.1196 55.4605C57.2691 55.5572 57.4416 55.6123 57.6194 55.62C57.792 55.621 57.9619 55.5773 58.1126 55.4932C58.2633 55.4091 58.3896 55.2874 58.4794 55.14L59.6594 53.14L63.8294 55.64C63.9837 55.7316 64.1599 55.78 64.3394 55.78C64.5129 55.78 64.6835 55.7348 64.8343 55.6489C64.985 55.563 65.1109 55.4393 65.1994 55.29L67.7794 51C67.9165 50.7755 67.9596 50.5061 67.8994 50.25C67.8676 50.1213 67.8106 50.0003 67.7316 49.8938C67.6527 49.7874 67.5533 49.6977 67.4394 49.63L63.2694 47.14L64.4494 45.14C64.5371 44.988 64.5834 44.8155 64.5834 44.64C64.5834 44.4645 64.5371 44.292 64.4494 44.14C64.36 43.9893 64.2326 43.8647 64.0799 43.7787C63.9272 43.6927 63.7546 43.6483 63.5794 43.65L63.5894 43.67Z" fill="#ED9FB2"/>
</g>
<defs>
<clipPath id="clip0_13608_280754">
<rect width="80" height="80" fill="white"/>
</clipPath>
</defs>
</svg>
