<svg width="80" height="80" viewBox="0 0 80 80" fill="none" xmlns="http://www.w3.org/2000/svg">
<g clip-path="url(#clip0_13608_280774)">
<path d="M69.4697 2.28003H10.3197C5.82409 2.28003 2.17969 5.92443 2.17969 10.42V69.57C2.17969 74.0656 5.82409 77.71 10.3197 77.71H69.4697C73.9653 77.71 77.6097 74.0656 77.6097 69.57V10.42C77.6097 5.92443 73.9653 2.28003 69.4697 2.28003Z" fill="#ED9FB2"/>
<path d="M57.8306 2.28003C57.8306 2.28003 54.2606 59.82 2.39062 62V69.7C2.40633 71.8169 3.25422 73.8426 4.75112 75.3395C6.24802 76.8364 8.27375 77.6843 10.3906 77.7H69.8306C71.9524 77.7 73.9872 76.8572 75.4875 75.3569C76.9878 73.8566 77.8306 71.8218 77.8306 69.7V10.58C77.8306 8.37873 76.9562 6.2676 75.3996 4.71104C73.8431 3.15449 71.7319 2.28003 69.5306 2.28003H57.8306Z" fill="#EB92A7"/>
<path d="M39.9995 13.79C34.7455 13.79 29.7068 15.8772 25.9917 19.5923C22.2766 23.3073 20.1895 28.3461 20.1895 33.6C20.1895 44.54 39.9995 66.21 39.9995 66.21C39.9995 66.21 59.8095 44.54 59.8095 33.6C59.8095 30.9986 59.2971 28.4225 58.3015 26.0191C57.306 23.6156 55.8468 21.4318 54.0072 19.5923C52.1677 17.7527 49.9839 16.2935 47.5804 15.298C45.177 14.3024 42.6009 13.79 39.9995 13.79ZM39.9995 40.79C38.31 40.79 36.6585 40.2889 35.2538 39.3501C33.8492 38.4113 32.7546 37.0769 32.1086 35.5158C31.4625 33.9548 31.294 32.2372 31.6243 30.5803C31.9546 28.9234 32.769 27.4018 33.9643 26.2078C35.1596 25.0139 36.6823 24.2013 38.3395 23.8729C39.9968 23.5445 41.7142 23.7151 43.2745 24.363C44.8348 25.0109 46.1679 26.107 47.1051 27.5127C48.0422 28.9185 48.5414 30.5706 48.5395 32.26C48.5262 34.5163 47.6207 36.6757 46.0205 38.2664C44.4204 39.8572 42.2558 40.7501 39.9995 40.75V40.79Z" fill="white"/>
<path d="M51.4791 60.51C49.8109 60.512 48.1797 60.019 46.7918 59.0935C45.404 58.1679 44.322 56.8515 43.6827 55.3107C43.0434 53.7699 42.8756 52.0741 43.2006 50.4379C43.5255 48.8017 44.3286 47.2987 45.5082 46.1191C46.6877 44.9396 48.1907 44.1365 49.8269 43.8115C51.4631 43.4866 53.1589 43.6543 54.6997 44.2936C56.2405 44.9329 57.557 46.015 58.4825 47.4028C59.4081 48.7906 59.901 50.4219 59.8991 52.09C59.8938 54.3215 59.005 56.4601 57.4271 58.038C55.8492 59.6159 53.7106 60.5047 51.4791 60.51Z" fill="white"/>
<path d="M51.4791 44.41C52.998 44.41 54.4829 44.8605 55.7458 45.7044C57.0088 46.5482 57.9932 47.7477 58.5745 49.151C59.1557 50.5544 59.3078 52.0986 59.0115 53.5883C58.7152 55.0781 57.9837 56.4466 56.9096 57.5206C55.8356 58.5947 54.4671 59.3261 52.9774 59.6225C51.4876 59.9188 49.9434 59.7667 48.5401 59.1854C47.1367 58.6042 45.9373 57.6198 45.0934 56.3568C44.2495 55.0939 43.7991 53.609 43.7991 52.09C43.7978 51.0811 43.9955 50.0818 44.381 49.1495C44.7665 48.2171 45.3321 47.3699 46.0456 46.6565C46.759 45.9431 47.6061 45.3775 48.5385 44.992C49.4709 44.6065 50.4701 44.4087 51.4791 44.41ZM51.4791 42.91C49.663 42.9081 47.8872 43.4448 46.3762 44.4523C44.8653 45.4598 43.6871 46.8928 42.9907 48.5701C42.2944 50.2473 42.1112 52.0934 42.4642 53.8748C42.8173 55.6562 43.6908 57.2929 44.9743 58.5777C46.2577 59.8626 47.8934 60.7379 49.6745 61.0929C51.4555 61.4479 53.3018 61.2667 54.9798 60.5722C56.6578 59.8777 58.0921 58.7011 59.1013 57.1912C60.1104 55.6814 60.6491 53.9061 60.6491 52.09C60.6464 49.6579 59.6798 47.326 57.9609 45.6052C56.2421 43.8845 53.9112 42.9153 51.4791 42.91Z" fill="#EB92A7"/>
<path d="M51.4805 48.19V55.99" stroke="#EB92A7" stroke-width="1.5" stroke-linecap="round" stroke-linejoin="round"/>
<path d="M55.3801 52.09H47.5801" stroke="#EB92A7" stroke-width="1.5" stroke-linecap="round" stroke-linejoin="round"/>
</g>
<defs>
<clipPath id="clip0_13608_280774">
<rect width="80" height="80" fill="white"/>
</clipPath>
</defs>
</svg>
