<svg width="80" height="80" viewBox="0 0 80 80" fill="none" xmlns="http://www.w3.org/2000/svg">
<g clip-path="url(#clip0_13608_280786)">
<path d="M69.4697 2.28003H10.3197C5.82409 2.28003 2.17969 5.92443 2.17969 10.42V69.57C2.17969 74.0656 5.82409 77.71 10.3197 77.71H69.4697C73.9653 77.71 77.6097 74.0656 77.6097 69.57V10.42C77.6097 5.92443 73.9653 2.28003 69.4697 2.28003Z" fill="#ED9FB2"/>
<path d="M57.8306 2.28003C57.8306 2.28003 54.2606 59.82 2.39062 62V69.7C2.40633 71.8169 3.25422 73.8426 4.75112 75.3395C6.24802 76.8364 8.27375 77.6843 10.3906 77.7H69.8306C71.9524 77.7 73.9872 76.8572 75.4875 75.3569C76.9878 73.8566 77.8306 71.8218 77.8306 69.7V10.58C77.8306 8.37873 76.9562 6.2676 75.3996 4.71104C73.8431 3.15449 71.7319 2.28003 69.5306 2.28003H57.8306Z" fill="#EB92A7"/>
<path d="M16.179 41.05H14.529C14.3764 41.0354 14.2224 41.0529 14.077 41.1013C13.9315 41.1497 13.7978 41.2279 13.6844 41.331C13.5709 41.4341 13.4803 41.5598 13.4183 41.7C13.3563 41.8402 13.3242 41.9918 13.3242 42.145C13.3242 42.2983 13.3563 42.4499 13.4183 42.5901C13.4803 42.7303 13.5709 42.856 13.6844 42.9591C13.7978 43.0622 13.9315 43.1404 14.077 43.1888C14.2224 43.2372 14.3764 43.2546 14.529 43.24H16.179C16.3316 43.2546 16.4855 43.2372 16.631 43.1888C16.7764 43.1404 16.9102 43.0622 17.0236 42.9591C17.137 42.856 17.2277 42.7303 17.2897 42.5901C17.3517 42.4499 17.3837 42.2983 17.3837 42.145C17.3837 41.9918 17.3517 41.8402 17.2897 41.7C17.2277 41.5598 17.137 41.4341 17.0236 41.331C16.9102 41.2279 16.7764 41.1497 16.631 41.1013C16.4855 41.0529 16.3316 41.0354 16.179 41.05Z" fill="white"/>
<path d="M51.2202 22.65H24.2202H23.9802H18.0802C17.9276 22.6354 17.7736 22.6529 17.6282 22.7013C17.4827 22.7497 17.349 22.8279 17.2355 22.931C17.1221 23.0341 17.0315 23.1598 16.9694 23.3C16.9074 23.4401 16.8754 23.5917 16.8754 23.745C16.8754 23.8983 16.9074 24.0499 16.9694 24.1901C17.0315 24.3303 17.1221 24.4559 17.2355 24.559C17.349 24.6621 17.4827 24.7404 17.6282 24.7888C17.7736 24.8372 17.9276 24.8546 18.0802 24.84H21.3502C21.3502 24.92 21.3002 25 21.2802 25.08L20.8602 27.46H9.73015C9.57756 27.4454 9.4236 27.4629 9.27815 27.5113C9.1327 27.5597 8.99897 27.6379 8.88554 27.741C8.7721 27.8441 8.68147 27.9698 8.61945 28.11C8.55743 28.2501 8.52539 28.4017 8.52539 28.555C8.52539 28.7083 8.55743 28.8599 8.61945 29.0001C8.68147 29.1403 8.7721 29.2659 8.88554 29.369C8.99897 29.4721 9.1327 29.5504 9.27815 29.5988C9.4236 29.6472 9.57756 29.6646 9.73015 29.65H20.4402L20.0002 32.29H14.4102C14.267 32.29 14.1253 32.3182 13.993 32.373C13.8608 32.4278 13.7406 32.5081 13.6394 32.6093C13.5382 32.7105 13.4579 32.8307 13.4031 32.9629C13.3483 33.0951 13.3202 33.2369 13.3202 33.38C13.3202 33.5232 13.3483 33.6649 13.4031 33.7971C13.4579 33.9294 13.5382 34.0495 13.6394 34.1508C13.7406 34.252 13.8608 34.3323 13.993 34.387C14.1253 34.4418 14.267 34.47 14.4102 34.47H19.5802L17.6402 45.29H13.0002C12.7278 45.3161 12.4749 45.4427 12.2909 45.6452C12.1069 45.8476 12.0049 46.1114 12.0049 46.385C12.0049 46.6586 12.1069 46.9224 12.2909 47.1249C12.4749 47.3273 12.7278 47.454 13.0002 47.48H50.6502L54.4102 26.48C54.4968 26.0122 54.4793 25.531 54.359 25.0706C54.2387 24.6103 54.0184 24.1821 53.7139 23.8165C53.4094 23.4508 53.0281 23.1568 52.5971 22.9552C52.1661 22.7536 51.696 22.6494 51.2202 22.65ZM44.1002 37C44.1035 37.6018 43.9258 38.1906 43.5902 38.69C42.7702 39.93 40.4802 42.86 36.9702 43.34H36.8002C33.2902 42.86 31.0002 39.93 30.1802 38.7C29.8426 38.1978 29.6648 37.6052 29.6702 37V28.4C29.6698 28.2561 29.7194 28.1166 29.8106 28.0053C29.9019 27.894 30.029 27.8179 30.1702 27.79L37.0002 26.53H37.2302L43.6502 27.79C43.7913 27.8179 43.9184 27.894 44.0097 28.0053C44.1009 28.1166 44.1506 28.2561 44.1502 28.4L44.1002 37Z" fill="white"/>
<path d="M64.1193 31.11H56.1993L52.7793 47.47H69.3393L71.2493 39.6C71.4299 38.5597 71.3811 37.4924 71.1062 36.4729C70.8313 35.4533 70.3371 34.5061 69.658 33.6975C68.9789 32.8889 68.1314 32.2384 67.1747 31.7914C66.218 31.3445 65.1752 31.112 64.1193 31.11ZM67.7993 38.11L67.2193 40.11H57.7693L59.1493 33.46H63.9993C64.5682 33.4636 65.1294 33.592 65.6433 33.836C66.1572 34.0801 66.6114 34.4339 66.9737 34.8725C67.336 35.3111 67.5977 35.8239 67.7404 36.3746C67.883 36.9254 67.9032 37.5007 67.7993 38.06V38.11Z" fill="white"/>
<path d="M69.0891 49.3901H16.4591C16.2222 49.3747 15.987 49.4392 15.7912 49.5734C15.5954 49.7076 15.4503 49.9036 15.3791 50.1301L14.8691 52.4801C14.7491 53.0301 15.2591 53.5401 15.9491 53.5401H68.4591C68.6311 53.5518 68.802 53.5048 68.9437 53.4067C69.0855 53.3086 69.1896 53.1652 69.2391 53.0001L69.8591 50.1501C69.9991 49.7501 69.5791 49.3901 69.0891 49.3901Z" fill="white"/>
<path d="M59.4092 57.3501H58.8992C57.384 57.2104 55.9856 56.4768 55.0094 55.3095C54.0333 54.1422 53.5586 52.6361 53.6892 51.1201C53.7308 50.3513 53.9266 49.5988 54.2649 48.9073C54.6033 48.2158 55.0773 47.5995 55.6587 47.0949C56.2401 46.5903 56.9171 46.2078 57.6494 45.9703C58.3816 45.7327 59.1542 45.6448 59.9211 45.7119C60.688 45.779 61.4336 45.9997 62.1135 46.3608C62.7934 46.722 63.3937 47.2162 63.8787 47.814C64.3636 48.4119 64.7234 49.1012 64.9365 49.841C65.1496 50.5807 65.2118 51.3558 65.1192 52.1201C64.9897 53.5463 64.3326 54.8729 63.2765 55.8403C62.2204 56.8076 60.8414 57.346 59.4092 57.3501ZM59.4092 50.6001C59.2126 50.5925 59.0181 50.6432 58.8502 50.7456C58.6822 50.8481 58.5482 50.9979 58.4649 51.1761C58.3816 51.3544 58.3528 51.5533 58.382 51.7479C58.4113 51.9425 58.4973 52.1241 58.6292 52.2701C58.8053 52.4732 59.0519 52.6019 59.3192 52.6301C59.4522 52.6438 59.5866 52.6307 59.7145 52.5916C59.8423 52.5525 59.961 52.4882 60.0636 52.4024C60.1661 52.3167 60.2505 52.2112 60.3115 52.0923C60.3726 51.9734 60.4092 51.8434 60.4192 51.7101C60.433 51.5771 60.4199 51.4427 60.3808 51.3148C60.3417 51.187 60.2774 51.0683 60.1916 50.9657C60.1058 50.8632 60.0004 50.7788 59.8814 50.7178C59.7625 50.6567 59.6326 50.62 59.4992 50.6101L59.4092 50.6001Z" fill="white" stroke="#EB92A7" stroke-width="1.7" stroke-miterlimit="10"/>
<path d="M26.7592 57.35H26.2492C25.4936 57.2859 24.758 57.0731 24.0848 56.724C23.4116 56.3748 22.8139 55.8962 22.3261 55.3155C21.8383 54.7348 21.47 54.0635 21.2423 53.3401C21.0146 52.6167 20.932 51.8554 20.9992 51.1C21.0408 50.3313 21.2366 49.5788 21.575 48.8873C21.9133 48.1958 22.3873 47.5794 22.9687 47.0749C23.5501 46.5703 24.2271 46.1878 24.9594 45.9502C25.6917 45.7126 26.4642 45.6248 27.2311 45.6919C27.9981 45.759 28.7436 45.9797 29.4235 46.3408C30.1034 46.7019 30.7037 47.1961 31.1887 47.794C31.6736 48.3919 32.0334 49.0812 32.2465 49.821C32.4596 50.5607 32.5218 51.3358 32.4292 52.1C32.3051 53.5231 31.6557 54.849 30.6076 55.8195C29.5595 56.79 28.1876 57.3356 26.7592 57.35ZM26.7592 50.6C26.5643 50.5966 26.3726 50.6502 26.2078 50.7542C26.0429 50.8583 25.912 51.0082 25.8313 51.1857C25.7505 51.3631 25.7234 51.5603 25.7532 51.753C25.7831 51.9456 25.8686 52.1253 25.9992 52.27C26.1753 52.4732 26.4219 52.6019 26.6892 52.63C26.8222 52.6438 26.9566 52.6307 27.0845 52.5916C27.2123 52.5525 27.331 52.4882 27.4336 52.4024C27.5361 52.3166 27.6205 52.2112 27.6815 52.0923C27.7426 51.9733 27.7793 51.8434 27.7892 51.71C27.803 51.5771 27.7899 51.4427 27.7508 51.3148C27.7117 51.187 27.6474 51.0682 27.5616 50.9657C27.4758 50.8631 27.3704 50.7788 27.2515 50.7177C27.1325 50.6566 27.0026 50.62 26.8692 50.61L26.7592 50.6Z" fill="white" stroke="#EB92A7" stroke-width="1.7" stroke-miterlimit="10"/>
<path d="M33.0293 34.04L36.2393 36.84L40.7393 31.7" stroke="white" stroke-width="1.91" stroke-linecap="round" stroke-linejoin="round"/>
</g>
<defs>
<clipPath id="clip0_13608_280786">
<rect width="80" height="80" fill="white"/>
</clipPath>
</defs>
</svg>
