<svg width="80" height="80" viewBox="0 0 80 80" fill="none" xmlns="http://www.w3.org/2000/svg">
<g clip-path="url(#clip0_13608_280800)">
<path d="M69.4697 2.28003H10.3197C5.82409 2.28003 2.17969 5.92443 2.17969 10.42V69.57C2.17969 74.0656 5.82409 77.71 10.3197 77.71H69.4697C73.9653 77.71 77.6097 74.0656 77.6097 69.57V10.42C77.6097 5.92443 73.9653 2.28003 69.4697 2.28003Z" fill="#ED9FB2"/>
<path d="M57.8306 2.28003C57.8306 2.28003 54.2606 59.82 2.39062 62V69.7C2.40633 71.8169 3.25422 73.8426 4.75112 75.3395C6.24802 76.8364 8.27375 77.6843 10.3906 77.7H69.8306C71.9524 77.7 73.9872 76.8572 75.4875 75.3569C76.9878 73.8566 77.8306 71.8218 77.8306 69.7V10.58C77.8306 8.37873 76.9562 6.2676 75.3996 4.71104C73.8431 3.15449 71.7319 2.28003 69.5306 2.28003H57.8306Z" fill="#EB92A7"/>
<path d="M56.2501 30.18H14.1401C13.8012 30.1916 13.4679 30.2699 13.1593 30.4104C12.8507 30.5509 12.5729 30.7509 12.3416 30.9989C12.1104 31.2468 11.9302 31.538 11.8116 31.8556C11.6929 32.1732 11.638 32.5111 11.6501 32.85V57.36C11.6339 58.0393 11.8863 58.6975 12.3525 59.1918C12.8187 59.6861 13.461 59.9765 14.1401 60H56.2501C56.5889 59.9884 56.9222 59.9101 57.2308 59.7696C57.5394 59.6291 57.8173 59.4291 58.0485 59.1811C58.2798 58.9332 58.4599 58.642 58.5785 58.3244C58.6972 58.0068 58.7521 57.6689 58.7401 57.33V32.85C58.7617 32.1663 58.512 31.5019 58.0455 31.0017C57.579 30.5014 56.9336 30.2061 56.2501 30.18ZM58.0001 43.48H12.3401V35.61H58.0001V43.48ZM25.8701 49.4H14.5601C14.5049 49.4041 14.4494 49.3972 14.3969 49.3798C14.3444 49.3624 14.2958 49.3348 14.254 49.2985C14.2122 49.2623 14.1779 49.2181 14.1532 49.1686C14.1285 49.1191 14.1139 49.0652 14.1101 49.01V47.41C14.1202 47.2995 14.1728 47.1972 14.2566 47.1245C14.3405 47.0518 14.4492 47.0144 14.5601 47.02H25.8701C25.982 47.0142 26.0919 47.0513 26.1774 47.1238C26.2629 47.1963 26.3175 47.2986 26.3301 47.41V49C26.3263 49.0565 26.3113 49.1117 26.2861 49.1624C26.2609 49.2132 26.2259 49.2584 26.1832 49.2956C26.1404 49.3328 26.0908 49.3611 26.037 49.379C25.9833 49.3969 25.9266 49.4041 25.8701 49.4Z" fill="white"/>
<path d="M58.0008 28.51C58.0781 27.896 57.9122 27.276 57.5385 26.7827C57.1647 26.2893 56.6129 25.9618 56.0008 25.87L17.4008 22.48C16.7717 22.45 16.1562 22.6695 15.688 23.0908C15.2199 23.5122 14.937 24.1012 14.9008 24.73L14.5508 28.73L58.0008 28.51Z" fill="white"/>
<path d="M58.6707 43.87C65.2705 43.87 70.6207 38.5198 70.6207 31.92C70.6207 25.3202 65.2705 19.97 58.6707 19.97C52.0709 19.97 46.7207 25.3202 46.7207 31.92C46.7207 38.5198 52.0709 43.87 58.6707 43.87Z" fill="white" stroke="#ED9FB2" stroke-width="1.5" stroke-miterlimit="10"/>
<path d="M58.1095 27.59C58.3336 27.7777 58.5122 28.0138 58.6317 28.2806C58.7512 28.5474 58.8086 28.8378 58.7995 29.13C58.8152 29.303 58.8152 29.477 58.7995 29.65C58.7028 30.209 58.4497 30.7291 58.0695 31.15C57.6482 31.6067 57.1024 31.93 56.4995 32.08L57.8495 35.42H55.4895L54.2995 32.24H53.8095L53.2395 35.42H51.1895L52.6795 27H56.1195C56.8327 26.9463 57.5408 27.1563 58.1095 27.59ZM56.6695 29.48C56.6767 29.3684 56.6589 29.2566 56.6174 29.1528C56.5759 29.049 56.5117 28.9558 56.4295 28.88C56.2184 28.7263 55.9599 28.652 55.6995 28.67H54.4295L54.0595 30.79H55.3295C55.65 30.8054 55.9655 30.7061 56.2195 30.51C56.4537 30.3116 56.6068 30.034 56.6495 29.73C56.663 29.6474 56.6697 29.5637 56.6695 29.48Z" fill="#ED9FB2"/>
<path d="M62.9991 28.91C63.4018 28.7187 63.8433 28.6229 64.2891 28.63C64.6136 28.6171 64.9372 28.6728 65.2387 28.7934C65.5402 28.914 65.813 29.0969 66.0391 29.33C66.4977 29.8614 66.7341 30.5489 66.6991 31.25C66.7204 32.1754 66.4776 33.0877 65.9991 33.88C65.6745 34.3757 65.2399 34.7898 64.7291 35.09C64.2513 35.3645 63.7101 35.5093 63.1591 35.51C62.7476 35.5254 62.3397 35.4286 61.9791 35.23C61.6774 35.0508 61.4315 34.7911 61.2691 34.48L60.5391 38.61H58.5391L60.2791 28.72H62.3291L62.1591 29.72C62.3847 29.3988 62.6699 29.1238 62.9991 28.91ZM64.5891 31.69C64.6001 31.5184 64.5756 31.3463 64.5171 31.1845C64.4586 31.0228 64.3674 30.8749 64.2491 30.75C64.1335 30.639 63.9972 30.5518 63.8479 30.4934C63.6986 30.4351 63.5393 30.4067 63.3791 30.41C62.9623 30.4132 62.5622 30.5739 62.2591 30.86C61.9129 31.1791 61.684 31.6052 61.6091 32.07C61.5999 32.2032 61.5999 32.3368 61.6091 32.47C61.5994 32.6377 61.6237 32.8055 61.6804 32.9636C61.7371 33.1217 61.8251 33.2667 61.9391 33.39C62.0546 33.501 62.191 33.5882 62.3402 33.6466C62.4895 33.7049 62.6488 33.7332 62.8091 33.73C63.2258 33.7268 63.626 33.5661 63.9291 33.28C64.2804 32.9608 64.5102 32.5297 64.5791 32.06C64.609 31.9388 64.6258 31.8148 64.6291 31.69H64.5891Z" fill="#ED9FB2"/>
</g>
<defs>
<clipPath id="clip0_13608_280800">
<rect width="80" height="80" fill="white"/>
</clipPath>
</defs>
</svg>
