<svg width="80" height="80" viewBox="0 0 80 80" fill="none" xmlns="http://www.w3.org/2000/svg">
<g clip-path="url(#clip0_13608_280812)">
<path d="M69.4697 2.28003H10.3197C5.82409 2.28003 2.17969 5.92443 2.17969 10.42V69.57C2.17969 74.0656 5.82409 77.71 10.3197 77.71H69.4697C73.9653 77.71 77.6097 74.0656 77.6097 69.57V10.42C77.6097 5.92443 73.9653 2.28003 69.4697 2.28003Z" fill="#ED9FB2"/>
<path d="M57.8306 2.28003C57.8306 2.28003 54.2606 59.82 2.39062 62V69.7C2.40633 71.8169 3.25422 73.8426 4.75112 75.3395C6.24802 76.8364 8.27375 77.6843 10.3906 77.7H69.8306C71.9524 77.7 73.9872 76.8572 75.4875 75.3569C76.9878 73.8566 77.8306 71.8218 77.8306 69.7V10.58C77.8306 8.37873 76.9562 6.2676 75.3996 4.71104C73.8431 3.15449 71.7319 2.28003 69.5306 2.28003H57.8306Z" fill="#EB92A7"/>
<path d="M39.9998 63.88C41.3609 63.8789 42.6922 63.481 43.8306 62.7351C44.9691 61.9891 45.8654 60.9274 46.4098 59.68H33.5898C34.1343 60.9274 35.0306 61.9891 36.169 62.7351C37.3075 63.481 38.6388 63.8789 39.9998 63.88Z" fill="white"/>
<path d="M54.4594 39.24V36.18C54.457 33.0785 53.4587 30.0597 51.6116 27.5681C49.7646 25.0766 47.1663 23.2439 44.1994 22.34V20.34C44.1994 19.2261 43.7569 18.1578 42.9693 17.3702C42.1816 16.5825 41.1133 16.14 39.9994 16.14C38.8855 16.14 37.8172 16.5825 37.0296 17.3702C36.2419 18.1578 35.7994 19.2261 35.7994 20.34V22.34C32.8325 23.2439 30.2342 25.0766 28.3872 27.5681C26.5401 30.0597 25.5419 33.0785 25.5394 36.18V39.24C25.548 44.9362 23.347 50.4136 19.3994 54.52C19.2144 54.7131 19.0894 54.9557 19.0397 55.2184C18.99 55.4812 19.0177 55.7527 19.1194 56C19.2269 56.2537 19.4063 56.4704 19.6356 56.6232C19.8649 56.7761 20.1339 56.8584 20.4094 56.86H59.5894C59.8649 56.8584 60.134 56.7761 60.3632 56.6232C60.5925 56.4704 60.7719 56.2537 60.8794 56C60.9876 55.7489 61.0187 55.4713 60.9689 55.2025C60.919 54.9336 60.7904 54.6857 60.5994 54.49C56.6518 50.3836 54.4508 44.9062 54.4594 39.21V39.24ZM41.3994 21.78C40.9394 21.78 40.4694 21.72 39.9994 21.72C39.5294 21.72 39.0594 21.72 38.5994 21.78V20.32C38.5994 19.9487 38.7469 19.5926 39.0095 19.3301C39.272 19.0675 39.6281 18.92 39.9994 18.92C40.3707 18.92 40.7268 19.0675 40.9894 19.3301C41.2519 19.5926 41.3994 19.9487 41.3994 20.32V21.78Z" fill="white"/>
<path d="M58.19 36.18C58.19 36.5513 58.3375 36.9074 58.6 37.1699C58.8626 37.4325 59.2187 37.58 59.59 37.58C59.9613 37.58 60.3174 37.4325 60.5799 37.1699C60.8425 36.9074 60.99 36.5513 60.99 36.18C60.9984 33.4209 60.4592 30.6876 59.4035 28.1385C58.3478 25.5894 56.7967 23.2752 54.84 21.33C54.5748 21.0648 54.2151 20.9158 53.84 20.9158C53.4649 20.9158 53.1052 21.0648 52.84 21.33C52.5748 21.5952 52.4258 21.9549 52.4258 22.33C52.4258 22.7051 52.5748 23.0648 52.84 23.33C54.5353 25.0162 55.8793 27.0219 56.7942 29.2311C57.7091 31.4402 58.1767 33.8089 58.17 36.2L58.19 36.18Z" fill="white"/>
<path d="M20.4102 37.57C20.7798 37.57 21.1344 37.4239 21.3966 37.1635C21.6589 36.9031 21.8076 36.5496 21.8102 36.18C21.8035 33.7889 22.2711 31.4202 23.186 29.2111C24.1009 27.0019 25.4449 24.9962 27.1402 23.31C27.4054 23.0448 27.5544 22.6851 27.5544 22.31C27.5544 21.9349 27.4054 21.5752 27.1402 21.31C26.875 21.0448 26.5153 20.8958 26.1402 20.8958C25.7651 20.8958 25.4054 21.0448 25.1402 21.31C23.183 23.2584 21.6323 25.5763 20.5783 28.129C19.5242 30.6816 18.9878 33.4183 19.0002 36.18C19.0015 36.3638 19.039 36.5456 19.1106 36.715C19.1822 36.8844 19.2864 37.038 19.4173 37.167C19.5483 37.2961 19.7033 37.3981 19.8737 37.4673C20.044 37.5364 20.2264 37.5713 20.4102 37.57Z" fill="white"/>
</g>
<defs>
<clipPath id="clip0_13608_280812">
<rect width="80" height="80" fill="white"/>
</clipPath>
</defs>
</svg>
