<svg width="41" height="70" viewBox="0 0 41 70" fill="none" xmlns="http://www.w3.org/2000/svg">
<circle cx="20.5" cy="62" r="8" fill="#DADADA"/>
<g clip-path="url(#clip0_8241_3585)">
<path d="M38.125 36.3125H2.87502C2.48931 36.3092 2.12052 36.1537 1.84895 35.8797C1.57737 35.6058 1.425 35.2357 1.42502 34.85V14.0625C1.42502 13.8139 1.52379 13.5754 1.69961 13.3996C1.87542 13.2238 2.11388 13.125 2.36252 13.125H38.6125C38.8602 13.1282 39.0967 13.228 39.2719 13.4032C39.447 13.5783 39.5468 13.8149 39.55 14.0625V34.85C39.547 35.2305 39.3971 35.5951 39.1315 35.8677C38.8659 36.1402 38.5053 36.2996 38.125 36.3125ZM3.30002 34.4375H37.7125V15H3.30002V34.4375Z" fill="#DADADA"/>
<path d="M38.65 14.9997H2.4C2.24866 15.0023 2.09894 14.9682 1.96364 14.9004C1.82833 14.8325 1.71146 14.7329 1.62302 14.6101C1.53458 14.4872 1.4772 14.3448 1.45577 14.195C1.43435 14.0452 1.44952 13.8924 1.5 13.7497L5.6125 4.26216C5.69174 4.10282 5.81525 3.96972 5.96823 3.87882C6.12121 3.78791 6.29717 3.74307 6.475 3.74966H34.5375C34.7187 3.74986 34.8959 3.80327 35.047 3.90327C35.1981 4.00327 35.3165 4.14545 35.3875 4.31216L39.5 13.7497C39.5656 13.8914 39.5931 14.0477 39.58 14.2033C39.5668 14.3589 39.5134 14.5084 39.425 14.6372C39.3353 14.7563 39.2177 14.8517 39.0826 14.9149C38.9475 14.9781 38.799 15.0072 38.65 14.9997ZM3.7875 13.1247H37.2125L33.9125 5.62466H7.0875L3.7875 13.1247Z" fill="#DADADA"/>
<path d="M25.35 25.8629L20.5 23.8879L15.65 25.8629V16.1504H25.35V25.8629Z" fill="#DADADA"/>
<path d="M23.775 6.5127H17.225L15.65 11.8002H25.35L23.775 6.5127Z" fill="#DADADA"/>
</g>
<defs>
<clipPath id="clip0_8241_3585">
<rect width="40" height="40" fill="white" transform="translate(0.5)"/>
</clipPath>
</defs>
</svg>
