<svg width="41" height="70" viewBox="0 0 41 70" fill="none" xmlns="http://www.w3.org/2000/svg">
<g clip-path="url(#clip0_8241_3564)">
<path d="M39.8374 24.8625C39.7593 24.7971 39.6756 24.7386 39.5875 24.6875V19.175C39.5537 17.1293 38.7136 15.1796 37.25 13.75C36.6338 13.0947 35.8929 12.5691 35.0707 12.2042C34.2486 11.8393 33.3618 11.6423 32.4625 11.625H26.625V9.125C26.6326 8.08008 26.2284 7.07418 25.5 6.325C25.1766 5.9874 24.7886 5.71827 24.3591 5.53359C23.9297 5.34892 23.4674 5.25248 23 5.25H4.08745C3.72258 5.25297 3.36207 5.32953 3.02748 5.4751C2.69289 5.62066 2.3911 5.83223 2.14019 6.09714C1.88928 6.36206 1.6944 6.67488 1.5672 7.01687C1.44001 7.35887 1.38313 7.72301 1.39995 8.0875V24.7125C1.18488 24.8682 1.01024 25.0732 0.890625 25.3102C0.771014 25.5473 0.709919 25.8095 0.712453 26.075V28.4375C0.701226 28.9753 0.893156 29.4975 1.24995 29.9C1.41186 30.0685 1.60589 30.2029 1.82057 30.2952C2.03526 30.3875 2.26626 30.4359 2.49995 30.4375H3.54995C3.80184 31.5751 4.40846 32.6032 5.28237 33.3738C6.15628 34.1444 7.25231 34.6175 8.41245 34.725H8.91245C10.1546 34.7144 11.3569 34.2855 12.3253 33.5076C13.2937 32.7297 13.9718 31.6481 14.25 30.4375H26.75C27.009 31.5961 27.636 32.6397 28.5372 33.4125C29.4384 34.1852 30.5654 34.6457 31.75 34.725H32.2374C33.4879 34.721 34.6998 34.2919 35.6743 33.5083C36.6487 32.7246 37.3278 31.633 37.5999 30.4125H39.0125C39.2012 30.4076 39.3872 30.3656 39.5598 30.2889C39.7323 30.2121 39.8881 30.1021 40.0181 29.9651C40.1481 29.8281 40.2498 29.6669 40.3175 29.4905C40.3852 29.3142 40.4174 29.1263 40.4124 28.9375V26.1C40.4037 25.8659 40.3483 25.6358 40.2496 25.4233C40.1508 25.2109 40.0107 25.0202 39.8374 24.8625ZM26.6375 13.4625H32.4625C33.7692 13.5042 35.0077 14.0561 35.9124 15C37.0228 16.0967 37.6522 17.5894 37.6624 19.15V24.375H34.8125C34.0035 23.9263 33.0937 23.6908 32.1687 23.6908C31.2437 23.6908 30.3339 23.9263 29.525 24.375H26.625L26.6375 13.4625ZM35.7999 29.5625C35.772 29.8617 35.7047 30.1559 35.5999 30.4375C35.3532 31.1493 34.8907 31.7666 34.2769 32.2035C33.6631 32.6403 32.9284 32.8751 32.175 32.8751C31.4215 32.8751 30.6869 32.6403 30.073 32.2035C29.4592 31.7666 28.9967 31.1493 28.75 30.4375C28.5702 29.9505 28.5019 29.4294 28.55 28.9125C28.5429 28.7959 28.5429 28.6791 28.55 28.5625C28.7056 27.7299 29.1478 26.978 29.8 26.4375L30.0375 26.275C30.6446 25.8338 31.3745 25.5935 32.125 25.5875H32.4625C33.1066 25.6455 33.7236 25.8742 34.25 26.25C34.5079 26.4243 34.7394 26.6348 34.9375 26.875C35.3385 27.3507 35.6059 27.9245 35.7125 28.5375C35.7886 28.8735 35.818 29.2184 35.7999 29.5625ZM12.5375 29.5625C12.5051 29.8622 12.4337 30.1564 12.325 30.4375C12.0782 31.1493 11.6157 31.7666 11.0019 32.2035C10.3881 32.6403 9.65336 32.8751 8.89995 32.8751C8.14654 32.8751 7.41185 32.6403 6.79803 32.2035C6.1842 31.7666 5.72175 31.1493 5.47495 30.4375C5.30739 29.9476 5.23939 29.4291 5.27495 28.9125C5.29266 28.7944 5.31771 28.6775 5.34995 28.5625C5.50043 27.728 5.94366 26.9745 6.59995 26.4375L6.81245 26.25C7.41961 25.8088 8.14947 25.5685 8.89995 25.5625H9.24995C9.88447 25.6302 10.489 25.8677 11 26.25C11.2644 26.4207 11.5006 26.6315 11.7 26.875C12.101 27.3507 12.3684 27.9245 12.475 28.5375C12.5427 28.8747 12.5637 29.2196 12.5375 29.5625ZM13.5375 26.275H27.5499C27.1094 26.9651 26.8355 27.7483 26.75 28.5625H14.375C14.2778 27.7374 13.9912 26.9459 13.5375 26.25V26.275ZM3.27495 8.0875C3.27495 7.5 3.59995 7.125 4.08745 7.125H23C23.4274 7.15313 23.8288 7.34045 24.125 7.65C24.3217 7.84217 24.4782 8.07154 24.5855 8.32475C24.6928 8.57797 24.7487 8.84999 24.75 9.125V24.4H11.55C10.8845 24.0404 10.1532 23.8192 9.39995 23.75C8.31135 23.6512 7.21818 23.882 6.26245 24.4125H3.22495L3.27495 8.0875ZM2.52495 28.4375V26.25H4.24995C3.79614 26.9367 3.50932 27.7201 3.41245 28.5375H2.53745C2.52424 28.5059 2.51992 28.4714 2.52495 28.4375ZM38.4749 28.5625H37.6374C37.5308 27.7318 37.2264 26.9388 36.75 26.25H38.4249L38.4749 28.5625Z" fill="#DADADA"/>
<path d="M8.91233 27.8125C8.65519 27.8107 8.40251 27.8797 8.18202 28.012C7.96152 28.1443 7.78171 28.3348 7.66233 28.5625H10.1623C10.0408 28.3366 9.86051 28.1476 9.64049 28.0156C9.42048 27.8836 9.16891 27.8134 8.91233 27.8125Z" fill="#DADADA"/>
<path d="M8.91226 30.65C9.1604 30.6431 9.40214 30.5697 9.61226 30.4375H8.19976C8.41376 30.5713 8.65995 30.6447 8.91226 30.65Z" fill="#DADADA"/>
<path d="M8.20015 30.4377H9.61265C9.83163 30.3113 10.013 30.1289 10.1382 29.9092C10.2635 29.6895 10.328 29.4405 10.3252 29.1877C10.3163 28.9511 10.2521 28.7199 10.1377 28.5127H7.63765C7.51354 28.7165 7.44461 28.9492 7.43765 29.1877C7.43976 29.4455 7.5118 29.698 7.64608 29.9181C7.78036 30.1382 7.97185 30.3178 8.20015 30.4377Z" fill="#DADADA"/>
<path d="M32.1752 27.8125C31.918 27.8107 31.6653 27.8797 31.4448 28.012C31.2243 28.1443 31.0445 28.3348 30.9252 28.5625H33.4252C33.3047 28.3357 33.1246 28.146 32.9044 28.0138C32.6841 27.8817 32.432 27.8121 32.1752 27.8125Z" fill="#DADADA"/>
<path d="M32.175 30.65C32.4234 30.6449 32.6657 30.5714 32.875 30.4375H31.475C31.6838 30.5726 31.9263 30.6462 32.175 30.65Z" fill="#DADADA"/>
<path d="M31.475 30.4377H32.875C33.0966 30.3144 33.2803 30.1326 33.4059 29.9123C33.5315 29.6919 33.5943 29.4413 33.5875 29.1877C33.5849 28.9502 33.5202 28.7175 33.4 28.5127H30.9C30.7797 28.7175 30.7151 28.9502 30.7125 29.1877C30.7104 29.4464 30.7807 29.7006 30.9154 29.9215C31.0501 30.1423 31.244 30.3212 31.475 30.4377Z" fill="#DADADA"/>
<path d="M35.3376 17.9625C35.3376 17.0773 34.986 16.2284 34.3601 15.6025C33.7342 14.9766 32.8853 14.625 32.0001 14.625H28.4001V19.4625H35.3376V17.9625Z" fill="#DADADA"/>
</g>
<circle cx="20.5" cy="62" r="8" fill="#EAEAEA"/>
<defs>
<clipPath id="clip0_8241_3564">
<rect width="40" height="40" fill="white" transform="translate(0.5)"/>
</clipPath>
</defs>
</svg>
