<svg width="41" height="70" viewBox="0 0 41 70" fill="none" xmlns="http://www.w3.org/2000/svg">
<circle cx="19.5" cy="62" r="8" fill="#EAEAEA"/>
<g clip-path="url(#clip0_8241_3610)">
<path d="M32.35 8.40039H27.6875V10.4129H31.3375V34.5504H9.67499V10.4129H13.325V8.40039H8.66249C8.53012 8.39874 8.39874 8.42338 8.27597 8.4729C8.1532 8.52241 8.04148 8.59581 7.94729 8.68883C7.85311 8.78185 7.77833 8.89265 7.72729 9.0148C7.67626 9.13695 7.64998 9.26801 7.64999 9.40039V35.5504C7.64999 35.8189 7.75667 36.0765 7.94655 36.2663C8.13643 36.4562 8.39396 36.5629 8.66249 36.5629H32.4125C32.5449 36.5629 32.6759 36.5366 32.7981 36.4856C32.9202 36.4346 33.031 36.3598 33.1241 36.2656C33.2171 36.1714 33.2905 36.0597 33.34 35.9369C33.3895 35.8141 33.4142 35.6828 33.4125 35.5504V9.40039C33.4128 9.26364 33.385 9.12829 33.3309 9.0027C33.2767 8.87712 33.1974 8.76396 33.0979 8.67024C32.9983 8.57651 32.8805 8.50421 32.7519 8.4578C32.6233 8.41138 32.4865 8.39185 32.35 8.40039Z" fill="#DADADA"/>
<path d="M26.675 11.0371H14.325V10.4121H13.325V11.0371C13.3234 11.1695 13.348 11.3009 13.3975 11.4236C13.447 11.5464 13.5204 11.6581 13.6135 11.7523C13.7065 11.8465 13.8173 11.9213 13.9394 11.9723C14.0616 12.0233 14.1926 12.0496 14.325 12.0496H26.675C26.9436 12.0496 27.2011 11.9429 27.391 11.7531C27.5809 11.5632 27.6875 11.3056 27.6875 11.0371V10.4121H26.675V11.0371Z" fill="#DADADA"/>
<path d="M14.325 7.26275H17.6875C17.7351 6.54761 18.0528 5.87732 18.5762 5.38765C19.0996 4.89799 19.7895 4.62556 20.5062 4.62556C21.223 4.62556 21.9129 4.89799 22.4363 5.38765C22.9597 5.87732 23.2773 6.54761 23.325 7.26275H26.675V8.40025H27.6875V7.26275C27.6842 6.99639 27.5761 6.74206 27.3866 6.55487C27.197 6.36769 26.9414 6.26273 26.675 6.26275H24.25C24.0275 5.45552 23.5463 4.74359 22.8802 4.23623C22.214 3.72887 21.3998 3.4541 20.5625 3.4541C19.7252 3.4541 18.911 3.72887 18.2448 4.23623C17.5787 4.74359 17.0975 5.45552 16.875 6.26275H14.375C14.1098 6.26275 13.8554 6.36811 13.6679 6.55564C13.4804 6.74318 13.375 6.99753 13.375 7.26275V8.40025H14.375L14.325 7.26275Z" fill="#DADADA"/>
<path d="M14.3375 8.40039H13.325V10.4254H14.3375V8.40039Z" fill="#DADADA"/>
<path d="M27.6875 8.40039H26.675V10.4254H27.6875V8.40039Z" fill="#DADADA"/>
<path d="M26.675 10.4121H14.325V11.0371H26.675V10.4121Z" fill="#DADADA"/>
<path d="M15.3375 8.27469H17.6875C17.8199 8.2747 17.951 8.24842 18.0731 8.19739C18.1953 8.14635 18.3061 8.07158 18.3991 7.97739C18.4921 7.8832 18.5655 7.77148 18.615 7.64871C18.6645 7.52594 18.6892 7.39456 18.6875 7.26219C18.6875 6.78148 18.8785 6.32047 19.2184 5.98056C19.5583 5.64065 20.0193 5.44969 20.5 5.44969C20.9807 5.44969 21.4417 5.64065 21.7816 5.98056C22.1216 6.32047 22.3125 6.78148 22.3125 7.26219C22.3125 7.53072 22.4192 7.78825 22.6091 7.97813C22.7989 8.16801 23.0565 8.27469 23.325 8.27469H25.6625V8.39969H26.675V7.26219H23.325C23.2774 6.54705 22.9597 5.87675 22.4363 5.38709C21.9129 4.89742 21.223 4.625 20.5063 4.625C19.7895 4.625 19.0996 4.89742 18.5762 5.38709C18.0529 5.87675 17.7352 6.54705 17.6875 7.26219H14.325V8.39969H15.3375V8.27469Z" fill="#DADADA"/>
<path d="M26.675 8.3877H25.6625V10.0252H15.3375V8.3877H14.325V10.4127H26.675V8.3877Z" fill="#DADADA"/>
<path d="M20.5 16.0254C19.1323 16.0229 17.7946 16.4262 16.6562 17.1843C15.5178 17.9423 14.6299 19.0211 14.1048 20.2839C13.5797 21.5468 13.441 22.9371 13.7063 24.2788C13.9716 25.6205 14.629 26.8534 15.5952 27.8213C16.5614 28.7893 17.7931 29.4489 19.1343 29.7166C20.4756 29.9844 21.8661 29.8482 23.1299 29.3254C24.3937 28.8026 25.474 27.9166 26.2341 26.7796C26.9943 25.6426 27.4 24.3056 27.4 22.9379C27.4 21.1068 26.6734 19.3504 25.3798 18.0544C24.0861 16.7585 22.3311 16.0287 20.5 16.0254ZM24.7125 21.4629L20.275 25.8379C20.1819 25.9316 20.0707 26.0054 19.9482 26.0548C19.8258 26.1042 19.6945 26.1282 19.5625 26.1254C19.3025 26.127 19.0519 26.0285 18.8625 25.8504L16.2875 23.3504C16.0997 23.1608 15.9944 22.9047 15.9944 22.6379C15.9944 22.3711 16.0997 22.115 16.2875 21.9254C16.4792 21.7368 16.7373 21.6312 17.0062 21.6312C17.2751 21.6312 17.5333 21.7368 17.725 21.9254L19.5625 23.7504L23.3125 20.0629C23.5021 19.8751 23.7581 19.7698 24.025 19.7698C24.2918 19.7698 24.5479 19.8751 24.7375 20.0629C24.9174 20.2531 25.0156 20.5062 25.0109 20.768C25.0062 21.0298 24.8991 21.2793 24.7125 21.4629Z" fill="#DADADA"/>
</g>
<defs>
<clipPath id="clip0_8241_3610">
<rect width="40" height="40" fill="white" transform="translate(0.5)"/>
</clipPath>
</defs>
</svg>
