<svg width="41" height="70" viewBox="0 0 41 70" fill="none" xmlns="http://www.w3.org/2000/svg">
<circle cx="20.5" cy="62" r="8" fill="#EAEAEA"/>
<g clip-path="url(#clip0_8241_3597)">
<path d="M38.125 36.3125H2.87502C2.48931 36.3092 2.12052 36.1537 1.84895 35.8797C1.57737 35.6058 1.425 35.2357 1.42502 34.85V14.0625C1.42502 13.8139 1.52379 13.5754 1.69961 13.3996C1.87542 13.2238 2.11388 13.125 2.36252 13.125H38.6125C38.8602 13.1282 39.0967 13.228 39.2719 13.4032C39.447 13.5783 39.5468 13.8149 39.55 14.0625V34.85C39.547 35.2305 39.3971 35.5951 39.1315 35.8677C38.8659 36.1402 38.5053 36.2996 38.125 36.3125ZM3.30002 34.4375H37.7125V15H3.30002V34.4375Z" fill="#DADADA"/>
<path d="M31.8418 24C30.9184 23.9983 30.0153 24.2706 29.2468 24.7824C28.4783 25.2941 27.8788 26.0224 27.5243 26.875C27.1698 27.7275 27.0762 28.6661 27.2553 29.5719C27.4344 30.4777 27.8782 31.31 28.5305 31.9635C29.1828 32.617 30.0143 33.0623 30.9198 33.243C31.8253 33.4238 32.764 33.3319 33.6172 32.9789C34.4704 32.6259 35.1998 32.0278 35.7129 31.2602C36.2261 30.4926 36.5 29.59 36.5 28.6667C36.5 27.4305 36.0095 26.2447 35.1361 25.3698C34.2628 24.4949 33.078 24.0022 31.8418 24ZM34.6856 27.6709L31.6899 30.6245C31.627 30.6877 31.552 30.7375 31.4693 30.7709C31.3866 30.8043 31.298 30.8205 31.2089 30.8186C31.0333 30.8197 30.8641 30.7532 30.7363 30.6329L28.9979 28.9452C28.8711 28.8172 28.8 28.6443 28.8 28.4641C28.8 28.284 28.8711 28.1111 28.9979 27.9831C29.1273 27.8558 29.3016 27.7845 29.4831 27.7845C29.6647 27.7845 29.8389 27.8558 29.9683 27.9831L31.2089 29.2152L33.7405 26.7257C33.8685 26.599 34.0414 26.5279 34.2215 26.5279C34.4017 26.5279 34.5745 26.599 34.7025 26.7257C34.824 26.8541 34.8903 27.025 34.8871 27.2018C34.884 27.3785 34.8116 27.5469 34.6856 27.6709Z" fill="#DADADA"/>
<path d="M38.65 14.9997H2.40002C2.24868 15.0023 2.09896 14.9682 1.96365 14.9004C1.82835 14.8325 1.71148 14.7329 1.62304 14.6101C1.5346 14.4872 1.47721 14.3448 1.45579 14.195C1.43436 14.0452 1.44954 13.8924 1.50002 13.7497L5.61252 4.26216C5.69175 4.10282 5.81527 3.96972 5.96825 3.87882C6.12123 3.78791 6.29719 3.74307 6.47502 3.74966H34.5375C34.7187 3.74986 34.8959 3.80327 35.047 3.90327C35.1981 4.00327 35.3165 4.14545 35.3875 4.31216L39.5 13.7497C39.5656 13.8914 39.5931 14.0477 39.58 14.2033C39.5668 14.3589 39.5134 14.5084 39.425 14.6372C39.3353 14.7563 39.2177 14.8517 39.0826 14.9149C38.9475 14.9781 38.799 15.0072 38.65 14.9997ZM3.78752 13.1247H37.2125L33.9125 5.62466H7.08752L3.78752 13.1247Z" fill="#DADADA"/>
<path d="M25.35 25.8629L20.5 23.8879L15.65 25.8629V16.1504H25.35V25.8629Z" fill="#DADADA"/>
<path d="M23.775 6.5127H17.225L15.65 11.8002H25.35L23.775 6.5127Z" fill="#DADADA"/>
</g>
<defs>
<clipPath id="clip0_8241_3597">
<rect width="40" height="40" fill="white" transform="translate(0.5)"/>
</clipPath>
</defs>
</svg>
