<svg width="210" height="210" viewBox="0 0 210 210" fill="none" xmlns="http://www.w3.org/2000/svg">
<g clip-path="url(#clip0_7712_0)">
<path d="M164.11 181.49C179.217 169.485 190.253 153.112 195.715 134.605C201.177 116.098 200.798 96.3564 194.63 78.0724C188.462 59.7884 176.806 43.8515 161.249 32.4346C145.693 21.0177 126.994 14.6763 107.702 14.2751C88.4095 13.8738 69.4631 19.4322 53.4454 30.1924C37.4277 40.9527 25.1184 56.3911 18.1956 74.4028C11.2728 92.4145 10.0734 112.123 14.761 130.841C19.4486 149.56 29.7951 166.377 44.3897 179" fill="#FCEFF2"/>
<path d="M177.3 180.36C186.849 180.36 194.59 172.914 194.59 163.73C194.59 154.545 186.849 147.1 177.3 147.1C167.751 147.1 160.01 154.545 160.01 163.73C160.01 172.914 167.751 180.36 177.3 180.36Z" fill="#EB92A7"/>
<path d="M194.58 180.37C199.352 180.37 203.22 176.645 203.22 172.05C203.22 167.455 199.352 163.73 194.58 163.73C189.809 163.73 185.94 167.455 185.94 172.05C185.94 176.645 189.809 180.37 194.58 180.37Z" fill="#EB92A7"/>
<path d="M160.01 180.36C165.875 180.36 170.63 175.784 170.63 170.14C170.63 164.496 165.875 159.92 160.01 159.92C154.144 159.92 149.39 164.496 149.39 170.14C149.39 175.784 154.144 180.36 160.01 180.36Z" fill="#A0E8CB"/>
<path d="M102.59 181.83H210C210 181.83 167.36 164.92 102.59 181.83Z" fill="#EB92A7"/>
<path d="M80.6108 179.97C94.313 179.97 105.421 169.283 105.421 156.1C105.421 142.917 94.313 132.23 80.6108 132.23C66.9086 132.23 55.8008 142.917 55.8008 156.1C55.8008 169.283 66.9086 179.97 80.6108 179.97Z" fill="#EB92A7"/>
<path d="M105.42 179.97C112.274 179.97 117.83 174.624 117.83 168.03C117.83 161.436 112.274 156.09 105.42 156.09C98.5659 156.09 93.0098 161.436 93.0098 168.03C93.0098 174.624 98.5659 179.97 105.42 179.97Z" fill="#A0E8CB"/>
<path d="M55.7898 179.97C64.2066 179.97 71.0298 173.402 71.0298 165.3C71.0298 157.198 64.2066 150.63 55.7898 150.63C47.373 150.63 40.5498 157.198 40.5498 165.3C40.5498 173.402 47.373 179.97 55.7898 179.97Z" fill="#EB92A7"/>
<path d="M148.64 181.83H12.5703C12.5703 181.83 66.5903 160.41 148.64 181.83Z" fill="#EB92A7"/>
<path d="M38.56 180.62C45.6127 180.62 51.33 174.594 51.33 167.16C51.33 159.726 45.6127 153.7 38.56 153.7C31.5074 153.7 25.79 159.726 25.79 167.16C25.79 174.594 31.5074 180.62 38.56 180.62Z" fill="#F3BDCA"/>
<path d="M51.0297 180.62C54.5146 180.62 57.3397 178.113 57.3397 175.02C57.3397 171.927 54.5146 169.42 51.0297 169.42C47.5448 169.42 44.7197 171.927 44.7197 175.02C44.7197 178.113 47.5448 180.62 51.0297 180.62Z" fill="#B6EFDA"/>
<path d="M25.79 180.63C30.0702 180.63 33.54 177.545 33.54 173.74C33.54 169.935 30.0702 166.85 25.79 166.85C21.5098 166.85 18.04 169.935 18.04 173.74C18.04 177.545 21.5098 180.63 25.79 180.63Z" fill="#F3BDCA"/>
<path d="M72.9996 181.5H3.80957C3.80957 181.5 31.2796 171.44 72.9996 181.5Z" fill="#F3BDCA"/>
<path d="M53.2295 180.1C59.9729 180.1 65.4395 175.242 65.4395 169.25C65.4395 163.258 59.9729 158.4 53.2295 158.4C46.4861 158.4 41.0195 163.258 41.0195 169.25C41.0195 175.242 46.4861 180.1 53.2295 180.1Z" fill="#F3BDCA"/>
<path d="M65.4401 180.1C68.8145 180.1 71.5501 177.673 71.5501 174.68C71.5501 171.687 68.8145 169.26 65.4401 169.26C62.0656 169.26 59.3301 171.687 59.3301 174.68C59.3301 177.673 62.0656 180.1 65.4401 180.1Z" fill="#F3BDCA"/>
<path d="M41.0195 180.1C45.1617 180.1 48.5195 177.118 48.5195 173.44C48.5195 169.762 45.1617 166.78 41.0195 166.78C36.8774 166.78 33.5195 169.762 33.5195 173.44C33.5195 177.118 36.8774 180.1 41.0195 180.1Z" fill="#F3BDCA"/>
<path d="M86 181.27H19C19 181.27 45.63 171.53 86 181.27Z" fill="#F3BDCA"/>
<path d="M18.2204 120.05C22.6994 120.05 26.3304 116.822 26.3304 112.84C26.3304 108.858 22.6994 105.63 18.2204 105.63C13.7413 105.63 10.1104 108.858 10.1104 112.84C10.1104 116.822 13.7413 120.05 18.2204 120.05Z" fill="#F3BDCA"/>
<path d="M26.3305 120.04C28.5728 120.04 30.3905 118.428 30.3905 116.44C30.3905 114.452 28.5728 112.84 26.3305 112.84C24.0882 112.84 22.2705 114.452 22.2705 116.44C22.2705 118.428 24.0882 120.04 26.3305 120.04Z" fill="#F3BDCA"/>
<path d="M10.1109 120.05C12.8612 120.05 15.0909 118.067 15.0909 115.62C15.0909 113.173 12.8612 111.19 10.1109 111.19C7.36048 111.19 5.13086 113.173 5.13086 115.62C5.13086 118.067 7.36048 120.05 10.1109 120.05Z" fill="#F3BDCA"/>
<path d="M41.13 121.08H0.790039C0.790039 121.08 16.81 113.14 41.13 121.08Z" fill="#F3BDCA"/>
<path d="M170.46 56.7599C178.424 56.7599 184.88 51.0247 184.88 43.9499C184.88 36.8751 178.424 31.1399 170.46 31.1399C162.496 31.1399 156.04 36.8751 156.04 43.9499C156.04 51.0247 162.496 56.7599 170.46 56.7599Z" fill="#F3BDCA"/>
<path d="M156.04 56.75C160.022 56.75 163.25 53.8846 163.25 50.35C163.25 46.8153 160.022 43.95 156.04 43.95C152.058 43.95 148.83 46.8153 148.83 50.35C148.83 53.8846 152.058 56.75 156.04 56.75Z" fill="#F3BDCA"/>
<path d="M184.88 56.76C189.773 56.76 193.74 53.2365 193.74 48.89C193.74 44.5435 189.773 41.02 184.88 41.02C179.986 41.02 176.02 44.5435 176.02 48.89C176.02 53.2365 179.986 56.76 184.88 56.76Z" fill="#F3BDCA"/>
<path d="M130.93 57.7499H210C210 57.7499 178.61 46.2599 130.93 57.7499Z" fill="#F3BDCA"/>
<path d="M118.96 25.0801H53.5496C51.9425 25.0801 50.6396 26.3829 50.6396 27.9901V126.02C50.6396 127.627 51.9425 128.93 53.5496 128.93H118.96C120.567 128.93 121.87 127.627 121.87 126.02V27.9901C121.87 26.3829 120.567 25.0801 118.96 25.0801Z" fill="#EB92A7"/>
<g opacity="0.8">
<path opacity="0.8" d="M86.2498 76.25C97.1298 76.25 105.95 67.43 105.95 56.55C105.95 45.67 97.1298 36.85 86.2498 36.85C75.3698 36.85 66.5498 45.67 66.5498 56.55C66.5498 67.43 75.3698 76.25 86.2498 76.25Z" fill="white"/>
<path opacity="0.8" d="M86.2497 52.8301C84.558 52.8186 82.8835 53.1697 81.339 53.8599C79.7944 54.55 78.4157 55.5631 77.2957 56.831C76.1756 58.0988 75.3403 59.592 74.8459 61.2099C74.3516 62.8277 74.2096 64.5328 74.4297 66.2101C75.9472 67.8228 77.7787 69.108 79.8115 69.9864C81.8442 70.8649 84.0353 71.318 86.2497 71.318C88.4642 71.318 90.6552 70.8649 92.6879 69.9864C94.7207 69.108 96.5522 67.8228 98.0697 66.2101C98.2764 64.5351 98.1251 62.8352 97.6257 61.2231C97.1263 59.6109 96.2903 58.1231 95.1729 56.8583C94.0555 55.5934 92.6822 54.5802 91.1439 53.8858C89.6057 53.1914 87.9375 52.8316 86.2497 52.8301Z" fill="#DB284E"/>
<path opacity="0.8" d="M93.0803 48.61C93.0803 52.38 90.0203 55.83 86.2503 55.83C84.3986 55.7423 82.6527 54.9418 81.3778 53.5961C80.1029 52.2504 79.3979 50.4637 79.4103 48.61C79.3751 47.6904 79.5258 46.7732 79.8535 45.9133C80.1811 45.0533 80.6789 44.2683 81.3171 43.6053C81.9552 42.9422 82.7206 42.4148 83.5674 42.0545C84.4142 41.6942 85.325 41.5085 86.2453 41.5085C87.1655 41.5085 88.0763 41.6942 88.9231 42.0545C89.7699 42.4148 90.5353 42.9422 91.1735 43.6053C91.8116 44.2683 92.3094 45.0533 92.6371 45.9133C92.9647 46.7732 93.1154 47.6904 93.0803 48.61Z" fill="#DB284E"/>
</g>
<path opacity="0.5" d="M107.8 82.9001H64.7003C63.916 82.9001 63.2803 83.5359 63.2803 84.3201V89.1901C63.2803 89.9744 63.916 90.6101 64.7003 90.6101H107.8C108.585 90.6101 109.22 89.9744 109.22 89.1901V84.3201C109.22 83.5359 108.585 82.9001 107.8 82.9001Z" fill="white"/>
<path opacity="0.5" d="M107.8 95.1101H64.7003C63.916 95.1101 63.2803 95.7459 63.2803 96.5301V101.4C63.2803 102.184 63.916 102.82 64.7003 102.82H107.8C108.585 102.82 109.22 102.184 109.22 101.4V96.5301C109.22 95.7459 108.585 95.1101 107.8 95.1101Z" fill="white"/>
<path d="M103.58 109.46H68.9098C68.2968 109.46 67.7998 109.957 67.7998 110.57V116.06C67.7998 116.673 68.2968 117.17 68.9098 117.17H103.58C104.193 117.17 104.69 116.673 104.69 116.06V110.57C104.69 109.957 104.193 109.46 103.58 109.46Z" fill="#DB284E"/>
<path d="M122.17 193.49C156.379 193.49 184.11 191.923 184.11 189.99C184.11 188.057 156.379 186.49 122.17 186.49C87.962 186.49 60.2305 188.057 60.2305 189.99C60.2305 191.923 87.962 193.49 122.17 193.49Z" fill="#E8E8E8"/>
<path d="M169.861 190.91L79.8608 190.43C66.5608 175.06 65.1608 154.78 83.0008 137.37C85.2408 135.18 89.5408 133.63 94.1608 132.55C100.184 131.271 106.294 130.445 112.441 130.08C115.387 127.709 118.129 125.097 120.641 122.27C130.171 110.8 138.251 111.81 138.251 111.81C147.941 109.96 156.201 109.43 162.311 112.81C167.971 115.99 171.791 122.57 173.191 134.64C173.464 136.92 173.641 139.403 173.721 142.09C174.041 151.88 175.951 160.6 177.071 167.98C178.701 178.72 178.691 186.6 169.861 190.91Z" fill="#971937"/>
<path d="M159.27 126.59C153.39 129.77 150.9 138.87 141.7 141.59C132.5 144.31 116.89 143.99 108 153.59C99.4299 162.83 90.0899 139.23 94.1599 132.59C100.183 131.311 106.293 130.485 112.44 130.12C115.386 127.749 118.128 125.137 120.64 122.31C130.17 110.84 138.25 111.85 138.25 111.85C147.94 110 156.2 109.47 162.31 112.85C165.41 116.26 165.16 123.41 159.27 126.59Z" fill="#83182F"/>
<path d="M118 129.42C118 129.42 71.9999 126.92 73.9999 143.84C75.9999 160.76 79.7999 182.94 79.7999 182.94C79.7999 182.94 87.5299 183.13 88.4499 179.07C89.3699 175.01 81.5499 147.51 112.45 142.86C143.35 138.21 118 129.42 118 129.42Z" fill="#3F3F3F"/>
<path d="M81.6902 180.51C81.6902 180.51 83.6902 185.89 83.2702 187.89C82.8502 189.89 83.5302 193.75 82.7202 195.48C81.9102 197.21 80.4402 199.73 81.8402 200.36C82.3702 200.61 88.5502 195.81 88.9102 194.36C89.2702 192.91 89.5402 188.77 90.7202 186.5C90.9865 186.087 91.1593 185.62 91.2263 185.133C91.2933 184.646 91.253 184.151 91.1082 183.681C90.9634 183.211 90.7175 182.779 90.3879 182.414C90.0583 182.05 89.6529 181.761 89.2002 181.57C87.4902 180.74 85.1102 176.18 85.1102 176.18L81.6902 180.51Z" fill="#F2AA91"/>
<path d="M75.69 189.37C75.69 189.37 73.76 194.78 72.14 196.03C70.52 197.28 68.56 200.68 66.82 201.47C65.08 202.26 62.34 203.25 63 204.64C63.25 205.16 71.07 205.49 72.25 204.64C73.43 203.79 76.34 200.77 78.7 199.8C79.1684 199.655 79.5994 199.41 79.9629 199.081C80.3264 198.752 80.6135 198.347 80.8041 197.896C80.9946 197.444 81.0841 196.956 81.0661 196.466C81.0481 195.976 80.9231 195.496 80.7 195.06C79.93 193.32 81.06 188.29 81.06 188.29L75.69 189.37Z" fill="#F2AA91"/>
<path d="M121.36 105.63C121.36 105.63 118.48 121.16 103.14 128.81L105.41 130.2C105.41 130.2 119.25 130.38 130.41 112.45L121.36 105.63Z" fill="#F2AA91"/>
<path d="M133.46 99.8801C132.74 99.0501 144.1 95.6601 146.46 104.98C146.46 104.98 167.37 99.4901 154.55 90.1401C150.11 86.9101 149.67 83.4701 149.04 80.3201C148.41 77.1701 144 68.1101 136.32 72.5801C134.25 72.6127 132.241 73.2871 130.57 74.5101C125.49 78.8801 119.88 106.75 133.46 99.8801Z" fill="#1E1C1F"/>
<path d="M150.29 98.1898C144.002 95.7154 137.168 94.9595 130.49 95.9998C129.273 96.0999 128.097 96.4933 127.065 97.1463C126.032 97.7993 125.173 98.6926 124.56 99.7498C122.26 103.51 121.19 105.53 121.19 105.53C121.19 105.53 121.4 107.28 124.52 108.68C123.66 111.8 125.27 117.25 123.77 119.36C122.27 121.47 112.94 126.7 112.47 129.61C111.61 134.97 128.33 144.74 133.33 143.71C147.7 140.79 157.57 102.32 150.29 98.1898Z" fill="#DB284E"/>
<path d="M145.38 87.13C146.37 85.196 147.045 83.1166 147.38 80.97C147.55 78.97 145.89 71.84 138.71 73.55C137.249 73.8792 135.881 74.5357 134.71 75.47C133.23 76.68 131.16 79.19 134.28 85.27L135.14 87.34L145.38 87.13Z" fill="#1E1C1F"/>
<path d="M149 115.59C149 115.59 152.14 125.9 139.81 126.59L136.9 129.45C136.9 129.45 149.55 136.39 156.15 126.74C161.41 119.04 157.46 109.74 157.46 109.74L149 115.59Z" fill="#F2AA91"/>
<path d="M106.14 130.16C105.705 130.465 105.306 130.817 104.95 131.21C104.202 131.894 103.257 132.324 102.25 132.44C101.44 132.573 100.616 132.597 99.8 132.51C99.7582 132.526 99.7119 132.526 99.67 132.51C99.56 132.43 99.67 132.27 99.75 132.18C100.174 131.827 100.72 131.655 101.27 131.7C100.81 131.7 100.36 131.49 99.89 131.47C99.0877 131.604 98.2932 131.781 97.51 132C96.8903 132.117 96.2532 132.106 95.6376 131.969C95.0221 131.831 94.4411 131.57 93.93 131.2C93.58 130.94 93.78 130.89 94.09 130.71C94.4 130.53 94.7 130.37 95.01 130.21C96.2403 129.623 97.546 129.209 98.89 128.98C99.7952 128.761 100.72 128.63 101.65 128.59C102.11 128.59 103.15 128.53 103.65 128.59C104.15 128.65 103.92 129.28 104.31 129.52C104.7 129.76 105.76 129.93 106.14 130.16Z" fill="#F2AA91"/>
<path d="M149.179 97.78C149.449 97.78 152.749 98.88 155.099 103.57C157.449 108.26 158.259 110.43 158.259 110.43C158.259 110.43 147.909 118.43 143.809 115.43C139.709 112.43 145.399 97.67 149.179 97.78Z" fill="#DB284E"/>
<path d="M139.79 126.55C138.763 126.234 137.784 125.78 136.88 125.2C136.17 124.57 132.01 124.05 132.01 124.47C132.01 124.89 134.43 125.47 134.7 125.89C134.97 126.31 136.43 128.04 137.7 128.04C138.97 128.04 139.79 126.55 139.79 126.55Z" fill="#F2AA91"/>
<path d="M133.22 118.86L136.73 130.1L128.44 129.04L125.12 118.06L133.22 118.86Z" fill="black"/>
<path d="M136.55 129.53L136.88 128.87L133.55 118.06L133.22 118.86L136.55 129.53Z" fill="#424242"/>
<path d="M133.55 118.06L126.11 117.48L125.12 118.06L133.22 118.86L133.55 118.06Z" fill="#424242"/>
<path d="M136.88 129.41C135.544 129.442 134.208 129.388 132.88 129.25C132.07 129.06 130.01 126.49 130.56 125.85C130.91 125.45 132.83 126.18 133.75 126.18C134.67 126.18 137.06 124.86 138.68 127.58C138.84 127.89 136.88 129.41 136.88 129.41Z" fill="#F2AA91"/>
<path d="M130 80.3098C130 80.3098 128.83 90.1999 131.32 93.7998C133.81 97.3998 136.79 93.5098 136.79 93.5098L136.47 97.8198C137.598 98.3241 138.825 98.5671 140.059 98.5307C141.294 98.4944 142.504 98.1796 143.6 97.6098C143.6 97.6098 140.39 95.6098 141.32 88.6098C141.32 88.6098 144.68 86.5199 142.1 83.9399C139.52 81.3599 140.1 85.4399 140.1 85.4399C140.1 85.4399 138.07 72.4699 130 80.3098Z" fill="#F2AA91"/>
<g opacity="0.1">
<path opacity="0.1" d="M124.521 109H124.401C124.332 108.967 124.279 108.909 124.253 108.838C124.227 108.767 124.23 108.689 124.261 108.62L126.051 104.53C126.083 104.462 126.141 104.408 126.211 104.38C126.282 104.352 126.36 104.352 126.431 104.38C126.501 104.411 126.556 104.468 126.584 104.539C126.612 104.61 126.611 104.69 126.581 104.76L124.781 108.85C124.757 108.898 124.72 108.938 124.673 108.964C124.627 108.991 124.574 109.003 124.521 109Z" fill="black"/>
</g>
<g opacity="0.1">
<path opacity="0.1" d="M149.829 115.29L148.979 115.59L145.439 106.94" fill="#4EA785"/>
<path opacity="0.1" d="M148.82 116L145.17 107.1C145.143 107.028 145.144 106.949 145.174 106.878C145.204 106.808 145.259 106.751 145.33 106.72C145.365 106.705 145.403 106.698 145.441 106.698C145.48 106.698 145.518 106.706 145.553 106.721C145.588 106.736 145.62 106.757 145.647 106.785C145.674 106.812 145.695 106.844 145.71 106.88L149.14 115.28L149.73 115.07C149.803 115.047 149.881 115.053 149.95 115.087C150.019 115.12 150.072 115.179 150.1 115.25C150.112 115.285 150.117 115.323 150.115 115.36C150.112 115.398 150.103 115.435 150.086 115.468C150.069 115.502 150.046 115.532 150.017 115.556C149.989 115.58 149.955 115.599 149.92 115.61L148.82 116Z" fill="black"/>
</g>
<path d="M114.69 132.61C114.69 132.61 87.46 127.45 82.37 154.83C77.28 182.21 74 191 74 191C74 191 76.37 193.58 81.13 191.15C85.89 188.72 101.13 155.37 103.19 150.46C105.25 145.55 129.19 157.98 135.55 143.02L114.69 132.61Z" fill="#6C6D6D"/>
<path d="M151.9 135.61C151.9 135.61 148.6 138.24 136.48 138.61C124.36 138.98 108.48 152.3 108.36 156.08C108.24 159.86 132.73 165.69 133.11 165.15C133.49 164.61 148.72 151.61 148.72 151.61L151.9 135.61Z" fill="#971937"/>
<path d="M176.181 190.33C183.266 190.33 189.011 184.778 189.011 177.93C189.011 171.082 183.266 165.53 176.181 165.53C169.095 165.53 163.351 171.082 163.351 177.93C163.351 184.778 169.095 190.33 176.181 190.33Z" fill="#F3BDCA"/>
<path d="M167.64 190.33C170.589 190.33 172.98 188.02 172.98 185.17C172.98 182.32 170.589 180.01 167.64 180.01C164.691 180.01 162.3 182.32 162.3 185.17C162.3 188.02 164.691 190.33 167.64 190.33Z" fill="#B6EFDA"/>
<path d="M189.01 190.33C192.633 190.33 195.57 187.491 195.57 183.99C195.57 180.488 192.633 177.65 189.01 177.65C185.387 177.65 182.45 180.488 182.45 183.99C182.45 187.491 185.387 190.33 189.01 190.33Z" fill="#F3BDCA"/>
<path d="M149 191.13H207.61C207.61 191.13 184.36 181.87 149 191.13Z" fill="#F3BDCA"/>
<path d="M161.989 190.35C167.7 190.35 172.329 185.877 172.329 180.36C172.329 174.843 167.7 170.37 161.989 170.37C156.279 170.37 151.649 174.843 151.649 180.36C151.649 185.877 156.279 190.35 161.989 190.35Z" fill="#F3BDCA"/>
<path d="M151.641 190.36C154.496 190.36 156.811 188.122 156.811 185.36C156.811 182.599 154.496 180.36 151.641 180.36C148.785 180.36 146.471 182.599 146.471 185.36C146.471 188.122 148.785 190.36 151.641 190.36Z" fill="#F3BDCA"/>
<path d="M172.33 190.36C175.837 190.36 178.68 187.611 178.68 184.22C178.68 180.829 175.837 178.08 172.33 178.08C168.823 178.08 165.98 180.829 165.98 184.22C165.98 187.611 168.823 190.36 172.33 190.36Z" fill="#F3BDCA"/>
<path d="M133.63 191.13H190.35C190.35 191.13 167.83 182.17 133.63 191.13Z" fill="#F3BDCA"/>
<path d="M41.5298 7.09009H11.1398C9.17923 7.09009 7.58984 8.67948 7.58984 10.6401V41.0301C7.58984 42.9907 9.17923 44.5801 11.1398 44.5801H41.5298C43.4905 44.5801 45.0798 42.9907 45.0798 41.0301V10.6401C45.0798 8.67948 43.4905 7.09009 41.5298 7.09009Z" fill="#DB284E"/>
<path d="M20.7002 18.6301V13.0601H30.3902V38.6101H24.1602V18.6101L20.7002 18.6301Z" fill="white"/>
</g>
<defs>
<clipPath id="clip0_7712_0">
<rect width="210" height="210" fill="white"/>
</clipPath>
</defs>
</svg>
