<svg width="210" height="210" viewBox="0 0 210 210" fill="none" xmlns="http://www.w3.org/2000/svg">
<g clip-path="url(#clip0_9844_210868)">
<g clip-path="url(#clip1_9844_210868)">
<path d="M164.11 180.49C179.217 168.485 190.253 152.112 195.715 133.605C201.177 115.098 200.798 95.3565 194.63 77.0725C188.462 58.7885 176.806 42.8516 161.249 31.4347C145.693 20.0178 126.994 13.6764 107.702 13.2752C88.4095 12.8739 69.4631 18.4323 53.4454 29.1926C37.4277 39.9528 25.1184 55.3912 18.1956 73.4029C11.2728 91.4147 10.0734 111.123 14.761 129.841C19.4486 148.56 29.7951 165.377 44.3897 178" fill="#FCEFF2"/>
<path d="M166.52 179.51C177.825 179.51 186.99 170.694 186.99 159.82C186.99 148.946 177.825 140.13 166.52 140.13C155.215 140.13 146.05 148.946 146.05 159.82C146.05 170.694 155.215 179.51 166.52 179.51Z" fill="#EB92A7"/>
<path d="M186.98 179.52C192.63 179.52 197.21 175.11 197.21 169.67C197.21 164.23 192.63 159.82 186.98 159.82C181.33 159.82 176.75 164.23 176.75 169.67C176.75 175.11 181.33 179.52 186.98 179.52Z" fill="#EB92A7"/>
<path d="M146.05 179.52C152.993 179.52 158.62 174.103 158.62 167.42C158.62 160.737 152.993 155.32 146.05 155.32C139.108 155.32 133.48 160.737 133.48 167.42C133.48 174.103 139.108 179.52 146.05 179.52Z" fill="#A0E8CB"/>
<path d="M113.94 180.83H210C210 180.83 171.87 165.71 113.94 180.83Z" fill="#EB92A7"/>
<path d="M75.22 178.04C95.754 178.04 112.4 162.021 112.4 142.26C112.4 122.499 95.754 106.48 75.22 106.48C54.6861 106.48 38.04 122.499 38.04 142.26C38.04 162.021 54.6861 178.04 75.22 178.04Z" fill="#EB92A7"/>
<path d="M112.4 178.04C122.667 178.04 130.99 170.03 130.99 160.15C130.99 150.27 122.667 142.26 112.4 142.26C102.133 142.26 93.8096 150.27 93.8096 160.15C93.8096 170.03 102.133 178.04 112.4 178.04Z" fill="#A0E8CB"/>
<path d="M38.0402 178.04C50.6544 178.04 60.8802 168.199 60.8802 156.06C60.8802 143.921 50.6544 134.08 38.0402 134.08C25.426 134.08 15.2002 143.921 15.2002 156.06C15.2002 168.199 25.426 178.04 38.0402 178.04Z" fill="#EB92A7"/>
<path d="M203.89 180.83H0C0 180.83 80.94 148.73 203.89 180.83Z" fill="#EB92A7"/>
<path d="M39.5396 91.67C49.0554 91.67 56.7696 84.1663 56.7696 74.91C56.7696 65.6537 49.0554 58.15 39.5396 58.15C30.0237 58.15 22.3096 65.6537 22.3096 74.91C22.3096 84.1663 30.0237 91.67 39.5396 91.67Z" fill="#F3BDCA"/>
<path d="M56.7704 91.6699C61.5311 91.6699 65.3904 87.9181 65.3904 83.2899C65.3904 78.6618 61.5311 74.9099 56.7704 74.9099C52.0097 74.9099 48.1504 78.6618 48.1504 83.2899C48.1504 87.9181 52.0097 91.6699 56.7704 91.6699Z" fill="#F3BDCA"/>
<path d="M22.3105 91.6701C28.1536 91.6701 32.8905 87.0631 32.8905 81.3801C32.8905 75.6971 28.1536 71.0901 22.3105 71.0901C16.4673 71.0901 11.7305 75.6971 11.7305 81.3801C11.7305 87.0631 16.4673 91.6701 22.3105 91.6701Z" fill="#F3BDCA"/>
<path d="M85.68 94.0699H0C0 94.0699 34 75.6099 85.68 94.0699Z" fill="#F3BDCA"/>
<path d="M165.53 66.84C173.494 66.84 179.95 60.4287 179.95 52.52C179.95 44.6112 173.494 38.2 165.53 38.2C157.566 38.2 151.11 44.6112 151.11 52.52C151.11 60.4287 157.566 66.84 165.53 66.84Z" fill="#F3BDCA"/>
<path d="M151.11 66.8399C155.092 66.8399 158.32 63.6343 158.32 59.6799C158.32 55.7255 155.092 52.5199 151.11 52.5199C147.128 52.5199 143.9 55.7255 143.9 59.6799C143.9 63.6343 147.128 66.8399 151.11 66.8399Z" fill="#F3BDCA"/>
<path d="M179.95 66.84C184.843 66.84 188.81 62.9001 188.81 58.04C188.81 53.1799 184.843 49.24 179.95 49.24C175.057 49.24 171.09 53.1799 171.09 58.04C171.09 62.9001 175.057 66.84 179.95 66.84Z" fill="#F3BDCA"/>
<path d="M126 68.0098H205.07C205.07 68.0098 173.68 55.1098 126 68.0098Z" fill="#F3BDCA"/>
<path d="M150.27 179.72C160.216 179.72 168.28 171.93 168.28 162.32C168.28 152.71 160.216 144.92 150.27 144.92C140.323 144.92 132.26 152.71 132.26 162.32C132.26 171.93 140.323 179.72 150.27 179.72Z" fill="#F3BDCA"/>
<path d="M138.28 179.72C142.422 179.72 145.78 176.478 145.78 172.48C145.78 168.481 142.422 165.24 138.28 165.24C134.138 165.24 130.78 168.481 130.78 172.48C130.78 176.478 134.138 179.72 138.28 179.72Z" fill="#B6EFDA"/>
<path d="M168.28 179.72C173.372 179.72 177.5 175.735 177.5 170.82C177.5 165.905 173.372 161.92 168.28 161.92C163.188 161.92 159.06 165.905 159.06 170.82C159.06 175.735 163.188 179.72 168.28 179.72Z" fill="#F3BDCA"/>
<path d="M112.15 180.86H194.42C194.42 180.86 161.76 167.86 112.15 180.86Z" fill="#F3BDCA"/>
<path d="M130.35 179.76C138.369 179.76 144.87 173.483 144.87 165.74C144.87 157.997 138.369 151.72 130.35 151.72C122.331 151.72 115.83 157.997 115.83 165.74C115.83 173.483 122.331 179.76 130.35 179.76Z" fill="#B6EFDA"/>
<path d="M115.829 179.76C119.839 179.76 123.089 176.621 123.089 172.75C123.089 168.878 119.839 165.74 115.829 165.74C111.82 165.74 108.569 168.878 108.569 172.75C108.569 176.621 111.82 179.76 115.829 179.76Z" fill="#B6EFDA"/>
<path d="M144.87 179.76C149.797 179.76 153.79 175.905 153.79 171.15C153.79 166.395 149.797 162.54 144.87 162.54C139.944 162.54 135.95 166.395 135.95 171.15C135.95 175.905 139.944 179.76 144.87 179.76Z" fill="#B6EFDA"/>
<path d="M90.54 180.86H170.16C170.16 180.86 138.55 168.27 90.54 180.86Z" fill="#F3BDCA"/>
<path d="M41.5298 6.07996H11.1398C9.17923 6.07996 7.58984 7.66935 7.58984 9.62996V40.02C7.58984 41.9806 9.17923 43.57 11.1398 43.57H41.5298C43.4905 43.57 45.0798 41.9806 45.0798 40.02V9.62996C45.0798 7.66935 43.4905 6.07996 41.5298 6.07996Z" fill="#DB284E"/>
<path d="M18.7904 31.9301C21.0704 30.0401 22.8804 28.4801 24.2004 27.2701C25.4532 26.1294 26.5736 24.8514 27.5404 23.4601C28.3794 22.3322 28.8539 20.975 28.9004 19.5701C28.9483 18.7693 28.7149 17.9769 28.2404 17.3301C27.9905 17.0526 27.6802 16.8361 27.3335 16.6974C26.9867 16.5587 26.6128 16.5015 26.2404 16.5301C25.8385 16.5148 25.4389 16.5979 25.0764 16.7722C24.714 16.9465 24.3995 17.2066 24.1604 17.5301C23.6137 18.365 23.3507 19.3539 23.4104 20.3501H17.6304C17.6122 18.6001 18.0536 16.876 18.9104 15.3501C19.6586 14.0753 20.769 13.0519 22.1004 12.4101C23.4736 11.7681 24.9748 11.4466 26.4904 11.4701C29.2604 11.4701 31.3604 12.1801 32.7704 13.6001C33.4823 14.3367 34.0372 15.2102 34.4016 16.1677C34.766 17.1251 34.9323 18.1465 34.8904 19.1701C34.8747 21.7115 33.9688 24.1672 32.3304 26.1101C30.422 28.4497 28.2359 30.5485 25.8204 32.3601H35.2704V37.2301H17.7004V32.8001L18.7904 31.9301Z" fill="white"/>
<path d="M134.43 94.8248L132.763 93.8137L123.912 108.41L125.58 109.421L134.43 94.8248Z" fill="#263238"/>
<g opacity="0.1">
<path opacity="0.1" d="M60.5204 127.55C63.7051 131.974 68.472 135 73.8304 136C75.8304 136.36 77.9204 136.5 79.3804 137.85C80.4874 139.028 81.1057 140.583 81.1104 142.2C81.171 142.515 81.1613 142.84 81.0817 143.152C81.0022 143.463 80.8549 143.752 80.6504 144C80.3786 144.186 80.0691 144.309 79.744 144.361C79.419 144.413 79.0865 144.392 78.7704 144.3C74.5432 143.447 70.6935 141.281 67.7704 138.11C64.8626 134.943 62.3076 131.469 60.1504 127.75" fill="black"/>
</g>
<path d="M126.78 180.39L82.6597 180.19C81.3982 180.185 80.1501 179.931 78.9867 179.443C77.8233 178.955 76.7675 178.243 75.8797 177.346C74.9918 176.45 74.2893 175.388 73.8123 174.22C73.3353 173.052 73.0932 171.802 73.0997 170.54L73.5697 59.94C73.575 58.678 73.8287 57.4293 74.3165 56.2654C74.8043 55.1015 75.5166 54.045 76.4127 53.1564C77.3088 52.2677 78.3711 51.5642 79.5391 51.0861C80.707 50.6081 81.9577 50.3647 83.2197 50.37L127.34 50.57C129.886 50.5858 132.322 51.6105 134.114 53.4194C135.906 55.2282 136.908 57.6737 136.9 60.22L136.43 170.83C136.425 172.092 136.171 173.34 135.683 174.503C135.195 175.666 134.482 176.722 133.586 177.61C132.69 178.498 131.628 179.2 130.46 179.677C129.292 180.154 128.041 180.397 126.78 180.39Z" fill="#455A64"/>
<path d="M127.27 54.3901H118.72C118.157 54.4006 117.621 54.6338 117.229 55.0386C116.838 55.4434 116.622 55.9869 116.63 56.5501V58.1101C116.636 58.6726 116.42 59.2145 116.028 59.6188C115.637 60.023 115.103 60.257 114.54 60.2701L97.8704 60.1901C97.5906 60.1823 97.3152 60.1195 97.0597 60.0052C96.8042 59.8909 96.5738 59.7274 96.3816 59.5241C96.1893 59.3207 96.0391 59.0814 95.9393 58.8199C95.8396 58.5584 95.7924 58.2799 95.8004 58.0001V56.4201C95.8138 55.8568 95.6036 55.3112 95.2156 54.9026C94.8276 54.494 94.2936 54.2558 93.7304 54.2401H90.7304H83.2504C82.3658 54.2348 81.4888 54.404 80.6696 54.738C79.8504 55.072 79.1051 55.5642 78.4763 56.1865C77.8475 56.8088 77.3476 57.5489 77.0051 58.3646C76.6626 59.1803 76.4843 60.0555 76.4804 60.9401L76.0304 168.94C76.0251 169.824 76.1944 170.701 76.5285 171.519C76.8626 172.338 77.355 173.083 77.9774 173.711C78.5998 174.339 79.34 174.838 80.1556 175.179C80.9713 175.52 81.8462 175.697 82.7304 175.7L126.73 175.91C128.517 175.915 130.233 175.212 131.502 173.954C132.771 172.696 133.49 170.987 133.5 169.2L134 61.1501C134.004 60.2638 133.833 59.3854 133.497 58.5654C133.16 57.7454 132.665 57 132.04 56.3719C131.415 55.7438 130.671 55.2453 129.853 54.9053C129.034 54.5652 128.157 54.3901 127.27 54.3901Z" fill="#FAFAFA"/>
<g opacity="0.3">
<path opacity="0.3" d="M84.9998 63H80.4799C80.4427 63 80.4071 62.9852 80.3809 62.959C80.3546 62.9327 80.3398 62.8971 80.3398 62.86C80.3398 62.8228 80.3546 62.7872 80.3809 62.761C80.4071 62.7347 80.4427 62.72 80.4799 62.72H84.9998C85.037 62.72 85.0726 62.7347 85.0988 62.761C85.1251 62.7872 85.1398 62.8228 85.1398 62.86C85.1398 62.8971 85.1251 62.9327 85.0988 62.959C85.0726 62.9852 85.037 63 84.9998 63Z" fill="black"/>
</g>
<g opacity="0.3">
<path opacity="0.3" d="M84.9998 64.23H80.4799C80.4427 64.23 80.4071 64.2152 80.3809 64.1889C80.3546 64.1627 80.3398 64.1271 80.3398 64.09C80.3398 64.0528 80.3546 64.0172 80.3809 63.991C80.4071 63.9647 80.4427 63.95 80.4799 63.95H84.9998C85.037 63.95 85.0726 63.9647 85.0988 63.991C85.1251 64.0172 85.1398 64.0528 85.1398 64.09C85.1398 64.1271 85.1251 64.1627 85.0988 64.1889C85.0726 64.2152 85.037 64.23 84.9998 64.23Z" fill="black"/>
</g>
<g opacity="0.3">
<path opacity="0.3" d="M84.9998 65.4701H80.4799C80.4427 65.4701 80.4071 65.4553 80.3809 65.4291C80.3546 65.4028 80.3398 65.3672 80.3398 65.3301C80.3398 65.2929 80.3546 65.2573 80.3809 65.2311C80.4071 65.2048 80.4427 65.1901 80.4799 65.1901H84.9998C85.037 65.1901 85.0726 65.2048 85.0988 65.2311C85.1251 65.2573 85.1398 65.2929 85.1398 65.3301C85.1398 65.3672 85.1251 65.4028 85.0988 65.4291C85.0726 65.4553 85.037 65.4701 84.9998 65.4701Z" fill="black"/>
</g>
<g opacity="0.3">
<path opacity="0.3" d="M117.53 168.64H92.4701C92.4329 168.64 92.3973 168.625 92.3711 168.599C92.3448 168.573 92.3301 168.537 92.3301 168.5C92.3301 168.463 92.3448 168.427 92.3711 168.401C92.3973 168.375 92.4329 168.36 92.4701 168.36H117.53C117.567 168.36 117.603 168.375 117.629 168.401C117.655 168.427 117.67 168.463 117.67 168.5C117.67 168.537 117.655 168.573 117.629 168.599C117.603 168.625 117.567 168.64 117.53 168.64Z" fill="black"/>
</g>
<g opacity="0.3">
<path opacity="0.3" d="M117.53 171H92.4701C92.4522 171.001 92.4342 170.999 92.4173 170.993C92.4003 170.987 92.3848 170.978 92.3716 170.966C92.3585 170.953 92.348 170.939 92.3408 170.922C92.3337 170.906 92.33 170.888 92.3301 170.87C92.3301 170.833 92.3448 170.797 92.3711 170.771C92.3973 170.745 92.4329 170.73 92.4701 170.73H117.53C117.567 170.73 117.603 170.745 117.629 170.771C117.655 170.797 117.67 170.833 117.67 170.87C117.67 170.888 117.666 170.906 117.659 170.922C117.652 170.939 117.642 170.953 117.629 170.966C117.615 170.978 117.6 170.987 117.583 170.993C117.566 170.999 117.548 171.001 117.53 171Z" fill="black"/>
</g>
<g opacity="0.3">
<path opacity="0.3" d="M125.83 64.64H123.3L122.54 62.37H122C121.982 62.3714 121.964 62.369 121.948 62.3631C121.931 62.3572 121.915 62.3478 121.902 62.3356C121.889 62.3234 121.878 62.3086 121.871 62.2921C121.864 62.2757 121.86 62.2579 121.86 62.24C121.86 62.2028 121.875 62.1672 121.901 62.141C121.928 62.1147 121.963 62.1 122 62.1H122.79L123.55 64.37H125.67L126.1 62.88H123.47C123.433 62.88 123.398 62.8652 123.371 62.839C123.345 62.8127 123.33 62.7771 123.33 62.74C123.33 62.722 123.334 62.7043 123.341 62.6878C123.348 62.6713 123.359 62.6565 123.372 62.6443C123.385 62.6321 123.401 62.6228 123.418 62.6168C123.434 62.6109 123.452 62.6086 123.47 62.61H126.47L125.83 64.64Z" fill="black"/>
<path opacity="0.3" d="M125.59 65.1799H123.5L123.27 64.5499C123.264 64.5335 123.261 64.5161 123.262 64.4985C123.262 64.481 123.267 64.4637 123.274 64.4478C123.282 64.4319 123.292 64.4177 123.305 64.4061C123.318 64.3944 123.334 64.3855 123.35 64.3799C123.385 64.3669 123.423 64.3679 123.457 64.3829C123.491 64.3979 123.517 64.4256 123.53 64.4599L123.69 64.8999H125.59C125.628 64.8999 125.663 64.9147 125.689 64.9409C125.716 64.9672 125.73 65.0028 125.73 65.0399C125.73 65.0771 125.716 65.1127 125.689 65.1389C125.663 65.1652 125.628 65.1799 125.59 65.1799Z" fill="black"/>
<path opacity="0.3" d="M124 66.0799C123.923 66.0799 123.848 66.0571 123.784 66.0142C123.72 65.9713 123.67 65.9104 123.64 65.8392C123.611 65.7679 123.603 65.6895 123.618 65.6138C123.633 65.5382 123.67 65.4687 123.725 65.4142C123.779 65.3596 123.849 65.3225 123.924 65.3074C124 65.2924 124.078 65.3001 124.15 65.3296C124.221 65.3591 124.282 65.4091 124.325 65.4733C124.367 65.5374 124.39 65.6128 124.39 65.6899C124.39 65.7934 124.349 65.8926 124.276 65.9657C124.203 66.0388 124.104 66.0799 124 66.0799ZM124 65.5699C123.985 65.5699 123.969 65.573 123.954 65.5791C123.94 65.5851 123.927 65.5939 123.915 65.6051C123.904 65.6162 123.896 65.6294 123.889 65.644C123.883 65.6586 123.88 65.6742 123.88 65.6899C123.88 65.7057 123.883 65.7213 123.889 65.7358C123.896 65.7504 123.904 65.7636 123.915 65.7748C123.927 65.7859 123.94 65.7948 123.954 65.8008C123.969 65.8068 123.985 65.8099 124 65.8099C124.032 65.8099 124.063 65.7973 124.085 65.7748C124.108 65.7523 124.12 65.7218 124.12 65.6899C124.12 65.6581 124.108 65.6276 124.085 65.6051C124.063 65.5826 124.032 65.5699 124 65.5699Z" fill="black"/>
<path opacity="0.3" d="M125.221 66.0799C125.144 66.078 125.07 66.0534 125.007 66.0094C124.944 65.9654 124.896 65.9038 124.868 65.8324C124.84 65.761 124.833 65.6829 124.85 65.6079C124.866 65.5329 124.904 65.4644 124.959 65.4108C125.013 65.3573 125.083 65.3211 125.158 65.3068C125.234 65.2926 125.312 65.3009 125.382 65.3307C125.453 65.3605 125.513 65.4104 125.556 65.4743C125.598 65.5382 125.621 65.6132 125.621 65.6899C125.621 65.742 125.61 65.7935 125.59 65.8415C125.57 65.8895 125.54 65.9329 125.503 65.9693C125.466 66.0056 125.422 66.0342 125.373 66.0532C125.325 66.0722 125.273 66.0813 125.221 66.0799ZM125.221 65.5699C125.189 65.5699 125.158 65.5826 125.136 65.6051C125.113 65.6276 125.101 65.6581 125.101 65.6899C125.101 65.7218 125.113 65.7523 125.136 65.7748C125.158 65.7973 125.189 65.8099 125.221 65.8099C125.253 65.8099 125.283 65.7973 125.306 65.7748C125.328 65.7523 125.341 65.7218 125.341 65.6899C125.341 65.6581 125.328 65.6276 125.306 65.6051C125.283 65.5826 125.253 65.5699 125.221 65.5699Z" fill="black"/>
</g>
<path d="M123.379 83.1541L86.859 82.9629C85.4397 82.9555 84.283 84.1001 84.2756 85.5194L84.0774 123.369C84.07 124.788 85.2146 125.945 86.6339 125.952L123.153 126.144C124.573 126.151 125.729 125.006 125.737 123.587L125.935 85.7376C125.942 84.3182 124.798 83.1616 123.379 83.1541Z" fill="#DB284E"/>
<path d="M112.52 111.7L97.1501 111.62L92.6101 97.82H89.0001C88.7919 97.7973 88.5993 97.6985 88.4594 97.5426C88.3196 97.3866 88.2422 97.1845 88.2422 96.975C88.2422 96.7655 88.3196 96.5634 88.4594 96.4074C88.5993 96.2515 88.7919 96.1527 89.0001 96.13H93.8001L98.3701 110L111.26 110.06L113.91 101.06L97.9101 100.97C97.6874 100.97 97.4737 100.882 97.3162 100.724C97.1586 100.566 97.0701 100.353 97.0701 100.13C97.0701 99.9072 97.1586 99.6936 97.3162 99.536C97.4737 99.3785 97.6874 99.29 97.9101 99.29L116.13 99.38L112.52 111.7Z" fill="white"/>
<path d="M111 115L98.3197 114.93L96.9997 111.07C96.9241 110.859 96.9354 110.627 97.0311 110.424C97.1267 110.222 97.2989 110.066 97.5097 109.99C97.7206 109.914 97.9528 109.926 98.1554 110.021C98.3579 110.117 98.5141 110.289 98.5897 110.5L99.5897 113.21L111.1 113.27C111.308 113.293 111.501 113.391 111.64 113.547C111.78 113.703 111.858 113.905 111.858 114.115C111.858 114.324 111.78 114.527 111.64 114.683C111.501 114.838 111.308 114.937 111.1 114.96L111 115Z" fill="white"/>
<path d="M101.1 120.37C100.627 120.368 100.165 120.226 99.7725 119.961C99.3804 119.696 99.0756 119.321 98.8969 118.883C98.7181 118.445 98.6734 117.964 98.7684 117.5C98.8634 117.037 99.0938 116.612 99.4304 116.28C99.767 115.947 100.195 115.722 100.659 115.633C101.124 115.544 101.605 115.595 102.04 115.779C102.476 115.963 102.848 116.272 103.107 116.668C103.367 117.063 103.504 117.527 103.5 118C103.498 118.313 103.435 118.624 103.314 118.912C103.192 119.201 103.015 119.463 102.792 119.684C102.569 119.904 102.305 120.078 102.014 120.196C101.724 120.313 101.413 120.373 101.1 120.37ZM101.1 117.29C101.008 117.289 100.917 117.306 100.833 117.34C100.748 117.374 100.67 117.424 100.605 117.489C100.54 117.553 100.488 117.629 100.453 117.714C100.418 117.798 100.4 117.889 100.4 117.98C100.398 118.072 100.415 118.163 100.449 118.249C100.483 118.334 100.533 118.412 100.598 118.478C100.662 118.544 100.738 118.597 100.823 118.633C100.907 118.669 100.998 118.689 101.09 118.69C101.182 118.691 101.275 118.674 101.361 118.64C101.447 118.605 101.525 118.554 101.591 118.489C101.657 118.423 101.71 118.346 101.745 118.26C101.781 118.175 101.8 118.083 101.8 117.99C101.8 117.808 101.729 117.633 101.602 117.502C101.475 117.371 101.302 117.295 101.12 117.29H101.1Z" fill="white"/>
<path d="M108.8 120.41C108.327 120.408 107.865 120.266 107.473 120.001C107.081 119.736 106.776 119.361 106.597 118.923C106.418 118.485 106.374 118.004 106.469 117.54C106.564 117.077 106.794 116.652 107.131 116.32C107.467 115.987 107.895 115.762 108.36 115.673C108.824 115.584 109.305 115.635 109.741 115.819C110.176 116.003 110.548 116.313 110.807 116.708C111.067 117.103 111.204 117.567 111.2 118.04C111.195 118.672 110.939 119.277 110.489 119.721C110.039 120.165 109.432 120.413 108.8 120.41ZM108.8 117.33C108.708 117.329 108.618 117.346 108.533 117.38C108.448 117.414 108.371 117.464 108.305 117.529C108.24 117.593 108.189 117.669 108.153 117.754C108.118 117.838 108.1 117.929 108.1 118.02C108.098 118.159 108.137 118.295 108.213 118.412C108.289 118.528 108.397 118.619 108.525 118.674C108.653 118.728 108.794 118.744 108.93 118.718C109.067 118.692 109.192 118.626 109.291 118.529C109.39 118.431 109.458 118.306 109.486 118.17C109.513 118.034 109.5 117.893 109.447 117.765C109.395 117.636 109.305 117.526 109.19 117.449C109.074 117.371 108.939 117.33 108.8 117.33Z" fill="white"/>
<path d="M121 98.08C120.994 99.1381 120.674 100.171 120.081 101.047C119.489 101.924 118.649 102.605 117.669 103.004C116.69 103.404 115.613 103.503 114.577 103.291C113.54 103.079 112.59 102.564 111.846 101.812C111.102 101.059 110.597 100.103 110.397 99.0643C110.196 98.0253 110.308 96.9502 110.719 95.975C111.129 94.9997 111.819 94.168 112.702 93.585C113.586 93.0021 114.622 92.6941 115.68 92.7C116.382 92.704 117.077 92.8462 117.725 93.1187C118.372 93.3912 118.96 93.7886 119.454 94.2882C119.948 94.7878 120.339 95.3798 120.604 96.0304C120.869 96.681 121.004 97.3775 121 98.08Z" fill="white" stroke="#DB284E" stroke-miterlimit="10"/>
<path d="M113.33 97.96L114.76 99.5L117.96 96.6" stroke="#DB284E" stroke-linecap="round" stroke-linejoin="round"/>
<path d="M123.78 137.62H86.2197C83.4583 137.62 81.2197 139.859 81.2197 142.62C81.2197 145.381 83.4583 147.62 86.2197 147.62H123.78C126.541 147.62 128.78 145.381 128.78 142.62C128.78 139.859 126.541 137.62 123.78 137.62Z" fill="#DB284E"/>
<path d="M90.5499 144.47C90.3336 144.389 90.1459 144.247 90.0099 144.06C89.8714 143.872 89.7977 143.644 89.7999 143.41H90.7999C90.8103 143.534 90.8633 143.651 90.9498 143.74C91.0448 143.819 91.1666 143.859 91.2899 143.85C91.4067 143.857 91.5225 143.825 91.6199 143.76C91.6589 143.727 91.6899 143.686 91.7107 143.639C91.7315 143.592 91.7415 143.541 91.7399 143.49C91.7423 143.445 91.7345 143.4 91.7172 143.359C91.6999 143.317 91.6735 143.28 91.6399 143.25C91.5729 143.186 91.495 143.136 91.4099 143.1C91.2752 143.059 91.1383 143.026 90.9999 143C90.7907 142.936 90.5868 142.855 90.3898 142.76C90.225 142.686 90.0833 142.568 89.9799 142.42C89.8627 142.246 89.8032 142.04 89.8098 141.83C89.8007 141.667 89.8314 141.505 89.8994 141.357C89.9673 141.208 90.0705 141.079 90.1998 140.98C90.4883 140.766 90.841 140.657 91.1998 140.67C91.5585 140.658 91.9107 140.767 92.1999 140.98C92.3288 141.081 92.4335 141.21 92.5061 141.357C92.5788 141.505 92.6177 141.666 92.6199 141.83H91.6199C91.6167 141.775 91.6028 141.721 91.5787 141.671C91.5547 141.621 91.5211 141.577 91.4799 141.54C91.3866 141.465 91.2695 141.426 91.1499 141.43C91.0519 141.426 90.9558 141.458 90.8798 141.52C90.8416 141.551 90.8115 141.591 90.7924 141.636C90.7732 141.682 90.7654 141.731 90.7698 141.78C90.7687 141.842 90.785 141.903 90.8168 141.956C90.8486 142.009 90.8947 142.052 90.9498 142.08C91.1253 142.172 91.3096 142.245 91.4999 142.3C91.7085 142.37 91.9122 142.453 92.1099 142.55C92.2719 142.629 92.4125 142.745 92.5199 142.89C92.6395 143.055 92.6994 143.256 92.6899 143.46C92.6986 143.673 92.639 143.883 92.5199 144.06C92.4014 144.248 92.2312 144.397 92.0299 144.49C91.7934 144.605 91.5324 144.66 91.2698 144.65C91.0201 144.64 90.7751 144.578 90.5499 144.47Z" fill="white"/>
<path d="M96.6798 140.69V144.57H95.6798V143H94.2598V144.6H93.2598V140.72H94.2598V142.24H95.7298V140.72L96.6798 140.69Z" fill="white"/>
<path d="M98.1902 144.36C97.8934 144.189 97.6455 143.944 97.4702 143.65C97.294 143.346 97.2009 143.001 97.2002 142.65C97.1979 142.298 97.2913 141.953 97.4702 141.65C97.6413 141.352 97.8902 141.107 98.1902 140.94C98.4959 140.769 98.8402 140.68 99.1902 140.68C99.5406 140.677 99.8854 140.767 100.19 140.94C100.495 141.101 100.745 141.348 100.91 141.65C101.089 141.953 101.183 142.298 101.18 142.65C101.18 143.001 101.086 143.346 100.91 143.65C100.735 143.944 100.487 144.189 100.19 144.36C99.8845 144.529 99.5397 144.615 99.1902 144.61C98.8408 144.615 98.496 144.529 98.1902 144.36ZM99.9402 143.44C100.135 143.212 100.235 142.919 100.22 142.62C100.237 142.32 100.137 142.026 99.9402 141.8C99.8483 141.696 99.734 141.614 99.6058 141.56C99.4777 141.506 99.339 141.482 99.2002 141.49C99.0612 141.485 98.9227 141.509 98.7936 141.561C98.6645 141.612 98.5475 141.69 98.4502 141.79C98.2539 142.02 98.1536 142.318 98.1702 142.62C98.1531 142.919 98.2536 143.214 98.4502 143.44C98.5478 143.538 98.6639 143.616 98.7918 143.669C98.9196 143.723 99.0567 143.75 99.1952 143.75C99.3337 143.75 99.4709 143.723 99.5987 143.669C99.7266 143.616 99.8426 143.538 99.9402 143.44Z" fill="white"/>
<path d="M104.52 142.56C104.404 142.751 104.238 142.906 104.04 143.01C103.794 143.129 103.523 143.187 103.25 143.18H102.66V144.57H101.66V140.69H103.2C103.469 140.68 103.737 140.735 103.98 140.85C104.185 140.939 104.354 141.094 104.46 141.29C104.572 141.488 104.627 141.713 104.62 141.94C104.637 142.152 104.603 142.364 104.52 142.56ZM103.58 142.3C103.625 142.252 103.66 142.195 103.683 142.133C103.705 142.072 103.714 142.006 103.71 141.94C103.716 141.874 103.708 141.808 103.685 141.745C103.663 141.683 103.627 141.627 103.58 141.58C103.524 141.532 103.458 141.496 103.388 141.474C103.318 141.452 103.244 141.444 103.17 141.45H102.66V142.45H103.17C103.321 142.452 103.467 142.399 103.58 142.3Z" fill="white"/>
<path d="M109.82 144.57H108.87L107.29 142.18V144.57H106.29V140.69H107.29L108.87 143.1V140.69H109.82V144.57Z" fill="white"/>
<path d="M111.34 144.36C111.037 144.194 110.784 143.948 110.61 143.65C110.434 143.346 110.341 143.001 110.34 142.65C110.338 142.298 110.431 141.953 110.61 141.65C110.782 141.35 111.035 141.104 111.34 140.94C111.645 140.767 111.99 140.677 112.34 140.68C112.69 140.68 113.034 140.769 113.34 140.94C113.64 141.107 113.889 141.352 114.06 141.65C114.233 141.955 114.322 142.3 114.32 142.65C114.319 143.001 114.226 143.346 114.05 143.65C113.882 143.95 113.632 144.196 113.33 144.36C113.024 144.529 112.679 144.615 112.33 144.61C111.984 144.614 111.643 144.527 111.34 144.36ZM113.09 143.44C113.278 143.209 113.374 142.917 113.36 142.62C113.376 142.322 113.279 142.03 113.09 141.8C112.993 141.699 112.877 141.619 112.748 141.565C112.619 141.512 112.48 141.486 112.34 141.49C112.201 141.485 112.062 141.509 111.933 141.561C111.804 141.612 111.687 141.69 111.59 141.79C111.394 142.02 111.293 142.318 111.31 142.62C111.293 142.919 111.393 143.214 111.59 143.44C111.688 143.538 111.805 143.617 111.934 143.67C112.063 143.723 112.201 143.751 112.34 143.751C112.479 143.751 112.617 143.723 112.746 143.67C112.875 143.617 112.991 143.538 113.09 143.44Z" fill="white"/>
<path d="M120.2 140.69L119.2 144.57H118L117.38 142.02L116.74 144.57H115.6L114.6 140.69H115.6L116.16 143.52L116.85 140.69H117.85L118.51 143.52L119.07 140.69H120.2Z" fill="white"/>
<path d="M146.26 128.67C145.579 130.689 145.541 132.869 146.15 134.91C146.53 136.15 147.15 137.4 146.96 138.68C146.8 139.68 146.12 140.68 145.96 141.68C145.68 143.82 147.72 145.84 147.17 147.93C147.024 148.405 146.773 148.842 146.436 149.207C146.098 149.572 145.683 149.857 145.22 150.04C144.292 150.401 143.289 150.524 142.3 150.4C141.565 150.398 140.842 150.215 140.194 149.866C139.547 149.517 138.996 149.013 138.59 148.4C138.165 147.305 138.102 146.103 138.41 144.97C139.23 139.88 140.18 134.75 142.25 130.03" fill="#263238"/>
<path d="M126.83 177.14L126 180.32L117.45 180.24C117.45 180.24 118.08 178.75 122.75 178.82L123.1 177.14H126.83Z" fill="#F2AA91"/>
<path d="M158 129.45C157.92 129.61 155.75 140.77 155.75 140.77L160.86 141.01L162.86 131.41L158 129.45Z" fill="#455A64"/>
<path d="M155.71 140.77L155.12 140.52L157.33 129.53L158.03 129.48L155.71 140.77Z" fill="#263238"/>
<path d="M160 131.89C159.995 131.924 159.996 131.96 160.005 131.993C160.014 132.027 160.03 132.059 160.051 132.086C160.073 132.113 160.1 132.136 160.131 132.152C160.162 132.168 160.196 132.178 160.23 132.18C160.265 132.184 160.299 132.181 160.332 132.172C160.365 132.162 160.396 132.146 160.423 132.125C160.45 132.104 160.472 132.077 160.489 132.047C160.506 132.017 160.516 131.984 160.52 131.95C160.524 131.916 160.521 131.881 160.512 131.848C160.503 131.815 160.487 131.784 160.465 131.757C160.444 131.73 160.418 131.708 160.388 131.691C160.358 131.674 160.325 131.664 160.29 131.66C160.256 131.654 160.221 131.656 160.187 131.665C160.153 131.673 160.122 131.689 160.094 131.711C160.067 131.732 160.045 131.76 160.028 131.79C160.012 131.821 160.003 131.855 160 131.89Z" fill="#263238"/>
<path d="M161.07 139.72L161.15 138.26L158.96 137.36L159.81 135.36C159.909 135.137 160.053 134.936 160.233 134.772C160.413 134.607 160.625 134.481 160.856 134.402C161.087 134.323 161.332 134.293 161.575 134.313C161.819 134.333 162.055 134.404 162.27 134.52L163.15 135C163.457 135.17 163.726 135.401 163.94 135.68C164.153 135.959 164.306 136.279 164.39 136.62C164.62 137.797 164.79 138.985 164.9 140.18" fill="#F2AA91"/>
<path d="M166.92 176.91C166.92 176.91 174.08 178.96 174.46 179C176.56 179.24 176.73 181.7 175.88 181.67C175.48 181.67 168.98 181.91 168.15 181.86C167.022 181.624 165.918 181.289 164.85 180.86L166.92 176.91Z" fill="#AC1D3E"/>
<path d="M157.38 174.42L153.2 177.16C150.85 178.71 148.73 180.1 148.56 180.23C148.11 180.57 148.63 182.23 149.42 181.94C149.8 181.8 156.52 180.28 157.29 179.94C158.443 179.22 159.53 178.4 160.54 177.49L157.38 174.42Z" fill="#AC1D3E"/>
<path d="M156.38 177.65C156.383 177.3 156.25 176.964 156.01 176.71C155.813 176.424 155.511 176.226 155.17 176.16C155.718 176.519 156.141 177.04 156.38 177.65Z" fill="#263238"/>
<path d="M155.88 176.59C155.88 176.59 155.78 176.35 155.68 175.96C155.627 175.726 155.594 175.489 155.58 175.25C155.58 175.12 155.58 174.98 155.58 174.83C155.567 174.771 155.567 174.709 155.58 174.65C155.58 174.65 155.64 174.6 155.7 174.65C155.76 174.7 155.84 174.86 155.89 174.99C155.931 175.12 155.958 175.254 155.97 175.39C156.001 175.626 156.001 175.864 155.97 176.1C155.919 176.317 155.882 176.538 155.86 176.76C155.967 176.56 156.042 176.344 156.08 176.12C156.112 175.874 156.112 175.626 156.08 175.38C156.067 175.231 156.04 175.084 156 174.94C156 174.87 155.95 174.8 155.92 174.72C155.882 174.633 155.815 174.563 155.73 174.52C155.679 174.493 155.62 174.487 155.565 174.502C155.509 174.516 155.461 174.552 155.43 174.6C155.38 174.673 155.355 174.761 155.36 174.85C155.35 174.996 155.35 175.143 155.36 175.29C155.372 175.535 155.416 175.777 155.49 176.01C155.569 176.233 155.703 176.432 155.88 176.59Z" fill="#263238"/>
<path d="M155.86 176.5C155.86 176.5 156.07 176.42 156.41 176.34C156.61 176.29 156.815 176.263 157.02 176.26C157.136 176.239 157.255 176.239 157.37 176.26C157.423 176.262 157.472 176.284 157.509 176.321C157.546 176.358 157.568 176.408 157.57 176.46C157.572 176.513 157.56 176.566 157.536 176.613C157.511 176.661 157.475 176.701 157.43 176.73C157.334 176.79 157.224 176.824 157.11 176.83C156.912 176.852 156.71 176.832 156.52 176.77C156.338 176.702 156.151 176.648 155.96 176.61C156.12 176.727 156.3 176.816 156.49 176.87C156.694 176.948 156.912 176.982 157.13 176.97C157.265 176.963 157.396 176.921 157.51 176.85C157.58 176.808 157.636 176.747 157.673 176.675C157.71 176.602 157.727 176.521 157.72 176.44C157.711 176.359 157.676 176.283 157.62 176.224C157.564 176.164 157.491 176.125 157.41 176.11C157.281 176.09 157.15 176.09 157.02 176.11C156.802 176.119 156.587 176.16 156.38 176.23C156.188 176.277 156.01 176.37 155.86 176.5Z" fill="#263238"/>
<path d="M137 141.23L144 141.89L146.84 142.69C148.048 143.035 149.154 143.67 150.06 144.54L159.2 153.31L160.87 139.69L165.43 140.09L164.67 157.62C164.333 158.679 163.666 159.603 162.767 160.256C161.867 160.909 160.782 161.258 159.67 161.25C158.299 161.237 156.984 160.696 156 159.74L149.49 153.63L149.3 162.37L153.81 166.03L136.41 175.73C136.41 175.73 135.47 172.02 135.9 163.73C135.97 162.22 133.2 157.62 132.99 156.27C132.464 152.025 132.233 147.748 132.3 143.47L137 141.23Z" fill="#DB284E"/>
<path d="M132.68 143.35C132.68 143.35 129.15 144.66 128.3 147.42C127.54 149.88 125.02 163.66 125.02 163.66L122.51 178.26L127.76 178.46L133.76 153.59L132.68 143.35Z" fill="#DB284E"/>
<path d="M167.94 176.8C167.94 176.8 147.08 163.12 146.22 162.8C145.36 162.48 143.3 161.16 141.22 161.73C140.058 162.129 139.01 162.804 138.167 163.698C137.324 164.591 136.71 165.677 136.38 166.86C135.45 169.57 135.38 175.62 135.38 175.62C135.38 175.62 137.02 180.39 140.22 181.39C140.496 181.473 140.776 181.54 141.06 181.59C142.981 181.946 144.964 181.723 146.757 180.948C148.551 180.174 150.073 178.883 151.13 177.24L151.6 176.53C151.6 176.53 165.25 181.53 165.46 181.47L167.94 176.8Z" fill="#3F3F3F"/>
<path d="M175.06 160.84C175.814 161.141 176.461 161.661 176.917 162.333C177.373 163.005 177.618 163.798 177.62 164.61C177.62 170.09 166.55 176.14 166.55 176.14L152.43 166.79L153.78 166.03C153.78 166.03 170.79 158.49 175.06 160.84Z" fill="#515151"/>
<g opacity="0.3">
<path opacity="0.3" d="M151.62 176.7H151.57L147.23 175C147.211 174.995 147.194 174.986 147.178 174.973C147.163 174.961 147.151 174.946 147.142 174.928C147.133 174.911 147.128 174.892 147.127 174.872C147.126 174.852 147.129 174.833 147.136 174.815C147.143 174.796 147.154 174.78 147.168 174.766C147.182 174.752 147.198 174.741 147.217 174.734C147.235 174.727 147.254 174.724 147.274 174.725C147.294 174.726 147.313 174.731 147.33 174.74L151.67 176.44C151.704 176.453 151.732 176.48 151.747 176.513C151.762 176.547 151.763 176.585 151.75 176.62C151.739 176.644 151.72 176.665 151.697 176.679C151.674 176.693 151.647 176.701 151.62 176.7Z" fill="black"/>
</g>
<g opacity="0.3">
<path opacity="0.3" d="M168 163.79L168.51 162.45C168.525 162.417 168.552 162.391 168.585 162.376C168.618 162.362 168.655 162.359 168.69 162.37C168.724 162.383 168.752 162.41 168.767 162.444C168.782 162.477 168.783 162.516 168.77 162.55L168.44 163.43L169.73 163.2C169.767 163.196 169.804 163.205 169.835 163.225C169.866 163.245 169.889 163.275 169.9 163.31C169.903 163.328 169.902 163.347 169.897 163.365C169.893 163.383 169.885 163.4 169.874 163.415C169.862 163.43 169.848 163.443 169.832 163.452C169.816 163.461 169.798 163.468 169.78 163.47L168 163.79Z" fill="black"/>
</g>
<g opacity="0.3">
<path opacity="0.3" d="M159.15 171.2C159.115 171.213 159.076 171.213 159.04 171.2C159.027 171.187 159.016 171.171 159.009 171.154C159.002 171.137 158.998 171.119 158.998 171.1C158.998 171.081 159.002 171.063 159.009 171.046C159.016 171.029 159.027 171.013 159.04 171L168.1 163.55C168.113 163.537 168.129 163.526 168.146 163.519C168.163 163.512 168.181 163.508 168.2 163.508C168.219 163.508 168.237 163.512 168.254 163.519C168.271 163.526 168.287 163.537 168.3 163.55C168.313 163.562 168.323 163.577 168.331 163.593C168.338 163.61 168.341 163.627 168.341 163.645C168.341 163.663 168.338 163.681 168.331 163.697C168.323 163.713 168.313 163.728 168.3 163.74L159.24 171.19C159.213 171.205 159.18 171.209 159.15 171.2Z" fill="black"/>
</g>
<path d="M133.11 130.52C132.905 130.321 132.661 130.166 132.394 130.064C132.127 129.962 131.842 129.916 131.557 129.928C131.271 129.94 130.991 130.01 130.734 130.135C130.476 130.259 130.247 130.434 130.06 130.65C129.655 131.188 129.409 131.829 129.35 132.5C129.298 133.179 129.17 133.85 128.97 134.5C128.866 134.82 128.683 135.109 128.439 135.339C128.194 135.57 127.895 135.735 127.57 135.82C127.07 135.92 126.48 135.76 126.1 136.1C125.961 136.262 125.877 136.463 125.861 136.675C125.845 136.888 125.897 137.099 126.01 137.28C126.259 137.63 126.607 137.898 127.01 138.05C127.17 138.12 127.36 138.22 127.36 138.39C127.36 138.56 127.08 138.7 126.87 138.78C126.723 138.86 126.595 138.968 126.492 139.1C126.39 139.231 126.315 139.382 126.273 139.543C126.231 139.704 126.222 139.872 126.247 140.037C126.272 140.201 126.331 140.359 126.42 140.5C126.611 140.776 126.869 141 127.169 141.15C127.47 141.301 127.804 141.373 128.14 141.36C128.828 141.336 129.507 141.183 130.14 140.91C130.021 141.049 129.955 141.227 129.955 141.41C129.955 141.593 130.021 141.771 130.14 141.91C130.255 142.045 130.403 142.148 130.569 142.211C130.735 142.274 130.914 142.294 131.09 142.27C131.435 142.207 131.752 142.039 132 141.79C132.486 141.299 132.802 140.664 132.9 139.98C133.002 139.319 133.042 138.649 133.02 137.98C133.031 135.534 133.208 133.092 133.55 130.67" fill="#263238"/>
<path d="M133.8 143.45L140.2 146.97C140.2 146.97 140 142.76 139.89 141.51C139.741 140.851 139.641 140.183 139.59 139.51C139.59 139.51 141.46 141.04 142.08 140.76C142.7 140.48 146.08 134.76 144.76 130.11C143.44 125.46 140.21 125.62 140.21 125.62C140.21 125.62 134.1 124.7 133.72 133.52L133.8 143.45Z" fill="#F2AA91"/>
<path d="M135.69 143C135.69 142.36 136.38 139.56 136.69 137.85C137 136.14 135.86 135.85 135.69 134.85C135.599 134.165 135.714 133.469 136.02 132.85C137.66 133.44 138.31 132.27 139.2 131.58C140.011 130.851 140.556 129.873 140.75 128.8C141.14 127.67 141.6 126.96 142.75 126.8C143.417 127.354 143.93 128.07 144.24 128.88C144.601 130.529 144.858 132.199 145.01 133.88C145.17 131.88 146.79 131.05 146.35 128.11C146.245 127.347 145.918 126.632 145.409 126.054C144.901 125.476 144.233 125.061 143.49 124.86C143.02 124.79 142.13 124.73 142.13 124.73C141.443 124.148 140.638 123.722 139.77 123.48C137.77 122.59 135.36 124.17 134.04 125.91C133.064 127.358 132.447 129.017 132.24 130.75C132.062 131.932 132.038 133.132 132.17 134.32C132.24 134.71 132.211 135.111 132.085 135.487C131.959 135.863 131.741 136.201 131.45 136.47C130.45 137.24 130.19 138.72 130.88 140.68C131.57 142.64 129 146 129 146C129.705 145.426 130.457 144.914 131.25 144.47C132.702 143.9 134.184 143.409 135.69 143Z" fill="#263238"/>
<path d="M131.94 132C131.855 131.849 131.8 131.684 131.78 131.512C131.759 131.34 131.773 131.166 131.82 131C131.869 130.651 132.052 130.336 132.33 130.12C132.199 130.417 132.086 130.72 131.99 131.03C131.953 131.352 131.937 131.676 131.94 132Z" fill="#FAFAFA"/>
<path d="M133 141.6C132.778 143.267 133.131 144.96 134 146.4C134.292 146.921 134.699 147.369 135.19 147.71C135.438 147.874 135.719 147.98 136.013 148.022C136.307 148.063 136.607 148.039 136.89 147.95C137.17 147.848 137.409 147.657 137.57 147.405C137.731 147.154 137.805 146.857 137.78 146.56C137.64 145.73 136.62 145.21 136.61 144.36C136.98 144.59 137.49 144.8 137.81 144.52C137.91 144.411 137.976 144.275 137.999 144.13C138.022 143.984 138.002 143.834 137.94 143.7C137.807 143.436 137.635 143.193 137.43 142.98C137.056 142.497 136.783 141.943 136.629 141.352C136.474 140.761 136.44 140.144 136.53 139.54C136.53 139.2 136.67 138.17 136.67 137.83C136.67 137.49 136.58 137.83 136.33 137.6C136.196 137.499 136.04 137.431 135.875 137.402C135.71 137.372 135.541 137.382 135.38 137.43C135.06 137.533 134.771 137.715 134.54 137.96C134.15 138.342 133.844 138.802 133.644 139.311C133.444 139.819 133.354 140.364 133.38 140.91" fill="#263238"/>
<g opacity="0.3">
<path opacity="0.3" d="M132.16 160.48C132.124 160.471 132.092 160.448 132.072 160.416C132.052 160.385 132.044 160.347 132.05 160.31L133.62 153.87C133.621 153.85 133.627 153.83 133.636 153.812C133.646 153.795 133.659 153.779 133.675 153.767C133.692 153.755 133.71 153.746 133.73 153.742C133.75 153.738 133.77 153.738 133.79 153.742C133.81 153.746 133.828 153.755 133.844 153.767C133.861 153.78 133.874 153.795 133.883 153.813C133.893 153.831 133.898 153.851 133.899 153.871C133.901 153.891 133.897 153.911 133.89 153.93L132.32 160.38C132.316 160.397 132.309 160.414 132.299 160.428C132.289 160.443 132.276 160.455 132.261 160.464C132.246 160.474 132.23 160.48 132.212 160.483C132.195 160.485 132.177 160.484 132.16 160.48Z" fill="black"/>
</g>
<g opacity="0.3">
<path opacity="0.3" d="M134.14 148.19C134.111 148.189 134.083 148.179 134.059 148.161C134.036 148.143 134.019 148.118 134.01 148.09C133.825 147.294 133.361 146.589 132.703 146.104C132.045 145.618 131.236 145.383 130.42 145.44C130.385 145.443 130.349 145.432 130.322 145.41C130.294 145.387 130.275 145.355 130.27 145.32C130.265 145.284 130.273 145.248 130.293 145.218C130.314 145.188 130.345 145.167 130.38 145.16C131.258 145.105 132.128 145.359 132.838 145.878C133.548 146.396 134.055 147.147 134.27 148C134.278 148.017 134.283 148.035 134.283 148.054C134.283 148.073 134.279 148.091 134.272 148.108C134.264 148.125 134.253 148.141 134.239 148.153C134.225 148.165 134.208 148.174 134.19 148.18L134.14 148.19Z" fill="black"/>
</g>
<g opacity="0.3">
<path opacity="0.3" d="M158.92 155.22C158.902 155.219 158.885 155.214 158.869 155.206C158.853 155.197 158.839 155.186 158.827 155.172C158.816 155.157 158.808 155.141 158.803 155.124C158.799 155.106 158.798 155.088 158.8 155.07L159.02 153.29C159.02 153.253 159.035 153.217 159.061 153.191C159.088 153.165 159.123 153.15 159.16 153.15C159.198 153.15 159.233 153.165 159.259 153.191C159.286 153.217 159.3 153.253 159.3 153.29L159.07 155.06C159.074 155.081 159.072 155.102 159.066 155.122C159.059 155.142 159.048 155.161 159.034 155.176C159.02 155.192 159.002 155.204 158.982 155.211C158.963 155.219 158.941 155.222 158.92 155.22Z" fill="black"/>
</g>
<g opacity="0.3">
<path opacity="0.3" d="M149.46 153.77C149.443 153.768 149.426 153.762 149.411 153.753C149.397 153.744 149.384 153.732 149.373 153.718C149.363 153.704 149.356 153.688 149.352 153.671C149.348 153.655 149.347 153.637 149.35 153.62C149.577 151.759 149.357 149.87 148.71 148.11C148.701 148.077 148.705 148.041 148.72 148.01C148.736 147.979 148.762 147.955 148.795 147.943C148.827 147.93 148.863 147.93 148.895 147.943C148.928 147.955 148.954 147.979 148.97 148.01C149.641 149.813 149.864 151.752 149.62 153.66C149.613 153.695 149.592 153.727 149.562 153.747C149.532 153.768 149.496 153.776 149.46 153.77Z" fill="black"/>
</g>
<path d="M57.79 180.11C63.8652 180.11 68.79 174.916 68.79 168.51C68.79 162.103 63.8652 156.91 57.79 156.91C51.7149 156.91 46.79 162.103 46.79 168.51C46.79 174.916 51.7149 180.11 57.79 180.11Z" fill="#F3BDCA"/>
<path d="M68.5296 180.1C71.5285 180.1 73.9596 177.938 73.9596 175.27C73.9596 172.603 71.5285 170.44 68.5296 170.44C65.5307 170.44 63.0996 172.603 63.0996 175.27C63.0996 177.938 65.5307 180.1 68.5296 180.1Z" fill="#B6EFDA"/>
<path d="M46.7904 180.1C50.4796 180.1 53.4704 177.445 53.4704 174.17C53.4704 170.895 50.4796 168.24 46.7904 168.24C43.1011 168.24 40.1104 170.895 40.1104 174.17C40.1104 177.445 43.1011 180.1 46.7904 180.1Z" fill="#F3BDCA"/>
<path d="M87.4596 180.86H27.8496C27.8496 180.86 51.5196 172.19 87.4596 180.86Z" fill="#F3BDCA"/>
<path d="M70.4302 179.66C76.2402 179.66 80.9502 175.474 80.9502 170.31C80.9502 165.146 76.2402 160.96 70.4302 160.96C64.6201 160.96 59.9102 165.146 59.9102 170.31C59.9102 175.474 64.6201 179.66 70.4302 179.66Z" fill="#F3BDCA"/>
<path d="M80.9504 179.65C83.8554 179.65 86.2104 177.559 86.2104 174.98C86.2104 172.401 83.8554 170.31 80.9504 170.31C78.0454 170.31 75.6904 172.401 75.6904 174.98C75.6904 177.559 78.0454 179.65 80.9504 179.65Z" fill="#F3BDCA"/>
<path d="M59.9102 179.65C63.478 179.65 66.3702 177.08 66.3702 173.91C66.3702 170.74 63.478 168.17 59.9102 168.17C56.3424 168.17 53.4502 170.74 53.4502 173.91C53.4502 177.08 56.3424 179.65 59.9102 179.65Z" fill="#F3BDCA"/>
<path d="M98.67 180.65H41C41 180.65 63.88 172.27 98.67 180.65Z" fill="#F3BDCA"/>
</g>
</g>
<defs>
<clipPath id="clip0_9844_210868">
<rect width="210" height="210" fill="white"/>
</clipPath>
<clipPath id="clip1_9844_210868">
<rect width="210" height="210" fill="white" transform="translate(0 -1)"/>
</clipPath>
</defs>
</svg>
