<svg width="210" height="210" viewBox="0 0 210 210" fill="none" xmlns="http://www.w3.org/2000/svg">
<g clip-path="url(#clip0_7712_172)">
<path d="M164.11 181.49C179.217 169.485 190.253 153.112 195.715 134.605C201.177 116.098 200.798 96.3564 194.63 78.0724C188.462 59.7884 176.806 43.8515 161.249 32.4346C145.693 21.0177 126.994 14.6763 107.702 14.2751C88.4095 13.8738 69.4631 19.4322 53.4454 30.1924C37.4277 40.9527 25.1184 56.3911 18.1956 74.4028C11.2728 92.4146 10.0734 112.123 14.761 130.841C19.4486 149.56 29.7951 166.377 44.3897 179" fill="#FCEFF2"/>
<path d="M105 179.08C125.269 179.08 141.7 163.271 141.7 143.77C141.7 124.269 125.269 108.46 105 108.46C84.731 108.46 68.2998 124.269 68.2998 143.77C68.2998 163.271 84.731 179.08 105 179.08Z" fill="#EB92A7"/>
<path d="M141.7 179.08C151.834 179.08 160.05 171.173 160.05 161.42C160.05 151.667 151.834 143.76 141.7 143.76C131.565 143.76 123.35 151.667 123.35 161.42C123.35 171.173 131.565 179.08 141.7 179.08Z" fill="#A0E8CB"/>
<path d="M68.2998 179.08C80.7483 179.08 90.8398 169.369 90.8398 157.39C90.8398 145.411 80.7483 135.7 68.2998 135.7C55.8513 135.7 45.7598 145.411 45.7598 157.39C45.7598 169.369 55.8513 179.08 68.2998 179.08Z" fill="#EB92A7"/>
<path d="M205.62 181.83H4.37988C4.37988 181.83 84.2599 150.15 205.62 181.83Z" fill="#EB92A7"/>
<path d="M38.56 180.62C45.6127 180.62 51.33 174.594 51.33 167.16C51.33 159.726 45.6127 153.7 38.56 153.7C31.5074 153.7 25.79 159.726 25.79 167.16C25.79 174.594 31.5074 180.62 38.56 180.62Z" fill="#F3BDCA"/>
<path d="M51.0297 180.62C54.5146 180.62 57.3397 178.113 57.3397 175.02C57.3397 171.927 54.5146 169.42 51.0297 169.42C47.5448 169.42 44.7197 171.927 44.7197 175.02C44.7197 178.113 47.5448 180.62 51.0297 180.62Z" fill="#B6EFDA"/>
<path d="M25.79 180.63C30.0702 180.63 33.54 177.545 33.54 173.74C33.54 169.935 30.0702 166.85 25.79 166.85C21.5098 166.85 18.04 169.935 18.04 173.74C18.04 177.545 21.5098 180.63 25.79 180.63Z" fill="#F3BDCA"/>
<path d="M72.9996 181.5H3.80957C3.80957 181.5 31.2796 171.44 72.9996 181.5Z" fill="#F3BDCA"/>
<path d="M53.2295 180.1C59.9729 180.1 65.4395 175.242 65.4395 169.25C65.4395 163.258 59.9729 158.4 53.2295 158.4C46.4861 158.4 41.0195 163.258 41.0195 169.25C41.0195 175.242 46.4861 180.1 53.2295 180.1Z" fill="#B6EFDA"/>
<path d="M65.4401 180.1C68.8145 180.1 71.5501 177.673 71.5501 174.68C71.5501 171.687 68.8145 169.26 65.4401 169.26C62.0656 169.26 59.3301 171.687 59.3301 174.68C59.3301 177.673 62.0656 180.1 65.4401 180.1Z" fill="#B6EFDA"/>
<path d="M41.0195 180.1C45.1617 180.1 48.5195 177.118 48.5195 173.44C48.5195 169.762 45.1617 166.78 41.0195 166.78C36.8774 166.78 33.5195 169.762 33.5195 173.44C33.5195 177.118 36.8774 180.1 41.0195 180.1Z" fill="#B6EFDA"/>
<path d="M86 181.27H19C19 181.27 45.63 171.53 86 181.27Z" fill="#B6EFDA"/>
<path d="M39.5396 92.6698C49.0554 92.6698 56.7696 85.1661 56.7696 75.9098C56.7696 66.6535 49.0554 59.1498 39.5396 59.1498C30.0237 59.1498 22.3096 66.6535 22.3096 75.9098C22.3096 85.1661 30.0237 92.6698 39.5396 92.6698Z" fill="#F3BDCA"/>
<path d="M56.7704 92.6699C61.5311 92.6699 65.3904 88.9181 65.3904 84.2899C65.3904 79.6618 61.5311 75.9099 56.7704 75.9099C52.0097 75.9099 48.1504 79.6618 48.1504 84.2899C48.1504 88.9181 52.0097 92.6699 56.7704 92.6699Z" fill="#F3BDCA"/>
<path d="M22.3095 92.6701C28.1527 92.6701 32.8895 88.0631 32.8895 82.3801C32.8895 76.6971 28.1527 72.0901 22.3095 72.0901C16.4663 72.0901 11.7295 76.6971 11.7295 82.3801C11.7295 88.0631 16.4663 92.6701 22.3095 92.6701Z" fill="#F3BDCA"/>
<path d="M85.68 95.0702H0C0 95.0702 34 76.6102 85.68 95.0702Z" fill="#F3BDCA"/>
<path d="M170.46 56.76C178.424 56.76 184.88 51.0248 184.88 43.95C184.88 36.8752 178.424 31.14 170.46 31.14C162.496 31.14 156.04 36.8752 156.04 43.95C156.04 51.0248 162.496 56.76 170.46 56.76Z" fill="#F3BDCA"/>
<path d="M156.04 56.75C160.022 56.75 163.25 53.8846 163.25 50.35C163.25 46.8153 160.022 43.95 156.04 43.95C152.058 43.95 148.83 46.8153 148.83 50.35C148.83 53.8846 152.058 56.75 156.04 56.75Z" fill="#F3BDCA"/>
<path d="M184.88 56.7602C189.773 56.7602 193.74 53.2367 193.74 48.8902C193.74 44.5437 189.773 41.0202 184.88 41.0202C179.986 41.0202 176.02 44.5437 176.02 48.8902C176.02 53.2367 179.986 56.7602 184.88 56.7602Z" fill="#F3BDCA"/>
<path d="M130.93 57.7499H210C210 57.7499 178.61 46.2599 130.93 57.7499Z" fill="#F3BDCA"/>
<path d="M146.07 180.9C152.212 180.9 157.19 176.092 157.19 170.16C157.19 164.229 152.212 159.42 146.07 159.42C139.929 159.42 134.95 164.229 134.95 170.16C134.95 176.092 139.929 180.9 146.07 180.9Z" fill="#B6EFDA"/>
<path d="M153.47 180.9C156.027 180.9 158.1 178.899 158.1 176.43C158.1 173.961 156.027 171.96 153.47 171.96C150.913 171.96 148.84 173.961 148.84 176.43C148.84 178.899 150.913 180.9 153.47 180.9Z" fill="#B6EFDA"/>
<path d="M134.95 180.9C138.092 180.9 140.64 178.442 140.64 175.41C140.64 172.378 138.092 169.92 134.95 169.92C131.807 169.92 129.26 172.378 129.26 175.41C129.26 178.442 131.807 180.9 134.95 180.9Z" fill="#B6EFDA"/>
<path d="M184.71 181.86H115.33C115.33 181.86 142.87 170.89 184.71 181.86Z" fill="#B6EFDA"/>
<path d="M170.19 180.76C178.209 180.76 184.71 174.483 184.71 166.74C184.71 158.997 178.209 152.72 170.19 152.72C162.171 152.72 155.67 158.997 155.67 166.74C155.67 174.483 162.171 180.76 170.19 180.76Z" fill="#F3BDCA"/>
<path d="M155.67 180.76C159.68 180.76 162.93 177.621 162.93 173.75C162.93 169.878 159.68 166.74 155.67 166.74C151.661 166.74 148.41 169.878 148.41 173.75C148.41 177.621 151.661 180.76 155.67 180.76Z" fill="#B6EFDA"/>
<path d="M184.71 180.76C189.636 180.76 193.63 176.905 193.63 172.15C193.63 167.395 189.636 163.54 184.71 163.54C179.784 163.54 175.79 167.395 175.79 172.15C175.79 176.905 179.784 180.76 184.71 180.76Z" fill="#F3BDCA"/>
<path d="M130.38 181.86H210C210 181.86 178.4 169.27 130.38 181.86Z" fill="#F3BDCA"/>
<path d="M41.5298 7.08008H11.1398C9.17923 7.08008 7.58984 8.66947 7.58984 10.6301V41.0201C7.58984 42.9807 9.17923 44.5701 11.1398 44.5701H41.5298C43.4905 44.5701 45.0798 42.9807 45.0798 41.0201V10.6301C45.0798 8.66947 43.4905 7.08008 41.5298 7.08008Z" fill="#DB284E"/>
<path d="M20 14.48C21.7679 13.0628 23.9979 12.3504 26.26 12.48C27.8097 12.4367 29.3488 12.748 30.76 13.39C31.9118 13.9074 32.8862 14.752 33.5618 15.8188C34.2374 16.8856 34.5846 18.1275 34.56 19.39C34.6174 20.6329 34.2744 21.8614 33.5813 22.8947C32.8882 23.9281 31.8817 24.7116 30.71 25.13V25.27C32.0172 25.6555 33.1543 26.4745 33.934 27.5923C34.7137 28.7101 35.0897 30.0601 35 31.42C35.0252 32.7643 34.6792 34.0896 34 35.25C33.3036 36.3838 32.2926 37.2906 31.09 37.86C29.6781 38.5406 28.1271 38.883 26.56 38.86C24.1518 38.9861 21.7773 38.2525 19.86 36.79C18.1933 35.4167 17.31 33.34 17.21 30.56H23C22.9766 31.452 23.2909 32.3198 23.88 32.99C24.2018 33.3043 24.5865 33.5469 25.0087 33.702C25.4309 33.8571 25.8812 33.9212 26.33 33.89C26.7188 33.9124 27.108 33.8538 27.473 33.7178C27.8379 33.5818 28.1706 33.3714 28.45 33.1C28.7109 32.8184 28.9134 32.4877 29.0456 32.1272C29.1777 31.7667 29.237 31.3836 29.22 31C29.2583 30.5364 29.1806 30.0706 28.9938 29.6446C28.807 29.2186 28.517 28.8458 28.15 28.56C27.1128 27.9775 25.9258 27.7164 24.74 27.81H23.62V22.92H24.74C25.7402 22.9606 26.7344 22.7473 27.63 22.3C28.002 22.0792 28.3032 21.7567 28.498 21.3705C28.6929 20.9843 28.7734 20.5504 28.73 20.12C28.7651 19.7646 28.7215 19.4058 28.6022 19.0691C28.4829 18.7324 28.2909 18.4262 28.0398 18.1722C27.7886 17.9183 27.4846 17.7228 27.1493 17.5997C26.8141 17.4765 26.4558 17.4289 26.1 17.46C25.7272 17.4275 25.3521 17.483 25.0047 17.6219C24.6573 17.7608 24.3474 17.9794 24.1 18.26C23.6476 18.833 23.3822 19.5312 23.34 20.26H17.53C17.5107 19.1769 17.7209 18.1019 18.1466 17.1057C18.5723 16.1096 19.2039 15.2147 20 14.48Z" fill="white"/>
<path d="M105.001 192.58C150.719 192.58 187.781 191.953 187.781 191.18C187.781 190.407 150.719 189.78 105.001 189.78C59.2826 189.78 22.2207 190.407 22.2207 191.18C22.2207 191.953 59.2826 192.58 105.001 192.58Z" fill="#E8E8E8"/>
<path d="M44.46 144.67L75.69 139.79L104.42 144.67L134.09 139.16L165.54 144.67L184.71 191.18L142.97 181.75L105.01 191.18L66.81 182.81L25.29 191.18L44.46 144.67Z" fill="#DB284E"/>
<path d="M99.3605 163.59C98.3305 163.825 97.3258 164.16 96.3605 164.59C95.8405 164.79 95.6405 164.82 95.6305 164.26C95.6305 163.18 95.1505 162.93 93.8205 163.18C93.4705 163.25 93.2505 163.31 93.1905 162.91C93.1305 162.51 91.7805 162.52 91.4605 162.7C91.1405 162.88 90.5705 163.33 89.9705 162.98C89.7305 162.83 89.4505 162.98 89.2205 163.16C88.7005 163.55 88.4705 163.56 88.5105 162.92C88.5505 162.28 87.9905 161.83 87.0505 162.27C86.1105 162.71 85.4805 161.87 84.6205 162.16H84.5605C84.3727 161.304 84.3021 160.425 84.3505 159.55C84.5105 158.68 84.4805 158.46 83.4405 158.66C83.2605 158.66 82.9805 158.66 83.0405 158.59C83.4105 157.87 82.5705 157.59 82.4405 157.06C82.4134 156.971 82.4093 156.877 82.4285 156.786C82.4478 156.695 82.4897 156.61 82.5505 156.54C82.8205 156.21 82.7705 155.95 82.4505 155.66C81.9605 155.21 82.4505 153.79 83.1705 153.12C83.2805 153.02 83.4305 152.94 83.5205 152.84C83.6105 152.74 83.7405 152.44 84.0705 152.46C84.4005 152.48 84.2805 152.72 84.3405 152.85C84.6505 153.57 85.5205 153.85 86.1205 154.41C86.19 154.44 86.2649 154.455 86.3405 154.455C86.4161 154.455 86.491 154.44 86.5605 154.41C87.387 154.132 88.2644 154.04 89.1305 154.14C89.3596 154.156 89.5892 154.118 89.8011 154.03C90.0129 153.941 90.2011 153.804 90.3505 153.63C90.6307 153.378 90.9735 153.206 91.3429 153.132C91.7124 153.058 92.095 153.085 92.4505 153.21C92.76 153.458 93.1363 153.609 93.5316 153.643C93.9269 153.677 94.3233 153.592 94.6705 153.4C94.8289 153.368 94.9921 153.368 95.1505 153.4C95.5354 153.455 95.9267 153.359 96.242 153.131C96.5573 152.904 96.7719 152.563 96.8405 152.18C97.0105 151.6 97.3607 151.088 97.8405 150.72C98.1386 150.601 98.3902 150.388 98.5578 150.114C98.7253 149.84 98.8 149.52 98.7705 149.2C98.8505 148.56 99.2405 148.09 100.191 148.2C101.141 148.31 102.47 147.89 103.43 148.6C103.62 148.74 104.001 148.45 104.301 148.6C103.561 148.69 104.67 149.77 103.24 149.48C103.38 149.77 104.63 150.24 102.79 150.08C103.931 150.52 104.02 151.28 104.67 151.72C104.697 151.758 104.711 151.804 104.711 151.85C104.711 151.896 104.697 151.942 104.67 151.98C103.76 152.61 104.671 152.82 105.121 153.13C105.623 153.375 106.102 153.666 106.551 154C106.671 154.12 107.06 154.12 106.92 154.36C106.847 154.457 106.749 154.533 106.636 154.58C106.524 154.627 106.401 154.645 106.28 154.63C106.054 154.645 105.827 154.645 105.6 154.63C105 154.54 104.351 154.42 103.941 154.86C103.651 155.115 103.442 155.447 103.337 155.818C103.232 156.189 103.237 156.582 103.35 156.95C103.58 157.51 103.521 157.71 102.79 157.95C102.176 158.276 101.585 158.643 101.02 159.05C100.813 159.161 100.657 159.348 100.586 159.573C100.515 159.797 100.534 160.04 100.64 160.25C101.2 161.2 100.3 161.74 99.7905 162.4C99.7405 162.78 99.2105 163.1 99.3605 163.59Z" fill="#F3BDCA"/>
<path d="M65.1507 152.9C65.4907 152.99 65.7307 153.21 66.2307 153.07C66.4407 153.07 66.9007 153.15 66.8907 153.22C66.7507 153.93 67.8307 153.77 67.9807 154.07C68.3647 154.671 68.8728 155.182 69.4707 155.57C69.5407 155.63 69.5407 155.75 69.5507 155.85C69.6207 156.29 68.6307 156.28 68.8207 156.45C69.0107 156.62 69.1607 156.81 68.7007 157.02C67.9707 157.34 68.2207 157.59 68.5907 157.83C68.7074 157.926 68.8501 157.986 69.0007 158C70.2907 157.92 70.5307 158.46 70.5807 159.39C70.5853 159.612 70.6384 159.829 70.736 160.028C70.8337 160.227 70.9736 160.402 71.146 160.541C71.3184 160.68 71.5192 160.78 71.7342 160.833C71.9492 160.887 72.1732 160.892 72.3907 160.85C72.5278 160.827 72.6685 160.855 72.7864 160.929C72.9042 161.003 72.9911 161.117 73.0307 161.25C73.1507 161.54 73.1307 162.01 73.6807 162.11C73.7607 162.11 73.8307 162.38 73.7607 162.47C72.4407 164.15 72.9107 166.01 72.0707 167.81C71.9707 168.03 72.0107 168.34 71.6707 168.45C71.3307 168.56 71.3007 168.19 71.1107 168.08C70.9207 167.97 70.6507 167.38 70.3107 168.16C70.2307 168.34 70.0207 168.32 69.8507 168.25C69.6807 168.18 69.5307 168.11 69.4907 168.14C68.1707 169.21 67.9507 168.07 67.6607 167.65C66.8107 166.4 65.0807 165.91 64.2407 164.76C63.4007 163.61 62.3407 163.03 61.8507 161.9C61.6507 161.42 60.8507 161.21 60.9807 160.64C61.0201 160.11 60.9309 159.578 60.7207 159.09C60.3544 158.055 59.9029 157.051 59.3707 156.09C59.3707 156.09 59.3207 155.99 59.2707 155.98C57.6407 155.64 58.1307 154.35 58.1007 153.42C58.0707 152.49 57.3007 152.16 56.4707 151.85C56.1107 151.72 55.9607 151.6 55.9707 151.28C55.9722 150.864 55.8567 150.456 55.6375 150.102C55.4182 149.749 55.104 149.464 54.7307 149.28C54.0183 148.844 53.3486 148.342 52.7307 147.78C52.5641 147.658 52.4266 147.501 52.328 147.319C52.2295 147.137 52.1723 146.936 52.1607 146.73C52.1607 146.46 52.0207 146.17 52.4807 145.94C52.6552 145.83 52.8593 145.777 53.0652 145.788C53.271 145.799 53.4685 145.873 53.6307 146C54.2807 146.88 55.8607 146.33 56.9207 146.57C57.1607 146.63 57.4507 146.57 57.6207 146.76C58.0892 147.18 58.4349 147.719 58.6207 148.32C58.7007 148.68 59.1807 148.97 59.6207 149.16C60.8808 149.629 61.9286 150.539 62.5707 151.72C62.6707 151.91 62.8807 152.35 63.4207 151.8C63.4765 151.742 63.5496 151.704 63.629 151.691C63.7083 151.679 63.7897 151.692 63.8607 151.73C64.2795 152.021 64.7812 152.168 65.2907 152.15C65.7107 152.15 65.5407 152.49 65.2207 152.71C65.0607 152.71 64.8807 152.62 64.7307 152.8C64.7307 152.8 64.7307 152.89 64.7807 152.91C64.8307 152.93 65.0007 153 65.1507 152.9Z" fill="#F3BDCA"/>
<path d="M135.66 157.74C136.45 157.57 137.12 157.61 137.55 158.49C137.55 157.78 138.28 157.74 138.74 157.49C140.09 156.63 141.44 156.72 143.09 157.49C143.219 157.511 143.351 157.511 143.48 157.49C143.973 157.454 144.46 157.615 144.835 157.937C145.21 158.26 145.442 158.717 145.48 159.21C145.51 159.618 145.574 160.023 145.67 160.42C145.699 160.567 145.767 160.704 145.867 160.815C145.968 160.926 146.097 161.007 146.24 161.05C147.33 161.14 147.55 161.9 148.05 162.45C148.278 162.676 148.569 162.829 148.884 162.888C149.2 162.947 149.526 162.909 149.82 162.78C150.415 162.278 150.896 161.654 151.23 160.95C151.276 160.812 151.367 160.692 151.488 160.611C151.61 160.529 151.754 160.49 151.9 160.5C152.43 160.45 153.46 160.71 153.02 159.72C152.87 159.41 154.48 158.98 155.02 159.14C156.32 159.55 157.64 159.9 158.94 160.39C159.841 160.667 160.77 160.839 161.71 160.9C163.12 161.1 163.42 161.31 163.85 162.38C164.66 164.43 165.57 166.54 166.32 168.7C166.74 169.92 167.26 171.14 167.8 172.38C168.34 173.62 168.8 174.95 169.4 176.38C168.226 175.79 167.108 175.094 166.06 174.3C165.634 174.034 165.148 173.879 164.647 173.849C164.145 173.819 163.645 173.916 163.19 174.13C162.444 174.499 161.608 174.648 160.78 174.56C159.13 174.56 159.13 174.56 159.44 173.27C159.473 173.066 159.548 172.871 159.659 172.696C159.771 172.522 159.916 172.372 160.088 172.256C160.259 172.14 160.452 172.06 160.656 172.021C160.859 171.982 161.068 171.985 161.27 172.03C162.08 172.1 161.04 171.53 161.42 171.51C160.42 170.9 160.24 169.94 159.52 169.18C158.314 167.777 156.686 166.802 154.88 166.4C153.09 166.02 151.33 165.47 149.54 165.14C148.142 164.759 146.785 164.24 145.49 163.59C144.92 163.35 144.73 163.44 144.76 163.81C144.76 164.47 144.25 164.65 143.66 164.49C143.07 164.33 143 163.96 143.02 163.4C143.04 162.84 142.02 162.4 141.22 162.04C140.99 161.95 140.58 162.13 140.55 161.78C140.52 161.43 140.9 161.44 141.22 161.49C141.98 161.59 142.65 161.68 143.03 161.05C143.24 160.69 143.92 161.05 144.37 161.05C144.82 161.05 144.92 161.05 144.9 160.78C144.88 160.51 144.57 160.52 144.28 160.49C143.28 160.4 142.42 160.66 141.4 160.49C140.67 160.4 140.14 160.21 139.9 159.73C139.763 159.462 139.545 159.244 139.279 159.104C139.012 158.964 138.709 158.911 138.41 158.95C137.996 159.001 137.575 158.934 137.197 158.757C136.819 158.58 136.497 158.301 136.27 157.95C136.15 157.9 135.74 158.05 135.66 157.74Z" fill="#F3BDCA"/>
<path d="M117.311 165.25C116.941 165.25 116.561 165.25 116.181 165.33C115.801 165.41 115.321 165.42 115.341 165.7C115.411 166.53 114.741 166.21 114.341 166.15C113.671 166.06 113.631 165.58 113.791 165.15C113.951 164.72 113.791 164.46 113.251 164.15C112.511 163.76 111.571 163.31 112.371 162.36C112.42 162.285 112.452 162.2 112.463 162.111C112.474 162.022 112.465 161.932 112.436 161.847C112.407 161.762 112.359 161.685 112.296 161.622C112.233 161.558 112.156 161.51 112.071 161.48C111.561 161.27 111.181 161.57 110.801 161.79C110.421 162.01 110.361 162.22 110.661 162.55C110.797 162.719 110.888 162.919 110.925 163.133C110.962 163.346 110.943 163.566 110.871 163.77C110.751 164.13 110.751 164.52 110.871 164.88C111.261 165.73 110.321 166.56 110.951 167.42C110.951 167.42 110.951 167.55 110.951 167.6C110.284 167.902 109.551 168.029 108.821 167.97C108.69 167.938 108.568 167.872 108.468 167.781C108.368 167.689 108.293 167.574 108.249 167.445C108.205 167.317 108.194 167.18 108.217 167.046C108.241 166.912 108.297 166.786 108.381 166.68C108.623 166.155 108.749 165.583 108.749 165.005C108.749 164.427 108.623 163.855 108.381 163.33C108.271 163 107.821 163.13 107.581 163.21C106.881 163.47 106.661 163.11 106.691 162.68C106.721 162.25 106.381 161.56 107.181 161.02C107.447 160.833 107.652 160.573 107.771 160.271C107.89 159.968 107.918 159.638 107.851 159.32C107.621 158.62 108.101 158.08 108.581 157.59C108.717 157.478 108.821 157.332 108.883 157.167C108.944 157.002 108.961 156.824 108.931 156.65C108.894 156.308 108.932 155.961 109.043 155.635C109.153 155.308 109.334 155.01 109.571 154.76C109.721 154.56 109.901 154.04 110.571 154.42C110.911 154.61 111.191 154.13 111.211 154.01C111.431 153.01 112.431 153.48 112.811 153.68C113.265 153.858 113.745 153.959 114.231 153.98C115.661 154.28 117.131 154.19 118.581 154.37C118.919 154.395 119.258 154.34 119.571 154.21C119.883 154.08 120.161 153.878 120.381 153.62C120.641 153.38 121.061 153.26 121.221 152.93C121.381 152.6 121.681 152.75 121.941 152.93C122.201 153.11 122.151 153.18 121.941 153.44C121.571 153.99 120.941 154.37 120.561 154.94C120.181 155.51 118.091 155.71 117.341 155.33C117.002 155.157 116.622 155.077 116.241 155.1C114.871 155.17 113.481 155.02 112.121 155.22C111.959 155.24 111.794 155.24 111.631 155.22C110.351 155.05 110.081 155.14 109.731 155.96C109.632 156.128 109.573 156.317 109.56 156.512C109.547 156.707 109.58 156.902 109.656 157.081C109.732 157.261 109.848 157.421 109.997 157.547C110.146 157.674 110.322 157.764 110.511 157.81C110.75 157.929 110.943 158.122 111.061 158.36C111.143 158.465 111.245 158.553 111.361 158.618C111.477 158.683 111.605 158.724 111.738 158.739C111.87 158.754 112.004 158.742 112.131 158.704C112.259 158.667 112.378 158.604 112.481 158.52C112.911 158.04 113.141 157.52 114.251 157.8C115.007 157.786 115.752 157.619 116.441 157.31C116.851 157.107 117.323 157.068 117.761 157.2C118.151 157.36 118.191 157.58 118.071 157.86C117.951 158.14 117.731 158.12 117.461 157.95C117.191 157.78 116.771 157.78 116.661 157.95C116.091 158.89 114.851 159.2 113.911 159.81C113.491 160.07 113.551 160.12 113.911 160.43C114.618 161.035 115.286 161.682 115.911 162.37C115.93 162.404 115.939 162.442 115.939 162.48C115.939 162.519 115.93 162.556 115.911 162.59C115.231 163.59 116.451 163.91 117.051 164.44C117.311 164.66 117.131 164.86 117.221 165.06C117.235 165.13 117.266 165.195 117.311 165.25Z" fill="#F3BDCA"/>
<path d="M90.3311 171.7C90.2711 172.7 90.8211 173.1 91.9011 172.93C92.3978 172.851 92.8986 172.801 93.4011 172.78C94.1211 172.78 94.9511 172.86 94.7511 173.85L94.5411 174.2C94.3311 174.75 94.6811 175.12 95.3011 175.66C94.1033 175.42 92.9262 175.086 91.7811 174.66C91.5456 174.493 91.2586 174.415 90.9711 174.44C88.8111 174.93 86.7911 174.44 84.7411 174.23C83.2811 174.1 82.2411 173.09 80.7411 173.06C79.8754 172.921 78.9904 172.962 78.1411 173.18C77.8483 173.264 77.541 173.285 77.2393 173.242C76.9377 173.199 76.6487 173.093 76.3911 172.93C75.5077 172.529 74.5511 172.314 73.5811 172.3C73.0911 172.3 72.4811 172.4 72.8411 171.53C73.0211 171.09 72.0911 170.97 71.5511 170.83C71.2411 170.76 70.6811 171.09 70.6211 170.7C70.6211 170.46 70.9011 170.11 71.3211 170C71.4174 169.964 71.4962 169.892 71.5411 169.8C71.8411 168.56 72.6511 168.62 73.6611 168.86C74.1111 168.97 74.6611 169.33 75.2311 168.76C75.358 168.713 75.4951 168.7 75.6285 168.723C75.762 168.746 75.887 168.803 75.9911 168.89C76.4511 169.48 77.2811 169.43 77.9911 169.47C78.4411 169.47 78.7011 169.68 78.7511 169.92C78.9411 170.8 79.7511 170.86 80.5811 170.82C81.4111 170.78 82.4111 170.97 83.3311 171.02C83.572 171.072 83.8236 171.039 84.0426 170.926C84.2617 170.813 84.4344 170.627 84.5311 170.4C84.9111 169.63 85.3711 169.62 85.8311 170.19C86.0411 170.47 86.3311 170.41 86.6411 170.46C87.6411 170.65 88.7111 170.9 89.7611 171.13C89.7011 171.48 89.8811 171.68 90.3311 171.7Z" fill="#F3BDCA"/>
<path d="M128.46 156.71C128.52 156.409 128.51 156.098 128.43 155.801C128.35 155.505 128.203 155.231 128 155V154.72C127.832 154.541 127.703 154.329 127.623 154.097C127.543 153.864 127.512 153.618 127.534 153.373C127.556 153.129 127.629 152.891 127.749 152.677C127.869 152.463 128.033 152.276 128.23 152.13C128.285 152.067 128.359 152.024 128.441 152.009C128.523 151.995 128.608 152.009 128.68 152.05C128.55 152.31 128.42 152.57 128.8 152.89C128.898 152.977 128.959 153.097 128.972 153.226C128.985 153.356 128.949 153.486 128.87 153.59C128.43 154.1 129.08 153.85 129.25 153.92C129.273 153.919 129.295 153.91 129.313 153.896C129.331 153.882 129.344 153.862 129.35 153.84C129.14 153.12 129.88 153.18 130.42 153.08C130.443 153.114 130.474 153.141 130.51 153.16C130.85 153.67 130.81 154.06 130.14 154.3C129.47 154.54 129.64 154.71 130.3 154.87C130.66 154.96 130.9 155.11 130.87 155.42V155.47C130.29 155.47 129.52 155 129.17 155.38C128.82 155.76 129.27 156.38 129.6 156.81C129.66 156.9 129.72 157 129.79 157.09H129.45C129.24 156.97 129.14 156.67 128.78 156.78C128.78 156.64 128.71 156.6 128.55 156.62L128.46 156.71ZM128.81 154.42C128.81 154.42 128.75 154.32 128.71 154.31C128.67 154.3 128.62 154.31 128.57 154.31C128.52 154.31 128.63 154.39 128.67 154.41C128.71 154.43 128.76 154.43 128.81 154.42Z" fill="#F3BDCA"/>
<path d="M130.41 162.12C131.09 161.61 132.08 161.95 132.91 161.83C133.916 161.807 134.922 161.89 135.91 162.08C137.01 162.19 137.31 162.95 137.91 163.43C138 163.5 137.91 163.78 137.91 163.9C137.91 164.02 137.51 163.96 137.34 163.9C136.73 163.52 135.96 163.52 135.39 163.06C135.16 162.88 134.71 162.85 134.61 162.97C134.3 163.37 133.81 163.15 133.44 163.05C132.87 162.9 132.44 162.79 132.01 163.16C131.58 163.53 131.34 162.78 130.93 162.73C130.94 162.41 130.36 162.44 130.41 162.12Z" fill="#F3BDCA"/>
<path d="M118.32 174.71C118.02 175.3 117.38 175.43 116.74 175.54C115.74 175.7 114.74 175.82 113.74 175.97C112.74 176.12 111.74 175.52 110.74 175.66C110.186 175.78 109.608 175.709 109.1 175.46C110.76 173.77 111.74 174.11 113.49 174.71C113.961 174.805 114.439 174.858 114.92 174.87C116.22 175.11 117.31 174.59 118.51 174.51L118.32 174.71Z" fill="#F3BDCA"/>
<path d="M120.83 179.74C120.66 179.74 120.39 179.74 120.13 179.64C119.87 179.54 119.88 179.22 120.02 179.23C120.96 179.29 120.54 178.61 120.59 178.23C120.594 178.058 120.634 177.888 120.709 177.732C120.784 177.577 120.892 177.439 121.024 177.329C121.157 177.219 121.312 177.139 121.479 177.094C121.646 177.05 121.82 177.041 121.99 177.07C122.128 177.08 122.266 177.057 122.393 177.003C122.52 176.949 122.632 176.866 122.72 176.76C122.998 176.483 123.342 176.284 123.72 176.18C124.051 176.076 124.41 176.105 124.72 176.26C125.03 176.47 124.55 176.6 124.51 176.8C124.39 177.668 123.942 178.458 123.257 179.005C122.572 179.552 121.704 179.815 120.83 179.74Z" fill="#F3BDCA"/>
<path d="M75.8999 161.22C75.6399 161.6 74.8999 162.01 75.8999 162.07C75.0799 162.52 73.5399 162.07 73.5299 161.38C73.5199 160.69 73.3999 160.23 72.3499 160.38C72.2605 160.389 72.1703 160.377 72.0867 160.344C72.0032 160.31 71.9288 160.258 71.8699 160.19C71.7599 159.99 72.0499 159.93 72.2299 159.85C72.5899 159.68 72.5199 159.23 73.0799 159.15C74.0799 159 74.5899 159.15 74.5299 159.99C74.4699 160.83 74.8599 161.17 75.8999 161.22Z" fill="#F3BDCA"/>
<path d="M108.941 177C110.521 176.79 111.351 177.74 112.331 178.43C112.911 178.85 112.631 179.14 112.141 179.34C111.852 179.479 111.528 179.525 111.213 179.471C110.897 179.417 110.606 179.267 110.381 179.04C109.833 178.479 109.094 178.146 108.311 178.11C107.891 178.11 107.311 178.04 107.311 177.52C107.311 177 107.931 177.05 108.311 177.01C108.52 176.993 108.731 176.989 108.941 177Z" fill="#F3BDCA"/>
<path d="M117.31 165.25C117.306 165.214 117.306 165.177 117.31 165.14C118.37 165.36 118.41 165.44 117.94 166.24C117.894 166.295 117.862 166.359 117.846 166.429C117.831 166.499 117.833 166.571 117.851 166.64C117.87 166.709 117.905 166.772 117.954 166.825C118.002 166.877 118.063 166.916 118.13 166.94C118.45 167.13 118.51 167.41 118.13 167.46C117.61 167.54 117.65 168.46 117.13 168.06C116.75 167.8 116.03 167.57 116.06 167.06C116.09 166.55 115.89 165.76 116.93 165.69C117.21 165.66 117.42 165.57 117.31 165.25Z" fill="#F3BDCA"/>
<path d="M126.58 162.28C127.238 162.256 127.881 162.481 128.38 162.91C128.65 163.1 128.63 163.34 128.52 163.44C128.339 163.629 128.119 163.778 127.876 163.876C127.633 163.974 127.372 164.02 127.11 164.01C126.901 163.984 126.697 163.92 126.51 163.82C125.92 163.6 125.16 163.29 125.25 162.82C125.34 162.35 126.19 162.38 126.58 162.28Z" fill="#F3BDCA"/>
<path d="M102.8 174.75C103.35 173.75 104.08 173.7 105.17 174.18C105.557 174.345 105.978 174.414 106.398 174.381C106.818 174.348 107.223 174.214 107.58 173.99C107.73 174.3 107.25 174.52 107.52 174.82C108.33 175.73 107.26 175.68 106.81 175.75C106.27 175.774 105.73 175.734 105.2 175.63L105.09 175.25C104.88 174.64 104.09 174.68 103.67 174.32C103.47 174.16 103.42 174.6 103.42 174.81L102.8 174.75Z" fill="#F3BDCA"/>
<path d="M148.17 170C148.013 169.619 147.961 169.204 148.017 168.797C148.073 168.389 148.236 168.004 148.49 167.68C148.7 167.41 148.89 167.41 149.1 167.68C149.57 168.3 149.98 168.97 149.59 169.55C149.509 169.719 149.448 169.897 149.41 170.08C149.26 170.43 149.24 170.99 148.6 170.85C147.96 170.71 148.28 170.26 148.17 170Z" fill="#F3BDCA"/>
<path d="M105.091 175.25L105.201 175.63C104.188 176.039 103.119 176.292 102.031 176.38C101.371 176.45 100.661 176.38 101.141 175.46V175.08C101.651 174.85 102.051 174.23 102.751 174.75L103.361 174.81C103.546 175.081 103.824 175.276 104.143 175.357C104.461 175.438 104.798 175.4 105.091 175.25Z" fill="#F3BDCA"/>
<path d="M125.38 159.71C124.63 160.04 124.92 160.5 125.2 161C124.2 159.37 122.73 160 121.37 160.12C121.12 160.12 120.85 160.3 120.63 160.12C120.41 159.94 120.63 159.81 120.63 159.65C120.63 159.49 121.01 159.28 121.3 159.33C122.649 159.558 124.012 159.685 125.38 159.71Z" fill="#F3BDCA"/>
<path d="M94.54 174.2L94.75 173.85C95.38 173.85 95.95 174.14 96.66 173.85C96.9197 173.78 97.1958 173.801 97.4417 173.91C97.6876 174.019 97.8883 174.21 98.01 174.45C98.29 174.97 97.63 175 97.32 175.14C97.01 175.28 96.92 175.62 96.56 175.83C96.51 174.6 95.07 174.88 94.54 174.2Z" fill="#F3BDCA"/>
<path d="M101.19 175.08V175.46C101.05 175.4 100.87 175.11 100.77 175.32C100.25 176.41 99.4305 175.91 98.4805 175.75C99.2205 175.21 99.0205 174.13 100.27 174.13C101 174.14 100.89 174.75 101.19 175.08Z" fill="#F3BDCA"/>
<path d="M78.3707 162.57C77.5207 163.03 77.5407 162.31 77.6407 162C77.7407 161.69 77.9307 161.1 78.6407 161.22C79.1307 161.31 79.7107 161.39 79.5107 161.95C79.4908 162.074 79.4428 162.191 79.3703 162.293C79.2979 162.396 79.203 162.48 79.0929 162.54C78.9829 162.6 78.8605 162.634 78.7353 162.639C78.6101 162.644 78.4854 162.621 78.3707 162.57Z" fill="#F3BDCA"/>
<path d="M140.721 173.94C141.311 173.83 140.791 173.4 140.721 173.27C140.251 172.74 140.491 172.46 140.901 172.21C141.031 172.13 141.191 172.07 141.311 171.98C141.591 171.78 141.621 171.18 142.191 171.53C142.371 171.65 142.331 172.3 142.191 172.61C142.071 172.934 141.874 173.223 141.618 173.455C141.362 173.686 141.055 173.853 140.721 173.94Z" fill="#F3BDCA"/>
<path d="M136.17 156.08C136.335 156.085 136.499 156.105 136.66 156.14C137.01 156.24 137.5 156.25 137.59 156.59C137.68 156.93 137.14 156.78 136.89 156.87C136.715 156.91 136.545 156.967 136.38 157.04C135.64 157.49 135.48 156.6 134.98 156.5C134.86 156.5 134.98 156.27 135.14 156.24L136.17 156.08Z" fill="#F3BDCA"/>
<path d="M90.3305 171.7C89.8805 171.7 89.7005 171.48 89.7705 171.09C90.889 170.954 92.0139 170.877 93.1405 170.86C93.4105 170.86 93.7405 170.86 93.7905 171.04C93.8405 171.22 93.4305 171.4 93.2005 171.48C92.2668 171.737 91.2924 171.812 90.3305 171.7Z" fill="#F3BDCA"/>
<path d="M53.8408 153.38C54.3008 153.38 54.8408 152.99 54.9708 153.38C55.1008 153.77 55.9708 153.96 55.4508 154.65C55.3408 154.79 55.2908 154.96 55.0308 154.98C54.7708 155 54.8108 154.87 54.7408 154.77C54.4708 154.34 54.1808 153.9 53.8408 153.38Z" fill="#F3BDCA"/>
<path d="M56.3108 158C56.7308 158 56.8408 158 56.8808 158.19C56.9208 158.38 57.0908 158.74 57.1408 159.03C57.1908 159.32 57.4708 159.45 57.0508 159.66C56.9793 159.704 56.8996 159.732 56.8167 159.744C56.7337 159.755 56.6492 159.75 56.5686 159.727C56.4879 159.705 56.4127 159.666 56.3477 159.613C56.2827 159.56 56.2293 159.494 56.1908 159.42C56.035 159.198 55.9261 158.946 55.8708 158.68C55.8409 158.532 55.8702 158.377 55.9524 158.25C56.0346 158.123 56.1632 158.033 56.3108 158Z" fill="#F3BDCA"/>
<path d="M150.691 158.39C149.471 158.93 148.841 157.61 147.891 157.49C148.394 157.438 148.903 157.491 149.385 157.646C149.867 157.801 150.312 158.054 150.691 158.39Z" fill="#F3BDCA"/>
<path d="M129.25 157.52C129.31 157.71 129.25 157.83 128.99 157.83C128.24 157.83 127.84 157.22 127.18 157.03C127.18 157.03 127.18 156.84 127.18 156.74C127.189 156.705 127.207 156.673 127.232 156.646C127.257 156.619 127.287 156.598 127.321 156.586C127.356 156.573 127.392 156.568 127.429 156.573C127.465 156.577 127.499 156.59 127.53 156.61C127.851 156.719 128.193 156.753 128.53 156.71C128.539 156.762 128.569 156.807 128.612 156.837C128.655 156.867 128.708 156.879 128.76 156.87C128.53 157.24 128.66 157.49 129.25 157.52Z" fill="#F3BDCA"/>
<path d="M99.3607 163.59C99.2107 163.1 99.7407 162.78 99.8307 162.36C100.086 162.516 100.27 162.766 100.341 163.057C100.412 163.347 100.365 163.654 100.211 163.91C100.071 164.16 99.9407 164.43 99.6307 164.41C99.3207 164.39 99.5107 164.02 99.3907 163.83C99.2707 163.64 99.3707 163.67 99.3607 163.59Z" fill="#F3BDCA"/>
<path d="M152.22 159.64C151.736 159.829 151.218 159.91 150.7 159.879C150.182 159.848 149.677 159.705 149.22 159.46C150.2 159.11 151.26 159.62 152.22 159.64Z" fill="#F3BDCA"/>
<path d="M130.26 159.43C129.82 159.64 129.35 159.49 128.95 159.56C128.55 159.63 128.24 159.56 128.26 159.16C128.28 158.76 128.63 158.67 129.01 158.78C129.491 158.838 129.936 159.069 130.26 159.43Z" fill="#F3BDCA"/>
<path d="M118.32 174.71L118.46 174.51C119.203 174.23 120.005 174.144 120.79 174.26C120 175.31 119.86 175.34 118.32 174.71Z" fill="#F3BDCA"/>
<path d="M128.84 172.9C128.19 173.61 127.17 173.4 126.29 173.48C126.24 172.78 127.82 172.38 128.84 172.9Z" fill="#F3BDCA"/>
<path d="M130.13 151.55C130.13 151.89 130.13 152.24 129.53 152.29C129.472 152.3 129.412 152.298 129.355 152.283C129.298 152.268 129.244 152.242 129.198 152.205C129.152 152.168 129.114 152.122 129.086 152.069C129.059 152.017 129.043 151.959 129.04 151.9C129.04 151.53 129.27 151.28 129.71 151.2C130 151.16 130.08 151.37 130.13 151.55Z" fill="#F3BDCA"/>
<path d="M122.17 174.82C122.28 174.47 122.05 174.01 122.52 173.98C123.102 173.962 123.685 173.999 124.26 174.09C124.26 174.09 124.4 174.25 124.41 174.33C124.42 174.41 124.24 174.58 124.05 174.6L122.17 174.82Z" fill="#F3BDCA"/>
<path d="M72.0005 156.68C71.7505 156.68 71.2605 156.17 71.2705 156.93C71.2705 157.15 71.1205 157.28 70.8505 157.33C70.778 157.345 70.7028 157.338 70.6338 157.312C70.5647 157.285 70.5046 157.24 70.4605 157.18C70.3505 157.02 70.4605 156.89 70.6605 156.78C71.0305 156.58 71.0405 156.05 71.5105 156.04C71.6905 156 71.8105 156.45 72.0005 156.68Z" fill="#F3BDCA"/>
<path d="M134.311 159.87C134.605 159.662 134.951 159.538 135.311 159.51C135.611 159.51 135.911 159.4 136.051 159.75C136.191 160.1 135.911 160.23 135.551 160.24C135.106 160.274 134.664 160.142 134.311 159.87Z" fill="#F3BDCA"/>
<path d="M53.1401 151.5C53.0001 151.71 52.8501 151.74 52.7101 151.68C52.3474 151.508 51.9936 151.318 51.6501 151.11C51.5001 151.02 51.4101 150.87 51.7001 150.7C51.7299 150.669 51.7657 150.645 51.8052 150.628C51.8447 150.611 51.8872 150.602 51.9301 150.602C51.973 150.602 52.0155 150.611 52.055 150.628C52.0945 150.645 52.1303 150.669 52.1601 150.7L53.1401 151.5Z" fill="#F3BDCA"/>
<path d="M117.74 158.61C118.04 158.53 118.39 158.37 118.55 158.76C118.71 159.15 118.44 159.31 118.04 159.38C117.64 159.45 117.46 159.16 117.4 158.86L117.74 158.61Z" fill="#F3BDCA"/>
<path d="M82.11 148.92C82.01 149.11 81.91 149.33 81.61 149.3C81.31 149.27 81.18 148.97 81.16 148.76C81.14 148.55 81.5 148.35 81.73 148.39C81.8433 148.423 81.9423 148.494 82.0111 148.59C82.08 148.686 82.1148 148.802 82.11 148.92Z" fill="#F3BDCA"/>
<path d="M70.8799 154C71.2699 153.84 71.6399 153.67 71.9799 153.85C72.1699 153.95 72.1399 154.13 72.0799 154.31C72.0653 154.382 72.0316 154.449 71.9823 154.503C71.9331 154.558 71.8701 154.598 71.7999 154.62C71.5899 154.68 71.5899 154.52 71.4999 154.45C71.4099 154.38 71.1299 154.2 70.8799 154Z" fill="#F3BDCA"/>
<path d="M120.16 180.27C120.16 180.72 119.06 181.34 118.67 181.18C118.58 181.18 118.53 181.03 118.46 180.95L120 180L120.16 180.27Z" fill="#F3BDCA"/>
<path d="M58.6407 161.39C59.1007 161.54 59.2207 161.91 59.3907 162.26C59.3907 162.38 59.3907 162.54 59.1707 162.63C58.9507 162.72 58.8907 162.63 58.8707 162.46C58.7807 162.1 58.1806 161.9 58.6607 161.38L58.6407 161.39Z" fill="#F3BDCA"/>
<path d="M117.741 158.61L117.401 158.86C117.221 158.99 117.201 159.37 116.791 159.14C116.741 159.114 116.698 159.074 116.669 159.026C116.64 158.977 116.624 158.922 116.624 158.865C116.624 158.808 116.64 158.753 116.669 158.704C116.698 158.656 116.741 158.616 116.791 158.59C117.001 158.39 117.391 158.21 117.741 158.61Z" fill="#F3BDCA"/>
<path d="M131.21 174.15C131.95 173.7 132.47 173.82 133.29 174.41L131.21 174.15Z" fill="#F3BDCA"/>
<path d="M129.551 157.5L129.351 157.17H129.691C129.914 157.284 130.097 157.466 130.211 157.69L129.551 157.5Z" fill="#F3BDCA"/>
<path d="M65.15 152.9C65.02 153.01 64.89 153.06 64.76 152.97C64.63 152.88 64.69 152.88 64.71 152.86C64.86 152.68 65.04 152.79 65.2 152.77C65.1691 152.806 65.1514 152.852 65.15 152.9Z" fill="#F3BDCA"/>
<path d="M58.6605 161.38C58.5705 161.38 58.3805 161.38 58.4205 161.2C58.4501 161.193 58.4809 161.193 58.5105 161.2C58.6805 161.2 58.6305 161.34 58.6405 161.44L58.6605 161.38Z" fill="#F3BDCA"/>
<path d="M128.001 154.75V155.03C127.701 154.92 127.641 154.82 128.001 154.75Z" fill="#F3BDCA"/>
<path d="M130.211 157.64C130.361 157.64 130.431 157.75 130.411 157.86C130.391 157.97 130.411 157.86 130.351 157.86C130.299 157.845 130.253 157.814 130.221 157.77C130.188 157.727 130.171 157.674 130.171 157.62L130.211 157.64Z" fill="#F3BDCA"/>
<path d="M130.821 155.45L130.91 155.55L130.771 155.5L130.821 155.45Z" fill="#F3BDCA"/>
<path d="M129.3 153.87C129.294 153.892 129.281 153.912 129.263 153.926C129.245 153.941 129.223 153.949 129.2 153.95C129.227 153.916 129.261 153.889 129.3 153.87Z" fill="#F3BDCA"/>
<path d="M130.46 153.19C130.424 153.171 130.393 153.144 130.37 153.11C130.46 153.1 130.52 153.1 130.46 153.19Z" fill="#F3BDCA"/>
<path d="M128.811 154.42C128.761 154.42 128.701 154.42 128.671 154.42C128.641 154.42 128.601 154.35 128.571 154.32C128.541 154.29 128.681 154.27 128.711 154.32C128.741 154.37 128.771 154.38 128.811 154.42Z" fill="#F3BDCA"/>
<path opacity="0.2" d="M142.971 181.75L134.091 139.16L104.421 144.67L105.011 191.18L142.971 181.75Z" fill="#231F20"/>
<path opacity="0.2" d="M66.81 182.81L75.69 139.79L44.46 144.67L25.29 191.18L66.81 182.81Z" fill="#231F20"/>
<path d="M105 31.7C94.2481 31.7 83.9366 35.9711 76.3339 43.5738C68.7311 51.1766 64.46 61.4881 64.46 72.2399C64.46 94.6199 105 153.69 105 153.69C105 153.69 145.54 94.6199 145.54 72.2399C145.54 61.4881 141.269 51.1766 133.666 43.5738C126.063 35.9711 115.752 31.7 105 31.7ZM105 93C100.803 93 96.7004 91.7554 93.2108 89.4237C89.7212 87.092 87.0013 83.7779 85.3952 79.9005C83.7892 76.023 83.3689 71.7564 84.1877 67.6401C85.0065 63.5239 87.0275 59.7428 89.9952 56.7751C92.9628 53.8075 96.7439 51.7865 100.86 50.9677C104.976 50.1489 109.243 50.5691 113.121 52.1752C116.998 53.7813 120.312 56.5011 122.644 59.9907C124.975 63.4804 126.22 67.583 126.22 71.7799C126.22 74.5666 125.671 77.326 124.605 79.9005C123.538 82.475 121.975 84.8143 120.005 86.7848C118.034 88.7552 115.695 90.3183 113.121 91.3847C110.546 92.4511 107.787 93 105 93Z" fill="#DB284E"/>
<path d="M105 50.5901C109.569 50.5901 114.014 52.0707 117.67 54.8101C116.071 52.1076 113.891 49.794 111.288 48.0364C108.686 46.2788 105.725 45.1211 102.621 44.6469C99.5165 44.1726 96.3455 44.3937 93.3369 45.2941C90.3283 46.1945 87.5572 47.7517 85.2236 49.8534C82.8901 51.9551 81.0524 54.5488 79.8432 57.4471C78.6341 60.3455 78.0836 63.4761 78.2316 66.6131C78.3796 69.7501 79.2223 72.815 80.699 75.5867C82.1756 78.3583 84.2493 80.7674 86.7703 82.6401C84.8651 79.4218 83.8451 75.7569 83.8139 72.0171C83.7827 68.2772 84.7413 64.5957 86.5926 61.3461C88.4439 58.0965 91.1218 55.3945 94.3547 53.5142C97.5876 51.6339 101.26 50.6424 105 50.6401V50.5901Z" fill="#971937"/>
<path d="M145.54 72.2399C145.548 66.566 144.361 60.9542 142.055 55.7698C139.75 50.5853 136.378 45.9446 132.16 42.1499C137.259 49.0826 140.006 57.4643 140 66.0699C140 86.6699 105.68 138.33 100.2 146.44C103.14 150.95 105.02 153.69 105.02 153.69C105.02 153.69 145.54 94.6199 145.54 72.2399Z" fill="#971937"/>
<path d="M26.3097 190.63C31.0759 190.63 34.9397 186.56 34.9397 181.54C34.9397 176.52 31.0759 172.45 26.3097 172.45C21.5435 172.45 17.6797 176.52 17.6797 181.54C17.6797 186.56 21.5435 190.63 26.3097 190.63Z" fill="#F3BDCA"/>
<path d="M34.7395 190.64C37.0922 190.64 38.9995 188.943 38.9995 186.85C38.9995 184.757 37.0922 183.06 34.7395 183.06C32.3868 183.06 30.4795 184.757 30.4795 186.85C30.4795 188.943 32.3868 190.64 34.7395 190.64Z" fill="#B6EFDA"/>
<path d="M17.6902 190.63C20.5842 190.63 22.9302 188.548 22.9302 185.98C22.9302 183.412 20.5842 181.33 17.6902 181.33C14.7962 181.33 12.4502 183.412 12.4502 185.98C12.4502 188.548 14.7962 190.63 17.6902 190.63Z" fill="#F3BDCA"/>
<path d="M49.5908 191.22H2.84082C2.84082 191.22 21.4008 184.43 49.5908 191.22Z" fill="#F3BDCA"/>
<path d="M36.2305 190.28C40.7868 190.28 44.4805 186.998 44.4805 182.95C44.4805 178.902 40.7868 175.62 36.2305 175.62C31.6741 175.62 27.9805 178.902 27.9805 182.95C27.9805 186.998 31.6741 190.28 36.2305 190.28Z" fill="#F3BDCA"/>
<path d="M44.4796 190.28C46.7605 190.28 48.6096 188.641 48.6096 186.62C48.6096 184.599 46.7605 182.96 44.4796 182.96C42.1987 182.96 40.3496 184.599 40.3496 186.62C40.3496 188.641 42.1987 190.28 44.4796 190.28Z" fill="#F3BDCA"/>
<path d="M27.9802 190.28C30.7802 190.28 33.0502 188.265 33.0502 185.78C33.0502 183.295 30.7802 181.28 27.9802 181.28C25.1801 181.28 22.9102 183.295 22.9102 185.78C22.9102 188.265 25.1801 190.28 27.9802 190.28Z" fill="#F3BDCA"/>
<path d="M58.3799 191.07H13.1299C13.1299 191.07 31.0899 184.49 58.3799 191.07Z" fill="#F3BDCA"/>
<path d="M177.541 190.74C181.793 190.74 185.241 187.409 185.241 183.3C185.241 179.191 181.793 175.86 177.541 175.86C173.288 175.86 169.841 179.191 169.841 183.3C169.841 187.409 173.288 190.74 177.541 190.74Z" fill="#F3BDCA"/>
<path d="M182.67 190.74C184.443 190.74 185.88 189.352 185.88 187.64C185.88 185.928 184.443 184.54 182.67 184.54C180.897 184.54 179.46 185.928 179.46 187.64C179.46 189.352 180.897 190.74 182.67 190.74Z" fill="#B6EFDA"/>
<path d="M169.839 190.74C172.015 190.74 173.779 189.039 173.779 186.94C173.779 184.841 172.015 183.14 169.839 183.14C167.663 183.14 165.899 184.841 165.899 186.94C165.899 189.039 167.663 190.74 169.839 190.74Z" fill="#F3BDCA"/>
<path d="M193.841 191.22H158.671C158.671 191.22 172.631 185.67 193.841 191.22Z" fill="#F3BDCA"/>
<path d="M187.95 190.75C191.38 190.75 194.16 188.068 194.16 184.76C194.16 181.452 191.38 178.77 187.95 178.77C184.521 178.77 181.74 181.452 181.74 184.76C181.74 188.068 184.521 190.75 187.95 190.75Z" fill="#F3BDCA"/>
<path d="M194.16 190.76C195.872 190.76 197.26 189.417 197.26 187.76C197.26 186.103 195.872 184.76 194.16 184.76C192.447 184.76 191.06 186.103 191.06 187.76C191.06 189.417 192.447 190.76 194.16 190.76Z" fill="#F3BDCA"/>
<path d="M181.74 190.75C183.844 190.75 185.55 189.103 185.55 187.07C185.55 185.038 183.844 183.39 181.74 183.39C179.635 183.39 177.93 185.038 177.93 187.07C177.93 189.103 179.635 190.75 181.74 190.75Z" fill="#F3BDCA"/>
<path d="M205 191.22H171C171 191.22 184.44 185.85 205 191.22Z" fill="#F3BDCA"/>
</g>
<defs>
<clipPath id="clip0_7712_172">
<rect width="210" height="210" fill="white"/>
</clipPath>
</defs>
</svg>
