<svg width="20" height="20" viewBox="0 0 20 20" fill="none" xmlns="http://www.w3.org/2000/svg">
<path d="M4.27368 20L15.7263 20C18.0842 20 20 18.0842 20 15.7263L20 4.27368C20 1.91579 18.0842 -1.67484e-07 15.7263 -3.73617e-07L4.27369 -1.37484e-06C1.91579 -1.58097e-06 1.58097e-06 1.91579 1.37484e-06 4.27368L3.73617e-07 15.7263C1.67484e-07 18.0842 1.91579 20 4.27368 20ZM5.36842 10.7579L9.17895 6.94737C9.41053 6.71579 9.70526 6.61053 10 6.61053C10.2947 6.61053 10.6105 6.71579 10.8211 6.94737L14.6316 10.7579C15.0947 11.2211 15.0947 11.9579 14.6316 12.4211C14.1684 12.8842 13.4316 12.8842 12.9684 12.4211L10 9.43158L7.03158 12.4C6.56842 12.8632 5.83158 12.8632 5.36842 12.4C4.90526 11.9579 4.90526 11.2 5.36842 10.7579Z" fill="white"/>
</svg>
