<svg width="32" height="32" viewBox="0 0 32 32" fill="none" xmlns="http://www.w3.org/2000/svg">
<path d="M15.3333 26.6667H7.33331C6.97969 26.6667 6.64055 26.5263 6.3905 26.2762C6.14046 26.0262 5.99998 25.687 5.99998 25.3334V6.66675C5.99998 6.31313 6.14046 5.97399 6.3905 5.72394C6.64055 5.47389 6.97969 5.33341 7.33331 5.33341H14V9.33342C14 10.3943 14.4214 11.4117 15.1716 12.1618C15.9217 12.912 16.9391 13.3334 18 13.3334H22V20.0001C22 20.3537 22.1405 20.6928 22.3905 20.9429C22.6406 21.1929 22.9797 21.3334 23.3333 21.3334C23.6869 21.3334 24.0261 21.1929 24.2761 20.9429C24.5262 20.6928 24.6666 20.3537 24.6666 20.0001V12.0001C24.6666 12.0001 24.6666 12.0001 24.6666 11.9201C24.6528 11.7976 24.6259 11.6769 24.5866 11.5601V11.4401C24.5225 11.303 24.437 11.177 24.3333 11.0667L16.3333 3.06675C16.2231 2.96304 16.0971 2.87752 15.96 2.81341C15.9159 2.80569 15.8708 2.80569 15.8266 2.81341C15.697 2.74409 15.5577 2.69464 15.4133 2.66675H7.33331C6.27245 2.66675 5.25503 3.08818 4.50489 3.83832C3.75474 4.58847 3.33331 5.60588 3.33331 6.66675V25.3334C3.33331 26.3943 3.75474 27.4117 4.50489 28.1618C5.25503 28.912 6.27245 29.3334 7.33331 29.3334H15.3333C15.6869 29.3334 16.0261 29.1929 16.2761 28.9429C16.5262 28.6928 16.6666 28.3537 16.6666 28.0001C16.6666 27.6465 16.5262 27.3073 16.2761 27.0573C16.0261 26.8072 15.6869 26.6667 15.3333 26.6667ZM16.6666 7.21341L20.12 10.6667H18C17.6464 10.6667 17.3072 10.5263 17.0572 10.2762C16.8071 10.0262 16.6666 9.68704 16.6666 9.33342V7.21341ZM9.99998 18.6667H18C18.3536 18.6667 18.6927 18.5263 18.9428 18.2762C19.1928 18.0262 19.3333 17.687 19.3333 17.3334C19.3333 16.9798 19.1928 16.6407 18.9428 16.3906C18.6927 16.1406 18.3536 16.0001 18 16.0001H9.99998C9.64636 16.0001 9.30722 16.1406 9.05717 16.3906C8.80712 16.6407 8.66665 16.9798 8.66665 17.3334C8.66665 17.687 8.80712 18.0262 9.05717 18.2762C9.30722 18.5263 9.64636 18.6667 9.99998 18.6667ZM15.3333 21.3334H9.99998C9.64636 21.3334 9.30722 21.4739 9.05717 21.7239C8.80712 21.974 8.66665 22.3131 8.66665 22.6667C8.66665 23.0204 8.80712 23.3595 9.05717 23.6096C9.30722 23.8596 9.64636 24.0001 9.99998 24.0001H15.3333C15.6869 24.0001 16.0261 23.8596 16.2761 23.6096C16.5262 23.3595 16.6666 23.0204 16.6666 22.6667C16.6666 22.3131 16.5262 21.974 16.2761 21.7239C16.0261 21.4739 15.6869 21.3334 15.3333 21.3334ZM9.99998 13.3334H11.3333C11.6869 13.3334 12.0261 13.1929 12.2761 12.9429C12.5262 12.6928 12.6666 12.3537 12.6666 12.0001C12.6666 11.6465 12.5262 11.3073 12.2761 11.0573C12.0261 10.8072 11.6869 10.6667 11.3333 10.6667H9.99998C9.64636 10.6667 9.30722 10.8072 9.05717 11.0573C8.80712 11.3073 8.66665 11.6465 8.66665 12.0001C8.66665 12.3537 8.80712 12.6928 9.05717 12.9429C9.30722 13.1929 9.64636 13.3334 9.99998 13.3334Z" fill="black"/>
<path d="M30.7319 19.2958C30.639 19.2021 30.5284 19.1277 30.4065 19.0769C30.2846 19.0261 30.1539 19 30.0219 19C29.8899 19 29.7592 19.0261 29.6373 19.0769C29.5155 19.1277 29.4049 19.2021 29.3119 19.2958L21.8619 26.7558L18.7319 23.6158C18.6354 23.5226 18.5215 23.4492 18.3966 23.4C18.2717 23.3508 18.1384 23.3267 18.0042 23.329C17.8701 23.3314 17.7377 23.3601 17.6146 23.4136C17.4915 23.4671 17.3802 23.5443 17.2869 23.6408C17.1937 23.7373 17.1204 23.8513 17.0712 23.9761C17.022 24.101 16.9978 24.2343 17.0002 24.3685C17.0025 24.5027 17.0312 24.6351 17.0847 24.7581C17.1382 24.8812 17.2154 24.9926 17.3119 25.0858L21.1519 28.9258C21.2449 29.0195 21.3555 29.0939 21.4773 29.1447C21.5992 29.1955 21.7299 29.2216 21.8619 29.2216C21.9939 29.2216 22.1246 29.1955 22.2465 29.1447C22.3684 29.0939 22.479 29.0195 22.5719 28.9258L30.7319 20.7658C30.8334 20.6722 30.9144 20.5585 30.9698 20.432C31.0252 20.3055 31.0539 20.1689 31.0539 20.0308C31.0539 19.8927 31.0252 19.7561 30.9698 19.6296C30.9144 19.5031 30.8334 19.3894 30.7319 19.2958V19.2958Z" fill="#DA264D"/>
</svg>
