<svg width="32" height="32" viewBox="0 0 32 32" fill="none" xmlns="http://www.w3.org/2000/svg">
<g clip-path="url(#clip0_6_414273)">
<path d="M22.5032 9.82673C22.5032 9.82673 22.5032 9.82673 22.5032 9.72007L22.4232 9.52007C22.3953 9.47763 22.3641 9.4375 22.3298 9.40007C22.2942 9.34362 22.254 9.29012 22.2098 9.24007L22.0898 9.14673L21.8765 9.04007L11.8765 2.86673C11.6646 2.73429 11.4197 2.66406 11.1698 2.66406C10.9199 2.66406 10.6751 2.73429 10.4632 2.86673L0.543162 9.04007L0.423162 9.14673L0.303162 9.24007C0.258964 9.29012 0.218836 9.34362 0.183162 9.40007C0.148884 9.4375 0.117673 9.47763 0.0898288 9.52007L0.0098286 9.72007C0.0098286 9.72007 0.0098286 9.72007 0.0098286 9.82673C-0.0032762 9.94192 -0.0032762 10.0582 0.0098286 10.1734V21.8267C0.00937517 22.0533 0.0666768 22.2763 0.176324 22.4746C0.28597 22.6729 0.444345 22.84 0.636496 22.9601L10.6365 29.1334C10.698 29.1714 10.7657 29.1985 10.8365 29.2134C10.8365 29.2134 10.9032 29.2134 10.9432 29.2134C11.1687 29.2849 11.4109 29.2849 11.6365 29.2134C11.6365 29.2134 11.7032 29.2134 11.7432 29.2134C11.8139 29.1985 11.8816 29.1714 11.9432 29.1334L21.8765 22.9601C22.0686 22.84 22.227 22.6729 22.3367 22.4746C22.4463 22.2763 22.5036 22.0533 22.5032 21.8267V10.1734C22.5163 10.0582 22.5163 9.94192 22.5032 9.82673ZM9.8765 25.6134L2.54316 21.0801V12.5734L9.8765 17.0934V25.6134ZM11.2098 14.7867L3.74316 10.1734L11.2098 5.5734L18.6765 10.1734L11.2098 14.7867ZM19.8765 21.0801L12.5432 25.6134V17.0934L19.8765 12.5734V21.0801Z" fill="black"/>
<path d="M29.4149 26.1621L27.1387 26.9721C27.0054 27.0195 26.8964 27.1179 26.8358 27.2457C26.7751 27.3734 26.7676 27.5201 26.815 27.6533C26.8624 27.7866 26.9609 27.8956 27.0886 27.9563C27.2164 28.017 27.363 28.0244 27.4963 27.977L28.7022 27.5479C28.3541 28.3243 27.7817 28.9789 27.0587 29.4276C26.3357 29.8763 25.495 30.0985 24.6448 30.0658C23.7945 30.033 22.9734 29.7468 22.287 29.2438C21.6007 28.7408 21.0804 28.0441 20.793 27.2432C20.7456 27.11 20.6472 27.001 20.5194 26.9403C20.3916 26.8796 20.245 26.8721 20.1117 26.9196C19.9785 26.967 19.8695 27.0654 19.8088 27.1932C19.7481 27.3209 19.7406 27.4676 19.7881 27.6008C20.1399 28.5811 20.771 29.4369 21.6036 30.0626C22.4362 30.6884 23.4337 31.0566 24.4732 31.122C25.5126 31.1874 26.5485 30.9469 27.4529 30.4304C28.3573 29.9139 29.0906 29.1439 29.5625 28.2154L29.879 29.1048C29.9264 29.238 30.0248 29.347 30.1526 29.4077C30.2803 29.4684 30.427 29.4759 30.5602 29.4284C30.6935 29.381 30.8025 29.2826 30.8632 29.1548C30.9239 29.0271 30.9313 28.8804 30.8839 28.7472L30.0793 26.4861C30.0318 26.3567 29.9362 26.2507 29.8123 26.1903C29.6884 26.1299 29.546 26.1198 29.4149 26.1621ZM23.0247 20.7881C21.7378 21.2502 20.6776 22.1888 20.063 23.4101L19.7465 22.5208C19.6991 22.3875 19.6007 22.2785 19.4729 22.2178C19.3451 22.1571 19.1985 22.1497 19.0652 22.1971C18.932 22.2445 18.823 22.3429 18.7623 22.4707C18.7016 22.5985 18.6941 22.7451 18.7416 22.8784L19.5462 25.1395C19.5936 25.2727 19.692 25.3817 19.8198 25.4424C19.9476 25.5031 20.0942 25.5106 20.2275 25.4631L22.4886 24.6585C22.6218 24.6111 22.7308 24.5127 22.7915 24.3849C22.8522 24.2571 22.8597 24.1105 22.8122 23.9772C22.7648 23.844 22.6664 23.735 22.5386 23.6743C22.4109 23.6136 22.2642 23.6062 22.131 23.6536L20.925 24.0827C21.273 23.3067 21.8449 22.6523 22.5674 22.2037C23.2899 21.755 24.13 21.5325 24.9798 21.5647C25.8297 21.5969 26.6505 21.8823 27.337 22.3844C28.0235 22.8864 28.5442 23.5822 28.8325 24.3823C28.8799 24.5156 28.9783 24.6245 29.1061 24.6852C29.2338 24.7459 29.3805 24.7534 29.5137 24.706C29.647 24.6586 29.756 24.5601 29.8167 24.4324C29.8774 24.3046 29.8848 24.158 29.8374 24.0247C29.6026 23.3649 29.2401 22.7577 28.7707 22.238C28.3012 21.7182 27.734 21.296 27.1014 20.9954C26.4687 20.6949 25.7831 20.5219 25.0836 20.4863C24.3842 20.4507 23.6845 20.5533 23.0247 20.7881Z" fill="#DA264D" stroke="#DA264D" stroke-width="0.5"/>
</g>
<defs>
<clipPath id="clip0_6_414273">
<rect width="32" height="32" fill="white"/>
</clipPath>
</defs>
</svg>
