<svg width="31" height="34" viewBox="0 0 31 34" fill="none" xmlns="http://www.w3.org/2000/svg">
<path d="M19.404 15.057L19.4039 15.057L16.4012 16.5212V31.6423L29.0884 25.4561V10.3349L25.4328 12.1174V17.51C25.4328 17.7924 25.2728 18.0516 25.0182 18.1757L19.404 15.057ZM19.404 15.057C19.77 14.8785 19.9208 14.4366 19.7459 14.0706L19.7458 14.0706M19.404 15.057L19.7458 14.0706M19.7458 14.0706C19.5702 13.7033 19.1305 13.5462 18.7627 13.7255C18.7627 13.7256 18.7627 13.7256 18.7626 13.7256L15.666 15.2355L14.5217 14.6775C14.1538 14.498 13.714 14.6552 13.5384 15.0225C13.3635 15.3885 13.5143 15.8304 13.8803 16.0089L13.8803 16.0089M19.7458 14.0706L13.8803 16.0089M13.8803 16.0089L14.9308 16.5212M13.8803 16.0089L14.9308 16.5212M14.9308 16.5212V31.6423L2.24371 25.456V10.3348L11.9283 15.0571C11.9284 15.0572 11.9284 15.0572 11.9284 15.0572C12.0313 15.1074 12.1408 15.1314 12.2487 15.1314C12.5228 15.1314 12.7853 14.9763 12.9115 14.7121L14.9308 16.5212ZM30.1443 8.48855L30.1442 8.48851L15.9867 1.58514L15.9866 1.58509C15.7841 1.48646 15.548 1.48644 15.3455 1.58512L15.3455 1.58514L1.18791 8.4885C1.1879 8.4885 1.18789 8.4885 1.18788 8.48851C0.933294 8.61263 0.77332 8.8719 0.77332 9.15424V25.9196C0.77332 26.2019 0.933293 26.4612 1.18788 26.5853C1.18789 26.5853 1.1879 26.5853 1.18791 26.5853L15.3454 33.4887L15.3455 33.4887C15.4465 33.538 15.5563 33.5627 15.666 33.5627C15.7759 33.5627 15.8855 33.5379 15.9865 33.4887L15.9867 33.4887L30.1442 26.5853C30.1442 26.5853 30.1442 26.5853 30.1442 26.5853C30.3988 26.4612 30.5588 26.2019 30.5588 25.9196V9.1543C30.5588 8.87172 30.3986 8.61269 30.1443 8.48855ZM21.601 19.842L25.0182 18.1757L12.9116 14.7121C13.0865 14.3461 12.9357 13.9043 12.5697 13.7257L12.5696 13.7257L3.19441 9.15424L7.09655 7.25151L20.5451 13.8092V19.1763C20.5451 19.4297 20.674 19.6663 20.8883 19.8022L20.8884 19.8023C21.0076 19.8778 21.1438 19.9161 21.2803 19.9161C21.3897 19.9161 21.4994 19.8915 21.6009 19.8421C21.6009 19.842 21.6009 19.842 21.601 19.842ZM24.9853 10.6914L12.5136 4.61014L15.666 3.07299L28.1377 9.15424L24.9853 10.6914ZM21.2541 12.5108L8.80589 6.44095L10.847 5.44167L23.2993 11.5135L21.2541 12.5108ZM22.0155 13.7836L23.9624 12.8343V17.0463L22.0155 17.9957V13.7836Z" fill="#0F0F0F" stroke="#0F0F0F" stroke-width="0.556875"/>
<path d="M5.75493 23.3693L5.75488 23.3693L3.72486 22.3393C3.72484 22.3393 3.72483 22.3393 3.72481 22.3393C3.40362 22.1762 3.02488 22.3221 2.87619 22.6458C2.72954 22.965 2.85333 23.3551 3.16872 23.5152L3.16873 23.5152L5.19872 24.5451C5.19875 24.5452 5.19877 24.5452 5.1988 24.5452C5.28771 24.5903 5.38264 24.6121 5.47648 24.6121C5.71596 24.6121 5.94058 24.4712 6.04736 24.2387C6.1941 23.9194 6.07025 23.5294 5.75493 23.3693Z" fill="#DA264D" stroke="#DA264D" stroke-width="0.37125"/>
<path d="M3.73559 20.3712L3.73558 20.3712C3.41128 20.2074 3.0279 20.3534 2.87704 20.6805L2.87703 20.6805C2.72819 21.0032 2.85424 21.3971 3.17341 21.5583L3.17342 21.5583L7.13659 23.5604L7.13664 23.5605C7.22643 23.6058 7.32237 23.6278 7.41735 23.6278C7.65927 23.6278 7.88678 23.486 7.99509 23.2512L7.99509 23.2512C8.14397 22.9284 8.01799 22.5345 7.69876 22.3733C7.69876 22.3733 7.69875 22.3733 7.69874 22.3733L3.73559 20.3712Z" fill="#DA264D" stroke="#DA264D" stroke-width="0.37125"/>
</svg>
