<svg width="32" height="32" viewBox="0 0 32 32" fill="none" xmlns="http://www.w3.org/2000/svg">
<path d="M25.3334 2.66675H6.66675C5.60588 2.66675 4.58847 3.08818 3.83832 3.83832C3.08818 4.58847 2.66675 5.60588 2.66675 6.66675V20.0001C2.66675 21.0609 3.08818 22.0784 3.83832 22.8285C4.58847 23.5787 5.60588 24.0001 6.66675 24.0001H22.1201L27.0534 28.9467C27.178 29.0703 27.3258 29.1681 27.4882 29.2344C27.6507 29.3008 27.8246 29.3344 28.0001 29.3334C28.175 29.3379 28.3485 29.3014 28.5068 29.2267C28.7502 29.1267 28.9587 28.9569 29.1058 28.7386C29.2529 28.5203 29.3321 28.2633 29.3334 28.0001V6.66675C29.3334 5.60588 28.912 4.58847 28.1618 3.83832C27.4117 3.08818 26.3943 2.66675 25.3334 2.66675ZM26.6668 24.7867L23.6134 21.7201C23.4888 21.5965 23.3411 21.4987 23.1786 21.4324C23.0162 21.366 22.8422 21.3324 22.6668 21.3334H6.66675C6.31313 21.3334 5.97399 21.1929 5.72394 20.9429C5.47389 20.6928 5.33342 20.3537 5.33342 20.0001V6.66675C5.33342 6.31313 5.47389 5.97399 5.72394 5.72394C5.97399 5.47389 6.31313 5.33341 6.66675 5.33341H25.3334C25.687 5.33341 26.0262 5.47389 26.2762 5.72394C26.5263 5.97399 26.6668 6.31313 26.6668 6.66675V24.7867Z" fill="black"/>
<path d="M9.33346 14.6666H17.3335C17.6871 14.6666 18.0262 14.8071 18.2763 15.0571C18.5263 15.3072 18.6668 15.6463 18.6668 15.9999C18.6668 16.3535 18.5263 16.6927 18.2763 16.9427C18.0262 17.1928 17.6871 17.3333 17.3335 17.3333H9.33346C8.97983 17.3333 8.6407 17.1928 8.39065 16.9427C8.1406 16.6927 8.00012 16.3535 8.00012 15.9999C8.00012 15.6463 8.1406 15.3072 8.39065 15.0571C8.6407 14.8071 8.97983 14.6666 9.33346 14.6666Z" fill="#DA264D"/>
<path d="M9.33346 9.33325H22.6668C23.0204 9.33325 23.3596 9.47373 23.6096 9.72378C23.8596 9.97383 24.0001 10.313 24.0001 10.6666C24.0001 11.0202 23.8596 11.3593 23.6096 11.6094C23.3596 11.8594 23.0204 11.9999 22.6668 11.9999H9.33346C8.97983 11.9999 8.6407 11.8594 8.39065 11.6094C8.1406 11.3593 8.00012 11.0202 8.00012 10.6666C8.00012 10.313 8.1406 9.97383 8.39065 9.72378C8.6407 9.47373 8.97983 9.33325 9.33346 9.33325Z" fill="#DA264D"/>
</svg>
