<svg width="36" height="34" viewBox="0 0 36 34" fill="none" xmlns="http://www.w3.org/2000/svg">
<path d="M13.2868 7.10248C13.3834 7.61838 13.8952 8.02524 14.4989 7.91235C15.085 7.78998 15.4184 7.22795 15.3087 6.6996C15.18 6.08525 14.5732 5.74302 13.9983 5.91448C13.4848 6.06772 13.1811 6.59799 13.2868 7.10248Z" fill="#DB284E"/>
<path d="M35.5039 21.5062C29.8925 5.17176 30.2785 6.2909 30.2545 6.23528C29.6704 4.88341 28.5365 3.83247 27.1436 3.35183C26.9441 3.28301 15.6491 0.640872 15.3227 0.527844C14.3216 0.181129 12.9308 0.37549 11.9543 1.27353L2.27483 10.1803C1.18663 11.1812 0.5625 12.606 0.5625 14.0895V29.8619C0.5625 31.7206 2.06658 33.2328 3.91539 33.2328H24.6238C26.4726 33.2328 27.9767 31.7206 27.9767 29.8619V28.3374L33.7488 25.8671C35.4269 25.1409 36.2076 23.1918 35.5039 21.5062ZM24.6238 31.1702H3.91539C3.20388 31.1702 2.62506 30.5833 2.62506 29.8619V14.0895C2.62506 13.1814 3.00635 12.3097 3.67125 11.6982C11.9641 4.06754 6.83824 8.82709 13.3838 2.79074C13.7251 2.47614 14.1964 2.34977 14.6639 2.49071C15.0817 2.6155 14.3444 2.01502 24.8681 11.6983C25.5328 12.3098 25.9141 13.1814 25.9141 14.0895V29.8619C25.9141 30.5833 25.3352 31.1702 24.6238 31.1702ZM32.9334 23.9725L27.9766 26.0938V14.0895C27.9766 12.606 27.3525 11.1812 26.2644 10.1804L19.0559 3.54743L26.5157 5.31751C27.33 5.61225 27.9937 6.22923 28.3463 7.0196C33.9471 23.3229 33.5693 22.2287 33.5939 22.2851C33.8755 22.9361 33.5775 23.6938 32.9334 23.9725Z" fill="#0F0F0F"/>
<path d="M17.1999 13.1077C16.6748 12.8873 16.0703 13.1345 15.8499 13.6596L10.8294 25.6252C10.543 26.3079 11.0489 27.0558 11.7799 27.0558C12.1829 27.0558 12.5657 26.8181 12.7314 26.4233L17.7518 14.4577C17.9722 13.9324 17.7251 13.328 17.1999 13.1077Z" fill="#DB284E"/>
<path d="M12.3659 16.0787C12.3659 14.0883 10.9081 12.469 9.11626 12.469C7.32438 12.469 5.8667 14.0883 5.8667 16.0787C5.8667 18.069 7.32445 19.6884 9.11633 19.6884C10.9082 19.6884 12.3659 18.069 12.3659 16.0787ZM9.11633 17.6258C8.47288 17.6258 7.92926 16.9173 7.92926 16.0787C7.92926 15.24 8.47281 14.5315 9.11633 14.5315C9.75985 14.5315 10.3034 15.24 10.3034 16.0787C10.3033 16.9173 9.75978 17.6258 9.11633 17.6258Z" fill="#DB284E"/>
<path d="M19.5189 20.6504C17.727 20.6504 16.2693 22.2697 16.2693 24.2601C16.2693 26.2504 17.727 27.8698 19.5189 27.8698C21.3108 27.8698 22.7685 26.2504 22.7685 24.2601C22.7685 22.2697 21.3107 20.6504 19.5189 20.6504ZM19.5189 25.8072C18.8755 25.8072 18.3318 25.0987 18.3318 24.2601C18.3318 23.4214 18.8754 22.7129 19.5189 22.7129C20.1624 22.7129 20.706 23.4214 20.706 24.2601C20.706 25.0987 20.1624 25.8072 19.5189 25.8072Z" fill="#DB284E"/>
</svg>
