<svg width="36" height="36" viewBox="0 0 36 36" fill="none" xmlns="http://www.w3.org/2000/svg">
<g clip-path="url(#clip0_11006_236379)">
<path d="M15.8967 24.9502C15.8967 30.1215 20.1038 34.3287 25.2751 34.3287C30.4465 34.3287 34.6536 30.1215 34.6536 24.9502C34.6536 19.7789 30.4465 15.5717 25.2751 15.5717C20.1038 15.5717 15.8967 19.7789 15.8967 24.9502ZM17.6822 24.9502C17.6822 20.7632 21.0881 17.3572 25.2751 17.3572C29.4621 17.3572 32.8681 20.7632 32.8681 24.9502C32.8681 29.1372 29.4621 32.5431 25.2751 32.5431C21.0881 32.5431 17.6822 29.1372 17.6822 24.9502Z" fill="#DB284E" stroke="#DB284E" stroke-width="0.37125"/>
<path d="M27.4713 25.1248L27.4716 25.1245C28.4256 24.4235 28.9941 23.3017 28.9941 22.1209C28.9941 20.0695 27.3242 18.3996 25.2728 18.3996C23.2214 18.3996 21.5514 20.0695 21.5514 22.1209C21.5514 22.6138 21.9513 23.0137 22.4442 23.0137C22.9371 23.0137 23.337 22.6138 23.337 22.1209C23.337 21.0538 24.2057 20.1851 25.2728 20.1851C26.3399 20.1851 27.2086 21.0538 27.2086 22.1209C27.2086 22.7448 26.92 23.3143 26.4162 23.6838C25.1299 24.6255 24.38 25.9805 24.38 27.4061V27.7781C24.38 28.2709 24.7799 28.6708 25.2728 28.6708C25.7656 28.6708 26.1655 28.2709 26.1655 27.7781V27.4061C26.1655 26.2617 26.9685 25.4925 27.4713 25.1248Z" fill="#DB284E" stroke="#DB284E" stroke-width="0.37125"/>
<path d="M25.2733 31.4998C25.7664 31.4998 26.1661 31.1001 26.1661 30.607C26.1661 30.114 25.7664 29.7143 25.2733 29.7143C24.7802 29.7143 24.3805 30.114 24.3805 30.607C24.3805 31.1001 24.7802 31.4998 25.2733 31.4998Z" fill="#DB284E" stroke="#DB284E" stroke-width="0.37125"/>
<path d="M12.6295 22.2877L12.6323 22.289C12.7577 22.3482 12.8908 22.3789 13.0241 22.3789C13.3542 22.3789 13.6699 22.1951 13.8266 21.8817L13.8274 21.8801C14.0429 21.4383 13.8635 20.9027 13.4201 20.6846C11.4037 19.6914 9.2325 19.3149 6.96888 19.5663L6.96796 19.5664C6.7993 19.586 6.64466 19.536 6.53016 19.434L6.52959 19.4335C6.42423 19.3404 6.36602 19.2116 6.36602 19.0677V2.44982C6.36602 2.18556 6.5642 1.95608 6.83298 1.91798L6.83298 1.91799L6.83416 1.91781C9.95779 1.45454 12.7827 2.36832 15.4945 4.73514L15.4945 4.73518C15.8303 5.02811 16.3319 5.02811 16.6677 4.73518C19.3795 2.36973 22.21 1.45457 25.3308 1.91922L25.3325 1.91945C25.5957 1.95616 25.7948 2.18599 25.7948 2.44982V12.2225C25.7948 12.7154 26.1947 13.1153 26.6875 13.1153C27.1804 13.1153 27.5803 12.7154 27.5803 12.2225V2.44982C27.5803 1.29993 26.7222 0.312048 25.5869 0.153157C22.19 -0.351755 18.9954 0.578359 16.0804 2.90038C13.1652 0.576948 9.96792 -0.348945 6.57822 0.151736C5.43892 0.311976 4.58049 1.2996 4.58049 2.44982V19.0677C4.58049 19.7176 4.85919 20.3365 5.34264 20.7676L5.46618 20.6291L5.34265 20.7676C5.83923 21.2104 6.50575 21.4191 7.16886 21.341C9.08737 21.1314 10.9254 21.4481 12.6295 22.2877ZM6.80693 1.73419C6.4477 1.78511 6.1804 2.09201 6.1804 2.44982V19.0677C6.1804 19.2643 6.26101 19.4439 6.40668 19.5726C6.56226 19.7112 6.77016 19.7762 6.98937 19.7508L6.80693 1.73419Z" fill="#0F0F0F" stroke="#0F0F0F" stroke-width="0.37125"/>
<path d="M30.0409 13.6364C30.0409 14.1293 30.4408 14.5292 30.9336 14.5292C31.4265 14.5292 31.8264 14.1293 31.8264 13.6364V5.15072C31.8264 3.87859 30.7915 2.84367 29.5194 2.84367H26.6908C26.1979 2.84367 25.798 3.24358 25.798 3.73644C25.798 4.2293 26.1979 4.62921 26.6908 4.62921H29.5194C29.8072 4.62921 30.0409 4.8629 30.0409 5.15072V13.6364Z" fill="#0F0F0F" stroke="#0F0F0F" stroke-width="0.37125"/>
<path d="M2.6336 2.84318V2.84315L2.63022 2.84321C1.36862 2.86624 0.339277 3.89852 0.339277 5.15024V22.1217C0.339277 23.3938 1.3742 24.4287 2.64633 24.4287H12.5463C13.0392 24.4287 13.4391 24.0288 13.4391 23.5359C13.4391 23.0431 13.0392 22.6432 12.5463 22.6432H2.64633C2.35851 22.6432 2.12481 22.4095 2.12481 22.1217V5.15024C2.12481 4.87302 2.36235 4.63485 2.64817 4.62872H5.4749C5.96776 4.62872 6.36767 4.22881 6.36767 3.73595C6.36767 3.24309 5.96776 2.84318 5.4749 2.84318H2.6336Z" fill="#0F0F0F" stroke="#0F0F0F" stroke-width="0.37125"/>
<path d="M15.1894 16.4645C15.1894 16.9574 15.5893 17.3573 16.0821 17.3573C16.575 17.3573 16.9749 16.9574 16.9749 16.4645V3.73595C16.9749 3.24309 16.575 2.84318 16.0821 2.84318C15.5893 2.84318 15.1894 3.24309 15.1894 3.73595V16.4645Z" fill="#0F0F0F" stroke="#0F0F0F" stroke-width="0.37125"/>
</g>
<defs>
<clipPath id="clip0_11006_236379">
<rect width="35.2" height="35.2" fill="white" transform="translate(0.524902 0.199951)"/>
</clipPath>
</defs>
</svg>
