<svg width="26" height="26" viewBox="0 0 26 26" fill="none" xmlns="http://www.w3.org/2000/svg">
<rect x="1.625" y="1.625" width="22.75" height="22.75" rx="6" fill="url(#paint0_radial_28033_52048)"/>
<rect x="1.625" y="1.625" width="22.75" height="22.75" rx="6" fill="url(#paint1_radial_28033_52048)"/>
<rect x="1.625" y="1.625" width="22.75" height="22.75" rx="6" fill="url(#paint2_radial_28033_52048)"/>
<path d="M18.6875 8.53125C18.6875 9.20435 18.1418 9.75 17.4688 9.75C16.7957 9.75 16.25 9.20435 16.25 8.53125C16.25 7.85815 16.7957 7.3125 17.4688 7.3125C18.1418 7.3125 18.6875 7.85815 18.6875 8.53125Z" fill="white"/>
<path fill-rule="evenodd" clip-rule="evenodd" d="M13 17.0625C15.2437 17.0625 17.0625 15.2437 17.0625 13C17.0625 10.7563 15.2437 8.9375 13 8.9375C10.7563 8.9375 8.9375 10.7563 8.9375 13C8.9375 15.2437 10.7563 17.0625 13 17.0625ZM13 15.4375C14.3462 15.4375 15.4375 14.3462 15.4375 13C15.4375 11.6538 14.3462 10.5625 13 10.5625C11.6538 10.5625 10.5625 11.6538 10.5625 13C10.5625 14.3462 11.6538 15.4375 13 15.4375Z" fill="white"/>
<path fill-rule="evenodd" clip-rule="evenodd" d="M4.875 12.675C4.875 9.94474 4.875 8.57962 5.40634 7.5368C5.87373 6.61951 6.61951 5.87373 7.5368 5.40634C8.57962 4.875 9.94474 4.875 12.675 4.875H13.325C16.0553 4.875 17.4204 4.875 18.4632 5.40634C19.3805 5.87373 20.1263 6.61951 20.5937 7.5368C21.125 8.57962 21.125 9.94474 21.125 12.675V13.325C21.125 16.0553 21.125 17.4204 20.5937 18.4632C20.1263 19.3805 19.3805 20.1263 18.4632 20.5937C17.4204 21.125 16.0553 21.125 13.325 21.125H12.675C9.94474 21.125 8.57962 21.125 7.5368 20.5937C6.61951 20.1263 5.87373 19.3805 5.40634 18.4632C4.875 17.4204 4.875 16.0553 4.875 13.325V12.675ZM12.675 6.5H13.325C14.7169 6.5 15.6632 6.50126 16.3946 6.56102C17.107 6.61923 17.4713 6.72473 17.7255 6.85423C18.337 7.16582 18.8342 7.663 19.1458 8.27453C19.2753 8.52868 19.3808 8.89301 19.439 9.60544C19.4987 10.3368 19.5 11.2831 19.5 12.675V13.325C19.5 14.7169 19.4987 15.6632 19.439 16.3946C19.3808 17.107 19.2753 17.4713 19.1458 17.7255C18.8342 18.337 18.337 18.8342 17.7255 19.1458C17.4713 19.2753 17.107 19.3808 16.3946 19.439C15.6632 19.4987 14.7169 19.5 13.325 19.5H12.675C11.2831 19.5 10.3368 19.4987 9.60544 19.439C8.89301 19.3808 8.52868 19.2753 8.27453 19.1458C7.663 18.8342 7.16582 18.337 6.85423 17.7255C6.72473 17.4713 6.61923 17.107 6.56102 16.3946C6.50126 15.6632 6.5 14.7169 6.5 13.325V12.675C6.5 11.2831 6.50126 10.3368 6.56102 9.60544C6.61923 8.89301 6.72473 8.52868 6.85423 8.27453C7.16582 7.663 7.663 7.16582 8.27453 6.85423C8.52868 6.72473 8.89301 6.61923 9.60544 6.56102C10.3368 6.50126 11.2831 6.5 12.675 6.5Z" fill="white"/>
<defs>
<radialGradient id="paint0_radial_28033_52048" cx="0" cy="0" r="1" gradientUnits="userSpaceOnUse" gradientTransform="translate(9.75 18.6875) rotate(-55.3758) scale(20.7347)">
<stop stop-color="#B13589"/>
<stop offset="0.79309" stop-color="#C62F94"/>
<stop offset="1" stop-color="#8A3AC8"/>
</radialGradient>
<radialGradient id="paint1_radial_28033_52048" cx="0" cy="0" r="1" gradientUnits="userSpaceOnUse" gradientTransform="translate(8.9375 25.1875) rotate(-65.1363) scale(18.3578)">
<stop stop-color="#E0E8B7"/>
<stop offset="0.444662" stop-color="#FB8A2E"/>
<stop offset="0.71474" stop-color="#E2425C"/>
<stop offset="1" stop-color="#E2425C" stop-opacity="0"/>
</radialGradient>
<radialGradient id="paint2_radial_28033_52048" cx="0" cy="0" r="1" gradientUnits="userSpaceOnUse" gradientTransform="translate(0.406251 2.4375) rotate(-8.1301) scale(31.5988 6.75866)">
<stop offset="0.156701" stop-color="#406ADC"/>
<stop offset="0.467799" stop-color="#6A45BE"/>
<stop offset="1" stop-color="#6A45BE" stop-opacity="0"/>
</radialGradient>
</defs>
</svg>
