<svg width="32" height="32" viewBox="0 0 32 32" fill="none" xmlns="http://www.w3.org/2000/svg">
<path d="M26.6667 5.33341H22.6667V4.00008C22.6667 3.64646 22.5262 3.30732 22.2761 3.05727C22.0261 2.80722 21.687 2.66675 21.3333 2.66675C20.9797 2.66675 20.6406 2.80722 20.3905 3.05727C20.1405 3.30732 20 3.64646 20 4.00008V5.33341H17.3333V4.00008C17.3333 3.64646 17.1929 3.30732 16.9428 3.05727C16.6928 2.80722 16.3536 2.66675 16 2.66675C15.6464 2.66675 15.3072 2.80722 15.0572 3.05727C14.8071 3.30732 14.6667 3.64646 14.6667 4.00008V5.33341H12V4.00008C12 3.64646 11.8595 3.30732 11.6095 3.05727C11.3594 2.80722 11.0203 2.66675 10.6667 2.66675C10.313 2.66675 9.97391 2.80722 9.72386 3.05727C9.47381 3.30732 9.33333 3.64646 9.33333 4.00008V5.33341H5.33333C4.97971 5.33341 4.64057 5.47389 4.39052 5.72394C4.14048 5.97399 4 6.31313 4 6.66675V25.3334C4 26.3943 4.42143 27.4117 5.17157 28.1618C5.92172 28.912 6.93913 29.3334 8 29.3334H24C25.0609 29.3334 26.0783 28.912 26.8284 28.1618C27.5786 27.4117 28 26.3943 28 25.3334V6.66675C28 6.31313 27.8595 5.97399 27.6095 5.72394C27.3594 5.47389 27.0203 5.33341 26.6667 5.33341ZM25.3333 25.3334C25.3333 25.687 25.1929 26.0262 24.9428 26.2762C24.6928 26.5263 24.3536 26.6667 24 26.6667H8C7.64638 26.6667 7.30724 26.5263 7.05719 26.2762C6.80714 26.0262 6.66667 25.687 6.66667 25.3334V8.00008H9.33333V9.33342C9.33333 9.68704 9.47381 10.0262 9.72386 10.2762C9.97391 10.5263 10.313 10.6667 10.6667 10.6667C11.0203 10.6667 11.3594 10.5263 11.6095 10.2762C11.8595 10.0262 12 9.68704 12 9.33342V8.00008H14.6667V9.33342C14.6667 9.68704 14.8071 10.0262 15.0572 10.2762C15.3072 10.5263 15.6464 10.6667 16 10.6667C16.3536 10.6667 16.6928 10.5263 16.9428 10.2762C17.1929 10.0262 17.3333 9.68704 17.3333 9.33342V8.00008H20V9.33342C20 9.68704 20.1405 10.0262 20.3905 10.2762C20.6406 10.5263 20.9797 10.6667 21.3333 10.6667C21.687 10.6667 22.0261 10.5263 22.2761 10.2762C22.5262 10.0262 22.6667 9.68704 22.6667 9.33342V8.00008H25.3333V25.3334Z" fill="#0F0F0F"/>
<path d="M10.6666 18.6666H21.3333C21.6869 18.6666 22.026 18.8071 22.2761 19.0571C22.5261 19.3072 22.6666 19.6463 22.6666 19.9999C22.6666 20.3535 22.5261 20.6927 22.2761 20.9427C22.026 21.1928 21.6869 21.3333 21.3333 21.3333H10.6666C10.313 21.3333 9.97382 21.1928 9.72378 20.9427C9.47373 20.6927 9.33325 20.3535 9.33325 19.9999C9.33325 19.6463 9.47373 19.3072 9.72378 19.0571C9.97382 18.8071 10.313 18.6666 10.6666 18.6666Z" fill="#DA264D"/>
<path d="M13.3333 13.3333H21.3333C21.6869 13.3333 22.026 13.4737 22.2761 13.7238C22.5261 13.9738 22.6666 14.313 22.6666 14.6666C22.6666 15.0202 22.5261 15.3593 22.2761 15.6094C22.026 15.8594 21.6869 15.9999 21.3333 15.9999H13.3333C12.9796 15.9999 12.6405 15.8594 12.3904 15.6094C12.1404 15.3593 11.9999 15.0202 11.9999 14.6666C11.9999 14.313 12.1404 13.9738 12.3904 13.7238C12.6405 13.4737 12.9796 13.3333 13.3333 13.3333Z" fill="#DA264D"/>
</svg>
