<svg width="32" height="32" viewBox="0 0 32 32" fill="none" xmlns="http://www.w3.org/2000/svg">
<path d="M22.6667 5.33341H21.0934C20.8183 4.55535 20.3093 3.88141 19.6361 3.404C18.963 2.92659 18.1586 2.66907 17.3334 2.66675H14.6667C13.8414 2.66907 13.0371 2.92659 12.364 3.404C11.6908 3.88141 11.1818 4.55535 10.9067 5.33341H9.33337C8.27251 5.33341 7.25509 5.75484 6.50495 6.50499C5.7548 7.25513 5.33337 8.27255 5.33337 9.33342V25.3334C5.33337 26.3943 5.7548 27.4117 6.50495 28.1618C7.25509 28.912 8.27251 29.3334 9.33337 29.3334H22.6667C23.7276 29.3334 24.745 28.912 25.4951 28.1618C26.2453 27.4117 26.6667 26.3943 26.6667 25.3334V9.33342C26.6667 8.27255 26.2453 7.25513 25.4951 6.50499C24.745 5.75484 23.7276 5.33341 22.6667 5.33341ZM13.3334 6.66675C13.3334 6.31313 13.4738 5.97399 13.7239 5.72394C13.9739 5.47389 14.3131 5.33341 14.6667 5.33341H17.3334C17.687 5.33341 18.0261 5.47389 18.2762 5.72394C18.5262 5.97399 18.6667 6.31313 18.6667 6.66675V8.00008H13.3334V6.66675ZM24 25.3334C24 25.687 23.8596 26.0262 23.6095 26.2762C23.3595 26.5263 23.0203 26.6667 22.6667 26.6667H9.33337C8.97975 26.6667 8.64061 26.5263 8.39057 26.2762C8.14052 26.0262 8.00004 25.687 8.00004 25.3334V9.33342C8.00004 8.97979 8.14052 8.64065 8.39057 8.39061C8.64061 8.14056 8.97975 8.00008 9.33337 8.00008H10.6667V9.33342C10.6667 9.68704 10.8072 10.0262 11.0572 10.2762C11.3073 10.5263 11.6464 10.6667 12 10.6667H20C20.3537 10.6667 20.6928 10.5263 20.9428 10.2762C21.1929 10.0262 21.3334 9.68704 21.3334 9.33342V8.00008H22.6667C23.0203 8.00008 23.3595 8.14056 23.6095 8.39061C23.8596 8.64065 24 8.97979 24 9.33342V25.3334Z" fill="#0F0F0F"/>
<path d="M11.9998 19.1666H17.3332C17.5542 19.1666 17.7661 19.2544 17.9224 19.4107C18.0787 19.5669 18.1665 19.7789 18.1665 19.9999C18.1665 20.2209 18.0787 20.4329 17.9224 20.5892C17.7661 20.7455 17.5542 20.8333 17.3332 20.8333H11.9998C11.7788 20.8333 11.5669 20.7455 11.4106 20.5892C11.2543 20.4329 11.1665 20.2209 11.1665 19.9999C11.1665 19.7789 11.2543 19.5669 11.4106 19.4107C11.5669 19.2544 11.7788 19.1666 11.9998 19.1666ZM11.9998 13.8333H19.9998C20.2208 13.8333 20.4328 13.921 20.5891 14.0773C20.7454 14.2336 20.8332 14.4456 20.8332 14.6666C20.8332 14.8876 20.7454 15.0996 20.5891 15.2558C20.4328 15.4121 20.2208 15.4999 19.9998 15.4999H11.9998C11.7788 15.4999 11.5669 15.4121 11.4106 15.2558C11.2543 15.0996 11.1665 14.8876 11.1665 14.6666C11.1665 14.4456 11.2543 14.2336 11.4106 14.0773C11.5669 13.921 11.7788 13.8333 11.9998 13.8333Z" fill="#DA264D" stroke="#DA264D"/>
</svg>
