<svg width="32" height="32" viewBox="0 0 32 32" fill="none" xmlns="http://www.w3.org/2000/svg">
<path d="M20.6084 26.4045C20.4754 28.7802 18.463 30.6666 16 30.6666C13.5371 30.6666 11.5247 28.7802 11.3916 26.4045H4.20646C3.35519 26.4045 2.66669 25.733 2.66669 24.9017V23.3959C2.66669 21.7359 4.04549 20.3874 5.74468 20.3874C5.74268 20.3874 5.74361 14.3699 5.74361 14.3699C5.74361 10.1315 8.4543 6.41554 12.4103 4.97298V4.84084C12.4103 2.90424 14.0197 1.33325 16 1.33325C17.9824 1.33325 19.5898 2.90329 19.5898 4.84084V4.97307C23.5456 6.41582 26.2564 10.1324 26.2564 14.3699V20.3865C27.952 20.3874 29.3334 21.7354 29.3334 23.3959V24.9017C29.3334 25.7297 28.6426 26.4045 27.7936 26.4045H20.6084ZM18.5515 26.4045H13.4486C13.5772 27.6714 14.6704 28.6609 16 28.6609C17.3296 28.6609 18.4228 27.6714 18.5515 26.4045ZM27.2821 24.3988V23.3959C27.2821 22.844 26.82 22.3931 26.2554 22.3931C25.1219 22.3931 24.2051 21.4971 24.2051 20.3865V14.3699C24.2051 10.7721 21.762 7.64303 18.2798 6.66085L17.5385 6.45174V4.84084C17.5385 4.01146 16.85 3.33895 16 3.33895C15.1518 3.33895 14.4616 4.01273 14.4616 4.84084V6.45172L13.7202 6.66081C10.2379 7.64289 7.79489 10.7712 7.79489 14.3699V20.3865C7.79489 21.4939 6.87586 22.3931 5.74468 22.3931C5.1785 22.3931 4.71797 22.8435 4.71797 23.3959V24.3988H27.2821Z" fill="#0F0F0F" stroke="black" stroke-width="0.5"/>
</svg>
