<svg width="32" height="33" viewBox="0 0 32 33" fill="none" xmlns="http://www.w3.org/2000/svg">
<path d="M25.3333 3.40015H6.66663C5.60576 3.40015 4.58834 3.81748 3.8382 4.56033C3.08805 5.30318 2.66663 6.3107 2.66663 7.36124V25.8464C2.66663 26.8969 3.08805 27.9044 3.8382 28.6473C4.58834 29.3901 5.60576 29.8075 6.66663 29.8075H25.3333C26.3942 29.8075 27.4116 29.3901 28.1617 28.6473C28.9119 27.9044 29.3333 26.8969 29.3333 25.8464V7.36124C29.3333 6.3107 28.9119 5.30318 28.1617 4.56033C27.4116 3.81748 26.3942 3.40015 25.3333 3.40015ZM18.6666 6.04088V10.3849L16.6533 9.27577C16.4506 9.15989 16.2207 9.09888 15.9866 9.09888C15.7526 9.09888 15.5227 9.15989 15.32 9.27577L13.3333 10.3849V6.04088H18.6666ZM26.6666 25.8464C26.6666 26.1965 26.5262 26.5324 26.2761 26.78C26.0261 27.0276 25.6869 27.1667 25.3333 27.1667H6.66663C6.313 27.1667 5.97387 27.0276 5.72382 26.78C5.47377 26.5324 5.33329 26.1965 5.33329 25.8464V7.36124C5.33329 7.01106 5.47377 6.67522 5.72382 6.4276C5.97387 6.17999 6.313 6.04088 6.66663 6.04088H10.6666V12.6427C10.668 12.8731 10.7303 13.0992 10.8473 13.2984C10.9642 13.4976 11.1318 13.663 11.3333 13.7782C11.536 13.8941 11.7659 13.9551 12 13.9551C12.234 13.9551 12.4639 13.8941 12.6666 13.7782L16 11.9429L19.3466 13.7914C19.5459 13.9033 19.7709 13.9624 20 13.9631C20.3536 13.9631 20.6927 13.824 20.9428 13.5763C21.1928 13.3287 21.3333 12.9929 21.3333 12.6427V6.04088H25.3333C25.6869 6.04088 26.0261 6.17999 26.2761 6.4276C26.5262 6.67522 26.6666 7.01106 26.6666 7.36124V25.8464Z" fill="black"/>
<path d="M12 19.2447H9.33333C8.97971 19.2447 8.64057 19.1056 8.39052 18.858C8.14048 18.6104 8 18.2746 8 17.9244C8 17.5742 8.14048 17.2383 8.39052 16.9907C8.64057 16.7431 8.97971 16.604 9.33333 16.604H12C12.3536 16.604 12.6928 16.7431 12.9428 16.9907C13.1929 17.2383 13.3333 17.5742 13.3333 17.9244C13.3333 18.2746 13.1929 18.6104 12.9428 18.858C12.6928 19.1056 12.3536 19.2447 12 19.2447Z" fill="#DA264D"/>
<path d="M9.33333 21.8855H17.3333C17.687 21.8855 18.0261 22.0246 18.2761 22.2722C18.5262 22.5198 18.6667 22.8556 18.6667 23.2058C18.6667 23.556 18.5262 23.8919 18.2761 24.1395C18.0261 24.3871 17.687 24.5262 17.3333 24.5262H9.33333C8.97971 24.5262 8.64057 24.3871 8.39052 24.1395C8.14048 23.8919 8 23.556 8 23.2058C8 22.8556 8.14048 22.5198 8.39052 22.2722C8.64057 22.0246 8.97971 21.8855 9.33333 21.8855Z" fill="#DA264D"/>
</svg>
