<svg width="36" height="37" viewBox="0 0 36 37" fill="none" xmlns="http://www.w3.org/2000/svg">
<circle cx="17.9" cy="18.5001" r="16.2078" stroke="#0F0F0F" stroke-width="2.78437"/>
<g clip-path="url(#clip0_11006_236322)">
<path d="M17.7689 18.1627C18.9891 18.1627 20.0456 17.7251 20.9089 16.8616C21.7722 15.9983 22.2099 14.942 22.2099 13.7217C22.2099 12.5018 21.7722 11.4454 20.9088 10.5818C20.0454 9.71863 18.9889 9.28101 17.7689 9.28101C16.5486 9.28101 15.4923 9.71863 14.629 10.5819C13.7657 11.4452 13.3279 12.5017 13.3279 13.7217C13.3279 14.942 13.7657 15.9985 14.6291 16.8618C15.4925 17.7249 16.549 18.1627 17.7689 18.1627Z" fill="#DB284E"/>
<path d="M25.5393 23.4591C25.5144 23.0999 25.4641 22.708 25.3899 22.2941C25.3151 21.8772 25.2187 21.483 25.1034 21.1227C24.9842 20.7504 24.8222 20.3827 24.6219 20.0303C24.4139 19.6645 24.1697 19.3461 23.8957 19.084C23.6092 18.8098 23.2583 18.5894 22.8526 18.4286C22.4483 18.2687 22.0003 18.1876 21.521 18.1876C21.3328 18.1876 21.1508 18.2649 20.7992 18.4937C20.5829 18.6348 20.3298 18.798 20.0474 18.9785C19.8058 19.1324 19.4786 19.2766 19.0745 19.4071C18.6802 19.5347 18.2798 19.5994 17.8847 19.5994C17.4895 19.5994 17.0893 19.5347 16.6946 19.4071C16.2909 19.2767 15.9637 19.1325 15.7224 18.9786C15.4426 18.7998 15.1894 18.6367 14.9698 18.4936C14.6187 18.2647 14.4365 18.1875 14.2483 18.1875C13.7689 18.1875 13.321 18.2687 12.9169 18.4288C12.5114 18.5893 12.1605 18.8097 11.8736 19.0841C11.5998 19.3463 11.3554 19.6647 11.1478 20.0303C10.9476 20.3827 10.7855 20.7502 10.6663 21.1229C10.551 21.4831 10.4547 21.8772 10.3799 22.2941C10.3057 22.7074 10.2554 23.0994 10.2305 23.4596C10.206 23.8124 10.1936 24.1785 10.1936 24.5484C10.1936 25.5108 10.4996 26.29 11.1029 26.8646C11.6988 27.4317 12.4873 27.7194 13.4461 27.7194H22.3241C23.2829 27.7194 24.0711 27.4318 24.6672 26.8646C25.2706 26.2904 25.5766 25.5111 25.5766 24.5482C25.5765 24.1767 25.5639 23.8103 25.5393 23.4591Z" fill="#DB284E"/>
</g>
<defs>
<clipPath id="clip0_11006_236322">
<rect width="18.4381" height="18.4381" fill="white" transform="translate(8.68115 9.28101)"/>
</clipPath>
</defs>
</svg>
