<svg width="36" height="36" viewBox="0 0 36 36" fill="none" xmlns="http://www.w3.org/2000/svg">
<g clip-path="url(#clip0_11015_236725)">
<path fill-rule="evenodd" clip-rule="evenodd" d="M28.8281 0C29.4107 0 29.8828 0.472137 29.8828 1.05469V15.0488C33.5646 16.8907 36 20.6721 36 24.9434C36 31.0496 31.0496 36 24.9434 36C20.6721 36 16.8907 33.5646 15.0488 29.8828H1.05469C0.472137 29.8828 0 29.4107 0 28.8281V1.05469C0 0.472137 0.472137 0 1.05469 0H28.8281ZM19.9688 2.10938V8.02002C19.9688 8.77835 19.1596 9.362 18.3694 8.9231L14.9414 7.18121L11.4425 8.95935C10.7402 9.31503 9.91599 8.79593 9.91653 8.02002L9.91406 2.10938H2.10938V27.7734H14.2526C13.2317 23.9079 14.3797 19.8707 17.1252 17.1252C19.8707 14.3797 23.9079 13.2317 27.7734 14.2526V2.10938H19.9688ZM18.6166 18.6166C15.1227 22.1108 15.1227 27.7762 18.6166 31.2701C22.1108 34.7643 27.7762 34.7643 31.2701 31.2701C34.7643 27.7762 34.7643 22.1108 31.2701 18.6166C27.7762 15.1227 22.1105 15.1227 18.6166 18.6166ZM17.8594 2.10938H12.0234V6.30396L14.4651 5.06305C14.7533 4.91693 15.1046 4.90512 15.4152 5.06168L17.8594 6.30396V2.10938Z" fill="black"/>
<path d="M30.6065 25.5036C30.6065 26.6742 30.0899 28.0447 29.5 28.5C29.0748 29.1161 27.2497 29.6518 24.0673 29.6518H21.6065C21.024 29.6518 20.5518 29.1796 20.5518 28.5971C20.5518 28.0145 21.024 27.5424 21.6065 27.5424H26.5281C27.6114 27.5424 28.4971 26.6566 28.4971 25.5734C28.4971 24.4475 27.6701 23.5346 26.5281 23.5346H23.5972L24.2169 24.16C25.1977 25.1353 23.7145 26.6267 22.7337 25.6514L20.3101 23.2324C19.8981 22.8229 19.8965 22.1569 20.306 21.7452L22.7249 19.3219C23.7002 18.3411 25.1916 19.8239 24.2163 20.805L23.5972 21.4252H26.5281C28.7759 21.4252 30.6065 23.2558 30.6065 25.5036Z" fill="#DB284E"/>
</g>
<defs>
<clipPath id="clip0_11015_236725">
<rect width="36" height="36" fill="white"/>
</clipPath>
</defs>
</svg>
