<svg width="38" height="38" viewBox="0 0 38 38" fill="none" xmlns="http://www.w3.org/2000/svg">
<path d="M12.9331 27.6111L21.5378 19.0062L23.4585 18.4842C23.4667 18.4821 23.4752 18.4795 23.4831 18.4769C24.0297 18.302 24.4574 17.8725 24.6301 17.3252L25.644 14.0032C25.7087 13.7911 25.6511 13.5606 25.4943 13.4038L24.5949 12.5045C24.4382 12.3476 24.2076 12.29 23.9955 12.3548L20.6671 13.3708C20.1148 13.5487 19.6844 13.9855 19.5146 14.5403L18.9925 16.4609L10.3875 25.0656L8.69052 23.3686C8.57802 23.256 8.42545 23.1928 8.26633 23.1928C8.10721 23.1928 7.95464 23.256 7.84214 23.3686L6.56948 24.6412C6.45698 24.7537 6.3937 24.9063 6.3937 25.0654V26.7625C6.39377 26.9217 6.45698 27.0742 6.56948 27.1867L1.9186 31.8377C0.748813 33.0099 0.748813 34.9079 1.9186 36.0801C3.09078 37.2501 4.98886 37.2501 6.16111 36.0801L10.812 31.4292C10.9245 31.5417 11.0771 31.605 11.2362 31.605H12.9333C13.0924 31.605 13.245 31.5417 13.3575 31.4292L14.6302 30.1566C14.7427 30.0441 14.8059 29.8915 14.8059 29.7324C14.8059 29.5733 14.7427 29.4207 14.6302 29.3082L12.9331 27.6111ZM19.9537 17.1966C20.0278 17.1228 20.0811 17.0307 20.1083 16.9297L20.665 14.8795C20.7182 14.7072 20.8522 14.5717 21.0239 14.5165L24.0013 13.6077L24.391 13.9974L23.4842 16.9684C23.4312 17.1392 23.2989 17.2739 23.1292 17.3302L21.069 17.8904C20.968 17.9176 20.8759 17.971 20.8021 18.0451L12.0849 26.7626L11.2361 25.9139L19.9537 17.1966ZM5.31258 35.2317C4.60017 35.9114 3.47939 35.9114 2.76699 35.2317C2.06422 34.5287 2.06422 33.3892 2.76699 32.6861L7.41787 28.0353L9.96346 30.5809L5.31258 35.2317ZM12.6848 30.4051H11.4845L11.2361 30.1567L7.84207 26.7626L7.59365 26.5142V25.3139L8.26633 24.6412L13.3575 29.7324L12.6848 30.4051Z" fill="#DB284E" stroke="#DB284E" stroke-width="0.8"/>
<path d="M36.9003 17.0987C36.8762 16.8782 36.7326 16.689 36.5268 16.6065L32.8761 15.1463C32.5622 14.0201 32.111 12.9367 31.5326 11.9207L33.0874 8.29844C33.1753 8.09369 33.1424 7.85716 33.0021 7.68412C32.6245 7.21802 32.1973 6.74313 31.7275 6.26705C31.2566 5.80242 30.7817 5.37527 30.3156 4.99763C30.1426 4.85728 29.906 4.82445 29.7013 4.91241L26.079 6.46708C25.0629 5.88869 23.9796 5.43743 22.8534 5.12356L21.3932 1.47287C21.3107 1.26706 21.1215 1.12342 20.901 1.0993C19.6371 0.9669 18.3628 0.9669 17.0989 1.0993C16.8785 1.12342 16.6893 1.26699 16.6067 1.4728L15.1465 5.12349C14.0203 5.43743 12.937 5.88862 11.9209 6.46701L8.29866 4.91227C8.09398 4.82417 7.85724 4.857 7.68434 4.99756C7.21824 5.3752 6.74335 5.80235 6.26727 6.27225C5.80264 6.74306 5.3755 7.21795 4.99785 7.68405C4.85751 7.85709 4.82467 8.09369 4.91256 8.29844L6.46731 11.9207C5.88892 12.9368 5.43765 14.0201 5.12378 15.1463L1.47316 16.6065C1.26736 16.689 1.12378 16.8782 1.09966 17.0987C1.03209 17.7301 0.998903 18.3647 1.00003 18.9998C1.00003 19.3312 1.26862 19.5997 1.6 19.5997H8.19994C8.53133 19.5997 8.79992 19.3312 8.79992 18.9998C8.79992 13.3665 13.3666 8.79977 18.9999 8.79977C24.6332 8.79977 29.1999 13.3665 29.1999 18.9998C29.1999 24.6331 24.6333 29.1997 18.9999 29.1997C18.6685 29.1997 18.4 29.4683 18.4 29.7997V36.3997C18.4 36.7311 18.6685 36.9997 18.9999 36.9997C19.6349 37.0009 20.2696 36.9676 20.901 36.9C21.1215 36.8759 21.3107 36.7323 21.3932 36.5265L22.8534 32.8758C23.9796 32.5619 25.063 32.1107 26.079 31.5323L29.7013 33.0871C29.9061 33.1745 30.1424 33.1417 30.3156 33.0018C30.7817 32.6242 31.2566 32.197 31.733 31.7269C32.1988 31.2546 32.626 30.7797 33.0021 30.3153C33.1425 30.1423 33.1753 29.9057 33.0874 29.701L31.5326 26.0787C32.111 25.0626 32.5623 23.9793 32.8761 22.8531L36.5268 21.3929C36.7326 21.3104 36.8763 21.1212 36.9003 20.9007C37.0332 19.6369 37.0332 18.3625 36.9003 17.0987ZM35.7419 20.4145L32.151 21.8509C31.9731 21.9221 31.8397 22.074 31.7924 22.2599C31.4804 23.4804 30.9935 24.6494 30.3466 25.7303C30.2481 25.8954 30.2347 26.0977 30.3105 26.2744L31.8398 29.8372C31.5468 30.1825 31.2255 30.5323 30.8841 30.8787C30.535 31.2235 30.184 31.5455 29.8373 31.8396L26.2745 30.3104C26.0979 30.2345 25.8956 30.2479 25.7305 30.3464C24.6495 30.9932 23.4805 31.4802 22.26 31.7923C22.0743 31.8396 21.9223 31.9729 21.851 32.1509L20.4146 35.7418C20.1489 35.7643 19.8767 35.7802 19.5999 35.7895V30.3843C25.7317 30.061 30.5059 24.9392 30.3981 18.7998C30.2903 12.6604 25.3393 7.70936 19.1999 7.60157C13.0605 7.49379 7.93873 12.2679 7.61551 18.3997H2.21024C2.2196 18.1228 2.23542 17.8507 2.25799 17.5849L5.84891 16.1485C6.02687 16.0773 6.16018 15.9253 6.2075 15.7395C6.51948 14.519 7.00646 13.35 7.65334 12.269C7.75184 12.104 7.7652 11.9017 7.68941 11.725L6.16011 8.16217C6.45395 7.81589 6.77506 7.4658 7.1158 7.12064C7.46497 6.77583 7.81597 6.45387 8.16261 6.15968L11.7254 7.68897C11.902 7.76498 12.1044 7.75162 12.2695 7.6529C13.3505 7.0061 14.5195 6.51912 15.74 6.20707C15.9257 6.15975 16.0777 6.02644 16.149 5.84848L17.5854 2.25755C18.527 2.18077 19.4733 2.18077 20.4149 2.25755L21.8513 5.84848C21.9225 6.02644 22.0745 6.15975 22.2603 6.20707C23.4809 6.51904 24.6498 7.00603 25.7308 7.6529C25.8958 7.75155 26.0982 7.76491 26.2749 7.68897L29.8377 6.15968C30.184 6.45351 30.534 6.77463 30.8792 7.11536C31.224 7.46454 31.546 7.81553 31.8402 8.16217L30.3109 11.725C30.235 11.9016 30.2484 12.1039 30.3469 12.269C30.9937 13.3501 31.4807 14.519 31.7928 15.7395C31.8402 15.9253 31.9734 16.0773 32.1514 16.1485L35.7423 17.5849C35.7807 18.0405 35.8004 18.5148 35.8004 18.9997C35.7999 19.4846 35.7803 19.9589 35.7419 20.4145Z" fill="black" stroke="#0F0F0F" stroke-width="0.8" stroke-linejoin="round"/>
</svg>
