<svg width="19" height="18" viewBox="0 0 19 18" fill="none" xmlns="http://www.w3.org/2000/svg">
<path d="M15.53 8.78643C15.6554 8.64077 15.7441 8.46717 15.7887 8.28018C16.0374 6.6408 15.8351 4.96464 15.2037 3.43143C15.1462 3.2784 15.056 3.13973 14.9394 3.0251C14.8228 2.91047 14.6827 2.82263 14.5287 2.76768C12.9973 2.12949 11.3192 1.92704 9.67995 2.18268C9.49294 2.2209 9.31872 2.30607 9.1737 2.43018C6.63886 4.56595 4.28 6.90224 2.11995 9.41643C1.95158 9.61858 1.85937 9.87335 1.85938 10.1364C1.85938 10.3995 1.95158 10.6543 2.11995 10.8564C3.58975 12.72 5.27384 14.4041 7.13745 15.8739C7.34043 16.0453 7.59747 16.1392 7.86308 16.1392C8.12869 16.1392 8.38573 16.0453 8.5887 15.8739C11.0965 13.7108 13.4289 11.3522 15.5637 8.82018L15.53 8.78643ZM11.9975 5.97393C11.8785 5.85574 11.784 5.71529 11.7194 5.56058C11.6547 5.40588 11.6212 5.23995 11.6207 5.07229C11.6202 4.90462 11.6527 4.73849 11.7163 4.58338C11.78 4.42828 11.8736 4.28724 11.9918 4.16831C12.11 4.04938 12.2505 3.9549 12.4052 3.89025C12.5599 3.8256 12.7258 3.79206 12.8935 3.79154C13.0611 3.79102 13.2273 3.82352 13.3824 3.88721C13.5375 3.95089 13.6785 4.04449 13.7975 4.16268C14.0345 4.40452 14.1673 4.72967 14.1673 5.06831C14.1673 5.40695 14.0345 5.73209 13.7975 5.97393C13.6794 6.09231 13.5391 6.18622 13.3847 6.2503C13.2302 6.31438 13.0647 6.34737 12.8975 6.34737C12.7303 6.34737 12.5647 6.31438 12.4103 6.2503C12.2558 6.18622 12.1155 6.09231 11.9975 5.97393Z" fill="white" stroke="#DB284E" stroke-width="0.75" stroke-miterlimit="10"/>
<path d="M8.21812 7.71697C8.31548 7.80005 8.39321 7.90368 8.44573 8.02039C8.49825 8.1371 8.52425 8.264 8.52187 8.39197C8.52798 8.46684 8.52798 8.54209 8.52187 8.61697C8.48026 8.86308 8.37122 9.09284 8.20687 9.28072C8.02039 9.4771 7.78268 9.61739 7.52062 9.68571L8.10562 11.1482H7.09312L6.55313 9.75322H6.33938L6.12563 11.1482H5.20312L5.84438 7.45822H7.35187C7.66246 7.43646 7.97035 7.52843 8.21812 7.71697ZM7.59937 8.54947C7.60118 8.50067 7.59201 8.45208 7.57254 8.4073C7.55307 8.36252 7.5238 8.32268 7.48687 8.29072C7.39743 8.22117 7.28456 8.18892 7.17187 8.20072H6.60937L6.45187 9.12321H7.00313C7.1448 9.12918 7.28409 9.0854 7.39687 8.99947C7.49863 8.9132 7.56641 8.79358 7.58812 8.66197C7.58942 8.62426 7.59318 8.58668 7.59937 8.54947Z" fill="#FF792F"/>
<path d="M10.3775 8.30249C10.5511 8.21313 10.7449 8.17048 10.94 8.17874C11.0816 8.17368 11.2227 8.19806 11.3544 8.25035C11.4861 8.30263 11.6054 8.38168 11.705 8.48249C11.9071 8.71583 12.0118 9.01789 11.9975 9.32624C12.0075 9.44228 12.0075 9.55896 11.9975 9.67499C11.9488 9.96015 11.8416 10.2321 11.6825 10.4737C11.5429 10.6909 11.354 10.872 11.1312 11.0025C10.9224 11.1221 10.6856 11.1842 10.445 11.1825C10.2643 11.191 10.0848 11.1481 9.9275 11.0587C9.79653 10.982 9.69093 10.8686 9.62375 10.7325L9.2975 12.5437H8.375L9.12875 8.21249H10.0288L9.95 8.62874C10.0669 8.48997 10.2128 8.37859 10.3775 8.30249ZM11.075 9.51749C11.0751 9.4476 11.061 9.37841 11.0336 9.31411C11.0062 9.24982 10.966 9.19173 10.9156 9.14337C10.8651 9.09501 10.8054 9.05738 10.74 9.03273C10.6745 9.00809 10.6048 8.99695 10.535 8.99999C10.3562 9.00432 10.1847 9.07211 10.0512 9.19124C9.90183 9.33628 9.80319 9.52566 9.77 9.73124C9.76444 9.78735 9.76444 9.84388 9.77 9.89999C9.76529 9.97392 9.77585 10.048 9.80101 10.1177C9.82617 10.1874 9.8654 10.2511 9.91625 10.305C9.965 10.3532 10.023 10.3911 10.0869 10.4162C10.1507 10.4414 10.2189 10.4533 10.2875 10.4512C10.4724 10.4498 10.6496 10.3773 10.7825 10.2487C10.9339 10.1098 11.0331 9.92318 11.0638 9.71999C11.0753 9.65315 11.0791 9.5852 11.075 9.51749Z" fill="#FF792F"/>
<path d="M13.0547 5.00648C13.5159 5.70398 14.7647 5.68148 15.8559 5.00648C16.9472 4.33148 17.4534 3.13898 16.9809 2.44148C16.5084 1.74398 15.3722 1.76648 14.3259 2.44148" stroke="#DB284E" stroke-width="0.75" stroke-miterlimit="10" stroke-linecap="round"/>
<path d="M13.6055 2.02539C14.1281 2.17487 14.6364 2.37065 15.1242 2.61039L14.2355 3.00414L13.628 2.83539L13.6055 2.02539Z" fill="#DB284E"/>
</svg>
