<svg width="256" height="172" viewBox="0 0 256 172" fill="none" xmlns="http://www.w3.org/2000/svg">
<g clip-path="url(#clip0_7771_168335)">
<path d="M247.9 0.200012H8.1C5.95175 0.200012 3.89148 1.0534 2.37244 2.57245C0.85339 4.09149 0 6.15176 0 8.30001L0 57.93L26.52 51L33.11 49.29C35.9429 47.1463 38.9889 45.2999 42.2 43.78C44.59 41.46 47.47 33.86 50.33 26.54C55.81 29.54 53.67 36 50.96 42.67C60.3 41.62 64.69 45.78 63.96 51.54C64.4003 52.2797 64.5626 53.152 64.4178 54.0005C64.273 54.849 63.8307 55.6182 63.17 56.17C64.32 57.83 64.02 59.61 62.9 61.44C66.05 65.59 59.68 69.81 52.8 66.44L52.68 66.66L52.57 66.59C49.33 69 45 69.5 39.84 68.76L27.74 73.51L17.26 78.23C25.5143 79.33 33.3293 82.5992 39.9082 87.7042C46.4871 92.8092 51.5946 99.5675 54.71 107.29C57.5883 106.509 60.5575 106.112 63.54 106.11C67.9367 106.092 72.2931 106.949 76.3552 108.631C80.4173 110.314 84.1039 112.788 87.2 115.91L85.39 113.26C85.39 113.26 84.39 110.81 86.13 106.89L85.52 105.4C84.46 102.81 83.34 100.02 82.52 97.92C79.96 96.51 77.73 93.92 76.15 89.53C76.0257 89.1935 75.9765 88.8338 76.0058 88.4762C76.0352 88.1186 76.1424 87.7718 76.32 87.46L77.7 85.11C78.1892 84.2683 78.4221 83.3021 78.37 82.33L78.24 79.49C78.2332 79.3081 78.2938 79.1301 78.41 78.99C77.3347 76.8824 76.4479 74.6839 75.76 72.42C75.6768 72.1448 75.6911 71.8493 75.8004 71.5833C75.9097 71.3174 76.1073 71.0972 76.36 70.96C77.97 70.23 80.36 73.96 83.29 79.65L85.44 79.78C86.3463 79.8312 87.1983 80.2286 87.82 80.89L90 83.15C90.424 83.5918 90.733 84.1309 90.9 84.72C91.4471 86.6191 91.5969 88.6105 91.34 90.57L93.62 93.57L94.62 94.89C95.62 96.09 96.54 97.14 97.31 98.06C97.9591 94.7896 98.8243 91.5659 99.9 88.41C99.9 88.3 99.98 88.18 100.03 88.06C104.03 76.46 111.31 67.72 129.16 64.72L130.08 59.81C130.08 59.81 124.97 64.81 122.24 58.56C120.88 55.46 121.18 50.56 121.99 45.95C114.43 42.35 116.84 29.06 125.63 31.76C130.99 25.9 140.19 25.13 145.88 30.76C151.95 36.24 149.31 42.58 146.23 47.5C146.093 48.3553 145.773 49.1708 145.292 49.8906C144.81 50.6105 144.178 51.2175 143.44 51.67C142.77 52.5319 142.268 53.5123 141.96 54.56C140.43 64.94 141.96 64.06 141.96 64.06C149.754 64.6104 157.283 67.1177 163.85 71.35C166.306 72.9655 168.27 75.2243 169.53 77.88C174.45 88.01 176.75 96.88 178.65 106.14L179.99 111.76C181.72 119.07 176.25 126.02 169.39 125.22L165.94 124.8C166.59 128.12 167.19 131.41 167.74 134.71C167.92 135.76 168.09 136.81 168.26 137.87C171.947 134.477 176.779 132.601 181.79 132.62C183.283 132.624 184.772 132.789 186.23 133.11C186.948 127.299 189.183 121.779 192.712 117.106C196.24 112.433 200.937 108.771 206.33 106.49C206.549 104.913 207.209 103.43 208.233 102.211C209.257 100.992 210.604 100.087 212.12 99.6L213.12 104.3C215.621 103.765 218.172 103.493 220.73 103.49C235.58 103.49 248.26 112.42 253.21 124.96C254.125 124.715 255.053 124.521 255.99 124.38V86.31L225 67.7L214 61.61C208 61.67 203.08 60.4 199.73 57.19L199.61 57.24L199.5 56.99C191.1 59.85 184.43 54.04 188.67 49.76C187.67 47.49 187.59 45.41 189.16 43.68C188.49 42.9469 188.101 41.9995 188.065 41.0067C188.028 40.014 188.345 39.0405 188.96 38.26C188.96 31.55 194.64 27.44 205.2 30.07C203.1 22.01 201.62 14.32 208.38 11.66C210.54 20.49 212.69 29.66 215.08 32.66C219.08 35.42 222.61 38.07 224.66 40.35L231.15 43L256 52.48V8.30001C256 6.15176 255.147 4.09149 253.628 2.57245C252.109 1.0534 250.048 0.200012 247.9 0.200012ZM113.9 49.68C108.65 51.07 104.37 50.68 100.75 49.17C96.1272 52.595 90.3886 54.1631 84.6665 53.5649C78.9443 52.9667 73.6541 50.2456 69.8397 45.9386C66.0252 41.6315 63.9635 36.0512 64.0612 30.2987C64.159 24.5462 66.4092 19.0392 70.3678 14.8643C74.3264 10.6893 79.706 8.14959 85.4452 7.74618C91.1844 7.34278 96.8664 9.10499 101.37 12.6851C105.874 16.2653 108.872 21.4033 109.774 27.0856C110.675 32.7679 109.414 38.5817 106.24 43.38C108.26 45.9252 110.916 47.8916 113.94 49.08C114 49.1056 114.051 49.1492 114.086 49.2047C114.121 49.2602 114.138 49.3251 114.134 49.3905C114.131 49.4559 114.108 49.5188 114.068 49.5705C114.028 49.6223 113.973 49.6605 113.91 49.68H113.9ZM160.7 19.48L163 20.84L155.31 26.78L160.7 19.48ZM164.5 34.34L156.86 30.55L164.71 32L164.5 34.34ZM156.5 28.76L167 24.38L168.6 27.38L156.5 28.76Z" fill="#FBE9ED"/>
<path d="M134.82 68.51C132.19 68.12 130.11 65.92 129.4 65.08C131.13 67.33 133 68.35 134.82 68.51Z" fill="#EB92A7"/>
<path d="M139.26 67.18C140.392 66.3474 141.311 65.2574 141.94 64C141.232 65.2038 140.326 66.279 139.26 67.18Z" fill="#EB92A7"/>
<path d="M220.74 103.48C218.182 103.483 215.631 103.755 213.13 104.29C215.04 113.07 216.99 121.29 219.27 124.39C223.85 127.74 227.92 130.96 230.27 133.69L256 143.1V124.37C255.063 124.511 254.135 124.705 253.22 124.95C248.27 112.41 235.59 103.48 220.74 103.48Z" fill="#F3BDCA"/>
<path d="M200.48 152.59H200.36L200.26 152.32C190.33 155.39 182.72 148.38 187.81 143.5C186.71 140.81 186.69 138.37 188.59 136.4C187.83 135.517 187.408 134.394 187.399 133.229C187.39 132.065 187.794 130.935 188.54 130.04C188.78 122.19 195.54 117.56 207.8 120.97C206.57 115.65 205.56 110.46 206.32 106.43C200.927 108.711 196.23 112.373 192.701 117.046C189.173 121.719 186.937 127.239 186.22 133.05C184.762 132.729 183.273 132.564 181.78 132.56C176.769 132.541 171.937 134.417 168.25 137.81C169.05 142.81 169.79 147.81 170.54 153C168.761 153.622 166.94 154.113 165.09 154.47C166.31 164.66 166.39 165.1 167.22 171.75H239.68L219.11 157.39C215.858 158.31 212.419 158.35 209.146 157.507C205.873 156.664 202.883 154.967 200.48 152.59Z" fill="#F3BDCA"/>
<path d="M109.62 157.63C107.91 157.47 106.15 157.26 104.35 156.98C104.42 156.32 104.5 155.66 104.58 154.98C100.66 154.14 96.55 153.34 92.25 152.58C94.5825 148.446 95.919 143.825 96.1533 139.085C96.3877 134.344 95.5134 129.614 93.6 125.27L87.2 115.89C84.1039 112.768 80.4173 110.294 76.3552 108.611C72.2931 106.929 67.9367 106.072 63.54 106.09C60.5575 106.092 57.5883 106.489 54.71 107.27C51.5918 99.5512 46.483 92.797 39.9043 87.6956C33.3256 82.5943 25.5121 79.3281 17.26 78.23L0 86V138L15.6 131.74L15.88 131.98L23.88 128.11C26.4981 125.387 29.3863 122.938 32.5 120.8C34.62 117.96 36.36 109.49 38.13 101.31C44.4 103.59 43.24 110.69 41.52 118.16C51.15 115.48 56.46 119.16 56.64 125.28C57.2351 125.977 57.5621 126.863 57.5621 127.78C57.5621 128.697 57.2351 129.583 56.64 130.28C58.14 131.83 58.12 133.74 57.25 135.85C61.25 139.69 55.25 145.2 47.48 142.78L47.4 143L47.29 142.95C44.29 146.01 39.81 147.31 34.29 147.4L29.52 150.47C30.1 153.83 28.98 155.54 28.98 155.54L3.23 170.16C4.62881 171.227 6.34049 171.804 8.1 171.8H108.62C108.486 167.055 108.821 162.309 109.62 157.63Z" fill="#F3BDCA"/>
<path d="M86.1302 106.89C84.4302 110.81 85.3902 113.26 85.3902 113.26C86.1302 112.26 86.8502 111.26 87.5602 110.26C87.1502 109.34 86.6602 108.17 86.1302 106.89Z" fill="#D7244F"/>
<path d="M79.43 77.9C79.5179 77.8133 79.6364 77.7647 79.76 77.7647C79.8835 77.7647 80.002 77.8133 80.0899 77.9L82.21 79.63L83.2699 79.69C80.3499 74 77.9999 70.23 76.3399 71C76.0873 71.1372 75.8896 71.3574 75.7803 71.6233C75.6711 71.8893 75.6568 72.1848 75.74 72.46C76.4295 74.7136 77.3162 76.9021 78.39 79L79.43 77.9Z" fill="#F2AA91"/>
<path d="M88.37 90.46L86.29 85.23L84.88 83.41C82.15 83.23 81.8 79.56 81.8 79.56H82.21L80.09 77.83C80.002 77.7433 79.8835 77.6946 79.76 77.6946C79.6365 77.6946 79.5179 77.7433 79.43 77.83L78.43 78.83C78.3137 78.9701 78.2532 79.1481 78.26 79.33L78.39 82.17C78.442 83.1421 78.2092 84.1083 77.72 84.95L76.3 87.46C76.1224 87.7717 76.0152 88.1186 75.9858 88.4762C75.9564 88.8337 76.0056 89.1934 76.13 89.53C77.71 93.96 79.94 96.53 82.5 97.92L81.15 94.54L88.37 90.46Z" fill="#F2AA91"/>
<path d="M81.7998 79.56C81.7998 79.56 82.1498 83.23 84.8798 83.41L86.2898 85.23L88.3698 90.46L90.3698 89.33L91.3198 90.57C91.5767 88.6105 91.4269 86.619 90.8798 84.72C90.7128 84.1309 90.4038 83.5918 89.9798 83.15L87.7998 80.89C87.1781 80.2285 86.3261 79.8312 85.4198 79.78L83.2698 79.65L82.2098 79.59L81.7998 79.56Z" fill="#F2AA91"/>
<path d="M91.3199 90.57L90.3699 89.33L88.3699 90.46L81.1499 94.54L82.4999 97.92C83.3399 100.02 84.4999 102.81 85.4999 105.4L93.5999 93.55L91.3199 90.57Z" fill="#F2AA91"/>
<path d="M94.6 94.87L93.6 93.55L85.52 105.4L86.13 106.89C86.66 108.17 87.13 109.34 87.56 110.3C90.83 105.71 93.67 100.87 94.6 94.87Z" fill="#F2AA91"/>
<path opacity="0.1" d="M94.6 94.87L93.6 93.55L85.52 105.4L86.13 106.89C86.66 108.17 87.13 109.34 87.56 110.3C90.83 105.71 93.67 100.87 94.6 94.87Z" fill="#020202"/>
<path d="M135.91 154.44L134.37 136.16C133.011 136.11 131.656 135.99 130.31 135.8C129.152 143.017 127.338 150.113 124.89 157C119.862 157.989 114.714 158.208 109.62 157.65C108.821 162.329 108.486 167.075 108.62 171.82H138.53C138.28 170.86 137.17 166.28 135.91 154.44Z" fill="#515151"/>
<path d="M149.89 155.48C147.832 148.836 146.179 142.074 144.94 135.23C141.467 135.962 137.918 136.274 134.37 136.16L135.91 154.44C137.17 166.28 138.28 170.86 138.53 171.8H167.22C166.39 165.15 166.31 164.71 165.09 154.52C160.081 155.451 154.977 155.774 149.89 155.48Z" fill="#3F3F3F"/>
<path d="M143 122.06C143.005 122.04 143.005 122.02 143 122L136.77 121.25L137.56 115.25C135.879 115.291 134.2 115.124 132.56 114.75C132.2 121.787 131.443 128.798 130.29 135.75C131.636 135.94 132.991 136.06 134.35 136.11C137.898 136.224 141.447 135.912 144.92 135.18C144.147 130.887 143.507 126.513 143 122.06Z" fill="white"/>
<path d="M139.26 67.18C138.658 67.7058 137.95 68.0965 137.184 68.3259C136.418 68.5553 135.612 68.6181 134.82 68.51C133.02 68.35 131.13 67.33 129.4 65.08L129.29 64.94C131.53 76.3035 132.721 87.8486 132.85 99.43C135.073 100.392 137.202 101.557 139.21 102.91V102.65L141.21 102.83C140.304 89.9059 140.569 76.9264 142 64.05C141.348 65.2958 140.409 66.3686 139.26 67.18Z" fill="white"/>
<path d="M121.38 41.87L123.75 33.61L135.65 27.72L142.47 35.77L142.11 40.54L140.8 43.06H140.75C140.938 44.0301 141.055 45.0127 141.1 46C141.1 46 141.43 38.2 145.1 43.78C145.881 44.8468 146.273 46.1492 146.21 47.47C149.29 42.55 151.93 36.21 145.86 30.73C140.17 25.11 130.97 25.88 125.61 31.73C116.82 29.03 114.41 42.32 121.97 45.92C122.22 44.48 122.52 43.08 122.83 41.75C122.37 41.81 121.88 41.84 121.38 41.87Z" fill="#221F20"/>
<path d="M141.94 54.53C142.248 53.4823 142.75 52.5019 143.42 51.64C143.061 51.897 142.679 52.1212 142.28 52.31C142.15 53.1 142 53.84 141.94 54.53Z" fill="#221F20"/>
<path d="M116.37 101.61L114.31 118.4L113.31 119.68L108.89 125.54C107.09 135.01 105.7 144.88 104.55 155C104.47 155.66 104.39 156.32 104.32 157C106.12 157.28 107.88 157.49 109.59 157.65C114.684 158.208 119.832 157.989 124.86 157C127.306 150.119 129.121 143.03 130.28 135.82C131.433 128.868 132.19 121.857 132.55 114.82C131.47 114.567 130.433 114.16 129.47 113.61C128.785 113.205 128.028 112.936 127.24 112.82L125.54 112.58C125.278 112.579 125.026 112.475 124.84 112.29C124.26 111.81 123.67 110.49 124.08 109.78L124.62 108.88C124.627 108.868 124.631 108.855 124.632 108.842C124.633 108.829 124.631 108.816 124.626 108.803C124.621 108.791 124.614 108.779 124.604 108.77C124.594 108.761 124.583 108.754 124.57 108.75L124.2 108.65C123.897 108.554 123.625 108.378 123.414 108.141C123.202 107.903 123.059 107.612 123 107.3C122.98 107.137 122.98 106.973 123 106.81C123.02 106.476 123.13 106.154 123.318 105.877C123.507 105.601 123.766 105.38 124.07 105.24C124.141 105.18 124.187 105.094 124.198 105.002C124.209 104.909 124.185 104.815 124.13 104.74L123.43 103.74C123.228 103.453 123.093 103.125 123.032 102.779C122.972 102.433 122.988 102.079 123.08 101.74V101.64C123.127 101.431 123.239 101.242 123.401 101.101C123.563 100.961 123.766 100.876 123.98 100.86L127.83 100.59C121.24 95.53 120 93.08 121.99 92.21L130.99 98.64C131.61 98.88 132.2 99.15 132.79 99.41C132.661 87.8286 131.47 76.2835 129.23 64.92L129.07 64.72C111.29 67.7 104 76.44 100 88C99.95 88.12 99.91 88.24 99.87 88.35C98.7978 91.5061 97.9359 94.7298 97.29 98C100.54 101.93 101.59 103.48 101.59 103.48L116.37 101.61Z" fill="#DB284E"/>
<path d="M141.26 102.83L178.64 106.13C176.74 96.92 174.44 88 169.52 77.87C168.26 75.2143 166.295 72.9555 163.84 71.34C157.287 67.1156 149.776 64.6086 142 64.05C140.585 76.928 140.338 89.9074 141.26 102.83Z" fill="#DB284E"/>
<path d="M143 122C143.005 122.02 143.005 122.04 143 122.06C143.5 126.513 144.147 130.903 144.94 135.23C146.179 142.074 147.832 148.836 149.89 155.48C154.978 155.76 160.082 155.425 165.09 154.48C166.94 154.123 168.761 153.632 170.54 153.01C169.79 147.82 169.05 142.8 168.25 137.82C168.08 136.76 167.91 135.71 167.73 134.66C167.18 131.36 166.58 128.07 165.93 124.75L143 122Z" fill="#DB284E"/>
<path d="M93.75 125.49C94.5726 126.783 95.705 127.849 97.0444 128.593C98.3839 129.337 99.8879 129.735 101.42 129.75C102.835 129.716 104.223 129.352 105.473 128.687C106.723 128.022 107.8 127.074 108.62 125.92L108.92 125.54L113.34 119.68L114.34 118.4L116.4 101.61L101.62 103.52C101.62 103.52 100.62 101.97 97.32 98.04C96.55 97.12 95.66 96.04 94.63 94.87C93.7 100.87 90.86 105.71 87.63 110.3C86.92 111.3 86.2 112.3 85.46 113.3L87.27 115.95L93.67 125.33L93.75 125.49Z" fill="#DB284E"/>
<path d="M139.21 102.91C137.201 101.557 135.072 100.392 132.85 99.43C132.26 99.17 131.67 98.9 131.05 98.66L122.05 92.23C120.05 93.1 121.3 95.55 127.89 100.61L124.04 100.88C123.826 100.896 123.623 100.981 123.461 101.121C123.299 101.262 123.186 101.451 123.14 101.66V101.76C123.048 102.099 123.032 102.453 123.092 102.799C123.152 103.145 123.288 103.473 123.49 103.76L124.19 104.76C124.245 104.836 124.269 104.929 124.258 105.022C124.247 105.114 124.201 105.2 124.13 105.26C123.826 105.4 123.566 105.621 123.378 105.897C123.19 106.174 123.08 106.496 123.06 106.83C123.04 106.993 123.04 107.157 123.06 107.32C123.119 107.632 123.262 107.923 123.474 108.161C123.685 108.398 123.957 108.574 124.26 108.67L124.63 108.77C124.643 108.774 124.654 108.781 124.664 108.79C124.673 108.799 124.681 108.811 124.686 108.823C124.691 108.836 124.692 108.849 124.691 108.862C124.69 108.875 124.687 108.888 124.68 108.9L124.14 109.8C123.73 110.51 124.32 111.8 124.9 112.31C125.086 112.495 125.338 112.599 125.6 112.6L127.3 112.84C128.087 112.956 128.845 113.225 129.53 113.63C130.493 114.18 131.53 114.587 132.61 114.84C134.249 115.213 135.929 115.381 137.61 115.34L139.21 102.91Z" fill="#F2AA91"/>
<path d="M141.26 102.83L139.26 102.65V102.91L137.6 115.3L136.81 121.3L143 122L165.94 124.79L169.39 125.21C176.25 126.01 181.72 119.06 179.99 111.75L178.65 106.13L141.26 102.83Z" fill="#DB284E"/>
<path d="M129.29 64.94L129.4 65.08C130.11 65.92 132.19 68.08 134.82 68.51C135.612 68.6181 136.418 68.5553 137.184 68.3259C137.95 68.0965 138.658 67.7058 139.26 67.18C140.327 66.279 141.233 65.2038 141.94 64C141.94 64 140.41 64.88 141.94 54.5C142.04 53.81 142.15 53.07 142.28 52.28C142.679 52.0912 143.061 51.867 143.42 51.61C144.159 51.1575 144.79 50.5505 145.272 49.8306C145.754 49.1108 146.074 48.2953 146.21 47.44C146.273 46.1192 145.881 44.8168 145.1 43.75C141.43 38.17 141.1 45.97 141.1 45.97C141.055 44.9861 140.938 44.0068 140.75 43.04C136.13 44.27 133.75 41.19 132.42 38.63C129.487 40.3477 126.214 41.4055 122.83 41.73C122.52 43.06 122.22 44.46 121.97 45.9C121.16 50.53 120.86 55.41 122.22 58.51C124.95 64.72 130.06 59.76 130.06 59.76L129.14 64.67L129.29 64.94Z" fill="#F2AA91"/>
<path d="M142.11 40.54L142.47 35.77L135.65 27.72L123.75 33.61L121.38 41.87C121.88 41.87 122.38 41.81 122.83 41.76C126.214 41.4355 129.486 40.3776 132.42 38.66C133.76 41.22 136.13 44.3 140.75 43.07H140.8L142.11 40.54Z" fill="#221F20"/>
<path d="M114 49.08C110.976 47.8916 108.32 45.9252 106.3 43.38C108.804 39.6185 110.137 35.1989 110.13 30.68C110.13 25.5053 108.385 20.4817 105.176 16.4215C101.968 12.3612 97.4846 9.50142 92.4502 8.30441C87.4158 7.10741 82.1248 7.64311 77.4325 9.82493C72.7402 12.0068 68.9207 15.7072 66.5915 20.3281C64.2623 24.949 63.5595 30.2204 64.5966 35.2902C65.6337 40.36 68.3501 44.9319 72.3068 48.2669C76.2636 51.6019 81.2294 53.5052 86.4015 53.6691C91.5737 53.833 96.65 52.2479 100.81 49.17C104.43 50.72 108.71 51.07 113.96 49.68C114.023 49.6617 114.079 49.6244 114.12 49.5733C114.161 49.5221 114.186 49.4595 114.19 49.394C114.194 49.3285 114.178 49.2632 114.144 49.2071C114.11 49.1509 114.06 49.1065 114 49.08ZM91.4299 42.26L84.3799 41.82L84.8299 34.82L91.8299 35.27L91.4299 42.26ZM75.7799 33.26L76.2299 26.26C78.6436 26.408 81.0176 25.5934 82.8319 23.9946C84.6463 22.3958 85.7531 20.1432 85.9099 17.73L92.9099 18.17C92.632 22.4432 90.6746 26.4328 87.4651 29.2676C84.2555 32.1024 80.0547 33.5521 75.7799 33.3V33.26Z" fill="white"/>
<path d="M230.24 133.69C227.92 130.96 223.85 127.69 219.24 124.39C216.96 121.31 215.01 113.07 213.1 104.29L212.1 99.59C210.585 100.077 209.237 100.982 208.213 102.201C207.189 103.42 206.529 104.903 206.31 106.48C205.55 110.48 206.56 115.7 207.79 121.02C195.52 117.61 188.79 122.24 188.53 130.09C187.784 130.984 187.38 132.115 187.389 133.279C187.399 134.444 187.82 135.567 188.58 136.45C186.68 138.45 186.7 140.86 187.8 143.55C182.71 148.43 190.32 155.44 200.25 152.37L200.35 152.64H200.47C202.868 155.026 205.856 156.732 209.129 157.584C212.403 158.436 215.844 158.404 219.1 157.49L239.67 171.85H247.89C250.038 171.85 252.099 170.997 253.618 169.478C255.137 167.958 255.99 165.898 255.99 163.75V143.1L230.24 133.69Z" fill="#E29C6D"/>
<g opacity="0.3">
<path opacity="0.3" d="M189.29 129.86L198 133.8C199.517 134.474 201.16 134.815 202.82 134.8C203.736 134.803 204.65 134.696 205.54 134.48C206.777 134.242 207.924 133.664 208.85 132.81V132.74V132.09H209.43V132.17C209.664 131.598 209.762 130.98 209.717 130.365C209.672 129.749 209.484 129.152 209.17 128.62C208.913 128.151 208.524 127.768 208.051 127.517C207.578 127.266 207.043 127.16 206.51 127.21L202.94 127.52L198.38 123.58L198 124L202.75 128.1L206.55 127.77C206.976 127.725 207.406 127.808 207.784 128.009C208.162 128.211 208.47 128.521 208.67 128.9C208.933 129.35 209.089 129.855 209.128 130.375C209.166 130.894 209.084 131.416 208.89 131.9C208.039 132.985 206.804 133.701 205.44 133.9C203.044 134.47 200.526 134.231 198.28 133.22L189.54 129.28L189.42 129.54L189.29 129.86Z" fill="#231F20"/>
<path opacity="0.3" d="M202.86 140.36C198.96 141.22 189.7 135.75 189.61 135.7L189.31 136.2C189.67 136.41 197.5 141.04 201.95 141.04C202.286 141.038 202.621 141.004 202.95 140.94C203.994 140.702 205.003 140.329 205.95 139.83L205.84 139.41C206.21 139.314 206.588 139.257 206.97 139.24C207.848 138.681 208.62 137.97 209.25 137.14C209.2 136.82 209.16 136.51 209.13 136.2C208.85 137 206.81 139.5 202.86 140.36Z" fill="#231F20"/>
<path opacity="0.3" d="M207 139.24C206.618 139.257 206.24 139.314 205.87 139.41L205.98 139.83V139.97C207.98 139.47 208.98 140.14 209.53 140.8C209.808 141.136 209.996 141.537 210.074 141.966C210.153 142.395 210.121 142.837 209.98 143.25C209.44 144.25 207.84 145.1 201.76 145.85C195.68 146.6 188.84 142.85 188.76 142.85L188.62 143.1L188.48 143.36C188.74 143.5 194.48 146.58 200.12 146.58C200.691 146.582 201.263 146.548 201.83 146.48C203.38 146.29 204.65 146.09 205.69 145.89L205.88 145.4C206.093 145.48 206.295 145.587 206.48 145.72C209.11 145.12 210.03 144.43 210.48 143.57C210.675 143.127 210.738 142.638 210.66 142.16C210.364 141.611 210.119 141.035 209.93 140.44C209.577 140.016 209.125 139.685 208.614 139.476C208.103 139.267 207.549 139.186 207 139.24Z" fill="#231F20"/>
<path opacity="0.3" d="M205.75 145.84C206.66 146.2 206.66 146.68 206.65 146.84C206.65 148.27 203.57 150.59 201.04 151.56L201.14 151.83L201.24 152.1H201.37C203.85 151.1 207.23 148.71 207.24 146.9C207.24 146.656 207.177 146.415 207.058 146.202C206.939 145.989 206.768 145.809 206.56 145.68C206.375 145.547 206.173 145.439 205.96 145.36L205.75 145.84Z" fill="#231F20"/>
<path opacity="0.3" d="M208.83 132.12V132.77V132.84C208.83 133.093 208.85 133.353 208.89 133.62C208.89 134.11 208.97 134.62 209.02 135.16C209.02 135.5 209.09 135.85 209.13 136.16C209.17 136.47 209.2 136.78 209.25 137.1C209.394 138.201 209.628 139.288 209.95 140.35C210.139 140.945 210.384 141.521 210.68 142.07C211.146 143.041 211.97 143.794 212.98 144.17L213.16 143.62C210.96 142.91 210.16 139.45 209.72 136.18C209.72 135.79 209.63 135.4 209.6 135.02C209.52 134.19 209.46 133.39 209.41 132.69V132.12V132.04L208.83 132.12Z" fill="#231F20"/>
</g>
<path d="M63.1601 56.2C63.8207 55.6482 64.2631 54.879 64.4079 54.0305C64.5527 53.182 64.3904 52.3097 63.9501 51.57C64.7001 45.81 60.3101 41.65 50.9501 42.7C53.6601 36.03 55.8001 29.61 50.3201 26.57C47.4601 33.89 44.5801 41.49 42.1901 43.81C38.979 45.3299 35.933 47.1763 33.1001 49.32L26.5201 51H26.8801C25.4398 58.4702 25.734 66.1714 27.7401 73.51L39.8401 68.76C44.9801 69.5 49.3301 68.96 52.5601 66.59L52.6701 66.66L52.7901 66.44C59.6701 69.84 66.0401 65.62 62.8901 61.44C64.0001 59.64 64.3101 57.86 63.1601 56.2Z" fill="#F9B384"/>
<g opacity="0.3">
<path opacity="0.3" d="M49.5102 51.32L49.4002 51.78V51.89L49.5202 52.05L49.8702 52.4C50.3795 52.848 50.9611 53.2064 51.5902 53.46C52.6526 53.8995 53.7906 54.1272 54.9402 54.13C55.7035 54.1301 56.4634 54.0292 57.2002 53.83L64.0002 52L63.8702 51.52L57.0002 53.35C55.2587 53.8073 53.4156 53.6844 51.7502 53C50.7907 52.6903 49.9835 52.0295 49.4902 51.15C49.4041 50.7766 49.4052 50.3883 49.4937 50.0154C49.5822 49.6424 49.7555 49.295 50.0002 49C50.1893 48.757 50.4453 48.5746 50.7366 48.4751C51.028 48.3756 51.3421 48.3634 51.6402 48.44L54.4002 49.13L58.4002 46.69L58.1402 46.27L54.3102 48.6L51.7602 48C51.3712 47.8998 50.9614 47.9155 50.5811 48.0452C50.2009 48.1749 49.8669 48.4129 49.6202 48.73C49.3299 49.0798 49.1246 49.492 49.0205 49.9345C48.9164 50.377 48.9163 50.8375 49.0202 51.28L49.5102 51.32Z" fill="#231F20"/>
<path opacity="0.3" d="M52.8801 58C51.9712 57.6988 51.1361 57.2091 50.4296 56.5629C49.723 55.9166 49.1609 55.1285 48.7801 54.25C48.7101 54.5 48.6301 54.75 48.5601 55C48.9024 55.6246 49.345 56.1887 49.8701 56.67C50.1827 56.7251 50.488 56.8157 50.7801 56.94L50.6301 57.3C51.2658 57.7763 51.9619 58.1664 52.7001 58.46C53.2653 58.6567 53.8618 58.7482 54.4601 58.73C57.8501 58.73 62.9901 56.73 63.2401 56.61L63.1601 56.38L63.0701 56.15C63.0001 56.17 55.6101 59.07 52.8801 58Z" fill="#231F20"/>
<path opacity="0.3" d="M49.5002 52C49.5002 52 49.3902 52.11 49.2902 52.23C49.2002 52.62 49.1002 53.03 48.9902 53.45C49.2312 53.0498 49.5199 52.6804 49.8502 52.35L49.5002 52Z" fill="#231F20"/>
<path opacity="0.3" d="M53.0003 62.11C48.6703 60.86 47.6003 60.11 47.3303 59.27C47.2789 58.9591 47.307 58.6402 47.4119 58.3429C47.5168 58.0457 47.6951 57.7799 47.9303 57.57C48.3 57.2675 48.7548 57.0876 49.2315 57.0553C49.7082 57.023 50.1831 57.14 50.5903 57.39V57.29L50.7403 56.93C50.4482 56.8057 50.1429 56.7151 49.8303 56.66C49.4655 56.5704 49.0854 56.5625 48.7172 56.6368C48.349 56.7111 48.0017 56.8659 47.7003 57.09C47.4671 57.5866 47.175 58.0533 46.8303 58.48C46.7415 58.8074 46.7415 59.1526 46.8303 59.48C47.0603 60.16 47.6503 60.77 49.4603 61.48C49.6303 61.389 49.812 61.3217 50.0003 61.28L50.0903 61.72C50.8303 61.99 51.7303 62.28 52.8303 62.6C53.9305 62.9058 55.0685 63.054 56.2103 63.04C58.5201 62.9992 60.81 62.6046 63.0003 61.87L62.9203 61.64L62.8403 61.4C62.7603 61.42 57.2303 63.34 53.0003 62.11Z" fill="#231F20"/>
<path opacity="0.3" d="M49.3804 62.33C49.3804 62.22 49.4504 61.89 50.1304 61.74L50.0004 61.26C49.8121 61.3017 49.6304 61.369 49.4604 61.46C49.3046 61.5357 49.1696 61.648 49.0668 61.7873C48.9641 61.9267 48.8966 62.0889 48.8704 62.26C48.6604 63.59 50.8704 65.74 52.5304 66.76L52.6404 66.82L52.7604 66.61L52.8804 66.4C51.1904 65.4 49.2304 63.33 49.3804 62.33Z" fill="#231F20"/>
<path opacity="0.3" d="M48.5602 55C48.6302 54.75 48.7102 54.5 48.7802 54.25C48.8502 54 48.9202 53.76 48.9802 53.51C49.0902 53.09 49.1902 52.68 49.2802 52.29L49.3702 51.9V51.79L49.4802 51.33L49.0002 51.2L48.9002 51.63C48.7802 52.14 48.6502 52.71 48.4902 53.3C48.4202 53.58 48.3402 53.86 48.2602 54.14C47.5902 56.47 46.5802 58.88 44.9102 59.14L44.9902 59.62C45.7374 59.4768 46.4022 59.055 46.8502 58.44C47.1948 58.0132 47.4869 57.5466 47.7202 57.05C48.0477 56.3872 48.3284 55.7021 48.5602 55Z" fill="#231F20"/>
</g>
<path d="M27.74 73.51C25.7339 66.1714 25.4397 58.4702 26.88 51H26.52L0 57.93V86L17.26 78.23L27.74 73.51Z" fill="#EB92A7"/>
<path d="M15.8801 132L15.6001 131.76C15.6001 131.87 15.6601 131.98 15.6801 132.09L15.8801 132Z" fill="#102048"/>
<path d="M28.8898 155.54C28.8898 155.54 30.0098 153.83 29.4298 150.47L26.0898 152.62C26.9998 153.63 27.8998 154.6 28.8898 155.54Z" fill="#C6556F"/>
<path d="M43.0799 138.86C43.0799 138.74 43.0799 138.37 43.7899 138.09V138.04L43.6399 137.66C43.475 137.727 43.3175 137.811 43.1699 137.91C43.0015 138.015 42.8638 138.163 42.7707 138.339C42.6777 138.514 42.6326 138.711 42.6399 138.91C42.6399 140.33 45.2899 142.22 47.2399 142.99L47.3499 143.04L47.4299 142.82L47.5099 142.61C45.4999 141.81 43.0799 140 43.0799 138.86Z" fill="#F9B384"/>
<path d="M57.1804 135.85C58.0504 133.74 58.0704 131.85 56.5704 130.28C57.1655 129.583 57.4925 128.697 57.4925 127.78C57.4925 126.863 57.1655 125.977 56.5704 125.28C56.3904 119.11 51.0804 115.48 41.4504 118.16C43.1704 110.69 44.3304 103.59 38.0604 101.31C36.2904 109.49 34.5504 117.96 32.4304 120.8C29.3166 122.938 26.4284 125.387 23.8104 128.11L15.8104 131.98L15.6104 132.07C17.3322 139.674 20.9084 146.734 26.0204 152.62L29.3604 150.47L34.1304 147.4C39.6704 147.31 44.1304 146.01 47.1304 142.95C45.1804 142.18 42.5403 140.29 42.5303 138.87C42.523 138.671 42.5681 138.474 42.6611 138.299C42.7542 138.123 42.8919 137.975 43.0604 137.87C43.2079 137.77 43.3654 137.687 43.5303 137.62L43.6804 138V138.05C42.9704 138.33 42.9704 138.7 42.9704 138.82C42.9704 139.95 45.3904 141.77 47.3804 142.53L47.3004 142.74C55.2104 145.2 61.1904 139.69 57.1804 135.85Z" fill="#F9B384"/>
<path opacity="0.3" d="M41.8999 128.45L41.5299 128.18C41.4359 128.305 41.349 128.435 41.2699 128.57C41.2699 128.96 41.2099 129.37 41.1699 129.78C41.356 129.308 41.6013 128.861 41.8999 128.45Z" fill="#231F20"/>
<path opacity="0.3" d="M49.6498 128.3C47.8829 129.093 45.9035 129.279 44.0198 128.83C42.9514 128.673 41.9845 128.111 41.3198 127.26C41.1576 126.876 41.0885 126.46 41.118 126.045C41.1476 125.629 41.2749 125.227 41.4898 124.87C41.6477 124.577 41.8885 124.338 42.182 124.181C42.4755 124.024 42.8087 123.958 43.1398 123.99L46.1398 124.25L49.8698 121L49.5698 120.65L45.9998 123.77L43.1898 123.53C42.771 123.49 42.3498 123.574 41.9783 123.772C41.6068 123.969 41.3014 124.271 41.0998 124.64C40.8538 125.058 40.7078 125.528 40.6731 126.012C40.6384 126.496 40.716 126.981 40.8998 127.43V127.37H41.3598V127.88C42.0869 128.553 42.9873 129.01 43.9598 129.2C45.9443 129.67 48.0283 129.473 49.8898 128.64L56.7598 125.54L56.6598 125.33L56.5698 125.12L49.6498 128.3Z" fill="#231F20"/>
<path opacity="0.3" d="M42.7799 133C43.0765 133.017 43.371 133.061 43.6599 133.13L43.5799 133.47C44.3298 133.857 45.1263 134.146 45.9499 134.33C46.2159 134.388 46.4877 134.415 46.7599 134.41C50.2599 134.41 56.4099 130.78 56.6899 130.61L56.4499 130.22C56.3799 130.22 49.1099 134.56 46.0399 133.88C45.0218 133.722 44.0492 133.349 43.1869 132.785C42.3247 132.221 41.5927 131.479 41.0399 130.61C41.0399 130.86 40.9799 131.1 40.9399 131.35C41.4506 132.005 42.0736 132.563 42.7799 133Z" fill="#231F20"/>
<path opacity="0.3" d="M43.7701 138.17C44.5901 138.33 45.5901 138.49 46.7701 138.64C47.2149 138.692 47.6622 138.719 48.1101 138.72C51.304 138.549 54.4226 137.685 57.2501 136.19L57.0401 135.78C56.9801 135.78 51.4901 138.78 46.8201 138.18C42.1501 137.58 40.8201 136.94 40.3701 136.18C40.2577 135.855 40.2309 135.507 40.2922 135.169C40.3535 134.831 40.5009 134.515 40.7201 134.25C41.1201 133.74 41.9301 133.25 43.5101 133.61V133.5L43.5901 133.16C43.3011 133.091 43.0066 133.047 42.7101 133.03C42.2747 132.977 41.8329 133.031 41.4233 133.188C41.0137 133.345 40.6487 133.6 40.3601 133.93C40.2139 134.397 40.023 134.849 39.7901 135.28C39.7302 135.656 39.7787 136.041 39.9301 136.39C40.2901 137.07 41.0101 137.61 43.0801 138.08C43.2276 137.98 43.3851 137.897 43.5501 137.83L43.7701 138.17Z" fill="#231F20"/>
<path opacity="0.3" d="M43.0802 139C43.0802 138.87 43.0802 138.5 43.7902 138.22V138.17L43.6402 137.79C43.4753 137.857 43.3177 137.94 43.1702 138.04C43.0025 138.146 42.8653 138.294 42.7724 138.47C42.6794 138.645 42.6339 138.842 42.6402 139.04C42.6402 140.46 45.2902 142.35 47.2402 143.13H47.3502L47.4302 142.91L47.5102 142.7C45.5002 141.94 43.0802 140.12 43.0802 139Z" fill="#231F20"/>
<path opacity="0.3" d="M40.9999 131.34C40.9999 131.09 41.0699 130.85 41.0999 130.6L41.1899 129.78C41.1899 129.37 41.2599 128.96 41.2899 128.57C41.2899 128.36 41.2899 128.16 41.2899 127.96V127.45H40.8299V127.51V127.95C40.8299 128.51 40.7399 129.13 40.6799 129.78C40.6799 130.08 40.6199 130.39 40.5799 130.7C40.2699 133.27 39.5799 135.98 37.8799 136.54L38.0199 136.98C38.8154 136.682 39.4643 136.087 39.8299 135.32C40.0629 134.889 40.2538 134.437 40.3999 133.97C40.6768 133.113 40.8776 132.233 40.9999 131.34Z" fill="#231F20"/>
<path d="M26.09 152.62C20.9781 146.733 17.4019 139.674 15.68 132.07C15.68 131.96 15.68 131.85 15.6 131.74L0 138V163.7C0.000387821 164.954 0.29243 166.19 0.853028 167.311C1.41363 168.432 2.2274 169.408 3.23 170.16L28.89 155.54C27.9 154.6 27 153.63 26.09 152.62Z" fill="#EF6E8C"/>
<path d="M224.63 40.33C222.63 38.05 219.03 35.4 215.05 32.64C212.66 29.64 210.51 20.46 208.35 11.64C201.59 14.29 203.07 22 205.17 30C194.61 27.37 188.96 31.48 188.93 38.19C188.315 38.9705 187.998 39.944 188.035 40.9367C188.071 41.9295 188.46 42.8769 189.13 43.61C187.56 45.34 187.64 47.42 188.64 49.69C184.39 54 191.06 59.84 199.46 57L199.57 57.25L199.69 57.2C203 60.4 208 61.67 214 61.61L225 67.7C228.47 61.92 231.29 55 231.2 42.98L224.63 40.33Z" fill="#F9B384"/>
<g opacity="0.3">
<path opacity="0.3" d="M205.93 40.2L205.75 40.37L205.98 40.69C206 40.52 205.94 40.36 205.93 40.2Z" fill="#F9B384"/>
<path opacity="0.3" d="M196.69 41.24C197.917 41.7481 199.232 42.0097 200.56 42.01C201.441 42.0122 202.319 41.8978 203.17 41.67C203.937 41.4654 204.661 41.1269 205.31 40.67L205.75 40.33L205.93 40.16V40.04L205.87 39.49L206.42 39.43V39.5C206.599 39.0091 206.664 38.484 206.61 37.9643C206.556 37.4446 206.385 36.9439 206.11 36.5C205.876 36.1022 205.53 35.7815 205.117 35.5772C204.703 35.3729 204.238 35.294 203.78 35.35L200.78 35.69L196.78 32.44L196.43 32.87L200.59 36.27L203.85 35.9C204.205 35.855 204.566 35.9166 204.886 36.0768C205.207 36.237 205.473 36.4887 205.65 36.8C205.89 37.1749 206.039 37.601 206.084 38.044C206.129 38.487 206.069 38.9343 205.91 39.35C205.209 40.2998 204.165 40.9385 203 41.13C200.975 41.6754 198.826 41.5348 196.89 40.73L189.33 37.56L189.22 37.82L189.11 38.07L196.69 41.24Z" fill="#231F20"/>
<path opacity="0.3" d="M200.06 47.33C200.413 47.3331 200.766 47.2928 201.11 47.21C202 46.991 202.858 46.6547 203.66 46.21L203.54 45.79C203.887 45.6998 204.242 45.6429 204.6 45.62C205.288 45.1421 205.893 44.5542 206.39 43.88C206.39 43.59 206.29 43.29 206.25 43C205.682 43.9464 204.921 44.7625 204.016 45.3949C203.112 46.0272 202.084 46.4617 201 46.67C197.7 47.5 189.68 43.05 189.6 43L189.47 43.25L189.34 43.48C189.61 43.66 196.23 47.33 200.06 47.33Z" fill="#231F20"/>
<path opacity="0.3" d="M205.75 40.37L205.31 40.71C205.64 41.1408 205.916 41.6111 206.13 42.11C206.07 41.62 206.02 41.11 205.98 40.69L205.75 40.37Z" fill="#231F20"/>
<path opacity="0.3" d="M206.68 42C206.68 42.32 206.77 42.66 206.82 43C206.866 42.6601 206.817 42.3142 206.68 42Z" fill="#231F20"/>
<path opacity="0.3" d="M198.47 52.06C199.082 52.0615 199.694 52.0181 200.3 51.93C201.61 51.73 202.69 51.54 203.57 51.34L203.74 50.86C203.946 50.9331 204.141 51.0341 204.32 51.16C206.52 50.58 207.32 49.98 207.65 49.23C207.799 48.8839 207.848 48.5025 207.79 48.13C207.472 47.6001 207.214 47.0367 207.02 46.45C206.707 46.1347 206.327 45.895 205.907 45.7494C205.488 45.6038 205.041 45.5561 204.6 45.61C204.242 45.6329 203.887 45.6898 203.54 45.78L203.66 46.2V46.32C205.35 45.85 206.24 46.39 206.66 46.93C206.895 47.1996 207.059 47.5241 207.136 47.8737C207.213 48.2232 207.2 48.5865 207.1 48.93C206.67 49.81 205.32 50.55 200.16 51.33C195 52.11 189.07 49.06 189.01 49.03L188.88 49.28L188.76 49.53C191.788 51.0334 195.093 51.8948 198.47 52.06Z" fill="#231F20"/>
<path opacity="0.3" d="M204.89 52.17C204.882 51.9698 204.826 51.7745 204.727 51.6005C204.627 51.4265 204.488 51.2788 204.32 51.17C204.141 51.044 203.946 50.9431 203.74 50.87L203.57 51.35C204.34 51.63 204.35 52.02 204.35 52.15C204.35 53.33 201.8 55.4 199.68 56.28L199.79 56.54L199.89 56.8L200.02 56.74C202.1 55.86 204.92 53.73 204.89 52.17Z" fill="#231F20"/>
<path opacity="0.3" d="M205.86 39.53L205.92 40.08V40.2C205.92 40.36 205.92 40.52 205.92 40.69C205.92 41.14 206.01 41.62 206.07 42.11L206.19 42.99C206.19 43.28 206.28 43.58 206.33 43.87C206.478 44.7439 206.689 45.606 206.96 46.45C207.154 47.0367 207.412 47.6001 207.73 48.13C208.163 48.9138 208.878 49.5036 209.73 49.78L209.89 49.24C208 48.7 207.21 45.77 206.8 43C206.8 42.67 206.7 42.33 206.66 42C206.57 41.29 206.51 40.61 206.45 40L206.4 39.52V39.45L205.86 39.53Z" fill="#231F20"/>
</g>
<path d="M225 67.7L256 86.31V52.48L231.15 43C231.24 55 228.42 61.92 225 67.7Z" fill="#D66580"/>
<path d="M156.46 28.76L168.61 27.34L167.01 24.38L156.46 28.76Z" fill="#FF792F"/>
<path d="M160.71 19.48L155.33 26.78L163.01 20.84L160.71 19.48Z" fill="#FF792F"/>
<path d="M164.51 34.34L164.71 32L156.87 30.55L164.51 34.34Z" fill="#FF792F"/>
<path opacity="0.3" d="M141.26 102.83L167.22 104.98" stroke="black" stroke-width="0.5" stroke-miterlimit="10" stroke-linecap="round"/>
<path opacity="0.3" d="M142.99 122L165.93 124.79" stroke="black" stroke-width="0.5" stroke-miterlimit="10" stroke-linecap="round"/>
<path opacity="0.3" d="M162.55 104.59L161.03 97.37" stroke="black" stroke-width="0.5" stroke-miterlimit="10" stroke-linecap="round"/>
<path opacity="0.3" d="M84.8799 83.41C84.8799 83.41 88.5999 86.6 84.8799 90.57C81.1599 94.54 77.6699 91.03 77.6699 91.03" stroke="black" stroke-width="0.5" stroke-miterlimit="10" stroke-linecap="round"/>
<path opacity="0.3" d="M83.2701 79.65L81.8001 79.56C81.8001 79.56 80.0001 82.13 86.3401 83.82" stroke="black" stroke-width="0.5" stroke-miterlimit="10" stroke-linecap="round"/>
<path opacity="0.3" d="M108.92 125.54L109.62 101.92" stroke="black" stroke-width="0.5" stroke-miterlimit="10" stroke-linecap="round"/>
<path opacity="0.3" d="M97.29 98.04L101.59 103.52" stroke="black" stroke-width="0.5" stroke-miterlimit="10" stroke-linecap="round"/>
<path d="M247.9 2.20001C249.517 2.20266 251.067 2.84618 252.21 3.98958C253.354 5.13298 253.997 6.683 254 8.30001V163.7C253.997 165.317 253.354 166.867 252.21 168.01C251.067 169.154 249.517 169.797 247.9 169.8H8.1C6.48299 169.797 4.93297 169.154 3.78957 168.01C2.64617 166.867 2.00264 165.317 2 163.7V8.30001C2.00264 6.683 2.64617 5.13298 3.78957 3.98958C4.93297 2.84618 6.48299 2.20266 8.1 2.20001H247.9ZM247.9 0.200012H8.1C5.95175 0.200012 3.89148 1.0534 2.37244 2.57245C0.85339 4.09149 0 6.15176 0 8.30001L0 163.7C0 165.848 0.85339 167.909 2.37244 169.428C3.89148 170.947 5.95175 171.8 8.1 171.8H247.9C250.048 171.8 252.109 170.947 253.628 169.428C255.147 167.909 256 165.848 256 163.7V8.30001C256 6.15176 255.147 4.09149 253.628 2.57245C252.109 1.0534 250.048 0.200012 247.9 0.200012Z" fill="#DB284E"/>
<rect x="70" y="14" width="35" height="35" rx="17.5" fill="white"/>
<path d="M78.1135 43.3072C78.2154 43.371 78.3333 43.4047 78.4536 43.4045H78.4552C78.5951 43.4048 78.7312 43.3595 78.8431 43.2755C78.9549 43.1915 79.0363 43.0733 79.0749 42.9389C79.1135 42.8044 79.1073 42.6611 79.0571 42.5306C79.0069 42.4 78.9156 42.2893 78.7969 42.2154C76.6918 40.9121 74.9556 39.0916 73.7538 36.9274C72.552 34.7632 71.9247 32.3273 71.9315 29.8519C71.9315 21.8214 78.4688 15.2826 86.5013 15.2826C94.5338 15.2826 101.069 21.8166 101.069 29.8479C101.07 30.442 101.034 31.0356 100.962 31.6253C100.952 31.7092 100.958 31.7943 100.981 31.8757C101.003 31.9572 101.041 32.0335 101.093 32.1002C101.145 32.1669 101.21 32.2227 101.283 32.2645C101.356 32.3062 101.437 32.3331 101.521 32.3436C101.605 32.3541 101.69 32.348 101.772 32.3256C101.853 32.3032 101.93 32.2649 101.996 32.213C102.063 32.1612 102.119 32.0967 102.161 32.0232C102.202 31.9498 102.229 31.8688 102.24 31.7849C102.317 31.1435 102.356 30.498 102.356 29.8519C102.356 21.1111 95.2435 14 86.5005 14C77.7575 14 70.6446 21.1111 70.6446 29.8519C70.6369 32.5456 71.3193 35.1964 72.6267 37.5518C73.9341 39.9071 75.8231 41.8885 78.1135 43.3072Z" fill="#DA264D"/>
<path fill-rule="evenodd" clip-rule="evenodd" d="M87.9278 27.887L88.082 27.8552C87.9081 29.2048 87.7624 30.5961 87.6484 31.9956C87.5614 33.0627 87.4752 34.3269 87.4983 35.6134L87.5023 35.8345H87.5022C87.3378 35.8345 87.1774 35.8345 87.0233 35.821C86.3599 35.7707 85.968 36.2655 85.9233 36.7787C85.8802 37.2575 86.1388 37.8058 86.8014 37.8721H86.827C87.1457 37.896 87.4658 37.8987 87.7849 37.8801C87.8238 37.9799 87.8711 38.0763 87.9262 38.1682C88.0114 38.3229 88.1318 38.4554 88.2777 38.555C88.4236 38.6545 88.5909 38.7183 88.766 38.7412C88.9432 38.7582 89.1216 38.727 89.2825 38.651C89.4178 38.5846 89.538 38.4913 89.6357 38.3766C89.7335 38.262 89.8067 38.1286 89.8509 37.9846C89.9041 37.8187 89.9099 37.6413 89.8677 37.4722C91.0097 37.0724 92.0515 36.4298 92.9212 35.5887C94.6559 33.9127 95.5987 31.6437 95.5077 29.3531V29.3515C95.4279 27.3922 94.4116 25.618 92.8477 24.7225C92.3158 24.4155 91.7254 24.2232 91.1146 24.1583C89.9683 24.0441 88.9217 24.42 88.1681 25.2165C87.9522 25.4386 87.7611 25.6835 87.5981 25.9468C87.5885 25.9616 87.5794 25.9766 87.5706 25.9919C87.185 26.0591 86.8037 26.1245 86.5184 26.1735L86.4254 26.1894L86.3807 26.1974C85.323 26.3794 84.1263 26.5853 83.3615 26.7561C83.3847 26.1735 83.4062 25.6595 83.4278 25.1886C83.4398 24.9053 83.4469 24.6124 83.4533 24.3275V24.163C84.3315 24.0338 85.2096 23.8981 86.261 23.7353H86.2873C87.4353 23.5565 88.7365 23.3554 90.0018 23.1766C90.113 23.1584 90.219 23.1166 90.3127 23.054C90.4063 22.9913 90.4854 22.9093 90.5446 22.8135C90.6206 22.6967 90.6722 22.5659 90.6962 22.4287C90.7202 22.2915 90.7162 22.1509 90.6844 22.0154C90.5678 21.59 90.2142 21.337 89.7384 21.337C89.6745 21.3372 89.6108 21.3418 89.5476 21.3505C88.3624 21.5204 87.16 21.7066 85.9915 21.8876L85.9552 21.8932L85.9017 21.9012C85.1242 22.0225 84.3602 22.1407 83.5811 22.258C83.6209 21.9863 83.6788 21.7175 83.7543 21.4535C83.7985 21.3221 83.8102 21.1819 83.7883 21.045C83.7665 20.9081 83.7118 20.7785 83.629 20.6674C83.5326 20.5458 83.4099 20.4478 83.2701 20.3808C83.1302 20.3137 82.977 20.2793 82.8219 20.2803C82.6221 20.2755 82.4266 20.3385 82.2672 20.4589C82.1078 20.5793 81.9938 20.7501 81.9437 20.9435C81.7978 21.4613 81.7032 21.9922 81.6611 22.5285C80.5786 22.6778 79.6151 22.7967 78.7162 22.8917C78.1638 22.9491 77.7926 23.3282 77.7926 23.8334C77.7926 24.2939 78.2229 24.8335 78.7561 24.7752C79.6151 24.685 80.5355 24.5725 81.5693 24.4328C81.568 24.4688 81.5667 24.5047 81.5654 24.5406L81.5654 24.5408V24.5409C81.5613 24.6538 81.5572 24.7662 81.5518 24.8782C81.5198 25.5749 81.4879 26.3147 81.4512 27.2828C81.0952 27.3954 80.7694 27.5063 80.4573 27.6212C80.0454 27.7745 79.7508 28.2741 79.8003 28.7386C79.8418 29.1225 80.1021 29.3858 80.4972 29.4425C80.7262 29.4817 80.9606 29.4769 81.1878 29.4281C81.2396 29.417 81.3019 29.4034 81.3754 29.3858L81.349 30.1313C81.282 32.0619 81.2117 34.0587 81.1015 36.0213C81.091 36.1395 81.1052 36.2586 81.1433 36.371C81.1814 36.4834 81.2425 36.5866 81.3227 36.6741C81.4116 36.7633 81.5176 36.8335 81.6343 36.8807C81.7511 36.9279 81.8761 36.951 82.002 36.9487C82.4666 36.9487 82.9544 36.6374 82.9871 36.0428C83.097 34.0969 83.166 32.1262 83.2328 30.2182L83.2793 28.8862C84.3171 28.6181 86.6322 28.1504 87.7498 27.9285L87.9278 27.887ZM90.3986 26.2134C90.5488 26.1726 90.7057 26.1625 90.86 26.1838L90.9749 26.1966C91.2109 26.2284 91.4396 26.3004 91.6511 26.4097C92.6346 26.8551 93.3435 28.0339 93.4584 29.4114C93.5878 30.9677 92.8446 32.7961 91.5649 34.0683C90.988 34.6425 90.3043 35.0982 89.5524 35.4099C89.5452 34.2511 89.6322 33.0707 89.7224 31.9669C89.8876 30.0052 90.1144 28.0698 90.3986 26.2134Z" fill="#DA264D"/>
<path d="M83.2274 45.0079C83.3256 45.0748 83.4074 45.1629 83.4669 45.2657C83.5222 45.3632 83.5365 45.4785 83.5068 45.5866C83.4873 45.6689 83.4491 45.7457 83.3953 45.811C83.3415 45.8763 83.2734 45.9284 83.1963 45.9633C83.0066 46.0468 82.7931 46.059 82.5952 45.9976C82.4728 45.9682 82.3549 45.9226 82.2447 45.8619C82.1552 45.8144 82.0714 45.7568 81.9948 45.6903C81.9362 45.6352 81.8827 45.5748 81.8352 45.5099C81.803 45.4669 81.7737 45.4219 81.7474 45.3751C81.7435 45.3666 81.7395 45.3589 81.7359 45.3519C81.7289 45.3385 81.7234 45.3279 81.7234 45.32L81.2492 45.6057L81.2859 45.6855C81.3223 45.7514 81.3645 45.8139 81.4121 45.8723C81.4791 45.9575 81.5525 46.0375 81.6316 46.1117C81.7375 46.2076 81.855 46.2899 81.9813 46.3567C82.1323 46.4386 82.2933 46.5006 82.4602 46.5411C82.8855 46.6464 83.245 46.6228 83.5388 46.4701C83.6814 46.3973 83.8062 46.2938 83.9039 46.1669C84.0016 46.0401 84.07 45.8931 84.1039 45.7366C84.1506 45.5662 84.1542 45.3868 84.1143 45.2146C84.0798 45.0686 84.0077 44.9341 83.9052 44.8244C83.801 44.7165 83.6854 44.6205 83.5603 44.5378C83.4315 44.4511 83.2983 44.3712 83.1612 44.2984C83.0365 44.2322 82.9158 44.1589 82.7995 44.0789C82.7012 44.0119 82.6193 43.9235 82.56 43.8204C82.5065 43.7229 82.4928 43.6085 82.5217 43.5011C82.5395 43.4344 82.5727 43.3727 82.6186 43.321C82.6645 43.2693 82.7218 43.229 82.786 43.2034C82.9472 43.1335 83.128 43.1233 83.2961 43.1747C83.3898 43.1971 83.4803 43.2317 83.5651 43.2776C83.6344 43.3135 83.6993 43.3575 83.7583 43.4085C83.8043 43.4504 83.847 43.4957 83.886 43.5442C83.9128 43.5758 83.9363 43.61 83.9563 43.6464C83.9625 43.6612 83.9697 43.6756 83.9778 43.6895L84.4568 43.4013L84.4273 43.3383C84.3956 43.2812 84.3578 43.2277 84.3147 43.1787C84.2554 43.109 84.1916 43.0431 84.1239 42.9815C84.0343 42.9029 83.9357 42.8351 83.8301 42.7796C83.7045 42.7111 83.5702 42.6595 83.431 42.6264C83.0467 42.5311 82.7178 42.5546 82.4443 42.6966C82.3144 42.76 82.2002 42.8516 82.1102 42.9647C82.0202 43.0778 81.9565 43.2095 81.9238 43.3503C81.8765 43.5209 81.8726 43.7006 81.9126 43.873C81.9477 44.0186 82.02 44.1526 82.1226 44.2617C82.2268 44.3696 82.3421 44.4662 82.4666 44.5498C82.5954 44.6366 82.7286 44.7165 82.8658 44.7893C82.9904 44.8552 83.1111 44.9282 83.2274 45.0079Z" fill="#DA264D"/>
<path d="M88.0212 43.0861L88.0164 43.6448L86.8397 43.6352L86.8126 46.9976L86.1963 46.9928L86.2242 43.6296L85.0475 43.6208L85.0515 43.0622L88.0212 43.0861Z" fill="#DA264D"/>
<path d="M92.2825 44.8519C92.2697 44.9907 92.2289 45.1255 92.1628 45.2482C92.1024 45.3703 92.0176 45.4789 91.9137 45.5671C91.8098 45.6554 91.689 45.7215 91.5586 45.7614C91.4282 45.8013 91.2911 45.8141 91.1556 45.7992C91.0201 45.7842 90.8891 45.7417 90.7706 45.6743C90.6471 45.6096 90.5379 45.5205 90.4495 45.4126C90.3612 45.3047 90.2955 45.1801 90.2565 45.0462L89.5683 42.7908L88.9768 42.9712L89.6641 45.2242C89.7237 45.4304 89.8254 45.6219 89.9628 45.7868C90.1002 45.9516 90.2703 46.0862 90.4624 46.1819C90.8512 46.3831 91.3033 46.4243 91.722 46.2966C92.1407 46.1689 92.4929 45.8826 92.7033 45.4988C92.8087 45.3122 92.8744 45.1058 92.8961 44.8926C92.9178 44.6794 92.8951 44.4641 92.8294 44.2601L92.1413 42.0071L91.5497 42.1882L92.2378 44.4405C92.2802 44.5732 92.2954 44.7132 92.2825 44.8519Z" fill="#DA264D"/>
<path fill-rule="evenodd" clip-rule="evenodd" d="M94.1147 40.7939C94.3267 40.6415 94.5675 40.5337 94.8225 40.4772C95.0775 40.4206 95.3413 40.4165 95.5979 40.4651C95.8526 40.5061 96.0965 40.5978 96.3151 40.7349C96.5336 40.8719 96.7224 41.0515 96.8701 41.263C97.0179 41.4744 97.1216 41.7134 97.1751 41.9657C97.2287 42.218 97.2309 42.4785 97.1817 42.7317C97.1388 42.9889 97.0441 43.2348 96.9033 43.4543C96.7625 43.6738 96.5786 43.8624 96.3627 44.0087L95.2371 44.7956L92.9883 41.5809L94.1147 40.7939ZM93.8153 41.6878L95.4215 43.984L96.0426 43.5498C96.1929 43.4484 96.3205 43.317 96.4175 43.1638C96.5145 43.0107 96.5787 42.8391 96.6062 42.6599C96.6631 42.2936 96.5761 41.9195 96.3635 41.6157C96.1509 41.312 95.8291 41.1022 95.4654 41.0302C95.2877 40.9942 95.1045 40.9955 94.9274 41.0339C94.7503 41.0724 94.5831 41.1472 94.4364 41.2536L93.8153 41.6878Z" fill="#DA264D"/>
<path d="M96.7195 38.4779L96.3068 38.9344L99.2174 41.5681L99.6301 41.1116L96.7195 38.4779Z" fill="#DA264D"/>
<path fill-rule="evenodd" clip-rule="evenodd" d="M98.1485 37.6151C98.0068 37.085 98.0727 36.5209 98.3327 36.0377C98.5928 35.5545 99.0274 35.1887 99.5479 35.0149C99.8025 34.9374 100.07 34.911 100.335 34.9374C100.6 34.9637 100.857 35.0422 101.091 35.1683C101.325 35.2945 101.532 35.4657 101.7 35.6723C101.868 35.8788 101.993 36.1165 102.069 36.3717C102.211 36.9017 102.145 37.4659 101.885 37.9491C101.625 38.4322 101.19 38.798 100.67 38.9719C100.415 39.0495 100.147 39.0759 99.8825 39.0496C99.6176 39.0233 99.3606 38.9449 99.1262 38.8187C98.8918 38.6926 98.6847 38.5213 98.5169 38.3147C98.3491 38.1081 98.2239 37.8703 98.1485 37.6151ZM100.529 38.3941C100.857 38.2988 101.142 38.0925 101.335 37.8106C101.528 37.5287 101.617 37.1885 101.586 36.8483C101.556 36.5081 101.409 36.1889 101.169 35.9453C100.93 35.7017 100.613 35.5488 100.274 35.5126C99.9338 35.4765 99.5921 35.5595 99.3068 35.7473C99.0214 35.9352 98.8102 36.2162 98.7092 36.5425C98.6081 36.8688 98.6235 37.22 98.7528 37.5362C98.882 37.8523 99.1171 38.1138 99.4178 38.2759C99.5851 38.3703 99.7701 38.4295 99.9612 38.4498C100.152 38.4702 100.346 38.4512 100.529 38.3941Z" fill="#DA264D"/>
</g>
<defs>
<clipPath id="clip0_7771_168335">
<rect width="256" height="172" fill="white"/>
</clipPath>
</defs>
</svg>
