<svg width="375" height="109" viewBox="0 0 375 109" fill="none" xmlns="http://www.w3.org/2000/svg">
<rect width="375" height="109" fill="#DB284E"/>
<path opacity="0.3" d="M374.94 74.94C355.072 74.9171 336.024 67.0143 321.975 52.9653C307.926 38.9163 300.023 19.8683 300 0L334.604 0C334.613 10.6951 338.865 20.9494 346.428 28.512C353.991 36.0745 364.245 40.3272 374.94 40.3363V74.94Z" fill="#FBE9ED"/>
<rect x="161" y="71" width="77" height="25" rx="4" fill="#FBE9ED"/>
<path d="M174.21 87.07C173.724 87.07 173.284 86.9867 172.89 86.82C172.504 86.6533 172.197 86.4133 171.97 86.1C171.744 85.7867 171.627 85.4167 171.62 84.99H173.12C173.14 85.2767 173.24 85.5033 173.42 85.67C173.607 85.8367 173.86 85.92 174.18 85.92C174.507 85.92 174.764 85.8433 174.95 85.69C175.137 85.53 175.23 85.3233 175.23 85.07C175.23 84.8633 175.167 84.6933 175.04 84.56C174.914 84.4267 174.754 84.3233 174.56 84.25C174.374 84.17 174.114 84.0833 173.78 83.99C173.327 83.8567 172.957 83.7267 172.67 83.6C172.39 83.4667 172.147 83.27 171.94 83.01C171.74 82.7433 171.64 82.39 171.64 81.95C171.64 81.5367 171.744 81.1767 171.95 80.87C172.157 80.5633 172.447 80.33 172.82 80.17C173.194 80.0033 173.62 79.92 174.1 79.92C174.82 79.92 175.404 80.0967 175.85 80.45C176.304 80.7967 176.554 81.2833 176.6 81.91H175.06C175.047 81.67 174.944 81.4733 174.75 81.32C174.564 81.16 174.314 81.08 174 81.08C173.727 81.08 173.507 81.15 173.34 81.29C173.18 81.43 173.1 81.6333 173.1 81.9C173.1 82.0867 173.16 82.2433 173.28 82.37C173.407 82.49 173.56 82.59 173.74 82.67C173.927 82.7433 174.187 82.83 174.52 82.93C174.974 83.0633 175.344 83.1967 175.63 83.33C175.917 83.4633 176.164 83.6633 176.37 83.93C176.577 84.1967 176.68 84.5467 176.68 84.98C176.68 85.3533 176.584 85.7 176.39 86.02C176.197 86.34 175.914 86.5967 175.54 86.79C175.167 86.9767 174.724 87.07 174.21 87.07ZM183.934 80.02V87H182.534V84.03H179.544V87H178.144V80.02H179.544V82.89H182.534V80.02H183.934ZM188.802 87.07C188.149 87.07 187.549 86.9167 187.002 86.61C186.455 86.3033 186.022 85.88 185.702 85.34C185.382 84.7933 185.222 84.1767 185.222 83.49C185.222 82.81 185.382 82.2 185.702 81.66C186.022 81.1133 186.455 80.6867 187.002 80.38C187.549 80.0733 188.149 79.92 188.802 79.92C189.462 79.92 190.062 80.0733 190.602 80.38C191.149 80.6867 191.579 81.1133 191.892 81.66C192.212 82.2 192.372 82.81 192.372 83.49C192.372 84.1767 192.212 84.7933 191.892 85.34C191.579 85.88 191.149 86.3033 190.602 86.61C190.055 86.9167 189.455 87.07 188.802 87.07ZM188.802 85.82C189.222 85.82 189.592 85.7267 189.912 85.54C190.232 85.3467 190.482 85.0733 190.662 84.72C190.842 84.3667 190.932 83.9567 190.932 83.49C190.932 83.0233 190.842 82.6167 190.662 82.27C190.482 81.9167 190.232 81.6467 189.912 81.46C189.592 81.2733 189.222 81.18 188.802 81.18C188.382 81.18 188.009 81.2733 187.682 81.46C187.362 81.6467 187.112 81.9167 186.932 82.27C186.752 82.6167 186.662 83.0233 186.662 83.49C186.662 83.9567 186.752 84.3667 186.932 84.72C187.112 85.0733 187.362 85.3467 187.682 85.54C188.009 85.7267 188.382 85.82 188.802 85.82ZM198.754 82.18C198.754 82.5533 198.664 82.9033 198.484 83.23C198.31 83.5567 198.034 83.82 197.654 84.02C197.28 84.22 196.807 84.32 196.234 84.32H195.064V87H193.664V80.02H196.234C196.774 80.02 197.234 80.1133 197.614 80.3C197.994 80.4867 198.277 80.7433 198.464 81.07C198.657 81.3967 198.754 81.7667 198.754 82.18ZM196.174 83.19C196.56 83.19 196.847 83.1033 197.034 82.93C197.22 82.75 197.314 82.5 197.314 82.18C197.314 81.5 196.934 81.16 196.174 81.16H195.064V83.19H196.174ZM208.6 87H207.2L204.03 82.21V87H202.63V80.01H204.03L207.2 84.81V80.01H208.6V87ZM213.474 87.07C212.821 87.07 212.221 86.9167 211.674 86.61C211.127 86.3033 210.694 85.88 210.374 85.34C210.054 84.7933 209.894 84.1767 209.894 83.49C209.894 82.81 210.054 82.2 210.374 81.66C210.694 81.1133 211.127 80.6867 211.674 80.38C212.221 80.0733 212.821 79.92 213.474 79.92C214.134 79.92 214.734 80.0733 215.274 80.38C215.821 80.6867 216.251 81.1133 216.564 81.66C216.884 82.2 217.044 82.81 217.044 83.49C217.044 84.1767 216.884 84.7933 216.564 85.34C216.251 85.88 215.821 86.3033 215.274 86.61C214.727 86.9167 214.127 87.07 213.474 87.07ZM213.474 85.82C213.894 85.82 214.264 85.7267 214.584 85.54C214.904 85.3467 215.154 85.0733 215.334 84.72C215.514 84.3667 215.604 83.9567 215.604 83.49C215.604 83.0233 215.514 82.6167 215.334 82.27C215.154 81.9167 214.904 81.6467 214.584 81.46C214.264 81.2733 213.894 81.18 213.474 81.18C213.054 81.18 212.681 81.2733 212.354 81.46C212.034 81.6467 211.784 81.9167 211.604 82.27C211.424 82.6167 211.334 83.0233 211.334 83.49C211.334 83.9567 211.424 84.3667 211.604 84.72C211.784 85.0733 212.034 85.3467 212.354 85.54C212.681 85.7267 213.054 85.82 213.474 85.82ZM227.666 80.02L225.716 87H224.066L222.756 82.03L221.386 87L219.746 87.01L217.866 80.02H219.366L220.596 85.44L222.016 80.02H223.576L224.916 85.41L226.156 80.02H227.666Z" fill="#DB284E"/>
<path d="M110.618 22.8065L103.16 22.3087C102.891 22.2908 102.658 22.4944 102.64 22.7636L102.42 26.0681C102.402 26.3373 102.605 26.5701 102.875 26.5881L110.332 27.0858C110.601 27.1038 110.834 26.9002 110.852 26.631L111.073 23.3265C111.091 23.0573 110.887 22.8245 110.618 22.8065Z" fill="url(#paint0_linear_26659_499591)"/>
<path d="M113.379 26.1898L111.484 54.6018C111.453 55.0643 111.077 55.4225 110.623 55.4405C110.592 55.4416 110.561 55.4412 110.528 55.4389L98.9183 54.6644C98.8863 54.6624 98.8551 54.6585 98.8237 54.6532C98.3763 54.5754 98.0509 54.1699 98.0816 53.7074L99.9763 25.2954C100.009 24.801 100.437 24.4252 100.933 24.4585L112.543 25.233C112.778 25.2484 112.985 25.3535 113.136 25.512C113.302 25.6879 113.396 25.9298 113.379 26.1892L113.379 26.1898Z" fill="url(#paint1_linear_26659_499591)"/>
<g style="mix-blend-mode:multiply" opacity="0.16">
<path d="M111.996 46.92L111.484 54.6018C111.453 55.0643 111.077 55.4225 110.623 55.4405C110.592 55.4416 110.561 55.4412 110.528 55.4389L98.9183 54.6644C98.8863 54.6624 98.8551 54.6585 98.8237 54.6532C98.3763 54.5754 98.0509 54.1699 98.0816 53.7074L99.386 34.1451C99.8336 35.0424 100.334 35.913 100.883 36.7519C101.468 37.6463 102.106 38.5046 102.789 39.317C104.963 41.9027 107.56 44.0756 110.392 45.9228C110.92 46.2646 111.453 46.5962 111.997 46.9194L111.996 46.92Z" fill="#CE679B"/>
</g>
<path d="M108.781 19.9499L105.359 19.7215L105.178 22.4428L108.599 22.6712L108.781 19.9499Z" fill="#3A2738"/>
<path d="M112.969 19.2498L103.174 18.5964C103.034 18.5869 102.913 18.6932 102.904 18.8332L102.808 20.2605C102.799 20.4003 102.905 20.5221 103.045 20.531L110.905 21.0552C111.974 21.1264 112.897 20.3178 112.969 19.2492L112.969 19.2498Z" fill="url(#paint2_linear_26659_499591)"/>
<path opacity="0.78" d="M111.537 28.7566L110.112 50.1154C110.088 50.4876 109.766 50.769 109.393 50.7442L100.665 50.1621C100.365 50.1418 100.122 49.9277 100.055 49.6489C100.038 49.5834 100.031 49.5144 100.036 49.4432L101.461 28.0843C101.485 27.7121 101.807 27.4299 102.18 27.4548L110.907 28.0369C111.165 28.0541 111.378 28.2122 111.478 28.4313C111.522 28.5301 111.545 28.6405 111.537 28.7566Z" fill="white" fill-opacity="0.5"/>
<g opacity="0.17">
<path d="M99.4379 33.3617L101.213 31.7901L100.99 35.1426L99.214 36.714L99.4379 33.3617Z" fill="white"/>
<path d="M112.214 25.2111L109.153 27.9191L105.839 27.6982L108.9 24.9902L112.214 25.2111Z" fill="white"/>
<path d="M99.1356 37.8993L100.912 36.328L100.809 37.8722L99.0329 39.4435L99.1356 37.8993Z" fill="white"/>
<path d="M113.379 26.1893L113.339 26.7842L111.479 28.4305C111.379 28.2121 111.166 28.0534 110.908 28.0362L110.327 27.9972L113.136 25.5116C113.302 25.6874 113.396 25.9293 113.379 26.1887L113.379 26.1893Z" fill="white"/>
<path d="M112.957 32.5108L112.733 35.8618L110.958 37.4328L111.182 34.0812L112.957 32.5108Z" fill="white"/>
<path d="M112.654 37.0479L112.552 38.5914L110.777 40.1625L110.879 38.6183L112.654 37.0479Z" fill="white"/>
</g>
<path d="M102.359 42.8751L101.413 52.4598C101.377 52.8242 101.051 53.0911 100.687 53.0551L89.3243 51.9326C88.9598 51.8966 88.6929 51.5714 88.7289 51.2069L89.6759 41.6226C89.6866 41.5134 89.7007 41.4062 89.7162 41.2991C89.7239 41.2494 89.7319 41.2005 89.7411 41.1509C89.8712 40.4143 90.1306 39.7283 90.4937 39.114C90.9602 38.3249 91.5972 37.654 92.3488 37.1482L92.6672 33.9265L100.931 34.7427L100.613 37.9638C101.748 39.1084 102.425 40.6907 102.387 42.3995C102.387 42.4497 102.385 42.4994 102.383 42.5501C102.377 42.6579 102.37 42.7659 102.359 42.8751Z" fill="url(#paint3_linear_26659_499591)"/>
<g style="mix-blend-mode:multiply" opacity="0.16">
<path d="M100.931 34.7436L92.667 33.9266L92.3485 37.1481L100.612 37.9651L100.931 34.7436Z" fill="#D166B5"/>
</g>
<path opacity="0.51" d="M102.374 42.7259L101.685 49.704L89.0018 48.451L89.6915 41.4728C89.7022 41.3636 89.7162 41.2565 89.7317 41.1494L102.398 42.4009C102.393 42.5087 102.385 42.6167 102.374 42.7259Z" fill="white"/>
<path d="M96.1107 43.7044C96.0863 43.6528 96.0458 43.6068 95.9906 43.5739C95.8446 43.4869 95.6522 43.5247 95.5605 43.6582L94.5296 45.1598C94.3061 45.4904 94.2538 45.9229 94.4374 46.3117C94.734 46.9417 95.523 47.2375 96.1996 46.9739C96.8767 46.7098 97.1854 45.9853 96.8884 45.3559L96.1107 43.7044Z" fill="url(#paint4_linear_26659_499591)"/>
<path d="M96.0177 42.2503C94.3429 42.0851 92.8461 43.3129 92.6803 44.9874C92.5151 46.6622 93.7429 48.159 95.4174 48.3248C97.0927 48.4904 98.5896 47.2626 98.7551 45.5872C98.9209 43.9127 97.6926 42.4155 96.0177 42.2503ZM95.462 47.8786C94.0333 47.7377 92.9859 46.4602 93.1268 45.0315C93.2677 43.6027 94.5452 42.5554 95.974 42.6963C97.4024 42.8377 98.4501 44.1147 98.3092 45.5434C98.1683 46.9722 96.8908 48.0195 95.462 47.8786Z" fill="url(#paint5_linear_26659_499591)"/>
<path d="M102.404 33.4765L102.128 36.2719C102.106 36.4946 101.907 36.6577 101.685 36.6354L91.5583 35.6358C91.3356 35.6141 91.1726 35.4149 91.1949 35.1926L91.471 32.3966C91.493 32.1734 91.6916 32.01 91.9148 32.0321L94.768 32.3135L95.0491 29.4685C95.17 28.2483 96.2568 27.3562 97.477 27.477C98.0866 27.5375 98.6153 27.839 98.9755 28.2788C99.3361 28.718 99.5285 29.2948 99.4682 29.9054L99.187 32.7504L102.04 33.0319C102.263 33.0536 102.426 33.2527 102.404 33.476L102.404 33.4765Z" fill="#47333F"/>
<g style="mix-blend-mode:multiply" opacity="0.15">
<path d="M101.685 49.6987L101.413 52.4592C101.377 52.8237 101.052 53.0905 100.687 53.0546L89.3243 51.9326C88.9598 51.8966 88.6929 51.5714 88.7289 51.2069L89.6911 41.473C89.7018 41.3638 89.7158 41.2566 89.7313 41.1496L89.742 41.1506C89.8721 40.4141 90.1315 39.7281 90.4946 39.1137C90.5782 39.8478 90.7428 40.5713 90.9781 41.2726C91.3771 42.4658 91.9807 43.5959 92.7426 44.6097C92.8644 44.7729 92.9913 44.9324 93.1226 45.0884C93.5792 45.6377 94.085 46.1461 94.6297 46.6045L94.6309 46.6051C94.7423 46.6995 94.8545 46.7913 94.9698 46.8804C94.9758 46.8855 94.9818 46.8906 94.9882 46.8952C95.4201 47.2311 95.8716 47.538 96.3398 47.8155C96.5136 47.9192 96.6902 48.0183 96.8696 48.1139C98.3617 48.9126 100.001 49.4351 101.687 49.6989L101.685 49.6987Z" fill="#D166B5"/>
</g>
<path opacity="0.5" d="M100.45 39.6183C100.417 39.9498 100.122 40.1921 99.7896 40.1597C99.4581 40.1267 99.2158 39.8313 99.2482 39.4994C99.2812 39.1679 99.5766 38.9256 99.9085 38.958C100.24 38.9909 100.482 39.2864 100.45 39.6183Z" fill="white"/>
<path d="M58.4265 18.8345L60.7441 18.4683C61.0843 18.4145 61.4032 18.647 61.4569 18.9865L61.8231 21.3041C61.8769 21.6443 61.6443 21.9632 61.3049 22.0168L58.9873 22.3831C58.6471 22.4368 58.3282 22.2043 58.2745 21.8649L57.9083 19.5473C57.8545 19.2071 58.087 18.8882 58.4265 18.8345Z" fill="#47333F"/>
<g style="mix-blend-mode:multiply" opacity="0.39">
<path d="M58.4265 18.8345L60.7441 18.4683C61.0843 18.4145 61.4032 18.647 61.4569 18.9865L61.8231 21.3041C61.8769 21.6443 61.6443 21.9632 61.3049 22.0168L58.9873 22.3831C58.6471 22.4368 58.3282 22.2043 58.2745 21.8649L57.9083 19.5473C57.8545 19.2071 58.087 18.8882 58.4265 18.8345Z" fill="#D166B5"/>
</g>
<path d="M60.4722 20.6967C60.6259 20.3577 60.4757 19.9583 60.1367 19.8046C59.7977 19.6509 59.3983 19.8011 59.2446 20.1401C59.0909 20.4791 59.2411 20.8785 59.5801 21.0322C59.9191 21.1859 60.3185 21.0357 60.4722 20.6967Z" fill="#56404E"/>
<path d="M65.9884 22.5583L66.2785 24.3938L54.7435 26.2165L54.4534 24.381C54.4174 24.1524 54.5727 23.9386 54.8006 23.9026L65.51 22.2104C65.7386 22.1744 65.9524 22.3296 65.9884 22.5583Z" fill="#47333F"/>
<g style="mix-blend-mode:multiply" opacity="0.39">
<path d="M66.1089 23.3128L54.5737 25.1356L54.7442 26.2146L66.2794 24.3918L66.1089 23.3128Z" fill="#D166B5"/>
</g>
<path d="M64.7771 21.5421L64.8978 22.307L55.4128 23.8059L55.2921 23.0409C55.29 23.0282 55.2878 23.0155 55.2878 23.0028C55.225 22.4806 55.5864 21.9986 56.11 21.9161L63.653 20.7242C64.1766 20.6416 64.6684 20.9888 64.77 21.5047C64.7736 21.5167 64.7757 21.5294 64.7771 21.5421Z" fill="#47333F"/>
<g style="mix-blend-mode:multiply" opacity="0.39">
<path d="M64.7773 21.5424L64.898 22.3074L55.413 23.8062L55.2923 23.0413C55.2902 23.0286 55.2881 23.0159 55.2881 23.0032L64.7703 21.505C64.7738 21.517 64.7759 21.5297 64.7773 21.5424Z" fill="#D166B5"/>
</g>
<path d="M68.3007 25.5792L74.2474 63.2151C74.3759 64.026 73.8219 64.7874 73.0111 64.9158L61.078 66.8014C60.2672 66.9298 59.5058 66.3759 59.3774 65.565L53.4306 27.9291C53.3022 27.1183 53.8561 26.3569 54.667 26.2284L66.6 24.3429C67.4108 24.2144 68.1722 24.7684 68.3007 25.5792Z" fill="url(#paint6_linear_26659_499591)"/>
<path opacity="0.9" d="M69.6722 34.2516L54.8018 36.6016L58.0076 56.8886L72.8781 54.5387L69.6722 34.2516Z" fill="white"/>
<path opacity="0.9" d="M69.201 31.2685L54.3306 33.6185L54.6352 35.5464L69.5056 33.1965L69.201 31.2685Z" fill="white"/>
<path d="M120.635 88.4155C126.129 88.4155 130.584 84.1116 130.584 78.8025C130.584 73.4933 126.129 69.1895 120.635 69.1895C115.14 69.1895 110.685 73.4933 110.685 78.8025C110.685 84.1116 115.14 88.4155 120.635 88.4155Z" fill="#F3BDCA"/>
<path d="M114.015 88.4164C116.302 88.4164 118.156 86.6242 118.156 84.4133C118.156 82.2024 116.302 80.4102 114.015 80.4102C111.729 80.4102 109.875 82.2024 109.875 84.4133C109.875 86.6242 111.729 88.4164 114.015 88.4164Z" fill="#DB284E"/>
<path d="M99.582 89.0406H145.024C145.024 89.0406 126.986 81.8583 99.582 89.0406Z" fill="#F3BDCA"/>
<path d="M107.183 88.436C111.612 88.436 115.203 84.9683 115.203 80.6906C115.203 76.413 111.612 72.9453 107.183 72.9453C102.754 72.9453 99.1631 76.413 99.1631 80.6906C99.1631 84.9683 102.754 88.436 107.183 88.436Z" fill="#DB284E"/>
<path d="M99.1633 88.4366C101.378 88.4366 103.173 86.7028 103.173 84.5639C103.173 82.4251 101.378 80.6913 99.1633 80.6913C96.9487 80.6913 95.1533 82.4251 95.1533 84.5639C95.1533 86.7028 96.9487 88.4366 99.1633 88.4366Z" fill="#DB284E"/>
<path d="M115.203 88.4368C117.926 88.4368 120.133 86.3064 120.133 83.6784C120.133 81.0503 117.926 78.9199 115.203 78.9199C112.48 78.9199 110.273 81.0503 110.273 83.6784C110.273 86.3064 112.48 88.4368 115.203 88.4368Z" fill="#DB284E"/>
<path d="M85.1968 89.0407H129.176C129.176 89.0407 111.715 82.0918 85.1968 89.0407Z" fill="#DB284E"/>
<path d="M38.9445 87.3375C44.9741 87.3375 49.8621 82.6339 49.8621 76.8318C49.8621 71.0297 44.9741 66.3262 38.9445 66.3262C32.9148 66.3262 28.0269 71.0297 28.0269 76.8318C28.0269 82.6339 32.9148 87.3375 38.9445 87.3375Z" fill="#F3BDCA"/>
<path d="M49.8621 87.3377C52.877 87.3377 55.321 84.9859 55.321 82.0849C55.321 79.1838 52.877 76.832 49.8621 76.832C46.8473 76.832 44.4033 79.1838 44.4033 82.0849C44.4033 84.9859 46.8473 87.3377 49.8621 87.3377Z" fill="#DB284E"/>
<path d="M28.02 87.3377C31.725 87.3377 34.7285 84.4479 34.7285 80.8832C34.7285 77.3185 31.725 74.4288 28.02 74.4288C24.315 74.4288 21.3115 77.3185 21.3115 80.8832C21.3115 84.4479 24.315 87.3377 28.02 87.3377Z" fill="#F3BDCA"/>
<path d="M68.8822 88.1617H9C9 88.1617 32.7716 78.7341 68.8822 88.1617Z" fill="#F3BDCA"/>
<path d="M46.5454 53.3906C48.1232 52.4632 49.9362 52.0137 51.7645 52.0966C53.5927 52.1795 55.3576 52.7912 56.8451 53.8575C62.043 57.5859 65.8607 55.6153 65.8607 55.6153L67.9962 60.1471L53.0411 67.1715L46.5454 53.3906Z" fill="#A9EDFF"/>
<path d="M65.8335 55.594C67.1114 56.1893 68.5415 56.3768 69.9296 56.1311C71.3178 55.8854 72.5966 55.2184 73.5926 54.2207L74.8423 56.8711L67.9758 60.119L65.8335 55.594Z" fill="#88D1E2"/>
<path d="M81.7276 44.5796C81.7136 44.7194 81.6986 44.8592 81.6828 44.999C81.6089 45.6787 81.5263 46.3583 81.434 47.0362C81.3056 47.992 81.1579 48.9459 80.9917 49.8973C80.7253 51.3884 80.422 52.8752 80.0105 54.3532C79.8812 54.8201 79.4346 55.1296 78.951 55.0804L66.7534 53.8406C66.2698 53.7914 65.8944 53.3984 65.8601 52.9148C65.8548 52.8357 65.8495 52.7565 65.8451 52.6774C65.7581 51.2276 65.7607 49.7882 65.7959 48.3524C65.8214 47.5093 65.8618 46.667 65.9155 45.8264C65.9568 45.174 66.006 44.5216 66.064 43.871C66.0895 43.5791 66.1168 43.2872 66.1458 42.9961C66.1669 42.7781 66.1889 42.5609 66.2118 42.3429C66.3718 40.8411 66.5766 39.3429 66.836 37.8509C66.8457 37.7928 66.8554 37.7365 66.8659 37.6785C67.1323 36.1838 67.4348 34.6926 67.8586 33.2138C67.9905 32.7513 68.4353 32.448 68.9163 32.4963L81.1271 33.7369C81.6063 33.7853 81.9826 34.1721 82.0195 34.6522C82.1356 36.1856 82.1321 37.7075 82.0934 39.226C82.0934 39.2436 82.0925 39.2603 82.0916 39.2779C82.0503 40.6785 81.9641 42.0729 81.8375 43.4648C81.8032 43.8367 81.7672 44.2086 81.7276 44.5796Z" fill="url(#paint7_linear_26659_499591)"/>
<g opacity="0.17">
<path d="M77.1368 33.3327L66.2114 42.3439C66.3714 40.8422 66.5763 39.344 66.8357 37.8519L72.8444 32.8965L77.1377 33.3327H77.1368Z" fill="white"/>
<path d="M68.9756 41.4689C68.7804 41.992 68.6485 42.5521 68.5887 43.1412C68.5711 43.3109 68.5606 43.4806 68.5562 43.6476L65.9141 45.8264C65.9554 45.174 66.0046 44.5216 66.0626 43.871L68.9747 41.4689H68.9756Z" fill="white"/>
<path d="M80.6329 33.6878L75.558 37.873C75.237 37.7701 74.9038 37.6989 74.5583 37.6637C74.2321 37.6303 73.9103 37.6312 73.5938 37.6619L78.6564 33.4873L80.6338 33.6887L80.6329 33.6878Z" fill="white"/>
<path d="M73.3341 49.7074C73.6471 49.7391 73.9574 49.7399 74.2616 49.7118L68.9818 54.0667L66.753 53.8398C66.2694 53.7906 65.894 53.3976 65.8597 52.914C65.8544 52.8349 65.8491 52.7557 65.8447 52.6766L70.7456 48.6348C71.4806 49.223 72.3625 49.6072 73.3349 49.7057L73.3341 49.7074Z" fill="white"/>
<path d="M78.9321 45.8603C79.1185 45.3486 79.246 44.8026 79.3041 44.2302C79.392 43.3633 79.3128 42.5236 79.0948 41.749L82.0903 39.2784C82.049 40.679 81.9629 42.0734 81.8362 43.4653L78.9321 45.8603Z" fill="white"/>
<path d="M81.6826 45C81.6087 45.6797 81.5261 46.3593 81.4338 47.0372L72.4779 54.4237L70.5005 54.2223L81.6826 45Z" fill="white"/>
</g>
<path d="M80.8238 32.252L80.6779 33.6921L69.3647 32.5421L69.5107 31.1019C69.5652 30.5629 70.0462 30.169 70.5851 30.2236L79.9463 31.1749C80.4853 31.2294 80.8792 31.7121 80.8247 32.252H80.8238Z" fill="#47333F"/>
<g style="mix-blend-mode:multiply" opacity="0.18">
<path d="M69.4802 31.3255L69.3574 32.5343L80.6712 33.6835L80.794 32.4747L69.4802 31.3255Z" fill="#D166B5"/>
</g>
<path d="M76.0142 25.7921L73.2763 25.5134L70.5682 25.2382L70.4126 26.7654L71.3226 26.8578C72.3161 26.9589 73.0398 27.846 72.9386 28.8396L72.6529 31.6549L77.8193 32.1798L78.3301 27.1523C78.3925 26.5368 77.9441 25.9873 77.3287 25.9249L76.0151 25.7912L76.0142 25.7921Z" fill="#47333F"/>
<g style="mix-blend-mode:multiply" opacity="0.19">
<path d="M77.886 54.9731L66.7523 53.8415C66.2687 53.7923 65.8932 53.3993 65.859 52.9157C65.7552 51.3849 65.7578 49.8674 65.7948 48.3533C65.8493 46.5614 65.968 44.7757 66.1447 42.9961C66.3188 41.2183 66.5535 39.4449 66.8648 37.6785C67.1312 36.1838 67.4337 34.6926 67.8575 33.2138C67.9902 32.7513 68.4342 32.448 68.9161 32.4963L70.3835 32.6458C70.2692 33.1751 69.6933 36.0686 69.9272 39.7649C70.1136 42.7983 70.8469 46.3724 72.8225 49.6273C74.0077 51.5872 75.6466 53.4327 77.8869 54.9731H77.886Z" fill="#D166B5"/>
</g>
<path d="M79.3041 44.2306C79.2461 44.803 79.1186 45.349 78.9322 45.8607C78.1523 48.0052 76.3376 49.5245 74.2617 49.7126C73.9575 49.7408 73.6471 49.7399 73.3341 49.7083C72.3617 49.6098 71.4798 49.2256 70.7447 48.6373C69.3591 47.526 68.5 45.684 68.5563 43.6486C68.5607 43.4806 68.5713 43.3118 68.5888 43.1421C68.6486 42.5539 68.7814 41.993 68.9757 41.4698C69.76 39.3605 71.5466 37.8641 73.5935 37.6618C73.91 37.6311 74.2318 37.6302 74.558 37.6636C74.9026 37.6988 75.2368 37.77 75.5577 37.8729C77.2651 38.425 78.5752 39.8986 79.0948 41.7494C79.3138 42.524 79.392 43.3637 79.3041 44.2306Z" fill="white" fill-opacity="0.26"/>
<path d="M96.8361 40.7483H81.951C81.875 39.8343 82.3714 38.8917 83.116 38.3256C83.9826 37.666 85.1121 37.4485 86.2011 37.4485C87.2894 37.4499 88.3666 37.6493 89.4514 37.7385C90.5363 37.8292 91.6629 37.8027 92.6648 37.376C93.1626 37.1634 93.6297 36.844 93.9372 36.3978C94.2432 35.9502 94.3729 35.3646 94.1986 34.8508C94.1986 34.8508 94.8568 35.1701 95.5344 35.8582C96.4471 36.7827 97.398 38.373 96.8368 40.7483H96.8361Z" fill="url(#paint8_linear_26659_499591)"/>
<g style="mix-blend-mode:multiply" opacity="0.28">
<path d="M96.8359 40.748H85.6934C86.0691 40.0439 86.8347 39.5649 87.6225 39.369C88.5588 39.1368 89.5398 39.2296 90.5026 39.2888C91.4668 39.3481 92.4645 39.3676 93.3576 39.0023C94.1663 38.6725 94.8412 38.0304 95.2107 37.2384C95.4129 36.8061 95.5203 36.3334 95.5335 35.8565C96.4462 36.781 97.3971 38.3713 96.8359 40.7466V40.748Z" fill="#D166B5"/>
</g>
<path d="M97.9996 43.4758V52.4048C97.9996 53.0155 97.5018 53.5105 96.8904 53.5105H81.9872C81.3764 53.5105 80.8779 53.0155 80.8779 52.4048V43.4758C80.8779 43.3817 80.8905 43.2939 80.9121 43.2067C81.0313 42.7242 81.4664 42.3673 81.9865 42.3673H96.8959C97.4126 42.3701 97.8455 42.7277 97.964 43.2067C97.9856 43.2945 97.9982 43.3824 97.9982 43.4758H97.9996Z" fill="url(#paint9_linear_26659_499591)"/>
<path opacity="0.25" d="M97.9983 44.6163H80.8794V51.2626H97.9983V44.6163Z" fill="white"/>
<g style="mix-blend-mode:multiply" opacity="0.16">
<path d="M97.9999 43.4756V53.5103H91.3522V44.3966C91.3522 43.7384 90.8195 43.2058 90.1614 43.2058H80.9131C81.0323 42.7233 81.4674 42.3663 81.9875 42.3663H96.8969C97.4135 42.3691 97.8465 42.7268 97.965 43.2058C97.9866 43.2936 97.9992 43.3815 97.9992 43.4749L97.9999 43.4756Z" fill="#D166B5"/>
</g>
<path d="M97.9985 40.7481C97.9985 41.1943 97.8172 41.5994 97.5244 41.8922C97.2316 42.185 96.8272 42.3663 96.3803 42.3663H82.4971C81.604 42.3663 80.8789 41.6412 80.8789 40.7481H97.9978H97.9985Z" fill="#EB557B"/>
<path d="M64.2206 41.8411L66.1292 49.756C66.2598 50.2975 65.9238 50.8433 65.3823 50.9739L52.1706 54.1598C51.6291 54.2903 51.0814 53.9584 50.9507 53.4162L49.0421 45.5012C49.0219 45.4179 49.014 45.3373 49.015 45.2553C49.0176 44.8021 49.3269 44.3926 49.7885 44.2813L63.0056 41.0941C63.4644 40.9864 63.9244 41.2104 64.1319 41.61C64.1704 41.6832 64.2 41.7585 64.2199 41.8412L64.2206 41.8411Z" fill="url(#paint10_linear_26659_499591)"/>
<path d="M63.2602 37.8587L63.8206 40.1827C63.9105 40.5555 63.6811 40.9307 63.3083 41.0206L49.4806 44.355C49.1085 44.4447 48.7326 44.2155 48.6427 43.8427L48.0823 41.5187C47.9924 41.1459 48.2225 40.7706 48.5946 40.6809L62.4224 37.3464C62.5111 37.325 62.5993 37.3217 62.6841 37.3342C62.9567 37.3732 63.1917 37.5747 63.2602 37.8587Z" fill="url(#paint11_linear_26659_499591)"/>
<path opacity="0.51" d="M64.4635 42.8524L49.2876 46.5119L50.7084 52.4037L65.8842 48.7442L64.4635 42.8524Z" fill="white"/>
<g style="mix-blend-mode:multiply" opacity="0.16">
<path d="M64.2204 41.841L66.3655 50.7367L60.4724 52.1578L58.5242 44.0788C58.3835 43.4952 57.7973 43.1374 57.2145 43.278L49.0162 45.2549C49.0188 44.8017 49.3281 44.3922 49.7897 44.2809L63.0068 41.0938C63.4656 40.986 63.9255 41.21 64.1331 41.6096C64.1715 41.6828 64.2012 41.7581 64.2211 41.8408L64.2204 41.841Z" fill="#D166B5"/>
</g>
<path d="M38.2441 28.0388L24.6279 20.1356L28.1847 16.4346L38.2441 28.0388Z" fill="#EB92A7"/>
<path d="M39.5969 26.103L33.6094 16.1192L37.2349 15L39.5969 26.103Z" fill="#EB92A7"/>
<path d="M36.6032 30.0508L27.6699 29.7624L28.4596 26.9609L36.6032 30.0508Z" fill="#EB92A7"/>
<path d="M119.103 60.4284H102.713L96.8149 50.8154H112.779C113.332 50.8233 113.874 50.9711 114.354 51.2448C114.834 51.5186 115.237 51.9094 115.526 52.3809L119.742 59.2473C119.809 59.364 119.845 59.4958 119.847 59.6303C119.848 59.7647 119.815 59.8974 119.752 60.0157C119.688 60.134 119.594 60.234 119.481 60.3062C119.368 60.3784 119.238 60.4205 119.103 60.4284Z" fill="#E0AC69"/>
<path d="M101.135 50.7761L44.0679 50.6964C43.2146 50.6952 42.522 51.3859 42.5208 52.2392L42.4681 89.9908C42.4669 90.844 43.1576 91.5367 44.0109 91.5379L101.078 91.6176C101.931 91.6188 102.624 90.928 102.625 90.0748L102.678 52.3232C102.679 51.4699 101.988 50.7772 101.135 50.7761Z" fill="#E0AC69"/>
<path d="M60.2236 50.7598H112.814C113.36 50.7598 113.884 50.9768 114.27 51.3631C114.657 51.7494 114.874 52.2734 114.874 52.8197V89.507C114.874 90.0534 114.657 90.5773 114.27 90.9636C113.884 91.3499 113.36 91.567 112.814 91.567H60.2236V50.7598Z" fill="#F7CD97"/>
<path d="M77.802 71.078C77.1978 70.8995 76.3669 70.6591 76.3669 70.3914C76.3669 70.1236 76.9575 69.7047 77.6304 69.7047C78.3033 69.7047 78.8938 70.0274 78.8938 70.3914V70.6797H79.9444V70.3914C79.9444 69.4575 78.9075 68.6885 77.6304 68.6885C76.3532 68.6885 75.3164 69.4507 75.3095 70.3914C75.3095 71.4488 76.5661 71.8127 77.6578 72.1286C78.2964 72.314 79.0929 72.5474 79.0929 72.8152C79.0929 73.083 78.4063 73.5018 77.6235 73.5018C76.8407 73.5018 76.1609 73.1723 76.1609 72.8152V72.5268H75.1035V72.8083C75.1035 73.7628 76.209 74.5181 77.6235 74.5181C79.038 74.5181 80.1435 73.7696 80.1435 72.8221C80.1435 71.7646 78.9075 71.4007 77.802 71.0711" fill="#231F20"/>
<path d="M83.3495 68.689C82.9539 68.6698 82.5585 68.7312 82.1873 68.8693C81.8162 69.0075 81.4769 69.2196 81.1902 69.4928C80.9034 69.766 80.6751 70.0946 80.5191 70.4586C80.3631 70.8227 80.2827 71.2146 80.2827 71.6107C80.2827 72.0067 80.3631 72.3986 80.5191 72.7627C80.6751 73.1267 80.9034 73.4553 81.1902 73.7285C81.4769 74.0017 81.8162 74.2138 82.1873 74.352C82.5585 74.4901 82.9539 74.5515 83.3495 74.5323C83.8251 74.5493 84.2979 74.453 84.7289 74.2512C85.1599 74.0494 85.5367 73.748 85.8283 73.3719L86.0137 73.1316L85.1554 72.5411L84.9906 72.7539C84.7985 73.0041 84.5493 73.2045 84.2637 73.3383C83.9781 73.4721 83.6646 73.5354 83.3495 73.523C82.9392 73.5252 82.5397 73.3917 82.2131 73.1434C81.8865 72.895 81.6511 72.5456 81.5436 72.1497H86.2746V71.6415C86.2746 70.867 85.9674 70.124 85.4203 69.5756C84.8732 69.0272 84.131 68.7183 83.3564 68.7164L83.3495 68.689ZM81.5642 71.0991C81.6728 70.7037 81.9084 70.355 82.2347 70.1068C82.5611 69.8586 82.9601 69.7248 83.3701 69.7258C83.7846 69.7229 84.1886 69.8555 84.5208 70.1034C84.853 70.3513 85.0951 70.701 85.2103 71.0991H81.5642Z" fill="#231F20"/>
<path d="M88.3279 67.3221H87.2773V68.6953H86.3022V69.7047H87.2773V72.8083C87.2773 73.9001 88.0875 74.5318 89.4677 74.5318H89.9964V73.5224H89.4677C88.7192 73.5224 88.3347 73.2752 88.3279 72.8358V69.7116H89.9964V68.7022H88.3279V67.3221Z" fill="#30C495"/>
<path d="M92.949 68.7023C92.3705 68.7023 91.805 68.8739 91.3239 69.1953C90.8429 69.5167 90.468 69.9735 90.2466 70.508C90.0252 71.0425 89.9673 71.6306 90.0801 72.1981C90.193 72.7655 90.4716 73.2867 90.8807 73.6958C91.2897 74.1048 91.811 74.3834 92.3784 74.4963C92.9458 74.6092 93.5339 74.5512 94.0684 74.3298C94.6029 74.1084 95.0597 73.7335 95.3812 73.2525C95.7026 72.7715 95.8741 72.2059 95.8741 71.6274C95.8741 70.8516 95.5659 70.1076 95.0174 69.559C94.4688 69.0105 93.7248 68.7023 92.949 68.7023ZM92.949 69.7185C93.3282 69.7117 93.7009 69.818 94.0194 70.0239C94.338 70.2297 94.588 70.5258 94.7376 70.8744C94.8871 71.2229 94.9294 71.6081 94.8592 71.9808C94.7889 72.3536 94.6091 72.6969 94.3429 72.967C94.0767 73.2371 93.736 73.4218 93.3644 73.4976C92.9927 73.5733 92.6069 73.5365 92.2562 73.3921C91.9056 73.2476 91.6059 73.0019 91.3954 72.6864C91.1849 72.3709 91.0732 71.9998 91.0745 71.6205C91.0727 71.1203 91.2687 70.6396 91.6198 70.2833C91.971 69.927 92.4488 69.724 92.949 69.7185Z" fill="#30C495"/>
<path d="M104.718 68.7228C104.14 68.7228 103.574 68.8944 103.093 69.2158C102.612 69.5372 102.237 69.994 102.016 70.5285C101.794 71.063 101.736 71.6512 101.849 72.2186C101.962 72.786 102.241 73.3072 102.65 73.7163C103.059 74.1253 103.58 74.4039 104.147 74.5168C104.715 74.6297 105.303 74.5717 105.837 74.3503C106.372 74.129 106.829 73.754 107.15 73.273C107.472 72.792 107.643 72.2264 107.643 71.6479C107.643 70.8721 107.335 70.1281 106.786 69.5796C106.238 69.031 105.494 68.7228 104.718 68.7228ZM104.718 73.5293C104.339 73.5361 103.967 73.43 103.648 73.2244C103.33 73.0189 103.08 72.7232 102.93 72.375C102.78 72.0269 102.738 71.642 102.807 71.2695C102.877 70.897 103.056 70.5537 103.322 70.2833C103.587 70.0129 103.927 69.8276 104.299 69.7512C104.67 69.6747 105.055 69.7104 105.406 69.8538C105.757 69.9972 106.057 70.2418 106.268 70.5564C106.48 70.8711 106.593 71.2415 106.593 71.6204C106.596 72.1219 106.401 72.6043 106.05 72.9621C105.698 73.3199 105.22 73.5239 104.718 73.5293Z" fill="#30C495"/>
<path d="M97.6732 71.126L97.68 70.7758V66.2989L96.6295 66.292L96.6157 74.5523H97.6732V73.0417V72.1353V71.126Z" fill="#30C495"/>
<path d="M101.347 69.6018L102.377 68.7161H100.804L97.8999 71.1262V72.1424L100.646 74.4427L100.791 74.5594H102.37L98.9161 71.6343L101.347 69.6018Z" fill="#30C495"/>
<path d="M67.4746 71.7781V69.4023C67.8807 69.4051 68.2832 69.3275 68.6592 69.1742C69.0352 69.021 69.3772 68.7949 69.6656 68.5091C69.9539 68.2232 70.183 67.8833 70.3397 67.5087C70.4963 67.1341 70.5774 66.7322 70.5783 66.3262H72.9609C72.9482 67.7747 72.3639 69.1596 71.3351 70.1794C70.3063 71.1992 68.9164 71.7713 67.4678 71.7713" fill="#30C495"/>
<path d="M70.5473 72.0881L70.5439 74.4707L72.9266 74.474L72.9299 72.0914L70.5473 72.0881Z" fill="#231F20"/>
<path d="M54.5465 50.7109L47.584 50.7012L47.5783 54.8005L54.5408 54.8102L54.5465 50.7109Z" fill="#F1C27D"/>
<path d="M54.4953 87.4531L47.5327 87.4433L47.527 91.5426L54.4895 91.5523L54.4953 87.4531Z" fill="#F1C27D"/>
<path d="M37.3241 60.3591H53.9546C54.0915 60.3628 54.2269 60.3305 54.3474 60.2654C54.4679 60.2003 54.5692 60.1048 54.6413 59.9883L60.3404 50.7393H43.5245C43.2242 50.7394 42.929 50.8165 42.6669 50.9631C42.4049 51.1098 42.1848 51.3211 42.0276 51.577L36.9808 59.7343C36.9411 59.7957 36.9189 59.8666 36.9163 59.9397C36.9137 60.0127 36.9309 60.0851 36.9661 60.1491C37.0013 60.2132 37.0531 60.2665 37.1162 60.3035C37.1792 60.3404 37.251 60.3597 37.3241 60.3591Z" fill="#F1C27D"/>
<path d="M48.1798 91.5262C51.9645 91.5262 55.0326 88.2922 55.0326 84.3028C55.0326 80.3133 51.9645 77.0793 48.1798 77.0793C44.3952 77.0793 41.3271 80.3133 41.3271 84.3028C41.3271 88.2922 44.3952 91.5262 48.1798 91.5262Z" fill="#FBE9ED"/>
<path d="M54.8676 91.5265C56.7371 91.5265 58.2527 90.18 58.2527 88.519C58.2527 86.858 56.7371 85.5115 54.8676 85.5115C52.998 85.5115 51.4824 86.858 51.4824 88.519C51.4824 90.18 52.998 91.5265 54.8676 91.5265Z" fill="#56CCA5"/>
<path d="M41.3271 91.526C43.6252 91.526 45.4881 89.8721 45.4881 87.8318C45.4881 85.7916 43.6252 84.1377 41.3271 84.1377C39.029 84.1377 37.166 85.7916 37.166 87.8318C37.166 89.8721 39.029 91.526 41.3271 91.526Z" fill="#FBE9ED"/>
<path d="M66.6708 92.0001H29.5234C29.5234 92.0001 44.2725 86.6031 66.6708 92.0001Z" fill="#FBE9ED"/>
<path d="M56.056 91.2451C59.6776 91.2451 62.6134 88.6382 62.6134 85.4223C62.6134 82.2065 59.6776 79.5996 56.056 79.5996C52.4344 79.5996 49.4985 82.2065 49.4985 85.4223C49.4985 88.6382 52.4344 91.2451 56.056 91.2451Z" fill="#FBE9ED"/>
<path d="M62.6132 91.2447C64.4221 91.2447 65.8885 89.9413 65.8885 88.3334C65.8885 86.7255 64.4221 85.422 62.6132 85.422C60.8043 85.422 59.3379 86.7255 59.3379 88.3334C59.3379 89.9413 60.8043 91.2447 62.6132 91.2447Z" fill="#FBE9ED"/>
<path d="M49.4983 91.2515C51.7206 91.2515 53.5221 89.6498 53.5221 87.6741C53.5221 85.6983 51.7206 84.0967 49.4983 84.0967C47.2761 84.0967 45.4746 85.6983 45.4746 87.6741C45.4746 89.6498 47.2761 91.2515 49.4983 91.2515Z" fill="#FBE9ED"/>
<path d="M73.6543 91.8761H37.7085C37.7085 91.8761 51.9769 86.6507 73.6543 91.8761Z" fill="#FBE9ED"/>
<path d="M106.407 91.3824C109.645 91.3824 112.271 88.8462 112.271 85.7176C112.271 82.589 109.645 80.0528 106.407 80.0528C103.168 80.0528 100.543 82.589 100.543 85.7176C100.543 88.8462 103.168 91.3824 106.407 91.3824Z" fill="#FBE9ED"/>
<path d="M110.308 91.3754C111.654 91.3754 112.745 90.321 112.745 89.0202C112.745 87.7195 111.654 86.665 110.308 86.665C108.961 86.665 107.87 87.7195 107.87 89.0202C107.87 90.321 108.961 91.3754 110.308 91.3754Z" fill="#56CCA5"/>
<path d="M100.543 91.382C102.2 91.382 103.544 90.0847 103.544 88.4844C103.544 86.884 102.2 85.5867 100.543 85.5867C98.8859 85.5867 97.5425 86.884 97.5425 88.4844C97.5425 90.0847 98.8859 91.382 100.543 91.382Z" fill="#FBE9ED"/>
<path d="M118.808 91.7462H92.0288C92.0288 91.7462 102.665 87.5164 118.808 91.7462Z" fill="#FBE9ED"/>
<path d="M114.331 91.3891C116.94 91.3891 119.055 89.3448 119.055 86.8229C119.055 84.3011 116.94 82.2568 114.331 82.2568C111.722 82.2568 109.607 84.3011 109.607 86.8229C109.607 89.3448 111.722 91.3891 114.331 91.3891Z" fill="#FBE9ED"/>
<path d="M119.055 91.3894C120.36 91.3894 121.417 90.3688 121.417 89.1097C121.417 87.8507 120.36 86.8301 119.055 86.8301C117.751 86.8301 116.693 87.8507 116.693 89.1097C116.693 90.3688 117.751 91.3894 119.055 91.3894Z" fill="#FBE9ED"/>
<path d="M109.607 91.389C111.211 91.389 112.512 90.1347 112.512 88.5875C112.512 87.0403 111.211 85.786 109.607 85.786C108.003 85.786 106.703 87.0403 106.703 88.5875C106.703 90.1347 108.003 91.389 109.607 91.389Z" fill="#FBE9ED"/>
<path d="M127.281 91.7466H101.374C101.374 91.7466 111.66 87.6542 127.281 91.7466Z" fill="#FBE9ED"/>
<path d="M95.4141 50.795L107.485 50.7812L102.143 58.3069L95.6681 55.5946L95.4141 50.795Z" fill="#F7CD97"/>
<g clip-path="url(#clip0_26659_499591)">
<rect width="42.7417" height="12.1845" transform="matrix(0.99995 -0.0100448 -0.00471651 0.999989 65.8291 64.8057)" fill="#F7CD97"/>
<path d="M70.5172 68.3749L70.646 68.3466C70.4473 69.6408 70.2505 71.2788 70.2657 71.7948C70.2735 72.063 70.4635 72.2541 70.7182 72.2515C70.7986 72.2501 70.8778 72.2299 70.9499 72.1924C72.1058 71.6057 72.8202 71.4133 74.004 71.0945C74.282 71.0208 74.356 70.7798 74.3343 70.5973C74.3093 70.3847 74.1486 70.1695 73.8904 70.1721C73.8491 70.1727 73.8079 70.1785 73.7678 70.1893C72.7546 70.462 72.0756 70.6558 71.2323 71.0308C71.2517 70.8291 71.2767 70.5961 71.3074 70.3379C71.4712 70.2677 71.6232 70.202 71.7664 70.1395C72.5558 69.7974 73.077 69.5711 74.0128 69.3009C74.2908 69.2204 74.3614 68.9781 74.339 68.7928C74.3122 68.5844 74.1539 68.3746 73.903 68.3771C73.859 68.3777 73.8152 68.3843 73.7728 68.3968C72.8252 68.6717 72.3001 68.8998 71.5045 69.2452L71.4443 69.271C71.5161 68.7654 71.5878 68.2793 71.6531 67.8991C72.3219 67.5943 72.9393 67.4334 73.9147 67.2263C74.1422 67.1779 74.2753 66.9953 74.2538 66.7617C74.2337 66.5398 74.0627 66.3056 73.7865 66.3084C73.7531 66.3088 73.7199 66.3126 73.6872 66.3196C72.9181 66.4831 72.3223 66.6296 71.7344 66.8548C71.7192 66.8293 71.7013 66.8057 71.6809 66.7844C71.6352 66.7384 71.5809 66.7022 71.5212 66.6779C71.4615 66.6537 71.3974 66.6419 71.3328 66.6431C71.1631 66.6448 70.9597 66.7362 70.8981 66.9874C70.8918 67.013 70.8801 67.0549 70.8664 67.104L70.8663 67.109C70.8423 67.1944 70.8127 67.2997 70.7957 67.3783C70.6768 67.415 70.2444 67.497 69.8255 67.575L69.8047 67.5791C69.3132 67.6703 68.7568 67.7738 68.4014 67.86C68.4131 67.5832 68.4243 67.3393 68.4354 67.1146C68.442 66.9801 68.4457 66.841 68.4495 66.7058L68.4499 66.6277C68.859 66.5619 69.2657 66.4936 69.7546 66.4113L69.7668 66.409C70.3003 66.3192 70.9049 66.2174 71.4925 66.126C71.5439 66.117 71.5931 66.0969 71.6366 66.067C71.6802 66.0372 71.7171 65.9982 71.7449 65.9528C71.7807 65.8968 71.8051 65.8341 71.8166 65.7685C71.828 65.703 71.8263 65.6359 71.8116 65.5714C71.7584 65.3701 71.5948 65.2518 71.3741 65.254C71.3445 65.2543 71.3149 65.2568 71.2856 65.2613C70.7299 65.3481 70.1642 65.4432 69.6186 65.5352L69.5939 65.5398C69.2327 65.6009 68.8778 65.6605 68.5173 65.7198C68.5365 65.5907 68.564 65.4629 68.5996 65.3372C68.6203 65.2741 68.6258 65.2069 68.6154 65.1416C68.6051 65.0763 68.5793 65.0148 68.5403 64.9624C68.4959 64.9052 68.4392 64.8592 68.3745 64.828C68.3097 64.7969 68.2387 64.7812 68.1667 64.7824C68.0732 64.7805 67.9814 64.8111 67.9064 64.8694C67.8313 64.9277 67.7776 65.0101 67.754 65.103C67.6851 65.3501 67.6402 65.6033 67.62 65.8587C67.1171 65.9347 66.6695 65.9956 66.2518 66.0452C65.9966 66.0751 65.8223 66.2567 65.8211 66.4966C65.8201 66.7151 66.0184 66.9683 66.2663 66.9392C66.6653 66.8926 67.0927 66.8347 67.5734 66.7635C67.5706 66.8345 67.5678 66.9055 67.5644 66.9765C67.5475 67.3077 67.5313 67.6587 67.5139 68.1173C67.3481 68.1726 67.1969 68.2269 67.0516 68.283C66.86 68.3559 66.7221 68.5964 66.744 68.8155C66.7622 68.998 66.8814 69.1217 67.0659 69.1468C67.1721 69.1644 67.281 69.161 67.3866 69.1369C67.4109 69.1313 67.4401 69.1246 67.4738 69.1158L67.46 69.4707C67.4244 70.3879 67.3876 71.3363 67.3319 72.2689C67.3267 72.325 67.3329 72.3814 67.3503 72.4346C67.3677 72.4878 67.3958 72.5365 67.4328 72.5776C67.4739 72.6196 67.523 72.6525 67.5772 72.6744C67.6314 72.6963 67.6895 72.7067 67.748 72.705C67.9639 72.7028 68.1908 72.5529 68.2074 72.2704C68.2639 71.3299 68.3007 70.378 68.3362 69.4576L68.3591 68.8702C68.8421 68.7384 69.9176 68.5055 70.4359 68.3931L70.5172 68.3749Z" fill="#D7244F"/>
<path d="M90.526 69.8866C90.5009 69.674 90.3402 69.4584 90.0817 69.461C90.0405 69.4617 89.9994 69.4676 89.9595 69.4786C88.8952 69.7649 88.1286 69.9827 87.2349 70.3763C87.2498 70.1774 87.2717 69.9445 87.301 69.6827C87.308 69.6801 87.3146 69.6779 87.3208 69.675C87.5949 69.5577 87.8237 69.4571 87.9749 69.3882C88.5466 69.1341 88.8614 68.9943 89.7037 68.7499C89.9817 68.6691 90.0522 68.4271 90.0292 68.2414C90.0031 68.033 89.8448 67.8232 89.5935 67.8257C89.5497 67.8264 89.506 67.8331 89.4636 67.8455C88.6088 68.0935 88.291 68.2351 87.7144 68.4914C87.6271 68.5302 87.5357 68.5712 87.4362 68.6148C87.508 68.1081 87.5875 67.5897 87.6635 67.1511C87.9563 67.0226 88.2739 66.9321 88.573 66.8517C88.9809 66.7433 89.2331 66.6968 89.5255 66.6428L89.5287 66.6427C89.6791 66.615 89.8663 66.5808 90.1056 66.5305C90.3331 66.4828 90.4665 66.3012 90.4454 66.0659C90.4257 65.8432 90.2543 65.6065 89.9767 65.6093C89.9439 65.6097 89.9113 65.6132 89.8791 65.6199C89.6415 65.6695 89.4099 65.7112 89.1845 65.7518C88.7329 65.8329 88.2637 65.9168 87.8147 66.0628C87.795 66.0029 87.7621 65.9485 87.7186 65.9038C87.6265 65.8117 87.502 65.7612 87.3723 65.7632C87.2026 65.7649 86.9991 65.856 86.9376 66.1068C86.9146 66.2007 86.8855 66.3379 86.8517 66.5157C86.6616 66.6387 86.4829 66.7795 86.318 66.9361C86.1786 67.0685 86.1355 67.242 86.1999 67.4127C86.2359 67.5039 86.2967 67.5822 86.3753 67.6386C86.4538 67.6949 86.5468 67.7269 86.6433 67.7308C86.4397 69.0282 86.2446 70.5973 86.3049 71.1275C86.3355 71.3947 86.5227 71.5798 86.7608 71.5774C86.8398 71.5759 86.9177 71.5558 86.9884 71.5187C88.1346 70.9367 89.0004 70.7037 90.1988 70.3813C90.474 70.3086 90.547 70.0691 90.526 69.8866Z" fill="#D7244F"/>
<path d="M78.0635 72.2804C78.1176 71.6388 78.1981 70.8908 78.2765 70.168L78.2766 70.152C78.3314 69.6448 78.388 69.122 78.4336 68.6482C78.4828 68.1315 78.5379 67.5732 78.6065 66.9952C78.613 66.9423 78.6192 66.8887 78.625 66.8354C78.6568 66.5573 78.6894 66.2696 78.758 65.996C78.7735 65.9384 78.7757 65.8781 78.7644 65.8199C78.7531 65.7617 78.7287 65.7072 78.693 65.6607C78.6497 65.6065 78.5949 65.563 78.5328 65.5334C78.4706 65.5039 78.4026 65.4889 78.3336 65.4897C78.2607 65.4891 78.1887 65.5088 78.1253 65.5465C78.0619 65.5843 78.0094 65.6387 77.9734 65.7041C77.7985 66.0131 77.6432 66.3308 77.4922 66.6382C77.3973 66.8311 77.2897 67.05 77.1818 67.2565C76.9829 67.6385 76.8149 67.9432 76.6481 68.2148C76.5974 68.2984 76.5478 68.3762 76.4967 68.4519C76.4145 68.219 76.2246 67.6507 76.1073 67.2194C76.0292 66.9342 75.9399 66.6509 75.8534 66.3765C75.8131 66.2481 75.7727 66.1193 75.7338 65.9927C75.7301 65.9573 75.7251 65.924 75.719 65.8907L75.7173 65.8857C75.7036 65.8436 75.6877 65.8023 75.6696 65.762C75.6053 65.6346 75.4655 65.5562 75.3045 65.5578C75.2303 65.5582 75.157 65.5768 75.0908 65.6121C75.0436 65.6379 75.0018 65.6732 74.9682 65.7158C74.9557 65.7283 74.9441 65.7416 74.9333 65.7556C74.8959 65.8071 74.8717 65.8673 74.8631 65.9305C74.8343 66.0531 74.8178 66.1782 74.8141 66.3039C74.8107 66.361 74.807 66.42 74.8005 66.4676C74.7326 66.965 74.6891 67.4937 74.6591 68.1837C74.6124 69.2752 74.5675 70.7552 74.5424 72.0455C74.5399 72.0971 74.5477 72.1487 74.5654 72.1969C74.5831 72.245 74.6102 72.2889 74.6452 72.3258C74.6867 72.3665 74.7359 72.3984 74.7898 72.4195C74.8437 72.4406 74.9013 72.4506 74.9593 72.4489C75.17 72.4468 75.3861 72.3056 75.3916 72.0398C75.4044 71.3755 75.4299 70.6088 75.4542 69.8674C75.4712 69.3578 75.485 68.9368 75.4951 68.5457C75.4985 68.4297 75.5021 68.3104 75.5072 68.1908C75.6914 68.7151 75.9117 69.1004 76.1976 69.3998C76.2778 69.4768 76.3851 69.5178 76.4959 69.5139C76.5761 69.5147 76.6551 69.4901 76.7218 69.4435C77.1163 69.1514 77.3847 68.6854 77.6256 68.2256C77.6132 68.3497 77.6011 68.4738 77.5892 68.5981C77.5454 69.0549 77.4902 69.5663 77.4369 70.0611L77.4343 70.0842C77.3534 70.8365 77.2696 71.6143 77.2122 72.2943C77.2063 72.3444 77.2108 72.395 77.2254 72.4428C77.2401 72.4906 77.2646 72.5345 77.2973 72.5716C77.3362 72.6117 77.3828 72.643 77.4343 72.6637C77.4857 72.6844 77.541 72.6939 77.5966 72.6917C77.8128 72.6896 78.0425 72.5475 78.0635 72.2804Z" fill="#D7244F"/>
<path d="M79.4191 71.7975C79.604 71.2137 79.7748 70.6231 79.9036 70.1701C80.3611 69.9271 80.7792 69.7082 81.1806 69.5009C81.4272 70.3445 81.7246 71.1709 82.0712 71.9755C82.134 72.1204 82.2901 72.2125 82.4692 72.2107C82.5512 72.2105 82.632 72.1884 82.7037 72.1466C82.9164 72.0178 82.9856 71.7623 82.8761 71.5108C82.5671 70.8043 82.2887 70.0064 82.02 69.0745C82.2482 68.9605 82.4534 68.8573 82.6461 68.7638C82.8329 68.6725 82.9226 68.4932 82.8801 68.296C82.8377 68.0988 82.6585 67.8958 82.4062 67.8984C82.335 67.8995 82.2646 67.9168 82.2002 67.9491C82.0588 68.0184 81.9156 68.089 81.7706 68.1609C81.665 67.7515 81.5602 67.3115 81.4303 66.7405C81.3878 66.5504 81.3402 66.3572 81.2853 66.1491C81.2638 66.0677 81.2448 65.9842 81.2275 65.8939L81.2234 65.8719C81.2508 65.8071 81.2629 65.7368 81.2586 65.6668C81.2544 65.5968 81.2339 65.5291 81.199 65.4691C81.1555 65.3983 81.0952 65.3399 81.0237 65.2992C80.9521 65.2586 80.8715 65.2369 80.7892 65.2363C80.7079 65.2362 80.6284 65.263 80.5626 65.3127C80.445 65.3994 80.3616 65.5263 80.3277 65.6698L80.3118 65.6654L80.2926 65.7529C79.8725 66.9077 79.5351 68.1021 79.209 69.2599L79.1324 69.5286L79.1 69.5463C79.0728 69.5561 79.0464 69.5682 79.0211 69.5826C78.9912 69.5988 78.9626 69.6158 78.9362 69.632C78.9097 69.6482 78.8847 69.6627 78.8583 69.6771L78.7779 69.7202L78.781 69.7279C78.7166 69.7779 78.6681 69.8464 78.642 69.9244C78.6159 70.0024 78.6133 70.0863 78.6345 70.1651C78.6665 70.2973 78.7474 70.4109 78.8604 70.4822C78.7411 70.8896 78.6386 71.2295 78.5364 71.5498C78.513 71.6145 78.5054 71.6839 78.5143 71.7519C78.5231 71.8198 78.5482 71.8843 78.5873 71.9396C78.6338 72.0003 78.6935 72.049 78.7619 72.0819C78.8303 72.1147 78.9054 72.1309 78.9813 72.129C79.0792 72.1307 79.1754 72.099 79.2546 72.039C79.3339 71.979 79.3917 71.894 79.4191 71.7975ZM80.2529 68.9362C80.3641 68.5448 80.5095 68.0395 80.6705 67.517L80.678 67.5524C80.7283 67.7772 80.7847 68.0318 80.848 68.2827C80.8736 68.386 80.9005 68.4876 80.9268 68.5884C80.7135 68.6966 80.493 68.8092 80.2529 68.9362Z" fill="#D7244F"/>
<path d="M85.661 70.4025C85.5828 70.4038 85.5059 70.4254 85.4376 70.4654C85.058 70.6796 84.752 70.8168 84.4451 70.91C84.2859 70.9585 84.1213 70.9851 83.9558 70.989L83.9388 70.9867C83.9165 70.8571 83.9496 70.6719 83.9757 70.5212C84.022 70.261 84.0751 69.966 84.1185 69.6683C84.3695 67.957 84.5051 66.5837 84.5611 65.215C84.5653 65.1559 84.5575 65.0968 84.5383 65.0413C84.5191 64.9857 84.4889 64.935 84.4495 64.8922C84.4059 64.8484 84.3541 64.8141 84.2971 64.7912C84.24 64.7683 84.1789 64.7574 84.1174 64.7589C83.8904 64.7612 83.654 64.9193 83.6419 65.2171C83.5697 66.9897 83.4112 68.5084 83.1436 69.9967C83.135 70.0446 83.1251 70.0944 83.1147 70.1481L83.1112 70.1669C83.0045 70.7236 82.8683 71.4165 83.4045 71.779C83.5605 71.8839 83.7507 71.9345 83.9819 71.9322C84.1919 71.924 84.4008 71.8918 84.6045 71.8362C85.0638 71.7233 85.4952 71.5001 85.8911 71.2751C86.0783 71.1696 86.1597 70.9836 86.1093 70.7762C86.0655 70.5896 85.8953 70.4001 85.661 70.4025Z" fill="#D7244F"/>
<path d="M101.456 70.5397L101.421 70.54C101.047 70.5438 100.844 70.852 100.836 71.1544C100.828 71.445 101.001 71.7648 101.396 71.7785L101.427 71.7782C101.803 71.7744 102.008 71.4666 102.016 71.1642C102.023 70.8732 101.851 70.5535 101.456 70.5397Z" fill="#D7244F"/>
<path d="M96.8762 67.1374C96.7542 66.2162 96.2051 65.4319 95.4429 65.089C95.1836 64.9713 94.9021 64.9112 94.6168 64.9125C94.082 64.9178 93.6145 65.1496 93.3013 65.5643C93.2114 65.6804 93.1338 65.8058 93.0698 65.9385C93.0316 66.0142 93.0134 66.0986 93.0171 66.1832C93.0207 66.2678 93.046 66.3496 93.0904 66.4204C93.1573 66.5306 93.2614 66.6116 93.3833 66.6485C93.3574 67.3463 93.3492 68.068 93.3583 68.7917C93.3649 69.2997 93.3804 69.9006 93.448 70.5069L93.4593 70.6111C93.3833 70.6208 93.3093 70.6268 93.2389 70.6293C92.93 70.6399 92.7706 70.8937 92.7725 71.1389C92.7739 71.3681 92.9171 71.6125 93.2273 71.6094L93.2395 71.6093C93.3876 71.604 93.5354 71.5886 93.6818 71.5633C93.7042 71.6084 93.7302 71.6514 93.7596 71.692C93.8662 71.8379 94.0164 71.9204 94.1722 71.9189C94.2548 71.9177 94.3358 71.8937 94.4068 71.8495C94.4663 71.8111 94.5178 71.7608 94.5579 71.7016C94.5981 71.6425 94.6261 71.5757 94.6402 71.5054C94.6578 71.4243 94.6526 71.3401 94.6254 71.2625C95.1359 71.0147 95.5893 70.6574 95.9545 70.2153C96.6826 69.3359 97.0186 68.2142 96.8762 67.1374ZM94.3747 65.9207C94.4423 65.8937 94.5144 65.8809 94.5865 65.8831L94.6403 65.8826C94.7508 65.8855 94.8598 65.9077 94.9624 65.9482C95.4367 66.1073 95.8163 66.6272 95.9299 67.2715C96.058 67.9996 95.7949 68.9013 95.2597 69.568C95.0185 69.869 94.7225 70.1195 94.3887 70.3056C94.3347 69.759 94.3221 69.1971 94.3163 68.6714C94.3054 67.7369 94.325 66.8114 94.3747 65.9204L94.3747 65.9207Z" fill="#D7244F"/>
<path d="M100.23 69.0311C100.164 68.3757 100.092 67.698 99.9723 67.039C99.8891 66.5832 99.7942 66.1002 99.6277 65.642C99.5527 65.4352 99.4728 65.2381 99.3201 65.0966C99.2096 64.9922 99.0643 64.9346 98.9127 64.935C98.8341 64.9358 98.7562 64.9536 98.6843 64.9872C98.6124 65.0209 98.548 65.0695 98.4954 65.1301C98.4353 65.1951 98.3939 65.2757 98.376 65.3629C98.3581 65.45 98.3644 65.5402 98.3942 65.6232C98.3949 65.6261 98.3958 65.6289 98.3969 65.6317C98.3899 65.646 98.3837 65.6606 98.3783 65.6755C98.2026 66.1474 98.0466 66.6304 97.8941 67.0975L97.8941 67.101C97.7247 67.6204 97.5709 68.0881 97.3983 68.5518C97.1647 68.6308 97.1023 68.8446 97.1203 69.0052C97.1265 69.0573 97.1408 69.1079 97.1626 69.1552C97.0829 69.3525 96.9923 69.5827 96.9218 69.8072C96.826 70.1133 96.7149 70.5654 96.8581 70.9525C96.9376 71.1645 97.1133 71.2976 97.3166 71.2956C97.3591 71.2951 97.4014 71.2888 97.4423 71.2769C97.5084 71.2557 97.5697 71.2212 97.6227 71.1753C97.6757 71.1295 97.7192 71.0733 97.7507 71.0102C97.7788 70.9565 97.7956 70.8975 97.8001 70.837C97.8045 70.7766 97.7964 70.7161 97.7763 70.6594C97.703 70.4618 97.7969 70.1891 97.8796 69.9488L97.8993 69.8921C97.9644 69.7006 98.0423 69.5111 98.1175 69.3276L98.1378 69.2774C98.4658 69.2031 98.8089 69.1347 99.2816 69.0487L99.3042 69.2674C99.3895 70.1007 99.4781 70.962 99.6706 71.7927C99.6902 71.8951 99.7447 71.9866 99.8244 72.051C99.9041 72.1154 100.004 72.1487 100.106 72.1449C100.184 72.1437 100.26 72.125 100.33 72.0902C100.4 72.0555 100.462 72.0056 100.511 71.944C100.556 71.8863 100.587 71.8189 100.601 71.7473C100.616 71.6756 100.614 71.6017 100.595 71.5316C100.405 70.7132 100.316 69.8583 100.23 69.0311ZM99.1796 68.1745C98.9167 68.2222 98.6989 68.263 98.4971 68.303C98.6009 68.0011 98.7033 67.6886 98.7995 67.3949L98.81 67.3625C98.8561 67.2223 98.9097 67.0582 98.9656 66.8898C99.0081 67.0905 99.049 67.3147 99.0919 67.5704C99.1023 67.6331 99.1121 67.6962 99.1212 67.7589C99.1249 67.7844 99.1289 67.8099 99.1319 67.8354L99.1437 67.9194C99.1463 67.9403 99.1487 67.9548 99.1497 67.9626C99.1601 68.0328 99.1702 68.1036 99.1796 68.1745Z" fill="#D7244F"/>
<path d="M101.922 67.703C101.927 67.6182 101.933 67.5301 101.939 67.4353L101.94 67.4261C101.952 67.2337 101.96 67.12 101.967 67.0355L101.967 67.016C101.979 66.8662 101.986 66.7756 101.999 66.4321C101.999 66.3991 102.001 66.3653 102.003 66.3316L102.005 66.2791C102.02 65.9383 102.036 65.5859 101.95 65.2599C101.925 65.1547 101.866 65.0619 101.782 64.9969C101.697 64.9319 101.594 64.8987 101.487 64.9027C101.411 64.9028 101.335 64.9204 101.266 64.9544C101.197 64.9884 101.136 65.0378 101.087 65.099C101.045 65.1553 101.016 65.2208 101.004 65.2902C100.992 65.3596 100.996 65.4308 101.016 65.4978C101.028 65.5469 101.037 65.5968 101.041 65.6473L101.041 65.6782C101.044 65.7296 101.045 65.7799 101.046 65.8225C101.052 66.057 101.044 66.2894 101.034 66.5266C101.02 66.8676 101.011 66.9852 100.996 67.1503L100.996 67.1549C100.988 67.2614 100.977 67.3921 100.962 67.6286L100.95 67.8174C100.924 68.2236 100.905 68.5175 100.908 68.977C100.908 69.0008 100.908 69.0267 100.907 69.054L100.907 69.0657C100.906 69.4347 100.903 70.0521 101.362 70.1209C101.401 70.1266 101.439 70.1293 101.478 70.129C101.637 70.1274 101.756 70.0691 101.838 69.955C101.968 69.7707 101.934 69.5049 101.893 69.3769C101.884 69.3467 101.878 69.3158 101.876 69.2845C101.876 69.2809 101.876 69.2692 101.874 69.2522L101.874 69.2437C101.874 69.2281 101.871 69.2121 101.87 69.205C101.868 69.1604 101.867 69.1153 101.866 69.0713L101.866 69.0614C101.864 68.9571 101.867 68.8485 101.868 68.7559C101.88 68.3367 101.898 68.0708 101.922 67.703Z" fill="#D7244F"/>
<path d="M108.164 65.0939C108.099 65.0935 108.034 65.1099 107.976 65.1414C107.918 65.173 107.868 65.2188 107.831 65.2747L107.815 65.2702L107.78 65.377C107.597 65.9117 107.381 66.449 107.152 67.0161L107.149 67.0222C107.052 67.2623 106.971 67.4632 106.893 67.6634C106.69 67.366 106.479 67.048 106.254 66.6934C106.175 66.57 106.133 66.5133 106.1 66.4675C106.039 66.3854 105.984 66.2992 105.936 66.2094C105.867 66.0906 105.806 65.9791 105.75 65.8689C105.729 65.828 105.708 65.7838 105.686 65.7347L105.677 65.7125C105.671 65.6969 105.666 65.6799 105.661 65.6637C105.639 65.5807 105.589 65.5081 105.522 65.4574C105.454 65.4067 105.371 65.3807 105.286 65.3836C105.221 65.3838 105.157 65.3992 105.099 65.4288C105.04 65.4584 104.989 65.5013 104.949 65.5541C104.913 65.604 104.889 65.662 104.881 65.7229C104.872 65.7839 104.878 65.8459 104.898 65.9034L104.898 65.9076C105.107 66.3991 105.21 66.5605 105.437 66.9134C105.469 66.9631 105.502 67.016 105.54 67.0738L105.542 67.0766C105.893 67.6294 106.222 68.12 106.546 68.5758C106.178 69.6131 105.982 70.4531 105.931 71.2192C105.926 71.2706 105.932 71.3223 105.948 71.371C105.964 71.4198 105.989 71.4644 106.023 71.5021C106.06 71.5405 106.104 71.5706 106.153 71.5906C106.202 71.6106 106.255 71.6201 106.308 71.6185C106.502 71.6165 106.707 71.4814 106.724 71.2269C106.812 69.91 107.365 68.5594 107.9 67.2502L107.904 67.2395C108.083 66.8031 108.251 66.3905 108.405 65.9767C108.431 65.9399 108.451 65.8992 108.464 65.8562C108.478 65.8124 108.491 65.7679 108.504 65.7196C108.515 65.6801 108.526 65.6392 108.539 65.5986C108.56 65.5423 108.567 65.4819 108.559 65.4226C108.552 65.3633 108.53 65.307 108.497 65.2588C108.458 65.2067 108.408 65.1647 108.35 65.136C108.292 65.1074 108.229 65.093 108.164 65.0939Z" fill="#D7244F"/>
<path d="M105.077 70.0843C104.998 70.0858 104.92 70.1075 104.851 70.1476C104.503 70.3448 104.221 70.4704 103.94 70.5559C103.803 70.5976 103.661 70.6214 103.518 70.6268C103.508 70.5176 103.534 70.3694 103.554 70.2475L103.557 70.2351C103.6 69.9948 103.649 69.7229 103.689 69.4511C103.913 67.9182 104.049 66.531 104.102 65.2103C104.106 65.1501 104.098 65.0899 104.078 65.0333C104.058 64.9768 104.027 64.9251 103.987 64.8815C103.943 64.8371 103.891 64.8022 103.833 64.7791C103.775 64.7559 103.713 64.7448 103.651 64.7465C103.422 64.7488 103.183 64.9087 103.171 65.2104C103.116 66.5489 102.964 68.0328 102.706 69.7466C102.697 69.8109 102.684 69.8795 102.67 69.9619C102.58 70.467 102.467 71.0961 102.966 71.4331C103.117 71.5356 103.299 71.5841 103.523 71.5819C103.72 71.5743 103.916 71.544 104.108 71.4916C104.537 71.3862 104.939 71.1777 105.31 70.9689C105.5 70.8606 105.582 70.6721 105.531 70.4626C105.485 70.2728 105.314 70.0819 105.077 70.0843Z" fill="#D7244F"/>
<path d="M108.527 73.1712L89.7891 73.3594L89.7731 76.7486L108.511 76.5604L108.527 73.1712Z" fill="#D8254F"/>
<path d="M92.7713 75.3206C92.7265 75.2735 92.6716 75.2376 92.6108 75.2158C92.5395 75.1885 92.4666 75.1655 92.3925 75.1471C92.3112 75.1269 92.2312 75.1021 92.1527 75.0728C92.0764 75.0451 92.0031 75.0094 91.9342 74.9661C91.8664 74.9216 91.8113 74.8597 91.7744 74.7864C91.7309 74.6991 91.7099 74.6017 91.7133 74.5032C91.7124 74.4231 91.7291 74.3436 91.762 74.2705C91.795 74.1973 91.8434 74.1324 91.9037 74.0805C92.0299 73.9666 92.2002 73.9086 92.4147 73.9065C92.4915 73.9054 92.5679 73.9146 92.6422 73.9336C92.7049 73.9492 92.7655 73.9724 92.8226 74.0028C92.8662 74.0263 92.9083 74.0527 92.9486 74.0817C92.9771 74.1023 93.0035 74.1258 93.0274 74.1519L93.0508 74.1818L92.8378 74.4021C92.834 74.3983 92.8284 74.3916 92.8209 74.3821C92.8057 74.3654 92.7889 74.3503 92.7707 74.3372C92.7443 74.3163 92.7161 74.2978 92.6867 74.2816C92.649 74.2624 92.6093 74.2478 92.5682 74.2381C92.5176 74.2253 92.4655 74.2193 92.4132 74.2201C92.3181 74.2162 92.2242 74.2467 92.148 74.3062C92.1175 74.3289 92.0925 74.3584 92.075 74.3926C92.0575 74.4267 92.0479 74.4644 92.0471 74.5027C92.0452 74.5649 92.0672 74.6251 92.1084 74.6702C92.1532 74.7174 92.2082 74.7532 92.269 74.775C92.3403 74.8024 92.4132 74.8253 92.4873 74.8438C92.5684 74.8642 92.6484 74.8887 92.7271 74.9173C92.8034 74.9446 92.8767 74.9802 92.9455 75.0234C93.0135 75.068 93.0686 75.1302 93.1053 75.2038C93.1485 75.2905 93.1695 75.3873 93.1665 75.4852C93.1686 75.5739 93.1515 75.6623 93.1162 75.744C93.081 75.8256 93.0285 75.8985 92.9626 75.9574C92.8274 76.0801 92.6412 76.1426 92.4041 76.145C92.3104 76.1465 92.2172 76.1355 92.1266 76.1123C92.0516 76.0941 91.9792 76.0663 91.9112 76.0297C91.8601 76.0007 91.8112 75.968 91.7648 75.9318C91.7326 75.907 91.7025 75.8794 91.675 75.8493L91.6453 75.8116L91.8584 75.5927C91.8625 75.5987 91.8691 75.6075 91.8784 75.6191C91.8981 75.6406 91.9192 75.6607 91.9416 75.6792C91.9748 75.7076 92.0107 75.7326 92.0489 75.7537C92.0975 75.779 92.149 75.7984 92.2023 75.8114C92.2682 75.8288 92.3362 75.837 92.4045 75.836C92.5359 75.8346 92.6402 75.8007 92.7173 75.7342C92.7535 75.7048 92.7827 75.6674 92.8027 75.6249C92.8227 75.5823 92.8329 75.5358 92.8326 75.4889C92.8339 75.458 92.8291 75.4271 92.8186 75.3983C92.808 75.3694 92.792 75.343 92.7713 75.3206Z" fill="white"/>
<path d="M95.6644 73.9077L95.663 74.2185L95.0241 74.2249L95.0153 76.0884L94.6825 76.0917L94.6913 74.2283L94.0527 74.2347L94.0542 73.9239L95.6644 73.9077Z" fill="white"/>
<path d="M98.0092 75.6053C98.0632 75.5507 98.1061 75.4855 98.1351 75.4138C98.1641 75.3421 98.1787 75.2654 98.178 75.1882L98.1842 73.8828L98.5194 73.8795L98.5133 75.1848C98.5145 75.3036 98.4916 75.4217 98.4461 75.5316C98.4005 75.6416 98.3333 75.741 98.2486 75.8236C98.0779 75.9943 97.8497 76.0912 97.6126 76.0936C97.3756 76.096 97.1483 76.0037 96.9792 75.8364C96.8954 75.7555 96.8292 75.6575 96.7847 75.5486C96.7402 75.4397 96.7183 75.3222 96.7205 75.2035L96.7266 73.8975L97.0615 73.8941L97.0554 75.1995C97.054 75.2768 97.0679 75.3534 97.0962 75.4247C97.1246 75.496 97.1668 75.5605 97.2203 75.6143C97.2708 75.6688 97.3317 75.7119 97.3994 75.7412C97.467 75.7704 97.5401 75.7851 97.6139 75.7844C97.6878 75.7837 97.761 75.7675 97.8289 75.7369C97.8969 75.7063 97.9582 75.6619 98.0092 75.6064L98.0092 75.6053Z" fill="white"/>
<path d="M100.568 73.8589C100.71 73.8554 100.85 73.8814 100.981 73.9353C101.111 73.9893 101.229 74.0701 101.328 74.1727C101.428 74.271 101.507 74.3891 101.561 74.5201C101.615 74.6511 101.643 74.7923 101.642 74.9352C101.641 75.0781 101.612 75.2198 101.557 75.3519C101.502 75.484 101.421 75.6038 101.32 75.7041C101.221 75.8087 101.102 75.8918 100.971 75.9484C100.84 76.005 100.7 76.0338 100.558 76.0332L99.8135 76.0407L99.8237 73.8664L100.568 73.8589ZM100.156 74.1738L100.149 75.7265L100.56 75.7224C100.658 75.7232 100.755 75.7031 100.846 75.6634C100.937 75.6237 101.019 75.5652 101.087 75.4918C101.227 75.3422 101.305 75.144 101.306 74.9386C101.307 74.7331 101.231 74.5365 101.092 74.3897C101.025 74.3177 100.943 74.2609 100.853 74.223C100.763 74.1852 100.665 74.167 100.567 74.1697L100.156 74.1738Z" fill="white"/>
<path d="M102.861 73.8358L103.195 73.8325L103.185 76.0068L102.851 76.0101L102.861 73.8358Z" fill="white"/>
<path d="M104.731 74.1112C104.947 73.8928 105.214 73.782 105.53 73.7789C105.847 73.7757 106.113 73.8811 106.329 74.0951C106.431 74.1979 106.512 74.3206 106.566 74.4562C106.621 74.5917 106.649 74.7374 106.648 74.8849C106.648 75.0323 106.618 75.1786 106.562 75.3153C106.506 75.4519 106.424 75.5763 106.322 75.6811C106.105 75.8997 105.838 76.0106 105.52 76.0138C105.202 76.017 104.936 75.9115 104.723 75.6972C104.621 75.5944 104.54 75.4717 104.485 75.3362C104.431 75.2006 104.403 75.0549 104.403 74.9074C104.404 74.76 104.433 74.6137 104.49 74.477C104.546 74.3403 104.628 74.216 104.731 74.1112ZM104.964 75.4752C105.093 75.6087 105.264 75.6915 105.447 75.7096C105.631 75.7278 105.816 75.68 105.971 75.5744C106.126 75.4689 106.241 75.3122 106.297 75.1311C106.352 74.9499 106.345 74.7556 106.276 74.5813C106.207 74.407 106.08 74.2635 105.918 74.1753C105.756 74.0872 105.568 74.0598 105.386 74.0979C105.204 74.136 105.04 74.2372 104.922 74.3843C104.804 74.5313 104.738 74.715 104.737 74.9041C104.735 75.0106 104.753 75.1162 104.792 75.2144C104.831 75.3126 104.89 75.4014 104.964 75.4752Z" fill="white"/>
</g>
<path d="M165.78 17.636L163.056 22.844V26H161.964V22.844L159.228 17.636H160.44L162.504 21.872L164.568 17.636H165.78ZM170.05 26.108C169.434 26.108 168.874 25.968 168.37 25.688C167.874 25.408 167.482 25.012 167.194 24.5C166.914 23.98 166.774 23.38 166.774 22.7C166.774 22.028 166.918 21.436 167.206 20.924C167.502 20.404 167.902 20.008 168.406 19.736C168.91 19.456 169.474 19.316 170.098 19.316C170.722 19.316 171.286 19.456 171.79 19.736C172.294 20.008 172.69 20.4 172.978 20.912C173.274 21.424 173.422 22.02 173.422 22.7C173.422 23.38 173.27 23.98 172.966 24.5C172.67 25.012 172.266 25.408 171.754 25.688C171.242 25.968 170.674 26.108 170.05 26.108ZM170.05 25.148C170.442 25.148 170.81 25.056 171.154 24.872C171.498 24.688 171.774 24.412 171.982 24.044C172.198 23.676 172.306 23.228 172.306 22.7C172.306 22.172 172.202 21.724 171.994 21.356C171.786 20.988 171.514 20.716 171.178 20.54C170.842 20.356 170.478 20.264 170.086 20.264C169.686 20.264 169.318 20.356 168.982 20.54C168.654 20.716 168.39 20.988 168.19 21.356C167.99 21.724 167.89 22.172 167.89 22.7C167.89 23.236 167.986 23.688 168.178 24.056C168.378 24.424 168.642 24.7 168.97 24.884C169.298 25.06 169.658 25.148 170.05 25.148ZM180.94 19.424V26H179.848V25.028C179.64 25.364 179.348 25.628 178.972 25.82C178.604 26.004 178.196 26.096 177.748 26.096C177.236 26.096 176.776 25.992 176.368 25.784C175.96 25.568 175.636 25.248 175.396 24.824C175.164 24.4 175.048 23.884 175.048 23.276V19.424H176.128V23.132C176.128 23.78 176.292 24.28 176.62 24.632C176.948 24.976 177.396 25.148 177.964 25.148C178.548 25.148 179.008 24.968 179.344 24.608C179.68 24.248 179.848 23.724 179.848 23.036V19.424H180.94ZM184.125 20.492C184.317 20.116 184.589 19.824 184.941 19.616C185.301 19.408 185.737 19.304 186.249 19.304V20.432H185.961C184.737 20.432 184.125 21.096 184.125 22.424V26H183.033V19.424H184.125V20.492ZM192.301 20.648C192.525 20.256 192.853 19.936 193.285 19.688C193.717 19.44 194.209 19.316 194.761 19.316C195.353 19.316 195.885 19.456 196.357 19.736C196.829 20.016 197.201 20.412 197.473 20.924C197.745 21.428 197.881 22.016 197.881 22.688C197.881 23.352 197.745 23.944 197.473 24.464C197.201 24.984 196.825 25.388 196.345 25.676C195.873 25.964 195.345 26.108 194.761 26.108C194.193 26.108 193.693 25.984 193.261 25.736C192.837 25.488 192.517 25.172 192.301 24.788V26H191.209V17.12H192.301V20.648ZM196.765 22.688C196.765 22.192 196.665 21.76 196.465 21.392C196.265 21.024 195.993 20.744 195.649 20.552C195.313 20.36 194.941 20.264 194.533 20.264C194.133 20.264 193.761 20.364 193.417 20.564C193.081 20.756 192.809 21.04 192.601 21.416C192.401 21.784 192.301 22.212 192.301 22.7C192.301 23.196 192.401 23.632 192.601 24.008C192.809 24.376 193.081 24.66 193.417 24.86C193.761 25.052 194.133 25.148 194.533 25.148C194.941 25.148 195.313 25.052 195.649 24.86C195.993 24.66 196.265 24.376 196.465 24.008C196.665 23.632 196.765 23.192 196.765 22.688ZM205.569 22.46C205.569 22.668 205.557 22.888 205.533 23.12H200.277C200.317 23.768 200.537 24.276 200.937 24.644C201.345 25.004 201.837 25.184 202.413 25.184C202.885 25.184 203.277 25.076 203.589 24.86C203.909 24.636 204.133 24.34 204.261 23.972H205.437C205.261 24.604 204.909 25.12 204.381 25.52C203.853 25.912 203.197 26.108 202.413 26.108C201.789 26.108 201.229 25.968 200.733 25.688C200.245 25.408 199.861 25.012 199.581 24.5C199.301 23.98 199.161 23.38 199.161 22.7C199.161 22.02 199.297 21.424 199.569 20.912C199.841 20.4 200.221 20.008 200.709 19.736C201.205 19.456 201.773 19.316 202.413 19.316C203.037 19.316 203.589 19.452 204.069 19.724C204.549 19.996 204.917 20.372 205.173 20.852C205.437 21.324 205.569 21.86 205.569 22.46ZM204.441 22.232C204.441 21.816 204.349 21.46 204.165 21.164C203.981 20.86 203.729 20.632 203.409 20.48C203.097 20.32 202.749 20.24 202.365 20.24C201.813 20.24 201.341 20.416 200.949 20.768C200.565 21.12 200.345 21.608 200.289 22.232H204.441ZM206.852 22.688C206.852 22.016 206.988 21.428 207.26 20.924C207.532 20.412 207.904 20.016 208.376 19.736C208.856 19.456 209.388 19.316 209.972 19.316C210.548 19.316 211.048 19.44 211.472 19.688C211.896 19.936 212.212 20.248 212.42 20.624V19.424H213.524V26H212.42V24.776C212.204 25.16 211.88 25.48 211.448 25.736C211.024 25.984 210.528 26.108 209.96 26.108C209.376 26.108 208.848 25.964 208.376 25.676C207.904 25.388 207.532 24.984 207.26 24.464C206.988 23.944 206.852 23.352 206.852 22.688ZM212.42 22.7C212.42 22.204 212.32 21.772 212.12 21.404C211.92 21.036 211.648 20.756 211.304 20.564C210.968 20.364 210.596 20.264 210.188 20.264C209.78 20.264 209.408 20.36 209.072 20.552C208.736 20.744 208.468 21.024 208.268 21.392C208.068 21.76 207.968 22.192 207.968 22.688C207.968 23.192 208.068 23.632 208.268 24.008C208.468 24.376 208.736 24.66 209.072 24.86C209.408 25.052 209.78 25.148 210.188 25.148C210.596 25.148 210.968 25.052 211.304 24.86C211.648 24.66 211.92 24.376 212.12 24.008C212.32 23.632 212.42 23.196 212.42 22.7ZM221.451 19.424V26H220.359V25.028C220.151 25.364 219.859 25.628 219.483 25.82C219.115 26.004 218.707 26.096 218.259 26.096C217.747 26.096 217.287 25.992 216.879 25.784C216.471 25.568 216.147 25.248 215.907 24.824C215.675 24.4 215.559 23.884 215.559 23.276V19.424H216.639V23.132C216.639 23.78 216.803 24.28 217.131 24.632C217.459 24.976 217.907 25.148 218.475 25.148C219.059 25.148 219.519 24.968 219.855 24.608C220.191 24.248 220.359 23.724 220.359 23.036V19.424H221.451ZM224.877 20.324V24.2C224.877 24.52 224.945 24.748 225.081 24.884C225.217 25.012 225.453 25.076 225.789 25.076H226.593V26H225.609C225.001 26 224.545 25.86 224.241 25.58C223.937 25.3 223.785 24.84 223.785 24.2V20.324H222.933V19.424H223.785V17.768H224.877V19.424H226.593V20.324H224.877ZM233.83 19.424L229.87 29.096H228.742L230.038 25.928L227.386 19.424H228.598L230.662 24.752L232.702 19.424H233.83ZM238.219 22.688C238.219 22.016 238.355 21.428 238.627 20.924C238.899 20.412 239.271 20.016 239.743 19.736C240.223 19.456 240.759 19.316 241.351 19.316C241.863 19.316 242.339 19.436 242.779 19.676C243.219 19.908 243.555 20.216 243.787 20.6V17.12H244.891V26H243.787V24.764C243.571 25.156 243.251 25.48 242.827 25.736C242.403 25.984 241.907 26.108 241.339 26.108C240.755 26.108 240.223 25.964 239.743 25.676C239.271 25.388 238.899 24.984 238.627 24.464C238.355 23.944 238.219 23.352 238.219 22.688ZM243.787 22.7C243.787 22.204 243.687 21.772 243.487 21.404C243.287 21.036 243.015 20.756 242.671 20.564C242.335 20.364 241.963 20.264 241.555 20.264C241.147 20.264 240.775 20.36 240.439 20.552C240.103 20.744 239.835 21.024 239.635 21.392C239.435 21.76 239.335 22.192 239.335 22.688C239.335 23.192 239.435 23.632 239.635 24.008C239.835 24.376 240.103 24.66 240.439 24.86C240.775 25.052 241.147 25.148 241.555 25.148C241.963 25.148 242.335 25.052 242.671 24.86C243.015 24.66 243.287 24.376 243.487 24.008C243.687 23.632 243.787 23.196 243.787 22.7ZM248.079 20.492C248.271 20.116 248.543 19.824 248.895 19.616C249.255 19.408 249.691 19.304 250.203 19.304V20.432H249.915C248.691 20.432 248.079 21.096 248.079 22.424V26H246.987V19.424H248.079V20.492ZM257.713 22.46C257.713 22.668 257.701 22.888 257.677 23.12H252.421C252.461 23.768 252.681 24.276 253.081 24.644C253.489 25.004 253.981 25.184 254.557 25.184C255.029 25.184 255.421 25.076 255.733 24.86C256.053 24.636 256.277 24.34 256.405 23.972H257.581C257.405 24.604 257.053 25.12 256.525 25.52C255.997 25.912 255.341 26.108 254.557 26.108C253.933 26.108 253.373 25.968 252.877 25.688C252.389 25.408 252.005 25.012 251.725 24.5C251.445 23.98 251.305 23.38 251.305 22.7C251.305 22.02 251.441 21.424 251.713 20.912C251.985 20.4 252.365 20.008 252.853 19.736C253.349 19.456 253.917 19.316 254.557 19.316C255.181 19.316 255.733 19.452 256.213 19.724C256.693 19.996 257.061 20.372 257.317 20.852C257.581 21.324 257.713 21.86 257.713 22.46ZM256.585 22.232C256.585 21.816 256.493 21.46 256.309 21.164C256.125 20.86 255.873 20.632 255.553 20.48C255.241 20.32 254.893 20.24 254.509 20.24C253.957 20.24 253.485 20.416 253.093 20.768C252.709 21.12 252.489 21.608 252.433 22.232H256.585ZM258.996 22.688C258.996 22.016 259.132 21.428 259.404 20.924C259.676 20.412 260.048 20.016 260.52 19.736C261 19.456 261.532 19.316 262.116 19.316C262.692 19.316 263.192 19.44 263.616 19.688C264.04 19.936 264.356 20.248 264.564 20.624V19.424H265.668V26H264.564V24.776C264.348 25.16 264.024 25.48 263.592 25.736C263.168 25.984 262.672 26.108 262.104 26.108C261.52 26.108 260.992 25.964 260.52 25.676C260.048 25.388 259.676 24.984 259.404 24.464C259.132 23.944 258.996 23.352 258.996 22.688ZM264.564 22.7C264.564 22.204 264.464 21.772 264.264 21.404C264.064 21.036 263.792 20.756 263.448 20.564C263.112 20.364 262.74 20.264 262.332 20.264C261.924 20.264 261.552 20.36 261.216 20.552C260.88 20.744 260.612 21.024 260.412 21.392C260.212 21.76 260.112 22.192 260.112 22.688C260.112 23.192 260.212 23.632 260.412 24.008C260.612 24.376 260.88 24.66 261.216 24.86C261.552 25.052 261.924 25.148 262.332 25.148C262.74 25.148 263.112 25.052 263.448 24.86C263.792 24.66 264.064 24.376 264.264 24.008C264.464 23.632 264.564 23.196 264.564 22.7ZM275.672 19.304C276.184 19.304 276.64 19.412 277.04 19.628C277.44 19.836 277.756 20.152 277.988 20.576C278.22 21 278.336 21.516 278.336 22.124V26H277.256V22.28C277.256 21.624 277.092 21.124 276.764 20.78C276.444 20.428 276.008 20.252 275.456 20.252C274.888 20.252 274.436 20.436 274.1 20.804C273.764 21.164 273.596 21.688 273.596 22.376V26H272.516V22.28C272.516 21.624 272.352 21.124 272.024 20.78C271.704 20.428 271.268 20.252 270.716 20.252C270.148 20.252 269.696 20.436 269.36 20.804C269.024 21.164 268.856 21.688 268.856 22.376V26H267.764V19.424H268.856V20.372C269.072 20.028 269.36 19.764 269.72 19.58C270.088 19.396 270.492 19.304 270.932 19.304C271.484 19.304 271.972 19.428 272.396 19.676C272.82 19.924 273.136 20.288 273.344 20.768C273.528 20.304 273.832 19.944 274.256 19.688C274.68 19.432 275.152 19.304 275.672 19.304ZM282.705 26.108C282.201 26.108 281.749 26.024 281.349 25.856C280.949 25.68 280.633 25.44 280.401 25.136C280.169 24.824 280.041 24.468 280.017 24.068H281.145C281.177 24.396 281.329 24.664 281.601 24.872C281.881 25.08 282.245 25.184 282.693 25.184C283.109 25.184 283.437 25.092 283.677 24.908C283.917 24.724 284.037 24.492 284.037 24.212C284.037 23.924 283.909 23.712 283.653 23.576C283.397 23.432 283.001 23.292 282.465 23.156C281.977 23.028 281.577 22.9 281.265 22.772C280.961 22.636 280.697 22.44 280.473 22.184C280.257 21.92 280.149 21.576 280.149 21.152C280.149 20.816 280.249 20.508 280.449 20.228C280.649 19.948 280.933 19.728 281.301 19.568C281.669 19.4 282.089 19.316 282.561 19.316C283.289 19.316 283.877 19.5 284.325 19.868C284.773 20.236 285.013 20.74 285.045 21.38H283.953C283.929 21.036 283.789 20.76 283.533 20.552C283.285 20.344 282.949 20.24 282.525 20.24C282.133 20.24 281.821 20.324 281.589 20.492C281.357 20.66 281.241 20.88 281.241 21.152C281.241 21.368 281.309 21.548 281.445 21.692C281.589 21.828 281.765 21.94 281.973 22.028C282.189 22.108 282.485 22.2 282.861 22.304C283.333 22.432 283.717 22.56 284.013 22.688C284.309 22.808 284.561 22.992 284.769 23.24C284.985 23.488 285.097 23.812 285.105 24.212C285.105 24.572 285.005 24.896 284.805 25.184C284.605 25.472 284.321 25.7 283.953 25.868C283.593 26.028 283.177 26.108 282.705 26.108ZM168.684 35.424L166.632 42H165.504L163.92 36.78L162.336 42H161.208L159.144 35.424H160.26L161.772 40.944L163.404 35.424H164.52L166.116 40.956L167.604 35.424H168.684ZM170.582 34.356C170.374 34.356 170.198 34.284 170.054 34.14C169.91 33.996 169.838 33.82 169.838 33.612C169.838 33.404 169.91 33.228 170.054 33.084C170.198 32.94 170.374 32.868 170.582 32.868C170.782 32.868 170.95 32.94 171.086 33.084C171.23 33.228 171.302 33.404 171.302 33.612C171.302 33.82 171.23 33.996 171.086 34.14C170.95 34.284 170.782 34.356 170.582 34.356ZM171.11 35.424V42H170.018V35.424H171.11ZM174.313 33.12V42H173.221V33.12H174.313ZM177.516 33.12V42H176.424V33.12H177.516ZM182.668 38.7C182.668 38.02 182.804 37.428 183.076 36.924C183.348 36.412 183.724 36.016 184.204 35.736C184.692 35.456 185.248 35.316 185.872 35.316C186.68 35.316 187.344 35.512 187.864 35.904C188.392 36.296 188.74 36.84 188.908 37.536H187.732C187.62 37.136 187.4 36.82 187.072 36.588C186.752 36.356 186.352 36.24 185.872 36.24C185.248 36.24 184.744 36.456 184.36 36.888C183.976 37.312 183.784 37.916 183.784 38.7C183.784 39.492 183.976 40.104 184.36 40.536C184.744 40.968 185.248 41.184 185.872 41.184C186.352 41.184 186.752 41.072 187.072 40.848C187.392 40.624 187.612 40.304 187.732 39.888H188.908C188.732 40.56 188.38 41.1 187.852 41.508C187.324 41.908 186.664 42.108 185.872 42.108C185.248 42.108 184.692 41.968 184.204 41.688C183.724 41.408 183.348 41.012 183.076 40.5C182.804 39.988 182.668 39.388 182.668 38.7ZM193.483 42.108C192.867 42.108 192.307 41.968 191.803 41.688C191.307 41.408 190.915 41.012 190.627 40.5C190.347 39.98 190.207 39.38 190.207 38.7C190.207 38.028 190.351 37.436 190.639 36.924C190.935 36.404 191.335 36.008 191.839 35.736C192.343 35.456 192.907 35.316 193.531 35.316C194.155 35.316 194.719 35.456 195.223 35.736C195.727 36.008 196.123 36.4 196.411 36.912C196.707 37.424 196.855 38.02 196.855 38.7C196.855 39.38 196.703 39.98 196.399 40.5C196.103 41.012 195.699 41.408 195.187 41.688C194.675 41.968 194.107 42.108 193.483 42.108ZM193.483 41.148C193.875 41.148 194.243 41.056 194.587 40.872C194.931 40.688 195.207 40.412 195.415 40.044C195.631 39.676 195.739 39.228 195.739 38.7C195.739 38.172 195.635 37.724 195.427 37.356C195.219 36.988 194.947 36.716 194.611 36.54C194.275 36.356 193.911 36.264 193.519 36.264C193.119 36.264 192.751 36.356 192.415 36.54C192.087 36.716 191.823 36.988 191.623 37.356C191.423 37.724 191.323 38.172 191.323 38.7C191.323 39.236 191.419 39.688 191.611 40.056C191.811 40.424 192.075 40.7 192.403 40.884C192.731 41.06 193.091 41.148 193.483 41.148ZM206.449 35.304C206.961 35.304 207.417 35.412 207.817 35.628C208.217 35.836 208.533 36.152 208.765 36.576C208.997 37 209.113 37.516 209.113 38.124V42H208.033V38.28C208.033 37.624 207.869 37.124 207.541 36.78C207.221 36.428 206.785 36.252 206.233 36.252C205.665 36.252 205.213 36.436 204.877 36.804C204.541 37.164 204.373 37.688 204.373 38.376V42H203.293V38.28C203.293 37.624 203.129 37.124 202.801 36.78C202.481 36.428 202.045 36.252 201.493 36.252C200.925 36.252 200.473 36.436 200.137 36.804C199.801 37.164 199.633 37.688 199.633 38.376V42H198.541V35.424H199.633V36.372C199.849 36.028 200.137 35.764 200.497 35.58C200.865 35.396 201.269 35.304 201.709 35.304C202.261 35.304 202.749 35.428 203.173 35.676C203.597 35.924 203.913 36.288 204.121 36.768C204.305 36.304 204.609 35.944 205.033 35.688C205.457 35.432 205.929 35.304 206.449 35.304ZM217.154 38.46C217.154 38.668 217.142 38.888 217.118 39.12H211.862C211.902 39.768 212.122 40.276 212.522 40.644C212.93 41.004 213.422 41.184 213.998 41.184C214.47 41.184 214.862 41.076 215.174 40.86C215.494 40.636 215.718 40.34 215.846 39.972H217.022C216.846 40.604 216.494 41.12 215.966 41.52C215.438 41.912 214.782 42.108 213.998 42.108C213.374 42.108 212.814 41.968 212.318 41.688C211.83 41.408 211.446 41.012 211.166 40.5C210.886 39.98 210.746 39.38 210.746 38.7C210.746 38.02 210.882 37.424 211.154 36.912C211.426 36.4 211.806 36.008 212.294 35.736C212.79 35.456 213.358 35.316 213.998 35.316C214.622 35.316 215.174 35.452 215.654 35.724C216.134 35.996 216.502 36.372 216.758 36.852C217.022 37.324 217.154 37.86 217.154 38.46ZM216.026 38.232C216.026 37.816 215.934 37.46 215.75 37.164C215.566 36.86 215.314 36.632 214.994 36.48C214.682 36.32 214.334 36.24 213.95 36.24C213.398 36.24 212.926 36.416 212.534 36.768C212.15 37.12 211.93 37.608 211.874 38.232H216.026ZM223.627 36.324V40.2C223.627 40.52 223.695 40.748 223.831 40.884C223.967 41.012 224.203 41.076 224.539 41.076H225.343V42H224.359C223.751 42 223.295 41.86 222.991 41.58C222.687 41.3 222.535 40.84 222.535 40.2V36.324H221.683V35.424H222.535V33.768H223.627V35.424H225.343V36.324H223.627ZM228.008 36.492C228.2 36.116 228.472 35.824 228.824 35.616C229.184 35.408 229.62 35.304 230.132 35.304V36.432H229.844C228.62 36.432 228.008 37.096 228.008 38.424V42H226.916V35.424H228.008V36.492ZM237.475 35.424V42H236.383V41.028C236.175 41.364 235.883 41.628 235.507 41.82C235.139 42.004 234.731 42.096 234.283 42.096C233.771 42.096 233.311 41.992 232.903 41.784C232.495 41.568 232.171 41.248 231.931 40.824C231.699 40.4 231.583 39.884 231.583 39.276V35.424H232.663V39.132C232.663 39.78 232.827 40.28 233.155 40.632C233.483 40.976 233.931 41.148 234.499 41.148C235.083 41.148 235.543 40.968 235.879 40.608C236.215 40.248 236.383 39.724 236.383 39.036V35.424H237.475ZM245.569 38.46C245.569 38.668 245.557 38.888 245.533 39.12H240.277C240.317 39.768 240.537 40.276 240.937 40.644C241.345 41.004 241.837 41.184 242.413 41.184C242.885 41.184 243.277 41.076 243.589 40.86C243.909 40.636 244.133 40.34 244.261 39.972H245.437C245.261 40.604 244.909 41.12 244.381 41.52C243.853 41.912 243.197 42.108 242.413 42.108C241.789 42.108 241.229 41.968 240.733 41.688C240.245 41.408 239.861 41.012 239.581 40.5C239.301 39.98 239.161 39.38 239.161 38.7C239.161 38.02 239.297 37.424 239.569 36.912C239.841 36.4 240.221 36.008 240.709 35.736C241.205 35.456 241.773 35.316 242.413 35.316C243.037 35.316 243.589 35.452 244.069 35.724C244.549 35.996 244.917 36.372 245.173 36.852C245.437 37.324 245.569 37.86 245.569 38.46ZM244.441 38.232C244.441 37.816 244.349 37.46 244.165 37.164C243.981 36.86 243.729 36.632 243.409 36.48C243.097 36.32 242.749 36.24 242.365 36.24C241.813 36.24 241.341 36.416 240.949 36.768C240.565 37.12 240.345 37.608 240.289 38.232H244.441ZM248.676 33.636L248.544 39.636H247.632L247.5 33.636H248.676ZM248.136 42.072C247.928 42.072 247.752 42 247.608 41.856C247.464 41.712 247.392 41.536 247.392 41.328C247.392 41.12 247.464 40.944 247.608 40.8C247.752 40.656 247.928 40.584 248.136 40.584C248.336 40.584 248.504 40.656 248.64 40.8C248.784 40.944 248.856 41.12 248.856 41.328C248.856 41.536 248.784 41.712 248.64 41.856C248.504 42 248.336 42.072 248.136 42.072ZM255.625 33.636V42H254.533V33.636H255.625ZM260.941 35.304C261.741 35.304 262.389 35.548 262.885 36.036C263.381 36.516 263.629 37.212 263.629 38.124V42H262.549V38.28C262.549 37.624 262.385 37.124 262.057 36.78C261.729 36.428 261.281 36.252 260.713 36.252C260.137 36.252 259.677 36.432 259.333 36.792C258.997 37.152 258.829 37.676 258.829 38.364V42H257.737V35.424H258.829V36.36C259.045 36.024 259.337 35.764 259.705 35.58C260.081 35.396 260.493 35.304 260.941 35.304ZM273.84 33.636V34.524H270.204V37.344H273.156V38.232H270.204V42H269.112V33.636H273.84ZM281.408 38.46C281.408 38.668 281.396 38.888 281.372 39.12H276.116C276.156 39.768 276.376 40.276 276.776 40.644C277.184 41.004 277.676 41.184 278.252 41.184C278.724 41.184 279.116 41.076 279.428 40.86C279.748 40.636 279.972 40.34 280.1 39.972H281.276C281.1 40.604 280.748 41.12 280.22 41.52C279.692 41.912 279.036 42.108 278.252 42.108C277.628 42.108 277.068 41.968 276.572 41.688C276.084 41.408 275.7 41.012 275.42 40.5C275.14 39.98 275 39.38 275 38.7C275 38.02 275.136 37.424 275.408 36.912C275.68 36.4 276.06 36.008 276.548 35.736C277.044 35.456 277.612 35.316 278.252 35.316C278.876 35.316 279.428 35.452 279.908 35.724C280.388 35.996 280.756 36.372 281.012 36.852C281.276 37.324 281.408 37.86 281.408 38.46ZM280.28 38.232C280.28 37.816 280.188 37.46 280.004 37.164C279.82 36.86 279.568 36.632 279.248 36.48C278.936 36.32 278.588 36.24 278.204 36.24C277.652 36.24 277.18 36.416 276.788 36.768C276.404 37.12 276.184 37.608 276.128 38.232H280.28ZM291.008 35.304C291.52 35.304 291.976 35.412 292.376 35.628C292.776 35.836 293.092 36.152 293.324 36.576C293.556 37 293.672 37.516 293.672 38.124V42H292.592V38.28C292.592 37.624 292.428 37.124 292.1 36.78C291.78 36.428 291.344 36.252 290.792 36.252C290.224 36.252 289.772 36.436 289.436 36.804C289.1 37.164 288.932 37.688 288.932 38.376V42H287.852V38.28C287.852 37.624 287.688 37.124 287.36 36.78C287.04 36.428 286.604 36.252 286.052 36.252C285.484 36.252 285.032 36.436 284.696 36.804C284.36 37.164 284.192 37.688 284.192 38.376V42H283.1V35.424H284.192V36.372C284.408 36.028 284.696 35.764 285.056 35.58C285.424 35.396 285.828 35.304 286.268 35.304C286.82 35.304 287.308 35.428 287.732 35.676C288.156 35.924 288.472 36.288 288.68 36.768C288.864 36.304 289.168 35.944 289.592 35.688C290.016 35.432 290.488 35.304 291.008 35.304ZM295.305 38.688C295.305 38.016 295.441 37.428 295.713 36.924C295.985 36.412 296.357 36.016 296.829 35.736C297.309 35.456 297.841 35.316 298.425 35.316C299.001 35.316 299.501 35.44 299.925 35.688C300.349 35.936 300.665 36.248 300.873 36.624V35.424H301.977V42H300.873V40.776C300.657 41.16 300.333 41.48 299.901 41.736C299.477 41.984 298.981 42.108 298.413 42.108C297.829 42.108 297.301 41.964 296.829 41.676C296.357 41.388 295.985 40.984 295.713 40.464C295.441 39.944 295.305 39.352 295.305 38.688ZM300.873 38.7C300.873 38.204 300.773 37.772 300.573 37.404C300.373 37.036 300.101 36.756 299.757 36.564C299.421 36.364 299.049 36.264 298.641 36.264C298.233 36.264 297.861 36.36 297.525 36.552C297.189 36.744 296.921 37.024 296.721 37.392C296.521 37.76 296.421 38.192 296.421 38.688C296.421 39.192 296.521 39.632 296.721 40.008C296.921 40.376 297.189 40.66 297.525 40.86C297.861 41.052 298.233 41.148 298.641 41.148C299.049 41.148 299.421 41.052 299.757 40.86C300.101 40.66 300.373 40.376 300.573 40.008C300.773 39.632 300.873 39.196 300.873 38.7ZM305.164 33.12V42H304.072V33.12H305.164ZM313.276 38.46C313.276 38.668 313.264 38.888 313.24 39.12H307.984C308.024 39.768 308.244 40.276 308.644 40.644C309.052 41.004 309.544 41.184 310.12 41.184C310.592 41.184 310.984 41.076 311.296 40.86C311.616 40.636 311.84 40.34 311.968 39.972H313.144C312.968 40.604 312.616 41.12 312.088 41.52C311.56 41.912 310.904 42.108 310.12 42.108C309.496 42.108 308.936 41.968 308.44 41.688C307.952 41.408 307.568 41.012 307.288 40.5C307.008 39.98 306.868 39.38 306.868 38.7C306.868 38.02 307.004 37.424 307.276 36.912C307.548 36.4 307.928 36.008 308.416 35.736C308.912 35.456 309.48 35.316 310.12 35.316C310.744 35.316 311.296 35.452 311.776 35.724C312.256 35.996 312.624 36.372 312.88 36.852C313.144 37.324 313.276 37.86 313.276 38.46ZM312.148 38.232C312.148 37.816 312.056 37.46 311.872 37.164C311.688 36.86 311.436 36.632 311.116 36.48C310.804 36.32 310.456 36.24 310.072 36.24C309.52 36.24 309.048 36.416 308.656 36.768C308.272 37.12 308.052 37.608 307.996 38.232H312.148ZM321.02 33.636C321.932 33.636 322.72 33.808 323.384 34.152C324.056 34.488 324.568 34.972 324.92 35.604C325.28 36.236 325.46 36.98 325.46 37.836C325.46 38.692 325.28 39.436 324.92 40.068C324.568 40.692 324.056 41.172 323.384 41.508C322.72 41.836 321.932 42 321.02 42H318.416V33.636H321.02ZM321.02 41.1C322.1 41.1 322.924 40.816 323.492 40.248C324.06 39.672 324.344 38.868 324.344 37.836C324.344 36.796 324.056 35.984 323.48 35.4C322.912 34.816 322.092 34.524 321.02 34.524H319.508V41.1H321.02ZM326.743 38.688C326.743 38.016 326.879 37.428 327.151 36.924C327.423 36.412 327.795 36.016 328.267 35.736C328.747 35.456 329.279 35.316 329.863 35.316C330.439 35.316 330.939 35.44 331.363 35.688C331.787 35.936 332.103 36.248 332.311 36.624V35.424H333.415V42H332.311V40.776C332.095 41.16 331.771 41.48 331.339 41.736C330.915 41.984 330.419 42.108 329.851 42.108C329.267 42.108 328.739 41.964 328.267 41.676C327.795 41.388 327.423 40.984 327.151 40.464C326.879 39.944 326.743 39.352 326.743 38.688ZM332.311 38.7C332.311 38.204 332.211 37.772 332.011 37.404C331.811 37.036 331.539 36.756 331.195 36.564C330.859 36.364 330.487 36.264 330.079 36.264C329.671 36.264 329.299 36.36 328.963 36.552C328.627 36.744 328.359 37.024 328.159 37.392C327.959 37.76 327.859 38.192 327.859 38.688C327.859 39.192 327.959 39.632 328.159 40.008C328.359 40.376 328.627 40.66 328.963 40.86C329.299 41.052 329.671 41.148 330.079 41.148C330.487 41.148 330.859 41.052 331.195 40.86C331.539 40.66 331.811 40.376 332.011 40.008C332.211 39.632 332.311 39.196 332.311 38.7ZM336.074 34.356C335.866 34.356 335.69 34.284 335.546 34.14C335.402 33.996 335.33 33.82 335.33 33.612C335.33 33.404 335.402 33.228 335.546 33.084C335.69 32.94 335.866 32.868 336.074 32.868C336.274 32.868 336.442 32.94 336.578 33.084C336.722 33.228 336.794 33.404 336.794 33.612C336.794 33.82 336.722 33.996 336.578 34.14C336.442 34.284 336.274 34.356 336.074 34.356ZM336.602 35.424V42H335.51V35.424H336.602ZM339.805 33.12V42H338.713V33.12H339.805ZM347.58 35.424L343.62 45.096H342.492L343.788 41.928L341.136 35.424H342.348L344.412 40.752L346.452 35.424H347.58ZM350.056 40.488L348.712 43.716H347.98L348.856 40.488H350.056ZM168.684 51.424L166.632 58H165.504L163.92 52.78L162.336 58H161.208L159.144 51.424H160.26L161.772 56.944L163.404 51.424H164.52L166.116 56.956L167.604 51.424H168.684ZM176.018 54.46C176.018 54.668 176.006 54.888 175.982 55.12H170.726C170.766 55.768 170.986 56.276 171.386 56.644C171.794 57.004 172.286 57.184 172.862 57.184C173.334 57.184 173.726 57.076 174.038 56.86C174.358 56.636 174.582 56.34 174.71 55.972H175.886C175.71 56.604 175.358 57.12 174.83 57.52C174.302 57.912 173.646 58.108 172.862 58.108C172.238 58.108 171.678 57.968 171.182 57.688C170.694 57.408 170.31 57.012 170.03 56.5C169.75 55.98 169.61 55.38 169.61 54.7C169.61 54.02 169.746 53.424 170.018 52.912C170.29 52.4 170.67 52.008 171.158 51.736C171.654 51.456 172.222 51.316 172.862 51.316C173.486 51.316 174.038 51.452 174.518 51.724C174.998 51.996 175.366 52.372 175.622 52.852C175.886 53.324 176.018 53.86 176.018 54.46ZM174.89 54.232C174.89 53.816 174.798 53.46 174.614 53.164C174.43 52.86 174.178 52.632 173.858 52.48C173.546 52.32 173.198 52.24 172.814 52.24C172.262 52.24 171.79 52.416 171.398 52.768C171.014 53.12 170.794 53.608 170.738 54.232H174.89ZM184.83 58L182.25 55.096V58H181.158V49.12H182.25V54.34L184.782 51.424H186.306L183.21 54.7L186.318 58H184.83ZM190.788 51.304C191.588 51.304 192.236 51.548 192.732 52.036C193.228 52.516 193.476 53.212 193.476 54.124V58H192.396V54.28C192.396 53.624 192.232 53.124 191.904 52.78C191.576 52.428 191.128 52.252 190.56 52.252C189.984 52.252 189.524 52.432 189.18 52.792C188.844 53.152 188.676 53.676 188.676 54.364V58H187.584V51.424H188.676V52.36C188.892 52.024 189.184 51.764 189.552 51.58C189.928 51.396 190.34 51.304 190.788 51.304ZM198.378 58.108C197.762 58.108 197.202 57.968 196.698 57.688C196.202 57.408 195.81 57.012 195.522 56.5C195.242 55.98 195.102 55.38 195.102 54.7C195.102 54.028 195.246 53.436 195.534 52.924C195.83 52.404 196.23 52.008 196.734 51.736C197.238 51.456 197.802 51.316 198.426 51.316C199.05 51.316 199.614 51.456 200.118 51.736C200.622 52.008 201.018 52.4 201.306 52.912C201.602 53.424 201.75 54.02 201.75 54.7C201.75 55.38 201.598 55.98 201.294 56.5C200.998 57.012 200.594 57.408 200.082 57.688C199.57 57.968 199.002 58.108 198.378 58.108ZM198.378 57.148C198.77 57.148 199.138 57.056 199.482 56.872C199.826 56.688 200.102 56.412 200.31 56.044C200.526 55.676 200.634 55.228 200.634 54.7C200.634 54.172 200.53 53.724 200.322 53.356C200.114 52.988 199.842 52.716 199.506 52.54C199.17 52.356 198.806 52.264 198.414 52.264C198.014 52.264 197.646 52.356 197.31 52.54C196.982 52.716 196.718 52.988 196.518 53.356C196.318 53.724 196.218 54.172 196.218 54.7C196.218 55.236 196.314 55.688 196.506 56.056C196.706 56.424 196.97 56.7 197.298 56.884C197.626 57.06 197.986 57.148 198.378 57.148ZM212.196 51.424L210.144 58H209.016L207.432 52.78L205.848 58H204.72L202.656 51.424H203.772L205.284 56.944L206.916 51.424H208.032L209.628 56.956L211.116 51.424H212.196ZM218.071 52.648C218.295 52.256 218.623 51.936 219.055 51.688C219.487 51.44 219.979 51.316 220.531 51.316C221.123 51.316 221.655 51.456 222.127 51.736C222.599 52.016 222.971 52.412 223.243 52.924C223.515 53.428 223.651 54.016 223.651 54.688C223.651 55.352 223.515 55.944 223.243 56.464C222.971 56.984 222.595 57.388 222.115 57.676C221.643 57.964 221.115 58.108 220.531 58.108C219.963 58.108 219.463 57.984 219.031 57.736C218.607 57.488 218.287 57.172 218.071 56.788V58H216.979V49.12H218.071V52.648ZM222.535 54.688C222.535 54.192 222.435 53.76 222.235 53.392C222.035 53.024 221.763 52.744 221.419 52.552C221.083 52.36 220.711 52.264 220.303 52.264C219.903 52.264 219.531 52.364 219.187 52.564C218.851 52.756 218.579 53.04 218.371 53.416C218.171 53.784 218.071 54.212 218.071 54.7C218.071 55.196 218.171 55.632 218.371 56.008C218.579 56.376 218.851 56.66 219.187 56.86C219.531 57.052 219.903 57.148 220.303 57.148C220.711 57.148 221.083 57.052 221.419 56.86C221.763 56.66 222.035 56.376 222.235 56.008C222.435 55.632 222.535 55.192 222.535 54.688ZM231.338 54.46C231.338 54.668 231.326 54.888 231.302 55.12H226.046C226.086 55.768 226.306 56.276 226.706 56.644C227.114 57.004 227.606 57.184 228.182 57.184C228.654 57.184 229.046 57.076 229.358 56.86C229.678 56.636 229.902 56.34 230.03 55.972H231.206C231.03 56.604 230.678 57.12 230.15 57.52C229.622 57.912 228.966 58.108 228.182 58.108C227.558 58.108 226.998 57.968 226.502 57.688C226.014 57.408 225.63 57.012 225.35 56.5C225.07 55.98 224.93 55.38 224.93 54.7C224.93 54.02 225.066 53.424 225.338 52.912C225.61 52.4 225.99 52.008 226.478 51.736C226.974 51.456 227.542 51.316 228.182 51.316C228.806 51.316 229.358 51.452 229.838 51.724C230.318 51.996 230.686 52.372 230.942 52.852C231.206 53.324 231.338 53.86 231.338 54.46ZM230.21 54.232C230.21 53.816 230.118 53.46 229.934 53.164C229.75 52.86 229.498 52.632 229.178 52.48C228.866 52.32 228.518 52.24 228.134 52.24C227.582 52.24 227.11 52.416 226.718 52.768C226.334 53.12 226.114 53.608 226.058 54.232H230.21ZM232.621 54.688C232.621 54.016 232.757 53.428 233.029 52.924C233.301 52.412 233.673 52.016 234.145 51.736C234.625 51.456 235.157 51.316 235.741 51.316C236.317 51.316 236.817 51.44 237.241 51.688C237.665 51.936 237.981 52.248 238.189 52.624V51.424H239.293V58H238.189V56.776C237.973 57.16 237.649 57.48 237.217 57.736C236.793 57.984 236.297 58.108 235.729 58.108C235.145 58.108 234.617 57.964 234.145 57.676C233.673 57.388 233.301 56.984 233.029 56.464C232.757 55.944 232.621 55.352 232.621 54.688ZM238.189 54.7C238.189 54.204 238.089 53.772 237.889 53.404C237.689 53.036 237.417 52.756 237.073 52.564C236.737 52.364 236.365 52.264 235.957 52.264C235.549 52.264 235.177 52.36 234.841 52.552C234.505 52.744 234.237 53.024 234.037 53.392C233.837 53.76 233.737 54.192 233.737 54.688C233.737 55.192 233.837 55.632 234.037 56.008C234.237 56.376 234.505 56.66 234.841 56.86C235.177 57.052 235.549 57.148 235.957 57.148C236.365 57.148 236.737 57.052 237.073 56.86C237.417 56.66 237.689 56.376 237.889 56.008C238.089 55.632 238.189 55.196 238.189 54.7ZM247.221 51.424V58H246.129V57.028C245.921 57.364 245.629 57.628 245.253 57.82C244.885 58.004 244.477 58.096 244.029 58.096C243.517 58.096 243.057 57.992 242.649 57.784C242.241 57.568 241.917 57.248 241.677 56.824C241.445 56.4 241.329 55.884 241.329 55.276V51.424H242.409V55.132C242.409 55.78 242.573 56.28 242.901 56.632C243.229 56.976 243.677 57.148 244.245 57.148C244.829 57.148 245.289 56.968 245.625 56.608C245.961 56.248 246.129 55.724 246.129 55.036V51.424H247.221ZM250.647 52.324V56.2C250.647 56.52 250.715 56.748 250.851 56.884C250.987 57.012 251.223 57.076 251.559 57.076H252.363V58H251.379C250.771 58 250.315 57.86 250.011 57.58C249.707 57.3 249.555 56.84 249.555 56.2V52.324H248.703V51.424H249.555V49.768H250.647V51.424H252.363V52.324H250.647ZM259.6 51.424L255.64 61.096H254.512L255.808 57.928L253.156 51.424H254.368L256.432 56.752L258.472 51.424H259.6Z" fill="white"/>
<defs>
<linearGradient id="paint0_linear_26659_499591" x1="107.247" y1="17.1772" x2="106.684" y2="25.6089" gradientUnits="userSpaceOnUse">
<stop stop-color="#47333F"/>
<stop offset="0.57" stop-color="#44303D"/>
<stop offset="0.97" stop-color="#3B2838"/>
<stop offset="1" stop-color="#3A2738"/>
</linearGradient>
<linearGradient id="paint1_linear_26659_499591" x1="106.55" y1="27.6302" x2="104.634" y2="56.3387" gradientUnits="userSpaceOnUse">
<stop stop-color="#FFBF61"/>
<stop offset="0.18" stop-color="#FBAD5B"/>
<stop offset="0.48" stop-color="#F79653"/>
<stop offset="0.76" stop-color="#F4884E"/>
<stop offset="1" stop-color="#F4844D"/>
</linearGradient>
<linearGradient id="paint2_linear_26659_499591" x1="108.448" y1="11.3568" x2="107.778" y2="21.4055" gradientUnits="userSpaceOnUse">
<stop stop-color="#47333F"/>
<stop offset="0.68" stop-color="#45313D"/>
<stop offset="0.92" stop-color="#3E2B3A"/>
<stop offset="1" stop-color="#3A2738"/>
</linearGradient>
<linearGradient id="paint3_linear_26659_499591" x1="92.5361" y1="40.325" x2="100.619" y2="50.1774" gradientUnits="userSpaceOnUse">
<stop stop-color="#EB557B"/>
<stop offset="0.31" stop-color="#E65077"/>
<stop offset="0.62" stop-color="#DA446D"/>
<stop offset="0.93" stop-color="#C6305D"/>
<stop offset="1" stop-color="#C12B59"/>
</linearGradient>
<linearGradient id="paint4_linear_26659_499591" x1="94.7008" y1="44.3576" x2="96.6641" y2="46.6524" gradientUnits="userSpaceOnUse">
<stop stop-color="#EB557B"/>
<stop offset="0.31" stop-color="#E65077"/>
<stop offset="0.62" stop-color="#DA446D"/>
<stop offset="0.93" stop-color="#C6305D"/>
<stop offset="1" stop-color="#C12B59"/>
</linearGradient>
<linearGradient id="paint5_linear_26659_499591" x1="93.7271" y1="42.9527" x2="97.6927" y2="47.5892" gradientUnits="userSpaceOnUse">
<stop stop-color="#EB557B"/>
<stop offset="0.31" stop-color="#E65077"/>
<stop offset="0.62" stop-color="#DA446D"/>
<stop offset="0.93" stop-color="#C6305D"/>
<stop offset="1" stop-color="#C12B59"/>
</linearGradient>
<linearGradient id="paint6_linear_26659_499591" x1="65.6347" y1="34.4282" x2="61.8723" y2="57.8547" gradientUnits="userSpaceOnUse">
<stop stop-color="#EB557B"/>
<stop offset="0.31" stop-color="#E65077"/>
<stop offset="0.62" stop-color="#DA446D"/>
<stop offset="0.93" stop-color="#C6305D"/>
<stop offset="1" stop-color="#C12B59"/>
</linearGradient>
<linearGradient id="paint7_linear_26659_499591" x1="69.8752" y1="38.7936" x2="86.6145" y2="59.318" gradientUnits="userSpaceOnUse">
<stop stop-color="#FFBF61"/>
<stop offset="0.18" stop-color="#FBAD5B"/>
<stop offset="0.48" stop-color="#F79653"/>
<stop offset="0.76" stop-color="#F4884E"/>
<stop offset="1" stop-color="#F4844D"/>
</linearGradient>
<linearGradient id="paint8_linear_26659_499591" x1="89.4737" y1="28.6632" x2="89.4737" y2="43.724" gradientUnits="userSpaceOnUse">
<stop stop-color="white"/>
<stop offset="0.4" stop-color="#FEFDFD"/>
<stop offset="0.55" stop-color="#FDF6F8"/>
<stop offset="0.65" stop-color="#FCEAEF"/>
<stop offset="0.74" stop-color="#FAD9E1"/>
<stop offset="0.81" stop-color="#F8C3D0"/>
<stop offset="0.87" stop-color="#F4A8BB"/>
<stop offset="0.93" stop-color="#F188A2"/>
<stop offset="0.98" stop-color="#EC6386"/>
<stop offset="1" stop-color="#EB557B"/>
</linearGradient>
<linearGradient id="paint9_linear_26659_499591" x1="79.1349" y1="37.6354" x2="91.0381" y2="49.5386" gradientUnits="userSpaceOnUse">
<stop stop-color="#EB557B"/>
<stop offset="0.54" stop-color="#E8537A"/>
<stop offset="0.78" stop-color="#E14C7A"/>
<stop offset="0.96" stop-color="#D54079"/>
<stop offset="1" stop-color="#D13D79"/>
</linearGradient>
<linearGradient id="paint10_linear_26659_499591" x1="46.2483" y1="40.6964" x2="59.3449" y2="48.704" gradientUnits="userSpaceOnUse">
<stop stop-color="#8E8FD7"/>
<stop offset="0.48" stop-color="#8B8DD4"/>
<stop offset="0.69" stop-color="#8486CD"/>
<stop offset="0.85" stop-color="#787CC1"/>
<stop offset="0.99" stop-color="#676CAF"/>
<stop offset="1" stop-color="#656BAD"/>
</linearGradient>
<linearGradient id="paint11_linear_26659_499591" x1="53.2461" y1="39.1963" x2="57.3345" y2="41.6966" gradientUnits="userSpaceOnUse">
<stop stop-color="#47333F"/>
<stop offset="0.43" stop-color="#3E2B3A"/>
<stop offset="1" stop-color="#3A2738"/>
</linearGradient>
<clipPath id="clip0_26659_499591">
<rect width="42.7417" height="12.1845" fill="white" transform="matrix(0.99995 -0.0100448 -0.00471651 0.999989 65.8291 64.8057)"/>
</clipPath>
</defs>
</svg>
