<svg width="935" height="140" viewBox="0 0 935 140" fill="none" xmlns="http://www.w3.org/2000/svg">
<g clip-path="url(#clip0_26518_402737)">
<path d="M934.18 0H0V140H934.18V0Z" fill="#DB284E"/>
<path d="M173.312 29.4591L162.452 28.7342C162.06 28.708 161.72 29.0046 161.694 29.3967L161.373 34.2092C161.347 34.6012 161.644 34.9402 162.036 34.9664L172.896 35.6914C173.288 35.7175 173.628 35.4209 173.654 35.0289L173.975 30.2164C174.001 29.8243 173.704 29.4853 173.312 29.4591Z" fill="url(#paint0_linear_26518_402737)"/>
<path d="M177.333 34.3865L174.574 75.7646C174.529 76.4381 173.981 76.9599 173.32 76.9861C173.275 76.9877 173.229 76.9871 173.182 76.9838L156.274 75.8558C156.227 75.8528 156.182 75.8472 156.136 75.8394C155.484 75.7261 155.011 75.1355 155.055 74.462L157.815 33.0839C157.862 32.3639 158.486 31.8167 159.208 31.8651L176.116 32.9931C176.458 33.0156 176.76 33.1685 176.979 33.3995C177.221 33.6555 177.359 34.0079 177.334 34.3856L177.333 34.3865Z" fill="url(#paint1_linear_26518_402737)"/>
<g style="mix-blend-mode:multiply" opacity="0.16">
<path d="M175.32 64.5771L174.574 75.7646C174.529 76.4381 173.981 76.9599 173.32 76.9861C173.275 76.9877 173.229 76.9871 173.182 76.9838L156.274 75.8558C156.227 75.8528 156.182 75.8472 156.136 75.8394C155.484 75.7261 155.011 75.1355 155.055 74.462L156.955 45.9724C157.607 47.2791 158.336 48.547 159.136 49.7687C159.987 51.0714 160.916 52.3212 161.91 53.5045C165.077 57.2702 168.859 60.4347 172.984 63.1248C173.752 63.6226 174.529 64.1056 175.321 64.5762L175.32 64.5771Z" fill="#CE679B"/>
</g>
<path d="M170.637 25.2999L165.654 24.9673L165.39 28.9304L170.373 29.263L170.637 25.2999Z" fill="#3A2738"/>
<path d="M176.737 24.2792L162.472 23.3277C162.269 23.3138 162.091 23.4686 162.078 23.6726L161.939 25.7512C161.926 25.9548 162.08 26.1322 162.284 26.1451L173.731 26.9086C175.288 27.0122 176.633 25.8346 176.737 24.2784L176.737 24.2792Z" fill="url(#paint2_linear_26518_402737)"/>
<path opacity="0.78" d="M174.651 38.124L172.577 69.2302C172.541 69.7722 172.072 70.1821 171.529 70.1459L158.818 69.2981C158.38 69.2685 158.028 68.9568 157.929 68.5508C157.905 68.4553 157.895 68.3549 157.902 68.2511L159.977 37.145C160.013 36.6029 160.481 36.1919 161.024 36.2281L173.735 37.0759C174.109 37.1009 174.42 37.3312 174.566 37.6502C174.63 37.7942 174.663 37.955 174.651 38.124Z" fill="white" fill-opacity="0.5"/>
<g opacity="0.17">
<path d="M157.031 44.8323L159.617 42.5434L159.292 47.4259L156.705 49.7143L157.031 44.8323Z" fill="white"/>
<path d="M175.638 32.962L171.18 36.9059L166.353 36.5842L170.811 32.6403L175.638 32.962Z" fill="white"/>
<path d="M156.59 51.44L159.177 49.1515L159.027 51.4004L156.441 53.6889L156.59 51.44Z" fill="white"/>
<path d="M177.333 34.3865L177.276 35.253L174.567 37.6506C174.42 37.3325 174.11 37.1013 173.735 37.0762L172.889 37.0195L176.979 33.3995C177.221 33.6555 177.359 34.0079 177.334 34.3857L177.333 34.3865Z" fill="white"/>
<path d="M176.719 43.5923L176.394 48.4726L173.809 50.7606L174.135 45.8794L176.719 43.5923Z" fill="white"/>
<path d="M176.278 50.2L176.129 52.448L173.544 54.736L173.693 52.4871L176.278 50.2Z" fill="white"/>
</g>
<path d="M161.284 58.686L159.906 72.6448C159.853 73.1756 159.38 73.5642 158.849 73.5118L142.301 71.8771C141.77 71.8246 141.382 71.351 141.434 70.8202L142.813 56.8619C142.829 56.7029 142.849 56.5468 142.872 56.3909C142.883 56.3184 142.895 56.2473 142.908 56.175C143.098 55.1022 143.475 54.1032 144.004 53.2085C144.684 52.0593 145.611 51.0823 146.706 50.3456L147.17 45.6537L159.204 46.8423L158.741 51.5334C160.394 53.2004 161.38 55.5048 161.325 57.9933C161.325 58.0666 161.322 58.1389 161.319 58.2128C161.311 58.3698 161.3 58.527 161.284 58.686Z" fill="url(#paint3_linear_26518_402737)"/>
<g style="mix-blend-mode:multiply" opacity="0.16">
<path d="M159.204 46.8437L147.169 45.6539L146.705 50.3456L158.74 51.5354L159.204 46.8437Z" fill="#D166B5"/>
</g>
<path opacity="0.51" d="M161.306 58.469L160.302 68.6317L141.831 66.8068L142.835 56.6441C142.851 56.4851 142.871 56.329 142.894 56.1731L161.34 57.9957C161.333 58.1528 161.321 58.31 161.306 58.469Z" fill="white"/>
<path d="M152.184 59.8935C152.149 59.8184 152.09 59.7514 152.01 59.7035C151.797 59.5768 151.517 59.6319 151.383 59.8262L149.882 62.0132C149.556 62.4946 149.48 63.1244 149.747 63.6908C150.179 64.6082 151.328 65.039 152.314 64.6551C153.3 64.2705 153.749 63.2153 153.317 62.2987L152.184 59.8935Z" fill="url(#paint4_linear_26518_402737)"/>
<path d="M152.049 57.7765C149.609 57.5359 147.429 59.324 147.188 61.7626C146.947 64.2017 148.735 66.3817 151.174 66.6231C153.614 66.8642 155.794 65.0761 156.035 62.6362C156.277 60.1975 154.488 58.0171 152.049 57.7765ZM151.239 65.9733C149.158 65.7681 147.633 63.9076 147.838 61.8268C148.043 59.746 149.904 58.2207 151.985 58.4259C154.065 58.6319 155.591 60.4917 155.386 62.5724C155.18 64.6532 153.32 66.1785 151.239 65.9733Z" fill="url(#paint5_linear_26518_402737)"/>
<path d="M161.349 44.9991L160.948 49.0702C160.916 49.3945 160.626 49.6319 160.302 49.5995L145.555 48.1437C145.23 48.112 144.993 47.8221 145.025 47.4982L145.427 43.4263C145.46 43.1012 145.749 42.8633 146.074 42.8954L150.229 43.3053L150.639 39.1619C150.814 37.3849 152.397 36.0856 154.174 36.2615C155.062 36.3497 155.832 36.7888 156.357 37.4292C156.882 38.0689 157.162 38.909 157.074 39.7982L156.665 43.9416L160.82 44.3515C161.144 44.3831 161.382 44.6731 161.35 44.9982L161.349 44.9991Z" fill="#47333F"/>
<g style="mix-blend-mode:multiply" opacity="0.15">
<path d="M160.303 68.6237L159.906 72.644C159.854 73.1748 159.38 73.5634 158.85 73.511L142.301 71.8771C141.77 71.8247 141.382 71.351 141.434 70.8202L142.835 56.6441C142.851 56.4851 142.871 56.329 142.894 56.1731L142.909 56.1746C143.099 55.1019 143.477 54.1028 144.005 53.2082C144.127 54.2772 144.367 55.3309 144.71 56.3523C145.291 58.09 146.17 59.7358 147.279 61.2122C147.457 61.4499 147.642 61.6822 147.833 61.9095C148.498 62.7094 149.234 63.4499 150.028 64.1174L150.029 64.1183C150.192 64.2558 150.355 64.3894 150.523 64.5192C150.532 64.5267 150.54 64.5341 150.55 64.5407C151.179 65.03 151.836 65.4769 152.518 65.8811C152.771 66.032 153.028 66.1765 153.29 66.3157C155.463 67.4789 157.85 68.2398 160.305 68.6239L160.303 68.6237Z" fill="#D166B5"/>
</g>
<path opacity="0.5" d="M158.504 53.9435C158.456 54.4263 158.025 54.7792 157.542 54.732C157.059 54.684 156.706 54.2537 156.754 53.7704C156.802 53.2876 157.232 52.9347 157.715 52.9819C158.198 53.0299 158.551 53.4602 158.504 53.9435Z" fill="white"/>
<path d="M97.3031 23.675L100.678 23.1417C101.174 23.0634 101.638 23.402 101.716 23.8964L102.25 27.2716C102.328 27.767 101.989 28.2315 101.495 28.3097L98.1198 28.843C97.6244 28.9213 97.1599 28.5827 97.0818 28.0883L96.5484 24.713C96.4701 24.2177 96.8087 23.7532 97.3031 23.675Z" fill="#47333F"/>
<g style="mix-blend-mode:multiply" opacity="0.39">
<path d="M97.3031 23.675L100.678 23.1417C101.174 23.0634 101.638 23.402 101.716 23.8964L102.25 27.2716C102.328 27.767 101.989 28.2315 101.495 28.3097L98.1198 28.843C97.6244 28.9213 97.1599 28.5827 97.0818 28.0883L96.5484 24.713C96.4701 24.2177 96.8087 23.7532 97.3031 23.675Z" fill="#D166B5"/>
</g>
<path d="M100.282 26.3866C100.506 25.893 100.287 25.3113 99.7931 25.0875C99.2994 24.8636 98.7178 25.0824 98.4939 25.5761C98.2701 26.0697 98.4888 26.6514 98.9825 26.8752C99.4762 27.0991 100.058 26.8803 100.282 26.3866Z" fill="#56404E"/>
<path d="M108.315 29.0981L108.738 31.7712L91.9387 34.4258L91.5163 31.7527C91.4639 31.4198 91.69 31.1084 92.022 31.056L107.619 28.5915C107.952 28.5391 108.263 28.7652 108.315 29.0981Z" fill="#47333F"/>
<g style="mix-blend-mode:multiply" opacity="0.39">
<path d="M108.491 30.1969L91.6914 32.8517L91.9397 34.4231L108.739 31.7683L108.491 30.1969Z" fill="#D166B5"/>
</g>
<path d="M106.552 27.6183L106.728 28.7323L92.9139 30.9152L92.7382 29.8012C92.7351 29.7827 92.732 29.7642 92.732 29.7457C92.6405 28.9852 93.1667 28.2832 93.9293 28.163L104.915 26.4272C105.677 26.3069 106.393 26.8126 106.541 27.5638C106.547 27.5813 106.55 27.5998 106.552 27.6183Z" fill="#47333F"/>
<g style="mix-blend-mode:multiply" opacity="0.39">
<path d="M106.552 27.6183L106.727 28.7323L92.9138 30.9152L92.7381 29.8012C92.735 29.7827 92.7319 29.7642 92.7319 29.7457L106.541 27.5638C106.547 27.5813 106.55 27.5998 106.552 27.6183Z" fill="#D166B5"/>
</g>
<path d="M111.683 33.4979L120.344 88.3093C120.531 89.4902 119.724 90.5991 118.543 90.7861L101.164 93.5322C99.9835 93.7192 98.8746 92.9125 98.6876 91.7316L90.0269 36.9202C89.8399 35.7393 90.6467 34.6304 91.8275 34.4434L109.206 31.6973C110.387 31.5103 111.496 32.317 111.683 33.4979Z" fill="url(#paint6_linear_26518_402737)"/>
<path opacity="0.9" d="M113.681 46.1277L92.0239 49.55L96.6929 79.0952L118.35 75.6729L113.681 46.1277Z" fill="white"/>
<path opacity="0.9" d="M112.995 41.7833L91.3379 45.2056L91.7816 48.0135L113.438 44.5912L112.995 41.7833Z" fill="white"/>
<path opacity="0.3" d="M934 129.94C899.55 129.9 866.522 116.197 842.162 91.8376C817.803 67.4777 804.1 34.45 804.06 0L864.06 0C864.076 18.5444 871.45 36.3246 884.563 49.4375C897.675 62.5504 915.456 69.9241 934 69.94V129.94Z" fill="#FBE9ED"/>
<g opacity="0.3">
<path opacity="0.3" d="M528.46 32.8H519.21L483.63 68.39V77.63L528.46 32.8Z" fill="#DB284E"/>
<path opacity="0.3" d="M483.63 41.99L492.81 32.8H483.63V41.99Z" fill="#DB284E"/>
<path opacity="0.3" d="M510.63 32.8H501.39L483.63 50.57V59.81L510.63 32.8Z" fill="#DB284E"/>
<path opacity="0.3" d="M532.75 72.74L523.57 81.92H532.75V72.74Z" fill="#DB284E"/>
<path opacity="0.3" d="M532.75 64.16V54.92L505.74 81.92H514.99L532.75 64.16Z" fill="#DB284E"/>
<path opacity="0.3" d="M532.75 46.34V37.09L487.92 81.92H497.16L532.75 46.34Z" fill="#DB284E"/>
</g>
<path d="M187.9 125.01C195.903 125.01 202.39 118.742 202.39 111.01C202.39 103.278 195.903 97.01 187.9 97.01C179.897 97.01 173.41 103.278 173.41 111.01C173.41 118.742 179.897 125.01 187.9 125.01Z" fill="#F3BDCA"/>
<path d="M178.26 125.01C181.59 125.01 184.29 122.4 184.29 119.18C184.29 115.96 181.59 113.35 178.26 113.35C174.93 113.35 172.23 115.96 172.23 119.18C172.23 122.4 174.93 125.01 178.26 125.01Z" fill="#DB284E"/>
<path d="M202.4 125.01C206.492 125.01 209.81 121.804 209.81 117.85C209.81 113.896 206.492 110.69 202.4 110.69C198.308 110.69 194.99 113.896 194.99 117.85C194.99 121.804 198.308 125.01 202.4 125.01Z" fill="#F3BDCA"/>
<path d="M157.24 125.92H223.42C223.42 125.92 197.15 115.46 157.24 125.92Z" fill="#F3BDCA"/>
<path d="M168.31 125.04C174.761 125.04 179.99 119.99 179.99 113.76C179.99 107.53 174.761 102.48 168.31 102.48C161.859 102.48 156.63 107.53 156.63 113.76C156.63 119.99 161.859 125.04 168.31 125.04Z" fill="#DB284E"/>
<path d="M156.63 125.04C159.855 125.04 162.47 122.515 162.47 119.4C162.47 116.285 159.855 113.76 156.63 113.76C153.405 113.76 150.79 116.285 150.79 119.4C150.79 122.515 153.405 125.04 156.63 125.04Z" fill="#DB284E"/>
<path d="M179.99 125.04C183.955 125.04 187.17 121.937 187.17 118.11C187.17 114.283 183.955 111.18 179.99 111.18C176.025 111.18 172.81 114.283 172.81 118.11C172.81 121.937 176.025 125.04 179.99 125.04Z" fill="#DB284E"/>
<path d="M136.29 125.92H200.34C200.34 125.92 174.91 115.8 136.29 125.92Z" fill="#DB284E"/>
<path d="M68.93 123.44C77.7114 123.44 84.83 116.59 84.83 108.14C84.83 99.69 77.7114 92.84 68.93 92.84C60.1487 92.84 53.03 99.69 53.03 108.14C53.03 116.59 60.1487 123.44 68.93 123.44Z" fill="#F3BDCA"/>
<path d="M84.8299 123.44C89.2206 123.44 92.7799 120.015 92.7799 115.79C92.7799 111.565 89.2206 108.14 84.8299 108.14C80.4392 108.14 76.8799 111.565 76.8799 115.79C76.8799 120.015 80.4392 123.44 84.8299 123.44Z" fill="#DB284E"/>
<path d="M53.02 123.44C58.4158 123.44 62.79 119.231 62.79 114.04C62.79 108.849 58.4158 104.64 53.02 104.64C47.6242 104.64 43.25 108.849 43.25 114.04C43.25 119.231 47.6242 123.44 53.02 123.44Z" fill="#F3BDCA"/>
<path d="M112.53 124.64H25.3201C25.3201 124.64 59.9401 110.91 112.53 124.64Z" fill="#F3BDCA"/>
<path d="M80 74C82.2978 72.6495 84.9382 71.9949 87.6008 72.1156C90.2634 72.2363 92.8338 73.1271 95 74.68C102.57 80.11 108.13 77.24 108.13 77.24L111.24 83.84L89.46 94.07L80 74Z" fill="#A9EDFF"/>
<path d="M108.09 77.21C109.951 78.0769 112.034 78.35 114.056 77.9922C116.077 77.6344 117.94 76.663 119.39 75.21L121.21 79.07L111.21 83.8L108.09 77.21Z" fill="#88D1E2"/>
<path d="M131.238 61.1681C131.217 61.3717 131.195 61.5753 131.172 61.7789C131.065 62.7687 130.944 63.7585 130.81 64.7457C130.623 66.1376 130.408 67.5269 130.166 68.9124C129.778 71.0841 129.336 73.2494 128.737 75.4019C128.549 76.0819 127.898 76.5326 127.194 76.4609L109.43 74.6554C108.726 74.5837 108.179 74.0113 108.129 73.3071C108.121 73.1918 108.113 73.0766 108.107 72.9613C107.98 70.8498 107.984 68.7536 108.035 66.6626C108.072 65.4346 108.131 64.2079 108.209 62.9838C108.27 62.0337 108.341 61.0836 108.426 60.136C108.463 59.7109 108.503 59.2857 108.545 58.8619C108.576 58.5443 108.608 58.2281 108.641 57.9105C108.874 55.7234 109.172 53.5415 109.55 51.3685C109.564 51.284 109.578 51.2021 109.594 51.1175C109.982 48.9407 110.422 46.769 111.039 44.6152C111.231 43.9417 111.879 43.4999 112.58 43.5704L130.363 45.3771C131.061 45.4476 131.609 46.011 131.663 46.7101C131.832 48.9433 131.827 51.1598 131.77 53.3712C131.77 53.3968 131.769 53.4211 131.768 53.4467C131.708 55.4866 131.582 57.5174 131.398 59.5444C131.348 60.0861 131.295 60.6277 131.238 61.1681Z" fill="url(#paint7_linear_26518_402737)"/>
<g opacity="0.17">
<path d="M124.552 44.7882L108.641 57.9119C108.874 55.7248 109.172 53.5429 109.55 51.3699L118.301 44.1531L124.553 44.7882H124.552Z" fill="white"/>
<path d="M112.667 56.6377C112.383 57.3996 112.191 58.2153 112.103 59.0732C112.078 59.3203 112.062 59.5675 112.056 59.8108L108.208 62.9838C108.268 62.0337 108.34 61.0836 108.425 60.136L112.666 56.6377H112.667Z" fill="white"/>
<path d="M129.644 45.3054L122.253 51.4005C121.785 51.2507 121.3 51.147 120.797 51.0958C120.322 51.0471 119.853 51.0484 119.392 51.0932L126.765 45.0135L129.645 45.3067L129.644 45.3054Z" fill="white"/>
<path d="M119.014 68.6359C119.47 68.682 119.922 68.6833 120.365 68.6423L112.676 74.9846L109.43 74.6542C108.725 74.5825 108.179 74.0101 108.129 73.3059C108.121 73.1906 108.113 73.0754 108.107 72.9601L115.244 67.0737C116.315 67.9304 117.599 68.49 119.015 68.6334L119.014 68.6359Z" fill="white"/>
<path d="M127.167 63.0337C127.438 62.2885 127.624 61.4933 127.709 60.6597C127.837 59.3971 127.721 58.1743 127.404 57.0462L131.766 53.448C131.706 55.4878 131.581 57.5187 131.396 59.5457L127.167 63.0337Z" fill="white"/>
<path d="M131.172 61.7802C131.065 62.77 130.944 63.7598 130.81 64.747L117.767 75.5044L114.887 75.2111L131.172 61.7802Z" fill="white"/>
</g>
<path d="M129.921 43.2145L129.709 45.3119L113.233 43.637L113.445 41.5396C113.525 40.7547 114.225 40.181 115.01 40.2604L128.644 41.6459C129.428 41.7253 130.002 42.4283 129.923 43.2145H129.921Z" fill="#47333F"/>
<g style="mix-blend-mode:multiply" opacity="0.18">
<path d="M113.401 41.8653L113.222 43.6259L129.699 45.2996L129.878 43.539L113.401 41.8653Z" fill="#D166B5"/>
</g>
<path d="M122.917 33.8067L118.93 33.4008L114.986 33L114.759 35.2242L116.084 35.3587C117.531 35.5059 118.585 36.7979 118.438 38.2449L118.022 42.345L125.546 43.1094L126.29 35.7876C126.381 34.8913 125.728 34.091 124.831 34.0001L122.918 33.8054L122.917 33.8067Z" fill="#47333F"/>
<g style="mix-blend-mode:multiply" opacity="0.19">
<path d="M125.643 76.3047L109.428 74.6567C108.724 74.585 108.177 74.0126 108.127 73.3083C107.976 71.079 107.98 68.8689 108.034 66.6639C108.113 64.0543 108.286 61.4536 108.544 58.8619C108.797 56.2728 109.139 53.69 109.592 51.1175C109.98 48.9407 110.421 46.769 111.038 44.6152C111.231 43.9417 111.878 43.4999 112.58 43.5704L114.717 43.7881C114.55 44.5589 113.712 48.773 114.052 54.1561C114.324 58.5738 115.392 63.779 118.269 68.5193C119.995 71.3735 122.382 74.0613 125.644 76.3047H125.643Z" fill="#D166B5"/>
</g>
<path d="M127.708 60.6597C127.624 61.4933 127.438 62.2885 127.167 63.0338C126.031 66.1569 123.388 68.3695 120.365 68.6436C119.922 68.6845 119.47 68.6833 119.014 68.6372C117.598 68.4937 116.313 67.9342 115.243 67.0775C113.225 65.459 111.974 62.7764 112.056 59.8121C112.062 59.5675 112.078 59.3216 112.103 59.0745C112.19 58.2179 112.384 57.4009 112.667 56.639C113.809 53.5671 116.411 51.3878 119.392 51.0933C119.853 51.0484 120.321 51.0472 120.796 51.0958C121.298 51.147 121.785 51.2508 122.252 51.4006C124.739 52.2047 126.647 54.3508 127.404 57.0462C127.723 58.1743 127.836 59.3972 127.708 60.6597Z" fill="white" fill-opacity="0.26"/>
<path d="M153.241 55.589H131.563C131.452 54.2578 132.175 52.8851 133.259 52.0606C134.521 51.1 136.166 50.7832 137.752 50.7832C139.337 50.7853 140.906 51.0757 142.486 51.2056C144.066 51.3376 145.707 51.299 147.166 50.6776C147.891 50.368 148.571 49.9029 149.019 49.2531C149.465 48.6012 149.653 47.7483 149.4 47C149.4 47 150.358 47.465 151.345 48.4672C152.674 49.8136 154.059 52.1296 153.242 55.589H153.241Z" fill="url(#paint8_linear_26518_402737)"/>
<g style="mix-blend-mode:multiply" opacity="0.28">
<path d="M153.24 55.589H137.013C137.56 54.5635 138.675 53.8659 139.822 53.5806C141.186 53.2425 142.615 53.3776 144.017 53.4639C145.421 53.5502 146.874 53.5786 148.175 53.0465C149.353 52.5663 150.336 51.6311 150.874 50.4777C151.168 49.8481 151.324 49.1597 151.344 48.4652C152.673 49.8116 154.058 52.1276 153.24 55.587V55.589Z" fill="#D166B5"/>
</g>
<path d="M154.935 59.5599V72.5636C154.935 73.4531 154.21 74.174 153.32 74.174H131.615C130.726 74.174 130 73.4531 130 72.5636V59.5599C130 59.4228 130.018 59.2949 130.05 59.1679C130.223 58.4653 130.857 57.9454 131.614 57.9454H153.328C154.08 57.9495 154.711 58.4704 154.884 59.1679C154.915 59.2959 154.933 59.4238 154.933 59.5599H154.935Z" fill="url(#paint9_linear_26518_402737)"/>
<path opacity="0.25" d="M154.933 61.2212H130.002V70.9006H154.933V61.2212Z" fill="white"/>
<g style="mix-blend-mode:multiply" opacity="0.16">
<path d="M154.935 59.5601V74.1742H145.254V60.9014C145.254 59.9429 144.478 59.1671 143.52 59.1671H130.051C130.224 58.4645 130.858 57.9446 131.615 57.9446H153.329C154.081 57.9487 154.712 58.4696 154.885 59.1671C154.916 59.2951 154.934 59.423 154.934 59.5591L154.935 59.5601Z" fill="#D166B5"/>
</g>
<path d="M154.933 55.589C154.933 56.2388 154.669 56.8287 154.243 57.2552C153.816 57.6816 153.227 57.9456 152.577 57.9456H132.358C131.057 57.9456 130.001 56.8897 130.001 55.589H154.932H154.933Z" fill="#EB557B"/>
<path d="M105.741 57.1802L108.521 68.7072C108.711 69.4959 108.222 70.2907 107.433 70.4809L88.192 75.1206C87.4033 75.3108 86.6058 74.8274 86.4154 74.0377L83.6357 62.5107C83.6065 62.3893 83.5949 62.272 83.5964 62.1525C83.6002 61.4926 84.0506 60.8962 84.7228 60.7341L103.972 56.0924C104.64 55.9354 105.31 56.2617 105.612 56.8437C105.668 56.9503 105.711 57.06 105.74 57.1804L105.741 57.1802Z" fill="url(#paint10_linear_26518_402737)"/>
<path d="M104.343 51.3802L105.159 54.7648C105.29 55.3077 104.956 55.8541 104.413 55.985L84.2746 60.8411C83.7327 60.9718 83.1854 60.638 83.0545 60.0951L82.2383 56.7104C82.1074 56.1675 82.4424 55.6209 82.9843 55.4902L103.123 50.6341C103.252 50.6029 103.38 50.5981 103.504 50.6164C103.901 50.6731 104.243 50.9666 104.343 51.3802Z" fill="url(#paint11_linear_26518_402737)"/>
<path opacity="0.51" d="M106.095 58.6534L83.9932 63.9829L86.0623 72.5635L108.164 67.234L106.095 58.6534Z" fill="white"/>
<g style="mix-blend-mode:multiply" opacity="0.16">
<path d="M105.741 57.1802L108.865 70.1355L100.283 72.2051L97.4454 60.4392C97.2405 59.5893 96.3868 59.0682 95.538 59.2729L83.5983 62.1521C83.6021 61.4921 84.0526 60.8957 84.7248 60.7336L103.974 56.0919C104.642 55.935 105.312 56.2612 105.614 56.8432C105.67 56.9498 105.713 57.0595 105.742 57.1799L105.741 57.1802Z" fill="#D166B5"/>
</g>
<path d="M67.9101 37.08L48.0801 25.57L53.2601 20.18L67.9101 37.08Z" fill="#EB92A7"/>
<path d="M69.8799 34.26L61.1599 19.72L66.4399 18.09L69.8799 34.26Z" fill="#EB92A7"/>
<path d="M65.52 40.01L52.51 39.59L53.66 35.51L65.52 40.01Z" fill="#EB92A7"/>
<path d="M185.67 84.25H161.8L153.21 70.25H176.46C177.265 70.2616 178.054 70.4768 178.753 70.8754C179.453 71.2741 180.04 71.8433 180.46 72.53L186.6 82.53C186.697 82.6999 186.75 82.8918 186.752 83.0877C186.755 83.2835 186.707 83.4767 186.614 83.649C186.521 83.8212 186.385 83.9669 186.22 84.072C186.055 84.1772 185.865 84.2385 185.67 84.25Z" fill="#E0AC69"/>
<path d="M159.502 70.1926L76.3921 70.0765C75.1494 70.0748 74.1407 71.0808 74.1389 72.3234L74.0622 127.303C74.0604 128.546 75.0664 129.555 76.309 129.556L159.419 129.673C160.662 129.674 161.67 128.668 161.672 127.426L161.749 72.4457C161.751 71.2031 160.745 70.1943 159.502 70.1926Z" fill="#E0AC69"/>
<path d="M99.9199 70.17H176.51C177.306 70.17 178.069 70.4861 178.631 71.0487C179.194 71.6113 179.51 72.3743 179.51 73.17V126.6C179.51 127.396 179.194 128.159 178.631 128.721C178.069 129.284 177.306 129.6 176.51 129.6H99.9199V70.17Z" fill="#F7CD97"/>
<path d="M125.52 99.76C124.64 99.5 123.43 99.15 123.43 98.76C123.43 98.37 124.29 97.76 125.27 97.76C126.25 97.76 127.11 98.23 127.11 98.76V99.18H128.64V98.76C128.64 97.4 127.13 96.28 125.27 96.28C123.41 96.28 121.9 97.39 121.89 98.76C121.89 100.3 123.72 100.83 125.31 101.29C126.24 101.56 127.4 101.9 127.4 102.29C127.4 102.68 126.4 103.29 125.26 103.29C124.12 103.29 123.13 102.81 123.13 102.29V101.87H121.59V102.28C121.59 103.67 123.2 104.77 125.26 104.77C127.32 104.77 128.93 103.68 128.93 102.3C128.93 100.76 127.13 100.23 125.52 99.75" fill="#231F20"/>
<path d="M133.6 96.28C133.024 96.2521 132.448 96.3414 131.908 96.5426C131.367 96.7439 130.873 97.0528 130.455 97.4506C130.038 97.8485 129.705 98.327 129.478 98.8572C129.251 99.3874 129.134 99.9582 129.134 100.535C129.134 101.112 129.251 101.683 129.478 102.213C129.705 102.743 130.038 103.221 130.455 103.619C130.873 104.017 131.367 104.326 131.908 104.527C132.448 104.729 133.024 104.818 133.6 104.79C134.293 104.815 134.981 104.674 135.609 104.381C136.237 104.087 136.786 103.648 137.21 103.1L137.48 102.75L136.23 101.89L135.99 102.2C135.71 102.564 135.347 102.856 134.932 103.051C134.516 103.246 134.059 103.338 133.6 103.32C133.003 103.323 132.421 103.129 131.945 102.767C131.469 102.405 131.127 101.897 130.97 101.32H137.86V100.58C137.86 99.4519 137.413 98.3699 136.616 97.5713C135.819 96.7726 134.738 96.3226 133.61 96.32L133.6 96.28ZM131 99.79C131.158 99.2142 131.501 98.7063 131.977 98.3449C132.452 97.9834 133.033 97.7885 133.63 97.79C134.234 97.7858 134.822 97.9789 135.306 98.34C135.79 98.701 136.142 99.2102 136.31 99.79H131Z" fill="#231F20"/>
<path d="M140.85 94.29H139.32V96.29H137.9V97.76H139.32V102.28C139.32 103.87 140.5 104.79 142.51 104.79H143.28V103.32H142.51C141.42 103.32 140.86 102.96 140.85 102.32V97.77H143.28V96.3H140.85V94.29Z" fill="#30C495"/>
<path d="M147.58 96.3C146.738 96.3 145.914 96.5498 145.213 97.0179C144.513 97.486 143.967 98.1514 143.644 98.9298C143.322 99.7082 143.238 100.565 143.402 101.391C143.566 102.217 143.972 102.977 144.568 103.572C145.164 104.168 145.923 104.574 146.749 104.738C147.575 104.903 148.432 104.818 149.21 104.496C149.989 104.173 150.654 103.627 151.122 102.927C151.59 102.226 151.84 101.403 151.84 100.56C151.84 99.4302 151.391 98.3466 150.592 97.5477C149.793 96.7488 148.71 96.3 147.58 96.3ZM147.58 97.78C148.132 97.7701 148.675 97.9249 149.139 98.2247C149.603 98.5245 149.967 98.9557 150.185 99.4633C150.403 99.971 150.464 100.532 150.362 101.075C150.26 101.618 149.998 102.118 149.61 102.511C149.222 102.904 148.726 103.173 148.185 103.284C147.644 103.394 147.082 103.34 146.571 103.13C146.06 102.92 145.624 102.562 145.317 102.102C145.011 101.643 144.848 101.102 144.85 100.55C144.847 99.8214 145.133 99.1214 145.644 98.6025C146.156 98.0836 146.852 97.7879 147.58 97.78Z" fill="#30C495"/>
<path d="M164.72 96.33C163.877 96.33 163.054 96.5798 162.353 97.0479C161.653 97.516 161.107 98.1814 160.784 98.9598C160.462 99.7382 160.377 100.595 160.542 101.421C160.706 102.247 161.112 103.007 161.708 103.602C162.303 104.198 163.063 104.604 163.889 104.768C164.715 104.933 165.572 104.848 166.35 104.526C167.129 104.203 167.794 103.657 168.262 102.957C168.73 102.256 168.98 101.433 168.98 100.59C168.98 99.4602 168.531 98.3766 167.732 97.5777C166.933 96.7788 165.85 96.33 164.72 96.33ZM164.72 103.33C164.168 103.34 163.626 103.185 163.162 102.886C162.698 102.587 162.334 102.156 162.116 101.649C161.898 101.142 161.836 100.581 161.937 100.039C162.039 99.4964 162.3 98.9964 162.686 98.6026C163.073 98.2088 163.568 97.939 164.109 97.8276C164.65 97.7163 165.211 97.7683 165.722 97.9772C166.233 98.186 166.67 98.5423 166.978 99.0004C167.285 99.4586 167.45 99.9981 167.45 100.55C167.455 101.28 167.171 101.983 166.659 102.504C166.148 103.025 165.45 103.322 164.72 103.33Z" fill="#30C495"/>
<path d="M154.46 99.83L154.47 99.32V92.8L152.94 92.79L152.92 104.82H154.46V102.62V101.3V99.83Z" fill="#30C495"/>
<path d="M159.81 97.61L161.31 96.32H159.02L154.79 99.83V101.31L158.79 104.66L159 104.83H161.3L156.27 100.57L159.81 97.61Z" fill="#30C495"/>
<path d="M110.48 100.78V97.32C111.071 97.324 111.658 97.2111 112.205 96.9878C112.753 96.7646 113.251 96.4354 113.671 96.0191C114.091 95.6028 114.424 95.1077 114.652 94.5621C114.881 94.0166 114.999 93.4313 115 92.84H118.47C118.452 94.9496 117.601 96.9665 116.102 98.4517C114.604 99.9368 112.58 100.77 110.47 100.77" fill="#30C495"/>
<path d="M114.955 101.231L114.95 104.701L118.42 104.706L118.425 101.236L114.955 101.231Z" fill="#231F20"/>
<path d="M91.652 70.0979L81.512 70.0837L81.5036 76.0537L91.6436 76.0679L91.652 70.0979Z" fill="#F1C27D"/>
<path d="M91.5772 123.608L81.4373 123.594L81.4289 129.564L91.5689 129.578L91.5772 123.608Z" fill="#F1C27D"/>
<path d="M66.5699 84.15H90.7899C90.9893 84.1553 91.1865 84.1083 91.362 84.0135C91.5375 83.9187 91.685 83.7796 91.7899 83.61L100.09 70.14H75.5999C75.1626 70.1402 74.7326 70.2525 74.351 70.466C73.9694 70.6796 73.6488 70.9874 73.4199 71.36L66.0699 83.24C66.0122 83.3294 65.9797 83.4328 65.976 83.5391C65.9722 83.6455 65.9972 83.7509 66.0485 83.8441C66.0997 83.9374 66.1753 84.0151 66.2671 84.0689C66.3588 84.1228 66.4635 84.1508 66.5699 84.15Z" fill="#F1C27D"/>
<path d="M82.3799 129.54C87.8917 129.54 92.3599 124.83 92.3599 119.02C92.3599 113.21 87.8917 108.5 82.3799 108.5C76.8681 108.5 72.3999 113.21 72.3999 119.02C72.3999 124.83 76.8681 129.54 82.3799 129.54Z" fill="#FBE9ED"/>
<path d="M92.1199 129.54C94.8427 129.54 97.0499 127.579 97.0499 125.16C97.0499 122.741 94.8427 120.78 92.1199 120.78C89.3972 120.78 87.1899 122.741 87.1899 125.16C87.1899 127.579 89.3972 129.54 92.1199 129.54Z" fill="#56CCA5"/>
<path d="M72.4001 129.54C75.7469 129.54 78.4601 127.131 78.4601 124.16C78.4601 121.189 75.7469 118.78 72.4001 118.78C69.0532 118.78 66.3401 121.189 66.3401 124.16C66.3401 127.131 69.0532 129.54 72.4001 129.54Z" fill="#FBE9ED"/>
<path d="M109.31 130.23H55.21C55.21 130.23 76.69 122.37 109.31 130.23Z" fill="#FBE9ED"/>
<path d="M93.85 129.13C99.1244 129.13 103.4 125.333 103.4 120.65C103.4 115.967 99.1244 112.17 93.85 112.17C88.5757 112.17 84.3 115.967 84.3 120.65C84.3 125.333 88.5757 129.13 93.85 129.13Z" fill="#FBE9ED"/>
<path d="M103.4 129.13C106.034 129.13 108.17 127.232 108.17 124.89C108.17 122.548 106.034 120.65 103.4 120.65C100.765 120.65 98.6299 122.548 98.6299 124.89C98.6299 127.232 100.765 129.13 103.4 129.13Z" fill="#FBE9ED"/>
<path d="M84.2999 129.14C87.5363 129.14 90.1599 126.807 90.1599 123.93C90.1599 121.053 87.5363 118.72 84.2999 118.72C81.0636 118.72 78.4399 121.053 78.4399 123.93C78.4399 126.807 81.0636 129.14 84.2999 129.14Z" fill="#FBE9ED"/>
<path d="M119.48 130.05H67.1299C67.1299 130.05 87.9099 122.44 119.48 130.05Z" fill="#FBE9ED"/>
<path d="M167.18 129.33C171.896 129.33 175.72 125.636 175.72 121.08C175.72 116.524 171.896 112.83 167.18 112.83C162.463 112.83 158.64 116.524 158.64 121.08C158.64 125.636 162.463 129.33 167.18 129.33Z" fill="#FBE9ED"/>
<path d="M172.86 129.32C174.821 129.32 176.41 127.784 176.41 125.89C176.41 123.996 174.821 122.46 172.86 122.46C170.899 122.46 169.31 123.996 169.31 125.89C169.31 127.784 170.899 129.32 172.86 129.32Z" fill="#56CCA5"/>
<path d="M158.64 129.33C161.053 129.33 163.01 127.441 163.01 125.11C163.01 122.779 161.053 120.89 158.64 120.89C156.227 120.89 154.27 122.779 154.27 125.11C154.27 127.441 156.227 129.33 158.64 129.33Z" fill="#FBE9ED"/>
<path d="M185.24 129.86H146.24C146.24 129.86 161.73 123.7 185.24 129.86Z" fill="#FBE9ED"/>
<path d="M178.72 129.34C182.52 129.34 185.6 126.363 185.6 122.69C185.6 119.017 182.52 116.04 178.72 116.04C174.92 116.04 171.84 119.017 171.84 122.69C171.84 126.363 174.92 129.34 178.72 129.34Z" fill="#FBE9ED"/>
<path d="M185.6 129.34C187.5 129.34 189.04 127.854 189.04 126.02C189.04 124.186 187.5 122.7 185.6 122.7C183.7 122.7 182.16 124.186 182.16 126.02C182.16 127.854 183.7 129.34 185.6 129.34Z" fill="#FBE9ED"/>
<path d="M171.84 129.34C174.176 129.34 176.07 127.513 176.07 125.26C176.07 123.007 174.176 121.18 171.84 121.18C169.504 121.18 167.61 123.007 167.61 125.26C167.61 127.513 169.504 129.34 171.84 129.34Z" fill="#FBE9ED"/>
<path d="M197.58 129.86H159.85C159.85 129.86 174.83 123.9 197.58 129.86Z" fill="#FBE9ED"/>
<path d="M151.17 70.22L168.75 70.2L160.97 81.16L151.54 77.21L151.17 70.22Z" fill="#F7CD97"/>
<path d="M238.396 34.674C243.071 34.3225 246.609 30.6713 246.297 26.5188C245.985 22.3663 241.941 19.2849 237.265 19.6364C232.59 19.9879 229.052 23.6391 229.364 27.7916C229.677 31.9441 233.72 35.0255 238.396 34.674Z" fill="#F3BDCA"/>
<path d="M246.862 34.0376C249.197 33.862 250.963 32.0366 250.807 29.9604C250.651 27.8841 248.632 26.3433 246.297 26.5188C243.962 26.6943 242.195 28.5197 242.351 30.596C242.507 32.6723 244.527 34.2131 246.862 34.0376Z" fill="#F3BDCA"/>
<path d="M229.93 35.3104C232.805 35.0943 234.98 32.852 234.788 30.3021C234.596 27.7522 232.11 25.8603 229.236 26.0764C226.361 26.2925 224.186 28.5348 224.377 31.0847C224.569 33.6346 227.055 35.5265 229.93 35.3104Z" fill="#F3BDCA"/>
<path d="M261.655 33.5173L215.226 37.0073C215.226 37.0073 233.146 28.8711 261.655 33.5173Z" fill="#F3BDCA"/>
<path d="M675.75 108.88C682.549 108.88 688.06 103.982 688.06 97.94C688.06 91.898 682.549 87 675.75 87C668.951 87 663.44 91.898 663.44 97.94C663.44 103.982 668.951 108.88 675.75 108.88Z" fill="#F3BDCA"/>
<path d="M688.07 109.21C691.472 109.21 694.23 106.761 694.23 103.74C694.23 100.719 691.472 98.27 688.07 98.27C684.668 98.27 681.91 100.719 681.91 103.74C681.91 106.761 684.668 109.21 688.07 109.21Z" fill="#F3BDCA"/>
<path d="M663.44 109.21C667.615 109.21 671 106.201 671 102.49C671 98.7786 667.615 95.77 663.44 95.77C659.265 95.77 655.88 98.7786 655.88 102.49C655.88 106.201 659.265 109.21 663.44 109.21Z" fill="#F3BDCA"/>
<path d="M709.55 110.06H642C642 110.06 668.8 100.25 709.55 110.06Z" fill="#F3BDCA"/>
<rect x="751" y="46" width="154" height="48" rx="4" fill="#FBE9ED"/>
<path d="M792.444 75.098C791.763 75.098 791.147 74.9813 790.596 74.748C790.055 74.5147 789.626 74.1787 789.308 73.74C788.991 73.3013 788.828 72.7833 788.818 72.186H790.918C790.946 72.5873 791.086 72.9047 791.338 73.138C791.6 73.3713 791.954 73.488 792.402 73.488C792.86 73.488 793.219 73.3807 793.48 73.166C793.742 72.942 793.872 72.6527 793.872 72.298C793.872 72.0087 793.784 71.7707 793.606 71.584C793.429 71.3973 793.205 71.2527 792.934 71.15C792.673 71.038 792.309 70.9167 791.842 70.786C791.208 70.5993 790.69 70.4173 790.288 70.24C789.896 70.0533 789.556 69.778 789.266 69.414C788.986 69.0407 788.846 68.546 788.846 67.93C788.846 67.3513 788.991 66.8473 789.28 66.418C789.57 65.9887 789.976 65.662 790.498 65.438C791.021 65.2047 791.618 65.088 792.29 65.088C793.298 65.088 794.115 65.3353 794.74 65.83C795.375 66.3153 795.725 66.9967 795.79 67.874H793.634C793.616 67.538 793.471 67.2627 793.2 67.048C792.939 66.824 792.589 66.712 792.15 66.712C791.768 66.712 791.46 66.81 791.226 67.006C791.002 67.202 790.89 67.4867 790.89 67.86C790.89 68.1213 790.974 68.3407 791.142 68.518C791.32 68.686 791.534 68.826 791.786 68.938C792.048 69.0407 792.412 69.162 792.878 69.302C793.513 69.4887 794.031 69.6753 794.432 69.862C794.834 70.0487 795.179 70.3287 795.468 70.702C795.758 71.0753 795.902 71.5653 795.902 72.172C795.902 72.6947 795.767 73.18 795.496 73.628C795.226 74.076 794.829 74.4353 794.306 74.706C793.784 74.9673 793.163 75.098 792.444 75.098ZM805.958 65.228V75H803.998V70.842H799.812V75H797.852V65.228H799.812V69.246H803.998V65.228H805.958ZM812.673 75.098C811.758 75.098 810.918 74.8833 810.153 74.454C809.388 74.0247 808.781 73.432 808.333 72.676C807.885 71.9107 807.661 71.0473 807.661 70.086C807.661 69.134 807.885 68.28 808.333 67.524C808.781 66.7587 809.388 66.1613 810.153 65.732C810.918 65.3027 811.758 65.088 812.673 65.088C813.597 65.088 814.437 65.3027 815.193 65.732C815.958 66.1613 816.56 66.7587 816.999 67.524C817.447 68.28 817.671 69.134 817.671 70.086C817.671 71.0473 817.447 71.9107 816.999 72.676C816.56 73.432 815.958 74.0247 815.193 74.454C814.428 74.8833 813.588 75.098 812.673 75.098ZM812.673 73.348C813.261 73.348 813.779 73.2173 814.227 72.956C814.675 72.6853 815.025 72.3027 815.277 71.808C815.529 71.3133 815.655 70.7393 815.655 70.086C815.655 69.4327 815.529 68.8633 815.277 68.378C815.025 67.8833 814.675 67.5053 814.227 67.244C813.779 66.9827 813.261 66.852 812.673 66.852C812.085 66.852 811.562 66.9827 811.105 67.244C810.657 67.5053 810.307 67.8833 810.055 68.378C809.803 68.8633 809.677 69.4327 809.677 70.086C809.677 70.7393 809.803 71.3133 810.055 71.808C810.307 72.3027 810.657 72.6853 811.105 72.956C811.562 73.2173 812.085 73.348 812.673 73.348ZM826.505 68.252C826.505 68.7747 826.379 69.2647 826.127 69.722C825.884 70.1793 825.497 70.548 824.965 70.828C824.442 71.108 823.78 71.248 822.977 71.248H821.339V75H819.379V65.228H822.977C823.733 65.228 824.377 65.3587 824.909 65.62C825.441 65.8813 825.838 66.2407 826.099 66.698C826.37 67.1553 826.505 67.6733 826.505 68.252ZM822.893 69.666C823.434 69.666 823.836 69.5447 824.097 69.302C824.358 69.05 824.489 68.7 824.489 68.252C824.489 67.3 823.957 66.824 822.893 66.824H821.339V69.666H822.893ZM840.091 75H838.131L833.693 68.294V75H831.733V65.214H833.693L838.131 71.934V65.214H840.091V75ZM846.814 75.098C845.899 75.098 845.059 74.8833 844.294 74.454C843.528 74.0247 842.922 73.432 842.474 72.676C842.026 71.9107 841.802 71.0473 841.802 70.086C841.802 69.134 842.026 68.28 842.474 67.524C842.922 66.7587 843.528 66.1613 844.294 65.732C845.059 65.3027 845.899 65.088 846.814 65.088C847.738 65.088 848.578 65.3027 849.334 65.732C850.099 66.1613 850.701 66.7587 851.14 67.524C851.588 68.28 851.812 69.134 851.812 70.086C851.812 71.0473 851.588 71.9107 851.14 72.676C850.701 73.432 850.099 74.0247 849.334 74.454C848.568 74.8833 847.728 75.098 846.814 75.098ZM846.814 73.348C847.402 73.348 847.92 73.2173 848.368 72.956C848.816 72.6853 849.166 72.3027 849.418 71.808C849.67 71.3133 849.796 70.7393 849.796 70.086C849.796 69.4327 849.67 68.8633 849.418 68.378C849.166 67.8833 848.816 67.5053 848.368 67.244C847.92 66.9827 847.402 66.852 846.814 66.852C846.226 66.852 845.703 66.9827 845.246 67.244C844.798 67.5053 844.448 67.8833 844.196 68.378C843.944 68.8633 843.818 69.4327 843.818 70.086C843.818 70.7393 843.944 71.3133 844.196 71.808C844.448 72.3027 844.798 72.6853 845.246 72.956C845.703 73.2173 846.226 73.348 846.814 73.348ZM866.582 65.228L863.852 75H861.542L859.708 68.042L857.79 75L855.494 75.014L852.862 65.228H854.962L856.684 72.816L858.672 65.228H860.856L862.732 72.774L864.468 65.228H866.582Z" fill="#DB284E"/>
<g clip-path="url(#clip1_26518_402737)">
<rect width="62.2473" height="17.745" transform="matrix(0.99995 -0.0100448 -0.00471651 0.999989 108.084 90.6252)" fill="#F7CD97"/>
<path d="M114.911 95.8229L115.099 95.7817C114.81 97.6665 114.523 100.052 114.545 100.804C114.556 101.194 114.833 101.472 115.204 101.469C115.321 101.467 115.437 101.437 115.542 101.383C117.225 100.528 118.265 100.248 119.989 99.7836C120.394 99.6762 120.502 99.3253 120.47 99.0595C120.434 98.7499 120.2 98.4365 119.824 98.4403C119.764 98.4411 119.704 98.4495 119.645 98.4653C118.17 98.8625 117.181 99.1448 115.953 99.6909C115.981 99.3971 116.017 99.0578 116.062 98.6817C116.301 98.5795 116.522 98.4838 116.731 98.3928C117.88 97.8945 118.639 97.565 120.002 97.1715C120.407 97.0543 120.51 96.7014 120.477 96.4315C120.438 96.128 120.208 95.8224 119.842 95.8261C119.778 95.8269 119.714 95.8366 119.653 95.8548C118.273 96.2552 117.508 96.5874 116.349 97.0904L116.262 97.128C116.366 96.3916 116.471 95.6837 116.566 95.1299C117.54 94.6861 118.439 94.4517 119.859 94.1502C120.191 94.0797 120.384 93.8137 120.353 93.4735C120.324 93.1503 120.075 92.8092 119.673 92.8133C119.624 92.8139 119.576 92.8194 119.528 92.8297C118.408 93.0678 117.54 93.2811 116.684 93.609C116.662 93.572 116.636 93.5376 116.606 93.5065C116.54 93.4395 116.46 93.3868 116.373 93.3515C116.286 93.3162 116.193 93.299 116.099 93.3008C115.852 93.3032 115.556 93.4364 115.466 93.8021C115.457 93.8394 115.44 93.9006 115.42 93.9721L115.42 93.9793C115.385 94.1037 115.342 94.2571 115.317 94.3715C115.144 94.4249 114.514 94.5444 113.904 94.658L113.874 94.664C113.158 94.7967 112.348 94.9475 111.83 95.0731C111.847 94.6699 111.863 94.3147 111.879 93.9875C111.889 93.7916 111.895 93.589 111.9 93.392L111.901 93.2783C112.496 93.1825 113.089 93.083 113.801 92.9632L113.818 92.9599C114.595 92.8291 115.476 92.6808 116.332 92.5476C116.407 92.5346 116.478 92.5053 116.542 92.4618C116.605 92.4183 116.659 92.3616 116.699 92.2954C116.751 92.2139 116.787 92.1226 116.804 92.0271C116.82 91.9316 116.818 91.8339 116.796 91.74C116.719 91.4468 116.481 91.2745 116.159 91.2777C116.116 91.2782 116.073 91.2818 116.03 91.2883C115.221 91.4148 114.397 91.5533 113.603 91.6873L113.567 91.6939C113.041 91.7829 112.524 91.8697 111.999 91.9561C112.027 91.7681 112.067 91.5819 112.119 91.3989C112.149 91.307 112.157 91.2092 112.142 91.1141C112.127 91.019 112.089 90.9294 112.032 90.8531C111.968 90.7698 111.885 90.7028 111.791 90.6574C111.696 90.612 111.593 90.5892 111.488 90.5909C111.352 90.5881 111.218 90.6328 111.109 90.7177C111 90.8026 110.921 90.9225 110.887 91.0579C110.787 91.4178 110.721 91.7864 110.692 92.1584C109.96 92.2691 109.308 92.3578 108.699 92.43C108.328 92.4735 108.074 92.7381 108.072 93.0874C108.071 93.4057 108.359 93.7743 108.721 93.7319C109.302 93.6641 109.924 93.5798 110.624 93.4762C110.62 93.5795 110.616 93.6829 110.611 93.7863C110.586 94.2687 110.563 94.7799 110.537 95.4478C110.296 95.5282 110.076 95.6074 109.864 95.6891C109.585 95.7953 109.384 96.1455 109.416 96.4646C109.443 96.7304 109.616 96.9105 109.885 96.9471C110.04 96.9726 110.198 96.9677 110.352 96.9326C110.387 96.9245 110.43 96.9148 110.479 96.9019L110.459 97.4188C110.407 98.7545 110.354 100.136 110.272 101.494C110.265 101.576 110.274 101.658 110.299 101.735C110.324 101.813 110.365 101.884 110.419 101.944C110.479 102.005 110.551 102.053 110.63 102.085C110.708 102.116 110.793 102.132 110.878 102.129C111.193 102.126 111.523 101.908 111.547 101.496C111.63 100.126 111.683 98.7401 111.735 97.3998L111.768 96.5443C112.472 96.3522 114.038 96.013 114.793 95.8494L114.911 95.8229Z" fill="#D7244F"/>
<path d="M144.051 98.0245C144.014 97.7148 143.78 97.4009 143.404 97.4047C143.344 97.4057 143.284 97.4143 143.226 97.4303C141.676 97.8473 140.56 98.1644 139.258 98.7376C139.28 98.448 139.311 98.1088 139.354 97.7275C139.364 97.7238 139.374 97.7206 139.383 97.7164C139.782 97.5455 140.115 97.399 140.336 97.2986C141.168 96.9285 141.627 96.725 142.853 96.3691C143.258 96.2513 143.361 95.8989 143.327 95.6285C143.289 95.325 143.059 95.0194 142.693 95.0231C142.629 95.0242 142.565 95.0338 142.504 95.0518C141.259 95.4131 140.796 95.6193 139.956 95.9925C139.829 96.0491 139.696 96.1088 139.551 96.1723C139.656 95.4344 139.771 94.6794 139.882 94.0406C140.308 93.8534 140.771 93.7217 141.207 93.6046C141.801 93.4468 142.168 93.379 142.594 93.3003L142.598 93.3003C142.817 93.2598 143.09 93.2101 143.439 93.1368C143.77 93.0673 143.964 92.8029 143.934 92.4601C143.905 92.1359 143.655 91.7912 143.251 91.7952C143.203 91.7957 143.156 91.8009 143.109 91.8106C142.763 91.8828 142.425 91.9436 142.097 92.0027C141.44 92.1209 140.756 92.243 140.102 92.4557C140.074 92.3684 140.026 92.2892 139.962 92.2241C139.828 92.09 139.647 92.0164 139.458 92.0194C139.211 92.0218 138.915 92.1545 138.825 92.5197C138.791 92.6564 138.749 92.8563 138.7 93.1152C138.423 93.2943 138.163 93.4994 137.923 93.7275C137.72 93.9202 137.657 94.173 137.751 94.4217C137.803 94.5544 137.892 94.6685 138.006 94.7505C138.12 94.8326 138.256 94.8792 138.396 94.8849C138.1 96.7744 137.816 99.0595 137.903 99.8317C137.948 100.221 138.221 100.49 138.567 100.487C138.683 100.485 138.796 100.455 138.899 100.401C140.568 99.5538 141.829 99.2145 143.574 98.7449C143.975 98.6391 144.081 98.2903 144.051 98.0245Z" fill="#D7244F"/>
<path d="M125.901 101.511C125.98 100.577 126.097 99.4873 126.212 98.4346L126.212 98.4114C126.291 97.6727 126.374 96.9113 126.44 96.2213C126.512 95.4688 126.592 94.6557 126.692 93.814C126.702 93.7369 126.711 93.6588 126.719 93.5812C126.766 93.1762 126.813 92.7571 126.913 92.3588C126.935 92.2749 126.939 92.1871 126.922 92.1023C126.906 92.0175 126.87 91.9381 126.818 91.8704C126.755 91.7915 126.675 91.7282 126.585 91.6851C126.494 91.642 126.395 91.6203 126.295 91.6215C126.189 91.6206 126.084 91.6492 125.991 91.7041C125.899 91.7591 125.823 91.8384 125.77 91.9336C125.515 92.3837 125.289 92.8463 125.069 93.294C124.931 93.5749 124.774 93.8937 124.617 94.1945C124.328 94.7508 124.083 95.1945 123.84 95.5902C123.766 95.7118 123.694 95.8252 123.62 95.9355C123.5 95.5962 123.223 94.7686 123.052 94.1404C122.939 93.7251 122.809 93.3125 122.683 92.9128C122.624 92.7259 122.565 92.5384 122.509 92.3539C122.503 92.3023 122.496 92.2538 122.487 92.2054L122.484 92.1981C122.465 92.1368 122.441 92.0767 122.415 92.018C122.321 91.8324 122.118 91.7182 121.883 91.7205C121.775 91.7212 121.669 91.7483 121.572 91.7996C121.503 91.8372 121.443 91.8886 121.394 91.9507C121.375 91.9689 121.358 91.9882 121.343 92.0086C121.288 92.0837 121.253 92.1713 121.24 92.2633C121.198 92.4419 121.175 92.6241 121.169 92.8071C121.164 92.8904 121.159 92.9762 121.149 93.0455C121.05 93.7699 120.987 94.5399 120.943 95.5449C120.875 97.1345 120.81 99.2898 120.773 101.169C120.77 101.244 120.781 101.319 120.807 101.389C120.833 101.46 120.872 101.523 120.923 101.577C120.984 101.637 121.055 101.683 121.134 101.714C121.212 101.744 121.296 101.759 121.381 101.757C121.687 101.753 122.002 101.548 122.01 101.161C122.029 100.193 122.066 99.0767 122.101 97.9969C122.126 97.2547 122.146 96.6417 122.161 96.0721C122.166 95.9031 122.171 95.7294 122.179 95.5552C122.447 96.3188 122.768 96.8798 123.184 97.3159C123.301 97.4281 123.457 97.4878 123.618 97.482C123.735 97.4832 123.85 97.4474 123.947 97.3795C124.522 96.9542 124.913 96.2754 125.264 95.6059C125.246 95.7865 125.228 95.9674 125.211 96.1484C125.147 96.8136 125.066 97.5584 124.989 98.279L124.985 98.3126C124.867 99.4082 124.745 100.541 124.662 101.531C124.653 101.604 124.66 101.678 124.681 101.748C124.702 101.817 124.738 101.881 124.786 101.935C124.842 101.994 124.91 102.039 124.985 102.069C125.06 102.099 125.14 102.113 125.221 102.11C125.536 102.107 125.871 101.9 125.901 101.511Z" fill="#D7244F"/>
<path d="M127.876 100.808C128.145 99.9581 128.394 99.0979 128.581 98.4382C129.248 98.0843 129.857 97.7656 130.441 97.4636C130.8 98.6921 131.233 99.8957 131.738 101.068C131.83 101.279 132.057 101.413 132.318 101.41C132.437 101.41 132.555 101.378 132.659 101.317C132.969 101.129 133.07 100.757 132.91 100.391C132.46 99.3619 132.055 98.1997 131.664 96.8426C131.996 96.6765 132.295 96.5263 132.575 96.3901C132.847 96.2572 132.978 95.996 132.916 95.7088C132.854 95.4216 132.594 95.1261 132.226 95.1298C132.122 95.1314 132.02 95.1567 131.926 95.2036C131.72 95.3045 131.512 95.4074 131.3 95.5121C131.147 94.9158 130.994 94.2751 130.805 93.4435C130.743 93.1667 130.674 92.8853 130.594 92.5822C130.562 92.4637 130.535 92.342 130.509 92.2105L130.503 92.1786C130.543 92.0842 130.561 91.9818 130.555 91.8798C130.549 91.7778 130.519 91.6792 130.468 91.5919C130.404 91.4887 130.317 91.4037 130.213 91.3445C130.108 91.2853 129.991 91.2538 129.871 91.2528C129.753 91.2527 129.637 91.2917 129.541 91.3641C129.37 91.4904 129.248 91.6752 129.199 91.8842L129.176 91.8777L129.148 92.0051C128.536 93.687 128.045 95.4265 127.57 97.1127L127.458 97.5039L127.411 97.5297C127.371 97.544 127.333 97.5616 127.296 97.5825C127.253 97.6062 127.211 97.6309 127.172 97.6546C127.134 97.6782 127.097 97.6992 127.059 97.7203L126.942 97.7829L126.946 97.7943C126.853 97.867 126.782 97.9668 126.744 98.0804C126.706 98.1939 126.702 98.3161 126.733 98.4309C126.78 98.6234 126.898 98.7889 127.062 98.8927C126.888 99.4861 126.739 99.981 126.59 100.448C126.556 100.542 126.545 100.643 126.558 100.742C126.571 100.841 126.607 100.935 126.664 101.015C126.732 101.104 126.819 101.175 126.919 101.222C127.018 101.27 127.128 101.294 127.238 101.291C127.381 101.294 127.521 101.247 127.636 101.16C127.752 101.073 127.836 100.949 127.876 100.808ZM129.09 96.6411C129.252 96.0711 129.464 95.3353 129.698 94.5744L129.709 94.6259C129.782 94.9533 129.865 95.324 129.957 95.6894C129.994 95.8399 130.033 95.9878 130.071 96.1347C129.761 96.2923 129.44 96.4563 129.09 96.6411Z" fill="#D7244F"/>
<path d="M136.966 98.7761C136.852 98.778 136.74 98.8096 136.641 98.8678C136.088 99.1797 135.642 99.3795 135.195 99.5153C134.963 99.586 134.724 99.6247 134.483 99.6304L134.458 99.627C134.425 99.4383 134.474 99.1686 134.512 98.9491C134.579 98.5702 134.656 98.1405 134.72 97.7069C135.085 95.2147 135.283 93.2146 135.364 91.2214C135.37 91.1353 135.359 91.0492 135.331 90.9683C135.303 90.8875 135.259 90.8136 135.202 90.7512C135.138 90.6875 135.063 90.6375 134.98 90.6041C134.897 90.5708 134.808 90.5548 134.718 90.5571C134.387 90.5605 134.043 90.7908 134.026 91.2245C133.92 93.806 133.69 96.0178 133.3 98.1852C133.287 98.255 133.273 98.3275 133.258 98.4057L133.253 98.4331C133.097 99.2439 132.899 100.253 133.68 100.781C133.907 100.934 134.184 101.007 134.521 101.004C134.827 100.992 135.131 100.945 135.427 100.864C136.096 100.7 136.725 100.375 137.301 100.047C137.574 99.8934 137.692 99.6225 137.619 99.3204C137.555 99.0487 137.307 98.7727 136.966 98.7761Z" fill="#D7244F"/>
<path d="M159.969 98.976L159.918 98.9765C159.374 98.982 159.078 99.4309 159.066 99.8712C159.055 100.295 159.306 100.76 159.882 100.78L159.927 100.78C160.474 100.774 160.772 100.326 160.784 99.8855C160.795 99.4617 160.544 98.9961 159.969 98.976Z" fill="#D7244F"/>
<path d="M153.3 94.0211C153.122 92.6794 152.322 91.5372 151.212 91.0379C150.835 90.8665 150.425 90.7788 150.009 90.7807C149.23 90.7886 148.55 91.1261 148.093 91.7301C147.963 91.8991 147.85 92.0818 147.756 92.275C147.701 92.3853 147.674 92.5082 147.68 92.6314C147.685 92.7546 147.722 92.8737 147.786 92.9769C147.884 93.1373 148.035 93.2553 148.213 93.309C148.175 94.3252 148.163 95.3763 148.176 96.4303C148.186 97.1701 148.209 98.0452 148.307 98.9283L148.324 99.0801C148.213 99.0941 148.105 99.1029 148.003 99.1066C147.553 99.1219 147.321 99.4916 147.323 99.8487C147.325 100.182 147.534 100.538 147.986 100.534L148.003 100.534C148.219 100.526 148.434 100.504 148.648 100.467C148.68 100.532 148.718 100.595 148.761 100.654C148.916 100.867 149.135 100.987 149.362 100.985C149.482 100.983 149.6 100.948 149.703 100.883C149.79 100.828 149.865 100.754 149.924 100.668C149.982 100.582 150.023 100.485 150.043 100.382C150.069 100.264 150.062 100.142 150.022 100.029C150.765 99.6678 151.426 99.1475 151.958 98.5036C153.018 97.2229 153.507 95.5893 153.3 94.0211ZM149.657 92.2492C149.755 92.2098 149.86 92.1912 149.965 92.1944L150.044 92.1936C150.205 92.1979 150.363 92.2302 150.513 92.2891C151.203 92.5209 151.756 93.278 151.922 94.2163C152.108 95.2768 151.725 96.59 150.946 97.561C150.594 97.9992 150.163 98.3641 149.677 98.635C149.599 97.839 149.58 97.0208 149.572 96.2551C149.556 94.8942 149.584 93.5463 149.657 92.2487L149.657 92.2492Z" fill="#D7244F"/>
<path d="M158.185 96.7783C158.088 95.8238 157.983 94.8369 157.809 93.8771C157.687 93.2133 157.549 92.5099 157.307 91.8427C157.197 91.5415 157.081 91.2543 156.859 91.0483C156.698 90.8963 156.486 90.8123 156.265 90.813C156.151 90.8141 156.037 90.8401 155.933 90.889C155.828 90.938 155.734 91.0089 155.658 91.0971C155.57 91.1917 155.51 91.3092 155.484 91.4361C155.458 91.563 155.467 91.6944 155.51 91.8152C155.511 91.8194 155.513 91.8236 155.514 91.8276C155.504 91.8483 155.495 91.8697 155.487 91.8914C155.231 92.5786 155.004 93.2821 154.782 93.9623L154.782 93.9674C154.535 94.7238 154.311 95.405 154.06 96.0803C153.72 96.1953 153.629 96.5068 153.655 96.7406C153.664 96.8164 153.685 96.8902 153.717 96.959C153.6 97.2465 153.469 97.5816 153.366 97.9087C153.226 98.3544 153.065 99.0128 153.273 99.5765C153.389 99.8854 153.645 100.079 153.941 100.076C154.003 100.076 154.064 100.066 154.124 100.049C154.22 100.018 154.309 99.9679 154.387 99.9011C154.464 99.8344 154.527 99.7526 154.573 99.6606C154.614 99.5824 154.639 99.4965 154.645 99.4084C154.651 99.3204 154.64 99.2322 154.61 99.1497C154.504 98.8619 154.64 98.4648 154.761 98.1148L154.789 98.0323C154.884 97.7534 154.998 97.4774 155.107 97.2101L155.137 97.137C155.614 97.0289 156.114 96.9293 156.803 96.804L156.836 97.1225C156.96 98.3361 157.089 99.5904 157.369 100.8C157.398 100.949 157.477 101.083 157.593 101.176C157.709 101.27 157.854 101.319 158.003 101.313C158.116 101.311 158.227 101.284 158.329 101.234C158.431 101.183 158.522 101.11 158.594 101.021C158.658 100.937 158.703 100.838 158.724 100.734C158.746 100.63 158.743 100.522 158.716 100.42C158.439 99.228 158.31 97.983 158.185 96.7783ZM156.654 95.5308C156.271 95.6003 155.954 95.6598 155.66 95.718C155.811 95.2783 155.96 94.8231 156.1 94.3954L156.116 94.3483C156.183 94.144 156.261 93.905 156.342 93.6598C156.404 93.9522 156.464 94.2786 156.526 94.6511C156.542 94.7424 156.556 94.8342 156.569 94.9255C156.574 94.9627 156.58 94.9998 156.585 95.037L156.602 95.1593C156.606 95.1897 156.609 95.2109 156.61 95.2222C156.626 95.3244 156.64 95.4276 156.654 95.5308Z" fill="#D7244F"/>
<path d="M160.648 94.8448C160.656 94.7212 160.665 94.593 160.674 94.4549L160.674 94.4415C160.691 94.1612 160.704 93.9958 160.714 93.8727L160.714 93.8443C160.731 93.626 160.742 93.4942 160.76 92.9938C160.76 92.9458 160.764 92.8966 160.766 92.8475L160.769 92.771C160.791 92.2748 160.814 91.7614 160.689 91.2868C160.653 91.1336 160.567 90.9984 160.444 90.9037C160.321 90.809 160.17 90.7606 160.016 90.7665C159.904 90.7666 159.794 90.7923 159.693 90.8418C159.592 90.8914 159.503 90.9633 159.432 91.0524C159.371 91.1343 159.33 91.2298 159.311 91.3309C159.293 91.432 159.299 91.5357 159.329 91.6332C159.346 91.7046 159.359 91.7774 159.366 91.8509L159.366 91.8959C159.37 91.9707 159.372 92.0441 159.373 92.1061C159.381 92.4476 159.37 92.7861 159.355 93.1314C159.335 93.6282 159.321 93.7994 159.3 94.0398L159.3 94.0466C159.288 94.2017 159.272 94.392 159.251 94.7363L159.233 95.0114C159.195 95.6029 159.168 96.031 159.171 96.7001C159.171 96.7348 159.171 96.7725 159.171 96.8123L159.171 96.8293C159.168 97.3667 159.164 98.2659 159.833 98.3661C159.889 98.3744 159.945 98.3783 160.002 98.3778C160.233 98.3755 160.407 98.2906 160.527 98.1245C160.715 97.856 160.666 97.469 160.606 97.2825C160.593 97.2386 160.585 97.1936 160.581 97.1479C160.581 97.1428 160.581 97.1257 160.578 97.1009L160.578 97.0885C160.578 97.0658 160.574 97.0426 160.573 97.0323C160.57 96.9672 160.568 96.9016 160.567 96.8375L160.567 96.823C160.564 96.6712 160.569 96.513 160.569 96.3781C160.587 95.7677 160.613 95.3804 160.648 94.8448Z" fill="#D7244F"/>
<path d="M169.739 91.045C169.644 91.0444 169.549 91.0682 169.464 91.1142C169.38 91.1602 169.307 91.2269 169.253 91.3082L169.231 91.3018L169.18 91.4573C168.914 92.2361 168.598 93.0184 168.264 93.8444L168.261 93.8532C168.119 94.2029 168.002 94.4955 167.887 94.787C167.592 94.3539 167.285 93.8909 166.956 93.3744C166.841 93.1947 166.781 93.1121 166.732 93.0454C166.644 92.9259 166.564 92.8003 166.493 92.6696C166.393 92.4965 166.305 92.3341 166.223 92.1737C166.193 92.1141 166.162 92.0498 166.13 91.9783L166.117 91.9459C166.108 91.9232 166.101 91.8985 166.094 91.8748C166.061 91.7539 165.989 91.6482 165.89 91.5744C165.791 91.5005 165.671 91.4627 165.548 91.4669C165.453 91.4671 165.36 91.4897 165.274 91.5327C165.189 91.5758 165.114 91.6382 165.056 91.7152C165.004 91.7879 164.97 91.8724 164.957 91.9611C164.944 92.0498 164.953 92.1401 164.983 92.2239L164.983 92.2301C165.286 92.9458 165.437 93.1809 165.767 93.6948C165.813 93.7672 165.862 93.8442 165.917 93.9284L165.92 93.9325C166.432 94.7376 166.91 95.4521 167.383 96.1159C166.846 97.6265 166.561 98.8499 166.487 99.9657C166.48 100.04 166.488 100.116 166.511 100.187C166.534 100.258 166.571 100.323 166.621 100.378C166.674 100.434 166.739 100.477 166.81 100.507C166.882 100.536 166.958 100.549 167.036 100.547C167.318 100.544 167.617 100.348 167.642 99.9768C167.769 98.059 168.575 96.0921 169.354 94.1853L169.36 94.1698C169.62 93.5342 169.866 92.9334 170.089 92.3307C170.127 92.2771 170.156 92.2178 170.176 92.1552C170.196 92.0914 170.214 92.0266 170.233 91.9562C170.249 91.8987 170.266 91.8391 170.285 91.78C170.315 91.698 170.325 91.61 170.315 91.5237C170.304 91.4374 170.272 91.3554 170.223 91.2851C170.166 91.2092 170.093 91.148 170.009 91.1064C169.925 91.0647 169.833 91.0437 169.739 91.045Z" fill="#D7244F"/>
<path d="M165.243 98.3128C165.127 98.3149 165.014 98.3466 164.914 98.405C164.407 98.6922 163.997 98.8751 163.587 98.9996C163.387 99.0603 163.18 99.095 162.972 99.1029C162.958 98.9439 162.996 98.7281 163.025 98.5505L163.029 98.5324C163.092 98.1825 163.163 97.7865 163.221 97.3906C163.547 95.1582 163.746 93.138 163.823 91.2145C163.828 91.1268 163.817 91.0391 163.788 90.9568C163.759 90.8744 163.714 90.7992 163.656 90.7356C163.592 90.6709 163.515 90.6202 163.431 90.5865C163.347 90.5527 163.257 90.5366 163.166 90.539C162.832 90.5424 162.485 90.7753 162.467 91.2147C162.387 93.164 162.166 95.3251 161.79 97.8209C161.776 97.9146 161.758 98.0145 161.738 98.1346C161.606 98.8702 161.442 99.7864 162.169 100.277C162.389 100.426 162.654 100.497 162.979 100.494C163.267 100.483 163.552 100.439 163.831 100.362C164.456 100.209 165.041 99.9053 165.582 99.6012C165.858 99.4434 165.979 99.1688 165.905 98.8637C165.838 98.5874 165.588 98.3093 165.243 98.3128Z" fill="#D7244F"/>
<path d="M170.267 102.809L142.978 103.083L142.955 108.019L170.244 107.745L170.267 102.809Z" fill="#D8254F"/>
<path d="M147.321 105.939C147.256 105.871 147.176 105.818 147.088 105.787C146.984 105.747 146.878 105.713 146.77 105.686C146.651 105.657 146.535 105.621 146.42 105.578C146.309 105.538 146.203 105.486 146.102 105.423C146.003 105.358 145.923 105.268 145.87 105.161C145.806 105.034 145.776 104.892 145.78 104.749C145.779 104.632 145.803 104.516 145.851 104.41C145.899 104.303 145.97 104.209 146.058 104.133C146.242 103.967 146.49 103.883 146.802 103.88C146.914 103.878 147.025 103.891 147.133 103.919C147.225 103.942 147.313 103.976 147.396 104.02C147.46 104.054 147.521 104.093 147.58 104.135C147.621 104.165 147.66 104.199 147.694 104.237L147.728 104.281L147.418 104.601C147.413 104.596 147.405 104.586 147.394 104.572C147.371 104.548 147.347 104.526 147.321 104.507C147.282 104.477 147.241 104.449 147.198 104.426C147.143 104.398 147.085 104.377 147.026 104.363C146.952 104.344 146.876 104.335 146.8 104.336C146.661 104.331 146.525 104.375 146.414 104.462C146.369 104.495 146.333 104.538 146.307 104.588C146.282 104.637 146.268 104.692 146.267 104.748C146.264 104.839 146.296 104.926 146.356 104.992C146.421 105.061 146.501 105.113 146.59 105.145C146.694 105.184 146.8 105.218 146.908 105.245C147.026 105.274 147.142 105.31 147.257 105.352C147.368 105.392 147.475 105.443 147.575 105.506C147.674 105.571 147.754 105.662 147.808 105.769C147.871 105.895 147.901 106.036 147.897 106.179C147.9 106.308 147.875 106.437 147.824 106.556C147.772 106.675 147.696 106.781 147.6 106.866C147.403 107.045 147.132 107.136 146.787 107.14C146.65 107.142 146.514 107.126 146.382 107.092C146.273 107.066 146.168 107.025 146.069 106.972C145.994 106.93 145.923 106.882 145.856 106.829C145.809 106.793 145.765 106.753 145.725 106.709L145.682 106.654L145.992 106.335C145.998 106.344 146.007 106.357 146.021 106.374C146.05 106.405 146.08 106.434 146.113 106.461C146.161 106.503 146.214 106.539 146.269 106.57C146.34 106.607 146.415 106.635 146.493 106.654C146.589 106.679 146.688 106.691 146.787 106.69C146.979 106.688 147.13 106.638 147.243 106.541C147.295 106.499 147.338 106.444 147.367 106.382C147.396 106.32 147.411 106.253 147.411 106.184C147.412 106.139 147.405 106.094 147.39 106.052C147.375 106.01 147.351 105.972 147.321 105.939Z" fill="white"/>
<path d="M151.535 103.882L151.533 104.334L150.602 104.344L150.589 107.058L150.105 107.062L150.118 104.349L149.188 104.358L149.19 103.905L151.535 103.882Z" fill="white"/>
<path d="M154.949 106.353C155.028 106.274 155.09 106.179 155.133 106.074C155.175 105.97 155.196 105.858 155.195 105.746L155.204 103.845L155.692 103.84L155.683 105.741C155.685 105.914 155.652 106.086 155.585 106.246C155.519 106.406 155.421 106.551 155.298 106.671C155.049 106.92 154.717 107.061 154.372 107.064C154.026 107.068 153.695 106.934 153.449 106.69C153.327 106.572 153.231 106.429 153.166 106.271C153.101 106.112 153.069 105.941 153.072 105.768L153.081 103.866L153.569 103.861L153.56 105.762C153.558 105.875 153.578 105.987 153.62 106.09C153.661 106.194 153.722 106.288 153.8 106.367C153.874 106.446 153.963 106.509 154.061 106.551C154.16 106.594 154.266 106.615 154.374 106.614C154.481 106.613 154.588 106.59 154.687 106.545C154.786 106.5 154.875 106.436 154.949 106.355L154.949 106.353Z" fill="white"/>
<path d="M158.677 103.81C158.883 103.805 159.087 103.843 159.277 103.921C159.468 104 159.639 104.117 159.783 104.267C159.928 104.41 160.044 104.582 160.123 104.773C160.201 104.964 160.241 105.169 160.24 105.377C160.239 105.586 160.197 105.792 160.117 105.984C160.036 106.177 159.919 106.351 159.772 106.497C159.627 106.65 159.454 106.771 159.264 106.853C159.073 106.935 158.868 106.977 158.662 106.977L157.577 106.987L157.592 103.821L158.677 103.81ZM158.076 104.269L158.066 106.53L158.664 106.524C158.807 106.525 158.949 106.496 159.081 106.438C159.213 106.38 159.333 106.295 159.432 106.188C159.636 105.97 159.75 105.682 159.751 105.382C159.753 105.083 159.641 104.797 159.439 104.583C159.341 104.478 159.223 104.395 159.091 104.34C158.96 104.285 158.818 104.259 158.675 104.263L158.076 104.269Z" fill="white"/>
<path d="M162.015 103.776L162.502 103.772L162.487 106.938L162.001 106.943L162.015 103.776Z" fill="white"/>
<path d="M164.738 104.177C165.054 103.859 165.442 103.698 165.903 103.693C166.364 103.689 166.752 103.842 167.066 104.154C167.215 104.304 167.332 104.482 167.412 104.68C167.492 104.877 167.532 105.089 167.531 105.304C167.53 105.519 167.488 105.732 167.406 105.931C167.324 106.13 167.205 106.311 167.055 106.464C166.74 106.782 166.351 106.944 165.888 106.948C165.425 106.953 165.038 106.799 164.727 106.487C164.579 106.338 164.461 106.159 164.381 105.961C164.301 105.764 164.261 105.552 164.262 105.337C164.263 105.122 164.305 104.909 164.387 104.71C164.469 104.511 164.588 104.33 164.738 104.177ZM165.078 106.164C165.266 106.358 165.515 106.479 165.782 106.505C166.05 106.532 166.319 106.462 166.545 106.308C166.771 106.155 166.938 105.927 167.019 105.663C167.1 105.399 167.089 105.116 166.989 104.862C166.888 104.608 166.704 104.399 166.468 104.271C166.231 104.142 165.957 104.103 165.693 104.158C165.428 104.214 165.19 104.361 165.017 104.575C164.845 104.789 164.75 105.057 164.748 105.332C164.744 105.487 164.772 105.641 164.828 105.784C164.885 105.927 164.97 106.056 165.078 106.164Z" fill="white"/>
</g>
<path d="M255.56 44.272L250.112 54.688V61H247.928V54.688L242.456 44.272H244.88L249.008 52.744L253.136 44.272H255.56ZM263.85 61.216C262.618 61.216 261.498 60.936 260.49 60.376C259.498 59.816 258.714 59.024 258.138 58C257.578 56.96 257.298 55.76 257.298 54.4C257.298 53.056 257.586 51.872 258.162 50.848C258.754 49.808 259.554 49.016 260.562 48.472C261.57 47.912 262.698 47.632 263.946 47.632C265.194 47.632 266.322 47.912 267.33 48.472C268.338 49.016 269.13 49.8 269.706 50.824C270.298 51.848 270.594 53.04 270.594 54.4C270.594 55.76 270.29 56.96 269.682 58C269.09 59.024 268.282 59.816 267.258 60.376C266.234 60.936 265.098 61.216 263.85 61.216ZM263.85 59.296C264.634 59.296 265.37 59.112 266.058 58.744C266.746 58.376 267.298 57.824 267.714 57.088C268.146 56.352 268.362 55.456 268.362 54.4C268.362 53.344 268.154 52.448 267.738 51.712C267.322 50.976 266.778 50.432 266.106 50.08C265.434 49.712 264.706 49.528 263.922 49.528C263.122 49.528 262.386 49.712 261.714 50.08C261.058 50.432 260.53 50.976 260.13 51.712C259.73 52.448 259.53 53.344 259.53 54.4C259.53 55.472 259.722 56.376 260.106 57.112C260.506 57.848 261.034 58.4 261.69 58.768C262.346 59.12 263.066 59.296 263.85 59.296ZM285.379 47.848V61H283.195V59.056C282.779 59.728 282.195 60.256 281.443 60.64C280.707 61.008 279.891 61.192 278.995 61.192C277.971 61.192 277.051 60.984 276.235 60.568C275.419 60.136 274.771 59.496 274.291 58.648C273.827 57.8 273.595 56.768 273.595 55.552V47.848H275.755V55.264C275.755 56.56 276.083 57.56 276.739 58.264C277.395 58.952 278.291 59.296 279.427 59.296C280.595 59.296 281.515 58.936 282.187 58.216C282.859 57.496 283.195 56.448 283.195 55.072V47.848H285.379ZM291.501 49.984C291.885 49.232 292.429 48.648 293.133 48.232C293.853 47.816 294.725 47.608 295.749 47.608V49.864H295.173C292.725 49.864 291.501 51.192 291.501 53.848V61H289.317V47.848H291.501V49.984ZM307.352 50.296C307.8 49.512 308.456 48.872 309.32 48.376C310.184 47.88 311.168 47.632 312.272 47.632C313.456 47.632 314.52 47.912 315.464 48.472C316.408 49.032 317.152 49.824 317.696 50.848C318.24 51.856 318.512 53.032 318.512 54.376C318.512 55.704 318.24 56.888 317.696 57.928C317.152 58.968 316.4 59.776 315.44 60.352C314.496 60.928 313.44 61.216 312.272 61.216C311.136 61.216 310.136 60.968 309.272 60.472C308.424 59.976 307.784 59.344 307.352 58.576V61H305.168V43.24H307.352V50.296ZM316.28 54.376C316.28 53.384 316.08 52.52 315.68 51.784C315.28 51.048 314.736 50.488 314.048 50.104C313.376 49.72 312.632 49.528 311.816 49.528C311.016 49.528 310.272 49.728 309.584 50.128C308.912 50.512 308.368 51.08 307.952 51.832C307.552 52.568 307.352 53.424 307.352 54.4C307.352 55.392 307.552 56.264 307.952 57.016C308.368 57.752 308.912 58.32 309.584 58.72C310.272 59.104 311.016 59.296 311.816 59.296C312.632 59.296 313.376 59.104 314.048 58.72C314.736 58.32 315.28 57.752 315.68 57.016C316.08 56.264 316.28 55.384 316.28 54.376ZM333.637 53.92C333.637 54.336 333.613 54.776 333.565 55.24H323.053C323.133 56.536 323.573 57.552 324.373 58.288C325.189 59.008 326.173 59.368 327.325 59.368C328.269 59.368 329.053 59.152 329.677 58.72C330.317 58.272 330.765 57.68 331.021 56.944H333.373C333.021 58.208 332.317 59.24 331.261 60.04C330.205 60.824 328.893 61.216 327.325 61.216C326.077 61.216 324.957 60.936 323.965 60.376C322.989 59.816 322.221 59.024 321.661 58C321.101 56.96 320.821 55.76 320.821 54.4C320.821 53.04 321.093 51.848 321.637 50.824C322.181 49.8 322.941 49.016 323.917 48.472C324.909 47.912 326.045 47.632 327.325 47.632C328.573 47.632 329.677 47.904 330.637 48.448C331.597 48.992 332.333 49.744 332.845 50.704C333.373 51.648 333.637 52.72 333.637 53.92ZM331.381 53.464C331.381 52.632 331.197 51.92 330.829 51.328C330.461 50.72 329.957 50.264 329.317 49.96C328.693 49.64 327.997 49.48 327.229 49.48C326.125 49.48 325.181 49.832 324.397 50.536C323.629 51.24 323.189 52.216 323.077 53.464H331.381ZM335.954 54.376C335.954 53.032 336.226 51.856 336.77 50.848C337.314 49.824 338.058 49.032 339.002 48.472C339.962 47.912 341.026 47.632 342.194 47.632C343.346 47.632 344.346 47.88 345.194 48.376C346.042 48.872 346.674 49.496 347.09 50.248V47.848H349.298V61H347.09V58.552C346.658 59.32 346.01 59.96 345.146 60.472C344.298 60.968 343.306 61.216 342.17 61.216C341.002 61.216 339.946 60.928 339.002 60.352C338.058 59.776 337.314 58.968 336.77 57.928C336.226 56.888 335.954 55.704 335.954 54.376ZM347.09 54.4C347.09 53.408 346.89 52.544 346.49 51.808C346.09 51.072 345.546 50.512 344.858 50.128C344.186 49.728 343.442 49.528 342.626 49.528C341.81 49.528 341.066 49.72 340.394 50.104C339.722 50.488 339.186 51.048 338.786 51.784C338.386 52.52 338.186 53.384 338.186 54.376C338.186 55.384 338.386 56.264 338.786 57.016C339.186 57.752 339.722 58.32 340.394 58.72C341.066 59.104 341.81 59.296 342.626 59.296C343.442 59.296 344.186 59.104 344.858 58.72C345.546 58.32 346.09 57.752 346.49 57.016C346.89 56.264 347.09 55.392 347.09 54.4ZM364.903 47.848V61H362.719V59.056C362.303 59.728 361.719 60.256 360.967 60.64C360.231 61.008 359.415 61.192 358.519 61.192C357.495 61.192 356.575 60.984 355.759 60.568C354.943 60.136 354.295 59.496 353.815 58.648C353.351 57.8 353.119 56.768 353.119 55.552V47.848H355.279V55.264C355.279 56.56 355.607 57.56 356.263 58.264C356.919 58.952 357.815 59.296 358.951 59.296C360.119 59.296 361.039 58.936 361.711 58.216C362.383 57.496 362.719 56.448 362.719 55.072V47.848H364.903ZM371.504 49.648V57.4C371.504 58.04 371.64 58.496 371.912 58.768C372.184 59.024 372.656 59.152 373.328 59.152H374.936V61H372.968C371.752 61 370.84 60.72 370.232 60.16C369.624 59.6 369.32 58.68 369.32 57.4V49.648H367.616V47.848H369.32V44.536H371.504V47.848H374.936V49.648H371.504ZM389.16 47.848L381.24 67.192H378.984L381.576 60.856L376.272 47.848H378.696L382.824 58.504L386.904 47.848H389.16ZM397.438 54.376C397.438 53.032 397.71 51.856 398.254 50.848C398.798 49.824 399.542 49.032 400.486 48.472C401.446 47.912 402.518 47.632 403.702 47.632C404.726 47.632 405.678 47.872 406.558 48.352C407.438 48.816 408.11 49.432 408.574 50.2V43.24H410.782V61H408.574V58.528C408.142 59.312 407.502 59.96 406.654 60.472C405.806 60.968 404.814 61.216 403.678 61.216C402.51 61.216 401.446 60.928 400.486 60.352C399.542 59.776 398.798 58.968 398.254 57.928C397.71 56.888 397.438 55.704 397.438 54.376ZM408.574 54.4C408.574 53.408 408.374 52.544 407.974 51.808C407.574 51.072 407.03 50.512 406.342 50.128C405.67 49.728 404.926 49.528 404.11 49.528C403.294 49.528 402.55 49.72 401.878 50.104C401.206 50.488 400.67 51.048 400.27 51.784C399.87 52.52 399.67 53.384 399.67 54.376C399.67 55.384 399.87 56.264 400.27 57.016C400.67 57.752 401.206 58.32 401.878 58.72C402.55 59.104 403.294 59.296 404.11 59.296C404.926 59.296 405.67 59.104 406.342 58.72C407.03 58.32 407.574 57.752 407.974 57.016C408.374 56.264 408.574 55.392 408.574 54.4ZM416.907 49.984C417.291 49.232 417.835 48.648 418.539 48.232C419.259 47.816 420.131 47.608 421.155 47.608V49.864H420.579C418.131 49.864 416.907 51.192 416.907 53.848V61H414.723V47.848H416.907V49.984ZM435.926 53.92C435.926 54.336 435.902 54.776 435.854 55.24H425.342C425.422 56.536 425.862 57.552 426.662 58.288C427.478 59.008 428.462 59.368 429.614 59.368C430.558 59.368 431.342 59.152 431.966 58.72C432.606 58.272 433.054 57.68 433.31 56.944H435.662C435.31 58.208 434.606 59.24 433.55 60.04C432.494 60.824 431.182 61.216 429.614 61.216C428.366 61.216 427.246 60.936 426.254 60.376C425.278 59.816 424.51 59.024 423.95 58C423.39 56.96 423.11 55.76 423.11 54.4C423.11 53.04 423.382 51.848 423.926 50.824C424.47 49.8 425.23 49.016 426.206 48.472C427.198 47.912 428.334 47.632 429.614 47.632C430.862 47.632 431.966 47.904 432.926 48.448C433.886 48.992 434.622 49.744 435.134 50.704C435.662 51.648 435.926 52.72 435.926 53.92ZM433.67 53.464C433.67 52.632 433.486 51.92 433.118 51.328C432.75 50.72 432.246 50.264 431.606 49.96C430.982 49.64 430.286 49.48 429.518 49.48C428.414 49.48 427.47 49.832 426.686 50.536C425.918 51.24 425.478 52.216 425.366 53.464H433.67ZM438.243 54.376C438.243 53.032 438.515 51.856 439.059 50.848C439.603 49.824 440.347 49.032 441.291 48.472C442.251 47.912 443.315 47.632 444.483 47.632C445.635 47.632 446.635 47.88 447.483 48.376C448.331 48.872 448.963 49.496 449.379 50.248V47.848H451.587V61H449.379V58.552C448.947 59.32 448.299 59.96 447.435 60.472C446.587 60.968 445.595 61.216 444.459 61.216C443.291 61.216 442.235 60.928 441.291 60.352C440.347 59.776 439.603 58.968 439.059 57.928C438.515 56.888 438.243 55.704 438.243 54.376ZM449.379 54.4C449.379 53.408 449.179 52.544 448.779 51.808C448.379 51.072 447.835 50.512 447.147 50.128C446.475 49.728 445.731 49.528 444.915 49.528C444.099 49.528 443.355 49.72 442.683 50.104C442.011 50.488 441.475 51.048 441.075 51.784C440.675 52.52 440.475 53.384 440.475 54.376C440.475 55.384 440.675 56.264 441.075 57.016C441.475 57.752 442.011 58.32 442.683 58.72C443.355 59.104 444.099 59.296 444.915 59.296C445.731 59.296 446.475 59.104 447.147 58.72C447.835 58.32 448.379 57.752 448.779 57.016C449.179 56.264 449.379 55.392 449.379 54.4ZM471.344 47.608C472.368 47.608 473.28 47.824 474.08 48.256C474.88 48.672 475.512 49.304 475.976 50.152C476.44 51 476.672 52.032 476.672 53.248V61H474.512V53.56C474.512 52.248 474.184 51.248 473.528 50.56C472.888 49.856 472.016 49.504 470.912 49.504C469.776 49.504 468.872 49.872 468.2 50.608C467.528 51.328 467.192 52.376 467.192 53.752V61H465.032V53.56C465.032 52.248 464.704 51.248 464.048 50.56C463.408 49.856 462.536 49.504 461.432 49.504C460.296 49.504 459.392 49.872 458.72 50.608C458.048 51.328 457.712 52.376 457.712 53.752V61H455.528V47.848H457.712V49.744C458.144 49.056 458.72 48.528 459.44 48.16C460.176 47.792 460.984 47.608 461.864 47.608C462.968 47.608 463.944 47.856 464.792 48.352C465.64 48.848 466.272 49.576 466.688 50.536C467.056 49.608 467.664 48.888 468.512 48.376C469.36 47.864 470.304 47.608 471.344 47.608ZM485.16 61.216C484.152 61.216 483.248 61.048 482.448 60.712C481.648 60.36 481.016 59.88 480.552 59.272C480.088 58.648 479.832 57.936 479.784 57.136H482.04C482.104 57.792 482.408 58.328 482.952 58.744C483.512 59.16 484.24 59.368 485.136 59.368C485.968 59.368 486.624 59.184 487.104 58.816C487.584 58.448 487.824 57.984 487.824 57.424C487.824 56.848 487.568 56.424 487.056 56.152C486.544 55.864 485.752 55.584 484.68 55.312C483.704 55.056 482.904 54.8 482.28 54.544C481.672 54.272 481.144 53.88 480.696 53.368C480.264 52.84 480.048 52.152 480.048 51.304C480.048 50.632 480.248 50.016 480.648 49.456C481.048 48.896 481.616 48.456 482.352 48.136C483.088 47.8 483.928 47.632 484.872 47.632C486.328 47.632 487.504 48 488.4 48.736C489.296 49.472 489.776 50.48 489.84 51.76H487.656C487.608 51.072 487.328 50.52 486.816 50.104C486.32 49.688 485.648 49.48 484.8 49.48C484.016 49.48 483.392 49.648 482.928 49.984C482.464 50.32 482.232 50.76 482.232 51.304C482.232 51.736 482.368 52.096 482.64 52.384C482.928 52.656 483.28 52.88 483.696 53.056C484.128 53.216 484.72 53.4 485.472 53.608C486.416 53.864 487.184 54.12 487.776 54.376C488.368 54.616 488.872 54.984 489.288 55.48C489.72 55.976 489.944 56.624 489.96 57.424C489.96 58.144 489.76 58.792 489.36 59.368C488.96 59.944 488.392 60.4 487.656 60.736C486.936 61.056 486.104 61.216 485.16 61.216ZM517.462 47.848L513.358 61H511.102L507.934 50.56L504.766 61H502.51L498.382 47.848H500.614L503.638 58.888L506.902 47.848H509.134L512.326 58.912L515.302 47.848H517.462ZM521.007 45.712C520.591 45.712 520.239 45.568 519.951 45.28C519.663 44.992 519.519 44.64 519.519 44.224C519.519 43.808 519.663 43.456 519.951 43.168C520.239 42.88 520.591 42.736 521.007 42.736C521.407 42.736 521.743 42.88 522.015 43.168C522.303 43.456 522.447 43.808 522.447 44.224C522.447 44.64 522.303 44.992 522.015 45.28C521.743 45.568 521.407 45.712 521.007 45.712ZM522.063 47.848V61H519.879V47.848H522.063ZM528.22 43.24V61H526.036V43.24H528.22ZM534.376 43.24V61H532.192V43.24H534.376ZM544.18 54.4C544.18 53.04 544.452 51.856 544.996 50.848C545.54 49.824 546.292 49.032 547.252 48.472C548.228 47.912 549.34 47.632 550.588 47.632C552.204 47.632 553.532 48.024 554.572 48.808C555.628 49.592 556.324 50.68 556.66 52.072H554.308C554.084 51.272 553.644 50.64 552.988 50.176C552.348 49.712 551.548 49.48 550.588 49.48C549.34 49.48 548.332 49.912 547.564 50.776C546.796 51.624 546.412 52.832 546.412 54.4C546.412 55.984 546.796 57.208 547.564 58.072C548.332 58.936 549.34 59.368 550.588 59.368C551.548 59.368 552.348 59.144 552.988 58.696C553.628 58.248 554.068 57.608 554.308 56.776H556.66C556.308 58.12 555.604 59.2 554.548 60.016C553.492 60.816 552.172 61.216 550.588 61.216C549.34 61.216 548.228 60.936 547.252 60.376C546.292 59.816 545.54 59.024 544.996 58C544.452 56.976 544.18 55.776 544.18 54.4ZM565.561 61.216C564.329 61.216 563.209 60.936 562.201 60.376C561.209 59.816 560.425 59.024 559.849 58C559.289 56.96 559.009 55.76 559.009 54.4C559.009 53.056 559.297 51.872 559.873 50.848C560.465 49.808 561.265 49.016 562.273 48.472C563.281 47.912 564.409 47.632 565.657 47.632C566.905 47.632 568.033 47.912 569.041 48.472C570.049 49.016 570.841 49.8 571.417 50.824C572.009 51.848 572.305 53.04 572.305 54.4C572.305 55.76 572.001 56.96 571.393 58C570.801 59.024 569.993 59.816 568.969 60.376C567.945 60.936 566.809 61.216 565.561 61.216ZM565.561 59.296C566.345 59.296 567.081 59.112 567.769 58.744C568.457 58.376 569.009 57.824 569.425 57.088C569.857 56.352 570.073 55.456 570.073 54.4C570.073 53.344 569.865 52.448 569.449 51.712C569.033 50.976 568.489 50.432 567.817 50.08C567.145 49.712 566.417 49.528 565.633 49.528C564.833 49.528 564.097 49.712 563.425 50.08C562.769 50.432 562.241 50.976 561.841 51.712C561.441 52.448 561.241 53.344 561.241 54.4C561.241 55.472 561.433 56.376 561.817 57.112C562.217 57.848 562.745 58.4 563.401 58.768C564.057 59.12 564.777 59.296 565.561 59.296ZM591.242 47.608C592.266 47.608 593.178 47.824 593.978 48.256C594.778 48.672 595.41 49.304 595.874 50.152C596.338 51 596.57 52.032 596.57 53.248V61H594.41V53.56C594.41 52.248 594.082 51.248 593.426 50.56C592.786 49.856 591.914 49.504 590.81 49.504C589.674 49.504 588.77 49.872 588.098 50.608C587.426 51.328 587.09 52.376 587.09 53.752V61H584.93V53.56C584.93 52.248 584.602 51.248 583.946 50.56C583.306 49.856 582.434 49.504 581.33 49.504C580.194 49.504 579.29 49.872 578.618 50.608C577.946 51.328 577.61 52.376 577.61 53.752V61H575.426V47.848H577.61V49.744C578.042 49.056 578.618 48.528 579.338 48.16C580.074 47.792 580.882 47.608 581.762 47.608C582.866 47.608 583.842 47.856 584.69 48.352C585.538 48.848 586.17 49.576 586.586 50.536C586.954 49.608 587.562 48.888 588.41 48.376C589.258 47.864 590.202 47.608 591.242 47.608ZM612.403 53.92C612.403 54.336 612.379 54.776 612.331 55.24H601.819C601.899 56.536 602.339 57.552 603.139 58.288C603.955 59.008 604.939 59.368 606.091 59.368C607.035 59.368 607.819 59.152 608.443 58.72C609.083 58.272 609.531 57.68 609.787 56.944H612.139C611.787 58.208 611.083 59.24 610.027 60.04C608.971 60.824 607.659 61.216 606.091 61.216C604.843 61.216 603.723 60.936 602.731 60.376C601.755 59.816 600.987 59.024 600.427 58C599.867 56.96 599.587 55.76 599.587 54.4C599.587 53.04 599.859 51.848 600.403 50.824C600.947 49.8 601.707 49.016 602.683 48.472C603.675 47.912 604.811 47.632 606.091 47.632C607.339 47.632 608.443 47.904 609.403 48.448C610.363 48.992 611.099 49.744 611.611 50.704C612.139 51.648 612.403 52.72 612.403 53.92ZM610.147 53.464C610.147 52.632 609.963 51.92 609.595 51.328C609.227 50.72 608.723 50.264 608.083 49.96C607.459 49.64 606.763 49.48 605.995 49.48C604.891 49.48 603.947 49.832 603.163 50.536C602.395 51.24 601.955 52.216 601.843 53.464H610.147ZM624.848 49.648V57.4C624.848 58.04 624.984 58.496 625.256 58.768C625.528 59.024 626 59.152 626.672 59.152H628.28V61H626.312C625.096 61 624.184 60.72 623.576 60.16C622.968 59.6 622.664 58.68 622.664 57.4V49.648H620.96V47.848H622.664V44.536H624.848V47.848H628.28V49.648H624.848ZM633.36 49.984C633.744 49.232 634.288 48.648 634.992 48.232C635.712 47.816 636.584 47.608 637.608 47.608V49.864H637.032C634.584 49.864 633.36 51.192 633.36 53.848V61H631.176V47.848H633.36V49.984ZM652.043 47.848V61H649.859V59.056C649.443 59.728 648.859 60.256 648.107 60.64C647.371 61.008 646.555 61.192 645.659 61.192C644.635 61.192 643.715 60.984 642.899 60.568C642.083 60.136 641.435 59.496 640.955 58.648C640.491 57.8 640.259 56.768 640.259 55.552V47.848H642.419V55.264C642.419 56.56 642.747 57.56 643.403 58.264C644.059 58.952 644.955 59.296 646.091 59.296C647.259 59.296 648.179 58.936 648.851 58.216C649.523 57.496 649.859 56.448 649.859 55.072V47.848H652.043ZM667.981 53.92C667.981 54.336 667.957 54.776 667.909 55.24H657.397C657.477 56.536 657.917 57.552 658.717 58.288C659.533 59.008 660.517 59.368 661.669 59.368C662.613 59.368 663.397 59.152 664.021 58.72C664.661 58.272 665.109 57.68 665.365 56.944H667.717C667.365 58.208 666.661 59.24 665.605 60.04C664.549 60.824 663.237 61.216 661.669 61.216C660.421 61.216 659.301 60.936 658.309 60.376C657.333 59.816 656.565 59.024 656.005 58C655.445 56.96 655.165 55.76 655.165 54.4C655.165 53.04 655.437 51.848 655.981 50.824C656.525 49.8 657.285 49.016 658.261 48.472C659.253 47.912 660.389 47.632 661.669 47.632C662.917 47.632 664.021 47.904 664.981 48.448C665.941 48.992 666.677 49.744 667.189 50.704C667.717 51.648 667.981 52.72 667.981 53.92ZM665.725 53.464C665.725 52.632 665.541 51.92 665.173 51.328C664.805 50.72 664.301 50.264 663.661 49.96C663.037 49.64 662.341 49.48 661.573 49.48C660.469 49.48 659.525 49.832 658.741 50.536C657.973 51.24 657.533 52.216 657.421 53.464H665.725ZM673.946 44.272L673.682 56.272H671.858L671.594 44.272H673.946ZM672.866 61.144C672.45 61.144 672.098 61 671.81 60.712C671.522 60.424 671.378 60.072 671.378 59.656C671.378 59.24 671.522 58.888 671.81 58.6C672.098 58.312 672.45 58.168 672.866 58.168C673.266 58.168 673.602 58.312 673.874 58.6C674.162 58.888 674.306 59.24 674.306 59.656C674.306 60.072 674.162 60.424 673.874 60.712C673.602 61 673.266 61.144 672.866 61.144ZM246.032 78.272V95H243.848V78.272H246.032ZM256.412 81.608C258.012 81.608 259.308 82.096 260.3 83.072C261.292 84.032 261.788 85.424 261.788 87.248V95H259.628V87.56C259.628 86.248 259.3 85.248 258.644 84.56C257.988 83.856 257.092 83.504 255.956 83.504C254.804 83.504 253.884 83.864 253.196 84.584C252.524 85.304 252.188 86.352 252.188 87.728V95H250.004V81.848H252.188V83.72C252.62 83.048 253.204 82.528 253.94 82.16C254.692 81.792 255.516 81.608 256.412 81.608ZM281.71 78.272V80.048H274.438V85.688H280.342V87.464H274.438V95H272.254V78.272H281.71ZM296.598 87.92C296.598 88.336 296.574 88.776 296.526 89.24H286.014C286.094 90.536 286.534 91.552 287.334 92.288C288.15 93.008 289.134 93.368 290.286 93.368C291.23 93.368 292.014 93.152 292.638 92.72C293.278 92.272 293.726 91.68 293.982 90.944H296.334C295.982 92.208 295.278 93.24 294.222 94.04C293.166 94.824 291.854 95.216 290.286 95.216C289.038 95.216 287.918 94.936 286.926 94.376C285.95 93.816 285.182 93.024 284.622 92C284.062 90.96 283.782 89.76 283.782 88.4C283.782 87.04 284.054 85.848 284.598 84.824C285.142 83.8 285.902 83.016 286.878 82.472C287.87 81.912 289.006 81.632 290.286 81.632C291.534 81.632 292.638 81.904 293.598 82.448C294.558 82.992 295.294 83.744 295.806 84.704C296.334 85.648 296.598 86.72 296.598 87.92ZM294.342 87.464C294.342 86.632 294.158 85.92 293.79 85.328C293.422 84.72 292.918 84.264 292.278 83.96C291.654 83.64 290.958 83.48 290.19 83.48C289.086 83.48 288.142 83.832 287.358 84.536C286.59 85.24 286.15 86.216 286.038 87.464H294.342ZM315.547 81.608C316.571 81.608 317.483 81.824 318.283 82.256C319.083 82.672 319.715 83.304 320.179 84.152C320.643 85 320.875 86.032 320.875 87.248V95H318.715V87.56C318.715 86.248 318.387 85.248 317.731 84.56C317.091 83.856 316.219 83.504 315.115 83.504C313.979 83.504 313.075 83.872 312.403 84.608C311.731 85.328 311.395 86.376 311.395 87.752V95H309.235V87.56C309.235 86.248 308.907 85.248 308.251 84.56C307.611 83.856 306.739 83.504 305.635 83.504C304.499 83.504 303.595 83.872 302.923 84.608C302.251 85.328 301.915 86.376 301.915 87.752V95H299.731V81.848H301.915V83.744C302.347 83.056 302.923 82.528 303.643 82.16C304.379 81.792 305.187 81.608 306.067 81.608C307.171 81.608 308.147 81.856 308.995 82.352C309.843 82.848 310.475 83.576 310.891 84.536C311.259 83.608 311.867 82.888 312.715 82.376C313.563 81.864 314.507 81.608 315.547 81.608ZM323.891 88.376C323.891 87.032 324.163 85.856 324.707 84.848C325.251 83.824 325.995 83.032 326.939 82.472C327.899 81.912 328.963 81.632 330.131 81.632C331.283 81.632 332.283 81.88 333.131 82.376C333.979 82.872 334.611 83.496 335.027 84.248V81.848H337.235V95H335.027V92.552C334.595 93.32 333.947 93.96 333.083 94.472C332.235 94.968 331.243 95.216 330.107 95.216C328.939 95.216 327.883 94.928 326.939 94.352C325.995 93.776 325.251 92.968 324.707 91.928C324.163 90.888 323.891 89.704 323.891 88.376ZM335.027 88.4C335.027 87.408 334.827 86.544 334.427 85.808C334.027 85.072 333.483 84.512 332.795 84.128C332.123 83.728 331.379 83.528 330.563 83.528C329.747 83.528 329.003 83.72 328.331 84.104C327.659 84.488 327.123 85.048 326.723 85.784C326.323 86.52 326.123 87.384 326.123 88.376C326.123 89.384 326.323 90.264 326.723 91.016C327.123 91.752 327.659 92.32 328.331 92.72C329.003 93.104 329.747 93.296 330.563 93.296C331.379 93.296 332.123 93.104 332.795 92.72C333.483 92.32 334.027 91.752 334.427 91.016C334.827 90.264 335.027 89.392 335.027 88.4ZM343.36 77.24V95H341.176V77.24H343.36ZM359.332 87.92C359.332 88.336 359.308 88.776 359.26 89.24H348.748C348.828 90.536 349.268 91.552 350.068 92.288C350.884 93.008 351.868 93.368 353.02 93.368C353.964 93.368 354.748 93.152 355.372 92.72C356.012 92.272 356.46 91.68 356.716 90.944H359.068C358.716 92.208 358.012 93.24 356.956 94.04C355.9 94.824 354.588 95.216 353.02 95.216C351.772 95.216 350.652 94.936 349.66 94.376C348.684 93.816 347.916 93.024 347.356 92C346.796 90.96 346.516 89.76 346.516 88.4C346.516 87.04 346.788 85.848 347.332 84.824C347.876 83.8 348.636 83.016 349.612 82.472C350.604 81.912 351.74 81.632 353.02 81.632C354.268 81.632 355.372 81.904 356.332 82.448C357.292 82.992 358.028 83.744 358.54 84.704C359.068 85.648 359.332 86.72 359.332 87.92ZM357.076 87.464C357.076 86.632 356.892 85.92 356.524 85.328C356.156 84.72 355.652 84.264 355.012 83.96C354.388 83.64 353.692 83.48 352.924 83.48C351.82 83.48 350.876 83.832 350.092 84.536C349.324 85.24 348.884 86.216 348.772 87.464H357.076ZM374.322 78.272C376.146 78.272 377.722 78.616 379.05 79.304C380.394 79.976 381.418 80.944 382.122 82.208C382.842 83.472 383.202 84.96 383.202 86.672C383.202 88.384 382.842 89.872 382.122 91.136C381.418 92.384 380.394 93.344 379.05 94.016C377.722 94.672 376.146 95 374.322 95H369.114V78.272H374.322ZM374.322 93.2C376.482 93.2 378.13 92.632 379.266 91.496C380.402 90.344 380.97 88.736 380.97 86.672C380.97 84.592 380.394 82.968 379.242 81.8C378.106 80.632 376.466 80.048 374.322 80.048H371.298V93.2H374.322ZM385.516 88.376C385.516 87.032 385.788 85.856 386.332 84.848C386.876 83.824 387.62 83.032 388.564 82.472C389.524 81.912 390.588 81.632 391.756 81.632C392.908 81.632 393.908 81.88 394.756 82.376C395.604 82.872 396.236 83.496 396.652 84.248V81.848H398.86V95H396.652V92.552C396.22 93.32 395.572 93.96 394.708 94.472C393.86 94.968 392.868 95.216 391.732 95.216C390.564 95.216 389.508 94.928 388.564 94.352C387.62 93.776 386.876 92.968 386.332 91.928C385.788 90.888 385.516 89.704 385.516 88.376ZM396.652 88.4C396.652 87.408 396.452 86.544 396.052 85.808C395.652 85.072 395.108 84.512 394.42 84.128C393.748 83.728 393.004 83.528 392.188 83.528C391.372 83.528 390.628 83.72 389.956 84.104C389.284 84.488 388.748 85.048 388.348 85.784C387.948 86.52 387.748 87.384 387.748 88.376C387.748 89.384 387.948 90.264 388.348 91.016C388.748 91.752 389.284 92.32 389.956 92.72C390.628 93.104 391.372 93.296 392.188 93.296C393.004 93.296 393.748 93.104 394.42 92.72C395.108 92.32 395.652 91.752 396.052 91.016C396.452 90.264 396.652 89.392 396.652 88.4ZM403.929 79.712C403.513 79.712 403.161 79.568 402.873 79.28C402.585 78.992 402.441 78.64 402.441 78.224C402.441 77.808 402.585 77.456 402.873 77.168C403.161 76.88 403.513 76.736 403.929 76.736C404.329 76.736 404.665 76.88 404.937 77.168C405.225 77.456 405.369 77.808 405.369 78.224C405.369 78.64 405.225 78.992 404.937 79.28C404.665 79.568 404.329 79.712 403.929 79.712ZM404.985 81.848V95H402.801V81.848H404.985ZM411.141 77.24V95H408.957V77.24H411.141ZM426.442 81.848L418.522 101.192H416.266L418.858 94.856L413.554 81.848H415.978L420.106 92.504L424.186 81.848H426.442ZM431.143 91.976L428.455 98.432H426.991L428.743 91.976H431.143ZM458.063 81.848L453.959 95H451.703L448.535 84.56L445.367 95H443.111L438.983 81.848H441.215L444.239 92.888L447.503 81.848H449.735L452.927 92.912L455.903 81.848H458.063ZM472.481 87.92C472.481 88.336 472.457 88.776 472.409 89.24H461.897C461.977 90.536 462.417 91.552 463.217 92.288C464.033 93.008 465.017 93.368 466.169 93.368C467.113 93.368 467.897 93.152 468.521 92.72C469.161 92.272 469.609 91.68 469.865 90.944H472.217C471.865 92.208 471.161 93.24 470.105 94.04C469.049 94.824 467.737 95.216 466.169 95.216C464.921 95.216 463.801 94.936 462.809 94.376C461.833 93.816 461.065 93.024 460.505 92C459.945 90.96 459.665 89.76 459.665 88.4C459.665 87.04 459.937 85.848 460.481 84.824C461.025 83.8 461.785 83.016 462.761 82.472C463.753 81.912 464.889 81.632 466.169 81.632C467.417 81.632 468.521 81.904 469.481 82.448C470.441 82.992 471.177 83.744 471.689 84.704C472.217 85.648 472.481 86.72 472.481 87.92ZM470.225 87.464C470.225 86.632 470.041 85.92 469.673 85.328C469.305 84.72 468.801 84.264 468.161 83.96C467.537 83.64 466.841 83.48 466.073 83.48C464.969 83.48 464.025 83.832 463.241 84.536C462.473 85.24 462.033 86.216 461.921 87.464H470.225ZM489.606 95L484.446 89.192V95H482.262V77.24H484.446V87.68L489.51 81.848H492.558L486.366 88.4L492.582 95H489.606ZM501.272 81.608C502.872 81.608 504.168 82.096 505.16 83.072C506.152 84.032 506.648 85.424 506.648 87.248V95H504.488V87.56C504.488 86.248 504.16 85.248 503.504 84.56C502.848 83.856 501.952 83.504 500.816 83.504C499.664 83.504 498.744 83.864 498.056 84.584C497.384 85.304 497.048 86.352 497.048 87.728V95H494.864V81.848H497.048V83.72C497.48 83.048 498.064 82.528 498.8 82.16C499.552 81.792 500.376 81.608 501.272 81.608ZM516.201 95.216C514.969 95.216 513.849 94.936 512.841 94.376C511.849 93.816 511.065 93.024 510.489 92C509.929 90.96 509.649 89.76 509.649 88.4C509.649 87.056 509.937 85.872 510.513 84.848C511.105 83.808 511.905 83.016 512.913 82.472C513.921 81.912 515.049 81.632 516.297 81.632C517.545 81.632 518.673 81.912 519.681 82.472C520.689 83.016 521.481 83.8 522.057 84.824C522.649 85.848 522.945 87.04 522.945 88.4C522.945 89.76 522.641 90.96 522.033 92C521.441 93.024 520.633 93.816 519.609 94.376C518.585 94.936 517.449 95.216 516.201 95.216ZM516.201 93.296C516.985 93.296 517.721 93.112 518.409 92.744C519.097 92.376 519.649 91.824 520.065 91.088C520.497 90.352 520.713 89.456 520.713 88.4C520.713 87.344 520.505 86.448 520.089 85.712C519.673 84.976 519.129 84.432 518.457 84.08C517.785 83.712 517.057 83.528 516.273 83.528C515.473 83.528 514.737 83.712 514.065 84.08C513.409 84.432 512.881 84.976 512.481 85.712C512.081 86.448 511.881 87.344 511.881 88.4C511.881 89.472 512.073 90.376 512.457 91.112C512.857 91.848 513.385 92.4 514.041 92.768C514.697 93.12 515.417 93.296 516.201 93.296ZM543.587 81.848L539.483 95H537.227L534.059 84.56L530.891 95H528.635L524.507 81.848H526.739L529.763 92.888L533.027 81.848H535.259L538.451 92.912L541.427 81.848H543.587ZM554.837 84.296C555.285 83.512 555.941 82.872 556.805 82.376C557.669 81.88 558.653 81.632 559.757 81.632C560.941 81.632 562.005 81.912 562.949 82.472C563.893 83.032 564.637 83.824 565.181 84.848C565.725 85.856 565.997 87.032 565.997 88.376C565.997 89.704 565.725 90.888 565.181 91.928C564.637 92.968 563.885 93.776 562.925 94.352C561.981 94.928 560.925 95.216 559.757 95.216C558.621 95.216 557.621 94.968 556.757 94.472C555.909 93.976 555.269 93.344 554.837 92.576V95H552.653V77.24H554.837V84.296ZM563.765 88.376C563.765 87.384 563.565 86.52 563.165 85.784C562.765 85.048 562.221 84.488 561.533 84.104C560.861 83.72 560.117 83.528 559.301 83.528C558.501 83.528 557.757 83.728 557.069 84.128C556.397 84.512 555.853 85.08 555.437 85.832C555.037 86.568 554.837 87.424 554.837 88.4C554.837 89.392 555.037 90.264 555.437 91.016C555.853 91.752 556.397 92.32 557.069 92.72C557.757 93.104 558.501 93.296 559.301 93.296C560.117 93.296 560.861 93.104 561.533 92.72C562.221 92.32 562.765 91.752 563.165 91.016C563.565 90.264 563.765 89.384 563.765 88.376ZM581.121 87.92C581.121 88.336 581.097 88.776 581.049 89.24H570.537C570.617 90.536 571.057 91.552 571.857 92.288C572.673 93.008 573.657 93.368 574.809 93.368C575.753 93.368 576.537 93.152 577.161 92.72C577.801 92.272 578.249 91.68 578.505 90.944H580.857C580.505 92.208 579.801 93.24 578.745 94.04C577.689 94.824 576.377 95.216 574.809 95.216C573.561 95.216 572.441 94.936 571.449 94.376C570.473 93.816 569.705 93.024 569.145 92C568.585 90.96 568.305 89.76 568.305 88.4C568.305 87.04 568.577 85.848 569.121 84.824C569.665 83.8 570.425 83.016 571.401 82.472C572.393 81.912 573.529 81.632 574.809 81.632C576.057 81.632 577.161 81.904 578.121 82.448C579.081 82.992 579.817 83.744 580.329 84.704C580.857 85.648 581.121 86.72 581.121 87.92ZM578.865 87.464C578.865 86.632 578.681 85.92 578.313 85.328C577.945 84.72 577.441 84.264 576.801 83.96C576.177 83.64 575.481 83.48 574.713 83.48C573.609 83.48 572.665 83.832 571.881 84.536C571.113 85.24 570.673 86.216 570.561 87.464H578.865ZM583.438 88.376C583.438 87.032 583.71 85.856 584.254 84.848C584.798 83.824 585.542 83.032 586.486 82.472C587.446 81.912 588.51 81.632 589.678 81.632C590.83 81.632 591.83 81.88 592.678 82.376C593.526 82.872 594.158 83.496 594.574 84.248V81.848H596.782V95H594.574V92.552C594.142 93.32 593.494 93.96 592.63 94.472C591.782 94.968 590.79 95.216 589.654 95.216C588.486 95.216 587.43 94.928 586.486 94.352C585.542 93.776 584.798 92.968 584.254 91.928C583.71 90.888 583.438 89.704 583.438 88.376ZM594.574 88.4C594.574 87.408 594.374 86.544 593.974 85.808C593.574 85.072 593.03 84.512 592.342 84.128C591.67 83.728 590.926 83.528 590.11 83.528C589.294 83.528 588.55 83.72 587.878 84.104C587.206 84.488 586.67 85.048 586.27 85.784C585.87 86.52 585.67 87.384 585.67 88.376C585.67 89.384 585.87 90.264 586.27 91.016C586.67 91.752 587.206 92.32 587.878 92.72C588.55 93.104 589.294 93.296 590.11 93.296C590.926 93.296 591.67 93.104 592.342 92.72C593.03 92.32 593.574 91.752 593.974 91.016C594.374 90.264 594.574 89.392 594.574 88.4ZM612.387 81.848V95H610.203V93.056C609.787 93.728 609.203 94.256 608.451 94.64C607.715 95.008 606.899 95.192 606.003 95.192C604.979 95.192 604.059 94.984 603.243 94.568C602.427 94.136 601.779 93.496 601.299 92.648C600.835 91.8 600.603 90.768 600.603 89.552V81.848H602.763V89.264C602.763 90.56 603.091 91.56 603.747 92.264C604.403 92.952 605.299 93.296 606.435 93.296C607.603 93.296 608.523 92.936 609.195 92.216C609.867 91.496 610.203 90.448 610.203 89.072V81.848H612.387ZM618.989 83.648V91.4C618.989 92.04 619.125 92.496 619.397 92.768C619.669 93.024 620.141 93.152 620.813 93.152H622.421V95H620.453C619.237 95 618.325 94.72 617.717 94.16C617.109 93.6 616.805 92.68 616.805 91.4V83.648H615.101V81.848H616.805V78.536H618.989V81.848H622.421V83.648H618.989ZM636.645 81.848L628.725 101.192H626.469L629.061 94.856L623.757 81.848H626.181L630.309 92.504L634.389 81.848H636.645Z" fill="white"/>
</g>
<defs>
<linearGradient id="paint0_linear_26518_402737" x1="168.403" y1="21.2608" x2="167.583" y2="33.5404" gradientUnits="userSpaceOnUse">
<stop stop-color="#47333F"/>
<stop offset="0.57" stop-color="#44303D"/>
<stop offset="0.97" stop-color="#3B2838"/>
<stop offset="1" stop-color="#3A2738"/>
</linearGradient>
<linearGradient id="paint1_linear_26518_402737" x1="167.388" y1="36.4843" x2="164.598" y2="78.2942" gradientUnits="userSpaceOnUse">
<stop stop-color="#FFBF61"/>
<stop offset="0.18" stop-color="#FBAD5B"/>
<stop offset="0.48" stop-color="#F79653"/>
<stop offset="0.76" stop-color="#F4884E"/>
<stop offset="1" stop-color="#F4844D"/>
</linearGradient>
<linearGradient id="paint2_linear_26518_402737" x1="170.153" y1="12.7842" x2="169.176" y2="27.4187" gradientUnits="userSpaceOnUse">
<stop stop-color="#47333F"/>
<stop offset="0.68" stop-color="#45313D"/>
<stop offset="0.92" stop-color="#3E2B3A"/>
<stop offset="1" stop-color="#3A2738"/>
</linearGradient>
<linearGradient id="paint3_linear_26518_402737" x1="146.979" y1="54.9722" x2="158.75" y2="69.3209" gradientUnits="userSpaceOnUse">
<stop stop-color="#EB557B"/>
<stop offset="0.31" stop-color="#E65077"/>
<stop offset="0.62" stop-color="#DA446D"/>
<stop offset="0.93" stop-color="#C6305D"/>
<stop offset="1" stop-color="#C12B59"/>
</linearGradient>
<linearGradient id="paint4_linear_26518_402737" x1="150.131" y1="60.8449" x2="152.99" y2="64.1869" gradientUnits="userSpaceOnUse">
<stop stop-color="#EB557B"/>
<stop offset="0.31" stop-color="#E65077"/>
<stop offset="0.62" stop-color="#DA446D"/>
<stop offset="0.93" stop-color="#C6305D"/>
<stop offset="1" stop-color="#C12B59"/>
</linearGradient>
<linearGradient id="paint5_linear_26518_402737" x1="148.713" y1="58.7994" x2="154.488" y2="65.5518" gradientUnits="userSpaceOnUse">
<stop stop-color="#EB557B"/>
<stop offset="0.31" stop-color="#E65077"/>
<stop offset="0.62" stop-color="#DA446D"/>
<stop offset="0.93" stop-color="#C6305D"/>
<stop offset="1" stop-color="#C12B59"/>
</linearGradient>
<linearGradient id="paint6_linear_26518_402737" x1="107.8" y1="46.3852" x2="102.321" y2="80.5026" gradientUnits="userSpaceOnUse">
<stop stop-color="#EB557B"/>
<stop offset="0.31" stop-color="#E65077"/>
<stop offset="0.62" stop-color="#DA446D"/>
<stop offset="0.93" stop-color="#C6305D"/>
<stop offset="1" stop-color="#C12B59"/>
</linearGradient>
<linearGradient id="paint7_linear_26518_402737" x1="113.976" y1="52.7415" x2="138.355" y2="82.6325" gradientUnits="userSpaceOnUse">
<stop stop-color="#FFBF61"/>
<stop offset="0.18" stop-color="#FBAD5B"/>
<stop offset="0.48" stop-color="#F79653"/>
<stop offset="0.76" stop-color="#F4884E"/>
<stop offset="1" stop-color="#F4844D"/>
</linearGradient>
<linearGradient id="paint8_linear_26518_402737" x1="142.518" y1="37.9886" x2="142.518" y2="59.9225" gradientUnits="userSpaceOnUse">
<stop stop-color="white"/>
<stop offset="0.4" stop-color="#FEFDFD"/>
<stop offset="0.55" stop-color="#FDF6F8"/>
<stop offset="0.65" stop-color="#FCEAEF"/>
<stop offset="0.74" stop-color="#FAD9E1"/>
<stop offset="0.81" stop-color="#F8C3D0"/>
<stop offset="0.87" stop-color="#F4A8BB"/>
<stop offset="0.93" stop-color="#F188A2"/>
<stop offset="0.98" stop-color="#EC6386"/>
<stop offset="1" stop-color="#EB557B"/>
</linearGradient>
<linearGradient id="paint9_linear_26518_402737" x1="127.462" y1="51.0542" x2="144.797" y2="68.3895" gradientUnits="userSpaceOnUse">
<stop stop-color="#EB557B"/>
<stop offset="0.54" stop-color="#E8537A"/>
<stop offset="0.78" stop-color="#E14C7A"/>
<stop offset="0.96" stop-color="#D54079"/>
<stop offset="1" stop-color="#D13D79"/>
</linearGradient>
<linearGradient id="paint10_linear_26518_402737" x1="79.567" y1="55.5131" x2="98.6404" y2="67.1751" gradientUnits="userSpaceOnUse">
<stop stop-color="#8E8FD7"/>
<stop offset="0.48" stop-color="#8B8DD4"/>
<stop offset="0.69" stop-color="#8486CD"/>
<stop offset="0.85" stop-color="#787CC1"/>
<stop offset="0.99" stop-color="#676CAF"/>
<stop offset="1" stop-color="#656BAD"/>
</linearGradient>
<linearGradient id="paint11_linear_26518_402737" x1="89.7586" y1="53.3282" x2="95.7128" y2="56.9696" gradientUnits="userSpaceOnUse">
<stop stop-color="#47333F"/>
<stop offset="0.43" stop-color="#3E2B3A"/>
<stop offset="1" stop-color="#3A2738"/>
</linearGradient>
<clipPath id="clip0_26518_402737">
<rect width="934.18" height="140" rx="16" fill="white"/>
</clipPath>
<clipPath id="clip1_26518_402737">
<rect width="62.2473" height="17.745" fill="white" transform="matrix(0.99995 -0.0100448 -0.00471651 0.999989 108.084 90.6252)"/>
</clipPath>
</defs>
</svg>
