<svg width="26" height="26" viewBox="0 0 26 26" fill="none" xmlns="http://www.w3.org/2000/svg">
<path d="M9.53321 23C6.76035 23 4.17558 22.1818 2 20.7701C3.84714 20.8914 7.10692 20.601 9.1345 18.6389C6.08435 18.497 4.7088 16.1237 4.52938 15.1095C4.78854 15.211 6.02454 15.3327 6.72229 15.0487C3.21363 14.1562 2.67537 11.0325 2.79498 10.0791C3.45285 10.5456 4.56925 10.7079 5.00783 10.6673C1.73839 8.29412 2.91459 4.72414 3.49273 3.95335C5.83899 7.25101 9.35532 9.1031 13.7055 9.20612C13.6234 8.84118 13.5801 8.46124 13.5801 8.07099C13.5801 5.27036 15.8115 3 18.564 3C20.0022 3 21.2981 3.61979 22.2077 4.61116C23.1688 4.3827 24.6151 3.84789 25.3222 3.3854C24.9658 4.68357 23.8562 5.76651 23.1851 6.16789C23.1906 6.18155 23.1796 6.15418 23.1851 6.16789C23.7746 6.07742 25.3698 5.76641 26 5.33266C25.6884 6.06196 24.512 7.27455 23.5466 7.95341C23.7262 15.9896 17.6656 23 9.53321 23Z" fill="#47ACDF"/>
</svg>
