<svg width="18" height="18" viewBox="0 0 18 18" fill="none" xmlns="http://www.w3.org/2000/svg">
<path d="M17.1502 11.3625H12.4252L11.0752 9H15.8002L17.1502 11.3625Z" stroke="#DB284E" stroke-width="0.75" stroke-linejoin="round"/>
<path d="M8.2627 9H15.5752V15.75C15.5752 16.0875 15.3502 16.3125 15.0127 16.3125H8.2627V9Z" fill="white" stroke="#DB284E" stroke-width="0.75" stroke-linejoin="round"/>
<path d="M3.5376 9H8.2626V16.3125H4.1001C3.7626 16.3125 3.5376 16.0875 3.5376 15.75V9Z" fill="white" stroke="#DB284E" stroke-width="0.75" stroke-linejoin="round"/>
<path d="M1.8501 11.475H6.5751L8.1501 9H3.3126L1.8501 11.475Z" fill="white" stroke="#DB284E" stroke-width="0.75" stroke-linejoin="round"/>
<path d="M2.86153 8.21261L2.63653 7.08761C2.41153 6.41261 2.86153 5.73761 3.64903 5.51261L5.56153 5.17511H5.78653H6.01153H6.12403L6.34903 5.28761L6.57403 5.40011L6.68653 5.51261L6.79903 5.62511C6.79903 5.73761 6.91153 5.73761 6.91153 5.85011L7.02403 6.07511L7.47403 8.10011H2.97403V8.21261H2.86153Z" fill="#EB92A7"/>
<path d="M3.08708 5.17498L5.78708 4.61248H5.89958V4.49998V4.38748L5.67458 3.82498C5.67458 3.48748 5.33708 3.14998 4.99958 3.26248L3.42458 3.59998C3.08708 3.59998 2.86208 3.93748 2.97458 4.38748L3.08708 5.17498Z" fill="#DB284E"/>
<path d="M10.7376 8.34719L10.9626 7.22219C11.1876 6.54719 10.7376 5.87219 9.95009 5.64719L8.03759 5.30969H7.81259H7.58759H7.47509L7.25009 5.42219L7.02509 5.53469L6.91259 5.64719L6.80009 5.75969C6.80009 5.87219 6.68759 5.87219 6.68759 5.98469L6.57509 6.20969L6.12509 8.23469H10.6251V8.34719H10.7376Z" fill="#EB92A7"/>
<path d="M10.9079 8.34719L10.6829 7.22219C10.4579 6.54719 10.9079 5.87219 11.6954 5.64719L13.6079 5.30969H13.8329H14.0579H14.1704L14.3954 5.42219L14.6204 5.53469L14.7329 5.64719L14.8454 5.75969C14.8454 5.87219 14.9579 5.87219 14.9579 5.98469L15.0704 6.20969L15.5204 8.23469H11.0204V8.34719H10.9079Z" fill="#EB92A7"/>
<path d="M10.5116 5.30957L7.81156 4.74707H7.69906V4.63457V4.52207L7.92406 3.95957C7.92406 3.62207 8.26156 3.28457 8.59906 3.39707L10.1741 3.73457C10.5116 3.73457 10.7366 4.07207 10.6241 4.52207L10.5116 5.30957Z" fill="#DB284E"/>
<path d="M11.134 5.30957L13.834 4.74707H13.9465V4.63457V4.52207L13.7215 3.95957C13.7215 3.62207 13.384 3.28457 13.0465 3.39707L11.4715 3.73457C11.134 3.73457 10.909 4.07207 11.0215 4.52207L11.134 5.30957Z" fill="#DB284E"/>
</svg>
