<svg width="26" height="26" viewBox="0 0 26 26" fill="none" xmlns="http://www.w3.org/2000/svg">
<path d="M1.82366 8.07715C1.92809 6.46939 3.22071 5.2094 4.82988 5.12967C7.16006 5.01423 10.4906 4.875 13 4.875C15.5094 4.875 18.8399 5.01423 21.1701 5.12967C22.7793 5.2094 24.0719 6.46939 24.1763 8.07715C24.2764 9.6175 24.375 11.5128 24.375 13C24.375 14.4872 24.2764 16.3825 24.1763 17.9229C24.0719 19.5306 22.7793 20.7906 21.1701 20.8703C18.8399 20.9858 15.5094 21.125 13 21.125C10.4906 21.125 7.16006 20.9858 4.82988 20.8703C3.22071 20.7906 1.92809 19.5306 1.82366 17.9228C1.72361 16.3825 1.625 14.4872 1.625 13C1.625 11.5128 1.72361 9.6175 1.82366 8.07715Z" fill="#FC0D1B"/>
<path d="M10.5625 9.75V16.25L17.0625 13L10.5625 9.75Z" fill="white"/>
</svg>
