<svg width="600" height="300" viewBox="0 0 600 300" fill="none" xmlns="http://www.w3.org/2000/svg">
<g clip-path="url(#clip0_9494_205930)">
<path d="M318.6 88.51V71.3H313.41C312.873 69.5422 312.166 67.8409 311.3 66.22L315 62.55L302.81 50.38L299.14 54.05C297.512 53.192 295.808 52.4857 294.05 51.94V46.76H276.85V51.94C275.092 52.4857 273.388 53.192 271.76 54.05L268.09 50.38L255.93 62.55L259.6 66.22C258.734 67.8409 258.027 69.5422 257.49 71.3H252.3V88.51H257.49C258.027 90.2678 258.734 91.9691 259.6 93.59L255.93 97.26L268.09 109.43L271.76 105.76C273.384 106.627 275.089 107.333 276.85 107.87V113.06H294.05V107.87C295.811 107.333 297.516 106.627 299.14 105.76L302.81 109.43L315 97.26L311.33 93.59C312.196 91.9691 312.903 90.2678 313.44 88.51H318.6ZM285.45 94.34C282.593 94.342 279.8 93.4965 277.424 91.9106C275.048 90.3247 273.195 88.0696 272.101 85.4306C271.007 82.7916 270.72 79.8874 271.277 77.0854C271.834 74.2833 273.209 71.7095 275.229 69.6894C277.249 67.6693 279.823 66.2938 282.625 65.737C285.427 65.1801 288.332 65.4669 290.971 66.5611C293.61 67.6553 295.865 69.5076 297.451 71.8838C299.037 74.26 299.882 77.0532 299.88 79.91C299.88 81.805 299.507 83.6814 298.782 85.4321C298.056 87.1829 296.994 88.7736 295.654 90.1136C294.314 91.4535 292.723 92.5164 290.972 93.2416C289.221 93.9668 287.345 94.34 285.45 94.34Z" fill="#FBE9ED"/>
<path d="M422.41 136.5V107.36H413.63C412.713 104.383 411.514 101.5 410.05 98.75L416.27 92.54L395.67 71.93L389.45 78.15C386.699 76.6898 383.816 75.4912 380.84 74.57V65.79H351.7V74.57C348.727 75.4894 345.847 76.6881 343.1 78.15L336.88 71.93L316.28 92.54L322.49 98.75C321.029 101.5 319.834 104.383 318.92 107.36H310.14V136.5H318.92C319.832 139.475 321.027 142.354 322.49 145.1L316.28 151.32L336.88 171.92L343.1 165.71C345.846 167.173 348.726 168.368 351.7 169.28V178.06H380.84V169.28C383.817 168.366 386.7 167.171 389.45 165.71L395.67 171.92L416.27 151.32L410.05 145.1C411.516 142.355 412.715 139.475 413.63 136.5H422.41ZM366.27 146.37C361.436 146.37 356.711 144.937 352.692 142.251C348.673 139.566 345.54 135.749 343.691 131.283C341.841 126.817 341.357 121.903 342.3 117.162C343.243 112.421 345.57 108.066 348.988 104.648C352.406 101.23 356.761 98.9027 361.502 97.9596C366.243 97.0166 371.157 97.5006 375.623 99.3504C380.089 101.2 383.906 104.333 386.591 108.352C389.277 112.371 390.71 117.096 390.71 121.93C390.71 128.412 388.135 134.628 383.552 139.212C378.968 143.795 372.752 146.37 366.27 146.37Z" fill="#FBE9ED"/>
<path d="M27.8899 277.55C19.5199 228.06 24.1699 158 63.7599 121.61C92.3499 95.33 144.46 84.3 181.68 93.88C231.31 106.66 264.15 154.88 311.54 174.4C353.78 191.8 402.35 184.16 445.35 168.71C462.35 162.59 479.62 155.19 497.71 155.81C523.26 156.68 546.02 173.91 560.03 195.29C575.95 219.59 582.03 252.73 567.03 277.63" fill="#FBE9ED"/>
<path d="M503.68 273.83C526.031 273.83 544.15 256.396 544.15 234.89C544.15 213.384 526.031 195.95 503.68 195.95C481.329 195.95 463.21 213.384 463.21 234.89C463.21 256.396 481.329 273.83 503.68 273.83Z" fill="#EB92A7"/>
<path d="M463.21 273.84C474.388 273.84 483.45 265.123 483.45 254.37C483.45 243.617 474.388 234.9 463.21 234.9C452.032 234.9 442.97 243.617 442.97 254.37C442.97 265.123 452.032 273.84 463.21 273.84Z" fill="#EB92A7"/>
<path d="M544.16 273.84C557.89 273.84 569.02 263.131 569.02 249.92C569.02 236.709 557.89 226 544.16 226C530.43 226 519.3 236.709 519.3 249.92C519.3 263.131 530.43 273.84 544.16 273.84Z" fill="#EB92A7"/>
<path d="M392.07 277.63H600C600 277.63 517.46 244.9 392.07 277.63Z" fill="#EB92A7"/>
<path d="M110.48 273.34C138.315 273.34 160.88 251.626 160.88 224.84C160.88 198.054 138.315 176.34 110.48 176.34C82.6449 176.34 60.0801 198.054 60.0801 224.84C60.0801 251.626 82.6449 273.34 110.48 273.34Z" fill="#FBE9ED"/>
<path d="M160.88 273.33C174.798 273.33 186.08 262.473 186.08 249.08C186.08 235.687 174.798 224.83 160.88 224.83C146.962 224.83 135.68 235.687 135.68 249.08C135.68 262.473 146.962 273.33 160.88 273.33Z" fill="#FBE9ED"/>
<path d="M60.0801 273.33C77.1789 273.33 91.0401 259.993 91.0401 243.54C91.0401 227.087 77.1789 213.75 60.0801 213.75C42.9814 213.75 29.1201 227.087 29.1201 243.54C29.1201 259.993 42.9814 273.33 60.0801 273.33Z" fill="#FBE9ED"/>
<path d="M235.71 277.63H0C0 277.63 93.57 240.52 235.71 277.63Z" fill="#FBE9ED"/>
<path d="M352.13 276.58C357.962 276.58 362.69 271.901 362.69 266.13C362.69 260.359 357.962 255.68 352.13 255.68C346.298 255.68 341.57 260.359 341.57 266.13C341.57 271.901 346.298 276.58 352.13 276.58Z" fill="#EB92A7"/>
<path d="M341.81 276.58C344.693 276.58 347.03 274.4 347.03 271.71C347.03 269.02 344.693 266.84 341.81 266.84C338.927 266.84 336.59 269.02 336.59 271.71C336.59 274.4 338.927 276.58 341.81 276.58Z" fill="#EB92A7"/>
<path d="M362.69 276.58C366.23 276.58 369.1 273.903 369.1 270.6C369.1 267.297 366.23 264.62 362.69 264.62C359.15 264.62 356.28 267.297 356.28 270.6C356.28 273.903 359.15 276.58 362.69 276.58Z" fill="#EB92A7"/>
<path d="M328 277.63H377C377 277.63 357.55 270.5 328 277.63Z" fill="#EB92A7"/>
<path d="M251.94 276.58C257.772 276.58 262.5 271.901 262.5 266.13C262.5 260.359 257.772 255.68 251.94 255.68C246.108 255.68 241.38 260.359 241.38 266.13C241.38 271.901 246.108 276.58 251.94 276.58Z" fill="#FBE9ED"/>
<path d="M241.62 276.58C244.503 276.58 246.84 274.4 246.84 271.71C246.84 269.02 244.503 266.84 241.62 266.84C238.737 266.84 236.4 269.02 236.4 271.71C236.4 274.4 238.737 276.58 241.62 276.58Z" fill="#FBE9ED"/>
<path d="M262.5 276.58C266.04 276.58 268.91 273.903 268.91 270.6C268.91 267.297 266.04 264.62 262.5 264.62C258.96 264.62 256.09 267.297 256.09 270.6C256.09 273.903 258.96 276.58 262.5 276.58Z" fill="#FBE9ED"/>
<path d="M227.76 277.63H276.84C276.84 277.63 257.36 270.5 227.76 277.63Z" fill="#FBE9ED"/>
<path d="M63.1499 244.49V209.31L143.71 94.08H192.4V206.76H213.31V244.49H192.4V277.63H148.81V244.49H63.1499ZM151.87 142L109 206.76H151.83L151.87 142Z" fill="#DB284E"/>
<path d="M277.8 85.2C293.933 72.9 313.9 70.7967 337.7 78.89C361.5 86.9834 376.053 100.813 381.36 120.38C386.64 139.947 384.58 163.57 375.18 191.25C365.673 219.25 352.86 239.397 336.74 251.69C320.62 263.983 300.653 266.087 276.84 258C253.033 249.913 238.483 236.083 233.19 216.51C227.897 196.937 230.01 173.153 239.53 145.16C248.93 117.48 261.687 97.4934 277.8 85.2ZM342.07 138.13C341.51 128.13 335.68 121.26 324.58 117.52C313.48 113.78 304.667 115.677 298.14 123.21C291.62 130.783 285.6 142.693 280.08 158.94C276.36 169.88 273.927 179.15 272.78 186.75C271.633 194.35 272.28 201.017 274.72 206.75C277.16 212.523 282.243 216.72 289.97 219.34C297.697 221.96 304.28 221.73 309.72 218.65C315.167 215.563 319.75 210.657 323.47 203.93C327.19 197.203 330.91 188.37 334.63 177.43C340.15 161.21 342.63 148.11 342.07 138.13Z" fill="#DB284E"/>
<path d="M289.93 76.76L291.51 86.74L298.05 82.43L300.02 92.29L306.39 92.76L305.41 103.48L309.73 90.75L302.14 89.62L301.75 78.13L295.17 79.52L295.73 73.71L290.89 73.95L289.93 76.76Z" fill="white"/>
<path d="M386.69 244.49V209.31L467.25 94.08H515.94V206.76H536.85V244.49H515.94V277.63H472.35V244.49H386.69ZM475.41 142L432.58 206.75H475.41V142Z" fill="#DB284E"/>
<path d="M492.14 94.08L488.85 104.55L495.21 105.87L491.04 117.06L493.05 122.76L495.21 132.87L494.11 122.77L493.24 117.28L500.92 105.21L494.88 100.38L499.82 94.08H492.14Z" fill="white"/>
<path d="M192.4 174.38L186.32 179.47L187.94 183.05L180.07 185.85L178.45 190.82L165.48 193.6L177.01 188.73V183.05L184.24 181.55L183.54 175.53L192.4 169.28V174.38Z" fill="#FBE9ED"/>
<path d="M524.12 275.73C534.663 275.73 543.21 267.277 543.21 256.85C543.21 246.423 534.663 237.97 524.12 237.97C513.577 237.97 505.03 246.423 505.03 256.85C505.03 267.277 513.577 275.73 524.12 275.73Z" fill="#FBE9ED"/>
<path d="M505.48 275.72C510.688 275.72 514.91 271.785 514.91 266.93C514.91 262.076 510.688 258.14 505.48 258.14C500.272 258.14 496.05 262.076 496.05 266.93C496.05 271.785 500.272 275.72 505.48 275.72Z" fill="#FBE9ED"/>
<path d="M543.22 275.73C549.621 275.73 554.81 270.89 554.81 264.92C554.81 258.95 549.621 254.11 543.22 254.11C536.819 254.11 531.63 258.95 531.63 264.92C531.63 270.89 536.819 275.73 543.22 275.73Z" fill="#FBE9ED"/>
<path d="M482.53 277.63H571.24C571.24 277.63 536 264.74 482.53 277.63Z" fill="#FBE9ED"/>
<path d="M119.76 274.9C134.893 274.9 147.16 262.771 147.16 247.81C147.16 232.849 134.893 220.72 119.76 220.72C104.628 220.72 92.3601 232.849 92.3601 247.81C92.3601 262.771 104.628 274.9 119.76 274.9Z" fill="#EB92A7"/>
<path d="M93 274.9C100.478 274.9 106.54 269.25 106.54 262.28C106.54 255.31 100.478 249.66 93 249.66C85.522 249.66 79.46 255.31 79.46 262.28C79.46 269.25 85.522 274.9 93 274.9Z" fill="#EB92A7"/>
<path d="M147.16 274.9C156.345 274.9 163.79 267.956 163.79 259.39C163.79 250.824 156.345 243.88 147.16 243.88C137.976 243.88 130.53 250.824 130.53 259.39C130.53 267.956 137.976 274.9 147.16 274.9Z" fill="#EB92A7"/>
<path d="M60.0801 277.63H187.37C187.37 277.63 136.84 259.13 60.0801 277.63Z" fill="#EB92A7"/>
<path d="M42.4318 140.999C40.4155 141.701 38.3989 141.878 36.3822 141.53C34.3859 141.175 32.5979 140.336 31.0183 139.013C29.452 137.663 28.3036 135.939 27.5731 133.841C26.8425 131.744 26.6753 129.69 27.0713 127.679C27.4877 125.661 28.3678 123.893 29.7117 122.375C31.0759 120.849 32.7661 119.735 34.7825 119.033C36.7988 118.331 38.8052 118.158 40.8015 118.513C42.8182 118.861 44.596 119.704 46.1349 121.04C47.6941 122.37 48.8389 124.084 49.5695 126.182C50.3 128.279 50.4708 130.344 50.0819 132.375C49.6858 134.385 48.8159 136.15 47.4721 137.668C46.1282 139.187 44.4481 140.297 42.4318 140.999ZM40.7721 136.233C42.483 135.637 43.649 134.592 44.2701 133.097C44.9117 131.594 44.9062 129.906 44.2537 128.033C43.5941 126.139 42.5499 124.812 41.121 124.054C39.7055 123.268 38.1423 123.173 36.4315 123.769C34.7003 124.371 33.5104 125.414 32.8618 126.896C32.2335 128.371 32.2527 130.065 32.9194 131.98C33.579 133.874 34.6166 135.214 36.0321 136C37.4609 136.758 39.0409 136.836 40.7721 136.233ZM64.0763 133.496C62.4062 134.078 60.7749 134.246 59.1825 134.001C57.6104 133.749 56.2068 133.096 54.9719 132.042C53.7573 130.981 52.8414 129.564 52.2244 127.792C51.6144 126.04 51.4659 124.368 51.7788 122.774C52.0847 121.161 52.7856 119.763 53.8816 118.582C54.9776 117.401 56.3606 116.52 58.0307 115.939C59.7008 115.357 61.3321 115.189 62.9246 115.433C64.517 115.678 65.9343 116.338 67.1763 117.412C68.4113 118.467 69.3338 119.87 69.9437 121.621C70.5537 123.373 70.6956 125.059 70.3694 126.68C70.0564 128.273 69.3418 129.664 68.2254 130.852C67.1294 132.033 65.7464 132.914 64.0763 133.496ZM62.5018 128.974C63.4997 128.627 64.2173 127.966 64.6545 126.992C65.112 126.01 65.1031 124.837 64.6279 123.473C64.1527 122.108 63.4412 121.18 62.4934 120.688C61.566 120.188 60.6032 120.113 59.6053 120.46C58.5869 120.815 57.8693 121.476 57.4526 122.443C57.0287 123.39 57.0579 124.556 57.5402 125.941C58.0154 127.305 58.7065 128.241 59.6136 128.747C60.5411 129.246 61.5038 129.322 62.5018 128.974ZM75.8116 112.727C76.0442 111.755 76.5234 110.869 77.2494 110.068C77.9753 109.267 78.9391 108.658 80.1407 108.239C81.5461 107.75 82.9431 107.663 84.3319 107.978C85.7207 108.294 86.9715 109 88.0842 110.097C89.2174 111.187 90.0889 112.608 90.6989 114.359C91.3088 116.111 91.5118 117.776 91.3078 119.354C91.1171 120.905 90.5791 122.246 89.6939 123.376C88.8016 124.486 87.6528 125.286 86.2474 125.775C85.0661 126.186 83.9321 126.307 82.8454 126.138C81.779 125.961 80.8565 125.574 80.0778 124.978L83.7375 135.487L78.5134 137.306L69.747 112.133L74.9711 110.313L75.8116 112.727ZM85.3831 116.211C84.9292 114.907 84.2079 114.016 83.2194 113.538C82.2441 113.033 81.2269 112.965 80.1678 113.334C79.1291 113.695 78.3744 114.381 77.9036 115.39C77.4532 116.391 77.4549 117.544 77.9088 118.848C78.3628 120.151 79.0773 121.056 80.0526 121.561C81.0483 122.059 82.0654 122.127 83.1042 121.766C84.1429 121.404 84.8976 120.719 85.3684 119.71C85.8321 118.68 85.837 117.514 85.3831 116.211ZM103.439 119.789C101.952 120.306 100.539 120.513 99.201 120.408C97.8628 120.303 96.7051 119.93 95.728 119.288C94.7438 118.626 94.0195 117.759 93.5551 116.688L98.7181 114.89C98.9849 115.459 99.4265 115.842 100.043 116.038C100.659 116.235 101.324 116.209 102.037 115.96C102.689 115.733 103.145 115.437 103.406 115.073C103.681 114.68 103.747 114.28 103.605 113.873C103.435 113.384 103.056 113.116 102.469 113.07C101.875 113.002 100.958 113.025 99.7178 113.137C98.3965 113.277 97.2753 113.337 96.3542 113.315C95.426 113.273 94.5496 113.018 93.7249 112.552C92.8931 112.065 92.2751 111.241 91.8708 110.08C91.5304 109.103 91.4866 108.125 91.7395 107.146C92.0057 106.14 92.5766 105.222 93.4522 104.391C94.3482 103.554 95.5192 102.884 96.9653 102.38C99.1038 101.635 100.968 101.58 102.559 102.213C104.171 102.84 105.373 103.997 106.166 105.685L101.339 107.366C101.052 106.803 100.624 106.427 100.055 106.237C99.5071 106.04 98.8765 106.065 98.1636 106.313C97.5526 106.526 97.1267 106.811 96.886 107.169C96.6381 107.507 96.5851 107.879 96.727 108.287C96.8972 108.775 97.2795 109.053 97.8737 109.12C98.4884 109.18 99.3882 109.141 100.573 109.003C101.949 108.889 103.091 108.856 103.999 108.906C104.9 108.935 105.77 109.203 106.609 109.71C107.461 110.189 108.103 111.016 108.534 112.191C108.882 113.189 108.909 114.184 108.615 115.177C108.335 116.142 107.743 117.033 106.84 117.85C105.957 118.66 104.824 119.306 103.439 119.789ZM112.593 91.4227L117.078 106.269L112.649 107.812L106.942 93.3909L112.593 91.4227ZM117.663 114.835C116.747 115.154 115.901 115.152 115.126 114.828C114.364 114.477 113.845 113.904 113.569 113.109C113.285 112.295 113.332 111.513 113.711 110.765C114.11 110.009 114.768 109.472 115.685 109.152C116.581 108.84 117.41 108.86 118.172 109.211C118.954 109.556 119.487 110.135 119.77 110.95C120.047 111.744 119.986 112.519 119.586 113.275C119.201 114.003 118.56 114.523 117.663 114.835Z" fill="#FFB769"/>
<path d="M162.85 61.5601C162.85 61.5601 163.46 61.5601 164.56 61.5601" stroke="#EB92A7" stroke-width="1.08" stroke-linecap="round" stroke-linejoin="round"/>
<path d="M167.92 61.64C181.34 62.17 217.15 65.73 222.92 88.55C226.35 102.17 219.78 109.48 212.14 108.55C200.52 107.13 199.21 91.9 210.65 88.63C219.45 86.11 231.93 91.79 248.33 120.46" stroke="#EB92A7" stroke-width="1.08" stroke-linecap="round" stroke-linejoin="round" stroke-dasharray="3.37 3.37"/>
<path d="M249.15 121.93C249.42 122.43 249.7 122.93 249.98 123.43" stroke="#EB92A7" stroke-width="1.08" stroke-linecap="round" stroke-linejoin="round"/>
<path d="M159.52 57.4L157.29 43.32L153.05 43.99C152.379 42.6235 151.578 41.3243 150.66 40.11L153.19 36.63L141.66 28.25L139.13 31.73C137.689 31.2259 136.202 30.8674 134.69 30.66L134 26.41L119.92 28.64L120.59 32.89C119.223 33.5564 117.924 34.3535 116.71 35.27L113.23 32.74L104.85 44.28L108.33 46.8C107.832 48.2422 107.473 49.7291 107.26 51.24L103.01 51.91L105.26 66L109.51 65.33C110.174 66.6983 110.971 67.9979 111.89 69.21L109.36 72.69L120.9 81.07L123.43 77.6C124.869 78.0951 126.353 78.4501 127.86 78.66L128.53 82.91L142.61 80.68L141.94 76.44C143.31 75.7506 144.613 74.9336 145.83 74L149.31 76.53L157.69 65L154.21 62.48C154.704 61.0365 155.062 59.55 155.28 58.04L159.52 57.4ZM133.15 66.47C130.804 66.8502 128.397 66.5248 126.236 65.5354C124.075 64.5459 122.256 62.9368 121.01 60.9122C119.765 58.8877 119.149 56.5388 119.24 54.1635C119.331 51.7882 120.126 49.4936 121.523 47.5706C122.92 45.6476 124.857 44.1829 127.088 43.3623C129.319 42.5416 131.743 42.402 134.054 42.9612C136.364 43.5203 138.456 44.7529 140.065 46.5028C141.674 48.2527 142.727 50.441 143.09 52.79C143.574 55.9206 142.801 59.1156 140.939 61.6783C139.077 64.241 136.277 65.9635 133.15 66.47Z" fill="#FBE9ED"/>
<path d="M531.05 67.55L526.44 65.39C525.893 65.0478 525.495 64.5115 525.326 63.8885C525.157 63.2654 525.23 62.6016 525.53 62.03L540.64 24.37C541.3 22.71 543 21.89 544.18 22.66L553.31 28.57C553.836 29.0192 554.175 29.6482 554.262 30.3342C554.349 31.0202 554.177 31.7139 553.78 32.28L534.15 66.19C533.891 66.7581 533.431 67.2108 532.86 67.4617C532.288 67.7126 531.644 67.744 531.05 67.55Z" fill="#FF792F"/>
<path d="M529.8 76.3799C531.093 73.6128 530.194 70.46 527.792 69.338C525.39 68.216 522.395 69.5496 521.103 72.3167C519.81 75.0838 520.709 78.2365 523.111 79.3585C525.513 80.4805 528.508 79.147 529.8 76.3799Z" fill="#FF792F"/>
<path d="M546.53 80.79L543.53 77.4C543.199 77.0221 543.023 76.5335 543.036 76.0314C543.049 75.5293 543.25 75.0504 543.6 74.69L563.45 54.51C563.655 54.3008 563.903 54.139 564.177 54.0361C564.451 53.9333 564.744 53.8918 565.036 53.9147C565.328 53.9376 565.611 54.0243 565.866 54.1686C566.121 54.3129 566.34 54.5114 566.51 54.75L572.05 62.62C572.354 63.0528 572.474 63.5881 572.384 64.1091C572.294 64.63 572.001 65.0942 571.57 65.4L549.17 81.11C548.767 81.3895 548.276 81.5114 547.789 81.4524C547.302 81.3934 546.854 81.1577 546.53 80.79Z" fill="#FF792F"/>
<path d="M542.953 86.6578C544.552 85.2508 544.861 82.9887 543.644 81.6053C542.426 80.2218 540.143 80.2408 538.544 81.6478C536.946 83.0548 536.636 85.317 537.854 86.7004C539.071 88.0839 541.354 88.0648 542.953 86.6578Z" fill="#FF792F"/>
<path d="M509.28 61.11L505.69 60.8C505.274 60.7474 504.893 60.5382 504.626 60.215C504.358 59.8918 504.224 59.4788 504.25 59.06L504.78 34.47C504.774 34.2263 504.822 33.9843 504.92 33.761C505.018 33.5378 505.163 33.3386 505.346 33.1775C505.529 33.0165 505.745 32.8974 505.979 32.8288C506.213 32.7601 506.459 32.7434 506.7 32.78L514.22 34.34C514.643 34.4513 515.008 34.7207 515.239 35.0928C515.469 35.4649 515.549 35.9113 515.46 36.34L511 59.72C510.936 60.1235 510.725 60.489 510.407 60.7458C510.09 61.0026 509.688 61.1323 509.28 61.11Z" fill="#FF792F"/>
<path d="M510.496 68.155C510.681 66.0312 509.341 64.1799 507.503 64.0201C505.665 63.8603 504.026 65.4525 503.841 67.5763C503.657 69.7001 504.997 71.5513 506.834 71.7111C508.672 71.8709 510.311 70.2788 510.496 68.155Z" fill="#FF792F"/>
<path d="M249.16 207.56H238.19V277.63H249.16V207.56Z" fill="#E5E5E5"/>
<path d="M361.82 207.56H350.85V277.63H361.82V207.56Z" fill="#E5E5E5"/>
<path d="M371.19 212.15H228.8V233.95H371.19V212.15Z" fill="#666666"/>
<path d="M228.8 212.15V222.48L233.31 212.15H228.8Z" fill="#FFB769"/>
<path d="M253.66 212.15L244.13 233.95H264.48L274 212.15H253.66Z" fill="#FFB769"/>
<path d="M294.34 212.15L284.82 233.95H305.16L314.68 212.15H294.34Z" fill="#FFB769"/>
<path d="M335.02 212.15L325.5 233.95H345.85L355.37 212.15H335.02Z" fill="#FFB769"/>
<path d="M371.2 222.48L366.19 233.95H371.2V222.48Z" fill="#FFB769"/>
<path d="M236.98 276.8C241.597 276.8 245.34 273.102 245.34 268.54C245.34 263.978 241.597 260.28 236.98 260.28C232.363 260.28 228.62 263.978 228.62 268.54C228.62 273.102 232.363 276.8 236.98 276.8Z" fill="#EB92A7"/>
<path d="M228.82 276.8C231.101 276.8 232.95 275.076 232.95 272.95C232.95 270.824 231.101 269.1 228.82 269.1C226.539 269.1 224.69 270.824 224.69 272.95C224.69 275.076 226.539 276.8 228.82 276.8Z" fill="#EB92A7"/>
<path d="M245.33 276.8C248.13 276.8 250.4 274.682 250.4 272.07C250.4 269.458 248.13 267.34 245.33 267.34C242.53 267.34 240.26 269.458 240.26 272.07C240.26 274.682 242.53 276.8 245.33 276.8Z" fill="#EB92A7"/>
<path d="M218.78 277.63H257.6C257.6 277.63 242.19 272 218.78 277.63Z" fill="#EB92A7"/>
<path d="M369.43 276.42C376.162 276.42 381.62 271.025 381.62 264.37C381.62 257.715 376.162 252.32 369.43 252.32C362.698 252.32 357.24 257.715 357.24 264.37C357.24 271.025 362.698 276.42 369.43 276.42Z" fill="#FBE9ED"/>
<path d="M357.53 276.41C360.855 276.41 363.55 273.898 363.55 270.8C363.55 267.702 360.855 265.19 357.53 265.19C354.205 265.19 351.51 267.702 351.51 270.8C351.51 273.898 354.205 276.41 357.53 276.41Z" fill="#FBE9ED"/>
<path d="M381.62 276.42C385.707 276.42 389.02 273.331 389.02 269.52C389.02 265.709 385.707 262.62 381.62 262.62C377.533 262.62 374.22 265.709 374.22 269.52C374.22 273.331 377.533 276.42 381.62 276.42Z" fill="#FBE9ED"/>
<path d="M342.89 277.63H399.5C399.5 277.63 377 269.4 342.89 277.63Z" fill="#FBE9ED"/>
</g>
<defs>
<clipPath id="clip0_9494_205930">
<rect width="600" height="300" fill="white"/>
</clipPath>
</defs>
</svg>
