<svg width="24" height="24" viewBox="0 0 24 24" fill="none" xmlns="http://www.w3.org/2000/svg">
<rect x="2" y="2" width="20" height="20" rx="2" fill="#49A09D"/>
<path d="M16.2197 7.06761C16.427 6.87019 16.703 6.76105 16.9893 6.76322C17.2756 6.76538 17.5498 6.87869 17.7542 7.07922C17.9585 7.27976 18.077 7.55183 18.0846 7.83805C18.0921 8.12426 17.9882 8.40222 17.7948 8.61327L11.9212 15.9588C11.8202 16.0676 11.6983 16.1549 11.5628 16.2155C11.4273 16.2761 11.281 16.3088 11.1326 16.3115C10.9842 16.3143 10.8367 16.2871 10.6991 16.2315C10.5614 16.176 10.4364 16.0933 10.3314 15.9883L6.43635 12.0932C6.32788 11.9921 6.24088 11.8703 6.18054 11.7348C6.1202 11.5994 6.08775 11.4532 6.08513 11.305C6.08252 11.1567 6.10979 11.0095 6.16531 10.872C6.22084 10.7345 6.30349 10.6096 6.40833 10.5048C6.51317 10.4 6.63805 10.3173 6.77552 10.2618C6.91299 10.2063 7.06024 10.179 7.20848 10.1816C7.35672 10.1842 7.50292 10.2167 7.63835 10.277C7.77377 10.3374 7.89566 10.4244 7.99674 10.5328L11.0792 13.6139L16.1917 7.1C16.2009 7.08866 16.2107 7.07785 16.2211 7.06761H16.2197Z" fill="white"/>
</svg>
