<svg width="180" height="53" viewBox="0 0 180 53" fill="none" xmlns="http://www.w3.org/2000/svg">
<g clip-path="url(#clip0_16841_359920)">
<path d="M165.666 -7.18912e-05H14.3422C13.7906 -7.18912e-05 13.2456 -7.18911e-05 12.6955 0.0025781C12.235 0.00522809 11.7781 0.0129263 11.3132 0.0194055C10.3031 0.0298754 9.29543 0.108149 8.29888 0.253546C7.30373 0.402108 6.33976 0.682189 5.43956 1.08432C4.54046 1.48985 3.71893 2.01679 3.00477 2.64604C2.28686 3.27351 1.68842 3.99879 1.23248 4.79397C0.775271 5.58758 0.458244 6.438 0.292343 7.31587C0.124866 8.19262 0.0347448 9.07949 0.0227888 9.96851C0.00882972 10.3748 0.00735559 10.7823 0 11.1886V41.8149C0.00735559 42.2263 0.00882972 42.6249 0.0227888 43.0365C0.0347485 43.9254 0.12487 44.8122 0.292343 45.689C0.457785 46.5673 0.774831 47.4182 1.23248 48.2122C1.68821 49.0048 2.28673 49.7271 3.00477 50.3511C3.71622 50.9831 4.53828 51.5104 5.43956 51.9129C6.33975 52.3161 7.30362 52.5978 8.29888 52.7487C9.2956 52.8929 10.3032 52.9712 11.3132 52.9829C11.7781 52.9919 12.235 52.9971 12.6955 52.9971C13.2456 52.9998 13.7906 52.9998 14.3422 52.9998H165.666C166.207 52.9998 166.756 52.9998 167.296 52.9971C167.755 52.9971 168.225 52.9919 168.683 52.9829C169.691 52.9718 170.697 52.8935 171.692 52.7487C172.69 52.5968 173.657 52.3151 174.562 51.9129C175.462 51.5102 176.284 50.9829 176.995 50.3511C177.711 49.7247 178.311 49.0028 178.772 48.2122C179.226 47.4177 179.54 46.5668 179.703 45.689C179.871 44.8121 179.964 43.9255 179.982 43.0365C179.988 42.6249 179.988 42.2263 179.988 41.8149C180 41.3336 180 40.8548 180 40.3657V12.6353C180 12.15 180 11.6687 179.988 11.1886C179.988 10.7823 179.988 10.3748 179.982 9.96845C179.964 9.07936 179.871 8.19269 179.703 7.31581C179.54 6.43846 179.226 5.5881 178.772 4.79392C177.843 3.20005 176.371 1.90266 174.562 1.0842C173.657 0.683053 172.69 0.403045 171.692 0.253426C170.697 0.107389 169.691 0.0290883 168.683 0.01922C168.225 0.0127541 167.755 0.00498959 167.296 0.00240585C166.756 -0.000244141 166.207 -0.000244141 165.666 -0.000244141V-7.18912e-05Z" fill="#A6A6A6"/>
<path d="M12.7205 51.6723C12.2623 51.6723 11.8152 51.6672 11.3606 51.6582C10.4188 51.6475 9.47929 51.5757 8.54965 51.4436C7.6828 51.3129 6.84306 51.0698 6.05813 50.7224C5.28039 50.3778 4.57103 49.926 3.95722 49.3843C3.33453 48.8489 2.81611 48.228 2.42251 47.5461C2.02457 46.8598 1.74917 46.1241 1.60591 45.3648C1.4512 44.5488 1.36749 43.7238 1.35551 42.8967C1.34598 42.6191 1.3335 41.6949 1.3335 41.6949V11.2883C1.3335 11.2883 1.34679 10.3782 1.35559 10.1108C1.36706 9.28508 1.45027 8.46132 1.60452 7.64665C1.74805 6.88521 2.02366 6.14744 2.42182 5.45887C2.81397 4.77746 3.32951 4.15607 3.94845 3.61879C4.5667 3.07641 5.27833 2.62227 6.05739 2.27294C6.84052 1.92661 7.67867 1.68526 8.54377 1.55697C9.47646 1.42346 10.4193 1.35127 11.3643 1.34102L12.7213 1.32495H167.272L168.645 1.34167C169.581 1.35141 170.516 1.42295 171.44 1.55568C172.314 1.68558 173.16 1.92861 173.952 2.2768C175.513 2.9808 176.783 4.0946 177.584 5.46208C177.976 6.1459 178.247 6.87765 178.389 7.63251C178.545 8.45386 178.633 9.2841 178.651 10.1166C178.655 10.4894 178.655 10.8898 178.655 11.2883C178.667 11.7819 178.667 12.2517 178.667 12.7253V40.2732C178.667 40.7514 178.667 41.218 178.655 41.6884C178.655 42.1165 178.655 42.5086 178.649 42.9121C178.632 43.7298 178.546 44.5452 178.392 45.3519C178.252 46.1167 177.978 46.8581 177.58 47.55C177.184 48.2245 176.668 48.8401 176.053 49.374C175.438 49.9186 174.728 50.3731 173.948 50.7199C173.158 51.07 172.313 51.314 171.44 51.4436C170.51 51.5764 169.57 51.6482 168.629 51.6582C168.188 51.6672 167.727 51.6723 167.279 51.6723L165.649 51.675L12.7205 51.6723Z" fill="black"/>
<path d="M43.7297 26.8983C43.7441 25.7924 44.0397 24.708 44.5891 23.7462C45.1384 22.7843 45.9237 21.9761 46.8718 21.3968C46.2695 20.542 45.4749 19.8385 44.5511 19.3422C43.6274 18.8459 42.5999 18.5706 41.5503 18.5379C39.3113 18.3044 37.1407 19.8693 35.9998 19.8693C34.8367 19.8693 33.0801 18.5611 31.1884 18.5998C29.9649 18.6391 28.7724 18.9927 27.7272 19.6261C26.682 20.2595 25.8198 21.1512 25.2245 22.2142C22.6459 26.6509 24.5693 33.1713 27.0395 36.7575C28.2753 38.5136 29.7197 40.4752 31.6096 40.4056C33.459 40.3294 34.1498 39.2337 36.3822 39.2337C38.5938 39.2337 39.2419 40.4056 41.1702 40.3614C43.1547 40.3294 44.405 38.5975 45.5975 36.8248C46.4855 35.5735 47.1688 34.1906 47.6221 32.7272C46.4691 32.2426 45.4852 31.4315 44.7931 30.395C44.1009 29.3584 43.7311 28.1423 43.7297 26.8983Z" fill="white"/>
<path d="M40.0875 16.1793C41.1696 14.8884 41.7026 13.2293 41.5736 11.5542C39.9204 11.7267 38.3934 12.5119 37.2968 13.7532C36.7606 14.3596 36.3499 15.0651 36.0883 15.8293C35.8266 16.5935 35.7191 17.4015 35.7718 18.207C36.5987 18.2155 37.4167 18.0374 38.1642 17.6861C38.9118 17.3349 39.5694 16.8197 40.0875 16.1793Z" fill="white"/>
<path d="M67.1074 35.9599H60.7962L59.2806 40.4072H56.6074L62.5853 23.9534H65.3626L71.3405 40.4072H68.6217L67.1074 35.9599ZM61.4499 33.9077H66.4525L63.9864 26.6901H63.9174L61.4499 33.9077Z" fill="white"/>
<path d="M84.2505 34.4097C84.2505 38.1375 82.2427 40.5326 79.2128 40.5326C78.4452 40.5725 77.6819 40.3968 77.0102 40.0256C76.3384 39.6544 75.7855 39.1028 75.4146 38.4338H75.3573V44.3756H72.8794V28.4109H75.2779V30.4062H75.3234C75.7114 29.7404 76.2737 29.1916 76.9505 28.8182C77.6274 28.4447 78.3934 28.2606 79.1672 28.2854C82.2309 28.2854 84.2505 30.6922 84.2505 34.4097ZM81.7037 34.4097C81.7037 31.9809 80.4406 30.3842 78.5135 30.3842C76.6203 30.3842 75.3469 32.0146 75.3469 34.4097C75.3469 36.8268 76.6203 38.4455 78.5135 38.4455C80.4406 38.4455 81.7037 36.8604 81.7037 34.4097Z" fill="white"/>
<path d="M97.5371 34.4097C97.5371 38.1375 95.5293 40.5326 92.4994 40.5326C91.7319 40.5725 90.9685 40.3968 90.2968 40.0256C89.6251 39.6544 89.0721 39.1028 88.7012 38.4338H88.6439V44.3756H86.166V28.4109H88.5644V30.4062H88.61C88.998 29.7404 89.5603 29.1916 90.2371 28.8182C90.914 28.4447 91.68 28.2606 92.4538 28.2854C95.5176 28.2854 97.5371 30.6921 97.5371 34.4097ZM94.9903 34.4097C94.9903 31.9809 93.7272 30.3842 91.8002 30.3842C89.9069 30.3842 88.6335 32.0146 88.6335 34.4097C88.6335 36.8267 89.9069 38.4455 91.8002 38.4455C93.7273 38.4455 94.9903 36.8604 94.9903 34.4097H94.9903Z" fill="white"/>
<path d="M106.318 35.8227C106.502 37.4544 108.097 38.5257 110.277 38.5257C112.365 38.5257 113.868 37.4543 113.868 35.9831C113.868 34.706 112.961 33.9413 110.816 33.4172L108.67 32.9035C105.629 32.1737 104.218 30.7607 104.218 28.4678C104.218 25.6289 106.708 23.679 110.243 23.679C113.741 23.679 116.14 25.6289 116.221 28.4678H113.719C113.57 26.8258 112.204 25.8347 110.208 25.8347C108.211 25.8347 106.846 26.8375 106.846 28.2971C106.846 29.4603 107.718 30.1448 109.852 30.6688L111.676 31.1139C115.073 31.9123 116.485 33.2684 116.485 35.6751C116.485 38.7534 114.017 40.6814 110.093 40.6814C106.421 40.6814 103.942 38.7987 103.782 35.8226L106.318 35.8227Z" fill="white"/>
<path d="M121.833 25.572V28.4109H124.128V30.3609H121.833V36.9743C121.833 38.0017 122.292 38.4804 123.301 38.4804C123.574 38.4757 123.846 38.4567 124.117 38.4234V40.3618C123.663 40.446 123.202 40.4842 122.74 40.4756C120.296 40.4756 119.343 39.5634 119.343 37.2369V30.3609H117.588V28.4109H119.343V25.572H121.833Z" fill="white"/>
<path d="M125.458 34.4097C125.458 30.6352 127.694 28.2634 131.183 28.2634C134.683 28.2634 136.909 30.6352 136.909 34.4097C136.909 38.1945 134.694 40.5559 131.183 40.5559C127.672 40.5559 125.458 38.1944 125.458 34.4097ZM134.385 34.4097C134.385 31.8205 133.191 30.2923 131.183 30.2923C129.175 30.2923 127.982 31.8321 127.982 34.4097C127.982 37.0092 129.175 38.5257 131.183 38.5257C133.191 38.5257 134.385 37.0092 134.385 34.4097H134.385Z" fill="white"/>
<path d="M138.953 28.4111H141.316V30.4529H141.373C141.533 29.8152 141.909 29.2516 142.438 28.8569C142.967 28.4622 143.616 28.2605 144.277 28.2855C144.562 28.2845 144.847 28.3154 145.126 28.3774V30.6806C144.765 30.5712 144.389 30.5209 144.013 30.5318C143.653 30.5173 143.294 30.5804 142.961 30.7167C142.627 30.853 142.328 31.0594 142.083 31.3216C141.837 31.5838 141.652 31.8956 141.539 32.2357C141.427 32.5758 141.39 32.9361 141.43 33.2918V40.4072H138.953L138.953 28.4111Z" fill="white"/>
<path d="M156.55 36.8837C156.217 39.0614 154.083 40.5559 151.352 40.5559C147.84 40.5559 145.661 38.2177 145.661 34.4666C145.661 30.7038 147.852 28.2634 151.248 28.2634C154.588 28.2634 156.688 30.5434 156.688 34.1806V35.0243H148.162V35.1731C148.123 35.6146 148.178 36.0593 148.325 36.4778C148.472 36.8963 148.707 37.279 149.014 37.6003C149.321 37.9217 149.694 38.1745 150.107 38.3418C150.52 38.5092 150.964 38.5873 151.409 38.571C151.995 38.6255 152.583 38.4907 153.085 38.1867C153.587 37.8827 153.977 37.4257 154.197 36.8837L156.55 36.8837ZM148.174 33.3033H154.209C154.231 32.9064 154.171 32.5091 154.031 32.1365C153.891 31.7639 153.676 31.424 153.398 31.1381C153.12 30.8522 152.785 30.6265 152.415 30.4752C152.045 30.3239 151.648 30.2502 151.248 30.2587C150.844 30.2563 150.444 30.3333 150.071 30.4854C149.698 30.6374 149.358 30.8614 149.072 31.1445C148.787 31.4276 148.56 31.7641 148.406 32.1346C148.252 32.5051 148.173 32.9024 148.174 33.3034V33.3033Z" fill="white"/>
<path d="M61.1393 11.5685C61.6588 11.5315 62.1801 11.6095 62.6656 11.7969C63.1511 11.9843 63.5886 12.2764 63.9467 12.6522C64.3049 13.028 64.5746 13.4781 64.7365 13.9701C64.8983 14.462 64.9483 14.9835 64.8828 15.497C64.8828 18.0227 63.5091 19.4746 61.1393 19.4746H58.2656V11.5685H61.1393ZM59.5013 18.3565H61.0013C61.3725 18.3786 61.744 18.3181 62.0887 18.1795C62.4334 18.0409 62.7427 17.8276 62.994 17.5552C63.2453 17.2829 63.4324 16.9582 63.5415 16.6049C63.6507 16.2517 63.6792 15.8787 63.625 15.5131C63.6753 15.1489 63.6439 14.7782 63.533 14.4275C63.4222 14.0769 63.2347 13.7549 62.984 13.4847C62.7332 13.2145 62.4254 13.0027 62.0826 12.8646C61.7399 12.7265 61.3706 12.6654 61.0013 12.6858H59.5013V18.3565Z" fill="white"/>
<path d="M66.2785 16.4888C66.2408 16.0967 66.2859 15.7011 66.411 15.3273C66.5362 14.9536 66.7385 14.61 67.0051 14.3185C67.2717 14.027 67.5966 13.7941 67.9591 13.6348C68.3216 13.4754 68.7136 13.3931 69.1099 13.3931C69.5063 13.3931 69.8983 13.4754 70.2607 13.6348C70.6232 13.7941 70.9481 14.027 71.2147 14.3185C71.4813 14.61 71.6837 14.9536 71.8088 15.3273C71.9339 15.7011 71.979 16.0967 71.9413 16.4888C71.9798 16.8813 71.9352 17.2774 71.8104 17.6518C71.6856 18.0261 71.4834 18.3704 71.2167 18.6624C70.95 18.9545 70.6248 19.1878 70.262 19.3475C69.8992 19.5073 69.5067 19.5898 69.1099 19.5898C68.7131 19.5898 68.3206 19.5073 67.9578 19.3475C67.595 19.1878 67.2698 18.9545 67.0031 18.6624C66.7365 18.3704 66.5342 18.0261 66.4095 17.6518C66.2847 17.2774 66.2401 16.8813 66.2785 16.4888ZM70.7225 16.4888C70.7225 15.1955 70.1379 14.4392 69.1119 14.4392C68.0819 14.4392 67.5025 15.1955 67.5025 16.4888C67.5025 17.7924 68.082 18.5429 69.1119 18.5429C70.1379 18.5429 70.7225 17.7872 70.7225 16.4888H70.7225Z" fill="white"/>
<path d="M79.4687 19.4744H78.2396L76.9987 15.0802H76.905L75.6693 19.4744H74.4518L72.7969 13.5081H73.9987L75.0742 18.0608H75.1628L76.3971 13.5081H77.5339L78.7682 18.0608H78.862L79.9323 13.5081H81.1172L79.4687 19.4744Z" fill="white"/>
<path d="M82.5093 13.508H83.6499V14.4558H83.7384C83.8887 14.1154 84.142 13.83 84.4632 13.6395C84.7843 13.4489 85.1573 13.3627 85.5301 13.3928C85.8222 13.371 86.1156 13.4148 86.3884 13.5209C86.6612 13.627 86.9064 13.7928 87.106 14.0059C87.3056 14.219 87.4544 14.474 87.5413 14.7521C87.6282 15.0301 87.6511 15.324 87.6082 15.6119V19.4743H86.4233V15.9076C86.4233 14.9488 86.0041 14.472 85.1278 14.472C84.9294 14.4628 84.7314 14.4964 84.5474 14.5703C84.3633 14.6443 84.1975 14.757 84.0613 14.9006C83.9251 15.0442 83.8218 15.2154 83.7585 15.4024C83.6951 15.5894 83.6732 15.7878 83.6942 15.984V19.4744H82.5093L82.5093 13.508Z" fill="white"/>
<path d="M89.4961 11.179H90.681V19.4744H89.4961V11.179Z" fill="white"/>
<path d="M92.3283 16.4886C92.2906 16.0965 92.3358 15.7009 92.4609 15.3271C92.5861 14.9534 92.7884 14.6097 93.055 14.3183C93.3217 14.0268 93.6466 13.7939 94.0091 13.6345C94.3716 13.4751 94.7636 13.3928 95.16 13.3928C95.5564 13.3928 95.9484 13.4751 96.3109 13.6345C96.6734 13.7939 96.9984 14.0268 97.265 14.3183C97.5316 14.6097 97.734 14.9534 97.8591 15.3271C97.9843 15.7009 98.0294 16.0965 97.9917 16.4886C98.0301 16.8811 97.9855 17.2773 97.8607 17.6516C97.7358 18.026 97.5336 18.3702 97.2669 18.6623C97.0002 18.9543 96.675 19.1877 96.3121 19.3474C95.9493 19.5071 95.5568 19.5896 95.16 19.5896C94.7632 19.5896 94.3707 19.5071 94.0079 19.3474C93.645 19.1877 93.3198 18.9543 93.0531 18.6623C92.7864 18.3702 92.5842 18.026 92.4594 17.6516C92.3345 17.2773 92.2899 16.8811 92.3283 16.4886ZM96.7723 16.4886C96.7723 15.1953 96.1877 14.439 95.1616 14.439C94.1317 14.439 93.5523 15.1953 93.5523 16.4886C93.5523 17.7923 94.1317 18.5428 95.1616 18.5428C96.1877 18.5428 96.7723 17.7871 96.7723 16.4886H96.7723Z" fill="white"/>
<path d="M99.2388 17.7871C99.2388 16.7131 100.043 16.0939 101.472 16.0059L103.098 15.9128V15.3978C103.098 14.7676 102.679 14.4118 101.869 14.4118C101.208 14.4118 100.749 14.6531 100.618 15.0749H99.4705C99.5916 14.0501 100.562 13.3928 101.924 13.3928C103.429 13.3928 104.278 14.1375 104.278 15.3978V19.4744H103.137V18.6359H103.043C102.853 18.9367 102.586 19.1818 102.269 19.3464C101.952 19.511 101.597 19.5891 101.24 19.5727C100.988 19.5987 100.733 19.572 100.492 19.4942C100.251 19.4164 100.029 19.2893 99.8408 19.1211C99.6522 18.9529 99.5012 18.7472 99.3975 18.5175C99.2938 18.2877 99.2398 18.0389 99.2388 17.7871ZM103.098 17.2772V16.7784L101.632 16.8716C100.805 16.9266 100.43 17.2061 100.43 17.7321C100.43 18.269 100.899 18.5815 101.543 18.5815C101.732 18.6005 101.923 18.5816 102.104 18.5258C102.286 18.47 102.454 18.3786 102.599 18.2569C102.744 18.1352 102.863 17.9858 102.949 17.8175C103.035 17.6492 103.085 17.4654 103.098 17.2772Z" fill="white"/>
<path d="M105.835 16.4887C105.835 14.6034 106.811 13.4091 108.328 13.4091C108.703 13.3919 109.075 13.4812 109.401 13.6666C109.727 13.8519 109.994 14.1257 110.169 14.4558H110.257V11.179H111.442V19.4744H110.307V18.5318H110.213C110.024 18.8597 109.749 19.1301 109.416 19.3136C109.084 19.497 108.708 19.5867 108.328 19.5728C106.8 19.5728 105.835 18.3785 105.835 16.4887ZM107.059 16.4887C107.059 17.7542 107.66 18.5157 108.664 18.5157C109.662 18.5157 110.28 17.7432 110.28 16.4939C110.28 15.2504 109.656 14.4669 108.664 14.4669C107.666 14.4669 107.059 15.2335 107.059 16.4887H107.059Z" fill="white"/>
<path d="M116.344 16.4888C116.307 16.0967 116.352 15.7011 116.477 15.3273C116.602 14.9536 116.804 14.61 117.071 14.3185C117.338 14.027 117.663 13.7941 118.025 13.6348C118.387 13.4754 118.779 13.3931 119.176 13.3931C119.572 13.3931 119.964 13.4754 120.327 13.6348C120.689 13.7941 121.014 14.027 121.281 14.3185C121.547 14.61 121.75 14.9536 121.875 15.3273C122 15.7011 122.045 16.0967 122.007 16.4888C122.046 16.8813 122.001 17.2774 121.876 17.6518C121.751 18.0261 121.549 18.3704 121.283 18.6624C121.016 18.9545 120.691 19.1878 120.328 19.3475C119.965 19.5073 119.573 19.5898 119.176 19.5898C118.779 19.5898 118.387 19.5073 118.024 19.3475C117.661 19.1878 117.336 18.9545 117.069 18.6624C116.802 18.3704 116.6 18.0261 116.475 17.6518C116.351 17.2774 116.306 16.8813 116.344 16.4888ZM120.788 16.4888C120.788 15.1955 120.204 14.4392 119.178 14.4392C118.148 14.4392 117.568 15.1955 117.568 16.4888C117.568 17.7924 118.148 18.5429 119.178 18.5429C120.204 18.5429 120.788 17.7872 120.788 16.4888Z" fill="white"/>
<path d="M123.597 13.508H124.738V14.4558H124.826C124.977 14.1154 125.23 13.83 125.551 13.6395C125.872 13.4489 126.245 13.3627 126.618 13.3928C126.91 13.371 127.203 13.4148 127.476 13.5209C127.749 13.627 127.994 13.7928 128.194 14.0059C128.393 14.219 128.542 14.474 128.629 14.7521C128.716 15.0301 128.739 15.324 128.696 15.6119V19.4743H127.511V15.9076C127.511 14.9488 127.092 14.472 126.216 14.472C126.017 14.4628 125.819 14.4964 125.635 14.5703C125.451 14.6443 125.285 14.757 125.149 14.9006C125.013 15.0442 124.91 15.2154 124.846 15.4024C124.783 15.5894 124.761 15.7878 124.782 15.984V19.4744H123.597V13.508Z" fill="white"/>
<path d="M135.391 12.0227V13.5353H136.692V14.5271H135.391V17.5951C135.391 18.2201 135.65 18.4937 136.24 18.4937C136.391 18.4932 136.542 18.4842 136.692 18.4665V19.4474C136.479 19.4852 136.264 19.5053 136.048 19.5075C134.73 19.5075 134.205 19.0469 134.205 17.8966V14.5271H133.252V13.5353H134.205V12.0227H135.391Z" fill="white"/>
<path d="M138.311 11.179H139.485V14.4669H139.579C139.736 14.1233 139.997 13.8363 140.324 13.645C140.652 13.4538 141.031 13.3675 141.409 13.3981C141.7 13.3824 141.991 13.4306 142.26 13.5393C142.53 13.648 142.772 13.8145 142.97 14.027C143.167 14.2394 143.315 14.4925 143.403 14.7683C143.491 15.0441 143.516 15.3357 143.477 15.6224V19.4744H142.291V15.9128C142.291 14.9599 141.844 14.4772 141.007 14.4772C140.804 14.4606 140.599 14.4884 140.407 14.5587C140.215 14.629 140.041 14.7401 139.897 14.8842C139.753 15.0283 139.643 15.2019 139.573 15.3928C139.504 15.5838 139.477 15.7876 139.495 15.9898V19.4744H138.311L138.311 11.179Z" fill="white"/>
<path d="M150.386 17.8635C150.225 18.4088 149.876 18.8805 149.401 19.196C148.925 19.5116 148.353 19.6509 147.784 19.5896C147.389 19.6 146.996 19.5247 146.632 19.369C146.269 19.2133 145.944 18.9808 145.68 18.6878C145.416 18.3948 145.22 18.0482 145.104 17.6722C144.989 17.2961 144.957 16.8996 145.011 16.51C144.958 16.1193 144.991 15.7219 145.106 15.3447C145.221 14.9675 145.417 14.6194 145.679 14.3238C145.942 14.0282 146.265 13.7921 146.627 13.6315C146.99 13.4709 147.382 13.3896 147.779 13.3929C149.45 13.3929 150.458 14.5271 150.458 16.4007V16.8115H146.218V16.8775C146.199 17.0965 146.227 17.3169 146.299 17.5246C146.371 17.7323 146.486 17.9227 146.637 18.0836C146.788 18.2445 146.97 18.3724 147.173 18.4591C147.377 18.5457 147.596 18.5892 147.817 18.5868C148.1 18.6206 148.388 18.5699 148.642 18.4411C148.896 18.3123 149.106 18.1112 149.245 17.8635L150.386 17.8635ZM146.218 15.9407H149.25C149.265 15.7405 149.238 15.5393 149.17 15.3502C149.102 15.1611 148.995 14.9882 148.856 14.8427C148.717 14.6971 148.549 14.5821 148.362 14.505C148.175 14.4279 147.975 14.3905 147.773 14.3951C147.568 14.3925 147.364 14.4308 147.174 14.5075C146.985 14.5843 146.812 14.6981 146.667 14.8421C146.522 14.9862 146.408 15.1576 146.331 15.3463C146.254 15.5349 146.215 15.737 146.218 15.9407H146.218Z" fill="white"/>
</g>
<defs>
<clipPath id="clip0_16841_359920">
<rect width="180" height="53" fill="white"/>
</clipPath>
</defs>
</svg>
