<svg width="32" height="32" viewBox="0 0 32 32" fill="none" xmlns="http://www.w3.org/2000/svg">
<g clip-path="url(#clip0_26840_65459)">
<path d="M29.4624 14.7988V24.6643C29.4624 27.6591 27.2043 29.9493 24.2514 29.9493H7.40257C4.44968 29.9493 2.19158 27.6591 2.19158 24.6643V14.7988H29.4624ZM29.4624 13.0371H2.19158C1.14939 13.0371 0.45459 13.7418 0.45459 14.7988V24.6643C0.45459 28.54 3.58118 31.711 7.40257 31.711H24.2514C28.0728 31.711 31.1994 28.54 31.1994 24.6643V14.7988C31.1994 13.7418 30.3309 13.0371 29.4624 13.0371Z" fill="#DB284E"/>
<path d="M26.3357 10.041V12.6835H5.31805V10.041H26.3357ZM26.3357 8.2793H5.31805C4.27585 8.2793 3.58105 8.98397 3.58105 10.041V14.4452H28.0727V10.041C28.0727 9.16014 27.3779 8.2793 26.3357 8.2793Z" fill="#DB284E"/>
<path d="M24.9465 9.16079C24.5991 9.16079 24.2517 8.80845 24.2517 8.45611C24.2517 7.57527 22.8622 6.16592 18.5197 6.16592C13.3087 6.16592 10.1821 4.93273 9.48729 2.46637C9.31359 1.76169 9.13989 1.58552 8.96619 1.58552C8.96619 1.58552 8.79249 1.76169 8.61879 2.11403C6.8818 4.75656 7.40289 8.10377 7.40289 8.27994C7.57659 8.63228 7.22919 9.16079 6.8818 9.16079C6.5344 9.16079 6.0133 8.98462 6.0133 8.45611C6.0133 8.27994 5.1448 4.40423 7.40289 1.05701C7.92399 0.176169 8.79249 0 9.13989 0C9.66099 0 10.3558 0.528507 10.8769 1.93786C11.398 3.52338 14.1772 4.40423 18.5197 4.40423C25.815 4.40423 25.815 8.10377 25.815 8.27994C25.815 8.80845 25.4676 9.16079 24.9465 9.16079Z" fill="#DB284E"/>
<path d="M8.09753 11.9789H5.14463C4.79723 11.9789 4.62354 11.8027 4.62354 11.4504C4.62354 11.098 4.79723 10.9219 5.14463 10.9219H8.27123C8.61862 10.9219 8.79232 11.098 8.79232 11.4504C8.61862 11.8027 8.44492 11.9789 8.09753 11.9789Z" fill="#DB284E"/>
<path d="M26.5096 11.9789H18.8668C18.5194 11.9789 18.3457 11.8027 18.3457 11.4504C18.3457 11.098 18.5194 10.9219 18.8668 10.9219H26.5096C26.857 10.9219 27.0307 11.098 27.0307 11.4504C27.2044 11.8027 26.857 11.9789 26.5096 11.9789Z" fill="#DB284E"/>
<path d="M22.6881 19.0254V24.3104H8.79217V19.0254H22.6881ZM22.6881 17.2637H8.79217C7.74997 17.2637 7.05518 17.9683 7.05518 19.0254V24.3104C7.05518 25.3674 7.74997 26.0721 8.79217 26.0721H22.6881C23.7303 26.0721 24.4251 25.3674 24.4251 24.3104V19.0254C24.4251 17.9683 23.7303 17.2637 22.6881 17.2637Z" fill="#DB284E"/>
</g>
<defs>
<clipPath id="clip0_26840_65459">
<rect width="30.7448" height="31.7104" fill="white" transform="translate(0.45459)"/>
</clipPath>
</defs>
</svg>
