<svg width="180" height="53" viewBox="0 0 180 53" fill="none" xmlns="http://www.w3.org/2000/svg">
<path fill-rule="evenodd" clip-rule="evenodd" d="M173.331 53H6.66912C2.99349 53 0 50.013 0 46.375V6.625C0 2.97382 2.99349 0 6.66912 0H173.331C177.003 0 180 2.97382 180 6.625V46.375C180 50.013 177.003 53 173.331 53Z" fill="black"/>
<path fill-rule="evenodd" clip-rule="evenodd" d="M173.331 1.06066C176.414 1.06066 178.937 3.56197 178.937 6.625V46.375C178.937 49.438 176.43 51.9393 173.331 51.9393H6.66912C3.58622 51.9393 1.06295 49.438 1.06295 46.375V6.625C1.06295 3.56197 3.56967 1.06066 6.66912 1.06066H173.331ZM173.331 0H6.66912C2.99349 0 0 2.98703 0 6.625V46.375C0 50.0262 2.99349 53 6.66912 53H173.331C177.003 53 180 50.0262 180 46.375V6.625C180 2.98703 177.003 0 173.331 0Z" fill="#A6A6A6"/>
<path d="M94.8245 17.5322C93.6225 17.5322 92.6092 17.1126 91.8079 16.2866C91.0132 15.4836 90.5694 14.3767 90.5893 13.2466C90.5893 12.0406 90.9999 11.0196 91.8079 10.2101C92.6059 9.38399 93.6192 8.96436 94.8212 8.96436C96.01 8.96436 97.0233 9.38399 97.8379 10.2101C98.6459 11.046 99.0565 12.067 99.0565 13.2466C99.0432 14.456 98.6326 15.477 97.8379 16.2832C97.0398 17.1159 96.0266 17.5322 94.8245 17.5322ZM59.0585 17.5322C57.883 17.5322 56.8631 17.1192 56.0287 16.3031C55.2008 15.4902 54.7803 14.4626 54.7803 13.25C54.7803 12.0373 55.2008 11.0097 56.0287 10.1968C56.8466 9.38069 57.8665 8.96766 59.0585 8.96766C59.6413 8.96766 60.2076 9.08331 60.7507 9.31791C61.2838 9.5459 61.7176 9.8565 62.0388 10.2365L62.1182 10.3323L61.2209 11.2112L61.1281 11.1022C60.6215 10.5008 59.9427 10.2067 59.0453 10.2067C58.244 10.2067 57.5453 10.4909 56.9691 11.0526C56.3896 11.6177 56.0949 12.3578 56.0949 13.2533C56.0949 14.1487 56.3896 14.8889 56.9691 15.4539C57.5453 16.0156 58.244 16.2998 59.0453 16.2998C59.8996 16.2998 60.6182 16.0156 61.1778 15.4539C61.509 15.1235 61.7143 14.6609 61.7871 14.076H58.9095V12.8402H63.0222L63.0388 12.9526C63.0686 13.1607 63.0984 13.3755 63.0984 13.5738C63.0984 14.7137 62.754 15.6356 62.0719 16.3163C61.297 17.1225 60.2838 17.5322 59.0585 17.5322ZM106.613 17.3571H105.345L101.461 11.1551L101.494 12.2719V17.3538H100.225V9.14279H101.672L101.712 9.20557L105.365 15.0475L105.331 13.9339V9.14279H106.613V17.3571ZM85.2945 17.3571H84.0096V10.3786H81.7811V9.14279H87.5197V10.3786H85.2911V17.3571H85.2945ZM80.7347 17.3571H79.4532V9.14279H80.7347V17.3571ZM73.5325 17.3571H72.251V10.3786H70.0225V9.14279H75.761V10.3786H73.5325V17.3571ZM69.2112 17.3439H64.2971V9.14279H69.2112V10.3786H65.5819V12.6321H68.8569V13.8546H65.5819V16.1081H69.2112V17.3439ZM92.7483 15.4374C93.3212 16.009 94.0166 16.2965 94.8245 16.2965C95.6557 16.2965 96.3345 16.0156 96.9008 15.4374C97.4637 14.8756 97.7485 14.1388 97.7485 13.25C97.7485 12.3611 97.4637 11.621 96.9041 11.0625C96.3312 10.4909 95.6325 10.2034 94.8279 10.2034C93.9967 10.2034 93.3179 10.4843 92.7549 11.0625C92.192 11.6243 91.9072 12.3611 91.9072 13.25C91.9072 14.1388 92.1887 14.8789 92.7483 15.4374Z" fill="white"/>
<path fill-rule="evenodd" clip-rule="evenodd" d="M90.4701 28.8261C87.3408 28.8261 84.8043 31.1952 84.8043 34.4631C84.8043 37.7013 87.3574 40.1002 90.4701 40.1002C93.5993 40.1002 96.1359 37.7145 96.1359 34.4631C96.1359 31.1952 93.5993 28.8261 90.4701 28.8261ZM90.4701 37.8665C88.7581 37.8665 87.2845 36.4523 87.2845 34.4499C87.2845 32.4178 88.7614 31.0333 90.4701 31.0333C92.1821 31.0333 93.6556 32.4178 93.6556 34.4499C93.659 36.4655 92.1821 37.8665 90.4701 37.8665ZM78.1087 28.8261C74.9794 28.8261 72.4429 31.1952 72.4429 34.4631C72.4429 37.7013 74.996 40.1002 78.1087 40.1002C81.238 40.1002 83.7745 37.7145 83.7745 34.4631C83.7745 31.1952 81.2346 28.8261 78.1087 28.8261ZM78.1087 37.8665C76.3967 37.8665 74.9231 36.4523 74.9231 34.4499C74.9231 32.4178 76.4 31.0333 78.1087 31.0333C79.8207 31.0333 81.2942 32.4178 81.2942 34.4499C81.2942 36.4655 79.8207 37.8665 78.1087 37.8665ZM63.3995 30.5476V32.9333H69.1381C68.9626 34.2715 68.5189 35.2594 67.8401 35.9368C66.999 36.7761 65.7009 37.6881 63.4128 37.6881C59.8861 37.6881 57.1278 34.8464 57.1278 31.3274C57.1278 27.8084 59.8861 24.9667 63.4128 24.9667C65.3168 24.9667 66.7043 25.7168 67.7341 26.675L69.4296 24.9833C67.999 23.6153 66.095 22.5679 63.426 22.5679C58.5881 22.5679 54.5283 26.4999 54.5283 31.3142C54.5283 36.1417 58.5848 40.0605 63.426 40.0605C66.0387 40.0605 67.999 39.208 69.5488 37.6022C71.1283 36.026 71.6283 33.8023 71.6283 32.0081C71.6283 31.4497 71.5853 30.9474 71.4959 30.5212H63.3962C63.3995 30.5179 63.3995 30.5476 63.3995 30.5476ZM123.564 32.4046C123.091 31.1391 121.66 28.8129 118.726 28.8129C115.819 28.8129 113.401 31.0961 113.401 34.4499C113.401 37.6154 115.792 40.0869 119.008 40.0869C121.59 40.0869 123.094 38.5108 123.713 37.5856L121.796 36.3036C121.16 37.2453 120.276 37.8632 119.021 37.8632C117.753 37.8632 116.865 37.2883 116.276 36.1549L123.829 33.0324C123.829 33.0357 123.564 32.4046 123.564 32.4046ZM115.862 34.288C115.802 32.1105 117.557 31.0036 118.812 31.0036C119.802 31.0036 120.627 31.4893 120.908 32.1964L115.862 34.288ZM109.726 39.7499H112.206V23.1891H109.726V39.7499ZM105.653 30.0784H105.563C105.004 29.4143 103.941 28.8129 102.583 28.8129C99.7651 28.8129 97.169 31.2878 97.169 34.4664C97.169 37.6319 99.7519 40.077 102.583 40.077C103.924 40.077 105.004 39.4724 105.563 38.795H105.653V39.6045C105.653 41.7556 104.5 42.9154 102.643 42.9154C101.123 42.9154 100.179 41.825 99.7949 40.913L97.6392 41.8118C98.2585 43.2987 99.9109 45.1391 102.639 45.1391C105.547 45.1391 108.01 43.4308 108.01 39.2642V29.1499H105.666V30.0784C105.669 30.0784 105.653 30.0784 105.653 30.0784ZM102.805 37.8665C101.093 37.8665 99.6625 36.4391 99.6625 34.4664C99.6625 32.4773 101.093 31.0366 102.805 31.0366C104.5 31.0366 105.815 32.4938 105.815 34.4664C105.832 36.4391 104.504 37.8665 102.805 37.8665ZM135.177 23.1891H129.246V39.7499H131.727V33.4785H135.18C137.926 33.4785 140.624 31.4926 140.624 28.3404C140.624 25.1881 137.935 23.1891 135.177 23.1891ZM135.25 31.1655H131.723V25.4822H135.25C137.108 25.4822 138.157 27.0121 138.157 28.3239C138.157 29.6224 137.094 31.1655 135.25 31.1655ZM150.565 28.7964C148.764 28.7964 146.906 29.5927 146.138 31.3274L148.337 32.2394C148.81 31.3274 149.678 31.0168 150.595 31.0168C151.88 31.0168 153.178 31.7834 153.208 33.1513V33.3265C152.764 33.0753 151.79 32.6921 150.625 32.6921C148.25 32.6921 145.843 33.9873 145.843 36.4159C145.843 38.6397 147.79 40.0671 149.959 40.0671C151.625 40.0671 152.542 39.3171 153.115 38.448H153.204V39.7301H155.595V33.3859C155.595 30.432 153.396 28.7964 150.565 28.7964ZM150.254 37.8665C149.443 37.8665 148.307 37.47 148.307 36.4523C148.307 35.1702 149.724 34.6845 150.933 34.6845C152.025 34.6845 152.542 34.9191 153.191 35.2429C153.012 36.7298 151.754 37.8533 150.254 37.8665ZM164.317 29.1499L161.469 36.3333H161.38L158.43 29.1499H155.761L160.188 39.1915L157.665 44.7724H160.248L167.059 29.1499H164.317ZM141.992 39.7499H144.472V23.1891H141.992V39.7499Z" fill="white"/>
<path fill-rule="evenodd" clip-rule="evenodd" d="M13.855 9.98204C13.4709 10.3951 13.249 11.0262 13.249 11.8522V41.1509C13.249 41.977 13.4709 42.6081 13.8683 43.0046L13.9709 43.0938L30.4218 26.6784V26.3116L13.9577 9.89282L13.855 9.98204Z" fill="url(#paint0_linear_16841_359919)"/>
<path fill-rule="evenodd" clip-rule="evenodd" d="M35.8952 32.1668L30.4082 26.6917V26.3084L35.8952 20.8333L36.0144 20.9059L42.5047 24.5869C44.3624 25.631 44.3624 27.3558 42.5047 28.4132L36.0144 32.0941L35.8952 32.1668Z" fill="url(#paint1_linear_16841_359919)"/>
<path fill-rule="evenodd" clip-rule="evenodd" d="M36.0147 32.0941L30.4086 26.5L13.855 43.0179C14.461 43.6655 15.4776 43.7382 16.6134 43.1071L36.0147 32.0941Z" fill="url(#paint2_linear_16841_359919)"/>
<path fill-rule="evenodd" clip-rule="evenodd" d="M36.0147 20.906L16.6134 9.90948C15.4776 9.26185 14.4577 9.35106 13.855 9.99869L30.4086 26.5001L36.0147 20.906Z" fill="url(#paint3_linear_16841_359919)"/>
<path opacity="0.2" fill-rule="evenodd" clip-rule="evenodd" d="M35.8956 31.9751L16.6266 42.8989C15.5504 43.5168 14.59 43.4738 13.9708 42.9121L13.8682 43.0145L13.9708 43.1037C14.59 43.6621 15.5504 43.7084 16.6266 43.0905L36.028 32.094L35.8956 31.9751Z" fill="black"/>
<path opacity="0.12" fill-rule="evenodd" clip-rule="evenodd" d="M42.505 28.2215L35.8789 31.9751L35.9981 32.0941L42.4884 28.4132C43.4189 27.8845 43.8759 27.1906 43.8759 26.5C43.8196 27.1344 43.3461 27.7358 42.505 28.2215Z" fill="black"/>
<path opacity="0.25" fill-rule="evenodd" clip-rule="evenodd" d="M16.6134 10.101L42.5051 24.7785C43.3462 25.251 43.8197 25.8689 43.8925 26.5C43.8925 25.8094 43.4356 25.1155 42.5051 24.5868L16.6134 9.90939C14.7557 8.84873 13.249 9.73427 13.249 11.8523V12.0439C13.249 9.92261 14.7557 9.05359 16.6134 10.101Z" fill="white"/>
<defs>
<linearGradient id="paint0_linear_16841_359919" x1="28.9462" y1="11.5361" x2="2.60221" y2="18.5707" gradientUnits="userSpaceOnUse">
<stop stop-color="#00A0FF"/>
<stop offset="0.00657" stop-color="#00A1FF"/>
<stop offset="0.2601" stop-color="#00BEFF"/>
<stop offset="0.5122" stop-color="#00D2FF"/>
<stop offset="0.7604" stop-color="#00DFFF"/>
<stop offset="1" stop-color="#00E3FF"/>
</linearGradient>
<linearGradient id="paint1_linear_16841_359919" x1="44.9273" y1="26.5001" x2="12.797" y2="26.5001" gradientUnits="userSpaceOnUse">
<stop stop-color="#FFE000"/>
<stop offset="0.4087" stop-color="#FFBD00"/>
<stop offset="0.7754" stop-color="#FFA500"/>
<stop offset="1" stop-color="#FF9C00"/>
</linearGradient>
<linearGradient id="paint2_linear_16841_359919" x1="32.9663" y1="29.544" x2="11.8789" y2="65.1126" gradientUnits="userSpaceOnUse">
<stop stop-color="#FF3A44"/>
<stop offset="1" stop-color="#C31162"/>
</linearGradient>
<linearGradient id="paint3_linear_16841_359919" x1="9.68661" y1="0.236963" x2="19.0945" y2="16.1224" gradientUnits="userSpaceOnUse">
<stop stop-color="#32A071"/>
<stop offset="0.0685" stop-color="#2DA771"/>
<stop offset="0.4762" stop-color="#15CF74"/>
<stop offset="0.8009" stop-color="#06E775"/>
<stop offset="1" stop-color="#00F076"/>
</linearGradient>
</defs>
</svg>
