<svg width="14" height="20" viewBox="0 0 14 20" fill="none" xmlns="http://www.w3.org/2000/svg">
<path d="M6.00126 5.14872L6.53469 7.70583H6.93278C6.9595 6.80464 7.06203 5.90722 7.2393 5.02283L5.84203 3.73248C5.78028 3.67064 5.74566 3.58725 5.74566 3.50037C5.74566 3.41349 5.78028 3.33011 5.84203 3.26827C5.90509 3.20817 5.98929 3.17459 6.07689 3.17459C6.1645 3.17459 6.2487 3.20817 6.31176 3.26827L7.41446 4.29111C7.62852 3.36506 7.90922 2.4553 8.25442 1.56877C8.28872 1.48886 8.35346 1.42549 8.43465 1.39236C8.51585 1.35924 8.60697 1.35902 8.68833 1.39174C8.72857 1.4077 8.76519 1.43142 8.79605 1.46152C8.82691 1.49162 8.85139 1.5275 8.86807 1.56705C8.88475 1.6066 8.89328 1.64904 8.89318 1.69189C8.89307 1.73474 8.88433 1.77714 8.86747 1.81662C8.86747 1.81662 8.64454 2.36344 8.39374 3.20925L9.18991 3.00862C9.23226 2.99829 9.27625 2.9963 9.31937 3.00277C9.36249 3.00923 9.4039 3.02403 9.44124 3.04632C9.47857 3.0686 9.5111 3.09793 9.53697 3.13264C9.56283 3.16735 9.58152 3.20675 9.59198 3.2486C9.60243 3.29044 9.60445 3.33391 9.5979 3.37653C9.59136 3.41914 9.57638 3.46007 9.55383 3.49696C9.53129 3.53386 9.5016 3.566 9.46648 3.59156C9.43136 3.61712 9.39149 3.6356 9.34915 3.64593L8.25442 3.91738H8.18276C8.05139 4.43273 7.92003 5.01497 7.81652 5.64047L8.02751 5.55392L8.11111 5.52245C8.1924 5.49011 8.28337 5.491 8.364 5.52494C8.44462 5.55888 8.50831 5.62308 8.54104 5.70342C8.57377 5.78376 8.57286 5.87365 8.53852 5.95333C8.50418 6.03301 8.43921 6.09594 8.35792 6.12829L7.92799 6.30139L7.70506 6.38793C7.65331 6.81674 7.61748 7.25735 7.60554 7.70583H8.77591L9.48848 4.09047C9.56618 3.72147 9.72622 3.37425 9.95692 3.07412C10.1876 2.77399 10.4832 2.52851 10.8221 2.35558C10.679 2.00828 10.4188 1.72057 10.0856 1.54124C10.0856 1.54124 10.428 0.420043 9.65169 0.0777841C9.60662 0.0573012 9.56004 0.0402053 9.51236 0.026642C9.49786 0.0243611 9.48308 0.0243611 9.46857 0.026642C9.44007 0.0164502 9.41079 0.00855617 9.381 0.00303775H9.33322H9.25759H9.14214C9.09313 -0.00101258 9.04386 -0.00101258 8.99485 0.00303775H8.96301L8.84756 0.0345098H8.82766C8.78733 0.0454296 8.74855 0.061289 8.71221 0.0817182H8.68833L8.60075 0.128926L8.52511 0.184002L8.47336 0.223342L8.43753 0.258749C8.34703 0.239973 8.2552 0.228136 8.16286 0.223342H8.08722H7.99566H7.92799H7.82449L7.70108 0.243013L7.6135 0.262683C7.57512 0.270312 7.53773 0.282189 7.50204 0.298088L7.43436 0.321693C7.39821 0.336839 7.36356 0.355277 7.33086 0.376769L7.27911 0.408241L7.17561 0.486921H7.15172C7.11409 0.522054 7.07947 0.560214 7.04822 0.601007L7.02434 0.636413C7.00175 0.663365 6.98176 0.692339 6.96462 0.722961C6.95689 0.740793 6.94756 0.757908 6.93676 0.774103L6.90093 0.84885L6.87705 0.903926L6.85316 0.974738C6.8514 0.993055 6.8514 1.0115 6.85316 1.02981C6.85087 1.05205 6.85087 1.07446 6.85316 1.09669V1.1439V1.20684C6.8554 1.22118 6.8554 1.23578 6.85316 1.25012C6.85316 1.26979 6.85316 1.28946 6.85316 1.30519C6.85123 1.31692 6.85123 1.32888 6.85316 1.3406C6.85137 1.35497 6.85137 1.3695 6.85316 1.38387V1.40748C6.85316 1.40748 6.85316 1.43502 6.85316 1.44289V1.47042H6.73373H6.61431H6.47896L6.33963 1.49009L6.22817 1.5137L6.10874 1.5491L6.0132 1.59238C5.98011 1.60705 5.94818 1.62415 5.91766 1.64352L5.83406 1.69466L5.75445 1.75761L5.69075 1.81662C5.66687 1.84022 5.64697 1.86776 5.62706 1.89136L5.57133 1.95824L5.52356 2.03692L5.48375 2.11167C5.46887 2.13842 5.45558 2.166 5.44394 2.19428C5.44394 2.22182 5.44394 2.24542 5.41608 2.26903C5.40499 2.29728 5.39569 2.32619 5.38821 2.35558C5.37923 2.37982 5.37256 2.40485 5.36831 2.43032C5.36831 2.45786 5.36831 2.4854 5.36831 2.51294V2.58375V2.66243C5.36831 2.68603 5.36831 2.7057 5.36831 2.72931C5.36831 2.75291 5.36831 2.77651 5.36831 2.80012V2.85913C5.3663 2.88006 5.3663 2.90114 5.36831 2.92207C5.36631 2.93775 5.36631 2.95361 5.36831 2.96928V3.05583C5.37006 3.06888 5.37006 3.08211 5.36831 3.09517V3.12664C5.13519 3.16967 4.91721 3.27128 4.73535 3.42169C5.07682 3.58042 5.37202 3.82207 5.59339 4.12408C5.81476 4.42609 5.95509 4.7786 6.00126 5.14872Z" fill="#30C495"/>
<path d="M12.3785 2.78092C12.116 2.72602 11.8448 2.72602 11.5823 2.78092C11.23 2.86391 10.9086 3.044 10.6556 3.30026C10.4027 3.55652 10.2285 3.87844 10.1532 4.22863L9.42871 7.69449H13.3021L13.8673 4.98396C13.9635 4.49691 13.861 3.99203 13.5821 3.57936C13.3032 3.1667 12.8706 2.8797 12.3785 2.78092ZM12.7766 7.28929C12.752 7.34971 12.7096 7.40148 12.655 7.43793C12.6004 7.47439 12.536 7.49386 12.4701 7.49386C12.4261 7.4942 12.3825 7.48479 12.3427 7.46632L11.1484 6.99424L10.5155 6.73066L10.2328 6.61657C10.1515 6.58423 10.0866 6.5213 10.0522 6.44162C10.0179 6.36194 10.017 6.27204 10.0497 6.1917C10.0825 6.11136 10.1461 6.04716 10.2268 6.01322C10.3074 5.97929 10.3984 5.97839 10.4797 6.01074L11.0569 6.24284L11.6898 6.49462L12.6014 6.86048C12.6809 6.89584 12.7432 6.96043 12.7752 7.04052C12.8071 7.12061 12.8062 7.20986 12.7726 7.28929H12.7766ZM13.3021 5.56226C13.2774 5.62268 13.2351 5.67445 13.1805 5.7109C13.1259 5.74736 13.0615 5.76683 12.9955 5.76683C12.9528 5.76712 12.9106 5.7577 12.8721 5.73929L12.0441 5.40883L11.3753 5.14132L10.7424 4.87774C10.7021 4.86147 10.6655 4.83752 10.6346 4.80726C10.6037 4.777 10.5792 4.74103 10.5624 4.70139C10.5456 4.66176 10.5368 4.61924 10.5366 4.57626C10.5364 4.53328 10.5448 4.49068 10.5613 4.4509C10.5777 4.41112 10.602 4.37494 10.6326 4.34441C10.6632 4.31389 10.6996 4.28962 10.7397 4.273C10.7798 4.25638 10.8228 4.24773 10.8663 4.24754C10.9098 4.24735 10.9529 4.25563 10.9932 4.27191L11.1564 4.33485L11.9526 4.65744L13.107 5.12165C13.1503 5.13633 13.19 5.15972 13.2236 5.19036C13.2573 5.22099 13.2841 5.2582 13.3025 5.29962C13.3208 5.34104 13.3302 5.38577 13.3302 5.43098C13.3301 5.47619 13.3205 5.52089 13.3021 5.56226Z" fill="#30C495"/>
<path d="M0.563438 7.70542H5.83805L5.34045 5.27027C5.32325 5.18719 5.29929 5.10562 5.26879 5.02636V4.99095C5.23696 4.91951 5.20107 4.8499 5.16131 4.78245C5.15999 4.77069 5.15999 4.75881 5.16131 4.74705C5.12037 4.68154 5.07375 4.61968 5.02198 4.56215L4.99809 4.53461C4.94366 4.47558 4.88514 4.42037 4.82294 4.36938C4.76146 4.31995 4.69625 4.27524 4.62788 4.23562H4.60001C4.53158 4.20017 4.46113 4.16865 4.38903 4.14121H4.34922L4.2696 4.1176L4.12629 4.0822H4.08648C4.006 4.07025 3.92495 4.06237 3.84365 4.05859H3.74811H3.69238H3.61276H3.53713L1.26008 4.50314C0.852759 4.58385 0.494475 4.82097 0.263861 5.16246C0.033247 5.50394 -0.0508574 5.92189 0.0300049 6.32458L0.328568 7.82344C0.38979 7.75726 0.473258 7.71532 0.563438 7.70542Z" fill="#30C495"/>
<path d="M0.563255 4.04769V4.09096L3.74793 3.46545L3.90716 3.43398V3.37891L3.88328 3.26482L3.74793 2.54883C3.72746 2.44374 3.68613 2.34369 3.62632 2.25447C3.56651 2.16524 3.48942 2.08861 3.39948 2.02899C3.30954 1.96937 3.20854 1.92795 3.10232 1.90711C2.99609 1.88627 2.88674 1.88643 2.78058 1.90759L1.04892 2.24591C0.94293 2.26659 0.842122 2.30776 0.752284 2.36706C0.662446 2.42635 0.585349 2.50261 0.525423 2.59144C0.465497 2.68027 0.423923 2.77993 0.403089 2.88469C0.382255 2.98944 0.382572 3.09724 0.404022 3.20187L0.563255 4.04769Z" fill="#30C495"/>
<path d="M13.4691 8.45767C13.3926 8.39953 13.2989 8.36775 13.2024 8.36719H0.611004C0.544804 8.36702 0.479442 8.38182 0.419923 8.41046C0.324141 8.45644 0.247969 8.5345 0.204958 8.63077C0.177306 8.6871 0.163658 8.74914 0.165149 8.81173V18.1904C0.165149 18.4281 0.212515 18.6634 0.304541 18.8829C0.396566 19.1025 0.53145 19.302 0.701492 19.47C0.871533 19.6381 1.0734 19.7714 1.29557 19.8623C1.51774 19.9532 1.75586 20.0001 1.99634 20.0001H11.8131C12.2984 19.999 12.7636 19.808 13.1068 19.4689C13.45 19.1297 13.6432 18.67 13.6443 18.1904V8.81173C13.6481 8.77643 13.6481 8.74082 13.6443 8.70551C13.619 8.60432 13.5565 8.516 13.4691 8.45767ZM12.7605 18.1904C12.7605 18.4391 12.6608 18.6776 12.4833 18.8539C12.3057 19.0301 12.0647 19.1296 11.8131 19.1306H10.6387C10.8173 18.8487 10.9124 18.523 10.9134 18.1904V9.23661H12.7645V18.1904H12.7605ZM1.05288 18.1904V9.23661H10.0257V18.1904C10.0257 18.4391 9.926 18.6776 9.74844 18.8539C9.57087 19.0301 9.3299 19.1296 9.07825 19.1306H2.00032C1.74868 19.1296 1.5077 19.0301 1.33013 18.8539C1.15257 18.6776 1.05287 18.4391 1.05288 18.1904Z" fill="#545454"/>
</svg>
