<svg width="13" height="11" viewBox="0 0 13 11" fill="none" xmlns="http://www.w3.org/2000/svg">
<path d="M10.2197 1.06762C10.427 0.870206 10.703 0.761064 10.9893 0.76323C11.2756 0.765397 11.5498 0.878702 11.7542 1.07924C11.9585 1.27977 12.077 1.55185 12.0846 1.83806C12.0921 2.12427 11.9882 2.40223 11.7948 2.61329L5.92124 9.95886C5.82025 10.0676 5.69835 10.1549 5.56284 10.2155C5.42734 10.2761 5.281 10.3088 5.13259 10.3115C4.98418 10.3143 4.83673 10.2871 4.69908 10.2315C4.56142 10.176 4.43637 10.0933 4.33142 9.9883L0.436354 6.09323C0.327882 5.99216 0.240881 5.87027 0.180538 5.73484C0.120195 5.59941 0.0877483 5.45322 0.0851328 5.30498C0.0825172 5.15674 0.109787 5.00949 0.165314 4.87202C0.220842 4.73454 0.30349 4.60966 0.408328 4.50482C0.513166 4.39999 0.638047 4.31734 0.775519 4.26181C0.912992 4.20628 1.06024 4.17901 1.20848 4.18163C1.35672 4.18424 1.50292 4.21669 1.63835 4.27703C1.77377 4.33738 1.89566 4.42438 1.99674 4.53285L5.07923 7.61387L10.1917 1.10001C10.2009 1.08868 10.2107 1.07786 10.2211 1.06762H10.2197Z" fill="white"/>
</svg>
