<svg width="210" height="210" viewBox="0 0 210 210" fill="none" xmlns="http://www.w3.org/2000/svg">
<g clip-path="url(#clip0_26128_727759)">
<g clip-path="url(#clip1_26128_727759)">
<path d="M158.72 181.49C172.173 170.807 182.004 156.234 186.873 139.759C191.742 123.285 191.412 105.709 185.927 89.4289C180.442 73.1488 170.069 58.9564 156.224 48.7866C142.378 38.6168 125.733 32.9645 108.558 32.6003C91.3822 32.2362 74.5124 37.1778 60.2482 46.7516C45.9839 56.3254 35.0194 70.0654 28.8494 86.0984C22.6793 102.131 21.6041 119.677 25.7702 136.344C29.9364 153.01 39.1412 167.986 52.1297 179.23" fill="#FCEFF2"/>
<path d="M156.49 180.37C167.31 180.37 176.08 171.93 176.08 161.52C176.08 151.109 167.31 142.67 156.49 142.67C145.671 142.67 136.9 151.109 136.9 161.52C136.9 171.93 145.671 180.37 156.49 180.37Z" fill="#EB92A7"/>
<path d="M176.07 180.36C181.477 180.36 185.86 176.143 185.86 170.94C185.86 165.737 181.477 161.52 176.07 161.52C170.663 161.52 166.28 165.737 166.28 170.94C166.28 176.143 170.663 180.36 176.07 180.36Z" fill="#EB92A7"/>
<path d="M136.9 180.36C143.544 180.36 148.93 175.176 148.93 168.78C148.93 162.385 143.544 157.2 136.9 157.2C130.256 157.2 124.87 162.385 124.87 168.78C124.87 175.176 130.256 180.36 136.9 180.36Z" fill="#A0E8CB"/>
<path d="M210.19 181.83H102.78C102.78 181.83 145.42 164.92 210.19 181.83Z" fill="#EB92A7"/>
<path d="M87.3202 179.55C104.071 179.55 117.65 166.486 117.65 150.37C117.65 134.254 104.071 121.19 87.3202 121.19C70.5694 121.19 56.9902 134.254 56.9902 150.37C56.9902 166.486 70.5694 179.55 87.3202 179.55Z" fill="#A0E8CB"/>
<path d="M117.65 179.55C126.023 179.55 132.81 173.018 132.81 164.96C132.81 156.902 126.023 150.37 117.65 150.37C109.278 150.37 102.49 156.902 102.49 164.96C102.49 173.018 109.278 179.55 117.65 179.55Z" fill="#A0E8CB"/>
<path d="M56.9904 179.56C67.2794 179.56 75.6203 171.533 75.6203 161.63C75.6203 151.728 67.2794 143.7 56.9904 143.7C46.7013 143.7 38.3604 151.728 38.3604 161.63C38.3604 171.533 46.7013 179.56 56.9904 179.56Z" fill="#EB92A7"/>
<path d="M170.47 181.83H4.16016C4.16016 181.83 70.1802 155.65 170.47 181.83Z" fill="#EB92A7"/>
<path d="M39.56 180.62C46.6127 180.62 52.33 174.594 52.33 167.16C52.33 159.726 46.6127 153.7 39.56 153.7C32.5074 153.7 26.79 159.726 26.79 167.16C26.79 174.594 32.5074 180.62 39.56 180.62Z" fill="#F3BDCA"/>
<path d="M52.0297 180.62C55.5146 180.62 58.3397 178.113 58.3397 175.02C58.3397 171.927 55.5146 169.42 52.0297 169.42C48.5448 169.42 45.7197 171.927 45.7197 175.02C45.7197 178.113 48.5448 180.62 52.0297 180.62Z" fill="#B6EFDA"/>
<path d="M26.79 180.63C31.0702 180.63 34.54 177.545 34.54 173.74C34.54 169.935 31.0702 166.85 26.79 166.85C22.5098 166.85 19.04 169.935 19.04 173.74C19.04 177.545 22.5098 180.63 26.79 180.63Z" fill="#F3BDCA"/>
<path d="M73.9996 181.5H4.80957C4.80957 181.5 32.2796 171.44 73.9996 181.5Z" fill="#F3BDCA"/>
<path d="M54.2295 180.1C60.9729 180.1 66.4395 175.242 66.4395 169.25C66.4395 163.258 60.9729 158.4 54.2295 158.4C47.4861 158.4 42.0195 163.258 42.0195 169.25C42.0195 175.242 47.4861 180.1 54.2295 180.1Z" fill="#F3BDCA"/>
<path d="M66.4401 180.1C69.8145 180.1 72.5501 177.673 72.5501 174.68C72.5501 171.686 69.8145 169.26 66.4401 169.26C63.0656 169.26 60.3301 171.686 60.3301 174.68C60.3301 177.673 63.0656 180.1 66.4401 180.1Z" fill="#B6EFDA"/>
<path d="M42.0195 180.1C46.1617 180.1 49.5195 177.118 49.5195 173.44C49.5195 169.762 46.1617 166.78 42.0195 166.78C37.8774 166.78 34.5195 169.762 34.5195 173.44C34.5195 177.118 37.8774 180.1 42.0195 180.1Z" fill="#F3BDCA"/>
<path d="M87 181.27H20C20 181.27 46.63 171.53 87 181.27Z" fill="#F3BDCA"/>
<path d="M133.02 180.55C142.232 180.55 149.7 173.337 149.7 164.44C149.7 155.543 142.232 148.33 133.02 148.33C123.808 148.33 116.34 155.543 116.34 164.44C116.34 173.337 123.808 180.55 133.02 180.55Z" fill="#F3BDCA"/>
<path d="M144.13 180.56C147.968 180.56 151.08 177.556 151.08 173.85C151.08 170.144 147.968 167.14 144.13 167.14C140.291 167.14 137.18 170.144 137.18 173.85C137.18 177.556 140.291 180.56 144.13 180.56Z" fill="#B6EFDA"/>
<path d="M116.34 180.55C121.051 180.55 124.87 176.861 124.87 172.31C124.87 167.759 121.051 164.07 116.34 164.07C111.629 164.07 107.81 167.759 107.81 172.31C107.81 176.861 111.629 180.55 116.34 180.55Z" fill="#B6EFDA"/>
<path d="M168.33 181.6H92.1396C92.1396 181.6 122.38 169.56 168.33 181.6Z" fill="#F3BDCA"/>
<path d="M155.57 180.59C162.998 180.59 169.02 174.774 169.02 167.6C169.02 160.426 162.998 154.61 155.57 154.61C148.142 154.61 142.12 160.426 142.12 167.6C142.12 174.774 148.142 180.59 155.57 180.59Z" fill="#F3BDCA"/>
<path d="M169.02 180.59C172.731 180.59 175.74 177.684 175.74 174.1C175.74 170.516 172.731 167.61 169.02 167.61C165.308 167.61 162.3 170.516 162.3 174.1C162.3 177.684 165.308 180.59 169.02 180.59Z" fill="#F3BDCA"/>
<path d="M142.13 180.59C146.692 180.59 150.39 177.017 150.39 172.61C150.39 168.203 146.692 164.63 142.13 164.63C137.568 164.63 133.87 168.203 133.87 172.61C133.87 177.017 137.568 180.59 142.13 180.59Z" fill="#F3BDCA"/>
<path d="M192.44 181.6H118.71C118.71 181.6 148 170 192.44 181.6Z" fill="#F3BDCA"/>
<path d="M26.6597 72.5701C33.254 72.5701 38.5997 67.8198 38.5997 61.9601C38.5997 56.1004 33.254 51.3501 26.6597 51.3501C20.0654 51.3501 14.7197 56.1004 14.7197 61.9601C14.7197 67.8198 20.0654 72.5701 26.6597 72.5701Z" fill="#F3BDCA"/>
<path d="M38.5999 72.56C41.897 72.56 44.5699 70.1871 44.5699 67.26C44.5699 64.3329 41.897 61.96 38.5999 61.96C35.3027 61.96 32.6299 64.3329 32.6299 67.26C32.6299 70.1871 35.3027 72.56 38.5999 72.56Z" fill="#F3BDCA"/>
<path d="M14.7101 72.5698C18.7639 72.5698 22.0501 69.6507 22.0501 66.0498C22.0501 62.4489 18.7639 59.5298 14.7101 59.5298C10.6563 59.5298 7.37012 62.4489 7.37012 66.0498C7.37012 69.6507 10.6563 72.5698 14.7101 72.5698Z" fill="#F3BDCA"/>
<path d="M60.39 74.0901H1C1 74.0901 24.57 62.4001 60.39 74.0901Z" fill="#F3BDCA"/>
<path d="M182.45 32.6899C188.199 32.6899 192.86 28.5486 192.86 23.4399C192.86 18.3313 188.199 14.1899 182.45 14.1899C176.701 14.1899 172.04 18.3313 172.04 23.4399C172.04 28.5486 176.701 32.6899 182.45 32.6899Z" fill="#F3BDCA"/>
<path d="M172.03 32.6999C174.908 32.6999 177.24 30.627 177.24 28.0699C177.24 25.5129 174.908 23.4399 172.03 23.4399C169.153 23.4399 166.82 25.5129 166.82 28.0699C166.82 30.627 169.153 32.6999 172.03 32.6999Z" fill="#F3BDCA"/>
<path d="M192.86 32.6901C196.395 32.6901 199.26 30.1471 199.26 27.0101C199.26 23.8731 196.395 21.3301 192.86 21.3301C189.325 21.3301 186.46 23.8731 186.46 27.0101C186.46 30.1471 189.325 32.6901 192.86 32.6901Z" fill="#F3BDCA"/>
<path d="M153.89 33.4101H211C211 33.4101 188.33 25.1101 153.89 33.4101Z" fill="#F3BDCA"/>
<path d="M88.6807 146C106.63 146 121.181 131.449 121.181 113.5C121.181 95.5507 106.63 81 88.6807 81C70.7314 81 56.1807 95.5507 56.1807 113.5C56.1807 131.449 70.7314 146 88.6807 146Z" fill="#DCF7EC"/>
<path d="M74.8196 197.52C91.3936 197.52 104.83 197.045 104.83 196.46C104.83 195.874 91.3936 195.4 74.8196 195.4C58.2455 195.4 44.8096 195.874 44.8096 196.46C44.8096 197.045 58.2455 197.52 74.8196 197.52Z" fill="#EB92A7"/>
<path d="M133.299 197.52C143.528 197.52 151.819 197.045 151.819 196.46C151.819 195.874 143.528 195.4 133.299 195.4C123.071 195.4 114.779 195.874 114.779 196.46C114.779 197.045 123.071 197.52 133.299 197.52Z" fill="#EB92A7"/>
<path d="M167.66 41.35L179.48 21L185 26.32L167.66 41.35Z" fill="#C22046"/>
<path d="M170.56 43.3699L185.48 34.4199L187.15 39.8399L170.56 43.3699Z" fill="#C22046"/>
<path d="M164.66 38.8998L165.08 25.5498L169.28 26.7298L164.66 38.8998Z" fill="#C22046"/>
<path d="M149.8 43.9101C147.72 42.6101 141.75 43.9101 142.74 50.4601C143.73 57.0101 136.04 55.3201 137.74 62.9201C139.44 70.5201 153 81.8001 161.37 74.1401C169.74 66.4801 162.69 63.1401 162.85 54.0001C162.94 48.5901 160.49 38.9201 149.8 43.9101Z" fill="#263238"/>
<path d="M160.14 78.5001C159.794 77.8932 159.671 77.1844 159.791 76.4962C159.912 75.8079 160.269 75.1833 160.8 74.7301C162.7 73.2301 165.8 72.1201 168.61 76.8901C168.61 76.8901 178.14 86.5301 179.05 70.6001L182.97 70.9001C182.97 70.9001 183.57 86.1201 175.4 86.6101C167.23 87.1001 160.14 78.5001 160.14 78.5001Z" fill="#F2AA91"/>
<path d="M179.05 70.6C179.05 70.6 177.75 69 178.8 68C179.85 67 182.1 68.41 182.1 68.41H189.28C189.313 68.6277 189.287 68.8502 189.204 69.0543C189.121 69.2583 188.985 69.4364 188.81 69.57C188.2 70.09 182.97 70.91 182.97 70.91L179.05 70.6Z" fill="#F2AA91"/>
<path d="M121 62.9398V59.0798C121 59.0798 120.48 58.7598 120.32 59.6998C120.16 60.3511 119.918 60.9794 119.6 61.5698L121 62.9398Z" fill="#F2AA91"/>
<path d="M118.71 59.2199C119 59.3799 119.11 60.6899 119.11 60.6899L119.31 61.0599C119.31 61.0599 120.93 62.6699 120.94 62.7499C121.045 63.3707 121.072 64.0024 121.02 64.6299C120.982 64.9343 120.898 65.2311 120.77 65.5099C120.613 65.7984 120.519 66.1172 120.495 66.4448C120.471 66.7724 120.517 67.1015 120.63 67.4099L117.14 68.6599C117.14 68.6599 116.39 66.6599 116.31 66.5299C116.23 66.3999 115.37 64.8699 115.31 64.6599C115.072 63.9757 114.96 63.254 114.98 62.5299C115.092 61.9517 115.321 61.4025 115.653 60.9159C115.985 60.4293 116.412 60.0156 116.91 59.6999C118.49 58.7799 118.71 59.2199 118.71 59.2199Z" fill="#F2AA91"/>
<path d="M140.38 71.41C140.628 70.7577 140.641 70.0394 140.417 69.3787C140.192 68.718 139.744 68.1562 139.15 67.79C137.05 66.6 133.79 65.97 131.77 71.11C131.77 71.11 123.83 82.11 120.49 66.5L116.66 67.4C116.66 67.4 118.41 82.54 126.56 81.76C134.71 80.98 140.38 71.41 140.38 71.41Z" fill="#F2AA91"/>
<path d="M162.59 71.0501C167.68 74.3001 167.26 76.3001 167.26 76.3001L164.06 80.9301C164.06 80.9301 155.91 77.6601 155.39 75.1001C154.87 72.5401 160.12 69.4701 162.59 71.0501Z" fill="#263238"/>
<path d="M162.59 71.0501C167.68 74.3001 169.4 76.3501 169.4 76.3501L163.13 82.6101C163.13 82.6101 155.91 77.6101 155.39 75.1001C154.87 72.5901 160.12 69.4701 162.59 71.0501Z" fill="#DB284E"/>
<path d="M132.76 191.74L137.37 192.19L140.67 181.34L136.06 180.89L132.76 191.74Z" fill="#F2AA91"/>
<path d="M103.4 175.7L106.82 178.92L114.21 170.79L110.79 167.58L103.4 175.7Z" fill="#FFC3BD"/>
<path d="M108.4 177.38L105.83 172.74C105.786 172.66 105.713 172.598 105.627 172.567C105.541 172.536 105.446 172.537 105.36 172.57L101.36 174.08C101.262 174.12 101.173 174.181 101.1 174.258C101.027 174.335 100.972 174.427 100.938 174.528C100.904 174.628 100.891 174.735 100.902 174.841C100.913 174.947 100.946 175.049 101 175.14C101.92 176.74 102.45 177.47 103.58 179.51C104.27 180.76 105.58 183.64 106.58 185.37C107.58 187.1 109.31 186.24 109.06 185.44C108.219 183.126 108.019 180.628 108.48 178.21C108.55 177.933 108.522 177.639 108.4 177.38Z" fill="#263238"/>
<path d="M137.92 190.78H132.32C132.219 190.781 132.122 190.815 132.042 190.876C131.963 190.937 131.906 191.023 131.88 191.12L130.66 195.55C130.63 195.655 130.625 195.765 130.646 195.873C130.666 195.98 130.712 196.08 130.78 196.166C130.847 196.252 130.934 196.321 131.033 196.367C131.132 196.412 131.241 196.434 131.35 196.43C133.35 196.43 134.25 196.43 136.71 196.43H144.24C146.24 196.43 146.71 194.36 145.86 194.18C142.07 193.34 139.86 192.18 138.71 191.07C138.491 190.879 138.21 190.775 137.92 190.78Z" fill="#263238"/>
<path opacity="0.2" d="M140.67 181.34L138.97 186.93H134.22L136.05 180.9L140.67 181.34Z" fill="black"/>
<path opacity="0.2" d="M110.78 167.58L114.21 170.8L110.4 174.98L106.97 171.77L110.78 167.58Z" fill="black"/>
<path d="M162.59 71.0499C162.59 71.0499 164.43 72.3099 152.71 97.7899L134.24 92.6799C136.63 85.2399 137.92 80.6099 138.6 64.1899C141.334 64.3725 144.051 64.7535 146.73 65.3299C149.578 65.9057 152.381 66.681 155.12 67.6499C157.666 68.657 160.159 69.7918 162.59 71.0499Z" fill="#263238"/>
<path d="M162.59 71.0499C162.59 71.0499 164.43 72.3099 152.71 97.7899L134.24 92.6799C136.63 85.2399 137.92 80.6099 138.6 64.1899C141.334 64.3725 144.051 64.7535 146.73 65.3299C149.578 65.9057 152.381 66.681 155.12 67.6499C157.666 68.657 160.159 69.7918 162.59 71.0499Z" fill="#DB284E"/>
<path d="M152.71 97.79C152.71 97.79 159.28 124.42 154.97 144.56C152.08 158.06 141.67 185.31 141.67 185.31L133.52 185.1C133.52 185.1 141.41 156.5 143.04 145.25C145.83 126 139.18 94 139.18 94L152.71 97.79Z" fill="#3F3F3F"/>
<path opacity="0.2" d="M145.37 101.61L141.3 108C142.531 115.614 143.309 123.294 143.63 131C149.36 120.79 146.65 107 145.37 101.61Z" fill="black"/>
<path d="M143.12 185.73L132.76 185.48L133.45 181.79L143.88 182.57L143.12 185.73Z" fill="#263238"/>
<path d="M148.66 96.7302C148.66 96.7302 144.86 125.84 136.66 142.39C130.02 155.75 112.32 174.77 112.32 174.77L107.79 170.11C107.79 170.11 119.79 149.44 124.68 140.56C136.77 118.79 126.05 99.2802 134.25 92.6802L148.66 96.7302Z" fill="#3F3F3F"/>
<path d="M112.77 175.4L106.92 169.7L108.86 167.07L115.23 173.65L112.77 175.4Z" fill="#263238"/>
<path d="M134.26 91.52L133 92.94C132.9 93.05 133 93.22 133.23 93.28L152.6 98.64C152.77 98.64 152.93 98.64 152.97 98.54L153.59 96.94C153.59 96.82 153.52 96.69 153.34 96.64L134.6 91.46C134.543 91.4377 134.481 91.4314 134.421 91.442C134.361 91.4526 134.305 91.4796 134.26 91.52Z" fill="#007CFF"/>
<path d="M134.26 91.52L133 92.94C132.9 93.05 133 93.22 133.23 93.28L152.6 98.64C152.77 98.64 152.93 98.64 152.97 98.54L153.59 96.94C153.59 96.82 153.52 96.69 153.34 96.64L134.6 91.46C134.543 91.4377 134.481 91.4314 134.421 91.442C134.361 91.4526 134.305 91.4796 134.26 91.52Z" fill="#232323"/>
<path d="M136.2 94.2999L135.7 94.1599C135.6 94.1599 135.53 94.0599 135.56 93.9999L136.39 91.9199C136.39 91.8599 136.51 91.8299 136.61 91.8599L137.11 91.9999C137.21 91.9999 137.28 92.0999 137.25 92.1599L136.42 94.2399C136.4 94.2999 136.3 94.3299 136.2 94.2999Z" fill="#3F3F3F"/>
<path d="M151.11 98.4298L150.61 98.2898C150.51 98.2898 150.45 98.1898 150.48 98.1298L151.31 96.0498C151.31 95.9898 151.43 95.9598 151.53 95.9898L152.03 96.1298C152.13 96.1298 152.19 96.2298 152.17 96.2898L151.34 98.3698C151.314 98.4031 151.277 98.4269 151.235 98.4377C151.194 98.4485 151.15 98.4457 151.11 98.4298Z" fill="#3F3F3F"/>
<path d="M143.66 96.3701L143.15 96.2301C143.05 96.2301 142.99 96.1301 143.02 96.0701L143.85 93.9801C143.85 93.9201 143.97 93.9001 144.07 93.9201L144.57 94.0601C144.67 94.0601 144.73 94.1601 144.71 94.2201L143.88 96.3101C143.86 96.3701 143.76 96.3901 143.66 96.3701Z" fill="#3F3F3F"/>
<path d="M152.07 50.9399C152.042 50.954 152.011 50.9613 151.98 50.9613C151.949 50.9613 151.918 50.954 151.89 50.9399C151.691 50.7338 151.446 50.5781 151.174 50.4859C150.903 50.3938 150.613 50.3677 150.33 50.4099C150.283 50.4159 150.235 50.4039 150.196 50.3765C150.158 50.349 150.131 50.308 150.121 50.2616C150.11 50.2151 150.118 50.1666 150.142 50.1256C150.166 50.0845 150.205 50.054 150.25 50.0399C150.595 49.9876 150.947 50.0184 151.278 50.1297C151.608 50.241 151.907 50.4297 152.15 50.6799C152.168 50.6967 152.182 50.7169 152.191 50.7392C152.201 50.7616 152.206 50.7856 152.206 50.8099C152.206 50.8342 152.201 50.8582 152.191 50.8806C152.182 50.9029 152.168 50.9231 152.15 50.9399H152.07Z" fill="#263238"/>
<path d="M138.6 64.1899C136.22 64.1899 130.49 73.2699 130.49 73.2699L134.49 77.4599C134.49 77.4599 142.1 72.3199 142.41 69.2799C142.72 66.6899 141.63 64.2199 138.6 64.1899Z" fill="#263238"/>
<path d="M138.6 64.1899C136.22 64.1899 128.67 72.1899 128.67 72.1899L134.94 79.4999C134.94 79.4999 142.15 72.3399 142.46 69.2999C142.72 66.6899 141.63 64.2199 138.6 64.1899Z" fill="#DB284E"/>
<path d="M109.3 179.87C109.451 179.868 109.597 179.811 109.71 179.71C109.765 179.675 109.808 179.626 109.837 179.568C109.865 179.509 109.877 179.444 109.87 179.38C109.82 178.79 108.33 177.99 108.16 177.9C108.143 177.892 108.124 177.889 108.105 177.889C108.086 177.889 108.067 177.892 108.05 177.9C108.043 177.916 108.04 177.933 108.04 177.95C108.04 177.967 108.043 177.984 108.05 178C108.22 178.6 108.59 179.64 109.15 179.83C109.198 179.85 109.248 179.863 109.3 179.87ZM108.3 178.18C108.81 178.47 109.69 179.04 109.72 179.4C109.72 179.432 109.711 179.464 109.696 179.492C109.68 179.519 109.657 179.543 109.63 179.56C109.576 179.614 109.508 179.652 109.434 179.67C109.36 179.687 109.282 179.684 109.21 179.66C108.86 179.55 108.53 179 108.27 178.18H108.3Z" fill="#007CFF"/>
<path d="M109.53 178.41C109.766 178.429 110.002 178.369 110.2 178.24C110.266 178.186 110.311 178.11 110.327 178.026C110.344 177.942 110.331 177.855 110.29 177.78C110.259 177.703 110.212 177.633 110.152 177.576C110.091 177.519 110.019 177.476 109.94 177.45C109.3 177.23 108.12 177.88 108.07 177.9C108.065 177.913 108.062 177.926 108.062 177.94C108.062 177.954 108.065 177.968 108.07 177.98C108.064 177.994 108.061 178.01 108.061 178.025C108.061 178.041 108.064 178.056 108.07 178.07C108.525 178.291 109.024 178.408 109.53 178.41ZM109.62 177.59C109.706 177.574 109.794 177.574 109.88 177.59C109.933 177.608 109.982 177.637 110.024 177.675C110.065 177.713 110.098 177.759 110.12 177.81C110.18 177.96 110.12 178.02 110.12 178.06C109.85 178.29 108.86 178.16 108.36 177.95C108.753 177.75 109.181 177.628 109.62 177.59Z" fill="#007CFF"/>
<path d="M155.36 67.8701C155.36 67.8701 152.03 66.0701 154.77 61.7301C154.77 61.7301 156.66 63.2401 158.09 60.2901C160.09 56.1001 156.09 58.0901 156.09 58.0901C156.09 58.0901 163.7 44.6501 146.57 48.7301C146.57 48.7301 144.29 54.0101 144.29 58.6001C144.29 64.8601 148.02 62.9201 148.02 62.9201C148.176 63.5348 148.094 64.1859 147.79 64.7425C147.486 65.299 146.982 65.7198 146.38 65.9201C146.478 66.7199 146.846 67.462 147.425 68.0226C148.004 68.5831 148.758 68.9282 149.56 69.0001C151.564 69.2331 153.59 68.8383 155.36 67.8701Z" fill="#F2AA91"/>
<path d="M140.4 191.68C140.777 191.71 141.154 191.622 141.48 191.43C141.563 191.368 141.632 191.289 141.68 191.197C141.729 191.105 141.756 191.004 141.76 190.9C141.765 190.844 141.756 190.788 141.733 190.738C141.711 190.687 141.675 190.643 141.63 190.61C141.12 190.27 139.09 191.21 138.86 191.31C138.841 191.319 138.826 191.334 138.815 191.351C138.805 191.369 138.799 191.389 138.8 191.41C138.804 191.428 138.812 191.445 138.825 191.459C138.837 191.473 138.852 191.484 138.87 191.49C139.372 191.605 139.885 191.669 140.4 191.68ZM141.3 190.68C141.377 190.671 141.454 190.689 141.52 190.73C141.531 190.748 141.538 190.769 141.538 190.79C141.538 190.811 141.531 190.832 141.52 190.85C141.518 190.926 141.499 191 141.465 191.068C141.43 191.136 141.381 191.194 141.32 191.24C140.62 191.497 139.858 191.529 139.14 191.33C139.823 191.013 140.552 190.807 141.3 190.72V190.68Z" fill="#1B8884"/>
<path d="M138.89 191.49C139.5 191.24 140.78 190.22 140.71 189.71C140.71 189.6 140.62 189.46 140.35 189.43C139.25 189.3 138.78 191.3 138.76 191.43C138.75 191.459 138.75 191.491 138.76 191.52L138.89 191.49ZM140.29 189.6H140.36C140.56 189.6 140.57 189.7 140.57 189.72C140.57 190.05 139.7 190.88 139.04 191.23C139.17 190.76 139.58 189.6 140.29 189.6Z" fill="#1B8884"/>
<path d="M147.48 50.8998C149.92 54.4898 158.3 59.6198 158.99 54.8998C159.68 50.1798 155.45 45.3898 151.14 45.7398C146.83 46.0898 145.4 47.8398 147.48 50.8998Z" fill="#263238"/>
<path d="M120.67 190.81L64.2797 196.38C61.0234 196.701 57.7727 195.717 55.2416 193.643C52.7105 191.569 51.1057 188.576 50.7797 185.32L36.7597 44C36.5939 42.3816 36.7492 40.7464 37.2167 39.1881C37.6842 37.6298 38.4548 36.1792 39.4842 34.9194C40.5136 33.6596 41.7815 32.6154 43.2154 31.8467C44.6492 31.0781 46.2207 30.6 47.8397 30.44L104.23 24.87C107.487 24.5492 110.737 25.5353 113.267 27.6113C115.797 29.6873 117.399 32.6832 117.72 35.94L131.72 177.31C131.881 178.922 131.724 180.55 131.256 182.101C130.788 183.653 130.019 185.096 128.993 186.35C127.966 187.604 126.703 188.643 125.275 189.408C123.847 190.174 122.282 190.65 120.67 190.81Z" fill="#455A64"/>
<path d="M104.65 29.7601L93.7202 30.8401C93.0081 30.9254 92.3585 31.2884 91.9128 31.8503C91.4671 32.4121 91.2613 33.1273 91.3402 33.8401L91.5402 35.8401C91.6138 36.5519 91.406 37.2643 90.9613 37.8249C90.5165 38.3855 89.8701 38.7499 89.1602 38.8401L67.8402 41.0001C67.1195 41.0526 66.4073 40.8183 65.8586 40.3482C65.3098 39.8781 64.969 39.2103 64.9102 38.4901L64.7202 36.4901C64.6565 35.7735 64.3135 35.1107 63.7653 34.6448C63.2171 34.179 62.5077 33.9474 61.7902 34.0001L57.9402 34.3801L48.3702 35.3801C47.2407 35.4915 46.1443 35.8243 45.1435 36.3595C44.1427 36.8948 43.2571 37.6219 42.5374 38.4995C41.8177 39.3771 41.278 40.3878 40.949 41.4741C40.6201 42.5603 40.5083 43.7007 40.6202 44.8301L54.3002 182.83C54.4116 183.96 54.7447 185.058 55.2806 186.059C55.8164 187.061 56.5445 187.947 57.4232 188.667C58.3018 189.387 59.3138 189.926 60.4012 190.254C61.4886 190.583 62.63 190.693 63.7602 190.58L120 185C121.13 184.889 122.226 184.556 123.227 184.021C124.228 183.485 125.113 182.758 125.833 181.881C126.553 181.003 127.092 179.992 127.421 178.906C127.75 177.82 127.862 176.679 127.75 175.55L114.06 37.5501C113.845 35.2694 112.733 33.1676 110.968 31.7068C109.203 30.246 106.931 29.5458 104.65 29.7601Z" fill="#FAFAFA"/>
<path d="M91.0479 52.0514L67.1953 54.5205L67.3364 55.8832L91.1889 53.4141L91.0479 52.0514Z" fill="#DB284E"/>
<path opacity="0.3" d="M63.8301 59.2099L95.8601 55.8999" stroke="black" stroke-width="0.36" stroke-miterlimit="10" stroke-linecap="round"/>
<path opacity="0.3" d="M48.1396 46.5202L53.9096 45.9302" stroke="black" stroke-width="0.36" stroke-miterlimit="10" stroke-linecap="round"/>
<path opacity="0.3" d="M48.2998 48.1098L54.0798 47.5098" stroke="black" stroke-width="0.36" stroke-miterlimit="10" stroke-linecap="round"/>
<path opacity="0.3" d="M48.4697 49.7001L54.2397 49.1001" stroke="black" stroke-width="0.36" stroke-miterlimit="10" stroke-linecap="round"/>
<g opacity="0.3">
<path opacity="0.3" d="M101.04 40.2599L101.92 40.1699L103.19 42.9699L106.17 42.6599L106.59 40.3399L102.99 40.7199" stroke="black" stroke-width="0.36" stroke-miterlimit="10" stroke-linecap="round"/>
<path opacity="0.3" d="M106.06 43.3697L103.52 43.6297L103.19 42.9697" stroke="black" stroke-width="0.36" stroke-miterlimit="10" stroke-linecap="round"/>
<path opacity="0.3" d="M104.06 44.7401C104.243 44.7401 104.39 44.5923 104.39 44.4101C104.39 44.2278 104.243 44.0801 104.06 44.0801C103.878 44.0801 103.73 44.2278 103.73 44.4101C103.73 44.5923 103.878 44.7401 104.06 44.7401Z" stroke="black" stroke-width="0.36" stroke-miterlimit="10" stroke-linecap="round"/>
<path opacity="0.3" d="M105.68 44.5702C105.862 44.5702 106.01 44.4224 106.01 44.2402C106.01 44.0579 105.862 43.9102 105.68 43.9102C105.497 43.9102 105.35 44.0579 105.35 44.2402C105.35 44.4224 105.497 44.5702 105.68 44.5702Z" stroke="black" stroke-width="0.36" stroke-miterlimit="10" stroke-linecap="round"/>
</g>
<path d="M114.468 147.404L62.2367 152.811C61.4841 152.889 60.9372 153.562 61.0151 154.315L61.9212 163.068C61.9991 163.821 62.6724 164.368 63.425 164.29L115.656 158.883C116.408 158.805 116.955 158.132 116.878 157.379L115.971 148.626C115.894 147.873 115.22 147.326 114.468 147.404Z" fill="#E66983"/>
<path d="M71.8998 160.16L70.6598 160.28L68.2498 157.35L68.5798 160.5L67.3298 160.63L66.7998 155.52L68.0498 155.39L70.4598 158.39L70.1298 155.23L71.3698 155.1L71.8998 160.16Z" fill="white"/>
<path d="M73.5597 159.79C73.2299 159.651 72.9432 159.427 72.7297 159.14C72.5116 158.818 72.3775 158.447 72.3397 158.06C72.2913 157.675 72.3502 157.284 72.5097 156.93C72.6496 156.598 72.8866 156.315 73.1897 156.12C73.4891 155.919 73.8318 155.792 74.1897 155.75C74.5631 155.707 74.9413 155.759 75.2897 155.9C75.6244 156.03 75.9132 156.256 76.1197 156.55C76.3444 156.865 76.4792 157.234 76.5097 157.62C76.5586 158.005 76.4997 158.396 76.3397 158.75C76.1962 159.08 75.96 159.361 75.6597 159.56C75.3435 159.771 74.9787 159.899 74.5997 159.93C74.2469 159.963 73.8911 159.915 73.5597 159.79ZM75.1197 158.53C75.2761 158.299 75.3494 158.022 75.3276 157.744C75.3058 157.466 75.1901 157.204 74.9997 157C74.9169 156.924 74.8186 156.867 74.7116 156.832C74.6045 156.798 74.4913 156.787 74.3797 156.8C74.2659 156.809 74.1554 156.843 74.0555 156.898C73.9555 156.953 73.8683 157.029 73.7997 157.12C73.647 157.349 73.5896 157.629 73.6397 157.9C73.6511 158.17 73.7614 158.426 73.9497 158.62C74.0313 158.698 74.1295 158.756 74.2368 158.791C74.3442 158.825 74.4579 158.835 74.5697 158.82C74.6761 158.811 74.7795 158.78 74.874 158.731C74.9685 158.681 75.052 158.612 75.1197 158.53Z" fill="white"/>
<path d="M79.5897 158.29L79.6897 159.35L79.0597 159.41C78.6816 159.477 78.2922 159.398 77.9697 159.19C77.8226 159.067 77.7029 158.914 77.6185 158.742C77.5341 158.57 77.4868 158.382 77.4797 158.19L77.3197 156.58L76.8197 156.63L76.7197 155.63L77.2097 155.57L77.1097 154.57L78.3497 154.44L78.4497 155.44L79.2697 155.35L79.3697 156.35L78.5597 156.44L78.7297 158.07C78.7304 158.117 78.7404 158.163 78.7593 158.206C78.7782 158.249 78.8056 158.288 78.8397 158.32C78.9309 158.371 79.037 158.389 79.1397 158.37L79.5897 158.29Z" fill="white"/>
<path d="M80.0004 154.6C79.9291 154.545 79.8701 154.476 79.827 154.396C79.784 154.317 79.7579 154.23 79.7504 154.14C79.7389 154.051 79.7463 153.96 79.7721 153.874C79.798 153.788 79.8417 153.708 79.9004 153.64C79.9659 153.566 80.0457 153.505 80.135 153.462C80.2244 153.419 80.3214 153.395 80.4204 153.39C80.615 153.363 80.8125 153.413 80.9704 153.53C81.0436 153.583 81.104 153.652 81.1473 153.732C81.1905 153.811 81.2155 153.9 81.2204 153.99C81.2319 154.08 81.2236 154.171 81.1959 154.258C81.1683 154.344 81.122 154.423 81.0604 154.49C80.9971 154.561 80.9203 154.619 80.8344 154.66C80.7486 154.701 80.6555 154.725 80.5604 154.73C80.4631 154.746 80.3635 154.743 80.2675 154.721C80.1714 154.698 80.0806 154.657 80.0004 154.6ZM81.2204 155.09L81.6404 159.15L80.3904 159.28L80.0004 155.22L81.2204 155.09Z" fill="white"/>
<path d="M84.2503 155.82L83.5803 155.89L83.9003 158.89L82.6503 159.02L82.3403 156.02H81.8903L81.7803 155.02L82.2303 154.97V154.86C82.1938 154.653 82.2026 154.44 82.2561 154.236C82.3096 154.033 82.4066 153.843 82.5403 153.68C82.8659 153.358 83.3023 153.172 83.7603 153.16H83.9703L84.0703 154.22C83.8944 154.211 83.7209 154.264 83.5803 154.37C83.5318 154.435 83.4978 154.51 83.4806 154.589C83.4633 154.669 83.4632 154.751 83.4803 154.83L84.1503 154.76L84.2503 155.82Z" fill="white"/>
<path d="M84.7603 154.1C84.6854 154.05 84.6231 153.983 84.578 153.905C84.533 153.827 84.5064 153.74 84.5003 153.65C84.4886 153.559 84.4968 153.466 84.5245 153.378C84.5521 153.29 84.5984 153.209 84.6603 153.14C84.7251 153.068 84.8036 153.01 84.8912 152.969C84.9787 152.928 85.0736 152.904 85.1703 152.9C85.3636 152.869 85.5613 152.916 85.7203 153.03C85.7927 153.086 85.8525 153.157 85.8956 153.238C85.9387 153.319 85.9641 153.409 85.9703 153.5C85.9816 153.588 85.9741 153.677 85.9482 153.761C85.9224 153.846 85.8787 153.924 85.8203 153.99C85.6856 154.132 85.5049 154.221 85.3106 154.241C85.1162 154.261 84.9211 154.211 84.7603 154.1ZM85.9703 154.6L86.3903 158.66L85.1503 158.78L84.7303 154.73L85.9703 154.6Z" fill="white"/>
<path d="M86.9998 155.43C87.129 155.103 87.356 154.824 87.6498 154.63C87.9931 154.4 88.393 154.269 88.8058 154.252C89.2185 154.234 89.6282 154.33 89.9898 154.53C90.3747 154.774 90.656 155.151 90.7798 155.59L89.4598 155.72C89.4069 155.608 89.3247 155.512 89.2219 155.443C89.1191 155.373 88.9994 155.333 88.8756 155.326C88.7517 155.318 88.6283 155.345 88.5181 155.402C88.408 155.459 88.3153 155.545 88.2498 155.65C88.1384 155.894 88.0937 156.163 88.12 156.43C88.1464 156.697 88.2429 156.952 88.3998 157.17C88.4736 157.248 88.5644 157.307 88.665 157.343C88.7657 157.38 88.8735 157.392 88.9798 157.38C89.1255 157.372 89.2639 157.314 89.3715 157.216C89.4791 157.117 89.5492 156.984 89.5698 156.84L90.8998 156.71C90.8526 157.158 90.6553 157.578 90.3398 157.9C90.0029 158.213 89.5685 158.4 89.1098 158.43C88.7405 158.482 88.3639 158.434 88.0198 158.29C87.6985 158.155 87.4239 157.929 87.2298 157.64C87.0265 157.313 86.9002 156.944 86.8603 156.562C86.8205 156.179 86.8682 155.792 86.9998 155.43Z" fill="white"/>
<path d="M91.3601 155C91.469 154.687 91.6671 154.412 91.9301 154.21C92.1838 154.012 92.4893 153.89 92.8101 153.86C93.0711 153.831 93.3353 153.865 93.5801 153.96C93.7963 154.041 93.9841 154.184 94.1201 154.37L94.0701 153.79L95.3101 153.66L95.7301 157.72L94.4801 157.85V157.27C94.3741 157.477 94.2154 157.653 94.0201 157.78C93.7988 157.927 93.5445 158.016 93.2801 158.04C92.9602 158.075 92.6369 158.016 92.3501 157.87C92.0547 157.719 91.8084 157.486 91.6401 157.2C91.4366 156.878 91.3163 156.51 91.2901 156.13C91.2202 155.753 91.2442 155.365 91.3601 155ZM93.9401 155.11C93.8492 155.035 93.7442 154.979 93.6314 154.945C93.5186 154.911 93.4002 154.9 93.2829 154.912C93.1657 154.924 93.0521 154.959 92.9486 155.016C92.8451 155.072 92.7539 155.148 92.6801 155.24C92.5358 155.466 92.4721 155.734 92.4993 156.001C92.5265 156.268 92.6431 156.518 92.8301 156.71C92.9205 156.787 93.0255 156.846 93.1388 156.882C93.2522 156.918 93.3716 156.931 93.4901 156.92C93.6085 156.909 93.7232 156.873 93.8266 156.815C93.93 156.756 94.0199 156.676 94.0901 156.58C94.1696 156.472 94.2265 156.349 94.2574 156.218C94.2883 156.088 94.2926 155.952 94.2701 155.82C94.2698 155.681 94.2402 155.543 94.1834 155.415C94.1266 155.288 94.0437 155.174 93.9401 155.08V155.11Z" fill="white"/>
<path d="M98.7802 156.31L98.8902 157.36L98.2602 157.43C97.8821 157.493 97.4941 157.415 97.1702 157.21C97.0225 157.087 96.9026 156.935 96.8181 156.762C96.7337 156.59 96.6866 156.402 96.6802 156.21L96.5102 154.59H96.0201L95.9102 153.59H96.4102L96.3002 152.59L97.5502 152.46L97.6502 153.46L98.4602 153.38L98.5702 154.38L97.7602 154.46L97.9202 156.09C97.9247 156.189 97.9678 156.282 98.0402 156.35C98.1371 156.385 98.2432 156.385 98.3401 156.35L98.7802 156.31Z" fill="white"/>
<path d="M99.19 152.61C99.1176 152.557 99.0571 152.49 99.0123 152.412C98.9675 152.335 98.9395 152.249 98.93 152.16C98.917 152.068 98.9246 151.975 98.9523 151.887C98.9799 151.799 99.027 151.718 99.09 151.65C99.2237 151.507 99.4052 151.418 99.6 151.4C99.7945 151.375 99.9912 151.425 100.15 151.54C100.223 151.595 100.283 151.664 100.328 151.743C100.373 151.822 100.401 151.909 100.41 152C100.422 152.09 100.414 152.181 100.387 152.268C100.359 152.354 100.312 152.434 100.25 152.5C100.186 152.573 100.108 152.633 100.02 152.676C99.9325 152.719 99.8373 152.744 99.74 152.75C99.5457 152.773 99.3497 152.723 99.19 152.61ZM100.41 153.11L100.82 157.11L99.58 157.24L99.16 153.18L100.41 153.11Z" fill="white"/>
<path d="M102.48 156.79C102.149 156.659 101.863 156.433 101.66 156.14C101.432 155.827 101.297 155.456 101.27 155.07C101.223 154.686 101.278 154.296 101.43 153.94C101.574 153.61 101.81 153.328 102.11 153.13C102.408 152.925 102.751 152.798 103.11 152.76C103.484 152.716 103.862 152.768 104.21 152.91C104.548 153.04 104.84 153.266 105.05 153.56C105.268 153.878 105.402 154.246 105.44 154.63C105.484 155.015 105.425 155.405 105.27 155.76C105.126 156.093 104.886 156.375 104.58 156.57C104.281 156.771 103.938 156.897 103.58 156.94C103.207 156.983 102.828 156.931 102.48 156.79ZM104.05 155.54C104.204 155.311 104.265 155.032 104.22 154.76C104.21 154.488 104.095 154.23 103.9 154.04C103.817 153.962 103.717 153.903 103.608 153.869C103.499 153.834 103.383 153.824 103.27 153.84C103.157 153.847 103.048 153.88 102.949 153.935C102.85 153.991 102.765 154.067 102.7 154.16C102.544 154.388 102.483 154.668 102.53 154.94C102.544 155.211 102.658 155.468 102.85 155.66C102.931 155.738 103.03 155.797 103.137 155.832C103.244 155.866 103.358 155.876 103.47 155.86C103.584 155.85 103.694 155.816 103.794 155.761C103.894 155.706 103.981 155.631 104.05 155.54Z" fill="white"/>
<path d="M109.59 152.58C109.927 152.899 110.128 153.336 110.15 153.8L110.39 156.17L109.16 156.3L108.93 154.1C108.921 153.868 108.821 153.648 108.65 153.49C108.57 153.421 108.476 153.37 108.374 153.341C108.272 153.312 108.165 153.305 108.06 153.32C107.954 153.324 107.851 153.353 107.757 153.403C107.663 153.453 107.583 153.524 107.52 153.61C107.388 153.799 107.334 154.032 107.37 154.26L107.6 156.46L106.36 156.59L105.94 152.53L107.18 152.4L107.24 152.94C107.35 152.743 107.509 152.578 107.7 152.46C107.918 152.333 108.16 152.255 108.41 152.23C108.621 152.199 108.835 152.214 109.039 152.275C109.243 152.335 109.431 152.439 109.59 152.58Z" fill="white"/>
<path d="M63.7701 74L121.23 85C124.33 85.6 126.23 89.33 125.48 93.3L118.54 129.37C117.78 133.37 114.62 136.1 111.54 135.5L91.6501 131.67L80.6501 141.29L73.9901 128.29L54.1001 124.46C51.0001 123.86 49.1001 120.13 49.8501 116.16L56.8501 80.09C57.5101 76.12 60.6701 73.36 63.7701 74Z" fill="#007CFF"/>
<path d="M63.7701 74L121.23 85C124.33 85.6 126.23 89.33 125.48 93.3L118.54 129.37C117.78 133.37 114.62 136.1 111.54 135.5L91.6501 131.67L80.6501 141.29L73.9901 128.29L54.1001 124.46C51.0001 123.86 49.1001 120.13 49.8501 116.16L56.8501 80.09C57.5101 76.12 60.6701 73.36 63.7701 74Z" fill="#DB284E"/>
<path d="M65.3197 86.8402L59.9997 112.26C59.5697 114.32 60.5097 116.26 62.0897 116.61L106.29 125.81C107.87 126.14 109.52 124.71 109.95 122.64L115.23 97.2302C115.335 96.7544 115.362 96.2647 115.31 95.7802C115.304 95.1275 115.091 94.4934 114.701 93.9701C114.311 93.4468 113.764 93.0615 113.14 92.8702L68.9997 83.6702C68.3518 83.5982 67.6977 83.7337 67.1316 84.0572C66.5655 84.3807 66.1167 84.8754 65.8497 85.4702C65.6018 85.896 65.4229 86.3584 65.3197 86.8402Z" fill="white"/>
<path opacity="0.1" d="M65.8203 85.4701L84.7103 101.83C85.6221 102.635 86.7278 103.188 87.9184 103.435C89.1091 103.682 90.3436 103.615 91.5003 103.24L115.34 95.7801C115.335 95.1273 115.122 94.4933 114.731 93.97C114.341 93.4467 113.794 93.0614 113.17 92.8701L69.0003 83.6701C68.3475 83.5914 67.6867 83.7237 67.1145 84.0476C66.5424 84.3714 66.0888 84.8699 65.8203 85.4701Z" fill="black"/>
<path d="M61.2896 84.84C66.4811 84.84 70.6897 80.6315 70.6897 75.44C70.6897 70.2486 66.4811 66.04 61.2896 66.04C56.0982 66.04 51.8896 70.2486 51.8896 75.44C51.8896 80.6315 56.0982 84.84 61.2896 84.84Z" fill="#49A09D"/>
<path d="M59.6598 71.4102C60.0867 71.1279 60.5701 70.942 61.0762 70.8656C61.5823 70.7892 62.099 70.8241 62.5902 70.9679C63.0814 71.1116 63.5354 71.3608 63.9205 71.6979C64.3056 72.0351 64.6125 72.4522 64.8198 72.9202C65.1245 74.0719 65.0722 75.2889 64.6698 76.4102C64.395 77.5609 63.7861 78.6046 62.9198 79.4102C62.4979 79.6941 62.0199 79.8837 61.5181 79.9663C61.0163 80.0488 60.5027 80.0223 60.0121 79.8885C59.5215 79.7547 59.0655 79.5168 58.6751 79.1909C58.2848 78.8651 57.9692 78.459 57.7498 78.0002C57.4593 76.8363 57.5149 75.6129 57.9098 74.4802C58.1752 73.3057 58.7844 72.237 59.6598 71.4102ZM62.9298 73.8702C62.8815 73.641 62.7716 73.4293 62.6121 73.2578C62.4526 73.0863 62.2493 72.9615 62.0242 72.8968C61.7991 72.832 61.5606 72.8298 61.3344 72.8903C61.1081 72.9508 60.9026 73.0717 60.7398 73.2402C60.3674 73.7741 60.0931 74.3701 59.9298 75.0002C59.7909 75.4509 59.6906 75.9125 59.6298 76.3802C59.5812 76.7201 59.6298 77.0667 59.7698 77.3802C59.8506 77.5282 59.9619 77.6573 60.0964 77.759C60.2309 77.8608 60.3854 77.9327 60.5498 77.9702C60.7121 78.0312 60.8859 78.0556 61.0587 78.0418C61.2316 78.0279 61.3992 77.9762 61.5498 77.8902C61.8295 77.7055 62.0514 77.4455 62.1898 77.1402C62.3917 76.712 62.5557 76.267 62.6798 75.8102C62.8828 75.1846 62.9676 74.5268 62.9298 73.8702Z" fill="white"/>
</g>
</g>
<defs>
<clipPath id="clip0_26128_727759">
<rect width="210" height="210" fill="white"/>
</clipPath>
<clipPath id="clip1_26128_727759">
<rect width="210" height="210" fill="white" transform="translate(1)"/>
</clipPath>
</defs>
</svg>
