<svg width="27" height="26" viewBox="0 0 27 26" fill="none" xmlns="http://www.w3.org/2000/svg">
<rect x="2.125" y="1.625" width="22.75" height="22.75" rx="6" fill="url(#paint0_radial_27582_15123)"/>
<rect x="2.125" y="1.625" width="22.75" height="22.75" rx="6" fill="url(#paint1_radial_27582_15123)"/>
<rect x="2.125" y="1.625" width="22.75" height="22.75" rx="6" fill="url(#paint2_radial_27582_15123)"/>
<path d="M19.1875 8.53125C19.1875 9.20435 18.6418 9.75 17.9688 9.75C17.2957 9.75 16.75 9.20435 16.75 8.53125C16.75 7.85815 17.2957 7.3125 17.9688 7.3125C18.6418 7.3125 19.1875 7.85815 19.1875 8.53125Z" fill="white"/>
<path fill-rule="evenodd" clip-rule="evenodd" d="M13.5 17.0625C15.7437 17.0625 17.5625 15.2437 17.5625 13C17.5625 10.7563 15.7437 8.9375 13.5 8.9375C11.2563 8.9375 9.4375 10.7563 9.4375 13C9.4375 15.2437 11.2563 17.0625 13.5 17.0625ZM13.5 15.4375C14.8462 15.4375 15.9375 14.3462 15.9375 13C15.9375 11.6538 14.8462 10.5625 13.5 10.5625C12.1538 10.5625 11.0625 11.6538 11.0625 13C11.0625 14.3462 12.1538 15.4375 13.5 15.4375Z" fill="white"/>
<path fill-rule="evenodd" clip-rule="evenodd" d="M5.375 12.675C5.375 9.94474 5.375 8.57962 5.90634 7.5368C6.37373 6.61951 7.11951 5.87373 8.0368 5.40634C9.07962 4.875 10.4447 4.875 13.175 4.875H13.825C16.5553 4.875 17.9204 4.875 18.9632 5.40634C19.8805 5.87373 20.6263 6.61951 21.0937 7.5368C21.625 8.57962 21.625 9.94474 21.625 12.675V13.325C21.625 16.0553 21.625 17.4204 21.0937 18.4632C20.6263 19.3805 19.8805 20.1263 18.9632 20.5937C17.9204 21.125 16.5553 21.125 13.825 21.125H13.175C10.4447 21.125 9.07962 21.125 8.0368 20.5937C7.11951 20.1263 6.37373 19.3805 5.90634 18.4632C5.375 17.4204 5.375 16.0553 5.375 13.325V12.675ZM13.175 6.5H13.825C15.2169 6.5 16.1632 6.50126 16.8946 6.56102C17.607 6.61923 17.9713 6.72473 18.2255 6.85423C18.837 7.16582 19.3342 7.663 19.6458 8.27453C19.7753 8.52868 19.8808 8.89301 19.939 9.60544C19.9987 10.3368 20 11.2831 20 12.675V13.325C20 14.7169 19.9987 15.6632 19.939 16.3946C19.8808 17.107 19.7753 17.4713 19.6458 17.7255C19.3342 18.337 18.837 18.8342 18.2255 19.1458C17.9713 19.2753 17.607 19.3808 16.8946 19.439C16.1632 19.4987 15.2169 19.5 13.825 19.5H13.175C11.7831 19.5 10.8368 19.4987 10.1054 19.439C9.39301 19.3808 9.02868 19.2753 8.77453 19.1458C8.163 18.8342 7.66582 18.337 7.35423 17.7255C7.22473 17.4713 7.11923 17.107 7.06102 16.3946C7.00126 15.6632 7 14.7169 7 13.325V12.675C7 11.2831 7.00126 10.3368 7.06102 9.60544C7.11923 8.89301 7.22473 8.52868 7.35423 8.27453C7.66582 7.663 8.163 7.16582 8.77453 6.85423C9.02868 6.72473 9.39301 6.61923 10.1054 6.56102C10.8368 6.50126 11.7831 6.5 13.175 6.5Z" fill="white"/>
<defs>
<radialGradient id="paint0_radial_27582_15123" cx="0" cy="0" r="1" gradientUnits="userSpaceOnUse" gradientTransform="translate(10.25 18.6875) rotate(-55.3758) scale(20.7347)">
<stop stop-color="#B13589"/>
<stop offset="0.79309" stop-color="#C62F94"/>
<stop offset="1" stop-color="#8A3AC8"/>
</radialGradient>
<radialGradient id="paint1_radial_27582_15123" cx="0" cy="0" r="1" gradientUnits="userSpaceOnUse" gradientTransform="translate(9.4375 25.1875) rotate(-65.1363) scale(18.3578)">
<stop stop-color="#E0E8B7"/>
<stop offset="0.444662" stop-color="#FB8A2E"/>
<stop offset="0.71474" stop-color="#E2425C"/>
<stop offset="1" stop-color="#E2425C" stop-opacity="0"/>
</radialGradient>
<radialGradient id="paint2_radial_27582_15123" cx="0" cy="0" r="1" gradientUnits="userSpaceOnUse" gradientTransform="translate(0.906251 2.4375) rotate(-8.1301) scale(31.5988 6.75866)">
<stop offset="0.156701" stop-color="#406ADC"/>
<stop offset="0.467799" stop-color="#6A45BE"/>
<stop offset="1" stop-color="#6A45BE" stop-opacity="0"/>
</radialGradient>
</defs>
</svg>
