<svg width="88" height="88" viewBox="0 0 88 88" fill="none" xmlns="http://www.w3.org/2000/svg">
<g opacity="0.2" clip-path="url(#clip0_27582_33545)">
<g opacity="0.8">
<g opacity="0.8">
<path opacity="0.8" d="M3.78279e-06 88L4.13299e-06 79.9884C21.3751 79.9884 41.4363 71.6562 56.5623 56.5623C71.6562 41.4363 79.9883 21.3751 79.9883 -3.502e-07L88 0C88 23.4902 78.8347 45.6023 62.2345 62.2345C45.6023 78.8347 23.5222 88 3.78279e-06 88Z" fill="#EB92A7"/>
</g>
<g opacity="0.8">
<path opacity="0.8" d="M-0.00088808 70.2462L-0.00088773 62.2345C34.321 62.2345 62.2657 34.3219 62.2657 -3.50201e-07L70.2773 0C70.2773 18.7793 62.9707 36.405 49.7034 49.6722C36.4041 62.9395 18.7784 70.2462 -0.00088808 70.2462Z" fill="#EB92A7"/>
</g>
<g opacity="0.8">
<path opacity="0.8" d="M0.000554646 52.6205L0.000554996 44.6089C24.5803 44.6089 44.6094 24.6118 44.6094 -3.502e-07L52.6211 0C52.6211 29.0022 29.0027 52.6205 0.000554646 52.6205Z" fill="#EB92A7"/>
</g>
</g>
</g>
<defs>
<clipPath id="clip0_27582_33545">
<rect width="88" height="88" fill="white" transform="translate(88) rotate(90)"/>
</clipPath>
</defs>
</svg>
