<svg width="27" height="26" viewBox="0 0 27 26" fill="none" xmlns="http://www.w3.org/2000/svg">
<path d="M10.0332 23C7.26035 23 4.67558 22.1818 2.5 20.7701C4.34714 20.8914 7.60692 20.601 9.6345 18.6389C6.58435 18.497 5.2088 16.1237 5.02938 15.1095C5.28854 15.211 6.52454 15.3327 7.22229 15.0487C3.71363 14.1562 3.17537 11.0325 3.29498 10.0791C3.95285 10.5456 5.06925 10.7079 5.50783 10.6673C2.23839 8.29412 3.41459 4.72414 3.99273 3.95335C6.33899 7.25101 9.85532 9.1031 14.2055 9.20612C14.1234 8.84118 14.0801 8.46124 14.0801 8.07099C14.0801 5.27036 16.3115 3 19.064 3C20.5022 3 21.7981 3.61979 22.7077 4.61116C23.6688 4.3827 25.1151 3.84789 25.8222 3.3854C25.4658 4.68357 24.3562 5.76651 23.6851 6.16789C23.6906 6.18155 23.6796 6.15418 23.6851 6.16789C24.2746 6.07742 25.8698 5.76641 26.5 5.33266C26.1884 6.06196 25.012 7.27455 24.0466 7.95341C24.2262 15.9896 18.1656 23 10.0332 23Z" fill="#47ACDF"/>
</svg>
