<svg width="19" height="18" viewBox="0 0 19 18" fill="none" xmlns="http://www.w3.org/2000/svg">
<path d="M17.1719 6.75H18.1731L17.5431 9.10125L18.1844 11.4525H17.1831L17.1719 6.75Z" fill="#FF792F"/>
<path d="M1.82695 11.4525H0.825703L1.4557 9.10125L0.814453 6.75H1.8157L1.82695 11.4525Z" fill="#FF792F"/>
<path d="M9.5 15.4688C8.2206 15.4688 6.96994 15.0894 5.90616 14.3786C4.84238 13.6678 4.01326 12.6575 3.52366 11.4755C3.03405 10.2935 2.90595 8.99283 3.15555 7.73801C3.40515 6.4832 4.02123 5.33058 4.92591 4.42591C5.83058 3.52123 6.9832 2.90515 8.23801 2.65555C9.49283 2.40595 10.7935 2.53405 11.9755 3.02366C13.1575 3.51326 14.1678 4.34238 14.8786 5.40616C15.5894 6.46994 15.9688 7.7206 15.9688 9C15.9688 10.7156 15.2872 12.361 14.0741 13.5741C12.861 14.7872 11.2156 15.4688 9.5 15.4688Z" fill="white"/>
<path d="M9.4993 2.97042C11.0986 2.97042 12.6323 3.60572 13.7632 4.73657C14.894 5.86741 15.5293 7.40117 15.5293 9.00042C15.5293 10.5997 14.894 12.1334 13.7632 13.2643C12.6323 14.3951 11.0986 15.0304 9.4993 15.0304C7.90004 15.0304 6.36629 14.3951 5.23545 13.2643C4.1046 12.1334 3.4693 10.5997 3.4693 9.00042C3.4693 7.40117 4.1046 5.86741 5.23545 4.73657C6.36629 3.60572 7.90004 2.97042 9.4993 2.97042ZM9.4993 2.09292C8.13313 2.09292 6.79763 2.49804 5.6617 3.25705C4.52577 4.01605 3.64041 5.09486 3.1176 6.35704C2.59479 7.61922 2.458 9.00808 2.72453 10.348C2.99105 11.6879 3.64893 12.9187 4.61496 13.8848C5.58099 14.8508 6.81179 15.5087 8.15171 15.7752C9.49164 16.0417 10.8805 15.9049 12.1427 15.3821C13.4049 14.8593 14.4837 13.974 15.2427 12.838C16.0017 11.7021 16.4068 10.3666 16.4068 9.00042C16.4128 8.09165 16.2382 7.19073 15.8932 6.34998C15.5482 5.50922 15.0396 4.74537 14.397 4.10275C13.7544 3.46014 12.9905 2.95156 12.1497 2.60655C11.309 2.26153 10.4081 2.08694 9.4993 2.09292Z" fill="#DB284E"/>
<path d="M16.2843 6.31152H2.7168V11.6778H16.2843V6.31152Z" fill="white" stroke="#FF792F" stroke-width="0.5" stroke-linejoin="round"/>
<path d="M3.58203 8.79723V8.02098L4.52703 7.46973H5.15703V10.8447H4.41453V8.27973L3.58203 8.79723Z" fill="#FF792F"/>
<path d="M5.528 9.14655C5.50707 8.70261 5.61239 8.26183 5.83175 7.8753C5.92775 7.72248 6.06285 7.59809 6.22306 7.51502C6.38328 7.43194 6.56278 7.3932 6.743 7.4028C6.92154 7.39405 7.09916 7.43326 7.25742 7.51635C7.41568 7.59944 7.54882 7.72338 7.643 7.8753C7.87392 8.26167 7.98365 8.70842 7.958 9.1578C7.97955 9.6018 7.87419 10.0428 7.65425 10.4291C7.55657 10.5803 7.42113 10.7034 7.26133 10.7862C7.10152 10.8691 6.92287 10.9088 6.743 10.9016C6.56428 10.9115 6.38621 10.8728 6.22773 10.7896C6.06925 10.7064 5.93629 10.5818 5.843 10.4291C5.61644 10.0409 5.50704 9.59549 5.528 9.14655ZM6.293 9.14655C6.293 9.86655 6.43925 10.2153 6.743 10.2153C7.04675 10.2153 7.24925 9.8553 7.24925 9.14655C7.24925 8.4378 7.09175 8.02155 6.788 8.02155C6.48425 8.02155 6.293 8.42655 6.293 9.14655Z" fill="#FF792F"/>
<path d="M8.2053 9.1353C8.1859 8.69508 8.29119 8.25832 8.50905 7.8753C8.60505 7.72248 8.74015 7.59809 8.90036 7.51502C9.06058 7.43194 9.24009 7.3932 9.4203 7.4028C9.59884 7.39405 9.77646 7.43326 9.93472 7.51635C10.093 7.59944 10.2261 7.72338 10.3203 7.8753C10.5429 8.25642 10.6486 8.6946 10.6241 9.1353C10.6497 9.58469 10.54 10.0314 10.3091 10.4178C10.2149 10.5697 10.0817 10.6937 9.92347 10.7768C9.76521 10.8598 9.58759 10.899 9.40905 10.8903C9.22901 10.8987 9.04994 10.8595 8.88993 10.7765C8.72992 10.6935 8.59466 10.5698 8.4978 10.4178C8.28027 10.0268 8.1788 9.58192 8.2053 9.1353ZM8.9703 9.1353C8.9703 9.8553 9.11655 10.2603 9.4203 10.2603C9.72405 10.2603 9.8703 9.9003 9.8703 9.1353C9.8703 8.3703 9.72405 8.06655 9.4203 8.06655C9.11655 8.06655 8.9703 8.42655 8.9703 9.1353Z" fill="#FF792F"/>
<path d="M11.2212 8.78591C11.1285 8.6955 11.0556 8.5868 11.0072 8.46672C10.9588 8.34665 10.9359 8.21781 10.9399 8.08841C10.9365 7.95909 10.9598 7.83045 11.0082 7.71047C11.0565 7.59049 11.129 7.48173 11.2212 7.39091C11.3077 7.2994 11.4125 7.22709 11.5288 7.17864C11.6451 7.13019 11.7702 7.10669 11.8962 7.10966C12.0238 7.1065 12.1507 7.12987 12.2688 7.17828C12.3869 7.22669 12.4937 7.2991 12.5824 7.39091C12.7638 7.57776 12.8653 7.82796 12.8653 8.08841C12.8653 8.34885 12.7638 8.59905 12.5824 8.78591C12.4964 8.8789 12.392 8.95294 12.2757 9.0033C12.1595 9.05366 12.0341 9.07924 11.9074 9.07841C11.7791 9.07943 11.6519 9.05399 11.5338 9.00366C11.4157 8.95334 11.3093 8.87921 11.2212 8.78591ZM11.6374 7.87466C11.5732 7.94997 11.538 8.0457 11.538 8.14466C11.538 8.24362 11.5732 8.33934 11.6374 8.41466C11.7108 8.48358 11.8068 8.52355 11.9074 8.52716C12.0048 8.524 12.0974 8.48376 12.1662 8.41466C12.2376 8.34296 12.2777 8.24587 12.2777 8.14466C12.2777 8.04344 12.2376 7.94635 12.1662 7.87466C12.0939 7.80388 11.9973 7.7636 11.8962 7.76216C11.7987 7.76531 11.7062 7.80555 11.6374 7.87466ZM11.8624 10.9122L13.7862 7.23341H14.4612L12.5262 10.8559L11.8624 10.9122ZM13.7749 10.6534C13.6822 10.563 13.6094 10.4543 13.561 10.3342C13.5125 10.2141 13.4896 10.0853 13.4937 9.95591C13.4903 9.82659 13.5135 9.69795 13.5619 9.57797C13.6103 9.45799 13.6828 9.34923 13.7749 9.25841C13.8636 9.16659 13.9704 9.09419 14.0885 9.04578C14.2066 8.99737 14.3335 8.974 14.4612 8.97716C14.5871 8.97419 14.7122 8.99769 14.8285 9.04614C14.9448 9.09459 15.0496 9.1669 15.1362 9.25841C15.2298 9.34867 15.304 9.45708 15.3543 9.57701C15.4046 9.69694 15.4299 9.82587 15.4287 9.95591C15.4291 10.2161 15.3282 10.4663 15.1474 10.6534C15.0583 10.7453 14.9516 10.8183 14.8337 10.8682C14.7158 10.918 14.5892 10.9437 14.4612 10.9437C14.3332 10.9437 14.2065 10.918 14.0886 10.8682C13.9707 10.8183 13.864 10.7453 13.7749 10.6534ZM14.1912 9.68591C14.127 9.76122 14.0917 9.85695 14.0917 9.95591C14.0917 10.0549 14.127 10.1506 14.1912 10.2259C14.2262 10.262 14.2682 10.2905 14.3146 10.3099C14.361 10.3292 14.4109 10.3389 14.4612 10.3384C14.51 10.3402 14.5585 10.331 14.6033 10.3116C14.6481 10.2921 14.6879 10.2628 14.7199 10.2259C14.756 10.1909 14.7845 10.1489 14.8039 10.1025C14.8232 10.056 14.8329 10.0062 14.8324 9.95591C14.8288 9.85526 14.7888 9.75933 14.7199 9.68591C14.6856 9.65273 14.6451 9.62669 14.6007 9.60931C14.5563 9.59193 14.5088 9.58355 14.4612 9.58466C14.3687 9.56787 14.2732 9.58378 14.1912 9.62966V9.68591Z" fill="#FF792F"/>
</svg>
