<svg width="19" height="18" viewBox="0 0 19 18" fill="none" xmlns="http://www.w3.org/2000/svg">
<path d="M9.50094 1.98047L3.33594 3.28547V8.66297C3.37917 10.1264 3.84954 11.5451 4.6891 12.7445C5.52867 13.9439 6.70074 14.8715 8.06094 15.413L9.50094 16.0205L10.9409 15.368C12.3011 14.8265 13.4732 13.8989 14.3128 12.6995C15.1523 11.5001 15.6227 10.0814 15.6659 8.61797V3.28547L9.50094 1.98047Z" fill="white" stroke="#DB284E" stroke-width="0.75" stroke-linejoin="round"/>
<path d="M9.50016 3.73535L4.91016 4.7141V8.75285C4.94684 9.84208 5.29915 10.8972 5.92427 11.7899C6.5494 12.6827 7.4204 13.3746 8.43141 13.7816L9.55641 14.2654L10.6252 13.7816C11.6362 13.3746 12.5072 12.6827 13.1323 11.7899C13.7574 10.8972 14.1097 9.84208 14.1464 8.75285V4.7141L9.50016 3.73535Z" fill="white" stroke="#FF792F" stroke-width="0.5" stroke-miterlimit="10"/>
<path d="M6.87891 8.67332L9.03891 10.6533L12.1214 6.99707" fill="white"/>
<path d="M6.87891 8.67332L9.03891 10.6533L12.1214 6.99707" stroke="#DB284E" stroke-width="1.25" stroke-linecap="round" stroke-linejoin="round"/>
</svg>
