<svg width="19" height="18" viewBox="0 0 19 18" fill="none" xmlns="http://www.w3.org/2000/svg">
<g clip-path="url(#clip0_28918_1279)">
<path d="M17.6504 11.3625H12.9254L11.5754 9H16.3004L17.6504 11.3625Z" stroke="#DB284E" stroke-width="0.75" stroke-linejoin="round"/>
<path d="M8.76294 9H16.0754V15.75C16.0754 16.0875 15.8504 16.3125 15.5129 16.3125H8.76294V9Z" fill="white" stroke="#DB284E" stroke-width="0.75" stroke-linejoin="round"/>
<path d="M4.0376 9H8.7626V16.3125H4.6001C4.2626 16.3125 4.0376 16.0875 4.0376 15.75V9Z" fill="white" stroke="#DB284E" stroke-width="0.75" stroke-linejoin="round"/>
<path d="M2.3501 11.475H7.0751L8.6501 9H3.8126L2.3501 11.475Z" fill="white" stroke="#DB284E" stroke-width="0.75" stroke-linejoin="round"/>
<path d="M3.36153 8.21255L3.13653 7.08755C2.91153 6.41255 3.36153 5.73755 4.14903 5.51255L6.06153 5.17505H6.28653H6.51153H6.62403L6.84903 5.28755L7.07403 5.40005L7.18653 5.51255L7.29903 5.62505C7.29903 5.73755 7.41153 5.73755 7.41153 5.85005L7.52403 6.07505L7.97403 8.10005H3.47403V8.21255H3.36153Z" fill="#EB92A7"/>
<path d="M3.58732 5.17505L6.28732 4.61255H6.39982V4.50005V4.38755L6.17482 3.82505C6.17482 3.48755 5.83732 3.15005 5.49982 3.26255L3.92482 3.60005C3.58732 3.60005 3.36232 3.93755 3.47482 4.38755L3.58732 5.17505Z" fill="#DB284E"/>
<path d="M11.2376 8.34707L11.4626 7.22207C11.6876 6.54707 11.2376 5.87207 10.4501 5.64707L8.53759 5.30957H8.31259H8.08759H7.97509L7.75009 5.42207L7.52509 5.53457L7.41259 5.64707L7.30009 5.75957C7.30009 5.87207 7.18759 5.87207 7.18759 5.98457L7.07509 6.20957L6.62509 8.23457H11.1251V8.34707H11.2376Z" fill="#EB92A7"/>
<path d="M11.4079 8.34707L11.1829 7.22207C10.9579 6.54707 11.4079 5.87207 12.1954 5.64707L14.1079 5.30957H14.3329H14.5579H14.6704L14.8954 5.42207L15.1204 5.53457L15.2329 5.64707L15.3454 5.75957C15.3454 5.87207 15.4579 5.87207 15.4579 5.98457L15.5704 6.20957L16.0204 8.23457H11.5204V8.34707H11.4079Z" fill="#EB92A7"/>
<path d="M11.0118 5.30957L8.3118 4.74707H8.1993V4.63457V4.52207L8.4243 3.95957C8.4243 3.62207 8.7618 3.28457 9.0993 3.39707L10.6743 3.73457C11.0118 3.73457 11.2368 4.07207 11.1243 4.52207L11.0118 5.30957Z" fill="#DB284E"/>
<path d="M11.6337 5.30957L14.3337 4.74707H14.4462V4.63457V4.52207L14.2212 3.95957C14.2212 3.62207 13.8837 3.28457 13.5462 3.39707L11.9712 3.73457C11.6337 3.73457 11.4087 4.07207 11.5212 4.52207L11.6337 5.30957Z" fill="#DB284E"/>
</g>
<defs>
<clipPath id="clip0_28918_1279">
<rect width="18" height="18" fill="white" transform="translate(0.5)"/>
</clipPath>
</defs>
</svg>
