<svg width="19" height="18" viewBox="0 0 19 18" fill="none" xmlns="http://www.w3.org/2000/svg">
<path d="M16.8238 4.32031H7.35133C7.31864 4.69909 7.14507 5.05184 6.86491 5.30886C6.58476 5.56588 6.21839 5.70847 5.8382 5.70847C5.45801 5.70847 5.09165 5.56588 4.81149 5.30886C4.53134 5.05184 4.35777 4.69909 4.32508 4.32031H2.17633C1.9436 4.32031 1.72041 4.41276 1.55584 4.57733C1.39128 4.74189 1.29883 4.96509 1.29883 5.19781V12.8028C1.29883 13.0355 1.39128 13.2587 1.55584 13.4233C1.72041 13.5879 1.9436 13.6803 2.17633 13.6803H4.32508C4.35777 13.3015 4.53134 12.9488 4.81149 12.6918C5.09165 12.4347 5.45801 12.2922 5.8382 12.2922C6.21839 12.2922 6.58476 12.4347 6.86491 12.6918C7.14507 12.9488 7.31864 13.3015 7.35133 13.6803H16.8238C17.0566 13.6803 17.2797 13.5879 17.4443 13.4233C17.6089 13.2587 17.7013 13.0355 17.7013 12.8028V5.19781C17.7013 4.96509 17.6089 4.74189 17.4443 4.57733C17.2797 4.41276 17.0566 4.32031 16.8238 4.32031Z" fill="white" stroke="#DB284E" stroke-width="0.75" stroke-linejoin="round"/>
<path d="M5.76562 7.09863V8.11113" stroke="#DB284E" stroke-width="0.75" stroke-linecap="round" stroke-linejoin="round"/>
<path d="M5.76562 9.88867V10.9012" stroke="#DB284E" stroke-width="0.75" stroke-linecap="round" stroke-linejoin="round"/>
<path d="M9.19654 8.73005C8.91417 8.44375 8.75586 8.0578 8.75586 7.65568C8.75586 7.25356 8.91417 6.8676 9.19654 6.5813C9.3345 6.44286 9.49843 6.33301 9.67894 6.25806C9.85944 6.18311 10.053 6.14453 10.2484 6.14453C10.4439 6.14453 10.6374 6.18311 10.8179 6.25806C10.9984 6.33301 11.1623 6.44286 11.3003 6.5813C11.5827 6.8676 11.741 7.25356 11.741 7.65568C11.741 8.0578 11.5827 8.44375 11.3003 8.73005C11.1647 8.87268 11.0016 8.98624 10.8207 9.06384C10.6399 9.14144 10.4452 9.18146 10.2484 9.18146C10.0516 9.18146 9.85692 9.14144 9.67609 9.06384C9.49526 8.98624 9.33211 8.87268 9.19654 8.73005ZM9.84904 7.24505C9.79383 7.29912 9.75035 7.36399 9.72132 7.4356C9.69228 7.50722 9.67832 7.58405 9.68029 7.6613C9.67919 7.73677 9.69361 7.81165 9.72263 7.88131C9.75166 7.95098 9.79469 8.01394 9.84904 8.0663C9.89867 8.12351 9.96002 8.16938 10.0289 8.20082C10.0978 8.23226 10.1727 8.24853 10.2484 8.24853C10.3242 8.24853 10.399 8.23226 10.4679 8.20082C10.5368 8.16938 10.5982 8.12351 10.6478 8.0663C10.7021 8.01394 10.7452 7.95098 10.7742 7.88131C10.8032 7.81165 10.8176 7.73677 10.8165 7.6613C10.8156 7.58239 10.7982 7.50454 10.7652 7.43283C10.7323 7.36111 10.6846 7.29714 10.6253 7.24505C10.5729 7.1907 10.51 7.14768 10.4403 7.11865C10.3706 7.08962 10.2958 7.07521 10.2203 7.0763C10.0795 7.08303 9.94667 7.14341 9.84904 7.24505ZM10.1865 11.9138L13.1565 6.2888H14.1915L11.2103 11.9138H10.1865ZM13.134 11.5313C12.9862 11.385 12.8707 11.2092 12.7952 11.0154C12.7196 10.8216 12.6855 10.6141 12.6953 10.4063C12.692 10.2077 12.7292 10.0105 12.8047 9.82677C12.8801 9.64302 12.9922 9.47657 13.134 9.33755C13.2687 9.19231 13.4325 9.07714 13.6147 8.99959C13.797 8.92204 13.9935 8.88386 14.1915 8.88755C14.3879 8.88403 14.5827 8.92233 14.7631 8.99992C14.9435 9.07751 15.1053 9.1926 15.2378 9.33755C15.3797 9.47657 15.4917 9.64302 15.5672 9.82677C15.6426 10.0105 15.6798 10.2077 15.6765 10.4063C15.6863 10.6141 15.6523 10.8216 15.5767 11.0154C15.5011 11.2092 15.3856 11.385 15.2378 11.5313C15.1034 11.6731 14.941 11.7853 14.7609 11.8609C14.5807 11.9364 14.3868 11.9736 14.1915 11.9701C13.9946 11.9731 13.7992 11.9358 13.6173 11.8603C13.4354 11.7848 13.2709 11.6729 13.134 11.5313ZM13.7865 10.0463C13.7322 10.0987 13.6892 10.1616 13.6601 10.2313C13.6311 10.301 13.6167 10.3758 13.6178 10.4513C13.6165 10.5285 13.6307 10.6051 13.6597 10.6766C13.6887 10.7481 13.7319 10.8131 13.7865 10.8676C13.8389 10.9219 13.9019 10.9649 13.9715 10.994C14.0412 11.023 14.1161 11.0374 14.1915 11.0363C14.2655 11.0387 14.3391 11.0248 14.4071 10.9956C14.4752 10.9665 14.536 10.9228 14.5853 10.8676C14.6416 10.8143 14.6859 10.7496 14.715 10.6778C14.7441 10.606 14.7574 10.5287 14.754 10.4513C14.7573 10.3756 14.7439 10.3 14.7147 10.23C14.6855 10.16 14.6414 10.0973 14.5853 10.0463C14.5365 9.98965 14.4761 9.94422 14.4081 9.91315C14.3402 9.88207 14.2663 9.86609 14.1915 9.8663C14.1154 9.86732 14.0402 9.88379 13.9706 9.91473C13.9009 9.94568 13.8383 9.99044 13.7865 10.0463Z" fill="#FF792F"/>
</svg>
