<svg width="149" height="149" viewBox="0 0 149 149" fill="none" xmlns="http://www.w3.org/2000/svg">
<g opacity="0.8">
<g opacity="0.8">
<path opacity="0.8" d="M149 149H135.435C135.435 112.808 121.327 78.8409 95.7702 53.2298C70.1591 27.673 36.1919 13.5652 0 13.5652V0C39.7731 0 77.213 15.5186 105.374 43.6256C133.481 71.787 149 109.173 149 149Z" fill="#EB92A7" fill-opacity="0.2"/>
</g>
<g opacity="0.8">
<path opacity="0.8" d="M118.94 149H105.374C105.374 90.8868 58.1132 43.5714 0 43.5714V30.0062C31.7968 30.0062 61.6402 42.3777 84.1041 64.8416C106.568 87.3598 118.94 117.203 118.94 149Z" fill="#EB92A7" fill-opacity="0.2"/>
</g>
<g opacity="0.8">
<path opacity="0.8" d="M89.0961 149H75.531C75.531 107.382 41.6723 73.469 0 73.469V59.9038C49.106 59.9038 89.0961 99.894 89.0961 149Z" fill="#EB92A7" fill-opacity="0.2"/>
</g>
</g>
</svg>
