<svg width="42" height="42" viewBox="0 0 42 42" fill="none" xmlns="http://www.w3.org/2000/svg">
<g filter="url(#filter0_d_6_415826)">
<mask id="mask0_6_415826" style="mask-type:alpha" maskUnits="userSpaceOnUse" x="2" y="0" width="38" height="38">
<circle cx="21" cy="19" r="19" fill="#C4C4C4"/>
</mask>
<g mask="url(#mask0_6_415826)">
<rect x="-4.33374" y="-0.905273" width="52.9286" height="39.8095" fill="white"/>
<g clip-path="url(#clip0_6_415826)">
<path d="M12.4219 19.7806L12.4882 19.7674C12.3891 20.4037 12.2917 21.2093 12.3008 21.4636C12.3055 21.5957 12.4037 21.6907 12.5348 21.6907C12.5762 21.6904 12.617 21.6808 12.654 21.6628C13.2476 21.3795 13.6149 21.2883 14.2235 21.1372C14.3664 21.1022 14.4039 20.984 14.3923 20.894C14.3789 20.7891 14.2956 20.6824 14.1627 20.6824C14.1415 20.6825 14.1203 20.6851 14.0997 20.6902C13.5788 20.8195 13.2297 20.9116 12.7965 21.0921C12.806 20.9929 12.8183 20.8782 12.8335 20.7512C12.9176 20.7175 12.9957 20.6859 13.0693 20.6558L13.0723 20.6546C13.4761 20.4907 13.7438 20.3821 14.2237 20.254C14.3666 20.2157 14.4023 20.0967 14.3903 20.0053C14.376 19.9026 14.294 19.7985 14.1649 19.7985C14.1422 19.7985 14.1197 19.8016 14.0979 19.8075C13.6112 19.9381 13.3415 20.0477 12.9335 20.2136L12.9323 20.2141L12.9014 20.2265C12.9371 19.9779 12.9728 19.7389 13.0055 19.5519C13.3491 19.4052 13.6665 19.329 14.1681 19.2318C14.2851 19.2091 14.3532 19.1198 14.3415 19.0047C14.3307 18.8953 14.2421 18.7791 14.0999 18.7791C14.0827 18.7792 14.0656 18.7809 14.0488 18.7842C13.6533 18.8609 13.3469 18.9301 13.0448 19.0381C13.037 19.0254 13.0277 19.0137 13.0171 19.0031C12.9935 18.9802 12.9655 18.9622 12.9347 18.9499C12.9039 18.9377 12.8709 18.9315 12.8376 18.9318C12.7503 18.9318 12.6458 18.9759 12.6147 19.0992C12.6115 19.1118 12.6056 19.1324 12.5986 19.1565V19.159L12.5983 19.1601C12.5862 19.2018 12.5714 19.253 12.5629 19.2912C12.5018 19.3087 12.2794 19.347 12.064 19.3833L12.0532 19.3852C11.8005 19.4277 11.5143 19.4759 11.3315 19.5166C11.3369 19.3803 11.3421 19.2603 11.3473 19.1497C11.3502 19.0855 11.3518 19.0191 11.3534 18.9545L11.3535 18.9484V18.91C11.564 18.8796 11.7731 18.848 12.0247 18.8099L12.0309 18.8088L12.0399 18.8075C12.312 18.7662 12.6196 18.7196 12.9185 18.678C12.945 18.6738 12.9703 18.6641 12.9926 18.6496C13.0149 18.6351 13.0338 18.6161 13.0481 18.5939C13.0664 18.5665 13.0788 18.5358 13.0845 18.5035C13.0903 18.4713 13.0892 18.4383 13.0815 18.4064C13.0536 18.307 12.9691 18.248 12.8555 18.248C12.8402 18.248 12.825 18.249 12.8099 18.2511C12.5241 18.2911 12.2331 18.3351 11.9525 18.3778L11.9398 18.3799C11.754 18.4082 11.5715 18.4358 11.386 18.4632C11.3956 18.3997 11.4094 18.3369 11.4275 18.2752C11.438 18.2442 11.4406 18.2112 11.4351 18.179C11.4297 18.1468 11.4162 18.1164 11.396 18.0904C11.373 18.062 11.3437 18.039 11.3103 18.0234C11.2769 18.0077 11.2403 17.9996 11.2033 17.9999C11.1551 17.9984 11.1079 18.0131 11.0695 18.0414C11.031 18.0697 11.0035 18.1101 10.9916 18.1557C10.9568 18.2771 10.9343 18.4015 10.9244 18.5272C10.6658 18.5621 10.4355 18.5899 10.2206 18.6123C10.0893 18.6257 10 18.7143 10 18.8324C10 18.94 10.1027 19.0657 10.2303 19.0526C10.4355 19.0316 10.6554 19.0052 10.9026 18.9725C10.9014 19.0075 10.9001 19.0424 10.8985 19.0774C10.8907 19.2404 10.8832 19.4132 10.8753 19.6389C10.7901 19.6653 10.7124 19.6913 10.6377 19.7183C10.5393 19.7532 10.4689 19.871 10.4807 19.9789C10.4905 20.0689 10.5522 20.1304 10.6472 20.1437C10.7019 20.1529 10.7579 20.1517 10.8123 20.1404C10.8248 20.1378 10.8398 20.1346 10.8571 20.1304L10.8508 20.3067C10.8347 20.7577 10.8181 21.224 10.7917 21.6825C10.7892 21.7101 10.7925 21.7379 10.8016 21.7642C10.8107 21.7905 10.8253 21.8146 10.8444 21.835C10.8657 21.8559 10.891 21.8724 10.919 21.8834C10.9469 21.8945 10.9768 21.8999 11.007 21.8993C11.1181 21.8993 11.2345 21.8266 11.2424 21.6876C11.2692 21.2254 11.2858 20.7576 11.3018 20.3051L11.3123 20.0139C11.5584 19.9519 12.1042 19.8438 12.3733 19.7906L12.3801 19.7892L12.4219 19.7806Z" fill="#D7244F"/>
<path d="M22.7254 20.624C22.712 20.5192 22.6288 20.4123 22.4957 20.4123C22.4745 20.4124 22.4534 20.4151 22.4328 20.4203C21.8857 20.5561 21.4916 20.6595 21.0325 20.8489C21.0397 20.751 21.0504 20.6364 21.0648 20.5077L21.0672 20.5069C21.0699 20.506 21.0725 20.5051 21.075 20.504C21.2158 20.4475 21.3333 20.3992 21.411 20.366C21.7047 20.2436 21.8664 20.1764 22.2994 20.0602C22.4423 20.0217 22.478 19.9029 22.4657 19.8114C22.4518 19.7086 22.3698 19.6045 22.2404 19.6045C22.2179 19.6047 22.1954 19.6077 22.1736 19.6136C21.7351 19.7313 21.5716 19.7994 21.2767 19.9222L21.2747 19.923C21.2644 19.9274 21.2539 19.9317 21.2432 19.9362L21.2426 19.9365C21.2075 19.9511 21.1709 19.9664 21.1318 19.9824C21.1676 19.7333 21.2072 19.4784 21.2453 19.2628C21.3957 19.2009 21.5589 19.1579 21.7128 19.1198C21.9221 19.0685 22.0517 19.0469 22.2018 19.0218L22.2026 19.0216H22.2042L22.2175 19.0194C22.2925 19.0069 22.3848 18.9915 22.5009 18.9692C22.6179 18.9469 22.6861 18.8581 22.6747 18.7421C22.664 18.6323 22.5752 18.5149 22.4323 18.5149C22.4154 18.5149 22.3986 18.5165 22.3821 18.5197C22.2599 18.5429 22.1408 18.5623 22.0248 18.5812L22.0193 18.582C21.7888 18.6195 21.5494 18.6584 21.3205 18.7276C21.3102 18.6979 21.2931 18.671 21.2706 18.6488C21.223 18.603 21.1588 18.5775 21.092 18.5778C21.0046 18.5778 20.9001 18.6217 20.8691 18.7449C20.8574 18.791 20.8428 18.8584 20.8258 18.9458C20.7283 19.0054 20.6367 19.0739 20.5522 19.1502C20.4807 19.2147 20.4589 19.3 20.4925 19.3844C20.5112 19.4294 20.5428 19.4683 20.5833 19.4964C20.6239 19.5246 20.6718 19.5408 20.7215 19.5432C20.6199 20.1811 20.5232 20.9528 20.5556 21.2142C20.572 21.346 20.6688 21.4381 20.7914 21.4381C20.832 21.4377 20.8721 21.4282 20.9084 21.4103C21.4968 21.1294 21.9419 21.019 22.5577 20.8661L22.5582 20.866C22.6997 20.8316 22.7367 20.714 22.7254 20.624Z" fill="#D7244F"/>
<path d="M16.4205 20.7021C16.3819 21.0577 16.3423 21.4257 16.316 21.7414C16.3058 21.8728 16.1879 21.9416 16.0766 21.9416C16.048 21.9424 16.0196 21.9374 15.993 21.927C15.9665 21.9166 15.9424 21.9009 15.9223 21.881C15.9054 21.8625 15.8927 21.8408 15.885 21.8172C15.8773 21.7936 15.8749 21.7686 15.8778 21.744C15.9054 21.4125 15.9462 21.0337 15.9857 20.6668L15.9857 20.6667L15.9868 20.6567L15.988 20.6453L15.9882 20.6435L15.9882 20.6434L15.9883 20.6431L15.9883 20.6429C16.0145 20.4003 16.0415 20.1496 16.0629 19.9257C16.0687 19.8645 16.0747 19.8034 16.0807 19.7424C15.9578 19.9676 15.8208 20.1958 15.6184 20.3376C15.5842 20.3603 15.5436 20.372 15.5023 20.3712C15.4453 20.3726 15.39 20.3519 15.3485 20.3135C15.2006 20.1647 15.0863 19.9739 14.9902 19.7148C14.9879 19.7736 14.9862 19.8323 14.9848 19.8895C14.9805 20.082 14.9745 20.2892 14.967 20.5402L14.9658 20.578C14.9555 20.9312 14.9448 21.2939 14.94 21.6096C14.9378 21.7405 14.8269 21.809 14.7185 21.809C14.6886 21.8095 14.6589 21.8043 14.6311 21.7937C14.6033 21.783 14.578 21.7671 14.5564 21.7468C14.5384 21.7285 14.5243 21.7067 14.5151 21.6829C14.5059 21.6591 14.5017 21.6337 14.5029 21.6082C14.5127 20.9729 14.5322 20.2443 14.5536 19.7071C14.5673 19.3674 14.5884 19.1072 14.6222 18.8626C14.6254 18.8392 14.6272 18.8102 14.6288 18.7821C14.6304 18.7202 14.6386 18.6587 14.6531 18.5985C14.6574 18.5674 14.6697 18.5379 14.6888 18.5127C14.6943 18.5058 14.7003 18.4993 14.7067 18.4933C14.7239 18.4724 14.7453 18.4552 14.7696 18.4428C14.8036 18.4257 14.8412 18.4169 14.8794 18.4171C14.9623 18.4171 15.0345 18.4564 15.0679 18.5195C15.0773 18.5394 15.0856 18.5598 15.0927 18.5806L15.0936 18.5831C15.0968 18.5995 15.0995 18.6159 15.1015 18.6334C15.1218 18.6959 15.1429 18.7595 15.164 18.823C15.2092 18.9586 15.2558 19.0985 15.2967 19.2393C15.3582 19.4523 15.4573 19.7331 15.5002 19.8482C15.5263 19.8112 15.5516 19.7731 15.5775 19.7322C15.6627 19.5993 15.7485 19.4501 15.8499 19.2629C15.9033 19.1648 15.9566 19.0608 16.0039 18.9684L16.0162 18.9443C16.0907 18.7986 16.1674 18.6484 16.2537 18.5024C16.272 18.4703 16.2989 18.4438 16.3315 18.4255C16.364 18.4072 16.401 18.3979 16.4385 18.3986C16.474 18.3985 16.5091 18.4062 16.5412 18.4211C16.5733 18.436 16.6015 18.4576 16.624 18.4845C16.6424 18.5076 16.6552 18.5346 16.6611 18.5633C16.6671 18.592 16.6661 18.6217 16.6583 18.65C16.6239 18.7831 16.6078 18.9232 16.5923 19.0588L16.5918 19.0627C16.589 19.0889 16.5859 19.1153 16.5827 19.1413C16.5488 19.4256 16.5218 19.7003 16.4977 19.9545C16.4758 20.1828 16.4486 20.4342 16.4222 20.6788L16.4205 20.6943V20.7021Z" fill="#D7244F"/>
<path fill-rule="evenodd" clip-rule="evenodd" d="M17.0127 21.5104C17.1065 21.2238 17.1929 20.9338 17.2581 20.7114C17.493 20.594 17.7078 20.4883 17.9139 20.3881C18.0429 20.8048 18.198 21.2132 18.3783 21.6112C18.411 21.6828 18.4916 21.729 18.5838 21.729C18.626 21.7293 18.6676 21.7188 18.7044 21.6986C18.8135 21.6362 18.8485 21.5107 18.7915 21.3863C18.6308 21.0369 18.4855 20.6425 18.3449 20.1823L18.3971 20.1578C18.4937 20.1124 18.5824 20.0707 18.6665 20.0324C18.7624 19.9884 18.8081 19.9005 18.7858 19.8032C18.7635 19.7058 18.6708 19.605 18.5409 19.605C18.5042 19.6052 18.468 19.6134 18.435 19.629C18.3623 19.6624 18.2888 19.6965 18.2144 19.7312C18.159 19.529 18.104 19.3118 18.0357 19.03C18.0134 18.9362 17.9884 18.8408 17.9596 18.7381C17.9484 18.6979 17.9384 18.6566 17.9293 18.6121L17.9271 18.6012C17.9411 18.5695 17.9471 18.5349 17.9447 18.5004C17.9424 18.4659 17.9317 18.4324 17.9135 18.4028C17.891 18.3677 17.8598 18.3386 17.8229 18.3182C17.786 18.2979 17.7444 18.2868 17.702 18.286C17.6602 18.2856 17.6194 18.2984 17.5856 18.3226C17.5253 18.3647 17.4826 18.4268 17.4655 18.4973L17.4573 18.495L17.4477 18.538C17.2342 19.1046 17.0634 19.6912 16.8984 20.2597L16.8596 20.3916L16.843 20.4002C16.829 20.4049 16.8154 20.4107 16.8024 20.4177C16.7871 20.4255 16.7724 20.4337 16.7588 20.4416C16.7453 20.4495 16.7324 20.4565 16.7188 20.4634L16.6776 20.4842L16.6792 20.4881C16.6461 20.5124 16.6214 20.5459 16.6081 20.5841C16.5949 20.6224 16.5937 20.6637 16.6049 20.7026C16.6216 20.7679 16.6636 20.8242 16.7219 20.8599C16.6615 21.06 16.6095 21.2268 16.5577 21.3841C16.5458 21.4158 16.5421 21.45 16.5468 21.4835C16.5515 21.517 16.5646 21.5488 16.5849 21.5763C16.6089 21.6064 16.6398 21.6307 16.6751 21.6472C16.7103 21.6637 16.749 21.672 16.7881 21.6715C16.8385 21.6728 16.8879 21.6577 16.9286 21.6285C16.9692 21.5994 16.9988 21.5578 17.0127 21.5104ZM17.435 20.1054C17.4912 19.9132 17.5648 19.6651 17.6465 19.4086L17.6504 19.4261L17.6556 19.448C17.6807 19.5535 17.7087 19.6708 17.7397 19.7866C17.7503 19.8267 17.7612 19.8663 17.7721 19.9056C17.7751 19.9162 17.7781 19.9269 17.781 19.9375C17.6715 19.9898 17.5582 20.0441 17.435 20.1054Z" fill="#D7244F"/>
<path d="M20.1075 20.884C20.1426 20.8647 20.1821 20.8544 20.2224 20.8541C20.343 20.8541 20.431 20.9483 20.4541 21.0404C20.4805 21.1428 20.4391 21.234 20.343 21.285C20.1397 21.3939 19.9182 21.5017 19.682 21.5549C19.5773 21.5814 19.4699 21.5962 19.3617 21.5992C19.2428 21.5992 19.1447 21.5733 19.0641 21.5209C18.7888 21.3407 18.8549 21.0029 18.9084 20.73L18.9093 20.7255L18.911 20.7163C18.9125 20.7091 18.9139 20.702 18.9152 20.6951C18.9189 20.6766 18.9224 20.659 18.9255 20.6418C19.0597 19.9103 19.1375 19.1632 19.1704 18.2906C19.176 18.144 19.2972 18.0673 19.4141 18.0673C19.4458 18.0668 19.4772 18.0725 19.5066 18.0841C19.5361 18.0956 19.5628 18.1128 19.5854 18.1346C19.6057 18.1558 19.6214 18.181 19.6314 18.2084C19.6414 18.2359 19.6456 18.265 19.6436 18.2941C19.6181 18.9678 19.5516 19.6435 19.4266 20.4849C19.4061 20.6239 19.3811 20.7615 19.3587 20.8845L19.3551 20.9043L19.3542 20.9097C19.3413 20.9827 19.3258 21.0709 19.3373 21.1333L19.346 21.1346C19.4312 21.1335 19.5159 21.1212 19.5977 21.098C19.7554 21.0537 19.9126 20.9876 20.1075 20.884Z" fill="#D7244F"/>
<path d="M28.3533 20.9999H28.3355C28.1431 20.9999 28.0393 21.1506 28.0359 21.2995C28.0325 21.4426 28.122 21.6009 28.3258 21.6096H28.3417C28.535 21.6096 28.6397 21.459 28.6431 21.3102C28.6461 21.1669 28.5568 21.0086 28.3533 20.9999Z" fill="#D7244F"/>
<path fill-rule="evenodd" clip-rule="evenodd" d="M25.2451 18.2859C25.6383 18.4585 25.9228 18.8474 25.9879 19.3017C26.0638 19.8327 25.8935 20.3834 25.5209 20.8129C25.334 21.0288 25.1014 21.2025 24.8392 21.322C24.8535 21.3604 24.8563 21.4019 24.8474 21.4417C24.8404 21.4763 24.8261 21.509 24.8056 21.5379C24.7851 21.5669 24.7587 21.5914 24.7281 21.61C24.6917 21.6314 24.65 21.6428 24.6075 21.643C24.5273 21.643 24.4498 21.6016 24.3946 21.5293C24.3794 21.5091 24.3659 21.4878 24.3542 21.4655C24.2789 21.4772 24.2029 21.4841 24.1267 21.4859H24.1204C23.9607 21.4859 23.8864 21.3648 23.8851 21.252C23.8835 21.1312 23.965 21.007 24.124 21.0033C24.1602 21.0025 24.1983 20.9999 24.2374 20.9955L24.2313 20.9441C24.1951 20.6452 24.1856 20.3492 24.181 20.099C24.1745 19.7425 24.177 19.3872 24.1886 19.0436C24.1258 19.0249 24.072 18.9845 24.0373 18.9299C24.0143 18.8948 24.0011 18.8544 23.999 18.8127C23.9969 18.771 24.0061 18.7296 24.0255 18.6925C24.0582 18.6275 24.0978 18.5661 24.1438 18.5093C24.304 18.3067 24.5441 18.1948 24.8194 18.1948C24.9663 18.1956 25.1113 18.2266 25.2451 18.2859ZM24.8062 18.6727C24.769 18.6713 24.732 18.6772 24.6972 18.6902V18.69C24.6738 19.1286 24.666 19.5842 24.6738 20.0445C24.6781 20.3034 24.686 20.5802 24.7151 20.8496C24.8865 20.7596 25.0382 20.6377 25.1617 20.4907C25.4355 20.165 25.5688 19.7223 25.5011 19.363C25.4411 19.0452 25.2444 18.7873 24.9998 18.7066C24.9469 18.6862 24.8908 18.6747 24.8339 18.6727H24.8062Z" fill="#D7244F"/>
<path fill-rule="evenodd" clip-rule="evenodd" d="M27.719 20.2506C27.6833 19.9276 27.6447 19.5935 27.5813 19.2683C27.5373 19.0435 27.4873 18.8052 27.4005 18.5787C27.3614 18.4765 27.3198 18.379 27.2408 18.3086C27.1837 18.2566 27.1087 18.2275 27.0307 18.227C26.9902 18.227 26.9502 18.2354 26.9133 18.2516C26.8763 18.2678 26.8433 18.2914 26.8164 18.321C26.7856 18.3527 26.7645 18.3922 26.7555 18.435C26.7465 18.4779 26.7499 18.5223 26.7655 18.5633L26.7656 18.5637C26.7656 18.5639 26.7657 18.5641 26.7658 18.5644L26.7661 18.5654C26.7663 18.5661 26.7666 18.5668 26.7669 18.5675C26.7633 18.5745 26.7602 18.5817 26.7574 18.589C26.6741 18.805 26.5996 19.0259 26.5272 19.2407L26.5116 19.2869V19.2886C26.4257 19.5435 26.3476 19.7731 26.2599 20.0006C26.1399 20.0383 26.1083 20.1434 26.1179 20.2225C26.1213 20.2482 26.1287 20.2732 26.1401 20.2966C26.0995 20.3934 26.0534 20.5063 26.0177 20.6165C25.9691 20.7668 25.913 20.9888 25.9877 21.1802C26.0291 21.285 26.1199 21.3514 26.2245 21.3514C26.2464 21.3514 26.2681 21.3485 26.2892 21.3428C26.3231 21.3327 26.3546 21.316 26.3818 21.2937C26.409 21.2714 26.4312 21.244 26.4473 21.213C26.4616 21.1867 26.4702 21.1577 26.4723 21.128C26.4744 21.0982 26.4701 21.0684 26.4596 21.0404C26.4214 20.9428 26.469 20.8091 26.511 20.6912L26.5111 20.6909L26.5211 20.6632C26.5533 20.5714 26.5919 20.4806 26.6293 20.3926L26.6293 20.3925L26.6294 20.3924L26.632 20.3862L26.6424 20.3616C26.811 20.3266 26.9875 20.2947 27.2306 20.2547L27.2428 20.3625C27.2887 20.7732 27.3364 21.1978 27.4375 21.6079C27.4479 21.6584 27.4761 21.7037 27.5173 21.7358C27.5585 21.7679 27.6099 21.7848 27.6626 21.7835C27.7024 21.7832 27.7417 21.7744 27.7776 21.7577C27.8136 21.7409 27.8454 21.7166 27.8707 21.6865C27.8935 21.6583 27.9091 21.6253 27.9165 21.5901C27.9238 21.5549 27.9225 21.5185 27.9128 21.4838C27.8131 21.0799 27.7653 20.6584 27.719 20.2506ZM27.176 19.8236C27.0407 19.8458 26.9287 19.8648 26.8249 19.8835C26.8776 19.7354 26.9296 19.582 26.9784 19.4378L26.9837 19.4219C26.988 19.4093 26.9925 19.3963 26.997 19.3829L27.0049 19.3596L27.005 19.3594L27.0055 19.3578C27.0234 19.3051 27.0427 19.248 27.0627 19.1899C27.085 19.289 27.1066 19.3996 27.1293 19.5257C27.1349 19.5566 27.1401 19.5877 27.1449 19.6187C27.1454 19.6218 27.1459 19.6249 27.1464 19.6281C27.1479 19.6375 27.1494 19.647 27.1506 19.6564L27.1568 19.6978C27.1571 19.6997 27.1574 19.7015 27.1576 19.7032L27.1581 19.7063C27.1585 19.7088 27.1588 19.711 27.1591 19.713L27.1592 19.7135L27.1592 19.7137L27.1593 19.7141C27.1596 19.7161 27.1599 19.7178 27.1601 19.7191C27.1656 19.7537 27.171 19.7887 27.176 19.8236Z" fill="#D7244F"/>
<path d="M28.5899 19.5538C28.5888 19.5713 28.5877 19.5884 28.5866 19.6052C28.575 19.7862 28.5666 19.9171 28.5613 20.1234C28.5613 20.1382 28.5611 20.1537 28.561 20.1697C28.5607 20.2034 28.5604 20.2391 28.5613 20.2739V20.2788C28.5618 20.3004 28.5625 20.3226 28.5638 20.3446C28.5641 20.3481 28.5656 20.356 28.5656 20.3637V20.3679C28.5666 20.3763 28.5666 20.382 28.5666 20.3838C28.5682 20.3992 28.5712 20.4145 28.5757 20.4294C28.5972 20.4926 28.6154 20.6237 28.5491 20.7138C28.507 20.7696 28.4457 20.7977 28.3641 20.7977C28.3441 20.7977 28.3241 20.7961 28.3044 20.7932C28.0677 20.757 28.0677 20.453 28.0677 20.2713V20.2276C28.0654 20.0013 28.0743 19.8566 28.0868 19.6568L28.0925 19.5638C28.0991 19.4541 28.1041 19.3906 28.1081 19.3398L28.1088 19.3307V19.3284C28.1159 19.2472 28.1206 19.1894 28.1267 19.0215C28.1313 18.9047 28.1347 18.7903 28.1313 18.6748C28.1308 18.6538 28.13 18.629 28.1284 18.6037V18.5885C28.1258 18.5636 28.1213 18.539 28.1149 18.5148C28.1043 18.4817 28.1021 18.4466 28.1083 18.4125C28.1145 18.3784 28.129 18.3462 28.1506 18.3187C28.1754 18.2888 28.2067 18.2648 28.2423 18.2484C28.2779 18.232 28.3169 18.2237 28.3562 18.224C28.4109 18.2226 28.4644 18.2394 28.5079 18.2719C28.5513 18.3043 28.5822 18.3503 28.5952 18.4022C28.6401 18.5632 28.6329 18.7367 28.6259 18.9044L28.6249 18.9303L28.6246 18.9356L28.6243 18.9428C28.6237 18.9552 28.6231 18.9675 28.6231 18.9797C28.6176 19.1462 28.6141 19.192 28.6085 19.2637L28.6083 19.2671V19.2767C28.605 19.3183 28.6007 19.3742 28.595 19.4689V19.4735C28.5932 19.5013 28.5915 19.528 28.5899 19.5538Z" fill="#D7244F"/>
<path d="M31.7935 18.3512C31.7598 18.3507 31.7265 18.3584 31.6966 18.3737C31.6667 18.3889 31.6412 18.4112 31.6224 18.4386L31.6143 18.4363L31.5965 18.4887C31.5037 18.7512 31.3935 19.0146 31.2769 19.2928L31.2756 19.2958C31.2263 19.4135 31.1852 19.5121 31.1452 19.6103C31.0402 19.4628 30.9309 19.3052 30.8139 19.1294C30.773 19.0683 30.7515 19.0402 30.734 19.0174C30.7028 18.9767 30.6744 18.934 30.649 18.8895C30.6133 18.8307 30.5818 18.7754 30.5527 18.7209C30.542 18.7007 30.5309 18.6788 30.5193 18.6545L30.5146 18.6435C30.5116 18.6358 30.5089 18.6275 30.5064 18.6194C30.4946 18.5784 30.4691 18.5424 30.434 18.5171C30.399 18.4918 30.3563 18.4786 30.3128 18.4796C30.2794 18.4794 30.2463 18.4867 30.2162 18.501C30.1862 18.5152 30.1598 18.5361 30.1393 18.5619C30.121 18.5863 30.1092 18.6148 30.1048 18.6447C30.1004 18.6747 30.1037 18.7053 30.1143 18.7337V18.7358C30.2228 18.9788 30.2763 19.0588 30.3939 19.2337C30.3994 19.2419 30.405 19.2502 30.4107 19.2587C30.4222 19.276 30.4343 19.2941 30.4475 19.3132L30.4486 19.3146C30.6308 19.5886 30.801 19.8318 30.9691 20.0579C30.7819 20.5669 30.6833 20.9796 30.659 21.3566C30.6565 21.3819 30.6595 21.4074 30.6678 21.4315C30.676 21.4556 30.6893 21.4777 30.7069 21.4964C30.726 21.5155 30.7489 21.5305 30.7742 21.5406C30.7994 21.5507 30.8266 21.5556 30.8539 21.5551C30.9537 21.5551 31.0591 21.4896 31.0672 21.3643C31.1088 20.7192 31.3881 20.0599 31.6591 19.4205L31.6627 19.4118L31.6649 19.4065L31.6693 19.3961L31.6694 19.3959C31.7585 19.1858 31.8428 18.9868 31.9194 18.7872C31.9327 18.7692 31.9429 18.7492 31.9498 18.7281C31.9569 18.7066 31.9632 18.6848 31.9698 18.661L31.9702 18.6596C31.9756 18.6407 31.9812 18.6211 31.9877 18.6016C31.9983 18.574 32.0017 18.5443 31.9978 18.515C31.9938 18.4858 31.9826 18.458 31.965 18.434C31.9449 18.4082 31.919 18.3873 31.8892 18.3729C31.8594 18.3585 31.8267 18.3511 31.7935 18.3512Z" fill="#D7244F"/>
<path d="M30.1002 20.8236C30.1357 20.8042 30.1757 20.7938 30.2163 20.7935C30.3385 20.7935 30.4271 20.8884 30.4512 20.982C30.478 21.0855 30.4359 21.1779 30.3383 21.2303C30.1479 21.3313 29.9414 21.4319 29.7208 21.4817C29.6224 21.5066 29.5215 21.5205 29.42 21.5233C29.3049 21.5233 29.2111 21.4985 29.1331 21.4473C28.8754 21.2789 28.9319 20.9699 28.9773 20.7216L28.9773 20.7213C28.9793 20.71 28.9811 20.6993 28.983 20.6889C28.9876 20.6622 28.9918 20.6383 28.9952 20.6155C29.1238 19.7728 29.1985 19.0428 29.2235 18.3839C29.229 18.2354 29.3514 18.1578 29.4695 18.1578C29.5015 18.1573 29.5334 18.163 29.5632 18.1747C29.593 18.1864 29.6201 18.2038 29.6429 18.2259C29.6636 18.2476 29.6796 18.2732 29.6899 18.3012C29.7002 18.3291 29.7045 18.3588 29.7026 18.3884C29.6788 19.0386 29.6118 19.721 29.5002 20.4748C29.4804 20.6081 29.456 20.7414 29.4344 20.8593L29.4343 20.8602L29.433 20.8664L29.4313 20.8763C29.4216 20.9342 29.4102 21.0021 29.4151 21.053C29.4887 21.051 29.5617 21.04 29.6324 21.0201C29.7769 20.9794 29.9216 20.919 30.1002 20.8236Z" fill="#D7244F"/>
<path d="M31.9997 22.3311H22.3545V24H31.9997V22.3311Z" fill="#D8254F"/>
<path d="M23.8117 23.2591C23.8431 23.2701 23.8714 23.288 23.8946 23.3115C23.9053 23.3226 23.9136 23.3357 23.9191 23.3499C23.9246 23.3642 23.9271 23.3794 23.9266 23.3946C23.9268 23.4177 23.9217 23.4406 23.9115 23.4614C23.9013 23.4823 23.8863 23.5006 23.8678 23.5149C23.8282 23.5472 23.7747 23.5634 23.707 23.5634C23.6719 23.5636 23.6368 23.5592 23.6029 23.5503C23.5754 23.5437 23.5489 23.5339 23.5237 23.5211C23.5041 23.5106 23.4855 23.4981 23.4684 23.4839C23.4568 23.4747 23.4459 23.4647 23.4357 23.4541C23.4308 23.4483 23.4275 23.4439 23.4253 23.4409L23.3162 23.5477L23.3315 23.5664C23.3458 23.5814 23.3613 23.5951 23.378 23.6075C23.4019 23.6255 23.4272 23.6418 23.4535 23.6564C23.4886 23.6748 23.526 23.6888 23.5646 23.6981C23.6113 23.71 23.6593 23.7159 23.7076 23.7156C23.8296 23.7156 23.9253 23.6857 23.9946 23.626C24.0284 23.5973 24.0552 23.5617 24.0732 23.5217C24.0911 23.4816 24.0997 23.4382 24.0984 23.3945C24.0997 23.3463 24.0887 23.2985 24.0663 23.2556C24.0471 23.2191 24.0186 23.1882 23.9835 23.1659C23.948 23.1443 23.9102 23.1265 23.8708 23.1126C23.8303 23.0982 23.789 23.0857 23.7472 23.0753C23.709 23.0658 23.6714 23.0541 23.6347 23.0403C23.6033 23.0293 23.575 23.0113 23.5518 22.9879C23.5305 22.9654 23.519 22.9357 23.5198 22.9051C23.5201 22.8862 23.525 22.8677 23.5339 22.851C23.5428 22.8343 23.5556 22.8198 23.5713 22.8088C23.6104 22.7799 23.6586 22.7654 23.7076 22.7677C23.7345 22.7676 23.7613 22.7708 23.7874 22.7773C23.8086 22.7823 23.8291 22.7897 23.8485 22.7994C23.8637 22.8075 23.8782 22.8168 23.8919 22.8271C23.9013 22.8337 23.91 22.8412 23.9178 22.8495C23.9217 22.8542 23.9246 22.8575 23.9266 22.8595L24.0357 22.752L24.0236 22.7372C24.0112 22.7242 23.9976 22.7125 23.9828 22.7022C23.962 22.6877 23.9403 22.6745 23.9178 22.6627C23.8883 22.6475 23.8571 22.6358 23.8247 22.6278C23.7865 22.618 23.7471 22.6132 23.7076 22.6133C23.5972 22.6133 23.5096 22.641 23.445 22.6965C23.414 22.7217 23.3893 22.7535 23.3725 22.7893C23.3557 22.8252 23.3473 22.8642 23.348 22.9037C23.3464 22.9522 23.3575 23.0003 23.3801 23.0435C23.3993 23.0797 23.4278 23.1105 23.4628 23.1327C23.4984 23.1544 23.5362 23.1724 23.5755 23.1864C23.616 23.2012 23.6573 23.2138 23.6992 23.2241C23.7373 23.2336 23.7749 23.2453 23.8117 23.2591Z" fill="white"/>
<path d="M25.3805 22.7831V22.6301H24.5516V22.7831H24.8803V23.7008H25.0516V22.7831H25.3805Z" fill="white"/>
<path d="M26.5914 23.4775C26.6191 23.4508 26.641 23.4189 26.6558 23.3838C26.6706 23.3486 26.6779 23.3109 26.6774 23.2729V22.6301H26.8499V23.2729C26.8508 23.3314 26.8393 23.3894 26.8162 23.4433C26.793 23.4972 26.7586 23.5459 26.7152 23.5861C26.6278 23.6694 26.5105 23.7159 26.3885 23.7159C26.2665 23.7159 26.1493 23.6694 26.0618 23.5861C26.0185 23.5459 25.9842 23.4973 25.961 23.4435C25.9378 23.3896 25.9263 23.3316 25.9271 23.2732V22.6301H26.0995V23.2729C26.099 23.311 26.1063 23.3487 26.1211 23.384C26.1358 23.4192 26.1577 23.4512 26.1854 23.478C26.2115 23.505 26.2429 23.5266 26.2779 23.5413C26.3128 23.5561 26.3504 23.5637 26.3884 23.5637C26.4264 23.5637 26.4641 23.5561 26.499 23.5413C26.5339 23.5266 26.5654 23.505 26.5914 23.478V23.4775Z" fill="white"/>
<path fill-rule="evenodd" clip-rule="evenodd" d="M28.1172 22.6697C28.0499 22.6425 27.9776 22.629 27.9048 22.6301H27.5214V23.7008H27.9048C27.9776 23.7018 28.0499 23.6883 28.1172 23.6611C28.1845 23.6339 28.2455 23.5935 28.2963 23.5425C28.3481 23.4936 28.3892 23.435 28.4174 23.3702C28.4455 23.3054 28.46 23.2358 28.46 23.1654C28.46 23.095 28.4455 23.0254 28.4174 22.9606C28.3892 22.8958 28.3481 22.8372 28.2963 22.7884C28.2455 22.7373 28.1845 22.697 28.1172 22.6697ZM27.6933 23.5477V22.7831H27.9048C27.9553 22.7823 28.0055 22.7917 28.0521 22.8108C28.0987 22.8299 28.1407 22.8583 28.1756 22.8941C28.2472 22.967 28.2872 23.0643 28.2872 23.1654C28.2872 23.2666 28.2472 23.3638 28.1756 23.4368C28.1408 23.4726 28.0987 23.501 28.0521 23.5201C28.0055 23.5392 27.9553 23.5486 27.9048 23.5477H27.6933Z" fill="white"/>
<path d="M29.0847 22.6301H29.2569V23.7008H29.085L29.0847 22.6301Z" fill="white"/>
<path fill-rule="evenodd" clip-rule="evenodd" d="M30.4587 22.6152C30.2958 22.6152 30.1588 22.6684 30.0479 22.7749C29.9951 22.826 29.9532 22.8868 29.9247 22.9539C29.8961 23.0209 29.8814 23.0928 29.8814 23.1654C29.8814 23.238 29.8961 23.3099 29.9247 23.377C29.9532 23.444 29.9951 23.5048 30.0479 23.5559C30.1581 23.6625 30.2951 23.7158 30.4587 23.7158C30.6223 23.7158 30.7597 23.6625 30.8706 23.5559C30.9234 23.5048 30.9652 23.444 30.9937 23.3769C31.0223 23.3099 31.037 23.238 31.037 23.1654C31.037 23.0928 31.0223 23.0209 30.9937 22.9539C30.9652 22.8869 30.9234 22.826 30.8706 22.7749C30.7589 22.6684 30.6216 22.6152 30.4587 22.6152ZM30.4207 23.5656C30.3261 23.5558 30.2378 23.5141 30.1711 23.4478C30.1328 23.4111 30.1026 23.3671 30.0823 23.3185C30.062 23.27 30.0521 23.2179 30.0532 23.1654C30.0534 23.0723 30.0865 22.9822 30.1471 22.9103C30.2076 22.8385 30.2918 22.7895 30.3852 22.7716C30.4786 22.7537 30.5755 22.7682 30.6592 22.8124C30.743 22.8566 30.8084 22.9279 30.8444 23.0141C30.8804 23.1002 30.8847 23.196 30.8565 23.2849C30.8284 23.3738 30.7695 23.4504 30.69 23.5016C30.6106 23.5528 30.5154 23.5755 30.4207 23.5656Z" fill="white"/>
</g>
</g>
</g>
<defs>
<filter id="filter0_d_6_415826" x="0" y="0" width="42" height="42" filterUnits="userSpaceOnUse" color-interpolation-filters="sRGB">
<feFlood flood-opacity="0" result="BackgroundImageFix"/>
<feColorMatrix in="SourceAlpha" type="matrix" values="0 0 0 0 0 0 0 0 0 0 0 0 0 0 0 0 0 0 127 0" result="hardAlpha"/>
<feOffset dy="2"/>
<feGaussianBlur stdDeviation="1"/>
<feColorMatrix type="matrix" values="0 0 0 0 0 0 0 0 0 0 0 0 0 0 0 0 0 0 0.08 0"/>
<feBlend mode="normal" in2="BackgroundImageFix" result="effect1_dropShadow_6_415826"/>
<feBlend mode="normal" in="SourceGraphic" in2="effect1_dropShadow_6_415826" result="shape"/>
</filter>
<clipPath id="clip0_6_415826">
<rect width="22" height="6" fill="white" transform="translate(10 18)"/>
</clipPath>
</defs>
</svg>
