<svg width="20" height="21" viewBox="0 0 20 21" fill="none" xmlns="http://www.w3.org/2000/svg">
<mask id="path-1-outside-1_29417_55439" maskUnits="userSpaceOnUse" x="0.71875" y="0.832031" width="19" height="20" fill="black">
<rect fill="white" x="0.71875" y="0.832031" width="19" height="20"/>
<path d="M17.0467 10.8724C16.9745 10.7618 16.9361 10.6326 16.9361 10.5006C16.9361 10.3686 16.9745 10.2394 17.0467 10.1288L18.1694 8.39949C18.2248 8.31448 18.2605 8.21818 18.274 8.11761C18.2875 8.01705 18.2784 7.91474 18.2473 7.81814C18.2147 7.72265 18.1617 7.63545 18.0918 7.56267C18.0219 7.48989 17.937 7.43329 17.8429 7.39686L15.9177 6.66174C15.7947 6.61402 15.6881 6.53177 15.6107 6.42489C15.5334 6.31802 15.4885 6.19107 15.4816 6.05931L15.3763 4.00139C15.3713 3.89988 15.3435 3.8008 15.295 3.71147C15.2465 3.62215 15.1786 3.54486 15.0962 3.48533C15.0139 3.42588 14.9195 3.38541 14.8197 3.36683C14.7199 3.34825 14.6172 3.35204 14.519 3.3779L12.5327 3.91292C12.4057 3.94785 12.2713 3.94493 12.1459 3.90452C12.0206 3.8641 11.9098 3.78796 11.8271 3.68543L10.5296 2.08038C10.4655 2.00271 10.3851 1.94017 10.2941 1.89723C10.203 1.8543 10.1036 1.83203 10.003 1.83203C9.90231 1.83203 9.8029 1.8543 9.71186 1.89723C9.62082 1.94017 9.54041 2.00271 9.47638 2.08038L8.18096 3.68333C8.0987 3.78583 7.98834 3.86214 7.86339 3.90292C7.73845 3.9437 7.60432 3.94717 7.47743 3.91292L5.48901 3.3779C5.39085 3.35204 5.28818 3.34825 5.18838 3.36683C5.08859 3.38541 4.99415 3.42588 4.91187 3.48533C4.82949 3.54486 4.76154 3.62215 4.71305 3.71147C4.66456 3.8008 4.63677 3.89988 4.63172 4.00139L4.52851 6.05931C4.52121 6.1907 4.47621 6.3172 4.39888 6.42366C4.32155 6.53013 4.21518 6.61206 4.09249 6.65963L2.16727 7.39475C2.07167 7.42971 1.98516 7.48572 1.91416 7.55866C1.84316 7.63159 1.78949 7.71957 1.75712 7.81607C1.72475 7.91257 1.71452 8.01512 1.72717 8.11612C1.73983 8.21711 1.77506 8.31397 1.83025 8.39949L2.95294 10.1267C3.02509 10.2373 3.0635 10.3665 3.0635 10.4985C3.0635 10.6305 3.02509 10.7597 2.95294 10.8703L1.83025 12.5954C1.77443 12.6803 1.7384 12.7767 1.72483 12.8774C1.71126 12.9781 1.72048 13.0805 1.75182 13.1772C1.78316 13.2738 1.83582 13.3622 1.90591 13.4358C1.97599 13.5094 2.06171 13.5662 2.15673 13.6022L4.08196 14.3395C4.20693 14.3855 4.31574 14.4671 4.39506 14.5741C4.47437 14.6811 4.52075 14.8089 4.52851 14.9419L4.63383 16.9998C4.63932 17.1012 4.66731 17.2001 4.71576 17.2894C4.76421 17.3787 4.83192 17.456 4.91398 17.5159C4.99616 17.5755 5.09068 17.6159 5.19057 17.6342C5.29046 17.6524 5.39317 17.648 5.49112 17.6212L7.47743 17.0862C7.60465 17.052 7.73904 17.0555 7.8643 17.0963C7.98956 17.1371 8.1003 17.2133 8.18306 17.3158L9.47848 18.9187C9.54251 18.9964 9.62293 19.0589 9.71397 19.1019C9.80501 19.1448 9.90442 19.1671 10.0051 19.1671C10.1057 19.1671 10.2051 19.1448 10.2962 19.1019C10.3872 19.0589 10.4676 18.9964 10.5317 18.9187L11.8271 17.3158C11.9099 17.2133 12.0206 17.1371 12.1458 17.0963C12.2711 17.0555 12.4055 17.052 12.5327 17.0862L14.5211 17.6212C14.6191 17.648 14.7218 17.6524 14.8217 17.6342C14.9216 17.6159 15.0161 17.5755 15.0983 17.5159C15.1803 17.456 15.248 17.3787 15.2965 17.2894C15.345 17.2001 15.3729 17.1012 15.3784 16.9998L15.4838 14.9419C15.491 14.8105 15.536 14.684 15.6134 14.5775C15.6907 14.4711 15.7971 14.3891 15.9198 14.3416L17.845 13.6043C17.94 13.5683 18.0257 13.5115 18.0958 13.4379C18.1659 13.3643 18.2186 13.2759 18.2499 13.1793C18.2812 13.0826 18.2905 12.9802 18.2769 12.8795C18.2633 12.7788 18.2273 12.6824 18.1715 12.5975L17.0467 10.8724ZM14.5548 8.72388L9.93767 13.3431C9.84905 13.4319 9.74382 13.5022 9.62798 13.5503C9.51214 13.5983 9.38798 13.623 9.26258 13.623C9.13718 13.623 9.01302 13.5983 8.89718 13.5503C8.78134 13.5022 8.67611 13.4319 8.58749 13.3431L6.27048 11.0261C6.18182 10.9375 6.1115 10.8322 6.06352 10.7164C6.01554 10.6006 5.99085 10.4764 5.99085 10.351C5.99085 10.2257 6.01554 10.1015 6.06352 9.98569C6.1115 9.86986 6.18182 9.76461 6.27048 9.67595C6.35913 9.5873 6.46438 9.51698 6.58021 9.469C6.69605 9.42102 6.82019 9.39632 6.94557 9.39632C7.07095 9.39632 7.1951 9.42102 7.31093 9.469C7.42676 9.51698 7.53201 9.5873 7.62066 9.67595L9.25521 11.3084L13.2047 7.37369C13.3837 7.19465 13.6265 7.09406 13.8797 7.09406C14.133 7.09406 14.3758 7.19465 14.5548 7.37369C14.7339 7.55274 14.8345 7.79557 14.8345 8.04878C14.8345 8.30199 14.7339 8.54483 14.5548 8.72388Z"/>
</mask>
<path d="M17.0467 10.8724C16.9745 10.7618 16.9361 10.6326 16.9361 10.5006C16.9361 10.3686 16.9745 10.2394 17.0467 10.1288L18.1694 8.39949C18.2248 8.31448 18.2605 8.21818 18.274 8.11761C18.2875 8.01705 18.2784 7.91474 18.2473 7.81814C18.2147 7.72265 18.1617 7.63545 18.0918 7.56267C18.0219 7.48989 17.937 7.43329 17.8429 7.39686L15.9177 6.66174C15.7947 6.61402 15.6881 6.53177 15.6107 6.42489C15.5334 6.31802 15.4885 6.19107 15.4816 6.05931L15.3763 4.00139C15.3713 3.89988 15.3435 3.8008 15.295 3.71147C15.2465 3.62215 15.1786 3.54486 15.0962 3.48533C15.0139 3.42588 14.9195 3.38541 14.8197 3.36683C14.7199 3.34825 14.6172 3.35204 14.519 3.3779L12.5327 3.91292C12.4057 3.94785 12.2713 3.94493 12.1459 3.90452C12.0206 3.8641 11.9098 3.78796 11.8271 3.68543L10.5296 2.08038C10.4655 2.00271 10.3851 1.94017 10.2941 1.89723C10.203 1.8543 10.1036 1.83203 10.003 1.83203C9.90231 1.83203 9.8029 1.8543 9.71186 1.89723C9.62082 1.94017 9.54041 2.00271 9.47638 2.08038L8.18096 3.68333C8.0987 3.78583 7.98834 3.86214 7.86339 3.90292C7.73845 3.9437 7.60432 3.94717 7.47743 3.91292L5.48901 3.3779C5.39085 3.35204 5.28818 3.34825 5.18838 3.36683C5.08859 3.38541 4.99415 3.42588 4.91187 3.48533C4.82949 3.54486 4.76154 3.62215 4.71305 3.71147C4.66456 3.8008 4.63677 3.89988 4.63172 4.00139L4.52851 6.05931C4.52121 6.1907 4.47621 6.3172 4.39888 6.42366C4.32155 6.53013 4.21518 6.61206 4.09249 6.65963L2.16727 7.39475C2.07167 7.42971 1.98516 7.48572 1.91416 7.55866C1.84316 7.63159 1.78949 7.71957 1.75712 7.81607C1.72475 7.91257 1.71452 8.01512 1.72717 8.11612C1.73983 8.21711 1.77506 8.31397 1.83025 8.39949L2.95294 10.1267C3.02509 10.2373 3.0635 10.3665 3.0635 10.4985C3.0635 10.6305 3.02509 10.7597 2.95294 10.8703L1.83025 12.5954C1.77443 12.6803 1.7384 12.7767 1.72483 12.8774C1.71126 12.9781 1.72048 13.0805 1.75182 13.1772C1.78316 13.2738 1.83582 13.3622 1.90591 13.4358C1.97599 13.5094 2.06171 13.5662 2.15673 13.6022L4.08196 14.3395C4.20693 14.3855 4.31574 14.4671 4.39506 14.5741C4.47437 14.6811 4.52075 14.8089 4.52851 14.9419L4.63383 16.9998C4.63932 17.1012 4.66731 17.2001 4.71576 17.2894C4.76421 17.3787 4.83192 17.456 4.91398 17.5159C4.99616 17.5755 5.09068 17.6159 5.19057 17.6342C5.29046 17.6524 5.39317 17.648 5.49112 17.6212L7.47743 17.0862C7.60465 17.052 7.73904 17.0555 7.8643 17.0963C7.98956 17.1371 8.1003 17.2133 8.18306 17.3158L9.47848 18.9187C9.54251 18.9964 9.62293 19.0589 9.71397 19.1019C9.80501 19.1448 9.90442 19.1671 10.0051 19.1671C10.1057 19.1671 10.2051 19.1448 10.2962 19.1019C10.3872 19.0589 10.4676 18.9964 10.5317 18.9187L11.8271 17.3158C11.9099 17.2133 12.0206 17.1371 12.1458 17.0963C12.2711 17.0555 12.4055 17.052 12.5327 17.0862L14.5211 17.6212C14.6191 17.648 14.7218 17.6524 14.8217 17.6342C14.9216 17.6159 15.0161 17.5755 15.0983 17.5159C15.1803 17.456 15.248 17.3787 15.2965 17.2894C15.345 17.2001 15.3729 17.1012 15.3784 16.9998L15.4838 14.9419C15.491 14.8105 15.536 14.684 15.6134 14.5775C15.6907 14.4711 15.7971 14.3891 15.9198 14.3416L17.845 13.6043C17.94 13.5683 18.0257 13.5115 18.0958 13.4379C18.1659 13.3643 18.2186 13.2759 18.2499 13.1793C18.2812 13.0826 18.2905 12.9802 18.2769 12.8795C18.2633 12.7788 18.2273 12.6824 18.1715 12.5975L17.0467 10.8724ZM14.5548 8.72388L9.93767 13.3431C9.84905 13.4319 9.74382 13.5022 9.62798 13.5503C9.51214 13.5983 9.38798 13.623 9.26258 13.623C9.13718 13.623 9.01302 13.5983 8.89718 13.5503C8.78134 13.5022 8.67611 13.4319 8.58749 13.3431L6.27048 11.0261C6.18182 10.9375 6.1115 10.8322 6.06352 10.7164C6.01554 10.6006 5.99085 10.4764 5.99085 10.351C5.99085 10.2257 6.01554 10.1015 6.06352 9.98569C6.1115 9.86986 6.18182 9.76461 6.27048 9.67595C6.35913 9.5873 6.46438 9.51698 6.58021 9.469C6.69605 9.42102 6.82019 9.39632 6.94557 9.39632C7.07095 9.39632 7.1951 9.42102 7.31093 9.469C7.42676 9.51698 7.53201 9.5873 7.62066 9.67595L9.25521 11.3084L13.2047 7.37369C13.3837 7.19465 13.6265 7.09406 13.8797 7.09406C14.133 7.09406 14.3758 7.19465 14.5548 7.37369C14.7339 7.55274 14.8345 7.79557 14.8345 8.04878C14.8345 8.30199 14.7339 8.54483 14.5548 8.72388Z" fill="#EB92A7"/>
<path d="M17.0467 10.8724C16.9745 10.7618 16.9361 10.6326 16.9361 10.5006C16.9361 10.3686 16.9745 10.2394 17.0467 10.1288L18.1694 8.39949C18.2248 8.31448 18.2605 8.21818 18.274 8.11761C18.2875 8.01705 18.2784 7.91474 18.2473 7.81814C18.2147 7.72265 18.1617 7.63545 18.0918 7.56267C18.0219 7.48989 17.937 7.43329 17.8429 7.39686L15.9177 6.66174C15.7947 6.61402 15.6881 6.53177 15.6107 6.42489C15.5334 6.31802 15.4885 6.19107 15.4816 6.05931L15.3763 4.00139C15.3713 3.89988 15.3435 3.8008 15.295 3.71147C15.2465 3.62215 15.1786 3.54486 15.0962 3.48533C15.0139 3.42588 14.9195 3.38541 14.8197 3.36683C14.7199 3.34825 14.6172 3.35204 14.519 3.3779L12.5327 3.91292C12.4057 3.94785 12.2713 3.94493 12.1459 3.90452C12.0206 3.8641 11.9098 3.78796 11.8271 3.68543L10.5296 2.08038C10.4655 2.00271 10.3851 1.94017 10.2941 1.89723C10.203 1.8543 10.1036 1.83203 10.003 1.83203C9.90231 1.83203 9.8029 1.8543 9.71186 1.89723C9.62082 1.94017 9.54041 2.00271 9.47638 2.08038L8.18096 3.68333C8.0987 3.78583 7.98834 3.86214 7.86339 3.90292C7.73845 3.9437 7.60432 3.94717 7.47743 3.91292L5.48901 3.3779C5.39085 3.35204 5.28818 3.34825 5.18838 3.36683C5.08859 3.38541 4.99415 3.42588 4.91187 3.48533C4.82949 3.54486 4.76154 3.62215 4.71305 3.71147C4.66456 3.8008 4.63677 3.89988 4.63172 4.00139L4.52851 6.05931C4.52121 6.1907 4.47621 6.3172 4.39888 6.42366C4.32155 6.53013 4.21518 6.61206 4.09249 6.65963L2.16727 7.39475C2.07167 7.42971 1.98516 7.48572 1.91416 7.55866C1.84316 7.63159 1.78949 7.71957 1.75712 7.81607C1.72475 7.91257 1.71452 8.01512 1.72717 8.11612C1.73983 8.21711 1.77506 8.31397 1.83025 8.39949L2.95294 10.1267C3.02509 10.2373 3.0635 10.3665 3.0635 10.4985C3.0635 10.6305 3.02509 10.7597 2.95294 10.8703L1.83025 12.5954C1.77443 12.6803 1.7384 12.7767 1.72483 12.8774C1.71126 12.9781 1.72048 13.0805 1.75182 13.1772C1.78316 13.2738 1.83582 13.3622 1.90591 13.4358C1.97599 13.5094 2.06171 13.5662 2.15673 13.6022L4.08196 14.3395C4.20693 14.3855 4.31574 14.4671 4.39506 14.5741C4.47437 14.6811 4.52075 14.8089 4.52851 14.9419L4.63383 16.9998C4.63932 17.1012 4.66731 17.2001 4.71576 17.2894C4.76421 17.3787 4.83192 17.456 4.91398 17.5159C4.99616 17.5755 5.09068 17.6159 5.19057 17.6342C5.29046 17.6524 5.39317 17.648 5.49112 17.6212L7.47743 17.0862C7.60465 17.052 7.73904 17.0555 7.8643 17.0963C7.98956 17.1371 8.1003 17.2133 8.18306 17.3158L9.47848 18.9187C9.54251 18.9964 9.62293 19.0589 9.71397 19.1019C9.80501 19.1448 9.90442 19.1671 10.0051 19.1671C10.1057 19.1671 10.2051 19.1448 10.2962 19.1019C10.3872 19.0589 10.4676 18.9964 10.5317 18.9187L11.8271 17.3158C11.9099 17.2133 12.0206 17.1371 12.1458 17.0963C12.2711 17.0555 12.4055 17.052 12.5327 17.0862L14.5211 17.6212C14.6191 17.648 14.7218 17.6524 14.8217 17.6342C14.9216 17.6159 15.0161 17.5755 15.0983 17.5159C15.1803 17.456 15.248 17.3787 15.2965 17.2894C15.345 17.2001 15.3729 17.1012 15.3784 16.9998L15.4838 14.9419C15.491 14.8105 15.536 14.684 15.6134 14.5775C15.6907 14.4711 15.7971 14.3891 15.9198 14.3416L17.845 13.6043C17.94 13.5683 18.0257 13.5115 18.0958 13.4379C18.1659 13.3643 18.2186 13.2759 18.2499 13.1793C18.2812 13.0826 18.2905 12.9802 18.2769 12.8795C18.2633 12.7788 18.2273 12.6824 18.1715 12.5975L17.0467 10.8724ZM14.5548 8.72388L9.93767 13.3431C9.84905 13.4319 9.74382 13.5022 9.62798 13.5503C9.51214 13.5983 9.38798 13.623 9.26258 13.623C9.13718 13.623 9.01302 13.5983 8.89718 13.5503C8.78134 13.5022 8.67611 13.4319 8.58749 13.3431L6.27048 11.0261C6.18182 10.9375 6.1115 10.8322 6.06352 10.7164C6.01554 10.6006 5.99085 10.4764 5.99085 10.351C5.99085 10.2257 6.01554 10.1015 6.06352 9.98569C6.1115 9.86986 6.18182 9.76461 6.27048 9.67595C6.35913 9.5873 6.46438 9.51698 6.58021 9.469C6.69605 9.42102 6.82019 9.39632 6.94557 9.39632C7.07095 9.39632 7.1951 9.42102 7.31093 9.469C7.42676 9.51698 7.53201 9.5873 7.62066 9.67595L9.25521 11.3084L13.2047 7.37369C13.3837 7.19465 13.6265 7.09406 13.8797 7.09406C14.133 7.09406 14.3758 7.19465 14.5548 7.37369C14.7339 7.55274 14.8345 7.79557 14.8345 8.04878C14.8345 8.30199 14.7339 8.54483 14.5548 8.72388Z" stroke="#DB284E" stroke-width="2" mask="url(#path-1-outside-1_29417_55439)"/>
</svg>
