<svg width="24" height="25" viewBox="0 0 24 25" fill="none" xmlns="http://www.w3.org/2000/svg">
<path fill-rule="evenodd" clip-rule="evenodd" d="M19.75 12.5C19.75 12.9142 19.4142 13.25 19 13.25L5 13.25C4.58579 13.25 4.25 12.9142 4.25 12.5C4.25 12.0858 4.58579 11.75 5 11.75L19 11.75C19.4142 11.75 19.75 12.0858 19.75 12.5Z" fill="#13161A"/>
<path fill-rule="evenodd" clip-rule="evenodd" d="M11.4697 20.0303C11.1768 19.7374 11.1768 19.2626 11.4697 18.9697L17.9393 12.5L11.4697 6.03033C11.1768 5.73744 11.1768 5.26256 11.4697 4.96967C11.7626 4.67678 12.2374 4.67678 12.5303 4.96967L19.5303 11.9697C19.8232 12.2626 19.8232 12.7374 19.5303 13.0303L12.5303 20.0303C12.2374 20.3232 11.7626 20.3232 11.4697 20.0303Z" fill="#13161A"/>
</svg>
