<svg width="829" height="519" fill="none" xmlns="http://www.w3.org/2000/svg"><path d="M794.754 179.514c33.701 85.5-48 73.5-100 150.798-29.961 50.619 5 146.202-101.5 146.202-70.756 0-99.15-97.584-148.824-146.202-41.955-41.063-120.268-73.878-111.271-122.438 8.931-48.202 95.64-34.891 144.605-57.474 47.793-22.043 72.758-79.93 130.894-69.59 65.164 11.59 164.762 44.579 186.096 98.704Z" fill="#FFE0EE"/><path d="m446.228 287.09-34.491 116.199 115.372 24.678L561.6 311.768 446.228 287.09Z" fill="#ECB8AB"/><path d="m452.804 296.347-26.278 88.53 97.849 20.929 26.278-88.529-97.849-20.93Z" fill="#FEF1EB"/><path d="M461.983 320.034s.545-3.146 2.649-3.166c2.882-.011 3.442-.164 3.442-.164s-3.63.32-3.871-1.915c-.241-2.236.138-2.29.138-2.29s-.623 2.938-2.243 2.885c-1.62-.053-2.837-.359-2.837-.359s3.255 1.114 3.244 2.063c-.012.948-.522 2.946-.522 2.946Z" fill="#F7B11F"/><path d="M462.378 320.125c.126-.766.422-1.546.94-2.192.363-.486.83-.705 1.511-.732.849-.014 1.731-.024 2.587-.094.271-.005.547-.039.792-.105.419-.107.356-.717-.123-.672-.752.051-1.56.01-2.241-.25-.52-.189-.955-.514-1.132-1.018-.124-.385-.14-.818-.162-1.194 0-.287-.033-.578.001-.863l.027-.227.01-.086c.011-.085-.003.029 0 0-.03-.031.111-.077 0 0a.463.463 0 0 1-.144.074c-.154-.128-.338-.288-.492-.416-.156.734-.422 1.545-.97 2.16-.155.159-.346.344-.558.412-.319.117-.748.022-1.083-.007a15.879 15.879 0 0 1-1.999-.287c-.43-.095-.736.483-.313.635.781.268 1.555.594 2.219.996.187.131.409.266.563.394l.181.188.053.12c.04.233-.024.487-.055.743a7.799 7.799 0 0 1-.176.905c-.085.425-.169.849-.287 1.27-.025.487.767.67.851.246.082-.396.193-.76.274-1.156.105-.595.284-1.241.288-1.845-.012-.461-.374-.838-.783-1.103a11.553 11.553 0 0 0-1.592-.856c-.355-.146-.71-.292-1.069-.409a5.255 5.255 0 0 1-.313.635c.493.129.992.2 1.462.241.701.089 1.563.25 2.207-.04.93-.409 1.358-1.437 1.655-2.216.098-.251.162-.504.226-.758.064-.253-.184-.447-.493-.416-.275.034-.376.313-.433.509-.183.675-.07 1.433.016 2.13.086.698.458 1.277 1.121 1.679.536.334 1.231.48 1.901.538.436.037.839.072 1.285.024-.04-.233-.083-.439-.123-.672-.033-.003-.07.023-.137.017-.101-.009.067.006 0 0-.034-.003-.071.023-.104.02-.104.019-.205.011-.343.028-.922.064-1.872.069-2.787.076-1.53.041-2.328 1.324-2.729 2.412a3.75 3.75 0 0 0-.29 1.01c-.081.396.677.576.761.152Z" fill="#F7B11F"/><path d="M463.191 348.714s2.537 5.645-.143 7.385c-2.68 1.74-.263 2.184-.263 2.184s1.523.464 2.446-.017c-.969.332-1.737.39-2.054.54-.176.074.427.99.579 1.088 1.227.934 2.728 1.309 4.327.967 2.276-.466 1.26-5.88 1.26-5.88l-6.152-6.267ZM528.824 347.37c.873.647 1.016 1.791.337 2.639-2.581 3.145-7.664 10.311-11.434 14.644-2.826 3.242-2.795 3.012-3.546 3.42-2.213 1.168-2.084.219-3.559.34-4.726.397-1.719-2.222-1.772-2.08-1.873 4.272 9.984-16.409 14.013-20.692.81-.839 2.222-.994 3.157-.313l2.804 2.042Z" fill="#F19473"/><path d="M510.86 336.07s13.385 11.359 15.132 15.66c1.022 2.526 11.367-3.921 12.472-11.795.784-5.509-4.719-12.337-13.728-14.709-19.884 3.074-13.876 10.844-13.876 10.844Z" fill="#F19473"/><path d="M512.229 315.58s-6.956-4.429-16.384-3.919c-10.502.576-23.972 6.81-32.94 22.532-4.195 10.752 3.558 23.514 3.558 23.514s35.79-.906 42.083-10.189c6.358-9.277 3.683-31.938 3.683-31.938Z" fill="#F19473"/><path d="M483.298 362.518c2.019 2.343 4.514 4.138 7.124 5.825.431.267.771.467 1.14.7a5.01 5.01 0 0 0 1.285.623c.509.184 1.171.234 1.758.337 6.361 1.123 12.148-.163 17.454-3.559 3.657-2.323 6.526-5.232 9.219-8.329.668-.738 1.943-2.248 3.196-4.578.527-.924 1.02-1.85 1.543-2.745-2.615-6.303-7.69-10.98-13.21-15.34-11.628.026-22.903-2.052-34.337-3.208-3.658-.365-7.754-1.2-11.395 1.008-2.388 4.288.651 8.958 5.221 10.471 2.43.797 2.318 1.87 1.325 3.518-6.008 9.769-12.268 19.431-19.125 28.815-.949 1.33-2.09 1.857-3.841 1.959-5.124.343-10.308.389-15.356 1.643.048.384-.049.844.181 1.124 6.113 8.085 14.27 13.93 25.026 16.875 5.106 1.262 10.463 1.171 15.624 2.028 10.52.269 19.957-2.552 28.408-8.193-3.842-3.182-8.528-5.318-12.977-7.728-2.396-1.291-3.835-2.743-2.981-5.337-8.467-6.014-11.993-13.729-10.122-23.781 2.137 2.702 2.85 5.56 4.84 7.872Z" fill="#F3CDC2"/><path d="M500.488 345.584c-.847-.181-1.612-.474-2.257-.904-3.173-2.06-2.902-6.265-2.879-6.439.036-.262.263-.45.565-.456a.472.472 0 0 1 .505.478c-.004.029-.227 3.886 2.479 5.675 1.786 1.163 4.427 1.216 7.923.16.282-.097.598.045.665.285.102.242-.071.523-.348.59-2.619.77-4.86.982-6.653.611ZM521.146 357.41a3.667 3.667 0 0 1-1.24-.474c-2.472-1.504-2.05-5.334-2.031-5.479.036-.26.295-.445.593-.423.298.023.502.243.467.504-.004.029-.37 3.453 1.607 4.656 1.08.667 2.701.555 4.859-.306.281-.096.571-.015.705.229.101.242-.001.497-.286.622-1.865.678-3.44.94-4.674.671ZM505.67 357.518c-.484-.095-.916-.331-1.336-.653-.211-.162-.204-.452-.013-.64.192-.189.524-.193.767-.03.507.417 1.053.545 1.634.415 3.414-.729 7.934-9.102 9.393-12.274.1-.254.411-.347.699-.267.287.08.416.351.283.603-.231.476-5.493 11.872-10.135 12.856-.471.052-.906.077-1.292-.01ZM491.901 357.583c-3.621-.74-4.17-4.272-3.924-6.085.036-.259.293-.443.589-.421.296.022.499.241.464.5-.024.173-.55 4.525 3.387 5.143.292.051.458.296.427.527-.068.256-.355.409-.618.389-.132-.01-.227-.046-.325-.053ZM471.605 339.493c-.162-.042-.286-.11-.337-.231-.134-.244.001-.497.253-.625l2.67-1.174c-.263-.283-.541-.451-.902-.507-1.011-.194-2.144.511-2.144.511a.618.618 0 0 1-.759-.087c-.171-.218-.098-.505.124-.664.075-.053 1.538-.967 3.038-.678.817.15 1.457.608 1.889 1.373l.243.428-3.736 1.621a.473.473 0 0 1-.339.033Z" fill="#452A2D"/><path d="M475.781 332.27s18.314 6.303 36.502 4.149c0 0 10.32-.337 14.691-4.097 3.646-3.109 2.469-9.027-5.804-15.1-7.452-5.451-20.871-7.999-28.827-4.304-11.54 5.367-16.562 19.352-16.562 19.352Z" fill="#F19473"/><path d="M490.186 374.279c.515-1.354 1.334-3.003 1.815-4.36.024-.172.243-.329.161-.452-.298-.487-1.162-.697-1.769-1.091-2.579-1.705-5.048-3.488-7.05-5.787-1.969-2.296-2.675-5.135-4.827-7.794-1.818 9.989 1.638 17.649 10.018 23.624.308-.325.507-.571.656-.937l.007-.057.989-3.146ZM487.854 341.647c-.072.286-.393.437-.719.383-.326-.054-.489-.329-.416-.615.072-.286.393-.437.719-.383.322.082.485.357.416.615ZM491.346 344.192c-.073.286-.393.436-.72.383-.326-.054-.489-.329-.416-.615.072-.286.393-.437.719-.383.289.08.485.357.417.615ZM487.402 344.86c-.072.286-.393.437-.719.383-.326-.054-.489-.329-.417-.615.073-.286.394-.437.72-.383.326.054.522.331.416.615ZM515.275 357.76c-.072.286-.393.437-.719.383-.326-.054-.489-.329-.417-.615.073-.286.394-.437.72-.383.326.054.522.331.416.615ZM518.77 360.276c-.073.286-.394.437-.72.383-.326-.054-.489-.329-.416-.615.072-.286.393-.437.719-.383.322.082.518.36.417.615ZM514.86 360.945c-.072.287-.393.437-.719.384-.326-.054-.489-.329-.417-.615.073-.286.393-.437.72-.383a.503.503 0 0 1 .416.614Z" fill="#ECB8AB"/><path d="M528.731 328.459s-2.845 8.603-16.121 7.98c9.256 2.604 15.604-1.72 16.121-7.98Z" fill="#EA856A"/><path d="M542.103 406.426c-.124.169-.243.308-.367.477-19.733 17.466-48.81 25.849-77.328 19.876-28.618-5.981-49.427-24.905-56.692-48.14 4.361-1.627 12.612.1 27.942.022 0 0 23.745 34.08 69.785 12.027 2.539 1.144 6.611 1.662 36.66 15.738Z" fill="#F05C71"/><path d="M464.366 252.831c-10.854 26.884-28.585 55.711-79.883 66.35-48.062 9.967-101.37 9.266-152.729 0-57.597-10.393-88.5-13.668-136.5-45.668-34-29.5-122.863-21.586-81-45.5 38.411-21.942 190.462-71.683 251.45-73.235 63.28-1.612 135.48-14.237 181.695 8.574 46.87 23.133 29.216 59.141 16.967 89.479Z" fill="#EEE0FF" fill-opacity=".5"/><path d="M73.254 284.514c119.5 76 251.5 75.5 290.5 64-47.667 14.5-172.5 22-290.5-64Z" fill="#F7F0FF"/><path d="M596.254 508.014c91 5.5 65.5-81 133.5-170-6.333 8.641-28 40.438-48 106.5s-64 70.525-85.5 63.5Z" fill="#FFE0EE"/><path d="m624.187 274.723-10.629 9.996c-1.147 1.084-1.06 2.756.217 3.73l19.676 15.068c1.277.974 3.226.882 4.395-.202l10.628-9.997-24.287-18.595Z" fill="#435876"/><path d="m690.381 234.058-1.082-.827-18.357-14.057c-4.264 8.82-45.89 43.053-50.544 54.648-.909 2.242-1.125 2.995.238 4.024l11.733 8.986 1.082.827 10.693 8.177c1.342 1.029 2.252 1.121 4.698-.184 12.143-6.45 49.981-43.035 59.917-47.537l-18.378-14.057Z" fill="#BED6CE"/><path d="m674.385 215.906-3.464 3.262 37.828 28.952 3.465-3.262-37.829-28.952Z" fill="#435876"/><path d="M693.238 244.44c-4.913-3.785-9.827-7.552-14.719-11.337-1.126-.864-2.338-1.764-3.81-1.948-2.424-.294-4.502 1.378-6.148 2.903a570.703 570.703 0 0 0-30.607 30.779c-1.148 1.231-2.295 2.517-2.728 4.043-1.061 3.711 2.403 7.166 5.671 9.775 1.775 1.433 3.724 2.885 6.148 3.253 4.005.624 7.641-1.93 10.628-4.3 10.412-8.306 20.846-16.611 31.258-24.917 1.472-1.158 2.944-2.371 3.831-3.896.888-1.525 1.039-3.473-.13-4.851" fill="#C7E6DA"/><path d="m606.381 403.633-3.028-2.685.586-5.525a1.638 1.638 0 0 0-1.035-1.694 1.641 1.641 0 0 0-1.913.532l-3.338 4.441-4.045-.1a1.623 1.623 0 0 0-1.555 1.024 1.623 1.623 0 0 0 .44 1.809l3.011 2.673-.767 6.014a1.641 1.641 0 0 0 1.033 1.726 1.64 1.64 0 0 0 1.933-.56l3.54-4.923 4.024.097a1.62 1.62 0 0 0 1.556-1.021 1.62 1.62 0 0 0-.442-1.808Zm6.246-35.319-3.093-2.744.067-4.098a1.641 1.641 0 0 0-1.046-1.551 1.644 1.644 0 0 0-1.822.422l-2.744 3.044-4.135-.102a1.625 1.625 0 0 0-1.556 1.023 1.623 1.623 0 0 0 .441 1.809l3.095 2.745-.068 4.097a1.643 1.643 0 0 0 1.045 1.551 1.643 1.643 0 0 0 1.822-.422l2.744-3.044 4.135.102a1.624 1.624 0 0 0 1.556-1.023 1.625 1.625 0 0 0-.441-1.809Z" fill="#FFFEFC"/><path d="M323.812 338.451c.053-.081.107-.188.188-.269.134-.161.268-.322.295-.537.027-.134-.027-.241-.161-.295-.134-.054-.269-.188-.43-.107-.027.026-.107 0-.134-.027-.161-.188-.403-.161-.617-.215a154.903 154.903 0 0 0-3.813-.671c-1.262-.215-2.524-.403-3.785-.591-.645-.08-1.289-.134-1.933-.215-1.209-.134-2.444-.295-3.652-.429-.053 0-.107-.027-.161-.027-.107 0-.241-.027-.268-.161-.027-.134.027-.242.161-.296.215-.08.429-.187.671-.268.483-.134.993-.215 1.477-.349.483-.107.939-.242 1.396-.376.59-.161 1.181-.349 1.772-.483a38.424 38.424 0 0 1 1.691-.43c.698-.188 1.396-.376 2.121-.456.43-.054.859-.134 1.262-.215.027 0 .054-.027.054 0 .161.107.295-.054.429-.054.161 0 .322-.053.483-.107.162-.054.349-.027.537-.081a24.52 24.52 0 0 1 1.37-.268 22.11 22.11 0 0 0 2.309-.537c.268-.081.536-.134.805-.215.027 0 .054-.027.081-.027.241-.134.268-.107.456.108a.985.985 0 0 1 .107-.242h.135c.053 0 .107-.027.161-.027v-.241c.107 0 .214.026.376.026-.081-.107-.135-.161-.188-.241-.054.027-.135.054-.188.08.107-.161-.135-.134-.135-.241.027-.054.081-.081.135-.161-.161 0-.269.08-.242.161.054.161-.081.107-.107.161-.242-.242-.457-.51-.564-.832.134-.081.08-.215.08-.323-.053.027-.107.081-.107.135 0 .053.027.134.027.188-.322-.242-.376-.188-.242-.725-.08.053-.134.107-.215.161a1.685 1.685 0 0 0-.08-.215c-.027-.054-.108-.107-.161-.188.027-.08.027-.161.053-.268-.161.053-.241-.054-.322-.135-.107-.107-.214-.188-.295-.322-.161-.215-.268-.456-.43-.671-.241-.322-.51-.618-.778-.913-.269-.295-.43-.671-.671-.966-.43-.591-.86-1.155-1.262-1.719-.483-.644-.967-1.288-1.45-1.96a185.465 185.465 0 0 1-2.604-3.758 22.9 22.9 0 0 0-.564-.859c-.134-.188-.295-.376-.456-.564-.054-.054-.081-.108-.108-.161.027-.188.403-.215.188-.51.295.053.51.188.698.322.483.268.94.564 1.396.832a11.96 11.96 0 0 1 1.745 1.128c.725.537 1.45 1.074 2.175 1.637.537.403 1.074.806 1.611 1.182.913.644 1.852 1.288 2.765 1.933.43.295.832.617 1.262.886.51.349 1.047.698 1.557 1.047.242.161.457.349.671.51.188.161.403.295.618.429.242.135.537.108.832.162-.027-.188-.08-.323-.08-.457 0-.161.027-.295.053-.456 0-.054.054-.134.027-.188-.134-.215.054-.403.081-.591 0-.08.08-.161.161-.241-.081-.162-.134-.35 0-.511-.108-.268.054-.537.054-.805 0-.269.026-.51.053-.779v-.026c.161-.457.108-.913.188-1.397.054 0 .108-.026.188-.026.107-.161-.134-.108-.161-.242.107-.054.215-.107.349-.188-.081-.027-.161 0-.188-.054-.107-.053.081-.188-.054-.268.081-.054.081-.134.027-.215-.027-.027 0-.08.027-.134.054-.054.081-.134.027-.188-.027-.027-.027-.054 0-.081.107-.349.08-.698.161-1.047.054-.349.134-.698.188-1.047.081-.644.134-1.288.242-1.906l.241-1.638c.081-.537.134-1.074.215-1.611.215-1.772.43-3.57.644-5.342l.403-3.303c.027-.134.027-.295.054-.429 0-.054.053-.081.08-.161.135.107.269.188.43.161.107-.027.161.08.188.161.027.188.08.403.107.591.108 1.074.215 2.147.322 3.194l.242 2.82c.054.885.134 1.771.188 2.631l.161 2.335.081 2.363c.026.805.107 1.638.214 2.443.054.457.108.886.161 1.343 0 .08.027.187.054.268 0 .054.027.107.027.161-.027.107-.081.188-.027.322.027.108-.054.242.027.376 0 0 0 .054-.027.081-.08.161-.054.322-.054.456 0 .188-.026.295-.187.349-.027 0-.027.054-.027.054.08.161.134.295.214.456.135 0 .108 0 .215-.107a.639.639 0 0 1 .296-.161c.107-.027.241-.027.349-.027.161-.027.322-.081.483-.134.107-.027.241-.054.322-.135.081-.08.107-.161.188-.241.51-.43 1.074-.779 1.638-1.128a37.695 37.695 0 0 0 3.785-2.738c1.343-1.128 2.685-2.309 4.027-3.437.081-.08.188-.134.269-.215.161.161.188.296.054.484a47.94 47.94 0 0 0-1.235 1.986c-.43.698-.806 1.396-1.235 2.068-.403.671-.806 1.342-1.235 2.013l-1.692 2.658-1.127 1.772-.564.967c-.027.027-.054.08-.081.107-.322.51-.644 1.047-.966 1.53-.135.215-.161.457-.188.672 0 .134.053.188.161.214.295.054.59.108.859.135.403.026.779 0 1.181 0h1.987l2.416.08 4.054.161c2.041.081 4.081 0 6.149-.053 1.181-.027 2.389-.081 3.57-.135.081.081.135.161.242.269-.188.241-.483.322-.752.429l-2.013.725a18.59 18.59 0 0 1-1.611.484c-.698.187-1.396.375-2.094.536-.403.108-.833.188-1.235.296-.376.08-.752.188-1.155.295-.537.134-1.047.269-1.584.403-.403.107-.778.215-1.181.295-.591.134-1.155.242-1.745.376-.564.134-1.128.269-1.719.403l-1.369.322c-.644.161-1.289.322-1.96.483-.107.027-.215.027-.322.027-.054 0-.107.027-.188.054-.054.027-.188.08-.188.053-.107-.107-.134.027-.215.027h-.241c.054.054.08.108.134.161-.134.108-.134.242-.134.403.027.457.241.806.537 1.128.993 1.1 1.825 2.335 2.631 3.57.591.86 1.235 1.692 1.906 2.497l1.611 1.853c.242.295.429.644.671.94.322.402.671.778 1.02 1.181.323.376.645.725.967 1.074.08.08.134.161.08.268-.026.081-.026.188-.026.296a.565.565 0 0 1-.162-.108c-.053.054-.08.108-.134.161h-.08c-.081-.027-.135-.027-.215-.08-1.316-.752-2.631-1.477-3.92-2.256-.993-.59-1.987-1.261-2.953-1.906-.591-.402-1.181-.832-1.772-1.235-.483-.349-.993-.644-1.45-.993-.429-.295-.805-.644-1.208-.967a24.128 24.128 0 0 1-.967-.751 4.268 4.268 0 0 1-.349-.323c-.241-.214-.483-.429-.805-.483-.188-.053-.483.108-.591.349-.053.161-.107.322-.134.483-.08.672-.134 1.343-.188 2.041-.054 1.181-.215 2.363-.322 3.544-.081.671-.107 1.369-.188 2.04-.107.994-.268 1.987-.376 2.98-.107.913-.241 1.853-.322 2.766a139.417 139.417 0 0 0-.188 3.356c-.027.349-.027.698-.054 1.047 0 .188-.026.188-.214.188-.027.053-.054.134-.108.161-.027.027-.107-.027-.161-.027-.161.027-.322 0-.456.242-.081-.108-.135-.188-.215-.296h.188c0-.027 0-.08-.027-.107-.188-.134-.161-.322-.188-.51-.054-.269-.08-.537-.134-.779 0-.054-.027-.134-.027-.188.081-.376-.027-.725-.081-1.101-.053-.536-.161-1.073-.188-1.61 0-.43-.107-.833-.161-1.262-.053-.537-.08-1.074-.134-1.611 0-.054-.027-.134-.027-.215.081.027.108.054.188.107-.027-.08-.053-.161-.08-.187-.161-.054-.135-.162-.161-.296-.027-.51-.027-.993-.054-1.503 0-.135-.054-.242-.081-.376 0-.054-.026-.108-.026-.134.08-.269-.108-.537 0-.833.053-.134-.054-.349-.054-.51-.027-.268-.027-.564-.054-.886.134.054.215.108.322.161-.027-.053-.027-.107-.053-.134-.081-.054-.188-.08-.296-.134.081-.188-.107-.376.027-.564 0 0-.027-.054-.027-.08-.053-.162-.053-.162.108-.215.027 0 .027-.054.053-.054.081 0 .135.027.135.134 0 .054.053.108.08.161.027 0 .054-.026.081-.026.053-.457.053-.913-.081-1.397-.161.081.027.242-.107.323-.027-.027-.054-.027-.081-.054-.053-.027-.08-.161-.188 0h.188c-.107.188.081.161.161.215-.027.161-.027.161-.161.322.027.08.081.161.108.268-.054.027-.108.027-.161.054-.162-.081-.269-.215-.242-.376 0-.107.027-.188.054-.295.053.027.107.08.134.107.054.054.107.027.134-.08-.107 0-.188-.027-.295-.027-.027-.134-.054-.269-.108-.376-.053-.107.054-.107.081-.188-.161-.107-.161-.242-.081-.403.027-.027.027-.08.027-.134.081-.08.081-.08 0-.242-.107.081 0 .162.027.242-.161-.027-.188-.161-.161-.268.054-.215-.134-.403 0-.618-.161-.161-.054-.376-.107-.564 0-.027-.027-.053-.027-.08.08-.242.107-.484-.108-.725.135-.027.215-.054.323-.081-.081-.053-.135-.107-.188-.134v-.215a1.554 1.554 0 0 1-.054-.349c0-.134 0-.268.188-.295-.108-.188-.134-.349-.027-.51.081.054.161.08.242.107-.027-.134-.027-.241-.027-.376a.707.707 0 0 1-.215.188c-.027-.107-.081-.188-.107-.295v-.752c.053 0 .107.027.214.054 0-.107-.026-.161-.026-.188-.162-.054-.269-.081-.376-.134-.161-.081-.296-.081-.457.027-.859.671-1.718 1.342-2.523 2.067-.645.564-1.289 1.074-1.934 1.638-.59.51-1.154 1.02-1.771 1.503a62.787 62.787 0 0 0-3.169 2.739c-.402.375-.859.698-1.261 1.073-.591.511-1.155 1.021-1.719 1.504-.08.054-.161.134-.268.215.027-.457.054-.833.134-1.235.134-.51.376-.967.644-1.396.511-.886 1.021-1.799 1.531-2.685.537-.886 1.101-1.745 1.611-2.631.241-.403.429-.859.644-1.289.107-.215.268-.403.403-.617.295 0 .402-.188.537-.376.027.08.027.161.188.107a.434.434 0 0 1-.188-.107Zm8.645.886c.027-.215.027-.215-.161-.323.026.135.053.296.08.484l.081-.161c.134.053.134.053.268-.027-.107 0-.188.027-.268.027Zm-.135-13.8h.054v.027c-.027.134.027.188.161.134.081-.295.054-.537-.241-.671l.241.08c.108-.161 0-.295-.027-.429-.026-.135.054-.296.081-.484l-.215.215c0 .081 0 .161.027.269a.353.353 0 0 1-.107-.081c-.081-.134-.215-.054-.323-.08-.026.161-.026.268-.026.429.053-.027.188-.08.188-.053.08.08.134.08.187 0-.08-.108-.295-.027-.268-.242.081-.027.161-.027.242-.054-.054.054-.054.134.026.134.135.027.108.135.135.242-.054.027-.135.027-.188.027.027.134.053.242-.054.349.081 0 .107 0 .161.027-.027.053-.027.107-.054.161-.107-.081-.241-.134-.375-.242-.027.054-.054.081-.081.134.054.027.107.081.161.081a1.2 1.2 0 0 0 .295.027Zm-5.906 4v-.053c-.081-.054-.188-.108-.269-.188-.08.107-.053.188.027.241.054.027.161 0 .242 0Zm5.853-6.067c.107-.027.188-.054.295-.081-.054-.107-.08-.188-.134-.295-.054.161-.108.241-.161.376Zm.188 19.223a4.925 4.925 0 0 0-.188.429c.107-.053.188-.08.268-.134a2.212 2.212 0 0 1-.08-.295Zm.429 5.235c-.161 0-.268-.027-.429-.027a.83.83 0 0 1 .107.215c.107-.081.215-.107.322-.188Zm-.59-25.559c-.027.027-.027.054-.054.054.08.08.188.161.268.241l.054-.054c-.08-.08-.188-.161-.268-.241Zm.349 24.029c-.081.027-.161.053-.161.08.026.134-.054.108-.135.108v.053c.054 0 .108.027.188.027.027-.08.054-.161.108-.268Zm-.161-22.311c.026 0 .053-.027.08-.027-.054-.08 0-.241-.215-.268.054.107.081.215.135.295Zm-.162 17.317c.081.054.135.08.188.107.054-.08.081-.134.108-.188-.108.027-.188.054-.296.081Zm.242 2.309c-.08-.108 0-.242-.215-.322.081.134 0 .268.215.322Zm5.826-21.344a1.162 1.162 0 0 0-.161.188c.081.027.134.053.215.08-.027-.08-.027-.161-.054-.268ZM332 338.8c-.107.188-.107.188.135.214-.054-.053-.081-.134-.135-.214Zm.376 10.712c.081.027.134.054.188.081 0-.188 0-.188-.188-.081Zm.134-7.249c0-.134-.053-.242-.241-.188.107.081.161.134.241.188Zm.188 6.739c-.053.08-.107.134-.161.215.161 0 .242-.027.161-.215Zm-.161-27.573c.027-.161 0-.215-.107-.215-.027 0-.027.027-.081.054a.36.36 0 0 1 .188.161Zm.027 25.855-.161.08c.081.054.134.108.242.188a1.072 1.072 0 0 0-.081-.268Zm-.107-25.049c0 .026-.027.053-.027.08.054.081.107.108.241.027a.765.765 0 0 0-.214-.107Zm-.269 19.062c-.188-.054-.188-.054-.241.08.08-.027.134-.054.241-.08Zm.403-1.504c-.081-.161-.081-.161-.242-.054.081 0 .161.027.242.054Zm-.107-1.718c0 .107.026.188.026.295.108-.107.161-.188-.026-.295Zm.026 2.926c.027-.134.027-.134-.08-.188.027.081.054.108.08.188Zm.081-3.329c0-.027.027-.027.027-.054a.536.536 0 0 1-.134-.107s-.027 0-.081.027c.081.054.134.107.188.134Zm.161 12.404c-.027-.081-.027-.108-.054-.215a.928.928 0 0 1-.08.215h.134Zm-.268-8.242c0 .026-.027.026-.027.053.027.027.053.054.08.054h.108v-.054c-.054 0-.108-.027-.161-.053Zm.026 6.631c.108-.054.108-.054.054-.161 0 .054-.027.107-.054.161Zm-5.503-18.955c-.135-.053-.135-.053-.215.081.08-.027.134-.054.215-.081Zm5.396 17.559c.161.027.161.027.107-.134-.026.053-.053.08-.107.134Zm.322 3.383c-.107-.054-.107-.054-.134.053.054-.026.08-.026.134-.053Zm-.349-9.317c0 .027.027.027.027.054.027-.027.081-.027.107-.054 0-.026 0-.026-.026-.053a.203.203 0 0 1-.108.053Zm-.429-.429c.026 0 .053 0 .08-.027-.027-.054-.027-.107-.054-.161h-.026v.188Zm.51-1.718c.027 0 .027.026.053.026.027-.053.054-.08.081-.134-.027 0-.027-.027-.054-.027-.053.054-.053.081-.08.135Zm-5.826-9.182-.027-.027c-.027.027-.054.027-.108.054 0 .026.027.026.027.053.054-.053.081-.08.108-.08Zm5.826-7.733v.054c.027 0 .053.027.08.027 0-.027.027-.054 0-.054-.027-.027-.053-.027-.08-.027Zm.134-1.396c.08-.026.107-.026.134-.026 0-.027-.027-.027-.027-.054-.027 0-.053.027-.107.08Zm-.483 3.652v-.054c-.054-.027-.135-.027-.188-.054 0 .027 0 .027-.027.054.08.027.134.027.215.054Zm.617 26.848v-.054h-.161v.054h.161Zm-7.249-23.009c.027-.027.054-.054.054-.081 0 0-.027-.053-.054-.053s-.053.027-.08.053l.08.081Zm.886.752v-.054c-.053.027-.107.027-.161.054v.027c.081-.027.108-.027.161-.027Zm.161.214c.027 0 .027-.026.054-.026l-.054-.054s-.027.027-.053.027c.026.027.026.053.053.053Zm6.068 19.573-.027-.027c-.027.027-.054.053-.08.107l.026.027a.353.353 0 0 1 .081-.107Zm-.161-27.117.054-.053-.027-.027c-.027 0-.054.027-.054.027 0 .026.027.053.027.053ZM319.354 301.052l.537.268c-.134.027-.188.027-.268.054 0 .027 0 .054.026.054.108.08.296.026.349.187h.081c.215 0 .349.108.376.323.027.214.107.429.241.563.269.296.457.591.511.994 0 .107.08.188.107.295.054.134.08.269-.107.376.134.027.161.107.187.215.081.295-.053.59-.08.859 0 .107-.027.242-.054.349-.08.268-.215.51-.295.752-.027.107-.081.214-.134.322-.027 0-.108.027-.188.054.027.053.08.08.107.107-.241.403-.698.537-1.101.725-.51.268-1.047.295-1.584.134-.268-.08-.563-.134-.832-.215-.295-.08-.483-.268-.617-.537-.135-.268-.349-.51-.564-.751-.296-.323-.618-.672-.564-1.209.027-.214-.081-.456-.107-.671-.081-.322-.027-.617.08-.913.108-.295.215-.617.457-.886.187-.214.161-.241.349-.295-.054-.027-.135-.027-.242-.08.134-.162.268-.296.403-.457h.026c.215-.322.618-.241.913-.429.027-.027.081 0 .188.026-.08-.053-.107-.107-.161-.134h.483c.135 0 .242.054.349-.08.027-.027.135-.054.188-.027.323.215.618.134.94.027ZM360.11 341.269c.08-.08.187-.107.268-.054.081.027.188.054.268.081 0 .027 0 .054-.026.081.08 0 .161-.027.241-.027.135-.027.269.053.376.134.269.215.349.564.591.832.053.054.08.108.053.188-.026.242 0 .269.242.242.081.107.108.241.161.402.054.188.108.35.161.537.081.323.135.672.027.994-.107.322-.107.698-.376.966-.027.027-.027.054-.027.081.108.295-.134.456-.322.564-.349.188-.725.241-1.101.295-.053 0-.08 0-.134-.027-.161-.027-.349-.08-.51-.107-.644-.054-1.181-.349-1.691-.725a.386.386 0 0 1-.161-.242c-.161-.402-.323-.805-.457-1.208-.107-.295-.08-.591.054-.886.242-.483.51-.966.752-1.477.08-.134.161-.268.241-.375a.148.148 0 0 1 .135-.081c.214-.027.402-.08.617-.107.054 0 .107 0 .161-.027.161-.108.295-.081.457-.054.08 0 .161.027.295.054-.134-.134-.215-.081-.295-.054ZM307.085 319.175c-.161-.054-.295-.08-.456-.134.215-.107.456 0 .644.027.269.053.51.188.779.268.188.081.322.188.295.403.081.027.188.027.188.081.054.134.188.214.268.322l-.053.053c.241.135.241.349.295.564.081.483-.08.913-.188 1.369-.027.162-.107.323-.161.484-.027.053-.054.107-.107.134-.376.161-.752.43-1.208.376-.269-.027-.511 0-.779 0-.322 0-.564-.161-.779-.403-.107-.134-.161-.349-.402-.349-.054 0-.135-.107-.161-.161-.027-.161-.162-.268-.242-.403a1.358 1.358 0 0 1-.188-.456c-.134-.403-.081-.779.081-1.155.107-.295.375-.456.644-.563.242-.108.483-.215.698-.403.107-.081.161-.081.295-.054.161.054.349.027.51.027.027 0 .027-.027.027-.027ZM320.859 357.324c-.027-.08-.027-.161-.054-.187a.52.52 0 0 1-.349-.457c-.081.027-.134.054-.215.081-.027-.296-.215-.537-.322-.806-.081-.215-.188-.429-.269-.617-.08-.135-.053-.296-.026-.43.107-.429.241-.859.375-1.289.027-.107.027-.214.027-.349.188-.08.376-.08.537.054.081.054.108.054.188-.027.054-.053.108-.08.188-.134-.027 0-.054-.027-.08-.054.053-.026.134-.08.187-.107.108.054.162.215.323.081h.08c.134.107.269.026.376 0 .295.268.322.349.269.51.161.107.322-.135.483 0 .027.026.107.026.134.053.054.054.081.135.107.188.027.054.027.134.054.215h.134c0 .215 0 .215.188.215.081.161.135.349.215.51a.43.43 0 0 1 .081.242c.053.268.134.537.08.832a.776.776 0 0 0-.054.241c-.026.081-.053.162-.053.242.027.188-.027.322-.161.43-.43.402-.886.671-1.504.671-.322 0-.644 0-.939-.108ZM361.559 315.281c-.081.269.188.322.268.51.215.027.161.269.269.376.027.027 0 .108.027.161.134.135.107.269.026.43l.242.08c0 .081-.107.188.027.269.027.027 0 .107 0 .188h.188c.054.08.027.161.08.268.081.135.108.349-.026.484-.323.402-.645.778-.967 1.154-.054.081-.161.107-.242.161-.349.215-.698.161-1.074.081-.214-.054-.402-.108-.617-.108-.349-.027-.456-.295-.537-.537-.054-.134-.081-.268-.188-.349a.546.546 0 0 1-.161-.402c0-.484 0-.967.027-1.423 0-.054 0-.108.027-.135.161-.295.322-.59.51-.886a.603.603 0 0 1 .322-.241c.242-.054.456-.161.698-.269.269-.134.51-.08.752.027.08.027.188.081.349.161Z" fill="#FFDF9D"/><path d="M326.496 330.209c.134.027.242.054.376.054v.107c-.134-.054-.269-.107-.376-.161ZM322.039 353.218c.161-.081.188-.054.188.107-.081-.054-.107-.08-.188-.107ZM362.123 342.586a.375.375 0 0 1-.161.054c0-.027-.026-.027-.026-.054a.569.569 0 0 0 .134-.08c.027.054.027.08.053.08Z" fill="#FFDF9D"/><path d="M285.197 271.989c-.837 2.377-.263 3.769.296 4.477l.34-.143c3.549-3.707 2.298-7.617 2.089-8.175-1.216.836-2.114 2.1-2.725 3.841Z" fill="#F05C71"/><path d="M285.197 271.989c.611-1.741 1.524-3.017 2.725-3.842-.026-.05-.024-.074-.024-.074-4.603-.841-10.796 1.943-10.796 1.943l-9.382 3.945 4.673 8.015 13.114-5.498c-.602-.722-1.147-2.112-.31-4.489Z" fill="#F05C71"/><path d="m270.823 277.661-2.985-5.134-23.899 10.051 3 5.122 2.971 5.121 23.898-10.026-2.985-5.134Z" fill="#F3CDC2"/><path d="m260.422 282.036-3.543-6.098-31.953 13.422 3.558 6.086 3.529 6.086 31.967-13.409-3.558-6.087ZM255.567 312.502l-14.405 11.001-9.906-9.347 14.405-11.001c1.749-1.336 4.443-1.215 6.017.27l4.206 3.969c1.575 1.486 1.432 3.772-.317 5.108Z" fill="#D7ACBF"/><path d="m241.3 323.609-10.151-9.578-1.161.887 10.15 9.578 1.162-.887Z" fill="#F3CDC2"/></svg>