<svg width="16" height="17" viewBox="0 0 16 17" fill="none" xmlns="http://www.w3.org/2000/svg">
<path d="M5 9.49984C6.66667 11.1665 9.33333 11.1665 11 9.49984M11.868 12.0277C11.868 12.0277 11.9193 11.9911 12.0013 11.9284C13.23 10.9784 14 9.60173 14 8.06907C14 5.21173 11.3133 2.89307 8.00133 2.89307C4.688 2.89307 2 5.21173 2 8.06907C2 10.9277 4.68667 13.1664 8 13.1664C8.28267 13.1664 8.74667 13.1477 9.392 13.1104C10.2333 13.6571 11.4613 14.1057 12.536 14.1057C12.8687 14.1057 13.0253 13.8324 12.812 13.5537C12.488 13.1564 12.0413 12.5204 11.868 12.0277Z" stroke="black" stroke-linecap="round" stroke-linejoin="round"/>
</svg>
