<svg width="16" height="18" fill="none" xmlns="http://www.w3.org/2000/svg"><path d="M3.555 8h1.777v1.778H3.555V8Zm0 3.556h1.777v1.777H3.555v-1.777ZM7.11 8h1.778v1.778H7.11V8Zm0 3.556h1.778v1.777H7.11v-1.777ZM10.666 8h1.778v1.778h-1.778V8Zm0 3.556h1.778v1.777h-1.778v-1.777Z" fill="#AFAFAF"/><path d="M1.778 17.778h12.444A1.78 1.78 0 0 0 16 16V3.556a1.78 1.78 0 0 0-1.778-1.778h-1.778V0h-1.777v1.778H5.333V0H3.556v1.778H1.778A1.78 1.78 0 0 0 0 3.556V16c0 .98.797 1.778 1.778 1.778ZM14.222 5.333 14.223 16H1.778V5.333h12.444Z" fill="#AFAFAF"/></svg>