<svg width="23" height="24" fill="none" xmlns="http://www.w3.org/2000/svg"><path d="M15.897 9.743c-.308-.441-.787-.71-1.283-.71H4.192l-.325-1.42c-.188-.824-.838-1.4-1.591-1.4H.53c-.29 0-.53.269-.53.595 0 .326.24.595.53.595h1.746c.257 0 .479.192.547.48l2.088 9.323c.188.825.839 1.4 1.592 1.4h6.827c.753 0 1.42-.575 1.592-1.4l1.283-5.909a1.923 1.923 0 0 0-.308-1.554Zm-.736 1.285-1.283 5.91c-.069.287-.291.479-.548.479H6.503c-.257 0-.48-.192-.548-.48l-1.489-6.695h10.148a.55.55 0 0 1 .444.25.659.659 0 0 1 .103.536ZM6.862 19.373c-.976 0-1.78.902-1.78 1.995 0 1.094.804 1.996 1.78 1.996.975 0 1.78-.902 1.78-1.995 0-1.094-.805-1.996-1.78-1.996Zm0 2.782c-.394 0-.702-.345-.702-.787 0-.44.308-.786.702-.786.393 0 .701.345.701.787 0 .422-.325.786-.701.786ZM12.748 19.373c-.975 0-1.78.902-1.78 1.995 0 1.094.805 1.996 1.78 1.996.976 0 1.78-.902 1.78-1.995-.017-1.094-.804-1.996-1.78-1.996Zm0 2.782c-.393 0-.701-.345-.701-.787 0-.44.308-.786.701-.786.394 0 .702.345.702.787 0 .422-.325.786-.702.786Z" fill="#DB284E"/><circle cx="14.5" cy="7.5" r="4.75" fill="#DB284E" stroke="#DB284E" stroke-width="1.5"/><rect x="14" y="5" width="1" height="5" rx=".5" fill="#fff"/><rect x="12" y="8" width="1" height="5" rx=".5" transform="rotate(-90 12 8)" fill="#fff"/></svg>