<svg width="19" height="18" viewBox="0 0 19 18" fill="none" xmlns="http://www.w3.org/2000/svg">
<path d="M6.125 8.5C6.125 8.79837 6.00647 9.08452 5.79549 9.29549C5.58452 9.50647 5.29837 9.625 5 9.625C4.70163 9.625 4.41548 9.50647 4.2045 9.29549C3.99353 9.08452 3.875 8.79837 3.875 8.5C3.875 8.20163 3.99353 7.91548 4.2045 7.70451C4.41548 7.49353 4.70163 7.375 5 7.375C5.29837 7.375 5.58452 7.49353 5.79549 7.70451C6.00647 7.91548 6.125 8.20163 6.125 8.5ZM10.625 8.5C10.625 8.79837 10.5065 9.08452 10.2955 9.29549C10.0845 9.50647 9.79837 9.625 9.5 9.625C9.20163 9.625 8.91548 9.50647 8.7045 9.29549C8.49353 9.08452 8.375 8.79837 8.375 8.5C8.375 8.20163 8.49353 7.91548 8.7045 7.70451C8.91548 7.49353 9.20163 7.375 9.5 7.375C9.79837 7.375 10.0845 7.49353 10.2955 7.70451C10.5065 7.91548 10.625 8.20163 10.625 8.5ZM14 9.625C14.2984 9.625 14.5845 9.50647 14.7955 9.29549C15.0065 9.08452 15.125 8.79837 15.125 8.5C15.125 8.20163 15.0065 7.91548 14.7955 7.70451C14.5845 7.49353 14.2984 7.375 14 7.375C13.7016 7.375 13.4155 7.49353 13.2045 7.70451C12.9935 7.91548 12.875 8.20163 12.875 8.5C12.875 8.79837 12.9935 9.08452 13.2045 9.29549C13.4155 9.50647 13.7016 9.625 14 9.625Z" fill="#919EAB"/>
<path d="M2.93563 17.2784L2.95812 17.2739C5.01687 16.8655 6.27462 16.3266 6.85962 16.0308C7.72091 16.2605 8.60861 16.3762 9.5 16.375C14.4703 16.375 18.5 12.8493 18.5 8.5C18.5 4.15075 14.4703 0.625 9.5 0.625C4.52975 0.625 0.5 4.15075 0.5 8.5C0.5 10.48 1.33588 12.2913 2.71625 13.675C2.61968 14.5639 2.4219 15.4388 2.12675 16.2828L2.12337 16.2951C2.0395 16.5369 1.94795 16.7758 1.84888 17.0118C1.76 17.221 1.93212 17.455 2.156 17.419C2.41662 17.3764 2.67653 17.3295 2.93563 17.2784ZM3.83562 13.7819C3.85138 13.6172 3.83062 13.451 3.77481 13.2953C3.719 13.1395 3.62952 12.998 3.51275 12.8808C2.32025 11.6838 1.625 10.1515 1.625 8.5C1.625 4.909 5.0045 1.75 9.5 1.75C13.9955 1.75 17.375 4.909 17.375 8.5C17.375 12.0921 13.9955 15.25 9.5 15.25C8.70699 15.2512 7.91725 15.1483 7.151 14.944C6.88322 14.8723 6.59839 14.9019 6.35113 15.0273C5.91575 15.2478 4.95612 15.6685 3.38787 16.0319C3.60666 15.2974 3.75656 14.5442 3.83562 13.7819Z" fill="#919EAB"/>
</svg>
