<svg width="24" height="24" fill="none" xmlns="http://www.w3.org/2000/svg"><path d="M12 .924c-2.373 0-4.693.677-6.667 1.944a11.649 11.649 0 0 0-4.42 5.179 11.127 11.127 0 0 0-.682 6.666 11.408 11.408 0 0 0 3.284 5.908 12.156 12.156 0 0 0 6.144 3.158c2.328.445 4.74.217 6.933-.657a11.91 11.91 0 0 0 5.386-4.25A11.225 11.225 0 0 0 24 12.463c0-1.515-.31-3.015-.913-4.415a11.52 11.52 0 0 0-2.602-3.744 12.043 12.043 0 0 0-3.893-2.5A12.418 12.418 0 0 0 12 .922Zm3.252 13.027a1.116 1.116 0 0 1 0 1.639 1.241 1.241 0 0 1-1.704 0L12 14.09l-1.548 1.5a1.241 1.241 0 0 1-1.704 0 1.153 1.153 0 0 1-.263-.376 1.115 1.115 0 0 1 .263-1.263l1.56-1.489-1.56-1.488a1.136 1.136 0 0 1-.353-.82c0-.307.127-.601.353-.819a1.23 1.23 0 0 1 .852-.339c.32 0 .626.122.852.34l1.548 1.5 1.548-1.5a1.23 1.23 0 0 1 .852-.34c.32 0 .626.122.852.34.226.217.353.511.353.819 0 .307-.127.602-.353.819l-1.56 1.488 1.56 1.489Z" fill="#fff"/></svg>