<svg width="370" height="371" viewBox="0 0 370 371" fill="none" xmlns="http://www.w3.org/2000/svg">
<path d="M276.463 316.655C300.17 297.786 317.496 272.046 326.078 242.944C334.66 213.843 334.08 182.795 324.418 154.036C314.756 125.277 296.482 100.204 272.087 82.2378C247.692 64.2712 218.364 54.2845 188.1 53.6394C157.837 52.9942 128.112 61.722 102.977 78.6327C77.8427 95.5435 58.5219 119.814 47.6493 148.136C36.7766 176.458 34.8811 207.452 42.2212 236.893C49.5613 266.334 65.7798 292.789 88.6655 312.652" fill="#FCEFF2"/>
<path d="M188.746 317.334C224.22 317.334 252.977 289.587 252.977 255.36C252.977 221.133 224.22 193.386 188.746 193.386C153.272 193.386 124.515 221.133 124.515 255.36C124.515 289.587 153.272 317.334 188.746 317.334Z" fill="#EB92A7"/>
<path d="M252.977 317.334C270.72 317.334 285.104 303.46 285.104 286.347C285.104 269.233 270.72 255.36 252.977 255.36C235.234 255.36 220.85 269.233 220.85 286.347C220.85 303.46 235.234 317.334 252.977 317.334Z" fill="#EB92A7"/>
<path d="M124.516 317.334C146.308 317.334 163.975 300.291 163.975 279.268C163.975 258.244 146.308 241.201 124.516 241.201C102.723 241.201 85.0564 258.244 85.0564 279.268C85.0564 300.291 102.723 317.334 124.516 317.334Z" fill="#EB92A7"/>
<path d="M370 317.311H0C0 317.311 146.895 258.956 370 317.311Z" fill="#EB92A7"/>
<path d="M45.7772 175.54C57.5519 175.54 67.0973 166.75 67.0973 155.907C67.0973 145.065 57.5519 136.275 45.7772 136.275C34.0024 136.275 24.457 145.065 24.457 155.907C24.457 166.75 34.0024 175.54 45.7772 175.54Z" fill="#F3BDCA"/>
<path d="M67.0973 175.54C72.9784 175.54 77.746 171.146 77.746 165.724C77.746 160.303 72.9784 155.908 67.0973 155.908C61.2161 155.908 56.4485 160.303 56.4485 165.724C56.4485 171.146 61.2161 175.54 67.0973 175.54Z" fill="#F3BDCA"/>
<path d="M24.4784 175.518C31.7053 175.518 37.5638 170.121 37.5638 163.462C37.5638 156.804 31.7053 151.407 24.4784 151.407C17.2516 151.407 11.3931 156.804 11.3931 163.462C11.3931 170.121 17.2516 175.518 24.4784 175.518Z" fill="#F3BDCA"/>
<path d="M106.037 178.345H0C0 178.345 42.0762 156.699 106.037 178.345Z" fill="#F3BDCA"/>
<path d="M318.201 105.447C328.63 105.447 337.084 97.6593 337.084 88.0532C337.084 78.4471 328.63 70.6598 318.201 70.6598C307.772 70.6598 299.317 78.4471 299.317 88.0532C299.317 97.6593 307.772 105.447 318.201 105.447Z" fill="#F3BDCA"/>
<path d="M299.318 105.469C304.538 105.469 308.771 101.57 308.771 96.7608C308.771 91.9515 304.538 88.0528 299.318 88.0528C294.097 88.0528 289.865 91.9515 289.865 96.7608C289.865 101.57 294.097 105.469 299.318 105.469Z" fill="#F3BDCA"/>
<path d="M337.084 105.469C343.488 105.469 348.68 100.68 348.68 94.771C348.68 88.8624 343.488 84.0726 337.084 84.0726C330.679 84.0726 325.487 88.8624 325.487 94.771C325.487 100.68 330.679 105.469 337.084 105.469Z" fill="#F3BDCA"/>
<path d="M266.4 106.826H370C370 106.826 328.872 91.1968 266.4 106.826Z" fill="#F3BDCA"/>
<path d="M85.6197 315.773C98.0299 315.773 108.09 305.14 108.09 292.024C108.09 278.908 98.0299 268.275 85.6197 268.275C73.2094 268.275 63.1489 278.908 63.1489 292.024C63.1489 305.14 73.2094 315.773 85.6197 315.773Z" fill="#F3BDCA"/>
<path d="M107.572 315.773C113.702 315.773 118.672 311.348 118.672 305.889C118.672 300.43 113.702 296.005 107.572 296.005C101.441 296.005 96.4717 300.43 96.4717 305.889C96.4717 311.348 101.441 315.773 107.572 315.773Z" fill="#B6EFDA"/>
<path d="M63.1491 315.773C70.6875 315.773 76.7985 310.335 76.7985 303.627C76.7985 296.919 70.6875 291.481 63.1491 291.481C55.6108 291.481 49.4998 296.919 49.4998 303.627C49.4998 310.335 55.6108 315.773 63.1491 315.773Z" fill="#F3BDCA"/>
<path d="M146.241 317.311H24.4121C24.4121 317.311 72.8054 299.578 146.241 317.311Z" fill="#F3BDCA"/>
<path d="M111.452 314.845C123.326 314.845 132.952 306.278 132.952 295.71C132.952 285.142 123.326 276.575 111.452 276.575C99.5773 276.575 89.9512 285.142 89.9512 295.71C89.9512 306.278 99.5773 314.845 111.452 314.845Z" fill="#F3BDCA"/>
<path d="M132.93 314.846C138.861 314.846 143.669 310.562 143.669 305.278C143.669 299.994 138.861 295.711 132.93 295.711C126.999 295.711 122.191 299.994 122.191 305.278C122.191 310.562 126.999 314.846 132.93 314.846Z" fill="#F3BDCA"/>
<path d="M89.9513 314.869C97.2405 314.869 103.15 309.603 103.15 303.107C103.15 296.611 97.2405 291.346 89.9513 291.346C82.6622 291.346 76.7532 296.611 76.7532 303.107C76.7532 309.603 82.6622 314.869 89.9513 314.869Z" fill="#F3BDCA"/>
<path d="M169.208 316.904H51.2815C51.2815 316.904 98.073 299.736 169.208 316.904Z" fill="#F3BDCA"/>
<path d="M285.758 315.841C298.629 315.841 309.064 305.734 309.064 293.268C309.064 280.801 298.629 270.695 285.758 270.695C272.887 270.695 262.453 280.801 262.453 293.268C262.453 305.734 272.887 315.841 285.758 315.841Z" fill="#F3BDCA"/>
<path d="M270.258 315.864C275.616 315.864 279.96 311.651 279.96 306.454C279.96 301.258 275.616 297.045 270.258 297.045C264.901 297.045 260.557 301.258 260.557 306.454C260.557 311.651 264.901 315.864 270.258 315.864Z" fill="#B6EFDA"/>
<path d="M309.087 315.863C315.678 315.863 321.022 310.689 321.022 304.305C321.022 297.922 315.678 292.748 309.087 292.748C302.495 292.748 297.152 297.922 297.152 304.305C297.152 310.689 302.495 315.863 309.087 315.863Z" fill="#F3BDCA"/>
<path d="M236.439 317.311H342.927C342.927 317.311 300.625 300.46 236.439 317.311Z" fill="#F3BDCA"/>
<path d="M254.241 315.91C264.62 315.91 273.034 307.758 273.034 297.702C273.034 287.646 264.62 279.494 254.241 279.494C243.861 279.494 235.447 287.646 235.447 297.702C235.447 307.758 243.861 315.91 254.241 315.91Z" fill="#F3BDCA"/>
<path d="M235.469 315.886C240.652 315.886 244.854 311.815 244.854 306.793C244.854 301.772 240.652 297.701 235.469 297.701C230.286 297.701 226.084 301.772 226.084 306.793C226.084 311.815 230.286 315.886 235.469 315.886Z" fill="#F3BDCA"/>
<path d="M273.034 315.886C279.413 315.886 284.585 310.884 284.585 304.713C284.585 298.542 279.413 293.54 273.034 293.54C266.654 293.54 261.483 298.542 261.483 304.713C261.483 310.884 266.654 315.886 273.034 315.886Z" fill="#F3BDCA"/>
<path d="M202.733 317.311H305.769C305.769 317.311 264.866 301.004 202.733 317.311Z" fill="#F3BDCA"/>
<path d="M119.416 167.647C119.416 167.647 91.5076 177.146 101.051 204.062C109.94 229.168 133.561 219.329 139.63 216.841C145.699 214.353 119.416 167.647 119.416 167.647Z" fill="#E66983"/>
<path d="M139.63 216.841C142.45 215.687 138.276 204.944 132.997 193.793L101.863 206.188C111.316 228.602 133.742 219.261 139.63 216.841Z" fill="#DB284E"/>
<path d="M141.977 220.369C141.977 220.369 155.897 248.801 157.928 272.391C159.891 294.467 163.636 297.498 171.464 295.304C179.293 293.11 197.974 284.673 196.891 276.87C195.808 269.066 182.023 230.706 164.538 211.797C147.054 192.888 141.977 220.369 141.977 220.369Z" fill="#DB284E"/>
<path d="M152.649 205.464C148.607 210.066 145.032 215.059 141.977 220.37C141.977 220.37 155.897 248.801 157.928 272.392C159.891 294.467 163.636 297.498 171.464 295.304C175.437 294.152 179.296 292.638 182.993 290.78C176.473 236.836 157.454 210.802 152.649 205.464Z" fill="#E66983"/>
<path d="M196.145 96.7833C196.145 96.7833 155.039 140.369 141.615 153.804L135.117 168.89L148.654 206.798L165.439 211.503L243.297 212.363L240.003 204.243L219.405 168.8L204.425 126.911L197.476 100.764L196.145 96.7833Z" fill="#E66983"/>
<path d="M219.406 168.799L215.481 157.807L142.925 190.558L148.745 206.73L165.531 211.435L243.389 212.294L240.095 204.174L219.406 168.799Z" fill="#DB284E"/>
<path d="M141.615 153.804C141.615 153.804 141.479 188.139 165.529 211.503C165.954 212.167 166.137 212.957 166.046 213.741C165.956 214.524 165.598 215.252 165.033 215.801L151.496 222.066C151.496 222.066 145.36 225.64 137.96 217.203C130.56 208.766 116.933 189.337 118.377 164.797C118.604 162.619 119.488 160.563 120.911 158.902C122.334 157.241 124.228 156.054 126.341 155.5L136.178 151.542C136.178 151.542 140.622 150.072 141.615 153.804Z" fill="#AC1D3E"/>
<path d="M196.145 96.7835C196.145 96.7835 206.816 85.3387 213.991 84.1852C221.165 83.0316 230.122 91.2421 236.191 98.1632C242.26 105.084 260.128 133.448 265.114 153.804C270.1 174.161 275.356 203.564 265.971 208.993C256.586 214.421 243.41 212.385 243.41 212.385C243.41 212.385 224.549 201.302 206.997 159.549C189.444 117.796 196.145 96.7835 196.145 96.7835Z" fill="#AC1D3E"/>
<path d="M259.069 211.39C259.069 211.39 267.823 194.155 254.376 154.573C233.192 92.2368 208.014 86.9216 208.014 86.9216C208.014 86.9216 193.146 103.365 221.099 162.195C244.292 210.666 259.069 211.39 259.069 211.39Z" fill="#DB284E"/>
<path d="M210.811 137.179C213.773 145.704 217.207 154.055 221.099 162.195C223.355 166.9 225.498 171.242 227.574 174.975C234.342 171.129 244.765 162.693 236.846 147.697C229.582 133.787 217.444 135.121 210.811 137.179Z" fill="#AC1D3E"/>
<path d="M165.531 211.435C158.641 204.659 153.124 196.609 149.287 187.731L125.056 197.095C128.471 204.334 132.85 211.076 138.074 217.135C145.384 225.571 151.61 221.998 151.61 221.998L165.147 215.732C165.694 215.17 166.032 214.435 166.101 213.652C166.171 212.869 165.97 212.086 165.531 211.435Z" fill="#971937"/>
<path d="M212.548 142.02C216.891 153.312 221.94 164.319 227.664 174.975C227.664 174.975 244.99 166.764 238.019 150.095C238.019 150.004 226.829 164.819 212.548 142.02Z" fill="#971937"/>
<path d="M280.455 240.206H89.5445C85.9186 240.206 82.9792 243.153 82.9792 246.788V275.807C82.9792 279.442 85.9186 282.389 89.5445 282.389H280.455C284.081 282.389 287.021 279.442 287.021 275.807V246.788C287.021 243.153 284.081 240.206 280.455 240.206Z" fill="#C22046"/>
<path d="M280.455 234.981H89.5445C85.9186 234.981 82.9792 237.928 82.9792 241.563V270.582C82.9792 274.217 85.9186 277.164 89.5445 277.164H280.455C284.081 277.164 287.021 274.217 287.021 270.582V241.563C287.021 237.928 284.081 234.981 280.455 234.981Z" fill="#DB284E"/>
<path d="M97.6219 251.605C98.3258 250.319 99.3725 249.254 100.645 248.529C102.027 247.771 103.583 247.389 105.157 247.421C107.002 247.373 108.81 247.938 110.301 249.027C111.698 250.095 112.686 251.612 113.099 253.324H108.587C108.289 252.642 107.783 252.072 107.143 251.696C106.5 251.319 105.767 251.124 105.022 251.13C104.441 251.112 103.863 251.223 103.328 251.453C102.794 251.684 102.317 252.029 101.931 252.465C101.118 253.464 100.701 254.728 100.758 256.016C100.701 257.311 101.119 258.582 101.931 259.59C102.317 260.025 102.794 260.371 103.328 260.601C103.863 260.832 104.441 260.942 105.022 260.924C105.767 260.931 106.5 260.735 107.143 260.359C107.783 259.982 108.289 259.412 108.587 258.73H113.099C112.683 260.476 111.659 262.017 110.211 263.073C108.718 264.155 106.909 264.712 105.067 264.656C103.494 264.695 101.939 264.32 100.555 263.57C99.2822 262.846 98.2356 261.781 97.5317 260.494C96.7836 259.107 96.4102 257.547 96.4487 255.971C96.465 254.439 96.8687 252.937 97.6219 251.605Z" fill="white"/>
<path d="M119.259 263.661C117.941 262.939 116.848 261.867 116.1 260.562C115.301 259.191 114.895 257.626 114.927 256.038C114.886 254.45 115.293 252.882 116.1 251.515C116.848 250.21 117.941 249.137 119.259 248.416C120.595 247.665 122.103 247.276 123.635 247.285C125.168 247.27 126.678 247.66 128.012 248.416C129.332 249.126 130.421 250.202 131.148 251.515C131.937 252.889 132.335 254.453 132.299 256.038C132.327 257.622 131.93 259.185 131.148 260.562C130.408 261.865 129.323 262.938 128.012 263.661C126.667 264.387 125.163 264.768 123.635 264.768C122.108 264.768 120.604 264.387 119.259 263.661ZM126.884 259.657C127.73 258.656 128.165 257.371 128.102 256.061C128.171 254.757 127.734 253.477 126.884 252.487C126.475 252.036 125.972 251.681 125.41 251.446C124.849 251.212 124.243 251.104 123.635 251.13C123.027 251.105 122.42 251.212 121.855 251.442C121.291 251.672 120.783 252.021 120.364 252.465C119.574 253.496 119.145 254.76 119.145 256.061C119.145 257.362 119.574 258.626 120.364 259.657C120.778 260.109 121.285 260.464 121.85 260.699C122.415 260.933 123.024 261.041 123.635 261.014C124.243 261.041 124.849 260.933 125.41 260.698C125.972 260.464 126.475 260.108 126.884 259.657Z" fill="white"/>
<path d="M153.776 247.624V264.633H149.647V254.455L145.857 264.633H142.541L138.728 254.433V264.633H134.599V247.647H139.472L144.233 259.409L148.925 247.647L153.776 247.624Z" fill="white"/>
<path d="M160.884 247.624V264.633H156.755V247.647L160.884 247.624Z" fill="white"/>
<path d="M179.022 264.633H174.894L167.99 254.161V264.633H163.884V247.647H167.99L174.894 258.164V247.647H179.022V264.633Z" fill="white"/>
<path d="M193.258 253.008C192.968 252.445 192.511 251.987 191.95 251.696C191.326 251.386 190.638 251.231 189.942 251.244C189.343 251.22 188.747 251.327 188.193 251.557C187.64 251.788 187.144 252.136 186.738 252.578C185.896 253.545 185.46 254.802 185.52 256.084C185.441 257.432 185.895 258.756 186.783 259.771C187.246 260.217 187.795 260.563 188.397 260.788C188.998 261.014 189.639 261.114 190.28 261.083C191.197 261.106 192.098 260.836 192.852 260.314C193.584 259.736 194.12 258.946 194.386 258.052H189.152V254.998H198.177V258.843C197.837 259.94 197.275 260.954 196.525 261.822C195.776 262.69 194.856 263.393 193.822 263.887C192.629 264.445 191.326 264.723 190.009 264.702C188.438 264.73 186.885 264.356 185.497 263.616C184.213 262.898 183.158 261.832 182.452 260.54C181.683 259.159 181.301 257.596 181.346 256.016C181.307 254.437 181.689 252.875 182.452 251.492C183.158 250.2 184.213 249.134 185.497 248.416C186.879 247.659 188.435 247.276 190.009 247.308C191.831 247.249 193.625 247.772 195.131 248.801C196.537 249.767 197.528 251.229 197.906 252.895L193.258 253.008Z" fill="white"/>
<path d="M208.329 264.181C207.428 263.803 206.648 263.185 206.073 262.395C205.47 261.557 205.139 260.554 205.125 259.522H209.637C209.674 260.068 209.906 260.582 210.292 260.97C210.691 261.315 211.208 261.494 211.736 261.467C212.252 261.494 212.762 261.342 213.18 261.037C213.357 260.899 213.5 260.721 213.594 260.516C213.688 260.311 213.732 260.087 213.721 259.861C213.728 259.667 213.693 259.474 213.619 259.294C213.545 259.115 213.434 258.953 213.292 258.821C212.99 258.534 212.638 258.304 212.255 258.142C211.848 257.984 211.262 257.78 210.517 257.554C209.598 257.283 208.701 256.943 207.833 256.536C207.122 256.188 206.509 255.667 206.05 255.021C205.525 254.268 205.263 253.361 205.306 252.443C205.281 251.733 205.423 251.027 205.721 250.383C206.019 249.738 206.464 249.173 207.02 248.733C208.32 247.766 209.917 247.286 211.533 247.376C213.147 247.303 214.738 247.781 216.045 248.733C216.608 249.179 217.064 249.746 217.381 250.391C217.697 251.037 217.865 251.746 217.872 252.465H213.36C213.354 252.22 213.296 251.978 213.191 251.756C213.086 251.534 212.936 251.336 212.751 251.176C212.353 250.846 211.846 250.676 211.33 250.701C210.894 250.679 210.466 250.825 210.134 251.108C209.972 251.246 209.845 251.42 209.762 251.617C209.68 251.813 209.645 252.026 209.66 252.239C209.656 252.504 209.725 252.765 209.86 252.993C209.996 253.221 210.192 253.406 210.427 253.528C211.196 253.941 212.005 254.275 212.841 254.523C213.759 254.817 214.656 255.172 215.526 255.586C216.214 255.939 216.816 256.441 217.286 257.057C217.801 257.781 218.063 258.656 218.03 259.545C218.048 260.478 217.797 261.397 217.308 262.191C216.761 263.029 215.975 263.683 215.052 264.068C214.025 264.561 212.896 264.802 211.758 264.769C210.587 264.809 209.42 264.608 208.329 264.181Z" fill="white"/>
<path d="M224.008 263.661C222.686 262.945 221.591 261.871 220.849 260.562C220.05 259.191 219.644 257.626 219.676 256.038C219.636 254.45 220.042 252.882 220.849 251.515C221.591 250.205 222.686 249.131 224.008 248.416C225.347 247.671 226.853 247.281 228.385 247.281C229.916 247.281 231.422 247.671 232.761 248.416C234.077 249.132 235.164 250.206 235.897 251.515C236.687 252.888 237.085 254.453 237.048 256.038C237.077 257.622 236.679 259.185 235.897 260.562C235.151 261.86 234.067 262.931 232.761 263.661C231.416 264.387 229.912 264.767 228.385 264.767C226.857 264.767 225.353 264.387 224.008 263.661ZM231.633 259.657C232.479 258.656 232.914 257.371 232.852 256.061C232.92 254.757 232.484 253.476 231.633 252.487C231.224 252.036 230.721 251.681 230.16 251.446C229.598 251.212 228.992 251.104 228.385 251.13C227.776 251.104 227.168 251.209 226.604 251.44C226.039 251.67 225.531 252.019 225.113 252.464C224.323 253.496 223.895 254.76 223.895 256.061C223.895 257.361 224.323 258.626 225.113 259.657C225.535 260.098 226.041 260.45 226.601 260.69C227.161 260.93 227.764 261.053 228.373 261.053C228.983 261.053 229.586 260.93 230.146 260.69C230.706 260.45 231.212 260.098 231.633 259.657Z" fill="white"/>
<path d="M242.982 263.661C241.659 262.94 240.558 261.868 239.801 260.562C239.02 259.185 238.622 257.622 238.651 256.038C238.614 254.453 239.012 252.889 239.801 251.515C240.558 250.209 241.659 249.137 242.982 248.416C244.317 247.66 245.827 247.27 247.359 247.285C248.891 247.276 250.4 247.665 251.736 248.416C253.052 249.132 254.139 250.206 254.872 251.515C255.651 252.894 256.061 254.453 256.061 256.038C256.061 257.624 255.651 259.182 254.872 260.562C254.139 261.871 253.052 262.945 251.736 263.661C250.395 264.387 248.895 264.768 247.371 264.768C245.846 264.768 244.346 264.387 243.005 263.661H242.982ZM250.608 259.657C251.454 258.656 251.889 257.371 251.826 256.061C251.895 254.757 251.458 253.477 250.608 252.487C250.199 252.036 249.696 251.681 249.134 251.446C248.573 251.212 247.967 251.104 247.359 251.13C246.75 251.104 246.143 251.21 245.578 251.44C245.014 251.67 244.506 252.02 244.088 252.465C243.298 253.496 242.869 254.76 242.869 256.061C242.869 257.362 243.298 258.626 244.088 259.657C244.509 260.099 245.015 260.45 245.575 260.69C246.136 260.93 246.739 261.053 247.348 261.053C247.957 261.053 248.56 260.93 249.121 260.69C249.681 260.45 250.187 260.099 250.608 259.657Z" fill="white"/>
<path d="M273.462 264.633H269.333L262.429 254.161V264.633H258.301V247.647H262.429L269.333 258.164V247.647H273.462V264.633Z" fill="white"/>
<path d="M289.707 201.755C289.707 201.755 289.865 218.357 276.17 218.357C276.17 218.357 289.707 221.365 289.707 234.37C289.707 234.37 298.122 219.646 306.289 219.646C306.289 219.646 289.707 218.063 289.707 201.755Z" fill="#E66983"/>
<path d="M306.334 230.864C306.334 230.864 306.334 235.705 302.341 235.705C303.427 235.937 304.407 236.521 305.129 237.367C305.851 238.214 306.274 239.275 306.334 240.387C306.334 240.387 308.793 236.089 311.162 236.089C309.851 235.982 308.628 235.385 307.734 234.418C306.841 233.451 306.341 232.183 306.334 230.864Z" fill="#E66983"/>
<path d="M61.7268 263.073C61.7268 263.073 61.8847 279.471 48.1902 279.471C48.1902 279.471 61.7268 282.434 61.7268 295.304C61.7268 295.304 70.0518 280.76 78.106 280.76C78.106 280.76 61.7268 279.177 61.7268 263.073Z" fill="#E66983"/>
<path d="M79.0766 288.79C79.0766 288.79 79.0766 295.349 73.6846 295.349C75.1574 295.654 76.4871 296.442 77.4635 297.589C78.4399 298.736 79.0075 300.176 79.0766 301.682C79.0766 301.682 82.3931 295.869 85.6193 295.869C83.8455 295.717 82.192 294.907 80.982 293.598C79.772 292.289 79.0926 290.574 79.0766 288.79Z" fill="#E66983"/>
<path d="M270.756 125.418L309.312 92.1694L316.803 106.984L270.756 125.418Z" fill="#DB284E"/>
<path d="M275.222 131.615L312.041 123.903L311.613 136.184L275.222 131.615Z" fill="#DB284E"/>
<path d="M266.333 118.248L276.688 91.2418L284.404 96.625L266.333 118.248Z" fill="#DB284E"/>
</svg>
