<svg width="222" height="222" fill="none" xmlns="http://www.w3.org/2000/svg"><g clip-path="url(#a)"><g clip-path="url(#b)"><path d="M112.888 2.416a109.085 109.085 0 1 0 12.07 217.56 110.145 110.145 0 0 0 18.755-3.71 108.496 108.496 0 0 0 22.77-9.523 110.165 110.165 0 0 0 14.63-9.813 109.074 109.074 0 0 0 35.132-121.544 109.072 109.072 0 0 0-103.357-72.97Z" fill="#FCEFF2"/><path d="M165.802 161.55c11.696 0 21.178-9.122 21.178-20.374 0-11.253-9.482-20.375-21.178-20.375-11.696 0-21.177 9.122-21.177 20.375 0 11.252 9.481 20.374 21.177 20.374Z" fill="#EB92A7"/><path d="M186.968 161.551c5.848 0 10.588-4.561 10.588-10.187 0-5.626-4.74-10.187-10.588-10.187-5.848 0-10.589 4.561-10.589 10.187 0 5.626 4.741 10.187 10.589 10.187ZM144.626 161.551c7.186 0 13.011-5.602 13.011-12.513 0-6.91-5.825-12.513-13.011-12.513-7.186 0-13.011 5.603-13.011 12.513 0 6.911 5.825 12.513 13.011 12.513Z" fill="#EB92A7"/><path d="M223.854 163.143H107.752s46.078-18.271 116.102 0ZM69.813 161.26c13.828 0 25.039-10.789 25.039-24.098s-11.21-24.098-25.04-24.098c-13.828 0-25.039 10.789-25.039 24.098s11.21 24.098 25.04 24.098Z" fill="#EB92A7"/><path d="M94.853 161.26c6.918 0 12.526-5.392 12.526-12.042 0-6.651-5.608-12.042-12.526-12.042s-12.527 5.391-12.527 12.042c0 6.65 5.609 12.042 12.527 12.042ZM44.774 161.261c8.493 0 15.378-6.625 15.378-14.797s-6.885-14.797-15.378-14.797-15.378 6.625-15.378 14.797 6.885 14.797 15.378 14.797Z" fill="#EB92A7"/><path d="M138.466 163.143H1.145s54.507-21.62 137.321 0Z" fill="#EB92A7"/><path d="M161.581 140.567h-19.157v21.759a2.766 2.766 0 0 1-.692 1.855v.886h3.447v-24.5h16.402Z" fill="#E0AC69"/><path d="M171.854 154.173a1.15 1.15 0 1 0 .054-2.298 1.15 1.15 0 0 0-.054 2.298Z" fill="#F7CD97"/><path d="M176.171 140.567h-6.921a1.384 1.384 0 0 1 1.384 1.384v9.911a1.802 1.802 0 0 1 1.246-.499c.23 0 .458.046.67.135a1.736 1.736 0 0 1 1.074 1.623 1.757 1.757 0 0 1-2.99 1.232v9.385a1.385 1.385 0 0 1-1.246 1.384h6.783a1.843 1.843 0 0 0 1.827-1.841v-20.956a1.825 1.825 0 0 0-1.827-1.758ZM145.166 165.011h16.388l-16.388-.028v.028ZM159.035 151.862a1.105 1.105 0 0 0-1.08.844h2.187a1.152 1.152 0 0 0-1.107-.844ZM164.807 151.876a1.154 1.154 0 0 0-1.081.689 1.153 1.153 0 0 0 .819 1.584 1.155 1.155 0 0 0 1.061-1.931 1.134 1.134 0 0 0-.799-.342Z" fill="#F7CD97"/><path d="M170.634 163.655v-9.384a1.774 1.774 0 0 1 0-2.492v-9.91a1.383 1.383 0 0 0-1.384-1.384h-24.084v24.485h24.195a1.38 1.38 0 0 0 1.273-1.315Zm-17.814-8.928h-1.384v-1.384h1.384v1.384Zm-3.28-1.619v-1.384a1.852 1.852 0 0 0 1.311-.534 1.852 1.852 0 0 0 .544-1.307h1.384a3.251 3.251 0 0 1-3.267 3.225h.028Zm6.09 1.647c-.844 0-1.509-.443-1.509-1.024v-.166h.637v.166c0 .221.415.415.872.415s.886-.194.886-.401c0-.208-.471-.319-.858-.429-.665-.194-1.384-.402-1.384-1.038 0-.637.623-1.025 1.384-1.025.761 0 1.384.457 1.384 1.025v.166h-.637v-.166c0-.222-.346-.416-.747-.416-.402 0-.761.194-.761.416 0 .221.498.304.858.415.664.194 1.384.415 1.384 1.052 0 .636-.678 1.01-1.537 1.01h.028Zm5.191-1.384h-2.769a1.125 1.125 0 0 0 1.08.844 1.177 1.177 0 0 0 .997-.47l.097-.125.512.36-.111.138a1.788 1.788 0 0 1-1.481.706 1.76 1.76 0 0 1-1.724-2.1 1.754 1.754 0 0 1 1.381-1.382 1.767 1.767 0 0 1 1.016.1 1.76 1.76 0 0 1 1.085 1.625l-.083.304Zm2.242-1.384h-1.01v1.855c0 .29.235.429.692.429h.304v.609h-.318c-.817 0-1.301-.374-1.384-1.038v-1.855h-.595v-.595h.595v-.831h.623v.831h1.01l.083.595Zm1.758 2.893c-.23 0-.458-.046-.671-.134a1.761 1.761 0 0 1-.944-.952 1.755 1.755 0 0 1 1.629-2.416 1.76 1.76 0 0 1 1.602 1.751 1.76 1.76 0 0 1-1.602 1.751h-.014Zm2.851-2.256v2.27h-.623v-4.942h.637l-.014 2.672Zm1.772 2.2-1.647-1.384v-.609l1.744-1.384h.941l-.609.526-1.467 1.218 2.076 1.758h-.941l-.097-.125Z" fill="#F7CD97"/><path d="M155.713 152.692c-.36-.111-.858-.249-.858-.416 0-.166.346-.415.761-.415.416 0 .748.194.748.415v.167h.637v-.167c0-.567-.623-1.024-1.385-1.024-.761 0-1.384.457-1.384 1.024 0 .568.748.845 1.384 1.039.388.11.859.249.859.429s-.416.401-.886.401c-.471 0-.872-.194-.872-.415v-.166h-.637v.166c0 .581.664 1.024 1.509 1.024.844 0 1.522-.443 1.522-1.01 0-.568-.733-.859-1.398-1.052ZM159.035 151.252a1.758 1.758 0 1 0 0 3.516 1.789 1.789 0 0 0 1.481-.706l.111-.138-.512-.36-.097.124a1.184 1.184 0 0 1-.997.471 1.12 1.12 0 0 1-1.079-.844h2.768v-.291a1.757 1.757 0 0 0-1.675-1.772Zm-1.079 1.384a1.106 1.106 0 0 1 1.079-.844 1.15 1.15 0 0 1 1.108.844h-2.187Z" fill="#231F20"/><path d="M162.025 150.436h-.623v.83h-.595v.595h.595v1.855c0 .665.498 1.038 1.384 1.038h.318v-.609h-.304c-.457 0-.692-.138-.692-.429v-1.855h1.01v-.609h-1.01l-.083-.816Z" fill="#DB284E"/><path d="M164.807 151.267a1.756 1.756 0 0 0-1.758 1.744 1.756 1.756 0 0 0 2.996 1.262 1.76 1.76 0 0 0-.26-2.709 1.766 1.766 0 0 0-.978-.297Zm0 2.893a1.149 1.149 0 1 1 1.135-1.135 1.138 1.138 0 0 1-1.149 1.135h.014ZM171.853 154.783a1.76 1.76 0 0 0 1.758-1.744 1.736 1.736 0 0 0-.506-1.243 1.736 1.736 0 0 0-1.238-.515 1.802 1.802 0 0 0-1.246.498v2.492c.327.327.77.511 1.232.512Zm0-2.893a1.14 1.14 0 0 1 .643.188 1.143 1.143 0 0 1 .183 1.773 1.15 1.15 0 0 1-1.873-1.264 1.144 1.144 0 0 1 .622-.615 1.14 1.14 0 0 1 .439-.082h-.014Z" fill="#DB284E"/><path d="M170.633 154.27v-2.492a1.772 1.772 0 0 0 0 2.492ZM167.008 154.783h.623v-2.27l.014-2.685h-.637v4.955Z" fill="#DB284E"/><path d="m168.377 153.025 1.467-1.218.609-.526-.941-.014-1.744 1.453v.609l1.647 1.385.097.069h.941l-2.076-1.758ZM149.512 151.64v1.384a3.242 3.242 0 0 0 2.323-.948 3.249 3.249 0 0 0 .957-2.319h-1.384a1.83 1.83 0 0 1-.543 1.349 1.85 1.85 0 0 1-1.353.534Z" fill="#DB284E"/><path fill="#F7CD97" d="M147.611 144.979h29.396v13.065h-29.396z"/><g clip-path="url(#c)"><path d="m150.847 150.677.089-.018c-.132.869-.263 1.97-.25 2.317.006.18.137.31.312.31.056 0 .11-.013.159-.038.794-.387 1.284-.511 2.098-.718.191-.048.241-.209.225-.332-.018-.143-.129-.289-.307-.289a.346.346 0 0 0-.084.011c-.696.176-1.162.302-1.741.549.013-.136.029-.293.049-.466l.315-.13c.542-.225.9-.374 1.543-.549.191-.053.239-.215.223-.34-.02-.14-.129-.283-.302-.283-.03 0-.06.005-.089.013-.651.178-1.012.328-1.558.555l-.041.017c.048-.34.096-.666.139-.921.459-.201.883-.305 1.554-.438a.274.274 0 0 0 .231-.31c-.014-.149-.133-.308-.323-.308a.314.314 0 0 0-.068.007c-.528.105-.938.199-1.341.347a.255.255 0 0 0-.037-.048.345.345 0 0 0-.24-.098.295.295 0 0 0-.298.229l-.021.078v.004a2.565 2.565 0 0 0-.048.18c-.082.024-.379.077-.667.126l-.014.003c-.338.058-.72.124-.965.179l.022-.501c.004-.09.006-.184.008-.275v-.052l.897-.137.008-.002c.367-.056.782-.121 1.186-.178a.257.257 0 0 0 .173-.115.332.332 0 0 0 .045-.256c-.038-.136-.15-.217-.302-.217a.407.407 0 0 0-.061.005c-.382.054-.771.114-1.146.173l-.017.002c-.248.039-.492.077-.74.114.013-.086.032-.172.056-.257a.277.277 0 0 0-.042-.252.332.332 0 0 0-.258-.124.283.283 0 0 0-.283.213 2.65 2.65 0 0 0-.089.508c-.346.047-.654.085-.941.116-.175.018-.295.139-.295.301 0 .147.138.318.308.3.274-.028.568-.064.898-.109a44.015 44.015 0 0 0-.036.91 6.862 6.862 0 0 0-.318.109c-.131.047-.225.208-.209.356a.244.244 0 0 0 .222.225.587.587 0 0 0 .221-.005l.06-.013-.009.239a81.34 81.34 0 0 1-.079 1.881.269.269 0 0 0 .17.275.3.3 0 0 0 .118.021c.148 0 .304-.099.314-.289.036-.632.058-1.272.08-1.891l.014-.395c.331-.086 1.07-.235 1.427-.307l.055-.012ZM164.614 151.829c-.018-.143-.13-.289-.307-.289a.334.334 0 0 0-.084.011c-.731.186-1.258.327-1.871.586.009-.134.023-.291.043-.467a23.384 23.384 0 0 0 .462-.193c.393-.167.609-.259 1.187-.418.191-.052.239-.215.223-.34-.019-.14-.129-.282-.301-.282a.337.337 0 0 0-.09.012 7.543 7.543 0 0 0-1.201.423l-.191.081c.048-.34.101-.689.152-.983.201-.085.419-.143.624-.195.281-.071.454-.1.655-.135h.002c.103-.017.232-.039.397-.071a.275.275 0 0 0 .232-.31c-.015-.15-.133-.311-.324-.311a.299.299 0 0 0-.067.007c-.163.031-.323.058-.478.084-.31.051-.632.104-.941.2a.268.268 0 0 0-.066-.108.344.344 0 0 0-.239-.097.294.294 0 0 0-.298.228 6.534 6.534 0 0 0-.058.275c-.13.081-.252.175-.365.279a.28.28 0 0 0-.08.32.35.35 0 0 0 .306.217c-.136.871-.265 1.926-.222 2.283.022.18.152.305.315.305a.355.355 0 0 0 .157-.037c.786-.384 1.381-.535 2.204-.744.189-.047.239-.208.224-.331ZM156.05 153.356c.035-.431.088-.934.14-1.42v-.011c.036-.34.073-.692.103-1.01a47.285 47.285 0 0 1 .125-1.218c.021-.187.043-.381.089-.564a.252.252 0 0 0-.046-.226.31.31 0 0 0-.247-.118.273.273 0 0 0-.143.037.27.27 0 0 0-.104.105c-.12.207-.226.42-.328.625-.065.129-.138.276-.212.414a9.594 9.594 0 0 1-.467.8 14.35 14.35 0 0 1-.272-.832 17.27 17.27 0 0 0-.177-.569 15.504 15.504 0 0 1-.084-.259 1.43 1.43 0 0 0-.01-.069l-.002-.003a.652.652 0 0 0-.033-.083c-.044-.087-.141-.14-.252-.14a.297.297 0 0 0-.23.104.195.195 0 0 0-.024.026.256.256 0 0 0-.048.117c-.019.083-.03.167-.033.251a1.617 1.617 0 0 1-.008.11c-.045.334-.074.69-.092 1.154-.029.734-.055 1.729-.068 2.597a.255.255 0 0 0 .072.189c.029.028.062.05.1.064a.288.288 0 0 0 .116.021c.145 0 .293-.093.296-.272.007-.447.022-.962.036-1.461.01-.343.018-.626.024-.889l.007-.239c.129.354.282.615.479.818a.287.287 0 0 0 .206.079.268.268 0 0 0 .155-.046c.27-.194.453-.505.618-.813a97.576 97.576 0 0 1-.124 1.234l-.002.015c-.053.506-.108 1.028-.146 1.485a.24.24 0 0 0 .06.188.28.28 0 0 0 .206.082c.149 0 .306-.094.32-.273ZM157.346 152.649c.125-.391.241-.787.328-1.091.314-.161.601-.305.876-.442.172.569.38 1.127.621 1.671.043.098.151.161.274.161a.322.322 0 0 0 .161-.042c.146-.085.193-.256.117-.426a13.188 13.188 0 0 1-.597-1.645c.157-.075.297-.143.43-.205a.269.269 0 0 0 .159-.313c-.03-.133-.154-.271-.327-.271a.348.348 0 0 0-.142.033l-.294.14a32.63 32.63 0 0 1-.239-.958 9.831 9.831 0 0 0-.102-.399 2.428 2.428 0 0 1-.04-.172l-.003-.015a.307.307 0 0 0-.018-.271.336.336 0 0 0-.122-.115.335.335 0 0 0-.161-.044.257.257 0 0 0-.156.05.41.41 0 0 0-.16.238l-.011-.003-.013.059c-.285.774-.513 1.575-.734 2.352l-.052.18-.022.012a.261.261 0 0 0-.054.024c-.021.01-.04.022-.058.032a.728.728 0 0 1-.054.03l-.055.029.002.005a.277.277 0 0 0-.095.131.28.28 0 0 0-.004.162.355.355 0 0 0 .156.215c-.08.273-.15.501-.219.716a.285.285 0 0 0-.015.136.29.29 0 0 0 .172.223.33.33 0 0 0 .151.033.304.304 0 0 0 .3-.22Zm.564-1.919c.075-.262.174-.601.283-.952l.005.024c.035.152.075.323.119.492l.055.207c-.146.071-.297.145-.462.229Z" fill="#D7244F"/><path d="M161.271 152.144a.309.309 0 0 0-.154.041c-.26.141-.47.231-.681.292a1.27 1.27 0 0 1-.336.05l-.012-.002c-.016-.087.007-.212.024-.313.031-.174.067-.373.096-.573.167-1.149.255-2.072.29-2.992a.297.297 0 0 0-.078-.218.3.3 0 0 0-.106-.069.306.306 0 0 0-.123-.023c-.156 0-.318.104-.326.305a22.59 22.59 0 0 1-.327 3.212l-.019.101-.003.013c-.071.374-.163.839.207 1.087a.705.705 0 0 0 .398.107 2 2 0 0 0 .428-.061c.315-.073.611-.22.883-.369a.282.282 0 0 0 .148-.334c-.03-.126-.148-.254-.309-.254ZM172.135 152.343h-.024c-.257 0-.395.206-.4.409-.004.196.115.412.387.424h.022c.258 0 .398-.206.402-.409.004-.196-.115-.412-.387-.424ZM168.974 150.023c-.087-.621-.467-1.152-.993-1.388a1.394 1.394 0 0 0-.569-.124c-.367 0-.688.153-.902.43a1.302 1.302 0 0 0-.158.25.32.32 0 0 0 .015.324c.047.075.119.13.203.156a28.68 28.68 0 0 0-.011 1.441c.007.342.019.746.068 1.155l.008.07a2.052 2.052 0 0 1-.152.011c-.212.005-.321.174-.319.339.002.154.101.32.314.32h.009c.102-.003.203-.012.304-.028.015.03.033.06.054.087a.358.358 0 0 0 .284.155.303.303 0 0 0 .161-.045.348.348 0 0 0 .16-.23.292.292 0 0 0-.011-.163c.35-.163.661-.401.911-.696a2.64 2.64 0 0 0 .624-2.064Zm-1.725-.835a.365.365 0 0 1 .146-.024h.037a.642.642 0 0 1 .221.046c.327.11.59.463.67.897.091.491-.087 1.095-.453 1.54a1.993 1.993 0 0 1-.597.491 12.558 12.558 0 0 1-.055-1.1c-.011-.629 0-1.251.031-1.851v.001ZM171.288 151.319c-.048-.441-.1-.897-.184-1.341a5.784 5.784 0 0 0-.242-.943c-.052-.139-.108-.272-.213-.369a.42.42 0 0 0-.281-.111.387.387 0 0 0-.286.128.32.32 0 0 0-.067.337c-.004.01-.009.019-.012.029-.12.317-.225.641-.329.954v.002c-.114.348-.219.662-.336.973-.16.051-.203.195-.19.303a.356.356 0 0 0 .03.101 6.08 6.08 0 0 0-.164.437c-.065.205-.14.509-.04.77.056.143.177.234.317.234a.313.313 0 0 0 .21-.079.345.345 0 0 0 .121-.226.29.29 0 0 0-.017-.12c-.051-.133.013-.316.069-.477l.013-.038c.044-.128.097-.255.148-.378l.014-.034c.225-.048.461-.091.786-.146l.016.147c.062.561.125 1.141.26 1.702a.299.299 0 0 0 .301.239.358.358 0 0 0 .278-.132.301.301 0 0 0 .061-.132.309.309 0 0 0-.004-.145c-.134-.552-.198-1.128-.259-1.685Zm-.726-.583c-.181.03-.33.056-.469.082.07-.202.14-.412.205-.609l.007-.022.106-.317a12.372 12.372 0 0 1 .109.586l.008.052.008.056a.503.503 0 0 0 .005.029l.021.143ZM172.446 150.438l.011-.18v-.006c.008-.13.013-.206.018-.263v-.013c.007-.101.012-.162.02-.393l.002-.067.001-.036c.01-.229.019-.466-.041-.686a.32.32 0 0 0-.319-.243.344.344 0 0 0-.275.129.294.294 0 0 0-.056.128.288.288 0 0 0 .008.14.691.691 0 0 1 .019.101v.021a6.799 6.799 0 0 1-.003.57c-.008.23-.014.309-.024.42v.003c-.005.071-.012.159-.021.318l-.008.127a9.575 9.575 0 0 0-.026.78v.06c0 .248 0 .663.317.713a.525.525 0 0 0 .079.006.29.29 0 0 0 .248-.115c.088-.123.064-.302.035-.388a.35.35 0 0 1-.012-.063l-.001-.021v-.006a.132.132 0 0 0-.003-.026l-.003-.09v-.007c-.002-.07 0-.143 0-.205.007-.282.018-.461.034-.708ZM176.732 148.725a.265.265 0 0 0-.229.119l-.011-.003-.024.071c-.124.359-.271.719-.427 1.099l-.001.004-.175.43a26.3 26.3 0 0 1-.442-.657c-.055-.084-.084-.122-.107-.153a1.543 1.543 0 0 1-.114-.175 5.668 5.668 0 0 1-.173-.321l-.006-.015-.011-.033a.265.265 0 0 0-.259-.191.3.3 0 0 0-.129.029.307.307 0 0 0-.103.083.25.25 0 0 0-.033.235v.003c.145.332.216.441.373.68l.072.109.001.002c.244.374.471.706.696 1.015-.25.695-.382 1.259-.414 1.774a.24.24 0 0 0 .154.252c.033.013.07.02.106.019.133 0 .274-.089.285-.26.056-.885.432-1.79.796-2.668l.003-.007c.121-.292.236-.568.34-.846a.292.292 0 0 0 .04-.081c.01-.029.018-.059.027-.091l.024-.081a.244.244 0 0 0-.132-.313.278.278 0 0 0-.127-.029ZM174.624 152.061a.332.332 0 0 0-.155.041c-.239.13-.432.213-.626.269a1.185 1.185 0 0 1-.29.045c-.007-.074.011-.174.024-.255l.002-.009c.029-.161.061-.344.088-.526.149-1.03.239-1.962.27-2.85a.29.29 0 0 0-.017-.12.289.289 0 0 0-.062-.102.335.335 0 0 0-.232-.094c-.158 0-.322.106-.329.309-.033.9-.133 1.898-.305 3.049-.006.043-.015.089-.024.145-.06.339-.136.761.208.991a.67.67 0 0 0 .384.104 1.83 1.83 0 0 0 .402-.057c.294-.068.57-.205.825-.343a.29.29 0 0 0 .151-.339c-.033-.128-.151-.258-.314-.258Z" fill="#D7244F"/><path d="M177.007 154.161h-12.888v2.28h12.888v-2.28Z" fill="#D8254F"/><path d="M166.177 155.501a.292.292 0 0 0-.111-.072 1.309 1.309 0 0 0-.15-.048 1.574 1.574 0 0 1-.165-.051.783.783 0 0 1-.151-.074.312.312 0 0 1-.11-.121.396.396 0 0 1-.043-.191.362.362 0 0 1 .129-.284.52.52 0 0 1 .351-.113.593.593 0 0 1 .281.067c.03.017.059.035.087.054a.31.31 0 0 1 .054.048l.017.02-.146.147-.012-.013a.525.525 0 0 0-.092-.069.403.403 0 0 0-.189-.043.277.277 0 0 0-.182.056.165.165 0 0 0-.069.131.165.165 0 0 0 .043.114.29.29 0 0 0 .111.071c.049.019.099.035.15.048.056.014.111.031.165.051a.752.752 0 0 1 .151.073c.047.03.085.073.111.122.03.059.044.124.043.19a.408.408 0 0 1-.139.316.56.56 0 0 1-.384.123.775.775 0 0 1-.339-.081.842.842 0 0 1-.163-.123l-.021-.026.146-.145a.387.387 0 0 0 .132.109.554.554 0 0 0 .245.058c.09 0 .162-.022.214-.066a.219.219 0 0 0 .059-.073.224.224 0 0 0 .02-.092.158.158 0 0 0-.043-.113ZM168.162 154.57v.209h-.439v1.253h-.229v-1.253h-.439v-.209h1.107ZM169.78 155.727a.37.37 0 0 0 .086-.128.373.373 0 0 0 .029-.151v-.878h.231v.878a.583.583 0 0 1-.18.428.626.626 0 0 1-1.008-.195.583.583 0 0 1-.045-.233v-.878h.23v.878a.377.377 0 0 0 .115.28.377.377 0 0 0 .542 0v-.001ZM171.536 154.57a.71.71 0 0 1 .523.216.732.732 0 0 1 .162.235.729.729 0 0 1 0 .56.711.711 0 0 1-.162.235.718.718 0 0 1-.523.217h-.513v-1.463h.513Zm-.283.209v1.044h.283a.48.48 0 0 0 .362-.151.536.536 0 0 0 0-.741.488.488 0 0 0-.362-.152h-.283ZM173.111 154.57h.23v1.462h-.229l-.001-1.462ZM174.398 154.767a.757.757 0 0 1 .549-.218c.218 0 .401.073.551.218a.753.753 0 0 1-.551 1.286.751.751 0 0 1-.549-1.286Zm.165.92a.55.55 0 0 0 .9-.593.548.548 0 0 0-1.058.207.532.532 0 0 0 .158.386Z" fill="#fff"/></g><path d="M140.279 164.97h1.384v-.872a2.773 2.773 0 0 1-1.384.872Z" fill="#F1C27D"/><path d="M117.013 127.058H77.191a2.118 2.118 0 0 0-2.062 2.049v11.46h11.073a1.83 1.83 0 0 1 1.827 1.827v20.846a1.828 1.828 0 0 1-1.827 1.758h5.329v-37.94h25.482Zm-30.81 3.82H79.78v-3.875h6.491l-.069 3.875Z" fill="#E0AC69"/><path d="M91.545 165.066h25.413l-25.413-.041v.041ZM132.957 144.719a1.774 1.774 0 0 0-1.771 1.772 1.772 1.772 0 0 0 1.771 1.772 1.748 1.748 0 0 0 1.578-1.024v-1.495a1.73 1.73 0 0 0-1.578-1.025ZM131.061 129.19v15.364a2.764 2.764 0 0 1 1.91-.789 2.764 2.764 0 0 1 1.578.526v-2.464c0-.367.146-.719.405-.979.26-.259.612-.405.979-.405h6.519v-10.547a2.753 2.753 0 0 0-.785-2.003 2.78 2.78 0 0 0-1.983-.835h-10.727c.278.002.553.058.809.167a2.101 2.101 0 0 1 1.139 1.153c.105.258.158.534.156.812ZM137.539 164.97h-1.661a1.384 1.384 0 0 1-1.384-1.384v-14.894a2.776 2.776 0 0 1-1.578.499 2.767 2.767 0 0 1-1.924-.789v14.561a2.101 2.101 0 0 1-1.883 2.104h10.534c.229-.004.457-.037.678-.097H137.539Z" fill="#F7CD97"/><path d="M141.761 142.934h-4.153v-2.45h-1.702a1.382 1.382 0 0 0-1.385 1.384v2.463a2.681 2.681 0 0 1 1.149 2.201 2.76 2.76 0 0 1-1.149 2.215v14.893a1.384 1.384 0 0 0 1.385 1.384h1.661v-2.463h4.152v1.536a2.77 2.77 0 0 0 .692-1.855V140.47h-.664l.014 2.464Z" fill="#F7CD97"/><path d="M134.647 146.492a1.728 1.728 0 0 0-.167-.748v1.495c.111-.234.168-.489.167-.747ZM137.58 142.92l4.18.014v-2.464h-4.18v2.45ZM137.553 162.505v2.464h2.768a2.763 2.763 0 0 0 1.453-.886v-1.564l-4.221-.014ZM131.021 162.976v-14.561a2.77 2.77 0 0 1 0-3.862v-15.364c0-.559-.221-1.096-.616-1.492a2.113 2.113 0 0 0-1.488-.625H91.545v37.967h37.566a2.107 2.107 0 0 0 1.91-2.063Zm-27.683-13.841h-2.187v-2.215h2.215l-.028 2.215Zm-5.08-2.505v-2.215a2.866 2.866 0 0 0 2.865-2.851h2.215a5.065 5.065 0 0 1-5.038 5.052l-.042.014Zm9.44 2.56c-1.384 0-2.339-.706-2.339-1.592v-.263h.982v.263c0 .333.651.651 1.385.651.733 0 1.384-.305 1.384-.651 0-.346-.734-.47-1.384-.65-1.025-.291-2.174-.637-2.187-1.62-.014-.982.969-1.577 2.159-1.577s2.159.705 2.159 1.591v.263h-.983v-.277c0-.332-.553-.636-1.176-.636-.623 0-1.177.304-1.177.636 0 .333.776.485 1.385.651 1.038.304 2.2.651 2.186 1.633-.013.983-1.038 1.564-2.353 1.564l-.041.014Zm8.056-2.242h-4.374a1.744 1.744 0 0 0 1.688 1.301 1.823 1.823 0 0 0 1.523-.706l.166-.208.789.554-.18.222a2.768 2.768 0 0 1-2.298 1.079 2.77 2.77 0 0 1-.54-5.483 2.771 2.771 0 0 1 3.309 2.715l-.083.526Zm3.46-2.242h-1.509v2.892c0 .43.36.665 1.066.665h.485v.941h-.499c-1.273 0-2.021-.595-2.034-1.606v-2.879h-.9v-.941h.9v-1.273h.982v1.273h1.551l-.042.928Zm2.768 4.498a2.765 2.765 0 0 1-2.557-1.709 2.762 2.762 0 0 1 .6-3.017 2.773 2.773 0 0 1 3.017-.6 2.771 2.771 0 0 1 1.709 2.558 2.77 2.77 0 0 1-2.741 2.754l-.028.014Zm4.402-3.502v3.516h-.983v-7.696h.983v4.18Zm2.768 3.405-2.56-2.145v-.941l2.768-2.243h1.467l-.955.831-2.27 1.882 3.211 2.768h-1.384l-.277-.152Z" fill="#F7CD97"/><path d="M113.067 144.72a1.694 1.694 0 0 0-1.064.358 1.69 1.69 0 0 0-.61.943h3.391a1.77 1.77 0 0 0-1.717-1.301ZM122.009 144.72a1.787 1.787 0 0 0-1.798 2.108 1.785 1.785 0 1 0 1.798-2.108Z" fill="#F7CD97"/><path d="M107.906 145.965c-.554-.166-1.384-.387-1.384-.65s.553-.637 1.176-.637c.623 0 1.177.305 1.177.637v.277h.982v-.263c0-.886-.969-1.592-2.159-1.592s-2.118.706-2.118 1.578c0 .872 1.163 1.384 2.187 1.619.595.18 1.384.402 1.384.651s-.65.65-1.384.65c-.733 0-1.384-.318-1.384-.65v-.263h-.983v.263c0 .886 1.025 1.592 2.34 1.592s2.353-.693 2.353-1.578c0-.886-1.149-1.329-2.187-1.634Z" fill="#231F20"/><path d="M113.067 143.737a2.758 2.758 0 0 0-2.281.588 2.763 2.763 0 0 0-.74 3.309 2.775 2.775 0 0 0 1.815 1.503c.394.102.806.115 1.206.039a2.76 2.76 0 0 0 1.28-.261c.4-.187.749-.468 1.018-.818l.18-.222-.789-.553-.166.207a1.818 1.818 0 0 1-.676.538 1.819 1.819 0 0 1-.847.168 1.74 1.74 0 0 1-1.689-1.301h4.416v-.471a2.771 2.771 0 0 0-2.727-2.726Zm-1.675 2.256a1.7 1.7 0 0 1 1.675-1.301 1.769 1.769 0 0 1 1.716 1.301h-3.391Z" fill="#231F20"/><path d="M117.705 142.477h-.983v1.273h-.9v.969h.9v2.893c0 1.011.761 1.606 2.035 1.606h.498v-.941h-.485c-.705 0-1.065-.236-1.065-.665v-2.893h1.55v-.941h-1.55v-1.301Z" fill="#DB284E"/><path d="M122.009 143.75a2.769 2.769 0 1 0 .001 5.537 2.769 2.769 0 0 0-.001-5.537Zm0 4.499a1.789 1.789 0 0 1-1.629-1.779 1.786 1.786 0 0 1 1.629-1.779 1.784 1.784 0 0 1 1.744 1.786 1.768 1.768 0 0 1-.506 1.247 1.76 1.76 0 0 1-1.238.525ZM132.959 148.263a1.772 1.772 0 1 1 0-3.543 1.735 1.735 0 0 1 1.578 1.024v-1.384a2.774 2.774 0 0 0-1.578-.526 2.768 2.768 0 0 0-1.91.789v3.862a2.767 2.767 0 0 0 1.924.789 2.768 2.768 0 0 0 1.578-.498v-1.468a1.746 1.746 0 0 1-1.592.955Z" fill="#DB284E"/><path d="M135.684 146.492a2.682 2.682 0 0 0-1.149-2.201v1.384a1.757 1.757 0 0 1 0 1.495v1.467a2.772 2.772 0 0 0 1.149-2.145ZM130.23 146.491a2.77 2.77 0 0 0 .803 1.924v-3.862a2.776 2.776 0 0 0-.803 1.938ZM125.428 149.204h.982v-7.696h-.982v7.696Z" fill="#DB284E"/><path d="m127.56 146.477 2.27-1.883.955-.83h-1.467l-2.699 2.242v.941l2.561 2.146.124.111h1.468l-3.212-2.727ZM98.299 144.401v2.215a5.06 5.06 0 0 0 3.591-1.479 5.079 5.079 0 0 0 1.489-3.587h-2.215a2.866 2.866 0 0 1-2.865 2.851Z" fill="#DB284E"/><path d="m101.162 146.92-.004 2.214 2.215.004.003-2.215-2.214-.003Z" fill="#231F20"/><path d="m79.773 127.001-.005 3.82 6.477.009.006-3.82-6.478-.009Z" fill="#F1C27D"/><path d="M71.556 140.567h-19.82v2.464h-4.153v-2.45H45.88a1.386 1.386 0 0 0-1.384 1.384v21.773a1.381 1.381 0 0 0 1.384 1.384h1.675v-2.464h4.153v2.45h3.446v-24.541h16.402Z" fill="#E0AC69"/><path d="M81.828 154.174a1.147 1.147 0 0 0 1.135-1.149 1.136 1.136 0 0 0-2.249-.203 1.135 1.135 0 0 0 1.114 1.352ZM75.058 140.498h-3.501l3.501.014v-.014ZM79.281 165.011h.402v-.111a1.65 1.65 0 0 1-.402.111Z" fill="#F7CD97"/><path d="M79.281 140.567a1.383 1.383 0 0 1 1.384 1.384v9.911a1.802 1.802 0 0 1 1.232-.499 1.772 1.772 0 0 1 1.343.454 1.764 1.764 0 0 1 .422 2.006 1.75 1.75 0 0 1-1.046.957 1.754 1.754 0 0 1-.719.085 1.717 1.717 0 0 1-1.232-.512v6.921h5.537v3.793a1.829 1.829 0 0 0 1.716-1.828v-20.914a1.829 1.829 0 0 0-1.813-1.758h-6.824Z" fill="#F7CD97"/><path d="M80.583 161.205v2.45a1.384 1.384 0 0 1-.858 1.246v.11h6.477v-3.792l-5.62-.014ZM55.14 165.011h16.375l-16.374-.028v.028ZM69.01 151.862a1.107 1.107 0 0 0-1.08.844h2.187a1.152 1.152 0 0 0-1.108-.844ZM73.647 153.024a1.14 1.14 0 0 0 .322.807 1.134 1.134 0 0 0 .799.342.774.774 0 0 0 .263 0V152a.987.987 0 0 0-.277 0 1.132 1.132 0 0 0-1.107 1.024ZM75.903 153.024a1.135 1.135 0 0 0-.858-1.093v2.173a1.132 1.132 0 0 0 .858-1.08Z" fill="#F7CD97"/><path d="M75.017 162.893v-8.152h-.263a1.772 1.772 0 0 1-1.343-.454 1.757 1.757 0 0 1 1.343-3.048h.277v-10.672H55.14v24.486H77.052a2.132 2.132 0 0 1-2.035-2.16Zm-12.264-8.166h-1.467v-1.384h1.384l.083 1.384Zm-3.266-1.619v-1.385a1.828 1.828 0 0 0 1.675-1.174c.088-.226.13-.466.124-.708h1.384a3.267 3.267 0 0 1-3.183 3.267Zm6.09 1.647c-.844 0-1.509-.443-1.509-1.025v-.166h.637v.166c0 .222.415.416.872.416s.886-.194.886-.402c0-.207-.484-.318-.858-.429-.665-.194-1.384-.401-1.384-1.038s.623-1.024 1.384-1.024c.761 0 1.384.457 1.384 1.024v.166h-.637v-.166c0-.221-.346-.415-.761-.415-.415 0-.747.194-.747.415 0 .221.498.305.858.415.664.194 1.384.416 1.384 1.052 0 .637-.665 1.011-1.509 1.011Zm5.19-1.385H67.93a1.122 1.122 0 0 0 1.08.845 1.143 1.143 0 0 0 .983-.471l.11-.124.512.36-.11.138a1.811 1.811 0 0 1-1.495.706 1.753 1.753 0 0 1-1.62-1.076 1.757 1.757 0 1 1 3.378-.724v.346Zm2.23-1.384h-.998v1.855c0 .291.236.429.679.429h.318v.609h-.318c-.83 0-1.301-.374-1.315-1.038v-1.855h-.582v-.595h.582v-.83h.636v.83h.997v.595Z" fill="#F7CD97"/><path d="M79.738 161.191h.844v-6.92a1.748 1.748 0 0 1-.387-1.922c.09-.214.222-.407.387-.57v-9.91a1.386 1.386 0 0 0-1.384-1.384h-4.07v10.782a1.744 1.744 0 0 1 0 3.447v8.152a2.133 2.133 0 0 0 2.063 2.118h2.09c.138-.02.273-.058.402-.111l.055-3.682Zm-2.132-8.678v2.27h-.636v-4.942h.636v2.672Zm.139.816v-.609l1.744-1.384h.941l-.609.526-1.467 1.218 2.076 1.758h-1.038l-1.647-1.509Z" fill="#F7CD97"/><path d="M79.725 164.901a1.387 1.387 0 0 0 .858-1.246v-2.45h-.844l-.014 3.696Z" fill="#F7CD97"/><path d="M65.688 152.692c-.36-.111-.858-.249-.858-.416 0-.166.346-.415.747-.415.402 0 .761.194.761.415v.167h.637v-.167c0-.567-.623-1.024-1.384-1.024-.761 0-1.384.457-1.384 1.024 0 .568.747.845 1.384 1.039.374.11.858.249.858.429s-.429.401-.886.401c-.456 0-.872-.194-.872-.415v-.166h-.636v.166c0 .581.664 1.024 1.508 1.024.845 0 1.51-.443 1.51-1.01 0-.568-.72-.859-1.385-1.052ZM69.01 151.252a1.757 1.757 0 0 0-1.243 3.001c.33.33.777.515 1.243.515a1.813 1.813 0 0 0 1.495-.706l.11-.138-.512-.36-.11.124a1.156 1.156 0 0 1-.983.471 1.123 1.123 0 0 1-1.08-.844h2.838v-.291a1.76 1.76 0 0 0-1.758-1.772Zm-1.08 1.384a1.107 1.107 0 0 1 1.08-.844 1.152 1.152 0 0 1 1.107.844H67.93Z" fill="#231F20"/><path d="M72.001 150.436h-.636v.83h-.582v.595h.582v1.855c0 .665.484 1.038 1.315 1.038h.318v-.609h-.319c-.442 0-.678-.138-.678-.429v-1.855h.997v-.609H72v-.816Z" fill="#DB284E"/><path d="M74.767 154.159a1.147 1.147 0 0 1 0-2.283.917.917 0 0 1 .277 0v-.637h-.277a1.75 1.75 0 0 0-1.764 1.042 1.761 1.761 0 0 0 .422 2.006 1.765 1.765 0 0 0 1.342.454h.263v-.637a.79.79 0 0 1-.263.055Z" fill="#DB284E"/><path d="M76.512 153.024a1.745 1.745 0 0 0-1.48-1.73v.637a1.122 1.122 0 0 1 0 2.173v.637a1.745 1.745 0 0 0 1.48-1.717ZM81.828 154.783a1.772 1.772 0 0 0 1.342-.454 1.756 1.756 0 0 0 0-2.594 1.75 1.75 0 0 0-1.342-.454 1.8 1.8 0 0 0-1.232.498v2.492a1.74 1.74 0 0 0 1.232.512Zm0-2.893a1.134 1.134 0 0 1 1.135 1.135 1.148 1.148 0 0 1-1.135 1.149 1.148 1.148 0 0 1 0-2.284Z" fill="#DB284E"/><path d="M80.664 154.27v-2.492a1.74 1.74 0 0 0-.387 1.921c.09.214.221.408.387.571ZM76.969 154.783h.637v-2.27l.013-2.685h-.636l-.014 4.955Z" fill="#DB284E"/><path d="m80.43 154.783-2.077-1.758 1.454-1.218.622-.526-.94-.014-1.745 1.453v.609l1.647 1.385.083.069h.955ZM59.488 151.64v1.384c.43.002.857-.081 1.255-.245a3.253 3.253 0 0 0 1.776-1.768c.165-.398.25-.824.25-1.254h-1.481a1.841 1.841 0 0 1-1.8 1.883Z" fill="#DB284E"/><path fill="#F7CD97" d="M56.158 146.612h29.396v13.065H56.158z"/><g clip-path="url(#d)"><path d="m57.761 150.677.09-.018c-.133.869-.264 1.97-.251 2.317.006.18.137.31.312.31.056 0 .11-.013.16-.038.793-.387 1.283-.511 2.097-.718.19-.048.24-.209.225-.332-.018-.143-.129-.289-.306-.289a.343.343 0 0 0-.085.011c-.696.176-1.162.302-1.741.549.013-.136.03-.293.05-.466l.315-.13c.541-.225.9-.374 1.542-.549.19-.053.239-.215.223-.34-.02-.14-.13-.283-.302-.283-.03 0-.06.005-.09.013-.65.178-1.01.328-1.557.555l-.04.017c.047-.34.095-.666.138-.921.46-.201.883-.305 1.554-.438a.274.274 0 0 0 .231-.31c-.014-.149-.133-.308-.322-.308a.314.314 0 0 0-.069.007c-.528.105-.938.199-1.341.347a.232.232 0 0 0-.037-.048.346.346 0 0 0-.24-.098.295.295 0 0 0-.298.229 3.616 3.616 0 0 1-.021.078v.004a3.444 3.444 0 0 0-.048.18c-.082.024-.379.077-.667.126l-.014.003c-.338.058-.72.124-.964.179l.02-.501c.005-.09.007-.184.009-.275v-.052l.897-.137.008-.002c.367-.056.782-.121 1.186-.178a.253.253 0 0 0 .173-.115.335.335 0 0 0 .045-.256c-.038-.136-.15-.217-.302-.217-.02 0-.04.002-.061.005-.382.054-.77.114-1.146.173l-.017.002c-.248.039-.492.077-.74.114a2.03 2.03 0 0 1 .056-.257.272.272 0 0 0-.042-.252.332.332 0 0 0-.258-.124.281.281 0 0 0-.283.213 2.62 2.62 0 0 0-.09.508c-.345.047-.653.085-.94.116-.175.018-.295.139-.295.301 0 .147.138.318.308.3.274-.028.568-.064.898-.109l-.005.143c-.01.223-.02.459-.031.767a6.795 6.795 0 0 0-.318.109c-.131.047-.225.208-.21.356a.245.245 0 0 0 .223.225.584.584 0 0 0 .22-.005.79.79 0 0 0 .06-.013l-.008.239c-.021.616-.043 1.254-.079 1.881a.273.273 0 0 0 .07.208.295.295 0 0 0 .217.088c.15 0 .305-.099.316-.289.035-.632.057-1.272.079-1.891l.014-.395c.332-.086 1.07-.235 1.427-.307l.055-.012ZM71.528 151.829c-.018-.143-.13-.289-.307-.289a.34.34 0 0 0-.084.011c-.731.186-1.258.327-1.871.586.01-.134.023-.291.043-.467a25.47 25.47 0 0 0 .463-.193c.392-.167.608-.259 1.186-.418.191-.052.24-.215.223-.34-.019-.14-.129-.282-.301-.282-.03 0-.06.004-.09.012a7.528 7.528 0 0 0-1.2.423l-.192.081c.048-.34.101-.689.152-.983.2-.085.419-.143.624-.195.28-.071.454-.1.655-.135h.002c.103-.017.232-.039.397-.071a.274.274 0 0 0 .232-.31c-.014-.15-.133-.311-.324-.311a.303.303 0 0 0-.067.007c-.163.031-.323.058-.478.084-.31.051-.632.104-.94.2a.277.277 0 0 0-.067-.108.343.343 0 0 0-.239-.097.294.294 0 0 0-.298.228 5.405 5.405 0 0 0-.057.275c-.13.081-.253.175-.366.279a.28.28 0 0 0-.08.32.349.349 0 0 0 .306.217c-.136.871-.265 1.926-.222 2.283.022.18.152.305.315.305a.353.353 0 0 0 .157-.037c.786-.384 1.381-.535 2.204-.744.19-.047.239-.208.224-.331ZM62.964 153.356c.035-.431.088-.934.14-1.42v-.011c.036-.34.073-.692.103-1.01.032-.347.068-.723.113-1.111l.013-.107c.02-.187.042-.381.088-.564a.261.261 0 0 0-.046-.226.312.312 0 0 0-.247-.118.276.276 0 0 0-.247.142c-.12.207-.225.42-.328.625-.065.129-.138.276-.212.414a9.915 9.915 0 0 1-.467.8c-.057-.158-.19-.541-.272-.832a15.736 15.736 0 0 0-.177-.569l-.084-.259a.887.887 0 0 0-.01-.069l-.002-.003a.82.82 0 0 0-.033-.083.276.276 0 0 0-.252-.14.301.301 0 0 0-.146.035.261.261 0 0 0-.084.069.28.28 0 0 0-.024.026.259.259 0 0 0-.048.117c-.02.083-.03.167-.032.251a1.473 1.473 0 0 1-.01.11c-.044.334-.073.69-.09 1.154-.03.734-.056 1.729-.069 2.597a.256.256 0 0 0 .172.253.292.292 0 0 0 .116.021c.145 0 .294-.093.296-.272.007-.447.022-.962.036-1.461a121.635 121.635 0 0 0 .031-1.128c.129.354.282.615.48.818.055.053.129.081.205.079a.268.268 0 0 0 .155-.046c.27-.194.453-.505.618-.813l-.024.25c-.029.307-.065.651-.1.984l-.002.015c-.053.506-.108 1.028-.146 1.485a.24.24 0 0 0 .06.188.275.275 0 0 0 .206.082c.149 0 .306-.094.32-.273ZM64.26 152.649c.125-.391.24-.787.328-1.091.314-.161.6-.305.876-.442.172.569.38 1.127.62 1.671.044.098.152.161.275.161a.325.325 0 0 0 .161-.042c.146-.085.193-.256.117-.426a13.19 13.19 0 0 1-.597-1.645c.157-.075.297-.143.43-.205.128-.06.189-.18.16-.313a.346.346 0 0 0-.328-.271.346.346 0 0 0-.142.033l-.294.14a33.39 33.39 0 0 1-.24-.958 10.52 10.52 0 0 0-.1-.399 2.537 2.537 0 0 1-.041-.172l-.003-.015a.297.297 0 0 0-.018-.271.339.339 0 0 0-.283-.159.256.256 0 0 0-.156.05.407.407 0 0 0-.16.238l-.011-.003-.013.059c-.285.774-.513 1.575-.734 2.352l-.052.18-.022.012a.28.28 0 0 0-.054.024l-.058.032a.74.74 0 0 1-.054.03l-.055.029.002.005a.274.274 0 0 0-.099.293.357.357 0 0 0 .156.215c-.08.273-.15.501-.219.716a.283.283 0 0 0 .157.359.33.33 0 0 0 .15.033.3.3 0 0 0 .3-.22Zm.564-1.919c.075-.262.174-.601.283-.952l.005.024c.035.152.075.323.12.492.017.07.036.139.055.207-.147.071-.298.145-.463.229Z" fill="#D7244F"/><path d="M68.185 152.144a.307.307 0 0 0-.154.041c-.26.141-.47.231-.68.292-.11.032-.223.048-.337.05l-.012-.002c-.015-.087.007-.212.024-.313.031-.174.067-.373.096-.573.167-1.149.255-2.072.29-2.992a.296.296 0 0 0-.078-.218.304.304 0 0 0-.105-.069.309.309 0 0 0-.124-.023c-.156 0-.318.104-.326.305a22.545 22.545 0 0 1-.327 3.212l-.02.101-.002.013c-.071.374-.163.839.207 1.087a.703.703 0 0 0 .398.107c.144-.005.288-.025.428-.061.315-.073.611-.22.883-.369a.283.283 0 0 0 .148-.334c-.03-.126-.148-.254-.31-.254ZM79.05 152.343h-.025c-.257 0-.395.206-.4.409-.004.196.115.412.388.424h.02c.259 0 .399-.206.403-.409.004-.196-.115-.412-.387-.424ZM75.888 150.023c-.087-.621-.467-1.152-.993-1.388a1.395 1.395 0 0 0-.569-.124c-.367 0-.688.153-.902.43a1.352 1.352 0 0 0-.158.25.321.321 0 0 0 .015.324c.047.075.119.13.203.156-.016.469-.02.954-.01 1.441.006.342.018.746.067 1.155l.008.07a2.07 2.07 0 0 1-.152.011c-.212.005-.321.174-.319.339.002.154.101.32.314.32h.009c.102-.003.203-.012.304-.028.016.03.034.06.054.087a.359.359 0 0 0 .284.155.306.306 0 0 0 .161-.045.352.352 0 0 0 .16-.23.294.294 0 0 0-.011-.163c.35-.163.661-.401.91-.696a2.639 2.639 0 0 0 .625-2.064Zm-1.725-.835a.362.362 0 0 1 .146-.024h.037a.65.65 0 0 1 .222.046c.326.11.59.463.67.897.09.491-.088 1.095-.454 1.54a1.992 1.992 0 0 1-.597.491c-.039-.368-.05-.747-.055-1.1-.01-.629 0-1.251.031-1.851v.001ZM78.202 151.319c-.048-.441-.1-.897-.184-1.341a5.751 5.751 0 0 0-.242-.943c-.052-.139-.108-.272-.213-.369a.417.417 0 0 0-.281-.111.385.385 0 0 0-.286.128.318.318 0 0 0-.066.337.332.332 0 0 0-.013.029c-.12.317-.225.641-.329.954v.002c-.114.348-.219.662-.336.973-.16.051-.203.195-.19.303a.337.337 0 0 0 .03.101 5.898 5.898 0 0 0-.164.437c-.064.205-.14.509-.04.77.056.143.177.234.317.234a.316.316 0 0 0 .21-.079.35.35 0 0 0 .087-.11.288.288 0 0 0 .017-.236c-.051-.133.013-.316.069-.477l.013-.038c.044-.128.097-.255.148-.378l.014-.034c.225-.048.461-.091.786-.146l.016.147c.062.561.125 1.141.26 1.702a.298.298 0 0 0 .301.239.356.356 0 0 0 .278-.132.317.317 0 0 0 .057-.277c-.133-.552-.198-1.128-.26-1.685Zm-.726-.583c-.18.03-.33.056-.469.082.07-.202.14-.412.205-.609l.007-.022.106-.317a11.405 11.405 0 0 1 .11.586l.007.052.009.056.004.029.021.143ZM79.36 150.438l.011-.18v-.006l.018-.263v-.013c.007-.101.012-.162.02-.393l.002-.067.001-.036c.01-.229.02-.466-.04-.686a.322.322 0 0 0-.32-.243.348.348 0 0 0-.275.129.3.3 0 0 0-.047.268.677.677 0 0 1 .018.101v.021l.003.097c.005.157 0 .314-.006.473-.008.23-.014.309-.024.42v.003c-.005.071-.012.159-.021.318l-.008.127a9.676 9.676 0 0 0-.025.78v.06c0 .248 0 .663.316.713a.53.53 0 0 0 .08.006c.109 0 .19-.039.247-.115.088-.123.064-.302.035-.388a.35.35 0 0 1-.012-.063l-.001-.021v-.006a3.134 3.134 0 0 1-.006-.116v-.007c-.002-.07 0-.143 0-.205.007-.282.018-.461.034-.708ZM83.646 148.725a.265.265 0 0 0-.23.119l-.01-.003-.024.071c-.124.359-.27.719-.427 1.099l-.001.004-.175.43c-.14-.202-.286-.417-.442-.657-.055-.084-.084-.122-.107-.153a1.582 1.582 0 0 1-.114-.175 4.867 4.867 0 0 1-.173-.321l-.006-.015a.606.606 0 0 1-.011-.033.265.265 0 0 0-.259-.191.302.302 0 0 0-.129.029.299.299 0 0 0-.103.083.258.258 0 0 0-.033.235v.003c.145.332.216.441.373.68l.072.109.002.002c.243.374.47.706.695 1.015-.25.695-.382 1.259-.414 1.774a.25.25 0 0 0 .064.191.272.272 0 0 0 .09.061c.033.013.07.02.106.019.133 0 .274-.089.285-.26.056-.885.432-1.79.796-2.668l.003-.007c.121-.292.236-.568.34-.846a.277.277 0 0 0 .04-.081c.01-.029.018-.059.027-.091l.024-.081a.249.249 0 0 0-.03-.229.284.284 0 0 0-.23-.113ZM81.538 152.061a.336.336 0 0 0-.155.041c-.24.13-.432.213-.626.269a1.188 1.188 0 0 1-.29.045c-.007-.074.01-.174.024-.255l.002-.009c.029-.161.061-.344.088-.526.15-1.03.239-1.962.27-2.85a.303.303 0 0 0-.08-.222.336.336 0 0 0-.232-.094c-.157 0-.32.106-.328.309-.033.9-.133 1.898-.305 3.049-.006.043-.014.089-.024.145-.06.339-.136.761.208.991.105.07.23.104.384.104a1.82 1.82 0 0 0 .402-.057c.294-.068.57-.205.825-.343a.289.289 0 0 0 .15-.339c-.032-.128-.15-.258-.313-.258Z" fill="#D7244F"/><path d="M83.92 154.161H71.034v2.28h12.888v-2.28Z" fill="#D8254F"/><path d="M73.091 155.501a.29.29 0 0 0-.11-.072c-.05-.019-.1-.035-.15-.048a1.584 1.584 0 0 1-.166-.051.78.78 0 0 1-.15-.074.32.32 0 0 1-.111-.121.394.394 0 0 1-.043-.191.366.366 0 0 1 .13-.284.517.517 0 0 1 .35-.113.592.592 0 0 1 .281.067c.03.017.06.035.087.054.02.014.038.03.055.048l.016.02-.146.147-.012-.013a.432.432 0 0 0-.093-.069.391.391 0 0 0-.188-.043.277.277 0 0 0-.182.056.164.164 0 0 0-.069.131.162.162 0 0 0 .043.114.29.29 0 0 0 .11.071c.05.019.1.035.151.048a1.6 1.6 0 0 1 .165.051.772.772 0 0 1 .151.073c.047.03.085.073.11.122.03.059.045.124.044.19a.405.405 0 0 1-.14.316.559.559 0 0 1-.383.123.768.768 0 0 1-.34-.081.834.834 0 0 1-.162-.123l-.02-.026.145-.145.014.017a.358.358 0 0 0 .044.041.393.393 0 0 0 .18.091.543.543 0 0 0 .139.018c.09 0 .162-.022.214-.066a.21.21 0 0 0 .069-.226.16.16 0 0 0-.033-.052ZM75.076 154.57v.209h-.44v1.253h-.228v-1.253h-.44v-.209h1.108ZM76.694 155.727a.382.382 0 0 0 .115-.279v-.878h.23v.878a.58.58 0 0 1-.18.428.625.625 0 0 1-1.007-.195.581.581 0 0 1-.045-.233v-.878h.23v.878a.386.386 0 0 0 .115.28.372.372 0 0 0 .542 0v-.001ZM78.45 154.57a.709.709 0 0 1 .523.216.72.72 0 0 1 .162.795.7.7 0 0 1-.162.235.708.708 0 0 1-.523.217h-.513v-1.463h.513Zm-.283.209v1.044h.283a.475.475 0 0 0 .362-.151.537.537 0 0 0 0-.741.487.487 0 0 0-.362-.152h-.283ZM80.025 154.57h.23v1.462h-.23v-1.462ZM81.312 154.767a.755.755 0 0 1 .55-.218.76.76 0 0 1 .714.463.753.753 0 0 1-.715 1.041.749.749 0 0 1-.713-.463.753.753 0 0 1 .164-.823Zm.165.92a.552.552 0 0 0 .9-.593.545.545 0 0 0-.614-.331.546.546 0 0 0-.444.538.523.523 0 0 0 .158.386Z" fill="#fff"/></g><path d="m61.334 153.296-.002 1.426 1.426.002.002-1.426-1.426-.002Z" fill="#231F20"/><path d="m47.557 142.92 4.166.014.014-2.464h-4.18v2.45ZM51.708 162.519l-4.194-.014v2.464h.512l3.668.014.014-2.464Z" fill="#F1C27D"/><path d="M26.905 67.137c7.17 0 12.983-5.168 12.983-11.543 0-6.376-5.812-11.544-12.983-11.544-7.17 0-12.983 5.168-12.983 11.544 0 6.375 5.813 11.543 12.983 11.543Z" fill="#F3BDCA"/><path d="M39.886 67.138c3.585 0 6.492-2.584 6.492-5.771 0-3.188-2.907-5.772-6.492-5.772s-6.492 2.584-6.492 5.772c0 3.187 2.907 5.771 6.492 5.771ZM13.906 67.125c4.403 0 7.973-3.173 7.973-7.087 0-3.914-3.57-7.087-7.973-7.087-4.403 0-7.972 3.173-7.972 7.087 0 3.914 3.57 7.087 7.972 7.087Z" fill="#F3BDCA"/><path d="M63.584 68.786H-1s25.634-12.651 64.584 0ZM186.164 47.012c8.027 0 14.534-5.776 14.534-12.9 0-7.125-6.507-12.9-14.534-12.9-8.026 0-14.533 5.775-14.533 12.9 0 7.124 6.507 12.9 14.533 12.9Z" fill="#F3BDCA"/><path d="M171.646 47.012c4.013 0 7.266-2.888 7.266-6.45 0-3.562-3.253-6.45-7.266-6.45-4.014 0-7.267 2.888-7.267 6.45 0 3.563 3.253 6.45 7.267 6.45ZM200.697 47.026c4.931 0 8.928-3.55 8.928-7.93 0-4.381-3.997-7.932-8.928-7.932-4.93 0-8.927 3.551-8.927 7.931s3.997 7.931 8.927 7.931Z" fill="#F3BDCA"/><path d="M146.33 48.023h79.672s-31.628-11.571-79.672 0Z" fill="#F3BDCA"/><path d="M85.22 38.957a38.534 38.534 0 0 0 22.672 65.623l4.747 10.519 4.762-10.561a38.559 38.559 0 0 0 33.567-37.54 38.569 38.569 0 0 0-15.518-31.622 38.564 38.564 0 0 0-50.23 3.581Z" fill="#DB284E"/><path d="M108.347 85.464a4.415 4.415 0 0 1-3.28-1.523l-15.226-17.44a4.43 4.43 0 1 1 6.685-5.813l11.918 13.717 20.098-21.773a4.431 4.431 0 1 1 6.519 6.007l-23.447 25.4a4.434 4.434 0 0 1-3.267 1.425Z" fill="#fff"/><path opacity=".1" d="M99.475 29.96a38.534 38.534 0 0 1 9.274 76.474l3.89 8.595 4.761-10.561a38.557 38.557 0 0 0 26.796-16.389 38.56 38.56 0 0 0 5.705-30.887 38.548 38.548 0 0 0-50.495-27.233h.07Z" fill="#727272"/><path opacity=".2" d="M57.162 187.504c11.895 0 21.538-.608 21.538-1.357s-9.643-1.356-21.538-1.356c-11.894 0-21.537.607-21.537 1.356 0 .749 9.643 1.357 21.537 1.357Z" fill="#727272"/><path d="M44.829 184.665c5.045 0 9.135-3.953 9.135-8.83 0-4.878-4.09-8.831-9.135-8.831-5.046 0-9.136 3.953-9.136 8.831 0 4.877 4.09 8.83 9.136 8.83Z" fill="#F3BDCA"/><path d="M50.906 184.652c2.102 0 3.806-1.642 3.806-3.668 0-2.026-1.704-3.668-3.806-3.668-2.102 0-3.806 1.642-3.806 3.668 0 2.026 1.704 3.668 3.806 3.668ZM35.694 184.652c2.584 0 4.678-2.02 4.678-4.512 0-2.492-2.094-4.512-4.678-4.512s-4.678 2.02-4.678 4.512c0 2.492 2.094 4.512 4.678 4.512Z" fill="#F3BDCA"/><path d="M64.166 185.233H22.434s16.568-6.588 41.732 0Z" fill="#F3BDCA"/><path d="M57.176 184.68c4.067 0 7.364-3.186 7.364-7.115 0-3.929-3.297-7.114-7.364-7.114s-7.364 3.185-7.364 7.114 3.297 7.115 7.364 7.115Z" fill="#F3BDCA"/><path d="M64.54 184.68c2.033 0 3.681-1.592 3.681-3.557 0-1.964-1.648-3.557-3.682-3.557-2.033 0-3.682 1.593-3.682 3.557 0 1.965 1.649 3.557 3.682 3.557ZM49.813 184.679c2.5 0 4.526-1.958 4.526-4.373 0-2.416-2.026-4.374-4.526-4.374s-4.526 1.958-4.526 4.374c0 2.415 2.026 4.373 4.526 4.373Z" fill="#F3BDCA"/><path d="M77.372 185.233h-40.39s16.001-6.381 40.39 0ZM140.072 166.59c2.698 0 4.886-2.113 4.886-4.72 0-2.607-2.188-4.72-4.886-4.72-2.699 0-4.886 2.113-4.886 4.72 0 2.607 2.187 4.72 4.886 4.72Z" fill="#F3BDCA"/><path d="M143.324 166.589c1.123 0 2.034-.88 2.034-1.966 0-1.085-.911-1.965-2.034-1.965-1.124 0-2.035.88-2.035 1.965 0 1.086.911 1.966 2.035 1.966ZM135.187 166.59c1.384 0 2.505-1.079 2.505-2.409 0-1.33-1.121-2.408-2.505-2.408s-2.505 1.078-2.505 2.408c0 1.33 1.121 2.409 2.505 2.409Z" fill="#F3BDCA"/><path d="M150.412 166.866h-22.326s8.858-3.488 22.326 0Z" fill="#F3BDCA"/><path d="M146.675 166.602c2.179 0 3.945-1.704 3.945-3.806 0-2.102-1.766-3.806-3.945-3.806-2.178 0-3.945 1.704-3.945 3.806 0 2.102 1.767 3.806 3.945 3.806Z" fill="#F3BDCA"/><path d="M150.62 166.603c1.085 0 1.965-.849 1.965-1.896s-.88-1.896-1.965-1.896c-1.086 0-1.966.849-1.966 1.896s.88 1.896 1.966 1.896ZM142.729 166.602c1.338 0 2.422-1.047 2.422-2.339s-1.084-2.339-2.422-2.339-2.422 1.047-2.422 2.339 1.084 2.339 2.422 2.339Z" fill="#F3BDCA"/><path d="M157.47 166.867h-21.593s8.568-3.378 21.593 0ZM37.646 166.59c2.698 0 4.886-2.113 4.886-4.72 0-2.607-2.188-4.72-4.886-4.72-2.699 0-4.886 2.113-4.886 4.72 0 2.607 2.187 4.72 4.886 4.72Z" fill="#F3BDCA"/><path d="M40.898 166.589c1.124 0 2.035-.88 2.035-1.966 0-1.085-.911-1.965-2.035-1.965s-2.035.88-2.035 1.965c0 1.086.911 1.966 2.035 1.966ZM32.76 166.59c1.383 0 2.505-1.079 2.505-2.409 0-1.33-1.122-2.408-2.506-2.408-1.383 0-2.505 1.078-2.505 2.408 0 1.33 1.122 2.409 2.505 2.409Z" fill="#F3BDCA"/><path d="M47.998 166.866H25.672s8.858-3.488 22.326 0Z" fill="#F3BDCA"/><path d="M44.261 166.602c2.179 0 3.945-1.704 3.945-3.806 0-2.102-1.766-3.806-3.945-3.806-2.178 0-3.945 1.704-3.945 3.806 0 2.102 1.767 3.806 3.945 3.806Z" fill="#F3BDCA"/><path d="M48.192 166.603c1.086 0 1.965-.849 1.965-1.896s-.88-1.896-1.965-1.896c-1.086 0-1.965.849-1.965 1.896s.88 1.896 1.965 1.896ZM40.317 166.602c1.338 0 2.422-1.047 2.422-2.339s-1.084-2.339-2.422-2.339-2.422 1.047-2.422 2.339 1.084 2.339 2.422 2.339Z" fill="#F3BDCA"/><path d="M55.058 166.867H33.45s8.582-3.378 21.607 0Z" fill="#F3BDCA"/><path d="M67.75 94.89a7.364 7.364 0 0 0-4.25-1.384c-5.716-3.308-8.982 3.391-9.453 5.73-.47 2.34-.803 4.873-4.152 7.268-9.496 6.92 5.993 11.073 5.993 11.073 1.772-6.921 10.187-4.402 9.689-3.779 10.09 4.914 5.938-15.724 2.173-18.907Z" fill="#1E1C1F"/><path d="M47.736 139.653H60.11l-5.149 19.378a6.31 6.31 0 0 1-7.654 4.485l-18.202-4.706 4.236-5.744 9.924 1.121a2.298 2.298 0 0 0 3.17-1.883l1.301-12.651Z" fill="#6C6D6D"/><path d="M57.134 139.653h12.347l-6.187 43.559-7.073-1.384.913-42.175Z" fill="#6C6D6D"/><path d="m70.892 143.335-25.136-.789s2.367-18.699 2.187-20.969c0 0-9.62.623-17.994-14.963l4.914-3.709s7.945 9.522 16.43 7.875c9.26-1.771 19.212 1.703 19.212 1.703a20.863 20.863 0 0 0 13.357-9.343l4.983 3.737s-3.433 13.122-17.62 15.696l-.333 20.762Z" fill="#DB284E"/><path d="m34.212 103.347-3.018-4.152s.65-2.312 0-2.769c-.65-.457-.844 1.495-.844 1.495a13.841 13.841 0 0 1-1.62-2.505c-.581-1.481-5.342-.11-4.484 2.657a6.16 6.16 0 0 0 3.585 3.738l2.491 4.553 3.89-3.017ZM84.389 103.514l3.003-4.152s-.429-2.187 0-2.768c.43-.582.942 1.231.942 1.231a8.623 8.623 0 0 0 1.508-2.242c.47-1.384 5.343-.152 4.499 2.616a6.163 6.163 0 0 1-3.571 3.723l-2.45 4.568-3.931-2.976ZM67.973 98.406s.969 7.987-1.066 10.866a2.49 2.49 0 0 1-3.917.29l.18 2.077a5.435 5.435 0 0 1-5.26-.153s.914-.913.927-6.381c0 0-2.699-1.688-.622-3.764 2.076-2.077 1.647 1.218 1.647 1.218s1.62-10.437 8.11-4.153Z" fill="#F2AA91"/><path d="m31.859 151.64-2.325-.581-.665 1.384 1.384.485-1.771.346-3.447 7.502a3.828 3.828 0 0 0 3.737-1.384l3.987-5.163a1.636 1.636 0 0 0-.19-2.21 1.639 1.639 0 0 0-.71-.379ZM55.528 183.767l.443 2.367h1.592l-.138-1.467 1.052 1.467h8.304a3.865 3.865 0 0 0-2.879-2.769l-6.353-1.481a1.638 1.638 0 0 0-1.968 1.071 1.633 1.633 0 0 0-.053.812Z" fill="#AC1D3E"/><path opacity=".2" d="M161.707 184.14c13.37 0 24.208-.681 24.208-1.522s-10.838-1.523-24.208-1.523-24.209.682-24.209 1.523c0 .841 10.839 1.522 24.209 1.522Z" fill="#727272"/><path d="M143.933 109.146s-5.73 4.153-12.457-4.055c0-.125 1.066-2.602.235-3.031-.47-.25-1.135 1.384-1.135 1.384a19.654 19.654 0 0 1-1.384-2.658c-.484-1.384-5.287-.18-4.609 2.505a6.783 6.783 0 0 0 3.53 3.959c1.176 2.395 6.74 12.181 17.758 8.803 12.527-3.862-1.938-6.907-1.938-6.907Z" fill="#F2AA91"/><path d="M155.797 135.459h11.834l-.969 43.172h-8.526l-2.339-43.172Z" fill="#6C6D6D"/><path d="M166.801 135.459h11.239l-.083 43.172h-8.513l-2.643-43.172Z" fill="#6C6D6D"/><path d="M154.273 183.019h13.039l-1.093-4.332h-8.679a3.27 3.27 0 0 0-2.31.956 3.271 3.271 0 0 0-.957 2.31v1.066Z" fill="#AC1D3E"/><path opacity=".2" d="M166.343 179.185s-3.46 1.066-3.46 3.834h4.429l-.969-3.834Z" fill="#727272"/><path d="M165.652 183.019h13.039l-1.093-4.332h-8.679a3.267 3.267 0 0 0-3.267 3.266v1.066Z" fill="#AC1D3E"/><path d="M178.344 117.12c.554 6.464 2.243 19.752 2.243 19.752l-26.548.83-1.398-22.742c-2.492-9.689.802-11.073.802-11.073s10.894-3.806 21.039-1.854c.042.055 6.105-.499 3.862 15.087Z" fill="#DB284E"/><path d="M157.498 88.828s.277-3.059 4.858-5.038c4.582-1.98 5.399-2.38 7.987 2.671 0 0 8.416 2.298-1.952 14.188l-10.893-11.82Z" fill="#221F20"/><path d="M158.177 88.565s-1.066 8.748 1.176 11.904c1.855 2.63 4.277.318 4.277.318l-.193 2.27a5.95 5.95 0 0 0 5.758-.166s-.997-1.01-1.025-6.92c0 0 2.976-1.841.693-4.153-2.284-2.311-1.8 1.315-1.8 1.315s-1.841-11.502-8.886-4.568ZM171.865 129.204s-1.384-1.523-2.103-1.523c-.72 0-.25 1.177.913 1.703l1.19-.18Z" fill="#F2AA91"/><path d="M153.512 103.943s-8.803 4.36-10.574 4.471l2.353 8.955s8.304-2.464 12.305-4.152a7.11 7.11 0 0 0 2.671-2.021c2.325-3.364-2.768-6.118-6.755-7.267v.014Z" fill="#DB284E"/><path d="m159.408 124.58 9.426-1.315 2.339 10.644-9.301 1.08-2.464-10.409Z" fill="#EB92A7"/><path d="m165.871 123.182-1.01.152a.777.777 0 0 0-.263-.571.765.765 0 0 0-.603-.179.755.755 0 0 0-.532.336.774.774 0 0 0-.097.622l-1.011.138.153 1.08 3.515-.498-.152-1.08Z" fill="#C1C1C1"/><path d="M175.381 102.226s4.886.803 6.381 2.879l-6.16 2.118-.221-4.997Z" fill="#DB284E"/><path d="M172.018 132.429s15.226.47 17.994-6.616c1.633-4.319-3.502-12.319-3.502-12.319l-6.187 4.346s2.768 3.543 2.395 5.62c-.374 2.076-11.073 5.536-11.073 5.536l.373 3.433Z" fill="#F2AA91"/><path d="M174.121 111.749s5.966 5.994 6.464 7.696l8.305-4.152s-4.014-5.924-6.492-9.468a6.915 6.915 0 0 0-2.533-2.187c-3.778-1.564-5.384 4.028-5.689 8.125l-.055-.014Z" fill="#DB284E"/><path d="M171.479 129.203a18.647 18.647 0 0 0-4.997-.263c-1.384.332-1.246 2.297-1.246 2.297s-.373 3.405 6.589 1.315c6.962-2.09-.346-3.349-.346-3.349Z" fill="#F2AA91"/><path d="M157.525 88.564a16.485 16.485 0 0 1 15.461 5.01s3.267-7.667-4.816-10.975c-8.084-3.309-11.378 3.46-10.645 5.965Z" fill="#DB284E"/><path d="m165.528 88.73-5.329-3.252a5.942 5.942 0 0 0-1.91-.319 8.407 8.407 0 0 0-2.769.54 5.537 5.537 0 0 0-1.688 1.288.642.642 0 0 0-.083.526c.193.678 4.235 2.145 4.235 2.145l.097-1.094a31.746 31.746 0 0 1 7.447.167ZM167.465 112.994l5.966-.263.387 4.693a2.075 2.075 0 0 1-1.799 2.228l-1.758.18a2.065 2.065 0 0 1-1.523-.463 2.093 2.093 0 0 1-.514-.628 2.089 2.089 0 0 1-.233-.777l-.526-4.97Z" fill="#C22046"/><path d="M186.15 184.126c3.173 0 5.745-2.485 5.745-5.55s-2.572-5.55-5.745-5.55c-3.172 0-5.744 2.485-5.744 5.55s2.572 5.55 5.744 5.55Z" fill="#F3BDCA"/><path d="M189.971 184.126c1.322 0 2.394-1.035 2.394-2.312 0-1.276-1.072-2.311-2.394-2.311-1.323 0-2.395 1.035-2.395 2.311 0 1.277 1.072 2.312 2.395 2.312ZM180.391 184.126c1.621 0 2.935-1.27 2.935-2.837 0-1.567-1.314-2.838-2.935-2.838-1.62 0-2.934 1.271-2.934 2.838 0 1.567 1.314 2.837 2.934 2.837Z" fill="#F3BDCA"/><path d="M199.77 184.583h-32.694s12.97-5.177 32.694 0Z" fill="#F3BDCA"/><path d="M193.113 184.153c3.845 0 6.962-3.012 6.962-6.727 0-3.715-3.117-6.727-6.962-6.727-3.846 0-6.963 3.012-6.963 6.727 0 3.715 3.117 6.727 6.963 6.727Z" fill="#F3BDCA"/><path d="M200.061 184.14c1.59 0 2.879-1.246 2.879-2.782 0-1.537-1.289-2.782-2.879-2.782s-2.879 1.245-2.879 2.782c0 1.536 1.289 2.782 2.879 2.782ZM188.532 184.14c1.957 0 3.543-1.53 3.543-3.419 0-1.888-1.586-3.419-3.543-3.419s-3.544 1.531-3.544 3.419c0 1.889 1.587 3.419 3.544 3.419Z" fill="#F3BDCA"/><path d="M210.124 184.583h-31.655s12.568-5.01 31.655 0Z" fill="#F3BDCA"/><path d="M53.522 90.751 32.94 78.806l5.384-5.592 15.198 17.537ZM55.57 87.817l-9.052-15.088 5.48-1.688 3.572 16.776ZM51.044 93.797l-13.495-.443 1.19-4.236 12.305 4.679Z" fill="#AC1D3E"/><path fill="#F7CD97" d="M96.986 138.446h39.194v13.065H96.986z"/><g clip-path="url(#e)"><path d="m99.865 143.472.124-.026c-.185 1.213-.367 2.748-.35 3.232a.43.43 0 0 0 .436.433.518.518 0 0 0 .222-.053c1.107-.54 1.791-.714 2.925-1.002.267-.066.336-.292.315-.463-.025-.2-.18-.403-.428-.403a.458.458 0 0 0-.117.015c-.971.246-1.622.422-2.429.765.018-.189.041-.407.069-.649.157-.064.302-.125.439-.182.756-.313 1.255-.521 2.152-.766.266-.072.332-.299.31-.473-.026-.196-.179-.394-.42-.394a.483.483 0 0 0-.125.017c-.908.249-1.41.458-2.172.775l-.058.023c.067-.473.134-.929.195-1.285.64-.28 1.231-.425 2.166-.61a.382.382 0 0 0 .323-.433c-.02-.208-.185-.429-.45-.429a.501.501 0 0 0-.095.009c-.737.146-1.308.278-1.871.484a.376.376 0 0 0-.052-.067.468.468 0 0 0-.334-.136.41.41 0 0 0-.416.319 4.388 4.388 0 0 1-.03.11v.004c-.022.08-.05.179-.066.252-.114.034-.529.106-.93.176l-.02.003a29.55 29.55 0 0 0-1.345.251c.01-.26.02-.489.03-.699.005-.127.008-.257.01-.384v-.073c.393-.058.783-.118 1.252-.191l.011-.002c.512-.079 1.091-.169 1.654-.249a.353.353 0 0 0 .242-.16.471.471 0 0 0 .062-.358c-.052-.189-.209-.301-.421-.301a.808.808 0 0 0-.085.005c-.533.077-1.075.161-1.598.242l-.023.004-1.032.159c.017-.121.043-.241.077-.359a.382.382 0 0 0-.059-.352.444.444 0 0 0-.16-.127.445.445 0 0 0-.199-.045.393.393 0 0 0-.394.297 3.636 3.636 0 0 0-.126.707c-.482.067-.91.12-1.311.163-.245.025-.411.194-.411.419 0 .205.191.444.429.419.382-.039.792-.09 1.253-.152a78.408 78.408 0 0 0-.05 1.27c-.16.05-.305.1-.444.151-.183.066-.315.291-.293.497a.34.34 0 0 0 .31.313.796.796 0 0 0 .308-.006l.084-.019-.012.333c-.03.86-.06 1.75-.11 2.624a.38.38 0 0 0 .098.291.411.411 0 0 0 .303.122c.207 0 .424-.138.439-.403.05-.882.08-1.775.11-2.638l.02-.551c.463-.119 1.493-.327 1.99-.428l.078-.016ZM119.067 145.079c-.025-.2-.18-.404-.428-.404a.459.459 0 0 0-.117.016c-1.02.258-1.754.455-2.61.816.013-.186.033-.405.06-.65a32.714 32.714 0 0 0 .645-.27c.548-.233.849-.361 1.656-.583.266-.073.333-.299.31-.474-.026-.195-.179-.394-.42-.394a.47.47 0 0 0-.124.018c-.819.224-1.124.354-1.676.589l-.266.113c.067-.474.141-.96.212-1.371.28-.118.584-.2.871-.272.391-.098.632-.139.913-.187h.003c.144-.025.323-.055.552-.1a.382.382 0 0 0 .324-.433c-.02-.209-.185-.433-.451-.433a.491.491 0 0 0-.094.009c-.228.045-.45.082-.666.117-.432.072-.882.147-1.312.279a.398.398 0 0 0-.093-.15.472.472 0 0 0-.333-.135.41.41 0 0 0-.416.318 9.628 9.628 0 0 0-.08.383 3.391 3.391 0 0 0-.51.39.39.39 0 0 0-.111.446.48.48 0 0 0 .426.302c-.189 1.216-.369 2.686-.309 3.184.031.251.211.427.44.427a.504.504 0 0 0 .218-.053c1.097-.536 1.926-.746 3.074-1.037.264-.066.333-.29.312-.461ZM107.121 147.208c.049-.602.123-1.303.195-1.98v-.015c.05-.476.102-.966.144-1.41a66.61 66.61 0 0 1 .175-1.699c.03-.261.06-.53.124-.786a.355.355 0 0 0-.064-.316.437.437 0 0 0-.545-.112.39.39 0 0 0-.145.146c-.166.289-.314.585-.457.872-.09.18-.193.385-.295.578-.189.356-.349.64-.508.894-.048.078-.095.15-.144.221-.08-.22-.265-.755-.379-1.16-.076-.269-.163-.535-.247-.794l-.117-.361a1.478 1.478 0 0 0-.015-.096l-.001-.004a1.19 1.19 0 0 0-.047-.117.386.386 0 0 0-.351-.195.438.438 0 0 0-.204.049.367.367 0 0 0-.118.096.348.348 0 0 0-.099.201 1.645 1.645 0 0 0-.046.349c-.003.054-.006.109-.012.154-.063.466-.102.962-.128 1.609-.04 1.023-.076 2.412-.094 3.622a.361.361 0 0 0 .099.264c.04.039.088.069.14.089a.391.391 0 0 0 .162.029c.202 0 .409-.13.413-.379.009-.624.03-1.343.05-2.038.014-.478.026-.873.034-1.24.002-.109.005-.22.01-.333.179.494.392.858.667 1.141a.404.404 0 0 0 .287.11.368.368 0 0 0 .216-.064c.378-.27.633-.705.862-1.134l-.033.349c-.04.428-.091.908-.14 1.371l-.002.022c-.074.705-.151 1.434-.203 2.072a.327.327 0 0 0 .215.348c.049.02.102.03.155.028.208 0 .427-.131.446-.381ZM108.931 146.222c.174-.546.335-1.098.457-1.522.438-.224.838-.425 1.222-.616.24.794.529 1.572.866 2.33.06.137.211.225.382.225.079 0 .156-.02.225-.058.203-.119.269-.358.163-.595a18.39 18.39 0 0 1-.833-2.294c.219-.105.415-.2.599-.286a.375.375 0 0 0 .223-.436.483.483 0 0 0-.457-.378.466.466 0 0 0-.197.046l-.411.195a47.43 47.43 0 0 1-.333-1.336 14.818 14.818 0 0 0-.142-.557 3.407 3.407 0 0 1-.056-.24l-.004-.02a.414.414 0 0 0-.026-.379.483.483 0 0 0-.394-.222.36.36 0 0 0-.217.07.571.571 0 0 0-.224.333l-.015-.005-.018.082c-.398 1.08-.716 2.197-1.024 3.281l-.072.251-.031.016a.502.502 0 0 0-.075.033c-.029.015-.056.031-.082.046l-.074.042-.077.039.003.008a.373.373 0 0 0-.132.183.376.376 0 0 0-.006.225.493.493 0 0 0 .218.3c-.113.381-.21.699-.306.999a.392.392 0 0 0 .05.366.478.478 0 0 0 .379.181.419.419 0 0 0 .262-.082.419.419 0 0 0 .157-.225Zm.786-2.676c.105-.367.243-.839.395-1.328l.007.033c.049.212.104.451.166.687l.077.288a37.78 37.78 0 0 0-.645.32Z" fill="#D7244F"/><path d="M114.401 145.517a.448.448 0 0 0-.214.057 4.638 4.638 0 0 1-.95.408 1.81 1.81 0 0 1-.469.07l-.016-.003c-.022-.122.009-.295.033-.436.043-.244.093-.52.133-.799.233-1.603.357-2.891.405-4.174a.416.416 0 0 0-.109-.304.435.435 0 0 0-.319-.128c-.218 0-.444.146-.454.425-.061 1.662-.207 3.086-.457 4.48a8.243 8.243 0 0 1-.027.142l-.003.017c-.1.522-.227 1.17.289 1.516a.98.98 0 0 0 .554.149c.202-.006.402-.034.597-.084.44-.102.853-.307 1.232-.515a.396.396 0 0 0 .207-.466c-.043-.175-.207-.355-.432-.355ZM129.555 145.795h-.034c-.358 0-.552.287-.558.571-.006.272.161.574.54.591h.03c.36 0 .555-.287.562-.571.005-.273-.161-.574-.54-.591ZM125.145 142.56c-.121-.866-.651-1.607-1.384-1.936a1.939 1.939 0 0 0-.793-.173c-.513 0-.961.213-1.259.599-.086.108-.16.225-.221.349a.454.454 0 0 0 .022.452.51.51 0 0 0 .282.217 40.632 40.632 0 0 0-.014 2.011c.009.476.026 1.04.094 1.61l.011.098a2.683 2.683 0 0 1-.211.015c-.297.007-.448.243-.445.473.002.215.14.446.438.446h.012c.142-.003.283-.016.424-.039a.85.85 0 0 0 .075.122.503.503 0 0 0 .397.216.437.437 0 0 0 .225-.063.483.483 0 0 0 .207-.548 3.738 3.738 0 0 0 1.27-.97c.694-.818 1.012-1.868.87-2.879Zm-2.405-1.166a.522.522 0 0 1 .203-.033h.052c.106.004.21.026.309.065.456.154.822.645.934 1.25.126.685-.122 1.528-.633 2.149-.23.28-.512.512-.832.684a17.524 17.524 0 0 1-.077-1.534c-.014-.877 0-1.745.044-2.581ZM128.372 144.368a22.913 22.913 0 0 0-.257-1.872c-.081-.428-.175-.882-.336-1.314-.073-.195-.151-.38-.298-.515a.579.579 0 0 0-.391-.155.529.529 0 0 0-.4.179.442.442 0 0 0-.095.462l.003.008a.3.3 0 0 0-.018.041c-.166.441-.314.893-.458 1.329v.004c-.16.485-.305.923-.469 1.356-.224.072-.283.272-.265.423a.489.489 0 0 0 .042.141 7.8 7.8 0 0 0-.228.61c-.091.286-.195.709-.056 1.074.077.199.246.326.441.326a.496.496 0 0 0 .121-.016.506.506 0 0 0 .294-.248.399.399 0 0 0 .023-.329c-.071-.186.018-.441.096-.666l.019-.052c.061-.18.135-.357.206-.528l.02-.047c.314-.067.643-.128 1.096-.204l.023.206c.085.782.174 1.591.363 2.373a.416.416 0 0 0 .419.334.497.497 0 0 0 .388-.185.44.44 0 0 0 .078-.386c-.185-.77-.275-1.572-.361-2.349Zm-1.012-.814c-.252.042-.461.079-.654.114.098-.282.195-.574.286-.849l.01-.03.147-.442c.042.188.082.399.124.639.011.059.02.119.029.177l.011.072.012.079.006.041.029.199ZM129.989 143.138l.016-.251v-.009c.011-.18.019-.287.025-.366v-.018c.01-.141.017-.226.027-.548l.003-.094.002-.049c.013-.32.027-.651-.057-.957a.447.447 0 0 0-.445-.34.483.483 0 0 0-.383.181.403.403 0 0 0-.067.373c.012.046.02.093.025.141v.029l.006.135c.006.22 0 .438-.009.661-.011.32-.02.43-.033.585v.004c-.008.1-.018.222-.031.444l-.01.177c-.024.381-.04.656-.036 1.088V144.407c0 .346 0 .925.441.994a.692.692 0 0 0 .111.009c.153 0 .267-.054.345-.16.124-.172.09-.421.05-.542a.496.496 0 0 1-.017-.087l-.002-.03v-.008c0-.015-.003-.03-.003-.036-.003-.042-.004-.085-.005-.126v-.009c-.002-.098 0-.2 0-.287.01-.393.026-.642.047-.987ZM135.965 140.749a.38.38 0 0 0-.319.166l-.015-.004-.033.1c-.173.5-.378 1.002-.596 1.532l-.002.005c-.092.225-.169.412-.243.599a33.97 33.97 0 0 1-.618-.916 3.817 3.817 0 0 0-.148-.213 2.04 2.04 0 0 1-.159-.244 6.035 6.035 0 0 1-.242-.448l-.008-.02-.016-.046a.362.362 0 0 0-.36-.267.413.413 0 0 0-.324.157.353.353 0 0 0-.046.327v.004c.202.463.302.616.521.949l.1.152.002.002c.339.522.656.986.97 1.416-.349.97-.533 1.756-.578 2.475a.342.342 0 0 0 .214.35.38.38 0 0 0 .149.028c.186 0 .382-.125.397-.364.078-1.234.603-2.496 1.11-3.72l.004-.01c.169-.408.329-.793.475-1.18a.42.42 0 0 0 .056-.112c.014-.041.025-.083.037-.128.011-.037.021-.075.034-.113a.345.345 0 0 0-.043-.32.388.388 0 0 0-.141-.116.378.378 0 0 0-.178-.041ZM133.026 145.402a.452.452 0 0 0-.216.057 4.262 4.262 0 0 1-.872.375 1.59 1.59 0 0 1-.405.062c-.009-.102.015-.241.034-.355l.002-.012c.04-.225.086-.48.123-.734.208-1.436.333-2.737.377-3.975a.432.432 0 0 0-.111-.31.453.453 0 0 0-.324-.13c-.22 0-.448.148-.458.431-.047 1.255-.186 2.646-.425 4.252-.009.06-.021.124-.034.201-.084.473-.19 1.063.291 1.384.145.097.32.144.534.144.189-.005.378-.031.561-.079.411-.095.796-.286 1.151-.479.181-.1.26-.276.21-.473-.045-.178-.21-.359-.438-.359Z" fill="#D7244F"/><path d="M136.349 148.331h-17.974v3.18h17.974v-3.18Z" fill="#D8254F"/><path d="M121.246 150.199a.399.399 0 0 0-.155-.1 1.878 1.878 0 0 0-.209-.066 2.372 2.372 0 0 1-.231-.072 1.197 1.197 0 0 1-.21-.102.453.453 0 0 1-.154-.171.544.544 0 0 1-.06-.266.514.514 0 0 1 .181-.395c.12-.105.284-.158.489-.158a.854.854 0 0 1 .589.236l.023.028-.204.205-.016-.019a.328.328 0 0 0-.048-.043.867.867 0 0 0-.081-.053.555.555 0 0 0-.263-.06.393.393 0 0 0-.254.078.225.225 0 0 0-.069.081.226.226 0 0 0 .033.261.408.408 0 0 0 .155.099c.068.027.138.049.209.067.078.02.155.044.231.071.073.027.143.061.21.102a.446.446 0 0 1 .154.171.547.547 0 0 1 .06.264.564.564 0 0 1-.194.441c-.129.114-.307.171-.535.171a.995.995 0 0 1-.614-.206.638.638 0 0 1-.086-.078l-.029-.036.203-.203.02.025a.663.663 0 0 0 .505.208.458.458 0 0 0 .3-.092.287.287 0 0 0 .109-.229.212.212 0 0 0-.059-.159ZM124.013 148.901v.291h-.612v1.749h-.32v-1.749h-.612v-.291h1.544ZM126.271 150.515a.528.528 0 0 0 .16-.389v-1.225h.322v1.225a.8.8 0 0 1-.251.596.871.871 0 0 1-1.406-.271.822.822 0 0 1-.063-.325v-1.225h.322v1.225a.528.528 0 0 0 .16.39.507.507 0 0 0 .378.164.52.52 0 0 0 .378-.164v-.001ZM128.718 148.901a.994.994 0 0 1 .73.302 1.008 1.008 0 0 1 .305.718 1.003 1.003 0 0 1-.305.718.988.988 0 0 1-.73.302h-.714v-2.04h.714Zm-.394.292v1.456h.394a.683.683 0 0 0 .505-.211.748.748 0 0 0 0-1.034.683.683 0 0 0-.505-.211h-.394ZM130.916 148.901h.321v2.04h-.32l-.001-2.04ZM132.713 149.177c.206-.203.462-.305.765-.305a1.058 1.058 0 0 1 .997.646 1.047 1.047 0 0 1-.997 1.451 1.043 1.043 0 0 1-.995-.645 1.054 1.054 0 0 1 0-.806c.053-.128.131-.244.23-.341Zm.229 1.282a.771.771 0 0 0 .967.102.766.766 0 1 0-1.186-.64.724.724 0 0 0 .219.538Z" fill="#fff"/></g></g></g><defs><clipPath id="a"><path fill="#fff" d="M0 0h222v222H0z"/></clipPath><clipPath id="b"><path fill="#fff" transform="translate(-1 -2)" d="M0 0h227v227H0z"/></clipPath><clipPath id="c"><path fill="#fff" transform="translate(147.611 148.245)" d="M0 0h29.396v8.197H0z"/></clipPath><clipPath id="d"><path fill="#fff" transform="translate(54.525 148.245)" d="M0 0h29.396v8.197H0z"/></clipPath><clipPath id="e"><path fill="#fff" transform="translate(95.352 140.079)" d="M0 0h40.998v11.432H0z"/></clipPath></defs></svg>