<svg width="343" height="62" viewBox="0 0 343 62" fill="none" xmlns="http://www.w3.org/2000/svg">
<g filter="url(#filter0_d_27501_806703)">
<path fill-rule="evenodd" clip-rule="evenodd" d="M4 6C4 3.79086 5.79086 2 8 2H335C337.209 2 339 3.79086 339 6V21.0619C335.089 21.5542 332.062 24.9205 332.062 29C332.062 33.0795 335.089 36.4458 339 36.9381V52C339 54.2091 337.209 56 335 56H8C5.79086 56 4 54.2091 4 52V36.9381C7.91129 36.446 10.9379 33.0796 10.9379 29C10.9379 24.9204 7.91129 21.554 4 21.0619V6Z" fill="#E8F3F3"/>
</g>
<defs>
<filter id="filter0_d_27501_806703" x="0" y="0" width="343" height="62" filterUnits="userSpaceOnUse" color-interpolation-filters="sRGB">
<feFlood flood-opacity="0" result="BackgroundImageFix"/>
<feColorMatrix in="SourceAlpha" type="matrix" values="0 0 0 0 0 0 0 0 0 0 0 0 0 0 0 0 0 0 127 0" result="hardAlpha"/>
<feOffset dy="2"/>
<feGaussianBlur stdDeviation="2"/>
<feColorMatrix type="matrix" values="0 0 0 0 0 0 0 0 0 0 0 0 0 0 0 0 0 0 0.1 0"/>
<feBlend mode="normal" in2="BackgroundImageFix" result="effect1_dropShadow_27501_806703"/>
<feBlend mode="normal" in="SourceGraphic" in2="effect1_dropShadow_27501_806703" result="shape"/>
</filter>
</defs>
</svg>
