<svg width="32" height="32" fill="none" xmlns="http://www.w3.org/2000/svg"><g clip-path="url(#a)"><g clip-path="url(#b)"><path d="M16 32c8.837 0 16-7.163 16-16S24.837 0 16 0 0 7.163 0 16s7.163 16 16 16Z" fill="#A4CFCE"/><path d="M6.24 4.65c.807 0 1.46-.636 1.46-1.42 0-.785-.653-1.42-1.46-1.42-.806 0-1.46.635-1.46 1.42 0 .784.654 1.42 1.46 1.42Z" fill="#D1E7E6"/><path d="M4.39 4.65c.63 0 1.14-.497 1.14-1.11 0-.613-.51-1.11-1.14-1.11-.63 0-1.14.497-1.14 1.11 0 .613.51 1.11 1.14 1.11ZM7.94 4.65a.88.88 0 0 0 .89-.87.88.88 0 0 0-.89-.87.88.88 0 0 0-.89.87c0 .48.398.87.89.87Z" fill="#D1E7E6"/><path d="M4.62 4.56h3.4v-.78h-3.4v.78Z" fill="#D1E7E6"/><path d="M1.72 4.89h8.64s-1.49-1.31-8.64 0ZM24.77 7.25c1.298 0 2.35-1.101 2.35-2.46s-1.052-2.46-2.35-2.46-2.35 1.101-2.35 2.46 1.052 2.46 2.35 2.46Z" fill="#D1E7E6"/><path d="M27.75 7.25c1.016 0 1.84-.86 1.84-1.92s-.824-1.92-1.84-1.92-1.84.86-1.84 1.92.824 1.92 1.84 1.92ZM22.03 7.25c.795 0 1.44-.672 1.44-1.5s-.645-1.5-1.44-1.5c-.795 0-1.44.672-1.44 1.5s.645 1.5 1.44 1.5Z" fill="#D1E7E6"/><path d="M27.39 5.75H21.9v1.36h5.49V5.75Z" fill="#D1E7E6"/><path d="M32 7.44H18.94s2.25-2.65 13.06 0ZM4.11 25.12c1.05 0 1.9-.788 1.9-1.76s-.85-1.76-1.9-1.76c-1.05 0-1.9.788-1.9 1.76s.85 1.76 1.9 1.76Z" fill="#D1E7E6"/><path d="M2.21 25.12c.524 0 .95-.394.95-.88s-.426-.88-.95-.88c-.525 0-.95.394-.95.88s.425.88.95.88ZM6.02 25.12c.646 0 1.17-.484 1.17-1.08 0-.596-.524-1.08-1.17-1.08-.647 0-1.17.483-1.17 1.08 0 .596.523 1.08 1.17 1.08Z" fill="#D1E7E6"/><path d="M0 25.19h9.66s-3.83-1.91-9.66 0ZM28.57 25.09c.773 0 1.4-.605 1.4-1.35 0-.746-.627-1.35-1.4-1.35-.773 0-1.4.604-1.4 1.35 0 .745.627 1.35 1.4 1.35Z" fill="#D1E7E6"/><path d="M27.63 25.09c.32 0 .58-.251.58-.56a.57.57 0 0 0-.58-.56.57.57 0 0 0-.58.56c0 .309.26.56.58.56ZM29.97 25.09c.398 0 .72-.309.72-.69 0-.381-.322-.69-.72-.69-.398 0-.72.309-.72.69 0 .381.322.69.72.69Z" fill="#D1E7E6"/><path d="M25.6 25.19H32a10.93 10.93 0 0 0-6.4 0ZM2.36 14.83l1.31 9.06a1.57 1.57 0 0 0 1.77 1.33l4.45-.64a2.13 2.13 0 1 1 4.22-.58l13.23-1.92a1.57 1.57 0 0 0 1.33-1.77l-1.31-9.06a1.57 1.57 0 0 0-1.77-1.33L12.35 11.8a2.134 2.134 0 0 1-2.636 2.371 2.131 2.131 0 0 1-1.584-1.76l-4.44.64a1.58 1.58 0 0 0-1.33 1.78Zm8.45 5.6a.66.66 0 1 1 1.305-.186.66.66 0 0 1-1.305.186Zm-.31-2.15a.66.66 0 1 1 1.305-.186.66.66 0 0 1-1.305.186Zm-.31-2.16a.661.661 0 1 1 1.309-.19.661.661 0 0 1-1.31.19Z" fill="#D1E7E6"/><path d="M16 14a2 2 0 0 1 2.59-.37 1.81 1.81 0 0 1 .69 1.27 1.809 1.809 0 0 1-.3 1.41 1.79 1.79 0 0 1-1.23.66 1.83 1.83 0 0 1-1.36-.28 1.762 1.762 0 0 1-.69-1.27A1.74 1.74 0 0 1 16 14Zm1 1.23c.073.487.283.707.63.66a.48.48 0 0 0 .36-.24 1 1 0 0 0 .06-.57c-.07-.49-.29-.72-.64-.66-.35.06-.5.3-.41.79v.02Zm5.79-2.57-2.94 7.9a.49.49 0 0 1-.39.31l-1.46.2 2.95-7.9a.47.47 0 0 1 .39-.31l1.45-.2Zm-1 4.77a1.896 1.896 0 1 1 3 2.32c-.31.37-.75.607-1.23.66a1.84 1.84 0 0 1-1.36-.29 1.792 1.792 0 0 1-.68-1.27 1.76 1.76 0 0 1 .22-1.44l.05.02Zm1 .66a1.001 1.001 0 0 0-.06.58c.08.48.28.7.63.65a.46.46 0 0 0 .36-.24 1 1 0 0 0 .06-.56.999.999 0 0 0-.22-.54.481.481 0 0 0-.42-.13.43.43 0 0 0-.39.22l.04.02Z" fill="#FFD591"/><path d="M3.58 14.5v9.13a1.57 1.57 0 0 0 1.56 1.56h4.47a2.13 2.13 0 1 1 4.25 0h13.32a1.57 1.57 0 0 0 1.56-1.56V14.5a1.56 1.56 0 0 0-1.56-1.56H13.86a2.13 2.13 0 0 1-4.25 0H5.14a1.56 1.56 0 0 0-1.56 1.56Zm7.53 6.73a.66.66 0 1 1 .66.66.67.67 0 0 1-.66-.66Zm0-2.17a.66.66 0 1 1 1.32 0 .66.66 0 0 1-1.32 0Zm0-2.17a.66.66 0 1 1 1.32 0 .66.66 0 0 1-1.32 0Z" fill="#49A09D"/><path d="M17.17 15.61a1.88 1.88 0 0 1 2.6 2.71 2 2 0 0 1-2.6 0 1.771 1.771 0 0 1-.51-1.32 1.76 1.76 0 0 1 .51-1.39Zm.77 1.39c0 .49.17.74.52.74a.44.44 0 0 0 .39-.19A.91.91 0 0 0 19 17c0-.49-.18-.74-.53-.74-.35 0-.53.21-.53.74ZM24 15.25l-4 7.37a.52.52 0 0 1-.43.25h-1.5l4-7.36a.48.48 0 0 1 .43-.26H24Zm-1.7 4.56a1.82 1.82 0 0 1 1.3-.48 1.689 1.689 0 0 1 1.8 1.83A1.68 1.68 0 0 1 23.61 23a1.85 1.85 0 0 1-1.3-.47 1.798 1.798 0 0 1-.49-1.36 1.79 1.79 0 0 1 .49-1.36h-.01Zm.91.79a.94.94 0 0 0-.14.56c0 .49.18.74.52.74a.44.44 0 0 0 .39-.19.91.91 0 0 0 .14-.55.93.93 0 0 0-.14-.55.44.44 0 0 0-.39-.19.45.45 0 0 0-.37.18h-.01Z" fill="#fff"/><path d="M5.93 11.25 2.28 8.14l1.27-.91 2.38 4.02ZM6.44 10.74 5.19 7.43l1.14-.14.11 3.45ZM5.33 11.76l-2.66-.57.39-.8 2.27 1.37Z" fill="#FFD591"/></g></g><defs><clipPath id="a"><path fill="#fff" d="M0 0h32v32H0z"/></clipPath><clipPath id="b"><path fill="#fff" d="M0 0h32v32H0z"/></clipPath></defs></svg>