<svg xmlns="http://www.w3.org/2000/svg" width="181" height="143" fill="none"><g clip-path="url(#a)"><path fill="#FCEFF2" d="M136.864 139.329a73.426 73.426 0 0 0 24.827-36.704 73.216 73.216 0 0 0-.847-44.26 73.45 73.45 0 0 0-26.212-35.734A73.82 73.82 0 0 0 92.578 8.41a73.835 73.835 0 0 0-42.613 12.457 73.478 73.478 0 0 0-27.687 34.61 73.22 73.22 0 0 0-2.702 44.187 73.402 73.402 0 0 0 23.267 37.706"/><path fill="#EB92A7" d="M141.258 138.507c8.259 0 14.955-6.422 14.955-14.345 0-7.922-6.696-14.345-14.955-14.345s-14.955 6.423-14.955 14.345c0 7.923 6.696 14.345 14.955 14.345Z"/><path fill="#EB92A7" d="M156.213 138.507c4.129 0 7.477-3.211 7.477-7.172 0-3.962-3.348-7.173-7.477-7.173-4.13 0-7.478 3.211-7.478 7.173 0 3.961 3.348 7.172 7.478 7.172ZM126.303 138.508c5.072 0 9.183-3.947 9.183-8.817 0-4.869-4.111-8.816-9.183-8.816s-9.183 3.947-9.183 8.816c0 4.87 4.111 8.817 9.183 8.817Z"/><path fill="#EB92A7" d="M182.271 139.622h-82.026s32.564-12.87 82.026 0ZM76.91 137.539c15.383 0 27.853-11.963 27.853-26.72s-12.47-26.72-27.854-26.72c-15.383 0-27.854 11.963-27.854 26.72s12.47 26.72 27.854 26.72Z"/><path fill="#EB92A7" d="M104.763 137.539c7.692 0 13.927-5.978 13.927-13.354 0-7.375-6.235-13.354-13.927-13.354-7.692 0-13.927 5.979-13.927 13.354 0 7.376 6.235 13.354 13.927 13.354ZM49.055 137.539c9.451 0 17.113-7.35 17.113-16.417 0-9.067-7.662-16.417-17.113-16.417-9.45 0-17.112 7.35-17.112 16.417 0 9.067 7.661 16.417 17.112 16.417Z"/><path fill="#EB92A7" d="M153.276 139.622H.531s60.633-23.972 152.745 0Z"/><path fill="#F3BDCA" d="M22.048 138.722c4.935 0 8.935-4.205 8.935-9.391s-4-9.391-8.935-9.391c-4.934 0-8.934 4.205-8.934 9.391s4 9.391 8.934 9.391Z"/><path fill="#F3BDCA" d="M30.768 138.722c2.44 0 4.416-1.75 4.416-3.908 0-2.157-1.977-3.907-4.416-3.907-2.44 0-4.416 1.75-4.416 3.907 0 2.158 1.977 3.908 4.416 3.908ZM13.114 138.721c2.994 0 5.421-2.147 5.421-4.796 0-2.65-2.427-4.797-5.421-4.797-2.995 0-5.422 2.147-5.422 4.797 0 2.649 2.427 4.796 5.422 4.796Z"/><path fill="#F3BDCA" d="M46.14 139.33h-48.4s19.203-7.015 48.4 0Z"/><path fill="#F3BDCA" d="M32.316 138.361c4.716 0 8.539-3.388 8.539-7.567s-3.823-7.566-8.54-7.566c-4.715 0-8.539 3.387-8.539 7.566s3.823 7.567 8.54 7.567Z"/><path fill="#F3BDCA" d="M40.855 138.362c2.358 0 4.27-1.694 4.27-3.784 0-2.089-1.912-3.783-4.27-3.783-2.358 0-4.27 1.694-4.27 3.783 0 2.09 1.911 3.784 4.27 3.784ZM23.765 138.361c2.9 0 5.252-2.082 5.252-4.65 0-2.568-2.351-4.65-5.252-4.65-2.9 0-5.252 2.082-5.252 4.65 0 2.568 2.351 4.65 5.252 4.65Z"/><path fill="#F3BDCA" d="M55.245 139.172H8.403s18.592-6.79 46.842 0ZM93.999 138.654c6.725 0 12.176-5.248 12.176-11.722 0-6.473-5.451-11.721-12.176-11.721-6.725 0-12.176 5.248-12.176 11.721 0 6.474 5.451 11.722 12.176 11.722Z"/><path fill="#F3BDCA" d="M102.109 138.665c2.801 0 5.071-2.188 5.071-4.887 0-2.699-2.27-4.886-5.071-4.886-2.801 0-5.072 2.187-5.072 4.886 0 2.699 2.27 4.887 5.072 4.887ZM81.822 138.665c3.438 0 6.224-2.687 6.224-6.001 0-3.315-2.786-6.002-6.224-6.002-3.437 0-6.223 2.687-6.223 6.002 0 3.314 2.786 6.001 6.223 6.001Z"/><path fill="#F3BDCA" d="M119.729 139.419H64.168s22.07-8.805 55.561 0Z"/><path fill="#F3BDCA" d="M110.456 138.688c5.421 0 9.816-4.23 9.816-9.447 0-5.217-4.395-9.447-9.816-9.447-5.421 0-9.815 4.23-9.815 9.447 0 5.217 4.394 9.447 9.815 9.447Z"/><path fill="#F3BDCA" d="M120.272 138.688c2.707 0 4.902-2.118 4.902-4.729 0-2.612-2.195-4.73-4.902-4.73-2.708 0-4.902 2.118-4.902 4.73 0 2.611 2.194 4.729 4.902 4.729ZM100.652 138.688c3.331 0 6.031-2.602 6.031-5.811 0-3.208-2.7-5.81-6.031-5.81-3.331 0-6.032 2.602-6.032 5.81 0 3.209 2.7 5.811 6.032 5.811Z"/><path fill="#F3BDCA" d="M137.372 139.42H83.584s21.337-8.479 53.788 0ZM160.223 55.781c5.414 0 9.804-4.179 9.804-9.334 0-5.156-4.39-9.335-9.804-9.335-5.415 0-9.805 4.18-9.805 9.335 0 5.155 4.39 9.334 9.805 9.334Z"/><path fill="#F3BDCA" d="M150.419 55.77c2.707 0 4.902-2.087 4.902-4.661 0-2.575-2.195-4.662-4.902-4.662-2.708 0-4.902 2.087-4.902 4.662 0 2.574 2.194 4.661 4.902 4.661ZM170.027 55.782c3.325 0 6.021-2.566 6.021-5.731 0-3.166-2.696-5.732-6.021-5.732-3.325 0-6.02 2.566-6.02 5.732 0 3.165 2.695 5.73 6.02 5.73Z"/><path fill="#F3BDCA" d="M132.538 57.11h48.739s-19.349-10.28-48.739 0ZM26.092 77.58c3.718 0 6.732-2.893 6.732-6.462 0-3.57-3.014-6.464-6.732-6.464-3.718 0-6.732 2.894-6.732 6.464 0 3.569 3.014 6.463 6.732 6.463Z"/><path fill="#F3BDCA" d="M32.824 77.58c1.859 0 3.366-1.447 3.366-3.231 0-1.785-1.507-3.232-3.366-3.232-1.859 0-3.366 1.447-3.366 3.232 0 1.784 1.507 3.231 3.366 3.231ZM19.371 77.58c2.284 0 4.134-1.78 4.134-3.974 0-2.196-1.85-3.975-4.134-3.975-2.283 0-4.134 1.78-4.134 3.975 0 2.195 1.851 3.974 4.134 3.974Z"/><path fill="#F3BDCA" d="M44.548 78.087H7.646s14.65-5.799 36.902 0ZM45.204 20.763c6.812 0 12.334-5.303 12.334-11.845 0-6.542-5.522-11.846-12.334-11.846-6.813 0-12.335 5.304-12.335 11.846s5.522 11.845 12.335 11.845Z"/><path fill="#F3BDCA" d="M57.55 20.763c3.406 0 6.167-2.651 6.167-5.922s-2.761-5.923-6.167-5.923c-3.406 0-6.168 2.652-6.168 5.923 0 3.27 2.762 5.922 6.168 5.922ZM32.87 20.764c4.185 0 7.578-3.257 7.578-7.274 0-4.018-3.393-7.274-7.579-7.274S25.29 9.472 25.29 13.49c0 4.017 3.393 7.274 7.58 7.274Z"/><path fill="#F3BDCA" d="M79.066 21.698h-67.68s26.848-10.63 67.68 0Z"/><path fill="#49A09D" d="M123.604 38.002c-.452 1.824 0 4.65.813 7.623a91.67 91.67 0 0 0 4.88 12.926s13.283-9.942 14.683-15.55a10.43 10.43 0 0 0-1.507-7.557 10.493 10.493 0 0 0-6.291-4.478 10.522 10.522 0 0 0-7.66 1.032 10.467 10.467 0 0 0-4.873 5.982l-.045.022Zm8.031 6.756a4.893 4.893 0 0 1-2.709-3.968 4.882 4.882 0 0 1 2.003-4.364 4.91 4.91 0 0 1 6.756.96c.517.664.853 1.45.975 2.283.103.633.077 1.28-.079 1.903a4.898 4.898 0 0 1-2.231 3.008 4.924 4.924 0 0 1-3.71.56 4.118 4.118 0 0 1-1.005-.37v-.012Z"/><path fill="#329490" d="M124.417 45.625a91.666 91.666 0 0 0 4.88 12.926s13.283-9.942 14.683-15.55a10.371 10.371 0 0 0-1.807-8.805 25.753 25.753 0 0 1-3.501 5.461 4.73 4.73 0 0 1-.079 1.903 4.905 4.905 0 0 1-2.231 3.009 4.928 4.928 0 0 1-3.711.56 4.14 4.14 0 0 1-1.005-.382 15.86 15.86 0 0 1-7.229.878Z"/><path fill="#DB284E" d="M40.505 39.6c.632 2.77 3.174 6.272 6.303 9.718a140.178 140.178 0 0 0 15.44 14.13S73.34 41.032 71.375 32.53a15.79 15.79 0 0 0-7.029-9.844 15.88 15.88 0 0 0-11.953-2.007 15.836 15.836 0 0 0-9.875 7.007A15.746 15.746 0 0 0 40.505 39.6Zm15.44 3.671a7.4 7.4 0 0 1-5.063-2.036 7.35 7.35 0 0 1-.525-10.102 7.404 7.404 0 0 1 10.087-1.095 7.345 7.345 0 0 1 1.667 9.978 7.388 7.388 0 0 1-6.166 3.255Z"/><path fill="#C22046" d="M46.807 49.319a140.178 140.178 0 0 0 15.44 14.13S73.34 41.032 71.375 32.53a15.744 15.744 0 0 0-3.017-6.273 15.806 15.806 0 0 0-5.432-4.367 39.29 39.29 0 0 1-.982 9.74 7.35 7.35 0 0 1-1.14 9.83 7.395 7.395 0 0 1-3.198 1.632c-.53.12-1.071.18-1.615.18a24.065 24.065 0 0 1-9.183 6.047Z"/><path stroke="#000" stroke-miterlimit="10" stroke-width=".32" d="M73.046 38.633c.157-.178.323-.347.497-.507"/><path stroke="#000" stroke-dasharray="1.24 1.24" stroke-miterlimit="10" stroke-width=".32" d="M74.662 37.281c3.783-2.42 11.295-4.031 15.192-3.063 16.321 4.065 11.272 16.27 30.248 10.528"/><path stroke="#000" stroke-miterlimit="10" stroke-width=".32" d="m120.78 44.533.678-.214"/><path fill="#A4CFCE" d="M119.933 115.211h-2.158l2.406-10.066h2.146l-2.394 10.066ZM129.612 123.385h-2.157l4.349-18.24h2.157l-4.349 18.24Z"/><path fill="#FFB769" d="M60.136 90.259c1.927 0 3.49-1.598 3.49-3.57 0-1.97-1.563-3.569-3.49-3.569-1.928 0-3.49 1.598-3.49 3.57 0 1.97 1.562 3.569 3.49 3.569Z"/><path fill="#DB284E" d="M100.934 134.736h-35.5a.702.702 0 0 1-.701-.698v-3.378a.708.708 0 0 1 .7-.71H96.8a.712.712 0 0 1 .7.71l3.434 4.076Z"/><path fill="#13161A" d="M111.857 142.696c5.857 0 10.606-4.734 10.606-10.573 0-5.84-4.749-10.573-10.606-10.573-5.858 0-10.607 4.733-10.607 10.573 0 5.839 4.749 10.573 10.607 10.573Z"/><path fill="#49A09D" d="M111.857 137.516c2.988 0 5.41-2.414 5.41-5.393 0-2.979-2.422-5.394-5.41-5.394s-5.411 2.415-5.411 5.394 2.423 5.393 5.411 5.393Z"/><path fill="#80BDBA" d="M57.323 117.193a15.742 15.742 0 0 0-4.744-.732 15.387 15.387 0 0 0-3.389.372c-3.09.698-5.9 2.305-8.063 4.614a15.746 15.746 0 0 0-4.068 8.334 2.03 2.03 0 0 0 .472 1.634 2.045 2.045 0 0 0 1.55.708h.068a1.306 1.306 0 0 0 1.299-1.182 12.147 12.147 0 0 1 4.163-8.03 12.223 12.223 0 0 1 8.573-2.947c3.13.152 6.083 1.5 8.244 3.764a12.139 12.139 0 0 1 3.36 8.395h3.514a15.654 15.654 0 0 0-3.045-9.252 15.733 15.733 0 0 0-7.934-5.678Z"/><path fill="#80BDBA" d="m73.6 129.983-5.31 2.14c-3.682-7.139-7.443-10.641-10.662-12.386-5.783-3.119-9.804-.484-8.449-2.928l9.917-20.876a9.21 9.21 0 0 1 3.502-2.905 9.061 9.061 0 0 1 4.744-.833c1.897.17 2.598 1.025 2.677 2.917.158 3.659-1.728 13.511-3.705 18.105-4.834 11.35 7.285 16.766 7.285 16.766Z"/><path fill="#A4CFCE" d="m68.19 94.583-4.01-1.52c-.543 0-1.582.484-1.582 0l.587-9.74a.99.99 0 0 1 .995-.98h2.586c.542 0 2.722 1.037 2.575 2.985l.678 9.83c.011.551-1.288-.575-1.83-.575Z"/><path fill="#80BDBA" d="M142.162 101.677h-29.966c-.818 0-1.48.66-1.48 1.475v.811c0 .814.662 1.475 1.48 1.475h29.966c.817 0 1.479-.661 1.479-1.475v-.811c0-.815-.662-1.475-1.479-1.475Z"/><path fill="#13161A" d="M52.58 142.696c5.857 0 10.606-4.734 10.606-10.573 0-5.84-4.749-10.573-10.607-10.573-5.857 0-10.606 4.733-10.606 10.573 0 5.839 4.749 10.573 10.606 10.573Z"/><path fill="#A4CFCE" d="M57.99 132.123a5.4 5.4 0 0 1-.622 2.511.973.973 0 0 0-.079.147 5.397 5.397 0 0 1-1.741 1.858 5.43 5.43 0 0 1-4.93.521 5.409 5.409 0 0 1-3.286-3.701 5.378 5.378 0 0 1 1.118-4.816 5.405 5.405 0 0 1 2.062-1.496h.068a5.431 5.431 0 0 1 6.785 2.485c.415.777.633 1.644.636 2.525l-.012-.034Z"/><path fill="#DB284E" d="M91.492 110.82s4.145 9.176-5.095 19.141h21.269l-2.891-21.866-13.283 2.725Z"/><path fill="#DB284E" d="M133.284 133.34a1.408 1.408 0 0 1-1.401 1.396H97.805a1.407 1.407 0 0 1-1.4-1.396l.452-22.194 11.464-.698c15.26 0 24.963 7.668 24.963 22.892ZM63.626 86.487a5.897 5.897 0 0 1-.09 1.002 5.469 5.469 0 0 1-1.88 3.229 5.5 5.5 0 0 1-3.52 1.275V81.071c1.447 0 2.835.569 3.862 1.583a5.464 5.464 0 0 1 1.628 3.833Z"/><path fill="#2B478B" d="M72.29 87.23h-.272l-6.031-1.666a.586.586 0 0 1-.373-.664c0-.316.26-.54.497-.496l6.054 1.126c.237 0 .43.406.486.72.102.53-.147.98-.361.98Z"/><path fill="#C22046" d="M57.696 120.176c.057.338.113.664.158.98a12.088 12.088 0 0 0-5.23-1.126 12.23 12.23 0 0 0-8.193 3.156 12.157 12.157 0 0 0-3.949 7.822 1.306 1.306 0 0 1-1.299 1.182h-.068a2.055 2.055 0 0 1-1.55-.708 2.043 2.043 0 0 1-.471-1.634 15.68 15.68 0 0 1 4.032-8.321 15.754 15.754 0 0 1 8.031-4.616h.068l9.917-20.876a9.21 9.21 0 0 1 3.502-2.905 41.206 41.206 0 0 0-5.275 24.141c.083.833.184 1.689.305 2.567l.022.338Z"/><path fill="#323942" d="M113.189 105.438H91.435c-.574 0-1.04.463-1.04 1.035v3.311c0 .572.466 1.036 1.04 1.036h21.754c.574 0 1.039-.464 1.039-1.036v-3.311c0-.572-.465-1.035-1.039-1.035Z"/><path fill="#AC1D3E" d="M130.55 134.735H97.794s-2-12.082 5.376-16.158a10.96 10.96 0 0 1 6.427-1.126c7.67.777 17.316 7.252 20.953 17.284Z"/><path fill="#C22046" d="M63.536 87.49a5.468 5.468 0 0 1-1.88 3.228 5.5 5.5 0 0 1-3.52 1.275v-3.04c1.616 0 3.988-.158 5.4-1.464Z"/><path fill="#13161A" d="M107.305 110.82H91.491a1.053 1.053 0 0 1-1.039-1.047v-3.288a1.047 1.047 0 0 1 1.04-1.047h10.843a26.704 26.704 0 0 0 4.97 5.382Z"/><path fill="#C22046" d="M130.55 134.735h-13.554c-8.211-4.143-7.703-14.164-7.342-17.25 7.613.744 17.259 7.218 20.896 17.25Z"/><path fill="#49A09D" d="M57.29 134.781a5.397 5.397 0 0 1-1.742 1.858 5.43 5.43 0 0 1-4.93.521 5.409 5.409 0 0 1-3.286-3.702 5.374 5.374 0 0 1 1.118-4.815 5.418 5.418 0 0 1 2.062-1.497c.463 2.343 1.977 6.655 6.777 7.635Z"/><path fill="#DB284E" d="M57.696 120.176c.056.338.113.664.158.98-1.954-1.802-6.1-3.378-8.697-4.29h.068l9.917-20.876a9.21 9.21 0 0 1 3.501-2.905 41.205 41.205 0 0 0-5.275 24.141c.083.833.185 1.689.305 2.567l.023.383Z"/><path fill="#6C6D6D" d="M109.993 94.662s.373 6.114-1.683 9.571c-1.897 3.186-34.01 1.295-34.01 1.295s-.135-4.741 1.13-5.957c1.265-1.216 7.16-4.706 25.979-6.688l8.584 1.779Z"/><path fill="#DB284E" d="M110.456 80.069c-.486 6.08.158 15.325-.407 16.89-.474 1.373-5.986.563-8.177.1a46.942 46.942 0 0 1-2.813-.708c-2.835-.8-5.93-1.948-6.269-2.804a.325.325 0 0 1 0-.102.73.73 0 0 1 0-.348c.08-.327.34-.665.486-1.262a3.26 3.26 0 0 0 .102-.72c0-1.126 0-2.387.09-3.761v-.383a4.172 4.172 0 0 1 0-.53v-.157c0-1.7.147-3.479.26-5.247 0-.552.079-1.126.113-1.644v-.574c0-.191.056-.71.09-1.047.156-2.25.5-4.484 1.028-6.677a10.675 10.675 0 0 1 3.75-5.315l1.48-1.126a5.153 5.153 0 0 0 3.388-.169c1.344-.585 1.819-1.013 2.045-.844 3.174 2.24 5.421 9.008 4.834 16.428Z"/><path fill="#1C4575" d="M86.217 125.311s-.283 4.605-1.13 4.661H74.921a1.802 1.802 0 0 1 1.65-1.61c1.649-.281 4.393-1.441 5.399-3.603 1.005-2.162 4.247.552 4.247.552Z"/><path fill="#6C6D6D" d="M87.391 125.615a6.176 6.176 0 0 1-3.298.934 8.634 8.634 0 0 1-1.559 0 7.421 7.421 0 0 1-1.977-.507L74.3 105.583s6.46-5.63 9.838-2.128a5.75 5.75 0 0 1 1.13 2.252c2.146 6.891 2.123 19.908 2.123 19.908Z"/><path fill="#FFB27D" d="M76.807 83.323c-.74.192-1.496.316-2.259.372-.486-.068-2.869-1.002-3.614-.608-.746.394-2.418 2.781-1.762 3.614a2.632 2.632 0 0 0 1.637-1.126c.712-1.013 1.74-.563 1.66-.428-.078.135-1.32.879-1.05 1.126a3.963 3.963 0 0 0 2.384-.484 14.87 14.87 0 0 1 3.524-.495l-.52-1.97Z"/><path fill="#DB284E" d="M99.33 65.6S92.553 75.43 86.905 78.3a124 124 0 0 1-12.865 5.078s.847 3.727 1.965 4.504c0 0 9.037-.822 14.854-3.547 2.665-1.25 12.967-9.008 13.904-9.672.938-.664-1.389-10.483-5.433-9.064Z"/><path stroke="#000" stroke-linecap="round" stroke-miterlimit="10" stroke-width=".27" d="m93.649 82.614 9.714-6.959a4.887 4.887 0 0 0 1.828-4.165 4.877 4.877 0 0 0-2.404-3.863M95.366 70.78l1.818-2.027" opacity=".3"/><path fill="#F2AA91" d="M95.626 53.203s-.893 7.25.971 9.863c1.547 2.185 3.569.27 3.569.27l.102 1.768s1.841.755 5.241-1.362a8.867 8.867 0 0 1-1.581-4.504s2.473-1.532.576-3.378c-1.898-1.847-1.491 1.126-1.491 1.126s-1.48-9.515-7.387-3.783Z"/><path fill="#1E1C1F" d="M103.815 60.33a2.985 2.985 0 0 0-.475-2.252s.475-1.294 0-1.587c-.474-.293-.756.822-.971.608a5.367 5.367 0 0 1-1.491-2.477c-.294-1.295-4.733-.36-5.264-.214-.53.146 2.948-6.295 6.698-4.763 3.751 1.531 4.022 3.445 3.592 5-.429 1.553-.429 5.359-2.089 5.685Z"/><path fill="#DB284E" d="M106.469 55.026a.4.4 0 0 1-.181.35.193.193 0 0 1-.113 0H91.819a.35.35 0 0 1-.294-.383.349.349 0 0 1 .294-.383l3.208-.405a5.935 5.935 0 0 1 1.261-3.07 5.963 5.963 0 0 1 2.715-1.918 5.427 5.427 0 0 1 1.604-.248 5.825 5.825 0 0 1 3.909 1.655 5.794 5.794 0 0 1 1.739 3.862v.113a.404.404 0 0 1 .214.428Z"/><path fill="#C22046" d="M101.657 54.52c1.13-5.63-2.496-5.28-2.61-5.27a5.427 5.427 0 0 1 1.605-.247 5.83 5.83 0 0 1 3.909 1.655 5.788 5.788 0 0 1 1.738 3.862h-4.642Z"/><path fill="#E0AC69" d="m137.541 83.636-25.572-.08a.687.687 0 0 0-.691.685l-.054 16.867a.689.689 0 0 0 .687.689l25.573.08c.38.001.69-.306.691-.685l.053-16.867a.688.688 0 0 0-.687-.689Z"/><path fill="#F7CD97" d="m119.208 83.602 23.562.04a.925.925 0 0 1 .924.925l-.028 16.384a.926.926 0 0 1-.928.921l-23.562-.041.032-18.23Z"/><path fill="#F1C27D" d="m116.668 83.571-3.117-.01-.006 1.836 3.117.01.006-1.836ZM116.616 99.987l-3.117-.01-.006 1.836 3.118.01.005-1.836Z"/><path fill="#C22046" d="m144.195 82.569 6.517-11.204 3.05 2.928-9.567 8.276ZM145.787 83.671l8.234-4.92.927 2.984-9.161 1.936ZM142.534 81.217l.237-7.341 2.316.642-2.553 6.7Z"/><g clip-path="url(#b)"><path fill="#D7244F" d="m123.088 91.75.061-.012c-.091.597-.181 1.353-.172 1.591a.211.211 0 0 0 .215.213c.038 0 .076-.009.11-.026.546-.266.884-.351 1.444-.493.132-.033.166-.144.156-.228-.013-.099-.089-.199-.212-.199a.24.24 0 0 0-.058.008c-.479.121-.8.207-1.199.377.009-.093.02-.201.034-.32l.217-.09c.373-.154.62-.256 1.062-.377.132-.036.165-.147.154-.233-.013-.096-.089-.194-.208-.194a.229.229 0 0 0-.061.008c-.449.123-.697.226-1.073.382l-.029.011c.033-.233.066-.457.096-.633.316-.137.609-.209 1.07-.3a.188.188 0 0 0 .16-.213c-.01-.103-.092-.212-.222-.212a.234.234 0 0 0-.047.005 6.049 6.049 0 0 0-.925.238.158.158 0 0 0-.025-.032.237.237 0 0 0-.165-.067c-.081 0-.177.041-.205.157l-.015.053v.003c-.011.04-.025.088-.033.124a7.765 7.765 0 0 1-.459.086l-.01.002c-.233.04-.496.085-.665.123l.015-.344c.003-.062.004-.126.006-.189v-.036c.193-.028.386-.058.617-.094h.006c.253-.04.539-.084.817-.123a.166.166 0 0 0 .068-.027.219.219 0 0 0 .082-.228c-.025-.094-.103-.149-.208-.149a.312.312 0 0 0-.042.003c-.263.038-.531.079-.789.119l-.012.002-.509.078c.008-.06.021-.118.038-.176a.197.197 0 0 0 .007-.09.195.195 0 0 0-.115-.147.225.225 0 0 0-.222.017.196.196 0 0 0-.071.107c-.032.114-.053.231-.062.349-.238.033-.45.059-.648.08-.121.012-.203.096-.203.206 0 .101.094.22.212.207.189-.02.391-.044.619-.075l-.004.098c-.007.153-.014.315-.021.527-.079.025-.15.05-.219.075-.091.032-.156.143-.145.244.009.085.066.142.154.155.05.008.102.007.152-.003l.041-.01-.006.164c-.015.424-.03.862-.054 1.293a.167.167 0 0 0 .009.076.176.176 0 0 0 .108.112c.025.01.053.016.081.015.102 0 .209-.068.216-.199.025-.434.04-.874.055-1.299l.01-.271c.228-.059.737-.161.983-.21l.038-.009ZM132.572 92.541c-.012-.098-.089-.198-.212-.198a.232.232 0 0 0-.057.007c-.504.128-.867.225-1.289.403.006-.092.016-.2.029-.32a5.174 5.174 0 0 1 1.137-.42c.131-.037.164-.148.153-.234-.013-.096-.088-.194-.207-.194a.239.239 0 0 0-.062.008c-.404.111-.555.175-.827.29l-.132.056c.033-.233.07-.472.105-.675.138-.058.288-.098.43-.134.193-.048.312-.068.451-.092h.001c.071-.012.16-.027.273-.05a.188.188 0 0 0 .16-.212c-.01-.103-.091-.213-.223-.213a.247.247 0 0 0-.046.004c-.113.022-.222.04-.329.058-.214.035-.436.072-.648.137a.196.196 0 0 0-.046-.074.234.234 0 0 0-.165-.067.203.203 0 0 0-.205.157c-.01.043-.024.107-.04.189-.089.056-.174.12-.251.192a.192.192 0 0 0-.055.22.24.24 0 0 0 .21.148c-.093.599-.182 1.323-.152 1.568.015.124.104.21.217.21.037 0 .074-.009.107-.026.542-.263.952-.367 1.519-.51.13-.033.164-.143.154-.228ZM126.672 93.59c.025-.297.061-.642.097-.975v-.008c.024-.234.05-.475.071-.694a32.197 32.197 0 0 1 .086-.837c.015-.128.03-.26.062-.387a.172.172 0 0 0 .002-.081.171.171 0 0 0-.034-.074.222.222 0 0 0-.171-.08.19.19 0 0 0-.17.096c-.082.142-.155.289-.226.43a10.026 10.026 0 0 1-.396.725 2.86 2.86 0 0 1-.071.108 9.484 9.484 0 0 1-.188-.57 8.917 8.917 0 0 0-.122-.392l-.057-.177a.663.663 0 0 0-.008-.048v-.002a1.04 1.04 0 0 0-.023-.057.193.193 0 0 0-.174-.096.221.221 0 0 0-.101.024.192.192 0 0 0-.058.047.17.17 0 0 0-.049.099.771.771 0 0 0-.022.172l-.007.076c-.031.23-.05.473-.063.792a85.708 85.708 0 0 0-.046 1.784.167.167 0 0 0 .011.07.164.164 0 0 0 .038.06.208.208 0 0 0 .149.058c.1 0 .202-.064.204-.187.005-.307.015-.66.025-1.003l.016-.61.005-.165c.089.243.194.422.33.562a.199.199 0 0 0 .142.054.18.18 0 0 0 .106-.031c.187-.133.313-.348.426-.559l-.017.172c-.019.21-.044.447-.068.675l-.002.011c-.036.347-.074.706-.1 1.02a.17.17 0 0 0 .041.129.198.198 0 0 0 .142.057c.103 0 .211-.065.22-.188ZM127.313 93.373c.087-.269.166-.54.226-.75.217-.11.414-.209.604-.303.119.391.261.774.427 1.148.031.067.105.11.19.11.038 0 .077-.01.111-.028.1-.059.132-.176.08-.293a9.006 9.006 0 0 1-.411-1.13l.296-.14a.186.186 0 0 0 .11-.216.239.239 0 0 0-.226-.186.224.224 0 0 0-.097.023l-.203.096c-.051-.19-.102-.394-.165-.658a5.663 5.663 0 0 0-.07-.274 2.563 2.563 0 0 1-.028-.118l-.002-.01a.21.21 0 0 0-.012-.186.237.237 0 0 0-.195-.11.177.177 0 0 0-.107.034.281.281 0 0 0-.111.164l-.007-.002-.009.04a21.978 21.978 0 0 0-.506 1.616l-.035.123-.016.008a.716.716 0 0 0-.077.039l-.037.02-.038.02.001.004a.189.189 0 0 0-.068.201.246.246 0 0 0 .108.148c-.056.188-.104.344-.151.492a.185.185 0 0 0-.01.093.186.186 0 0 0 .035.087.232.232 0 0 0 .187.09.21.21 0 0 0 .206-.152Zm.389-1.318c.052-.18.12-.413.195-.654l.003.016c.025.105.052.222.083.339l.038.141c-.101.05-.205.1-.319.158Z"/><path fill="#D7244F" d="M130.268 92.757a.22.22 0 0 0-.106.029c-.179.097-.324.159-.469.2a.89.89 0 0 1-.232.035l-.008-.002c-.011-.06.004-.145.016-.214a18.82 18.82 0 0 0 .266-2.45.2.2 0 0 0-.054-.15.212.212 0 0 0-.157-.062c-.108 0-.22.072-.225.21-.03.818-.102 1.519-.225 2.205l-.013.07-.002.009c-.049.257-.112.576.143.746a.48.48 0 0 0 .273.074c.1-.003.199-.017.295-.042.218-.05.422-.151.609-.253a.195.195 0 0 0 .102-.23c-.021-.086-.102-.175-.213-.175ZM137.752 92.894h-.017c-.177 0-.272.142-.275.282-.004.134.079.282.266.29h.015c.178 0 .274-.14.277-.28.003-.135-.079-.283-.266-.292ZM135.575 91.3c-.06-.426-.322-.79-.684-.953a.965.965 0 0 0-.392-.085.77.77 0 0 0-.622.295.967.967 0 0 0-.109.172.226.226 0 0 0 .011.223c.032.05.082.089.14.106-.011.322-.013.656-.008.99.005.235.013.513.047.793l.005.049a1.177 1.177 0 0 1-.104.007c-.146.003-.221.12-.22.233.001.106.07.22.217.22h.005c.071-.002.141-.008.21-.02a.453.453 0 0 0 .037.06.248.248 0 0 0 .196.107.217.217 0 0 0 .182-.098.248.248 0 0 0 .039-.09.205.205 0 0 0-.008-.113c.242-.112.456-.275.628-.478.343-.403.499-.92.43-1.418Zm-1.188-.573a.253.253 0 0 1 .1-.017h.025a.462.462 0 0 1 .153.032c.225.076.406.318.462.616.062.337-.061.752-.313 1.058a1.371 1.371 0 0 1-.411.337 8.488 8.488 0 0 1-.038-.756c-.007-.432 0-.86.022-1.27ZM137.168 92.19a11.328 11.328 0 0 0-.127-.92 3.883 3.883 0 0 0-.166-.648.628.628 0 0 0-.147-.253.29.29 0 0 0-.194-.077.265.265 0 0 0-.197.088.22.22 0 0 0-.047.228l.002.004a.084.084 0 0 0-.009.02c-.082.217-.155.44-.226.654v.002c-.079.24-.151.455-.232.668-.111.036-.14.134-.131.208.003.025.01.048.021.07-.038.09-.08.197-.113.3-.045.141-.096.35-.028.529.039.098.122.16.218.16a.218.218 0 0 0 .145-.053.23.23 0 0 0 .083-.156.208.208 0 0 0-.011-.082c-.035-.092.009-.217.047-.328l.009-.026a5.12 5.12 0 0 1 .102-.26l.01-.023c.155-.033.318-.063.541-.1l.012.1c.042.386.086.785.179 1.17.009.047.035.09.073.12.038.03.086.045.134.044a.25.25 0 0 0 .192-.09.217.217 0 0 0 .038-.191c-.091-.38-.135-.775-.178-1.157Zm-.5-.4-.323.056c.049-.139.096-.283.141-.418l.005-.015.073-.218c.02.094.04.197.061.316l.015.087.005.035.006.04.003.02.014.097ZM137.967 91.585l.007-.123v-.005l.013-.18v-.01a5.293 5.293 0 0 0 .015-.315l.001-.024c.006-.158.013-.32-.028-.472a.221.221 0 0 0-.22-.167.24.24 0 0 0-.19.089.217.217 0 0 0-.039.088.208.208 0 0 0 .007.096c.005.023.01.046.012.07v.013l.003.067c.003.108 0 .216-.005.325a4.082 4.082 0 0 1-.016.288v.003c-.004.049-.009.11-.015.218l-.005.087c-.012.188-.02.324-.018.536V92.21c0 .17 0 .456.218.49a.367.367 0 0 0 .055.004.198.198 0 0 0 .17-.079c.061-.084.044-.207.025-.266a.31.31 0 0 1-.009-.043l-.001-.015v-.004l-.001-.018-.003-.062v-.146c.005-.193.013-.316.024-.486ZM140.918 90.41a.188.188 0 0 0-.157.081l-.008-.002-.016.05c-.085.245-.187.493-.294.754l-.001.002c-.046.111-.084.204-.12.296a14.933 14.933 0 0 1-.305-.452c-.038-.057-.058-.083-.074-.105a3.359 3.359 0 0 1-.197-.34l-.005-.01-.007-.023a.183.183 0 0 0-.179-.131.198.198 0 0 0-.159.077.17.17 0 0 0-.023.161v.002c.1.228.149.303.257.467l.049.075.001.001c.168.257.325.486.48.698-.173.477-.264.864-.286 1.218a.186.186 0 0 0 .008.07c.008.023.02.044.036.061a.182.182 0 0 0 .135.055c.092 0 .189-.061.197-.178.038-.609.298-1.23.548-1.833l.002-.005c.083-.2.163-.39.234-.58a.191.191 0 0 0 .028-.056.903.903 0 0 0 .019-.063l.016-.056a.16.16 0 0 0 .009-.081.163.163 0 0 0-.03-.076.195.195 0 0 0-.158-.078ZM139.466 92.7a.22.22 0 0 0-.106.029c-.165.09-.298.146-.431.184a.803.803 0 0 1-.2.031c-.005-.05.007-.119.016-.175l.002-.006c.019-.11.042-.236.06-.361.103-.708.165-1.348.187-1.958a.227.227 0 0 0-.012-.082.215.215 0 0 0-.043-.07.22.22 0 0 0-.16-.064c-.109 0-.221.072-.226.212a18.807 18.807 0 0 1-.211 2.094l-.016.099c-.042.233-.094.523.143.681a.463.463 0 0 0 .264.072c.094-.003.187-.016.277-.04.203-.046.393-.14.569-.235a.2.2 0 0 0 .104-.233c-.023-.088-.104-.177-.217-.177Z"/><path fill="#D8254F" d="M141.108 94.143h-8.878v1.566h8.878v-1.566Z"/><path fill="#fff" d="M133.648 95.063a.195.195 0 0 0-.076-.049.921.921 0 0 0-.104-.033 1.186 1.186 0 0 1-.114-.035.534.534 0 0 1-.103-.05.21.21 0 0 1-.076-.084.271.271 0 0 1-.03-.131.247.247 0 0 1 .089-.195.356.356 0 0 1 .242-.078.429.429 0 0 1 .253.084c.014.01.026.02.038.032l.011.014-.1.101a.145.145 0 0 1-.009-.01.319.319 0 0 0-.063-.047.284.284 0 0 0-.13-.03.191.191 0 0 0-.125.04.113.113 0 0 0-.018.168.197.197 0 0 0 .076.049.947.947 0 0 0 .103.033c.039.01.077.021.114.035a.53.53 0 0 1 .104.05c.032.02.059.05.076.084.021.04.031.085.03.13a.273.273 0 0 1-.024.12.27.27 0 0 1-.072.097.387.387 0 0 1-.264.084.513.513 0 0 1-.234-.055.608.608 0 0 1-.112-.085l-.014-.017.1-.1a.244.244 0 0 0 .04.04.323.323 0 0 0 .124.062.359.359 0 0 0 .095.013.222.222 0 0 0 .148-.046.14.14 0 0 0 .048-.155.107.107 0 0 0-.023-.036ZM135.015 94.424v.143h-.302v.862h-.158v-.862h-.303v-.143h.763ZM136.13 95.219a.25.25 0 0 0 .059-.088.248.248 0 0 0 .02-.104v-.603h.159v.603a.399.399 0 0 1-.124.294.43.43 0 0 1-.694-.134.382.382 0 0 1-.031-.16v-.603h.158v.603c0 .036.007.071.02.104a.281.281 0 0 0 .144.148.262.262 0 0 0 .204 0 .257.257 0 0 0 .085-.06ZM137.339 94.424a.497.497 0 0 1 .361.148.504.504 0 0 1 .15.354.488.488 0 0 1-.15.354.495.495 0 0 1-.361.148h-.353v-1.004h.353Zm-.194.143v.718h.194a.338.338 0 0 0 .249-.104.367.367 0 0 0-.113-.587.338.338 0 0 0-.136-.026h-.194ZM138.425 94.424h.158v1.004h-.158v-1.004ZM139.311 94.56c.103-.1.229-.15.379-.15a.523.523 0 0 1 .492.318.52.52 0 0 1-.113.565.52.52 0 0 1-.379.15.52.52 0 0 1-.492-.715.519.519 0 0 1 .113-.168Zm.114.631a.38.38 0 0 0 .631-.153.376.376 0 0 0-.434-.481.379.379 0 0 0-.279.513.372.372 0 0 0 .082.121Z"/></g></g><defs><clipPath id="a"><path fill="#fff" d="M-2.26-20.268h185.243v184.661H-2.26z"/></clipPath><clipPath id="b"><path fill="#fff" d="M120.859 90.08h20.25v5.63h-20.25z"/></clipPath></defs></svg>