<svg width="92" height="76" viewBox="0 0 92 76" fill="none" xmlns="http://www.w3.org/2000/svg">
<rect x="8" width="76" height="76" rx="8" fill="#44C19D"/>
<mask id="mask0_28103_39420" style="mask-type:alpha" maskUnits="userSpaceOnUse" x="8" y="0" width="76" height="76">
<rect x="8" width="76" height="76" rx="8" fill="#DA264D"/>
</mask>
<g mask="url(#mask0_28103_39420)">
<circle opacity="0.15" cx="53" cy="175" r="135" fill="white"/>
</g>
<path d="M24.4938 23.576C25.3818 23.576 26.1578 23.752 26.8218 24.104C27.4858 24.456 27.9978 24.952 28.3578 25.592C28.7258 26.224 28.9098 26.956 28.9098 27.788C28.9098 28.612 28.7258 29.344 28.3578 29.984C27.9978 30.624 27.4818 31.12 26.8098 31.472C26.1458 31.824 25.3738 32 24.4938 32H21.3378V23.576H24.4938ZM24.3618 30.224C25.1378 30.224 25.7418 30.012 26.1738 29.588C26.6058 29.164 26.8218 28.564 26.8218 27.788C26.8218 27.012 26.6058 26.408 26.1738 25.976C25.7418 25.544 25.1378 25.328 24.3618 25.328H23.3898V30.224H24.3618ZM36.3685 28.544C36.3685 28.736 36.3565 28.936 36.3325 29.144H31.6885C31.7205 29.56 31.8525 29.88 32.0845 30.104C32.3245 30.32 32.6165 30.428 32.9605 30.428C33.4725 30.428 33.8285 30.212 34.0285 29.78H36.2125C36.1005 30.22 35.8965 30.616 35.6005 30.968C35.3125 31.32 34.9485 31.596 34.5085 31.796C34.0685 31.996 33.5765 32.096 33.0325 32.096C32.3765 32.096 31.7925 31.956 31.2805 31.676C30.7685 31.396 30.3685 30.996 30.0805 30.476C29.7925 29.956 29.6485 29.348 29.6485 28.652C29.6485 27.956 29.7885 27.348 30.0685 26.828C30.3565 26.308 30.7565 25.908 31.2685 25.628C31.7805 25.348 32.3685 25.208 33.0325 25.208C33.6805 25.208 34.2565 25.344 34.7605 25.616C35.2645 25.888 35.6565 26.276 35.9365 26.78C36.2245 27.284 36.3685 27.872 36.3685 28.544ZM34.2685 28.004C34.2685 27.652 34.1485 27.372 33.9085 27.164C33.6685 26.956 33.3685 26.852 33.0085 26.852C32.6645 26.852 32.3725 26.952 32.1325 27.152C31.9005 27.352 31.7565 27.636 31.7005 28.004H34.2685ZM39.503 23.12V32H37.451V23.12H39.503ZM42.0221 24.608C41.6621 24.608 41.3661 24.504 41.1341 24.296C40.9101 24.08 40.7981 23.816 40.7981 23.504C40.7981 23.184 40.9101 22.92 41.1341 22.712C41.3661 22.496 41.6621 22.388 42.0221 22.388C42.3741 22.388 42.6621 22.496 42.8861 22.712C43.1181 22.92 43.2341 23.184 43.2341 23.504C43.2341 23.816 43.1181 24.08 42.8861 24.296C42.6621 24.504 42.3741 24.608 42.0221 24.608ZM43.0421 25.304V32H40.9901V25.304H43.0421ZM47.5412 30.08L48.9932 25.304H51.1772L48.8012 32H46.2692L43.8932 25.304H46.0892L47.5412 30.08ZM58.3529 28.544C58.3529 28.736 58.3409 28.936 58.3169 29.144H53.6729C53.7049 29.56 53.8369 29.88 54.0689 30.104C54.3089 30.32 54.6009 30.428 54.9449 30.428C55.4569 30.428 55.8129 30.212 56.0129 29.78H58.1969C58.0849 30.22 57.8809 30.616 57.5849 30.968C57.2969 31.32 56.9329 31.596 56.4929 31.796C56.0529 31.996 55.5609 32.096 55.0169 32.096C54.3609 32.096 53.7769 31.956 53.2649 31.676C52.7529 31.396 52.3529 30.996 52.0649 30.476C51.7769 29.956 51.6329 29.348 51.6329 28.652C51.6329 27.956 51.7729 27.348 52.0529 26.828C52.3409 26.308 52.7409 25.908 53.2529 25.628C53.7649 25.348 54.3529 25.208 55.0169 25.208C55.6649 25.208 56.2409 25.344 56.7449 25.616C57.2489 25.888 57.6409 26.276 57.9209 26.78C58.2089 27.284 58.3529 27.872 58.3529 28.544ZM56.2529 28.004C56.2529 27.652 56.1329 27.372 55.8929 27.164C55.6529 26.956 55.3529 26.852 54.9929 26.852C54.6489 26.852 54.3569 26.952 54.1169 27.152C53.8849 27.352 53.7409 27.636 53.6849 28.004H56.2529ZM61.4874 26.42C61.7274 26.052 62.0274 25.764 62.3874 25.556C62.7474 25.34 63.1474 25.232 63.5874 25.232V27.404H63.0234C62.5114 27.404 62.1274 27.516 61.8714 27.74C61.6154 27.956 61.4874 28.34 61.4874 28.892V32H59.4354V25.304H61.4874V26.42ZM71.4082 25.304L67.2082 35.18H65.0002L66.5362 31.772L63.8122 25.304H66.1042L67.6522 29.492L69.1882 25.304H71.4082ZM22.4488 43.576C23.3368 43.576 24.1128 43.752 24.7768 44.104C25.4408 44.456 25.9528 44.952 26.3128 45.592C26.6808 46.224 26.8648 46.956 26.8648 47.788C26.8648 48.612 26.6808 49.344 26.3128 49.984C25.9528 50.624 25.4368 51.12 24.7648 51.472C24.1008 51.824 23.3288 52 22.4488 52H19.2928V43.576H22.4488ZM22.3168 50.224C23.0928 50.224 23.6968 50.012 24.1288 49.588C24.5608 49.164 24.7768 48.564 24.7768 47.788C24.7768 47.012 24.5608 46.408 24.1288 45.976C23.6968 45.544 23.0928 45.328 22.3168 45.328H21.3448V50.224H22.3168ZM29.0436 44.608C28.6836 44.608 28.3876 44.504 28.1556 44.296C27.9316 44.08 27.8196 43.816 27.8196 43.504C27.8196 43.184 27.9316 42.92 28.1556 42.712C28.3876 42.496 28.6836 42.388 29.0436 42.388C29.3956 42.388 29.6836 42.496 29.9076 42.712C30.1396 42.92 30.2556 43.184 30.2556 43.504C30.2556 43.816 30.1396 44.08 29.9076 44.296C29.6836 44.504 29.3956 44.608 29.0436 44.608ZM30.0636 45.304V52H28.0116V45.304H30.0636ZM34.2746 52.096C33.6906 52.096 33.1706 51.996 32.7146 51.796C32.2586 51.596 31.8986 51.324 31.6346 50.98C31.3706 50.628 31.2226 50.236 31.1906 49.804H33.2186C33.2426 50.036 33.3506 50.224 33.5426 50.368C33.7346 50.512 33.9706 50.584 34.2506 50.584C34.5066 50.584 34.7026 50.536 34.8386 50.44C34.9826 50.336 35.0546 50.204 35.0546 50.044C35.0546 49.852 34.9546 49.712 34.7546 49.624C34.5546 49.528 34.2306 49.424 33.7826 49.312C33.3026 49.2 32.9026 49.084 32.5826 48.964C32.2626 48.836 31.9866 48.64 31.7546 48.376C31.5226 48.104 31.4066 47.74 31.4066 47.284C31.4066 46.9 31.5106 46.552 31.7186 46.24C31.9346 45.92 32.2466 45.668 32.6546 45.484C33.0706 45.3 33.5626 45.208 34.1306 45.208C34.9706 45.208 35.6306 45.416 36.1106 45.832C36.5986 46.248 36.8786 46.8 36.9506 47.488H35.0546C35.0226 47.256 34.9186 47.072 34.7426 46.936C34.5746 46.8 34.3506 46.732 34.0706 46.732C33.8306 46.732 33.6466 46.78 33.5186 46.876C33.3906 46.964 33.3266 47.088 33.3266 47.248C33.3266 47.44 33.4266 47.584 33.6266 47.68C33.8346 47.776 34.1546 47.872 34.5866 47.968C35.0826 48.096 35.4866 48.224 35.7986 48.352C36.1106 48.472 36.3826 48.672 36.6146 48.952C36.8546 49.224 36.9786 49.592 36.9866 50.056C36.9866 50.448 36.8746 50.8 36.6506 51.112C36.4346 51.416 36.1186 51.656 35.7026 51.832C35.2946 52.008 34.8186 52.096 34.2746 52.096ZM37.834 48.652C37.834 47.956 37.974 47.348 38.254 46.828C38.542 46.308 38.938 45.908 39.442 45.628C39.954 45.348 40.538 45.208 41.194 45.208C42.034 45.208 42.734 45.428 43.294 45.868C43.862 46.308 44.234 46.928 44.41 47.728H42.226C42.042 47.216 41.686 46.96 41.158 46.96C40.782 46.96 40.482 47.108 40.258 47.404C40.034 47.692 39.922 48.108 39.922 48.652C39.922 49.196 40.034 49.616 40.258 49.912C40.482 50.2 40.782 50.344 41.158 50.344C41.686 50.344 42.042 50.088 42.226 49.576H44.41C44.234 50.36 43.862 50.976 43.294 51.424C42.726 51.872 42.026 52.096 41.194 52.096C40.538 52.096 39.954 51.956 39.442 51.676C38.938 51.396 38.542 50.996 38.254 50.476C37.974 49.956 37.834 49.348 37.834 48.652ZM48.5557 52.096C47.8997 52.096 47.3077 51.956 46.7797 51.676C46.2597 51.396 45.8477 50.996 45.5437 50.476C45.2477 49.956 45.0997 49.348 45.0997 48.652C45.0997 47.964 45.2517 47.36 45.5557 46.84C45.8597 46.312 46.2757 45.908 46.8037 45.628C47.3317 45.348 47.9237 45.208 48.5797 45.208C49.2357 45.208 49.8277 45.348 50.3557 45.628C50.8837 45.908 51.2997 46.312 51.6037 46.84C51.9077 47.36 52.0597 47.964 52.0597 48.652C52.0597 49.34 51.9037 49.948 51.5917 50.476C51.2877 50.996 50.8677 51.396 50.3317 51.676C49.8037 51.956 49.2117 52.096 48.5557 52.096ZM48.5557 50.32C48.9477 50.32 49.2797 50.176 49.5517 49.888C49.8317 49.6 49.9717 49.188 49.9717 48.652C49.9717 48.116 49.8357 47.704 49.5637 47.416C49.2997 47.128 48.9717 46.984 48.5797 46.984C48.1797 46.984 47.8477 47.128 47.5837 47.416C47.3197 47.696 47.1877 48.108 47.1877 48.652C47.1877 49.188 47.3157 49.6 47.5717 49.888C47.8357 50.176 48.1637 50.32 48.5557 50.32ZM59.7603 45.304V52H57.7083V51.088C57.5003 51.384 57.2163 51.624 56.8563 51.808C56.5043 51.984 56.1123 52.072 55.6803 52.072C55.1683 52.072 54.7163 51.96 54.3243 51.736C53.9323 51.504 53.6283 51.172 53.4123 50.74C53.1963 50.308 53.0883 49.8 53.0883 49.216V45.304H55.1283V48.94C55.1283 49.388 55.2443 49.736 55.4763 49.984C55.7083 50.232 56.0203 50.356 56.4123 50.356C56.8123 50.356 57.1283 50.232 57.3603 49.984C57.5923 49.736 57.7083 49.388 57.7083 48.94V45.304H59.7603ZM65.3142 45.232C66.0982 45.232 66.7222 45.488 67.1862 46C67.6582 46.504 67.8942 47.2 67.8942 48.088V52H65.8542V48.364C65.8542 47.916 65.7382 47.568 65.5062 47.32C65.2742 47.072 64.9622 46.948 64.5702 46.948C64.1782 46.948 63.8662 47.072 63.6342 47.32C63.4022 47.568 63.2862 47.916 63.2862 48.364V52H61.2342V45.304H63.2862V46.192C63.4942 45.896 63.7742 45.664 64.1262 45.496C64.4782 45.32 64.8742 45.232 65.3142 45.232ZM73.0522 50.26V52H72.0082C71.2642 52 70.6842 51.82 70.2682 51.46C69.8522 51.092 69.6442 50.496 69.6442 49.672V47.008H68.8282V45.304H69.6442V43.672H71.6962V45.304H73.0402V47.008H71.6962V49.696C71.6962 49.896 71.7442 50.04 71.8402 50.128C71.9362 50.216 72.0962 50.26 72.3202 50.26H73.0522Z" fill="white"/>
</svg>
