<svg width="20" height="16" viewBox="0 0 20 16" fill="none" xmlns="http://www.w3.org/2000/svg">
<path d="M16.6498 2.34359C16.5235 2.14725 16.3492 1.98563 16.1431 1.87369C15.9369 1.76175 15.7056 1.70311 15.4705 1.7032H12.7671V1.22442C12.7671 0.899736 12.6368 0.588351 12.405 0.358766C12.1731 0.12918 11.8586 0.000200432 11.5307 0.000200432H0.968013C0.73298 -0.00460021 0.504484 0.076982 0.326636 0.229198C0.148787 0.381413 0.0341975 0.593468 0.00498825 0.824426C-0.008452 0.951996 0.00534146 1.08094 0.0454739 1.20289C0.0856064 1.32484 0.151181 1.43708 0.237946 1.53232C0.32471 1.62756 0.430726 1.70368 0.549116 1.75574C0.667506 1.8078 0.795626 1.83463 0.925167 1.83451H4.95681C5.13136 1.82987 5.30351 1.87551 5.45237 1.96588C5.60122 2.05625 5.72038 2.18746 5.79538 2.34359C5.86062 2.48362 5.88931 2.63764 5.87882 2.7915C5.86833 2.94537 5.81899 3.09417 5.73533 3.22425C5.65167 3.35433 5.53636 3.46153 5.39999 3.53603C5.26361 3.61053 5.11053 3.64993 4.95477 3.65063H0.968013C0.731731 3.64605 0.502194 3.72876 0.324152 3.88263C0.146111 4.03651 0.0323285 4.25052 0.00498825 4.48294C-0.008452 4.61051 0.00534146 4.73945 0.0454739 4.8614C0.0856064 4.98335 0.151181 5.09559 0.237946 5.19083C0.32471 5.28607 0.430726 5.36219 0.549116 5.41425C0.667506 5.46631 0.795626 5.49315 0.925167 5.49302H2.84102C3.07535 5.48923 3.30285 5.57127 3.47983 5.72339C3.65682 5.87551 3.77082 6.08699 3.79996 6.31725C3.8134 6.44482 3.79961 6.57376 3.75947 6.69571C3.71934 6.81766 3.65377 6.9299 3.567 7.02514C3.48024 7.12038 3.37422 7.1965 3.25583 7.24856C3.13744 7.30062 3.00932 7.32745 2.87978 7.32733H1.02514C0.790805 7.32353 0.56331 7.40557 0.386325 7.55769C0.20934 7.70982 0.0953364 7.9213 0.0661975 8.15155C0.0527572 8.27912 0.0665507 8.40806 0.106683 8.53002C0.146816 8.65197 0.212391 8.7642 0.299155 8.85944C0.385919 8.95469 0.491935 9.0308 0.610325 9.08286C0.728715 9.13492 0.856836 9.16176 0.986376 9.16163H1.71273V12.7171C1.71273 13.0627 1.85137 13.3941 2.09817 13.6385C2.34497 13.8828 2.6797 14.0201 3.02872 14.0201H3.92646C4.13948 14.6043 4.5305 15.1086 5.04548 15.4632C5.56046 15.8179 6.17398 16.0054 6.80125 15.9999C7.42628 15.9969 8.03564 15.806 8.54865 15.4524C9.06165 15.0989 9.45409 14.5994 9.674 14.0201H12.1734C12.3867 14.6042 12.7777 15.1082 13.2927 15.4629C13.8076 15.8175 14.421 16.0051 15.0482 15.9999C15.6732 15.9969 16.2826 15.806 16.7956 15.4524C17.3086 15.0989 17.701 14.5994 17.9209 14.0201H18.684C19.033 14.0201 19.3678 13.8828 19.6146 13.6385C19.8614 13.3941 20 13.0627 20 12.7171V8.16165C19.9999 7.76657 19.8859 7.37973 19.6715 7.04652L16.6498 2.34359ZM6.80125 14.1009C6.49712 14.1004 6.20556 13.9807 5.99032 13.7679C5.77507 13.5552 5.65364 13.2667 5.65256 12.9656C5.6599 12.6672 5.78359 12.3832 5.99772 12.173C6.21185 11.9629 6.4998 11.843 6.80125 11.8383C6.95604 11.8319 7.11054 11.8565 7.25548 11.9107C7.40041 11.9649 7.53277 12.0475 7.6446 12.1537C7.75644 12.2598 7.84542 12.3873 7.90622 12.5284C7.96701 12.6695 7.99835 12.8213 7.99835 12.9747C7.99835 13.1281 7.96701 13.2799 7.90622 13.421C7.84542 13.5621 7.75644 13.6895 7.6446 13.7957C7.53277 13.9018 7.40041 13.9845 7.25548 14.0387C7.11054 14.0929 6.95604 14.1175 6.80125 14.111V14.1009ZM15.0502 14.1009C14.7443 14.0999 14.4512 13.9791 14.2348 13.7649C14.0185 13.5507 13.8965 13.2604 13.8954 12.9575C13.9001 12.6557 14.0233 12.3676 14.2389 12.1542C14.4544 11.9408 14.7454 11.8188 15.0502 11.8141C15.3562 11.8152 15.6493 11.936 15.8656 12.1502C16.0819 12.3644 16.204 12.6546 16.205 12.9575C16.2024 13.2611 16.0799 13.5515 15.8636 13.7667C15.6474 13.9819 15.3547 14.1048 15.0482 14.109L15.0502 14.1009ZM17.2619 7.48086H13.1915C13.1239 7.48086 13.059 7.45426 13.0112 7.4069C12.9633 7.35954 12.9365 7.29531 12.9365 7.22834V3.90517C12.9365 3.8382 12.9633 3.77397 13.0112 3.72661C13.059 3.67926 13.1239 3.65265 13.1915 3.65265H15.1257C15.1685 3.65264 15.2106 3.66339 15.2481 3.68388C15.2856 3.70437 15.3172 3.73394 15.3399 3.76982L17.4761 7.09501C17.5 7.13308 17.5133 7.17676 17.5145 7.22158C17.5157 7.26639 17.5049 7.31072 17.4831 7.35C17.4612 7.38928 17.4293 7.42211 17.3904 7.44511C17.3515 7.46811 17.3072 7.48045 17.2619 7.48086Z" fill="#49A09D"/>
</svg>
