<svg width="184" height="183" fill="none" xmlns="http://www.w3.org/2000/svg"><g clip-path="url(#a)"><path d="M92.314 3.56a88.834 88.834 0 0 0-34.82 7.304A88.423 88.423 0 0 0 28.387 31.23 87.864 87.864 0 0 0 9.713 61.36a87.503 87.503 0 0 0 3.862 69.232 88.007 88.007 0 0 0 21.911 27.889 88.546 88.546 0 0 0 31.192 17.039 88.862 88.862 0 0 0 35.42 3.429 89.757 89.757 0 0 0 15.202-2.99 88.21 88.21 0 0 0 18.456-7.677 89.288 89.288 0 0 0 11.859-7.912 87.9 87.9 0 0 0 29.983-44.466 87.476 87.476 0 0 0-1.506-53.518c-6.083-17.25-17.421-32.186-32.437-42.73A88.743 88.743 0 0 0 92.315 3.56Z" fill="#FCEFF2"/><path d="M149.253 147.627c8.7 0 15.752-6.749 15.752-15.075s-7.052-15.075-15.752-15.075c-8.7 0-15.752 6.749-15.752 15.075s7.052 15.075 15.752 15.075Z" fill="#EB92A7"/><path d="M165.005 147.627c4.35 0 7.876-3.377 7.876-7.543s-3.526-7.543-7.876-7.543c-4.349 0-7.876 3.377-7.876 7.543s3.527 7.543 7.876 7.543ZM133.501 147.627c5.347 0 9.682-4.146 9.682-9.261 0-5.115-4.335-9.262-9.682-9.262s-9.682 4.147-9.682 9.262 4.335 9.261 9.682 9.261Z" fill="#EB92A7"/><path d="M183.293 148.81h-86.39s34.287-13.535 86.39 0ZM37.765 147.527c9.48 0 17.166-7.354 17.166-16.425 0-9.072-7.686-16.426-17.166-16.426s-17.166 7.354-17.166 16.426c0 9.071 7.685 16.425 17.166 16.425Z" fill="#EB92A7"/><path d="M54.92 147.527c4.74 0 8.582-3.677 8.582-8.213 0-4.535-3.842-8.212-8.583-8.212-4.74 0-8.582 3.677-8.582 8.212 0 4.536 3.842 8.213 8.582 8.213ZM20.599 147.516c5.825 0 10.546-4.516 10.546-10.087 0-5.572-4.721-10.088-10.546-10.088-5.825 0-10.546 4.516-10.546 10.088 0 5.571 4.721 10.087 10.546 10.087Z" fill="#EB92A7"/><path d="M96.88 148.81H2.772s37.361-14.74 94.11 0Z" fill="#EB92A7"/><path d="M161.381 68.435c5.813 0 10.524-4.166 10.524-9.306 0-5.14-4.711-9.306-10.524-9.306-5.812 0-10.523 4.166-10.523 9.306 0 5.14 4.711 9.306 10.523 9.306Z" fill="#F3BDCA"/><path d="M150.858 68.435c2.906 0 5.262-2.083 5.262-4.653 0-2.57-2.356-4.653-5.262-4.653-2.907 0-5.262 2.083-5.262 4.653 0 2.57 2.355 4.653 5.262 4.653ZM171.917 68.424c3.569 0 6.462-2.558 6.462-5.713 0-3.155-2.893-5.713-6.462-5.713-3.57 0-6.463 2.558-6.463 5.713 0 3.155 2.893 5.713 6.463 5.713Z" fill="#F3BDCA"/><path d="M131.65 69.763H184s-20.779-10.255-52.35 0ZM32.29 39.512c6.506 0 11.78-4.656 11.78-10.4 0-5.743-5.274-10.4-11.78-10.4-6.506 0-11.78 4.657-11.78 10.4 0 5.744 5.274 10.4 11.78 10.4Z" fill="#F3BDCA"/><path d="M44.059 39.512c3.253 0 5.89-2.328 5.89-5.2 0-2.871-2.637-5.2-5.89-5.2-3.253 0-5.89 2.329-5.89 5.2 0 2.872 2.637 5.2 5.89 5.2ZM20.51 39.523c3.996 0 7.236-2.862 7.236-6.393 0-3.532-3.24-6.394-7.237-6.394-3.996 0-7.236 2.863-7.236 6.394 0 3.53 3.24 6.393 7.236 6.393Z" fill="#F3BDCA"/><path d="M64.58 40.327H0s25.637-9.329 64.58 0Z" fill="#F3BDCA"/><path d="M102.367 52.936h-71.76c-.923 0-1.672.745-1.672 1.663v94.022c0 .918.749 1.662 1.672 1.662h71.76c.923 0 1.672-.744 1.672-1.662V54.599c0-.918-.749-1.663-1.672-1.663Z" fill="#fff"/><path d="M65.073 150.283h37.305c.443 0 .869-.175 1.182-.487.314-.312.49-.734.49-1.175V54.588a1.66 1.66 0 0 0-.494-1.169 1.677 1.677 0 0 0-1.178-.483H83.72l-18.647 97.347Z" fill="#F9F9F9"/><path d="M46.168 62.555h-6.361a.996.996 0 0 0-.999.993v6.327c0 .548.447.993.999.993h6.361a.996.996 0 0 0 .999-.993v-6.327a.996.996 0 0 0-.999-.993Z" fill="#fff"/><path d="M46.168 72.53h-6.361a2.666 2.666 0 0 1-1.88-.774 2.637 2.637 0 0 1-.78-1.87v-6.282c0-.703.28-1.377.779-1.874a2.678 2.678 0 0 1 1.88-.782h6.362a2.678 2.678 0 0 1 1.881.782c.498.497.778 1.171.778 1.874v6.326a2.638 2.638 0 0 1-.794 1.842 2.667 2.667 0 0 1-1.865.758Zm-5.688-3.347h5.015v-4.966H40.48v4.966ZM94.177 68.368h-41.77c-.447 0-.875-.176-1.19-.49a1.67 1.67 0 0 1 0-2.367c.315-.314.743-.49 1.19-.49h41.77c.446 0 .874.176 1.19.49a1.67 1.67 0 0 1 0 2.367c-.316.314-.744.49-1.19.49Z" fill="#727272"/><path d="M46.168 83.5h-6.361a.996.996 0 0 0-.999.992v6.327c0 .549.447.993.999.993h6.361a.996.996 0 0 0 .999-.993v-6.327a.996.996 0 0 0-.999-.993Z" fill="#fff"/><path d="M46.168 93.464h-6.361a2.678 2.678 0 0 1-1.881-.782 2.648 2.648 0 0 1-.778-1.874v-6.327c.003-.7.284-1.371.782-1.866a2.677 2.677 0 0 1 1.877-.778h6.361a2.677 2.677 0 0 1 1.877.778c.498.495.78 1.166.782 1.866v6.327c0 .703-.28 1.376-.778 1.874a2.678 2.678 0 0 1-1.88.782Zm-5.688-3.348h5.015v-4.965H40.48v4.965ZM93.346 89.268h-40.12c-1.38 0-2.491-.747-2.491-1.662 0-.915 1.122-1.663 2.49-1.663h40.121c1.38 0 2.491.748 2.491 1.663s-1.11 1.662-2.49 1.662Z" fill="#727272"/><path d="M46.168 104.433h-6.361a.995.995 0 0 0-.999.993v6.327c0 .548.447.993.999.993h6.361a.996.996 0 0 0 .999-.993v-6.327a.995.995 0 0 0-.999-.993Z" fill="#fff"/><path d="M46.168 114.408h-6.361a2.676 2.676 0 0 1-1.881-.781 2.65 2.65 0 0 1-.778-1.874v-6.327c0-.703.28-1.376.778-1.874a2.677 2.677 0 0 1 1.88-.782h6.362a2.677 2.677 0 0 1 1.881.782c.498.498.778 1.171.778 1.874v6.327a2.65 2.65 0 0 1-.778 1.874 2.676 2.676 0 0 1-1.88.781Zm-5.688-3.347h5.015v-4.966H40.48v4.966ZM93.122 110.246h-39.47c-1.616 0-2.917-.736-2.917-1.662 0-.926 1.301-1.652 2.917-1.652h39.47c1.604 0 2.917.737 2.917 1.652 0 .915-1.301 1.662-2.917 1.662Z" fill="#727272"/><path d="M46.168 125.377h-6.361a.996.996 0 0 0-.999.993v6.327c0 .549.447.993.999.993h6.361a.995.995 0 0 0 .999-.993v-6.327a.996.996 0 0 0-.999-.993Z" fill="#fff"/><path d="M46.168 135.342h-6.361a2.677 2.677 0 0 1-1.881-.782 2.648 2.648 0 0 1-.778-1.874v-6.316c0-.702.28-1.376.778-1.874a2.68 2.68 0 0 1 1.88-.781h6.362a2.68 2.68 0 0 1 1.881.781 2.65 2.65 0 0 1 .778 1.874v6.316c0 .703-.28 1.376-.778 1.874a2.677 2.677 0 0 1-1.88.782Zm-5.688-3.348h5.015v-4.999H40.48v4.999ZM94.177 131.191h-41.77c-.447 0-.875-.176-1.19-.49a1.67 1.67 0 0 1 0-2.367 1.688 1.688 0 0 1 1.19-.491h41.77c.446 0 .874.177 1.19.491a1.666 1.666 0 0 1 0 2.367c-.316.314-.744.49-1.19.49Z" fill="#727272"/><path d="m9.165 76.079 2.972-1.57a1.95 1.95 0 0 1 1.48-.14c.491.149.903.487 1.145.94l19.596 36.7-6.401 3.381L8.355 78.68a1.921 1.921 0 0 1 .81-2.601Z" fill="#DB284E"/><path d="m35.083 121.07-7.124-5.702 6.362-3.359.762 9.061Z" fill="#FFB769"/><path d="m32.099 118.682 2.659-1.395.325 3.783-2.984-2.388Z" fill="#727272"/><path opacity=".2" d="m35.274 120.959-.763-9.061-19.6-36.7a1.94 1.94 0 0 0-2.57-.792l-1.301.68 24.234 45.873Z" fill="#727272"/><path d="M77.56 49.51v-1.84a.866.866 0 0 0-.547-.808.879.879 0 0 0-.339-.063H57.051a.879.879 0 0 0-.818.535.866.866 0 0 0-.068.335v1.841h-1.526a.889.889 0 0 0-.627.259.88.88 0 0 0-.26.623v5.724a.876.876 0 0 0 .548.815.89.89 0 0 0 .339.067h24.447a.89.89 0 0 0 .82-.544.876.876 0 0 0 .067-.338v-5.724a.88.88 0 0 0-.26-.623.889.889 0 0 0-.627-.259h-1.525ZM112.554 69.674a16.43 16.43 0 0 0-4.432 7.947 16.37 16.37 0 0 0 .488 9.075 16.447 16.447 0 0 0 5.259 7.432 16.58 16.58 0 0 0 8.424 3.52l2.03 4.464 2.042-4.464a16.606 16.606 0 0 0 7.308-2.74 16.483 16.483 0 0 0 5.229-5.769 16.377 16.377 0 0 0 .291-15.092 16.477 16.477 0 0 0-5.003-5.964 16.602 16.602 0 0 0-7.196-3.017 16.638 16.638 0 0 0-7.787.6 16.566 16.566 0 0 0-6.642 4.086l-.011-.078Z" fill="#DB284E"/><path d="M118.669 65.835a16.598 16.598 0 0 1 11.778 3.662 16.423 16.423 0 0 1 5.95 10.752 16.377 16.377 0 0 1-3.19 11.856 16.553 16.553 0 0 1-10.555 6.358l1.66 3.671 2.042-4.463a16.602 16.602 0 0 0 6.439-2.316 16.492 16.492 0 0 0 4.943-4.71 16.373 16.373 0 0 0-.525-19.253 16.507 16.507 0 0 0-5.194-4.437 16.62 16.62 0 0 0-13.348-1.12Z" fill="#C22046"/><path d="M124.985 87.327h-1.907a.953.953 0 0 1-.841-.993l-.853-15.142c0-.659.415-1.206.942-1.116l4.051.558a1.042 1.042 0 0 1 .74 1.182l-1.29 14.585a.938.938 0 0 1-.842.926ZM124.155 92.582c.998 0 1.806-.924 1.806-2.064 0-1.14-.808-2.064-1.806-2.064-.997 0-1.806.924-1.806 2.064 0 1.14.809 2.064 1.806 2.064Z" fill="#fff"/><path d="M159.463 116.975h-17.592l-6.328-10.288h17.143a3.52 3.52 0 0 1 1.711.444c.522.291.961.71 1.274 1.218l4.488 7.354a.832.832 0 0 1-.279 1.149.854.854 0 0 1-.417.123Z" fill="#E0AC69"/><path d="m140.184 106.68-61.247-.085a1.656 1.656 0 0 0-1.663 1.65l-.057 40.293a1.657 1.657 0 0 0 1.658 1.654l61.248.085a1.655 1.655 0 0 0 1.662-1.649l.057-40.294a1.657 1.657 0 0 0-1.658-1.654Z" fill="#E0AC69"/><path d="M96.275 106.664h56.445c.595 0 1.166.236 1.587.654.42.419.657.986.657 1.578v39.167a2.23 2.23 0 0 1-.657 1.578 2.253 2.253 0 0 1-1.587.653H96.275v-43.63Z" fill="#F7CD97"/><path d="M115.135 128.323c-.651-.201-1.537-.457-1.537-.747 0-.291.628-.737 1.357-.737s1.346.346 1.346.737v.312h1.122v-.312c0-1.005-1.122-1.819-2.479-1.819-1.358 0-2.491.814-2.491 1.819 0 1.004 1.347 1.517 2.525 1.852.684.201 1.537.446 1.537.747 0 .302-.752.737-1.582.737-.831 0-1.571-.357-1.571-.737v-.312h-1.122v.312c0 1.016 1.189 1.819 2.704 1.819 1.515 0 2.704-.792 2.704-1.807 0-1.016-1.324-1.518-2.513-1.864ZM121.092 125.801a3.167 3.167 0 0 0-2.341.845 3.118 3.118 0 0 0-.988 2.274c0 .426.088.848.257 1.239.17.391.419.743.731 1.035a3.149 3.149 0 0 0 2.341.845 3.213 3.213 0 0 0 2.659-1.239l.202-.256-.92-.636-.179.234a2.114 2.114 0 0 1-.782.62 2.145 2.145 0 0 1-.98.195 2.031 2.031 0 0 1-1.225-.421 2.01 2.01 0 0 1-.716-1.075h5.083v-.535a3.12 3.12 0 0 0-.913-2.209 3.152 3.152 0 0 0-2.218-.916h-.011Zm-1.941 2.578a2 2 0 0 1 1.941-1.495 2.027 2.027 0 0 1 1.975 1.495h-3.916Z" fill="#231F20"/><path d="M126.433 124.34h-1.122v1.461h-1.044v1.116h1.044v3.348c0 1.116.864 1.83 2.356 1.841h.561v-1.116h-.561c-.808 0-1.223-.268-1.223-.77v-3.347h1.795v-1.116h-1.795l-.011-1.417Z" fill="#DB284E"/><path d="M131.392 125.812c-.622 0-1.229.184-1.746.527a3.108 3.108 0 0 0-1.335 3.207c.121.607.42 1.163.859 1.6a3.15 3.15 0 0 0 4.834-.473 3.114 3.114 0 0 0-.391-3.945 3.15 3.15 0 0 0-2.221-.916Zm0 1.116a2.051 2.051 0 0 1 1.929 1.232 2.032 2.032 0 0 1-.421 2.242 2.065 2.065 0 0 1-2.246.456 2.038 2.038 0 0 1-1.271-1.899 2.013 2.013 0 0 1 .583-1.427 2.037 2.037 0 0 1 1.426-.604ZM144.025 125.835c-.621 0-1.229.183-1.745.526a3.126 3.126 0 0 0-1.336 3.208c.121.606.42 1.163.86 1.599a3.15 3.15 0 0 0 4.833-.473 3.114 3.114 0 0 0 .529-1.736 3.128 3.128 0 0 0-.923-2.206 3.164 3.164 0 0 0-2.218-.918Zm0 5.155a2.064 2.064 0 0 1-1.151-.328 2.044 2.044 0 0 1-.9-2.096c.077-.398.271-.765.557-1.054a2.058 2.058 0 0 1 2.246-.45 2.042 2.042 0 0 1 1.267 1.897 2.032 2.032 0 0 1-1.243 1.873 2.027 2.027 0 0 1-.776.158ZM136.474 128.401v-5.155h-1.133l-.011 8.815h1.133v-2.577l.011-1.083Z" fill="#DB284E"/><path d="m140.412 126.772 1.1-.937-1.683-.011-3.119 2.577v1.083l2.95 2.455.158.122h1.694l-3.714-3.113 2.614-2.176ZM104.05 129.104v-2.544c.881 0 1.727-.343 2.356-.957a3.336 3.336 0 0 0 1.01-2.323h2.535a5.832 5.832 0 0 1-1.726 4.116 5.895 5.895 0 0 1-4.142 1.708" fill="#DB284E"/><path d="m107.345 129.419-.004 2.544 2.558.004.004-2.544-2.558-.004Z" fill="#231F20"/><path d="m90.179 106.611-7.473-.01-.006 4.374 7.472.01.007-4.374ZM90.328 145.697h-7.472v4.374h7.472v-4.374Z" fill="#F1C27D"/><path d="M71.693 116.908h17.85a.819.819 0 0 0 .707-.391l6.126-9.886H78.323a1.884 1.884 0 0 0-1.604.893l-5.397 8.714a.435.435 0 0 0 .37.67Z" fill="#F1C27D"/><path fill="#F7CD97" d="M103.04 122.976h47.104v11.712H103.04z"/><g clip-path="url(#b)"><path d="m108.271 125.422.143-.029c-.214 1.398-.425 3.167-.405 3.725.01.29.222.499.505.499a.59.59 0 0 0 .258-.062c1.282-.622 2.075-.822 3.389-1.154.309-.076.39-.336.365-.534-.029-.23-.209-.464-.496-.464a.517.517 0 0 0-.136.017c-1.125.284-1.879.486-2.814.882.02-.218.047-.469.079-.748l.51-.21c.875-.361 1.454-.6 2.493-.882.308-.084.385-.346.36-.546-.031-.226-.208-.455-.487-.455a.59.59 0 0 0-.145.02c-1.052.287-1.635.528-2.517.893l-.067.027c.077-.546.154-1.07.225-1.481.742-.322 1.427-.49 2.511-.703a.442.442 0 0 0 .374-.499c-.023-.24-.215-.495-.522-.495a.578.578 0 0 0-.11.011c-.854.169-1.516.32-2.168.558a.408.408 0 0 0-.06-.077.556.556 0 0 0-.388-.157.475.475 0 0 0-.481.368l-.035.126v.005c-.026.092-.059.206-.077.291-.132.038-.612.122-1.078.202l-.023.004a33.62 33.62 0 0 0-1.558.289c.011-.3.022-.563.034-.806.006-.146.01-.296.013-.442v-.085c.455-.066.906-.136 1.45-.22l.013-.002c.593-.091 1.264-.195 1.917-.287a.414.414 0 0 0 .28-.185.523.523 0 0 0 .072-.411c-.06-.219-.243-.348-.488-.348a.822.822 0 0 0-.099.006c-.617.088-1.245.185-1.851.279l-.028.004c-.401.062-.795.123-1.196.183.021-.139.051-.277.09-.413a.431.431 0 0 0 .016-.211.43.43 0 0 0-.084-.195.526.526 0 0 0-.416-.198.46.46 0 0 0-.457.342c-.076.266-.124.54-.146.816-.558.076-1.055.137-1.52.187-.283.029-.476.224-.476.483 0 .236.222.512.497.483a50.63 50.63 0 0 0 1.452-.175l-.008.23c-.017.358-.034.737-.051 1.233-.184.058-.351.115-.513.174-.212.077-.364.336-.339.573.021.197.154.332.36.362.118.02.239.017.356-.008a1.23 1.23 0 0 0 .097-.022l-.013.384c-.035.992-.071 2.017-.128 3.025a.435.435 0 0 0 .114.335.493.493 0 0 0 .351.141c.24 0 .491-.16.508-.465.058-1.017.094-2.046.129-3.04l.022-.636c.536-.137 1.731-.377 2.306-.493l.091-.019ZM130.522 127.274c-.029-.23-.208-.465-.496-.465a.626.626 0 0 0-.136.018c-1.181.298-2.032.525-3.024.941.016-.215.039-.466.07-.749l.022-.008c.304-.124.558-.23.726-.303.634-.269.983-.417 1.918-.672.309-.084.386-.345.359-.546-.03-.226-.207-.454-.486-.454a.58.58 0 0 0-.144.019c-.949.259-1.302.409-1.942.68l-.308.13c.077-.547.162-1.107.245-1.58.325-.136.677-.23 1.009-.314.453-.113.733-.16 1.058-.215h.004c.167-.029.375-.064.64-.116a.441.441 0 0 0 .376-.498c-.023-.241-.215-.499-.524-.499a.564.564 0 0 0-.108.01c-.264.051-.521.094-.772.135-.501.083-1.022.169-1.521.322a.448.448 0 0 0-.108-.173.542.542 0 0 0-.385-.156c-.189 0-.415.096-.482.367a8.255 8.255 0 0 0-.093.441 3.915 3.915 0 0 0-.591.449.447.447 0 0 0-.129.514.563.563 0 0 0 .495.349c-.22 1.401-.429 3.095-.359 3.669.036.29.245.492.509.492a.582.582 0 0 0 .253-.061c1.271-.617 2.233-.859 3.563-1.195.306-.076.386-.334.361-.532ZM116.68 129.728c.057-.693.143-1.501.226-2.282v-.017c.058-.548.118-1.113.167-1.625.052-.558.11-1.161.183-1.785l.02-.173c.034-.3.069-.611.144-.906a.417.417 0 0 0-.075-.364.515.515 0 0 0-.4-.188.445.445 0 0 0-.399.227c-.193.333-.364.675-.53 1.005-.105.208-.223.444-.342.666a15.79 15.79 0 0 1-.589 1.03 4.69 4.69 0 0 1-.167.255 23.167 23.167 0 0 1-.439-1.337 23.29 23.29 0 0 0-.287-.914l-.135-.417a1.263 1.263 0 0 0-.017-.11l-.002-.006a1.38 1.38 0 0 0-.053-.134.45.45 0 0 0-.407-.225.512.512 0 0 0-.237.057.418.418 0 0 0-.136.111.405.405 0 0 0-.116.23 1.97 1.97 0 0 0-.052.404c-.004.062-.008.125-.015.177a19.26 19.26 0 0 0-.148 1.854c-.046 1.18-.088 2.78-.109 4.175a.398.398 0 0 0 .115.304.486.486 0 0 0 .35.137c.234 0 .474-.151.479-.438.01-.718.035-1.547.058-2.349.016-.551.029-1.006.038-1.428l.012-.384c.208.569.454.988.774 1.315.089.084.209.13.332.126a.438.438 0 0 0 .251-.073c.437-.312.733-.813.998-1.307l-.038.402a145.78 145.78 0 0 1-.162 1.58l-.003.025c-.086.813-.175 1.653-.235 2.388a.399.399 0 0 0 .015.161.401.401 0 0 0 .081.14.445.445 0 0 0 .333.133c.241 0 .495-.151.517-.44ZM118.776 128.593c.202-.63.389-1.267.53-1.755.507-.258.971-.49 1.416-.71.278.915.613 1.812 1.003 2.686.07.157.244.259.444.259.091 0 .18-.023.26-.067.236-.137.311-.413.188-.686a21.089 21.089 0 0 1-.964-2.644c.253-.121.48-.23.694-.329.207-.097.306-.29.258-.503a.558.558 0 0 0-.529-.435.536.536 0 0 0-.229.052c-.157.073-.316.148-.476.225-.12-.444-.239-.921-.386-1.54a16.473 16.473 0 0 0-.164-.641 3.889 3.889 0 0 1-.066-.277l-.005-.024a.484.484 0 0 0-.225-.621.552.552 0 0 0-.261-.071.42.42 0 0 0-.251.08.656.656 0 0 0-.259.384l-.018-.005-.021.094c-.461 1.245-.83 2.533-1.186 3.781l-.084.29-.036.019a.57.57 0 0 0-.088.038 1.656 1.656 0 0 0-.094.053l-.086.048-.089.045.003.009a.437.437 0 0 0-.16.471.573.573 0 0 0 .252.345c-.13.44-.242.806-.354 1.151a.453.453 0 0 0 .059.422.534.534 0 0 0 .439.209.493.493 0 0 0 .485-.353Zm.912-3.086c.121-.422.28-.966.456-1.53l.009.039c.057.243.121.519.193.791l.089.332c-.237.114-.481.234-.747.368Z" fill="#D7244F"/><path d="M125.117 127.78a.513.513 0 0 0-.248.065c-.421.228-.76.373-1.101.47-.177.051-.36.078-.544.081l-.018-.003c-.026-.14.01-.34.038-.503.05-.281.108-.599.154-.921.271-1.848.414-3.331.469-4.811a.468.468 0 0 0-.126-.35.504.504 0 0 0-.37-.148c-.252 0-.514.168-.526.49-.071 1.916-.239 3.557-.529 5.164l-.031.163-.004.02c-.116.601-.263 1.349.335 1.747.174.115.385.172.642.172.234-.007.466-.039.692-.097.51-.117.989-.354 1.428-.593a.455.455 0 0 0 .24-.537c-.05-.202-.24-.409-.501-.409ZM142.677 128.1h-.039c-.415 0-.639.331-.646.658-.008.314.185.662.626.681h.034c.417 0 .643-.331.651-.658.006-.314-.187-.662-.626-.681ZM137.568 124.371c-.14-.998-.755-1.852-1.604-2.231a2.275 2.275 0 0 0-.919-.2c-.595 0-1.113.246-1.459.691a2.22 2.22 0 0 0-.255.402.518.518 0 0 0 .025.522.587.587 0 0 0 .327.249 45.691 45.691 0 0 0-.017 2.318c.01.549.031 1.199.109 1.856l.013.113a3.061 3.061 0 0 1-.245.017c-.343.008-.519.281-.516.546.003.248.163.514.508.514h.014c.165-.005.329-.02.491-.045.025.049.055.095.088.14a.58.58 0 0 0 .459.249.51.51 0 0 0 .428-.23.588.588 0 0 0 .091-.212.468.468 0 0 0-.018-.262 4.331 4.331 0 0 0 1.472-1.118c.805-.944 1.172-2.153 1.008-3.319Zm-2.787-1.343a.607.607 0 0 1 .235-.038h.06c.123.004.244.029.359.074.528.177.952.744 1.082 1.442.146.789-.141 1.761-.733 2.476a3.206 3.206 0 0 1-.964.788 19.8 19.8 0 0 1-.089-1.768c-.017-1.011 0-2.011.05-2.974ZM141.307 126.455c-.077-.71-.16-1.443-.297-2.157-.095-.494-.203-1.018-.391-1.515-.084-.224-.174-.438-.345-.593a.673.673 0 0 0-.453-.179.616.616 0 0 0-.463.206.508.508 0 0 0-.11.532l.003.01a.396.396 0 0 0-.021.047c-.193.508-.363 1.029-.531 1.532v.004c-.185.56-.354 1.064-.543 1.564-.259.082-.328.313-.307.487a.555.555 0 0 0 .048.163c-.088.212-.187.46-.264.702-.105.33-.226.818-.065 1.238.089.23.285.376.512.376a.501.501 0 0 0 .339-.127.566.566 0 0 0 .142-.177.47.47 0 0 0 .026-.379c-.082-.215.021-.508.111-.767l.022-.061c.071-.207.157-.411.24-.609l.022-.054c.364-.076.745-.147 1.27-.235l.027.237c.099.902.202 1.835.42 2.735a.482.482 0 0 0 .486.386.597.597 0 0 0 .45-.213.496.496 0 0 0 .098-.212.496.496 0 0 0-.007-.233c-.216-.887-.319-1.813-.419-2.708Zm-1.173-.938c-.292.049-.534.09-.758.132.114-.326.226-.663.332-.979l.011-.035.171-.51a18.206 18.206 0 0 1 .177.942c.004.027.009.055.012.083l.014.091.007.046.034.23ZM143.18 125.037l.019-.289v-.01c.012-.208.021-.331.028-.422v-.021c.013-.162.02-.26.032-.631 0-.036.003-.072.004-.109l.002-.057c.015-.368.031-.749-.066-1.102a.518.518 0 0 0-.516-.392.58.58 0 0 0-.444.208.477.477 0 0 0-.077.431c.013.053.023.107.029.162v.033l.006.156c.007.254 0 .505-.01.762-.013.368-.023.495-.038.674v.005c-.009.115-.021.256-.036.511l-.012.205c-.027.439-.046.756-.041 1.253v.096c0 .399 0 1.067.511 1.146a.8.8 0 0 0 .129.01.466.466 0 0 0 .399-.184c.144-.198.104-.486.058-.625a.554.554 0 0 1-.02-.1l-.002-.035v-.009c0-.017-.003-.034-.004-.042-.003-.048-.004-.097-.005-.144v-.011c-.003-.113 0-.23 0-.331.011-.453.029-.74.054-1.138ZM150.106 122.284a.43.43 0 0 0-.369.191l-.018-.005-.038.116c-.2.576-.438 1.154-.69 1.765l-.003.007c-.107.258-.195.475-.282.69a36.905 36.905 0 0 1-.715-1.055 3.65 3.65 0 0 0-.173-.246 2.55 2.55 0 0 1-.183-.281 6.648 6.648 0 0 1-.208-.371c-.024-.044-.047-.092-.073-.145l-.01-.025a.791.791 0 0 1-.017-.052.426.426 0 0 0-.419-.307.468.468 0 0 0-.374.18.406.406 0 0 0-.054.377v.005c.234.534.35.71.604 1.094l.115.174.003.003c.393.602.761 1.136 1.124 1.632-.404 1.118-.617 2.024-.67 2.852a.4.4 0 0 0 .104.307.42.42 0 0 0 .145.097.408.408 0 0 0 .172.032c.216 0 .443-.144.461-.419.09-1.423.698-2.877 1.286-4.287l.005-.012c.196-.47.381-.914.549-1.36a.456.456 0 0 0 .066-.13c.015-.047.029-.095.043-.147.012-.043.024-.087.039-.131a.383.383 0 0 0 .021-.19.388.388 0 0 0-.07-.178.462.462 0 0 0-.371-.181ZM146.7 127.647a.525.525 0 0 0-.251.066 4.97 4.97 0 0 1-1.01.432c-.153.043-.31.067-.469.072-.011-.118.017-.278.039-.41l.002-.014c.047-.259.1-.552.143-.846.241-1.655.385-3.154.437-4.582a.477.477 0 0 0-.504-.506c-.255 0-.519.17-.531.496-.054 1.447-.215 3.05-.493 4.901-.01.069-.024.143-.039.232-.098.546-.22 1.225.337 1.595.168.112.371.167.619.167.22-.006.438-.037.65-.092.476-.109.922-.33 1.334-.552a.465.465 0 0 0 .244-.545c-.053-.206-.244-.414-.508-.414Z" fill="#D7244F"/><path d="M150.552 131.023h-20.83v3.665h20.83v-3.665Z" fill="#D8254F"/><path d="M133.048 133.176a.492.492 0 0 0-.179-.115 2.133 2.133 0 0 0-.243-.076 2.666 2.666 0 0 1-.267-.083 1.372 1.372 0 0 1-.244-.118.516.516 0 0 1-.178-.196.632.632 0 0 1-.07-.307.583.583 0 0 1 .21-.455c.139-.122.328-.183.567-.183.085 0 .17.011.253.032.07.018.137.043.201.077.048.026.095.055.14.086a.647.647 0 0 1 .088.077l.026.033-.235.236c-.005-.004-.011-.012-.019-.022a.72.72 0 0 0-.15-.11.71.71 0 0 0-.304-.07.459.459 0 0 0-.295.09.276.276 0 0 0-.111.212.258.258 0 0 0 .069.182c.05.051.112.091.179.115.08.03.161.056.243.077.091.023.18.05.267.082.085.03.167.069.244.117a.52.52 0 0 1 .178.197.622.622 0 0 1 .07.305.638.638 0 0 1-.224.508c-.15.131-.357.197-.62.197a1.154 1.154 0 0 1-.309-.039 1.04 1.04 0 0 1-.503-.289l-.034-.041.236-.234.022.028a.73.73 0 0 0 .362.212.896.896 0 0 0 .225.029.527.527 0 0 0 .347-.107.334.334 0 0 0 .111-.362.259.259 0 0 0-.053-.085ZM136.257 131.68v.336h-.71v2.015h-.37v-2.015h-.71v-.336h1.79ZM138.872 133.541a.625.625 0 0 0 .185-.45v-1.411h.373v1.411a.929.929 0 0 1-.291.688 1.013 1.013 0 0 1-1.629-.313.924.924 0 0 1-.073-.374v-1.412h.372v1.411a.617.617 0 0 0 .186.451.595.595 0 0 0 .438.188.608.608 0 0 0 .439-.188v-.001ZM141.708 131.68a1.16 1.16 0 0 1 .846.348 1.134 1.134 0 0 1 .353.828 1.138 1.138 0 0 1-.353.828 1.158 1.158 0 0 1-.846.347h-.828v-2.351h.828Zm-.456.336v1.679h.456a.787.787 0 0 0 .585-.244.854.854 0 0 0-.267-1.374.787.787 0 0 0-.318-.061h-.456ZM144.256 131.68h.372v2.351h-.371l-.001-2.351ZM146.336 131.998c.24-.234.536-.351.888-.351.351 0 .648.117.889.351a1.21 1.21 0 0 1 .359.857 1.195 1.195 0 0 1-.359.858 1.222 1.222 0 0 1-.889.351 1.216 1.216 0 0 1-1.247-1.209 1.212 1.212 0 0 1 .359-.857Zm.267 1.477a.889.889 0 0 0 1.48-.357.882.882 0 0 0-1.018-1.127.88.88 0 0 0-.717.864.845.845 0 0 0 .255.62Z" fill="#fff"/></g><path d="M32.795 150.607c3.872 0 7.012-3.292 7.012-7.354 0-4.061-3.14-7.353-7.012-7.353-3.873 0-7.013 3.292-7.013 7.353 0 4.062 3.14 7.354 7.013 7.354Z" fill="#F3BDCA"/><path d="M39.639 150.596c1.914 0 3.466-1.369 3.466-3.058 0-1.688-1.552-3.057-3.466-3.057-1.915 0-3.467 1.369-3.467 3.057 0 1.689 1.552 3.058 3.467 3.058ZM25.782 150.607c2.349 0 4.253-1.684 4.253-3.761 0-2.076-1.904-3.76-4.253-3.76-2.348 0-4.252 1.684-4.252 3.76 0 2.077 1.904 3.761 4.252 3.761Z" fill="#F3BDCA"/><path d="M51.71 151.087h-38s15.08-5.502 38 0Z" fill="#F3BDCA"/><path d="M40.85 150.317c3.706 0 6.71-2.653 6.71-5.926 0-3.272-3.004-5.925-6.71-5.925-3.705 0-6.709 2.653-6.709 5.925 0 3.273 3.004 5.926 6.71 5.926Z" fill="#F3BDCA"/><path d="M47.56 150.328c1.852 0 3.354-1.329 3.354-2.968 0-1.64-1.502-2.969-3.355-2.969-1.852 0-3.354 1.329-3.354 2.969 0 1.639 1.502 2.968 3.355 2.968ZM34.141 150.317c2.274 0 4.117-1.629 4.117-3.638s-1.843-3.638-4.117-3.638-4.118 1.629-4.118 3.638 1.844 3.638 4.118 3.638Z" fill="#F3BDCA"/><path d="M58.858 150.953H22.08s14.597-5.312 36.778 0ZM145.528 150.607c3.712 0 6.721-2.888 6.721-6.45 0-3.562-3.009-6.449-6.721-6.449-3.711 0-6.72 2.887-6.72 6.449s3.009 6.45 6.72 6.45Z" fill="#F3BDCA"/><path d="M149.994 150.607c1.543 0 2.793-1.204 2.793-2.689 0-1.486-1.25-2.69-2.793-2.69-1.543 0-2.794 1.204-2.794 2.69 0 1.485 1.251 2.689 2.794 2.689ZM138.808 150.607c1.896 0 3.433-1.479 3.433-3.303 0-1.824-1.537-3.303-3.433-3.303s-3.433 1.479-3.433 3.303c0 1.824 1.537 3.303 3.433 3.303Z" fill="#F3BDCA"/><path d="M159.732 151.031h-30.708s12.218-4.854 30.708 0Z" fill="#F3BDCA"/><path d="M154.605 150.618c2.987 0 5.408-2.328 5.408-5.2 0-2.872-2.421-5.2-5.408-5.2-2.987 0-5.408 2.328-5.408 5.2 0 2.872 2.421 5.2 5.408 5.2Z" fill="#F3BDCA"/><path d="M160.013 150.618c1.493 0 2.704-1.164 2.704-2.6 0-1.436-1.211-2.6-2.704-2.6-1.494 0-2.704 1.164-2.704 2.6 0 1.436 1.21 2.6 2.704 2.6ZM149.186 150.618c1.834 0 3.321-1.429 3.321-3.191 0-1.763-1.487-3.192-3.321-3.192s-3.321 1.429-3.321 3.192c0 1.762 1.487 3.191 3.321 3.191Z" fill="#F3BDCA"/><path d="M169.415 151.031h-29.654s11.781-4.664 29.654 0Z" fill="#F3BDCA"/><path d="M77.56 47.904H56.166v1.606H77.56v-1.606Z" fill="#AC1D3E"/></g><defs><clipPath id="a"><path fill="#fff" d="M0 0h184v183H0z"/></clipPath><clipPath id="b"><path fill="#fff" transform="translate(103.04 121.512)" d="M0 0h47.512v13.176H0z"/></clipPath></defs></svg>