<svg width="192" height="192" viewBox="0 0 192 192" fill="none" xmlns="http://www.w3.org/2000/svg">
<g opacity="0.2">
<path opacity="0.2" d="M36.6497 186.2C46.7123 186.2 54.8697 185.69 54.8697 185.06C54.8697 184.43 46.7123 183.92 36.6497 183.92C26.5871 183.92 18.4297 184.43 18.4297 185.06C18.4297 185.69 26.5871 186.2 36.6497 186.2Z" fill="#727272"/>
</g>
<g opacity="0.2">
<path opacity="0.2" d="M162.689 185.751C172.751 185.751 180.909 185.24 180.909 184.611C180.909 183.981 172.751 183.471 162.689 183.471C152.626 183.471 144.469 183.981 144.469 184.611C144.469 185.24 152.626 185.751 162.689 185.751Z" fill="#727272"/>
</g>
<path d="M144.202 165.931C156.502 156.164 165.491 142.841 169.943 127.779C174.396 112.717 174.094 96.6482 169.08 81.7636C164.066 66.8791 154.584 53.903 141.925 44.6046C129.267 35.3062 114.049 30.1379 98.3465 29.8043C82.6436 29.4708 67.22 33.9882 54.1784 42.7407C41.1367 51.4932 31.1118 64.0549 25.4702 78.7131C19.8287 93.3713 18.8451 109.413 22.6536 124.65C26.4621 139.888 34.8773 153.58 46.7519 163.861" fill="#FCEFF2"/>
<path d="M142.16 164.899C152.051 164.899 160.07 157.185 160.07 147.669C160.07 138.154 152.051 130.439 142.16 130.439C132.269 130.439 124.25 138.154 124.25 147.669C124.25 157.185 132.269 164.899 142.16 164.899Z" fill="#EB92A7"/>
<path d="M160.071 164.91C165.014 164.91 169.021 161.051 169.021 156.29C169.021 151.529 165.014 147.67 160.071 147.67C155.128 147.67 151.121 151.529 151.121 156.29C151.121 161.051 155.128 164.91 160.071 164.91Z" fill="#A0E8CB"/>
<path d="M124.25 164.91C130.325 164.91 135.25 160.169 135.25 154.32C135.25 148.472 130.325 143.73 124.25 143.73C118.175 143.73 113.25 148.472 113.25 154.32C113.25 160.169 118.175 164.91 124.25 164.91Z" fill="#A0E8CB"/>
<path d="M191.259 166.25H93.0586C93.0586 166.25 131.999 150.79 191.259 166.25Z" fill="#EB92A7"/>
<path d="M89.9492 163.86C107.484 163.86 121.699 150.182 121.699 133.31C121.699 116.437 107.484 102.76 89.9492 102.76C72.4142 102.76 58.1992 116.437 58.1992 133.31C58.1992 150.182 72.4142 163.86 89.9492 163.86Z" fill="#EB92A7"/>
<path d="M121.7 163.871C130.471 163.871 137.58 157.029 137.58 148.591C137.58 140.152 130.471 133.311 121.7 133.311C112.93 133.311 105.82 140.152 105.82 148.591C105.82 157.029 112.93 163.871 121.7 163.871Z" fill="#EB92A7"/>
<path d="M58.1992 163.87C68.9688 163.87 77.6992 155.466 77.6992 145.1C77.6992 134.734 68.9688 126.33 58.1992 126.33C47.4297 126.33 38.6992 134.734 38.6992 145.1C38.6992 155.466 47.4297 163.87 58.1992 163.87Z" fill="#EB92A7"/>
<path d="M177.001 166.251H2.89062C2.89062 166.251 72.0006 138.841 177.001 166.251Z" fill="#EB92A7"/>
<path d="M42.0919 168.87C48.537 168.87 53.7619 163.359 53.7619 156.56C53.7619 149.761 48.537 144.25 42.0919 144.25C35.6467 144.25 30.4219 149.761 30.4219 156.56C30.4219 163.359 35.6467 168.87 42.0919 168.87Z" fill="#F3BDCA"/>
<path d="M53.4888 168.859C56.6754 168.859 59.2587 166.567 59.2587 163.739C59.2587 160.911 56.6754 158.619 53.4888 158.619C50.3021 158.619 47.7188 160.911 47.7188 163.739C47.7188 166.567 50.3021 168.859 53.4888 168.859Z" fill="#B6EFDA"/>
<path d="M30.4103 168.87C34.326 168.87 37.5003 166.049 37.5003 162.57C37.5003 159.09 34.326 156.27 30.4103 156.27C26.4946 156.27 23.3203 159.09 23.3203 162.57C23.3203 166.049 26.4946 168.87 30.4103 168.87Z" fill="#F3BDCA"/>
<path d="M73.5803 169.671H10.3203C10.3203 169.671 35.4303 160.471 73.5803 169.671Z" fill="#F3BDCA"/>
<path d="M55.4981 168.391C61.6671 168.391 66.6681 163.949 66.6681 158.471C66.6681 152.992 61.6671 148.551 55.4981 148.551C49.3291 148.551 44.3281 152.992 44.3281 158.471C44.3281 163.949 49.3291 168.391 55.4981 168.391Z" fill="#F3BDCA"/>
<path d="M66.6698 168.391C69.7516 168.391 72.2498 166.17 72.2498 163.431C72.2498 160.691 69.7516 158.471 66.6698 158.471C63.5881 158.471 61.0898 160.691 61.0898 163.431C61.0898 166.17 63.5881 168.391 66.6698 168.391Z" fill="#F3BDCA"/>
<path d="M44.3405 168.391C48.1291 168.391 51.2005 165.664 51.2005 162.301C51.2005 158.938 48.1291 156.211 44.3405 156.211C40.5518 156.211 37.4805 158.938 37.4805 162.301C37.4805 165.664 40.5518 168.391 44.3405 168.391Z" fill="#F3BDCA"/>
<path d="M85.48 169.449H24.25C24.25 169.449 48.56 160.559 85.48 169.449Z" fill="#F3BDCA"/>
<path d="M136.011 168.8C143.671 168.8 149.881 162.801 149.881 155.4C149.881 147.999 143.671 142 136.011 142C128.35 142 122.141 147.999 122.141 155.4C122.141 162.801 128.35 168.8 136.011 168.8Z" fill="#F3BDCA"/>
<path d="M145.239 168.801C148.425 168.801 151.009 166.302 151.009 163.221C151.009 160.139 148.425 157.641 145.239 157.641C142.052 157.641 139.469 160.139 139.469 163.221C139.469 166.302 142.052 168.801 145.239 168.801Z" fill="#B6EFDA"/>
<path d="M122.141 168.79C126.056 168.79 129.231 165.723 129.231 161.94C129.231 158.157 126.056 155.09 122.141 155.09C118.225 155.09 115.051 158.157 115.051 161.94C115.051 165.723 118.225 168.79 122.141 168.79Z" fill="#F3BDCA"/>
<path d="M165.35 169.67H102C102 169.67 127.16 159.66 165.35 169.67Z" fill="#F3BDCA"/>
<path d="M154.75 168.83C160.925 168.83 165.93 163.995 165.93 158.03C165.93 152.066 160.925 147.23 154.75 147.23C148.576 147.23 143.57 152.066 143.57 158.03C143.57 163.995 148.576 168.83 154.75 168.83Z" fill="#F3BDCA"/>
<path d="M165.93 168.829C169.017 168.829 171.52 166.412 171.52 163.429C171.52 160.447 169.017 158.029 165.93 158.029C162.843 158.029 160.34 160.447 160.34 163.429C160.34 166.412 162.843 168.829 165.93 168.829Z" fill="#B6EFDA"/>
<path d="M143.569 168.821C147.363 168.821 150.439 165.852 150.439 162.191C150.439 158.529 147.363 155.561 143.569 155.561C139.775 155.561 136.699 158.529 136.699 162.191C136.699 165.852 139.775 168.821 143.569 168.821Z" fill="#F3BDCA"/>
<path d="M185.399 169.671H124.109C124.109 169.671 148.439 160.001 185.399 169.671Z" fill="#F3BDCA"/>
<path d="M16.0816 83.4992C20.2127 83.4992 23.5616 80.5219 23.5616 76.8492C23.5616 73.1765 20.2127 70.1992 16.0816 70.1992C11.9505 70.1992 8.60156 73.1765 8.60156 76.8492C8.60156 80.5219 11.9505 83.4992 16.0816 83.4992Z" fill="#F3BDCA"/>
<path d="M23.5603 83.4994C25.6259 83.4994 27.3003 82.013 27.3003 80.1794C27.3003 78.3458 25.6259 76.8594 23.5603 76.8594C21.4948 76.8594 19.8203 78.3458 19.8203 80.1794C19.8203 82.013 21.4948 83.4994 23.5603 83.4994Z" fill="#F3BDCA"/>
<path d="M8.58828 83.4998C11.1288 83.4998 13.1883 81.6732 13.1883 79.4198C13.1883 77.1665 11.1288 75.3398 8.58828 75.3398C6.04777 75.3398 3.98828 77.1665 3.98828 79.4198C3.98828 81.6732 6.04777 83.4998 8.58828 83.4998Z" fill="#F3BDCA"/>
<path d="M37.22 84.4506H0C0 84.4506 14.77 77.1306 37.22 84.4506Z" fill="#F3BDCA"/>
<path d="M172.938 46.7897C176.777 46.7897 179.888 44.0228 179.888 40.6097C179.888 37.1966 176.777 34.4297 172.938 34.4297C169.1 34.4297 165.988 37.1966 165.988 40.6097C165.988 44.0228 169.1 46.7897 172.938 46.7897Z" fill="#F3BDCA"/>
<path d="M165.98 46.7796C167.902 46.7796 169.46 45.3962 169.46 43.6896C169.46 41.983 167.902 40.5996 165.98 40.5996C164.058 40.5996 162.5 41.983 162.5 43.6896C162.5 45.3962 164.058 46.7796 165.98 46.7796Z" fill="#F3BDCA"/>
<path d="M179.891 46.7792C182.249 46.7792 184.161 45.0824 184.161 42.9892C184.161 40.8961 182.249 39.1992 179.891 39.1992C177.533 39.1992 175.621 40.8961 175.621 42.9892C175.621 45.0824 177.533 46.7792 179.891 46.7792Z" fill="#F3BDCA"/>
<path d="M153.871 47.2591H192.001C192.001 47.2591 176.861 41.7191 153.871 47.2591Z" fill="#F3BDCA"/>
<path d="M153.671 121.321L156.671 119.111C156.671 119.111 158.361 119.581 158.671 119.111C158.921 118.781 157.581 118.491 157.581 118.491C158.145 118.036 158.755 117.64 159.401 117.311C160.481 116.891 159.481 113.421 157.461 114.051C156.851 114.266 156.295 114.612 155.832 115.065C155.369 115.517 155.01 116.065 154.781 116.671L151.461 118.491L153.671 121.321Z" fill="#F2AA91"/>
<path d="M175.998 144.49L176.508 148.69C176.508 148.69 175.338 150.1 175.388 150.69C175.438 151.28 176.558 150.18 176.558 150.18C176.743 150.908 176.81 151.661 176.758 152.41C176.538 153.63 180.558 154.63 181.048 152.29C181.173 151.568 181.139 150.827 180.949 150.119C180.759 149.411 180.418 148.753 179.948 148.19V143.92L175.998 144.49Z" fill="#F2AA91"/>
<path d="M154.07 148.82H162.98L162.25 181.32H155.84L154.07 148.82Z" fill="#6C6D6D"/>
<path d="M162.359 148.82H170.819L170.749 181.32H164.339L162.359 148.82Z" fill="#6C6D6D"/>
<path d="M152.93 184.61H162.75L161.92 181.35H155.39C154.736 181.352 154.111 181.614 153.65 182.077C153.189 182.539 152.93 183.166 152.93 183.82V184.61Z" fill="#AC1D3E"/>
<path opacity="0.2" d="M161.999 181.74C161.999 181.74 159.379 182.53 159.379 184.61H162.729L161.999 181.74Z" fill="#727272"/>
<path d="M161.488 184.61H171.308L170.478 181.35H163.998C163.345 181.352 162.719 181.614 162.258 182.077C161.797 182.539 161.538 183.166 161.538 183.82L161.488 184.61Z" fill="#AC1D3E"/>
<path opacity="0.2" d="M155.909 115C155.547 115.359 155.247 115.774 155.019 116.23L154.889 117.23C154.788 118.131 154.891 119.044 155.189 119.9L155.259 120.11L156.329 119.3L155.909 115Z" fill="#727272"/>
<path d="M172.081 125.64C168.551 123.32 168.171 123.71 168.171 123.71C160.541 122.24 152.331 125.1 152.331 125.1C151.465 125.353 150.583 125.55 149.691 125.69L155.241 120.96L152.531 117.34L141.061 124.93C139.531 125.74 139.361 128.11 139.951 129.65C141.131 132.26 143.261 133.79 151.731 133.39L152.001 150.53L172.731 149.89C172.731 149.89 171.461 139.89 171.051 135.02C174.661 139.02 175.411 145.42 175.411 145.42L180.471 145.08C181.751 130.55 172.081 125.64 172.081 125.64Z" fill="#DB284E"/>
<path d="M155.779 113.72C155.779 113.72 153.609 109.46 157.059 107.97C160.509 106.48 163.499 108.14 165.439 111.97C165.439 111.97 171.779 113.69 163.979 122.65L155.779 113.72Z" fill="#221F20"/>
<path d="M155.832 113.521C155.832 113.521 155.022 120.111 156.702 122.521C158.112 124.521 159.932 122.761 159.932 122.761L159.782 124.481C160.458 124.826 161.21 124.995 161.969 124.972C162.727 124.95 163.468 124.736 164.122 124.351C164.122 124.351 163.372 123.591 163.352 119.091C163.352 119.091 165.582 117.701 163.872 115.991C162.162 114.281 162.512 116.991 162.512 116.991C162.512 116.991 161.172 108.311 155.832 113.521Z" fill="#F2AA91"/>
<path d="M170.889 99.9998L169.459 99.2898C169.288 99.1804 169.165 99.01 169.115 98.8131C169.064 98.6163 169.091 98.4077 169.189 98.2298L174.189 86.5298C174.409 86.0198 174.949 85.7698 175.309 86.0198L178.129 87.9398C178.291 88.0827 178.393 88.2814 178.416 88.4963C178.438 88.7113 178.378 88.9267 178.249 89.0998L171.879 99.5898C171.796 99.77 171.648 99.9123 171.464 99.9883C171.281 100.064 171.075 100.068 170.889 99.9998Z" fill="#E66983"/>
<path d="M170.421 102.733C170.843 101.876 170.584 100.884 169.841 100.518C169.098 100.151 168.153 100.549 167.73 101.406C167.308 102.262 167.567 103.254 168.31 103.621C169.053 103.987 169.998 103.59 170.421 102.733Z" fill="#E66983"/>
<path d="M175.649 104.23L174.739 103.15C174.628 103.036 174.566 102.884 174.566 102.725C174.566 102.566 174.628 102.414 174.739 102.3L181.089 96.1101C181.155 96.0386 181.237 95.9835 181.328 95.949C181.419 95.9145 181.517 95.9016 181.614 95.9113C181.711 95.921 181.804 95.953 181.886 96.0049C181.969 96.0567 182.038 96.127 182.089 96.2101L183.769 98.7101C183.816 98.7781 183.848 98.8547 183.865 98.9356C183.882 99.0164 183.883 99.0998 183.867 99.1809C183.851 99.2619 183.819 99.3389 183.773 99.4075C183.727 99.4761 183.668 99.5347 183.599 99.5801L176.479 104.35C176.351 104.438 176.194 104.474 176.04 104.452C175.887 104.429 175.747 104.35 175.649 104.23Z" fill="#E66983"/>
<path d="M174.518 105.768C175.028 105.337 175.139 104.628 174.764 104.185C174.39 103.742 173.673 103.733 173.162 104.164C172.652 104.596 172.542 105.304 172.916 105.747C173.29 106.19 174.008 106.2 174.518 105.768Z" fill="#E66983"/>
<path d="M164.112 97.82L163.002 97.7C162.87 97.6825 162.75 97.6141 162.668 97.5095C162.585 97.4049 162.547 97.2723 162.562 97.14L162.892 89.44C162.89 89.3634 162.906 89.2875 162.938 89.2178C162.969 89.148 163.016 89.0861 163.074 89.0364C163.132 88.9867 163.201 88.9505 163.275 88.9304C163.349 88.9103 163.426 88.9067 163.502 88.92L165.852 89.46C165.985 89.4996 166.098 89.5894 166.167 89.7105C166.236 89.8317 166.256 89.9748 166.222 90.11L164.662 97.39C164.642 97.5181 164.574 97.6339 164.472 97.7138C164.369 97.7937 164.241 97.8317 164.112 97.82Z" fill="#E66983"/>
<path d="M164.441 100.029C164.513 99.365 164.104 98.7757 163.527 98.7132C162.951 98.6506 162.425 99.1385 162.353 99.8029C162.281 100.467 162.69 101.057 163.267 101.119C163.843 101.182 164.369 100.694 164.441 100.029Z" fill="#E66983"/>
<path d="M31.8516 36.5006L29.8516 38.0906C29.5716 38.262 29.2367 38.3202 28.9153 38.2533C28.5938 38.1864 28.31 37.9995 28.1216 37.7306L14.4716 22.2206C14.3263 22.0976 14.2095 21.9445 14.1294 21.7717C14.0493 21.599 14.0078 21.411 14.0078 21.2206C14.0078 21.0302 14.0493 20.8421 14.1294 20.6694C14.2095 20.4967 14.3263 20.3436 14.4716 20.2206L19.2516 17.4406C19.5763 17.3071 19.9389 17.2987 20.2695 17.4169C20.6 17.5351 20.8751 17.7715 21.0416 18.0806L31.9016 34.7806C32.1085 35.0222 32.218 35.3323 32.2087 35.6502C32.1995 35.9682 32.0722 36.2714 31.8516 36.5006Z" fill="#E66983"/>
<path d="M35.3717 42.8105C36.4323 41.9792 36.516 40.3151 35.5586 39.0937C34.6013 37.8723 32.9654 37.556 31.9048 38.3873C30.8442 39.2187 30.7605 40.8827 31.7179 42.1042C32.6752 43.3256 34.3111 43.6418 35.3717 42.8105Z" fill="#E66983"/>
<path d="M41.4116 32.5206L39.1916 33.0906C38.9479 33.1516 38.6901 33.1186 38.4696 32.9981C38.2491 32.8777 38.0821 32.6787 38.0016 32.4406L33.3916 18.7906C33.3429 18.6507 33.3258 18.5016 33.3417 18.3542C33.3576 18.2069 33.4061 18.0649 33.4836 17.9386C33.5611 17.8122 33.6658 17.7047 33.79 17.6238C33.9141 17.5428 34.0548 17.4905 34.2016 17.4706L39.0016 16.7606C39.1339 16.7394 39.269 16.7451 39.3991 16.7771C39.5291 16.8092 39.6514 16.867 39.7587 16.9472C39.8659 17.0274 39.956 17.1284 40.0235 17.244C40.091 17.3597 40.1346 17.4878 40.1516 17.6206L42.1516 31.3906C42.1919 31.6374 42.1382 31.8903 42.0012 32.0995C41.8643 32.3086 41.6539 32.4589 41.4116 32.5206Z" fill="#E66983"/>
<path d="M41.7657 37.7133C42.6764 37.4786 43.1953 36.4371 42.9247 35.3871C42.6541 34.3371 41.6964 33.6762 40.7857 33.9109C39.875 34.1457 39.3561 35.1871 39.6267 36.2371C39.8973 37.2871 40.855 37.9481 41.7657 37.7133Z" fill="#E66983"/>
<path d="M23.9306 44.8909L22.9306 46.4509C22.8104 46.6268 22.6279 46.7505 22.4199 46.7969C22.212 46.8434 21.9941 46.809 21.8106 46.7009L10.8106 40.8009C10.6986 40.7489 10.5995 40.6729 10.5202 40.5783C10.441 40.4836 10.3836 40.3727 10.352 40.2534C10.3205 40.134 10.3157 40.0092 10.3379 39.8878C10.3601 39.7664 10.4088 39.6513 10.4806 39.5509L12.9206 36.5509C13.0694 36.3798 13.2792 36.2736 13.5052 36.2549C13.7313 36.2362 13.9556 36.3065 14.1306 36.4509L23.6906 43.8409C23.8442 43.9624 23.9517 44.1327 23.9953 44.3237C24.0389 44.5146 24.0161 44.7147 23.9306 44.8909Z" fill="#E66983"/>
<path d="M28.1528 48.4461C28.6481 47.6485 28.3041 46.5389 27.3845 45.9679C26.4649 45.3968 25.3179 45.5805 24.8226 46.3781C24.3273 47.1757 24.6713 48.2852 25.5908 48.8563C26.5104 49.4273 27.6574 49.2437 28.1528 48.4461Z" fill="#E66983"/>
<path d="M60.08 118.001L58.08 121.651L55 119.351L57.4 116.031C57.4 116.031 57.68 114.541 58.61 114.631C59.54 114.721 62.32 116.751 65.42 117.381C65.4753 117.39 65.5278 117.412 65.5735 117.444C65.6192 117.476 65.6569 117.519 65.6839 117.568C65.7109 117.617 65.7263 117.672 65.7291 117.728C65.7319 117.783 65.7219 117.839 65.7 117.891C65.4 118.621 64.28 119.811 60.08 118.001Z" fill="#F2AA91"/>
<path d="M11.2687 120.05L13.2687 123.7L16.3887 121.36L13.9987 118C13.9987 118 13.7087 116.51 12.7887 116.6C11.8687 116.69 8.99875 118.76 5.99875 119.4C5.94385 119.408 5.8915 119.428 5.84559 119.46C5.79968 119.491 5.76138 119.532 5.73353 119.58C5.70568 119.628 5.68899 119.682 5.6847 119.737C5.68041 119.792 5.68863 119.848 5.70875 119.9C5.99875 120.63 7.07875 121.82 11.2687 120.05Z" fill="#F2AA91"/>
<path d="M37.0004 183.001L37.3504 184.881H38.6204L38.5204 183.711L39.3504 184.881H45.9504C45.8068 184.335 45.518 183.839 45.1148 183.444C44.7115 183.05 44.2089 182.772 43.6604 182.641L38.5804 181.471C38.367 181.419 38.1439 181.421 37.9319 181.479C37.72 181.537 37.5261 181.647 37.3683 181.8C37.2105 181.952 37.094 182.143 37.0297 182.353C36.9654 182.563 36.9553 182.786 37.0004 183.001Z" fill="#AC1D3E"/>
<path d="M29.2206 183L29.5806 184.88H30.8506L30.7406 183.71L31.5806 184.88H38.1706C38.029 184.333 37.7409 183.836 37.3373 183.441C36.9338 183.046 36.4301 182.769 35.8806 182.64L30.8106 181.47C30.5969 181.418 30.3737 181.422 30.1616 181.479C29.9495 181.537 29.7554 181.647 29.597 181.8C29.4386 181.952 29.3211 182.142 29.2554 182.352C29.1896 182.561 29.1776 182.784 29.2206 183Z" fill="#AC1D3E"/>
<path d="M27.2305 148.961H36.1405L34.7905 182.421L29.0005 181.461L27.2305 148.961Z" fill="#6C6D6D"/>
<path d="M35.5195 148.961H43.9795L43.6295 182.681L37.4995 181.461L35.5195 148.961Z" fill="#6C6D6D"/>
<path d="M41.6496 112C40.6321 111.315 39.4258 110.965 38.1996 111C33.4896 108.62 31.1996 114.11 30.9196 116C30.6396 117.89 30.4996 119.92 27.9896 122C20.7296 127.94 33.2596 130.5 33.2596 130.5C34.3696 124.91 41.1896 126.5 40.7896 127.05C48.9996 130.64 44.7996 114.38 41.6496 112Z" fill="#1E1C1F"/>
<path d="M46.3286 150.461L26.2486 150.961C26.2486 150.961 27.2986 135.961 27.0586 134.151C27.0586 134.151 19.4086 135.081 12.0586 123.031L15.7986 119.851C15.7986 119.851 22.5586 127.081 29.2586 125.401C36.5586 123.561 44.6486 125.891 44.6486 125.891C46.8023 125.309 48.8174 124.302 50.5747 122.928C52.3319 121.554 53.7954 119.841 54.8786 117.891L58.9986 120.591C58.9986 120.591 56.8486 131.241 45.6586 133.871L46.3286 150.461Z" fill="#DB284E"/>
<path d="M41.9987 114.801C41.9987 114.801 43.1387 121.131 41.6387 123.521C40.3887 125.521 38.5287 123.921 38.5287 123.921L38.7687 125.571C38.1355 125.944 37.4177 126.15 36.6829 126.169C35.9481 126.189 35.2205 126.02 34.5687 125.681C34.5687 125.681 35.2587 124.911 35.0287 120.561C35.0287 120.561 32.7987 119.331 34.3587 117.561C35.9187 115.791 35.7187 118.451 35.7187 118.451C35.7187 118.451 36.5287 110.051 41.9987 114.801Z" fill="#F2AA91"/>
<path d="M33.47 60.4709L41.76 102.821C42.1419 104.738 43.2671 106.426 44.8897 107.517C46.5123 108.607 48.5004 109.011 50.42 108.641L71.18 104.571C70.6681 101.956 71.216 99.2446 72.7032 97.0335C74.1903 94.8225 76.4949 93.2928 79.11 92.7809C81.725 92.269 84.4363 92.8169 86.6473 94.3041C88.8584 95.7913 90.3881 98.0959 90.9 100.711L152.71 88.5909C154.626 88.2112 156.315 87.0881 157.405 85.4671C158.496 83.8461 158.9 81.8592 158.53 79.9409L150.24 37.5909C149.858 35.6736 148.733 33.9854 147.11 32.8949C145.488 31.8044 143.499 31.4003 141.58 31.7709L79.77 43.8809C80.2831 46.4959 79.7365 49.2077 78.2503 51.4197C76.7641 53.6317 74.46 55.1627 71.845 55.6759C69.2299 56.1891 66.5181 55.6424 64.3061 54.1562C62.0941 52.67 60.5631 50.3659 60.05 47.7509L39.29 51.8209C37.3735 52.2005 35.6853 53.3237 34.5946 54.9447C33.504 56.5656 33.0996 58.5526 33.47 60.4709ZM74.55 84.8609C74.4289 84.2553 74.4903 83.6274 74.7263 83.0568C74.9623 82.4861 75.3624 81.9983 75.8759 81.6552C76.3893 81.312 76.9931 81.129 77.6106 81.1292C78.2282 81.1295 78.8318 81.313 79.345 81.6565C79.8582 82 80.2579 82.4881 80.4935 83.059C80.7291 83.6299 80.7899 84.2578 80.6684 84.8633C80.5468 85.4688 80.2484 86.0245 79.8107 86.4603C79.3731 86.896 78.816 87.192 78.21 87.3109C77.3999 87.4698 76.5599 87.3012 75.8739 86.842C75.1879 86.3827 74.7118 85.6704 74.55 84.8609ZM72.55 74.7909C72.4309 74.1853 72.4941 73.5579 72.7316 72.9882C72.9691 72.4185 73.3703 71.9321 73.8843 71.5904C74.3983 71.2488 75.0022 71.0673 75.6194 71.0689C76.2366 71.0705 76.8395 71.2551 77.3518 71.5994C77.864 71.9437 78.2627 72.4322 78.4972 73.0032C78.7318 73.5741 78.7918 74.2017 78.6695 74.8067C78.5473 75.4117 78.2484 75.9669 77.8106 76.402C77.3727 76.837 76.8157 77.1325 76.21 77.2509C75.4026 77.4035 74.5678 77.2304 73.8876 76.7695C73.2075 76.3086 72.7374 75.5973 72.58 74.7909H72.55ZM70.55 64.7309C70.4309 64.1253 70.4941 63.4979 70.7316 62.9282C70.9691 62.3585 71.3703 61.8721 71.8843 61.5304C72.3983 61.1888 73.0022 61.0073 73.6194 61.0089C74.2366 61.0105 74.8395 61.1951 75.3518 61.5394C75.864 61.8837 76.2627 62.3722 76.4972 62.9432C76.7318 63.5141 76.7918 64.1417 76.6695 64.7467C76.5473 65.3517 76.2484 65.9069 75.8106 66.342C75.3727 66.777 74.8157 67.0725 74.21 67.1909C73.4072 67.3348 72.58 67.1576 71.9067 66.6974C71.2333 66.2373 70.7676 65.5311 70.61 64.7309H70.55Z" fill="#FFD591"/>
<path d="M117.002 89.9608C130.301 89.9608 141.082 79.1798 141.082 65.8808C141.082 52.5818 130.301 41.8008 117.002 41.8008C103.703 41.8008 92.9219 52.5818 92.9219 65.8808C92.9219 79.1798 103.703 89.9608 117.002 89.9608Z" fill="#FFF4E8"/>
<path d="M120.898 73.5802L118.228 74.0402C117.885 74.058 117.548 73.9452 117.284 73.7244C117.021 73.5037 116.851 73.1913 116.808 72.8502L111.998 51.7502C111.788 50.8202 112.278 49.9502 112.998 49.9202L118.808 49.7402C119.174 49.7775 119.513 49.9498 119.759 50.2234C120.005 50.497 120.14 50.8524 120.138 51.2202L121.858 72.0502C121.918 72.379 121.852 72.7182 121.675 73.0013C121.497 73.2843 121.22 73.4908 120.898 73.5802Z" fill="#E66983"/>
<path d="M121.015 81.1658C122.409 80.9261 123.314 79.4302 123.038 77.8245C122.762 76.2188 121.409 75.1115 120.015 75.3512C118.622 75.5909 117.716 77.0868 117.992 78.6925C118.268 80.2981 119.622 81.4055 121.015 81.1658Z" fill="#E66983"/>
<path d="M75.8917 114.889L74.3617 135.809C74.3263 136.279 74.3838 136.751 74.5311 137.198C74.6784 137.645 74.9124 138.059 75.2199 138.416C75.5274 138.773 75.9022 139.065 76.323 139.277C76.7437 139.489 77.202 139.615 77.6717 139.649L87.9217 140.399C88.0493 139.131 88.6669 137.963 89.6429 137.144C90.6189 136.324 91.8763 135.918 93.1473 136.012C94.4182 136.106 95.6023 136.692 96.4474 137.646C97.2925 138.6 97.7318 139.846 97.6717 141.119L128.202 143.359C129.15 143.414 130.082 143.092 130.794 142.462C131.506 141.833 131.94 140.947 132.002 139.999L133.532 119.079C133.601 118.132 133.29 117.197 132.67 116.479C132.049 115.761 131.168 115.318 130.222 115.249L99.6917 113.009C99.5641 114.277 98.9466 115.445 97.9705 116.265C96.9945 117.084 95.7371 117.49 94.4662 117.396C93.1952 117.303 92.0111 116.716 91.166 115.762C90.3209 114.808 89.8817 113.562 89.9417 112.289L79.6917 111.539C78.7447 111.484 77.8143 111.805 77.1028 112.433C76.3912 113.06 75.956 113.943 75.8917 114.889ZM92.0017 131.589C92.0242 131.292 92.1343 131.008 92.318 130.773C92.5018 130.538 92.7511 130.362 93.0344 130.269C93.3177 130.175 93.6223 130.168 93.9098 130.248C94.1973 130.327 94.4549 130.49 94.6499 130.716C94.845 130.941 94.9688 131.22 95.0058 131.516C95.0428 131.812 94.9912 132.112 94.8577 132.379C94.7242 132.646 94.5146 132.867 94.2555 133.015C93.9964 133.162 93.6993 133.23 93.4017 133.209C93.0018 133.179 92.6303 132.991 92.3681 132.688C92.1058 132.384 91.9742 131.989 92.0017 131.589ZM92.3617 126.589C92.3824 126.289 92.4919 126.001 92.6762 125.763C92.8606 125.525 93.1115 125.347 93.3972 125.252C93.6828 125.157 93.9904 125.148 94.2807 125.228C94.5711 125.308 94.8313 125.472 95.0282 125.7C95.2251 125.928 95.3499 126.209 95.3867 126.508C95.4235 126.807 95.3708 127.11 95.2351 127.379C95.0994 127.647 94.8869 127.87 94.6246 128.018C94.3623 128.166 94.062 128.232 93.7617 128.209C93.3737 128.169 93.0158 127.982 92.7611 127.686C92.5065 127.391 92.3743 127.009 92.3917 126.619L92.3617 126.589ZM92.7317 121.589C92.7542 121.292 92.8642 121.008 93.048 120.773C93.2318 120.538 93.4811 120.362 93.7644 120.269C94.0477 120.176 94.3523 120.168 94.6398 120.248C94.9273 120.327 95.1849 120.49 95.3799 120.716C95.575 120.941 95.6988 121.22 95.7358 121.516C95.7728 121.812 95.7212 122.112 95.5877 122.379C95.4542 122.646 95.2446 122.867 94.9855 123.015C94.7264 123.162 94.4293 123.23 94.1317 123.209C93.7481 123.171 93.3932 122.989 93.1389 122.7C92.8845 122.41 92.7497 122.035 92.7617 121.649L92.7317 121.589Z" fill="#FFD591"/>
<path d="M114.358 139.84C120.826 139.84 126.068 134.597 126.068 128.13C126.068 121.663 120.826 116.42 114.358 116.42C107.891 116.42 102.648 121.663 102.648 128.13C102.648 134.597 107.891 139.84 114.358 139.84Z" fill="#FFF4E8"/>
<path d="M115.211 132.239L113.891 132.119C113.729 132.079 113.587 131.98 113.493 131.842C113.399 131.703 113.359 131.535 113.381 131.369L113.811 120.859C113.811 120.399 114.181 120.049 114.531 120.139L117.281 120.789C117.448 120.854 117.585 120.98 117.665 121.141C117.744 121.302 117.761 121.487 117.711 121.659L115.851 131.659C115.832 131.817 115.757 131.962 115.639 132.068C115.522 132.175 115.37 132.236 115.211 132.239Z" fill="#E66983"/>
<path d="M115.665 134.523C115.741 133.737 115.25 133.046 114.568 132.98C113.887 132.914 113.273 133.498 113.196 134.284C113.12 135.07 113.611 135.761 114.293 135.827C114.974 135.893 115.589 135.309 115.665 134.523Z" fill="#E66983"/>
</svg>
