<svg width="372" height="338" viewBox="0 0 372 338" fill="none" xmlns="http://www.w3.org/2000/svg">
<path d="M277.709 316.707C301.481 297.835 318.853 272.091 327.458 242.984C336.063 213.878 335.482 182.825 325.794 154.061C316.106 125.297 297.782 100.221 273.321 82.2513C248.861 64.2817 219.453 54.2934 189.108 53.6482C158.763 53.0029 128.957 61.7321 103.755 78.6457C78.5522 95.5592 59.1792 119.834 48.2771 148.16C37.375 176.487 35.4744 207.486 42.8344 236.932C50.1943 266.378 66.4567 292.838 89.4042 312.703" fill="#FCEFF2"/>
<path d="M135.96 312.296C172.43 312.296 201.994 283.846 201.994 248.751C201.994 213.656 172.43 185.206 135.96 185.206C99.491 185.206 69.9268 213.656 69.9268 248.751C69.9268 283.846 99.491 312.296 135.96 312.296Z" fill="#EB92A7"/>
<path d="M202.016 312.296C220.257 312.296 235.044 298.066 235.044 280.512C235.044 262.958 220.257 248.728 202.016 248.728C183.775 248.728 168.988 262.958 168.988 280.512C168.988 298.066 183.775 312.296 202.016 312.296Z" fill="#EB92A7"/>
<path d="M69.9268 312.296C92.3281 312.296 110.488 294.815 110.488 273.251C110.488 251.686 92.3281 234.205 69.9268 234.205C47.5255 234.205 29.3656 251.686 29.3656 273.251C29.3656 294.815 47.5255 312.296 69.9268 312.296Z" fill="#EB92A7"/>
<path d="M262.847 312.296C288.834 312.296 309.901 292.019 309.901 267.007C309.901 241.994 288.834 221.718 262.847 221.718C236.86 221.718 215.794 241.994 215.794 267.007C215.794 292.019 236.86 312.296 262.847 312.296Z" fill="#EB92A7"/>
<path d="M309.923 312.296C322.917 312.296 333.45 302.158 333.45 289.651C333.45 277.145 322.917 267.007 309.923 267.007C296.93 267.007 286.396 277.145 286.396 289.651C286.396 302.158 296.93 312.296 309.923 312.296Z" fill="#EB92A7"/>
<path d="M215.793 312.296C231.76 312.296 244.704 299.838 244.704 284.471C244.704 269.104 231.76 256.646 215.793 256.646C199.826 256.646 186.882 269.104 186.882 284.471C186.882 299.838 199.826 312.296 215.793 312.296Z" fill="#EB92A7"/>
<path d="M371.342 317.363H0.5C0.5 317.363 147.701 258.999 371.342 317.363Z" fill="#EB92A7"/>
<path d="M46.4 175.569C58.2066 175.569 67.7777 166.778 67.7777 155.933C67.7777 145.089 58.2066 136.297 46.4 136.297C34.5934 136.297 25.0222 145.089 25.0222 155.933C25.0222 166.778 34.5934 175.569 46.4 175.569Z" fill="#F3BDCA"/>
<path d="M67.7776 175.569C73.6747 175.569 78.4552 171.173 78.4552 165.751C78.4552 160.329 73.6747 155.933 67.7776 155.933C61.8806 155.933 57.1001 160.329 57.1001 165.751C57.1001 171.173 61.8806 175.569 67.7776 175.569Z" fill="#F3BDCA"/>
<path d="M25.0448 175.546C32.2912 175.546 38.1655 170.148 38.1655 163.489C38.1655 156.83 32.2912 151.431 25.0448 151.431C17.7984 151.431 11.9241 156.83 11.9241 163.489C11.9241 170.148 17.7984 175.546 25.0448 175.546Z" fill="#F3BDCA"/>
<path d="M106.823 178.374H0.5C0.5 178.374 42.6899 156.725 106.823 178.374Z" fill="#F3BDCA"/>
<path d="M319.56 105.464C330.017 105.464 338.495 97.6749 338.495 88.0672C338.495 78.4595 330.017 70.671 319.56 70.671C309.103 70.671 300.625 78.4595 300.625 88.0672C300.625 97.6749 309.103 105.464 319.56 105.464Z" fill="#F3BDCA"/>
<path d="M300.625 105.486C305.86 105.486 310.104 101.587 310.104 96.7767C310.104 91.9666 305.86 88.0672 300.625 88.0672C295.391 88.0672 291.147 91.9666 291.147 96.7767C291.147 101.587 295.391 105.486 300.625 105.486Z" fill="#F3BDCA"/>
<path d="M338.495 105.486C344.916 105.486 350.122 100.696 350.122 94.786C350.122 88.8764 344.916 84.0858 338.495 84.0858C332.073 84.0858 326.867 88.8764 326.867 94.786C326.867 100.696 332.073 105.486 338.495 105.486Z" fill="#F3BDCA"/>
<path d="M267.62 106.843H371.5C371.5 106.843 330.26 91.2117 267.62 106.843Z" fill="#F3BDCA"/>
<path d="M147.746 87.3434C140.569 94.5077 135.552 103.546 133.267 113.426C130.982 123.306 131.522 133.63 134.825 143.217C138.128 152.805 144.061 161.271 151.946 167.648C159.831 174.024 169.35 178.055 179.417 179.279L186.204 194.028L192.787 179.211C201.331 178.137 209.495 175.038 216.601 170.172C223.706 165.306 229.547 158.814 233.637 151.236C237.727 143.657 239.949 135.212 240.117 126.602C240.286 117.992 238.396 109.466 234.605 101.734C230.814 94.0015 225.231 87.2861 218.322 82.1462C211.412 77.0063 203.375 73.5905 194.879 72.1829C186.384 70.7754 177.674 71.4167 169.476 74.0536C161.278 76.6905 153.828 81.2468 147.746 87.3434Z" fill="#DB284E"/>
<path d="M167.744 74.6524C181.683 73.4813 195.533 77.7603 206.383 86.59C217.232 95.4196 224.235 108.112 225.92 121.998C227.604 135.885 223.839 149.883 215.415 161.051C206.992 172.218 194.567 179.685 180.752 181.88L186.204 193.938L192.787 179.211C200.286 178.214 207.493 175.654 213.94 171.696C220.387 167.737 225.932 162.47 230.215 156.233C234.498 149.997 237.424 142.931 238.803 135.492C240.182 128.053 239.984 120.408 238.222 113.051C236.46 105.693 233.173 98.7879 228.573 92.7813C223.974 86.7747 218.164 81.8007 211.521 78.1812C204.877 74.5617 197.548 72.3773 190.007 71.7694C182.466 71.1616 174.882 72.1438 167.744 74.6524Z" fill="#C22046"/>
<path d="M188.398 145.369H182.154C181.365 145.272 180.641 144.88 180.129 144.272C179.617 143.663 179.354 142.883 179.394 142.088L176.635 92.3202C176.499 90.058 177.969 88.3387 179.689 88.565L192.922 90.3973C193.735 90.6348 194.432 91.162 194.883 91.879C195.333 92.596 195.505 93.4532 195.366 94.2883L191.135 142.247C191.141 143.012 190.865 143.753 190.361 144.329C189.856 144.904 189.158 145.274 188.398 145.369Z" fill="white"/>
<path d="M185.683 162.629C188.944 162.629 191.588 159.591 191.588 155.843C191.588 152.095 188.944 149.056 185.683 149.056C182.422 149.056 179.779 152.095 179.779 155.843C179.779 159.591 182.422 162.629 185.683 162.629Z" fill="white"/>
<path d="M287.324 239.793H246.604L231.923 215.791H271.669C273.058 215.79 274.423 216.145 275.635 216.823C276.847 217.5 277.865 218.476 278.592 219.659L289.088 236.807C289.273 237.111 289.371 237.46 289.373 237.816C289.375 238.171 289.28 238.521 289.099 238.827C288.918 239.134 288.657 239.385 288.345 239.555C288.032 239.725 287.679 239.807 287.324 239.793Z" fill="#E0AC69"/>
<path d="M243.091 215.699L100.03 215.5C98.1805 215.497 96.6794 216.994 96.6768 218.843L96.5442 313.81C96.5417 315.659 98.0385 317.16 99.8876 317.163L242.949 317.362C244.798 317.365 246.299 315.868 246.301 314.019L246.434 219.052C246.437 217.203 244.94 215.702 243.091 215.699Z" fill="#E0AC69"/>
<path d="M140.756 215.655H272.348C273.548 215.655 274.699 216.132 275.547 216.98C276.396 217.829 276.872 218.98 276.872 220.179V312.929C276.872 314.129 276.396 315.28 275.547 316.129C274.699 316.977 273.548 317.454 272.348 317.454H140.756V215.655Z" fill="#F7CD97"/>
<path d="M126.934 215.361H109.583V225.563H126.934V215.361Z" fill="#F1C27D"/>
<path d="M126.505 306.997L109.154 306.973L109.14 317.175L126.491 317.2L126.505 306.997Z" fill="#F1C27D"/>
<path d="M83.7488 239.544H125.124C125.458 239.54 125.786 239.454 126.079 239.292C126.371 239.13 126.618 238.898 126.798 238.616L140.982 215.655H99.1091C98.3646 215.657 97.6329 215.849 96.9835 216.213C96.3342 216.578 95.7887 217.102 95.3991 217.736L82.8666 238.096C82.7956 238.248 82.7633 238.415 82.7726 238.583C82.7818 238.75 82.8324 238.913 82.9197 239.056C83.007 239.2 83.1284 239.319 83.273 239.404C83.4177 239.489 83.5811 239.537 83.7488 239.544Z" fill="#F1C27D"/>
<path d="M107.366 316.21C116.686 316.21 124.242 308.249 124.242 298.429C124.242 288.609 116.686 280.648 107.366 280.648C98.0457 280.648 90.4901 288.609 90.4901 298.429C90.4901 308.249 98.0457 316.21 107.366 316.21Z" fill="#F3BDCA"/>
<path d="M123.858 316.21C128.468 316.21 132.205 312.898 132.205 308.812C132.205 304.727 128.468 301.415 123.858 301.415C119.247 301.415 115.51 304.727 115.51 308.812C115.51 312.898 119.247 316.21 123.858 316.21Z" fill="#B6EFDA"/>
<path d="M90.5128 316.21C96.1724 316.21 100.76 312.138 100.76 307.116C100.76 302.093 96.1724 298.022 90.5128 298.022C84.8531 298.022 80.265 302.093 80.265 307.116C80.265 312.138 84.8531 316.21 90.5128 316.21Z" fill="#F3BDCA"/>
<path d="M152.904 317.363H61.4436C61.4436 317.363 97.7745 304.084 152.904 317.363Z" fill="#F3BDCA"/>
<path d="M126.776 315.531C135.684 315.531 142.905 309.11 142.905 301.189C142.905 293.268 135.684 286.846 126.776 286.846C117.868 286.846 110.646 293.268 110.646 301.189C110.646 309.11 117.868 315.531 126.776 315.531Z" fill="#F3BDCA"/>
<path d="M142.905 315.531C147.365 315.531 150.981 312.32 150.981 308.36C150.981 304.399 147.365 301.189 142.905 301.189C138.445 301.189 134.829 304.399 134.829 308.36C134.829 312.32 138.445 315.531 142.905 315.531Z" fill="#F3BDCA"/>
<path d="M110.624 315.531C116.096 315.531 120.532 311.591 120.532 306.731C120.532 301.871 116.096 297.931 110.624 297.931C105.151 297.931 100.715 301.871 100.715 306.731C100.715 311.591 105.151 315.531 110.624 315.531Z" fill="#F3BDCA"/>
<path d="M170.165 317.069H81.5997C81.5997 317.069 116.732 304.197 170.165 317.069Z" fill="#F3BDCA"/>
<path d="M260.155 316.232C270.312 316.232 278.546 308.282 278.546 298.474C278.546 288.666 270.312 280.716 260.155 280.716C249.997 280.716 241.763 288.666 241.763 298.474C241.763 308.282 249.997 316.232 260.155 316.232Z" fill="#F3BDCA"/>
<path d="M272.393 316.232C276.616 316.232 280.04 312.92 280.04 308.835C280.04 304.749 276.616 301.438 272.393 301.438C268.17 301.438 264.747 304.749 264.747 308.835C264.747 312.92 268.17 316.232 272.393 316.232Z" fill="#B6EFDA"/>
<path d="M241.786 316.21C246.983 316.21 251.196 312.148 251.196 307.138C251.196 302.128 246.983 298.067 241.786 298.067C236.588 298.067 232.375 302.128 232.375 307.138C232.375 312.148 236.588 316.21 241.786 316.21Z" fill="#F3BDCA"/>
<path d="M299.11 317.363H215.115C215.115 317.363 248.437 304.107 299.11 317.363Z" fill="#F3BDCA"/>
<path d="M285.016 316.277C293.2 316.277 299.834 309.866 299.834 301.958C299.834 294.049 293.2 287.638 285.016 287.638C276.833 287.638 270.199 294.049 270.199 301.958C270.199 309.866 276.833 316.277 285.016 316.277Z" fill="#F3BDCA"/>
<path d="M299.834 316.255C303.919 316.255 307.231 313.054 307.231 309.106C307.231 305.158 303.919 301.958 299.834 301.958C295.748 301.958 292.436 305.158 292.436 309.106C292.436 313.054 295.748 316.255 299.834 316.255Z" fill="#F3BDCA"/>
<path d="M270.199 316.277C275.221 316.277 279.293 312.338 279.293 307.478C279.293 302.617 275.221 298.678 270.199 298.678C265.176 298.678 261.105 302.617 261.105 307.478C261.105 312.338 265.176 316.277 270.199 316.277Z" fill="#F3BDCA"/>
<path d="M325.623 317.363H244.387C244.387 317.363 276.646 304.537 325.623 317.363Z" fill="#F3BDCA"/>
<path d="M231.583 211.334C231.403 210.589 231.267 209.834 231.176 209.072" stroke="#1A2E35" stroke-width="0.25" stroke-linecap="round" stroke-linejoin="round"/>
<path d="M230.882 204.661C231.018 197.263 233.981 190.205 239.637 186.97C254.047 178.759 270.787 193.214 287.256 183.306C303.091 173.85 296.146 155.956 290.627 150.051C284.564 143.536 278.388 149.576 282.55 156.091C289.79 167.402 306.394 168.918 318.632 156.318C326.55 148.151 327.048 137.564 326.573 131.705" stroke="#1A2E35" stroke-width="0.25" stroke-linecap="round" stroke-linejoin="round" stroke-dasharray="1.97 1.97"/>
<path d="M326.256 129.488C326.053 128.085 325.849 127.226 325.849 127.226" stroke="#1A2E35" stroke-width="0.25" stroke-linecap="round" stroke-linejoin="round"/>
<path d="M325.034 118.358C329.423 117.815 331.821 126.728 326.143 127.407C320.465 128.085 320.646 118.878 325.034 118.358Z" fill="#1A2E35"/>
<path d="M332.296 130.031C333.948 129.194 334.174 126.253 332.047 123.244C330.461 121.186 328.495 119.451 326.256 118.132C326.004 120.717 326.242 123.326 326.957 125.823C328.156 129.307 330.645 130.868 332.296 130.031Z" fill="#ECECEC"/>
<path d="M326.256 118.132C327.048 119.851 327.885 121.525 328.745 123.222C329.604 124.918 330.464 126.57 331.391 128.221C330.6 126.502 329.763 124.828 328.903 123.131C328.043 121.435 327.184 119.896 326.256 118.132Z" fill="#1A2E35"/>
<path d="M332.251 126.027C331.799 125.642 331.301 125.303 330.826 124.964C330.334 124.635 329.82 124.34 329.287 124.081C330.194 124.846 331.189 125.5 332.251 126.027Z" fill="#1A2E35"/>
<path d="M328.518 122.362C328.36 122.973 328.27 123.584 328.156 124.195C328.043 124.805 328.021 125.439 327.998 126.05C328.164 125.449 328.285 124.836 328.36 124.217C328.447 123.602 328.5 122.983 328.518 122.362Z" fill="#1A2E35"/>
<path d="M329.129 121.435C328.895 121.248 328.645 121.082 328.383 120.937C328.117 120.806 327.835 120.707 327.546 120.643C327.771 120.835 328.023 120.995 328.292 121.118C328.556 121.26 328.837 121.367 329.129 121.435Z" fill="#1A2E35"/>
<path d="M320.895 131.501C319.085 131.072 318.18 128.266 319.515 124.715C320.561 122.343 322.051 120.193 323.903 118.381C324.77 120.825 325.162 123.413 325.057 126.004C324.74 129.805 322.704 131.909 320.895 131.501Z" fill="#ECECEC"/>
<path d="M323.994 118.494C323.655 120.349 323.225 122.181 322.817 124.036C322.41 125.891 321.935 127.701 321.438 129.511C321.777 127.656 322.207 125.823 322.614 123.991C323.021 122.159 323.406 120.304 323.994 118.494Z" fill="#1A2E35"/>
<path d="M319.967 127.588C320.327 127.115 320.712 126.662 321.121 126.23C321.523 125.788 321.953 125.372 322.41 124.986C321.699 125.945 320.88 126.818 319.967 127.588Z" fill="#1A2E35"/>
<path d="M322.84 123.109C323.134 123.652 323.383 124.24 323.632 124.805C323.881 125.371 324.062 125.959 324.22 126.57C323.92 126.022 323.655 125.455 323.428 124.873C323.225 124.421 322.999 123.719 322.84 123.109Z" fill="#1A2E35"/>
<path d="M321.913 122.385C322.093 122.145 322.298 121.925 322.524 121.729C322.758 121.542 323.008 121.376 323.27 121.231C323.097 121.476 322.891 121.697 322.659 121.887C322.432 122.084 322.181 122.251 321.913 122.385Z" fill="#1A2E35"/>
<path d="M325.034 118.358C325.091 118.779 325.309 119.16 325.643 119.422C325.977 119.684 326.4 119.806 326.822 119.761C327.137 119.723 327.434 119.592 327.675 119.385C327.916 119.178 328.09 118.904 328.176 118.599C328.261 118.293 328.254 117.968 328.156 117.666C328.057 117.364 327.871 117.099 327.621 116.903C327.371 116.706 327.068 116.589 326.752 116.565C326.435 116.54 326.118 116.611 325.841 116.766C325.565 116.922 325.34 117.156 325.196 117.44C325.053 117.723 324.996 118.043 325.034 118.358Z" fill="#375A64"/>
<path d="M321.867 118.743C321.868 118.969 321.917 119.193 322.011 119.4C322.104 119.606 322.241 119.791 322.411 119.941C322.581 120.091 322.781 120.203 322.997 120.27C323.214 120.338 323.442 120.358 323.667 120.331C323.892 120.304 324.109 120.229 324.303 120.112C324.497 119.995 324.664 119.838 324.794 119.651C324.923 119.465 325.011 119.253 325.053 119.031C325.094 118.808 325.088 118.578 325.034 118.358C324.978 117.938 324.76 117.556 324.426 117.294C324.092 117.032 323.669 116.91 323.247 116.955C322.828 117.012 322.449 117.231 322.19 117.566C321.932 117.9 321.816 118.323 321.867 118.743Z" fill="#375A64"/>
<path d="M140.756 201.335C139.993 198.574 139.993 195.658 140.756 192.897C141.537 195.656 141.537 198.577 140.756 201.335Z" fill="#1A2E35"/>
<path d="M132.205 203.779C130.142 201.784 128.677 199.254 127.975 196.472C130.02 198.48 131.482 201.005 132.205 203.779Z" fill="#1A2E35"/>
<path d="M125.984 210.248C123.21 209.526 120.685 208.064 118.677 206.018C121.451 206.741 123.976 208.203 125.984 210.248Z" fill="#1A2E35"/>
<path d="M155.958 209.66C157.989 207.587 160.559 206.122 163.378 205.43C161.369 207.485 158.833 208.949 156.048 209.66H155.958Z" fill="#1A2E35"/>
<path d="M149.511 203.439C150.234 200.666 151.696 198.14 153.741 196.132C153.018 198.906 151.556 201.431 149.511 203.439Z" fill="#1A2E35"/>
</svg>
