<svg width="371" height="371" viewBox="0 0 371 371" fill="none" xmlns="http://www.w3.org/2000/svg">
<path d="M277.209 306.528C300.98 287.655 318.353 261.911 326.958 232.804C335.563 203.698 334.982 172.646 325.293 143.882C315.605 115.117 297.282 90.0412 272.821 72.0716C248.36 54.1021 218.953 44.1138 188.608 43.4685C158.263 42.8233 128.457 51.5525 103.254 68.466C78.0518 85.3795 58.6788 109.654 47.7767 137.981C36.8747 166.307 34.974 197.306 42.334 226.752C49.694 256.198 65.9563 282.658 88.9039 302.524" fill="#FCEFF2"/>
<path d="M246.398 303.767C271.211 303.767 291.326 284.412 291.326 260.537C291.326 236.661 271.211 217.306 246.398 217.306C221.586 217.306 201.471 236.661 201.471 260.537C201.471 284.412 221.586 303.767 246.398 303.767Z" fill="#EB92A7"/>
<path d="M291.326 303.745C303.732 303.745 313.789 294.072 313.789 282.141C313.789 270.209 303.732 260.537 291.326 260.537C278.92 260.537 268.862 270.209 268.862 282.141C268.862 294.072 278.92 303.745 291.326 303.745Z" fill="#EB92A7"/>
<path d="M201.471 303.768C216.713 303.768 229.07 291.877 229.07 277.209C229.07 262.542 216.713 250.651 201.471 250.651C186.228 250.651 173.872 262.542 173.872 277.209C173.872 291.877 186.228 303.768 201.471 303.768Z" fill="#A0E8CB"/>
<path d="M369.575 307.138H123.199C123.199 307.138 221.016 268.342 369.575 307.138Z" fill="#EB92A7"/>
<path d="M124.059 303.745C157.355 303.745 184.346 277.776 184.346 245.742C184.346 213.708 157.355 187.74 124.059 187.74C90.7629 187.74 63.7713 213.708 63.7713 245.742C63.7713 277.776 90.7629 303.745 124.059 303.745Z" fill="#EB92A7"/>
<path d="M184.347 303.767C201.001 303.767 214.502 290.783 214.502 274.766C214.502 258.749 201.001 245.765 184.347 245.765C167.693 245.765 154.192 258.749 154.192 274.766C154.192 290.783 167.693 303.767 184.347 303.767Z" fill="#A0E8CB"/>
<path d="M63.7709 303.745C84.2232 303.745 100.803 287.793 100.803 268.115C100.803 248.438 84.2232 232.486 63.7709 232.486C43.3186 232.486 26.7388 248.438 26.7388 268.115C26.7388 287.793 43.3186 303.745 63.7709 303.745Z" fill="#EB92A7"/>
<path d="M246.376 307.138H0C0 307.138 97.7947 268.342 246.376 307.138Z" fill="#EB92A7"/>
<path d="M94.6277 304.356H91.5284V306.618H94.6277V304.356Z" fill="#00233F"/>
<path d="M144.599 304.356H141.5V306.618H144.599V304.356Z" fill="#00233F"/>
<path d="M151.386 232.644H88.045C87.1705 232.644 86.4615 233.353 86.4615 234.228V303.338C86.4615 304.212 87.1705 304.921 88.045 304.921H151.386C152.261 304.921 152.97 304.212 152.97 303.338V234.228C152.97 233.353 152.261 232.644 151.386 232.644Z" fill="url(#paint0_linear_1_330)"/>
<path d="M151.295 232.644H88.2253C87.8493 232.648 87.4853 232.777 87.1905 233.011C86.8957 233.244 86.6867 233.569 86.5965 233.934C86.7691 233.91 86.9442 233.91 87.1168 233.934H150.187C150.631 233.934 151.057 234.11 151.371 234.424C151.684 234.738 151.861 235.164 151.861 235.608V304.514C151.872 304.642 151.872 304.771 151.861 304.899C152.191 304.784 152.479 304.571 152.685 304.288C152.891 304.005 153.006 303.665 153.015 303.315V234.318C153.015 234.095 152.97 233.873 152.883 233.667C152.796 233.461 152.669 233.274 152.508 233.118C152.348 232.962 152.158 232.84 151.95 232.759C151.741 232.677 151.519 232.638 151.295 232.644V232.644Z" fill="#0F6EAC"/>
<path d="M152.97 252.077H86.4615V253.524H152.97V252.077Z" fill="#106EAD"/>
<path d="M152.97 250.628H86.4615V252.076H152.97V250.628Z" fill="#02385D"/>
<path d="M152.97 268.772H86.4615V270.219H152.97V268.772Z" fill="#02385D"/>
<path d="M152.97 286.914H86.4615V288.362H152.97V286.914Z" fill="#02385D"/>
<path d="M152.97 270.264H86.4615V271.712H152.97V270.264Z" fill="#106EAD"/>
<path d="M152.97 288.453H86.4615V289.901H152.97V288.453Z" fill="#106EAD"/>
<path d="M138.22 240.878H135.551V244.023H138.22V240.878Z" fill="#91B9D7"/>
<path d="M142.79 240.878H140.12V244.023H142.79V240.878Z" fill="#177BAC"/>
<path d="M147.337 240.878H144.668V244.023H147.337V240.878Z" fill="#F58220"/>
<path d="M138.22 260.084H135.551V263.229H138.22V260.084Z" fill="#91B9D7"/>
<path d="M142.79 260.084H140.12V263.229H142.79V260.084Z" fill="#177BAC"/>
<path d="M147.337 260.084H144.668V263.229H147.337V260.084Z" fill="#F58220"/>
<path d="M138.22 277.209H135.551V280.354H138.22V277.209Z" fill="#91B9D7"/>
<path d="M142.79 277.209H140.12V280.354H142.79V277.209Z" fill="#177BAC"/>
<path d="M147.337 277.209H144.668V280.354H147.337V277.209Z" fill="#F58220"/>
<path d="M138.22 295.873H135.551V299.017H138.22V295.873Z" fill="#91B9D7"/>
<path d="M142.79 295.873H140.12V299.017H142.79V295.873Z" fill="#177BAC"/>
<path d="M147.337 295.873H144.668V299.017H147.337V295.873Z" fill="#F58220"/>
<path d="M131.569 239.227H91.5284V245.064H131.569V239.227Z" fill="#106EAD"/>
<path d="M131.569 258.75H91.5284V264.586H131.569V258.75Z" fill="#106EAD"/>
<path d="M131.569 276.463H91.5284V282.3H131.569V276.463Z" fill="#106EAD"/>
<path d="M131.569 294.176H91.5284V300.012H131.569V294.176Z" fill="#106EAD"/>
<path d="M226.197 304.356H223.098V306.618H226.197V304.356Z" fill="#00233F"/>
<path d="M276.169 304.356H273.07V306.618H276.169V304.356Z" fill="#00233F"/>
<path d="M282.955 232.644H219.614C218.739 232.644 218.03 233.353 218.03 234.228V303.338C218.03 304.212 218.739 304.921 219.614 304.921H282.955C283.83 304.921 284.539 304.212 284.539 303.338V234.228C284.539 233.353 283.83 232.644 282.955 232.644Z" fill="url(#paint1_linear_1_330)"/>
<path d="M282.774 232.644H219.704C219.328 232.648 218.964 232.777 218.669 233.01C218.374 233.244 218.165 233.569 218.075 233.934C218.248 233.91 218.423 233.91 218.596 233.934H281.756C282.2 233.934 282.626 234.11 282.94 234.424C283.254 234.738 283.43 235.164 283.43 235.608V304.514C283.441 304.642 283.441 304.771 283.43 304.899C283.761 304.783 284.048 304.57 284.255 304.287C284.461 304.004 284.576 303.665 284.584 303.315V234.318C284.585 234.086 284.537 233.857 284.445 233.645C284.352 233.432 284.217 233.241 284.047 233.084C283.876 232.926 283.675 232.806 283.456 232.73C283.237 232.655 283.005 232.625 282.774 232.644V232.644Z" fill="#0F6EAC"/>
<path d="M284.539 252.077H218.03V253.524H284.539V252.077Z" fill="#106EAD"/>
<path d="M284.539 250.628H218.03V252.076H284.539V250.628Z" fill="#02385D"/>
<path d="M284.539 268.772H218.03V270.219H284.539V268.772Z" fill="#02385D"/>
<path d="M284.539 286.914H218.03V288.362H284.539V286.914Z" fill="#02385D"/>
<path d="M284.539 270.264H218.03V271.712H284.539V270.264Z" fill="#106EAD"/>
<path d="M284.539 288.453H218.03V289.901H284.539V288.453Z" fill="#106EAD"/>
<path d="M269.789 240.878H267.12V244.023H269.789V240.878Z" fill="#91B9D7"/>
<path d="M274.359 240.878H271.69V244.023H274.359V240.878Z" fill="#177BAC"/>
<path d="M278.906 240.878H276.236V244.023H278.906V240.878Z" fill="#F58220"/>
<path d="M269.789 260.084H267.12V263.229H269.789V260.084Z" fill="#91B9D7"/>
<path d="M274.359 260.084H271.69V263.229H274.359V260.084Z" fill="#177BAC"/>
<path d="M278.906 260.084H276.236V263.229H278.906V260.084Z" fill="#F58220"/>
<path d="M269.789 277.209H267.12V280.354H269.789V277.209Z" fill="#91B9D7"/>
<path d="M274.359 277.209H271.69V280.354H274.359V277.209Z" fill="#177BAC"/>
<path d="M278.906 277.209H276.236V280.354H278.906V277.209Z" fill="#F58220"/>
<path d="M269.789 295.873H267.12V299.017H269.789V295.873Z" fill="#91B9D7"/>
<path d="M274.359 295.873H271.69V299.017H274.359V295.873Z" fill="#177BAC"/>
<path d="M278.906 295.873H276.236V299.017H278.906V295.873Z" fill="#F58220"/>
<path d="M263.139 239.227H223.098V245.064H263.139V239.227Z" fill="#106EAD"/>
<path d="M263.139 258.75H223.098V264.586H263.139V258.75Z" fill="#106EAD"/>
<path d="M263.139 276.463H223.098V282.3H263.139V276.463Z" fill="#106EAD"/>
<path d="M263.139 294.176H223.098V300.012H263.139V294.176Z" fill="#106EAD"/>
<path opacity="0.5" d="M235.381 232.644H135.596V305.622H235.381V232.644Z" fill="#231F20"/>
<path d="M155.661 305.532H151.997V308.224H155.661V305.532Z" fill="#00233F"/>
<path d="M215.044 305.532H211.379V308.224H215.044V305.532Z" fill="#00233F"/>
<path d="M223.437 220.315H147.586C146.711 220.315 146.002 221.024 146.002 221.899V304.605C146.002 305.479 146.711 306.188 147.586 306.188H223.437C224.312 306.188 225.021 305.479 225.021 304.605V221.899C225.021 221.024 224.312 220.315 223.437 220.315Z" fill="url(#paint2_linear_1_330)"/>
<path d="M223.03 220.315H147.97C147.524 220.319 147.091 220.472 146.743 220.751C146.394 221.03 146.149 221.418 146.047 221.853C146.25 221.828 146.455 221.828 146.658 221.853H221.695C221.958 221.85 222.218 221.9 222.461 221.999C222.704 222.098 222.924 222.244 223.11 222.43C223.295 222.615 223.442 222.836 223.541 223.079C223.64 223.322 223.689 223.582 223.686 223.844V305.736C223.697 305.879 223.697 306.022 223.686 306.165C224.084 306.039 224.43 305.789 224.675 305.451C224.919 305.113 225.048 304.705 225.043 304.288V222.306C225.043 222.042 224.991 221.782 224.89 221.539C224.788 221.296 224.64 221.075 224.452 220.89C224.265 220.705 224.043 220.559 223.799 220.46C223.555 220.361 223.293 220.312 223.03 220.315V220.315Z" fill="#0F6EAC"/>
<path d="M225.021 243.412H146.002V245.131H225.021V243.412Z" fill="#106EAD"/>
<path d="M225.021 241.693H146.002V243.412H225.021V241.693Z" fill="#02385D"/>
<path d="M225.021 263.252H146.002V264.971H225.021V263.252Z" fill="#02385D"/>
<path d="M225.021 284.81H146.002V286.53H225.021V284.81Z" fill="#02385D"/>
<path d="M225.021 265.016H146.002V266.735H225.021V265.016Z" fill="#106EAD"/>
<path d="M225.021 286.62H146.002V288.339H225.021V286.62Z" fill="#106EAD"/>
<path d="M207.488 230.11H204.321V233.843H207.488V230.11Z" fill="#91B9D7"/>
<path d="M212.895 230.11H209.728V233.843H212.895V230.11Z" fill="#177BAC"/>
<path d="M218.324 230.11H215.157V233.843H218.324V230.11Z" fill="#F58220"/>
<path d="M207.488 252.936H204.321V256.669H207.488V252.936Z" fill="#91B9D7"/>
<path d="M212.895 252.936H209.728V256.669H212.895V252.936Z" fill="#177BAC"/>
<path d="M218.324 252.936H215.157V256.669H218.324V252.936Z" fill="#F58220"/>
<path d="M207.488 273.273H204.321V277.006H207.488V273.273Z" fill="#91B9D7"/>
<path d="M212.895 273.273H209.728V277.006H212.895V273.273Z" fill="#177BAC"/>
<path d="M218.324 273.273H215.157V277.006H218.324V273.273Z" fill="#F58220"/>
<path d="M207.488 295.465H204.321V299.198H207.488V295.465Z" fill="#91B9D7"/>
<path d="M212.895 295.465H209.728V299.198H212.895V295.465Z" fill="#177BAC"/>
<path d="M218.324 295.465H215.157V299.198H218.324V295.465Z" fill="#F58220"/>
<path d="M199.593 228.142H151.997V235.065H199.593V228.142Z" fill="#106EAD"/>
<path d="M199.593 251.33H151.997V258.252H199.593V251.33Z" fill="#106EAD"/>
<path d="M199.593 272.391H151.997V279.313H199.593V272.391Z" fill="#106EAD"/>
<path d="M199.593 293.43H151.997V300.352H199.593V293.43Z" fill="#106EAD"/>
<path d="M268.953 310.645C279.11 310.645 287.345 302.694 287.345 292.886C287.345 283.079 279.11 275.128 268.953 275.128C258.796 275.128 250.561 283.079 250.561 292.886C250.561 302.694 258.796 310.645 268.953 310.645Z" fill="#F3BDCA"/>
<path d="M281.167 310.667C285.39 310.667 288.814 307.355 288.814 303.27C288.814 299.185 285.39 295.873 281.167 295.873C276.945 295.873 273.521 299.185 273.521 303.27C273.521 307.355 276.945 310.667 281.167 310.667Z" fill="#B6EFDA"/>
<path d="M250.561 310.645C255.758 310.645 259.972 306.583 259.972 301.573C259.972 296.563 255.758 292.502 250.561 292.502C245.363 292.502 241.15 296.563 241.15 301.573C241.15 306.583 245.363 310.645 250.561 310.645Z" fill="#F3BDCA"/>
<path d="M307.84 311.798H223.957C223.957 311.798 257.212 298.61 307.84 311.798Z" fill="#F3BDCA"/>
<path d="M293.791 310.69C301.974 310.69 308.608 304.279 308.608 296.37C308.608 288.461 301.974 282.05 293.791 282.05C285.607 282.05 278.973 288.461 278.973 296.37C278.973 304.279 285.607 310.69 293.791 310.69Z" fill="#F3BDCA"/>
<path d="M308.608 310.69C312.694 310.69 316.006 307.489 316.006 303.541C316.006 299.593 312.694 296.393 308.608 296.393C304.523 296.393 301.211 299.593 301.211 303.541C301.211 307.489 304.523 310.69 308.608 310.69Z" fill="#F3BDCA"/>
<path d="M278.973 310.69C283.996 310.69 288.067 306.75 288.067 301.89C288.067 297.03 283.996 293.09 278.973 293.09C273.951 293.09 269.879 297.03 269.879 301.89C269.879 306.75 273.951 310.69 278.973 310.69Z" fill="#F3BDCA"/>
<path d="M334.421 311.798H253.162C253.162 311.798 285.421 298.972 334.421 311.798Z" fill="#F3BDCA"/>
<path d="M79.7424 310.645C89.0627 310.645 96.6183 302.684 96.6183 292.864C96.6183 283.044 89.0627 275.083 79.7424 275.083C70.422 275.083 62.8664 283.044 62.8664 292.864C62.8664 302.684 70.422 310.645 79.7424 310.645Z" fill="#F3BDCA"/>
<path d="M96.2341 310.645C100.844 310.645 104.582 307.333 104.582 303.247C104.582 299.162 100.844 295.85 96.2341 295.85C91.6239 295.85 87.8866 299.162 87.8866 303.247C87.8866 307.333 91.6239 310.645 96.2341 310.645Z" fill="#B6EFDA"/>
<path d="M62.8668 310.645C68.5265 310.645 73.1146 306.573 73.1146 301.551C73.1146 296.528 68.5265 292.457 62.8668 292.457C57.2072 292.457 52.6191 296.528 52.6191 301.551C52.6191 306.573 57.2072 310.645 62.8668 310.645Z" fill="#F3BDCA"/>
<path d="M125.28 311.798H33.933C33.933 311.798 70.1281 298.61 125.28 311.798Z" fill="#F3BDCA"/>
<path d="M99.1294 309.966C108.037 309.966 115.259 303.545 115.259 295.624C115.259 287.703 108.037 281.281 99.1294 281.281C90.2213 281.281 82.9999 287.703 82.9999 295.624C82.9999 303.545 90.2213 309.966 99.1294 309.966Z" fill="#F3BDCA"/>
<path d="M115.282 309.966C119.742 309.966 123.358 306.755 123.358 302.795C123.358 298.834 119.742 295.624 115.282 295.624C110.822 295.624 107.206 298.834 107.206 302.795C107.206 306.755 110.822 309.966 115.282 309.966Z" fill="#F3BDCA"/>
<path d="M83.0001 309.943C88.4723 309.943 92.9085 306.003 92.9085 301.143C92.9085 296.283 88.4723 292.343 83.0001 292.343C77.5278 292.343 73.0917 296.283 73.0917 301.143C73.0917 306.003 77.5278 309.943 83.0001 309.943Z" fill="#F3BDCA"/>
<path d="M142.519 311.504H53.9536C53.9536 311.504 89.0855 298.61 142.519 311.504Z" fill="#F3BDCA"/>
<path d="M45.8995 159.507C57.7061 159.507 67.2772 151.01 67.2772 140.528C67.2772 130.045 57.7061 121.548 45.8995 121.548C34.0929 121.548 24.5217 130.045 24.5217 140.528C24.5217 151.01 34.0929 159.507 45.8995 159.507Z" fill="#F3BDCA"/>
<path d="M67.2778 159.53C73.1749 159.53 77.9554 155.276 77.9554 150.029C77.9554 144.782 73.1749 140.528 67.2778 140.528C61.3808 140.528 56.6003 144.782 56.6003 150.029C56.6003 155.276 61.3808 159.53 67.2778 159.53Z" fill="#F3BDCA"/>
<path d="M24.5455 159.53C31.7919 159.53 37.6663 154.304 37.6663 147.857C37.6663 141.41 31.7919 136.184 24.5455 136.184C17.2992 136.184 11.4248 141.41 11.4248 147.857C11.4248 154.304 17.2992 159.53 24.5455 159.53Z" fill="#F3BDCA"/>
<path d="M106.323 162.245H0C0 162.245 42.1899 141.319 106.323 162.245Z" fill="#F3BDCA"/>
<path d="M319.06 81.0096C329.517 81.0096 337.995 73.4742 337.995 64.1789C337.995 54.8835 329.517 47.3481 319.06 47.3481C308.603 47.3481 300.125 54.8835 300.125 64.1789C300.125 73.4742 308.603 81.0096 319.06 81.0096Z" fill="#F3BDCA"/>
<path d="M300.125 81.0095C305.36 81.0095 309.604 77.2418 309.604 72.5941C309.604 67.9464 305.36 64.1787 300.125 64.1787C294.89 64.1787 290.647 67.9464 290.647 72.5941C290.647 77.2418 294.89 81.0095 300.125 81.0095Z" fill="#F3BDCA"/>
<path d="M337.994 81.0093C344.416 81.0093 349.622 76.3807 349.622 70.6711C349.622 64.9614 344.416 60.3329 337.994 60.3329C331.573 60.3329 326.367 64.9614 326.367 70.6711C326.367 76.3807 331.573 81.0093 337.994 81.0093Z" fill="#F3BDCA"/>
<path d="M267.12 82.3211H371C371 82.3211 329.76 67.2096 267.12 82.3211Z" fill="#F3BDCA"/>
<g opacity="0.2">
<path opacity="0.2" d="M73.2042 336.139C92.6445 336.139 108.404 335.147 108.404 333.922C108.404 332.698 92.6445 331.705 73.2042 331.705C53.7639 331.705 38.0045 332.698 38.0045 333.922C38.0045 335.147 53.7639 336.139 73.2042 336.139Z" fill="#727272"/>
</g>
<g opacity="0.2">
<path opacity="0.2" d="M316.754 335.28C336.194 335.28 351.953 334.287 351.953 333.063C351.953 331.839 336.194 330.846 316.754 330.846C297.313 330.846 281.554 331.839 281.554 333.063C281.554 334.287 297.313 335.28 316.754 335.28Z" fill="#727272"/>
</g>
<path d="M299.356 210.769L305.17 206.493C305.17 206.493 308.427 207.398 309.129 206.493C309.83 205.588 307.002 205.317 307.002 205.317C308.095 204.439 309.278 203.681 310.531 203.055C312.613 202.24 310.667 195.521 306.776 196.743C305.596 197.16 304.521 197.829 303.626 198.704C302.731 199.579 302.038 200.639 301.596 201.81L295.171 205.317L299.356 210.769Z" fill="#F2AA91"/>
<path d="M342.405 255.628L343.401 263.749C343.401 263.749 341.138 266.464 341.138 267.64C341.138 268.817 343.401 266.645 343.401 266.645C343.757 268.048 343.887 269.499 343.785 270.943C343.355 273.205 351.137 275.241 352.087 270.717C352.323 269.322 352.255 267.892 351.888 266.526C351.521 265.16 350.864 263.889 349.961 262.799V254.542L342.405 255.628Z" fill="#F2AA91"/>
<path d="M300.103 263.908H317.319L315.916 326.706H303.519L300.103 263.908Z" fill="#6C6D6D"/>
<path d="M316.12 263.908H332.475L332.34 326.706H319.965L316.12 263.908Z" fill="#6C6D6D"/>
<path d="M297.908 333.063H316.866L315.282 326.774H302.659C301.399 326.774 300.191 327.275 299.3 328.165C298.409 329.056 297.908 330.265 297.908 331.525V333.063Z" fill="#C22046"/>
<path opacity="0.2" d="M315.463 327.521C315.463 327.521 310.419 329.059 310.419 333.063H316.866L315.463 327.521Z" fill="#727272"/>
<path d="M314.445 333.063H333.425L331.819 326.774H319.196C317.936 326.774 316.727 327.275 315.836 328.165C314.946 329.056 314.445 330.265 314.445 331.525V333.063Z" fill="#C22046"/>
<path opacity="0.2" d="M303.655 198.598C302.969 199.259 302.389 200.023 301.936 200.86L301.71 202.851C301.488 204.591 301.682 206.358 302.275 208.009L302.411 208.416L304.469 206.833L303.655 198.598Z" fill="#727272"/>
<path d="M334.806 219.116C328.019 214.592 327.272 215.384 327.272 215.384C312.523 212.533 296.665 218.076 296.665 218.076C294.985 218.555 293.278 218.932 291.552 219.207L302.275 210.158L297.05 203.168L274.88 217.827C271.917 219.388 271.6 223.98 272.754 226.876C275.016 231.92 279.133 234.861 295.511 234.092L296.032 267.211L336.072 265.966C336.072 265.966 333.629 246.647 332.815 237.237C339.805 244.951 341.253 257.347 341.253 257.347L351.026 256.691C353.582 228.618 334.806 219.116 334.806 219.116Z" fill="#DB284E"/>
<path d="M303.406 196.087C303.406 196.087 299.221 187.853 305.894 184.957C312.568 182.062 318.336 185.297 322.092 192.649C322.092 192.649 334.33 195.974 319.264 213.28L303.406 196.087Z" fill="#221F20"/>
<path d="M303.497 195.702C303.497 195.702 301.936 208.416 305.193 213.008C305.529 213.509 305.974 213.928 306.495 214.232C307.015 214.536 307.599 214.717 308.2 214.763C308.801 214.809 309.405 214.718 309.966 214.496C310.527 214.274 311.03 213.928 311.437 213.483L311.143 216.786C312.45 217.455 313.904 217.783 315.371 217.74C316.839 217.696 318.271 217.283 319.536 216.537C319.536 216.537 318.065 215.089 318.043 206.38C318.043 206.38 322.363 203.688 319.038 200.385C315.713 197.082 316.414 202.308 316.414 202.308C316.414 202.308 313.835 185.613 303.497 195.702Z" fill="#F2AA91"/>
<path d="M332.543 169.529L329.76 168.172C329.434 167.954 329.201 167.621 329.109 167.24C329.017 166.858 329.072 166.456 329.263 166.113L338.9 143.491C338.961 143.262 339.073 143.05 339.227 142.869C339.382 142.689 339.575 142.546 339.792 142.451C340.009 142.355 340.245 142.309 340.482 142.317C340.719 142.325 340.951 142.386 341.162 142.496L346.614 146.206C346.934 146.482 347.136 146.871 347.178 147.292C347.22 147.713 347.099 148.134 346.84 148.468L334.511 168.828C334.34 169.179 334.038 169.449 333.67 169.58C333.302 169.711 332.897 169.693 332.543 169.529V169.529Z" fill="#C22046"/>
<path d="M331.697 174.866C332.515 173.208 332.015 171.29 330.581 170.582C329.147 169.875 327.321 170.646 326.503 172.304C325.685 173.962 326.184 175.88 327.618 176.587C329.053 177.295 330.878 176.524 331.697 174.866Z" fill="#C22046"/>
<path d="M341.818 177.763L340.053 175.659C339.842 175.436 339.724 175.141 339.724 174.834C339.724 174.526 339.842 174.231 340.053 174.008L352.337 162.063C352.462 161.936 352.614 161.839 352.782 161.778C352.95 161.717 353.13 161.694 353.308 161.711C353.485 161.729 353.657 161.786 353.81 161.878C353.963 161.97 354.093 162.095 354.192 162.244L357.427 167.086C357.517 167.216 357.58 167.363 357.613 167.518C357.645 167.673 357.647 167.833 357.618 167.989C357.588 168.144 357.528 168.293 357.441 168.425C357.354 168.557 357.241 168.671 357.11 168.76L343.333 177.967C343.098 178.119 342.816 178.182 342.538 178.145C342.26 178.107 342.005 177.972 341.818 177.763V177.763Z" fill="#C22046"/>
<path d="M339.608 180.726C340.591 179.895 340.8 178.525 340.074 177.667C339.348 176.808 337.963 176.785 336.98 177.615C335.997 178.446 335.789 179.816 336.515 180.674C337.24 181.533 338.625 181.556 339.608 180.726Z" fill="#C22046"/>
<path d="M319.512 165.367L317.25 165.118C316.998 165.084 316.768 164.955 316.608 164.757C316.449 164.559 316.37 164.308 316.39 164.054L317.046 149.169C317.044 149.022 317.074 148.876 317.135 148.741C317.196 148.607 317.286 148.488 317.398 148.393C317.511 148.297 317.643 148.228 317.786 148.191C317.928 148.153 318.077 148.147 318.222 148.174L322.747 149.214C323.008 149.283 323.231 149.453 323.366 149.687C323.502 149.92 323.54 150.198 323.471 150.459L320.462 164.53C320.421 164.756 320.305 164.962 320.133 165.114C319.96 165.266 319.741 165.355 319.512 165.367Z" fill="#C22046"/>
<path d="M320.147 169.624C320.286 168.345 319.492 167.209 318.375 167.088C317.257 166.967 316.238 167.905 316.099 169.185C315.961 170.464 316.754 171.6 317.872 171.721C318.99 171.842 320.009 170.903 320.147 169.624Z" fill="#C22046"/>
<path d="M118.493 204.434L114.693 211.492L108.653 206.968L113.177 200.543C113.177 200.543 113.72 197.67 115.439 197.829C117.159 197.987 122.633 201.923 128.605 203.168C128.712 203.183 128.813 203.223 128.902 203.284C128.991 203.345 129.064 203.426 129.117 203.52C129.169 203.614 129.2 203.719 129.205 203.826C129.21 203.934 129.191 204.041 129.148 204.14C128.764 205.543 126.682 207.85 118.493 204.434Z" fill="#F2AA91"/>
<path d="M24.1829 208.326L27.9834 215.384L34.0235 210.859L29.4991 204.435C29.4991 204.435 28.9561 201.562 27.2369 201.72C25.5176 201.878 19.8621 205.86 13.8899 207.059C13.7707 207.068 13.6558 207.108 13.5564 207.175C13.4569 207.241 13.3761 207.332 13.3217 207.439C13.2673 207.545 13.241 207.664 13.2455 207.784C13.2499 207.903 13.2848 208.02 13.347 208.122C13.9125 209.434 16.0843 211.742 24.1829 208.326Z" fill="#F2AA91"/>
<path d="M73.8379 329.964L74.5166 333.606H76.9145L76.7336 331.344L78.3397 333.606H91.0759C90.7974 332.537 90.2266 331.566 89.4275 330.803C88.6283 330.04 87.6325 329.514 86.5515 329.285L76.7336 327.023C76.3348 326.959 75.9266 326.992 75.5429 327.118C75.1592 327.244 74.8112 327.46 74.5279 327.747C74.2446 328.035 74.0341 328.386 73.9141 328.772C73.7941 329.158 73.768 329.566 73.8379 329.964V329.964Z" fill="#C22046"/>
<path d="M58.8164 329.964L59.495 333.606H61.9608L61.7572 331.344L63.3634 333.606H76.1221C75.8413 332.538 75.2697 331.568 74.471 330.806C73.6723 330.043 72.6777 329.516 71.5978 329.285L61.8025 327.023C61.3971 326.942 60.9782 326.962 60.5822 327.081C60.1863 327.199 59.8253 327.413 59.5308 327.703C59.2364 327.993 59.0173 328.35 58.8928 328.744C58.7682 329.138 58.742 329.557 58.8164 329.964Z" fill="#C22046"/>
<path d="M55.0161 264.179H72.2314L69.6299 328.833L58.432 326.978L55.0161 264.179Z" fill="#6C6D6D"/>
<path d="M71.0338 264.179H87.3894L86.7108 329.33L74.8569 326.978L71.0338 264.179Z" fill="#6C6D6D"/>
<path d="M82.887 192.694C80.8768 191.378 78.4998 190.736 76.1004 190.861C67.0516 186.337 62.5273 196.879 62.0296 200.498C61.5319 204.118 61.3509 208.122 56.5551 212.058C42.5295 223.55 66.7349 228.482 66.7349 228.482C68.9971 217.691 82.05 220.835 81.2809 221.831C97.1388 228.776 88.9497 197.354 82.887 192.694Z" fill="#1E1C1F"/>
<path d="M91.9353 267.075L53.1161 268.047C53.1161 268.047 55.152 239.046 54.677 235.562C54.677 235.562 39.9048 237.349 25.653 214.071L32.892 207.918C32.892 207.918 45.9675 221.899 58.9073 218.641C73.0008 215.112 88.6325 219.591 88.6325 219.591C92.8024 218.46 96.702 216.501 100.099 213.831C103.496 211.161 106.32 207.835 108.404 204.05L116.412 209.366C114.876 215.594 111.658 221.28 107.11 225.804C102.562 230.328 96.8591 233.515 90.6233 235.019L91.9353 267.075Z" fill="#DB284E"/>
<path d="M83.5198 198.168C83.5198 198.168 85.782 210.384 82.8185 215.022C82.5197 215.521 82.1115 215.946 81.6247 216.265C81.1378 216.583 80.585 216.787 80.0078 216.861C79.4306 216.935 78.8442 216.878 78.2926 216.692C77.7411 216.507 77.2388 216.198 76.8237 215.791L77.2761 218.98C76.0508 219.699 74.6641 220.096 73.2445 220.135C71.8248 220.175 70.4182 219.855 69.1548 219.207C69.1548 219.207 70.4895 217.714 70.0597 209.298C70.0597 209.298 65.7389 207.036 68.7476 203.552C71.7563 200.068 71.3944 205.272 71.3944 205.272C71.3944 205.272 72.9779 188.984 83.5198 198.168Z" fill="#F2AA91"/>
<path d="M185.5 204.774C192.372 204.774 197.942 199.203 197.942 192.332C197.942 185.46 192.372 179.89 185.5 179.89C178.628 179.89 173.058 185.46 173.058 192.332C173.058 199.203 178.628 204.774 185.5 204.774Z" fill="#C22046"/>
<path d="M171.723 164.982C171.723 165.299 171.723 165.593 171.723 165.887C169.017 167.293 166.545 169.109 164.393 171.271C163.772 171.938 163.023 172.472 162.19 172.843C161.358 173.214 160.459 173.414 159.548 173.43C158.637 173.446 157.732 173.278 156.887 172.937C156.042 172.596 155.274 172.088 154.629 171.443C153.985 170.799 153.477 170.031 153.136 169.186C152.794 168.341 152.627 167.436 152.643 166.525C152.659 165.613 152.858 164.715 153.229 163.882C153.6 163.05 154.135 162.3 154.802 161.679C159.423 157.039 165.039 153.512 171.225 151.364L171.723 164.982Z" fill="#DB284E"/>
<path d="M216.153 171.271C214.88 172.542 213.155 173.255 211.357 173.255C209.558 173.255 207.833 172.542 206.561 171.271C204.29 168.999 201.67 167.105 198.802 165.66C198.802 165.434 198.802 165.208 198.802 164.982L199.254 151.228C205.612 153.346 211.384 156.925 216.107 161.679C217.384 162.946 218.106 164.667 218.115 166.466C218.123 168.264 217.418 169.992 216.153 171.271V171.271Z" fill="#DB284E"/>
<path d="M170.184 118.697L170.637 132.474C159.749 135.16 149.805 140.778 141.884 148.716C141.263 149.383 140.514 149.918 139.681 150.289C138.849 150.66 137.95 150.859 137.039 150.875C136.128 150.891 135.223 150.724 134.378 150.382C133.532 150.041 132.765 149.533 132.12 148.889C131.476 148.244 130.968 147.477 130.627 146.631C130.285 145.786 130.118 144.881 130.134 143.97C130.15 143.059 130.349 142.16 130.72 141.328C131.091 140.495 131.626 139.746 132.293 139.125C142.643 128.743 155.822 121.638 170.184 118.697V118.697Z" fill="#DB284E"/>
<path d="M238.707 148.717C237.436 149.99 235.711 150.706 233.911 150.708C232.112 150.706 230.387 149.99 229.115 148.717C221.086 140.666 210.973 135.01 199.911 132.384L200.363 118.607C214.938 121.468 228.328 128.612 238.82 139.125C240.076 140.413 240.77 142.146 240.749 143.944C240.727 145.743 239.993 147.459 238.707 148.717Z" fill="#DB284E"/>
<path d="M169.122 86.416L169.574 100.148C150.531 103.391 132.97 112.483 119.331 126.163C118.71 126.83 117.96 127.364 117.128 127.735C116.295 128.106 115.397 128.306 114.485 128.322C113.574 128.338 112.669 128.17 111.824 127.829C110.979 127.488 110.211 126.979 109.567 126.335C108.922 125.691 108.414 124.923 108.073 124.078C107.732 123.233 107.564 122.328 107.58 121.416C107.596 120.505 107.796 119.607 108.167 118.774C108.538 117.942 109.072 117.192 109.739 116.571C125.793 100.419 146.609 89.8488 169.122 86.416V86.416Z" fill="#DB284E"/>
<path d="M261.261 126.163C259.995 127.43 258.279 128.146 256.488 128.153C255.593 128.156 254.707 127.981 253.88 127.639C253.053 127.298 252.302 126.796 251.669 126.163C237.927 112.376 220.202 103.252 200.996 100.08L201.449 86.3481C224.123 89.7115 245.103 100.313 261.261 116.571C262.532 117.843 263.246 119.568 263.246 121.367C263.246 123.165 262.532 124.89 261.261 126.163V126.163Z" fill="#DB284E"/>
<path d="M178.487 164.982L176.225 82.932C176.192 81.7437 176.394 80.5606 176.819 79.4503C177.243 78.3399 177.882 77.3241 178.699 76.4607C180.35 74.717 182.625 73.7004 185.025 73.6344C187.425 73.5684 189.753 74.4585 191.496 76.1088C192.36 76.9259 193.054 77.9051 193.539 78.9905C194.023 80.0758 194.29 81.246 194.323 82.4343V82.932L192.06 164.982C192.06 166.782 191.345 168.508 190.073 169.781C188.8 171.053 187.074 171.768 185.274 171.768C183.474 171.768 181.748 171.053 180.475 169.781C179.202 168.508 178.487 166.782 178.487 164.982Z" fill="#C22046"/>
<circle cx="206" cy="133" r="76" fill="#FCEFF2"/>
<ellipse cx="169" cy="109.5" rx="76" ry="52.5" fill="#FCEFF2"/>
<path d="M152.953 87.0359C146.191 93.816 141.463 102.37 139.31 111.72C137.157 121.07 137.666 130.84 140.778 139.914C143.89 148.987 149.48 156.999 156.91 163.034C164.34 169.069 173.31 172.883 182.795 174.041L189.19 188L195.393 173.977C203.444 172.96 211.137 170.028 217.831 165.423C224.526 160.818 230.03 154.674 233.884 147.502C237.738 140.33 239.832 132.338 239.99 124.189C240.149 116.041 238.368 107.972 234.796 100.655C231.224 93.337 225.964 86.9817 219.453 82.1174C212.943 77.2531 205.37 74.0205 197.365 72.6884C189.359 71.3563 181.153 71.9633 173.428 74.4588C165.704 76.9543 158.684 81.2662 152.953 87.0359V87.0359Z" fill="#DB284E"/>
<path d="M172 74.8992C185.171 73.7887 198.258 77.8459 208.51 86.2178C218.761 94.5896 225.379 106.624 226.971 119.79C228.562 132.957 225.004 146.229 217.045 156.818C209.086 167.407 197.345 174.486 184.291 176.568L189.443 188L195.663 174.037C202.749 173.091 209.559 170.664 215.651 166.911C221.743 163.158 226.982 158.163 231.029 152.25C235.076 146.337 237.841 139.637 239.144 132.584C240.447 125.531 240.261 118.282 238.595 111.307C236.93 104.331 233.824 97.7833 229.478 92.0881C225.132 86.3929 219.642 81.6768 213.365 78.2449C207.088 74.8131 200.162 72.742 193.036 72.1657C185.911 71.5893 178.744 72.5206 172 74.8992V74.8992Z" fill="#C22046"/>
<path d="M191.279 142H185.297C184.54 141.909 183.847 141.536 183.356 140.958C182.866 140.379 182.614 139.638 182.653 138.883L180.008 91.5877C179.878 89.4379 181.287 87.804 182.934 88.019L195.614 89.7603C196.393 89.986 197.061 90.487 197.492 91.1684C197.924 91.8497 198.088 92.6643 197.955 93.458L193.902 139.033C193.907 139.761 193.643 140.465 193.16 141.012C192.676 141.559 192.007 141.91 191.279 142V142Z" fill="white"/>
<path d="M189 158C192.314 158 195 155.314 195 152C195 148.686 192.314 146 189 146C185.686 146 183 148.686 183 152C183 155.314 185.686 158 189 158Z" fill="white"/>
<defs>
<linearGradient id="paint0_linear_1_330" x1="86.4615" y1="268.771" x2="152.97" y2="268.771" gradientUnits="userSpaceOnUse">
<stop stop-color="#105686"/>
<stop offset="0.58" stop-color="#0D5484"/>
<stop offset="0.96" stop-color="#054B7D"/>
<stop offset="1" stop-color="#034A7C"/>
</linearGradient>
<linearGradient id="paint1_linear_1_330" x1="6628.12" y1="8819.89" x2="8583.47" y2="8819.89" gradientUnits="userSpaceOnUse">
<stop stop-color="#105686"/>
<stop offset="0.58" stop-color="#0D5484"/>
<stop offset="0.96" stop-color="#054B7D"/>
<stop offset="1" stop-color="#034A7C"/>
</linearGradient>
<linearGradient id="paint2_linear_1_330" x1="5245.85" y1="10213.4" x2="8005.18" y2="10213.4" gradientUnits="userSpaceOnUse">
<stop stop-color="#105686"/>
<stop offset="0.58" stop-color="#0D5484"/>
<stop offset="0.96" stop-color="#054B7D"/>
<stop offset="1" stop-color="#034A7C"/>
</linearGradient>
</defs>
</svg>
