<svg xmlns="http://www.w3.org/2000/svg" width="157" height="157" fill="none"><g clip-path="url(#a)"><path fill="#FCEFF2" d="M78.769 3.054a75.447 75.447 0 1 0 8.347 150.471 76.176 76.176 0 0 0 12.972-2.566 75.039 75.039 0 0 0 15.748-6.586 76.241 76.241 0 0 0 10.119-6.787 75.44 75.44 0 0 0 24.298-84.064A75.438 75.438 0 0 0 78.769 3.054Z"/><path fill="#EB92A7" d="M120.095 129.64c7.312 0 13.24-5.705 13.24-12.742 0-7.037-5.928-12.742-13.24-12.742s-13.24 5.705-13.24 12.742c0 7.037 5.928 12.742 13.24 12.742Z"/><path fill="#EB92A7" d="M133.335 129.64c3.658 0 6.624-2.85 6.624-6.366 0-3.516-2.966-6.366-6.624-6.366-3.659 0-6.625 2.85-6.625 6.366 0 3.516 2.966 6.366 6.625 6.366Z"/><path fill="#A0E8CB" d="M106.856 129.64c4.494 0 8.137-3.502 8.137-7.821 0-4.32-3.643-7.822-8.137-7.822-4.494 0-8.137 3.502-8.137 7.822 0 4.319 3.643 7.821 8.137 7.821Z"/><path fill="#EB92A7" d="M156.397 130.636H83.794s28.825-11.431 72.603 0Zm-117.731-.996c7.313 0 13.24-5.705 13.24-12.742 0-7.037-5.928-12.742-13.24-12.742s-13.24 5.705-13.24 12.742c0 7.037 5.928 12.742 13.24 12.742Z"/><path fill="#A0E8CB" d="M51.906 129.64c3.659 0 6.625-2.85 6.625-6.366 0-3.516-2.966-6.366-6.625-6.366s-6.625 2.85-6.625 6.366c0 3.516 2.966 6.366 6.625 6.366Z"/><path fill="#EB92A7" d="M25.426 129.64c4.494 0 8.137-3.502 8.137-7.821 0-4.32-3.643-7.822-8.137-7.822-4.494 0-8.137 3.502-8.137 7.822 0 4.319 3.643 7.821 8.137 7.821Z"/><path fill="#EB92A7" d="M74.968 130.636H2.365s28.825-11.431 72.603 0Z"/><path fill="#DB284E" d="M119.866 84.876H38.293c-1.781 0-2.92 1.915-2.556 4.212l6.385 41.404a3.424 3.424 0 0 0 3.13 2.968l13.326.871c13.643.89 27.33.89 40.973 0l13.326-.871a3.428 3.428 0 0 0 3.131-2.968l6.433-41.404c.344-2.307-.795-4.212-2.575-4.212Z"/><path fill="#231F20" d="m35.69 89.087 14.867.067S50.91 117.606 79.152 135c0 0-16.524-.057-33.909-1.541a3.45 3.45 0 0 1-3.13-2.968l-.43-2.814-5.993-38.59Z" opacity=".1"/><path fill="#FCEFF2" d="M50.795 129.151a3.684 3.684 0 0 1-3.418-3.274L43.49 97.158c-.316-2.326.958-4.25 2.872-4.25 1.915 0 3.657 1.914 3.906 4.25l3.14 28.719a2.751 2.751 0 0 1-1.467 2.986 2.75 2.75 0 0 1-1.146.288Zm11.306 0a3.483 3.483 0 0 1-3.264-3.274l-2.48-28.719c-.2-2.326 1.178-4.25 3.083-4.25 1.915 0 3.561 1.914 3.705 4.25l1.732 28.719a2.875 2.875 0 0 1-1.606 2.995c-.365.175-.764.27-1.17.279Zm11.306 0a3.274 3.274 0 0 1-3.102-3.274l-1.072-28.719c-.086-2.326 1.379-4.25 3.284-4.25 1.914 0 3.465 1.914 3.494 4.25l.335 28.719a3.098 3.098 0 0 1-.786 2.251 3.092 3.092 0 0 1-2.153 1.023Zm11.306 0a3.077 3.077 0 0 1-2.939-3.274l.325-28.719c0-2.326 1.59-4.25 3.494-4.25 1.915 0 3.37 1.914 3.284 4.25l-1.072 28.719a3.276 3.276 0 0 1-3.092 3.274Zm11.297 0a2.859 2.859 0 0 1-2.123-1.013 2.881 2.881 0 0 1-.653-2.261l1.742-28.719c.134-2.326 1.8-4.25 3.695-4.25 1.915 0 3.284 1.914 3.083 4.25l-2.48 28.719a3.475 3.475 0 0 1-3.264 3.274Zm11.305 0a2.76 2.76 0 0 1-2.06-1.035 2.747 2.747 0 0 1-.553-2.239l3.14-28.719c.258-2.326 2.01-4.25 3.905-4.25 1.915 0 3.188 1.914 2.872 4.25l-3.829 28.719a3.704 3.704 0 0 1-3.475 3.274Z"/><path fill="#F4CDC1" d="M124.547 79.439H33.746c-.82 0-1.484.664-1.484 1.484V87.7c0 .82.664 1.484 1.484 1.484h90.801c.82 0 1.484-.664 1.484-1.484v-6.777c0-.82-.664-1.484-1.484-1.484Z"/><path fill="#231F20" d="M45.339 79.668v9.736l-11.66-.22a1.417 1.417 0 0 1-1.417-1.417v-6.922a1.408 1.408 0 0 1 1.416-1.388l11.66.21Z" opacity=".1"/><path fill="#F29372" d="M37.537 113.442c-.46.001-.91-.136-1.292-.392a2.375 2.375 0 0 1-1.04-1.504 2.388 2.388 0 0 1 .331-1.799l17.117-26.46a2.393 2.393 0 0 1 4.02 2.594l-17.116 26.46a2.404 2.404 0 0 1-2.02 1.101Zm83.219 0a2.38 2.38 0 0 1-2.01-1.101L101.59 85.833a2.39 2.39 0 0 1-.289-1.78 2.39 2.39 0 0 1 2.807-1.812 2.392 2.392 0 0 1 1.503.998l17.155 26.508a2.388 2.388 0 0 1 .332 1.799 2.39 2.39 0 0 1-1.04 1.504 2.33 2.33 0 0 1-1.302.392Z"/><path fill="#F3BDCA" d="M41.193 134.991c4.59 0 8.31-3.921 8.31-8.759 0-4.838-3.72-8.76-8.31-8.76-4.589 0-8.31 3.922-8.31 8.76 0 4.838 3.721 8.759 8.31 8.759Z"/><path fill="#F3BDCA" d="M32.884 134.992c2.786 0 5.045-2.006 5.045-4.48 0-2.475-2.259-4.481-5.045-4.481s-5.045 2.006-5.045 4.481c0 2.474 2.259 4.48 5.045 4.48Z"/><path fill="#F3BDCA" d="M63.623 135.566H18.629s17.825-6.548 44.994 0Z"/><path fill="#F3BDCA" d="M50.748 134.657c4.388 0 7.945-3.163 7.945-7.065 0-3.902-3.557-7.065-7.945-7.065-4.389 0-7.946 3.163-7.946 7.065 0 3.902 3.557 7.065 7.946 7.065Z"/><path fill="#F3BDCA" d="M58.694 134.656c2.194 0 3.972-1.582 3.972-3.533 0-1.951-1.778-3.532-3.972-3.532-2.195 0-3.973 1.581-3.973 3.532s1.778 3.533 3.973 3.533Zm-15.893 0c2.697 0 4.883-1.942 4.883-4.337 0-2.395-2.186-4.336-4.883-4.336-2.696 0-4.882 1.941-4.882 4.336 0 2.395 2.186 4.337 4.882 4.337Z"/><path fill="#F3BDCA" d="M72.086 135.413H28.499s17.299-6.338 43.587 0Zm39.719-.603c3.923 0 7.104-3.073 7.104-6.864s-3.181-6.864-7.104-6.864-7.103 3.073-7.103 6.864 3.18 6.864 7.103 6.864Z"/><path fill="#F3BDCA" d="M104.692 134.81c2.01 0 3.638-1.573 3.638-3.513 0-1.941-1.628-3.514-3.638-3.514-2.009 0-3.637 1.573-3.637 3.514 0 1.94 1.628 3.513 3.637 3.513Z"/><path fill="#F3BDCA" d="M126.844 135.26H94.382s12.885-5.131 32.462 0Z"/><path fill="#F3BDCA" d="M121.406 134.828c3.162 0 5.725-2.478 5.725-5.533 0-3.056-2.563-5.534-5.725-5.534-3.161 0-5.724 2.478-5.724 5.534 0 3.055 2.563 5.533 5.724 5.533Z"/><path fill="#F3BDCA" d="M127.141 134.828c1.581 0 2.862-1.238 2.862-2.766s-1.281-2.767-2.862-2.767c-1.581 0-2.863 1.239-2.863 2.767 0 1.528 1.282 2.766 2.863 2.766Zm-11.459.001c1.946 0 3.523-1.522 3.523-3.399s-1.577-3.398-3.523-3.398c-1.946 0-3.523 1.521-3.523 3.398 0 1.877 1.577 3.399 3.523 3.399Z"/><path fill="#F3BDCA" d="M137.117 135.259h-31.41s12.464-4.968 31.41 0Zm-.872-76.643c5.335 0 9.66-3.84 9.66-8.578 0-4.737-4.325-8.577-9.66-8.577-5.334 0-9.659 3.84-9.659 8.578 0 4.737 4.325 8.577 9.659 8.577Z"/><path fill="#F3BDCA" d="M126.586 58.616c2.67 0 4.835-1.92 4.835-4.289 0-2.368-2.165-4.288-4.835-4.288s-4.834 1.92-4.834 4.288c0 2.369 2.164 4.29 4.834 4.29Zm19.319.011c3.278 0 5.935-2.362 5.935-5.275 0-2.913-2.657-5.275-5.935-5.275-3.278 0-5.935 2.362-5.935 5.275 0 2.913 2.657 5.275 5.935 5.275Z"/><path fill="#F3BDCA" d="M108.962 59.851H157s-19.07-9.458-48.038 0Zm-79.19-25.895c5.102 0 9.238-3.673 9.238-8.204 0-4.531-4.136-8.204-9.238-8.204-5.102 0-9.238 3.673-9.238 8.204 0 4.53 4.136 8.204 9.238 8.204Z"/><path fill="#F3BDCA" d="M39.01 33.966c2.55 0 4.615-1.839 4.615-4.107 0-2.268-2.066-4.107-4.614-4.107-2.549 0-4.614 1.839-4.614 4.107 0 2.268 2.065 4.107 4.614 4.107Zm-18.476 0c3.136 0 5.677-2.259 5.677-5.045s-2.541-5.045-5.677-5.045c-3.135 0-5.677 2.259-5.677 5.045s2.542 5.045 5.677 5.045Z"/><path fill="#F3BDCA" d="M55.104 34.598H4.442s20.114-7.362 50.662 0Z"/><path fill="#DB284E" d="m29.773 76.5-16.514-9.583 4.317-4.48L29.773 76.5Zm1.637-2.346-7.257-12.11 4.394-1.36 2.863 13.47Zm-3.629 4.786-10.827-.344.948-3.399 9.88 3.743Z"/><path fill="#fff" d="M73.015 31.592s6.366-5.323 8.51-.498c2.145 4.825.958 9.228-.593 10.913-1.55 1.685-4.643 3.715-4.48 7.659.124 2.872.163 5.035.172 5.993a.613.613 0 0 0 .574.603l3.677.364a1.55 1.55 0 0 0 1.704-1.59c-.048-2.431.373-6.7 3.657-8.778 4.71-2.92 9.496-13.537 2.69-22.19-4.921-6.233-15.557-8.148-23.57-1.226a3.829 3.829 0 0 0 0 4.356c1.57 2.288 3.504 7.266 7.659 4.394Zm7.707 38.024c2.135-.414 3.48-2.74 3.004-5.197-.477-2.456-2.593-4.111-4.728-3.697-2.135.414-3.48 2.74-3.003 5.196.476 2.456 2.593 4.111 4.727 3.698Zm19.95-22.985s5.744-1.493 5.658 2.288c-.086 3.782-2.211 6.261-3.733 6.874-1.523.613-4.136.957-5.246 3.609a124.969 124.969 0 0 1-1.724 3.925.45.45 0 0 0 .192.574l2.259 1.36a1.11 1.11 0 0 0 1.59-.508c.708-1.589 2.297-4.231 5.054-4.566 3.963-.479 10.32-5.878 8.549-13.565-1.274-5.533-7.563-10.033-14.868-8.013a2.72 2.72 0 0 0-1.34 2.872c.326 1.915.058 5.715 3.609 5.15ZM97.415 71.4c.451-1.734-.408-3.459-1.917-3.85-1.51-.393-3.099.696-3.55 2.43-.45 1.735.409 3.46 1.918 3.852 1.51.392 3.099-.697 3.55-2.432ZM50.594 48.105s3.303-4.93 5.744-2.039c2.442 2.891 2.509 6.146 1.771 7.659-.737 1.512-2.44 3.484-1.531 6.184.66 1.915 1.12 3.427 1.32 4.078a.44.44 0 0 0 .518.306l2.594-.488a1.111 1.111 0 0 0 .852-1.436c-.517-1.656-1.091-4.681.756-6.758 2.643-2.997 3.83-11.249-2.604-15.825-4.623-3.303-12.31-2.489-16.437 3.83a2.7 2.7 0 0 0 .862 2.996c1.513 1.254 3.867 4.27 6.155 1.493ZM63.55 72.987c1.389-.708 1.856-2.577 1.043-4.174-.814-1.597-2.6-2.318-3.99-1.61-1.39.708-1.857 2.576-1.043 4.173.813 1.598 2.6 2.319 3.99 1.61Z"/></g><defs><clipPath id="a"><path fill="#fff" d="M0 0h157v157H0z"/></clipPath></defs></svg>