<svg xmlns="http://www.w3.org/2000/svg" width="102" height="102" fill="none"><path fill="#DCF7EC" d="M15.418 84.691c.336.355.666.71 1.014 1.051v-1.244c-.33.087-.672.13-1.014.193Z"/><path fill="#FCEFF2" d="M50.782 1.984a49.029 49.029 0 0 0-47.51 37.877 26.03 26.03 0 0 1 2.518-.473c20.058-2.755 20.88-10.156 37.261-10.156 16.383 0 12.359 7.233 12.359 7.233s3.333 9.093-2.668 11.817c-.255 2.556-.809 4.976-1.866 6.5-2.737 3.85-6.282.46-6.282.46l.218 2.488c1.267.192 2.503.552 3.675 1.07v.037c.336.149.66.31.97.485l.193.112c.255.149.504.298.74.46l.137.1c.262.18.51.366.753.565l.056.05c.267.224.529.454.771.697a20.182 20.182 0 0 1 2.762-.193 19.69 19.69 0 0 1 14.304 6.089 33.645 33.645 0 0 0 1.58-1.829l.243-.31c.143-.175.28-.355.423-.542.143-.186.423-.572.622-.87.087-.119.174-.25.26-.374.181-.255.362-.51.548-.783l.243-.367c.261-.392.522-.79.79-1.207l.957.715a6.505 6.505 0 0 1 1.53-1.828c.66-.423 6.12-2.301 5.28-.896-.41.684-1.43 1.082-1.697 1.468a.515.515 0 0 0 .298.802c1.76.423 6.842 1.53 9.56 1.505a.386.386 0 0 1 .373.25c.23.621.38 1.43-1.997 1.74-2.898.386-6.48-.142-8.42.623l.926.69v.162c0 .037-.031.08-.044.13l-.062.168c0 .062-.043.13-.068.2l-.087.236c-.031.087-.062.18-.1.273a58.31 58.31 0 0 1-6.114 12.452v.143a9.597 9.597 0 0 1 9.535 7.68A49.004 49.004 0 0 0 50.789 1.979l-.007.006Z"/><path fill="#C22046" d="M56.808 71.282c.858 4.59.758 9.752.273 14.523.468.307.954.586 1.456.833.182-5.176-.4-10.35-1.73-15.356Z"/><path fill="#EB92A7" d="M55.727 66.99c.031.05.062.094.087.143l.187.287.112.167c.056.081.118.162.174.25l.13.173c.057.081.119.162.181.237l.13.174.237.28c.074.093.155.18.236.273l.162.168.199.206.143.136.218.206.13.112.25.205.08.056c.318.238.657.446 1.014.622l.354.162h.056c.125.05.243.099.367.136 2.326.771 5.28 0 8.931-3.874a19.693 19.693 0 0 0-14.305-6.09c-.923.002-1.846.066-2.76.193.186.18.372.374.546.566l.044.05c.162.18.317.36.473.554.048.069.1.135.155.199.112.149.23.298.336.454.106.155.33.472.485.721a.273.273 0 0 1 .087.112l.056.13a18.76 18.76 0 0 1 1.244 2.489c.087.217.174.36.261.503ZM74.225 79.758v-.143l-.056.08-.044.07c-.466.683-.957 1.349-1.468 1.99l-.037.05-.497.621a21.782 21.782 0 0 1-1.642 1.73l-.044.043a15.241 15.241 0 0 1-2.364 1.86h-.043c-.614.386-1.264.713-1.94.976-.212.08-.43.155-.622.224h-.056a8.87 8.87 0 0 1-.672.174c-.468.105-.945.17-1.424.193h-.833a4.07 4.07 0 0 1-.672-.056h-.044c-.242 0-.491-.075-.734-.13h-.124l-.622-.156-.218-.069-.535-.186-.217-.087a10.8 10.8 0 0 1-.74-.33 13.512 13.512 0 0 1-1.493-.784v.162c-.056.522-.118 1.039-.18 1.549l-.038.31c-.062.504-.13 1.008-.199 1.5v.099c-.075.504-.15 1.008-.23 1.499v.062a93.325 93.325 0 0 1-1.499 7.426c-.062.261-.118.51-.18.753-.056.236-.118.466-.168.678.56-.038 1.126-.075 1.68-.13a49.536 49.536 0 0 0 8.427-1.668 73.378 73.378 0 0 0 4.011-1.35 47.894 47.894 0 0 0 6.22-2.929c.205-.112.398-.23.622-.348a49.767 49.767 0 0 0 5.977-4.061 51.32 51.32 0 0 0 2.295-1.947 9.597 9.597 0 0 0-9.597-7.675Z"/><path fill="#A0E8CB" d="M27.598 88.455a29.499 29.499 0 0 0-1.051 5.019c.56.323 1.126.622 1.692.94l-.566-6.22-.075.26Z"/><path fill="#EB92A7" d="M29.922 26.912a3.962 3.962 0 0 0-4.099-3.806c0-4.205-3.675-7.613-8.203-7.613a8.085 8.085 0 0 0-7.98 5.883h-.224c-2.78 0-5.037 2.096-5.037 4.677a4.553 4.553 0 0 0 1.865 3.608A32.151 32.151 0 0 0 0 31.807h40.788a69.881 69.881 0 0 0-11.482-2.892c.398-.593.612-1.29.616-2.003Z"/><path fill="#221F20" d="M31.962 59.01s.386-.136 1.051-.323l.193-.05a34.657 34.657 0 0 1 3.489-.758c.423-.883 1.244-3.384 1.244-9.808 0 0-4.354-2.706-1.008-6.033 2.693-2.687 2.756.23 2.675 1.449.261-2.326 2.065-12.06 12.955-6.17.408 3.633.468 7.296.18 10.94 6.002-2.7 2.669-11.817 2.669-11.817s4.03-7.27-12.359-7.208c-16.388.062-17.203 7.4-37.26 10.156a26.03 26.03 0 0 0-2.52.473 48.929 48.929 0 0 0 12.147 44.83c.342-.062.684-.13 1.033-.218.28-10.081 3.451-21.5 15.511-25.462Z"/><path fill="#DB284E" d="m79.77 65.305-4.927-3.689-.958-.715c-.267.417-.528.821-.79 1.207l-.242.367-.547.783c-.087.125-.174.255-.261.374-.218.298-.43.622-.623.87-.192.25-.28.367-.422.541l-.243.311a33.646 33.646 0 0 1-1.58 1.829c-3.65 3.887-6.605 4.646-8.93 3.875-.125-.038-.243-.087-.368-.137h-.056l-.354-.162a6.498 6.498 0 0 1-1.014-.622l-.081-.056-.249-.205-.13-.112-.218-.205-.143-.137-.2-.205-.217-.243c-.08-.093-.162-.18-.236-.273l-.236-.28-.131-.175a3.392 3.392 0 0 1-.18-.236l-.131-.174c-.056-.087-.118-.168-.174-.249l-.156-.168-.186-.286c0-.05-.056-.093-.087-.143-.032-.05-.175-.286-.255-.429a18.766 18.766 0 0 0-1.244-2.488l-.056-.13a.273.273 0 0 0-.087-.112 14.644 14.644 0 0 0-.486-.722c-.167-.236-.223-.305-.335-.454a2.423 2.423 0 0 1-.156-.199c-.155-.186-.31-.373-.473-.553l-.043-.05a11.79 11.79 0 0 0-.547-.566 11.757 11.757 0 0 0-.772-.697l-.056-.05c-.242-.198-.49-.385-.752-.565l-.062-.094a12.444 12.444 0 0 0-.74-.46l-.193-.112a11.717 11.717 0 0 0-.97-.485c-.206.38-2.438 4.08-11.196 1.934a39.35 39.35 0 0 1-5.311-1.747C19.9 62.972 16.728 74.39 16.448 84.473v1.244a49.263 49.263 0 0 0 8.645 6.842c.485.298.977.621 1.468.883.204-1.7.556-3.38 1.051-5.02l.075-.236 3.11-11.5-2.258 17.85a49.198 49.198 0 0 0 6.599 2.824c.864.292 1.741.566 2.625.809a48.753 48.753 0 0 0 13.452 1.822c1.12 0 2.22-.062 3.321-.143.05-.212.106-.442.169-.678.062-.243.118-.491.18-.753a102.79 102.79 0 0 0 1.238-5.908 76.33 76.33 0 0 0 .255-1.518v-.062c.08-.491.155-.995.23-1.499v-.1c.068-.49.137-.995.199-1.498l.037-.311c.062-.51.124-1.026.18-1.549v-.162c.486-4.77.585-9.95-.273-14.522a52.633 52.633 0 0 1 1.729 15.356c.248.124.497.23.74.33l.218.087.534.186.218.069.622.155h.124c.243.056.492.1.734.13h.044c.224.025.448.044.672.057h.833c.48-.024.956-.088 1.424-.193a8.87 8.87 0 0 0 .672-.174h.056a6.56 6.56 0 0 0 .622-.224c.677-.263 1.326-.59 1.94-.977h.044a15.25 15.25 0 0 0 2.363-1.86l.044-.043a22.837 22.837 0 0 0 1.642-1.729l.497-.622.038-.05a28.352 28.352 0 0 0 1.467-1.99l.044-.068.056-.081a58.311 58.311 0 0 0 6.052-12.358c.037-.094.068-.187.1-.274l.086-.236c0-.069.05-.137.069-.2l.062-.167c0-.05 0-.094.043-.13v-.162l-.77-.815ZM28.235 94.412l-.566-6.194.566 6.194Z"/><path fill="#F2AA91" d="M90.181 62.917a.386.386 0 0 0-.373-.249c-2.736 0-7.799-1.082-9.56-1.505a.517.517 0 0 1-.298-.802c.268-.386 1.288-.784 1.698-1.468.84-1.406-4.62.473-5.28.896a6.505 6.505 0 0 0-1.53 1.828l4.926 3.688c1.94-.79 5.523-.26 8.421-.622 2.382-.336 2.233-1.138 1.996-1.766ZM39.601 43.486c.081-1.244 0-4.136-2.674-1.45-3.34 3.328 1.014 6.034 1.014 6.034 0 6.425-.821 8.925-1.244 9.808-1.175.193-2.34.446-3.49.759l-.192.05c-.666.186-1.051.323-1.051.323a39.349 39.349 0 0 0 5.311 1.748c8.739 2.145 10.972-1.555 11.196-1.935v-.037a14.502 14.502 0 0 0-3.689-1.07l-.217-2.488s3.545 3.39 6.281-.46c1.076-1.53 1.63-3.943 1.866-6.5a57.529 57.529 0 0 0-.15-10.952c-10.89-5.89-12.693 3.844-12.96 6.17Zm9.79 11.624h-1.996a.814.814 0 0 1-.766-.56 6.716 6.716 0 0 1-4.023-1.822 4.974 4.974 0 0 1-.79-.952l-3.017-4.975a1.15 1.15 0 0 1-.13.292c-.579.883-1.916-.858-1.916-1.915a1.915 1.915 0 0 1 1.916-1.916c.181.89.271 1.797.267 2.706l3.358 5.529c.2.307.436.589.703.84a6.12 6.12 0 0 0 3.651 1.672.814.814 0 0 1 .746-.522h1.997a.821.821 0 1 1 0 1.642v-.019Z"/><path fill="#83182F" d="M38.395 45.583a.28.28 0 0 1 .38.087l.161.274a13.224 13.224 0 0 0-.267-2.706 1.916 1.916 0 0 0-1.916 1.916c0 1.057 1.337 2.799 1.916 1.916.056-.091.1-.19.13-.293l-.497-.82a.28.28 0 0 1 .093-.374Z"/><path fill="#fff" d="M46.572 54.29a.708.708 0 0 1 .062-.28 6.12 6.12 0 0 1-3.651-1.673l-.38.392a6.717 6.717 0 0 0 4.043 1.822.725.725 0 0 1-.074-.261ZM42.292 51.498l-3.358-5.554c-.01.282-.055.562-.137.833l3.016 4.976c.223.348.488.668.79.951l.38-.392a4.596 4.596 0 0 1-.69-.814Z"/><path fill="#fff" d="M38.77 45.67a.276.276 0 0 0-.472.286l.497.82c.082-.27.128-.55.137-.833l-.162-.273Z"/><path fill="#83182F" d="M47.816 54.047a.292.292 0 0 1 .286.262.274.274 0 0 1-.262.286h-.354c-.28.001-.56-.014-.84-.044a.815.815 0 0 0 .765.56h1.997a.82.82 0 0 0 0-1.642h-2.015a.815.815 0 0 0-.76.541c.393.041.788.054 1.182.038Z"/><path fill="#83182F" d="M46.645 54.551c.285.033.571.05.858.05h.355a.275.275 0 0 0 .26-.286.293.293 0 0 0-.285-.261c-.395.016-.79.004-1.182-.038a.708.708 0 0 0-.062.28.73.73 0 0 0 .056.255Z"/><path fill="#C22046" d="m27.669 88.219.566 6.22.305.148 2.257-17.843-3.128 11.475Z"/><path fill="#F3BDCA" d="M78.645 20.307c4.153 0 7.52-2.99 7.52-6.68 0-3.69-3.367-6.68-7.52-6.68-4.152 0-7.519 2.99-7.519 6.68 0 3.69 3.367 6.68 7.52 6.68Z"/><path fill="#F3BDCA" d="M71.12 20.313c2.077 0 3.762-1.495 3.762-3.34 0-1.844-1.685-3.34-3.763-3.34s-3.763 1.496-3.763 3.34c0 1.845 1.685 3.34 3.763 3.34ZM86.164 20.314c2.552 0 4.621-1.838 4.621-4.105 0-2.267-2.069-4.105-4.62-4.105-2.553 0-4.622 1.838-4.622 4.105 0 2.267 2.069 4.105 4.621 4.105Z"/><path fill="#F3BDCA" d="M58.016 20.835H99.27s-16.376-5.995-41.254 0Z"/><path fill="#EB92A7" d="M61.892 21.873c1.425 0 2.58-1.116 2.58-2.494 0-1.377-1.155-2.494-2.58-2.494-1.426 0-2.582 1.117-2.582 2.494 0 1.378 1.156 2.494 2.582 2.494Z"/><path fill="#A0E8CB" d="M63.607 21.874c.594 0 1.076-.465 1.076-1.039 0-.573-.482-1.038-1.076-1.038-.594 0-1.076.465-1.076 1.038 0 .574.482 1.039 1.076 1.039Z"/><path fill="#EB92A7" d="M59.31 21.874c.728 0 1.318-.57 1.318-1.275 0-.704-.59-1.275-1.318-1.275-.729 0-1.319.57-1.319 1.275 0 .704.59 1.275 1.319 1.275Z"/><path fill="#EB92A7" d="M68.009 22.074h-14.69s5.833-2.32 14.69 0Z"/><path fill="#EB92A7" d="M65.019 21.88c1.728 0 3.128-1.353 3.128-3.023 0-1.669-1.4-3.022-3.128-3.022-1.728 0-3.128 1.353-3.128 3.022 0 1.67 1.4 3.023 3.128 3.023Z"/><path fill="#EB92A7" d="M68.147 21.874c.715 0 1.294-.56 1.294-1.25s-.58-1.25-1.294-1.25c-.714 0-1.294.56-1.294 1.25s.58 1.25 1.294 1.25ZM62.96 21.874c.88 0 1.593-.688 1.593-1.536 0-.849-.713-1.537-1.593-1.537-.879 0-1.592.688-1.592 1.537 0 .848.713 1.536 1.592 1.536Z"/><path fill="#EB92A7" d="M72.661 22.073h-14.2s5.599-2.245 14.2 0Z"/><path fill="#DB284E" d="M67.99 28.187a14.783 14.783 0 0 0 8.707 25.146l1.822 4.03 1.823-4.05a14.79 14.79 0 1 0-12.34-25.126h-.012Z"/><path fill="#C22046" d="M73.457 24.735a14.784 14.784 0 0 1 3.558 29.331l1.492 3.297 1.823-4.05a14.785 14.785 0 0 0 9.89-23.68 14.784 14.784 0 0 0-16.732-4.898h-.031Z"/><path fill="#fff" d="M68.074 41.303c.622-.529 1.139-.958 1.505-1.294.351-.316.662-.673.927-1.063.236-.31.369-.687.38-1.076a.996.996 0 0 0-.18-.622.772.772 0 0 0-1.139.056c-.15.233-.221.507-.205.783H67.75a2.8 2.8 0 0 1 .36-1.38 2.04 2.04 0 0 1 .884-.821c.389-.181.815-.27 1.244-.261a2.363 2.363 0 0 1 1.748.59 2.113 2.113 0 0 1 .621 1.55 3.047 3.047 0 0 1-.709 1.933 10.57 10.57 0 0 1-1.81 1.736h2.625v1.355h-4.92v-1.244l.28-.242ZM73.43 41.614v-1.343l3.072-4.398h1.866v4.298h.802v1.443h-.802v1.244h-1.66v-1.244H73.43Zm3.39-3.912-1.636 2.488h1.635v-2.488ZM83.628 34.593l-2.246 9.503a.777.777 0 1 1-1.517-.335l2.233-9.554a.777.777 0 0 1 .759-.621.784.784 0 0 1 .77 1.007ZM88.94 37.019 86.5 42.877h-1.704l2.488-5.672h-3.03v-1.418h4.684v1.232Z"/></svg>