<svg xmlns="http://www.w3.org/2000/svg" width="41" height="70" fill="none"><circle cx="20.5" cy="62" r="8" fill="#49A09D"/><g fill="#49A09D" clip-path="url(#a)"><path d="M38.125 36.313H2.875a1.462 1.462 0 0 1-1.45-1.463V14.062a.938.938 0 0 1 .937-.937h36.25a.95.95 0 0 1 .938.938V34.85a1.475 1.475 0 0 1-1.425 1.462ZM3.3 34.437h34.412V15H3.3v19.438Z"/><path d="M38.65 15H2.4a.938.938 0 0 1-.9-1.25l4.112-9.488a.925.925 0 0 1 .863-.512h28.063a.925.925 0 0 1 .85.562L39.5 13.75a.9.9 0 0 1-.075.887.913.913 0 0 1-.775.363ZM3.787 13.125h33.425l-3.3-7.5H7.088l-3.3 7.5ZM25.35 25.862l-4.85-1.975-4.85 1.975V16.15h9.7v9.712Z"/><path d="M23.775 6.512h-6.55L15.65 11.8h9.7l-1.575-5.288Z"/></g><defs><clipPath id="a"><path fill="#fff" d="M.5 0h40v40H.5z"/></clipPath></defs></svg>