<svg width="180" height="53" fill="none" xmlns="http://www.w3.org/2000/svg"><path fill-rule="evenodd" clip-rule="evenodd" d="M173.331 53H6.669C2.993 53 0 50.013 0 46.375V6.625C0 2.974 2.993 0 6.67 0H173.33C177.003 0 180 2.974 180 6.625v39.75c0 3.638-2.997 6.625-6.669 6.625Z" fill="#000"/><path fill-rule="evenodd" clip-rule="evenodd" d="M173.331 1.06c3.083 0 5.606 2.502 5.606 5.565v39.75c0 3.063-2.507 5.564-5.606 5.564H6.669c-3.083 0-5.606-2.501-5.606-5.564V6.625c0-3.063 2.507-5.564 5.606-5.564h166.662Zm0-1.06H6.669C2.993 0 0 2.987 0 6.625v39.75C0 50.026 2.993 53 6.67 53H173.33c3.672 0 6.669-2.974 6.669-6.625V6.625C180 2.987 177.003 0 173.331 0Z" fill="#A6A6A6"/><path d="M94.825 17.532c-1.203 0-2.216-.42-3.017-1.245a4.238 4.238 0 0 1-1.219-3.04c0-1.206.41-2.227 1.219-3.037.798-.826 1.811-1.246 3.013-1.246 1.189 0 2.202.42 3.017 1.246.808.836 1.219 1.857 1.219 3.037-.014 1.209-.424 2.23-1.22 3.036-.797.833-1.81 1.25-3.013 1.25Zm-35.767 0c-1.175 0-2.195-.413-3.03-1.229-.827-.813-1.248-1.84-1.248-3.053 0-1.213.42-2.24 1.249-3.053.818-.816 1.837-1.23 3.03-1.23.582 0 1.149.116 1.692.35.533.229.967.54 1.288.92l.08.095-.898.88-.093-.11c-.507-.601-1.185-.895-2.083-.895-.801 0-1.5.284-2.076.846-.58.565-.874 1.305-.874 2.2 0 .896.295 1.636.874 2.2a2.882 2.882 0 0 0 2.076.847c.855 0 1.573-.284 2.133-.846.331-.33.536-.793.61-1.378H58.91V12.84h4.112l.017.113c.03.208.06.423.06.62 0 1.14-.345 2.063-1.027 2.743-.775.806-1.788 1.216-3.014 1.216Zm47.555-.175h-1.268l-3.884-6.202.033 1.117v5.082h-1.269V9.143h1.447l.04.063 3.653 5.841-.034-1.113V9.143h1.282v8.214Zm-21.319 0H84.01V10.38H81.78V9.143h5.739v1.236H85.29v6.978h.004Zm-4.56 0h-1.28V9.143h1.28v8.214Zm-7.201 0H72.25V10.38h-2.229V9.143h5.739v1.236h-2.228v6.978Zm-4.322-.013h-4.914V9.143h4.914v1.236h-3.63v2.253h3.276v1.223h-3.275v2.253h3.63v1.236Zm23.537-1.907c.573.572 1.269.86 2.076.86.832 0 1.51-.281 2.077-.86.563-.561.848-1.298.848-2.187 0-.889-.285-1.629-.845-2.188a2.844 2.844 0 0 0-2.076-.859c-.831 0-1.51.281-2.073.86-.563.561-.848 1.298-.848 2.187 0 .889.282 1.629.841 2.187Z" fill="#fff"/><path fill-rule="evenodd" clip-rule="evenodd" d="M90.47 28.826c-3.13 0-5.666 2.37-5.666 5.637 0 3.238 2.553 5.637 5.666 5.637 3.13 0 5.666-2.386 5.666-5.637 0-3.268-2.537-5.637-5.666-5.637Zm0 9.04c-1.712 0-3.186-1.414-3.186-3.416 0-2.032 1.477-3.417 3.186-3.417 1.712 0 3.186 1.385 3.186 3.417.003 2.015-1.474 3.416-3.186 3.416Zm-12.361-9.04c-3.13 0-5.666 2.37-5.666 5.637 0 3.238 2.553 5.637 5.666 5.637 3.129 0 5.666-2.386 5.666-5.637 0-3.268-2.54-5.637-5.666-5.637Zm0 9.04c-1.712 0-3.186-1.414-3.186-3.416 0-2.032 1.477-3.417 3.186-3.417 1.712 0 3.185 1.385 3.185 3.417 0 2.015-1.473 3.416-3.185 3.416Zm-14.71-7.318v2.385h5.74c-.176 1.339-.62 2.326-1.299 3.004-.841.84-2.14 1.751-4.427 1.751-3.527 0-6.285-2.842-6.285-6.36 0-3.52 2.758-6.361 6.285-6.361 1.904 0 3.291.75 4.321 1.708l1.696-1.692c-1.431-1.368-3.335-2.415-6.004-2.415-4.838 0-8.898 3.932-8.898 8.746 0 4.828 4.057 8.746 8.898 8.746 2.613 0 4.573-.852 6.123-2.458 1.58-1.576 2.08-3.8 2.08-5.594 0-.558-.044-1.06-.133-1.487h-8.1c.004-.003.004.027.004.027Zm60.165 1.857c-.473-1.266-1.904-3.592-4.838-3.592-2.907 0-5.325 2.283-5.325 5.637 0 3.165 2.391 5.637 5.607 5.637 2.582 0 4.086-1.576 4.705-2.501l-1.917-1.282c-.636.941-1.52 1.56-2.775 1.56-1.268 0-2.156-.576-2.745-1.71l7.553-3.122c0 .004-.265-.627-.265-.627Zm-7.702 1.883c-.06-2.177 1.695-3.284 2.95-3.284.99 0 1.815.485 2.096 1.192l-5.046 2.092Zm-6.136 5.462h2.48V23.19h-2.48v16.56Zm-4.073-9.672h-.09c-.559-.664-1.622-1.265-2.98-1.265-2.818 0-5.414 2.475-5.414 5.653 0 3.166 2.583 5.611 5.414 5.611 1.341 0 2.421-.605 2.98-1.282h.09v.81c0 2.15-1.153 3.31-3.01 3.31-1.52 0-2.464-1.09-2.848-2.002l-2.156.899c.62 1.487 2.272 3.327 5 3.327 2.908 0 5.371-1.708 5.371-5.875V29.15h-2.344v.928h-.013Zm-2.848 7.789c-1.712 0-3.143-1.428-3.143-3.4 0-1.99 1.431-3.43 3.143-3.43 1.695 0 3.01 1.457 3.01 3.43.017 1.972-1.311 3.4-3.01 3.4Zm32.372-14.678h-5.931v16.56h2.481v-6.27h3.453c2.746 0 5.444-1.986 5.444-5.139 0-3.152-2.689-5.15-5.447-5.15Zm.073 7.977h-3.527v-5.684h3.527c1.858 0 2.907 1.53 2.907 2.842 0 1.298-1.063 2.841-2.907 2.841Zm15.315-2.37c-1.801 0-3.659.797-4.427 2.531l2.199.912c.473-.912 1.341-1.222 2.258-1.222 1.285 0 2.583.766 2.613 2.134v.175c-.444-.25-1.418-.634-2.583-.634-2.375 0-4.782 1.295-4.782 3.724 0 2.224 1.947 3.651 4.116 3.651 1.666 0 2.583-.75 3.156-1.619h.089v1.282h2.391v-6.344c0-2.954-2.199-4.59-5.03-4.59Zm-.311 9.07c-.811 0-1.947-.396-1.947-1.414 0-1.282 1.417-1.767 2.626-1.767 1.092 0 1.609.234 2.258.558a2.983 2.983 0 0 1-2.937 2.623Zm14.063-8.716-2.848 7.183h-.089l-2.95-7.183h-2.669l4.427 10.041-2.523 5.581h2.583l6.811-15.622h-2.742Zm-22.325 10.6h2.48V23.19h-2.48v16.56Z" fill="#fff"/><path fill-rule="evenodd" clip-rule="evenodd" d="M13.855 9.982c-.384.413-.606 1.044-.606 1.87v29.299c0 .826.222 1.457.62 1.854l.102.089 16.45-16.416v-.366L13.959 9.892l-.103.09Z" fill="url(#a)"/><path fill-rule="evenodd" clip-rule="evenodd" d="m35.895 32.167-5.487-5.475v-.384l5.487-5.475.12.073 6.49 3.68c1.857 1.045 1.857 2.77 0 3.827l-6.49 3.681-.12.073Z" fill="url(#b)"/><path fill-rule="evenodd" clip-rule="evenodd" d="M36.015 32.094 30.409 26.5 13.855 43.018c.606.648 1.623.72 2.758.09l19.402-11.014Z" fill="url(#c)"/><path fill-rule="evenodd" clip-rule="evenodd" d="M36.015 20.906 16.613 9.909c-1.135-.647-2.155-.558-2.758.09L30.409 26.5l5.606-5.594Z" fill="url(#d)"/><path opacity=".2" fill-rule="evenodd" clip-rule="evenodd" d="M35.896 31.975 16.626 42.9c-1.076.618-2.036.575-2.655.013l-.103.102.103.09c.619.558 1.58.604 2.656-.014l19.401-10.996-.132-.119Z" fill="#000"/><path opacity=".12" fill-rule="evenodd" clip-rule="evenodd" d="m42.505 28.221-6.626 3.754.12.12 6.49-3.682c.93-.529 1.387-1.222 1.387-1.913-.056.634-.53 1.236-1.371 1.721Z" fill="#000"/><path opacity=".25" fill-rule="evenodd" clip-rule="evenodd" d="m16.613 10.101 25.892 14.678c.841.472 1.315 1.09 1.387 1.721 0-.69-.456-1.384-1.387-1.913L16.613 9.909c-1.857-1.06-3.364-.175-3.364 1.943v.192c0-2.121 1.507-2.99 3.364-1.943Z" fill="#fff"/><defs><linearGradient id="a" x1="28.946" y1="11.536" x2="2.602" y2="18.571" gradientUnits="userSpaceOnUse"><stop stop-color="#00A0FF"/><stop offset=".007" stop-color="#00A1FF"/><stop offset=".26" stop-color="#00BEFF"/><stop offset=".512" stop-color="#00D2FF"/><stop offset=".76" stop-color="#00DFFF"/><stop offset="1" stop-color="#00E3FF"/></linearGradient><linearGradient id="b" x1="44.927" y1="26.5" x2="12.797" y2="26.5" gradientUnits="userSpaceOnUse"><stop stop-color="#FFE000"/><stop offset=".409" stop-color="#FFBD00"/><stop offset=".775" stop-color="orange"/><stop offset="1" stop-color="#FF9C00"/></linearGradient><linearGradient id="c" x1="32.966" y1="29.544" x2="11.879" y2="65.113" gradientUnits="userSpaceOnUse"><stop stop-color="#FF3A44"/><stop offset="1" stop-color="#C31162"/></linearGradient><linearGradient id="d" x1="9.687" y1=".237" x2="19.095" y2="16.122" gradientUnits="userSpaceOnUse"><stop stop-color="#32A071"/><stop offset=".069" stop-color="#2DA771"/><stop offset=".476" stop-color="#15CF74"/><stop offset=".801" stop-color="#06E775"/><stop offset="1" stop-color="#00F076"/></linearGradient></defs></svg>