<svg width="24" height="24" viewBox="0 0 24 24" fill="none" xmlns="http://www.w3.org/2000/svg">
<g clip-path="url(#clip0_30039_123845)">
<path d="M13.8562 19.2051H11.924C11.5555 19.2051 11.2578 19.5027 11.2578 19.8712C11.2578 20.2397 11.5555 20.5374 11.924 20.5374H13.8562C14.2247 20.5374 14.5224 20.2397 14.5224 19.8712C14.5224 19.5027 14.2247 19.2051 13.8562 19.2051Z" fill="#49A09D"/>
<path d="M23.4047 6.87874L17.1213 0.595276C16.3276 -0.198425 15.0378 -0.198425 14.2441 0.595276L3.7937 11.0551H2.0315C0.911811 11.0551 0 11.9669 0 13.0866V21.9685C0 23.0882 0.911811 24 2.0315 24H16.4126C17.5323 24 18.4441 23.0882 18.4441 21.9685V14.7118L23.4 9.75591C24.1984 8.9622 24.1984 7.67244 23.4047 6.87874ZM15.189 1.54016C15.463 1.26614 15.9071 1.26614 16.1811 1.54016L17.2677 2.62677L8.8441 11.0551H5.67402L15.189 1.54016ZM1.33228 13.0866C1.33228 12.6992 1.64409 12.3874 2.0315 12.3874H16.4126C16.8 12.3874 17.1118 12.6992 17.1118 13.0866V14.6268H1.33228V13.0866ZM17.1165 21.9732C17.1165 22.3606 16.8047 22.6724 16.4173 22.6724H2.0315C1.64409 22.6724 1.33228 22.3606 1.33228 21.9732V15.9591H17.1165V21.9732ZM22.4646 8.81575L18.4346 12.8457C18.3118 11.8394 17.4567 11.0551 16.4173 11.0551H10.7339L18.2126 3.57165L22.4646 7.82362C22.7339 8.09764 22.7339 8.54173 22.4646 8.81575Z" fill="black" stroke="black" stroke-width="0.1"/>
<circle cx="18.5" cy="8.5" r="1.5" fill="#49A09D"/>
</g>
<defs>
<clipPath id="clip0_30039_123845">
<rect width="24" height="24" fill="white"/>
</clipPath>
</defs>
</svg>
