<svg width="18" height="15" viewBox="0 0 18 15" fill="none" xmlns="http://www.w3.org/2000/svg">
<path d="M9.01641 15C8.84134 15 8.66626 14.938 8.51307 14.7934L1.48815 8.1405C0.525228 7.25207 0 6.05372 0 4.77273C0 3.5124 0.525228 2.31405 1.48815 1.40496C2.42918 0.495868 3.69848 0 5.05532 0C6.41216 0 7.68146 0.516529 8.62249 1.40496L8.99453 1.7562L9.34468 1.42562C10.3076 0.516529 11.5769 0.0206612 12.9337 0.0206612C14.2906 0.0206612 15.5599 0.516529 16.5228 1.42562C18.4924 3.28512 18.4924 6.32231 16.5228 8.18182L9.49787 14.814C9.36657 14.938 9.19149 15 9.01641 15Z" fill="#E54848"/>
</svg>
