<svg version="1.2" xmlns="http://www.w3.org/2000/svg" width="24" height="24"><defs><linearGradient id="g1" x1="13.7" y1="22.7" x2="13.5" y2="2" gradientUnits="userSpaceOnUse"><stop offset="0" stop-color="#333"/><stop offset="1" stop-color="#333"/></linearGradient></defs><style>.s2{fill:#fff}</style><path id="Layer" d="M1 11.9C1 5.9 5.9 1 12 1s11 4.9 11 10.9-4.9 10.8-11 10.8S1 17.9 1 11.9z" style="fill:url(#g1)"/><path fill-rule="evenodd" d="m7.9 9 .8-.1c.2-.1.2-.2.2-.3 0-.2-.1-.4-.5-.4s-.6.2-.7.5c-.1 0-.5-.1-.6-.1v-.1c.1-.5.5-1 1.3-1 .9 0 1.3.6 1.3 1.2v1.6c0 .2.1.3.2.4v.1h-.5c-.2 0-.4-.2-.4-.4-.2.2-.5.5-1 .5-.6 0-1-.5-1-1s.4-.8.9-.9zm8.3.2c0 1-.7 1.7-1.6 1.7-.9 0-1.6-.7-1.6-1.7s.7-1.7 1.6-1.7c.9 0 1.6.7 1.6 1.7zm-3.8 1.6c-.4 0-.7-.3-.7-.6v-4q0-.1.1-.1H12.6v4c0 .3.1.5.4.6q0 .1-.1.1h-.5zm-1.7 0c-.3 0-.6-.3-.6-.6V6.1h1.1v.1c-.1.2-.5.6-.7.9q0 .1.1.1H10.9l.1.1v2.8c0 .3.1.5.3.6h.1q0 .1-.1.1h-.6zM8.9 9.5v-.2l-.8.2c-.2 0-.4.1-.4.4 0 .2.2.4.5.4.4 0 .7-.2.7-.8zm6.6-.3c0-.6-.4-1-.9-1-.4 0-.9.4-.9 1 0 .7.5 1 .9 1 .5 0 .9-.3.9-1z" style="fill:#fbae17"/><path fill-rule="evenodd" class="s2" d="M5.8 13.7h-2c.1.3.4.6.8.6q.4 0 .7-.3l.3.4q-.3.4-1 .4c-.8 0-1.4-.6-1.4-1.3 0-.8.6-1.3 1.3-1.3.8 0 1.3.5 1.3 1.3v.2zm-2-.4h1.4c0-.4-.3-.7-.7-.7-.4 0-.6.3-.7.7z"/><path class="s2" d="m7.9 14.7-.7-.8-.6.8h-.7l1-1.3-.9-1.2h.6l.7.8.6-.8h.6l-.9 1.2 1 1.3z"/><path fill-rule="evenodd" class="s2" d="M11.7 13.5c0 .8-.6 1.3-1.3 1.3q-.5 0-.8-.4v1.3H9v-3.5h.6v.3q.3-.3.8-.3c.7 0 1.3.5 1.3 1.3zm-.6 0c0-.5-.4-.8-.8-.8s-.7.3-.7.8c0 .4.3.8.7.8.4 0 .8-.4.8-.8z"/><path class="s2" d="M12.2 11.2h.6v3.5h-.6z"/><path fill-rule="evenodd" class="s2" d="M13.4 13.5c0-.8.6-1.3 1.3-1.3.8 0 1.4.5 1.4 1.3 0 .7-.6 1.3-1.4 1.3-.7 0-1.3-.6-1.3-1.3zm2.1 0c0-.5-.3-.8-.8-.8-.4 0-.7.3-.7.8 0 .4.3.8.7.8.5 0 .8-.4.8-.8z"/><path class="s2" d="M18.1 12.2v.5H18c-.5 0-.8.3-.8.8v1.2h-.6v-2.5h.6v.4q.3-.4.9-.4z"/><path fill-rule="evenodd" class="s2" d="M20.9 13.7H19c0 .3.3.6.8.6q.4 0 .7-.3l.3.4q-.4.4-1 .4c-.9 0-1.4-.6-1.4-1.3 0-.8.5-1.3 1.3-1.3.7 0 1.2.5 1.2 1.3v.2zm-2-.4h1.5c-.1-.4-.3-.7-.7-.7-.4 0-.7.3-.8.7z"/></svg>