<svg width="15" height="15" fill="none" xmlns="http://www.w3.org/2000/svg"><g clip-path="url(#a)"><path d="M5.445 10.531a3.987 3.987 0 1 0-1.07-.944l-.593 1.788 1.663-.844Zm3.75-3.875a.537.537 0 1 1-.49.325.531.531 0 0 1 .52-.325h-.03Zm-1.65 0a.537.537 0 1 1-.538.538.531.531 0 0 1 .569-.538h-.031Zm-1.657 0a.537.537 0 1 1 .116 1.069.537.537 0 0 1-.116-1.069Z" fill="#49A09D"/><mask id="b" fill="#fff"><path d="M13.57 5.4a6.25 6.25 0 0 0-12.132 0A1.987 1.987 0 0 0 .02 7.273v1.1a1.994 1.994 0 0 0 1.993 1.988h.663a.469.469 0 0 0 .45-.444V5.774a.475.475 0 0 0-.469-.468h-.219a5.3 5.3 0 0 1 10.131 0h-.243a.475.475 0 0 0-.469.468v4.144a.469.469 0 0 0 .469.469A4.045 4.045 0 0 1 9.5 12.543a1.356 1.356 0 0 0-1.25-.812H6.738a1.363 1.363 0 1 0 0 2.718h1.525a1.35 1.35 0 0 0 1.294-.968 4.962 4.962 0 0 0 3.813-3.125A1.994 1.994 0 0 0 15 8.399V7.3a1.995 1.995 0 0 0-1.43-1.9ZM.957 8.4V7.3a1.056 1.056 0 0 1 1.056-1.05h.194v3.206h-.194A1.056 1.056 0 0 1 .957 8.399Zm5.356 4.687a.425.425 0 0 1 .425-.419h1.525a.424.424 0 1 1 0 .844H6.738a.425.425 0 0 1-.425-.425Zm7.731-4.688a1.056 1.056 0 0 1-.393.813c-.187.154-.421.238-.663.237h-.194v-3.2h.194c.205 0 .405.06.575.175a1.056 1.056 0 0 1 .481.882v1.093Z"/></mask><path d="M13.57 5.4a6.25 6.25 0 0 0-12.132 0A1.987 1.987 0 0 0 .02 7.273v1.1a1.994 1.994 0 0 0 1.993 1.988h.663a.469.469 0 0 0 .45-.444V5.774a.475.475 0 0 0-.469-.468h-.219a5.3 5.3 0 0 1 10.131 0h-.243a.475.475 0 0 0-.469.468v4.144a.469.469 0 0 0 .469.469A4.045 4.045 0 0 1 9.5 12.543a1.356 1.356 0 0 0-1.25-.812H6.738a1.363 1.363 0 1 0 0 2.718h1.525a1.35 1.35 0 0 0 1.294-.968 4.962 4.962 0 0 0 3.813-3.125A1.994 1.994 0 0 0 15 8.399V7.3a1.995 1.995 0 0 0-1.43-1.9ZM.957 8.4V7.3a1.056 1.056 0 0 1 1.056-1.05h.194v3.206h-.194A1.056 1.056 0 0 1 .957 8.399Zm5.356 4.687a.425.425 0 0 1 .425-.419h1.525a.424.424 0 1 1 0 .844H6.738a.425.425 0 0 1-.425-.425Zm7.731-4.688a1.056 1.056 0 0 1-.393.813c-.187.154-.421.238-.663.237h-.194v-3.2h.194c.205 0 .405.06.575.175a1.056 1.056 0 0 1 .481.882v1.093Z" fill="#000"/><path d="M7.504.656v1-1ZM1.438 5.4l.286.959.547-.164.138-.554-.97-.24ZM.02 7.274l-1-.014v.014h1Zm0 1.1h-1v.003l1-.003Zm1.993 1.988v-1 1Zm.663 0v1h.038l-.038-1Zm.45-.444.998.053.002-.027v-.026h-1Zm0-4.144h1v-.013l-1 .013Zm-.469-.468.013-1h-.013v1Zm-.219 0-.956-.294-.398 1.294h1.354v-1Zm5.066-3.742v1-1Zm5.066 3.742v1h1.354l-.399-1.294-.956.294Zm-.244 0v-1h-.013l.013 1Zm-.469.468-1-.013v.013h1Zm.469 4.613.894.447.724-1.447h-1.618v1ZM9.5 12.543l-.916.401.322.737.79-.157-.196-.98Zm-1.25-.812v1h.005l-.005-1Zm-1.513 0-.067.997.033.003h.034v-1Zm0 2.718v-1h-.034l-.033.003.067.997Zm1.525 0v1h.001v-1Zm1.294-.968-.166-.986-.617.103-.176.6.959.283Zm3.813-3.125-.182-.984-.553.102-.2.525.934.357ZM15 8.399l1 .003v-.003h-1Zm0-1.1h1v-.006l-1 .006ZM.958 7.3l-1-.006V7.3h1Zm1.056-1.05v1-1Zm.194 0h1v-1h-1v1Zm0 3.207v1h1v-1h-1Zm4.531 3.212v1-1Zm1.525 0v1h.061l.06-.007-.12-.993Zm.477.422h-1 1Zm-.477.422.121-.993-.06-.007h-.06v1Zm5.781-5.113 1 .01v-.01h-1Zm-.393.813-.627-.78-.01.009.637.77Zm-.663.237.002-1h-.002v1Zm-.194 0h-1v1h1v-1Zm0-3.2v-1h-1v1h1Zm.194 0v1h.002l-.002-1Zm.575.175-.559.83.008.004.007.005.544-.839Zm.481.882h1V7.3l-1 .005Zm.496-2.148a7.25 7.25 0 0 0-2.57-3.963l-1.232 1.576a5.25 5.25 0 0 1 1.861 2.87l1.941-.483Zm-2.57-3.963A7.25 7.25 0 0 0 7.504-.344v2a5.25 5.25 0 0 1 3.234 1.115l1.232-1.576ZM7.504-.344a7.25 7.25 0 0 0-4.466 1.54L4.27 2.77a5.25 5.25 0 0 1 3.234-1.115v-2Zm-4.466 1.54a7.25 7.25 0 0 0-2.57 3.962l1.94.482A5.25 5.25 0 0 1 4.27 2.77L3.038 1.196ZM1.152 4.44a2.988 2.988 0 0 0-1.528 1.06L1.22 6.708a.988.988 0 0 1 .505-.35L1.152 4.44Zm-1.528 1.06A2.987 2.987 0 0 0-.98 7.26l2 .03a.988.988 0 0 1 .2-.582L-.377 5.501ZM-.98 7.274v1.1h2v-1.1h-2Zm0 1.103c.002.793.319 1.552.88 2.111l1.412-1.416a.994.994 0 0 1-.292-.7l-2 .005Zm.88 2.111c.56.56 1.32.874 2.113.874v-2a.994.994 0 0 1-.701-.29L-.1 10.488Zm2.113.874h.663v-2h-.663v2Zm.701 0c.366-.015.714-.165.975-.423L2.285 9.515a.531.531 0 0 1 .352-.152l.077 1.998Zm.975-.423c.26-.257.416-.602.435-.968l-1.997-.105a.531.531 0 0 1 .158-.35l1.404 1.423Zm.437-1.02V5.773h-2v4.144h2Zm0-4.158a1.475 1.475 0 0 0-.432-1.023L2.28 6.152a.525.525 0 0 1-.154-.365l2-.026Zm-.432-1.023a1.475 1.475 0 0 0-1.024-.432l-.026 2a.525.525 0 0 1-.364-.154l1.414-1.414Zm-1.037-.432h-.219v2h.219v-2ZM3.394 5.6A4.3 4.3 0 0 1 4.95 3.405L3.761 1.797a6.3 6.3 0 0 0-2.279 3.215l1.912.588ZM4.95 3.405a4.3 4.3 0 0 1 2.555-.84v-2A6.3 6.3 0 0 0 3.76 1.796L4.95 3.405Zm2.555-.84a4.3 4.3 0 0 1 2.555.84l1.188-1.608A6.3 6.3 0 0 0 7.504.564v2Zm2.555.84A4.3 4.3 0 0 1 11.614 5.6l1.911-.588a6.3 6.3 0 0 0-2.278-3.215l-1.188 1.608Zm2.51.9h-.243v2h.243v-2Zm-.256 0c-.385.006-.752.16-1.024.433l1.414 1.414a.525.525 0 0 1-.364.154l-.026-2Zm-1.024.433c-.272.271-.427.639-.432 1.023l2 .026a.524.524 0 0 1-.154.365L11.29 4.738Zm-.432 1.036v4.144h2V5.774h-2Zm0 4.144c0 .39.155.763.43 1.039l1.414-1.415c.1.1.156.235.156.376h-2Zm.43 1.039c.276.275.65.43 1.039.43v-2c.14 0 .276.056.375.155l-1.414 1.415Zm.144-1.018a3.046 3.046 0 0 1-.875 1.058l1.214 1.59a5.044 5.044 0 0 0 1.45-1.753l-1.789-.895Zm-.875 1.058a3.046 3.046 0 0 1-1.25.566l.39 1.96a5.044 5.044 0 0 0 2.074-.936l-1.214-1.59Zm-.14 1.145a2.355 2.355 0 0 0-.874-1.03l-1.09 1.676a.356.356 0 0 1 .133.156l1.832-.802Zm-.874-1.03a2.356 2.356 0 0 0-1.297-.381l.011 2c.07 0 .138.02.196.057l1.09-1.677Zm-1.291-.381H6.738v2h1.513v-2Zm-1.445.002a2.363 2.363 0 0 0-.952.131l.67 1.884a.363.363 0 0 1 .147-.02l.135-1.995Zm-.952.131a2.364 2.364 0 0 0-.821.5l1.366 1.461a.362.362 0 0 1 .126-.076l-.671-1.885Zm-.821.5a2.363 2.363 0 0 0-.554.785l1.835.797a.363.363 0 0 1 .085-.12l-1.366-1.462Zm-.554.785a2.362 2.362 0 0 0-.195.941h2c0-.05.01-.099.03-.144l-1.835-.797Zm-.195.941c0 .324.066.644.195.94l1.835-.796a.363.363 0 0 1-.03-.144h-2Zm.195.94c.129.298.318.565.554.786l1.366-1.461a.364.364 0 0 1-.085-.12l-1.835.796Zm.554.786c.237.221.516.391.821.5l.67-1.885a.362.362 0 0 1-.125-.076l-1.366 1.461Zm.821.5c.305.108.629.153.952.131l-.135-1.995a.363.363 0 0 1-.146-.02l-.671 1.884Zm.884.133h1.525v-2H6.738v2Zm1.526 0c.507 0 1-.165 1.407-.469l-1.2-1.6a.35.35 0 0 1-.209.07l.002 2Zm1.407-.469a2.35 2.35 0 0 0 .845-1.217l-1.918-.565a.35.35 0 0 1-.126.181L9.67 14.98Zm.052-.513a5.962 5.962 0 0 0 2.79-1.269l-1.268-1.546a3.962 3.962 0 0 1-1.854.843l.332 1.972Zm2.79-1.269a5.963 5.963 0 0 0 1.79-2.486l-1.868-.713a3.963 3.963 0 0 1-1.19 1.653l1.268 1.546Zm1.038-1.859a2.994 2.994 0 0 0 1.755-1.027l-1.536-1.28a.994.994 0 0 1-.582.34l.363 1.967Zm1.755-1.027a2.994 2.994 0 0 0 .695-1.91l-2-.005a.994.994 0 0 1-.23.635l1.535 1.28Zm.695-1.913V7.3h-2v1.1h2Zm0-1.106a2.994 2.994 0 0 0-.603-1.782l-1.597 1.203c.128.17.198.378.2.592l2-.013Zm-.603-1.782a2.993 2.993 0 0 0-1.546-1.071l-.565 1.919c.205.06.385.185.514.355l1.597-1.203ZM1.957 8.399V7.3h-2v1.1h2Zm0-1.094c0-.015.006-.029.017-.04L.564 5.848a2.056 2.056 0 0 0-.607 1.446l2 .012Zm.017-.04a.056.056 0 0 1 .04-.016v-2c-.544 0-1.065.215-1.45.598l1.41 1.419Zm.04-.016h.193v-2h-.194v2Zm-.807-1v3.207h2V6.249h-2Zm1 2.207h-.194v2h.194v-2Zm-.194 0a.056.056 0 0 1-.04-.017L.56 9.853c.386.386.909.603 1.454.603v-2Zm-.04-.017a.056.056 0 0 1-.016-.04h-2c0 .546.217 1.069.602 1.454L1.974 8.44Zm5.34 4.663a.575.575 0 0 1-.171.4l-1.404-1.424c-.267.263-.42.62-.425.994l2 .03Zm-.171.4a.575.575 0 0 1-.404.166v-2c-.374 0-.733.147-1 .41l1.404 1.425Zm-.404.166h1.525v-2H6.738v2Zm1.646-.007a.576.576 0 0 1-.24-.022l.594-1.91a1.424 1.424 0 0 0-.596-.053l.242 1.985Zm-.24-.022a.576.576 0 0 1-.21-.118l1.325-1.498a1.424 1.424 0 0 0-.52-.294l-.595 1.91Zm-.21-.118a.575.575 0 0 1-.144-.195l1.824-.821a1.425 1.425 0 0 0-.355-.482l-1.325 1.498Zm-.144-.195a.575.575 0 0 1-.05-.236h2c0-.202-.043-.401-.126-.585l-1.824.821Zm-.05-.236c0-.081.017-.162.05-.236l1.824.821c.083-.184.126-.383.126-.585h-2Zm.05-.236a.575.575 0 0 1 .144-.194l1.325 1.497c.151-.134.272-.298.355-.482l-1.824-.821Zm.144-.194a.573.573 0 0 1 .21-.119l.594 1.91c.193-.06.37-.16.521-.294l-1.325-1.498Zm.21-.119a.576.576 0 0 1 .24-.022l-.242 1.986c.2.024.404.006.596-.054l-.594-1.91Zm.12-.03H6.737v2h1.525v-2Zm-1.526 0c.153 0 .299.062.407.17L5.73 14.094c.267.267.63.417 1.007.417v-2Zm.407.17a.575.575 0 0 1 .168.406h-2c0 .378.15.74.418 1.008l1.414-1.415Zm5.9-4.291a.056.056 0 0 1-.006.024l1.8.872c.132-.274.203-.573.205-.877l-2-.02Zm-.006.024a.056.056 0 0 1-.015.019l1.254 1.558c.237-.19.428-.432.56-.705l-1.8-.872Zm-.025.027a.037.037 0 0 1-.024.008l-.004 2c.475.001.935-.164 1.301-.466l-1.273-1.542Zm-.026.008h-.194v2h.194v-2Zm.806 1v-3.2h-2v3.2h2Zm-1-2.2h.194v-2h-.194v2Zm.196 0c.005 0 .01.002.014.005l1.118-1.659a2.025 2.025 0 0 0-1.136-.346l.004 2Zm.029.014a.057.057 0 0 1 .019.02l1.755-.958c-.164-.3-.4-.554-.685-.74l-1.09 1.678Zm.019.02a.057.057 0 0 1 .006.027l2-.009a2.056 2.056 0 0 0-.251-.976l-1.755.958Zm.006.023v1.093h2V7.306h-2Z" fill="#000" mask="url(#b)"/></g><defs><clipPath id="a"><path fill="#fff" d="M0 0h15v15H0z"/></clipPath></defs></svg>