<svg width="31" height="31" fill="none" xmlns="http://www.w3.org/2000/svg"><path d="M9.688 15.5a1.937 1.937 0 1 1-3.875 0 1.937 1.937 0 0 1 3.875 0Zm7.75 0a1.937 1.937 0 1 1-3.875 0 1.937 1.937 0 0 1 3.874 0Zm5.812 1.938a1.937 1.937 0 1 0 0-3.875 1.937 1.937 0 0 0 0 3.874Z" fill="#919EAB"/><path d="m4.195 30.618.038-.007c3.546-.704 5.712-1.632 6.72-2.141 1.483.395 3.012.595 4.547.593 8.56 0 15.5-6.073 15.5-13.563S24.06 1.937 15.5 1.937C6.94 1.938 0 8.01 0 15.5c0 3.41 1.44 6.53 3.817 8.913a20.221 20.221 0 0 1-1.015 4.49l-.006.022c-.145.416-.302.828-.473 1.234-.153.36.143.764.529.701.449-.073.896-.154 1.343-.242Zm1.55-6.021a1.938 1.938 0 0 0-.556-1.552c-2.054-2.062-3.252-4.7-3.252-7.545 0-6.184 5.82-11.625 13.563-11.625 7.742 0 13.563 5.44 13.563 11.625 0 6.186-5.82 11.625-13.563 11.625a15.617 15.617 0 0 1-4.046-.527 1.937 1.937 0 0 0-1.377.143c-.75.38-2.403 1.105-5.103 1.73.376-1.264.635-2.562.77-3.874Z" fill="#919EAB"/></svg>