<svg width="180" height="53" fill="none" xmlns="http://www.w3.org/2000/svg"><g clip-path="url(#a)"><path d="M165.666 0H14.342c-.551 0-1.096 0-1.647.003-.46.002-.917.01-1.382.016A22.5 22.5 0 0 0 8.3.254c-.995.148-1.96.428-2.86.83-.899.406-1.72.933-2.434 1.562a8.428 8.428 0 0 0-1.773 2.148 8.041 8.041 0 0 0-.94 2.522 15.223 15.223 0 0 0-.27 2.653c-.013.406-.015.813-.022 1.22v30.626c.007.411.009.81.023 1.221.012.89.102 1.776.27 2.653.165.878.482 1.73.94 2.523a8.366 8.366 0 0 0 1.772 2.14 9.488 9.488 0 0 0 2.435 1.56c.9.404 1.864.686 2.859.837.997.144 2.004.222 3.014.234.465.009.922.014 1.382.014.55.003 1.096.003 1.647.003h151.324c.541 0 1.09 0 1.63-.003.459 0 .929-.005 1.387-.014a22.633 22.633 0 0 0 3.009-.234 11.234 11.234 0 0 0 2.87-.836c.9-.403 1.722-.93 2.433-1.562a8.617 8.617 0 0 0 1.777-2.139 8.044 8.044 0 0 0 .931-2.523 15.79 15.79 0 0 0 .279-2.653c.006-.411.006-.81.006-1.221.012-.481.012-.96.012-1.45v-27.73c0-.485 0-.966-.012-1.446 0-.407 0-.814-.006-1.22a15.79 15.79 0 0 0-.279-2.653 8.038 8.038 0 0 0-.931-2.522c-.929-1.594-2.401-2.891-4.21-3.71a11.175 11.175 0 0 0-2.87-.83 22.226 22.226 0 0 0-3.009-.235c-.458-.006-.928-.014-1.387-.017-.54-.002-1.089-.002-1.63-.002Z" fill="#A6A6A6"/><path d="M12.72 51.672c-.458 0-.905-.005-1.36-.014a21.742 21.742 0 0 1-2.81-.214 9.754 9.754 0 0 1-2.492-.722 8.18 8.18 0 0 1-2.1-1.338 7.136 7.136 0 0 1-1.535-1.838 6.896 6.896 0 0 1-.817-2.181 14.36 14.36 0 0 1-.25-2.468c-.01-.278-.023-1.202-.023-1.202V11.288s.014-.91.023-1.177c.011-.826.094-1.65.249-2.464.143-.762.419-1.5.817-2.188a7.197 7.197 0 0 1 1.526-1.84 8.417 8.417 0 0 1 2.11-1.346 9.653 9.653 0 0 1 2.486-.716 21.562 21.562 0 0 1 2.82-.216l1.357-.016h154.551l1.373.017c.936.01 1.871.08 2.795.214.874.13 1.72.373 2.512.72 1.561.705 2.831 1.819 3.632 3.186.392.684.663 1.416.805 2.17.156.822.244 1.652.262 2.485.004.372.004.773.004 1.171.012.494.012.964.012 1.437v27.548c0 .478 0 .945-.012 1.415 0 .428 0 .82-.006 1.224a14.627 14.627 0 0 1-.257 2.44 6.898 6.898 0 0 1-.812 2.198 7.354 7.354 0 0 1-1.527 1.824 8.19 8.19 0 0 1-2.105 1.346c-.79.35-1.635.594-2.508.724-.93.132-1.87.204-2.811.214-.441.01-.902.014-1.35.014l-1.63.003-152.929-.003Z" fill="#000"/><path d="M43.73 26.898c.014-1.106.31-2.19.86-3.152a6.576 6.576 0 0 1 2.282-2.35 6.74 6.74 0 0 0-2.32-2.054 6.787 6.787 0 0 0-3.002-.804c-2.239-.234-4.41 1.331-5.55 1.331-1.163 0-2.92-1.308-4.812-1.27a7.12 7.12 0 0 0-3.46 1.027 7.062 7.062 0 0 0-2.504 2.588c-2.578 4.437-.655 10.957 1.816 14.544 1.235 1.756 2.68 3.717 4.57 3.648 1.849-.077 2.54-1.172 4.772-1.172 2.212 0 2.86 1.172 4.788 1.127 1.985-.032 3.235-1.764 4.427-3.536a14.487 14.487 0 0 0 2.025-4.098 6.367 6.367 0 0 1-2.829-2.332 6.309 6.309 0 0 1-1.063-3.497ZM40.087 16.18a6.43 6.43 0 0 0 1.487-4.626 6.623 6.623 0 0 0-4.277 2.2 6.133 6.133 0 0 0-1.525 4.453 5.493 5.493 0 0 0 2.392-.52 5.459 5.459 0 0 0 1.923-1.508ZM67.107 35.96h-6.31l-1.516 4.447h-2.674l5.978-16.454h2.778l5.978 16.454h-2.72l-1.514-4.447Zm-5.657-2.052h5.002l-2.466-7.218h-.069l-2.467 7.218ZM84.25 34.41c0 3.728-2.007 6.123-5.037 6.123a4.113 4.113 0 0 1-2.203-.507 4.08 4.08 0 0 1-1.595-1.592h-.058v5.942H72.88V28.41h2.399v1.995h.045a4.27 4.27 0 0 1 1.628-1.588 4.303 4.303 0 0 1 2.216-.533c3.064 0 5.084 2.407 5.084 6.125Zm-2.546 0c0-2.43-1.263-4.026-3.19-4.026-1.894 0-3.167 1.63-3.167 4.026 0 2.417 1.273 4.036 3.166 4.036 1.928 0 3.19-1.586 3.19-4.036ZM97.537 34.41c0 3.728-2.008 6.123-5.038 6.123a4.113 4.113 0 0 1-2.202-.507 4.08 4.08 0 0 1-1.596-1.592h-.057v5.942h-2.478V28.41h2.398v1.995h.046a4.27 4.27 0 0 1 1.627-1.588 4.303 4.303 0 0 1 2.217-.533c3.064 0 5.083 2.407 5.083 6.125Zm-2.547 0c0-2.43-1.263-4.026-3.19-4.026-1.893 0-3.166 1.63-3.166 4.026 0 2.417 1.273 4.036 3.166 4.036 1.927 0 3.19-1.586 3.19-4.036ZM106.318 35.823c.184 1.631 1.779 2.703 3.959 2.703 2.088 0 3.591-1.072 3.591-2.543 0-1.277-.907-2.042-3.052-2.566l-2.146-.514c-3.041-.73-4.452-2.142-4.452-4.435 0-2.84 2.49-4.789 6.025-4.789 3.498 0 5.897 1.95 5.978 4.789h-2.502c-.149-1.642-1.515-2.633-3.511-2.633-1.997 0-3.362 1.002-3.362 2.462 0 1.163.872 1.848 3.006 2.372l1.824.445c3.397.798 4.809 2.154 4.809 4.561 0 3.078-2.468 5.006-6.392 5.006-3.672 0-6.151-1.882-6.311-4.858h2.536ZM121.833 25.572v2.839h2.295v1.95h-2.295v6.613c0 1.028.459 1.506 1.468 1.506.273-.004.545-.023.816-.057v1.939a6.85 6.85 0 0 1-1.377.114c-2.444 0-3.397-.913-3.397-3.24v-6.875h-1.755v-1.95h1.755v-2.839h2.49ZM125.458 34.41c0-3.775 2.236-6.147 5.725-6.147 3.5 0 5.726 2.372 5.726 6.147 0 3.785-2.215 6.146-5.726 6.146s-5.725-2.362-5.725-6.146Zm8.927 0c0-2.59-1.194-4.118-3.202-4.118s-3.201 1.54-3.201 4.118c0 2.6 1.193 4.116 3.201 4.116s3.202-1.517 3.202-4.116ZM138.953 28.411h2.363v2.042h.057a2.86 2.86 0 0 1 1.065-1.596 2.892 2.892 0 0 1 1.839-.572c.285 0 .57.03.849.092v2.304a3.49 3.49 0 0 0-1.113-.15 2.511 2.511 0 0 0-1.93.79 2.476 2.476 0 0 0-.653 1.97v7.116h-2.477V28.411ZM156.55 36.884c-.333 2.177-2.467 3.672-5.198 3.672-3.512 0-5.691-2.338-5.691-6.09 0-3.762 2.191-6.203 5.587-6.203 3.34 0 5.44 2.28 5.44 5.918v.843h-8.526v.15a3.11 3.11 0 0 0 .852 2.426 3.144 3.144 0 0 0 2.395.971 2.746 2.746 0 0 0 1.676-.384 2.72 2.72 0 0 0 1.112-1.303h2.353Zm-8.376-3.58h6.035a2.865 2.865 0 0 0-.811-2.166 2.905 2.905 0 0 0-2.15-.88 3.069 3.069 0 0 0-2.176.887 3.043 3.043 0 0 0-.898 2.158ZM61.14 11.569a3.54 3.54 0 0 1 2.807 1.083 3.492 3.492 0 0 1 .936 2.845c0 2.526-1.374 3.978-3.744 3.978h-2.873v-7.907h2.873ZM59.5 18.355h1.5a2.515 2.515 0 0 0 1.993-.8 2.48 2.48 0 0 0 .631-2.043 2.476 2.476 0 0 0-.641-2.028 2.509 2.509 0 0 0-1.983-.8h-1.5v5.671ZM66.278 16.489a2.811 2.811 0 0 1 .727-2.17 2.842 2.842 0 0 1 2.105-.926 2.859 2.859 0 0 1 2.105.925 2.823 2.823 0 0 1 .726 2.17 2.81 2.81 0 0 1-.724 2.174 2.844 2.844 0 0 1-2.107.928 2.859 2.859 0 0 1-2.107-.928 2.822 2.822 0 0 1-.725-2.173Zm4.444 0c0-1.294-.584-2.05-1.61-2.05-1.03 0-1.61.756-1.61 2.05 0 1.303.58 2.054 1.61 2.054 1.026 0 1.61-.756 1.61-2.054ZM79.469 19.474h-1.23L77 15.08h-.094l-1.236 4.394h-1.217l-1.655-5.966h1.202l1.075 4.553h.089l1.234-4.553h1.137l1.234 4.553h.094l1.07-4.553h1.185l-1.648 5.966ZM82.51 13.508h1.14v.948h.088a1.806 1.806 0 0 1 1.792-1.063 1.965 1.965 0 0 1 1.576.613 1.937 1.937 0 0 1 .502 1.606v3.862h-1.185v-3.566c0-.96-.419-1.436-1.295-1.436a1.385 1.385 0 0 0-1.067.429 1.365 1.365 0 0 0-.367 1.083v3.49H82.51v-5.966ZM89.496 11.179h1.185v8.295h-1.185V11.18ZM92.328 16.489a2.811 2.811 0 0 1 .727-2.17 2.845 2.845 0 0 1 2.105-.926 2.86 2.86 0 0 1 2.105.925 2.822 2.822 0 0 1 .727 2.17 2.811 2.811 0 0 1-.725 2.174 2.845 2.845 0 0 1-2.107.928 2.86 2.86 0 0 1-2.107-.928 2.823 2.823 0 0 1-.725-2.173Zm4.444 0c0-1.294-.584-2.05-1.61-2.05-1.03 0-1.61.756-1.61 2.05 0 1.303.58 2.054 1.61 2.054 1.026 0 1.61-.756 1.61-2.054ZM99.239 17.787c0-1.074.804-1.693 2.233-1.781l1.626-.093v-.515c0-.63-.419-.986-1.229-.986-.661 0-1.12.241-1.251.663h-1.147c.12-1.025 1.091-1.682 2.453-1.682 1.505 0 2.354.744 2.354 2.005v4.076h-1.141v-.838h-.094a2.03 2.03 0 0 1-1.803.937 1.826 1.826 0 0 1-1.4-.452 1.803 1.803 0 0 1-.601-1.334Zm3.859-.51v-.499l-1.466.094c-.827.055-1.202.334-1.202.86 0 .537.469.85 1.113.85a1.422 1.422 0 0 0 1.406-.765c.086-.168.136-.352.149-.54ZM105.835 16.489c0-1.886.976-3.08 2.493-3.08a1.986 1.986 0 0 1 1.841 1.047h.088v-3.277h1.185v8.295h-1.135v-.942h-.094a2.092 2.092 0 0 1-1.885 1.041c-1.528 0-2.493-1.195-2.493-3.084Zm1.224 0c0 1.265.601 2.027 1.605 2.027.998 0 1.616-.773 1.616-2.022 0-1.244-.624-2.027-1.616-2.027-.998 0-1.605.766-1.605 2.022ZM116.344 16.489a2.825 2.825 0 0 1 1.681-2.854 2.856 2.856 0 0 1 3.256.684 2.808 2.808 0 0 1 .726 2.17c.039.392-.006.788-.131 1.163a2.834 2.834 0 0 1-2.7 1.938 2.858 2.858 0 0 1-2.107-.928 2.822 2.822 0 0 1-.725-2.173Zm4.444 0c0-1.294-.584-2.05-1.61-2.05-1.03 0-1.61.756-1.61 2.05 0 1.303.58 2.054 1.61 2.054 1.026 0 1.61-.756 1.61-2.054ZM123.597 13.508h1.141v.948h.088a1.796 1.796 0 0 1 1.792-1.063 1.964 1.964 0 0 1 1.576.613 1.945 1.945 0 0 1 .502 1.606v3.862h-1.185v-3.566c0-.96-.419-1.436-1.295-1.436a1.387 1.387 0 0 0-1.067.429 1.366 1.366 0 0 0-.367 1.083v3.49h-1.185v-5.966ZM135.391 12.023v1.512h1.301v.992h-1.301v3.068c0 .625.259.899.849.899.151 0 .302-.01.452-.027v.98a3.91 3.91 0 0 1-.644.06c-1.318 0-1.843-.46-1.843-1.61v-3.37h-.953v-.992h.953v-1.512h1.186ZM138.311 11.179h1.174v3.288h.094a1.84 1.84 0 0 1 .745-.822 1.858 1.858 0 0 1 1.085-.247 1.987 1.987 0 0 1 1.561.629 1.946 1.946 0 0 1 .507 1.595v3.852h-1.186v-3.561c0-.953-.447-1.436-1.284-1.436a1.412 1.412 0 0 0-1.11.407 1.4 1.4 0 0 0-.402 1.106v3.484h-1.184V11.18ZM150.386 17.863a2.425 2.425 0 0 1-.985 1.333 2.45 2.45 0 0 1-1.617.394 2.746 2.746 0 0 1-2.104-.902 2.71 2.71 0 0 1-.669-2.178 2.735 2.735 0 0 1 .668-2.186 2.775 2.775 0 0 1 2.1-.931c1.671 0 2.679 1.134 2.679 3.008v.41h-4.24v.067a1.563 1.563 0 0 0 .419 1.206 1.593 1.593 0 0 0 1.18.503 1.447 1.447 0 0 0 1.428-.724h1.141Zm-4.168-1.922h3.032a1.43 1.43 0 0 0-.394-1.098 1.443 1.443 0 0 0-1.083-.448 1.55 1.55 0 0 0-1.106.447 1.52 1.52 0 0 0-.449 1.099Z" fill="#fff"/></g><defs><clipPath id="a"><path fill="#fff" d="M0 0h180v53H0z"/></clipPath></defs></svg>