<svg width="41" height="70" viewBox="0 0 41 70" fill="none" xmlns="http://www.w3.org/2000/svg">
<circle cx="20.5" cy="62" r="8" fill="#49A09D"/>
<g clip-path="url(#clip0_8213_253)">
<path d="M38.1248 36.3125H2.8748C2.4891 36.3092 2.12031 36.1537 1.84873 35.8797C1.57716 35.6058 1.42479 35.2357 1.4248 34.85V14.0625C1.4248 13.8139 1.52358 13.5754 1.69939 13.3996C1.87521 13.2238 2.11366 13.125 2.3623 13.125H38.6123C38.8599 13.1282 39.0965 13.228 39.2716 13.4032C39.4468 13.5783 39.5466 13.8149 39.5498 14.0625V34.85C39.5468 35.2305 39.3969 35.5951 39.1313 35.8677C38.8657 36.1402 38.5051 36.2996 38.1248 36.3125ZM3.2998 34.4375H37.7123V15H3.2998V34.4375Z" fill="#49A09D"/>
<path d="M38.65 14.9999H2.39996C2.24862 15.0025 2.0989 14.9684 1.96359 14.9006C1.82828 14.8328 1.71142 14.7332 1.62298 14.6103C1.53453 14.4875 1.47715 14.3451 1.45573 14.1952C1.4343 14.0454 1.44948 13.8926 1.49996 13.7499L5.61246 4.2624C5.69169 4.10306 5.8152 3.96996 5.96819 3.87906C6.12117 3.78816 6.29713 3.74331 6.47496 3.7499H34.5375C34.7187 3.7501 34.8958 3.80351 35.0469 3.90351C35.198 4.00351 35.3164 4.14569 35.3875 4.3124L39.5 13.7499C39.5655 13.8916 39.5931 14.048 39.5799 14.2036C39.5668 14.3592 39.5134 14.5087 39.425 14.6374C39.3352 14.7566 39.2177 14.8519 39.0826 14.9151C38.9475 14.9783 38.7989 15.0074 38.65 14.9999ZM3.78746 13.1249H37.2125L33.9125 5.6249H7.08745L3.78746 13.1249Z" fill="#49A09D"/>
<path d="M25.3499 25.8624L20.4999 23.8874L15.6499 25.8624V16.1499H25.3499V25.8624Z" fill="#49A09D"/>
<path d="M23.7749 6.51245H17.2249L15.6499 11.8H25.3499L23.7749 6.51245Z" fill="#49A09D"/>
</g>
<defs>
<clipPath id="clip0_8213_253">
<rect width="40" height="40" fill="white" transform="translate(0.5)"/>
</clipPath>
</defs>
</svg>
