<svg width="180" height="180" viewBox="0 0 180 180" fill="none" xmlns="http://www.w3.org/2000/svg">
<g clip-path="url(#clip0_26024_446257)">
<path d="M90.3072 3.50068C78.5829 3.56228 66.9936 6.00672 56.2432 10.6855C45.4928 15.3643 35.8058 22.1797 27.7707 30.7178C19.7355 39.2559 13.52 49.3383 9.50173 60.3527C5.48344 71.367 3.74624 83.0832 4.39569 94.7897C5.04514 106.496 8.06766 117.948 13.2796 128.451C18.4916 138.953 25.7843 148.286 34.7145 155.883C43.6448 163.48 54.0262 169.182 65.2282 172.643C76.4302 176.103 88.2188 177.251 99.8779 176.015C104.911 175.467 109.887 174.483 114.75 173.074C121.036 171.252 127.093 168.718 132.805 165.523C136.873 163.243 140.753 160.64 144.406 157.741C158.492 146.565 168.744 131.277 173.737 114.004C178.73 96.73 178.215 78.3298 172.264 61.3625C166.313 44.3952 155.221 29.7045 140.532 19.3341C125.844 8.96377 108.288 3.42932 90.3072 3.50068Z" fill="#FCEFF2"/>
<path d="M133.277 145.109C142.551 145.109 150.069 137.876 150.069 128.953C150.069 120.03 142.551 112.797 133.277 112.797C124.002 112.797 116.484 120.03 116.484 128.953C116.484 137.876 124.002 145.109 133.277 145.109Z" fill="#EB92A7"/>
<path d="M150.069 145.108C154.707 145.108 158.466 141.492 158.466 137.03C158.466 132.569 154.707 128.952 150.069 128.952C145.432 128.952 141.673 132.569 141.673 137.03C141.673 141.492 145.432 145.108 150.069 145.108Z" fill="#EB92A7"/>
<path d="M116.484 145.098C122.182 145.098 126.801 140.656 126.801 135.176C126.801 129.696 122.182 125.254 116.484 125.254C110.786 125.254 106.167 129.696 106.167 135.176C106.167 140.656 110.786 145.098 116.484 145.098Z" fill="#EB92A7"/>
<path d="M179.309 146.371H87.2451C87.2451 146.371 123.794 131.872 179.309 146.371Z" fill="#EB92A7"/>
<path d="M42.3767 145.274C50.366 145.274 56.8426 139.043 56.8426 131.357C56.8426 123.67 50.366 117.439 42.3767 117.439C34.3875 117.439 27.9109 123.67 27.9109 131.357C27.9109 139.043 34.3875 145.274 42.3767 145.274Z" fill="#EB92A7"/>
<path d="M56.8537 145.273C60.8483 145.273 64.0866 142.158 64.0866 138.315C64.0866 134.472 60.8483 131.356 56.8537 131.356C52.859 131.356 49.6207 134.472 49.6207 138.315C49.6207 142.158 52.859 145.273 56.8537 145.273Z" fill="#EB92A7"/>
<path d="M27.911 145.273C32.8209 145.273 36.8012 141.445 36.8012 136.723C36.8012 132.001 32.8209 128.173 27.911 128.173C23.0011 128.173 19.0208 132.001 19.0208 136.723C19.0208 141.445 23.0011 145.273 27.911 145.273Z" fill="#EB92A7"/>
<path d="M82.0536 146.371H2.71094C2.71094 146.371 34.2109 133.902 82.0536 146.371Z" fill="#EB92A7"/>
<path d="M157.873 67.3132C163.559 67.3132 168.168 63.215 168.168 58.1595C168.168 53.1041 163.559 49.0059 157.873 49.0059C152.187 49.0059 147.578 53.1041 147.578 58.1595C147.578 63.215 152.187 67.3132 157.873 67.3132Z" fill="#F3BDCA"/>
<path d="M147.578 67.3138C150.421 67.3138 152.726 65.2647 152.726 62.737C152.726 60.2093 150.421 58.1602 147.578 58.1602C144.735 58.1602 142.43 60.2093 142.43 62.737C142.43 65.2647 144.735 67.3138 147.578 67.3138Z" fill="#F3BDCA"/>
<path d="M168.179 67.3025C171.671 67.3025 174.501 64.7866 174.501 61.683C174.501 58.5794 171.671 56.0635 168.179 56.0635C164.688 56.0635 161.857 58.5794 161.857 61.683C161.857 64.7866 164.688 67.3025 168.179 67.3025Z" fill="#F3BDCA"/>
<path d="M128.788 68.6197H180C180 68.6197 159.673 58.533 128.788 68.6197Z" fill="#F3BDCA"/>
<path d="M31.5879 38.8648C37.9526 38.8648 43.1123 34.285 43.1123 28.6355C43.1123 22.986 37.9526 18.4062 31.5879 18.4062C25.2231 18.4062 20.0635 22.986 20.0635 28.6355C20.0635 34.285 25.2231 38.8648 31.5879 38.8648Z" fill="#F3BDCA"/>
<path d="M43.1013 38.865C46.2837 38.865 48.8635 36.5751 48.8635 33.7504C48.8635 30.9256 46.2837 28.6357 43.1013 28.6357C39.9189 28.6357 37.3391 30.9256 37.3391 33.7504C37.3391 36.5751 39.9189 38.865 43.1013 38.865Z" fill="#F3BDCA"/>
<path d="M20.0634 38.8759C23.9732 38.8759 27.1427 36.0602 27.1427 32.5869C27.1427 29.1135 23.9732 26.2979 20.0634 26.2979C16.1536 26.2979 12.9841 29.1135 12.9841 32.5869C12.9841 36.0602 16.1536 38.8759 20.0634 38.8759Z" fill="#F3BDCA"/>
<path d="M63.1756 39.6659H0C0 39.6659 25.0793 30.4903 63.1756 39.6659Z" fill="#F3BDCA"/>
<path d="M132.937 94.2031H47.0744C45.165 94.2031 43.6171 95.751 43.6171 97.6604V144.021C43.6171 145.931 45.165 147.479 47.0744 147.479H132.937C134.846 147.479 136.394 145.931 136.394 144.021V97.6604C136.394 95.751 134.846 94.2031 132.937 94.2031Z" fill="#DB284E"/>
<path d="M136.394 102.446H43.6171V115.507H136.394V102.446Z" fill="#EB92A7"/>
<path d="M125.835 128.876H108.143C107.173 128.876 106.386 129.662 106.386 130.632V138.644C106.386 139.614 107.173 140.4 108.143 140.4H125.835C126.805 140.4 127.591 139.614 127.591 138.644V130.632C127.591 129.662 126.805 128.876 125.835 128.876Z" fill="#FFB769"/>
<path d="M149.321 60.7776L121.783 68.7884C121.172 68.9662 120.821 69.6058 120.998 70.2169L125.324 85.0871C125.502 85.6982 126.141 86.0495 126.753 85.8717L154.29 77.8609C154.901 77.6831 155.253 77.0435 155.075 76.4324L150.749 61.5622C150.571 60.9511 149.932 60.5998 149.321 60.7776Z" fill="#FFB769"/>
<path d="M151.204 62.9914L121.459 71.667L122.679 75.85L152.424 67.1745L151.204 62.9914Z" fill="#DB284E"/>
<path d="M150.267 72.5612L144.608 74.2075C144.293 74.2989 144.113 74.6278 144.204 74.9421L144.949 77.5031C145.041 77.8174 145.37 77.998 145.684 77.9066L151.343 76.2603C151.657 76.1688 151.838 75.8399 151.747 75.5256L151.002 72.9647C150.91 72.6504 150.581 72.4697 150.267 72.5612Z" fill="#FF792F"/>
<path d="M57.1558 57.0029L29.6884 50.6818C29.0741 50.5404 28.4614 50.9238 28.3201 51.5382L24.9084 66.3629C24.767 66.9772 25.1504 67.5899 25.7648 67.7313L53.2322 74.0524C53.8466 74.1938 54.4592 73.8104 54.6006 73.196L58.0122 58.3713C58.1536 57.757 57.7702 57.1443 57.1558 57.0029Z" fill="#DB284E"/>
<path d="M57.6595 59.8976L27.9673 53.0645L27.0048 57.2466L56.697 64.0797L57.6595 59.8976Z" fill="#FF792F"/>
<path d="M52.341 67.5791L46.6829 66.2769C46.3698 66.2049 46.0576 66.4003 45.9855 66.7134L45.3972 69.2697C45.3252 69.5828 45.5206 69.895 45.8336 69.9671L51.4918 71.2692C51.8049 71.3412 52.1171 71.1459 52.1892 70.8328L52.7775 68.2764C52.8495 67.9633 52.6541 67.6511 52.341 67.5791Z" fill="#FFB769"/>
<path d="M69.9366 27.538C66.177 31.2901 63.5499 36.025 62.356 41.2007C61.1622 46.3764 61.4498 51.7837 63.1861 56.8035C64.9224 61.8233 68.037 66.2528 72.1736 69.5848C76.3101 72.9168 81.3012 75.0167 86.5756 75.6441L90.0659 83.327L93.5561 75.5782C98.0191 75.0035 102.281 73.3726 105.987 70.821C109.693 68.2694 112.738 64.8705 114.868 60.9066C116.997 56.9427 118.151 52.528 118.233 48.0289C118.314 43.5298 117.322 39.0761 115.338 35.0375C113.353 30.9988 110.434 27.4916 106.823 24.807C103.212 22.1224 99.0124 20.3378 94.5733 19.6013C90.1341 18.8648 85.5833 19.1977 81.2986 20.5723C77.0139 21.9469 73.1188 24.3235 69.9366 27.5051V27.538Z" fill="#DB284E"/>
<path opacity="0.1" d="M80.4841 20.9308C87.7783 20.3198 95.0254 22.5605 100.702 27.1817C106.378 31.803 110.042 38.445 110.924 45.7115C111.805 52.9781 109.834 60.3032 105.427 66.1473C101.019 71.9913 94.5179 75.8991 87.289 77.0491L90.1426 83.415L93.6329 75.6662C97.5691 75.1545 101.353 73.8199 104.74 71.7494C108.127 69.6789 111.039 66.9188 113.289 63.6485C115.539 60.3783 117.075 56.6711 117.798 52.7682C118.52 48.8652 118.413 44.8538 117.484 40.9948C116.554 37.1359 114.823 33.5158 112.403 30.3699C109.982 27.2241 106.926 24.6229 103.434 22.7356C99.9425 20.8483 96.0924 19.7172 92.1345 19.4157C88.1767 19.1142 84.1997 19.6491 80.4622 20.9857L80.4841 20.9308Z" fill="#727272"/>
<path d="M87.9037 61.2436C87.6262 60.9967 87.4065 60.6917 87.2605 60.3502C87.1144 60.0087 87.0454 59.6392 87.0586 59.268C87.0522 58.8993 87.1242 58.5335 87.2699 58.1948C87.4156 57.8561 87.6317 57.5522 87.9037 57.3033C88.5009 56.7903 89.2621 56.5082 90.0494 56.5082C90.8368 56.5082 91.598 56.7903 92.1952 57.3033C92.4658 57.5528 92.6802 57.857 92.824 58.1958C92.9678 58.5345 93.0378 58.9 93.0293 59.268C93.0446 59.6384 92.9777 60.0077 92.8335 60.3492C92.6893 60.6908 92.4713 60.9962 92.1952 61.2436C91.598 61.7567 90.8368 62.0388 90.0494 62.0388C89.2621 62.0388 88.5009 61.7567 87.9037 61.2436ZM93.8525 36.4936L93.2927 50.2899C93.2643 51.144 92.9048 51.9536 92.2904 52.5476C91.6759 53.1415 90.8546 53.4733 90.0001 53.4729C89.1455 53.4733 88.3242 53.1415 87.7097 52.5476C87.0953 51.9536 86.7359 51.144 86.7074 50.2899L86.1257 36.4936C86.1035 35.9701 86.1872 35.4475 86.3717 34.957C86.5562 34.4666 86.8377 34.0184 87.1994 33.6393C87.5611 33.2602 87.9956 32.9579 88.4768 32.7506C88.958 32.5432 89.4761 32.4351 90.0001 32.4326C90.5222 32.438 91.0379 32.5483 91.5165 32.757C91.9952 32.9656 92.427 33.2683 92.7864 33.6472C93.1458 34.026 93.4253 34.4732 93.6085 34.9621C93.7916 35.4511 93.8746 35.9719 93.8525 36.4936Z" fill="white"/>
<path d="M135.933 147.709C139.406 147.709 142.222 144.992 142.222 141.64C142.222 138.288 139.406 135.57 135.933 135.57C132.459 135.57 129.644 138.288 129.644 141.64C129.644 144.992 132.459 147.709 135.933 147.709Z" fill="#F3BDCA"/>
<path d="M140.115 147.71C141.563 147.71 142.738 146.58 142.738 145.186C142.738 143.791 141.563 142.661 140.115 142.661C138.666 142.661 137.491 143.791 137.491 145.186C137.491 146.58 138.666 147.71 140.115 147.71Z" fill="#F3BDCA"/>
<path d="M129.644 147.721C131.42 147.721 132.86 146.33 132.86 144.615C132.86 142.899 131.42 141.509 129.644 141.509C127.868 141.509 126.428 142.899 126.428 144.615C126.428 146.33 127.868 147.721 129.644 147.721Z" fill="#F3BDCA"/>
<path d="M149.268 148.171H120.523C120.523 148.171 131.927 143.572 149.268 148.171Z" fill="#F3BDCA"/>
<path d="M144.439 147.732C147.24 147.732 149.51 145.54 149.51 142.837C149.51 140.133 147.24 137.941 144.439 137.941C141.639 137.941 139.368 140.133 139.368 142.837C139.368 145.54 141.639 147.732 144.439 147.732Z" fill="#F3BDCA"/>
<path d="M149.499 147.732C150.899 147.732 152.034 146.636 152.034 145.284C152.034 143.933 150.899 142.837 149.499 142.837C148.099 142.837 146.963 143.933 146.963 145.284C146.963 146.636 148.099 147.732 149.499 147.732Z" fill="#F3BDCA"/>
<path d="M139.368 147.731C141.09 147.731 142.485 146.385 142.485 144.724C142.485 143.063 141.09 141.717 139.368 141.717C137.647 141.717 136.251 143.063 136.251 144.724C136.251 146.385 137.647 147.731 139.368 147.731Z" fill="#F3BDCA"/>
<path d="M158.334 148.171H130.533C130.533 148.171 141.585 143.781 158.334 148.171Z" fill="#F3BDCA"/>
<path d="M37.8329 147.71C41.1123 147.71 43.7708 144.904 43.7708 141.443C43.7708 137.982 41.1123 135.176 37.8329 135.176C34.5536 135.176 31.8951 137.982 31.8951 141.443C31.8951 144.904 34.5536 147.71 37.8329 147.71Z" fill="#F3BDCA"/>
<path d="M43.639 147.71C45.2574 147.71 46.5695 146.54 46.5695 145.098C46.5695 143.655 45.2574 142.485 43.639 142.485C42.0205 142.485 40.7085 143.655 40.7085 145.098C40.7085 146.54 42.0205 147.71 43.639 147.71Z" fill="#F3BDCA"/>
<path d="M31.8952 147.71C33.8894 147.71 35.5061 146.275 35.5061 144.505C35.5061 142.735 33.8894 141.3 31.8952 141.3C29.9009 141.3 28.2842 142.735 28.2842 144.505C28.2842 146.275 29.9009 147.71 31.8952 147.71Z" fill="#F3BDCA"/>
<path d="M53.8682 148.171H21.6658C21.6658 148.171 34.4524 143.429 53.8682 148.171Z" fill="#F3BDCA"/>
<path d="M44.6707 147.469C47.8106 147.469 50.3561 145.208 50.3561 142.42C50.3561 139.632 47.8106 137.371 44.6707 137.371C41.5308 137.371 38.9854 139.632 38.9854 142.42C38.9854 145.208 41.5308 147.469 44.6707 147.469Z" fill="#F3BDCA"/>
<path d="M50.3451 147.468C51.9151 147.468 53.1878 146.338 53.1878 144.943C53.1878 143.549 51.9151 142.419 50.3451 142.419C48.7752 142.419 47.5024 143.549 47.5024 144.943C47.5024 146.338 48.7752 147.468 50.3451 147.468Z" fill="#F3BDCA"/>
<path d="M38.9854 147.468C40.913 147.468 42.4756 146.077 42.4756 144.362C42.4756 142.647 40.913 141.256 38.9854 141.256C37.0578 141.256 35.4951 142.647 35.4951 144.362C35.4951 146.077 37.0578 147.468 38.9854 147.468Z" fill="#F3BDCA"/>
<path d="M59.9268 148.006H28.7561C28.7561 148.006 41.1256 143.473 59.9268 148.006Z" fill="#F3BDCA"/>
</g>
<defs>
<clipPath id="clip0_26024_446257">
<rect width="180" height="180" fill="white"/>
</clipPath>
</defs>
</svg>
