<svg width="14" height="20" fill="none" xmlns="http://www.w3.org/2000/svg"><path d="m6.001 5.149.534 2.557h.398c.027-.901.129-1.799.306-2.683l-1.397-1.29a.328.328 0 0 1 0-.465.34.34 0 0 1 .47 0l1.102 1.023a19.78 19.78 0 0 1 .84-2.722.338.338 0 0 1 .542-.107.323.323 0 0 1 .071.355s-.222.546-.473 1.392l.796-.2a.336.336 0 0 1 .347.124.327.327 0 0 1-.188.513l-1.095.271h-.071a20.596 20.596 0 0 0-.366 1.723l.21-.086.084-.032a.334.334 0 0 1 .43.181.323.323 0 0 1-.183.425l-.43.173-.223.087c-.052.429-.088.87-.1 1.318h1.17l.713-3.616a2.52 2.52 0 0 1 .469-1.016c.23-.3.526-.545.865-.718a1.632 1.632 0 0 0-.736-.815S10.428.42 9.652.078a.994.994 0 0 0-.14-.051.141.141 0 0 0-.043 0A.566.566 0 0 0 9.38.003h-.239a.894.894 0 0 0-.147 0h-.032l-.115.032h-.02a.505.505 0 0 0-.116.047h-.024l-.087.047-.076.055-.052.04-.035.035a1.815 1.815 0 0 0-.275-.036H7.824l-.123.02-.087.02a.526.526 0 0 0-.112.035l-.068.024a.636.636 0 0 0-.103.055l-.052.031-.103.079h-.024A.929.929 0 0 0 7.048.6l-.024.035a.562.562 0 0 0-.087.138L6.9.85l-.024.055-.024.07a.288.288 0 0 0 0 .056.326.326 0 0 0 0 .067v.11a.14.14 0 0 1 0 .043v.055a.109.109 0 0 0 0 .036.175.175 0 0 0 0 .043v.086H6.48l-.14.02-.11.024-.12.035-.096.043a.732.732 0 0 0-.095.052l-.084.05-.08.064-.063.059c-.024.023-.044.05-.064.074l-.056.067-.047.079-.04.075a.783.783 0 0 0-.04.082c0 .028 0 .051-.028.075a.729.729 0 0 0-.028.087.409.409 0 0 0-.02.074V2.86a.33.33 0 0 0 0 .062.186.186 0 0 0 0 .047v.087a.148.148 0 0 1 0 .04v.03a1.389 1.389 0 0 0-.633.296c.342.158.637.4.858.702.222.302.362.655.408 1.025ZM12.379 2.78a1.945 1.945 0 0 0-.797 0 1.921 1.921 0 0 0-.926.52 1.886 1.886 0 0 0-.503.929L9.43 7.694h3.873l.565-2.71a1.862 1.862 0 0 0-.285-1.405 1.904 1.904 0 0 0-1.204-.798Zm.398 4.51a.327.327 0 0 1-.434.176l-1.195-.472-.633-.263-.282-.114a.323.323 0 0 1-.006-.603.334.334 0 0 1 .253-.003l.577.232.633.252.911.365a.327.327 0 0 1 .171.429h.005Zm.525-1.728a.328.328 0 0 1-.43.177l-.828-.33-.669-.268-.633-.263a.331.331 0 0 1-.205-.302.323.323 0 0 1 .096-.232.331.331 0 0 1 .36-.072l.163.063.797.322 1.154.465a.33.33 0 0 1 .223.309c0 .045-.01.09-.028.131ZM.563 7.705h5.275L5.34 5.27a1.56 1.56 0 0 0-.071-.244v-.035a2.068 2.068 0 0 0-.108-.209.159.159 0 0 1 0-.035 1.33 1.33 0 0 0-.139-.185l-.024-.027a1.558 1.558 0 0 0-.37-.299H4.6a2.023 2.023 0 0 0-.211-.095h-.04l-.08-.023-.143-.036h-.04a2.418 2.418 0 0 0-.242-.023h-.307l-2.277.444a1.57 1.57 0 0 0-.996.66c-.23.34-.315.759-.234 1.162l.299 1.498a.376.376 0 0 1 .234-.118ZM.563 4.048v.043l3.185-.626.16-.031v-.055l-.025-.114-.135-.716a.805.805 0 0 0-.349-.52.825.825 0 0 0-.618-.121l-1.732.338a.825.825 0 0 0-.524.345.805.805 0 0 0-.121.61l.16.847Z" fill="#30C495"/><path d="M13.47 8.458a.445.445 0 0 0-.268-.09H.611a.447.447 0 0 0-.446.445v9.377a1.79 1.79 0 0 0 .536 1.28 1.831 1.831 0 0 0 1.295.53h9.817c.485-.001.95-.192 1.294-.531.343-.34.536-.799.537-1.279V8.812a.496.496 0 0 0 0-.106.421.421 0 0 0-.175-.248Zm-.71 9.732c0 .25-.1.488-.277.664a.957.957 0 0 1-.67.277H10.64c.178-.282.273-.608.274-.94V9.236h1.851v8.953h-.003Zm-11.707 0V9.237h8.973v8.953c0 .25-.1.488-.278.664a.957.957 0 0 1-.67.277H2a.957.957 0 0 1-.67-.277.935.935 0 0 1-.277-.664Z" fill="#545454"/></svg>