<svg width="12" height="12" fill="none" xmlns="http://www.w3.org/2000/svg"><path d="M6 0a6.14 6.14 0 0 0-.352.01h.702A6.145 6.145 0 0 0 6 0Z" fill="#C42126"/><path d="M7.773 2.195h2.865a6.03 6.03 0 0 0-1.174-1.091H7.312c.179.313.332.682.46 1.091Z" fill="#E7E7E7"/><path d="M7.313 1.103h2.151A5.967 5.967 0 0 0 6.351.012h-.185c.544.068.794.471 1.147 1.091Z" fill="#DC3027"/><path d="M11.776 4.377a5.963 5.963 0 0 0-.425-1.092H8.055c.066.35.12.717.158 1.092h3.563Z" fill="#E7E7E7"/><path d="M7.87 3.287h3.481a6.005 6.005 0 0 0-.712-1.092H7.598c.107.34.198.706.272 1.092Z" fill="#DC3027"/><path d="M8.34 6.56h3.633a6.01 6.01 0 0 0 .003-1.091H8.34c.012.363.011.728-.001 1.091Z" fill="#E7E7E7"/><path d="M11.976 5.47a5.98 5.98 0 0 0-.2-1.091H8.062c.037.357.062.723.074 1.091h3.84Z" fill="#DC3027"/><path d="M7.992 8.744h3.343c.179-.346.324-.71.433-1.092H8.154c-.04.376-.094.742-.162 1.092Z" fill="#E7E7E7"/><path d="M11.766 7.652c.1-.352.17-.716.206-1.091H8.225c-.013.368-.038.734-.077 1.091h3.618Z" fill="#DC3027"/><path d="M9.42 10.927c.445-.309.847-.676 1.192-1.091H7.797c-.131.41-.288.78-.469 1.091h2.093Z" fill="#E7E7E7"/><path d="M7.691 9.836h2.921c.28-.335.521-.701.722-1.092H7.967a9.498 9.498 0 0 1-.276 1.092ZM5.782 11.995h-.036.036ZM6 12c1.272 0 2.45-.397 3.421-1.072H7.25C6.864 11.592 6.61 12 6 12Z" fill="#DC3027"/><path d="M5.999 12Z" fill="#C42126"/><path d="M7.511 1.104H2.535a6.03 6.03 0 0 0-1.174 1.091h6.61a5.703 5.703 0 0 0-.46-1.091Z" fill="#F3F4F5"/><path d="M2.535 1.103h4.976C7.158.483 6.71.08 6.166.012h-.517a5.966 5.966 0 0 0-3.114 1.091Z" fill="#E73625"/><path d="M.223 4.377H8.4a13.087 13.087 0 0 0-.158-1.092H.648a5.96 5.96 0 0 0-.425 1.092Z" fill="#F3F4F5"/><path d="M1.363 2.195A6.008 6.008 0 0 0 .65 3.287h7.595a9.62 9.62 0 0 0-.272-1.092h-6.61Z" fill="#E73625"/><path d="M0 6c0 .188.01.376.027.56h8.449c.012-.363.012-.728 0-1.091H.025a6.064 6.064 0 0 0-.025.53Z" fill="#F3F4F5"/><path d="M.023 5.47h8.452a15.416 15.416 0 0 0-.074-1.091H.222A5.968 5.968 0 0 0 .023 5.47Z" fill="#E73625"/><path d="M8.4 7.652H.231c.11.381.255.746.433 1.092h7.573c.068-.35.121-.716.161-1.092Z" fill="#F3F4F5"/><path d="M.233 7.652H8.4c.038-.357.063-.723.076-1.091H.027c.035.375.105.74.206 1.091Z" fill="#E73625"/><path d="M2.578 10.927h4.915c.181-.312.338-.68.47-1.091H1.386a6.03 6.03 0 0 0 1.191 1.091Z" fill="#F3F4F5"/><path d="M.664 8.744c.201.39.443.757.722 1.092h6.575c.109-.34.201-.706.276-1.092H.664ZM5.745 11.994l.037.002c.072.002.144.004.217.004.61 0 1.108-.408 1.494-1.072H2.578a5.968 5.968 0 0 0 3.167 1.066Z" fill="#E73625"/><path d="M5.876.004A5.998 5.998 0 0 0 .026 5.46h5.85V.004Z" fill="#283991"/><path d="m1.202 3.398.091.282h.297l-.24.174.092.282-.24-.175-.24.175.092-.282-.24-.174h.297l.091-.282ZM1.202 4.395l.091.281h.297l-.24.174.092.282-.24-.174-.24.174.092-.282-.24-.174h.297l.091-.281ZM2.196 1.906l.092.282h.296l-.24.174.092.281-.24-.174-.24.174.092-.281-.24-.174h.297l.091-.282ZM2.196 2.902l.092.282h.296l-.24.174.092.282-.24-.174-.24.174.092-.282-.24-.174h.297l.091-.282ZM2.196 3.896l.092.282h.296l-.24.174.092.282-.24-.174-.24.174.092-.282-.24-.174h.297l.091-.282ZM.447 4.634l-.092-.281.24-.174H.299l-.007-.02c-.032.1-.062.201-.089.304l.004-.003.24.174ZM.962 3.142l.24-.175.24.175-.092-.282.24-.174h-.297l-.091-.282-.092.282h-.109l-.06.093.113.08-.092.283ZM2.197 1.477l.24.174-.092-.282.24-.174h-.172a5.96 5.96 0 0 0-.42.345l-.036.11.24-.173ZM2.951 1.154l.24-.174.24.174-.092-.282.24-.174h-.297L3.27.66c-.1.051-.2.105-.297.161l.07.051-.092.282ZM3.192 1.41l.092.282h.296l-.24.174.092.281-.24-.174-.24.174.092-.281-.24-.174h.297l.091-.282ZM3.192 2.406l.092.282h.296l-.24.174.092.281-.24-.174-.24.174.092-.281-.24-.174h.297l.091-.282ZM3.192 3.398l.092.282h.296l-.24.174.092.282-.24-.175-.24.175.092-.282-.24-.174h.297l.091-.282ZM3.192 4.395l.092.281h.296l-.24.174.092.282-.24-.174-.24.174.092-.282-.24-.174h.297l.091-.281ZM4.185.914l.091.282h.296l-.24.174.092.281-.24-.174-.24.174.092-.281-.24-.174h.297l.092-.282ZM4.185 1.906l.091.282h.296l-.24.174.092.281-.24-.174-.24.174.092-.281-.24-.174h.297l.092-.282ZM4.185 2.902l.091.282h.296l-.24.174.092.282-.24-.174-.24.174.092-.282-.24-.174h.297l.092-.282ZM4.185 3.896l.091.282h.296l-.24.174.092.282-.24-.174-.24.174.092-.282-.24-.174h.297l.092-.282ZM5.18.416l.092.282h.296l-.24.174.092.281L5.18.98l-.239.174.092-.281-.24-.174h.296l.092-.282ZM5.18 1.41l.092.282h.296l-.24.174.092.281-.24-.174-.239.174.092-.281-.24-.174h.296l.092-.282ZM5.18 2.406l.092.282h.296l-.24.174.092.281-.24-.174-.239.174.092-.281-.24-.174h.296l.092-.282ZM5.18 3.398l.092.282h.296l-.24.174.092.282-.24-.175-.239.175.092-.282-.24-.174h.296l.092-.282ZM5.18 4.395l.092.281h.296l-.24.174.092.282-.24-.174-.239.174.092-.282-.24-.174h.296l.092-.281Z" fill="#EFEFEF"/></svg>