<svg width="32" height="29" fill="none" xmlns="http://www.w3.org/2000/svg"><path d="M30.356 5.99A3.152 3.152 0 0 0 27.91 4.8H8.058l-.62-2.38A3.126 3.126 0 0 0 4.409.072H1.081c-.554 0-1.01.45-1.01.997 0 .547.456.997 1.01.997h3.325c.49 0 .913.322 1.043.804L9.427 18.5a3.126 3.126 0 0 0 3.032 2.348h13.007c1.434 0 2.706-.965 3.031-2.348l2.445-9.905c.229-.9.033-1.866-.586-2.605Zm-1.402 2.155-2.445 9.905c-.13.482-.554.804-1.043.804H12.459c-.489 0-.913-.322-1.043-.804L8.58 6.826h19.33c.327 0 .653.16.848.418.196.257.294.579.196.9ZM13.144 22.135c-1.858 0-3.39 1.511-3.39 3.344 0 1.834 1.532 3.345 3.39 3.345s3.39-1.511 3.39-3.345c0-1.833-1.532-3.344-3.39-3.344Zm0 4.663c-.75 0-1.337-.579-1.337-1.319s.587-1.318 1.337-1.318 1.336.579 1.336 1.318c0 .708-.62 1.319-1.336 1.319ZM24.358 22.135c-1.859 0-3.39 1.511-3.39 3.344 0 1.834 1.531 3.345 3.39 3.345 1.858 0 3.39-1.511 3.39-3.345-.033-1.833-1.532-3.344-3.39-3.344Zm0 4.663c-.75 0-1.337-.579-1.337-1.319s.587-1.318 1.337-1.318 1.336.579 1.336 1.318c0 .708-.62 1.319-1.336 1.319Z" fill="#919EAB"/></svg>