<svg width="20" height="20" fill="none" xmlns="http://www.w3.org/2000/svg"><g opacity=".8" clip-path="url(#a)"><path opacity=".8" d="M16.851 20H3.15A3.16 3.16 0 0 1 0 16.851V3.15A3.16 3.16 0 0 1 3.149 0H16.85A3.16 3.16 0 0 1 20 3.149V16.85A3.16 3.16 0 0 1 16.851 20ZM3.15 2.217c-.488 0-.932.444-.932.932V16.85c0 .533.444.932.932.932H16.85a.937.937 0 0 0 .932-.932V3.15c0-.488-.4-.932-.932-.932H3.15Z" fill="#fff"/><path opacity=".8" d="M7.583 15.742c-.31 0-.576-.133-.798-.355a1.072 1.072 0 0 1 .044-1.552l3.991-3.858L6.83 6.12a1.112 1.112 0 0 1-.045-1.552 1.112 1.112 0 0 1 1.552-.044l4.834 4.656c.221.222.354.488.354.798 0 .31-.133.577-.354.798l-4.834 4.657c-.177.221-.488.31-.754.31Z" fill="#fff"/></g><defs><clipPath id="a"><path fill="#fff" d="M0 0h20v20H0z"/></clipPath></defs></svg>