<svg width="20" height="20" viewBox="0 0 20 20" fill="none" xmlns="http://www.w3.org/2000/svg">
<path d="M10 1.25C5.16797 1.25 1.25 5.16797 1.25 10C1.25 14.832 5.16797 18.75 10 18.75C14.832 18.75 18.75 14.832 18.75 10C18.75 5.16797 14.832 1.25 10 1.25ZM10 17.2656C5.98828 17.2656 2.73438 14.0117 2.73438 10C2.73438 5.98828 5.98828 2.73438 10 2.73438C14.0117 2.73438 17.2656 5.98828 17.2656 10C17.2656 14.0117 14.0117 17.2656 10 17.2656Z" fill="#DFE3E8"/>
<path d="M12.1794 6.18494C11.5934 5.67127 10.82 5.39001 9.99969 5.39001C9.17938 5.39001 8.40595 5.67322 7.82001 6.18494C7.21063 6.71814 6.8747 7.43494 6.8747 8.20252V8.35095C6.8747 8.43689 6.94501 8.5072 7.03095 8.5072H7.96845C8.05438 8.5072 8.1247 8.43689 8.1247 8.35095V8.20252C8.1247 7.34119 8.96649 6.64002 9.99969 6.64002C11.0329 6.64002 11.8747 7.34119 11.8747 8.20252C11.8747 8.80994 11.445 9.36658 10.779 9.62244C10.3649 9.78064 10.0134 10.058 9.76141 10.4213C9.50556 10.7924 9.37274 11.2377 9.37274 11.6888V12.1088C9.37274 12.1947 9.44306 12.265 9.52899 12.265H10.4665C10.5524 12.265 10.6227 12.1947 10.6227 12.1088V11.6654C10.6238 11.4758 10.6819 11.2909 10.7895 11.1348C10.8972 10.9787 11.0494 10.8587 11.2263 10.7904C12.3786 10.347 13.1227 9.33142 13.1227 8.20252C13.1247 7.43494 12.7888 6.71814 12.1794 6.18494ZM9.21845 14.2963C9.21845 14.5035 9.30076 14.7022 9.44727 14.8487C9.59378 14.9952 9.79249 15.0775 9.99969 15.0775C10.2069 15.0775 10.4056 14.9952 10.5521 14.8487C10.6986 14.7022 10.7809 14.5035 10.7809 14.2963C10.7809 14.0891 10.6986 13.8904 10.5521 13.7438C10.4056 13.5973 10.2069 13.515 9.99969 13.515C9.79249 13.515 9.59378 13.5973 9.44727 13.7438C9.30076 13.8904 9.21845 14.0891 9.21845 14.2963Z" fill="#DFE3E8"/>
</svg>
