<svg width="12" height="13" viewBox="0 0 12 13" fill="none" xmlns="http://www.w3.org/2000/svg">
<circle cx="6" cy="6.5" r="6" fill="#DA264D"/>
<g clip-path="url(#clip0_27501_807059)">
<path d="M3.76384 6.13428H4.25C4.20089 6.26454 4.17388 6.40664 4.17388 6.55347V8.32499C4.17388 8.38657 4.18493 8.44578 4.20458 8.50025H3.40045C3.09966 8.50025 2.85658 8.2646 2.85658 7.97566V7.00938C2.85658 6.52624 3.26417 6.13428 3.76384 6.13428Z" fill="white"/>
<path d="M7.82528 6.55347C7.82528 6.40664 7.79827 6.26454 7.74916 6.13428H8.23532C8.73499 6.13428 9.14258 6.52624 9.14258 7.00938V7.97566C9.14258 8.26578 8.89827 8.50025 8.59872 8.50025H7.79459C7.81423 8.44578 7.82528 8.38657 7.82528 8.32499V6.55347Z" fill="white"/>
<path d="M5.44361 5.67822H6.55466C7.05555 5.67822 7.46191 6.07137 7.46191 6.55333V8.32485C7.46191 8.42195 7.38089 8.5001 7.28022 8.5001H4.71682C4.61615 8.5001 4.53513 8.42195 4.53513 8.32485V6.55333C4.53636 6.07018 4.94395 5.67822 5.44361 5.67822Z" fill="white"/>
<path d="M5.99941 3.35742C6.60098 3.35742 7.09082 3.82991 7.09082 4.41015C7.09082 4.8033 6.86616 5.14789 6.53345 5.32788C6.37508 5.41314 6.19339 5.46288 6.00064 5.46288C5.8079 5.46288 5.62497 5.41433 5.46783 5.32788C5.13513 5.14789 4.91046 4.8033 4.91046 4.41015C4.90801 3.82991 5.39785 3.35742 5.99941 3.35742Z" fill="white"/>
<path d="M7.91699 4.33789C8.36755 4.33789 8.7334 4.69077 8.7334 5.12536C8.7334 5.55996 8.36755 5.91284 7.91699 5.91284C7.80282 5.91284 7.69355 5.89034 7.59534 5.84889C7.42469 5.77784 7.28351 5.65232 7.19634 5.49483C7.13496 5.3847 7.10059 5.25918 7.10059 5.12536C7.10059 4.69196 7.46643 4.33789 7.91699 4.33789Z" fill="white"/>
<path d="M4.08301 4.33789C4.53357 4.33789 4.89941 4.69077 4.89941 5.12536C4.89941 5.25918 4.86504 5.3847 4.80366 5.49483C4.71649 5.65232 4.57531 5.77784 4.40466 5.84889C4.30645 5.89034 4.19718 5.91284 4.08301 5.91284C3.63245 5.91284 3.2666 5.55996 3.2666 5.12536C3.2666 4.69077 3.63368 4.33789 4.08301 4.33789Z" fill="white"/>
</g>
<defs>
<clipPath id="clip0_27501_807059">
<rect width="6.28571" height="5.14286" fill="white" transform="matrix(-1 0 0 1 9.14258 3.35742)"/>
</clipPath>
</defs>
</svg>
