<svg xmlns="http://www.w3.org/2000/svg" xmlns:xlink="http://www.w3.org/1999/xlink" width="210" height="210" fill="none" xmlns:v="https://vecta.io/nano"><style><![CDATA[.B{fill:#263238}.C{fill:#db284e}.D{fill:#eb92a7}.E{fill:#f3bdca}.F{fill:#b6efda}.G{fill:#f2aa91}.H{fill:#3f3f3f}.I{fill:#007cff}.J{stroke-miterlimit:10}.K{stroke-linecap:round}]]></style><g clip-path="url(#A)"><g clip-path="url(#B)"><path d="M158.72 181.49a83.51 83.51 0 0 0 27.207-92.061A83.51 83.51 0 0 0 108.558 32.6 83.51 83.51 0 0 0 28.85 86.099a83.51 83.51 0 0 0 23.28 93.131" fill="#fceff2"/><g class="D"><path d="M156.49 180.37c10.819 0 19.59-8.439 19.59-18.85s-8.771-18.85-19.59-18.85-19.59 8.439-19.59 18.85 8.771 18.85 19.59 18.85z"/><path d="M176.07 180.36c5.407 0 9.79-4.217 9.79-9.42s-4.383-9.42-9.79-9.42-9.79 4.217-9.79 9.42 4.383 9.42 9.79 9.42z"/></g><path d="M136.9 180.36c6.644 0 12.03-5.185 12.03-11.58s-5.386-11.58-12.03-11.58-12.03 5.185-12.03 11.58 5.386 11.58 12.03 11.58z" fill="#a0e8cb"/><path d="M210.19 181.83H102.78s42.64-16.91 107.41 0z" class="D"/><g fill="#a0e8cb"><path d="M87.32 179.55c16.751 0 30.33-13.064 30.33-29.18s-13.579-29.18-30.33-29.18-30.33 13.064-30.33 29.18 13.579 29.18 30.33 29.18z"/><path d="M117.65 179.55c8.373 0 15.16-6.532 15.16-14.59s-6.787-14.59-15.16-14.59-15.16 6.532-15.16 14.59 6.788 14.59 15.16 14.59z"/></g><g class="D"><path d="M56.99 179.56c10.289 0 18.63-8.028 18.63-17.93s-8.341-17.93-18.63-17.93-18.63 8.028-18.63 17.93 8.341 17.93 18.63 17.93z"/><path d="M170.47 181.83H4.16s66.02-26.18 166.31 0z"/></g><path d="M39.56 180.62c7.053 0 12.77-6.026 12.77-13.46s-5.717-13.46-12.77-13.46-12.77 6.026-12.77 13.46 5.717 13.46 12.77 13.46z" class="E"/><path d="M52.03 180.62c3.485 0 6.31-2.507 6.31-5.6s-2.825-5.6-6.31-5.6-6.31 2.507-6.31 5.6 2.825 5.6 6.31 5.6z" class="F"/><g class="E"><path d="M26.79 180.63c4.28 0 7.75-3.085 7.75-6.89s-3.47-6.89-7.75-6.89-7.75 3.085-7.75 6.89 3.47 6.89 7.75 6.89z"/><path d="M74 181.5H4.81s27.47-10.06 69.19 0z"/><path d="M54.23 180.1c6.743 0 12.21-4.858 12.21-10.85s-5.467-10.85-12.21-10.85-12.21 4.858-12.21 10.85 5.467 10.85 12.21 10.85z"/></g><path d="M66.44 180.1c3.374 0 6.11-2.427 6.11-5.42s-2.736-5.42-6.11-5.42-6.11 2.427-6.11 5.42 2.736 5.42 6.11 5.42z" class="F"/><g class="E"><path d="M42.02 180.1c4.142 0 7.5-2.982 7.5-6.66s-3.358-6.66-7.5-6.66-7.5 2.982-7.5 6.66 3.358 6.66 7.5 6.66z"/><path d="M87 181.27H20s26.63-9.74 67 0zm46.02-.72c9.212 0 16.68-7.213 16.68-16.11s-7.468-16.11-16.68-16.11-16.68 7.213-16.68 16.11 7.468 16.11 16.68 16.11z"/></g><g class="F"><path d="M144.13 180.56c3.839 0 6.95-3.004 6.95-6.71s-3.111-6.71-6.95-6.71-6.95 3.004-6.95 6.71 3.112 6.71 6.95 6.71zm-27.79-.01c4.711 0 8.53-3.689 8.53-8.24s-3.819-8.24-8.53-8.24-8.53 3.689-8.53 8.24 3.819 8.24 8.53 8.24z"/></g><g class="E"><path d="M168.33 181.6H92.14s30.24-12.04 76.19 0z"/><path d="M155.57 180.59c7.428 0 13.45-5.816 13.45-12.99s-6.022-12.99-13.45-12.99-13.45 5.816-13.45 12.99 6.022 12.99 13.45 12.99z"/><path d="M169.02 180.59c3.711 0 6.72-2.906 6.72-6.49s-3.009-6.49-6.72-6.49-6.72 2.906-6.72 6.49 3.008 6.49 6.72 6.49zm-26.89 0c4.562 0 8.26-3.573 8.26-7.98s-3.698-7.98-8.26-7.98-8.26 3.573-8.26 7.98 3.698 7.98 8.26 7.98z"/><path d="M192.44 181.6h-73.73s29.29-11.6 73.73 0zM26.66 72.57c6.594 0 11.94-4.75 11.94-10.61s-5.346-10.61-11.94-10.61-11.94 4.75-11.94 10.61 5.346 10.61 11.94 10.61z"/><path d="M38.6 72.56c3.297 0 5.97-2.373 5.97-5.3s-2.673-5.3-5.97-5.3-5.97 2.373-5.97 5.3 2.673 5.3 5.97 5.3zm-23.89.01c4.054 0 7.34-2.919 7.34-6.52s-3.286-6.52-7.34-6.52-7.34 2.919-7.34 6.52 3.286 6.52 7.34 6.52z"/><path d="M60.39 74.09H1s23.57-11.69 59.39 0zm122.06-41.4c5.749 0 10.41-4.141 10.41-9.25s-4.661-9.25-10.41-9.25-10.41 4.141-10.41 9.25 4.661 9.25 10.41 9.25z"/><path d="M172.03 32.7c2.877 0 5.21-2.073 5.21-4.63s-2.333-4.63-5.21-4.63-5.21 2.073-5.21 4.63 2.332 4.63 5.21 4.63zm20.83-.01c3.535 0 6.4-2.543 6.4-5.68s-2.865-5.68-6.4-5.68-6.4 2.543-6.4 5.68 2.865 5.68 6.4 5.68z"/><path d="M153.89 33.41H211s-22.67-8.3-57.11 0z"/></g><path d="M88.68 146c17.949 0 32.5-14.551 32.5-32.5S106.629 81 88.68 81s-32.5 14.551-32.5 32.5S70.731 146 88.68 146z" fill="#dcf7ec"/><g class="D"><path d="M74.82 197.52c16.574 0 30.01-.475 30.01-1.06s-13.436-1.06-30.01-1.06-30.01.475-30.01 1.06 13.436 1.06 30.01 1.06zm58.48 0c10.228 0 18.52-.475 18.52-1.06s-8.292-1.06-18.52-1.06-18.52.475-18.52 1.06 8.291 1.06 18.52 1.06z"/></g><g fill="#c22046"><path d="M167.66 41.35L179.48 21l5.52 5.32-17.34 15.03zm2.9 2.02l14.92-8.95 1.67 5.42-16.59 3.53zm-5.9-4.47l.42-13.35 4.2 1.18-4.62 12.17z"/></g><path d="M149.8 43.91c-2.08-1.3-8.05 0-7.06 6.55s-6.7 4.86-5 12.46S153 81.8 161.37 74.14s1.32-11 1.48-20.14c.09-5.41-2.36-15.08-13.05-10.09z" class="B"/><g class="G"><path d="M160.14 78.5a3 3 0 0 1-.349-2.004c.12-.688.477-1.313 1.009-1.766 1.9-1.5 5-2.61 7.81 2.16 0 0 9.53 9.64 10.44-6.29l3.92.3s.6 15.22-7.57 15.71-15.26-8.11-15.26-8.11z"/><path d="M179.05 70.6s-1.3-1.6-.25-2.6 3.3.41 3.3.41h7.18a1.23 1.23 0 0 1-.077.644c-.083.204-.218.382-.393.516-.61.52-5.84 1.34-5.84 1.34l-3.92-.31zM121 62.94v-3.86s-.52-.32-.68.62a7.94 7.94 0 0 1-.72 1.87l1.4 1.37z"/><path d="M118.71 59.22c.29.16.4 1.47.4 1.47l.2.37 1.63 1.69c.106.621.133 1.252.08 1.88a3 3 0 0 1-.25.88 2.31 2.31 0 0 0-.275.935c-.024.328.022.657.135.965l-3.49 1.25-.83-2.13c-.08-.13-.94-1.66-1-1.87-.237-.684-.349-1.406-.33-2.13.113-.578.342-1.127.673-1.614s.76-.9 1.257-1.216c1.58-.92 1.8-.48 1.8-.48z"/><path d="M140.38 71.41c.248-.652.261-1.371.037-2.031s-.673-1.222-1.267-1.589c-2.1-1.19-5.36-1.82-7.38 3.32 0 0-7.94 11-11.28-4.61l-3.83.9s1.75 15.14 9.9 14.36 13.82-10.35 13.82-10.35z"/></g><path d="M162.59 71.05c5.09 3.25 4.67 5.25 4.67 5.25l-3.2 4.63s-8.15-3.27-8.67-5.83 4.73-5.63 7.2-4.05z" class="B"/><path d="M162.59 71.05c5.09 3.25 6.81 5.3 6.81 5.3l-6.27 6.26s-7.22-5-7.74-7.51 4.73-5.63 7.2-4.05z" class="C"/><path d="M132.76 191.74l4.61.45 3.3-10.85-4.61-.45-3.3 10.85z" class="G"/><path d="M103.4 175.7l3.42 3.22 7.39-8.13-3.42-3.21-7.39 8.12z" fill="#ffc3bd"/><g class="B"><path d="M108.4 177.38l-2.57-4.64a.38.38 0 0 0-.203-.173c-.086-.031-.181-.03-.267.003l-4 1.51a.75.75 0 0 0-.26.178.73.73 0 0 0-.162.27c-.034.1-.047.207-.036.313a.74.74 0 0 0 .098.299l2.58 4.37 3 5.86c1 1.73 2.73.87 2.48.07a13.67 13.67 0 0 1-.58-7.23c.07-.278.042-.571-.08-.83zm29.52 13.4h-5.6c-.1.001-.198.035-.277.096a.46.46 0 0 0-.163.244l-1.22 4.43a.69.69 0 0 0-.014.323c.021.107.067.207.134.293a.69.69 0 0 0 .253.201c.099.046.208.067.317.063h5.36 7.53c2 0 2.47-2.07 1.62-2.25-3.79-.84-6-2-7.15-3.11a1.17 1.17 0 0 0-.79-.29z"/></g><g fill="#000"><path opacity=".2" d="M140.67 181.34l-1.7 5.59h-4.75l1.83-6.03 4.62.44zm-29.89-13.76l3.43 3.22-3.81 4.18-3.43-3.21 3.81-4.19z"/></g><use xlink:href="#C" class="B"/><use xlink:href="#C" class="C"/><path d="M152.71 97.79s6.57 26.63 2.26 46.77c-2.89 13.5-13.3 40.75-13.3 40.75l-8.15-.21s7.89-28.6 9.52-39.85C145.83 126 139.18 94 139.18 94l13.53 3.79z" class="H"/><path opacity=".2" d="M145.37 101.61L141.3 108a194.94 194.94 0 0 1 2.33 23c5.73-10.21 3.02-24 1.74-29.39z" fill="#000"/><path d="M143.12 185.73l-10.36-.25.69-3.69 10.43.78-.76 3.16z" class="B"/><path d="M148.66 96.73s-3.8 29.11-12 45.66c-6.64 13.36-24.34 32.38-24.34 32.38l-4.53-4.66 16.89-29.55c12.09-21.77 1.37-41.28 9.57-47.88l14.41 4.05z" class="H"/><path d="M112.77 175.4l-5.85-5.7 1.94-2.63 6.37 6.58-2.46 1.75z" class="B"/><use xlink:href="#D" class="I"/><use xlink:href="#D" fill="#232323"/><g class="H"><path d="M136.2 94.3l-.5-.14c-.1 0-.17-.1-.14-.16l.83-2.08c0-.06.12-.09.22-.06l.5.14c.1 0 .17.1.14.16l-.83 2.08c-.02.06-.12.09-.22.06zm14.91 4.13l-.5-.14c-.1 0-.16-.1-.13-.16l.83-2.08c0-.06.12-.09.22-.06l.5.14c.1 0 .16.1.14.16l-.83 2.08c-.027.033-.064.057-.105.068a.2.2 0 0 1-.125-.008zm-7.45-2.06l-.51-.14c-.1 0-.16-.1-.13-.16l.83-2.09c0-.06.12-.08.22-.06l.5.14c.1 0 .16.1.14.16l-.83 2.09c-.02.06-.12.08-.22.06z"/></g><g class="B"><path d="M152.07 50.94a.2.2 0 0 1-.18 0c-.199-.206-.444-.362-.716-.454a1.8 1.8 0 0 0-.844-.076c-.047.006-.095-.006-.134-.033s-.065-.069-.075-.115a.19.19 0 0 1 .021-.136c.024-.041.063-.072.108-.086a2.2 2.2 0 0 1 1.028.09c.331.111.629.3.872.55a.17.17 0 0 1 .041.059c.009.022.015.046.015.071s-.005.048-.015.071-.023.043-.041.059h-.08zM138.6 64.19c-2.38 0-8.11 9.08-8.11 9.08l4 4.19s7.61-5.14 7.92-8.18c.31-2.59-.78-5.06-3.81-5.09z"/></g><path d="M138.6 64.19c-2.38 0-9.93 8-9.93 8l6.27 7.31s7.21-7.16 7.52-10.2c.26-2.61-.83-5.08-3.86-5.11z" class="C"/><g class="I"><path d="M109.3 179.87a.63.63 0 0 0 .41-.16c.055-.035.098-.084.127-.142a.35.35 0 0 0 .033-.188c-.05-.59-1.54-1.39-1.71-1.48-.017-.007-.036-.011-.055-.011s-.038.004-.055.011c-.007.016-.01.033-.01.05s.003.034.01.05c.17.6.54 1.64 1.1 1.83.048.02.098.034.15.04zm-1-1.69c.51.29 1.39.86 1.42 1.22 0 .032-.009.064-.024.092s-.039.051-.066.068c-.054.054-.122.092-.196.11s-.152.014-.224-.01c-.35-.11-.68-.66-.94-1.48h.03z"/><path d="M109.53 178.41a1.07 1.07 0 0 0 .67-.17c.066-.054.111-.13.127-.214s.004-.171-.037-.246a.58.58 0 0 0-.138-.204.57.57 0 0 0-.212-.126c-.64-.22-1.82.43-1.87.45a.11.11 0 0 0-.008.04.11.11 0 0 0 .008.04c-.006.014-.009.029-.009.045s.003.031.009.045a3.39 3.39 0 0 0 1.46.34zm.09-.82a.71.71 0 0 1 .26 0c.053.018.102.047.144.084s.074.085.096.136c.06.15 0 .21 0 .25-.27.23-1.26.1-1.76-.11a3.43 3.43 0 0 1 1.26-.36z"/></g><path d="M155.36 67.87s-3.33-1.8-.59-6.14c0 0 1.89 1.51 3.32-1.44 2-4.19-2-2.2-2-2.2s7.61-13.44-9.52-9.36c0 0-2.28 5.28-2.28 9.87 0 6.26 3.73 4.32 3.73 4.32.156.615.074 1.266-.23 1.822a2.51 2.51 0 0 1-1.41 1.178 3.52 3.52 0 0 0 3.18 3.08 9.74 9.74 0 0 0 5.8-1.13z" class="G"/><g fill="#1b8884"><path d="M140.4 191.68a1.84 1.84 0 0 0 1.08-.25.69.69 0 0 0 .2-.233c.049-.092.076-.193.08-.297.005-.055-.004-.111-.027-.162s-.058-.095-.103-.128c-.51-.34-2.54.6-2.77.7-.019.009-.034.024-.045.041s-.016.038-.015.059.012.035.025.049.027.025.045.031a7.58 7.58 0 0 0 1.53.19zm.9-1a.34.34 0 0 1 .22.05c.011.018.018.039.018.06s-.007.042-.018.06c-.002.076-.021.151-.055.218a.5.5 0 0 1-.145.172c-.7.257-1.462.289-2.18.09a7.07 7.07 0 0 1 2.16-.61v-.04z"/><path d="M138.89 191.49c.61-.25 1.89-1.27 1.82-1.78 0-.11-.09-.25-.36-.28-1.1-.13-1.57 1.87-1.59 2-.01.029-.01.061 0 .09l.13-.03zm1.4-1.89h.07c.2 0 .21.1.21.12 0 .33-.87 1.16-1.53 1.51.13-.47.54-1.63 1.25-1.63z"/></g><path d="M147.48 50.9c2.44 3.59 10.82 8.72 11.51 4s-3.54-9.51-7.85-9.16-5.74 2.1-3.66 5.16z" class="B"/><path d="M120.67 190.81l-56.39 5.57a12.35 12.35 0 0 1-13.5-11.06L36.76 44a12.36 12.36 0 0 1 2.724-9.081 12.36 12.36 0 0 1 8.356-4.479l56.39-5.57a12.34 12.34 0 0 1 13.49 11.07l14 141.37a12.32 12.32 0 0 1-.464 4.791 12.33 12.33 0 0 1-2.263 4.249 12.31 12.31 0 0 1-3.718 3.058c-1.428.766-2.993 1.242-4.605 1.402z" fill="#455a64"/><path d="M104.65 29.76l-10.93 1.08a2.72 2.72 0 0 0-2.38 3l.2 2a2.74 2.74 0 0 1-2.38 3L67.84 41a2.74 2.74 0 0 1-2.93-2.51l-.19-2A2.74 2.74 0 0 0 61.79 34l-3.85.38-9.57 1a8.64 8.64 0 0 0-5.833 3.119 8.64 8.64 0 0 0-1.917 6.331l13.68 138a8.64 8.64 0 0 0 .98 3.229c.536 1.002 1.264 1.888 2.143 2.608s1.891 1.259 2.978 1.587a8.63 8.63 0 0 0 3.359.326L120 185c1.13-.111 2.226-.444 3.227-.979a8.66 8.66 0 0 0 2.606-2.14 8.64 8.64 0 0 0 1.588-2.975c.329-1.086.441-2.227.329-3.356l-13.69-138c-.215-2.281-1.327-4.382-3.092-5.843a8.64 8.64 0 0 0-6.318-1.947z" fill="#fafafa"/><path d="M91.048 52.051L67.195 54.52l.141 1.363 23.853-2.469-.141-1.363z" class="C"/><g stroke="#000" stroke-width=".36" class="J K"><path opacity=".3" d="M63.83 59.21l32.03-3.31m-47.72-9.38l5.77-.59m-5.61 2.18l5.78-.6m-5.61 2.19l5.77-.6"/></g><g opacity=".3" stroke="#000" stroke-width=".36" class="J"><g class="K"><path opacity=".3" d="M101.04 40.26l.88-.09 1.27 2.8 2.98-.31.42-2.32-3.6.38m3.07 2.65l-2.54.26-.33-.66"/></g><path opacity=".3" d="M104.06 44.74a.33.33 0 1 0 0-.66.33.33 0 1 0 0 .66zm1.62-.17a.33.33 0 1 0 0-.66.33.33 0 1 0 0 .66z"/></g><path d="M114.467 147.405l-52.231 5.406a1.37 1.37 0 0 0-1.222 1.504l.906 8.753a1.37 1.37 0 0 0 1.504 1.222l52.231-5.407a1.37 1.37 0 0 0 1.222-1.504l-.906-8.753a1.37 1.37 0 0 0-1.504-1.221z" fill="#e66983"/><g fill="#fff"><path d="M71.9 160.16l-1.24.12-2.41-2.93.33 3.15-1.25.13-.53-5.11 1.25-.13 2.41 3-.33-3.16 1.24-.13.53 5.06zm1.66-.37c-.33-.139-.616-.363-.83-.65a2.33 2.33 0 0 1-.39-1.08 2.11 2.11 0 0 1 .17-1.13 1.79 1.79 0 0 1 .68-.81 2.28 2.28 0 0 1 1-.37c.373-.043.752.009 1.1.15a1.82 1.82 0 0 1 .83.65c.225.315.359.685.39 1.07a2.1 2.1 0 0 1-.17 1.13 1.86 1.86 0 0 1-.68.81 2.24 2.24 0 0 1-1.06.37 2.33 2.33 0 0 1-1.04-.14zm1.56-1.26A1.23 1.23 0 0 0 75 157a.79.79 0 0 0-.288-.168c-.107-.034-.22-.045-.332-.032s-.224.043-.324.098a.81.81 0 0 0-.256.222 1.06 1.06 0 0 0-.16.78 1.1 1.1 0 0 0 .31.72.75.75 0 0 0 .287.171c.107.034.221.044.333.029a.81.81 0 0 0 .304-.089.8.8 0 0 0 .246-.201zm4.47-.24l.1 1.06-.63.06a1.52 1.52 0 0 1-1.09-.22 1.37 1.37 0 0 1-.351-.448c-.084-.172-.132-.36-.139-.552l-.16-1.61-.5.05-.1-1 .49-.06-.1-1 1.24-.13.1 1 .82-.09.1 1-.81.09.17 1.63a.35.35 0 0 0 .11.25.45.45 0 0 0 .3.05l.45-.08zm.41-3.69a.65.65 0 0 1-.173-.204c-.043-.079-.069-.166-.077-.256a.64.64 0 0 1 .15-.5c.066-.074.145-.135.235-.178s.186-.067.285-.072a.75.75 0 0 1 .55.14c.073.053.134.122.177.202a.61.61 0 0 1 .073.258.62.62 0 0 1-.024.268c-.028.086-.074.165-.136.232a.72.72 0 0 1-.226.17c-.086.041-.179.065-.274.07a.76.76 0 0 1-.293-.009.77.77 0 0 1-.267-.121zm1.22.49l.42 4.06-1.25.13-.39-4.06 1.22-.13zm3.03.73l-.67.07.32 3-1.25.13-.31-3h-.45l-.11-1 .45-.05v-.11a1.46 1.46 0 0 1 .31-1.18c.326-.322.762-.508 1.22-.52h.21l.1 1.06a.75.75 0 0 0-.49.15.57.57 0 0 0-.1.46l.67-.07.1 1.06zm.51-1.72a.59.59 0 0 1-.26-.45c-.012-.092-.003-.184.024-.273s.074-.169.136-.237a.72.72 0 0 1 .231-.171.73.73 0 0 1 .279-.069.74.74 0 0 1 .55.13.65.65 0 0 1 .25.47.62.62 0 0 1-.022.261c-.026.085-.07.163-.128.229-.135.142-.315.23-.51.251a.82.82 0 0 1-.55-.141zm1.21.5l.42 4.06-1.24.12-.42-4.05 1.24-.13zm1.03.83a1.71 1.71 0 0 1 .65-.8 2.24 2.24 0 0 1 1.156-.378c.413-.017.822.078 1.184.278a1.85 1.85 0 0 1 .79 1.06l-1.32.13c-.053-.112-.135-.208-.238-.277s-.223-.11-.346-.117a.7.7 0 0 0-.358.076.69.69 0 0 0-.268.248 1.52 1.52 0 0 0 .15 1.52.68.68 0 0 0 .265.173.69.69 0 0 0 .315.037c.146-.008.284-.066.392-.164s.178-.232.198-.376l1.33-.13a2 2 0 0 1-1.79 1.72c-.369.052-.746.004-1.09-.14-.321-.135-.596-.361-.79-.65a2.55 2.55 0 0 1-.231-2.21z"/><path d="M91.36 155a1.7 1.7 0 0 1 .57-.79 1.68 1.68 0 0 1 .88-.35 1.62 1.62 0 0 1 .77.1 1.18 1.18 0 0 1 .54.41l-.05-.58 1.24-.13.42 4.06-1.25.13v-.58c-.106.207-.265.383-.46.51a1.6 1.6 0 0 1-.74.26c-.32.035-.643-.024-.93-.17a1.75 1.75 0 0 1-.71-.67 2.3 2.3 0 0 1-.35-1.07 2.33 2.33 0 0 1 .07-1.13zm2.58.11a.89.89 0 0 0-.658-.198.89.89 0 0 0-.334.103.9.9 0 0 0-.269.225 1.19 1.19 0 0 0 .15 1.47c.09.077.195.136.309.172a.89.89 0 0 0 .351.038.84.84 0 0 0 .337-.106.83.83 0 0 0 .264-.234c.079-.108.136-.231.167-.362a1 1 0 0 0 .013-.398 1 1 0 0 0-.087-.405 1.01 1.01 0 0 0-.243-.335v.03zm4.84 1.2l.11 1.05-.63.07a1.56 1.56 0 0 1-1.09-.22 1.36 1.36 0 0 1-.352-.448c-.084-.172-.132-.36-.138-.552l-.17-1.62h-.49l-.11-1h.5l-.11-1 1.25-.13.1 1 .81-.08.11 1-.81.08.16 1.63a.38.38 0 0 0 .12.26.44.44 0 0 0 .3 0l.44-.04zm.41-3.7a.65.65 0 0 1-.178-.197c-.045-.078-.073-.164-.082-.253a.62.62 0 0 1 .022-.273.63.63 0 0 1 .138-.237.8.8 0 0 1 .51-.25.77.77 0 0 1 .55.14c.073.055.133.124.178.203a.65.65 0 0 1 .082.257c.012.09.004.182-.023.268a.61.61 0 0 1-.137.232c-.064.073-.142.133-.23.176a.74.74 0 0 1-.28.074.79.79 0 0 1-.55-.14zm1.22.5l.41 4-1.24.13-.42-4.06 1.25-.07zm2.07 3.68c-.331-.131-.617-.357-.82-.65a2.06 2.06 0 0 1-.39-1.07 2.2 2.2 0 0 1 .16-1.13 1.87 1.87 0 0 1 .68-.81c.298-.205.641-.332 1-.37.374-.044.752.008 1.1.15.338.13.63.356.84.65a2.29 2.29 0 0 1 .39 1.07 2.2 2.2 0 0 1-.17 1.13c-.144.333-.384.615-.69.81a2.28 2.28 0 0 1-1 .37c-.373.043-.752-.009-1.1-.15zm1.57-1.25a1.08 1.08 0 0 0 .17-.78 1.06 1.06 0 0 0-.32-.72.77.77 0 0 0-.292-.171.76.76 0 0 0-.338-.029.76.76 0 0 0-.321.096c-.099.055-.184.132-.249.224a1.06 1.06 0 0 0-.17.78 1.1 1.1 0 0 0 .32.72.75.75 0 0 0 .287.172c.107.035.221.044.333.028a.82.82 0 0 0 .324-.099.81.81 0 0 0 .256-.221zm5.54-2.96c.337.319.538.756.56 1.22l.24 2.37-1.23.13-.23-2.2a.88.88 0 0 0-.28-.61.74.74 0 0 0-.277-.149c-.101-.029-.208-.037-.313-.021-.106.004-.21.033-.303.083s-.175.121-.237.207a.89.89 0 0 0-.15.65l.23 2.2-1.24.13-.42-4.06 1.24-.13.06.54c.11-.197.268-.362.46-.48.217-.127.459-.205.71-.23.21-.031.425-.016.629.045a1.45 1.45 0 0 1 .551.305z"/></g><use xlink:href="#E" class="I"/><use xlink:href="#E" class="C"/><path d="M65.32 86.84L60 112.26c-.43 2.06.51 4 2.09 4.35l44.2 9.2c1.58.33 3.23-1.1 3.66-3.17l5.28-25.41a4.5 4.5 0 0 0 .08-1.45c-.005-.653-.218-1.287-.609-1.81a3.07 3.07 0 0 0-1.561-1.1L69 83.67a3.08 3.08 0 0 0-3.15 1.8 4.66 4.66 0 0 0-.53 1.37z" fill="#fff"/><path opacity=".1" d="M65.82 85.47l18.89 16.36c.912.805 2.017 1.358 3.208 1.605s2.425.18 3.582-.195l23.84-7.46c-.006-.653-.219-1.287-.609-1.81a3.07 3.07 0 0 0-1.561-1.1L69 83.67a3.08 3.08 0 0 0-3.18 1.8z" fill="#000"/><path d="M61.29 84.84a9.4 9.4 0 0 0 0-18.8 9.4 9.4 0 0 0 0 18.8z" fill="#49a09d"/><path d="M59.66 71.41a3.52 3.52 0 0 1 2.93-.442 3.52 3.52 0 0 1 2.23 1.952 5.88 5.88 0 0 1-.15 3.49 6 6 0 0 1-1.75 3 3.54 3.54 0 0 1-2.908.478A3.54 3.54 0 0 1 57.75 78a6.16 6.16 0 0 1 .16-3.52 6.06 6.06 0 0 1 1.75-3.07zm3.27 2.46a1.29 1.29 0 0 0-.906-.973 1.29 1.29 0 0 0-1.284.343 5.48 5.48 0 0 0-.81 1.76c-.139.451-.239.912-.3 1.38a1.82 1.82 0 0 0 .14 1 1.19 1.19 0 0 0 .78.59 1.18 1.18 0 0 0 1-.08 1.78 1.78 0 0 0 .64-.75 8.09 8.09 0 0 0 .49-1.33 5.3 5.3 0 0 0 .25-1.94z" fill="#fff"/></g></g><defs><clipPath id="A"><path fill="#fff" d="M0 0h210v210H0z"/></clipPath><clipPath id="B"><path fill="#fff" transform="translate(1)" d="M0 0h210v210H0z"/></clipPath><path id="C" d="M162.59 71.05s1.84 1.26-9.88 26.74l-18.47-5.11c2.39-7.44 3.68-12.07 4.36-28.49 2.734.183 5.451.564 8.13 1.14 2.848.576 5.651 1.351 8.39 2.32a81.38 81.38 0 0 1 7.47 3.4z"/><path id="D" d="M134.26 91.52L133 92.94c-.1.11 0 .28.23.34l19.37 5.36c.17 0 .33 0 .37-.1l.62-1.6c0-.12-.07-.25-.25-.3l-18.74-5.18c-.057-.022-.118-.029-.178-.018s-.116.038-.162.078z"/><path id="E" d="M63.77 74l57.46 11c3.1.6 5 4.33 4.25 8.3l-6.94 36.07c-.76 4-3.92 6.73-7 6.13l-19.89-3.83-11 9.62-6.66-13-19.89-3.83c-3.1-.6-5-4.33-4.25-8.3l7-36.07c.66-3.97 3.82-6.73 6.92-6.09z"/></defs></svg>