<svg xmlns="http://www.w3.org/2000/svg" width="41" height="70" fill="none"><g fill="#DFE3E8" clip-path="url(#a)"><path d="M39.837 24.863a1.788 1.788 0 0 0-.25-.175v-5.513a7.763 7.763 0 0 0-2.337-5.425 6.75 6.75 0 0 0-4.788-2.125h-5.837v-2.5a3.975 3.975 0 0 0-1.125-2.8A3.488 3.488 0 0 0 23 5.25H4.087A2.712 2.712 0 0 0 1.4 8.088v16.625a1.663 1.663 0 0 0-.688 1.362v2.363c-.01.537.181 1.06.538 1.462a1.75 1.75 0 0 0 1.25.538h1.05a5.5 5.5 0 0 0 4.862 4.287h.5a5.525 5.525 0 0 0 5.338-4.288h12.5a5.5 5.5 0 0 0 5 4.288h.487a5.513 5.513 0 0 0 5.363-4.313h1.412a1.44 1.44 0 0 0 1.4-1.474V26.1a1.764 1.764 0 0 0-.575-1.238Zm-13.2-11.4h5.825A5 5 0 0 1 35.912 15a5.888 5.888 0 0 1 1.75 4.15v5.225h-2.85a5.45 5.45 0 0 0-5.287 0h-2.9l.012-10.912Zm9.163 16.1c-.028.299-.095.593-.2.875a3.626 3.626 0 0 1-6.85 0 3.474 3.474 0 0 1-.2-1.525 2.92 2.92 0 0 1 0-.35 3.625 3.625 0 0 1 1.25-2.125l.237-.163a3.6 3.6 0 0 1 2.088-.688h.337a3.638 3.638 0 0 1 1.788.663c.258.174.49.385.687.625.401.476.669 1.05.775 1.663.076.335.106.68.088 1.024Zm-23.263 0c-.032.3-.103.593-.212.875a3.626 3.626 0 0 1-6.85 0 3.887 3.887 0 0 1-.2-1.525c.018-.119.043-.236.075-.35a3.563 3.563 0 0 1 1.25-2.125l.212-.188a3.6 3.6 0 0 1 2.088-.688h.35a3.55 3.55 0 0 1 1.75.688c.264.17.5.381.7.625.4.476.668 1.05.775 1.663.068.337.089.682.062 1.024Zm1-3.288H27.55a5.275 5.275 0 0 0-.8 2.288H14.375a5.389 5.389 0 0 0-.838-2.313v.025ZM3.275 8.087c0-.587.325-.962.812-.962H23c.427.028.829.215 1.125.525a2.076 2.076 0 0 1 .625 1.475V24.4h-13.2a5.6 5.6 0 0 0-2.15-.65 5.45 5.45 0 0 0-3.138.663H3.225l.05-16.326Zm-.75 20.35V26.25H4.25a5.275 5.275 0 0 0-.838 2.288h-.875a.187.187 0 0 1-.012-.1Zm35.95.125h-.838a5.237 5.237 0 0 0-.887-2.312h1.675l.05 2.313Z"/><path d="M8.912 27.813a1.4 1.4 0 0 0-1.25.75h2.5a1.425 1.425 0 0 0-1.25-.75ZM8.912 30.65c.248-.007.49-.08.7-.212H8.2a1.4 1.4 0 0 0 .712.212Z"/><path d="M8.2 30.437h1.413a1.425 1.425 0 0 0 .712-1.25 1.512 1.512 0 0 0-.188-.675h-2.5a1.375 1.375 0 0 0-.2.675 1.425 1.425 0 0 0 .763 1.25ZM32.175 27.813a1.4 1.4 0 0 0-1.25.75h2.5a1.413 1.413 0 0 0-1.25-.75ZM32.175 30.65a1.35 1.35 0 0 0 .7-.212h-1.4c.209.135.451.208.7.212Z"/><path d="M31.475 30.437h1.4a1.387 1.387 0 0 0 .712-1.25 1.361 1.361 0 0 0-.187-.675h-2.5a1.363 1.363 0 0 0 .015 1.41c.135.22.329.399.56.515ZM35.337 17.962A3.337 3.337 0 0 0 32 14.625h-3.6v4.837h6.937v-1.5Z"/></g><circle cx="20.5" cy="62" r="8" fill="#DFE3E8"/><defs><clipPath id="a"><path fill="#fff" d="M.5 0h40v40H.5z"/></clipPath></defs></svg>