<svg width="18" height="16" viewBox="0 0 18 16" fill="none" xmlns="http://www.w3.org/2000/svg">
<path d="M9.01641 15.2644C8.84134 15.2644 8.66626 15.2042 8.51307 15.0639L1.48815 8.60664C0.525228 7.74434 0 6.58123 0 5.33792C0 4.11466 0.525228 2.95156 1.48815 2.0692C2.42918 1.18685 3.69848 0.705566 5.05532 0.705566C6.41216 0.705566 7.68146 1.2069 8.62249 2.0692L8.99453 2.41011L9.34468 2.08926C10.3076 1.2069 11.5769 0.72562 12.9337 0.72562C14.2906 0.72562 15.5599 1.2069 16.5228 2.08926C18.4924 3.89407 18.4924 6.84193 16.5228 8.64674L9.49787 15.0839C9.36657 15.2042 9.19149 15.2644 9.01641 15.2644Z" fill="#DB284E"/>
</svg>
