<svg xmlns="http://www.w3.org/2000/svg" width="41" height="70" fill="none"><circle cx="19.5" cy="62" r="8" fill="#DFE3E8"/><g fill="#DFE3E8" clip-path="url(#a)"><path d="M32.35 8.4h-4.663v2.012h3.65V34.55H9.675V10.412h3.65V8.4H8.662a1 1 0 0 0-1.012 1v26.15a1.013 1.013 0 0 0 1.012 1.012h23.75a1 1 0 0 0 1-1.012V9.4a1 1 0 0 0-1.062-1Z"/><path d="M26.675 11.038h-12.35v-.625h-1v.625a1 1 0 0 0 1 1.012h12.35a1.012 1.012 0 0 0 1.012-1.012v-.625h-1.012v.625ZM14.325 7.263h3.363a2.825 2.825 0 0 1 5.637 0h3.35V8.4h1.012V7.263a1.013 1.013 0 0 0-1.012-1H24.25a3.825 3.825 0 0 0-7.375 0h-2.5a1 1 0 0 0-1 1V8.4h1l-.05-1.137Z"/><path d="M14.338 8.4h-1.013v2.025h1.013V8.4ZM27.687 8.4h-1.012v2.025h1.012V8.4Z"/><path d="M26.675 10.413h-12.35v.625h12.35v-.625ZM15.338 8.275h2.35a1 1 0 0 0 1-1.013 1.813 1.813 0 0 1 3.625 0 1.012 1.012 0 0 0 1.012 1.013h2.338V8.4h1.012V7.262h-3.35a2.825 2.825 0 0 0-5.637 0h-3.363V8.4h1.013v-.125Z"/><path d="M26.675 8.387h-1.012v1.638H15.338V8.387h-1.013v2.025h12.35V8.387ZM20.5 16.025a6.912 6.912 0 1 0-.025 13.824 6.912 6.912 0 0 0 .025-13.824Zm4.213 5.437-4.438 4.375a.975.975 0 0 1-.712.288c-.26.002-.51-.097-.7-.275l-2.575-2.5a1.012 1.012 0 0 1 0-1.425 1.025 1.025 0 0 1 1.437 0l1.838 1.825 3.75-3.688a1.012 1.012 0 0 1 1.425 0 1 1 0 0 1-.025 1.4Z"/></g><defs><clipPath id="a"><path fill="#fff" d="M.5 0h40v40H.5z"/></clipPath></defs></svg>