<svg width="28" height="30" fill="none" xmlns="http://www.w3.org/2000/svg"><path d="M18.502 25.641C18.365 28.071 16.29 30 13.75 30c-2.54 0-4.615-1.93-4.752-4.359h-7.41C.71 25.641 0 24.954 0 24.104v-1.54c0-1.698 1.422-3.077 3.174-3.077-.002 0 0-6.154 0-6.154 0-4.335 2.794-8.135 6.874-9.61v-.136c0-1.98 1.66-3.587 3.702-3.587 2.044 0 3.702 1.606 3.702 3.587v.136c4.08 1.475 6.875 5.276 6.875 9.61v6.153c1.748.001 3.173 1.38 3.173 3.078v1.54c0 .847-.712 1.537-1.588 1.537h-7.41Zm-2.12 0h-5.263c.133 1.296 1.26 2.308 2.631 2.308 1.371 0 2.498-1.012 2.631-2.308Zm9.003-2.051v-1.026c0-.564-.477-1.026-1.06-1.026-1.168 0-2.113-.916-2.113-2.052v-6.153c0-3.68-2.52-6.88-6.11-7.884l-.766-.214V3.587c0-.848-.71-1.536-1.586-1.536-.875 0-1.586.69-1.586 1.536v1.648l-.765.214c-3.591 1.004-6.11 4.203-6.11 7.884v6.153c0 1.133-.948 2.052-2.115 2.052-.584 0-1.059.461-1.059 1.026v1.026h23.27Z" fill="#AFAFAF"/></svg>