<svg width="46" height="46" viewBox="0 0 46 46" fill="none" xmlns="http://www.w3.org/2000/svg">
<g clip-path="url(#clip0_10229_212952)">
<path d="M34.7665 18.9452C34.7573 18.9347 34.7485 18.9241 34.7397 18.9132C34.5256 18.6496 34.2493 18.5977 34.1038 18.5902C33.9582 18.5825 33.6781 18.6062 33.4382 18.8464L20.1658 32.1393C19.671 32.6348 18.8803 32.6716 18.3416 32.2243L12.7557 27.5859C12.4269 27.3128 11.9522 27.3158 11.6271 27.5926C11.6229 27.5961 11.6189 27.5995 11.6146 27.603L0 37.2489V40.122C0 43.3632 2.63683 46 5.87804 46H40.122C43.3632 46 46 43.3631 46 40.122V31.9393L34.7665 18.9452Z" fill="#FBE9ED"/>
<path d="M14.4797 8.36914C12.3715 8.36914 10.6562 10.0843 10.6562 12.1925C10.6562 14.3007 12.3716 16.0159 14.4797 16.0159C16.588 16.0159 18.3031 14.3007 18.3031 12.1925C18.3031 10.0843 16.588 8.36914 14.4797 8.36914Z" fill="#FBE9ED"/>
<path d="M40.1221 0H5.87804C2.63701 0 0 2.63683 0 5.87804V33.7268L9.8778 25.5232C11.208 24.397 13.1448 24.3871 14.4865 25.5012L19.1216 29.3501L31.5207 16.9319C32.2375 16.2141 33.2305 15.8326 34.2425 15.8841C35.2478 15.9357 36.1889 16.4103 36.8281 17.187L45.9999 27.7961V5.87804C46.0001 2.63683 43.3631 0 40.1221 0ZM14.4805 18.7254C10.8782 18.7254 7.94759 15.7947 7.94759 12.1925C7.94759 8.59034 10.8784 5.65972 14.4805 5.65972C18.0828 5.65972 21.0133 8.59043 21.0133 12.1925C21.0133 15.7947 18.0828 18.7254 14.4805 18.7254Z" fill="#FBE9ED"/>
</g>
<defs>
<clipPath id="clip0_10229_212952">
<rect width="46" height="46" fill="white"/>
</clipPath>
</defs>
</svg>
