<svg xmlns="http://www.w3.org/2000/svg" width="19" height="18" fill="none" xmlns:v="https://vecta.io/nano"><path d="M16.778 9c0 3.897-3.113 7.056-6.953 7.056S2.871 12.896 2.871 9s3.113-7.055 6.953-7.055S16.778 5.103 16.778 9z" fill="#fbae17"/><path d="M9.827.748a8.04 8.04 0 0 1 5.434 2.132c1.488 1.37 2.422 3.251 2.621 5.28a8.31 8.31 0 0 1-1.547 5.7 8.09 8.09 0 0 1-4.915 3.174 8.01 8.01 0 0 1-5.744-.991c-1.728-1.041-3.012-2.697-3.605-4.645s-.451-4.05.397-5.898a8.16 8.16 0 0 1 4.194-4.104C7.663.967 8.739.746 9.827.748zm0-.748C4.93 0 .957 4.028.957 9s3.97 9 8.87 9 8.87-4.029 8.87-9-3.97-9-8.87-9zM6.824 6.345c-.529 0-.93.195-1.194.585-.233-.39-.943-.585-1.432-.585-1.022 0-1.806.873-1.806 1.737v1.673a.78.78 0 0 0 .058.295.77.77 0 0 0 .165.25.76.76 0 0 0 .247.167.75.75 0 0 0 .291.059h.274V8.24c0-.594.297-.919.753-.919.425 0 .674.285.674.772v1.661a.78.78 0 0 0 .058.295.77.77 0 0 0 .165.25.76.76 0 0 0 .246.167.75.75 0 0 0 .291.059h.274V8.24c0-.594.273-.919.746-.919.425 0 .673.285.673.772v1.661a.78.78 0 0 0 .058.295.77.77 0 0 0 .165.25.76.76 0 0 0 .246.167.75.75 0 0 0 .291.059h.274V8.021c0-1.016-.594-1.676-1.515-1.676zm5.664.714c-.365-.401-.873-.715-1.584-.715-.543 0-1.076.291-1.076.291h-.615c-.102.001-.2.042-.272.116s-.112.173-.112.277v4.661c.006-.016.009-.019.012-.021l.467-.285a.06.06 0 0 1 .064 0l.445.283c.01.013.011.017.011.021v-1.431c.108.11.713.31 1.256.31.519 0 1.06-.366 1.333-.643.384-.39.556-.892.556-1.474s-.114-.992-.486-1.393v.002zm-.597 1.6c-.037.195-.131.374-.27.513a.97.97 0 0 1-.724.291c-.293 0-.534-.096-.724-.289a1.01 1.01 0 0 1-.262-.511c-.015-.081-.023-.164-.023-.246 0-.304.095-.557.285-.75a.95.95 0 0 1 .724-.297.95.95 0 0 1 .724.297c.197.193.292.445.292.75 0 .081-.007.163-.022.243" fill="#333"/><path d="M9.814 11.965l-.445-.284c-.01-.006-.021-.009-.032-.009s-.022.003-.032.009l-.469.284c-.011.013-.012.017-.012.021v.521c.012.023.018.025.025.025l.443-.272c.01-.006.021-.009.032-.009s.022.003.032.009l.431.268c.017.003.021.002.025 0 .011-.013.012-.017.013-.021v-.523c-.005-.016-.008-.019-.011-.021" fill="#fff"/><g fill="#333"><path d="M16.73 9.261a.51.51 0 0 0-.592.057 1.05 1.05 0 0 1-.714.258 1.04 1.04 0 0 1-.77-.309 1.11 1.11 0 0 1-.231-.368c-.052-.137-.077-.283-.074-.43 0-.387.162-.707.423-.903a.99.99 0 0 1 .599-.194h.584c.079 0 .155-.025.219-.071l.566-.407c.006-.01.009-.022.009-.034s-.003-.024-.009-.034l-.565-.428c-.066-.049-.145-.076-.227-.075h-.518a2.48 2.48 0 0 0-.302.018 2 2 0 0 0-1.211.599c-.401.414-.601.919-.601 1.529s.2 1.114.601 1.529a2.04 2.04 0 0 0 1.515.618 2.07 2.07 0 0 0 1.382-.519.51.51 0 0 0 .137-.2c.029-.077.04-.159.032-.241a.52.52 0 0 0-.08-.229.51.51 0 0 0-.175-.167zM4.367 11.493v-.361h.094v.063h.004c.007-.02.02-.038.037-.05s.04-.019.062-.018.044.006.062.018.029.03.034.05h.004c.007-.021.021-.038.04-.05a.12.12 0 0 1 .068-.018.11.11 0 0 1 .044.007c.014.005.027.014.037.025s.019.027.025.042.008.032.007.049v.242h-.1v-.222a.05.05 0 0 0-.003-.024c-.003-.008-.007-.015-.013-.021s-.026-.015-.041-.015-.029.006-.04.017-.016.029-.015.046v.22h-.096v-.226c0-.008-.001-.015-.003-.023s-.006-.014-.012-.02-.021-.014-.033-.015-.025.002-.035.008-.016.014-.021.023-.008.023-.007.035v.216l-.097.001z"/><path d="M5.123 11.5c-.033.001-.065-.007-.094-.023s-.047-.037-.061-.064-.021-.064-.021-.098a.24.24 0 0 1 .021-.098c.013-.027.034-.05.06-.066s.059-.024.091-.023c.022 0 .045.004.066.011s.038.019.053.034.029.036.037.057.013.053.013.08v.027h-.3v-.062h.204c0-.013-.003-.026-.009-.038s-.015-.02-.026-.026-.024-.009-.037-.009-.028.003-.04.011-.021.016-.027.028-.01.024-.01.038v.059c0 .016.003.032.01.046s.016.023.028.03.028.011.043.011.021-.001.031-.004.017-.008.023-.014.012-.014.015-.023l.091.006c-.004.021-.014.041-.029.058a.14.14 0 0 1-.055.038c-.025.01-.051.014-.078.014"/><path d="M5.35 11.493v-.361h.094v.063h.004c.007-.02.02-.038.037-.05s.04-.019.062-.018.044.006.062.018.029.03.034.05h.004c.007-.021.021-.038.039-.05s.044-.019.068-.018c.015-.001.03.002.044.007s.027.014.037.025.019.027.024.042.007.032.006.049v.242h-.098v-.222c.001-.008 0-.016-.003-.024s-.007-.015-.012-.021-.011-.009-.018-.011-.014-.004-.021-.004-.016.001-.023.004-.014.007-.019.013c-.01.013-.016.029-.015.046v.22h-.094v-.226c0-.008-.001-.015-.003-.023s-.006-.014-.012-.02-.021-.014-.033-.015-.025.002-.035.008-.016.014-.021.023-.008.023-.008.035v.216l-.1.001z"/><path d="M5.945 11.492v-.481h.099v.183h.003c.005-.011.011-.021.019-.03s.02-.019.033-.025.033-.011.05-.01c.025 0 .05.007.072.02s.041.036.053.062c.014.033.021.068.02.103s-.005.07-.019.102c-.011.026-.029.047-.052.063s-.048.022-.074.021c-.017.001-.033-.003-.049-.009s-.024-.014-.033-.024-.014-.019-.019-.029h-.002v.058l-.099-.002zm.096-.18a.16.16 0 0 0 .009.056.08.08 0 0 0 .025.038c.012.01.027.015.042.014s.029-.004.041-.014.021-.023.025-.038.009-.037.009-.056-.003-.037-.009-.055-.013-.028-.025-.038-.026-.014-.041-.013-.029.004-.04.013-.021.023-.025.038-.009.037-.009.056"/><path d="M6.52 11.5c-.033.001-.065-.007-.094-.023s-.047-.037-.061-.064-.021-.064-.021-.098a.24.24 0 0 1 .021-.098c.013-.027.034-.05.06-.066s.059-.024.091-.023c.022 0 .045.004.066.011a.14.14 0 0 1 .053.034c.016.016.029.036.037.057s.013.053.013.08v.027h-.3v-.062h.207c0-.013-.003-.026-.009-.038s-.015-.02-.025-.026-.024-.009-.037-.009-.028.003-.04.011-.021.016-.027.028-.01.024-.01.038v.059c0 .016.003.032.01.046s.016.023.028.03.028.011.043.011.02-.001.03-.005.017-.008.023-.014.012-.014.015-.023l.091.006c-.004.022-.014.042-.029.058a.14.14 0 0 1-.055.038.2.2 0 0 1-.078.014"/><path d="M6.746 11.493v-.361h.095v.063h.004c.005-.02.017-.038.033-.051s.034-.018.053-.017h.016l.015.003v.088c-.027-.004-.034-.004-.042-.003-.014 0-.027.003-.039.009s-.021.016-.027.028-.01.024-.01.038v.204h-.098z"/><path d="M7.309 11.235l-.09.006c-.001-.008-.005-.015-.01-.021s-.012-.012-.02-.015-.019-.006-.029-.006-.026.003-.037.01c-.014.015-.016.021-.016.026.004.016.007.019.01.022.01.008.022.012.035.014l.064.013c.028.004.055.016.077.035.008.008.015.018.02.029s.006.023.006.034c0 .023-.007.044-.02.062s-.034.033-.056.042-.054.016-.082.015a.19.19 0 0 1-.111-.03c-.013-.009-.025-.021-.033-.035s-.014-.03-.016-.046l.097-.005c.001.007.004.013.007.019s.009.011.014.014c.013.008.028.012.043.011s.029-.003.042-.01c.014-.016.016-.021.016-.026-.005-.016-.008-.02-.011-.022-.01-.007-.022-.012-.035-.013l-.062-.012c-.029-.004-.056-.018-.077-.038a.09.09 0 0 1-.019-.03c-.004-.011-.006-.024-.006-.036-.001-.021.006-.043.019-.06s.032-.03.052-.038.053-.014.08-.014c.037-.002.074.008.106.029.013.009.023.021.031.034s.013.029.014.044"/><path d="M7.476 11.284v.209h-.098v-.481h.096v.183h.004c.008-.02.021-.038.039-.05s.043-.019.067-.018.045.005.065.016.033.027.043.047.016.048.015.073v.23h-.098v-.21c.001-.019-.005-.037-.017-.052-.006-.006-.013-.011-.021-.015s-.017-.005-.025-.004-.026.003-.037.009-.019.015-.024.026-.009.025-.009.038"/><path d="M7.836 11.086c-.014 0-.027-.005-.037-.015-.014-.022-.016-.029-.016-.036.007-.026.011-.031.016-.035.01-.009.023-.014.037-.014s.027.005.037.014c.014.022.016.029.016.035-.007.026-.011.031-.016.036s-.011.009-.017.011-.013.004-.02.004zm-.05.046h.099v.361h-.099v-.361z"/><path d="M7.963 11.628v-.496h.097v.063h.004c.005-.011.011-.021.019-.03s.02-.019.032-.025a.11.11 0 0 1 .05-.01c.025 0 .05.007.072.02s.041.036.053.062c.014.033.021.068.02.103s-.006.07-.019.102c-.011.025-.029.047-.052.063s-.048.022-.074.021c-.017.001-.033-.003-.049-.009a.1.1 0 0 1-.033-.024c-.008-.009-.015-.019-.02-.029H8.06v.193l-.098-.002zm.096-.316a.16.16 0 0 0 .009.056c.005.015.014.028.026.038s.026.014.04.013a.07.07 0 0 0 .041-.014c.012-.01.02-.023.025-.038a.16.16 0 0 0 .009-.056c0-.019-.002-.037-.009-.055s-.013-.028-.025-.038-.026-.014-.041-.013-.029.004-.04.013-.021.023-.026.038-.009.037-.009.056zm2.24.316v-.496h.097v.063h.004c.005-.011.011-.021.019-.03s.02-.019.032-.025.033-.011.05-.01c.025 0 .05.007.072.02s.041.036.052.062c.014.033.021.068.02.103s-.005.07-.019.102c-.011.025-.029.047-.052.063a.13.13 0 0 1-.074.021c-.017.001-.034-.003-.049-.009a.1.1 0 0 1-.033-.024c-.008-.009-.014-.019-.019-.029h-.003v.193l-.098-.002zm.097-.316a.16.16 0 0 0 .009.056.09.09 0 0 0 .025.038c.011.01.026.014.041.013s.029-.004.041-.014.021-.023.025-.038.009-.037.009-.056-.003-.037-.008-.055-.014-.028-.025-.038-.026-.014-.041-.014-.029.004-.041.013-.021.023-.025.038-.009.037-.009.056z"/><path d="M10.872 11.5a.18.18 0 0 1-.093-.023.16.16 0 0 1-.06-.066c-.014-.031-.021-.064-.021-.098s.007-.067.021-.097.035-.05.06-.065.06-.023.093-.023.064.008.093.023.047.038.06.065a.23.23 0 0 1 0 .195c-.014.027-.035.05-.06.066s-.061.024-.093.023h.001zm-.001-.078c.015 0 .03-.005.041-.014s.02-.023.025-.038c.011-.037.011-.076 0-.113-.005-.014-.014-.027-.025-.038s-.026-.014-.041-.014-.029.005-.041.014-.02.023-.025.038c-.011.037-.011.076 0 .113.005.015.014.028.025.038s.026.015.041.014z"/><path d="M11.162 11.086c-.014 0-.027-.005-.037-.015-.014-.022-.016-.029-.016-.036.007-.026.011-.031.016-.036.01-.01.023-.015.037-.015.007 0 .014.001.02.004s.012.007.017.011c.015.022.016.029.016.036s-.001.013-.004.02c-.017.021-.023.025-.029.027s-.013.004-.02.004zm-.05.046h.099v.361h-.099v-.361z"/><path d="M11.385 11.284v.209h-.098v-.361h.094v.063h.004c.008-.02.021-.038.04-.05s.043-.019.067-.018.045.005.065.016.033.027.043.047.016.047.016.072v.23h-.099v-.21c.001-.019-.005-.037-.017-.052-.006-.006-.013-.011-.021-.015s-.017-.005-.025-.004-.024.003-.035.009a.06.06 0 0 0-.023.026c-.006.012-.009.025-.009.038"/><path d="M11.882 11.207h-.214v-.075h.214v.075zm-.165-.162h.099v.337c0 .007.001.015.004.021.017.013.023.014.029.014l.025-.002.015.075-.019.005c-.011.002-.022.004-.033.004-.021.001-.042-.002-.062-.009s-.032-.019-.042-.035-.015-.038-.014-.058l-.002-.351z"/><path d="M12.234 11.235l-.09.006c-.002-.008-.005-.015-.01-.021s-.012-.012-.02-.015-.019-.006-.029-.006-.026.003-.037.01c-.014.015-.016.021-.016.026.005.016.007.019.01.022.01.008.022.012.035.014l.064.013c.028.004.055.016.078.035.008.008.015.018.019.029s.006.023.006.034c0 .023-.007.044-.02.062s-.034.033-.056.042-.054.016-.082.015a.19.19 0 0 1-.111-.03c-.013-.009-.025-.021-.033-.035s-.014-.03-.016-.046l.097-.005c.001.007.004.013.007.019s.009.011.014.014c.013.008.028.012.043.011s.029-.003.042-.01c.014-.016.016-.021.016-.026-.005-.016-.008-.02-.011-.022-.01-.007-.022-.012-.035-.014l-.062-.012c-.029-.004-.056-.018-.077-.038-.008-.009-.015-.019-.019-.03s-.006-.024-.006-.036c-.001-.021.006-.043.019-.06s.032-.03.052-.038.053-.014.08-.014c.037-.002.075.008.106.029.012.009.023.021.031.034s.013.029.014.044"/><path d="M12.569 11.405c-.018 0-.036-.005-.051-.014s-.028-.022-.037-.038-.014-.034-.014-.052.005-.036.014-.052a.11.11 0 0 1 .037-.038c.015-.009.033-.014.051-.014s.036.005.051.014.028.022.037.038.014.034.014.052-.005.036-.014.052-.022.029-.037.038a.1.1 0 0 1-.051.014"/><path d="M13.071 11.5c-.033.001-.065-.007-.094-.024s-.047-.038-.06-.066a.22.22 0 0 1-.021-.097c-.001-.034.007-.067.021-.098s.034-.05.06-.066a.18.18 0 0 1 .093-.023c.028-.001.056.005.081.017s.042.027.055.048.022.047.023.073h-.093c-.002-.016-.009-.031-.02-.043a.06.06 0 0 0-.044-.017c-.014 0-.028.004-.04.012a.08.08 0 0 0-.027.038c-.007.018-.01.038-.009.058s.003.04.009.059.014.028.026.038.026.013.04.013.021-.002.03-.007a.06.06 0 0 0 .023-.021c.006-.01.01-.021.011-.032h.093c-.001.026-.009.051-.022.073s-.032.038-.054.049-.054.018-.082.018"/><path d="M13.454 11.5a.18.18 0 0 1-.093-.023c-.026-.015-.047-.038-.06-.066a.23.23 0 0 1 0-.195c.013-.027.034-.05.06-.065s.06-.023.093-.023.064.008.093.023.047.038.061.065.021.064.021.098-.007.067-.021.097a.16.16 0 0 1-.061.066c-.028.016-.061.024-.093.023h0zm0-.078a.06.06 0 0 0 .041-.014c.011-.01.02-.023.025-.038.012-.037.012-.076 0-.113-.005-.015-.013-.028-.025-.038a.06.06 0 0 0-.041-.014c-.015 0-.03.005-.042.014s-.02.023-.025.038c-.011.037-.011.076 0 .113.005.015.014.028.025.038s.026.015.042.014z"/><path d="M13.921 11.339v-.207h.099v.361h-.095v-.066h-.004c-.008.021-.021.039-.04.051a.13.13 0 0 1-.131.003c-.018-.011-.033-.027-.042-.047s-.016-.048-.016-.073v-.23h.099v.213c-.001.018.005.036.017.05.006.006.013.011.021.014s.016.005.024.004.023-.003.033-.008.019-.014.025-.025.01-.026.01-.041"/><path d="M14.098 11.628v-.496h.097v.063h.004c.005-.011.011-.021.019-.03s.02-.019.032-.025.033-.011.05-.01c.025 0 .05.007.072.02s.041.036.052.062c.014.033.021.068.02.103s-.005.07-.019.102c-.011.025-.029.047-.052.063a.13.13 0 0 1-.074.021c-.017.001-.034-.003-.049-.009s-.023-.014-.033-.024-.014-.019-.019-.029h-.003v.193l-.098-.002zm.096-.316a.16.16 0 0 0 .009.056c.005.015.014.028.025.038s.026.014.041.013.029-.004.04-.014.021-.023.026-.038a.17.17 0 0 0 .008-.056c0-.019-.003-.037-.008-.055s-.013-.028-.025-.038-.026-.014-.041-.014-.029.004-.041.013-.02.023-.025.038-.009.037-.009.056z"/><path d="M14.671 11.5a.18.18 0 0 1-.093-.023.16.16 0 0 1-.06-.066c-.014-.031-.021-.064-.021-.097s.007-.067.021-.098.035-.05.06-.065.06-.023.093-.023.064.008.093.023.047.038.061.065.021.064.021.098-.007.067-.021.097-.035.05-.061.066-.061.024-.093.023h.001zm-.001-.078c.015.001.03-.005.041-.014s.02-.023.025-.038c.012-.037.012-.076 0-.113a.09.09 0 0 0-.025-.038c-.012-.01-.026-.015-.041-.014s-.03.005-.041.014-.02.023-.025.038c-.012.037-.012.076 0 .113.005.015.014.028.025.038s.026.015.041.014z"/><path d="M15.008 11.284v.209h-.098v-.361h.094v.063h.004c.008-.02.022-.038.04-.05s.043-.019.067-.018.045.005.065.016.033.027.043.047a.16.16 0 0 1 .015.072v.23h-.099v-.21c.001-.009 0-.019-.003-.028s-.007-.017-.013-.024-.013-.011-.021-.015-.017-.005-.025-.004a.07.07 0 0 0-.035.009c-.01.006-.019.015-.024.026s-.009.025-.009.038"/><path d="M15.61 11.235l-.09.006c-.002-.008-.005-.015-.01-.021s-.012-.012-.02-.015-.019-.006-.03-.006-.026.003-.037.01c-.014.015-.016.021-.016.026.004.016.007.019.01.022.01.007.022.012.035.014l.065.013a.16.16 0 0 1 .077.035c.008.008.015.018.02.029s.006.022.006.034c0 .023-.007.044-.021.062s-.034.033-.056.042-.054.015-.082.015c-.039.002-.078-.009-.111-.03-.013-.009-.025-.021-.033-.035s-.014-.03-.016-.046l.097-.005c.001.007.004.013.007.019.027.021.041.025.056.025s.029-.004.042-.011c.014-.015.016-.021.016-.026-.005-.016-.008-.02-.011-.022-.01-.007-.022-.012-.034-.014l-.062-.012c-.029-.004-.056-.018-.078-.038-.008-.009-.015-.019-.019-.031s-.006-.024-.006-.036c0-.021.006-.043.019-.06s.032-.03.053-.038.052-.014.079-.014c.037-.002.075.008.106.029a.11.11 0 0 1 .031.034c.008.014.013.029.014.044"/></g></svg>