<svg width="21" height="21" viewBox="0 0 21 21" fill="none" xmlns="http://www.w3.org/2000/svg">
<path d="M11.5604 0.976243C10.559 0.575627 9.44181 0.575627 8.44039 0.976243L1.53199 3.74224C1.19828 3.8757 0.912166 4.10601 0.710489 4.40349C0.508812 4.70098 0.40081 5.05204 0.400391 5.41144V14.5866C0.400331 14.9465 0.508109 15.298 0.709817 15.596C0.911524 15.894 1.1979 16.1246 1.53199 16.2582L8.44039 19.0218C8.965 19.2319 9.52661 19.3339 10.0916 19.3218C9.7995 18.9274 9.55237 18.5015 9.35479 18.0522C9.19511 18.0171 9.03859 17.969 8.88679 17.9082L1.97719 15.1446C1.86578 15.1 1.77031 15.023 1.70314 14.9235C1.63597 14.824 1.60018 14.7067 1.60039 14.5866V5.48584L9.40039 8.60584V12.6462C9.70114 11.9929 10.1065 11.393 10.6004 10.8702V8.60464L18.4004 5.48464V9.51784C18.83 9.73744 19.232 10.0026 19.6004 10.3074V5.41144C19.6005 5.05163 19.4927 4.70005 19.291 4.40209C19.0893 4.10413 18.8029 3.87345 18.4688 3.73984L11.5604 0.976243ZM8.88679 2.09224C9.60204 1.80613 10.3999 1.80613 11.1152 2.09224L17.3852 4.60024L14.6504 5.69224L7.26559 2.74024L8.88559 2.09224H8.88679ZM5.65039 3.38464L13.0352 6.33784L10.0004 7.55344L2.61559 4.59904L5.65039 3.38584V3.38464ZM15.4004 20.799C16.8326 20.799 18.2061 20.2301 19.2188 19.2174C20.2315 18.2047 20.8004 16.8312 20.8004 15.399C20.8004 13.9669 20.2315 12.5934 19.2188 11.5807C18.2061 10.568 16.8326 9.99904 15.4004 9.99904C13.9682 9.99904 12.5947 10.568 11.582 11.5807C10.5693 12.5934 10.0004 13.9669 10.0004 15.399C10.0004 16.8312 10.5693 18.2047 11.582 19.2174C12.5947 20.2301 13.9682 20.799 15.4004 20.799ZM14.2004 16.3506L17.3756 13.1754C17.4881 13.0628 17.6407 12.9994 17.8 12.9993C17.8788 12.9993 17.9569 13.0147 18.0297 13.0448C18.1026 13.075 18.1688 13.1191 18.2246 13.1748C18.2804 13.2305 18.3246 13.2967 18.3549 13.3695C18.3851 13.4423 18.4007 13.5204 18.4007 13.5992C18.4008 13.6781 18.3853 13.7561 18.3552 13.829C18.3251 13.9018 18.2809 13.9681 18.2252 14.0238L14.6252 17.6238C14.5695 17.6797 14.5032 17.724 14.4303 17.7543C14.3575 17.7845 14.2793 17.8001 14.2004 17.8001C14.1215 17.8001 14.0433 17.7845 13.9704 17.7543C13.8975 17.724 13.8313 17.6797 13.7756 17.6238L12.5756 16.4238C12.4631 16.3112 12.3999 16.1584 12.4001 15.9992C12.4002 15.84 12.4635 15.6873 12.5762 15.5748C12.6889 15.4623 12.8416 15.3992 13.0008 15.3993C13.16 15.3994 13.3127 15.4628 13.4252 15.5754L14.2004 16.3506Z" fill="#49A09D"/>
</svg>
