<svg xmlns="http://www.w3.org/2000/svg" width="22" height="16" fill="none" stroke="#afafaf" stroke-width="2" stroke-linejoin="round" xmlns:v="https://vecta.io/nano"><path d="M1.833 3.417c0-.486.193-.953.537-1.296s.81-.537 1.296-.537h14.667c.486 0 .953.193 1.296.537s.537.81.537 1.296v9.167c0 .486-.193.953-.537 1.296s-.81.537-1.296.537H3.667c-.486 0-.953-.193-1.296-.537s-.537-.81-.537-1.296V3.417z"/><path d="M11 10.75a2.75 2.75 0 1 0 0-5.5 2.75 2.75 0 1 0 0 5.5z"/><path d="M1.833 5.25c.972 0 1.905-.386 2.593-1.074S5.5 2.556 5.5 1.583m11 12.834c0-.973.386-1.905 1.074-2.593s1.62-1.074 2.593-1.074" stroke-linecap="round"/></svg>