<svg width="32" height="32" viewBox="0 0 32 32" fill="none" xmlns="http://www.w3.org/2000/svg">
<path d="M28.8571 5H3.14286C2.57454 5 2.02949 5.23178 1.62763 5.64437C1.22576 6.05694 1 6.61652 1 7.2V24.8C1 25.3835 1.22576 25.9431 1.62763 26.3556C2.02949 26.7682 2.57454 27 3.14286 27H28.8571C29.4255 27 29.9705 26.7682 30.3724 26.3556C30.7742 25.9431 31 25.3835 31 24.8V7.2C31 6.61652 30.7742 6.05694 30.3724 5.64437C29.9705 5.23178 29.4255 5 28.8571 5ZM26.5 7.2L16 14.658L5.5 7.2H26.5ZM3.14286 24.8V8.201L15.3893 16.902C15.5686 17.0297 15.7817 17.0982 16 17.0982C16.2183 17.0982 16.4314 17.0297 16.6107 16.902L28.8571 8.201V24.8H3.14286Z" fill="#DB284E"/>
</svg>
