<svg width="24" height="24" viewBox="0 0 24 24" fill="none" xmlns="http://www.w3.org/2000/svg">
<rect x="2" y="2" width="20" height="20" rx="2" fill="#AFAFAF"/>
<path d="M16.2206 7.0681C16.428 6.87068 16.7039 6.76154 16.9902 6.7637C17.2766 6.76587 17.5508 6.87917 17.7552 7.07971C17.9595 7.28024 18.078 7.55232 18.0856 7.83853C18.0931 8.12475 17.9892 8.40271 17.7957 8.61376L11.9222 15.9593C11.8212 16.0681 11.6993 16.1554 11.5638 16.216C11.4283 16.2766 11.282 16.3093 11.1336 16.312C10.9852 16.3147 10.8377 16.2875 10.7001 16.232C10.5624 16.1765 10.4374 16.0937 10.3324 15.9888L6.43733 12.0937C6.32886 11.9926 6.24186 11.8707 6.18151 11.7353C6.12117 11.5999 6.08872 11.4537 6.08611 11.3055C6.08349 11.1572 6.11076 11.01 6.16629 10.8725C6.22182 10.735 6.30447 10.6101 6.4093 10.5053C6.51414 10.4005 6.63902 10.3178 6.7765 10.2623C6.91397 10.2068 7.06122 10.1795 7.20946 10.1821C7.3577 10.1847 7.50389 10.2172 7.63932 10.2775C7.77475 10.3379 7.89664 10.4249 7.99771 10.5333L11.0802 13.6143L16.1927 7.10048C16.2019 7.08915 16.2117 7.07834 16.2221 7.0681H16.2206Z" fill="white"/>
</svg>
