<svg width="18" height="15" viewBox="0 0 18 15" fill="none" xmlns="http://www.w3.org/2000/svg">
<path d="M8.51307 14.7934C8.66626 14.938 8.84134 15 9.01641 15C9.19149 15 9.36657 14.938 9.49787 14.814L16.5228 8.18182C18.4924 6.32231 18.4924 3.28512 16.5228 1.42562C15.5599 0.516529 14.2906 0.0206612 12.9337 0.0206612C11.5769 0.0206612 10.3076 0.516529 9.34468 1.42562L8.99453 1.7562L8.62249 1.40496C7.68146 0.516529 6.41216 0 5.05532 0C3.69848 0 2.42918 0.495868 1.48815 1.40496C0.525228 2.31405 0 3.5124 0 4.77273C0 6.05372 0.525228 7.25207 1.48815 8.1405L8.51307 14.7934ZM2.45106 2.31405C3.12948 1.65289 4.07052 1.30165 5.05532 1.30165C6.04012 1.30165 6.98115 1.67355 7.68146 2.33471L8.53495 3.1405C8.66626 3.26446 8.84134 3.32645 9.01641 3.32645C9.19149 3.32645 9.36657 3.26446 9.49787 3.1405L10.3295 2.35537C11.0298 1.69421 11.9489 1.32231 12.9556 1.32231C13.9404 1.32231 14.8596 1.69421 15.5599 2.33471C17.0043 3.69835 17.0043 5.90909 15.5599 7.27273L8.99453 13.4504L2.42918 7.25207C1.72888 6.59091 1.33495 5.72314 1.33495 4.77273C1.35684 3.84297 1.75076 2.97521 2.45106 2.31405Z" fill="#919EAB"/>
</svg>
