<svg width="14" height="14" viewBox="0 0 14 14" fill="none" xmlns="http://www.w3.org/2000/svg">
<path d="M6.9987 0.332031C5.68016 0.332031 4.39123 0.723024 3.2949 1.45557C2.19857 2.18811 1.34409 3.2293 0.839504 4.44747C0.33492 5.66565 0.202898 7.00609 0.460132 8.2993C0.717367 9.59251 1.35231 10.7804 2.28466 11.7127C3.21701 12.6451 4.40489 13.28 5.6981 13.5373C6.99131 13.7945 8.33175 13.6625 9.54992 13.1579C10.7681 12.6533 11.8093 11.7988 12.5418 10.7025C13.2744 9.60617 13.6654 8.31724 13.6654 6.9987C13.6654 6.12322 13.4929 5.25631 13.1579 4.44747C12.8229 3.63864 12.3318 2.90371 11.7127 2.28465C11.0937 1.6656 10.3588 1.17453 9.54992 0.839501C8.74109 0.50447 7.87418 0.332031 6.9987 0.332031ZM9.66537 7.66536H6.9987C6.82189 7.66536 6.65232 7.59513 6.5273 7.4701C6.40227 7.34508 6.33203 7.17551 6.33203 6.9987V4.33203C6.33203 4.15522 6.40227 3.98565 6.5273 3.86063C6.65232 3.7356 6.82189 3.66536 6.9987 3.66536C7.17551 3.66536 7.34508 3.7356 7.47011 3.86063C7.59513 3.98565 7.66537 4.15522 7.66537 4.33203V6.33203H9.66537C9.84218 6.33203 10.0117 6.40227 10.1368 6.52729C10.2618 6.65232 10.332 6.82189 10.332 6.9987C10.332 7.17551 10.2618 7.34508 10.1368 7.4701C10.0117 7.59513 9.84218 7.66536 9.66537 7.66536Z" fill="#323942"/>
</svg>
