<svg xmlns="http://www.w3.org/2000/svg" width="217" height="199" fill="none" xmlns:v="https://vecta.io/nano"><style><![CDATA[.B{fill-rule:evenodd}.C{fill:#f3bdca}.D{fill:#ff792f}.E{fill:#eb92a7}]]></style><g clip-path="url(#F)"><path d="M107.304 10.637c-12.512.066-24.88 2.675-36.353 7.668S49.14 30.572 40.564 39.684 25.356 59.556 21.068 71.311s-6.142 24.258-5.449 36.751a92.31 92.31 0 0 0 9.481 35.923 92.3 92.3 0 0 0 22.876 29.276c9.53 8.108 20.61 14.193 32.565 17.887s24.536 4.918 36.979 3.599c5.372-.585 10.682-1.635 15.872-3.139 6.708-1.945 13.173-4.648 19.268-8.059a93.25 93.25 0 0 0 12.381-8.304c15.033-11.927 25.974-28.243 31.303-46.677s4.778-38.072-1.573-56.18a92.3 92.3 0 0 0-87.465-61.751z" fill="#fceff2"/><path d="M164.815 47.129L116.483 35.24a1.38 1.38 0 0 0-1.67 1.011l-4.864 19.771a1.38 1.38 0 0 0 1.011 1.67l48.332 11.889a1.38 1.38 0 0 0 1.67-1.011l4.864-19.771a1.38 1.38 0 0 0-1.011-1.67z" fill="#d1e7e6"/><g fill="#1b8884"><path d="M159.638 70.284a2.51 2.51 0 0 1-.495 0L110.831 58.39c-.525-.131-.978-.464-1.258-.928a2.04 2.04 0 0 1-.237-1.545l4.843-19.854a2.03 2.03 0 0 1 .921-1.258 2.03 2.03 0 0 1 .746-.272c.265-.041.534-.029.794.035l48.312 11.894c.26.062.505.175.72.333a1.99 1.99 0 0 1 .534.587 2.05 2.05 0 0 1 .277.752c.041.267.029.539-.035.801l-4.797 19.796a2 2 0 0 1-.333.72c-.158.215-.358.397-.587.534a2.05 2.05 0 0 1-1.093.299zm-43.481-34.417c-.159 0-.313.054-.438.152a.71.71 0 0 0-.252.389l-4.866 19.774a.71.71 0 0 0-.011.279c.014.093.047.182.096.262s.114.15.19.205.163.095.254.116l48.312 11.882a.69.69 0 0 0 .541-.081.68.68 0 0 0 .206-.186.69.69 0 0 0 .116-.251l4.866-19.774c.043-.184.015-.378-.081-.541-.103-.161-.263-.276-.448-.322L116.33 35.878l-.173-.011z"/><path d="M113.822 40.319a5.57 5.57 0 0 0 4.21-.649c1.262-.766 2.168-2.001 2.519-3.435l-5.406-1.323-1.323 5.406zm50.782 12.63a5.57 5.57 0 0 1-3.694-6.951l5.322 1.628-1.628 5.322zm-49.574 5.74a5.56 5.56 0 0 0 .099-2.168 5.55 5.55 0 0 0-4.171-4.561l-1.323 5.395 5.395 1.334zm22.88 2.967a9.25 9.25 0 0 0 9.249-9.248 9.25 9.25 0 0 0-9.249-9.248 9.25 9.25 0 0 0-9.248 9.248 9.25 9.25 0 0 0 9.248 9.248z"/></g><g fill="#d1e7e6"><path d="M138.221 49.176a1.59 1.59 0 0 1 .259.63c.039.226.029.459-.029.681-.032.135-.079.266-.138.391a2.39 2.39 0 0 1-.84 1.012c-.411.268-.89.412-1.381.414l.415 2.807-1.772-.437-.31-2.657-.38-.092-1.035 2.301-1.565-.391 2.726-6.166 2.635.644a2.43 2.43 0 0 1 1.415.863zm-1.461 1.15c.025-.085.032-.175.018-.262a.59.59 0 0 0-.099-.244c-.128-.162-.313-.27-.518-.299l-.966-.207-.69 1.553.978.242a.96.96 0 0 0 .684-.06c.213-.104.378-.284.466-.503l.127-.219zm4.98.793a2.3 2.3 0 0 1 1.035 0c.241.059.468.168.666.318a1.82 1.82 0 0 1 .484.556c.25.491.304 1.059.15 1.587l-.207.61a3.74 3.74 0 0 1-.886 1.254 3.04 3.04 0 0 1-1.15.69c-.418.115-.859.115-1.277 0a1.71 1.71 0 0 1-.851-.437 1.4 1.4 0 0 1-.403-.702l-1.334 3.025-1.565-.391 3.187-7.235 1.576.38-.311.702a2.3 2.3 0 0 1 .886-.357zm.69 2.427a.98.98 0 0 0-.081-.782.96.96 0 0 0-.261-.275c-.105-.073-.223-.124-.348-.151-.316-.072-.647-.027-.932.127a1.66 1.66 0 0 0-.725.805 2.26 2.26 0 0 0-.103.299c-.041.127-.054.261-.041.394a.95.95 0 0 0 .121.377.93.93 0 0 0 .256.274.92.92 0 0 0 .342.151 1.37 1.37 0 0 0 .944-.138 1.57 1.57 0 0 0 .724-.805 2.14 2.14 0 0 0 .104-.276z"/></g><path d="M56.153 161.939c8.526 0 15.438-6.649 15.438-14.852s-6.912-14.853-15.438-14.853-15.438 6.65-15.438 14.853 6.912 14.852 15.438 14.852z" class="E"/><path d="M71.602 161.938c4.263 0 7.719-3.324 7.719-7.426s-3.456-7.426-7.719-7.426-7.719 3.325-7.719 7.426 3.456 7.426 7.719 7.426z" fill="#a0e8cb"/><g class="E"><path d="M40.714 161.939c5.24 0 9.488-4.085 9.488-9.125s-4.248-9.125-9.488-9.125-9.488 4.086-9.488 9.125 4.248 9.125 9.488 9.125z"/><path d="M98.498 163.11H13.822s33.617-13.306 84.676 0z"/></g><g class="C"><path d="M179.413 78.739c6.068 0 10.987-4.374 10.987-9.769s-4.919-9.769-10.987-9.769-10.987 4.374-10.987 9.769 4.919 9.769 10.987 9.769z"/><path d="M168.425 78.74c3.034 0 5.494-2.187 5.494-4.885s-2.46-4.884-5.494-4.884-5.493 2.187-5.493 4.884 2.459 4.885 5.493 4.885zm21.986-.012c3.726 0 6.747-2.685 6.747-5.997s-3.021-5.997-6.747-5.997-6.747 2.685-6.747 5.997 3.021 5.997 6.747 5.997z"/><path d="M148.371 80.133h54.654s-21.693-10.765-54.654 0zM44.639 48.379c6.793 0 12.299-4.888 12.299-10.917s-5.506-10.917-12.299-10.917S32.34 31.433 32.34 37.462s5.507 10.917 12.299 10.917z"/><path d="M56.925 48.379c3.396 0 6.149-2.444 6.149-5.458s-2.753-5.458-6.149-5.458-6.15 2.444-6.15 5.458 2.753 5.458 6.15 5.458zm-24.587.011c4.173 0 7.555-3.005 7.555-6.712s-3.383-6.712-7.555-6.712-7.555 3.005-7.555 6.712 3.383 6.712 7.555 6.712z"/><path d="M78.35 49.233H10.928s26.765-9.792 67.422 0z"/></g><path d="M170.596 53.255l-31.96 9.297a1.34 1.34 0 0 0-.911 1.658l5.021 17.258c.206.709.948 1.117 1.658.911l31.96-9.297c.709-.206 1.117-.949.91-1.658l-5.02-17.258a1.34 1.34 0 0 0-1.658-.911z" fill="#ffb769"/><path d="M172.781 55.825L138.26 65.894l1.416 4.855 34.521-10.069-1.416-4.855z" fill="#db284e"/><path d="M171.693 66.931l-6.568 1.911a.69.69 0 0 0-.468.853l.865 2.972c.106.365.487.575.852.468l6.568-1.911a.69.69 0 0 0 .469-.853l-.865-2.972a.69.69 0 0 0-.853-.468z" class="D"/><path d="M70.346 66.834l-29.314-6.746a1.22 1.22 0 0 0-1.46.914l-3.641 15.821a1.22 1.22 0 0 0 .914 1.46l29.314 6.746a1.22 1.22 0 0 0 1.46-.914l3.641-15.821a1.22 1.22 0 0 0-.914-1.46z" fill="#db284e"/><path d="M70.883 69.923l-31.688-7.292-1.027 4.463 31.688 7.292 1.027-4.463z" class="D"/><path d="M65.208 78.121l-6.038-1.39a.62.62 0 0 0-.744.466l-.628 2.728a.62.62 0 0 0 .466.744l6.038 1.39a.62.62 0 0 0 .744-.466l.628-2.728a.62.62 0 0 0-.466-.744z" fill="#ffb769"/><g fill="#b6efda"><path d="M160.46 164.539c1.546 0 2.799-1.207 2.799-2.695s-1.253-2.694-2.799-2.694-2.8 1.207-2.8 2.694 1.254 2.695 2.8 2.695z"/><path d="M159.664 164.562c1.838 0 3.327-1.436 3.327-3.209s-1.489-3.209-3.327-3.209-3.326 1.436-3.326 3.209 1.489 3.209 3.326 3.209z"/></g><g class="E"><path d="M167.605 162.166c9.898 0 17.921-7.72 17.921-17.242s-8.023-17.242-17.921-17.242-17.921 7.719-17.921 17.242 8.023 17.242 17.921 17.242z"/><path d="M185.527 162.166c4.949 0 8.961-3.86 8.961-8.621s-4.012-8.621-8.961-8.621-8.961 3.86-8.961 8.621 4.012 8.621 8.961 8.621zm-35.843-.012c6.081 0 11.011-4.741 11.011-10.589s-4.93-10.588-11.011-10.588-11.01 4.74-11.01 10.588 4.929 10.589 11.01 10.589z"/><path d="M208.742 164.153h-90.873s36.076-15.529 90.873 0z"/></g><g class="C"><path d="M170.44 164.942c3.707 0 6.712-2.9 6.712-6.477s-3.005-6.478-6.712-6.478-6.711 2.9-6.711 6.478 3.004 6.477 6.711 6.477z"/><path d="M164.489 164.209a3.48 3.48 0 0 0 3.479-3.479 3.48 3.48 0 0 0-3.479-3.479 3.48 3.48 0 0 0-3.479 3.479 3.48 3.48 0 0 0 3.479 3.479zm15.03.756c2.989 0 5.412-2.339 5.412-5.224s-2.423-5.224-5.412-5.224-5.412 2.339-5.412 5.224 2.423 5.224 5.412 5.224z"/><path d="M184.919 164.965c1.494 0 2.705-1.169 2.705-2.612s-1.211-2.612-2.705-2.612-2.706 1.17-2.706 2.612 1.211 2.612 2.706 2.612z"/><path d="M193.463 164.9h-29.67s11.795-4.686 29.67 0zm-142.159-.361c3.5 0 6.337-2.995 6.337-6.689s-2.837-6.688-6.337-6.688-6.337 2.995-6.337 6.688 2.837 6.689 6.337 6.689z"/></g><path d="M57.501 164.538c1.727 0 3.127-1.248 3.127-2.787s-1.4-2.788-3.127-2.788-3.128 1.248-3.128 2.788 1.4 2.787 3.128 2.787z" fill="#b6efda"/><g class="C"><path d="M44.967 164.539c2.128 0 3.854-1.531 3.854-3.42s-1.725-3.421-3.854-3.421-3.854 1.532-3.854 3.421 1.725 3.42 3.854 3.42z"/><path d="M68.416 165.031H34.049s13.646-5.06 34.367 0z"/><path d="M58.601 164.281c3.351 0 6.067-2.412 6.067-5.388s-2.716-5.388-6.067-5.388-6.068 2.412-6.068 5.388 2.716 5.388 6.068 5.388z"/><path d="M64.657 164.282c1.675 0 3.034-1.206 3.034-2.694s-1.358-2.694-3.034-2.694-3.034 1.206-3.034 2.694 1.358 2.694 3.034 2.694zm-12.124-.001c2.057 0 3.725-1.484 3.725-3.315s-1.668-3.315-3.725-3.315-3.725 1.484-3.725 3.315 1.668 3.315 3.725 3.315z"/><path d="M74.883 164.855H41.617s13.201-4.837 33.266 0zm100.103.144h-30.677s12.17-4.908 30.677 0z"/></g></g><mask id="A" maskUnits="userSpaceOnUse" x="71" y="83" width="76" height="76" mask-type="alpha"><path d="M71.93 121.021c0 20.829 16.759 37.722 37.435 37.722s37.436-16.893 37.436-37.722S130.04 83.3 109.365 83.3 71.93 100.189 71.93 121.021z" fill="#fff" class="B"/></mask><g mask="url(#A)" class="B"><path d="M71.93 121.021c0 20.829 16.759 37.722 37.435 37.722s37.436-16.893 37.436-37.722S130.04 83.3 109.365 83.3 71.93 100.189 71.93 121.021z" fill="url(#D)"/></g><mask id="B" maskUnits="userSpaceOnUse" x="87" y="103" width="60" height="56" mask-type="alpha"><path d="M87.725 147.286c0 1.58.089 3.135.254 4.672 6.064 4.265 13.43 6.785 21.387 6.785 20.674 0 37.435-16.893 37.435-37.722 0-5.63-1.259-10.955-3.454-15.756-3.863-1.133-7.937-1.771-12.167-1.771-24 0-43.454 19.609-43.454 43.792z" fill="#fff" class="B"/></mask><g mask="url(#B)" class="B"><path d="M87.725 147.286c0 1.58.089 3.135.254 4.672 6.064 4.265 13.43 6.785 21.387 6.785 20.674 0 37.435-16.893 37.435-37.722 0-5.63-1.259-10.955-3.454-15.756-3.863-1.133-7.937-1.771-12.167-1.771-24 0-43.454 19.609-43.454 43.792z" fill="url(#E)"/></g><mask id="C" maskUnits="userSpaceOnUse" x="105" y="86" width="25" height="60" mask-type="alpha"><path d="M105.965 89.746v35.568a3.08 3.08 0 0 0 .895 2.178l16.936 17.068a3.03 3.03 0 0 0 2.158.9 3.04 3.04 0 0 0 2.164-.9 3.1 3.1 0 0 0 0-4.355l-16.04-16.166V89.746a3.07 3.07 0 0 0-3.057-3.08c-1.69 0-3.056 1.38-3.056 3.08z" fill="#fff" class="B"/></mask><g mask="url(#C)" class="B C"><path d="M105.965 89.746v35.568a3.08 3.08 0 0 0 .895 2.178l16.936 17.068a3.03 3.03 0 0 0 2.158.9 3.04 3.04 0 0 0 2.164-.9 3.1 3.1 0 0 0 0-4.355l-16.04-16.166V89.746a3.07 3.07 0 0 0-3.057-3.08c-1.69 0-3.056 1.38-3.056 3.08z"/></g><path d="M64.705 110.037c4.753-20.644 23.119-36.03 45.053-36.03 25.543 0 46.247 20.863 46.247 46.6s-20.704 46.598-46.247 46.598a45.84 45.84 0 0 1-17.829-3.588" stroke="#db284e" stroke-width="3" stroke-linecap="round"/><path d="M77.351 167.435c11.82-1.537 20.157-12.366 18.619-24.186s-12.366-20.157-24.186-18.62-20.157 12.366-18.619 24.187 12.366 20.157 24.187 18.619z" class="D"/><path d="M75.257 165.505c11.82-1.538 20.157-12.366 18.619-24.187s-12.366-20.157-24.186-18.619-20.157 12.366-18.619 24.186 12.366 20.157 24.186 18.62z" fill="#fbb040"/><path d="M75.021 163.3a19.76 19.76 0 0 1-2.641.172c-5.053-.013-9.903-1.989-13.527-5.51a19.48 19.48 0 0 1 12.307-33.416c5.042-.33 10.015 1.312 13.87 4.579s6.289 7.904 6.79 12.932-.971 10.054-4.105 14.017a19.49 19.49 0 0 1-12.694 7.226zm-4.836-37.183a18.22 18.22 0 0 0-15.808 19.78 18.21 18.21 0 0 0 6.288 12.122 18.22 18.22 0 0 0 12.946 4.345c4.716-.286 9.136-2.392 12.328-5.875s4.906-8.07 4.78-12.792a18.21 18.21 0 0 0-18.078-17.728 19.97 19.97 0 0 0-2.54.159l.084-.011zm1.07 10.444c.352.298.631.673.816 1.096a3.03 3.03 0 0 1 .252 1.343 3.8 3.8 0 0 1-.08.829 4.55 4.55 0 0 1-1.16 2.37 5.07 5.07 0 0 1-2.506 1.47l2.124 5.306-3.672-.017-1.869-5.049-.785-.001-.916 5.036-3.263-.02 2.419-13.424 5.466.023a4.62 4.62 0 0 1 3.174 1.038zm-2.293 2.978a1.15 1.15 0 0 0-.088-.515c-.069-.163-.174-.308-.307-.423a1.69 1.69 0 0 0-1.154-.345l-2.016-.011-.605 3.356 2.016.011c.514.034 1.023-.123 1.428-.442.371-.312.612-.751.676-1.232l.05-.399zm10.098-.835c.637-.321 1.34-.488 2.053-.489a3.58 3.58 0 0 1 1.505.269 3.57 3.57 0 0 1 1.255.875 4.21 4.21 0 0 1 1.046 3.056 7.55 7.55 0 0 1-.126 1.262c-.168 1.028-.552 2.009-1.128 2.878-.51.81-1.206 1.486-2.031 1.971a4.93 4.93 0 0 1-2.491.666 3.74 3.74 0 0 1-1.869-.457 2.83 2.83 0 0 1-1.113-1.204l-1.196 6.557-3.232-.041 2.836-15.732 3.263.02-.282 1.504a4.63 4.63 0 0 1 1.508-1.135zm2.502 4.403a1.95 1.95 0 0 0-.11-.798c-.092-.256-.237-.489-.424-.685a1.83 1.83 0 0 0-.627-.414 1.85 1.85 0 0 0-.74-.126 2.68 2.68 0 0 0-1.788.694 3.28 3.28 0 0 0-1.041 1.842 3.09 3.09 0 0 0-.056.622c-.018.267.019.535.107.787s.228.485.408.682a1.81 1.81 0 0 0 .627.413 1.82 1.82 0 0 0 .74.126 2.6 2.6 0 0 0 1.785-.71c.569-.496.94-1.181 1.046-1.928a2.57 2.57 0 0 0 .071-.505z" class="D"/><defs><linearGradient id="D" x1="211.361" y1="111.679" x2="101.811" y2="-15.444" gradientUnits="userSpaceOnUse"><stop stop-color="#da264d"/><stop offset="1" stop-color="#ba7d8b"/></linearGradient><linearGradient id="E" x1="77.827" y1="129.83" x2="105.919" y2="188.364" gradientUnits="userSpaceOnUse"><stop stop-color="#cf4664"/><stop offset="1" stop-color="#c01f46"/></linearGradient><clipPath id="F"><path fill="#fff" d="M0 0h216.254v199H0z"/></clipPath></defs></svg>