<svg width="16" height="16" viewBox="0 0 16 16" fill="none" xmlns="http://www.w3.org/2000/svg">
<path d="M8.66536 6.3026H7.33203V5.00967H8.66536V6.3026ZM8.66536 11.4743H7.33203V7.59553H8.66536V11.4743ZM7.9987 1.77734C7.12322 1.77734 6.25631 1.94456 5.44747 2.26944C4.63864 2.59431 3.90371 3.0705 3.28465 3.6708C2.03441 4.88315 1.33203 6.52746 1.33203 8.24199C1.33203 9.95652 2.03441 11.6008 3.28465 12.8132C3.90371 13.4135 4.63864 13.8897 5.44747 14.2145C6.25631 14.5394 7.12322 14.7066 7.9987 14.7066C9.76681 14.7066 11.4625 14.0255 12.7127 12.8132C13.963 11.6008 14.6654 9.95652 14.6654 8.24199C14.6654 7.39304 14.4929 6.5524 14.1579 5.76808C13.8229 4.98375 13.3318 4.27109 12.7127 3.6708C12.0937 3.0705 11.3588 2.59431 10.5499 2.26944C9.74108 1.94456 8.87418 1.77734 7.9987 1.77734Z" fill="#DB284E"/>
</svg>
