<svg xmlns="http://www.w3.org/2000/svg" width="18" height="14" fill="none" xmlns:v="https://vecta.io/nano"><path d="M9.666 5H8.333V3.667h1.333V5zm0 5.333H8.333v-4h1.333v4zM9 .333c-.875 0-1.742.172-2.551.507s-1.544.826-2.163 1.445C3.035 3.536 2.333 5.232 2.333 7s.702 3.464 1.953 4.714c.619.619 1.354 1.11 2.163 1.445s1.676.507 2.551.507c1.768 0 3.464-.702 4.714-1.953S15.666 8.768 15.666 7c0-.875-.172-1.742-.507-2.551s-.826-1.544-1.445-2.163-1.354-1.11-2.163-1.445S9.875.333 9 .333z" fill="#1890ff"/></svg>