<svg xmlns="http://www.w3.org/2000/svg" width="166" height="166" fill="none" xmlns:v="https://vecta.io/nano"><g clip-path="url(#A)"><path d="M83 166c45.84 0 83-37.16 83-83S128.84 0 83 0 0 37.16 0 83s37.16 83 83 83z" fill="#fceff2"/><g fill="#f3bdca"><path d="M32.37 24.12c4.183 0 7.574-3.298 7.574-7.366s-3.391-7.366-7.574-7.366-7.574 3.298-7.574 7.366 3.391 7.366 7.574 7.366z"/><path d="M22.773 24.12c3.266 0 5.914-2.578 5.914-5.758s-2.648-5.758-5.914-5.758-5.914 2.578-5.914 5.758 2.648 5.758 5.914 5.758zm18.416.003c2.55 0 4.617-2.021 4.617-4.513s-2.067-4.513-4.617-4.513-4.617 2.021-4.617 4.513 2.067 4.513 4.617 4.513z"/><path d="M23.967 23.653h17.638v-4.046H23.967v4.046z"/><path d="M8.922 25.366h44.82s-7.729-6.796-44.82 0zM128.494 37.61c6.733 0 12.191-5.713 12.191-12.761s-5.458-12.761-12.191-12.761-12.19 5.713-12.19 12.761 5.458 12.761 12.19 12.761z"/><path d="M143.953 37.61c5.272 0 9.545-4.459 9.545-9.96s-4.273-9.96-9.545-9.96-9.545 4.459-9.545 9.96 4.274 9.96 9.545 9.96zm-29.672-.001c4.125 0 7.47-3.484 7.47-7.781s-3.345-7.781-7.47-7.781-7.47 3.484-7.47 7.781 3.344 7.781 7.47 7.781z"/><path d="M142.086 29.828h-28.48v7.055h28.48v-7.055z"/><path d="M166 38.598H98.252s11.672-13.747 67.749 0z"/></g><g fill="#eb92a7"><path d="M21.321 130.308c5.444 0 9.856-4.088 9.856-9.13s-4.413-9.13-9.856-9.13-9.856 4.088-9.856 9.13 4.413 9.13 9.856 9.13z"/><path d="M11.464 130.312c2.722 0 4.928-2.044 4.928-4.565s-2.206-4.565-4.928-4.565-4.928 2.044-4.928 4.565 2.206 4.565 4.928 4.565z"/></g><path d="M31.229 130.31c3.352 0 6.069-2.508 6.069-5.602s-2.717-5.603-6.069-5.603-6.069 2.508-6.069 5.603 2.717 5.602 6.069 5.602z" fill="#d1e7e6"/><g fill="#eb92a7"><path d="M0 130.672h50.111s-19.868-9.909-50.111 0zm148.207-.519c4.011 0 7.262-3.136 7.262-7.004s-3.251-7.003-7.262-7.003-7.263 3.136-7.263 7.003 3.252 7.004 7.263 7.004z"/></g><path d="M143.331 130.153c1.661 0 3.008-1.301 3.008-2.905s-1.347-2.905-3.008-2.905-3.009 1.301-3.009 2.905 1.347 2.905 3.009 2.905z" fill="#d1e7e6"/><g fill="#eb92a7"><path d="M155.469 130.154c2.063 0 3.735-1.602 3.735-3.579s-1.672-3.579-3.735-3.579-3.735 1.602-3.735 3.579 1.673 3.579 3.735 3.579z"/><path d="M132.8 130.672H166a56.71 56.71 0 0 0-33.2 0z"/></g><path d="M12.243 76.932l6.796 46.999c.309 2.129 1.447 4.051 3.168 5.343s3.883 1.852 6.014 1.556l23.084-3.32c-.217-1.446-.145-2.921.212-4.34a11.05 11.05 0 0 1 1.869-3.922 11.04 11.04 0 0 1 3.237-2.898c1.26-.743 2.655-1.228 4.104-1.427a11.07 11.07 0 0 1 4.337.266 11.05 11.05 0 0 1 3.899 1.918 11.04 11.04 0 0 1 2.858 3.273 11.05 11.05 0 0 1 1.375 4.121l68.63-9.96a8.14 8.14 0 0 0 5.344-3.168c1.293-1.72 1.852-3.882 1.556-6.014l-6.796-46.998a8.14 8.14 0 0 0-3.168-5.344c-1.72-1.293-3.882-1.852-6.014-1.556l-68.682 9.753a11.06 11.06 0 0 1-2.087 8.203 11.06 11.06 0 0 1-7.276 4.325 11.06 11.06 0 0 1-8.203-2.087 11.06 11.06 0 0 1-4.325-7.276l-23.033 3.32c-2.134.321-4.055 1.471-5.347 3.199s-1.85 3.897-1.552 6.035zm43.834 29.05a3.42 3.42 0 0 1 .303-1.962c.292-.61.759-1.12 1.341-1.465a3.42 3.42 0 0 1 1.928-.474c.675.036 1.325.271 1.867.676s.952.96 1.178 1.598a3.42 3.42 0 0 1-.93 3.684 3.42 3.42 0 0 1-1.795.848c-.446.066-.901.043-1.339-.067s-.849-.307-1.21-.577-.666-.608-.896-.997a3.42 3.42 0 0 1-.445-1.264zm-1.608-11.153c-.095-.67.01-1.352.303-1.962s.759-1.119 1.341-1.464 1.253-.51 1.928-.474 1.325.271 1.867.675.952.961 1.178 1.598.259 1.328.093 1.983-.522 1.248-1.023 1.701-1.126.749-1.796.847c-.446.066-.901.043-1.339-.067s-.849-.306-1.21-.576-.666-.609-.896-.997-.381-.818-.445-1.265zm-1.608-11.205c-.131-.901.102-1.817.647-2.547s1.357-1.213 2.258-1.344 1.817.102 2.547.647 1.213 1.357 1.344 2.258-.102 1.817-.647 2.547-1.357 1.213-2.258 1.344-1.817-.102-2.547-.647-1.213-1.357-1.344-2.258z" fill="#f3bdca"/><path d="M83 72.626c1.636-1.88 3.893-3.109 6.361-3.461s4.978.195 7.075 1.542a9.39 9.39 0 0 1 3.579 6.588 9.4 9.4 0 0 1-.019 3.819 9.39 9.39 0 0 1-1.538 3.496c-.78.969-1.747 1.771-2.843 2.359s-2.299.95-3.538 1.064c-2.451.461-4.985-.06-7.055-1.453a9.13 9.13 0 0 1-3.579-6.588c-.286-1.267-.295-2.582-.027-3.853s.808-2.47 1.583-3.513zm5.188 6.381c.38 2.525 1.47 3.666 3.268 3.424a2.49 2.49 0 0 0 1.867-1.245c.39-.934.498-1.962.311-2.957-.363-2.542-1.504-3.735-3.32-3.424s-2.594 1.556-2.127 4.098v.104zm30.036-13.332l-15.251 40.981c-.163.424-.436.797-.792 1.08s-.781.465-1.231.528l-7.574 1.037 15.303-40.981a2.44 2.44 0 0 1 2.023-1.608l7.522-1.038zm-5.187 24.744c1.595-2.064 3.946-3.409 6.534-3.74s5.201.38 7.264 1.976 3.409 3.946 3.74 6.534-.38 5.201-1.976 7.265a9.7 9.7 0 0 1-6.381 3.424 9.55 9.55 0 0 1-7.055-1.505c-1.012-.794-1.848-1.789-2.455-2.923s-.973-2.382-1.072-3.665c-.354-1.254-.435-2.57-.239-3.859a9.14 9.14 0 0 1 1.38-3.611l.26.104zm5.187 3.424c-.4.95-.509 1.997-.311 3.009.415 2.49 1.452 3.632 3.268 3.372a2.38 2.38 0 0 0 1.867-1.245c.38-.919.488-1.927.312-2.905-.094-1.026-.491-2.002-1.142-2.801-.283-.278-.628-.484-1.007-.601a2.49 2.49 0 0 0-1.171-.073 2.23 2.23 0 0 0-1.172.287c-.357.201-.652.497-.851.855l.207.104z" fill="#fff"/><path d="M18.571 75.221v47.362c.014 2.142.871 4.192 2.385 5.707a8.14 8.14 0 0 0 5.707 2.385h23.188a11.05 11.05 0 0 1 2.947-8.297 11.06 11.06 0 0 1 8.076-3.509 11.06 11.06 0 0 1 8.076 3.509 11.05 11.05 0 0 1 2.947 8.297h69.097c2.142-.013 4.193-.87 5.708-2.385a8.15 8.15 0 0 0 2.385-5.707V75.221c0-2.146-.853-4.205-2.37-5.722s-3.576-2.37-5.723-2.37H71.899a11.05 11.05 0 0 1-11.023 10.293 11.05 11.05 0 0 1-11.023-10.293H26.664c-2.146 0-4.205.853-5.722 2.37s-2.37 3.576-2.37 5.722zm39.062 34.912c0-.677.201-1.339.577-1.902s.911-1.002 1.536-1.261 1.314-.327 1.978-.195a3.42 3.42 0 0 1 1.753.937c.479.479.805 1.089.937 1.753s.064 1.352-.195 1.978-.698 1.16-1.261 1.537-1.225.577-1.902.577a3.48 3.48 0 0 1-2.406-1.018c-.639-.639-1.004-1.502-1.018-2.406zm0-11.257c0-.908.361-1.779 1.003-2.421s1.513-1.003 2.421-1.003 1.779.361 2.421 1.003 1.003 1.513 1.003 2.421-.361 1.779-1.003 2.421-1.513 1.003-2.421 1.003-1.779-.361-2.421-1.003-1.003-1.513-1.003-2.421zm0-11.257c0-.677.201-1.339.577-1.902s.911-1.002 1.536-1.261 1.314-.327 1.978-.195 1.274.458 1.753.937.805 1.089.937 1.753.064 1.353-.195 1.978-.698 1.16-1.261 1.537-1.225.577-1.902.577c-.45 0-.895-.089-1.31-.261a3.42 3.42 0 0 1-1.111-.742c-.318-.318-.57-.695-.742-1.111s-.261-.861-.261-1.31z" fill="#db284e"/><g fill="#e66983"><path d="M30.762 58.362L11.828 42.229l6.588-4.721 12.346 20.854zm2.646-2.648l-6.484-17.171 5.914-.726.571 17.897zm-5.759 5.289L13.85 58.046l2.023-4.15 11.776 7.107z"/></g></g><defs><clipPath id="A"><path fill="#fff" d="M0 0h166v166H0z"/></clipPath></defs></svg>