<svg xmlns="http://www.w3.org/2000/svg" width="45" height="53" fill="none" xmlns:v="https://vecta.io/nano"><path d="M22.588.699A22.19 22.19 0 0 1 44.78 22.89c0 10.604-7.157 20.364-21.2 29.3a1.85 1.85 0 0 1-1.982 0C7.554 43.255.397 33.494.397 22.89A22.19 22.19 0 0 1 22.588.699zm0 14.794a7.4 7.4 0 0 0-5.231 2.167c-1.387 1.387-2.167 3.269-2.167 5.231s.779 3.843 2.167 5.23 3.269 2.167 5.231 2.167 3.843-.779 5.231-2.167 2.166-3.269 2.166-5.23-.779-3.843-2.166-5.231-3.269-2.167-5.231-2.167z" fill="#49a09d"/></svg>