<svg xmlns="http://www.w3.org/2000/svg" width="120" height="120" fill="none"><g clip-path="url(#a)"><path fill="#DCF7EC" d="M109.996 100.76c4.91-5.54 5.31-13.57 4.08-20.87-1.64-9.76-4.6-14.17-10-19.28-5-4.75-11.38-7.44-17.23-10.87-6.53-3.84-11.34-9.41-16.85-14.55-5.51-5.14-11.79-10.09-19.23-11.61-7.91-1.62-16.41.92-22.61 6.08a34.85 34.85 0 0 0-11.58 20.7c-.68 3.84-.81 7.82-2.13 11.49-2.4 6.71-8.45 11.7-10.39 18.57a26.2 26.2 0 0 0-.63 8.52c.25 4.1 1 8.46 3.94 11.38"/><path fill="#DCF7EC" d="M79.618 61.62a22.13 22.13 0 0 1-2.73-19.95c1 1 2.09 2 3.18 2.9a18.23 18.23 0 0 0 27.61 19.71 27.38 27.38 0 0 1 2.21 3.19 22.159 22.159 0 0 1-30.27-5.85Z"/><path fill="#DCF7EC" d="M87 56.47a13 13 0 0 1-2.32-8.35c.65.44 1.31.87 2 1.27 5.85 3.43 12.27 6.13 17.229 10.88l.2.19a13.15 13.15 0 0 1-17.11-3.99Z"/><path fill="#DCF7EC" d="M72.767 66.4a30.51 30.51 0 0 1-2.3-31c.83.78 1.64 1.58 2.45 2.37a27.25 27.25 0 0 0 39.14 34.39c.34 1 .66 2 1 3.18a30.53 30.53 0 0 1-40.29-8.94Z"/><path fill="#B6EFDA" d="M68.558 69.33a35.64 35.64 0 0 1-2-37.46 88.504 88.504 0 0 1 3.32 3l.6.59a30.48 30.48 0 0 0 42.52 39.91c.32 1.28.61 2.66.87 4.18.06.36.11.73.16 1.09a35.67 35.67 0 0 1-45.47-11.31Z"/><path fill="#B6EFDA" d="M75.407 64.55a27.28 27.28 0 0 1-2.49-26.75c1.33 1.3 2.64 2.6 4 3.87a22.12 22.12 0 0 0 33 25.8c.875 1.5 1.602 3.08 2.17 4.72a27.32 27.32 0 0 1-36.68-7.64Z"/><path fill="#B6EFDA" d="M82.797 59.4a18.198 18.198 0 0 1-2.73-14.83 49.136 49.136 0 0 0 4.62 3.55 13.11 13.11 0 0 0 19.43 12.34 41.486 41.486 0 0 1 3.56 3.82 18.279 18.279 0 0 1-24.88-4.88Z"/><path fill="#FF792F" d="M8.68 101.18s7.52-21.75 41.6-13.75S75 100.64 95.4 95.38c16.86-4.34 21.25 5.8 21.25 5.8"/><path stroke="#707070" stroke-linecap="round" stroke-miterlimit="10" stroke-width="2" d="M21.219 100.67h95.43M14.547 100.67h2.48M3.938 100.67h6.32"/><path fill="#FED700" d="M86.568 21.31s3.67-1.31 3.82 1.17a5 5 0 0 1-2 4.7c-1 .48-2.64.87-3.22 2.65-.42 1.29-.75 2.24-.9 2.66a.29.29 0 0 0 .15.36l1.56.76a.74.74 0 0 0 1-.42c.37-1.08 1.26-2.89 3-3.27a7.418 7.418 0 0 0 4.8-9.34 7.68 7.68 0 0 0-10.15-4.38 1.77 1.77 0 0 0-.71 1.91c.32 1.27.36 3.76 2.65 3.2ZM85.854 37.668c.196-1.16-.462-2.238-1.47-2.408-1.008-.17-1.983.633-2.178 1.793-.196 1.16.462 2.238 1.47 2.408 1.007.17 1.983-.633 2.178-1.793ZM96.28 32.41s2.77.28 2.12 1.93a3.56 3.56 0 0 1-2.76 2.41c-.77 0-2-.24-2.9.74-.66.7-1.17 1.21-1.39 1.44a.21.21 0 0 0 0 .28l.78 1a.52.52 0 0 0 .78 0 3.34 3.34 0 0 1 3-1.18 5.309 5.309 0 0 0 6-4.57 5.478 5.478 0 0 0-1.35-4.083 5.498 5.498 0 0 0-3.88-1.857 1.26 1.26 0 0 0-1 1c-.32.93-1.05 2.56.6 2.89ZM90.816 42.77c.48-.69.385-1.585-.213-2.002-.598-.417-1.472-.197-1.952.491-.48.689-.385 1.585.213 2.002.598.417 1.472.197 1.952-.492Z"/><path fill="#E89D89" d="M16.321 57.45s-7.15-7.28-8.65-9.75c-1.72-2.83 9-6.77 9-6.77l3.1 3.74a7.998 7.998 0 0 1 2-1.84 1.652 1.652 0 0 1 2.28.62l-.63.68s-3 4-2.2 5.78c.8 1.78 2.27 4.09 2.27 4.09l-2.49 2.2-4.68 1.25Z"/><path fill="#17AA83" d="M25.5 48.62s-7.87 7.25-13.5 9.46c0 0 13.89 26.68 20.65 27.17a13 13 0 0 0 10.7-4.73v19.16h47.9l-2-7.79S97 82.19 96 75.8a56.173 56.173 0 0 0-4.87-15.66 20.59 20.59 0 0 0-8.56-8.68c-5.93-3.18-17-5.4-28.21-1.73 0 0-14.14 4.13-16.15 8.36-1.48 3.12-3.5 6.88-3.5 6.88L25.5 48.62Z"/><path fill="#707070" d="M19.884 38.85 7.444 50.34a1.62 1.62 0 0 0-.09 2.26l.25.27a1.61 1.61 0 0 0 2.27.13l12.43-11.52a8.94 8.94 0 0 1-2.42-2.63Z"/><path fill="#707070" d="M27.6 25.29a8.92 8.92 0 0 0-7.72 13.56l1.06-1a7.29 7.29 0 0 1-1-3.71 7.51 7.51 0 0 1 6.46-7.38 8.496 8.496 0 0 1 1.14-.09 7.52 7.52 0 0 1 3 .68c.403.186.791.404 1.16.65a7.53 7.53 0 0 1-4.25 13.8h-.51a7.509 7.509 0 0 1-1.84-.37 7.286 7.286 0 0 1-1.1-.55 6.477 6.477 0 0 1-.62-.39l-1.07 1a8.94 8.94 0 1 0 5.3-16.19l-.01-.01Z"/><path fill="#707070" d="M20.997 37.93v-.06l-1.06 1a8.939 8.939 0 0 0 2.42 2.63l1.07-1a7.57 7.57 0 0 1-2.43-2.57Z"/><path fill="#78DFFF" d="m20.996 37.78-.09.09v.06l.09-.15Z"/><g opacity=".5"><path fill="#78DFFF" d="M22.178 28.92a7.512 7.512 0 0 0 2.27 12.18v-.13l-2.27-12.05ZM29.875 41.38l-2.79-14.67a7.044 7.044 0 0 0-1.21.17l2.81 14.79a8.259 8.259 0 0 0 1.19-.29ZM32 40.29a7.53 7.53 0 0 0 1.59-10.53A7.45 7.45 0 0 0 29 26.84l2.61 13.73.39-.28Z" opacity=".5"/><path fill="#9FEDFF" d="M24.48 41a1.61 1.61 0 0 1 1.86-1.3l.36.07a1.61 1.61 0 0 1 1.3 1.82v.14c.24 0 .48 0 .72-.06l-2.84-14.79a7.521 7.521 0 0 0-2.83 1.28 7.995 7.995 0 0 0-.87.76l2.29 12 .01.08Z" opacity=".5"/><path fill="#9FEDFF" d="m26.697 39.72-.36-.07a1.61 1.61 0 0 0-1.86 1.35v.16a7.63 7.63 0 0 0 3.47.6v-.14a1.61 1.61 0 0 0-1.25-1.9ZM31.565 40.57l-2.57-13.73a7.337 7.337 0 0 0-1.87-.13l2.79 14.67a7.27 7.27 0 0 0 1.65-.81Z" opacity=".5"/></g><path fill="#231F20" d="M43.328 97.13v2.55h47.92l-.64-2.55h-47.28Z" opacity=".1"/><path fill="#F2AA91" d="M74.397 90.48c-1.65 1.75-2.35 2.76-2.92 3-1 .422-2.053.705-3.13.84a6.78 6.78 0 0 0-3.08 1.25c-.66.5-1.17 1.1-.93 1.69.53 1.34 1.7-.61 3.75.07 0 0-3.18 3.21-4.1 4.17-1.24 1.29-2.56 5.25.64 7.21 2.86 1.75 5.41 1.1 8.21-1.72a13.79 13.79 0 0 0 3.45-5.39c.63-1.7 2.07-3.47 4.45-5.44l-6.34-5.68ZM7.835 44.893l6.02-4.251a2.88 2.88 0 0 1 4.014.691l1.027 1.454a4.59 4.59 0 0 1-1.102 6.397l-3.218 2.273a4.59 4.59 0 0 1-6.364-1.125l-1.027-1.454a2.88 2.88 0 0 1 .691-4.014l-.04.03Z"/><path fill="#221F20" d="M60.079 39.14c6.412 0 11.61-5.198 11.61-11.61 0-6.412-5.198-11.61-11.61-11.61-6.412 0-11.61 5.198-11.61 11.61 0 6.412 5.198 11.61 11.61 11.61Z"/><path fill="#F2AA91" d="M49.938 23.08s-3.38 13.81.06 20.09c3.44 6.28 8.17 1.46 8.17 1.46l-.9 4.93s2.78 5.49 4.91 5.49c0 0 4.88-5 7.28-6.61 0 0-2.19-1-2-11.41 0 0 4.78-2.61 2.14-7.28-2.88-5.24-5.3 5.25-5.3 5.25s-.61-17.55-14.36-11.92Z"/><path fill="#221F20" d="M64.679 20.73a5.21 5.21 0 1 0 0-10.42 5.21 5.21 0 0 0 0 10.42Z"/><path fill="#17AA83" d="M71.367 90.6s7 4.45 9.73 8.84l3.74-3.44-10.56-8.29-2.91 2.89Z"/><path fill="#221F20" d="M48.79 29.79s4-3.37 4.29-5.44c0 0 2.06 6.41 11.43 6.76L64 21.23 53.82 20l-4.33 2.75-.7 7.04Z"/><path stroke="#231F20" stroke-linecap="round" stroke-miterlimit="10" d="m75.997 66.5 4 10-8.63 14.1.09.05a27.46 27.46 0 0 1 9.07 8l.57.78 8.2-7.55M43.33 80.52l-.79-11.89M34.719 64.97l1.67 2.63" opacity=".1"/><path fill="#FF792F" d="m15.57 23.83 3.91 4.06-2.16-5.2-1.75 1.14ZM14.352 28.42l4.5.46-4.02-2.07-.48 1.61Z"/></g><defs><clipPath id="a"><path fill="#fff" d="M0 0h120v120H0z"/></clipPath></defs></svg>