<svg xmlns="http://www.w3.org/2000/svg" xmlns:xlink="http://www.w3.org/1999/xlink" width="190" height="190" fill="none" xmlns:v="https://vecta.io/nano"><g clip-path="url(#A)"><g opacity=".2"><path opacity=".2" d="M35.835 186.175c10.113 0 18.312-.517 18.312-1.154s-8.198-1.153-18.312-1.153-18.311.517-18.311 1.153 8.198 1.154 18.312 1.154z" fill="#727272"/></g><g opacity=".2"><path opacity=".2" d="M162.534 185.727c10.113 0 18.312-.516 18.312-1.153s-8.199-1.153-18.312-1.153-18.311.516-18.311 1.153 8.198 1.153 18.311 1.153z" fill="#727272"/></g><path d="M143.951 165.804a76.75 76.75 0 0 0 25.866-38.361c4.471-15.144 4.163-31.297-.882-46.259a76.75 76.75 0 0 0-27.31-37.347c-12.729-9.343-28.029-14.534-43.815-14.864a76.75 76.75 0 0 0-73.245 49.193c-5.666 14.738-6.649 30.865-2.815 46.182a76.75 76.75 0 0 0 24.241 39.408" fill="#fceff2"/><path d="M141.904 164.768c9.944 0 18.005-7.756 18.005-17.323s-8.061-17.323-18.005-17.323-18.006 7.756-18.006 17.323 8.062 17.323 18.006 17.323z" fill="#eb92a7"/><g fill="#a0e8cb"><path d="M159.909 164.769c4.972 0 9.003-3.878 9.003-8.661s-4.031-8.662-9.003-8.662-9.003 3.878-9.003 8.662 4.031 8.661 9.003 8.661zm-36.011-.013c6.11 0 11.062-4.763 11.062-10.639s-4.952-10.638-11.062-10.638-11.062 4.763-11.062 10.638 4.953 10.639 11.062 10.639z"/></g><g fill="#eb92a7"><path d="M191.259 166.11H92.547s39.188-15.534 98.712 0zm-101.843-2.389c17.626 0 31.915-13.752 31.915-30.716s-14.289-30.715-31.915-30.715S57.5 116.042 57.5 133.005s14.289 30.716 31.916 30.716z"/><path d="M121.333 163.721c8.813 0 15.958-6.876 15.958-15.358s-7.145-15.357-15.958-15.357-15.958 6.876-15.958 15.357 7.145 15.358 15.958 15.358zm-63.832 0c10.828 0 19.606-8.446 19.606-18.864s-8.778-18.865-19.606-18.865-19.606 8.446-19.606 18.865 8.778 18.864 19.606 18.864z"/><path d="M176.924 166.109H1.906s69.48-27.549 175.018 0z"/></g><g fill="#f3bdca"><path d="M41.307 168.747c6.48 0 11.733-5.538 11.733-12.369s-5.253-12.368-11.733-12.368-11.733 5.537-11.733 12.368 5.253 12.369 11.733 12.369z"/><path d="M29.573 168.747c3.932 0 7.12-2.835 7.12-6.332s-3.188-6.331-7.12-6.331-7.12 2.835-7.12 6.331 3.188 6.332 7.12 6.332z"/><path d="M72.963 169.545H9.414s25.208-9.238 63.549 0z"/><path d="M54.793 168.264c6.2 0 11.227-4.463 11.227-9.968s-5.027-9.968-11.227-9.968-11.227 4.463-11.227 9.968 5.026 9.968 11.227 9.968z"/><path d="M66.02 168.274c3.1 0 5.614-2.234 5.614-4.989s-2.513-4.99-5.614-4.99-5.614 2.234-5.614 4.99 2.513 4.989 5.614 4.989zm-22.452-.011c3.809 0 6.896-2.739 6.896-6.119s-3.087-6.12-6.896-6.12-6.896 2.74-6.896 6.12 3.087 6.119 6.896 6.119z"/><path d="M84.908 169.334H23.371s24.443-8.943 61.536 0zm50.803-.659c7.702 0 13.945-6.028 13.945-13.463s-6.243-13.463-13.945-13.463-13.945 6.028-13.945 13.463 6.243 13.463 13.945 13.463z"/><path d="M121.78 168.676c3.939 0 7.132-3.082 7.132-6.884s-3.193-6.885-7.132-6.885-7.132 3.083-7.132 6.885 3.193 6.884 7.132 6.884z"/><path d="M165.217 169.546h-63.666s25.278-10.05 63.666 0z"/><path d="M154.551 168.699c6.207 0 11.239-4.858 11.239-10.851s-5.032-10.85-11.239-10.85-11.239 4.858-11.239 10.85 5.032 10.851 11.239 10.851z"/><path d="M165.793 168.699c3.1 0 5.614-2.429 5.614-5.425s-2.514-5.425-5.614-5.425-5.613 2.429-5.613 5.425 2.513 5.425 5.613 5.425zm-22.467 0c3.809 0 6.896-2.983 6.896-6.661s-3.087-6.661-6.896-6.661-6.896 2.982-6.896 6.661 3.087 6.661 6.896 6.661z"/><path d="M185.361 169.546h-61.619s24.466-9.732 61.619 0z"/></g><path d="M150.81 115.507s-2.118-4.143 1.248-5.602 6.272.165 8.155 3.872c0 0 6.178 1.671-1.424 10.403l-7.979-8.673z" fill="#221f20"/><path d="M151.317 145.938h15.298l2.13 12.84c.573 3.544 1.651 6.988 3.201 10.226l5.602 12.357h-6.908l-5.884-8.756a32.1 32.1 0 0 1-3.919-8.131l-3.413-8.933-2.036 3.966a25.62 25.62 0 0 0-1.765 13.522l2.271 8.332h-6.26l-2.731-7.649c-2.007-5.684-1.899-11.901.306-17.512l4.108-10.262z" fill="#6c6d6d"/><path d="M148.459 151.399l20.183-.635s-1.907-15.005-1.766-16.829c0 0 7.732.494 14.452-12.015l-3.931-2.978s-6.39 7.638-13.192 6.332c-7.438-1.424-15.416 1.365-15.416 1.365a16.7 16.7 0 0 1-6.127-2.66c-1.842-1.29-3.405-2.939-4.594-4.848l-4.002 3.001c.975 3.19 2.808 6.05 5.298 8.269s5.543 3.71 8.824 4.311l.271 16.687z" fill="#db284e"/><g fill="#ac1d3e"><path d="M146.34 184.575h9.556l-.801-3.178h-6.354c-.625 0-1.223.248-1.665.69a2.35 2.35 0 0 0-.689 1.664l-.047.824zm21.996 0h9.544l-.8-3.178h-6.367a2.35 2.35 0 0 0-2.354 2.354l-.023.824z"/></g><g fill="#f2aa91"><path d="M177.879 119.319l2.436-3.319s-.53-1.859 0-2.247c.353-.271.682 1.177.682 1.177a11.8 11.8 0 0 0 1.295-2.013c.459-1.177 4.284-.094 3.589 2.13a4.93 4.93 0 0 1-1.111 1.797c-.496.512-1.096.911-1.76 1.169l-2.001 3.66-3.13-2.354zm-40.249.141l-2.353-3.342s.341-1.742 0-2.248-.754.989-.754.989a6.8 6.8 0 0 1-1.176-1.801c-.389-1.176-4.284-.117-3.613 2.107.231.674.607 1.29 1.101 1.804s1.094.915 1.758 1.173l1.977 3.672 3.06-2.354zm13.181-4.108s-.788 6.414.847 8.732a2 2 0 0 0 .655.616c.263.153.556.245.859.267a2 2 0 0 0 .889-.136 2.01 2.01 0 0 0 .74-.511l-.142 1.659c.658.337 1.389.504 2.128.483a4.38 4.38 0 0 0 2.097-.601s-.73-.741-.753-5.119c0 0 2.177-1.353.506-3.024s-1.318.965-1.318.965-1.306-8.403-6.508-3.331z"/></g><path d="M48.569 111.728c-.986-.74-2.18-1.152-3.413-1.177-4.59-2.66-7.214 2.718-7.591 4.59s-.636 3.918-3.272 5.884c-7.626 5.554 4.813 8.814 4.813 8.814 1.424-5.543 8.167-3.53 7.744-3.024 8.073 4.072 4.731-12.486 1.718-15.087z" fill="#1e1c1f"/><g fill="#6c6d6d"><path d="M32.504 147.703h9.932l-4.142 15.581c-.34 1.287-1.176 2.388-2.325 3.06s-2.517.863-3.806.53l-14.604-3.766 3.389-4.602 7.967.895c.267.112.557.159.846.139a1.85 1.85 0 0 0 1.431-.857c.154-.246.249-.524.277-.812l1.036-10.168z"/><path d="M40.046 147.703h9.909l-4.966 34.964-5.672-1.118.73-33.846z"/></g><path d="M51.088 150.634l-20.171-.636s1.895-15.004 1.754-16.828c0 0-7.72.494-14.451-12.016l3.942-2.977s6.378 7.649 13.192 6.331c7.426-1.424 15.416 1.365 15.416 1.365a16.72 16.72 0 0 0 6.126-2.661c1.842-1.29 3.405-2.939 4.595-4.847l4.001 3.025a18.22 18.22 0 0 1-5.301 8.266c-2.49 2.218-5.542 3.71-8.821 4.314l-.282 16.664z" fill="#db284e"/><g fill="#f2aa91"><path d="M21.654 118.553l-2.424-3.318s.53-1.86 0-2.248-.683 1.177-.683 1.177a11.05 11.05 0 0 1-1.295-2.012c-.459-1.177-4.284-.083-3.601 2.13.238.673.619 1.287 1.117 1.798s1.101.91 1.767 1.167l1.989 3.66 3.13-2.354zm40.26.142l2.354-3.342s-.341-1.742 0-2.236.753.976.753.976c.486-.533.883-1.141 1.177-1.8.377-1.177 4.284-.118 3.601 2.106a4.88 4.88 0 0 1-2.86 2.978l-1.977 3.671-3.048-2.353zm-13.17-4.107s.777 6.414-.859 8.732a2.01 2.01 0 0 1-.655.616c-.262.153-.556.244-.859.267a2 2 0 0 1-.889-.136 1.99 1.99 0 0 1-.739-.512l.141 1.671c-.658.335-1.391.499-2.129.476a4.41 4.41 0 0 1-2.096-.605s.741-.741.753-5.119c0 0-2.165-1.354-.494-3.025s1.306.977 1.306.977 1.306-8.414 6.52-3.342z"/></g><g fill="#ac1d3e"><path d="M19.769 157.26l-1.871-.459-.541 1.177 1.177.388-1.424.282-2.813 6.002a3.12 3.12 0 0 0 1.664-.17c.529-.208.991-.556 1.337-1.007l3.201-4.142a1.32 1.32 0 0 0 .191-1.231c-.072-.205-.194-.389-.355-.536a1.32 1.32 0 0 0-.566-.304zm18.983 25.843l.353 1.894h1.283l-.106-1.177.836 1.177h6.637c-.146-.555-.444-1.06-.859-1.456a3.1 3.1 0 0 0-1.495-.791l-5.107-1.177a1.31 1.31 0 0 0-.631.035c-.204.062-.391.174-.542.324a1.32 1.32 0 0 0-.369 1.171z"/></g><g fill="#c22046"><path d="M31.257 31.597L13.758 21.441l4.578-4.754 12.922 14.911zm1.74-2.494l-7.696-12.827 4.66-1.436 3.036 14.263zm-3.847 5.084l-11.474-.377 1-3.601 10.474 3.978zm136.948 64.454l9.591-17.817 4.895 4.425-14.486 13.392zm2.543 1.661l12.58-8.097 1.577 4.613-14.157 3.484zm-5.203-3.683V85.133l3.636.894-3.636 10.592z"/></g><path d="M143.808 102.714a10.09 10.09 0 0 0 10.086-10.086 10.09 10.09 0 0 0-10.086-10.085 10.09 10.09 0 0 0-10.085 10.085 10.09 10.09 0 0 0 10.085 10.086z" fill="#ff792f"/><path d="M142.832 101.82c5.57 0 10.085-4.515 10.085-10.085a10.09 10.09 0 0 0-10.085-10.085 10.09 10.09 0 0 0-10.086 10.085 10.09 10.09 0 0 0 10.086 10.085z" fill="#fbb040"/><g fill="#ff792f"><path d="M142.831 100.783c-1.793.003-3.547-.527-5.039-1.522a9.06 9.06 0 0 1-3.342-4.066c-.687-1.656-.868-3.479-.519-5.238a9.07 9.07 0 0 1 7.123-7.124c1.758-.35 3.582-.169 5.239.519s3.071 1.851 4.066 3.343 1.524 3.246 1.522 5.039c-.003 2.399-.958 4.699-2.654 6.396a9.06 9.06 0 0 1-6.396 2.654zm0-17.523a8.47 8.47 0 0 0-7.836 5.222c-.644 1.548-.813 3.252-.487 4.897a8.47 8.47 0 0 0 11.551 6.183c1.549-.641 2.873-1.727 3.805-3.121a8.48 8.48 0 0 0 1.429-4.709c0-2.245-.892-4.399-2.478-5.987s-3.739-2.483-5.984-2.486zm-.587 4.955a1.42 1.42 0 0 1 .393.528 1.41 1.41 0 0 1 .113.648 1.98 1.98 0 0 1 0 .377 2.17 2.17 0 0 1-.541 1.177c-.318.34-.726.581-1.177.694l1 2.471h-1.718l-.871-2.354h-.4l-.423 2.354h-1.518l1.094-6.249h2.566a2.2 2.2 0 0 1 1.482.353zm-1.071 1.4c.005-.083-.009-.166-.039-.243a.58.58 0 0 0-.137-.204.89.89 0 0 0-.541-.153h-.942l-.282 1.565h.988c.236.01.468-.061.659-.2.17-.149.283-.353.318-.577a1.49 1.49 0 0 0-.024-.188zm4.732-.422a2.11 2.11 0 0 1 .953-.212c.241-.009.481.034.705.125a1.7 1.7 0 0 1 .59.404 1.98 1.98 0 0 1 .494 1.424 3.61 3.61 0 0 1 0 .588 3.52 3.52 0 0 1-.53 1.353 2.72 2.72 0 0 1-.941.894c-.358.207-.764.317-1.177.318a1.72 1.72 0 0 1-.883-.212 1.29 1.29 0 0 1-.517-.553l-.542 3.072h-1.53l1.295-7.343h1.518l-.118.706a2.02 2.02 0 0 1 .683-.565zm1.177 2.059c.008-.127-.011-.255-.056-.375a.93.93 0 0 0-.203-.32.87.87 0 0 0-.647-.247c-.308-.002-.603.116-.824.329a1.52 1.52 0 0 0-.483.894c-.005.098-.005.196 0 .294-.007.125.011.249.053.367a.93.93 0 0 0 .194.316.9.9 0 0 0 .298.195.91.91 0 0 0 .35.064c.308-.001.604-.124.823-.341a1.49 1.49 0 0 0 .495-.906 2.45 2.45 0 0 0 0-.271zm-95.984 12.285c8.287 0 15.005-6.717 15.005-15.004a15.01 15.01 0 0 0-15.005-15.005c-8.287 0-15.004 6.718-15.004 15.005s6.718 15.004 15.005 15.004z"/></g><path d="M49.829 102.02c8.287 0 15.005-6.718 15.005-15.005s-6.718-15.005-15.005-15.005-15.005 6.718-15.005 15.005 6.718 15.005 15.005 15.005z" fill="#fbb040"/><g fill="#ff792f"><path d="M49.839 100.478a13.46 13.46 0 0 1-12.779-9.156 13.46 13.46 0 0 1 4.612-15.028c2.119-1.615 4.669-2.565 7.327-2.729a13.46 13.46 0 0 1 12.931 7.531 13.46 13.46 0 0 1 1.242 7.72c-.438 3.227-2.03 6.186-4.481 8.33s-5.596 3.327-8.852 3.332zm0-26.067c-3.043.015-5.978 1.128-8.266 3.134a12.63 12.63 0 0 0-4.185 7.787 12.59 12.59 0 0 0 13.28 14.248c2.487-.158 4.871-1.051 6.851-2.565a12.59 12.59 0 0 0 .654-19.466 12.59 12.59 0 0 0-6.663-3.02c-.566-.074-1.136-.114-1.706-.118h.035zm-.177 7.297a2.11 2.11 0 0 1 .518 1.777 2.65 2.65 0 0 1-.13.565 3.34 3.34 0 0 1-1.012 1.53 3.53 3.53 0 0 1-1.859.788l.989 3.848-2.53-.341-.836-3.648-.541-.071-1.083 3.389-2.248-.306 2.871-9.038 3.766.506a3.22 3.22 0 0 1 2.095 1zm-1.848 1.848a.8.8 0 0 0-.188-.682c-.204-.204-.477-.325-.765-.341l-1.389-.188-.718 2.26 1.389.188a1.45 1.45 0 0 0 1.024-.177c.284-.182.489-.463.577-.788l.071-.271zm7.037.329c.468-.164.968-.217 1.459-.153a2.49 2.49 0 0 1 1.014.32 2.48 2.48 0 0 1 .787.715 2.93 2.93 0 0 1 .447 2.201 5.26 5.26 0 0 1-.2.859 5.12 5.12 0 0 1-1.036 1.883c-.424.513-.965.916-1.577 1.177a3.42 3.42 0 0 1-1.777.235 2.6 2.6 0 0 1-1.247-.483c-.307-.238-.536-.562-.659-.93l-1.412 4.413-2.224-.318 3.366-10.591 2.248.306-.33 1.012c.332-.292.721-.512 1.142-.647zm1.33 3.26c.038-.185.036-.376-.004-.56a1.35 1.35 0 0 0-.231-.511 1.27 1.27 0 0 0-.894-.494 1.86 1.86 0 0 0-1.294.318 2.23 2.23 0 0 0-.883 1.177 2.14 2.14 0 0 0-.094.424 1.38 1.38 0 0 0 .224 1.059 1.27 1.27 0 0 0 .894.494 1.81 1.81 0 0 0 1.294-.329 2.19 2.19 0 0 0 .894-1.236 1.78 1.78 0 0 0 .094-.341z"/></g><path d="M84.745 48.307l-50.322-7.79c-.771-.119-1.492.409-1.612 1.179l-3.187 20.585c-.119.771.409 1.492 1.179 1.612l50.322 7.79c.771.119 1.492-.409 1.612-1.18l3.187-20.585c.119-.771-.409-1.492-1.18-1.612z" fill="#bbdbda"/><g fill="#1b8884"><path d="M81.38 72.375a1.5 1.5 0 0 1-.329 0l-50.357-7.802c-.539-.09-1.022-.386-1.347-.825s-.467-.987-.395-1.529l3.189-20.618c.087-.541.382-1.027.821-1.354s.989-.471 1.532-.399l50.415 7.791c.54.087 1.025.382 1.35.822s.466.99.391 1.532l-3.248 20.618a2.06 2.06 0 0 1-.847 1.353c-.339.257-.751.401-1.177.412zM34.2 41.189c-.153-.002-.302.048-.424.141a.66.66 0 0 0-.294.471l-3.189 20.595a.73.73 0 0 0 .612.824l50.333 7.791c.094.017.191.014.284-.008s.181-.064.257-.121.142-.129.191-.212.08-.175.091-.27l3.189-20.583c.015-.095.011-.192-.011-.286a.73.73 0 0 0-.331-.453.73.73 0 0 0-.269-.097l-50.333-7.791H34.2z"/><path d="M32.152 45.933c1.485.231 3.001-.134 4.217-1.016s2.036-2.209 2.279-3.691l-5.625-.871-.871 5.578z"/></g><g fill="#17aa83"><path d="M80.533 47.661a5.69 5.69 0 0 0 1.016 4.217 5.7 5.7 0 0 0 3.691 2.279l.871-5.625-5.578-.871zm2.869 18.619a5.69 5.69 0 0 0-4.217 1.016 5.7 5.7 0 0 0-2.279 3.691l5.649.977.847-5.684z"/></g><g fill="#1b8884"><path d="M35.035 64.549c.231-1.485-.134-3.001-1.016-4.217s-2.208-2.036-3.691-2.279l-.918 5.672 5.625.824z"/><use xlink:href="#B"/></g><g fill="#a0e8cb"><path d="M57.84 52.781c.155.178.268.39.329.618a1.55 1.55 0 0 1 .024.7c-.023.135-.054.269-.094.4a2.43 2.43 0 0 1-.777 1.106 2.5 2.5 0 0 1-1.365.553l.671 2.824-1.848-.282-.553-2.683-.388-.059-.847 2.46-1.636-.247 2.224-6.531 2.754.424a2.42 2.42 0 0 1 1.506.718zm-1.412 1.33a.59.59 0 0 0-.13-.506.83.83 0 0 0-.553-.247l-1.012-.165-.553 1.636 1.012.165c.257.057.526.015.753-.118a1.08 1.08 0 0 0 .435-.565l.047-.2zm5.143.341c.343-.107.706-.131 1.059-.071a1.8 1.8 0 0 1 .739.244c.226.134.419.316.567.533a2.2 2.2 0 0 1 .294 1.612 4.07 4.07 0 0 1-.953 1.989c-.322.36-.726.639-1.177.812a2.51 2.51 0 0 1-1.306.141 1.76 1.76 0 0 1-.906-.377 1.46 1.46 0 0 1-.471-.671l-1.094 3.201-1.659-.259 2.613-7.661 1.636.247-.259.741a2.25 2.25 0 0 1 .918-.483zm.918 2.354a1.05 1.05 0 0 0 .003-.41c-.026-.136-.079-.264-.156-.379a1.01 1.01 0 0 0-.647-.377 1.34 1.34 0 0 0-.953.224 1.66 1.66 0 0 0-.659.883 1.71 1.71 0 0 0-.082.306.99.99 0 0 0 .2.788.94.94 0 0 0 .647.377 1.34 1.34 0 0 0 .953-.224c.32-.206.558-.519.671-.883a1.52 1.52 0 0 0 .082-.259l-.059-.047z"/></g><g opacity=".2"><path opacity=".2" d="M34.504 39.895l-3.672 15.793a2.47 2.47 0 0 0 1.8 2.966l46.708 11.874 4.907-23.913-49.745-6.72z" fill="#727272"/></g><path d="M90.498 45.627L41.051 33.463a1.41 1.41 0 0 0-1.709 1.034l-4.976 20.227c-.186.757.277 1.522 1.034 1.709l49.447 12.164c.757.186 1.522-.277 1.709-1.034l4.976-20.227c.186-.757-.277-1.522-1.034-1.709z" fill="#bbdbda"/><g fill="#1b8884"><path d="M85.202 69.314c-.168.017-.338.017-.506 0L35.269 57.146a2.05 2.05 0 0 1-1.283-.941c-.144-.236-.24-.497-.282-.77s-.031-.551.035-.819l4.955-20.312c.134-.538.475-1.001.949-1.288s1.043-.374 1.581-.242l49.427 12.169c.266.063.516.179.737.341a2.05 2.05 0 0 1 .546.6 2.08 2.08 0 0 1 .247 1.589l-4.919 20.253c-.063.266-.179.516-.341.737a2.05 2.05 0 0 1-.6.546c-.336.205-.724.311-1.118.306zM40.718 34.104a.73.73 0 0 0-.706.553l-4.978 20.23c-.044.188-.015.386.082.553.105.164.27.282.459.329l49.427 12.157c.093.025.19.03.285.016s.186-.048.268-.098.154-.113.211-.19.097-.164.119-.257l4.978-20.23c.045-.188.015-.386-.082-.553-.105-.164-.269-.282-.459-.329L40.895 34.115l-.176-.012z"/><path d="M38.328 38.659c1.467.358 3.016.12 4.307-.664s2.218-2.047 2.577-3.514l-5.531-1.353-1.353 5.531z"/></g><g fill="#17aa83"><path d="M86.369 44.603a5.71 5.71 0 0 0-.102 2.221 5.68 5.68 0 0 0 .756 2.09c.387.64.896 1.198 1.499 1.642a5.7 5.7 0 0 0 2.013.943l1.365-5.531-5.531-1.365zm1.234 18.805a5.68 5.68 0 0 0-2.218-.101c-.738.113-1.448.369-2.088.756a5.68 5.68 0 0 0-1.639 1.499 5.66 5.66 0 0 0-.939 2.012l5.531 1.353 1.353-5.519z"/></g><g fill="#1b8884"><path d="M39.566 57.454a5.68 5.68 0 0 0 .101-2.218c-.113-.738-.369-1.448-.756-2.088a5.68 5.68 0 0 0-3.511-2.579l-1.353 5.519 5.519 1.365zm23.407 3.035c5.226 0 9.462-4.236 9.462-9.462s-4.236-9.462-9.462-9.462-9.462 4.236-9.462 9.462 4.236 9.462 9.462 9.462z"/></g><g fill="#bbdbda"><path d="M63.291 47.72c.134.193.224.413.265.645a1.61 1.61 0 0 1-.03.697 2 2 0 0 1-.141.4c-.183.419-.481.778-.859 1.036a2.6 2.6 0 0 1-1.412.424l.424 2.871-1.812-.447-.318-2.718-.388-.094-1.059 2.354-1.6-.4 2.789-6.308 2.695.659a2.48 2.48 0 0 1 1.447.883zm-1.495 1.177a.6.6 0 0 0-.082-.518c-.131-.166-.32-.276-.53-.306l-.989-.212-.706 1.589 1 .247c.233.067.482.045.7-.062a.97.97 0 0 0 .477-.515l.129-.224zm5.094.812a2.34 2.34 0 0 1 1.059 0 1.86 1.86 0 0 1 1.177.894 2.21 2.21 0 0 1 .153 1.624l-.212.624c-.21.486-.519.922-.906 1.283a3.12 3.12 0 0 1-1.177.706 2.46 2.46 0 0 1-1.306 0c-.327-.063-.629-.219-.871-.447-.205-.194-.348-.443-.412-.718L63.03 56.77l-1.601-.4 3.26-7.402 1.612.388-.318.718a2.35 2.35 0 0 1 .906-.365zm.706 2.483a1.01 1.01 0 0 0 .042-.409c-.014-.138-.056-.271-.124-.392a.98.98 0 0 0-.624-.435 1.36 1.36 0 0 0-.953.13 1.7 1.7 0 0 0-.741.824 2.38 2.38 0 0 0-.106.306.99.99 0 0 0 .082.788c.067.11.156.206.261.28a.95.95 0 0 0 .351.155 1.4 1.4 0 0 0 .965-.141 1.6 1.6 0 0 0 .741-.824 2.2 2.2 0 0 0 .106-.282z"/></g><g opacity=".2"><path opacity=".2" d="M68.539 39.542L75 71.399l7.332 1.2-8.85-31.857-4.943-1.2z" fill="#727272"/></g><path d="M148.409 18.657L73.605 36.051c-1.665.387-2.701 2.051-2.314 3.716l9.392 40.394c.387 1.665 2.051 2.701 3.716 2.314l74.804-17.394c1.665-.387 2.701-2.051 2.314-3.716l-9.393-40.394c-.387-1.665-2.05-2.701-3.715-2.314z" fill="#f7d3dc"/><path d="M153.087 25.13L72.254 43.926l2.647 11.382 80.834-18.796-2.647-11.382z" fill="#db284e"/><path d="M149.254 50.298l-15.406 3.582c-.848.197-1.376 1.045-1.178 1.893l1.62 6.969c.197.848 1.045 1.376 1.893 1.179l15.406-3.582a1.58 1.58 0 0 0 1.179-1.893l-1.621-6.969c-.197-.848-1.045-1.376-1.893-1.179z" fill="#fbb040"/><path d="M95.499 142.891c16.762 0 30.35-13.588 30.35-30.35S112.261 82.19 95.499 82.19s-30.351 13.588-30.351 30.351 13.588 30.35 30.351 30.35z" fill="#1b8884"/><g opacity=".2"><path opacity=".2" d="M116.424 90.568a30.34 30.34 0 0 1 3.898 20.976c-1.283 7.233-5.146 13.755-10.874 18.355a30.34 30.34 0 0 1-39.909-1.672c2.229 3.717 5.229 6.914 8.797 9.375a30.35 30.35 0 0 0 24.737 4.424 30.34 30.34 0 0 0 11.501-5.746c3.379-2.714 6.138-6.121 8.091-9.991a30.37 30.37 0 0 0 3.229-12.444 30.36 30.36 0 0 0-2.213-12.664c-1.633-4.015-4.108-7.634-7.257-10.613z" fill="#727272"/></g><path d="M93.144 125.109a3.26 3.26 0 0 1-2.212-.87L78.74 112.941a3.26 3.26 0 0 1-.813-1.028c-.199-.393-.315-.824-.343-1.264a3.26 3.26 0 0 1 .862-2.418c.3-.324.662-.583 1.065-.763a3.28 3.28 0 0 1 1.279-.282c.441-.006.879.077 1.287.245a3.26 3.26 0 0 1 1.087.732l9.779 9.062 14.652-16.194c.579-.639 1.388-1.023 2.25-1.066a3.25 3.25 0 0 1 2.345.837c.64.579 1.024 1.388 1.067 2.25s-.258 1.706-.837 2.346l-16.817 18.641a3.25 3.25 0 0 1-1.028.763 3.23 3.23 0 0 1-1.243.307h-.188z" fill="#fff"/><g fill="#f3bdca"><path d="M15.157 82.944c4.153 0 7.52-2.993 7.52-6.684s-3.367-6.684-7.52-6.684-7.52 2.993-7.52 6.684 3.367 6.684 7.52 6.684z"/><path d="M22.692 82.932c2.08 0 3.766-1.496 3.766-3.342s-1.686-3.342-3.766-3.342-3.766 1.496-3.766 3.342 1.686 3.342 3.766 3.342zm-15.055.011c2.554 0 4.625-1.839 4.625-4.107s-2.071-4.107-4.625-4.107-4.625 1.839-4.625 4.107 2.071 4.107 4.625 4.107z"/><path d="M36.411 83.896H-1s14.852-7.367 37.411 0zm136.431-37.869c3.861 0 6.99-2.782 6.99-6.214s-3.129-6.214-6.99-6.214-6.99 2.782-6.99 6.214 3.129 6.214 6.99 6.214z"/><path d="M165.851 46.026c1.93 0 3.495-1.391 3.495-3.107s-1.565-3.107-3.495-3.107-3.496 1.391-3.496 3.107 1.565 3.107 3.496 3.107zm13.98 0c2.372 0 4.295-1.707 4.295-3.813s-1.923-3.813-4.295-3.813-4.296 1.707-4.296 3.813 1.923 3.813 4.296 3.813z"/><path d="M153.672 46.508h38.329s-15.216-5.566-38.329 0z"/></g></g><defs><clipPath id="A"><path fill="#fff" transform="translate(-1 -1)" d="M0 0h193v193H0z"/></clipPath><path id="B" d="M57.782 65.562c5.226 0 9.462-4.236 9.462-9.462s-4.236-9.462-9.462-9.462-9.462 4.236-9.462 9.462 4.236 9.462 9.462 9.462z"/></defs></svg>