<svg xmlns="http://www.w3.org/2000/svg" width="72" height="21" fill="none" xmlns:v="https://vecta.io/nano"><g clip-path="url(#A)"><g clip-path="url(#B)"><g clip-path="url(#C)"><g fill="#d7244f"><path d="M7.926 6.316l.217-.044-.613 5.599c.015.436.337.75.766.75a.91.91 0 0 0 .39-.092c1.943-.935 3.145-1.236 5.137-1.735a.7.7 0 0 0 .552-.803c-.044-.346-.316-.698-.751-.698a.86.86 0 0 0-.206.026c-1.705.427-2.847.731-4.265 1.327l.121-1.125.772-.315.01-.004c1.322-.541 2.198-.9 3.768-1.323.468-.126.585-.519.545-.821-.047-.339-.315-.683-.738-.683a.81.81 0 0 0-.219.03c-1.593.431-2.475.793-3.811 1.341l-.004.002-.101.041.341-2.227c1.124-.485 2.163-.736 3.805-1.057.383-.075.606-.37.568-.75-.036-.361-.326-.745-.791-.745-.056 0-.112.006-.167.017-1.294.253-2.297.482-3.286.838a.66.66 0 0 0-.091-.115c-.077-.076-.169-.135-.27-.176s-.209-.061-.318-.06c-.286 0-.628.145-.73.553l-.053.189v.008l-.001.004-.116.433c-.2.058-.928.184-1.633.304l-.035.006-2.362.434.051-1.211.02-.644v-.02-.127l2.196-.33.02-.003.029-.004 2.876-.428a.62.62 0 0 0 .242-.093.61.61 0 0 0 .181-.184.79.79 0 0 0 .109-.619c-.091-.328-.368-.523-.74-.523a1.1 1.1 0 0 0-.149.01l-2.806.418-.042.007-1.812.275a4.73 4.73 0 0 1 .136-.621.66.66 0 0 0-.103-.611C4.49.643 4.394.568 4.285.516a.81.81 0 0 0-.35-.078.7.7 0 0 0-.438.137c-.126.094-.216.227-.255.377a6.24 6.24 0 0 0-.22 1.226l-2.303.281c-.43.044-.722.337-.722.727 0 .355.336.77.754.727l2.201-.264-.013.346-.076 1.854-.778.262c-.322.115-.552.504-.514.861.032.297.234.5.545.544a1.45 1.45 0 0 0 .54-.011l.147-.033-.021.582-.193 4.542a.65.65 0 0 0 .032.27.66.66 0 0 0 .14.234.75.75 0 0 0 .244.16.74.74 0 0 0 .288.052c.364 0 .745-.24.771-.699l.194-4.564.034-.961 3.472-.737.022-.004.137-.028zM41.647 9.1c-.044-.346-.316-.699-.752-.699a.85.85 0 0 0-.206.027c-1.791.448-3.08.79-4.583 1.415l.106-1.126.008-.003.026-.01 1.1-.456a18.55 18.55 0 0 1 2.907-1.009c.468-.127.585-.519.544-.821-.046-.339-.314-.683-.737-.683-.074 0-.147.011-.219.03-1.435.388-1.97.613-2.936 1.019l-.006.003-.103.043-.002.001-.363.152.371-2.376c.492-.204 1.027-.346 1.53-.472l1.6-.324h.003.005l.043-.007.928-.166a.66.66 0 0 0 .569-.75c-.035-.362-.326-.75-.793-.75a.87.87 0 0 0-.164.016l-1.169.203-.018.003-2.287.48a.68.68 0 0 0-.163-.26c-.156-.151-.366-.235-.585-.234-.286 0-.628.145-.73.551l-.142.663a6.03 6.03 0 0 0-.896.675.67.67 0 0 0-.195.773.84.84 0 0 0 .297.37.86.86 0 0 0 .452.154c-.333 2.106-.649 4.654-.543 5.516.054.435.371.739.772.739.133-.001.264-.032.383-.092 1.926-.927 3.382-1.292 5.398-1.796h.002c.463-.114.584-.502.547-.799zm-20.634.258l-.342 3.431c-.033.434-.419.661-.783.661a.69.69 0 0 1-.274-.048c-.087-.034-.166-.086-.231-.152a.58.58 0 0 1-.122-.211.57.57 0 0 1-.024-.242l.353-3.556h0l.003-.033.004-.037.001-.006h0v-.001h0l.244-2.368.058-.605c-.402.743-.851 1.497-1.513 1.965a.66.66 0 0 1-.38.111.71.71 0 0 1-.503-.19c-.484-.491-.858-1.121-1.173-1.977l-.018.577-.058 2.148-.004.125-.085 3.405c-.007.432-.37.658-.725.658-.098.002-.195-.015-.286-.051a.75.75 0 0 1-.244-.155.62.62 0 0 1-.135-.211.61.61 0 0 1-.04-.247l.166-6.276.225-2.788c.011-.077.016-.173.022-.266a2.93 2.93 0 0 1 .08-.606.61.61 0 0 1 .117-.283.67.67 0 0 1 .059-.064c.056-.069.126-.126.206-.167a.79.79 0 0 1 .359-.085c.271 0 .508.13.617.338a1.85 1.85 0 0 1 .081.202l.003.008.026.166.205.626.434 1.374.666 2.01.253-.383.892-1.549.504-.972.04-.08.777-1.459c.06-.106.148-.193.255-.254s.228-.091.351-.089a.79.79 0 0 1 .336.074.78.78 0 0 1 .271.209.62.62 0 0 1 .122.26c.02.095.016.193-.009.286-.112.439-.165.902-.216 1.35l-.002.013-.03.26-.278 2.684-.247 2.391-.005.051v.026z"/><path fill-rule="evenodd" d="M22.951 12.026l.803-2.638L25.9 8.322c.422 1.375.93 2.724 1.52 4.038.107.237.371.389.672.389a.8.8 0 0 0 .395-.1c.357-.206.472-.62.285-1.031-.526-1.154-1.001-2.455-1.462-3.975l.171-.081.882-.414c.314-.145.464-.435.39-.757s-.377-.654-.801-.654a.82.82 0 0 0-.347.079l-.722.337-.585-2.315-.249-.964-.099-.416-.007-.036c.046-.105.065-.219.058-.333s-.043-.224-.102-.322a.83.83 0 0 0-.297-.279c-.121-.067-.257-.104-.395-.106a.64.64 0 0 0-.381.121.99.99 0 0 0-.393.577l-.027-.007-.032.142c-.699 1.871-1.258 3.807-1.798 5.684l-.127.435-.054.028a.86.86 0 0 0-.133.058l-.143.079-.131.072-.135.069.005.013c-.108.08-.189.191-.233.317s-.047.263-.011.391a.86.86 0 0 0 .383.519l-.537 1.73c-.039.105-.051.217-.036.328s.058.216.125.306c.079.099.18.18.295.234a.84.84 0 0 0 .37.08.75.75 0 0 0 .46-.142c.133-.096.23-.233.275-.39zm1.382-4.638l.692-2.3.013.058.017.072.275 1.118.106.393.029.106-1.132.554z"/><path d="M33.079 9.959c.115-.064.244-.098.376-.099.395 0 .683.311.758.615a.68.68 0 0 1-.364.807c-.665.359-1.39.715-2.163.891-.343.087-.694.136-1.048.146-.389 0-.71-.085-.974-.258-.901-.595-.685-1.71-.51-2.611l.003-.015.006-.031.014-.07.034-.176c.439-2.415.694-4.881.802-7.762.018-.484.415-.737.797-.737a.79.79 0 0 1 .303.055c.096.038.184.095.258.167a.7.7 0 0 1 .191.527c-.084 2.224-.301 4.455-.71 7.232l-.222 1.319-.012.065-.003.018c-.042.241-.093.532-.055.738l.029.004c.279-.004.556-.044.824-.12.516-.146 1.031-.365 1.669-.707zm26.987.382h-.059c-.63 0-.969.498-.98.989-.011.472.282.995.949 1.024h.052c.632 0 .975-.497.986-.989.01-.473-.282-.995-.948-1.024z"/><g fill-rule="evenodd"><path d="M49.893 1.382c1.287.57 2.218 1.854 2.431 3.353.248 1.753-.309 3.571-1.528 4.989a6.54 6.54 0 0 1-2.231 1.681.7.7 0 0 1 .027.395.85.85 0 0 1-.137.318.86.86 0 0 1-.254.238.78.78 0 0 1-.395.109c-.263 0-.516-.137-.697-.376a1.48 1.48 0 0 1-.132-.21 5.72 5.72 0 0 1-.745.067h-.02c-.523 0-.766-.4-.77-.772-.005-.398.261-.809.782-.821l.371-.026-.02-.17c-.119-.987-.15-1.964-.165-2.79l.025-3.484c-.206-.062-.382-.195-.495-.375a.78.78 0 0 1-.039-.784 3.3 3.3 0 0 1 .387-.604c.524-.669 1.31-1.038 2.211-1.038a3.46 3.46 0 0 1 1.393.301zm-1.436 1.277a.91.91 0 0 0-.357.058h0l-.077 4.471.135 2.658A4.86 4.86 0 0 0 49.62 8.66c.896-1.075 1.332-2.537 1.111-3.723-.196-1.049-.84-1.901-1.641-2.167-.173-.068-.357-.105-.543-.112h-.091zm9.533 5.209l-.451-3.243c-.144-.742-.307-1.529-.592-2.277-.128-.337-.264-.659-.523-.892-.187-.171-.432-.268-.687-.269a.95.95 0 0 0-.384.081.94.94 0 0 0-.317.229.77.77 0 0 0-.199.376c-.029.141-.018.288.033.424v.001l.002.005c-.009.03-.019.054-.028.078l-.753 2.151-.051.152v.006l-.824 2.35c-.393.125-.496.471-.465.733.011.085.035.167.073.245l-.401 1.056c-.159.496-.343 1.229-.098 1.861.136.346.433.565.775.565a.81.81 0 0 0 .212-.028.87.87 0 0 0 .303-.162c.089-.073.162-.164.214-.266.047-.087.075-.183.082-.281s-.007-.197-.041-.289c-.125-.322.031-.764.168-1.153V9.32l.033-.092.354-.893h0 0l.009-.02.034-.081 1.925-.353.04.356.637 4.111a.72.72 0 0 0 .261.422.74.74 0 0 0 .475.157.9.9 0 0 0 .377-.085.89.89 0 0 0 .304-.235.75.75 0 0 0 .15-.318c.024-.116.02-.236-.012-.351-.326-1.334-.483-2.725-.634-4.071zm-1.777-1.41l-1.149.198.502-1.471.018-.052.043-.129.026-.077h0l.002-.005.187-.554.218 1.109.051.307.005.031.014.094.021.137.004.028.003.022v.002.001.001l.055.362z"/></g><path d="M60.84 5.567l-.011.17-.083 1.711-.001.153.001.344v.016l.008.217c.001.012.006.037.006.063v.014a.41.41 0 0 1 .004.052.79.79 0 0 0 .03.151c.07.209.13.641-.087.939-.138.184-.339.277-.606.277a1.27 1.27 0 0 1-.195-.015c-.775-.119-.775-1.123-.775-1.723v-.144l.063-1.884.019-.307.051-.739.002-.03v-.008l.059-1.013.015-1.144-.009-.235v-.05a1.61 1.61 0 0 0-.044-.243c-.034-.109-.042-.225-.021-.338a.71.71 0 0 1 .138-.31.85.85 0 0 1 .3-.232c.116-.054.244-.082.373-.08a.79.79 0 0 1 .496.158c.142.107.243.259.286.43.147.531.123 1.104.1 1.658l-.004.085-.001.018-.001.024-.004.122-.048.938-.001.011v.032l-.043.634v.015l-.017.265zm10.484-3.969a.67.67 0 0 0-.317.074.66.66 0 0 0-.243.214l-.026-.007-.058.173-1.046 2.654-.004.01-.427 1.038-1.085-1.587-.261-.37c-.102-.134-.195-.276-.278-.422l-.315-.557-.109-.219-.015-.036-.027-.08a.64.64 0 0 0-.237-.338.65.65 0 0 0-.397-.124.72.72 0 0 0-.316.07.71.71 0 0 0-.252.201.6.6 0 0 0-.082.567v.007a8.71 8.71 0 0 0 .915 1.644l.055.082.12.18.004.005 1.704 2.454c-.613 1.68-.935 3.043-1.015 4.287a.59.59 0 0 0 .029.247c.027.079.07.152.128.214a.66.66 0 0 0 .481.194c.327 0 .672-.216.698-.63.136-2.13 1.05-4.306 1.937-6.417l.012-.029.007-.017.015-.035v-.001l.818-2.009a.69.69 0 0 0 .099-.195l.066-.221.001-.004.057-.192a.58.58 0 0 0 .033-.286.59.59 0 0 0-.107-.267.7.7 0 0 0-.248-.202.71.71 0 0 0-.313-.072zm-5.541 8.161a.8.8 0 0 1 .38-.099c.4 0 .69.313.769.622.088.341-.05.647-.369.82-.623.333-1.299.666-2.021.83a4.48 4.48 0 0 1-.985.137c-.377 0-.684-.082-.939-.251-.843-.556-.659-1.576-.51-2.396v-.001l.018-.107.04-.242.747-7.367c.018-.49.419-.746.805-.746a.8.8 0 0 1 .307.056.79.79 0 0 1 .261.169.72.72 0 0 1 .154.248.71.71 0 0 1 .041.288c-.078 2.146-.297 4.399-.662 6.887l-.215 1.269-.001.003-.004.02-.005.033c-.032.191-.069.415-.053.583a2.9 2.9 0 0 0 .711-.109c.473-.134.947-.334 1.531-.649z"/></g><path d="M71.999 14.735H40.433v5.509h31.566v-5.509z" fill="#d8254f"/><g fill="#fff"><path d="M45.202 17.799a.71.71 0 0 1 .271.173.38.38 0 0 1 .08.127.37.37 0 0 1 .024.148.5.5 0 0 1-.192.397c-.129.107-.305.16-.526.16-.115.001-.23-.014-.341-.043-.09-.022-.177-.054-.259-.096a1.11 1.11 0 0 1-.181-.123.91.91 0 0 1-.107-.099l-.034-.043-.357.352.05.062a1.18 1.18 0 0 0 .152.136 2.02 2.02 0 0 0 .247.162 1.57 1.57 0 0 0 .364.138 1.83 1.83 0 0 0 .468.058c.4 0 .713-.099.94-.296.111-.095.198-.212.257-.344a.96.96 0 0 0 .083-.42.94.94 0 0 0-.105-.459.78.78 0 0 0-.271-.296c-.116-.071-.24-.13-.369-.176l-.404-.123a3.31 3.31 0 0 1-.368-.115c-.103-.037-.195-.096-.271-.173-.07-.074-.107-.172-.105-.273.001-.062.017-.123.046-.179a.39.39 0 0 1 .122-.139.69.69 0 0 1 .446-.136 1.04 1.04 0 0 1 .261.032.92.92 0 0 1 .2.073 1.07 1.07 0 0 1 .142.092c.031.022.059.046.085.074l.029.033.357-.355-.04-.049a.88.88 0 0 0-.133-.115 2 2 0 0 0-.213-.13c-.097-.05-.199-.089-.305-.115a1.55 1.55 0 0 0-.384-.048c-.361 0-.648.091-.859.274a.87.87 0 0 0-.237.307.86.86 0 0 0-.08.377.94.94 0 0 0 .105.461.78.78 0 0 0 .271.295c.116.072.24.131.369.177a3.86 3.86 0 0 0 .405.125 3.31 3.31 0 0 1 .368.115zm5.134-1.571v-.505h-2.713v.505h1.076v3.029h.561v-3.029h1.076zm3.963 2.292a.93.93 0 0 0 .211-.309.92.92 0 0 0 .071-.366v-2.122h.565v2.122a1.38 1.38 0 0 1-.111.563c-.076.178-.188.339-.33.471-.286.275-.67.428-1.069.428s-.783-.154-1.069-.428a1.4 1.4 0 0 1-.33-.471c-.076-.178-.114-.369-.111-.562v-2.123h.564v2.122a.91.91 0 0 0 .071.367.93.93 0 0 0 .211.31c.085.089.188.16.303.209a.92.92 0 0 0 .362.074c.125 0 .248-.025.362-.074a.91.91 0 0 0 .303-.209v-.002z"/><path fill-rule="evenodd" d="M59.293 15.853c-.22-.09-.457-.135-.695-.131h-1.255v3.535h1.255c.238.003.475-.041.695-.131s.42-.223.586-.392a1.73 1.73 0 0 0 .396-.569 1.71 1.71 0 0 0 0-1.352 1.73 1.73 0 0 0-.396-.569c-.166-.169-.366-.302-.586-.392zm-1.388 2.898v-2.524h.692a1.21 1.21 0 0 1 .482.091c.153.063.29.157.404.275.234.241.365.562.365.896s-.131.655-.365.896c-.114.118-.252.212-.404.275a1.21 1.21 0 0 1-.482.091h-.692z"/><path d="M62.459 15.722h.563v3.535h-.562l-.001-3.535z"/><path fill-rule="evenodd" d="M66.956 15.673c-.533 0-.981.176-1.345.527a1.81 1.81 0 0 0-.403.591c-.094.221-.142.459-.142.698s.048.477.142.698a1.81 1.81 0 0 0 .403.591c.361.352.809.528 1.345.528s.985-.176 1.348-.528c.172-.169.309-.37.403-.591s.142-.459.142-.698-.048-.477-.142-.698-.23-.422-.403-.591a1.87 1.87 0 0 0-1.348-.527zm-.124 3.138c-.31-.032-.599-.17-.817-.389a1.27 1.27 0 0 1-.291-.427 1.25 1.25 0 0 1-.095-.505c0-.307.109-.605.307-.842a1.35 1.35 0 0 1 .779-.458 1.36 1.36 0 0 1 .897.135 1.33 1.33 0 0 1 .606.666 1.31 1.31 0 0 1 .04.894 1.33 1.33 0 0 1-.545.715 1.36 1.36 0 0 1-.881.211z"/></g></g></g></g><defs><clipPath id="A"><path fill="#fff" d="M0 0h72v21H0z"/></clipPath><clipPath id="B"><path fill="#fff" d="M0 0h72v21H0z"/></clipPath><clipPath id="C"><path fill="#fff" transform="translate(0 .438)" d="M0 0h72v19.807H0z"/></clipPath></defs></svg>