<svg width="12" height="15" viewBox="0 0 12 15" fill="none" xmlns="http://www.w3.org/2000/svg">
<path d="M6.00001 0.542969C4.54184 0.544689 3.1439 1.1247 2.11282 2.15578C1.08174 3.18686 0.501726 4.58481 0.500006 6.04297C0.498259 7.23458 0.887496 8.39386 1.60801 9.34297C1.60801 9.34297 1.75801 9.54047 1.78251 9.56897L6.00001 14.543L10.2195 9.56647C10.2415 9.53997 10.392 9.34297 10.392 9.34297L10.3925 9.34147C11.1127 8.39278 11.5017 7.23403 11.5 6.04297C11.4983 4.58481 10.9183 3.18686 9.88719 2.15578C8.85612 1.1247 7.45817 0.544689 6.00001 0.542969ZM6.00001 8.04297C5.60444 8.04297 5.21776 7.92567 4.88887 7.70591C4.55997 7.48615 4.30362 7.17379 4.15225 6.80834C4.00087 6.44288 3.96126 6.04075 4.03844 5.65279C4.11561 5.26483 4.30609 4.90846 4.58579 4.62876C4.8655 4.34905 5.22186 4.15857 5.60983 4.0814C5.99779 4.00423 6.39992 4.04383 6.76537 4.19521C7.13082 4.34658 7.44318 4.60293 7.66294 4.93183C7.88271 5.26073 8.00001 5.64741 8.00001 6.04297C7.99934 6.5732 7.78842 7.08152 7.41349 7.45645C7.03856 7.83138 6.53024 8.04231 6.00001 8.04297Z" fill="#DB284E"/>
</svg>
