<svg xmlns="http://www.w3.org/2000/svg" width="16" height="19" fill="#afafaf" xmlns:v="https://vecta.io/nano"><path d="M3.556 8.56h1.778v1.747H3.556V8.56zm0 3.495h1.778v1.747H3.556v-1.747zM7.111 8.56h1.778v1.747H7.111V8.56zm0 3.495h1.778v1.747H7.111v-1.747zm3.556-3.495h1.778v1.747h-1.778V8.56zm0 3.495h1.778v1.747h-1.778v-1.747zM1.778 18.17h12.444c.98 0 1.778-.784 1.778-1.747V4.192c0-.964-.797-1.747-1.778-1.747h-1.778V.698h-1.778v1.747H5.333V.698H3.556v1.747H1.778C.797 2.445 0 3.229 0 4.192v12.231c0 .964.797 1.747 1.778 1.747zM14.222 5.94l.001 10.484H1.778V5.94h12.444z"/></svg>