<svg width="24" height="24" viewBox="0 0 24 24" fill="none" xmlns="http://www.w3.org/2000/svg">
<path d="M2.62509 20.6874H3.12509V21.1874V23.2969C3.12509 23.409 3.21605 23.5 3.32822 23.5H22.0785C22.1907 23.5 22.2816 23.409 22.2816 23.2969V23.2969V0.703125C22.2816 0.590956 22.1906 0.5 22.0785 0.5H3.32817C3.216 0.5 3.12505 0.590954 3.12505 0.703125V2.81269V3.31269H2.62505H1.92187C1.80971 3.31269 1.71875 3.40364 1.71875 3.51581C1.71875 3.62798 1.8097 3.71894 1.92187 3.71894H2.62505H3.12505V4.21894V7.07812V7.57812H2.62505H1.92187C1.8097 7.57812 1.71875 7.66908 1.71875 7.78125C1.71875 7.89342 1.8097 7.98438 1.92187 7.98438H2.62505H3.12505V8.48438V11.2971V11.7971H2.62505H1.92187C1.8097 11.7971 1.71875 11.888 1.71875 12.0002C1.71875 12.1124 1.8097 12.2033 1.92187 12.2033H2.62505H3.12505V12.7033V15.516V16.016H2.62505H1.92187C1.8097 16.016 1.71875 16.107 1.71875 16.2191C1.71875 16.3313 1.8097 16.4222 1.92187 16.4222H2.62505H3.12505V16.9222V19.7811V20.2811H2.62505H1.92187C1.8097 20.2811 1.71875 20.3721 1.71875 20.4842C1.71875 20.5964 1.8097 20.6874 1.92187 20.6874H2.62509ZM4.03134 3.31264H3.53134V2.81264V1.40625V0.90625H4.03134H6.84403H7.34403V1.40625V22.5938V23.0938H6.84403H4.03134H3.53134V22.5938V21.1874V20.6874H4.03134H4.73447C4.84664 20.6874 4.93759 20.5964 4.93759 20.4842C4.93759 20.3721 4.84664 20.2811 4.73447 20.2811H4.03134H3.53134V19.7811V16.9222V16.4222H4.03134H4.73447C4.84664 16.4222 4.93759 16.3312 4.93759 16.2191C4.93759 16.1069 4.84664 16.016 4.73447 16.016H4.03134H3.53134V15.516V12.7033V12.2033H4.03134H4.73447C4.84664 12.2033 4.93759 12.1123 4.93759 12.0001C4.93759 11.888 4.84664 11.797 4.73447 11.797H4.03134H3.53134V11.297V8.48433V7.98433H4.03134H4.73447C4.84664 7.98433 4.93759 7.89337 4.93759 7.7812C4.93759 7.66903 4.84664 7.57808 4.73447 7.57808H4.03134H3.53134V7.07808V4.21889V3.71889H4.03134H4.73447C4.84664 3.71889 4.93759 3.62794 4.93759 3.51577C4.93759 3.40359 4.84664 3.31264 4.73447 3.31264H4.03134ZM21.3754 0.90625H21.8754V1.40625V22.5938V23.0938H21.3754H8.25028H7.75028V22.5938V1.40625V0.90625H8.25028H21.3754Z" fill="black" stroke="black"/>
<rect x="10.7148" y="15.8574" width="9" height="5.14286" fill="#49A09D"/>
<path d="M10.3594 15.516H19.2657C19.654 15.516 19.9688 15.8308 19.9688 16.2191V20.4844C19.9688 20.8727 19.654 21.1875 19.2657 21.1875H10.3594C9.97106 21.1875 9.65625 20.8727 9.65625 20.4844V16.2191C9.65625 15.8308 9.97106 15.516 10.3594 15.516ZM11.0625 19.7812H18.5626V16.9222H11.0625V19.7812Z" fill="black"/>
</svg>
