<svg xmlns="http://www.w3.org/2000/svg" xmlns:xlink="http://www.w3.org/1999/xlink" width="164" height="164" fill="none" xmlns:v="https://vecta.io/nano"><g clip-path="url(#A)"><path d="M82.281 3.19a78.81 78.81 0 0 0-56.978 24.798A78.81 78.81 0 0 0 4.006 86.364a78.81 78.81 0 0 0 27.624 55.663 78.8 78.8 0 0 0 27.801 15.27 78.81 78.81 0 0 0 31.57 3.073c4.586-.499 9.119-1.396 13.55-2.68a78.36 78.36 0 0 0 16.45-6.88 79.56 79.56 0 0 0 10.57-7.09 78.8 78.8 0 0 0 25.381-87.811c-5.422-15.459-15.527-28.844-28.911-38.292A78.8 78.8 0 0 0 82.281 3.19z" fill="#fceff2"/><g fill="#eb92a7"><use xlink:href="#B"/><path d="M139.279 135.42c3.822 0 6.92-2.977 6.92-6.65s-3.098-6.65-6.92-6.65-6.92 2.977-6.92 6.65 3.099 6.65 6.92 6.65z"/></g><path d="M111.62 135.42c4.695 0 8.5-3.658 8.5-8.17s-3.805-8.17-8.5-8.17-8.5 3.658-8.5 8.17 3.806 8.17 8.5 8.17z" fill="#a0e8cb"/><g fill="#eb92a7"><path d="M163.369 136.46h-75.84s30.11-11.94 75.84 0zM40.39 135.42c7.638 0 13.83-5.959 13.83-13.31s-6.192-13.31-13.83-13.31-13.83 5.959-13.83 13.31 6.192 13.31 13.83 13.31z"/></g><path d="M54.22 135.42c3.822 0 6.92-2.977 6.92-6.65s-3.098-6.65-6.92-6.65-6.92 2.977-6.92 6.65 3.098 6.65 6.92 6.65z" fill="#a0e8cb"/><g fill="#eb92a7"><path d="M26.56 135.42c4.694 0 8.5-3.658 8.5-8.17s-3.806-8.17-8.5-8.17-8.5 3.658-8.5 8.17 3.806 8.17 8.5 8.17z"/><path d="M78.311 136.46H2.471s30.11-11.94 75.84 0z"/></g><path d="M125.21 88.66H40c-1.86 0-3.05 2-2.67 4.4L44 136.31a3.58 3.58 0 0 0 3.27 3.1l13.92.91a328.63 328.63 0 0 0 42.8 0l13.92-.91a3.58 3.58 0 0 0 2.184-.971c.596-.564.979-1.316 1.086-2.129l6.72-43.25c.36-2.41-.83-4.4-2.69-4.4z" fill="#db284e"/><g opacity=".1"><path opacity=".1" d="M37.28 93.06l15.53.07s.37 29.72 29.87 47.89c0 0-17.26-.06-35.42-1.61a3.6 3.6 0 0 1-3.27-3.1l-.45-2.94-6.26-40.31z" fill="#231f20"/></g><g fill="#fceff2"><path d="M53.06 134.91c-.902-.061-1.754-.436-2.407-1.061s-1.065-1.461-1.163-2.359l-4.06-30c-.33-2.43 1-4.44 3-4.44s3.82 2 4.08 4.44l3.28 30a2.87 2.87 0 0 1-.029 1.234 2.88 2.88 0 0 1-.545 1.108 2.87 2.87 0 0 1-.96.776 2.88 2.88 0 0 1-1.197.302zm11.81 0a3.64 3.64 0 0 1-3.41-3.42l-2.59-30c-.21-2.43 1.23-4.44 3.22-4.44 2 0 3.72 2 3.87 4.44l1.81 30c.059.419.029.846-.088 1.253a3 3 0 0 1-.594 1.108 3.01 3.01 0 0 1-2.217 1.059zm11.81 0a3.42 3.42 0 0 1-3.24-3.42l-1.12-30c-.09-2.43 1.44-4.44 3.43-4.44 2 0 3.62 2 3.65 4.44l.35 30a3.23 3.23 0 0 1-.821 2.351 3.21 3.21 0 0 1-1.018.76 3.25 3.25 0 0 1-1.232.309zm11.811 0a3.22 3.22 0 0 1-1.234-.306c-.387-.183-.733-.442-1.019-.76s-.505-.691-.646-1.095a3.22 3.22 0 0 1-.172-1.259l.34-30c0-2.43 1.66-4.44 3.65-4.44 2 0 3.52 2 3.43 4.44l-1.12 30a3.42 3.42 0 0 1-3.23 3.42zm11.799 0a3.01 3.01 0 0 1-2.218-1.059 3 3 0 0 1-.682-2.361l1.82-30c.14-2.43 1.88-4.44 3.86-4.44 2 0 3.43 2 3.22 4.44l-2.59 30c-.05.889-.425 1.729-1.054 2.359a3.63 3.63 0 0 1-2.356 1.061zm11.81 0c-.416-.014-.823-.118-1.195-.305s-.698-.452-.957-.777a2.89 2.89 0 0 1-.578-2.338l3.28-30c.27-2.43 2.1-4.44 4.08-4.44 2 0 3.33 2 3 4.44l-4 30c-.105.906-.527 1.747-1.191 2.373a3.87 3.87 0 0 1-2.439 1.047z"/></g><path d="M130.1 82.981H35.25a1.55 1.55 0 0 0-1.55 1.55v7.08a1.55 1.55 0 0 0 1.55 1.55h94.85a1.55 1.55 0 0 0 1.55-1.55v-7.08a1.55 1.55 0 0 0-1.55-1.55z" fill="#f4cdc1"/><g opacity=".1"><path opacity=".1" d="M47.36 83.22v10.17l-12.18-.23a1.48 1.48 0 0 1-1.48-1.48v-7.23A1.47 1.47 0 0 1 35.18 83l12.18.22z" fill="#231f20"/></g><g fill="#f29372"><path d="M39.211 118.5a2.41 2.41 0 0 1-1.35-.41c-.276-.177-.514-.407-.7-.677a2.5 2.5 0 0 1-.387-.894 2.49 2.49 0 0 1-.014-.974 2.48 2.48 0 0 1 .361-.905L55.001 87a2.5 2.5 0 0 1 4.2 2.71l-17.88 27.64c-.228.352-.541.642-.909.843a2.52 2.52 0 0 1-1.201.307zm86.929 0a2.49 2.49 0 0 1-1.197-.307 2.5 2.5 0 0 1-.903-.843l-17.92-27.69c-.34-.557-.449-1.224-.303-1.86a2.5 2.5 0 0 1 2.933-1.893c.639.129 1.202.504 1.57 1.042l17.92 27.69c.178.275.301.583.36.905s.055.654-.014.974a2.51 2.51 0 0 1-.386.894 2.48 2.48 0 0 1-.7.677c-.403.27-.876.412-1.36.41z"/></g><g fill="#f3bdca"><path d="M43.03 141.01c4.794 0 8.68-4.097 8.68-9.15s-3.886-9.15-8.68-9.15-8.68 4.097-8.68 9.15 3.886 9.15 8.68 9.15z"/><path d="M34.35 141.01c2.91 0 5.27-2.095 5.27-4.68s-2.36-4.68-5.27-4.68-5.27 2.096-5.27 4.68 2.359 4.68 5.27 4.68z"/><path d="M66.46 141.61h-47s18.62-6.84 47 0z"/><path d="M53.01 140.66c4.584 0 8.3-3.304 8.3-7.38s-3.716-7.38-8.3-7.38-8.3 3.305-8.3 7.38 3.716 7.38 8.3 7.38z"/><path d="M61.31 140.659c2.292 0 4.15-1.652 4.15-3.69s-1.858-3.69-4.15-3.69-4.15 1.652-4.15 3.69 1.858 3.69 4.15 3.69zm-16.601.001c2.817 0 5.1-2.029 5.1-4.53s-2.283-4.53-5.1-4.53-5.1 2.028-5.1 4.53 2.283 4.53 5.1 4.53z"/><path d="M75.3 141.45H29.77s18.07-6.62 45.53 0zm41.49-.63c4.098 0 7.42-3.21 7.42-7.17s-3.322-7.17-7.42-7.17-7.42 3.211-7.42 7.17 3.322 7.17 7.42 7.17z"/><path d="M109.36 140.82c2.098 0 3.8-1.643 3.8-3.67s-1.702-3.67-3.8-3.67-3.8 1.644-3.8 3.67 1.701 3.67 3.8 3.67z"/><path d="M132.5 141.29H98.59s13.46-5.36 33.91 0z"/><path d="M126.82 140.839c3.303 0 5.98-2.587 5.98-5.78s-2.677-5.78-5.98-5.78-5.98 2.588-5.98 5.78 2.677 5.78 5.98 5.78z"/><path d="M132.81 140.84c1.652 0 2.99-1.294 2.99-2.89s-1.338-2.89-2.99-2.89-2.99 1.293-2.99 2.89 1.339 2.89 2.99 2.89zm-11.97 0c2.033 0 3.68-1.589 3.68-3.55s-1.647-3.55-3.68-3.55-3.68 1.59-3.68 3.55 1.648 3.55 3.68 3.55z"/><path d="M143.23 141.29h-32.81s13.02-5.19 32.81 0zm-.91-80.06c5.573 0 10.09-4.012 10.09-8.96s-4.517-8.96-10.09-8.96-10.09 4.011-10.09 8.96 4.518 8.96 10.09 8.96z"/><path d="M132.23 61.23c2.789 0 5.05-2.006 5.05-4.48s-2.261-4.48-5.05-4.48-5.05 2.006-5.05 4.48 2.261 4.48 5.05 4.48zm20.18.011c3.424 0 6.2-2.467 6.2-5.51s-2.776-5.51-6.2-5.51-6.2 2.467-6.2 5.51 2.776 5.51 6.2 5.51z"/><path d="M113.82 62.52H164s-19.92-9.88-50.18 0zM31.1 35.47c5.329 0 9.65-3.837 9.65-8.57s-4.321-8.57-9.65-8.57-9.65 3.837-9.65 8.57 4.32 8.57 9.65 8.57z"/><path d="M40.75 35.48c2.662 0 4.82-1.921 4.82-4.29s-2.158-4.29-4.82-4.29-4.82 1.921-4.82 4.29 2.158 4.29 4.82 4.29zm-19.3 0c3.275 0 5.93-2.359 5.93-5.27s-2.655-5.27-5.93-5.27-5.93 2.36-5.93 5.27 2.655 5.27 5.93 5.27z"/><path d="M57.561 36.14H4.641s21.01-7.69 52.92 0z"/></g><g fill="#db284e"><path d="M31.1 79.911l-17.25-10.01 4.51-4.68 12.74 14.69zm1.711-2.45l-7.58-12.65 4.59-1.42 2.99 14.07zM29.02 82.46l-11.31-.36.99-3.55 10.32 3.91z"/></g><g fill="#fff"><path d="M76.271 33s6.65-5.56 8.89-.52 1 9.64-.62 11.4-4.85 3.88-4.68 8l.18 6.26a.64.64 0 0 0 .6.63l3.84.38a1.62 1.62 0 0 0 1.78-1.66c-.05-2.54.39-7 3.82-9.17 4.92-3.05 9.921-14.14 2.81-23.18-5.14-6.51-16.25-8.51-24.62-1.28a4 4 0 0 0 0 4.55c1.64 2.39 3.66 7.59 8 4.59zm8.051 39.72c2.23-.432 3.634-2.862 3.137-5.428s-2.708-4.295-4.938-3.862-3.634 2.863-3.137 5.428 2.708 4.295 4.938 3.862zm20.839-24.01s6-1.56 5.91 2.39-2.31 6.54-3.9 7.18-4.32 1-5.48 3.77l-1.8 4.1a.47.47 0 0 0 .2.6l2.36 1.42c.141.085.299.139.463.158a1.16 1.16 0 0 0 .487-.047c.157-.05.301-.133.424-.244a1.16 1.16 0 0 0 .286-.397c.74-1.66 2.4-4.42 5.28-4.77 4.14-.5 10.78-6.14 8.93-14.17-1.33-5.78-7.9-10.48-15.53-8.37-.518.291-.931.737-1.183 1.275a2.84 2.84 0 0 0-.217 1.725c.34 2 .06 5.97 3.77 5.38zm-3.401 25.874c.471-1.812-.426-3.613-2.003-4.023s-3.237.727-3.708 2.54.426 3.613 2.003 4.023 3.237-.727 3.708-2.54zM52.851 50.25s3.45-5.15 6-2.13 2.62 6.42 1.85 8-2.55 3.64-1.6 6.46l1.38 4.26a.46.46 0 0 0 .54.32l2.71-.51a1.16 1.16 0 0 0 .89-1.5c-.54-1.73-1.14-4.89.79-7.06 2.76-3.13 4-11.75-2.72-16.53-4.83-3.45-12.86-2.6-17.17 4a2.82 2.82 0 0 0 .9 3.13c1.58 1.31 4.04 4.46 6.43 1.56zm13.532 25.991c1.452-.739 1.94-2.691 1.09-4.36s-2.715-2.421-4.167-1.682-1.94 2.691-1.09 4.36 2.715 2.421 4.167 1.682z"/></g></g><defs><clipPath id="A"><path fill="#fff" d="M0 0h164v164H0z"/></clipPath><path id="B" d="M125.45 135.42c7.638 0 13.83-5.959 13.83-13.31s-6.192-13.31-13.83-13.31-13.83 5.959-13.83 13.31 6.192 13.31 13.83 13.31z"/></defs></svg>