<svg width="258" height="258" viewBox="0 0 258 258" fill="none" xmlns="http://www.w3.org/2000/svg">
<g clip-path="url(#clip0_27551_477951)">
<path d="M128.441 5.03097C95.5624 5.17922 64.0893 18.3824 40.9455 41.7359C17.8016 65.0895 4.88279 96.6803 5.03105 129.559C5.1793 162.438 18.3825 193.911 41.736 217.055C65.0895 240.198 96.6804 253.117 129.559 252.969C133.782 252.968 138.003 252.738 142.201 252.281C149.417 251.482 156.547 250.043 163.508 247.981C192.161 239.598 216.826 221.156 232.972 196.045C249.118 170.933 255.659 140.838 251.395 111.29C247.13 81.7419 232.345 54.7252 209.757 35.2043C187.169 15.6833 158.295 4.96932 128.441 5.03097Z" fill="#FCEFF2"/>
<path d="M193.328 208.163C205.344 208.163 215.086 198.787 215.086 187.222C215.086 175.656 205.344 166.281 193.328 166.281C181.311 166.281 171.57 175.656 171.57 187.222C171.57 198.787 181.311 208.163 193.328 208.163Z" fill="#EB92A7"/>
<path d="M215.086 208.163C221.094 208.163 225.965 203.475 225.965 197.693C225.965 191.91 221.094 187.222 215.086 187.222C209.078 187.222 204.207 191.91 204.207 197.693C204.207 203.475 209.078 208.163 215.086 208.163Z" fill="#EB92A7"/>
<path d="M171.57 208.163C178.956 208.163 184.943 202.407 184.943 195.306C184.943 188.205 178.956 182.449 171.57 182.449C164.184 182.449 158.197 188.205 158.197 195.306C158.197 202.407 164.184 208.163 171.57 208.163Z" fill="#A0E8CB"/>
<path d="M252.969 209.797H133.666C133.666 209.797 181.03 191.006 252.969 209.797Z" fill="#EB92A7"/>
<path d="M64.6721 208.163C76.6887 208.163 86.4301 198.787 86.4301 187.222C86.4301 175.656 76.6887 166.281 64.6721 166.281C52.6555 166.281 42.9141 175.656 42.9141 187.222C42.9141 198.787 52.6555 208.163 64.6721 208.163Z" fill="#EB92A7"/>
<path d="M86.4303 208.163C92.4386 208.163 97.3093 203.475 97.3093 197.693C97.3093 191.91 92.4386 187.222 86.4303 187.222C80.422 187.222 75.5513 191.91 75.5513 197.693C75.5513 203.475 80.422 208.163 86.4303 208.163Z" fill="#A0E8CB"/>
<path d="M42.9143 208.163C50.3 208.163 56.2873 202.407 56.2873 195.306C56.2873 188.205 50.3 182.449 42.9143 182.449C35.5286 182.449 29.5413 188.205 29.5413 195.306C29.5413 202.407 35.5286 208.163 42.9143 208.163Z" fill="#EB92A7"/>
<path d="M124.334 209.797H5.03076C5.03076 209.797 52.3738 191.006 124.334 209.797Z" fill="#EB92A7"/>
<path d="M210.098 154.52H177.439L165.679 135.299H197.499C198.612 135.293 199.708 135.575 200.68 136.117C201.652 136.66 202.467 137.445 203.046 138.395L211.431 152.112C211.581 152.35 211.665 152.624 211.673 152.905C211.681 153.187 211.614 153.465 211.477 153.711C211.341 153.957 211.141 154.162 210.898 154.305C210.656 154.447 210.379 154.522 210.098 154.52Z" fill="#E0AC69"/>
<path d="M174.305 135.285L60.5913 135.126C58.8933 135.123 57.5149 136.498 57.5126 138.196L57.4075 213.424C57.4051 215.122 58.7797 216.501 60.4777 216.503L174.191 216.662C175.889 216.664 177.268 215.29 177.27 213.592L177.375 138.363C177.377 136.665 176.003 135.287 174.305 135.285Z" fill="#E0AC69"/>
<path d="M93.396 135.278H198.187C199.282 135.278 200.332 135.713 201.106 136.487C201.88 137.261 202.315 138.311 202.315 139.406V212.506C202.315 213.601 201.88 214.651 201.106 215.425C200.332 216.199 199.282 216.634 198.187 216.634H93.396V135.278Z" fill="#F7CD97"/>
<path d="M81.4681 135.177L67.5791 135.157L67.5677 143.327L81.4567 143.347L81.4681 135.177Z" fill="#F1C27D"/>
<path d="M81.6571 208.271H67.7681V216.441H81.6571V208.271Z" fill="#F1C27D"/>
<path d="M47.1497 154.391H80.2812C80.5464 154.389 80.8067 154.32 81.0392 154.193C81.2718 154.065 81.4692 153.882 81.6142 153.66L92.9662 135.213H59.4477C58.8525 135.211 58.2668 135.362 57.7471 135.652C57.2274 135.942 56.7912 136.361 56.4807 136.869L46.4617 153.144C46.3854 153.268 46.3432 153.409 46.3396 153.554C46.336 153.699 46.371 153.842 46.441 153.969C46.511 154.096 46.6136 154.202 46.7381 154.276C46.8627 154.35 47.0047 154.39 47.1497 154.391Z" fill="#F1C27D"/>
<path d="M133.128 189.673C133.128 188.921 132.978 188.147 132.827 187.394C132.763 187.118 132.593 186.879 132.354 186.728C131.473 186.319 130.548 185.997 129.688 185.61C129.006 185.333 128.351 184.995 127.732 184.599C127.072 184.2 126.585 183.568 126.366 182.829C126.147 182.089 126.213 181.294 126.549 180.6C126.889 179.855 127.284 179.136 127.732 178.45C128.119 177.805 128.549 177.182 128.936 176.537C129.063 176.346 129.131 176.121 129.131 175.892C129.131 175.662 129.063 175.437 128.936 175.247C128.506 174.559 128.054 173.871 127.646 173.097C127.23 172.451 126.864 171.776 126.549 171.076C126.224 170.376 126.172 169.581 126.403 168.846C126.634 168.11 127.13 167.487 127.796 167.098C128.74 166.589 129.717 166.143 130.72 165.765C130.978 165.646 131.244 165.545 131.516 165.464C131.985 165.348 132.398 165.067 132.678 164.672C132.958 164.278 133.087 163.796 133.042 163.314C133.042 162.304 133.042 161.293 133.214 160.283C133.224 159.744 133.36 159.215 133.612 158.739C133.864 158.263 134.224 157.853 134.663 157.541C135.102 157.229 135.608 157.025 136.141 156.945C136.674 156.865 137.218 156.911 137.729 157.079C138.847 157.316 139.879 157.595 141.04 157.918C141.371 158.044 141.735 158.053 142.071 157.943C142.407 157.834 142.696 157.612 142.889 157.316C143.216 156.853 143.568 156.408 143.943 155.983C144.318 155.57 144.713 155.176 145.125 154.8C145.451 154.38 145.868 154.041 146.345 153.807C146.822 153.573 147.346 153.452 147.877 153.452C148.408 153.452 148.932 153.573 149.409 153.807C149.886 154.041 150.304 154.38 150.629 154.8C151.308 155.454 151.92 156.175 152.457 156.95C152.714 157.435 153.147 157.802 153.666 157.978C154.186 158.154 154.753 158.125 155.252 157.896C156.271 157.54 157.322 157.281 158.391 157.122C158.879 157.002 159.388 156.994 159.879 157.099C160.371 157.203 160.832 157.417 161.229 157.725C161.626 158.034 161.949 158.428 162.172 158.878C162.395 159.328 162.514 159.823 162.519 160.326C162.63 161.347 162.688 162.373 162.691 163.4C162.675 163.888 162.826 164.367 163.12 164.758C163.413 165.149 163.83 165.428 164.303 165.55C165.135 165.817 165.953 166.125 166.754 166.475C167.343 166.624 167.884 166.92 168.327 167.336C168.769 167.751 169.1 168.272 169.287 168.85C169.473 169.427 169.511 170.043 169.395 170.639C169.279 171.235 169.014 171.792 168.625 172.258C168.152 173.075 167.636 173.871 167.098 174.623C166.807 174.965 166.648 175.4 166.648 175.849C166.648 176.298 166.807 176.732 167.098 177.074C167.671 177.891 168.209 178.73 168.711 179.59C168.989 180.044 169.199 180.536 169.334 181.052C169.523 181.699 169.49 182.392 169.24 183.019C168.991 183.646 168.54 184.171 167.958 184.513C167.005 185.045 166.013 185.505 164.991 185.889C164.76 185.984 164.523 186.063 164.282 186.126C163.778 186.252 163.337 186.557 163.04 186.984C162.744 187.411 162.612 187.931 162.669 188.448C162.673 189.417 162.622 190.386 162.519 191.35C162.516 191.901 162.382 192.443 162.127 192.93C161.872 193.418 161.504 193.838 161.053 194.154C160.602 194.47 160.082 194.673 159.537 194.746C158.991 194.82 158.436 194.761 157.918 194.575C156.821 194.339 155.768 194.038 154.693 193.737C154.362 193.615 153.999 193.608 153.664 193.717C153.328 193.826 153.039 194.045 152.844 194.339C152.224 195.186 151.557 195.997 150.844 196.768C150.361 197.304 149.786 197.748 149.146 198.08C148.591 198.367 147.96 198.471 147.342 198.379C146.724 198.286 146.152 198.001 145.706 197.564C144.94 196.829 144.221 196.046 143.556 195.22C143.212 194.812 142.889 194.403 142.524 193.995C142.402 193.839 142.237 193.722 142.05 193.661C141.862 193.6 141.66 193.596 141.47 193.651L138.654 194.382C138.224 194.489 137.772 194.575 137.342 194.64C136.881 194.739 136.403 194.739 135.941 194.641C135.48 194.543 135.044 194.349 134.662 194.071C134.281 193.793 133.962 193.438 133.727 193.028C133.493 192.618 133.347 192.164 133.3 191.694C133.3 191.028 133.15 190.361 133.085 189.673H133.128Z" fill="#E0AC69"/>
<path d="M156.262 168.753C156.253 168.981 156.199 169.205 156.103 169.411C156.007 169.618 155.871 169.804 155.703 169.957C151.403 174.458 147.103 178.959 142.803 183.459L142.201 184.104C142.068 184.255 141.907 184.377 141.726 184.464C141.545 184.551 141.349 184.601 141.149 184.611C140.948 184.621 140.748 184.59 140.56 184.522C140.371 184.453 140.198 184.348 140.051 184.212C139.768 183.926 139.608 183.539 139.608 183.137C139.608 182.734 139.768 182.348 140.051 182.062L149.339 172.365L153.639 167.829C153.813 167.629 154.037 167.48 154.287 167.396C154.538 167.312 154.807 167.297 155.066 167.351C155.324 167.406 155.564 167.529 155.759 167.708C155.954 167.886 156.098 168.113 156.176 168.366C156.212 168.493 156.241 168.623 156.262 168.753Z" fill="#F7CD97"/>
<path d="M146.2 169.678C146.196 170.644 145.905 171.588 145.364 172.388C144.823 173.189 144.057 173.811 143.162 174.176C142.268 174.541 141.285 174.632 140.338 174.437C139.392 174.243 138.524 173.772 137.846 173.085C137.167 172.397 136.708 171.523 136.526 170.574C136.344 169.625 136.448 168.644 136.825 167.754C137.202 166.864 137.834 166.106 138.642 165.576C139.449 165.046 140.396 164.768 141.362 164.776C142.65 164.799 143.877 165.324 144.781 166.241C145.685 167.157 146.194 168.391 146.2 169.678ZM141.276 167.7C140.788 167.706 140.321 167.902 139.975 168.248C139.63 168.594 139.433 169.061 139.427 169.549C139.433 170.046 139.631 170.521 139.98 170.874C140.329 171.227 140.802 171.43 141.298 171.441C141.789 171.425 142.255 171.223 142.603 170.876C142.95 170.528 143.152 170.062 143.168 169.571C143.163 169.073 142.961 168.597 142.607 168.247C142.253 167.897 141.775 167.7 141.276 167.7Z" fill="#F7CD97"/>
<path d="M154.262 187.05C153.3 187.058 152.357 186.782 151.551 186.255C150.745 185.729 150.113 184.976 149.734 184.091C149.355 183.206 149.246 182.229 149.421 181.283C149.596 180.336 150.047 179.463 150.717 178.772C151.387 178.081 152.247 177.603 153.187 177.4C154.128 177.196 155.108 177.275 156.004 177.626C156.9 177.978 157.672 178.587 158.222 179.376C158.773 180.165 159.079 181.1 159.1 182.062C159.117 183.364 158.618 184.62 157.711 185.555C156.805 186.49 155.564 187.027 154.262 187.05ZM154.262 184.04C154.636 184.053 155.004 183.954 155.321 183.755C155.637 183.556 155.887 183.268 156.038 182.926C156.189 182.584 156.234 182.205 156.167 181.838C156.101 181.47 155.926 181.131 155.665 180.863C155.404 180.596 155.069 180.413 154.703 180.338C154.337 180.263 153.957 180.299 153.612 180.442C153.267 180.585 152.972 180.828 152.766 181.139C152.56 181.451 152.452 181.817 152.456 182.191C152.487 182.643 152.68 183.068 153 183.389C153.32 183.709 153.746 183.902 154.198 183.932L154.262 184.04Z" fill="#F7CD97"/>
<path d="M65.1234 216.505C72.6635 216.505 78.7759 210.055 78.7759 202.1C78.7759 194.144 72.6635 187.695 65.1234 187.695C57.5834 187.695 51.4709 194.144 51.4709 202.1C51.4709 210.055 57.5834 216.505 65.1234 216.505Z" fill="#F3BDCA"/>
<path d="M78.4536 216.505C82.1821 216.505 85.2046 213.82 85.2046 210.507C85.2046 207.194 82.1821 204.508 78.4536 204.508C74.7252 204.508 71.7026 207.194 71.7026 210.507C71.7026 213.82 74.7252 216.505 78.4536 216.505Z" fill="#B6EFDA"/>
<path d="M51.4494 216.505C56.0328 216.505 59.7484 213.203 59.7484 209.13C59.7484 205.057 56.0328 201.756 51.4494 201.756C46.866 201.756 43.1504 205.057 43.1504 209.13C43.1504 213.203 46.866 216.505 51.4494 216.505Z" fill="#F3BDCA"/>
<path d="M101.953 217.429H27.95C27.95 217.429 57.3405 206.679 101.953 217.429Z" fill="#F3BDCA"/>
<path d="M80.8183 215.946C88.0378 215.946 93.8903 210.748 93.8903 204.336C93.8903 197.924 88.0378 192.726 80.8183 192.726C73.5989 192.726 67.7463 197.924 67.7463 204.336C67.7463 210.748 73.5989 215.946 80.8183 215.946Z" fill="#F3BDCA"/>
<path d="M93.869 215.946C97.4787 215.946 100.405 213.347 100.405 210.141C100.405 206.935 97.4787 204.336 93.869 204.336C90.2593 204.336 87.333 206.935 87.333 210.141C87.333 213.347 90.2593 215.946 93.869 215.946Z" fill="#F3BDCA"/>
<path d="M67.7463 215.946C72.1753 215.946 75.7658 212.75 75.7658 208.808C75.7658 204.866 72.1753 201.67 67.7463 201.67C63.3173 201.67 59.7268 204.866 59.7268 208.808C59.7268 212.75 63.3173 215.946 67.7463 215.946Z" fill="#F3BDCA"/>
<path d="M115.885 217.15H44.2471C44.2471 217.15 72.6916 206.787 115.885 217.15Z" fill="#F3BDCA"/>
<path d="M181.137 216.204C187.585 216.204 192.812 211.15 192.812 204.917C192.812 198.683 187.585 193.629 181.137 193.629C174.69 193.629 169.463 198.683 169.463 204.917C169.463 211.15 174.69 216.204 181.137 216.204Z" fill="#F3BDCA"/>
<path d="M188.92 216.182C191.604 216.182 193.779 214.084 193.779 211.495C193.779 208.907 191.604 206.808 188.92 206.808C186.237 206.808 184.061 208.907 184.061 211.495C184.061 214.084 186.237 216.182 188.92 216.182Z" fill="#B6EFDA"/>
<path d="M169.463 216.182C172.764 216.182 175.44 213.603 175.44 210.42C175.44 207.238 172.764 204.658 169.463 204.658C166.162 204.658 163.486 207.238 163.486 210.42C163.486 213.603 166.162 216.182 169.463 216.182Z" fill="#F3BDCA"/>
<path d="M205.862 216.935H152.521C152.521 216.935 173.698 208.55 205.862 216.935Z" fill="#F3BDCA"/>
<path d="M196.94 216.225C202.141 216.225 206.357 212.154 206.357 207.131C206.357 202.108 202.141 198.036 196.94 198.036C191.739 198.036 187.523 202.108 187.523 207.131C187.523 212.154 191.739 216.225 196.94 216.225Z" fill="#F3BDCA"/>
<path d="M206.335 216.204C208.936 216.204 211.044 214.173 211.044 211.667C211.044 209.162 208.936 207.131 206.335 207.131C203.735 207.131 201.627 209.162 201.627 211.667C201.627 214.173 203.735 216.204 206.335 216.204Z" fill="#F3BDCA"/>
<path d="M187.523 216.226C190.717 216.226 193.306 213.723 193.306 210.636C193.306 207.548 190.717 205.046 187.523 205.046C184.329 205.046 181.739 207.548 181.739 210.636C181.739 213.723 184.329 216.226 187.523 216.226Z" fill="#F3BDCA"/>
<path d="M222.74 216.935H171.14C171.14 216.935 191.608 208.786 222.74 216.935Z" fill="#F3BDCA"/>
<path d="M218.01 96.3414C226.346 96.3414 233.103 90.0268 233.103 82.2374C233.103 74.448 226.346 68.1334 218.01 68.1334C209.674 68.1334 202.917 74.448 202.917 82.2374C202.917 90.0268 209.674 96.3414 218.01 96.3414Z" fill="#F3BDCA"/>
<path d="M202.917 96.3415C207.085 96.3415 210.464 93.1842 210.464 89.2895C210.464 85.3948 207.085 82.2375 202.917 82.2375C198.749 82.2375 195.371 85.3948 195.371 89.2895C195.371 93.1842 198.749 96.3415 202.917 96.3415Z" fill="#F3BDCA"/>
<path d="M233.082 96.3415C238.199 96.3415 242.348 92.4623 242.348 87.677C242.348 82.8917 238.199 79.0125 233.082 79.0125C227.964 79.0125 223.815 82.8917 223.815 87.677C223.815 92.4623 227.964 96.3415 233.082 96.3415Z" fill="#F3BDCA"/>
<path d="M175.397 98.3409H250.41C250.41 98.3409 220.633 82.8179 175.397 98.3409Z" fill="#F3BDCA"/>
<path d="M53.2342 55.7924C61.6173 55.7924 68.4132 49.757 68.4132 42.3119C68.4132 34.8668 61.6173 28.8314 53.2342 28.8314C44.851 28.8314 38.0552 34.8668 38.0552 42.3119C38.0552 49.757 44.851 55.7924 53.2342 55.7924Z" fill="#F3BDCA"/>
<path d="M68.413 55.8139C72.6045 55.8139 76.0025 52.7914 76.0025 49.0629C76.0025 45.3344 72.6045 42.3119 68.413 42.3119C64.2214 42.3119 60.8235 45.3344 60.8235 49.0629C60.8235 52.7914 64.2214 55.8139 68.413 55.8139Z" fill="#F3BDCA"/>
<path d="M38.0549 55.7925C43.2083 55.7925 47.3859 52.0865 47.3859 47.515C47.3859 42.9435 43.2083 39.2375 38.0549 39.2375C32.9015 39.2375 28.7239 42.9435 28.7239 47.515C28.7239 52.0865 32.9015 55.7925 38.0549 55.7925Z" fill="#F3BDCA"/>
<path d="M94.8581 56.8459H11.6316C11.6316 56.8459 44.6771 44.7629 94.8581 56.8459Z" fill="#F3BDCA"/>
<path d="M51.6428 131.687L24.5098 115.928L31.6048 108.553L51.6428 131.687Z" fill="#DB284E"/>
<path d="M54.3307 127.817L42.3982 107.93L49.6222 105.694L54.3307 127.817Z" fill="#DB284E"/>
<path d="M48.3752 135.708L30.5732 135.127L32.1427 129.537L48.3752 135.708Z" fill="#DB284E"/>
<path d="M132.849 101.308H125.41C124.477 101.195 123.621 100.733 123.015 100.015C122.409 99.2972 122.097 98.3764 122.142 97.4379L118.852 38.2914C118.702 35.6899 120.4 33.5399 122.55 33.8409L138.267 35.9909C139.239 36.2635 140.077 36.8868 140.617 37.7405C141.157 38.5942 141.361 39.6177 141.191 40.6134L136.095 97.6099C136.107 98.5185 135.781 99.3992 135.182 100.082C134.582 100.765 133.751 101.202 132.849 101.308Z" fill="white"/>
<path d="M129.602 121.862C133.473 121.862 136.611 118.243 136.611 113.778C136.611 109.313 133.473 105.694 129.602 105.694C125.731 105.694 122.593 109.313 122.593 113.778C122.593 118.243 125.731 121.862 129.602 121.862Z" fill="white"/>
<path d="M161.508 109.263L155.467 106.64C154.792 106.341 154.254 105.799 153.959 105.123C153.664 104.446 153.635 103.683 153.876 102.985L167.7 64.0271C167.843 63.6276 168.071 63.2641 168.369 62.9622C168.667 62.6603 169.027 62.4274 169.425 62.2799C169.822 62.1323 170.247 62.0737 170.67 62.1081C171.093 62.1425 171.503 62.2691 171.871 62.4791L184.083 69.4451C184.751 69.832 185.239 70.4672 185.44 71.2123C185.642 71.9574 185.54 72.7519 185.158 73.4226L165.185 108.059C164.827 108.677 164.255 109.141 163.576 109.363C162.898 109.585 162.162 109.549 161.508 109.263Z" fill="white"/>
<path d="M159.933 118.059C161.175 115.207 160.179 112.022 157.708 110.946C155.237 109.869 152.226 111.309 150.984 114.161C149.741 117.013 150.737 120.198 153.208 121.274C155.68 122.351 158.69 120.911 159.933 118.059Z" fill="white"/>
<path d="M100.083 106.253L95.1376 108.059C94.5524 108.244 93.9189 108.2 93.3646 107.937C92.8102 107.674 92.376 107.21 92.1491 106.64L77.6797 73.788C77.5204 73.4704 77.4328 73.1216 77.423 72.7664C77.4132 72.4112 77.4815 72.0582 77.6229 71.7323C77.7644 71.4063 77.9756 71.1153 78.2417 70.8799C78.5079 70.6444 78.8224 70.4702 79.1632 70.3695L90.0636 67.7895C90.7038 67.6743 91.3636 67.8114 91.9048 68.1722C92.446 68.533 92.8264 69.0893 92.9662 69.7245L101.566 103.351C101.723 103.932 101.658 104.551 101.383 105.087C101.109 105.624 100.646 106.039 100.083 106.253Z" fill="white"/>
<path d="M103.333 121.79C105.864 120.865 107.051 117.746 105.984 114.824C104.916 111.902 101.998 110.283 99.4665 111.208C96.9347 112.133 95.7478 115.252 96.8154 118.174C97.883 121.096 100.801 122.715 103.333 121.79Z" fill="white"/>
</g>
<defs>
<clipPath id="clip0_27551_477951">
<rect width="258" height="258" fill="white"/>
</clipPath>
</defs>
</svg>
