<svg width="56" height="48" viewBox="0 0 56 48" fill="none" xmlns="http://www.w3.org/2000/svg">
<g filter="url(#filter0_d_13033_269115)">
<path d="M22.224 16.524L15.94 31.516H11.84L8.748 19.55C8.56 18.814 8.398 18.544 7.826 18.234C6.894 17.728 5.354 17.254 4 16.958L4.092 16.524H10.692C11.1233 16.5236 11.5405 16.6774 11.8684 16.9576C12.1963 17.2378 12.4132 17.626 12.48 18.052L14.114 26.728L18.15 16.524H22.224ZM38.29 26.622C38.306 22.664 32.818 22.446 32.856 20.678C32.868 20.14 33.38 19.568 34.5 19.422C35.8126 19.2974 37.1345 19.5296 38.326 20.094L39.006 16.914C37.8459 16.4779 36.6173 16.2524 35.378 16.248C31.544 16.248 28.846 18.288 28.822 21.206C28.798 23.364 30.748 24.566 32.218 25.286C33.73 26.02 34.238 26.492 34.23 27.148C34.22 28.156 33.026 28.598 31.91 28.616C29.96 28.646 28.83 28.09 27.926 27.67L27.224 30.954C28.13 31.37 29.802 31.734 31.536 31.75C35.61 31.75 38.276 29.738 38.29 26.622ZM48.412 31.516H52L48.87 16.524H45.558C45.2041 16.5208 44.8574 16.6239 44.5629 16.82C44.2683 17.0162 44.0394 17.2963 43.906 17.624L38.088 31.516H42.16L42.97 29.276H47.946L48.412 31.516ZM44.086 26.204L46.126 20.574L47.302 26.204H44.086ZM27.766 16.524L24.56 31.516H20.68L23.89 16.524H27.766Z" fill="#2F2B2B"/>
</g>
<defs>
<filter id="filter0_d_13033_269115" x="0" y="-2" width="56" height="56" filterUnits="userSpaceOnUse" color-interpolation-filters="sRGB">
<feFlood flood-opacity="0" result="BackgroundImageFix"/>
<feColorMatrix in="SourceAlpha" type="matrix" values="0 0 0 0 0 0 0 0 0 0 0 0 0 0 0 0 0 0 127 0" result="hardAlpha"/>
<feOffset dy="2"/>
<feGaussianBlur stdDeviation="2"/>
<feColorMatrix type="matrix" values="0 0 0 0 0 0 0 0 0 0 0 0 0 0 0 0 0 0 0.1 0"/>
<feBlend mode="normal" in2="BackgroundImageFix" result="effect1_dropShadow_13033_269115"/>
<feBlend mode="normal" in="SourceGraphic" in2="effect1_dropShadow_13033_269115" result="shape"/>
</filter>
</defs>
</svg>
