<svg width="32" height="32" fill="none" xmlns="http://www.w3.org/2000/svg">
  <g clip-path="url(#a)" fill="#DB284E">
    <path d="M29.46 14.8v9.86c0 3-2.26 5.29-5.2 5.29H7.4a5.15 5.15 0 0 1-5.2-5.29V14.8h27.26Zm0-1.76H2.2c-1.04 0-1.74.7-1.74 1.76v9.86a7.02 7.02 0 0 0 6.95 7.05h16.85a7.02 7.02 0 0 0 6.95-7.05V14.8c0-1.06-.87-1.76-1.74-1.76Z"/>
    <path d="M26.34 10.04v2.64H5.32v-2.64h21.02Zm0-1.76H5.32c-1.04 0-1.74.7-1.74 1.76v4.4h24.5v-4.4c0-.88-.7-1.76-1.74-1.76Z"/>
    <path d="M24.95 9.16a.75.75 0 0 1-.7-.7c0-.88-1.39-2.3-5.73-2.3-5.21 0-8.34-1.23-9.03-3.7-.18-.7-.35-.87-.52-.87 0 0-.18.17-.35.52-1.74 2.65-1.22 6-1.22 6.17.18.35-.17.88-.52.88s-.87-.18-.87-.7c0-.18-.87-4.06 1.4-7.4A2.11 2.11 0 0 1 9.13 0c.52 0 1.22.53 1.74 1.94.52 1.58 3.3 2.46 7.64 2.46 7.3 0 7.3 3.7 7.3 3.88 0 .53-.35.88-.87.88ZM8.1 11.98H5.14c-.34 0-.52-.18-.52-.53 0-.35.18-.53.52-.53h3.13c.35 0 .52.18.52.53-.17.35-.35.53-.7.53Zm18.41 0h-7.64c-.35 0-.52-.18-.52-.53 0-.35.17-.53.52-.53h7.64c.35 0 .52.18.52.53.17.35-.17.53-.52.53Zm-3.82 7.05v5.28H8.79v-5.28h13.9Zm0-1.77H8.79c-1.04 0-1.73.7-1.73 1.77v5.28c0 1.06.69 1.76 1.73 1.76h13.9c1.04 0 1.74-.7 1.74-1.76v-5.28c0-1.06-.7-1.77-1.74-1.77Z"/>
  </g>
  <defs>
    <clipPath id="a">
      <path fill="#fff" d="M.45 0H31.2v31.71H.45z"/>
    </clipPath>
  </defs>
</svg>
