<svg width="292" height="62" fill="none" xmlns="http://www.w3.org/2000/svg"><g filter="url(#a)"><path fill-rule="evenodd" clip-rule="evenodd" d="M4 6a4 4 0 0 1 4-4h276a4 4 0 0 1 4 4v15c-4.753 0-8.605 3.582-8.605 8s3.852 8 8.605 8v15a4 4 0 0 1-4 4H8a4 4 0 0 1-4-4V36.992c4.57-.192 8.212-3.697 8.212-7.992 0-4.296-3.642-7.8-8.212-7.992V6Z" fill="#E8F3F3"/></g><defs><filter id="a" x="0" y="0" width="292" height="62" filterUnits="userSpaceOnUse" color-interpolation-filters="sRGB"><feFlood flood-opacity="0" result="BackgroundImageFix"/><feColorMatrix in="SourceAlpha" values="0 0 0 0 0 0 0 0 0 0 0 0 0 0 0 0 0 0 127 0" result="hardAlpha"/><feOffset dy="2"/><feGaussianBlur stdDeviation="2"/><feColorMatrix values="0 0 0 0 0 0 0 0 0 0 0 0 0 0 0 0 0 0 0.1 0"/><feBlend in2="BackgroundImageFix" result="effect1_dropShadow_28138_11489"/><feBlend in="SourceGraphic" in2="effect1_dropShadow_28138_11489" result="shape"/></filter></defs></svg>