<svg xmlns="http://www.w3.org/2000/svg" xmlns:xlink="http://www.w3.org/1999/xlink" width="254" height="254" fill="none" xmlns:v="https://vecta.io/nano"><g clip-path="url(#A)"><g clip-path="url(#B)"><path d="M127.434 4.941a122.06 122.06 0 0 0-88.246 38.406A122.06 122.06 0 0 0 6.203 133.76a122.06 122.06 0 0 0 42.783 86.209c12.602 10.72 27.251 18.766 43.058 23.65s32.442 6.503 48.894 4.759a123.31 123.31 0 0 0 20.986-4.151c8.87-2.571 17.418-6.146 25.478-10.655a123.38 123.38 0 0 0 16.37-10.981c19.877-15.77 34.344-37.343 41.39-61.718s6.318-50.34-2.079-74.283-24.049-44.673-44.777-59.307S152.806 4.84 127.434 4.941z" fill="#fceff2"/><g fill="#eb92a7"><path d="M188.068 204.764c13.088 0 23.697-10.207 23.697-22.798s-10.609-22.798-23.697-22.798-23.696 10.207-23.696 22.798 10.609 22.798 23.696 22.798z"/><path d="M211.765 204.764c6.543 0 11.848-5.103 11.848-11.399s-5.305-11.399-11.848-11.399-11.848 5.104-11.848 11.399 5.304 11.399 11.848 11.399zm-47.393-.015c8.04 0 14.559-6.269 14.559-14.001s-6.519-14.001-14.559-14.001-14.559 6.268-14.559 14.001 6.519 14.001 14.559 14.001z"/><path d="M253.024 206.545H123.113s51.574-20.459 129.911 0zm-172.363-2.106c15.474 0 28.018-12.072 28.018-26.964S96.134 150.51 80.661 150.51s-28.017 12.073-28.017 26.965 12.544 26.964 28.017 26.964z"/><path d="M108.678 204.424c7.741 0 14.017-6.033 14.017-13.475s-6.276-13.474-14.017-13.474-14.016 6.033-14.016 13.474 6.275 13.475 14.016 13.475zm-56.035-.001c9.503 0 17.207-7.412 17.207-16.556s-7.704-16.556-17.207-16.556-17.207 7.412-17.207 16.556 7.704 16.556 17.207 16.556z"/><path d="M157.48 206.545H3.826s60.991-24.192 153.654 0z"/></g><path d="M176.964 72.313H77.037c-1.283 0-2.323 1.04-2.323 2.323v131.631c0 1.283 1.04 2.323 2.323 2.323h99.928c1.283 0 2.323-1.04 2.323-2.323V74.636c0-1.283-1.04-2.323-2.323-2.323z" fill="#fff"/><path d="M125.08 208.59h51.884c.615-.004 1.203-.25 1.638-.685s.681-1.023.685-1.638V74.62a2.32 2.32 0 0 0-2.323-2.323h-25.973L125.08 208.59z" fill="#f9f9f9"/><path d="M79.421 208.048c3.558 0 6.443-3.037 6.443-6.784s-2.885-6.784-6.443-6.784-6.443 3.038-6.443 6.784 2.885 6.784 6.443 6.784z" fill="#f3bdca"/><path d="M85.71 208.048c1.754 0 3.175-1.262 3.175-2.819s-1.421-2.819-3.175-2.819-3.175 1.262-3.175 2.819 1.421 2.819 3.175 2.819z" fill="#b6efda"/><g fill="#f3bdca"><path d="M72.979 208.048c2.156 0 3.903-1.554 3.903-3.47s-1.747-3.469-3.903-3.469-3.903 1.553-3.903 3.469 1.747 3.47 3.903 3.47z"/><path d="M96.783 208.497H61.951s13.8-5.065 34.832 0z"/><path d="M86.809 207.784c3.404 0 6.164-2.447 6.164-5.467s-2.76-5.467-6.164-5.467-6.164 2.448-6.164 5.467 2.76 5.467 6.164 5.467z"/><path d="M92.973 207.8c1.702 0 3.082-1.228 3.082-2.742s-1.38-2.741-3.082-2.741-3.082 1.227-3.082 2.741 1.38 2.742 3.082 2.742zm-12.313 0c2.087 0 3.779-1.505 3.779-3.361s-1.692-3.361-3.779-3.361-3.779 1.505-3.779 3.361 1.692 3.361 3.779 3.361z"/><path d="M103.35 208.373H69.587s13.397-4.894 33.763 0zm67.976 1.533c3.593 0 6.505-2.815 6.505-6.288s-2.912-6.288-6.505-6.288-6.505 2.815-6.505 6.288 2.913 6.288 6.505 6.288z"/></g><path d="M175.663 209.906c1.496 0 2.71-1.172 2.71-2.617s-1.214-2.618-2.71-2.618-2.711 1.172-2.711 2.618 1.214 2.617 2.711 2.617z" fill="#b6efda"/><g fill="#f3bdca"><path d="M164.821 209.906c1.839 0 3.33-1.442 3.33-3.221s-1.491-3.222-3.33-3.222-3.33 1.443-3.33 3.222 1.491 3.221 3.33 3.221z"/><path d="M185.095 210.309h-29.706s11.786-4.693 29.706 0z"/><path d="M180.123 209.922c2.9 0 5.251-2.268 5.251-5.065s-2.351-5.064-5.251-5.064-5.25 2.267-5.25 5.064 2.351 5.065 5.25 5.065z"/><path d="M185.373 209.906c1.446 0 2.618-1.13 2.618-2.524s-1.172-2.525-2.618-2.525-2.617 1.13-2.617 2.525 1.172 2.524 2.617 2.524zm-10.485.016c1.78 0 3.222-1.394 3.222-3.113s-1.442-3.113-3.222-3.113-3.221 1.393-3.221 3.113 1.442 3.113 3.221 3.113z"/><path d="M194.496 210.309H165.72s11.445-4.538 28.776 0zM31.223 94.987c8.023 0 14.528-5.783 14.528-12.917s-6.504-12.917-14.527-12.917-14.528 5.783-14.528 12.917S23.2 94.987 31.223 94.987z"/><path d="M45.751 94.987c4.012 0 7.264-2.892 7.264-6.459s-3.252-6.458-7.264-6.458-7.264 2.892-7.264 6.458 3.252 6.459 7.264 6.459zm-29.071-.016c4.927 0 8.921-3.55 8.921-7.93s-3.994-7.93-8.921-7.93-8.921 3.55-8.921 7.93 3.994 7.93 8.921 7.93z"/><path d="M72.266 96.83H0s28.683-14.233 72.266 0zm137.16-41.988c8.982 0 16.262-6.463 16.262-14.435s-7.28-14.435-16.262-14.435-16.262 6.463-16.262 14.435 7.281 14.435 16.262 14.435z"/><path d="M193.179 54.842c4.491 0 8.132-3.231 8.132-7.217s-3.641-7.217-8.132-7.217-8.131 3.231-8.131 7.217 3.641 7.217 8.131 7.217zm32.509.016c5.517 0 9.99-3.973 9.99-8.874s-4.473-8.875-9.99-8.875-9.989 3.973-9.989 8.875 4.472 8.874 9.989 8.874z"/><path d="M164.852 55.973H254s-35.39-12.948-89.148 0z"/></g><use xlink:href="#C" fill="#fff"/><g fill="#637381"><path d="M98.704 99.742H89.83a3.71 3.71 0 0 1-2.608-1.1 3.72 3.72 0 0 1-1.078-2.617v-8.859a3.7 3.7 0 0 1 3.686-3.702h8.859a3.72 3.72 0 0 1 2.623 1.083c.697.694 1.09 1.635 1.094 2.618v8.859c-.004.982-.395 1.923-1.087 2.618s-1.632 1.091-2.614 1.099zm-7.914-4.646h6.985V88.11H90.79v6.985zm74.744-1.178h-58.157c-.616 0-1.207-.245-1.643-.68a2.32 2.32 0 0 1 0-3.285c.436-.436 1.027-.681 1.643-.681h58.157a2.32 2.32 0 1 1 0 4.646z"/></g><path d="M98.704 115.09H89.86c-.77 0-1.394.624-1.394 1.394v8.843c0 .77.624 1.394 1.394 1.394h8.843c.77 0 1.394-.624 1.394-1.394v-8.843c0-.77-.624-1.394-1.394-1.394z" fill="#fff"/><g fill="#637381"><path d="M98.704 129.044H89.83a3.7 3.7 0 0 1-3.702-3.701v-8.859c0-.983.389-1.927 1.083-2.623s1.635-1.09 2.618-1.094h8.859a3.73 3.73 0 0 1 3.718 3.717v8.859a3.72 3.72 0 0 1-1.089 2.613c-.693.693-1.632 1.084-2.613 1.088zm-7.914-4.646h6.985v-6.985H90.79v6.985z"/><use xlink:href="#D"/></g><path d="M98.704 144.408H89.86c-.77 0-1.394.624-1.394 1.394v8.844c0 .769.624 1.394 1.394 1.394h8.843c.77 0 1.394-.625 1.394-1.394v-8.844c0-.77-.624-1.394-1.394-1.394z" fill="#fff"/><g fill="#637381"><path d="M98.704 158.363H89.83a3.72 3.72 0 0 1-3.702-3.717v-8.859c0-.982.39-1.923 1.084-2.618a3.7 3.7 0 0 1 2.617-1.084h8.859a3.72 3.72 0 0 1 3.718 3.702v8.859a3.73 3.73 0 0 1-3.702 3.717zm-7.914-4.646h6.985v-6.985H90.79v6.985zm59.039-1.178h-42.452c-.616 0-1.207-.244-1.643-.68s-.68-1.027-.68-1.643a2.32 2.32 0 0 1 .68-1.642c.436-.436 1.027-.681 1.643-.681h42.452c.616 0 1.207.245 1.643.681a2.32 2.32 0 0 1 .68 1.642c0 .616-.245 1.207-.68 1.643a2.32 2.32 0 0 1-1.643.68z"/></g><path d="M98.704 173.727H89.86c-.77 0-1.394.624-1.394 1.394v8.843c0 .77.624 1.394 1.394 1.394h8.843c.77 0 1.394-.624 1.394-1.394v-8.843c0-.77-.624-1.394-1.394-1.394z" fill="#fff"/><g fill="#637381"><path d="M98.704 187.666H89.83a3.7 3.7 0 0 1-2.617-1.084c-.694-.695-1.084-1.636-1.084-2.618v-8.859a3.7 3.7 0 0 1 3.702-3.701h8.859c.983 0 1.926.389 2.623 1.083s1.091 1.635 1.095 2.618v8.859c-.004.981-.396 1.92-1.089 2.613a3.72 3.72 0 0 1-2.613 1.089zm-7.914-4.647h6.985v-6.969H90.79v6.969zm74.744-1.161h-58.157c-.616 0-1.207-.245-1.643-.681a2.32 2.32 0 0 1 0-3.285c.436-.436 1.027-.681 1.643-.681h58.157a2.32 2.32 0 1 1 0 4.647z"/></g><path d="M47.18 104.703l4.104-2.179c.631-.335 1.37-.406 2.053-.196s1.256.681 1.591 1.312l27.283 51.378-8.877 4.714-27.283-51.377a2.7 2.7 0 0 1-.303-1.011c-.033-.354.003-.711.108-1.05s.276-.654.503-.927a2.7 2.7 0 0 1 .821-.664z" fill="#db284e"/><path d="M83.262 167.686l-9.912-7.976 8.859-4.708 1.053 12.684z" fill="#ffb769"/><path d="M79.127 164.357l3.702-1.967.434 5.296-4.135-3.329z" fill="#727272"/><g opacity=".2"><path opacity=".2" d="M83.526 167.532l-1.053-12.654-27.29-51.404a2.71 2.71 0 0 0-3.64-1.115l-1.812.96 33.794 64.213z" fill="#727272"/></g><path d="M193.845 111.218h-27.444c-4.996 0-9.045 4.05-9.045 9.045v28.652c0 4.996 4.049 9.045 9.045 9.045h27.444c4.996 0 9.045-4.049 9.045-9.045v-28.652c0-4.995-4.049-9.045-9.045-9.045z" fill="#db284e"/><g opacity=".2"><path opacity=".2" d="M178.11 157.976h15.704c2.402 0 4.706-.952 6.407-2.648s2.661-3.995 2.669-6.397v-28.668c-.008-2.396-.963-4.692-2.658-6.387s-3.99-2.65-6.387-2.658h-6.442l-9.293 46.758z" fill="#727272"/></g><path d="M178.11 146.05c-.435-.005-.864-.101-1.259-.283a3.11 3.11 0 0 1-1.034-.77l-10.609-12.205a3.1 3.1 0 0 1 .429-4.198c.588-.516 1.351-.79 2.133-.767a3.1 3.1 0 0 1 2.085.892l8.332 9.602 14.048-15.24a3.1 3.1 0 0 1 4.383-.17c.603.559.961 1.334.993 2.156s-.264 1.623-.823 2.227l-16.417 17.765a3.1 3.1 0 0 1-1.028.73c-.389.171-.809.26-1.233.261z" fill="#fff"/><path d="M231.392 92.31l-9.965-3.213a3.44 3.44 0 0 0-4.327 2.217l-3.356 10.407a3.44 3.44 0 0 0 2.218 4.327l9.964 3.213a3.44 3.44 0 0 0 4.328-2.217l3.355-10.407a3.44 3.44 0 0 0-2.217-4.328z" fill="#db284e"/><path d="M221.6 103.102c-.154-.055-.296-.141-.416-.253a1.22 1.22 0 0 1-.281-.397l-2.432-5.669c-.088-.282-.068-.587.056-.856a1.19 1.19 0 0 1 .616-.597c.272-.116.577-.126.857-.03s.513.294.655.553l1.889 4.445 6.877-3.872a1.18 1.18 0 0 1 1.611.449c.154.273.193.596.109.898a1.18 1.18 0 0 1-.558.712l-8.023 4.522a1.17 1.17 0 0 1-.47.15c-.166.016-.333-.003-.49-.057z" fill="#fff"/><path d="M206.457 84.018l-5.259-.629c-.951-.114-1.815.565-1.928 1.516l-.657 5.49c-.114.951.565 1.815 1.516 1.928l5.26.629c.951.114 1.814-.565 1.928-1.516l.657-5.49c.113-.951-.565-1.814-1.517-1.928z" fill="#db284e"/><path d="M202.642 90.325c-.163-.031-.308-.126-.402-.263l-1.751-2.571c-.059-.064-.103-.14-.13-.223a.62.62 0 0 1-.025-.257c.011-.086.039-.17.085-.244a.6.6 0 0 1 .418-.281c.086-.014.174-.009.258.014a.6.6 0 0 1 .386.325l1.363 2.013 3.097-2.587c.113-.112.266-.176.426-.176s.313.063.426.176a.62.62 0 0 1 .132.442c-.015.159-.09.306-.209.41l-3.532 3.02a.63.63 0 0 1-.542.201z" fill="#fff"/></g></g><defs><clipPath id="A"><path fill="#fff" d="M0 0h254v254H0z"/></clipPath><clipPath id="B"><path fill="#fff" d="M0 0h254v254H0z"/></clipPath><path id="C" d="M98.704 85.787H89.86c-.77 0-1.394.624-1.394 1.394v8.843c0 .77.624 1.394 1.394 1.394h8.843c.77 0 1.394-.624 1.394-1.394v-8.843c0-.77-.624-1.394-1.394-1.394z"/><path id="D" d="M149.829 123.236h-42.452c-.616 0-1.207-.244-1.643-.68s-.68-1.027-.68-1.643a2.32 2.32 0 0 1 .68-1.642c.436-.436 1.027-.681 1.643-.681h42.452c.616 0 1.207.245 1.643.681s.68 1.026.68 1.642-.245 1.207-.68 1.643-1.027.68-1.643.68z"/></defs></svg>