<svg xmlns="http://www.w3.org/2000/svg" width="21" height="20" fill="none" xmlns:v="https://vecta.io/nano"><path d="M18.042 2.929a10 10 0 0 0-5.12-2.737 10 10 0 0 0-5.778.569A10 10 0 0 0 .971 10a10 10 0 0 0 6.173 9.239 10 10 0 0 0 10.898-2.168A10 10 0 0 0 20.971 10a10 10 0 0 0-2.929-7.071zm-6.067 9.9a1 1 0 0 1-.293.711 1 1 0 0 1-.711.293 1 1 0 0 1-.711-.293c-.093-.093-.167-.204-.218-.326a1 1 0 0 1-.075-.385l.007-1.831-1.831.007a1 1 0 0 1-.711-.293A1 1 0 0 1 7.138 10a1 1 0 0 1 .293-.711 1 1 0 0 1 .711-.293l1.831.007-.007-1.831c0-.266.106-.522.294-.71s.444-.294.71-.294.522.106.71.294.294.444.294.71l-.007 1.831 1.831-.007c.266 0 .522.106.71.294s.294.444.294.71-.106.522-.294.71-.444.294-.71.294l-1.831-.007.007 1.831z" fill="#db284e"/></svg>