<svg width="16" height="16" viewBox="0 0 16 16" fill="none" xmlns="http://www.w3.org/2000/svg">
<circle cx="8" cy="8" r="8" fill="#DB264D"/>
<path fill-rule="evenodd" clip-rule="evenodd" d="M11.7378 8.14682C12.0188 8.04616 12.1081 7.81656 12.1598 7.55982V7.32117C12.0376 6.83144 11.893 6.70363 11.3733 6.63124C10.7091 6.54076 10.0413 6.46838 9.37358 6.38807C8.9915 6.3417 8.98209 6.32587 9.11729 5.99221C9.35477 5.40069 9.48174 4.79219 9.4547 4.15543C9.42766 3.56729 9.20899 3.30715 8.62117 3.19971H8.24849C8.06156 3.27662 7.96869 3.42252 7.92166 3.60575C7.86876 3.8082 7.82056 4.01178 7.75943 4.21198C7.5678 4.84196 7.24332 5.3792 6.61906 5.70493C6.19583 5.92661 5.9125 6.2761 5.67854 6.66744C5.54452 6.89138 5.35054 7.01692 5.09425 7.06782C4.91085 7.10288 4.72745 7.12324 4.5417 7.1289C4.12435 7.14021 3.97034 7.25444 3.83984 7.61976V7.73965V10.9653V11.0852C3.9433 11.4607 4.09613 11.5942 4.54993 11.5784C5.13657 11.5603 5.695 11.6293 6.21934 11.895C6.28165 11.9278 6.35689 11.9346 6.4239 11.9595C6.87182 12.1246 7.35265 12.0851 7.81351 12.1597H8.18618H8.62117H10.4222C10.6821 12.1145 10.8878 11.9957 10.9701 11.7435C11.0453 11.5094 10.9807 11.2798 10.8666 11.0468C11.3357 11.0547 11.6908 10.9201 11.833 10.4779C11.9424 10.1386 11.8295 9.86372 11.498 9.62621C11.8154 9.54251 12.054 9.38756 12.1058 9.03807C12.161 8.67954 12.0693 8.39112 11.7366 8.19093C11.7213 8.19093 11.7119 8.18754 11.7108 8.17849C11.7049 8.15587 11.7155 8.14456 11.7378 8.14682Z" fill="white"/>
</svg>
