<svg width="16" height="16" viewBox="0 0 16 16" fill="none" xmlns="http://www.w3.org/2000/svg">
<path d="M11.6771 5.32417L11.6897 5.33679C11.7282 5.38141 11.7499 5.43839 11.7504 5.49772C11.7511 5.56316 11.726 5.62623 11.6806 5.6734L11.6648 5.68984L11.6506 5.70765L7.67333 10.6792C7.65249 10.6993 7.62829 10.7156 7.6018 10.7275C7.57114 10.7411 7.53805 10.7485 7.50448 10.7491C7.47091 10.7498 7.43756 10.7436 7.40643 10.7311C7.37541 10.7186 7.34722 10.7 7.32352 10.6764C7.32342 10.6763 7.32333 10.6762 7.32323 10.6761L4.68548 8.03738C4.64408 7.99059 4.62164 7.92992 4.62275 7.8673C4.62389 7.80253 4.65013 7.74074 4.69593 7.69493C4.74174 7.64913 4.80353 7.62289 4.8683 7.62175C4.9309 7.62064 4.99155 7.64306 5.03833 7.68444L7.12336 9.77047L7.52209 10.1694L7.87032 9.7257L11.3275 5.32091C11.3481 5.30112 11.372 5.28498 11.3981 5.27323C11.4288 5.25945 11.4619 5.25199 11.4955 5.25131C11.5291 5.25062 11.5625 5.25672 11.5937 5.26924C11.6249 5.28176 11.6533 5.30044 11.6771 5.32417ZM14.0104 14.0104C15.6045 12.4163 16.5 10.2543 16.5 8C16.5 5.74566 15.6045 3.58365 14.0104 1.98959C12.4163 0.395533 10.2543 -0.5 8 -0.5C5.74566 -0.5 3.58365 0.395533 1.98959 1.98959C0.395533 3.58365 -0.5 5.74566 -0.5 8C-0.5 10.2543 0.395533 12.4163 1.98959 14.0104C3.58365 15.6045 5.74566 16.5 8 16.5C10.2543 16.5 12.4163 15.6045 14.0104 14.0104Z" fill="#49A09D" stroke="white"/>
</svg>
