<svg width="24" height="24" viewBox="0 0 24 24" fill="none" xmlns="http://www.w3.org/2000/svg">
<g clip-path="url(#clip0_28453_16431)">
<path d="M6.18367 22.3975H5.00364C4.74708 22.3975 4.53906 22.6055 4.53906 22.862C4.53906 23.1186 4.74708 23.3266 5.00364 23.3266H6.18367C6.44023 23.3266 6.64825 23.1186 6.64825 22.862C6.64825 22.6055 6.44023 22.3975 6.18367 22.3975Z" fill="black" stroke="black" stroke-width="0.3"/>
<path d="M9.09186 22.3975H7.91184C7.65528 22.3975 7.44727 22.6055 7.44727 22.862C7.44727 23.1186 7.65528 23.3266 7.91184 23.3266H9.09186C9.34843 23.3266 9.55644 23.1186 9.55644 22.862C9.55644 22.6055 9.34843 22.3975 9.09186 22.3975Z" fill="black" stroke="black" stroke-width="0.3"/>
<path d="M12.0001 22.3975H10.82C10.5635 22.3975 10.3555 22.6055 10.3555 22.862C10.3555 23.1186 10.5635 23.3266 10.82 23.3266H12.0001C12.2566 23.3266 12.4646 23.1186 12.4646 22.862C12.4646 22.6055 12.2566 22.3975 12.0001 22.3975Z" fill="black" stroke="black" stroke-width="0.3"/>
<path d="M14.9083 22.3975H13.7282C13.4717 22.3975 13.2637 22.6055 13.2637 22.862C13.2637 23.1186 13.4717 23.3266 13.7282 23.3266H14.9083C15.1648 23.3266 15.3728 23.1186 15.3728 22.862C15.3728 22.6055 15.1648 22.3975 14.9083 22.3975Z" fill="black" stroke="black" stroke-width="0.3"/>
<path d="M17.8262 22.3975H17.8169H16.6462C16.3897 22.3975 16.1816 22.6055 16.1816 22.862C16.1816 23.1186 16.3897 23.3266 16.6462 23.3266H17.8262C18.0828 23.3266 18.2908 23.1186 18.2908 22.862C18.2908 22.6055 18.0828 22.3975 17.8262 22.3975Z" fill="black" stroke="black" stroke-width="0.3"/>
<path d="M22.9361 0.673828H1.06388C0.477352 0.676383 0.00255517 1.15118 0 1.73771V5.89102C0.00255517 6.47755 0.477352 6.95234 1.06388 6.9549H3.07549V22.862C3.07549 23.1185 3.28351 23.3266 3.54007 23.3266C3.79663 23.3266 4.00465 23.1185 4.00465 22.862V5.35676C4.00465 4.75124 4.49553 4.26036 5.10104 4.26036H19.2288C19.0168 4.58678 18.9039 4.96756 18.9036 5.35676L18.8757 22.862C18.8757 23.1185 19.0837 23.3266 19.3403 23.3266C19.5969 23.3266 19.8049 23.1185 19.8049 22.862L19.8328 6.95954H22.9361C23.5226 6.95699 23.9974 6.48219 24 5.89566V1.73771C23.9974 1.15118 23.5226 0.676383 22.9361 0.673828ZM23.0708 1.73771V5.89566C23.0708 5.97005 23.0105 6.03039 22.9361 6.03039H19.8328V5.35676C19.8328 4.75124 20.3236 4.26036 20.9292 4.26036H21.3937C21.6503 4.26036 21.8583 4.05234 21.8583 3.79578C21.8583 3.53922 21.6503 3.3312 21.3937 3.3312H2.49013C2.23357 3.3312 2.02555 3.53922 2.02555 3.79578C2.02555 4.05234 2.23357 4.26036 2.49013 4.26036H3.41928C3.20523 4.58602 3.09059 4.96703 3.08943 5.35676V6.03039H1.06388C0.989489 6.03039 0.929152 5.97005 0.929152 5.89566V1.73771C0.929152 1.66332 0.989489 1.60298 1.06388 1.60298H22.9361C23.0105 1.60298 23.0708 1.66332 23.0708 1.73771Z" fill="black" stroke="black" stroke-width="0.5"/>
<path d="M11.7157 8.51562H6.49387C6.23731 8.51562 6.0293 8.72364 6.0293 8.9802C6.0293 9.23676 6.23731 9.44478 6.49387 9.44478H11.7157C11.9723 9.44478 12.1803 9.23676 12.1803 8.9802C12.1803 8.72364 11.9723 8.51562 11.7157 8.51562Z" fill="#49A09D" stroke="#49A09D" stroke-width="0.5"/>
<path d="M16.3206 8.51562H13.7282C13.4717 8.51562 13.2637 8.72364 13.2637 8.9802C13.2637 9.23676 13.4717 9.44478 13.7282 9.44478H16.3206C16.5771 9.44478 16.7852 9.23676 16.7852 8.9802C16.7852 8.72364 16.5771 8.51562 16.3206 8.51562Z" fill="#49A09D" stroke="#49A09D" stroke-width="0.5"/>
<path d="M11.7157 11.2246H6.49387C6.23731 11.2246 6.0293 11.4326 6.0293 11.6892C6.0293 11.9457 6.23731 12.1538 6.49387 12.1538H11.7157C11.9723 12.1538 12.1803 11.9457 12.1803 11.6892C12.1803 11.4326 11.9723 11.2246 11.7157 11.2246Z" fill="#49A09D" stroke="#49A09D" stroke-width="0.5"/>
<path d="M16.3206 11.2246H13.7282C13.4717 11.2246 13.2637 11.4326 13.2637 11.6892C13.2637 11.9457 13.4717 12.1538 13.7282 12.1538H16.3206C16.5771 12.1538 16.7852 11.9457 16.7852 11.6892C16.7852 11.4326 16.5771 11.2246 16.3206 11.2246Z" fill="#49A09D" stroke="#49A09D" stroke-width="0.5"/>
<path d="M11.7157 13.9375H6.49387C6.23731 13.9375 6.0293 14.1455 6.0293 14.4021C6.0293 14.6586 6.23731 14.8666 6.49387 14.8666H11.7157C11.9723 14.8666 12.1803 14.6586 12.1803 14.4021C12.1803 14.1455 11.9723 13.9375 11.7157 13.9375Z" fill="#49A09D" stroke="#49A09D" stroke-width="0.5"/>
<path d="M16.3206 13.9375H13.7282C13.4717 13.9375 13.2637 14.1455 13.2637 14.4021C13.2637 14.6586 13.4717 14.8666 13.7282 14.8666H16.3206C16.5771 14.8666 16.7852 14.6586 16.7852 14.4021C16.7852 14.1455 16.5771 13.9375 16.3206 13.9375Z" fill="#49A09D" stroke="#49A09D" stroke-width="0.5"/>
</g>
<defs>
<clipPath id="clip0_28453_16431">
<rect width="24" height="24" fill="white"/>
</clipPath>
</defs>
</svg>
