<svg width="24" height="24" viewBox="0 0 24 24" fill="none" xmlns="http://www.w3.org/2000/svg">
<path d="M20.5769 23.463C20.5379 23.4846 20.4946 23.4972 20.4502 23.4999C20.4048 23.4987 20.3605 23.4852 20.3222 23.4607C20.3218 23.4604 20.3215 23.4602 20.3211 23.46L12.2741 18.1819L11.9993 18.0017L11.7248 18.1825L3.7421 23.4411C3.70275 23.4611 3.65915 23.4716 3.61485 23.4716C3.5664 23.4716 3.51878 23.4591 3.47665 23.4351L3.47326 23.4333C3.43301 23.4108 3.39944 23.3781 3.376 23.3384C3.35271 23.299 3.34024 23.2542 3.33985 23.2084V0.76H3.33985L3.33985 0.75844C3.33964 0.692897 3.3642 0.629695 3.4086 0.581484C3.4497 0.536864 3.50499 0.508133 3.5648 0.5H20.4557C20.5226 0.501495 20.5864 0.52873 20.6338 0.576087C20.6811 0.623451 20.7084 0.687246 20.7098 0.754156V23.2383C20.7095 23.2841 20.697 23.329 20.6737 23.3684C20.6503 23.4079 20.6169 23.4406 20.5769 23.463ZM11.9551 17.498L11.9785 17.5001L12.0019 17.5C12.05 17.4998 12.0972 17.5135 12.1377 17.5395C12.138 17.5396 12.1383 17.5398 12.1385 17.54L19.4363 22.3086L20.2098 22.814V21.89V1.51V1.01H19.7098H4.28985H3.78985V1.51V21.85V22.774L4.56335 22.2686L11.8357 17.5166C11.8733 17.5008 11.9143 17.4943 11.9551 17.498Z" fill="black" stroke="black"/>
<path d="M11.9995 3.91016L13.5395 7.03016L16.9795 7.53016L14.4895 9.96016L15.0795 13.3902L11.9995 11.7702L8.91953 13.3902L9.50953 9.96016L7.01953 7.53016L10.4595 7.03016L11.9995 3.91016Z" fill="#49A09D"/>
</svg>
