<svg xmlns="http://www.w3.org/2000/svg" xmlns:xlink="http://www.w3.org/1999/xlink" width="24" height="24" fill="none" xmlns:v="https://vecta.io/nano"><g clip-path="url(#A)"><g fill="#000" stroke="#000"><path d="M20.577 23.5h0-.007H3.43h0-.007c-.032 0-.064-.006-.094-.018s-.057-.03-.079-.053a.24.24 0 0 1-.07-.173h0v-.007V.76h0V.746a.24.24 0 0 1 .069-.175A.24.24 0 0 1 3.423.5h0 .007 12.5 0 .007a.24.24 0 0 1 .094.018.24.24 0 0 1 .079.053.24.24 0 0 1 .053.079c.012.03.018.062.018.094h0V.75a.25.25 0 0 1-.25.25H4.18h-.5v.5 21 .5h.5 15.64.5v-.5V5a.25.25 0 0 1 .25-.25.25.25 0 0 1 .25.25v18.24h0v.014a.24.24 0 0 1-.017.095c-.012.03-.03.057-.052.081a.24.24 0 0 1-.174.071z"/><path d="M15.63.07l.204.457a.25.25 0 0 1 .269.043l4.639 4.259h0l.002.002a.24.24 0 0 1 .062.266h0l-.003.007a.26.26 0 0 1-.234.168l-4.572.07h-.066 0-.005a.23.23 0 0 1-.164-.066h0l-.006-.006a.24.24 0 0 1-.075-.175h0V5.09.762a.26.26 0 0 1 .154-.235L15.63.07zm0 0a.76.76 0 0 0-.45.69L16.44.2a.75.75 0 0 0-.81-.13zm1.392 2.025l-.841-.787V2.46v1.87.5h.5 2 1.267l-.925-.865-2-1.87z"/><use xlink:href="#B"/><path d="M13.289 5.05h-3a.25.25 0 1 1 0-.5h3a.25.25 0 1 1 0 .5zM7.65 9.02H6.33a.25.25 0 1 1 0-.5h1.32a.25.25 0 1 1 0 .5z"/><use xlink:href="#C"/><path d="M7.65 12.99H6.33a.25.25 0 1 1 0-.5h1.32a.25.25 0 1 1 0 .5zm10.019 0h-7.36a.25.25 0 1 1 0-.5h7.36a.25.25 0 1 1 0 .5z"/></g><g fill="#49a09d"><path d="M17.79 15.43h-6.37a.41.41 0 0 0-.41.41v5a.41.41 0 0 0 .41.41h6.37a.41.41 0 0 0 .41-.41v-5a.42.42 0 0 0-.41-.41zm-.67 1.94l-2.67 2.69a.51.51 0 0 1-.36.15.45.45 0 0 1-.34-.14l-1.66-1.59a.5.5 0 0 1 .011-.68.5.5 0 0 1 .679-.04L13 18l2.82-.72.58-.59a.5.5 0 0 1 .355-.148.5.5 0 0 1 .355.148.5.5 0 0 1 .01.68z"/><path d="M15.83 17.25l-2.82.72 1.07 1.04 1.75-1.76z"/></g><g fill="#fff"><path d="M16.411 16.66l-.58.59.94-.24-2.68 2.7-1.65-1.59.56-.12-.23-.21a.5.5 0 0 0-.679.04.5.5 0 0 0-.011.68l1.66 1.59a.45.45 0 0 0 .34.14.51.51 0 0 0 .36-.15l2.67-2.69a.5.5 0 0 0 .148-.355.5.5 0 0 0-.148-.355.5.5 0 0 0-.7-.03z"/><path d="M14.091 19.71l2.68-2.69-.94.23-1.75 1.76-1.07-1.04-.57.15 1.65 1.59z"/></g></g><defs><clipPath id="A"><path fill="#fff" d="M0 0h24v24H0z"/></clipPath><path id="B" d="M7.65 5.05H6.33a.25.25 0 0 1-.25-.25.25.25 0 0 1 .25-.25h1.32a.25.25 0 0 1 .25.25.25.25 0 0 1-.25.25z"/><path id="C" d="M17.669 9.02h-7.36a.25.25 0 0 1-.25-.25.25.25 0 0 1 .25-.25h7.36a.25.25 0 0 1 .25.25.25.25 0 0 1-.25.25z"/></defs></svg>