<svg width="180" height="53" viewBox="0 0 180 53" fill="none" xmlns="http://www.w3.org/2000/svg">
<g clip-path="url(#clip0_28034_442086)">
<path d="M165.666 0.000172249H14.3422C13.7906 0.000172249 13.2456 0.00017225 12.6955 0.00282224C12.235 0.00547223 11.7781 0.0131705 11.3132 0.0196497C10.3031 0.0301195 9.29543 0.108393 8.29888 0.25379C7.30373 0.402352 6.33976 0.682433 5.43956 1.08456C4.54046 1.49009 3.71893 2.01704 3.00477 2.64628C2.28686 3.27376 1.68842 3.99903 1.23248 4.79422C0.775271 5.58782 0.458244 6.43825 0.292343 7.31611C0.124866 8.19287 0.0347448 9.07973 0.0227888 9.96875C0.00882972 10.375 0.00735559 10.7826 0 11.1889V41.8152C0.00735559 42.2266 0.00882972 42.6252 0.0227888 43.0367C0.0347485 43.9257 0.12487 44.8125 0.292343 45.6892C0.457785 46.5676 0.774831 47.4185 1.23248 48.2124C1.68821 49.005 2.28673 49.7273 3.00477 50.3513C3.71622 50.9834 4.53828 51.5107 5.43956 51.9131C6.33975 52.3163 7.30362 52.5981 8.29888 52.7489C9.2956 52.8932 10.3032 52.9715 11.3132 52.9832C11.7781 52.9922 12.235 52.9974 12.6955 52.9974C13.2456 53 13.7906 53 14.3422 53H165.666C166.207 53 166.756 53 167.296 52.9974C167.755 52.9974 168.225 52.9922 168.683 52.9832C169.691 52.9721 170.697 52.8938 171.692 52.7489C172.69 52.597 173.657 52.3153 174.562 51.9131C175.462 51.5104 176.284 50.9832 176.995 50.3513C177.711 49.7249 178.311 49.0031 178.772 48.2124C179.226 47.4179 179.54 46.5671 179.703 45.6892C179.871 44.8124 179.964 43.9257 179.982 43.0367C179.988 42.6252 179.988 42.2266 179.988 41.8152C180 41.3338 180 40.8551 180 40.3659V12.6355C180 12.1503 180 11.6689 179.988 11.1889C179.988 10.7826 179.988 10.375 179.982 9.9687C179.964 9.0796 179.871 8.19293 179.703 7.31606C179.54 6.4387 179.226 5.58835 178.772 4.79417C177.843 3.2003 176.371 1.9029 174.562 1.08444C173.657 0.683297 172.69 0.403289 171.692 0.25367C170.697 0.107633 169.691 0.0293324 168.683 0.0194642C168.225 0.0129982 167.755 0.00523373 167.296 0.00264999C166.756 0 166.207 0 165.666 0V0.000172249Z" fill="#A6A6A6"/>
<path d="M12.7203 51.6726C12.2621 51.6726 11.815 51.6674 11.3604 51.6585C10.4187 51.6477 9.47911 51.576 8.54946 51.4438C7.68262 51.3131 6.84288 51.0701 6.05794 50.7226C5.28021 50.378 4.57085 49.9262 3.95704 49.3845C3.33435 48.8491 2.81593 48.2282 2.42232 47.5463C2.02438 46.86 1.74899 46.1244 1.60572 45.365C1.45101 44.5491 1.36731 43.724 1.35533 42.897C1.3458 42.6194 1.33331 41.6951 1.33331 41.6951V11.2885C1.33331 11.2885 1.34661 10.3784 1.3554 10.111C1.36687 9.28532 1.45009 8.46156 1.60434 7.64689C1.74787 6.88545 2.02348 6.14768 2.42163 5.45912C2.81379 4.7777 3.32933 4.15631 3.94827 3.61903C4.56652 3.07665 5.27815 2.62252 6.05721 2.27319C6.84034 1.92685 7.67849 1.6855 8.54358 1.55721C9.47628 1.4237 10.4191 1.35152 11.3641 1.34127L12.7211 1.3252H167.272L168.645 1.34191C169.581 1.35165 170.515 1.42319 171.44 1.55592C172.313 1.68582 173.16 1.92886 173.952 2.27704C175.513 2.98105 176.783 4.09484 177.584 5.46233C177.976 6.14614 178.247 6.87789 178.389 7.63275C178.545 8.45411 178.632 9.28434 178.65 10.1168C178.655 10.4896 178.655 10.89 178.655 11.2885C178.667 11.7821 178.667 12.2519 178.667 12.7256V40.2734C178.667 40.7516 178.667 41.2182 178.655 41.6887C178.655 42.1167 178.655 42.5088 178.649 42.9124C178.631 43.73 178.545 44.5454 178.392 45.3521C178.252 46.1169 177.978 46.8583 177.58 47.5503C177.183 48.2248 176.668 48.8403 176.052 49.3742C175.438 49.9189 174.728 50.3733 173.948 50.7201C173.158 51.0702 172.312 51.3142 171.44 51.4438C170.51 51.5767 169.57 51.6485 168.628 51.6585C168.188 51.6674 167.727 51.6726 167.279 51.6726L165.649 51.6752L12.7203 51.6726Z" fill="black"/>
<path d="M43.7298 26.8988C43.7441 25.7929 44.0397 24.7085 44.5891 23.7466C45.1384 22.7848 45.9237 21.9766 46.8718 21.3973C46.2695 20.5425 45.4749 19.839 44.5512 19.3427C43.6274 18.8464 42.5999 18.571 41.5503 18.5384C39.3113 18.3049 37.1407 19.8698 35.9998 19.8698C34.8367 19.8698 33.0801 18.5616 31.1884 18.6003C29.9649 18.6396 28.7724 18.9931 27.7272 19.6266C26.682 20.26 25.8198 21.1517 25.2245 22.2147C22.6459 26.6514 24.5693 33.1717 27.0395 36.758C28.2753 38.5141 29.7197 40.4757 31.6096 40.4061C33.459 40.3299 34.1498 39.2342 36.3822 39.2342C38.5938 39.2342 39.2419 40.4061 41.1702 40.3619C43.1547 40.3299 44.405 38.598 45.5975 36.8253C46.4855 35.574 47.1688 34.1911 47.6221 32.7277C46.4691 32.2431 45.4852 31.432 44.7931 30.3954C44.1009 29.3589 43.7311 28.1428 43.7298 26.8988Z" fill="white"/>
<path d="M40.0876 16.1798C41.1696 14.8889 41.7027 13.2298 41.5736 11.5547C39.9205 11.7272 38.3935 12.5124 37.2968 13.7537C36.7607 14.3601 36.35 15.0656 36.0883 15.8298C35.8267 16.594 35.7191 17.402 35.7719 18.2075C36.5988 18.216 37.4168 18.0379 38.1643 17.6866C38.9119 17.3354 39.5695 16.8202 40.0876 16.1798Z" fill="white"/>
<path d="M67.1076 35.9602H60.7964L59.2808 40.4075H56.6076L62.5855 23.9536H65.3628L71.3407 40.4075H68.6219L67.1076 35.9602ZM61.45 33.908H66.4527L63.9866 26.6903H63.9176L61.45 33.908Z" fill="white"/>
<path d="M84.2508 34.4102C84.2508 38.138 82.243 40.5331 79.2131 40.5331C78.4455 40.573 77.6822 40.3973 77.0105 40.0261C76.3388 39.6549 75.7858 39.1033 75.4149 38.4343H75.3576V44.3761H72.8797V28.4114H75.2782V30.4067H75.3238C75.7117 29.7409 76.274 29.1921 76.9508 28.8187C77.6277 28.4452 78.3937 28.2611 79.1675 28.2859C82.2313 28.2859 84.2508 30.6926 84.2508 34.4102ZM81.704 34.4102C81.704 31.9814 80.4409 30.3847 78.5138 30.3847C76.6206 30.3847 75.3472 32.0151 75.3472 34.4102C75.3472 36.8273 76.6206 38.446 78.5138 38.446C80.4409 38.446 81.704 36.8609 81.704 34.4102Z" fill="white"/>
<path d="M97.5373 34.4101C97.5373 38.138 95.5295 40.5331 92.4995 40.5331C91.732 40.573 90.9686 40.3973 90.2969 40.0261C89.6252 39.6549 89.0722 39.1033 88.7013 38.4343H88.644V44.3761H86.1661V28.4114H88.5646V30.4067H88.6101C88.9981 29.7409 89.5604 29.1921 90.2372 28.8187C90.9141 28.4452 91.6801 28.2611 92.4539 28.2859C95.5177 28.2859 97.5373 30.6926 97.5373 34.4101ZM94.9904 34.4101C94.9904 31.9814 93.7274 30.3847 91.8003 30.3847C89.9071 30.3847 88.6336 32.015 88.6336 34.4101C88.6336 36.8272 89.9071 38.446 91.8003 38.446C93.7274 38.446 94.9904 36.8609 94.9904 34.4101H94.9904Z" fill="white"/>
<path d="M106.319 35.8229C106.502 37.4546 108.097 38.5259 110.277 38.5259C112.365 38.5259 113.868 37.4546 113.868 35.9833C113.868 34.7062 112.962 33.9415 110.816 33.4174L108.67 32.9037C105.63 32.174 104.218 30.761 104.218 28.4681C104.218 25.6292 106.708 23.6792 110.243 23.6792C113.742 23.6792 116.14 25.6292 116.221 28.4681H113.72C113.57 26.8261 112.204 25.8349 110.208 25.8349C108.212 25.8349 106.846 26.8377 106.846 28.2973C106.846 29.4606 107.718 30.1451 109.852 30.6691L111.677 31.1142C115.074 31.9125 116.485 33.2686 116.485 35.6753C116.485 38.7536 114.018 40.6816 110.093 40.6816C106.421 40.6816 103.942 38.7989 103.782 35.8228L106.319 35.8229Z" fill="white"/>
<path d="M121.833 25.5723V28.4112H124.128V30.3612H121.833V36.9745C121.833 38.0019 122.293 38.4807 123.302 38.4807C123.574 38.4759 123.846 38.4569 124.117 38.4237V40.362C123.663 40.4463 123.202 40.4844 122.74 40.4759C120.296 40.4759 119.343 39.5637 119.343 37.2371V30.3612H117.588V28.4112H119.343V25.5723H121.833Z" fill="white"/>
<path d="M125.458 34.4099C125.458 30.6355 127.695 28.2637 131.183 28.2637C134.683 28.2637 136.91 30.6354 136.91 34.4099C136.91 38.1947 134.695 40.5561 131.183 40.5561C127.673 40.5561 125.458 38.1947 125.458 34.4099ZM134.385 34.4099C134.385 31.8207 133.191 30.2926 131.183 30.2926C129.175 30.2926 127.983 31.8324 127.983 34.4099C127.983 37.0094 129.175 38.526 131.183 38.526C133.191 38.526 134.385 37.0094 134.385 34.4099H134.385Z" fill="white"/>
<path d="M138.953 28.4113H141.316V30.4531H141.373C141.533 29.8154 141.909 29.2519 142.438 28.8572C142.967 28.4625 143.616 28.2607 144.277 28.2858C144.562 28.2848 144.847 28.3156 145.126 28.3777V30.6809C144.765 30.5714 144.389 30.5211 144.013 30.5321C143.653 30.5176 143.294 30.5806 142.961 30.717C142.627 30.8533 142.328 31.0596 142.083 31.3218C141.837 31.584 141.652 31.8959 141.539 32.236C141.427 32.5761 141.39 32.9363 141.431 33.2921V40.4075H138.953L138.953 28.4113Z" fill="white"/>
<path d="M156.55 36.8839C156.217 39.0616 154.083 40.5561 151.352 40.5561C147.841 40.5561 145.661 38.218 145.661 34.4668C145.661 30.7041 147.852 28.2637 151.248 28.2637C154.588 28.2637 156.688 30.5436 156.688 34.1809V35.0245H148.162V35.1733C148.123 35.6148 148.179 36.0596 148.325 36.4781C148.472 36.8966 148.707 37.2792 149.014 37.6006C149.322 37.922 149.694 38.1747 150.107 38.3421C150.52 38.5094 150.964 38.5875 151.41 38.5712C151.995 38.6258 152.583 38.491 153.085 38.187C153.587 37.883 153.978 37.426 154.197 36.8839L156.55 36.8839ZM148.174 33.3036H154.209C154.231 32.9066 154.171 32.5094 154.031 32.1368C153.892 31.7642 153.676 31.4243 153.398 31.1384C153.12 30.8525 152.786 30.6268 152.416 30.4754C152.046 30.3241 151.648 30.2504 151.248 30.2589C150.845 30.2565 150.445 30.3336 150.071 30.4856C149.698 30.6377 149.359 30.8617 149.073 31.1447C148.787 31.4278 148.56 31.7643 148.406 32.1348C148.252 32.5054 148.173 32.9026 148.174 33.3036V33.3036Z" fill="white"/>
<path d="M61.1395 11.5685C61.659 11.5315 62.1803 11.6095 62.6658 11.7969C63.1512 11.9843 63.5888 12.2764 63.9469 12.6522C64.305 13.028 64.5748 13.4781 64.7366 13.9701C64.8985 14.462 64.9485 14.9835 64.883 15.497C64.883 18.0227 63.5093 19.4746 61.1395 19.4746H58.2658V11.5685H61.1395ZM59.5015 18.3565H61.0015C61.3727 18.3786 61.7442 18.3181 62.0889 18.1795C62.4336 18.0409 62.7429 17.8276 62.9942 17.5552C63.2455 17.2829 63.4326 16.9582 63.5417 16.6049C63.6509 16.2517 63.6794 15.8787 63.6252 15.5131C63.6754 15.1489 63.644 14.7782 63.5332 14.4275C63.4224 14.0769 63.2349 13.7549 62.9841 13.4847C62.7334 13.2145 62.4256 13.0027 62.0828 12.8646C61.7401 12.7265 61.3708 12.6654 61.0015 12.6858H59.5015V18.3565Z" fill="white"/>
<path d="M66.2788 16.4888C66.2411 16.0967 66.2862 15.7011 66.4113 15.3273C66.5365 14.9536 66.7388 14.61 67.0054 14.3185C67.272 14.027 67.5969 13.7941 67.9594 13.6348C68.3219 13.4754 68.7139 13.3931 69.1102 13.3931C69.5066 13.3931 69.8986 13.4754 70.261 13.6348C70.6235 13.7941 70.9484 14.027 71.215 14.3185C71.4816 14.61 71.684 14.9536 71.8091 15.3273C71.9342 15.7011 71.9793 16.0967 71.9416 16.4888C71.9801 16.8813 71.9355 17.2774 71.8107 17.6518C71.6859 18.0261 71.4837 18.3704 71.217 18.6624C70.9503 18.9545 70.6252 19.1878 70.2623 19.3475C69.8995 19.5073 69.507 19.5898 69.1102 19.5898C68.7134 19.5898 68.3209 19.5073 67.9581 19.3475C67.5953 19.1878 67.2701 18.9545 67.0034 18.6624C66.7368 18.3704 66.5346 18.0261 66.4098 17.6518C66.285 17.2774 66.2404 16.8813 66.2788 16.4888ZM70.7228 16.4888C70.7228 15.1955 70.1382 14.4392 69.1122 14.4392C68.0822 14.4392 67.5028 15.1955 67.5028 16.4888C67.5028 17.7924 68.0823 18.5429 69.1122 18.5429C70.1382 18.5429 70.7229 17.7872 70.7229 16.4888H70.7228Z" fill="white"/>
<path d="M79.4689 19.4747H78.2398L76.9989 15.0804H76.9051L75.6695 19.4747H74.452L72.7971 13.5083H73.9989L75.0744 18.061H75.163L76.3973 13.5083H77.5341L78.7684 18.061H78.8622L79.9325 13.5083H81.1174L79.4689 19.4747Z" fill="white"/>
<path d="M82.5093 13.5083H83.6499V14.4561H83.7384C83.8887 14.1156 84.142 13.8303 84.4632 13.6397C84.7843 13.4492 85.1573 13.363 85.5301 13.3931C85.8222 13.3713 86.1156 13.415 86.3884 13.5212C86.6612 13.6273 86.9064 13.793 87.106 14.0062C87.3056 14.2193 87.4544 14.4743 87.5413 14.7523C87.6282 15.0303 87.6511 15.3242 87.6082 15.6122V19.4746H86.4233V15.9079C86.4233 14.9491 86.0041 14.4722 85.1278 14.4722C84.9294 14.4631 84.7314 14.4966 84.5474 14.5706C84.3633 14.6446 84.1975 14.7572 84.0613 14.9008C83.9251 15.0444 83.8218 15.2156 83.7585 15.4026C83.6951 15.5896 83.6732 15.788 83.6942 15.9842V19.4746H82.5093L82.5093 13.5083Z" fill="white"/>
<path d="M89.4963 11.1792H90.6812V19.4747H89.4963V11.1792Z" fill="white"/>
<path d="M92.3283 16.4889C92.2906 16.0968 92.3358 15.7011 92.4609 15.3274C92.5861 14.9536 92.7884 14.61 93.055 14.3185C93.3217 14.027 93.6466 13.7941 94.0091 13.6348C94.3716 13.4754 94.7636 13.3931 95.16 13.3931C95.5564 13.3931 95.9484 13.4754 96.3109 13.6348C96.6734 13.7941 96.9984 14.027 97.265 14.3185C97.5316 14.61 97.734 14.9536 97.8591 15.3274C97.9843 15.7011 98.0294 16.0968 97.9917 16.4889C98.0301 16.8814 97.9855 17.2775 97.8607 17.6519C97.7358 18.0262 97.5336 18.3705 97.2669 18.6625C97.0002 18.9546 96.675 19.1879 96.3121 19.3476C95.9493 19.5073 95.5569 19.5898 95.16 19.5898C94.7632 19.5898 94.3707 19.5073 94.0079 19.3476C93.645 19.1879 93.3198 18.9546 93.0531 18.6625C92.7864 18.3705 92.5842 18.0262 92.4594 17.6519C92.3345 17.2775 92.2899 16.8814 92.3283 16.4889ZM96.7723 16.4889C96.7723 15.1956 96.1877 14.4393 95.1616 14.4393C94.1317 14.4393 93.5523 15.1956 93.5523 16.4889C93.5523 17.7925 94.1317 18.543 95.1616 18.543C96.1877 18.543 96.7723 17.7874 96.7723 16.4889H96.7723Z" fill="white"/>
<path d="M99.2391 17.7873C99.2391 16.7133 100.044 16.0942 101.472 16.0062L103.099 15.913V15.398C103.099 14.7679 102.679 14.412 101.869 14.412C101.208 14.412 100.75 14.6534 100.618 15.0752H99.4709C99.592 14.0504 100.562 13.3931 101.924 13.3931C103.429 13.3931 104.278 14.1377 104.278 15.398V19.4746H103.138V18.6361H103.044C102.854 18.9369 102.586 19.1821 102.27 19.3467C101.953 19.5112 101.598 19.5893 101.24 19.5729C100.988 19.599 100.734 19.5722 100.493 19.4945C100.252 19.4167 100.03 19.2896 99.8411 19.1213C99.6526 18.9531 99.5016 18.7475 99.3979 18.5177C99.2942 18.2879 99.2401 18.0391 99.2391 17.7873ZM103.099 17.2775V16.7787L101.632 16.8718C100.806 16.9268 100.431 17.2063 100.431 17.7323C100.431 18.2693 100.899 18.5818 101.544 18.5818C101.733 18.6008 101.923 18.5818 102.105 18.526C102.286 18.4703 102.454 18.3788 102.599 18.2571C102.744 18.1354 102.863 17.986 102.949 17.8177C103.035 17.6494 103.086 17.4657 103.099 17.2775Z" fill="white"/>
<path d="M105.835 16.4889C105.835 14.6036 106.811 13.4093 108.328 13.4093C108.703 13.3922 109.075 13.4815 109.401 13.6668C109.727 13.8522 109.994 14.1259 110.169 14.4561H110.257V11.1792H111.442V19.4747H110.307V18.532H110.213C110.024 18.86 109.749 19.1303 109.416 19.3138C109.084 19.4973 108.708 19.5869 108.328 19.573C106.8 19.5731 105.835 18.3787 105.835 16.4889ZM107.059 16.4889C107.059 17.7544 107.66 18.5159 108.664 18.5159C109.662 18.5159 110.279 17.7434 110.279 16.4941C110.279 15.2506 109.656 14.4671 108.664 14.4671C107.666 14.4671 107.059 15.2338 107.059 16.4889H107.059Z" fill="white"/>
<path d="M116.345 16.4888C116.307 16.0967 116.352 15.7011 116.477 15.3273C116.602 14.9536 116.805 14.61 117.071 14.3185C117.338 14.027 117.663 13.7941 118.025 13.6348C118.388 13.4754 118.78 13.3931 119.176 13.3931C119.572 13.3931 119.964 13.4754 120.327 13.6348C120.689 13.7941 121.014 14.027 121.281 14.3185C121.547 14.61 121.75 14.9536 121.875 15.3273C122 15.7011 122.045 16.0967 122.007 16.4888C122.046 16.8813 122.001 17.2774 121.876 17.6518C121.752 18.0261 121.549 18.3704 121.283 18.6624C121.016 18.9545 120.691 19.1878 120.328 19.3475C119.965 19.5073 119.573 19.5898 119.176 19.5898C118.779 19.5898 118.387 19.5073 118.024 19.3475C117.661 19.1878 117.336 18.9545 117.069 18.6624C116.803 18.3704 116.6 18.0261 116.475 17.6518C116.351 17.2774 116.306 16.8813 116.345 16.4888ZM120.789 16.4888C120.789 15.1955 120.204 14.4392 119.178 14.4392C118.148 14.4392 117.569 15.1955 117.569 16.4888C117.569 17.7924 118.148 18.5429 119.178 18.5429C120.204 18.5429 120.789 17.7872 120.789 16.4888Z" fill="white"/>
<path d="M123.597 13.5083H124.738V14.4561H124.826C124.977 14.1156 125.23 13.8303 125.551 13.6397C125.872 13.4492 126.245 13.363 126.618 13.3931C126.91 13.3713 127.203 13.415 127.476 13.5212C127.749 13.6273 127.994 13.793 128.194 14.0062C128.393 14.2193 128.542 14.4743 128.629 14.7523C128.716 15.0303 128.739 15.3242 128.696 15.6122V19.4746H127.511V15.9079C127.511 14.9491 127.092 14.4722 126.216 14.4722C126.017 14.4631 125.819 14.4966 125.635 14.5706C125.451 14.6446 125.285 14.7572 125.149 14.9008C125.013 15.0444 124.91 15.2156 124.846 15.4026C124.783 15.5896 124.761 15.788 124.782 15.9842V19.4746H123.597V13.5083Z" fill="white"/>
<path d="M135.391 12.0229V13.5356H136.692V14.5274H135.391V17.5953C135.391 18.2203 135.651 18.494 136.24 18.494C136.391 18.4935 136.542 18.4844 136.692 18.4668V19.4476C136.479 19.4854 136.264 19.5056 136.048 19.5078C134.73 19.5078 134.205 19.0471 134.205 17.8968V14.5273H133.252V13.5355H134.205V12.0229H135.391Z" fill="white"/>
<path d="M138.311 11.1792H139.485V14.4671H139.579C139.736 14.1235 139.997 13.8365 140.324 13.6453C140.652 13.454 141.031 13.3678 141.41 13.3983C141.7 13.3826 141.991 13.4308 142.26 13.5395C142.53 13.6482 142.772 13.8147 142.97 14.0272C143.167 14.2396 143.315 14.4928 143.403 14.7686C143.491 15.0443 143.516 15.336 143.477 15.6226V19.4747H142.291V15.9131C142.291 14.9601 141.845 14.4775 141.007 14.4775C140.804 14.4609 140.599 14.4887 140.407 14.559C140.215 14.6293 140.042 14.7403 139.898 14.8844C139.754 15.0285 139.643 15.2021 139.574 15.3931C139.504 15.5841 139.478 15.7878 139.496 15.9901V19.4747H138.311L138.311 11.1792Z" fill="white"/>
<path d="M150.386 17.8637C150.225 18.409 149.876 18.8807 149.401 19.1963C148.925 19.5118 148.353 19.6511 147.785 19.5899C147.389 19.6002 146.996 19.5249 146.633 19.3692C146.269 19.2135 145.945 18.9811 145.681 18.6881C145.417 18.3951 145.22 18.0485 145.105 17.6724C144.989 17.2964 144.957 16.8998 145.011 16.5103C144.959 16.1196 144.991 15.7221 145.106 15.345C145.222 14.9678 145.417 14.6196 145.68 14.324C145.942 14.0285 146.265 13.7924 146.628 13.6318C146.99 13.4712 147.383 13.3898 147.779 13.3932C149.45 13.3932 150.458 14.5274 150.458 16.4009V16.8118H146.218V16.8778C146.2 17.0967 146.227 17.3171 146.3 17.5248C146.372 17.7325 146.487 17.9229 146.637 18.0838C146.788 18.2448 146.971 18.3727 147.174 18.4593C147.377 18.546 147.596 18.5895 147.817 18.587C148.101 18.6208 148.388 18.5701 148.642 18.4413C148.897 18.3125 149.107 18.1115 149.246 17.8637L150.386 17.8637ZM146.218 15.9409H149.251C149.266 15.7407 149.238 15.5396 149.17 15.3505C149.102 15.1614 148.995 14.9885 148.856 14.8429C148.717 14.6974 148.549 14.5823 148.362 14.5053C148.176 14.4282 147.975 14.3907 147.773 14.3953C147.568 14.3928 147.365 14.431 147.175 14.5078C146.985 14.5846 146.813 14.6983 146.668 14.8424C146.523 14.9864 146.408 15.1578 146.331 15.3465C146.254 15.5352 146.216 15.7373 146.218 15.9409H146.218Z" fill="white"/>
</g>
<defs>
<clipPath id="clip0_28034_442086">
<rect width="180" height="53" fill="white"/>
</clipPath>
</defs>
</svg>
