<svg width="32" height="32" fill="none" xmlns="http://www.w3.org/2000/svg"><g filter="url(#a)"><circle cx="16" cy="15" r="14" fill="#fff"/></g><path d="M15.513 22.793a.72.72 0 0 0 .985.021l7.025-6.632c1.97-1.86 1.97-4.897 0-6.756a5.186 5.186 0 0 0-3.59-1.405 5.186 5.186 0 0 0-3.588 1.405l-.35.33-.372-.351A5.187 5.187 0 0 0 12.055 8c-1.357 0-2.626.496-3.567 1.405C7.525 10.314 7 11.512 7 12.773c0 1.28.525 2.48 1.488 3.367l7.025 6.653ZM9.451 10.314c.678-.661 1.62-1.012 2.604-1.012.985 0 1.926.372 2.627 1.033l.853.805a.7.7 0 0 0 .481.186.7.7 0 0 0 .482-.186l.831-.785a3.785 3.785 0 0 1 2.627-1.033c.984 0 1.904.372 2.604 1.013 1.444 1.363 1.444 3.574 0 4.938l-6.565 6.177-6.566-6.198c-.7-.661-1.094-1.529-1.094-2.48.022-.929.416-1.797 1.116-2.458Z" fill="#919EAB"/><defs><filter id="a" x="0" y="0" width="32" height="32" filterUnits="userSpaceOnUse" color-interpolation-filters="sRGB"><feFlood flood-opacity="0" result="BackgroundImageFix"/><feColorMatrix in="SourceAlpha" values="0 0 0 0 0 0 0 0 0 0 0 0 0 0 0 0 0 0 127 0" result="hardAlpha"/><feOffset dy="1"/><feGaussianBlur stdDeviation="1"/><feColorMatrix values="0 0 0 0 0 0 0 0 0 0 0 0 0 0 0 0 0 0 0.06 0"/><feBlend in2="BackgroundImageFix" result="effect1_dropShadow_27582_12510"/><feBlend in="SourceGraphic" in2="effect1_dropShadow_27582_12510" result="shape"/></filter></defs></svg>