<svg width="40" height="40" fill="none" xmlns="http://www.w3.org/2000/svg"><g filter="url(#a)"><path d="M20 30c6.627 0 12-5.373 12-12S26.627 6 20 6 8 11.373 8 18s5.373 12 12 12Z" fill="#fff"/></g><mask id="b" fill="#fff"><path d="M27.049 18.372a.68.68 0 0 1 0-.743l1.122-1.73a.681.681 0 0 0 .078-.58.691.691 0 0 0-.404-.422l-1.925-.735a.684.684 0 0 1-.436-.603l-.106-2.058a.679.679 0 0 0-.556-.634.687.687 0 0 0-.301.01l-1.986.536a.676.676 0 0 1-.706-.228L20.532 9.58a.682.682 0 0 0-1.054 0l-1.295 1.603a.676.676 0 0 1-.704.23l-1.988-.535a.688.688 0 0 0-.776.333.677.677 0 0 0-.081.29l-.104 2.058a.684.684 0 0 1-.436.6l-1.925.736a.677.677 0 0 0-.337 1.005l1.123 1.727a.681.681 0 0 1 0 .743l-1.123 1.725a.679.679 0 0 0 .327 1.007l1.925.738a.684.684 0 0 1 .447.602l.105 2.058a.686.686 0 0 0 .557.634c.1.018.202.014.3-.013l1.986-.535a.68.68 0 0 1 .706.23l1.295 1.603a.684.684 0 0 0 1.054 0l1.295-1.603a.68.68 0 0 1 .706-.23l1.988.535a.678.678 0 0 0 .857-.621l.106-2.058a.685.685 0 0 1 .436-.6l1.925-.738a.678.678 0 0 0 .326-1.006l-1.124-1.726Zm-2.492-2.148-4.617 4.62a.954.954 0 0 1-1.35 0l-2.318-2.318a.955.955 0 0 1 1.35-1.35l1.635 1.632 3.95-3.934a.955.955 0 1 1 1.35 1.35Z"/></mask><path d="M27.049 18.372a.68.68 0 0 1 0-.743l1.122-1.73a.681.681 0 0 0 .078-.58.691.691 0 0 0-.404-.422l-1.925-.735a.684.684 0 0 1-.436-.603l-.106-2.058a.679.679 0 0 0-.556-.634.687.687 0 0 0-.301.01l-1.986.536a.676.676 0 0 1-.706-.228L20.532 9.58a.682.682 0 0 0-1.054 0l-1.295 1.603a.676.676 0 0 1-.704.23l-1.988-.535a.688.688 0 0 0-.776.333.677.677 0 0 0-.081.29l-.104 2.058a.684.684 0 0 1-.436.6l-1.925.736a.677.677 0 0 0-.337 1.005l1.123 1.727a.681.681 0 0 1 0 .743l-1.123 1.725a.679.679 0 0 0 .327 1.007l1.925.738a.684.684 0 0 1 .447.602l.105 2.058a.686.686 0 0 0 .557.634c.1.018.202.014.3-.013l1.986-.535a.68.68 0 0 1 .706.23l1.295 1.603a.684.684 0 0 0 1.054 0l1.295-1.603a.68.68 0 0 1 .706-.23l1.988.535a.678.678 0 0 0 .857-.621l.106-2.058a.685.685 0 0 1 .436-.6l1.925-.738a.678.678 0 0 0 .326-1.006l-1.124-1.726Zm-2.492-2.148-4.617 4.62a.954.954 0 0 1-1.35 0l-2.318-2.318a.955.955 0 0 1 1.35-1.35l1.635 1.632 3.95-3.934a.955.955 0 1 1 1.35 1.35Z" fill="#EB92A7" stroke="#DB284E" stroke-width="2" mask="url(#b)"/><defs><filter id="a" x="0" y="0" width="40" height="40" filterUnits="userSpaceOnUse" color-interpolation-filters="sRGB"><feFlood flood-opacity="0" result="BackgroundImageFix"/><feColorMatrix in="SourceAlpha" values="0 0 0 0 0 0 0 0 0 0 0 0 0 0 0 0 0 0 127 0" result="hardAlpha"/><feOffset dy="2"/><feGaussianBlur stdDeviation="4"/><feColorMatrix values="0 0 0 0 0 0 0 0 0 0 0 0 0 0 0 0 0 0 0.15 0"/><feBlend in2="BackgroundImageFix" result="effect1_dropShadow_28138_15894"/><feBlend in="SourceGraphic" in2="effect1_dropShadow_28138_15894" result="shape"/></filter></defs></svg>