<svg xmlns="http://www.w3.org/2000/svg" width="142" height="142" fill="none"><path fill="#F3BDCA" d="M130.163 119.233c5.81-6.556 6.283-16.058 4.828-24.697-1.941-11.549-5.443-16.767-11.833-22.814-5.917-5.621-13.467-8.804-20.389-12.863-7.727-4.544-13.42-11.135-19.94-17.218-6.52-6.082-13.95-11.94-22.755-13.738-9.36-1.917-19.418 1.089-26.755 7.195a41.238 41.238 0 0 0-13.703 24.495c-.805 4.544-.959 9.253-2.52 13.596-2.84 7.94-10 13.845-12.295 21.975a31.004 31.004 0 0 0-.746 10.082c.296 4.851 1.183 10.011 4.662 13.466"/><path fill="#FBE9ED" d="M94.213 72.917a26.188 26.188 0 0 1-3.23-23.608 54.345 54.345 0 0 0 3.763 3.432 21.572 21.572 0 0 0 32.672 23.324 32.592 32.592 0 0 1 2.615 3.775 26.223 26.223 0 0 1-35.82-6.923Z"/><path fill="#FBE9ED" d="M102.954 66.823a15.381 15.381 0 0 1-2.746-9.881c.769.52 1.55 1.03 2.367 1.503 6.922 4.059 14.519 7.254 20.389 12.875l.236.224a15.56 15.56 0 0 1-20.246-4.721Z"/><path fill="#FBE9ED" d="M86.107 78.573a36.103 36.103 0 0 1-2.722-36.683c.982.923 1.94 1.87 2.9 2.804A32.246 32.246 0 0 0 132.6 85.39a81.121 81.121 0 0 1 1.183 3.763 36.126 36.126 0 0 1-47.676-10.579Z"/><path fill="#EB92A7" d="M81.126 82.04a42.174 42.174 0 0 1-2.367-44.327 104.88 104.88 0 0 1 3.928 3.55l.71.698a36.068 36.068 0 0 0 50.316 47.227 66.732 66.732 0 0 1 1.029 4.946c.071.426.13.864.19 1.29A42.206 42.206 0 0 1 81.126 82.04Z"/><path fill="#EB92A7" d="M89.232 76.384a32.281 32.281 0 0 1-2.946-31.654c1.573 1.538 3.124 3.077 4.733 4.58a26.175 26.175 0 0 0 39.05 30.53 31.682 31.682 0 0 1 2.568 5.585 32.329 32.329 0 0 1-43.405-9.04Z"/><path fill="#EB92A7" d="M97.984 70.29a21.535 21.535 0 0 1-3.231-17.549 58.142 58.142 0 0 0 5.467 4.2 15.516 15.516 0 0 0 15.012 16.537 15.512 15.512 0 0 0 7.98-1.934 49.154 49.154 0 0 1 4.213 4.52 21.633 21.633 0 0 1-29.441-5.774ZM10.273 119.73s8.9-25.738 49.227-16.271c40.328 9.467 29.252 15.632 53.392 9.407 19.951-5.135 25.146 6.864 25.146 6.864"/><path stroke="#707070" stroke-linecap="round" stroke-miterlimit="10" stroke-width="2" d="M25.11 119.126h112.925M17.219 119.126h2.934M4.664 119.126h7.479"/><path fill="#DB284E" d="M102.439 25.217s4.343-1.55 4.521 1.384a5.92 5.92 0 0 1-2.367 5.562c-1.183.568-3.124 1.03-3.81 3.136-.497 1.526-.888 2.65-1.065 3.148a.343.343 0 0 0 .177.425l1.846.9a.877.877 0 0 0 1.183-.497c.438-1.278 1.491-3.42 3.55-3.87a8.769 8.769 0 0 0 5.132-4.348 8.788 8.788 0 0 0 .548-6.704 9.093 9.093 0 0 0-4.904-5.143 9.086 9.086 0 0 0-7.106-.04 2.093 2.093 0 0 0-.84 2.26c.378 1.503.425 4.45 3.135 3.787ZM101.596 44.574c.231-1.373-.548-2.648-1.74-2.85-1.192-.2-2.346.75-2.578 2.122-.231 1.373.548 2.649 1.74 2.85 1.192.2 2.346-.75 2.578-2.122ZM113.928 38.352s3.278.331 2.509 2.284a4.217 4.217 0 0 1-3.266 2.851c-.911 0-2.367-.284-3.432.876-.781.828-1.384 1.432-1.644 1.704a.248.248 0 0 0 0 .331l.923 1.184a.603.603 0 0 0 .461.208.614.614 0 0 0 .462-.208 3.944 3.944 0 0 1 3.55-1.397 6.279 6.279 0 0 0 6.306-3.073 6.29 6.29 0 0 0 .794-2.334 6.5 6.5 0 0 0-6.189-7.03 1.493 1.493 0 0 0-1.184 1.184c-.378 1.1-1.242 3.03.71 3.42ZM107.466 50.61c.569-.814.456-1.875-.252-2.368-.708-.494-1.742-.233-2.31.582-.568.814-.455 1.875.252 2.368.708.494 1.742.233 2.31-.581Z"/><path fill="#E89D89" d="M19.316 67.983s-8.46-8.615-10.235-11.538c-2.036-3.349 10.65-8.011 10.65-8.011l3.668 4.425a9.469 9.469 0 0 1 2.366-2.177 1.953 1.953 0 0 1 2.698.734l-.745.805s-3.55 4.733-2.603 6.84C26.06 61.165 27.8 63.9 27.8 63.9l-2.947 2.603-5.538 1.48Z"/><path fill="#DB284E" d="M30.178 57.534s-9.313 8.579-15.975 11.194c0 0 16.437 31.571 24.436 32.151a15.393 15.393 0 0 0 12.662-5.597v22.673h56.681l-2.366-9.218s9.17-11.479 7.987-19.04a66.474 66.474 0 0 0-5.763-18.531 24.362 24.362 0 0 0-10.129-10.272c-7.017-3.763-20.117-6.39-33.382-2.047 0 0-16.732 4.887-19.11 9.893-1.752 3.692-4.142 8.141-4.142 8.141L30.178 57.534Z"/><path fill="#707070" d="M23.523 45.972 8.802 59.57a1.917 1.917 0 0 0-.107 2.674l.296.32a1.905 1.905 0 0 0 2.686.154l14.71-13.632a10.58 10.58 0 0 1-2.864-3.113ZM32.66 29.927a10.555 10.555 0 0 0-9.135 16.045l1.255-1.183a8.627 8.627 0 0 1-1.184-4.39 8.886 8.886 0 0 1 7.645-8.733c.446-.066.897-.101 1.349-.107a8.899 8.899 0 0 1 3.55.805c.476.22.935.478 1.372.77a8.91 8.91 0 0 1-5.029 16.33h-.603a8.886 8.886 0 0 1-2.178-.438 8.628 8.628 0 0 1-1.301-.651 7.694 7.694 0 0 1-.734-.462L26.4 49.097a10.579 10.579 0 1 0 6.271-19.159l-.011-.011Z"/><path fill="#707070" d="M24.848 44.884v-.071l-1.254 1.183a10.578 10.578 0 0 0 2.863 3.112l1.267-1.183a8.957 8.957 0 0 1-2.876-3.041Z"/><path fill="#78DFFF" d="m24.849 44.706-.107.107v.07l.107-.177Z"/><g opacity=".5"><path fill="#78DFFF" d="M26.246 34.222a8.888 8.888 0 0 0 2.686 14.413v-.154l-2.686-14.259ZM35.358 48.966l-3.301-17.36a8.34 8.34 0 0 0-1.432.202L33.95 49.31c.477-.08.948-.195 1.408-.344ZM37.862 47.676a8.912 8.912 0 0 0 1.882-12.46 8.815 8.815 0 0 0-5.431-3.455L37.4 48.008l.461-.332Z" opacity=".5"/><path fill="#9FEDFF" d="M28.972 48.517a1.905 1.905 0 0 1 2.2-1.539l.427.083a1.905 1.905 0 0 1 1.538 2.154v.165c.284 0 .568 0 .852-.07l-3.36-17.502a8.897 8.897 0 0 0-3.35 1.515 9.452 9.452 0 0 0-1.029.899l2.71 14.2.012.095Z" opacity=".5"/><path fill="#9FEDFF" d="m31.596 47.002-.426-.083a1.906 1.906 0 0 0-2.201 1.598v.189a9.03 9.03 0 0 0 4.106.71v-.166a1.905 1.905 0 0 0-1.48-2.248ZM37.356 48.008 34.314 31.76a8.683 8.683 0 0 0-2.212-.154l3.301 17.36a8.606 8.606 0 0 0 1.953-.96Z" opacity=".5"/></g><path fill="#231F20" d="M51.273 114.937v3.018h56.706l-.758-3.018H51.273Z" opacity=".1"/><path fill="#F2AA91" d="M88.038 107.068c-1.952 2.071-2.78 3.266-3.455 3.55-1.183.5-2.43.834-3.704.994a8.021 8.021 0 0 0-3.644 1.479c-.781.592-1.385 1.302-1.1 2 .626 1.586 2.01-.722 4.437.083 0 0-3.763 3.798-4.852 4.934-1.467 1.527-3.03 6.213.757 8.532 3.385 2.071 6.402 1.302 9.715-2.035a16.326 16.326 0 0 0 4.083-6.378c.745-2.012 2.45-4.107 5.266-6.438l-7.502-6.721ZM9.275 53.124l7.123-5.031a3.408 3.408 0 0 1 4.75.818l1.215 1.72a5.433 5.433 0 0 1-1.303 7.57l-3.809 2.69a5.43 5.43 0 0 1-7.53-1.331l-1.216-1.72a3.408 3.408 0 0 1 .818-4.75l-.048.034Z"/><path fill="#221F20" d="M71.098 46.316c7.587 0 13.738-6.151 13.738-13.739 0-7.587-6.15-13.738-13.738-13.738-7.588 0-13.739 6.15-13.739 13.738 0 7.588 6.151 13.739 13.739 13.739Z"/><path fill="#F2AA91" d="M59.1 27.311s-4 16.342.072 23.773c4.07 7.432 9.667 1.728 9.667 1.728l-1.065 5.834s3.29 6.496 5.81 6.496c0 0 5.775-5.916 8.615-7.821 0 0-2.591-1.184-2.367-13.502 0 0 5.657-3.089 2.533-8.615-3.408-6.2-6.272 6.213-6.272 6.213S75.371 20.649 59.1 27.31Z"/><path fill="#221F20" d="M76.54 24.53a6.165 6.165 0 1 0 0-12.33 6.165 6.165 0 0 0 0 12.33Z"/><path fill="#B81B3D" d="M84.453 107.21s8.284 5.266 11.514 10.461l4.426-4.071-12.496-9.81-3.444 3.42Z"/><path fill="#221F20" d="M57.734 35.252s4.734-3.988 5.077-6.438c0 0 2.438 7.585 13.525 8l-.603-11.692-12.047-1.455-5.123 3.254-.829 8.33Z"/><path stroke="#9D2841" stroke-linecap="round" stroke-miterlimit="10" d="m89.932 78.692 4.733 11.833-10.212 16.685.107.059a32.499 32.499 0 0 1 10.733 9.467l.674.923 9.703-8.934" opacity=".1"/><path stroke="#231F20" stroke-linecap="round" stroke-miterlimit="10" d="m51.279 95.282-.935-14.07M41.086 76.881l1.976 3.112" opacity=".1"/><path fill="#49A09D" d="m18.422 28.199 4.627 4.804-2.556-6.153-2.071 1.349ZM16.984 33.63l5.325.545-4.757-2.45-.568 1.905Z"/></svg>