<svg xmlns="http://www.w3.org/2000/svg" width="217" height="217" fill="none" xmlns:v="https://vecta.io/nano"><style><![CDATA[.B{opacity:.2}.C{fill:#727272}.D{fill:#1b8884}.E{fill:#db284e}.F{fill:#f2aa91}.G{fill:#ff792f}.H{fill:#fbb040}.I{fill:#bbdbda}.J{fill:#ac1d3e}]]></style><g clip-path="url(#A)"><g class="B C"><path d="M41.417 210.45c11.371 0 20.589-.581 20.589-1.297s-9.218-1.297-20.589-1.297-20.589.581-20.589 1.297 9.218 1.297 20.589 1.297z" class="B"/></g><g class="B C"><path d="M183.866 209.948c11.371 0 20.588-.581 20.588-1.297s-9.217-1.297-20.588-1.297-20.589.581-20.589 1.297 9.218 1.297 20.589 1.297z" class="B"/></g><path d="M162.975 187.547a86.3 86.3 0 0 0 29.083-43.132c5.027-17.026 4.681-35.189-.992-52.011a86.29 86.29 0 0 0-30.706-41.991c-14.311-10.505-31.514-16.341-49.263-16.712A86.3 86.3 0 0 0 61.178 48.34c-14.738 9.898-26.064 24.101-32.434 40.671s-7.476 34.703-3.165 51.924a86.3 86.3 0 0 0 27.255 44.31" fill="#fceff2"/><path d="M160.674 186.382c11.181 0 20.245-8.72 20.245-19.477s-9.064-19.477-20.245-19.477-20.244 8.72-20.244 19.477 9.063 19.477 20.244 19.477z" fill="#eb92a7"/><g fill="#a0e8cb"><path d="M180.915 186.382c5.591 0 10.122-4.36 10.122-9.738s-4.531-9.739-10.122-9.739-10.122 4.36-10.122 9.739 4.532 9.738 10.122 9.738zm-40.485-.014c6.869 0 12.438-5.355 12.438-11.961s-5.569-11.962-12.438-11.962-12.438 5.356-12.438 11.962 5.569 11.961 12.438 11.961z"/></g><g fill="#eb92a7"><path d="M216.167 187.891H105.18s44.061-17.466 110.987 0zm-114.509-2.688c19.818 0 35.884-15.461 35.884-34.534s-16.066-34.535-35.884-34.535-35.885 15.462-35.885 34.535 16.066 34.534 35.885 34.534z"/><path d="M137.544 185.205c9.909 0 17.942-7.731 17.942-17.268s-8.033-17.267-17.942-17.267-17.942 7.731-17.942 17.267 8.033 17.268 17.942 17.268zm-71.769-.001c12.175 0 22.044-9.496 22.044-21.21s-9.869-21.211-22.044-21.211-22.044 9.496-22.044 21.211 9.869 21.21 22.044 21.21z"/><path d="M200.051 187.891H3.27s78.12-30.976 196.781 0z"/></g><g fill="#f3bdca"><path d="M47.567 190.855c7.286 0 13.192-6.226 13.192-13.906s-5.906-13.907-13.192-13.907-13.192 6.226-13.192 13.907 5.906 13.906 13.192 13.906z"/><path d="M34.376 190.855c4.421 0 8.005-3.188 8.005-7.119s-3.584-7.119-8.005-7.119-8.005 3.187-8.005 7.119 3.584 7.119 8.005 7.119z"/><path d="M83.162 191.753H11.711s28.342-10.387 71.451 0z"/><path d="M62.732 190.313c6.972 0 12.623-5.018 12.623-11.207s-5.652-11.208-12.623-11.208-12.623 5.018-12.623 11.208 5.651 11.207 12.623 11.207z"/><path d="M75.355 190.324c3.486 0 6.311-2.512 6.311-5.61s-2.826-5.61-6.311-5.61-6.311 2.511-6.311 5.61 2.826 5.61 6.311 5.61zm-25.246-.013c4.282 0 7.754-3.081 7.754-6.881s-3.471-6.88-7.754-6.88-7.754 3.08-7.754 6.88 3.471 6.881 7.754 6.881z"/><path d="M96.591 191.515H27.402s27.482-10.056 69.189 0zm57.12-.741c8.659 0 15.679-6.777 15.679-15.137s-7.02-15.137-15.679-15.137-15.68 6.777-15.68 15.137 7.02 15.137 15.68 15.137z"/><path d="M138.046 190.775c4.428 0 8.018-3.466 8.018-7.74s-3.59-7.741-8.018-7.741-8.019 3.466-8.019 7.741 3.59 7.74 8.019 7.74z"/><path d="M186.884 191.754h-71.583s28.421-11.3 71.583 0z"/><path d="M174.898 190.801c6.979 0 12.636-5.462 12.636-12.2s-5.657-12.2-12.636-12.2-12.636 5.462-12.636 12.2 5.657 12.2 12.636 12.2z"/><path d="M162.273 190.802c4.283 0 7.754-3.353 7.754-7.49s-3.471-7.489-7.754-7.489-7.753 3.353-7.753 7.489 3.471 7.49 7.753 7.49z"/><path d="M209.539 191.753h-69.281s27.509-10.943 69.281 0z"/></g><path d="M162.816 116.612c6.263 0 11.34-5.077 11.34-11.34s-5.077-11.339-11.34-11.339a11.34 11.34 0 0 0 0 22.679z" class="G"/><path d="M161.718 115.606c6.263 0 11.34-5.077 11.34-11.34s-5.077-11.339-11.34-11.339a11.34 11.34 0 0 0-11.339 11.339c0 6.263 5.077 11.34 11.339 11.34z" class="H"/><g class="G"><path d="M161.717 114.441c-2.016.003-3.988-.593-5.665-1.711s-2.986-2.71-3.758-4.572-.976-3.912-.583-5.89a10.18 10.18 0 0 1 2.789-5.219c1.425-1.426 3.242-2.396 5.22-2.789a10.19 10.19 0 0 1 5.889.583c1.862.773 3.453 2.081 4.572 3.758a10.19 10.19 0 0 1 1.711 5.665 10.18 10.18 0 0 1-10.175 10.175zm0-19.702c-1.885-.003-3.728.554-5.296 1.599s-2.792 2.532-3.515 4.273a9.53 9.53 0 0 0 2.057 10.387c1.332 1.334 3.029 2.242 4.878 2.611a9.52 9.52 0 0 0 5.506-.54 9.53 9.53 0 0 0 4.277-3.509 9.52 9.52 0 0 0 1.607-5.294c0-2.524-1.002-4.946-2.786-6.732a9.53 9.53 0 0 0-6.728-2.795zm-.659 5.571a1.6 1.6 0 0 1 .569 1.323c.014.141.014.283 0 .423-.063.493-.275.955-.609 1.323a2.72 2.72 0 0 1-1.323.781l1.125 2.779h-1.932l-.979-2.647h-.45l-.463 2.647h-1.707l1.231-7.026h2.871c.585-.069 1.176.071 1.667.397zm-1.204 1.574c.005-.093-.01-.186-.044-.273a.65.65 0 0 0-.154-.229 1.01 1.01 0 0 0-.609-.173h-1.059l-.317 1.76h1.111a1.17 1.17 0 0 0 .741-.225 1.08 1.08 0 0 0 .357-.648 1.68 1.68 0 0 0-.026-.212zm5.317-.477a2.38 2.38 0 0 1 1.072-.238 1.9 1.9 0 0 1 .792.141c.251.103.477.258.663.455a2.22 2.22 0 0 1 .556 1.601c.024.22.024.441 0 .661a3.78 3.78 0 0 1-.582 1.522c-.267.416-.63.761-1.059 1.006a2.65 2.65 0 0 1-1.323.357 1.93 1.93 0 0 1-.992-.238 1.46 1.46 0 0 1-.583-.622l-.608 3.453h-1.72l1.455-8.256h1.707l-.132.794c.202-.265.459-.482.754-.636zm1.323 2.316c.009-.143-.012-.287-.062-.421a1.02 1.02 0 0 0-.229-.36c-.096-.093-.21-.166-.335-.214s-.259-.069-.393-.064c-.345-.002-.677.131-.926.371-.291.263-.482.618-.542 1.006-.006.11-.006.22 0 .33-.009.14.012.281.059.413a1.04 1.04 0 0 0 .218.355c.096.095.209.17.334.22a1 1 0 0 0 .394.071 1.32 1.32 0 0 0 .926-.384c.296-.267.491-.626.556-1.019a2.57 2.57 0 0 0 0-.304zM58.578 117.538c9.317 0 16.87-7.553 16.87-16.871s-7.553-16.87-16.87-16.87-16.87 7.553-16.87 16.87 7.553 16.871 16.871 16.871z"/></g><path d="M57.148 115.831c9.317 0 16.87-7.553 16.87-16.871S66.465 82.09 57.148 82.09s-16.87 7.553-16.87 16.871 7.553 16.871 16.871 16.871z" class="H"/><g class="G"><path d="M57.188 114.097c-.69.002-1.38-.042-2.064-.132a15.23 15.23 0 0 1 2.978-30.296 15.23 15.23 0 0 1-.914 30.428zm0-29.308c-3.693-.005-7.243 1.425-9.901 3.989a14.24 14.24 0 0 0 8.903 24.452 14.24 14.24 0 0 0 15.142-12.745 14.24 14.24 0 0 0-2.966-10.254c-2.281-2.904-5.601-4.808-9.259-5.31a15.59 15.59 0 0 0-1.985-.132h.066zm-.225 8.204a2.37 2.37 0 0 1 .582 1.998 2.98 2.98 0 0 1-.146.635 3.56 3.56 0 0 1-1.138 1.72 3.97 3.97 0 0 1-2.091.887l1.111 4.327-2.845-.384-.939-4.102-.609-.079-1.217 3.811-2.527-.344L50.373 91.3l4.234.569a3.61 3.61 0 0 1 2.355 1.125zm-2.077 2.077a.9.9 0 0 0-.212-.767c-.23-.229-.536-.366-.86-.384l-1.561-.212-.807 2.541 1.561.212c.395.079.805.008 1.151-.198a1.52 1.52 0 0 0 .648-.886l.079-.304zm7.913.37a3.56 3.56 0 0 1 1.641-.172 2.79 2.79 0 0 1 2.025 1.164c.242.359.412.762.498 1.187a3.3 3.3 0 0 1 .005 1.287 5.91 5.91 0 0 1-.225.966 5.75 5.75 0 0 1-1.164 2.117 4.69 4.69 0 0 1-1.773 1.324 3.85 3.85 0 0 1-1.998.264 2.92 2.92 0 0 1-1.403-.542 2.21 2.21 0 0 1-.741-1.046l-1.588 4.962-2.501-.357 3.784-11.908 2.527.344-.37 1.138a3.61 3.61 0 0 1 1.283-.728zm1.495 3.665a1.52 1.52 0 0 0-.265-1.204 1.43 1.43 0 0 0-1.006-.556 2.09 2.09 0 0 0-1.456.357 2.57 2.57 0 0 0-.992 1.323c-.051.155-.087.314-.106.476-.041.205-.039.416.004.621a1.53 1.53 0 0 0 .248.57c.12.157.271.287.444.383a1.42 1.42 0 0 0 .561.172c.515.067 1.035-.066 1.456-.37.491-.328.848-.821 1.006-1.389a2 2 0 0 0 .106-.384z"/></g><path d="M96.411 55.438l-56.58-8.759a1.59 1.59 0 0 0-1.812 1.326L34.436 71.15a1.59 1.59 0 0 0 1.326 1.812l56.58 8.759a1.59 1.59 0 0 0 1.812-1.326l3.583-23.145a1.59 1.59 0 0 0-1.326-1.812z" class="I"/><g class="D"><path d="M92.622 82.499c-.123.014-.247.014-.371 0l-56.618-8.773c-.607-.098-1.152-.43-1.518-.924s-.524-1.113-.44-1.722l3.586-23.182a2.37 2.37 0 0 1 2.646-1.971l56.685 8.759c.607.098 1.152.43 1.518.924s.524 1.113.44 1.722l-3.573 23.142a2.38 2.38 0 0 1-.356.886c-.177.268-.407.498-.676.675a2.29 2.29 0 0 1-1.323.463zM39.576 47.435a.82.82 0 0 0-.807.688l-3.586 23.156a.82.82 0 0 0 .688.926l56.592 8.759c.106.02.215.017.32-.008a.77.77 0 0 0 .289-.138c.087-.064.16-.145.215-.239a.79.79 0 0 0 .103-.304l3.586-23.142a.82.82 0 0 0-.148-.613.82.82 0 0 0-.54-.326l-56.592-8.759h-.119z"/><path d="M37.273 52.769c1.669.26 3.374-.151 4.742-1.142s2.289-2.483 2.562-4.15l-6.325-.979-.979 6.272z"/></g><g fill="#17aa83"><path d="M91.67 54.713c-.26 1.669.151 3.374 1.142 4.742s2.483 2.289 4.15 2.562l.979-6.325-6.272-.979zm3.228 20.932c-1.669-.26-3.374.151-4.742 1.142s-2.289 2.483-2.562 4.15l6.351 1.098.953-6.391z"/></g><g class="D"><path d="M40.516 73.7c.26-1.669-.151-3.374-1.142-4.742s-2.483-2.289-4.15-2.562l-1.032 6.378 6.325.926zm25.575 1.139A10.64 10.64 0 0 0 76.73 64.201a10.64 10.64 0 0 0-10.638-10.638 10.64 10.64 0 0 0-10.638 10.638 10.64 10.64 0 0 0 10.638 10.638z"/></g><g fill="#a0e8cb"><path d="M66.158 60.47a1.74 1.74 0 0 1 .37.695 1.75 1.75 0 0 1 .027.787 3.77 3.77 0 0 1-.106.45 2.74 2.74 0 0 1-.873 1.244 2.82 2.82 0 0 1-1.535.622l.754 3.176-2.077-.318-.622-3.017-.437-.066-.953 2.765-1.839-.278 2.501-7.344 3.096.476a2.73 2.73 0 0 1 1.694.807zm-1.588 1.495a.66.66 0 0 0-.145-.569.94.94 0 0 0-.622-.278l-1.138-.185-.622 1.839 1.138.185c.289.064.591.017.847-.132a1.22 1.22 0 0 0 .49-.635l.053-.225zm5.784.383c.385-.12.793-.147 1.191-.079.294.03.577.123.831.274a2.03 2.03 0 0 1 .638.599c.34.539.458 1.188.331 1.813a4.58 4.58 0 0 1-1.072 2.236 3.43 3.43 0 0 1-1.323.913 2.82 2.82 0 0 1-1.469.159 1.99 1.99 0 0 1-1.019-.423 1.64 1.64 0 0 1-.529-.754l-1.231 3.599-1.866-.291 2.938-8.614 1.839.278-.291.834a2.51 2.51 0 0 1 1.032-.542zm1.032 2.646c.032-.152.033-.308.004-.461s-.089-.297-.175-.426a1.14 1.14 0 0 0-.728-.423 1.51 1.51 0 0 0-1.072.251 1.87 1.87 0 0 0-.741.992 1.93 1.93 0 0 0-.093.344 1.11 1.11 0 0 0 .225.887 1.06 1.06 0 0 0 .728.423 1.51 1.51 0 0 0 1.072-.251c.36-.232.627-.583.754-.992a1.76 1.76 0 0 0 .093-.291l-.066-.053z"/></g><g class="B C"><path d="M39.922 45.981l-4.128 17.757a2.78 2.78 0 0 0 2.024 3.334l52.517 13.351 5.518-26.887-55.93-7.555z" class="B"/></g><path d="M102.876 52.425L47.28 38.748a1.59 1.59 0 0 0-1.921 1.163l-5.594 22.742a1.59 1.59 0 0 0 1.163 1.921l55.596 13.676a1.59 1.59 0 0 0 1.921-1.163l5.595-22.742a1.59 1.59 0 0 0-1.163-1.921z" class="I"/><g class="D"><path d="M96.922 79.06c-.189.019-.38.019-.569 0L40.78 65.378c-.605-.15-1.125-.534-1.448-1.067s-.42-1.173-.273-1.778l5.571-22.838a2.34 2.34 0 0 1 1.059-1.447 2.34 2.34 0 0 1 1.772-.273l55.573 13.682c.299.071.58.202.828.384s.456.411.614.675.271.559.318.865.034.62-.04.921l-5.518 22.772a2.3 2.3 0 0 1-.383.828c-.182.248-.411.457-.675.614-.378.231-.814.35-1.257.344zM46.906 39.47a.82.82 0 0 0-.794.622l-5.597 22.745a.82.82 0 0 0 .098.623.82.82 0 0 0 .511.369l55.573 13.668c.105.028.214.034.321.018s.209-.053.301-.111.173-.127.237-.213.109-.185.134-.289l5.597-22.745a.85.85 0 0 0-.092-.622.86.86 0 0 0-.516-.37L47.104 39.484l-.198-.013z"/><path d="M44.219 44.591c1.649.403 3.391.135 4.843-.746s2.494-2.302 2.898-3.951l-6.219-1.522-1.522 6.219z"/></g><g fill="#17aa83"><path d="M98.234 51.273c-.202.817-.241 1.665-.114 2.497s.415 1.63.85 2.35a6.41 6.41 0 0 0 3.949 2.907l1.535-6.219-6.219-1.535zm1.389 21.144a6.39 6.39 0 0 0-7.741 4.684l6.219 1.522 1.522-6.206z"/></g><g class="D"><path d="M45.612 65.722a6.39 6.39 0 0 0-2.421-6.685c-.677-.497-1.446-.856-2.262-1.056l-1.522 6.206 6.206 1.535zm26.315 3.414a10.64 10.64 0 0 0 10.638-10.638A10.64 10.64 0 0 0 71.927 47.86a10.64 10.64 0 0 0-10.638 10.638 10.64 10.64 0 0 0 10.638 10.638z"/></g><g class="I"><path d="M72.286 54.779c.151.217.252.465.298.725a1.83 1.83 0 0 1-.034.783 2.25 2.25 0 0 1-.159.45 2.74 2.74 0 0 1-.966 1.164 2.92 2.92 0 0 1-1.588.476l.476 3.228-2.038-.503-.357-3.056-.437-.106-1.191 2.646-1.8-.45 3.136-7.092 3.03.741a2.79 2.79 0 0 1 1.628.992zm-1.681 1.323a.67.67 0 0 0 .021-.302c-.016-.101-.055-.197-.113-.28-.147-.187-.36-.31-.595-.344l-1.111-.238-.794 1.786 1.125.278a1.1 1.1 0 0 0 1.323-.648l.145-.251zm5.73.913a2.65 2.65 0 0 1 1.191 0 2.09 2.09 0 0 1 1.323 1.006 2.49 2.49 0 0 1 .172 1.826l-.238.701a4.3 4.3 0 0 1-1.019 1.442c-.377.36-.829.631-1.323.794-.481.132-.988.132-1.469 0a1.97 1.97 0 0 1-.979-.503c-.23-.218-.391-.498-.463-.807l-1.535 3.48-1.799-.45 3.665-8.323 1.813.437-.357.807a2.65 2.65 0 0 1 1.019-.41zm.794 2.792a1.14 1.14 0 0 0-.093-.9 1.1 1.1 0 0 0-.701-.49 1.54 1.54 0 0 0-1.072.145 1.91 1.91 0 0 0-.834.926 2.63 2.63 0 0 0-.119.344 1.11 1.11 0 0 0 .093.887 1.07 1.07 0 0 0 .688.49c.369.079.754.022 1.085-.159a1.8 1.8 0 0 0 .834-.926 2.38 2.38 0 0 0 .119-.318z"/></g><g class="B C"><path d="M78.188 45.583l7.264 35.818 8.243 1.35-9.95-35.818-5.557-1.35z" class="B"/></g><path d="M167.988 22.102L83.882 41.658a3.48 3.48 0 0 0-2.601 4.178l10.561 45.417a3.48 3.48 0 0 0 4.178 2.601l84.107-19.557a3.48 3.48 0 0 0 2.601-4.178l-10.56-45.417a3.48 3.48 0 0 0-4.178-2.601z" fill="#f7d3dc"/><path d="M173.249 29.379L82.363 50.512l2.976 12.798 90.885-21.133-2.975-12.798z" class="E"/><path d="M168.939 57.677l-17.321 4.028c-.954.222-1.548 1.175-1.326 2.128l1.822 7.836c.222.954 1.175 1.547 2.129 1.325l17.321-4.028c.954-.222 1.547-1.175 1.325-2.129l-1.822-7.836c-.221-.954-1.174-1.547-2.128-1.325z" class="H"/><g fill="#f3bdca"><path d="M18.166 94.383c4.67 0 8.455-3.365 8.455-7.516s-3.785-7.516-8.455-7.516-8.455 3.365-8.455 7.516 3.785 7.516 8.455 7.516z"/><path d="M26.637 94.369c2.338 0 4.234-1.682 4.234-3.758s-1.896-3.758-4.234-3.758-4.234 1.682-4.234 3.758 1.896 3.758 4.234 3.758zm-16.925.012c2.872 0 5.2-2.068 5.2-4.618s-2.328-4.618-5.2-4.618-5.2 2.067-5.2 4.618 2.328 4.618 5.2 4.618z"/><path d="M42.064 95.453H0s16.698-8.283 42.064 0zm153.393-42.579c4.341 0 7.86-3.128 7.86-6.986s-3.519-6.986-7.86-6.986-7.859 3.128-7.859 6.986 3.519 6.986 7.859 6.986z"/><path d="M187.598 52.873c2.17 0 3.93-1.564 3.93-3.493s-1.76-3.493-3.93-3.493-3.93 1.564-3.93 3.493 1.759 3.493 3.93 3.493zm15.72.002c2.667 0 4.829-1.919 4.829-4.287s-2.162-4.287-4.829-4.287-4.83 1.919-4.83 4.287 2.163 4.287 4.83 4.287z"/><path d="M173.906 53.416h43.096s-17.109-6.259-43.096 0z"/></g><path d="M108.5 161.864c18.869 0 34.164-15.296 34.164-34.165S127.369 93.535 108.5 93.535s-34.164 15.296-34.164 34.164 15.296 34.165 34.164 34.165z" class="E"/><g class="B C"><path d="M131.932 102.718c4.3 7.079 5.881 15.479 4.449 23.637s-5.781 15.516-12.235 20.707-14.575 7.858-22.85 7.507-16.141-3.698-22.132-9.417c2.518 4.172 5.899 7.757 9.916 10.514s8.579 4.624 13.376 5.474a34.18 34.18 0 0 0 27.367-7.017 34.18 34.18 0 0 0 9.092-11.235 34.17 34.17 0 0 0 3.634-13.989c.199-4.869-.645-9.724-2.476-14.24s-4.607-8.587-8.142-11.941z" class="B"/></g><g fill="#fff"><path d="M97.913 141.208a3.6 3.6 0 0 1-3.414-2.254 3.6 3.6 0 0 1 .9-3.991l21.29-19.848c.347-.322.755-.573 1.199-.737s.917-.241 1.391-.223.939.129 1.37.326a3.63 3.63 0 0 1 1.141.826 3.6 3.6 0 0 1 .96 2.59 3.62 3.62 0 0 1-.326 1.37c-.198.431-.479.819-.826 1.141l-21.29 19.848a3.56 3.56 0 0 1-2.395.952z"/><path d="M119.086 141.208c-.91.003-1.786-.343-2.448-.966l-21.237-19.834a3.61 3.61 0 0 1-.192-5.101 3.61 3.61 0 0 1 5.101-.192l21.29 19.848a3.6 3.6 0 0 1 1.072 1.855c.161.713.101 1.458-.172 2.136a3.6 3.6 0 0 1-3.414 2.254z"/></g><g class="F"><path d="M173.681 137.12l3.414-2.501s1.905.53 2.302 0-1.231-.701-1.231-.701a11.7 11.7 0 0 1 2.064-1.323c1.218-.49.08-4.406-2.196-3.692a5.04 5.04 0 0 0-1.843 1.147c-.523.512-.928 1.132-1.187 1.817l-3.758 2.051 2.435 3.202zm25.193 26.186l.582 4.737s-1.323 1.601-1.323 2.289 1.323-.582 1.323-.582c.209.821.284 1.669.225 2.514-.251 1.323 4.3 2.501 4.843-.132.141-.816.103-1.653-.112-2.453a5.71 5.71 0 0 0-1.132-2.179v-4.829l-4.406.635z"/></g><g fill="#6c6d6d"><path d="M174.129 168.201h10.069l-.82 36.718h-7.251l-1.998-36.718z"/><path d="M183.496 168.201h9.567l-.08 36.718h-7.237l-2.25-36.718z"/></g><path d="M172.834 208.651h11.088l-.927-3.678h-7.383a2.79 2.79 0 0 0-2.792 2.778l.014.9z" class="J"/><path d="M183.115 205.396s-2.951.9-2.951 3.256h3.758l-.807-3.256z" fill="#b4b1b1" class="B"/><path d="M182.518 208.651h11.101l-.939-3.678h-7.436a2.78 2.78 0 0 0-2.779 2.778l.053.9z" class="J"/><path d="M176.205 130.002c-.401.387-.74.833-1.006 1.323l-.145 1.165a6.61 6.61 0 0 0 .344 3.016l.079.239 1.204-.927-.476-4.816z" class="B C"/><path d="M194.505 142.003c-3.969-2.647-4.419-2.197-4.419-2.197-8.614-1.654-17.89 1.588-17.89 1.588a25.64 25.64 0 0 1-2.99.662l6.272-5.293-3.057-4.102-12.967 8.588c-1.733.912-1.918 3.599-1.257 5.292 1.324 2.951 3.745 4.671 13.325 4.221l.291 19.371 23.433-.727-1.905-16.805c4.088 4.512 4.935 11.763 4.935 11.763l5.716-.383c1.416-16.434-9.487-21.978-9.487-21.978z" class="E"/><path d="M176.061 128.519s-2.448-4.803 1.442-6.496 7.291.198 9.487 4.498c0 0 7.159 1.946-1.654 12.068l-9.275-10.07z" fill="#221f20"/><path d="M176.113 128.347s-.913 7.45.993 10.136c.197.291.458.533.763.71a2.35 2.35 0 0 0 .996.308c.35.027.703-.026 1.031-.154s.622-.329.861-.586l-.172 1.931c.765.392 1.615.584 2.474.558s1.696-.267 2.435-.703c0 0-.86-.86-.873-5.941 0 0 2.514-1.575.582-3.507s-1.535 1.125-1.535 1.125-1.508-9.818-7.555-3.877z" class="F"/><g fill="#c22046"><path d="M193.183 112.998l-1.628-.793c-.191-.128-.327-.322-.381-.546a.91.91 0 0 1 .09-.659l5.637-13.231c.033-.135.097-.261.187-.368a.91.91 0 0 1 .331-.248.93.93 0 0 1 .406-.077c.139.005.276.044.399.111l3.189 2.17a.98.98 0 0 1 .132 1.324l-7.211 11.908a.89.89 0 0 1-.494.435.88.88 0 0 1-.657-.025zm-.572 3.121c.479-.969.187-2.091-.652-2.505s-1.907.037-2.386 1.007-.186 2.091.653 2.505 1.907-.037 2.385-1.007zm5.863 1.644l-1.032-1.218a.71.71 0 0 1-.188-.483c0-.178.067-.351.188-.483l7.185-6.999a.69.69 0 0 1 .26-.159.71.71 0 0 1 .303-.033.69.69 0 0 1 .289.099c.088.054.163.126.219.212l2.038 2.858c.107.156.147.348.113.534a.71.71 0 0 1-.298.458l-8.058 5.386a.74.74 0 0 1-.26.122c-.094.022-.191.026-.286.01a.73.73 0 0 1-.268-.104.71.71 0 0 1-.205-.2zm-1.236 1.776c.575-.486.697-1.287.273-1.789s-1.235-.516-1.81-.03-.697 1.287-.272 1.789 1.234.516 1.809.03zm-11.754-8.988l-1.323-.132c-.149-.023-.283-.101-.376-.219s-.139-.266-.127-.416l.371-8.693c.003-.087.024-.172.061-.25s.092-.147.158-.203.143-.098.226-.122.17-.032.256-.021l2.646.622c.087.01.172.039.247.085a.61.61 0 0 1 .284.423.6.6 0 0 1-.015.26l-1.76 8.23a.56.56 0 0 1-.237.347.57.57 0 0 1-.411.089zm.375 2.505c.081-.748-.384-1.412-1.037-1.483s-1.25.478-1.331 1.226.383 1.413 1.037 1.484 1.249-.479 1.331-1.227zM33.078 30.433l-1.429 1.111a.9.9 0 0 1-1.204-.251l-9.487-10.797a.93.93 0 0 1-.237-.316c-.055-.121-.084-.253-.084-.386s.029-.265.084-.386a.93.93 0 0 1 .237-.316l3.348-1.892c.228-.095.483-.101.716-.018a.99.99 0 0 1 .541.468l7.516 11.578a.9.9 0 0 1 0 1.204zm2.441 4.395c.736-.577.792-1.735.125-2.586s-1.805-1.074-2.541-.497-.792 1.735-.125 2.586 1.805 1.074 2.541.496zm4.176-7.172l-1.548.397a.7.7 0 0 1-.847-.463l-3.162-9.5a.7.7 0 0 1 .556-.926l3.374-.489a.7.7 0 0 1 .807.596l1.323 9.593a.72.72 0 0 1-.102.491c-.092.146-.235.254-.4.303zm.248 3.531c.637-.165.999-.89.811-1.618s-.858-1.185-1.495-1.02-1 .89-.811 1.618.858 1.185 1.495 1.02zm-12.409 5.081l-.662 1.085a.59.59 0 0 1-.363.242.6.6 0 0 1-.431-.07l-7.674-4.102a.58.58 0 0 1-.328-.639.57.57 0 0 1 .102-.234l1.667-2.117c.111-.109.261-.17.417-.17s.305.061.417.17l6.616 5.147c.11.072.193.179.236.303s.044.26.002.385zm2.941 2.486c.347-.559.11-1.333-.53-1.731s-1.439-.266-1.786.293-.11 1.334.529 1.731 1.439.266 1.786-.293z"/></g><g class="F"><path d="M67.904 133.415l-2.223 4.195-3.493-2.647 2.646-3.824s.318-1.68 1.323-1.587 4.208 2.394 7.701 3.122a.42.42 0 0 1 .174.068c.052.036.095.083.126.138s.048.117.051.18a.41.41 0 0 1-.033.183c-.265.821-1.535 2.17-6.272.172zm-55.161 2.276l2.223 4.115 3.533-2.646-2.713-3.758s-.318-1.694-1.323-1.588-4.247 2.409-7.741 3.149c-.063.011-.122.036-.174.073s-.095.086-.125.142a.43.43 0 0 0-.051.182c-.003.064.008.127.033.186.331.741 1.601 2.143 6.338.145z"/></g><g class="J"><path d="M41.786 206.839l.397 2.13h1.482l-.119-1.323.953 1.323h7.45c-.162-.627-.495-1.196-.963-1.645s-1.05-.759-1.683-.895l-5.729-1.323a1.46 1.46 0 0 0-.735.009 1.47 1.47 0 0 0-1.021.99 1.47 1.47 0 0 0-.031.734z"/><path d="M33.081 206.837l.397 2.131h1.442l-.119-1.323.94 1.323h7.463c-.165-.626-.499-1.194-.966-1.643a3.52 3.52 0 0 0-1.68-.898l-5.742-1.323c-.238-.049-.484-.038-.717.032s-.444.197-.616.368-.298.384-.368.616a1.47 1.47 0 0 0-.032.717z"/></g><g fill="#6c6d6d"><path d="M30.777 168.36h10.069l-1.522 37.817-6.55-1.085-1.998-36.732z"/><path d="M40.145 168.36h9.553l-.397 38.094-6.92-1.362-2.236-36.732z"/></g><path d="M47.077 126.548c-1.157-.757-2.522-1.131-3.903-1.072-5.293-2.646-7.939 3.506-8.23 5.637s-.463 4.432-3.308 6.761c-8.204 6.722 5.954 9.606 5.954 9.606 1.244-6.311 8.958-4.485 8.508-3.903 9.315 4.075 4.525-14.304.979-17.029z" fill="#1e1c1f"/><path d="M52.357 170.054l-22.692.635s1.191-16.963.913-19.014c0 0-8.64 1.058-16.976-12.57l4.234-3.586s7.648 8.177 15.203 6.272c8.257-2.078 17.4.556 17.4.556 2.441-.663 4.722-1.81 6.709-3.374s3.638-3.513 4.855-5.73l4.671 3.043c-.893 3.645-2.771 6.974-5.429 9.623s-5.994 4.515-9.642 5.395l.754 18.75z" class="E"/><path d="M47.449 129.75s1.323 7.145-.41 9.844c-.172.295-.409.547-.693.736s-.608.311-.947.356-.683.011-1.006-.098a2.23 2.23 0 0 1-.861-.531l.265 1.866c-.717.42-1.528.652-2.358.675a4.92 4.92 0 0 1-2.392-.543s.781-.886.516-5.808c0 0-2.514-1.324-.754-3.348s1.548 1.006 1.548 1.006.926-9.527 7.092-4.155z" class="F"/></g><defs><clipPath id="A"><path fill="#fff" d="M0 0h217v217H0z"/></clipPath></defs></svg>