<svg width="31" height="31" fill="none" xmlns="http://www.w3.org/2000/svg"><circle cx="15.5" cy="15.5" r="15.5" fill="#fff"/><g clip-path="url(#a)"><path d="M9.8 20.615h11.278A1.733 1.733 0 0 1 22.8 22.37a1.733 1.733 0 0 1-1.701 1.764H8.55M21.897 16.69l1.365-5.02 2.468-.041" stroke="#DB284E" stroke-width="1.5" stroke-linecap="round" stroke-linejoin="round"/><path d="M19.04 13.782h3.15a.399.399 0 0 1 .39.546l-1.67 5.964a.524.524 0 0 1-.494.325H9.433a.535.535 0 0 1-.504-.325l-1.638-5.964a.399.399 0 0 1 .389-.546h2.677" stroke="#DB284E" stroke-width="1.5" stroke-linecap="round" stroke-linejoin="round"/><path d="M11.197 25.718a1.585 1.585 0 1 0 0-3.171 1.585 1.585 0 0 0 0 3.17ZM18.652 25.718a1.586 1.586 0 1 0 0-3.171 1.586 1.586 0 0 0 0 3.17Z" fill="#FFCE00" stroke="#DB284E" stroke-miterlimit="10"/><path d="M15.093 18.274h-.084a.526.526 0 0 1-.44-.504l-.064-4.042h-1.722a.546.546 0 0 1-.378-.168.577.577 0 0 1-.105-.389l.284-5.922a.525.525 0 0 1 .525-.493h3.15a.525.525 0 0 1 .43.21.545.545 0 0 1 .074.472l-1.05 3.329h1.837a.514.514 0 0 1 .43.22.503.503 0 0 1 .064.483l-2.457 6.469a.525.525 0 0 1-.494.335Z" fill="#FFCE00"/><path d="m16.238 7.281-1.292 3.969h2.604l-2.457 6.5-.073-4.547h-2.237l.284-5.922h3.17Zm-.021-1.05h-3.15a1.05 1.05 0 0 0-1.05 1.05l-.284 5.87a1.05 1.05 0 0 0 .294.777 1.051 1.051 0 0 0 .756.325h1.208v3.517a1.05 1.05 0 0 0 .871 1.05h.178a1.05 1.05 0 0 0 .988-.682l2.446-6.458a1.05 1.05 0 0 0-.116-.966 1.05 1.05 0 0 0-.808-.514h-1.155l.85-2.646a1.051 1.051 0 0 0-.157-.934 1.05 1.05 0 0 0-.85-.389h-.021Z" fill="#DB284E"/></g><defs><clipPath id="a"><path fill="#fff" transform="translate(6 6)" d="M0 0h21v21H0z"/></clipPath></defs></svg>