<svg xmlns="http://www.w3.org/2000/svg" width="180" height="180" fill="none" xmlns:v="https://vecta.io/nano"><g clip-path="url(#A)"><path d="M90.307 3.501a86.5 86.5 0 0 0-62.536 27.217A86.5 86.5 0 0 0 4.396 94.79c.649 11.707 3.672 23.159 8.884 33.661a86.5 86.5 0 0 0 51.949 44.192 86.51 86.51 0 0 0 34.65 3.373 87.36 87.36 0 0 0 14.872-2.942c6.286-1.822 12.343-4.355 18.055-7.551a87.26 87.26 0 0 0 11.601-7.782 86.48 86.48 0 0 0 29.331-43.737 86.49 86.49 0 0 0-1.473-52.641c-5.951-16.967-17.043-31.658-31.732-42.028S108.288 3.43 90.307 3.501z" fill="#fceff2"/><g fill="#eb92a7"><path d="M133.277 145.109c9.274 0 16.792-7.234 16.792-16.157s-7.518-16.156-16.792-16.156-16.793 7.234-16.793 16.156 7.518 16.157 16.793 16.157z"/><path d="M150.07 145.109c4.637 0 8.396-3.617 8.396-8.078s-3.759-8.078-8.396-8.078-8.397 3.616-8.397 8.078 3.759 8.078 8.397 8.078zm-33.586-.011c5.698 0 10.317-4.442 10.317-9.922s-4.619-9.922-10.317-9.922-10.317 4.442-10.317 9.922 4.619 9.922 10.317 9.922z"/><path d="M179.309 146.371H87.245s36.549-14.499 92.064 0zm-122.148-1.493c10.966 0 19.855-8.555 19.855-19.108s-8.889-19.109-19.855-19.109-19.855 8.555-19.855 19.109 8.889 19.108 19.855 19.108z"/><path d="M77.016 144.867c5.486 0 9.933-4.275 9.933-9.549s-4.447-9.548-9.933-9.548-9.933 4.275-9.933 9.548 4.447 9.549 9.933 9.549zm-39.71 0c6.734 0 12.194-5.253 12.194-11.733s-5.459-11.733-12.194-11.733-12.194 5.253-12.194 11.733 5.459 11.733 12.194 11.733z"/><path d="M111.6 146.37H2.711s43.222-17.143 108.889 0z"/></g><path d="M90 31.226a27 27 0 0 0-27 27c0 14.916 27 54.252 27 54.252s27-39.337 27-54.252a27 27 0 0 0-27-27zm0 40.851c-2.796 0-5.53-.829-7.855-2.383s-4.137-3.762-5.206-6.346-1.349-5.427-.803-8.169 1.894-5.261 3.872-7.238 4.498-3.322 7.241-3.866 5.586-.263 8.169.809 4.79 2.885 6.342 5.211a14.13 14.13 0 0 1 2.378 7.857 14.14 14.14 0 0 1-4.145 9.989c-2.651 2.649-6.245 4.137-9.992 4.137z" fill="#db284e"/><g fill="#c22046"><path d="M90 43.815a14.07 14.07 0 0 1 8.44 2.81 14.12 14.12 0 0 0-4.251-4.508 14.13 14.13 0 0 0-5.772-2.255 14.14 14.14 0 0 0-6.181.432c-2.003.599-3.848 1.637-5.402 3.037a14.12 14.12 0 0 0-3.582 5.056c-.805 1.93-1.172 4.014-1.073 6.103a14.13 14.13 0 0 0 1.642 5.975c.983 1.845 2.363 3.45 4.041 4.698a14.12 14.12 0 0 1-1.993-7.085c-.026-2.496.61-4.955 1.844-7.125a14.12 14.12 0 0 1 5.18-5.228c2.158-1.254 4.611-1.913 7.108-1.91zm27 14.411a26.92 26.92 0 0 0-2.324-10.969 26.93 26.93 0 0 0-6.588-9.072 26.89 26.89 0 0 1 5.213 15.937c0 13.719-22.862 48.128-26.517 53.528L90 112.478s27-39.337 27-54.252z"/></g><path d="M129.929 128.415h-15.19v17.231c-.018.532-.229 1.039-.593 1.427v.713h2.722v-19.371h13.061z" fill="#e0ac69"/><g fill="#f7cd97"><path d="M138.073 139.247c.182.005.36-.045.513-.143a.91.91 0 0 0 .345-.406c.072-.167.093-.351.059-.529a.9.9 0 0 0-.716-.725.91.91 0 0 0-.53.052c-.167.07-.31.188-.41.34a.91.91 0 0 0-.15.511.9.9 0 0 0 .26.633c.166.168.392.265.629.267z"/><path d="M141.476 128.415h-5.488c.291 0 .57.115.776.321s.321.485.321.776v7.859a1.39 1.39 0 0 1 .714-.384c.271-.055.551-.028.807.077a1.39 1.39 0 0 1 .862 1.289c0 .276-.082.546-.235.775a1.4 1.4 0 0 1-.627.514c-.256.105-.536.132-.807.077a1.39 1.39 0 0 1-.714-.384v7.442c.002.273-.099.537-.281.739a1.1 1.1 0 0 1-.706.358h5.378c.384 0 .752-.152 1.024-.424s.424-.64.424-1.024v-16.563c0-.384-.152-.752-.424-1.024s-.64-.424-1.024-.424zm-24.564 19.426h12.995l-12.995-.022v.022zm10.998-10.415c-.196-.002-.386.063-.541.182a.88.88 0 0 0-.315.476h1.734a.91.91 0 0 0-.329-.476c-.158-.119-.351-.183-.549-.182zm4.577 0c-.181-.005-.36.045-.512.142a.91.91 0 0 0-.345.404c-.073.166-.094.35-.061.528s.117.343.244.473a.91.91 0 0 0 .995.207c.168-.068.311-.185.412-.335a.91.91 0 0 0-.733-1.419z"/><path d="M137.085 146.766v-7.442c-.259-.261-.405-.614-.405-.982s.146-.721.405-.982v-7.848c0-.291-.115-.57-.321-.776s-.485-.321-.776-.321h-19.076v19.404h12.995 6.191a1.09 1.09 0 0 0 .691-.341c.182-.194.287-.447.296-.712zm-14.158-7.069h-1.098V138.6h1.098v1.097zm-2.601-1.284v-1.097a1.47 1.47 0 0 0 1.04-.431c.275-.276.43-.65.43-1.04h1.098a2.6 2.6 0 0 1-2.535 2.568h-.033zm4.829 1.306c-.67 0-1.196-.362-1.196-.812v-.142h.504v.142c0 .165.33.33.692.33s.702-.154.702-.33-.373-.241-.68-.329c-.527-.154-1.098-.329-1.098-.834s.494-.812 1.098-.812 1.097.373 1.097.812v.142h-.504v-.142c0-.176-.275-.329-.593-.329s-.604.153-.604.329.395.252.681.329c.527.154 1.097.329 1.097.834s-.483.812-1.163.812h-.033zm4.116-1.097h-2.195a.87.87 0 0 0 .312.483.88.88 0 0 0 .544.186c.151.007.301-.023.438-.086a.95.95 0 0 0 .352-.276l.077-.099.406.275-.088.121c-.138.177-.317.32-.521.415a1.43 1.43 0 0 1-.653.133 1.4 1.4 0 0 1-.776-.235c-.229-.154-.408-.372-.513-.628a1.4 1.4 0 0 1-.078-.807c.055-.27.189-.519.385-.713a1.39 1.39 0 0 1 1.523-.295c.254.107.471.287.623.518s.232.501.23.777l-.066.231zm1.778-1.153h-.801v1.482c0 .22.186.329.548.329h.242v.483h-.242c-.658 0-1.097-.296-1.097-.812v-1.482h-.472v-.483h.472v-.647h.494v.647h.801l.055.483zm1.394 2.305a1.39 1.39 0 0 1-1.23-.886 1.39 1.39 0 0 1-.067-.787c.054-.263.184-.506.372-.697a1.39 1.39 0 0 1 .692-.383c.263-.058.536-.039.788.055a1.39 1.39 0 0 1 .632.475c.161.216.255.473.272.742.003.188-.031.376-.102.551s-.175.334-.308.468-.292.24-.466.312-.362.108-.55.106l-.033.044zm2.261-1.8v1.8h-.494v-3.929h.505l-.011 2.129zm1.405 1.745l-1.307-1.097v-.483l1.383-1.098h.747l-.483.417-1.164.966 1.647 1.394h-.747l-.076-.099z"/></g><g fill="#231f20"><path d="M125.276 138.073c-.286-.077-.681-.197-.681-.329s.286-.329.604-.329.592.153.592.329v.143h.505v-.143c0-.439-.494-.812-1.097-.812s-1.098.362-1.098.812.593.68 1.098.834c.307.088.68.198.68.329s-.329.33-.702.33-.692-.165-.692-.33v-.142h-.461v.142c0 .45.527.812 1.197.812s1.207-.362 1.207-.812-.626-.68-1.152-.834z"/><path d="M127.91 136.942a1.41 1.41 0 0 0-.57.068 1.39 1.39 0 0 0-.495.293c-.142.13-.256.289-.334.466s-.119.368-.119.562.041.385.119.562.192.336.334.466.311.23.495.292.377.085.57.068a1.43 1.43 0 0 0 .653-.133c.204-.095.383-.238.521-.415l.088-.121-.406-.275-.077.099c-.094.119-.214.213-.351.276a.95.95 0 0 1-.439.086.88.88 0 0 1-.544-.186c-.156-.121-.265-.292-.312-.483h2.195v-.274a1.4 1.4 0 0 0-1.328-1.351zm-.856 1.098c.049-.189.159-.357.315-.476a.87.87 0 0 1 .541-.182c.198-.001.391.063.549.182a.91.91 0 0 1 .329.476h-1.734z"/></g><g fill="#db284e"><path d="M130.281 136.295h-.494v.647h-.472v.483h.472v1.482c0 .516.395.812 1.097.812h.242v-.483h-.242c-.362 0-.549-.109-.549-.329v-1.482h.802v-.483h-.802l-.054-.647z"/><path d="M132.487 136.943a1.39 1.39 0 0 0-.986.408c-.261.261-.408.616-.408.985s.147.725.408.986a1.39 1.39 0 0 0 .986.408c.187 0 .373-.037.546-.109a1.42 1.42 0 0 0 .463-.313c.131-.134.235-.293.305-.467a1.41 1.41 0 0 0 .101-.548c-.011-.366-.166-.713-.431-.966a1.39 1.39 0 0 0-.984-.384zm0 2.304c-.181.003-.358-.049-.51-.148a.91.91 0 0 1-.34-.406c-.07-.166-.09-.35-.056-.527a.92.92 0 0 1 .247-.47.91.91 0 0 1 .994-.202.9.9 0 0 1 .41.335.91.91 0 0 1-.112 1.152c-.171.17-.403.266-.644.266h.011zm5.586.484c.231.002.458-.052.663-.159s.379-.262.508-.453a1.39 1.39 0 0 0 .233-.639 1.4 1.4 0 0 0-.098-.674 1.39 1.39 0 0 0-.405-.547 1.38 1.38 0 0 0-.616-.29 1.4 1.4 0 0 0-1.262.391v1.964c.259.26.611.406.977.407zm0-2.294a.9.9 0 0 1 .509.148c.151.099.27.24.341.406a.92.92 0 0 1 .056.528c-.034.177-.12.34-.247.469s-.289.216-.466.252a.91.91 0 0 1-.939-.385c-.1-.15-.154-.327-.154-.507a.91.91 0 0 1 .267-.645c.171-.17.403-.266.644-.266h-.011z"/><path d="M137.096 139.324v-1.964c-.259.261-.405.614-.405.982s.146.721.405.982zm-2.864.407h.494v-.725-.428l.011-.483v-.164-2.13h-.505v3.93zm1.086-1.394l1.164-.966.483-.417h-.747l-1.383 1.141v.483l1.306 1.098.077.054h.747l-1.647-1.393zm-14.959-1.054v1.098c.689 0 1.351-.275 1.839-.762a2.6 2.6 0 0 0 .762-1.84h-1.098a1.46 1.46 0 0 1-.105.581 1.49 1.49 0 0 1-.325.493 1.48 1.48 0 0 1-.493.325c-.184.074-.382.109-.58.105z"/></g><path d="M119.917 134.869l-.007 5.305 19.807.028.007-5.306-19.807-.027z" fill="#f7cd97"/><g clip-path="url(#B)"><g fill="#d7244f"><path d="M121.253 137.221l.069-.015-.195 1.812c.004.141.107.242.244.242.043 0 .086-.01.124-.03.62-.302 1.004-.399 1.64-.561.149-.037.188-.163.176-.26-.014-.111-.101-.225-.24-.225-.022 0-.044.002-.066.008-.544.138-.908.236-1.361.429l.039-.364.246-.102c.424-.176.703-.292 1.206-.429.149-.041.187-.168.174-.265-.015-.11-.101-.221-.235-.221-.024 0-.048.003-.07.009-.509.14-.791.257-1.218.435l-.032.013.109-.721c.358-.156.69-.238 1.214-.341.122-.025.193-.12.181-.243-.011-.117-.104-.241-.252-.241-.018 0-.036.002-.054.006-.413.081-.733.155-1.048.271-.009-.014-.018-.026-.029-.038-.025-.024-.054-.043-.086-.056s-.067-.02-.102-.02a.23.23 0 0 0-.233.179l-.016.061v.003l-.038.141c-.064.019-.296.059-.521.098l-.011.002-.754.141.017-.392.006-.215v-.041l.701-.107.007-.001.927-.14c.027-.004.054-.015.077-.03s.043-.036.058-.06.032-.062.038-.096a.26.26 0 0 0-.003-.104c-.029-.106-.117-.169-.236-.169-.016 0-.032.001-.048.003l-.895.136-.014.002-.578.089a1.71 1.71 0 0 1 .043-.201c.011-.033.014-.068.008-.103s-.019-.067-.04-.094a.27.27 0 0 0-.09-.072c-.035-.017-.073-.025-.112-.025-.05-.002-.099.014-.14.044a.23.23 0 0 0-.081.122c-.036.13-.06.263-.07.397l-.735.091c-.137.014-.231.109-.231.235 0 .115.108.249.241.235l.702-.085-.004.112-.024.599-.249.085c-.102.037-.176.163-.164.278.011.096.075.162.174.176.058.01.116.009.173-.003l.047-.011-.007.187-.062 1.471c-.002.029.001.059.011.087a.21.21 0 0 0 .044.075c.02.021.049.04.078.052s.061.018.092.017c.116 0 .238-.078.246-.226l.062-1.479.011-.308 1.115-.24.044-.009zm10.762.9c-.014-.112-.101-.226-.24-.226a.25.25 0 0 0-.066.009c-.571.145-.983.255-1.462.458l.033-.365.362-.151c.307-.131.476-.203.928-.327a.23.23 0 0 0 .173-.265c-.014-.11-.1-.221-.235-.221a.28.28 0 0 0-.07.009c-.459.126-.629.199-.938.331l-.15.063.119-.768c.157-.066.327-.112.488-.153l.512-.105h.001l.31-.056c.122-.024.194-.118.182-.242-.011-.117-.104-.243-.253-.243-.018 0-.036.002-.053.005l-.373.066-.736.156c-.01-.031-.028-.06-.052-.084-.049-.049-.117-.076-.186-.076-.092 0-.201.047-.233.179l-.045.214a1.9 1.9 0 0 0-.286.219c-.075.068-.098.159-.062.25.019.048.052.089.094.119a.27.27 0 0 0 .145.05c-.106.681-.207 1.506-.174 1.785.018.14.119.239.247.239a.29.29 0 0 0 .122-.03c.615-.3 1.08-.418 1.723-.581.148-.037.187-.163.175-.259z"/><path d="M125.32 139.315l.11-1.11v-.008l.08-.79.089-.869.009-.084.07-.44c.008-.031.009-.062.003-.093s-.02-.059-.039-.084-.053-.052-.086-.068a.25.25 0 0 0-.108-.024c-.037 0-.077.009-.111.029s-.063.048-.082.082l-.256.489-.165.323-.285.501-.081.124-.212-.65-.139-.445-.065-.202-.008-.054-.001-.002-.026-.066c-.035-.067-.111-.109-.197-.109-.04 0-.079.009-.115.027a.23.23 0 0 0-.066.054l-.018.021c-.02.027-.033.058-.037.092-.016.064-.024.13-.026.196l-.007.086c-.035.261-.057.539-.071.901l-.053 2.031c-.002.027.003.054.012.079s.025.049.044.069.049.038.078.05.06.017.091.016c.113 0 .229-.073.231-.213l.028-1.142.019-.695.006-.186c.1.276.219.48.374.639.043.041.101.063.161.062a.21.21 0 0 0 .121-.036c.211-.152.354-.395.483-.636l-.019.196-.078.768-.001.013-.114 1.161c-.003.026-.001.053.007.078s.021.048.039.068.046.038.074.049a.22.22 0 0 0 .087.016c.117 0 .24-.074.25-.214zm1.014-.552l.256-.854.685-.345a11.43 11.43 0 0 0 .485 1.306c.034.077.118.126.215.126.044 0 .087-.011.126-.033.114-.066.15-.2.091-.333-.168-.373-.32-.794-.467-1.286l.336-.16c.1-.047.148-.141.125-.245a.27.27 0 0 0-.256-.211c-.038 0-.076.009-.111.025l-.23.11-.187-.749-.079-.312-.032-.134-.002-.012c.014-.034.021-.071.018-.108s-.013-.072-.032-.104c-.024-.038-.057-.069-.095-.09s-.082-.034-.126-.035a.21.21 0 0 0-.122.039c-.063.045-.107.112-.125.187l-.009-.003-.01.046c-.223.605-.401 1.232-.574 1.839l-.04.141-.018.009a.26.26 0 0 0-.042.019l-.045.025-.042.024-.043.022.001.004c-.034.026-.06.062-.074.102s-.015.085-.003.127c.017.07.061.13.122.168l-.172.56c-.012.034-.016.07-.011.106a.22.22 0 0 0 .04.099c.025.032.057.058.094.076s.077.026.118.026c.053.001.104-.015.147-.046a.24.24 0 0 0 .088-.126zm.441-1.501l.221-.744.004.019.093.385.043.161-.361.179z"/><path d="M129.401 138.367a.24.24 0 0 0-.12.032c-.204.111-.368.181-.533.229a1.06 1.06 0 0 1-.263.039l-.009-.002a.8.8 0 0 1 .019-.244l.075-.448.226-2.34c.002-.031-.002-.062-.013-.091a.23.23 0 0 0-.048-.079.24.24 0 0 0-.082-.054c-.031-.012-.063-.018-.097-.018-.122 0-.248.082-.254.239-.034.931-.116 1.729-.256 2.51l-.015.08-.002.01c-.056.292-.127.656.162.849.084.056.187.084.311.084.113-.003.225-.019.334-.047.247-.057.478-.173.691-.289.1-.054.143-.152.116-.261-.024-.098-.116-.199-.242-.199zm8.492.156h-.018c-.201 0-.31.161-.313.32-.004.153.09.322.303.331h.016c.202 0 .311-.161.315-.32.003-.153-.09-.322-.303-.331zm-2.47-1.813c-.068-.485-.366-.901-.776-1.085a1.1 1.1 0 0 0-.445-.097c-.287 0-.538.119-.705.336a1.02 1.02 0 0 0-.124.195c-.02.04-.03.084-.028.129s.016.087.04.125c.037.058.093.101.158.121l-.008 1.127.053.903.006.055-.118.008c-.166.004-.251.137-.25.265.002.121.079.25.246.25h.007a1.71 1.71 0 0 0 .237-.022c.012.024.027.047.042.069.058.077.139.121.223.121.044 0 .088-.012.126-.035.032-.02.059-.046.081-.077a.26.26 0 0 0 .043-.103c.007-.037.007-.087-.008-.128.274-.127.517-.313.712-.543.389-.459.567-1.047.488-1.614zm-1.348-.653c.036-.014.075-.02.113-.019h.029a.52.52 0 0 1 .174.036c.255.087.46.362.523.701.071.384-.068.857-.354 1.205-.129.157-.288.287-.467.383-.03-.288-.038-.583-.043-.86l.025-1.446h0z"/><path d="M137.231 137.723l-.144-1.049c-.046-.24-.098-.495-.189-.736-.041-.11-.084-.214-.167-.289-.059-.055-.138-.086-.219-.087a.31.31 0 0 0-.123.026c-.038.018-.073.043-.101.074a.28.28 0 0 0-.064.122c-.01.046-.005.093.011.137-.002.012-.006.02-.008.028l-.257.745v.002l-.263.76c-.125.04-.159.152-.148.237.003.027.011.054.023.079l-.128.342c-.051.16-.109.397-.031.602.043.112.138.182.247.182.023 0 .045-.003.067-.009.036-.01.069-.028.097-.052s.052-.053.069-.086.023-.059.026-.091-.003-.064-.014-.094c-.039-.104.01-.247.054-.373l.011-.029.116-.296.01-.027.615-.114.012.115.204 1.33c.011.054.04.103.083.137s.097.052.152.051c.042 0 .083-.01.12-.028s.071-.044.097-.076.04-.065.048-.103a.24.24 0 0 0-.004-.113c-.104-.431-.154-.882-.202-1.317zm-.567-.456l-.367.064.16-.476.006-.017.082-.248.07.359.016.099.006.04.007.045.003.022.017.112zm1.473-.233l.009-.141v-.005l.013-.205v-.01l.016-.307.002-.053.001-.028c.007-.179.015-.364-.032-.536-.014-.055-.046-.105-.091-.139s-.102-.053-.159-.051c-.041-.001-.082.008-.119.026a.27.27 0 0 0-.096.075c-.022.029-.037.064-.044.1s-.004.074.007.109a.42.42 0 0 1 .014.079v.016l.003.076-.005.37-.018.328v.002l-.017.249-.006.1-.02.609v.041.006c0 .194 0 .519.247.557.021.003.042.005.062.005.086 0 .15-.03.194-.09.069-.096.05-.236.028-.303-.005-.016-.008-.032-.01-.049l-.001-.021c0-.009-.002-.017-.002-.021l-.003-.07v-.005-.161l.027-.553zm3.349-1.34a.22.22 0 0 0-.101.024c-.031.017-.058.04-.077.07l-.009-.003-.018.056-.334.859-.001.003-.137.336-.346-.514-.083-.119c-.033-.044-.062-.089-.089-.137l-.101-.18-.034-.071-.005-.011-.009-.026c-.012-.044-.039-.082-.075-.109a.21.21 0 0 0-.127-.041c-.035 0-.07.008-.101.023a.23.23 0 0 0-.08.065c-.021.027-.032.057-.036.089s-.001.064.01.095v.002c.113.26.169.345.292.532l.056.085.001.001.543.794c-.195.543-.298.984-.324 1.387-.002.027.001.054.01.08s.022.049.04.069.044.036.071.047.055.016.083.016c.104 0 .214-.07.223-.204.043-.692.338-1.399.622-2.085l.002-.006.266-.661a.22.22 0 0 0 .032-.063l.021-.072.018-.063c.011-.03.015-.061.011-.093a.19.19 0 0 0-.034-.086c-.021-.028-.048-.05-.08-.066a.23.23 0 0 0-.1-.023zm-1.647 2.609c-.042 0-.084.011-.121.032-.187.102-.338.166-.489.21a.92.92 0 0 1-.227.035c-.005-.057.008-.135.019-.199l.001-.007.069-.411c.117-.805.187-1.534.211-2.228a.23.23 0 0 0-.013-.094c-.011-.029-.027-.057-.049-.08a.25.25 0 0 0-.083-.055c-.031-.013-.065-.018-.098-.018-.123 0-.251.083-.257.242-.026.703-.104 1.483-.238 2.383l-.019.113c-.047.265-.107.595.163.775.081.055.179.081.299.081a1.44 1.44 0 0 0 .314-.044c.231-.053.447-.161.645-.269.102-.056.146-.154.118-.265-.025-.1-.117-.201-.245-.201z"/></g><path d="M141.702 139.944h-10.074v1.783h10.074v-1.783z" fill="#d8254f"/><g fill="#fff"><path d="M133.236 140.992c-.024-.025-.054-.044-.086-.056-.039-.015-.078-.027-.118-.038l-.129-.04a.64.64 0 0 1-.118-.057c-.036-.024-.066-.057-.086-.096-.024-.046-.035-.097-.034-.149 0-.042.008-.084.026-.122s.043-.072.076-.099c.067-.059.159-.089.274-.089a.46.46 0 0 1 .122.016c.034.008.067.021.097.037a.65.65 0 0 1 .068.042.31.31 0 0 1 .043.037l.013.016-.114.115a.21.21 0 0 0-.037-.035c-.014-.011-.029-.021-.045-.029a.35.35 0 0 0-.064-.024.33.33 0 0 0-.083-.01c-.051-.003-.102.013-.142.044-.017.012-.03.027-.04.045a.13.13 0 0 0-.014.058c-.001.032.011.064.033.088s.054.044.087.056l.117.037.129.04a.61.61 0 0 1 .118.057.25.25 0 0 1 .087.096c.023.046.035.097.033.148s-.008.093-.026.136-.047.081-.082.112c-.073.063-.173.095-.3.095-.05.001-.101-.006-.149-.018-.041-.01-.08-.025-.116-.045a.72.72 0 0 1-.079-.052c-.018-.013-.034-.028-.049-.044l-.016-.02.114-.114c.022.025.033.036.045.046.018.015.037.028.058.04.026.013.054.024.083.031a.44.44 0 0 0 .108.014c.071 0 .127-.018.168-.052.02-.015.035-.035.046-.057s.016-.047.016-.072c0-.016-.002-.032-.008-.047s-.015-.029-.026-.041zm1.552-.728v.163h-.343v.98h-.179v-.98h-.344v-.163h.866zm1.265.905c.029-.029.052-.063.067-.1a.32.32 0 0 0 .023-.119v-.686h.18v.686a.45.45 0 0 1-.035.182.44.44 0 0 1-.106.153c-.091.089-.213.138-.341.138a.49.49 0 0 1-.341-.138.45.45 0 0 1-.105-.153c-.025-.057-.037-.119-.036-.182v-.686h.18v.686c0 .041.007.081.023.119s.038.072.067.1.06.052.097.068.075.024.115.024a.29.29 0 0 0 .116-.024c.036-.016.069-.039.096-.068h0zm1.372-.905c.076-.001.151.013.222.042s.134.072.187.127.097.115.126.184.045.143.045.218a.55.55 0 0 1-.045.219.57.57 0 0 1-.126.184c-.054.052-.117.098-.187.127a.56.56 0 0 1-.222.042h-.401v-1.143h.401zm-.221.163v.817h.221a.37.37 0 0 0 .154-.03c.048-.02.092-.051.129-.089.075-.078.116-.182.116-.29s-.041-.211-.116-.289a.38.38 0 0 0-.129-.089.37.37 0 0 0-.154-.03h-.221zm1.453-.163h.18v1.143h-.18v-1.143zm1.006.154c.116-.114.259-.17.429-.17s.314.056.431.17a.6.6 0 0 1 .128.191.59.59 0 0 1 .045.226c0 .078-.015.154-.045.226a.58.58 0 0 1-.128.191.59.59 0 0 1-.431.171c-.171 0-.314-.057-.429-.171a.58.58 0 0 1-.129-.191c-.029-.072-.045-.148-.045-.226s.016-.154.045-.226a.6.6 0 0 1 .129-.191zm.129.719c.07.071.162.115.261.125a.43.43 0 0 0 .281-.068c.083-.055.144-.136.174-.231a.43.43 0 0 0-.013-.29c-.037-.092-.106-.168-.193-.215a.43.43 0 0 0-.286-.043c-.098.019-.186.071-.249.148a.43.43 0 0 0-.098.272.42.42 0 0 0 .03.164c.021.051.053.098.093.138z"/></g></g><path d="M113.049 147.82h1.097v-.747a2.2 2.2 0 0 1-1.097.747z" fill="#f1c27d"/><path d="M94.588 117.747H63.011c-.443 0-.869.175-1.184.488s-.493.736-.496 1.18v9h8.781a1.46 1.46 0 0 1 1.449 1.449v16.529a1.45 1.45 0 0 1-1.372 1.438h4.237v-30.084h20.162zm-24.344 2.985h-5.18v-3.029h5.18v3.029z" fill="#e0ac69"/><g fill="#f7cd97"><path d="M74.393 147.896h20.151l-20.151-.033v.033zm32.839-16.188c-.353.031-.681.193-.92.454s-.372.602-.372.956.133.695.372.956.567.423.92.454c.266-.001.525-.079.748-.226s.397-.353.503-.597v-1.174a1.37 1.37 0 0 0-.503-.598c-.223-.146-.482-.224-.748-.225zm-1.504-12.271v12.194c.36-.36.836-.579 1.343-.619a2.14 2.14 0 0 1 1.423.399v-1.899a1.1 1.1 0 0 1 .321-.776c.206-.206.485-.321.777-.321h5.169v-8.397c0-.582-.231-1.14-.643-1.552a2.2 2.2 0 0 0-1.552-.643h-8.506c.432.003.847.172 1.158.472a1.68 1.68 0 0 1 .51 1.142zm5.126 28.371h-1.306c-.292 0-.571-.115-.777-.321a1.1 1.1 0 0 1-.321-.776V134.89a2.14 2.14 0 0 1-1.431.399 2.15 2.15 0 0 1-1.346-.629v11.546c-.001.42-.162.825-.449 1.132s-.679.495-1.098.525h8.352c.181.001.362-.021.538-.066h-2.195l.033.011z"/><path d="M114.212 130.335h-3.293v-1.92h-1.35c-.291 0-.57.115-.776.321a1.1 1.1 0 0 0-.321.776v1.954a2.13 2.13 0 0 1 .668.764c.158.305.241.643.241.986a2.15 2.15 0 0 1-.241.987c-.158.305-.387.566-.668.764v11.821a1.1 1.1 0 0 0 .321.776c.206.206.485.321.776.321h1.285v-2.019h3.292v1.207a2.19 2.19 0 0 0 .549-1.46v-17.198h-.527l.044 1.92zm-5.553 2.821a1.3 1.3 0 0 0-.132-.582v1.175a1.31 1.31 0 0 0 .132-.593z"/><path d="M110.898 130.335h3.314v-1.953h-2.908-.406v1.953zm-.044 15.531v1.942h2.195a2.19 2.19 0 0 0 1.097-.735v-1.207h-3.292zm-5.159.362v-11.546c-.204-.199-.366-.436-.476-.698a2.12 2.12 0 0 1-.168-.828c0-.284.057-.566.168-.828a2.14 2.14 0 0 1 .476-.698v-12.193a1.68 1.68 0 0 0-.488-1.184c-.312-.315-.737-.493-1.18-.496H74.393v30.117h20.14 9.604a1.66 1.66 0 0 0 1.101-.517 1.67 1.67 0 0 0 .457-1.129zm-21.951-10.976H82.01v-1.767h1.756l-.022 1.767zm-4.028-1.986v-1.756c.602 0 1.18-.24 1.606-.666a2.27 2.27 0 0 0 .665-1.606h1.756a4.03 4.03 0 0 1-3.995 4.028h-.033zm7.496 2.019c-1.097 0-1.866-.548-1.866-1.262v-.208h.779v.208c0 .275.516.516 1.098.516s1.098-.241 1.098-.505-.582-.384-1.098-.516c-.812-.241-1.723-.505-1.734-1.284s.768-1.262 1.712-1.262 1.712.571 1.712 1.262v.209h-.779v-.209c0-.274-.439-.516-.933-.516s-.933.242-.933.516.615.384 1.098.516c.812.23 1.734.505 1.723 1.284s-.801 1.251-1.844 1.251h-.033zm6.377-1.767h-3.457a1.38 1.38 0 0 0 1.328 1.098 1.43 1.43 0 0 0 .674-.136c.211-.099.393-.248.533-.435l.132-.154.626.429-.132.186a2.2 2.2 0 0 1-.812.652 2.19 2.19 0 0 1-1.021.204 2.2 2.2 0 0 1-1.22-.37 2.19 2.19 0 0 1-.808-.985c-.166-.401-.21-.842-.125-1.268s.294-.817.601-1.124a2.2 2.2 0 0 1 1.124-.601c.426-.085.867-.041 1.268.125s.744.448.985.809.37.785.37 1.219l-.066.351zm2.777-1.811h-1.229v2.294c0 .351.285.527.845.527h.384v.746h-.384c-1.021 0-1.613-.461-1.624-1.273v-2.294h-.713v-.746h.746v-1.01h.768v1.01h1.24l-.033.746zm2.195 3.567a2.19 2.19 0 0 1-2.028-1.355c-.166-.401-.21-.842-.125-1.268s.294-.817.601-1.124a2.2 2.2 0 0 1 2.392-.476c.401.166.744.448.985.809s.37.785.37 1.219c.005.292-.049.582-.158.853a2.19 2.19 0 0 1-1.197 1.208 2.18 2.18 0 0 1-.851.167l.011-.033zm3.512-2.754v2.787h-.779v-6.091h.779v3.304zm2.195 2.71l-2.03-1.701v-.724l2.14-1.789h1.163l-.757.647-1.8 1.504 2.557 2.195h-1.196l-.077-.132zm-12.808-3.522a1.36 1.36 0 0 0-1.328 1.031h2.689a1.42 1.42 0 0 0-.507-.744 1.41 1.41 0 0 0-.853-.287zm7.09-.001a1.41 1.41 0 0 0-1.313.852 1.4 1.4 0 0 0 .29 1.538 1.4 1.4 0 0 0 1.534.315 1.41 1.41 0 0 0 .872-1.3 1.39 1.39 0 0 0-.102-.534c-.069-.17-.17-.324-.299-.455a1.41 1.41 0 0 0-.982-.416z"/></g><g fill="#231f20"><path d="M87.377 132.805c-.45-.132-1.097-.318-1.097-.516s.439-.516.933-.516.933.242.933.516v.209h.779v-.209c0-.691-.768-1.262-1.712-1.262s-1.712.56-1.712 1.262.922 1.098 1.734 1.284c.472.132 1.098.308 1.098.516s-.516.505-1.098.505-1.097-.242-1.097-.516v-.208h-.779v.208c0 .713.812 1.262 1.866 1.262s1.855-.549 1.855-1.251-.889-1.108-1.701-1.284z"/><path d="M91.46 130.983a2.19 2.19 0 0 0-.957.031c-.313.08-.604.229-.853.435s-.449.464-.586.756a2.2 2.2 0 0 0 0 1.869c.137.292.338.55.586.756s.54.355.853.435a2.19 2.19 0 0 0 .957.031 2.19 2.19 0 0 0 1.021-.204c.319-.149.597-.373.812-.652l.132-.187-.626-.428-.132.154c-.139.186-.322.336-.533.435a1.43 1.43 0 0 1-.675.136c-.313-.006-.615-.118-.856-.317s-.408-.475-.472-.781h3.49v-.373c-.025-.559-.263-1.088-.665-1.477s-.937-.611-1.497-.619zm-1.328 1.822a1.36 1.36 0 0 1 1.328-1.032 1.41 1.41 0 0 1 .854.288c.246.186.424.447.507.744h-2.689z"/></g><g fill="#db284e"><path d="M95.137 129.973h-.746v1.01h-.713v.724h.713v2.294c0 .812.604 1.273 1.624 1.273h.384v-.746h-.384c-.56 0-.845-.176-.845-.527v-2.294h1.196v-.757h-1.229v-.977z"/><path d="M98.55 130.994a2.2 2.2 0 0 0-1.22.37 2.19 2.19 0 0 0-.808.985 2.2 2.2 0 0 0 .476 2.392 2.19 2.19 0 0 0 1.124.601c.426.085.867.041 1.268-.125a2.19 2.19 0 0 0 .985-.808 2.2 2.2 0 0 0 .37-1.22c0-.582-.231-1.14-.643-1.552s-.97-.643-1.552-.643zm0 3.556c-.279.005-.552-.074-.786-.226a1.4 1.4 0 0 1-.616-1.439 1.41 1.41 0 0 1 .379-.725 1.4 1.4 0 0 1 .719-.391 1.41 1.41 0 0 1 .815.076c.258.106.479.286.634.518a1.41 1.41 0 0 1 .238.782 1.4 1.4 0 0 1-.102.535 1.39 1.39 0 0 1-.299.454 1.38 1.38 0 0 1-.45.306c-.169.071-.35.109-.533.11zm8.682.022a1.41 1.41 0 0 1-.92-.455c-.239-.261-.372-.602-.372-.956s.133-.695.372-.956.567-.423.92-.454c.266.001.525.08.748.226a1.36 1.36 0 0 1 .503.597v-1.163c-.412-.298-.917-.44-1.423-.399a2.14 2.14 0 0 0-1.343.618v3.051a2.14 2.14 0 0 0 2.777.231v-1.163c-.107.245-.284.454-.508.6s-.487.224-.754.223z"/><path d="M109.394 133.167a2.19 2.19 0 0 0-.911-1.756v1.164a1.3 1.3 0 0 1 .132.581 1.31 1.31 0 0 1-.132.593v1.163c.277-.2.504-.461.662-.764s.243-.639.249-.981zm-4.325-.011c0 .284.055.565.165.827a2.13 2.13 0 0 0 .472.699v-3.052a2.2 2.2 0 0 0-.637 1.526zm-3.808 2.151h.779v-1.119-.659-.757-.253-3.303h-.768l-.011 6.091zm1.69-2.151l1.8-1.504.757-.647h-1.163l-2.14 1.767v.757l2.03 1.701.11.077h1.163l-2.557-2.151zm-23.202-1.646v1.756a4.03 4.03 0 0 0 4.028-4.028h-1.756a2.27 2.27 0 0 1-.665 1.606c-.426.426-1.004.666-1.606.666z"/></g><path d="M78.991 127.805l-.013 7.943 30.588.048.013-7.943-30.588-.048z" fill="#f7cd97"/><g clip-path="url(#C)"><g fill="#d7244f"><path d="M81.401 131.588l.097-.02-.273 2.526c.007.197.15.339.341.339.06-.001.12-.015.174-.042.865-.422 1.4-.558 2.286-.783.208-.052.263-.228.246-.362-.02-.156-.141-.315-.334-.315-.031 0-.062.004-.092.012-.759.192-1.267.329-1.898.598l.054-.508.344-.142c.591-.245.981-.407 1.682-.598.208-.057.26-.234.243-.37-.021-.153-.14-.309-.328-.309-.033.001-.066.005-.098.014-.71.195-1.103.358-1.698.606l-.045.018.152-1.005c.5-.218.963-.332 1.694-.476a.3.3 0 0 0 .253-.339c-.016-.163-.145-.336-.352-.336-.025 0-.05.003-.075.008-.576.114-1.022.217-1.462.378-.011-.019-.025-.036-.04-.052-.034-.034-.075-.061-.12-.079a.36.36 0 0 0-.141-.027.32.32 0 0 0-.325.249l-.023.085v.004l-.052.197c-.089.026-.413.083-.727.137l-.016.003-1.051.196.023-.547.009-.3v-.057l.978-.149.009-.001 1.293-.195c.038-.007.075-.021.108-.043s.06-.049.081-.083a.34.34 0 0 0 .053-.134.36.36 0 0 0-.005-.145c-.041-.148-.164-.236-.329-.236a.49.49 0 0 0-.066.005l-1.249.189-.019.003-.807.124c.014-.095.034-.188.06-.28.015-.046.019-.096.011-.144s-.028-.093-.057-.132-.076-.076-.125-.099-.102-.036-.156-.035c-.07-.002-.139.019-.195.062s-.096.102-.114.17a2.81 2.81 0 0 0-.098.553l-1.025.127c-.191.02-.321.152-.321.328 0 .16.15.347.335.328l.98-.12-.006.157-.034.836-.346.118c-.143.052-.246.227-.229.388.014.134.104.226.243.246a.65.65 0 0 0 .24-.005l.065-.015-.009.26-.086 2.051c-.004.042.001.083.014.122a.3.3 0 0 0 .062.106c.028.031.068.055.109.072a.33.33 0 0 0 .128.023c.162 0 .331-.108.343-.315l.087-2.062.015-.431 1.556-.334.061-.013zm15.009 1.256c-.02-.156-.141-.315-.335-.315-.031 0-.062.004-.092.012-.797.202-1.371.356-2.04.638l.047-.508.504-.211a8.2 8.2 0 0 1 1.294-.455c.208-.058.26-.235.242-.371-.02-.153-.14-.308-.328-.308a.4.4 0 0 0-.097.013c-.64.176-.878.278-1.309.461l-.208.089.165-1.072a4.87 4.87 0 0 1 .681-.213l.714-.146h.002l.432-.078a.3.3 0 0 0 .253-.339c-.016-.163-.145-.338-.353-.338a.36.36 0 0 0-.073.007l-.52.092-1.026.218c-.015-.044-.04-.084-.073-.118-.069-.068-.163-.106-.26-.105a.32.32 0 0 0-.325.249l-.063.299c-.142.089-.276.191-.399.304-.104.096-.136.223-.087.349a.38.38 0 0 0 .132.167c.059.042.129.066.201.07-.148.95-.289 2.099-.242 2.488.024.197.165.334.344.334a.39.39 0 0 0 .17-.042c.858-.418 1.506-.583 2.403-.81.206-.052.26-.227.244-.361zm-9.337 1.664l.152-1.547v-.012l.112-1.102.124-1.211.013-.117.097-.615a.28.28 0 0 0-.05-.246.36.36 0 0 0-.121-.095.35.35 0 0 0-.15-.033c-.055-.001-.109.013-.156.04s-.087.067-.113.114l-.358.682-.231.451-.397.699-.113.173-.296-.907-.193-.62-.091-.282-.011-.075-.001-.004a.93.93 0 0 0-.036-.091c-.049-.094-.154-.153-.275-.153a.34.34 0 0 0-.16.039.29.29 0 0 0-.092.075.31.31 0 0 0-.026.029c-.028.037-.046.081-.052.128a1.34 1.34 0 0 0-.035.273l-.01.12c-.049.364-.08.752-.1 1.258l-.074 2.831c-.002.038.004.076.018.111a.31.31 0 0 0 .06.096c.026.028.068.053.109.069s.084.024.127.023c.158 0 .319-.102.323-.297l.039-1.593.026-.969.008-.26c.14.386.306.67.522.892.06.057.141.088.224.086a.29.29 0 0 0 .169-.05c.295-.211.494-.551.674-.887l-.026.273-.109 1.072-.002.017-.159 1.619a.26.26 0 0 0 .01.109.25.25 0 0 0 .054.095.3.3 0 0 0 .225.091c.162 0 .334-.103.349-.299zm1.413-.77l.358-1.19.955-.481a15.73 15.73 0 0 0 .677 1.821c.048.107.165.176.299.176a.36.36 0 0 0 .176-.045c.159-.093.21-.28.127-.465a14.44 14.44 0 0 1-.65-1.794l.468-.223c.14-.066.206-.196.174-.341s-.168-.296-.357-.296c-.053.001-.106.013-.154.036l-.321.152-.26-1.044-.111-.435-.044-.187-.003-.017c.02-.047.029-.098.026-.15a.31.31 0 0 0-.046-.145.37.37 0 0 0-.132-.126c-.054-.03-.114-.047-.176-.048s-.12.019-.17.054a.45.45 0 0 0-.175.261l-.012-.004-.014.064c-.311.844-.56 1.718-.8 2.565l-.056.196-.024.013c-.02.007-.04.015-.059.026l-.063.035-.058.033-.06.031.002.006c-.048.036-.084.086-.104.143s-.021.118-.005.176c.024.097.085.181.17.234l-.239.781a.31.31 0 0 0-.016.148.3.3 0 0 0 .056.138c.035.045.08.081.131.106a.36.36 0 0 0 .165.036.33.33 0 0 0 .205-.064c.06-.044.102-.105.123-.176zm.615-2.092l.308-1.038.006.026.13.537.06.225-.504.25z"/><path d="M92.764 133.187a.35.35 0 0 0-.167.045c-.284.154-.513.252-.743.319a1.42 1.42 0 0 1-.367.054l-.013-.002c-.017-.095.007-.231.026-.341l.104-.625.316-3.263c.003-.043-.003-.086-.018-.127a.32.32 0 0 0-.067-.11c-.033-.033-.072-.058-.115-.075a.33.33 0 0 0-.135-.025c-.17 0-.347.114-.355.332-.048 1.3-.161 2.413-.357 3.502l-.021.111-.003.014c-.078.407-.178.914.226 1.184.117.078.26.117.434.117a2.16 2.16 0 0 0 .467-.066c.344-.079.667-.24.963-.402a.31.31 0 0 0 .162-.364c-.034-.137-.162-.278-.338-.278zm11.845.217h-.026c-.281 0-.432.225-.437.447-.005.213.126.448.423.461h.023c.281 0 .434-.224.439-.446.004-.213-.126-.449-.422-.462zm-3.446-2.529c-.095-.676-.51-1.256-1.082-1.513a1.53 1.53 0 0 0-.621-.135c-.401 0-.751.166-.984.468a1.46 1.46 0 0 0-.172.273c-.028.055-.042.117-.039.179s.022.122.056.174c.051.082.129.142.22.17l-.011 1.572.073 1.258.009.077-.165.011c-.232.006-.35.191-.348.371.002.168.11.348.343.348h.009a2.63 2.63 0 0 0 .332-.03c.017.033.037.065.059.095.08.107.193.169.31.169a.34.34 0 0 0 .176-.049c.045-.028.083-.064.113-.107s.051-.092.061-.144a.32.32 0 0 0-.012-.178c.382-.178.721-.437.993-.758.543-.64.791-1.46.681-2.251zm-1.88-.911a.41.41 0 0 1 .159-.026h.04c.083.003.165.02.242.051.357.12.643.504.731.977.098.535-.096 1.195-.495 1.68a2.17 2.17 0 0 1-.651.534 13.65 13.65 0 0 1-.06-1.199l.034-2.017h0zm4.402 2.324l-.201-1.463c-.064-.335-.137-.689-.263-1.027-.057-.152-.118-.297-.233-.402-.083-.077-.192-.121-.306-.122a.42.42 0 0 0-.171.037.41.41 0 0 0-.141.103.35.35 0 0 0-.089.17c-.013.064-.008.13.014.191-.003.017-.007.028-.011.039l-.358 1.039v.003l-.367 1.06c-.175.056-.221.213-.207.33.005.039.016.076.032.111l-.178.476c-.071.224-.152.555-.044.84.061.156.193.255.346.255a.38.38 0 0 0 .094-.013c.049-.015.095-.04.135-.073a.37.37 0 0 0 .095-.12.32.32 0 0 0 .036-.127c.004-.044-.003-.089-.018-.13-.056-.146.014-.345.075-.521l.014-.041.162-.413.015-.036.857-.16.018.161.283 1.855a.33.33 0 0 0 .117.19c.06.048.135.073.211.071a.39.39 0 0 0 .168-.038.4.4 0 0 0 .136-.106c.033-.042.056-.091.066-.144a.35.35 0 0 0-.005-.158c-.145-.602-.215-1.229-.282-1.837zm-.792-.636l-.511.09.224-.664.007-.024.116-.345.097.5.022.138.009.056.009.062.004.032.023.155zm2.055-.325l.012-.196v-.007l.02-.286v-.014l.021-.428.003-.074.002-.039c.01-.249.02-.508-.045-.747-.019-.078-.064-.146-.127-.195s-.142-.073-.221-.071c-.058 0-.114.012-.166.036s-.098.061-.134.105a.29.29 0 0 0-.062.14c-.009.051-.005.103.01.152a.82.82 0 0 1 .02.11v.023l.004.106-.007.516-.026.457v.003l-.024.348-.008.138-.028.85v.057.008c0 .271 0 .724.345.778.029.004.058.006.087.006.119 0 .208-.042.27-.125.096-.134.07-.329.038-.423a.39.39 0 0 1-.013-.068l-.001-.024v-.006c0-.012-.003-.023-.003-.028l-.004-.099v-.007-.224l.037-.772zm4.672-1.867c-.049-.001-.098.01-.141.033s-.081.056-.108.097l-.012-.004-.026.078-.466 1.198-.002.004-.19.469-.482-.716-.117-.167c-.045-.061-.086-.125-.123-.191l-.141-.251-.048-.099-.007-.016c-.005-.012-.008-.024-.012-.036-.017-.061-.054-.115-.106-.152a.28.28 0 0 0-.176-.056.3.3 0 0 0-.141.032c-.044.021-.082.052-.112.09a.27.27 0 0 0-.05.124.26.26 0 0 0 .014.132v.003c.158.362.236.481.407.742l.078.118.002.002.758 1.107c-.273.758-.416 1.373-.452 1.935a.28.28 0 0 0 .013.111c.012.036.031.069.057.097s.061.051.098.066.076.022.116.021c.146 0 .299-.097.311-.284.061-.965.471-1.952.867-2.908l.003-.008.371-.922c.02-.027.035-.057.045-.088l.029-.1.026-.089a.27.27 0 0 0 .014-.129c-.005-.043-.022-.084-.047-.12-.03-.039-.067-.07-.111-.091s-.091-.033-.139-.032zm-2.298 3.637c-.059 0-.117.016-.169.045-.26.142-.471.232-.681.292a1.26 1.26 0 0 1-.317.049c-.007-.08.012-.188.026-.278l.002-.009.096-.574.295-3.107a.32.32 0 0 0-.018-.13c-.015-.042-.039-.08-.069-.112a.33.33 0 0 0-.116-.076c-.043-.017-.09-.026-.137-.026-.172 0-.35.116-.358.337-.036.981-.145 2.069-.332 3.324l-.026.157c-.067.37-.149.831.226 1.082a.73.73 0 0 0 .418.113 1.98 1.98 0 0 0 .439-.062c.321-.074.622-.224.899-.374.142-.079.204-.216.165-.37-.035-.14-.165-.281-.343-.281z"/></g><path d="M109.921 135.387H95.87v2.485h14.051v-2.485z" fill="#d8254f"/><g fill="#fff"><path d="M98.113 136.847c-.034-.035-.075-.062-.121-.078-.054-.021-.108-.038-.164-.052l-.18-.056a.92.92 0 0 1-.164-.08.35.35 0 0 1-.12-.133.43.43 0 0 1-.047-.208.39.39 0 0 1 .036-.171.4.4 0 0 1 .106-.138c.094-.083.222-.124.383-.124a.66.66 0 0 1 .171.022.6.6 0 0 1 .136.052c.033.017.064.037.095.059a.34.34 0 0 1 .059.052l.018.022-.159.16c-.024-.027-.037-.039-.05-.048a.43.43 0 0 0-.063-.042.46.46 0 0 0-.089-.033c-.038-.009-.077-.014-.116-.014a.31.31 0 0 0-.199.061c-.023.017-.041.038-.054.063s-.02.053-.02.081c-.001.045.015.09.047.123a.32.32 0 0 0 .121.078c.054.021.108.038.164.052l.18.056a.84.84 0 0 1 .164.079c.051.033.093.079.12.134a.43.43 0 0 1 .047.207.44.44 0 0 1-.037.189.43.43 0 0 1-.114.155.61.61 0 0 1-.418.134.81.81 0 0 1-.208-.026c-.056-.014-.111-.035-.162-.062a1 1 0 0 1-.11-.073c-.024-.019-.047-.039-.068-.061l-.022-.028.159-.159.015.019a.51.51 0 0 0 .048.045.45.45 0 0 0 .081.055.53.53 0 0 0 .115.044.55.55 0 0 0 .152.019c.099 0 .177-.024.234-.072.027-.021.049-.049.064-.08s.022-.065.022-.099c.001-.023-.003-.045-.011-.067a.18.18 0 0 0-.036-.057zm2.165-1.015v.228h-.479v1.367h-.249v-1.367h-.479v-.228h1.207zm1.764 1.262a.44.44 0 0 0 .094-.139.43.43 0 0 0 .031-.166v-.957h.251v.957a.61.61 0 0 1-.049.254c-.033.081-.084.153-.147.213a.68.68 0 0 1-.476.193c-.177 0-.348-.069-.476-.193-.063-.06-.113-.132-.146-.213a.63.63 0 0 1-.05-.253v-.958h.251v.957a.43.43 0 0 0 .032.166c.021.052.053.1.093.14a.41.41 0 0 0 .135.094c.051.022.106.034.161.034s.11-.012.161-.034a.41.41 0 0 0 .135-.094v-.001zm1.913-1.262a.8.8 0 0 1 .31.059.79.79 0 0 1 .437.433c.041.097.062.201.062.305a.78.78 0 0 1-.062.305c-.041.096-.101.184-.176.257a.79.79 0 0 1-.261.177.8.8 0 0 1-.31.059h-.558v-1.595h.558zm-.308.228v1.139h.308c.074.001.147-.013.215-.041s.129-.071.18-.124c.104-.109.162-.254.162-.405s-.058-.295-.162-.404c-.051-.053-.112-.095-.18-.124a.53.53 0 0 0-.215-.041h-.308zm2.027-.228h.251v1.595h-.251v-1.595zm1.403.215c.162-.158.361-.237.599-.237a.83.83 0 0 1 .6.237c.076.077.137.167.179.267a.83.83 0 0 1 .063.315.83.83 0 0 1-.063.315c-.042.1-.103.19-.179.267-.162.158-.362.238-.6.238a.82.82 0 0 1-.599-.238c-.077-.076-.138-.167-.179-.267s-.064-.207-.064-.315.022-.215.064-.315a.83.83 0 0 1 .179-.267zm.18 1.003a.6.6 0 0 0 .363.175c.138.015.277-.019.392-.095a.6.6 0 0 0 .243-.323c.041-.132.035-.275-.018-.403s-.147-.235-.269-.301-.263-.087-.4-.06a.59.59 0 0 0-.346.206c-.089.107-.137.241-.137.38-.002.078.013.156.042.228a.57.57 0 0 0 .13.193z"/></g></g><path d="M65.061 117.69l-.004 3.029 5.137.007.004-3.029-5.137-.007z" fill="#f1c27d"/><path d="M58.544 128.415H42.805v1.953h-3.293v-1.953h-1.328c-.291 0-.57.115-.776.321a1.1 1.1 0 0 0-.322.776v17.276a1.1 1.1 0 0 0 .322.776c.206.206.485.321.776.321h1.328v-2.019h3.293v1.953h2.733v-19.404h13.006z" fill="#e0ac69"/><g fill="#f7cd97"><path d="M66.688 139.247c.181.005.36-.045.513-.143a.91.91 0 0 0 .157-1.407.9.9 0 0 0-.469-.253.91.91 0 0 0-1.09.903.9.9 0 0 0 .889.9zm-1.932 8.595h.318v-.088a.98.98 0 0 1-.318.088z"/><path d="M64.646 128.414a1.1 1.1 0 0 1 1.098 1.098v7.859a1.39 1.39 0 0 1 .581-.355 1.4 1.4 0 0 1 .68-.037c.226.045.438.144.616.29s.317.334.405.547a1.4 1.4 0 0 1 .098.674 1.39 1.39 0 0 1-.233.64c-.129.191-.304.347-.508.453a1.39 1.39 0 0 1-.662.158c-.182.001-.361-.035-.529-.105s-.32-.172-.448-.301v5.488h4.467v2.996c.369-.019.716-.179.971-.446a1.45 1.45 0 0 0 .401-.991v-16.519a1.46 1.46 0 0 0-.443-1.037 1.48 1.48 0 0 0-.483-.311 1.46 1.46 0 0 0-.566-.101h-5.488.044zm1.054 16.464v1.943a1.1 1.1 0 0 1-.193.595c-.121.175-.29.312-.487.392v.088h5.148v-3.018H65.7zm-20.173 2.963h12.984l-12.984-.022v.022zm10.997-10.415c-.196-.002-.386.063-.541.182a.88.88 0 0 0-.315.476h1.734a.91.91 0 0 0-.329-.476c-.158-.119-.351-.183-.549-.182zm3.677.867a.9.9 0 0 0 .064.345.89.89 0 0 0 .482.493.92.92 0 0 0 .344.073 1.21 1.21 0 0 0 .209 0v-1.734a1.61 1.61 0 0 0-.219 0c-.222.004-.435.091-.597.243a.9.9 0 0 0-.281.58z"/><path d="M61.99 138.293a.9.9 0 0 0-.192-.55c-.123-.157-.295-.269-.488-.317v1.734a.89.89 0 0 0 .68-.867zm-.691 7.88v-6.465h-.209a1.39 1.39 0 0 1-.533-.106 1.38 1.38 0 0 1-.452-.302 1.39 1.39 0 0 1 0-1.971 1.39 1.39 0 0 1 .985-.408h.209v-8.506H45.527v19.404h12.984 4.39c-.427-.016-.832-.197-1.13-.503a1.67 1.67 0 0 1-.473-1.143zm-9.713-6.476h-1.098V138.6h1.098v1.097zm-2.601-1.284v-1.097a1.48 1.48 0 0 0 .581-.106 1.45 1.45 0 0 0 .492-.325 1.46 1.46 0 0 0 .325-.492 1.47 1.47 0 0 0 .105-.581h1.098a2.6 2.6 0 0 1-.199.998c-.131.316-.324.604-.567.845s-.531.433-.848.563a2.59 2.59 0 0 1-.999.195h.011zm4.796 1.306c-.67 0-1.196-.362-1.196-.812v-.142h.505v.142c0 .165.329.33.692.33s.702-.154.702-.33-.384-.241-.68-.329c-.527-.154-1.098-.329-1.098-.834s.494-.812 1.098-.812 1.097.373 1.097.812v.142h-.505v-.142c0-.176-.274-.329-.604-.329s-.593.153-.593.329.395.252.681.329c.527.154 1.098.329 1.098.834s-.505.812-1.196.812zm4.116-1.097h-2.228a.88.88 0 0 0 .856.669.93.93 0 0 0 .78-.362l.088-.099.406.275-.088.121a1.46 1.46 0 0 1-1.185.548 1.38 1.38 0 0 1-.764-.23c-.226-.15-.405-.362-.513-.612a1.39 1.39 0 0 1 .265-1.507 1.39 1.39 0 0 1 .691-.4 1.4 1.4 0 0 1 .797.044 1.39 1.39 0 0 1 .919 1.224l-.022.329zm1.767-1.153h-.79v1.482c0 .22.187.329.538.329h.252v.483h-.252c-.659 0-1.032-.296-1.043-.812v-1.482h-.461v-.483h.461v-.647h.494v.647h.79l.011.483z"/><path d="M65.031 144.878h.67v-5.488c-.133-.127-.238-.279-.31-.448s-.109-.351-.109-.534a1.36 1.36 0 0 1 .109-.534c.072-.169.177-.321.31-.448v-7.914a1.1 1.1 0 0 0-.322-.776c-.206-.206-.485-.321-.776-.321H61.31v8.55c.334.042.641.205.864.457s.345.578.345.915-.123.661-.345.914-.53.415-.864.457v6.465c0 .435.17.853.473 1.164s.717.493 1.151.504h1.822a.98.98 0 0 0 .318-.087l-.044-2.876zm-1.69-6.893v1.8h-.505v-3.929h.505v2.129zm.11.648v-.483l1.383-1.098h.746l-.483.417-1.163.966 1.646 1.394h-.746-.077l-1.306-1.196z"/><path d="M65.019 147.754a1.1 1.1 0 0 0 .681-.988v-1.888h-.669l-.011 2.876z"/></g><g fill="#231f20"><path d="M53.89 138.073c-.285-.077-.681-.197-.681-.329s.274-.329.593-.329.604.153.604.329v.143h.472v-.143c0-.439-.494-.812-1.098-.812s-1.098.362-1.098.812.593.68 1.098.834c.296.088.681.198.681.329s-.34.33-.702.33-.691-.165-.691-.33v-.142h-.505v.142c0 .45.527.812 1.196.812s1.196-.362 1.196-.812-.538-.68-1.065-.834z"/><path d="M56.524 136.942c-.193-.017-.387.007-.57.068a1.39 1.39 0 0 0-.494.293c-.143.13-.257.289-.335.466a1.39 1.39 0 0 0-.118.562c0 .193.04.385.118.562s.192.336.335.466a1.39 1.39 0 0 0 .494.292c.183.062.377.085.57.068a1.46 1.46 0 0 0 1.185-.548l.088-.121-.406-.275-.088.099c-.091.119-.21.213-.346.276s-.284.093-.434.086a.88.88 0 0 1-.856-.669h2.25v-.274c-.011-.363-.163-.706-.423-.958s-.608-.393-.971-.393zm-.856 1.098c.049-.189.16-.357.315-.476a.87.87 0 0 1 .541-.182c.198-.001.391.063.549.182a.91.91 0 0 1 .329.476h-1.734z"/></g><g fill="#db284e"><path d="M58.895 136.295h-.494v.647h-.461v.483h.461v1.482c0 .516.384.812 1.043.812h.252v-.483h-.252c-.351 0-.538-.109-.538-.329v-1.482h.79v-.483h-.79l-.011-.647z"/><path d="M61.09 139.248a.91.91 0 0 1-.911-.911.91.91 0 0 1 .911-.911 1.61 1.61 0 0 1 .219 0v-.505h-.209c-.37 0-.724.147-.986.408s-.408.616-.408.986.147.724.408.985a1.39 1.39 0 0 0 .986.409h.209v-.505a1.26 1.26 0 0 1-.219.044z"/><path d="M62.484 138.293c-.001-.331-.12-.651-.335-.902s-.513-.418-.839-.47v.505a.88.88 0 0 1 .498.312.89.89 0 0 1 0 1.11c-.126.157-.302.267-.498.312v.505a1.41 1.41 0 0 0 .837-.472c.215-.251.334-.57.337-.9zm4.204 1.438a1.4 1.4 0 0 0 .662-.159c.204-.106.379-.262.508-.453a1.39 1.39 0 0 0 .233-.639c.024-.23-.01-.461-.098-.674s-.227-.401-.405-.547a1.38 1.38 0 0 0-.616-.29 1.4 1.4 0 0 0-1.262.391v1.964a1.36 1.36 0 0 0 .448.301c.168.07.348.106.529.106zm0-2.294a.91.91 0 0 1 .579 1.513c-.15.167-.356.273-.579.298a.9.9 0 0 1-.889-.9.91.91 0 0 1 .9-.911h-.011z"/><path d="M65.711 139.324v-1.964c-.132.127-.238.279-.31.448s-.109.351-.109.534a1.36 1.36 0 0 0 .109.534 1.35 1.35 0 0 0 .31.448zm-2.876.407h.505v-.725-.428-.483-.164l.011-2.13h-.505l-.011 3.93zm2.744-.001l-1.646-1.393 1.163-.966.483-.417h-.746l-1.383 1.141v.483l1.306 1.098.066.054h.757zm-16.606-2.447v1.097a2.6 2.6 0 0 0 2.612-2.568h-1.097a1.47 1.47 0 0 1-.116.573c-.077.182-.189.346-.33.483s-.309.244-.492.316-.38.105-.576.099z"/></g><path d="M48.705 135.029l-.007 5.101 19.91.028.007-5.101-19.91-.028z" fill="#f7cd97"/><g fill="#f1c27d"><path d="M39.512 130.335h3.315v-1.953h-2.919-.395v1.953zm3.282 15.531H39.49l-.011 1.942.406.011h2.909v-1.953z"/></g><g fill="#f3bdca"><path d="M41.938 147.501c2.522 0 4.566-2.152 4.566-4.807s-2.044-4.807-4.566-4.807-4.566 2.152-4.566 4.807 2.044 4.807 4.566 4.807z"/><path d="M46.394 147.501c1.243 0 2.25-.894 2.25-1.998s-1.007-1.997-2.25-1.997-2.25.894-2.25 1.997 1.007 1.998 2.25 1.998zm-9.011 0c1.528 0 2.766-1.101 2.766-2.458s-1.238-2.459-2.766-2.459-2.766 1.101-2.766 2.459 1.238 2.458 2.766 2.458z"/><path d="M54.253 147.82H29.524s9.812-3.6 24.728 0z"/><path d="M47.184 147.315c2.413 0 4.368-1.735 4.368-3.875s-1.956-3.874-4.368-3.874-4.368 1.735-4.368 3.874 1.956 3.875 4.368 3.875z"/><path d="M51.541 147.326c1.206 0 2.184-.87 2.184-1.943s-.978-1.943-2.184-1.943-2.184.87-2.184 1.943.978 1.943 2.184 1.943zm-8.725-.011c1.479 0 2.678-1.067 2.678-2.382s-1.199-2.382-2.678-2.382-2.678 1.067-2.678 2.382 1.199 2.382 2.678 2.382z"/><path d="M58.895 147.732H34.968s9.505-3.479 23.927 0zm81.187.296c2.546 0 4.609-1.995 4.609-4.456s-2.063-4.456-4.609-4.456-4.61 1.995-4.61 4.456 2.064 4.456 4.61 4.456z"/><path d="M143.155 148.028c1.061 0 1.921-.83 1.921-1.855s-.86-1.855-1.921-1.855-1.921.831-1.921 1.855.86 1.855 1.921 1.855zm-7.683 0c1.303 0 2.36-1.022 2.36-2.283s-1.057-2.283-2.36-2.283-2.36 1.022-2.36 2.283 1.057 2.283 2.36 2.283z"/><path d="M149.839 148.313h-21.051s8.407-3.325 21.051 0z"/><path d="M146.316 148.028c2.055 0 3.721-1.607 3.721-3.589s-1.666-3.589-3.721-3.589-3.721 1.607-3.721 3.589 1.666 3.589 3.721 3.589z"/><path d="M150.037 148.028c1.024 0 1.854-.801 1.854-1.789s-.83-1.789-1.854-1.789-1.855.801-1.855 1.789.83 1.789 1.855 1.789zm-7.431.011c1.261 0 2.283-.988 2.283-2.206s-1.022-2.206-2.283-2.206-2.283.988-2.283 2.206 1.022 2.206 2.283 2.206z"/><path d="M156.501 148.314h-20.403s8.121-3.216 20.403 0zm1.372-81.001c5.686 0 10.295-4.098 10.295-9.154s-4.609-9.154-10.295-9.154-10.295 4.098-10.295 9.154 4.609 9.154 10.295 9.154z"/><path d="M147.578 67.313c2.843 0 5.148-2.049 5.148-4.577s-2.305-4.577-5.148-4.577-5.148 2.049-5.148 4.577 2.305 4.577 5.148 4.577zm20.601-.01c3.492 0 6.322-2.516 6.322-5.619s-2.83-5.62-6.322-5.62-6.322 2.516-6.322 5.62 2.831 5.619 6.322 5.619z"/><path d="M128.788 68.62H180s-20.327-10.087-51.212 0zm-97.2-29.755c6.365 0 11.524-4.58 11.524-10.229s-5.16-10.229-11.524-10.229-11.524 4.58-11.524 10.229 5.16 10.229 11.524 10.229z"/><path d="M43.101 38.865c3.182 0 5.762-2.29 5.762-5.115s-2.58-5.115-5.762-5.115-5.762 2.29-5.762 5.115 2.58 5.115 5.762 5.115zm-23.038.01c3.91 0 7.079-2.816 7.079-6.289s-3.17-6.289-7.079-6.289-7.079 2.816-7.079 6.289 3.17 6.289 7.079 6.289z"/><path d="M63.176 39.666H0s25.079-9.176 63.176 0z"/></g><g fill="#c22046"><path d="M60.531 113.718l-16.321-9.472 4.27-4.434 12.051 13.906zm1.624-2.316l-7.178-11.963 4.346-1.35 2.832 13.313zm-3.589 4.731l-10.701-.34.944-3.359 9.757 3.699z"/></g><path d="M106.002 99.571c6.644 0 12.03-5.386 12.03-12.029s-5.386-12.029-12.03-12.029a12.03 12.03 0 0 0-12.029 12.029 12.03 12.03 0 0 0 12.029 12.029z" fill="#e66983"/><g opacity=".1"><path opacity=".1" d="M105.695 94.522a1.85 1.85 0 0 1-.714-.142c-.226-.094-.431-.233-.603-.407l-6.201-6.289a1.86 1.86 0 0 1-.399-.605c-.092-.226-.139-.468-.137-.712a1.86 1.86 0 0 1 .553-1.311 1.86 1.86 0 0 1 .606-.399c.226-.092.468-.139.712-.137s.486.051.71.146.429.233.601.407l4.763 4.84 7.036-8.352c.317-.377.771-.612 1.262-.655s.978.112 1.355.43.613.771.655 1.262-.112.978-.43 1.355l-8.341 9.878a1.86 1.86 0 0 1-1.35.659l-.077.033z" fill="#231f20"/></g><path d="M104.878 94.831a1.69 1.69 0 0 1-1.175-.483l-6.245-6.322c-.289-.313-.446-.727-.436-1.154s.184-.833.487-1.133.711-.471 1.138-.477.839.155 1.149.447l5.016 5.071 7.485-8.528c.144-.161.319-.293.514-.387s.406-.149.622-.161.433.018.637.09.393.182.554.326a1.64 1.64 0 0 1 .387.514c.094.195.149.406.161.623a1.64 1.64 0 0 1-.09.637c-.071.204-.182.392-.326.554l-8.693 9.878c-.148.169-.33.305-.534.4a1.62 1.62 0 0 1-.651.149v-.044z" fill="#fff"/><g clip-path="url(#D)"><g fill="#d7244f"><path d="M49.764 137.221l.069-.015-.196 1.812a.24.24 0 0 0 .244.242.27.27 0 0 0 .125-.03c.62-.302 1.004-.399 1.639-.561.149-.037.188-.163.176-.26-.014-.111-.101-.225-.24-.225-.022 0-.044.002-.066.008-.544.138-.909.236-1.361.429l.039-.364.246-.102c.423-.176.703-.292 1.206-.429.149-.041.186-.168.174-.265-.015-.11-.101-.221-.235-.221-.024 0-.047.003-.07.009-.509.14-.791.257-1.217.435l-.032.013.109-.721c.359-.156.69-.238 1.214-.341.122-.025.193-.12.181-.243-.011-.117-.104-.241-.252-.241a.24.24 0 0 0-.053.006c-.413.081-.733.155-1.049.271-.008-.014-.018-.026-.029-.038-.025-.024-.054-.043-.086-.056s-.067-.02-.101-.02a.23.23 0 0 0-.233.179l-.017.061v.003l-.037.141c-.064.019-.296.059-.521.098l-.011.002-.754.141.016-.392.007-.215v-.041l.701-.107.007-.001.927-.14c.028-.004.054-.015.077-.03s.043-.036.058-.06.032-.062.038-.096a.26.26 0 0 0-.003-.104c-.029-.106-.117-.169-.236-.169a.38.38 0 0 0-.048.003l-.895.136-.013.002-.578.089a1.53 1.53 0 0 1 .043-.201c.011-.033.014-.068.008-.103a.21.21 0 0 0-.041-.094c-.024-.031-.055-.055-.09-.072s-.073-.025-.112-.025a.22.22 0 0 0-.14.044c-.04.031-.069.074-.081.122a2.05 2.05 0 0 0-.07.397l-.735.091c-.137.014-.23.109-.23.235 0 .115.107.249.24.235l.702-.085-.004.112-.024.599-.248.085c-.103.037-.176.163-.164.278.01.096.075.162.174.176a.45.45 0 0 0 .172-.003l.047-.011-.006.187-.062 1.471c-.003.029.001.059.01.087s.025.054.045.075.049.04.078.052.06.018.092.017c.116 0 .238-.078.246-.226l.062-1.479.011-.308 1.115-.24.044-.009zm10.761.9c-.014-.112-.101-.226-.24-.226a.25.25 0 0 0-.066.009c-.572.145-.983.255-1.463.458l.034-.365.362-.151a5.82 5.82 0 0 1 .928-.327.23.23 0 0 0 .174-.265c-.014-.11-.1-.221-.235-.221-.024 0-.047.003-.07.009-.459.126-.63.199-.939.331l-.149.063.118-.768c.157-.066.328-.112.488-.153l.512-.105h.002l.31-.056c.122-.024.194-.118.181-.242-.011-.117-.104-.243-.253-.243-.018 0-.035.002-.052.005l-.373.066-.736.156c-.011-.031-.028-.06-.052-.084-.05-.049-.117-.076-.187-.076a.23.23 0 0 0-.233.179l-.045.214a1.92 1.92 0 0 0-.286.219c-.075.068-.097.159-.062.25a.27.27 0 0 0 .095.119c.042.03.092.048.144.05-.106.681-.207 1.506-.173 1.785.017.14.118.239.246.239.043-.001.084-.011.122-.03.615-.3 1.08-.418 1.723-.581.148-.037.186-.163.175-.259z"/><path d="M53.831 139.315l.109-1.11v-.008l.081-.79.089-.869.01-.084.069-.44c.008-.031.009-.062.003-.093a.2.2 0 0 0-.039-.084c-.023-.029-.053-.052-.087-.068a.25.25 0 0 0-.107-.024.21.21 0 0 0-.112.029c-.034.019-.062.048-.081.082l-.256.489-.165.323-.285.501-.081.124-.213-.65-.139-.445-.065-.202-.008-.054-.001-.002a.53.53 0 0 0-.026-.066c-.035-.067-.11-.109-.197-.109-.04 0-.079.009-.115.027a.23.23 0 0 0-.066.054l-.019.021c-.02.027-.033.058-.037.092-.015.064-.024.13-.025.196l-.007.086a9.67 9.67 0 0 0-.072.901l-.053 2.031c-.001.027.003.054.013.079s.024.049.043.069a.26.26 0 0 0 .078.05c.029.011.06.017.091.016.113 0 .229-.073.231-.213l.028-1.142.019-.695.006-.186c.1.276.22.48.374.639.043.041.101.063.161.062a.21.21 0 0 0 .121-.036c.211-.152.354-.395.483-.636l-.019.196-.078.768-.001.013-.114 1.161c-.003.026-.001.053.008.078a.19.19 0 0 0 .039.068.22.22 0 0 0 .074.049c.028.011.057.017.087.016.116 0 .239-.074.25-.214zm1.013-.552l.256-.854.685-.345a11.3 11.3 0 0 0 .485 1.306c.034.077.118.126.215.126.044 0 .087-.011.126-.033.114-.066.151-.2.091-.333a10.32 10.32 0 0 1-.467-1.286l.336-.16a.21.21 0 0 0 .125-.245c-.023-.103-.12-.211-.256-.211-.038 0-.076.009-.111.025l-.23.11-.187-.749-.079-.312-.032-.134-.002-.012c.015-.034.021-.071.018-.108a.24.24 0 0 0-.033-.104c-.024-.038-.056-.069-.095-.09a.28.28 0 0 0-.126-.035c-.044-.001-.086.014-.122.039-.063.045-.108.112-.125.187l-.009-.003-.01.046c-.223.605-.401 1.232-.574 1.839l-.041.141-.017.009a.2.2 0 0 0-.042.019l-.045.025-.042.024-.043.022.002.004c-.035.026-.06.062-.074.102s-.015.085-.003.127c.017.07.061.13.122.168l-.171.56c-.013.034-.016.07-.011.106a.22.22 0 0 0 .04.099c.021.029.057.058.094.076s.077.026.118.026a.24.24 0 0 0 .234-.172zm.441-1.501l.221-.744.004.019.093.385.043.161-.361.179z"/><path d="M57.911 138.367a.24.24 0 0 0-.12.032c-.204.111-.368.181-.533.229a1.06 1.06 0 0 1-.263.039l-.009-.002a.8.8 0 0 1 .019-.244l.075-.448.227-2.34c.002-.031-.002-.062-.013-.091s-.027-.056-.048-.079a.23.23 0 0 0-.082-.054c-.03-.012-.064-.018-.097-.018-.122 0-.249.082-.255.239-.034.931-.116 1.729-.256 2.51l-.015.08-.002.01c-.056.292-.127.656.162.849.084.056.187.084.311.084a1.51 1.51 0 0 0 .334-.047c.247-.057.478-.173.69-.289a.22.22 0 0 0 .116-.261c-.024-.098-.116-.199-.242-.199zm8.493.156h-.019c-.201 0-.309.161-.313.32-.004.153.09.322.303.331h.017c.202 0 .311-.161.315-.32.003-.153-.09-.322-.303-.331zm-2.471-1.813c-.068-.485-.365-.901-.776-1.085a1.1 1.1 0 0 0-.445-.097.87.87 0 0 0-.706.336 1.07 1.07 0 0 0-.123.195c-.02.04-.03.084-.028.129s.016.087.04.125c.036.058.092.101.158.121l-.008 1.127.053.903.006.055-.118.008c-.166.004-.251.137-.249.265.001.121.079.25.246.25h.006a1.72 1.72 0 0 0 .238-.022.52.52 0 0 0 .042.069c.058.077.139.121.222.121.044 0 .088-.012.126-.035.032-.02.059-.046.081-.077s.036-.066.044-.103.006-.087-.009-.128c.274-.127.517-.313.712-.543.389-.459.567-1.047.488-1.614zm-1.348-.653c.036-.014.075-.02.114-.019h.029c.059.002.118.014.173.036.255.087.461.362.524.701.071.384-.069.857-.354 1.205-.129.157-.288.287-.467.383-.03-.288-.039-.583-.043-.86l.025-1.446h0z"/><path d="M65.742 137.723l-.144-1.049c-.046-.24-.098-.495-.189-.736-.041-.11-.084-.214-.167-.289a.33.33 0 0 0-.219-.087.31.31 0 0 0-.123.026c-.039.017-.073.043-.101.074a.25.25 0 0 0-.053.259c-.002.012-.006.02-.008.028l-.257.745v.002l-.263.76c-.125.04-.158.152-.148.237.004.027.011.054.023.079l-.128.342c-.051.16-.109.397-.031.602.043.112.138.182.247.182.023 0 .046-.003.067-.009a.26.26 0 0 0 .097-.052.27.27 0 0 0 .068-.086c.016-.033.024-.059.026-.091a.23.23 0 0 0-.013-.094c-.04-.104.01-.247.054-.373l.011-.029.116-.296.011-.027.614-.114.013.115.203 1.33c.011.054.04.103.083.137s.097.052.152.051a.28.28 0 0 0 .12-.028c.037-.018.071-.044.097-.076s.04-.065.048-.103a.24.24 0 0 0-.004-.113c-.104-.431-.154-.882-.203-1.317zm-.567-.456l-.367.064.16-.476.006-.017.082-.248.07.359.016.099.006.04.007.045.003.022.017.112zm1.473-.233l.009-.141v-.005l.014-.205v-.01l.015-.307.002-.053.001-.028c.007-.179.015-.364-.032-.536a.25.25 0 0 0-.091-.139c-.045-.035-.101-.053-.158-.051-.041-.001-.082.008-.119.026a.28.28 0 0 0-.096.075.23.23 0 0 0-.037.209.51.51 0 0 1 .014.079v.016l.003.076-.005.37-.019.328v.002l-.017.249-.006.1-.02.609v.041.006c0 .194 0 .519.247.557a.43.43 0 0 0 .062.005c.085 0 .149-.03.193-.09.069-.096.05-.236.028-.303-.005-.016-.008-.032-.01-.049l-.001-.021c0-.009-.002-.017-.002-.021l-.003-.07v-.005-.161l.026-.553zm3.349-1.34a.22.22 0 0 0-.101.024.21.21 0 0 0-.078.07l-.008-.003-.019.056-.334.859-.001.003-.136.336-.346-.514-.083-.119a1.22 1.22 0 0 1-.089-.137l-.101-.18-.035-.071-.005-.011-.009-.026a.2.2 0 0 0-.076-.109c-.037-.027-.081-.042-.127-.041-.035 0-.069.008-.101.023a.22.22 0 0 0-.08.065c-.021.027-.032.057-.036.089s-.001.064.01.095v.002c.113.26.169.345.292.532l.056.085.001.001.544.794c-.195.543-.298.984-.324 1.387-.002.027.001.054.009.08s.023.049.041.069.044.036.07.047.055.016.083.016c.104 0 .214-.07.223-.204.044-.692.338-1.399.622-2.085l.002-.006.266-.661a.22.22 0 0 0 .032-.063l.021-.072.019-.063c.011-.03.015-.061.011-.093s-.016-.061-.034-.086a.23.23 0 0 0-.179-.089zm-1.647 2.609c-.043 0-.084.011-.121.032-.187.102-.338.166-.489.21a.92.92 0 0 1-.227.035c-.005-.057.008-.135.019-.199l.001-.007.069-.411.211-2.228a.25.25 0 0 0-.013-.094c-.01-.03-.027-.057-.049-.08a.25.25 0 0 0-.181-.073c-.123 0-.251.083-.257.242-.026.703-.104 1.483-.239 2.383l-.019.113c-.047.265-.106.595.163.775a.52.52 0 0 0 .3.081 1.44 1.44 0 0 0 .314-.044c.23-.053.446-.161.645-.269.102-.056.146-.154.118-.265-.025-.1-.118-.201-.245-.201z"/></g><path d="M70.213 139.944H60.138v1.783h10.074v-1.783z" fill="#d8254f"/><g fill="#fff"><path d="M61.747 140.992c-.024-.025-.054-.044-.087-.056a1.16 1.16 0 0 0-.118-.038l-.129-.04a.64.64 0 0 1-.118-.057c-.037-.024-.066-.057-.086-.096-.024-.046-.035-.097-.034-.149a.27.27 0 0 1 .026-.122c.018-.038.043-.072.076-.099.068-.059.159-.089.274-.089a.46.46 0 0 1 .122.016c.034.008.066.021.097.037l.068.042a.38.38 0 0 1 .043.037l.013.016-.114.115c-.017-.02-.026-.028-.036-.035l-.045-.029a.36.36 0 0 0-.064-.024.33.33 0 0 0-.083-.01c-.051-.003-.101.013-.142.044a.13.13 0 0 0-.039.045c-.009.018-.014.038-.015.058-.001.032.011.064.033.088a.23.23 0 0 0 .087.056.97.97 0 0 0 .117.037l.129.04a.64.64 0 0 1 .118.057c.037.024.066.057.086.096.023.046.035.097.033.148s-.008.093-.026.136a.32.32 0 0 1-.082.112.44.44 0 0 1-.3.095.58.58 0 0 1-.149-.018.5.5 0 0 1-.116-.045.77.77 0 0 1-.079-.052.36.36 0 0 1-.049-.044l-.016-.02.114-.114c.021.025.033.036.045.046a.42.42 0 0 0 .058.04.4.4 0 0 0 .083.031.44.44 0 0 0 .109.014c.071 0 .127-.018.168-.052a.17.17 0 0 0 .046-.057c.011-.022.016-.047.016-.072.001-.016-.002-.032-.008-.047s-.014-.029-.026-.041zm1.552-.728v.163h-.343v.98h-.179v-.98h-.343v-.163h.866zm1.265.905c.029-.029.052-.063.067-.1a.32.32 0 0 0 .023-.119v-.686h.18v.686a.45.45 0 0 1-.141.335.49.49 0 0 1-.683 0 .45.45 0 0 1-.141-.335v-.686h.18v.686c-.001.041.007.081.023.119a.3.3 0 0 0 .067.1c.027.029.06.052.097.068a.29.29 0 0 0 .115.024c.039 0 .079-.008.115-.024a.31.31 0 0 0 .097-.068h0zm1.371-.905a.56.56 0 0 1 .222.042.55.55 0 0 1 .187.127.56.56 0 0 1 .17.402c0 .075-.015.15-.044.219a.56.56 0 0 1-.126.184.55.55 0 0 1-.187.127.56.56 0 0 1-.222.042h-.4v-1.143h.4zm-.221.163v.817h.221a.37.37 0 0 0 .154-.03.38.38 0 0 0 .129-.089.42.42 0 0 0 .117-.29c0-.108-.042-.211-.117-.289a.36.36 0 0 0-.129-.089.37.37 0 0 0-.154-.03h-.221zm1.454-.163h.18v1.143h-.18v-1.143zm1.006.154c.116-.114.259-.17.429-.17a.59.59 0 0 1 .43.17.6.6 0 0 1 .129.191.59.59 0 0 1 0 .452c-.03.072-.073.137-.129.191a.59.59 0 0 1-.43.171c-.171 0-.314-.057-.429-.171a.58.58 0 0 1-.129-.191c-.03-.072-.045-.148-.045-.226a.59.59 0 0 1 .045-.226.6.6 0 0 1 .129-.191zm.129.719c.07.071.162.115.261.125a.43.43 0 0 0 .442-.589.43.43 0 0 0-.48-.258.43.43 0 0 0-.249.148c-.064.077-.098.173-.098.272a.42.42 0 0 0 .03.164.43.43 0 0 0 .093.138z"/></g></g></g><defs><clipPath id="A"><path fill="#fff" d="M0 0h180v180H0z"/></clipPath><clipPath id="B"><path fill="#fff" transform="translate(118.723 135.319)" d="M0 0h22.979v6.407H0z"/></clipPath><clipPath id="C"><path fill="#fff" transform="translate(77.872 128.936)" d="M0 0h32.048v8.936H0z"/></clipPath><clipPath id="D"><path fill="#fff" transform="translate(47.234 135.319)" d="M0 0h22.979v6.407H0z"/></clipPath></defs></svg>