<svg width="180" height="53" viewBox="0 0 180 53" fill="none" xmlns="http://www.w3.org/2000/svg">
<g clip-path="url(#clip0_28034_442085)">
<path fill-rule="evenodd" clip-rule="evenodd" d="M173.331 53H6.66912C2.99349 53 0 50.013 0 46.375V6.625C0 2.97382 2.99349 0 6.66912 0H173.331C177.003 0 180 2.97382 180 6.625V46.375C180 50.013 177.003 53 173.331 53Z" fill="black"/>
<path fill-rule="evenodd" clip-rule="evenodd" d="M173.331 1.06066C176.414 1.06066 178.937 3.56197 178.937 6.625V46.375C178.937 49.438 176.43 51.9393 173.331 51.9393H6.66912C3.58622 51.9393 1.06295 49.438 1.06295 46.375V6.625C1.06295 3.56197 3.56967 1.06066 6.66912 1.06066H173.331ZM173.331 0H6.66912C2.99349 0 0 2.98703 0 6.625V46.375C0 50.0262 2.99349 53 6.66912 53H173.331C177.003 53 180 50.0262 180 46.375V6.625C180 2.98703 177.003 0 173.331 0Z" fill="#A6A6A6"/>
<path d="M94.8244 17.5322C93.6224 17.5322 92.6091 17.1126 91.8078 16.2866C91.0131 15.4836 90.5693 14.3767 90.5892 13.2467C90.5892 12.0406 90.9998 11.0196 91.8078 10.2101C92.6058 9.38399 93.6191 8.96436 94.8211 8.96436C96.0099 8.96436 97.0232 9.38399 97.8378 10.2101C98.6457 11.046 99.0563 12.067 99.0563 13.2467C99.0431 14.456 98.6325 15.477 97.8378 16.2832C97.0397 17.1159 96.0265 17.5322 94.8244 17.5322ZM59.0584 17.5322C57.8829 17.5322 56.863 17.1192 56.0285 16.3031C55.2007 15.4902 54.7802 14.4626 54.7802 13.25C54.7802 12.0373 55.2007 11.0097 56.0285 10.1968C56.8464 9.38069 57.8663 8.96766 59.0584 8.96766C59.6412 8.96766 60.2075 9.08331 60.7505 9.31791C61.2837 9.5459 61.7174 9.8565 62.0387 10.2365L62.1181 10.3323L61.2207 11.2112L61.128 11.1022C60.6214 10.5008 59.9426 10.2067 59.0452 10.2067C58.2438 10.2067 57.5451 10.4909 56.969 11.0526C56.3895 11.6177 56.0948 12.3578 56.0948 13.2533C56.0948 14.1487 56.3895 14.8889 56.969 15.4539C57.5451 16.0156 58.2438 16.2998 59.0452 16.2998C59.8995 16.2998 60.6181 16.0156 61.1777 15.4539C61.5088 15.1235 61.7141 14.6609 61.787 14.076H58.9094V12.8402H63.0221L63.0387 12.9526C63.0685 13.1607 63.0983 13.3755 63.0983 13.5738C63.0983 14.7137 62.7539 15.6356 62.0718 16.3163C61.2969 17.1225 60.2836 17.5322 59.0584 17.5322ZM106.613 17.3571H105.345L101.46 11.1551L101.494 12.2719V17.3538H100.225V9.14279H101.672L101.712 9.20557L105.364 15.0475L105.331 13.9339V9.14279H106.613V17.3571ZM85.2943 17.3571H84.0095V10.3786H81.781V9.14279H87.5196V10.3786H85.291V17.3571H85.2943ZM80.7346 17.3571H79.4531V9.14279H80.7346V17.3571ZM73.5324 17.3571H72.2509V10.3786H70.0223V9.14279H75.7609V10.3786H73.5324V17.3571ZM69.2111 17.3439H64.297V9.14279H69.2111V10.3786H65.5818V12.6321H68.8567V13.8546H65.5818V16.1081H69.2111V17.3439ZM92.7482 15.4374C93.3211 16.009 94.0165 16.2965 94.8244 16.2965C95.6556 16.2965 96.3344 16.0156 96.9007 15.4374C97.4636 14.8756 97.7484 14.1388 97.7484 13.25C97.7484 12.3611 97.4636 11.621 96.904 11.0625C96.3311 10.4909 95.6324 10.2034 94.8277 10.2034C93.9966 10.2034 93.3178 10.4843 92.7548 11.0625C92.1919 11.6243 91.9071 12.3611 91.9071 13.25C91.9071 14.1388 92.1886 14.8789 92.7482 15.4374Z" fill="white"/>
<path fill-rule="evenodd" clip-rule="evenodd" d="M90.4701 28.8261C87.3408 28.8261 84.8043 31.1952 84.8043 34.4631C84.8043 37.7013 87.3574 40.1002 90.4701 40.1002C93.5993 40.1002 96.1359 37.7145 96.1359 34.4631C96.1359 31.1952 93.5993 28.8261 90.4701 28.8261ZM90.4701 37.8665C88.7581 37.8665 87.2845 36.4523 87.2845 34.4499C87.2845 32.4178 88.7614 31.0333 90.4701 31.0333C92.1821 31.0333 93.6556 32.4178 93.6556 34.4499C93.659 36.4655 92.1821 37.8665 90.4701 37.8665ZM78.1087 28.8261C74.9794 28.8261 72.4429 31.1952 72.4429 34.4631C72.4429 37.7013 74.996 40.1002 78.1087 40.1002C81.238 40.1002 83.7745 37.7145 83.7745 34.4631C83.7745 31.1952 81.2346 28.8261 78.1087 28.8261ZM78.1087 37.8665C76.3967 37.8665 74.9231 36.4523 74.9231 34.4499C74.9231 32.4178 76.4 31.0333 78.1087 31.0333C79.8207 31.0333 81.2942 32.4178 81.2942 34.4499C81.2942 36.4655 79.8207 37.8665 78.1087 37.8665ZM63.3995 30.5476V32.9333H69.1381C68.9626 34.2715 68.5189 35.2595 67.8401 35.9368C66.999 36.7761 65.7009 37.6881 63.4128 37.6881C59.8861 37.6881 57.1278 34.8464 57.1278 31.3274C57.1278 27.8084 59.8861 24.9667 63.4128 24.9667C65.3168 24.9667 66.7043 25.7168 67.7341 26.675L69.4296 24.9833C67.999 23.6153 66.095 22.5679 63.426 22.5679C58.5881 22.5679 54.5283 26.4999 54.5283 31.3142C54.5283 36.1417 58.5848 40.0605 63.426 40.0605C66.0387 40.0605 67.999 39.208 69.5488 37.6022C71.1283 36.026 71.6283 33.8023 71.6283 32.0081C71.6283 31.4497 71.5853 30.9474 71.4959 30.5212H63.3962C63.3995 30.5179 63.3995 30.5476 63.3995 30.5476ZM123.564 32.4046C123.091 31.1391 121.66 28.8129 118.726 28.8129C115.819 28.8129 113.401 31.0961 113.401 34.4499C113.401 37.6154 115.792 40.0869 119.008 40.0869C121.59 40.0869 123.094 38.5108 123.713 37.5856L121.796 36.3036C121.16 37.2453 120.276 37.8632 119.021 37.8632C117.753 37.8632 116.865 37.2883 116.276 36.1549L123.829 33.0324C123.829 33.0357 123.564 32.4046 123.564 32.4046ZM115.862 34.288C115.802 32.1105 117.557 31.0036 118.812 31.0036C119.802 31.0036 120.627 31.4893 120.908 32.1964L115.862 34.288ZM109.726 39.7499H112.206V23.1891H109.726V39.7499ZM105.653 30.0784H105.563C105.004 29.4143 103.941 28.8129 102.583 28.8129C99.7651 28.8129 97.169 31.2878 97.169 34.4664C97.169 37.6319 99.7519 40.077 102.583 40.077C103.924 40.077 105.004 39.4724 105.563 38.795H105.653V39.6045C105.653 41.7556 104.5 42.9154 102.643 42.9154C101.123 42.9154 100.179 41.825 99.7949 40.913L97.6392 41.8118C98.2585 43.2987 99.9109 45.1391 102.639 45.1391C105.547 45.1391 108.01 43.4308 108.01 39.2642V29.1499H105.666V30.0784C105.669 30.0784 105.653 30.0784 105.653 30.0784ZM102.805 37.8665C101.093 37.8665 99.6625 36.4391 99.6625 34.4664C99.6625 32.4773 101.093 31.0366 102.805 31.0366C104.5 31.0366 105.815 32.4938 105.815 34.4664C105.832 36.4391 104.504 37.8665 102.805 37.8665ZM135.177 23.1891H129.246V39.7499H131.727V33.4785H135.18C137.926 33.4785 140.624 31.4926 140.624 28.3404C140.624 25.1881 137.935 23.1891 135.177 23.1891ZM135.25 31.1655H131.723V25.4822H135.25C137.108 25.4822 138.157 27.0121 138.157 28.3239C138.157 29.6224 137.094 31.1655 135.25 31.1655ZM150.565 28.7964C148.764 28.7964 146.906 29.5927 146.138 31.3274L148.337 32.2394C148.81 31.3274 149.678 31.0168 150.595 31.0168C151.88 31.0168 153.178 31.7834 153.208 33.1513V33.3265C152.764 33.0753 151.79 32.6921 150.625 32.6921C148.25 32.6921 145.843 33.9873 145.843 36.4159C145.843 38.6397 147.79 40.0671 149.959 40.0671C151.625 40.0671 152.542 39.3171 153.115 38.448H153.204V39.7301H155.595V33.386C155.595 30.432 153.396 28.7964 150.565 28.7964ZM150.254 37.8665C149.443 37.8665 148.307 37.47 148.307 36.4523C148.307 35.1702 149.724 34.6845 150.933 34.6845C152.025 34.6845 152.542 34.9191 153.191 35.2429C153.012 36.7298 151.754 37.8533 150.254 37.8665ZM164.317 29.1499L161.469 36.3333H161.38L158.43 29.1499H155.761L160.188 39.1915L157.665 44.7724H160.248L167.059 29.1499H164.317ZM141.992 39.7499H144.472V23.1891H141.992V39.7499Z" fill="white"/>
<path fill-rule="evenodd" clip-rule="evenodd" d="M13.8549 9.98228C13.4708 10.3953 13.2489 11.0264 13.2489 11.8525V41.1512C13.2489 41.9772 13.4708 42.6083 13.8681 43.0048L13.9708 43.0941L30.4217 26.6786V26.3118L13.9575 9.89307L13.8549 9.98228Z" fill="url(#paint0_linear_28034_442085)"/>
<path fill-rule="evenodd" clip-rule="evenodd" d="M35.8953 32.1665L30.4083 26.6914V26.3081L35.8953 20.833L36.0145 20.9057L42.5048 24.5866C44.3625 25.6308 44.3625 27.3556 42.5048 28.4129L36.0145 32.0939L35.8953 32.1665Z" fill="url(#paint1_linear_28034_442085)"/>
<path fill-rule="evenodd" clip-rule="evenodd" d="M36.0146 32.0941L30.4084 26.5L13.8548 43.0179C14.4608 43.6655 15.4774 43.7382 16.6132 43.1071L36.0146 32.0941Z" fill="url(#paint2_linear_28034_442085)"/>
<path fill-rule="evenodd" clip-rule="evenodd" d="M36.0146 20.9057L16.6132 9.90923C15.4774 9.2616 14.4575 9.35082 13.8548 9.99845L30.4084 26.4998L36.0146 20.9057Z" fill="url(#paint3_linear_28034_442085)"/>
<path opacity="0.2" fill-rule="evenodd" clip-rule="evenodd" d="M35.8953 31.9751L16.6263 42.8989C15.5501 43.5168 14.5898 43.4738 13.9706 42.9121L13.8679 43.0145L13.9706 43.1037C14.5898 43.6621 15.5501 43.7084 16.6263 43.0905L36.0278 32.094L35.8953 31.9751Z" fill="black"/>
<path opacity="0.12" fill-rule="evenodd" clip-rule="evenodd" d="M42.5049 28.2215L35.8788 31.9751L35.998 32.0941L42.4883 28.4132C43.4188 27.8845 43.8758 27.1906 43.8758 26.5C43.8195 27.1344 43.3459 27.7358 42.5049 28.2215Z" fill="black"/>
<path opacity="0.25" fill-rule="evenodd" clip-rule="evenodd" d="M16.6133 10.1013L42.5049 24.7787C43.346 25.2512 43.8196 25.8691 43.8924 26.5002C43.8924 25.8096 43.4354 25.1157 42.5049 24.5871L16.6133 9.90963C14.7556 8.84897 13.2489 9.73451 13.2489 11.8525V12.0442C13.2489 9.92285 14.7556 9.05384 16.6133 10.1013Z" fill="white"/>
</g>
<defs>
<linearGradient id="paint0_linear_28034_442085" x1="28.9461" y1="11.5364" x2="2.60209" y2="18.5709" gradientUnits="userSpaceOnUse">
<stop stop-color="#00A0FF"/>
<stop offset="0.00657" stop-color="#00A1FF"/>
<stop offset="0.2601" stop-color="#00BEFF"/>
<stop offset="0.5122" stop-color="#00D2FF"/>
<stop offset="0.7604" stop-color="#00DFFF"/>
<stop offset="1" stop-color="#00E3FF"/>
</linearGradient>
<linearGradient id="paint1_linear_28034_442085" x1="44.9274" y1="26.4998" x2="12.7971" y2="26.4998" gradientUnits="userSpaceOnUse">
<stop stop-color="#FFE000"/>
<stop offset="0.4087" stop-color="#FFBD00"/>
<stop offset="0.7754" stop-color="#FFA500"/>
<stop offset="1" stop-color="#FF9C00"/>
</linearGradient>
<linearGradient id="paint2_linear_28034_442085" x1="32.9661" y1="29.544" x2="11.8787" y2="65.1126" gradientUnits="userSpaceOnUse">
<stop stop-color="#FF3A44"/>
<stop offset="1" stop-color="#C31162"/>
</linearGradient>
<linearGradient id="paint3_linear_28034_442085" x1="9.68642" y1="0.236718" x2="19.0944" y2="16.1222" gradientUnits="userSpaceOnUse">
<stop stop-color="#32A071"/>
<stop offset="0.0685" stop-color="#2DA771"/>
<stop offset="0.4762" stop-color="#15CF74"/>
<stop offset="0.8009" stop-color="#06E775"/>
<stop offset="1" stop-color="#00F076"/>
</linearGradient>
<clipPath id="clip0_28034_442085">
<rect width="180" height="53" fill="white"/>
</clipPath>
</defs>
</svg>
