<svg width="31" height="31" fill="none" xmlns="http://www.w3.org/2000/svg"><g clip-path="url(#a)"><path d="M15.5 31C24.06 31 31 24.06 31 15.5 31 6.94 24.06 0 15.5 0 6.94 0 0 6.94 0 15.5 0 24.06 6.94 31 15.5 31Z" fill="#333"/><path d="M6.18 13.08c0 1.04.856 1.986 2.23 1.986 1.07 0 1.722-.542 2.03-1.04 0 .462.38.838.842.838h.955c.033 0 .07-.02.09-.052.012-.034.012-.073-.014-.103-.205-.119-.42-.367-.42-.899v-3.274c0-1.312-.773-2.462-2.802-2.462-1.573 0-2.59.951-2.76 2.048a.112.112 0 0 0 .09.126c.251.06.935.215 1.213.278.026.006.06 0 .089-.017a.139.139 0 0 0 .046-.073c.103-.608.555-1.074 1.335-1.074.87 0 1.243.447 1.243 1.002 0 .231-.103.42-.483.472l-1.695.258c-1.12.159-1.99.81-1.99 1.986Zm16.367-5.006c-1.96 0-3.413 1.473-3.413 3.49 0 2.028 1.45 3.502 3.413 3.502 1.973 0 3.427-1.474 3.427-3.503 0-2.016-1.45-3.49-3.427-3.49Zm-3.569 6.79c.046 0 .09-.033.096-.076a.102.102 0 0 0-.053-.109c-.006-.003-.02-.006-.026-.01a1.314 1.314 0 0 1-.774-1.196V5.16a.12.12 0 0 0-.04-.092.109.109 0 0 0-.088-.04H16.52c-.04 0-.076.013-.096.04a.125.125 0 0 0-.04.092v8.384c0 .73.592 1.322 1.322 1.322h1.272Zm-3.486 0c.04 0 .082-.033.09-.076.012-.046-.014-.089-.054-.109l-.02-.01a1.304 1.304 0 0 1-.773-1.196V7.585a.27.27 0 0 0-.09-.199.267.267 0 0 0-.197-.082h-.549a.16.16 0 0 1-.142-.086.177.177 0 0 1 .02-.162c.36-.45 1.12-1.388 1.457-1.811a.124.124 0 0 0 .013-.142.13.13 0 0 0-.115-.076h-2.109a.138.138 0 0 0-.095.04.156.156 0 0 0-.04.092v8.384c0 .73.598 1.322 1.328 1.322h1.276ZM8.71 13.84c-.625 0-.965-.406-.965-.852 0-.543.393-.813.882-.893l1.715-.258v.298c0 1.285-.753 1.705-1.632 1.705Zm13.836-.178c-.965 0-1.837-.73-1.837-2.099 0-1.368.875-2.072 1.837-2.072.978 0 1.837.704 1.837 2.072.004 1.381-.859 2.099-1.837 2.099Z" fill="#FFAF03"/><path d="M5.865 22.895v-7.326h.985v3.083h.06a2.56 2.56 0 0 1 .247-.367c.11-.139.258-.26.45-.363.191-.106.443-.156.76-.156.41 0 .773.103 1.094.311.32.208.571.506.756.892.185.39.275.856.275 1.405 0 .548-.093 1.017-.275 1.407-.181.39-.433.691-.753.9a1.925 1.925 0 0 1-1.09.313c-.308 0-.56-.053-.754-.155a1.393 1.393 0 0 1-.456-.364 2.782 2.782 0 0 1-.255-.37h-.082v.79h-.962Zm.965-2.531c0 .357.053.667.155.935a1.4 1.4 0 0 0 .45.628c.195.152.436.224.72.224.294 0 .542-.079.74-.234.199-.159.347-.37.45-.641.102-.271.152-.575.152-.912 0-.334-.05-.635-.149-.9a1.415 1.415 0 0 0-.45-.63c-.197-.156-.445-.232-.743-.232-.287 0-.528.073-.723.222a1.334 1.334 0 0 0-.447.618 2.516 2.516 0 0 0-.155.922ZM12.699 23.007c-.32 0-.612-.06-.87-.178a1.42 1.42 0 0 1-.614-.522c-.152-.228-.225-.51-.225-.843 0-.284.056-.522.165-.707a1.21 1.21 0 0 1 .447-.44c.188-.109.396-.188.627-.244.232-.056.466-.096.708-.126.304-.036.548-.062.74-.086.188-.023.327-.059.413-.112.086-.053.129-.139.129-.258v-.023c0-.287-.08-.512-.242-.67-.161-.16-.403-.238-.72-.238-.33 0-.591.072-.783.218-.192.145-.32.307-.393.485l-.925-.211c.108-.308.27-.555.482-.747.211-.192.456-.327.733-.416.278-.086.569-.13.873-.13.201 0 .416.024.644.07.228.046.44.132.641.258.199.125.364.304.49.535.128.232.191.532.191.902v3.364h-.962v-.694h-.04a1.33 1.33 0 0 1-.287.377c-.128.122-.29.225-.492.307-.212.09-.45.13-.73.13Zm.215-.79c.27 0 .505-.052.7-.161.195-.11.344-.248.446-.423.103-.175.152-.364.152-.562v-.654a.494.494 0 0 1-.201.095c-.1.03-.215.057-.34.076-.13.02-.252.04-.374.057l-.304.04a2.375 2.375 0 0 0-.522.122.88.88 0 0 0-.377.244.621.621 0 0 0-.139.423c0 .245.09.43.271.552.179.129.41.192.688.192ZM17.127 19.887v3.008h-.984v-5.066h.945v.826h.063c.115-.268.3-.483.548-.648.251-.162.565-.244.945-.244.344 0 .648.072.906.214.257.146.459.357.604.642.142.284.215.634.215 1.05v3.222h-.985v-3.103c0-.366-.096-.654-.287-.862-.192-.208-.453-.31-.79-.31-.228 0-.433.049-.608.148a1.06 1.06 0 0 0-.42.433 1.46 1.46 0 0 0-.152.69ZM21.316 22.895v-7.327h.985v7.327h-.985Zm.906-1.719-.007-1.203h.172l2.02-2.144h1.179l-2.303 2.442h-.156l-.905.905Zm2.293 1.719-1.814-2.41.68-.687 2.347 3.097h-1.213Z" fill="#fff"/></g><defs><clipPath id="a"><path fill="#fff" d="M0 0h31v31H0z"/></clipPath></defs></svg>