<svg width="26" height="26" fill="none" xmlns="http://www.w3.org/2000/svg"><path d="M15.4 2.523C15.4 1.682 14.718 1 13.877 1h-1.753c-.842 0-1.524.682-1.524 1.523 0 .693-.475 1.289-1.122 1.543a11.5 11.5 0 0 0-.304.127c-.637.276-1.394.192-1.886-.299a1.523 1.523 0 0 0-2.153 0l-1.24 1.241a1.523 1.523 0 0 0 0 2.153c.491.492.575 1.248.297 1.886a9.53 9.53 0 0 0-.126.304c-.254.647-.85 1.122-1.543 1.122-.841 0-1.523.682-1.523 1.523v1.754c0 .841.682 1.523 1.523 1.523.693 0 1.289.475 1.543 1.122.04.102.084.204.126.304.277.637.193 1.394-.298 1.886a1.523 1.523 0 0 0 0 2.153l1.241 1.24a1.523 1.523 0 0 0 2.153 0c.492-.491 1.248-.575 1.886-.298.1.044.202.086.304.127.647.254 1.122.85 1.122 1.543 0 .841.682 1.523 1.523 1.523h1.754c.841 0 1.523-.682 1.523-1.523 0-.693.475-1.289 1.122-1.544.102-.04.204-.082.304-.125.637-.278 1.394-.193 1.885.298a1.523 1.523 0 0 0 2.154 0l1.24-1.241a1.523 1.523 0 0 0 0-2.153c-.491-.492-.575-1.248-.298-1.886.044-.1.086-.202.127-.304.254-.647.85-1.122 1.543-1.122.841 0 1.523-.682 1.523-1.523v-1.753c0-.841-.682-1.523-1.523-1.523-.693 0-1.289-.475-1.544-1.122a9.254 9.254 0 0 0-.126-.303c-.276-.638-.192-1.395.299-1.887a1.523 1.523 0 0 0 0-2.153l-1.241-1.24a1.523 1.523 0 0 0-2.153 0c-.492.492-1.248.576-1.886.298a9.56 9.56 0 0 0-.304-.127c-.647-.255-1.122-.85-1.122-1.543v-.001Z" stroke="#AFAFAF" stroke-width="2"/><path d="M17.8 13a4.8 4.8 0 1 1-9.6 0 4.8 4.8 0 0 1 9.6 0Z" stroke="#AFAFAF" stroke-width="2"/></svg>