<svg xmlns="http://www.w3.org/2000/svg" xmlns:xlink="http://www.w3.org/1999/xlink" width="254" height="254" fill="none" xmlns:v="https://vecta.io/nano"><g clip-path="url(#A)"><g clip-path="url(#B)"><path d="M127.434 4.941a122.06 122.06 0 0 0-88.246 38.406A122.06 122.06 0 0 0 6.203 133.76a122.06 122.06 0 0 0 42.783 86.209c12.602 10.72 27.251 18.766 43.058 23.65s32.442 6.503 48.894 4.759a123.31 123.31 0 0 0 20.986-4.151c8.87-2.571 17.418-6.146 25.478-10.655a123.38 123.38 0 0 0 16.37-10.981c19.877-15.77 34.344-37.343 41.39-61.718s6.318-50.34-2.079-74.283-24.049-44.673-44.777-59.307S152.806 4.84 127.434 4.941z" fill="#fceff2"/><g fill="#eb92a7"><path d="M188.068 204.764c13.088 0 23.697-10.207 23.697-22.798s-10.609-22.798-23.697-22.798-23.696 10.207-23.696 22.798 10.609 22.798 23.696 22.798z"/><path d="M211.765 204.764c6.543 0 11.848-5.103 11.848-11.399s-5.305-11.399-11.848-11.399-11.848 5.104-11.848 11.399 5.304 11.399 11.848 11.399zm-47.393-.015c8.04 0 14.559-6.269 14.559-14.001s-6.519-14.001-14.559-14.001-14.559 6.268-14.559 14.001 6.519 14.001 14.559 14.001z"/><path d="M253.024 206.545H123.113s51.574-20.459 129.911 0zm-172.363-2.106c15.474 0 28.018-12.072 28.018-26.964S96.134 150.51 80.661 150.51s-28.017 12.073-28.017 26.965 12.544 26.964 28.017 26.964z"/><path d="M108.678 204.424c7.741 0 14.017-6.033 14.017-13.475s-6.276-13.474-14.017-13.474-14.016 6.033-14.016 13.474 6.275 13.475 14.016 13.475zm-56.035-.001c9.503 0 17.207-7.412 17.207-16.556s-7.704-16.556-17.207-16.556-17.207 7.412-17.207 16.556 7.704 16.556 17.207 16.556z"/><path d="M157.48 206.545H3.826s60.991-24.192 153.654 0z"/></g><path d="M176.964 72.313H77.037c-1.283 0-2.323 1.04-2.323 2.323v131.631c0 1.283 1.04 2.323 2.323 2.323h99.928c1.283 0 2.323-1.04 2.323-2.323V74.636c0-1.283-1.04-2.323-2.323-2.323z" fill="#fff"/><path d="M125.08 208.59h51.884c.615-.004 1.203-.25 1.638-.685s.681-1.023.685-1.638V74.62a2.32 2.32 0 0 0-2.323-2.323h-25.973L125.08 208.59z" fill="#f9f9f9"/><path d="M79.421 208.048c3.558 0 6.443-3.037 6.443-6.784s-2.885-6.784-6.443-6.784-6.443 3.038-6.443 6.784 2.885 6.784 6.443 6.784z" fill="#f3bdca"/><path d="M85.71 208.048c1.754 0 3.175-1.262 3.175-2.819s-1.421-2.819-3.175-2.819-3.175 1.262-3.175 2.819 1.421 2.819 3.175 2.819z" fill="#b6efda"/><g fill="#f3bdca"><path d="M72.979 208.048c2.156 0 3.903-1.554 3.903-3.47s-1.747-3.469-3.903-3.469-3.903 1.553-3.903 3.469 1.747 3.47 3.903 3.47z"/><path d="M96.783 208.497H61.951s13.8-5.065 34.832 0z"/><path d="M86.809 207.784c3.404 0 6.164-2.447 6.164-5.467s-2.76-5.467-6.164-5.467-6.164 2.448-6.164 5.467 2.76 5.467 6.164 5.467z"/><path d="M92.973 207.8c1.702 0 3.082-1.228 3.082-2.742s-1.38-2.741-3.082-2.741-3.082 1.227-3.082 2.741 1.38 2.742 3.082 2.742zm-12.313 0c2.087 0 3.779-1.505 3.779-3.361s-1.692-3.361-3.779-3.361-3.779 1.505-3.779 3.361 1.692 3.361 3.779 3.361z"/><path d="M103.35 208.373H69.587s13.397-4.894 33.763 0zm67.976 1.533c3.593 0 6.505-2.815 6.505-6.288s-2.912-6.288-6.505-6.288-6.505 2.815-6.505 6.288 2.913 6.288 6.505 6.288z"/></g><path d="M175.663 209.906c1.496 0 2.71-1.172 2.71-2.617s-1.214-2.618-2.71-2.618-2.711 1.172-2.711 2.618 1.214 2.617 2.711 2.617z" fill="#b6efda"/><g fill="#f3bdca"><path d="M164.821 209.906c1.839 0 3.33-1.442 3.33-3.221s-1.491-3.222-3.33-3.222-3.33 1.443-3.33 3.222 1.491 3.221 3.33 3.221z"/><path d="M185.095 210.309h-29.706s11.786-4.693 29.706 0z"/><path d="M180.123 209.922c2.9 0 5.251-2.268 5.251-5.065s-2.351-5.064-5.251-5.064-5.25 2.267-5.25 5.064 2.351 5.065 5.25 5.065z"/><path d="M185.373 209.906c1.446 0 2.618-1.13 2.618-2.524s-1.172-2.525-2.618-2.525-2.617 1.13-2.617 2.525 1.172 2.524 2.617 2.524zm-10.485.016c1.78 0 3.222-1.394 3.222-3.113s-1.442-3.113-3.222-3.113-3.221 1.393-3.221 3.113 1.442 3.113 3.221 3.113z"/><path d="M194.496 210.309H165.72s11.445-4.538 28.776 0zM31.223 94.987c8.023 0 14.528-5.783 14.528-12.917s-6.504-12.917-14.527-12.917-14.528 5.783-14.528 12.917S23.2 94.987 31.223 94.987z"/><path d="M45.751 94.987c4.012 0 7.264-2.892 7.264-6.459s-3.252-6.458-7.264-6.458-7.264 2.892-7.264 6.458 3.252 6.459 7.264 6.459zm-29.071-.016c4.927 0 8.921-3.55 8.921-7.93s-3.994-7.93-8.921-7.93-8.921 3.55-8.921 7.93 3.994 7.93 8.921 7.93z"/><path d="M72.266 96.83H0s28.683-14.233 72.266 0zm137.16-41.988c8.982 0 16.262-6.463 16.262-14.435s-7.28-14.435-16.262-14.435-16.262 6.463-16.262 14.435 7.281 14.435 16.262 14.435z"/><path d="M193.179 54.842c4.491 0 8.132-3.231 8.132-7.217s-3.641-7.217-8.132-7.217-8.131 3.231-8.131 7.217 3.641 7.217 8.131 7.217zm32.509.016c5.517 0 9.99-3.973 9.99-8.874s-4.473-8.875-9.99-8.875-9.989 3.973-9.989 8.875 4.472 8.874 9.989 8.874z"/><path d="M164.853 55.973H254s-35.389-12.948-89.147 0z"/></g><use xlink:href="#C" fill="#fff"/><g fill="#637381"><path d="M98.704 99.742H89.83a3.71 3.71 0 0 1-2.608-1.1 3.72 3.72 0 0 1-1.078-2.617v-8.859a3.7 3.7 0 0 1 3.686-3.702h8.859a3.72 3.72 0 0 1 2.623 1.083c.697.694 1.09 1.635 1.094 2.618v8.859c-.004.982-.395 1.923-1.087 2.618s-1.632 1.091-2.614 1.099zm-7.914-4.646h6.985V88.11H90.79v6.985zm74.744-1.178h-58.157c-.616 0-1.207-.245-1.643-.68a2.32 2.32 0 0 1 0-3.285c.436-.436 1.027-.681 1.643-.681h58.157a2.32 2.32 0 1 1 0 4.646z"/></g><path d="M98.704 115.09H89.86c-.77 0-1.394.624-1.394 1.394v8.843c0 .77.624 1.394 1.394 1.394h8.843c.77 0 1.394-.624 1.394-1.394v-8.843c0-.77-.624-1.394-1.394-1.394z" fill="#fff"/><g fill="#637381"><path d="M98.704 129.044H89.83a3.7 3.7 0 0 1-3.702-3.701v-8.859c0-.983.389-1.927 1.083-2.623a3.72 3.72 0 0 1 2.618-1.094h8.859a3.73 3.73 0 0 1 3.718 3.717v8.859a3.72 3.72 0 0 1-1.089 2.613c-.693.693-1.632 1.084-2.613 1.088zm-7.914-4.646h6.985v-6.985H90.79v6.985zm48.027-1.162h-31.44c-.616 0-1.207-.244-1.643-.68s-.68-1.027-.68-1.643a2.32 2.32 0 0 1 .68-1.642c.436-.436 1.027-.681 1.643-.681h31.44c.616 0 1.207.245 1.643.681a2.32 2.32 0 0 1 .68 1.642c0 .616-.244 1.207-.68 1.643s-1.027.68-1.643.68z"/></g><path d="M98.704 144.408H89.86c-.77 0-1.394.624-1.394 1.394v8.844c0 .769.624 1.394 1.394 1.394h8.843c.77 0 1.394-.625 1.394-1.394v-8.844c0-.77-.624-1.394-1.394-1.394z" fill="#fff"/><g fill="#637381"><path d="M98.704 158.363H89.83a3.72 3.72 0 0 1-3.702-3.717v-8.859c0-.982.39-1.923 1.084-2.618a3.7 3.7 0 0 1 2.617-1.084h8.859a3.72 3.72 0 0 1 3.718 3.702v8.859a3.73 3.73 0 0 1-3.702 3.717zm-7.914-4.646h6.985v-6.985H90.79v6.985zm60.433-1.178h-43.846c-.616 0-1.207-.244-1.643-.68s-.68-1.027-.68-1.643a2.32 2.32 0 0 1 .68-1.642c.436-.436 1.027-.681 1.643-.681h43.846c.616 0 1.207.245 1.643.681a2.32 2.32 0 0 1 .68 1.642c0 .616-.245 1.207-.68 1.643a2.32 2.32 0 0 1-1.643.68z"/></g><path d="M98.704 173.727H89.86c-.77 0-1.394.624-1.394 1.394v8.843c0 .77.624 1.394 1.394 1.394h8.843c.77 0 1.394-.624 1.394-1.394v-8.843c0-.77-.624-1.394-1.394-1.394z" fill="#fff"/><g fill="#637381"><path d="M98.704 187.666H89.83a3.7 3.7 0 0 1-2.617-1.084c-.694-.695-1.084-1.636-1.084-2.618v-8.859a3.7 3.7 0 0 1 3.702-3.701h8.859c.983 0 1.926.389 2.623 1.083s1.091 1.635 1.095 2.618v8.859c-.004.981-.396 1.92-1.089 2.613a3.72 3.72 0 0 1-2.613 1.089zm-7.914-4.647h6.985v-6.969H90.79v6.969zm74.744-1.161h-58.157c-.616 0-1.207-.245-1.643-.681a2.32 2.32 0 0 1 0-3.285c.436-.436 1.027-.681 1.643-.681h58.157a2.32 2.32 0 1 1 0 4.647z"/></g><path d="M207.877 111.203l-.867-1.007c-8.1-8.797-22.767-5.746-27.398 5.281l-.325.775-.326-.775c-4.646-11.027-19.313-14.078-27.413-5.281-.294.325-.573.666-.852 1.007a17.95 17.95 0 0 0 1.224 23.231l24.223 26.33 3.097 3.407 3.098-3.407 24.238-26.33c2.938-3.088 4.681-7.121 4.92-11.377a17.97 17.97 0 0 0-3.619-11.854z" fill="#db284e"/><path d="M174.377 158.518l3.098-3.423 24.223-26.329c2.554-2.733 4.199-6.189 4.709-9.894a18.1 18.1 0 0 0-1.859-10.798c.881.621 1.696 1.332 2.431 2.122.31.325.589.666.867 1.007 2.585 3.388 3.881 7.585 3.657 11.84a17.97 17.97 0 0 1-4.88 11.391l-24.239 26.329-3.097 3.408-3.098-3.408-1.889-2.09.077-.155z" fill="#c22046"/><g fill="#db284e"><path d="M235.089 100.469v-.433a5.49 5.49 0 0 0-.99-2.518 5.5 5.5 0 0 0-7.311-1.494l-.248.139v-.279c.234-.886.243-1.816.025-2.706a5.49 5.49 0 0 0-3.524-3.886 5.5 5.5 0 0 0-2.696-.238l-.418.108a5.88 5.88 0 0 0-4.275 6.334l1.162 11.755.139 1.549 1.549-.279 11.616-2.122c1.4-.233 2.671-.959 3.583-2.046a5.95 5.95 0 0 0 1.388-3.886zm-28.187-13.737v-.17c-.168-.361-.423-.674-.743-.911s-.694-.39-1.088-.446-.796-.011-1.169.128-.704.37-.965.671l-.078.093v-.124a2.38 2.38 0 0 0-.354-1.117 2.39 2.39 0 0 0-1.973-1.128c-.396-.009-.789.081-1.142.262l-.155.093a2.57 2.57 0 0 0-1.04 1.428c-.168.584-.123 1.208.126 1.762l2.076 4.646.263.62.573-.325 4.43-2.385a2.57 2.57 0 0 0 1.19-1.32c.227-.568.244-1.198.049-1.777zM47.18 104.703l4.104-2.179a2.69 2.69 0 0 1 2.053-.196c.683.21 1.256.681 1.591 1.312l27.283 51.378-8.877 4.714-27.283-51.377c-.335-.632-.406-1.37-.197-2.053s.682-1.256 1.313-1.591l.014-.008z"/></g><path d="M83.262 167.686l-9.912-7.976 8.859-4.708 1.053 12.684z" fill="#ffb769"/><path d="M79.127 164.357l3.702-1.967.434 5.296-4.135-3.329z" fill="#727272"/><g opacity=".2"><path opacity=".2" d="M83.526 167.532l-1.053-12.654-27.29-51.404a2.71 2.71 0 0 0-3.64-1.115l-1.812.96 33.794 64.213z" fill="#727272"/></g></g></g><defs><clipPath id="A"><path fill="#fff" d="M0 0h254v254H0z"/></clipPath><clipPath id="B"><path fill="#fff" d="M0 0h254v254H0z"/></clipPath><path id="C" d="M98.704 85.787H89.86c-.77 0-1.394.624-1.394 1.394v8.843c0 .77.624 1.394 1.394 1.394h8.843c.77 0 1.394-.624 1.394-1.394v-8.843c0-.77-.624-1.394-1.394-1.394z"/></defs></svg>