<svg xmlns="http://www.w3.org/2000/svg" width="24" height="24" fill="none" xmlns:v="https://vecta.io/nano"><circle cx="12" cy="12" r="11.25" stroke="#000" stroke-width="1.5"/><g clip-path="url(#A)" fill="#49a09d"><path d="M11.911 11.77a2.93 2.93 0 0 0 2.141-.887 2.93 2.93 0 0 0 .887-2.141 2.93 2.93 0 0 0-.887-2.141 2.93 2.93 0 0 0-2.141-.887 2.93 2.93 0 0 0-2.141.887 2.93 2.93 0 0 0-.887 2.141 2.93 2.93 0 0 0 .887 2.141 2.93 2.93 0 0 0 2.141.887zm5.298 3.611a7.36 7.36 0 0 0-.102-.794c-.051-.282-.117-.553-.195-.799a3.94 3.94 0 0 0-.328-.745c-.142-.249-.308-.467-.495-.645a2.18 2.18 0 0 0-.711-.447 2.46 2.46 0 0 0-.908-.164c-.128 0-.252.053-.492.209l-.513.33a2.95 2.95 0 0 1-.663.292c-.269.087-.542.131-.811.131s-.542-.044-.811-.131a2.95 2.95 0 0 1-.663-.292l-.513-.331c-.239-.156-.364-.209-.492-.209a2.46 2.46 0 0 0-.908.164 2.18 2.18 0 0 0-.711.447 2.81 2.81 0 0 0-.495.645 3.95 3.95 0 0 0-.328.745 6.19 6.19 0 0 0-.195.799 7.44 7.44 0 0 0-.102.795l-.025.742c0 .656.209 1.187.62 1.579.406.387.944.583 1.598.583h6.053c.654 0 1.191-.196 1.598-.583s.62-.923.62-1.579l-.025-.743z"/></g><defs><clipPath id="A"><path fill="#fff" transform="translate(5.715 5.714)" d="M0 0h12.571v12.571H0z"/></clipPath></defs></svg>