<svg width="91" height="26" fill="none" xmlns="http://www.w3.org/2000/svg"><rect x="1" y=".5" width="89" height="25" rx="12.5" fill="#CBE0D9"/><g clip-path="url(#a)" fill="#377C8F"><path d="m16.332 10.589-2.236 7.082 5.404-7.082h-3.168ZM9.242 8.084l-1.717 2.06h2.92l-1.203-2.06ZM17.759 8.084l-1.202 2.06h2.918l-1.716-2.06ZM10.668 10.59H7.5l5.405 7.081-2.237-7.082ZM14.037 7.92l2.085 2.086 1.216-2.085h-3.301ZM9.662 7.92l1.216 2.086 2.086-2.085H9.662ZM11.134 10.59l2.366 7.49 2.365-7.49h-4.73ZM13.5 8.013l-2.133 2.132h4.264l-2.132-2.132Z"/></g><path d="M30.464 15.404h-3.336L26.576 17h-1.764l3.012-8.388h1.956L32.792 17h-1.776l-.552-1.596Zm-.456-1.344-1.212-3.504-1.212 3.504h2.424Zm5.59-5.94V17h-1.68V8.12h1.68Zm3.34 0V17h-1.68V8.12h1.68Zm4.611 8.988c-.64 0-1.215-.14-1.727-.42a3.15 3.15 0 0 1-1.213-1.212c-.288-.52-.431-1.12-.431-1.8 0-.68.148-1.28.444-1.8.303-.52.715-.92 1.236-1.2a3.53 3.53 0 0 1 1.74-.432c.64 0 1.22.144 1.74.432.52.28.928.68 1.224 1.2.303.52.456 1.12.456 1.8 0 .68-.157 1.28-.468 1.8-.304.52-.72.924-1.248 1.212-.52.28-1.105.42-1.752.42Zm0-1.464c.304 0 .589-.072.852-.216.272-.152.488-.376.648-.672.16-.296.24-.656.24-1.08 0-.632-.168-1.116-.504-1.452a1.609 1.609 0 0 0-1.211-.516c-.48 0-.884.172-1.212.516-.32.336-.48.82-.48 1.452s.156 1.12.468 1.464c.32.336.72.504 1.2.504Zm13.668-4.428c0 .448-.108.868-.324 1.26-.208.392-.54.708-.996.948-.448.24-1.016.36-1.704.36H52.79V17h-1.68V8.624h3.084c.648 0 1.2.112 1.656.336.456.224.796.532 1.02.924.232.392.348.836.348 1.332Zm-3.096 1.212c.464 0 .808-.104 1.032-.312.224-.216.336-.516.336-.9 0-.816-.456-1.224-1.368-1.224H52.79v2.436h1.332Zm3.857 1.224c0-.672.132-1.268.396-1.788.272-.52.636-.92 1.092-1.2.464-.28.98-.42 1.548-.42.496 0 .928.1 1.296.3.376.2.676.452.9.756v-.948h1.692V17H63.21v-.972a2.539 2.539 0 0 1-.9.78c-.376.2-.812.3-1.308.3-.56 0-1.072-.144-1.536-.432a3.091 3.091 0 0 1-1.092-1.212c-.264-.528-.396-1.132-.396-1.812Zm5.232.024c0-.408-.08-.756-.24-1.044a1.642 1.642 0 0 0-.648-.672 1.699 1.699 0 0 0-.876-.24c-.312 0-.6.076-.864.228-.264.152-.48.376-.648.672-.16.288-.24.632-.24 1.032s.08.752.24 1.056c.168.296.384.524.648.684.272.16.56.24.864.24.312 0 .604-.076.876-.228.272-.16.488-.384.648-.672.16-.296.24-.648.24-1.056Zm9.693-3.324-4.116 9.792h-1.788l1.44-3.312-2.664-6.48h1.884l1.716 4.644 1.74-4.644h1.788Zm4.005-.312h2.124l2.616 2.688-2.616 2.688h-2.124l2.628-2.688-2.628-2.688Z" fill="#3F3F3F"/><rect x="1" y=".5" width="89" height="25" rx="12.5" stroke="#A0B8B0"/><defs><clipPath id="a"><path fill="#fff" transform="translate(7.5 7)" d="M0 0h12v12H0z"/></clipPath></defs></svg>