<svg xmlns="http://www.w3.org/2000/svg" width="12" height="12" fill="#db284e" xmlns:v="https://vecta.io/nano"><path d="M7.57 2.336l.268 1.006 1.006.268-1.006.268-.268 1.006-.268-1.006-1.006-.268 1.006-.268.268-1.006z"/><path fill-rule="evenodd" d="M5.868 12h-.033A5.67 5.67 0 0 1 .168 6.334 5.67 5.67 0 0 1 5.835.667a5.67 5.67 0 0 1 5.667 5.667 5.65 5.65 0 0 1-1.617 3.964l.022.045A5.65 5.65 0 0 1 5.901 12c-.011 0-.022 0-.033 0zM2.29 9.552a4.51 4.51 0 0 1 .646-.686c-.662-.026-1.161-.104-.944-.293.527-.457.556-2.05.527-2.811h.001l-.001-.088a3.34 3.34 0 0 1 3.339-3.338 3.33 3.33 0 0 1 1.282.255l-.123.464-.809.215a.35.35 0 0 0-.261.34.35.35 0 0 0 .261.34l.809.215.215.809a.35.35 0 0 0 .34.261.35.35 0 0 0 .34-.261l.215-.809L8.746 4c.286.492.45 1.064.45 1.675l-.001.088h.001c-.029.761 0 2.355.527 2.811.217.188-.282.266-.944.293a4.51 4.51 0 0 1 .625.659 4.77 4.77 0 0 0 1.219-3.192 4.79 4.79 0 0 0-4.788-4.788 4.79 4.79 0 0 0-4.788 4.788A4.77 4.77 0 0 0 2.29 9.552zm3.567-1.154c1.504 0 2.724-1.219 2.724-2.724l-.003-.134c-.439.253-.948.398-1.49.398-1.078 0-2.023-.571-2.548-1.427a3 3 0 0 1-1.405 1.201c.02 1.487 1.232 2.686 2.723 2.686z"/></svg>