<svg xmlns="http://www.w3.org/2000/svg" width="24" height="24" fill="none"><path fill="#49A09D" d="M7.498 12a1.57 1.57 0 0 1-.93-.31 1.811 1.811 0 0 1-.616-.825 2.004 2.004 0 0 1-.096-1.061c.065-.356.224-.684.459-.94.234-.258.532-.433.857-.504.325-.07.661-.034.967.105.306.14.568.375.752.677.184.302.282.657.282 1.02 0 .487-.177.954-.491 1.299-.314.344-.74.538-1.184.538Zm0-2.786a.811.811 0 0 0-.48.16.935.935 0 0 0-.318.425 1.035 1.035 0 0 0-.05.549.98.98 0 0 0 .237.486.845.845 0 0 0 .443.26.795.795 0 0 0 .5-.055.888.888 0 0 0 .388-.35c.095-.156.145-.34.145-.527a.998.998 0 0 0-.253-.67.828.828 0 0 0-.611-.278Z"/><path stroke="#49A09D" d="M7.498 12a1.57 1.57 0 0 1-.93-.31 1.811 1.811 0 0 1-.616-.825 2.004 2.004 0 0 1-.096-1.061c.065-.356.224-.684.459-.94.234-.258.532-.433.857-.504.325-.07.661-.034.967.105.306.14.568.375.752.677.184.302.282.657.282 1.02 0 .487-.177.954-.491 1.299-.314.344-.74.538-1.184.538Zm0-2.786a.811.811 0 0 0-.48.16.935.935 0 0 0-.318.425 1.035 1.035 0 0 0-.05.549.98.98 0 0 0 .237.486.845.845 0 0 0 .443.26.795.795 0 0 0 .5-.055.888.888 0 0 0 .388-.35c.095-.156.145-.34.145-.527a.998.998 0 0 0-.253-.67.828.828 0 0 0-.611-.278Z"/><path fill="#49A09D" d="M11.535 16.43a1.57 1.57 0 0 1-.93-.31 1.811 1.811 0 0 1-.616-.825 2.003 2.003 0 0 1-.095-1.06c.064-.357.223-.684.458-.941.234-.257.532-.432.857-.503.325-.07.661-.034.967.105.306.139.567.374.751.676.184.302.282.657.283 1.02 0 .488-.177.955-.491 1.299s-.74.538-1.184.539Zm0-2.786a.811.811 0 0 0-.48.16.935.935 0 0 0-.319.426 1.034 1.034 0 0 0-.049.548.98.98 0 0 0 .237.486c.12.132.275.223.443.259a.794.794 0 0 0 .5-.054.888.888 0 0 0 .387-.35c.095-.155.146-.339.146-.527a.998.998 0 0 0-.254-.67.828.828 0 0 0-.61-.278Z"/><path stroke="#49A09D" d="M11.535 16.43a1.57 1.57 0 0 1-.93-.31 1.811 1.811 0 0 1-.616-.825 2.003 2.003 0 0 1-.095-1.06c.064-.357.223-.684.458-.941.234-.257.532-.432.857-.503.325-.07.661-.034.967.105.306.139.567.374.751.676.184.302.282.657.283 1.02 0 .488-.177.955-.491 1.299s-.74.538-1.184.539Zm0-2.786a.811.811 0 0 0-.48.16.935.935 0 0 0-.319.426 1.034 1.034 0 0 0-.049.548.98.98 0 0 0 .237.486c.12.132.275.223.443.259a.794.794 0 0 0 .5-.054.888.888 0 0 0 .387-.35c.095-.155.146-.339.146-.527a.998.998 0 0 0-.254-.67.828.828 0 0 0-.61-.278Z"/><path fill="#49A09D" d="M6.978 15.655a.38.38 0 0 1-.225-.075.437.437 0 0 1-.148-.2.485.485 0 0 1 .088-.483l4.973-5.457a.405.405 0 0 1 .132-.097.374.374 0 0 1 .44.097c.039.041.068.09.089.144a.48.48 0 0 1-.088.484l-4.974 5.457a.402.402 0 0 1-.132.097.372.372 0 0 1-.155.034Z"/><path stroke="#49A09D" d="M6.978 15.655a.38.38 0 0 1-.225-.075.437.437 0 0 1-.148-.2.485.485 0 0 1 .088-.483l4.973-5.457a.405.405 0 0 1 .132-.097.374.374 0 0 1 .44.097c.039.041.068.09.089.144a.48.48 0 0 1-.088.484l-4.974 5.457a.402.402 0 0 1-.132.097.372.372 0 0 1-.155.034Z"/><path fill="#000" d="M22.72 19.744H1.37a.373.373 0 0 1-.155-.034.405.405 0 0 1-.132-.096.482.482 0 0 1-.119-.314v-3.628a.482.482 0 0 1 .12-.314.406.406 0 0 1 .13-.097.374.374 0 0 1 .156-.033c1.437 0 2.607-1.279 2.607-2.85-.001-.76-.276-1.486-.765-2.023a2.499 2.499 0 0 0-1.842-.838.374.374 0 0 1-.155-.034.404.404 0 0 1-.132-.096.482.482 0 0 1-.119-.314V5.454a.482.482 0 0 1 .12-.314.404.404 0 0 1 .13-.096.374.374 0 0 1 .156-.034h21.35c.054 0 .107.011.156.034.049.022.093.055.131.096a.479.479 0 0 1 .118.314v3.619a.479.479 0 0 1-.118.314.403.403 0 0 1-.131.096.373.373 0 0 1-.155.034c-.692 0-1.354.302-1.843.838a3.01 3.01 0 0 0-.764 2.022c0 1.572 1.17 2.85 2.607 2.85.053 0 .106.012.155.034.049.023.093.055.131.097a.479.479 0 0 1 .118.314V19.3a.479.479 0 0 1-.118.314.404.404 0 0 1-.131.096.373.373 0 0 1-.155.034Zm-20.946-.888h20.542V16.09c-1.694-.22-3.012-1.8-3.012-3.713 0-1.917 1.318-3.502 3.012-3.723V5.898H1.774v2.756c1.694.22 3.012 1.806 3.012 3.724 0 1.912-1.318 3.493-3.012 3.713v2.765Z"/><path stroke="#0F0F0F" d="M22.72 19.744H1.37a.373.373 0 0 1-.155-.034.405.405 0 0 1-.132-.096.482.482 0 0 1-.119-.314v-3.628a.482.482 0 0 1 .12-.314.406.406 0 0 1 .13-.097.374.374 0 0 1 .156-.033c1.437 0 2.607-1.279 2.607-2.85-.001-.76-.276-1.486-.765-2.023a2.499 2.499 0 0 0-1.842-.838.374.374 0 0 1-.155-.034.404.404 0 0 1-.132-.096.482.482 0 0 1-.119-.314V5.454a.482.482 0 0 1 .12-.314.404.404 0 0 1 .13-.096.374.374 0 0 1 .156-.034h21.35c.054 0 .107.011.156.034.049.022.093.055.131.096a.479.479 0 0 1 .118.314v3.619a.479.479 0 0 1-.118.314.403.403 0 0 1-.131.096.373.373 0 0 1-.155.034c-.692 0-1.354.302-1.843.838a3.01 3.01 0 0 0-.764 2.022c0 1.572 1.17 2.85 2.607 2.85.053 0 .106.012.155.034.049.023.093.055.131.097a.479.479 0 0 1 .118.314V19.3a.479.479 0 0 1-.118.314.404.404 0 0 1-.131.096.373.373 0 0 1-.155.034Zm-20.946-.888h20.542V16.09c-1.694-.22-3.012-1.8-3.012-3.713 0-1.917 1.318-3.502 3.012-3.723V5.898H1.774v2.756c1.694.22 3.012 1.806 3.012 3.724 0 1.912-1.318 3.493-3.012 3.713v2.765Z"/><path fill="#000" d="M16.405 8.838a.374.374 0 0 1-.155-.033.405.405 0 0 1-.131-.097.481.481 0 0 1-.119-.314v-1.94a.483.483 0 0 1 .115-.32.406.406 0 0 1 .133-.1.374.374 0 0 1 .314 0 .45.45 0 0 1 .22.247c.02.055.029.114.028.173v1.94a.483.483 0 0 1-.119.314.404.404 0 0 1-.131.097.373.373 0 0 1-.155.033Z"/><path stroke="#0F0F0F" d="M16.405 8.838a.374.374 0 0 1-.155-.033.405.405 0 0 1-.131-.097.481.481 0 0 1-.119-.314v-1.94a.483.483 0 0 1 .115-.32.406.406 0 0 1 .133-.1.374.374 0 0 1 .314 0 .45.45 0 0 1 .22.247c.02.055.029.114.028.173v1.94a.483.483 0 0 1-.119.314.404.404 0 0 1-.131.097.373.373 0 0 1-.155.033Z"/><path fill="#000" d="M16.405 13.821a.373.373 0 0 1-.155-.033.406.406 0 0 1-.131-.097.48.48 0 0 1-.119-.314v-1.94a.483.483 0 0 1 .115-.32.407.407 0 0 1 .133-.099.373.373 0 0 1 .314 0 .45.45 0 0 1 .22.246c.02.056.029.115.028.174v1.94a.483.483 0 0 1-.119.313.405.405 0 0 1-.131.097.372.372 0 0 1-.155.033Z"/><path stroke="#0F0F0F" d="M16.405 13.821a.373.373 0 0 1-.155-.033.406.406 0 0 1-.131-.097.48.48 0 0 1-.119-.314v-1.94a.483.483 0 0 1 .115-.32.407.407 0 0 1 .133-.099.373.373 0 0 1 .314 0 .45.45 0 0 1 .22.246c.02.056.029.115.028.174v1.94a.483.483 0 0 1-.119.313.405.405 0 0 1-.131.097.372.372 0 0 1-.155.033Z"/><path fill="#000" d="M16.405 18.805a.375.375 0 0 1-.155-.034.406.406 0 0 1-.131-.096.48.48 0 0 1-.119-.314v-1.94a.483.483 0 0 1 .115-.32.407.407 0 0 1 .133-.1.373.373 0 0 1 .314 0 .45.45 0 0 1 .22.247c.02.055.029.114.028.173v1.94a.483.483 0 0 1-.119.314.405.405 0 0 1-.131.096.374.374 0 0 1-.155.034Z"/><path stroke="#0F0F0F" d="M16.405 18.805a.375.375 0 0 1-.155-.034.406.406 0 0 1-.131-.096.48.48 0 0 1-.119-.314v-1.94a.483.483 0 0 1 .115-.32.407.407 0 0 1 .133-.1.373.373 0 0 1 .314 0 .45.45 0 0 1 .22.247c.02.055.029.114.028.173v1.94a.483.483 0 0 1-.119.314.405.405 0 0 1-.131.096.374.374 0 0 1-.155.034Z"/></svg>