<svg width="26" height="26" fill="none" xmlns="http://www.w3.org/2000/svg"><path fill-rule="evenodd" clip-rule="evenodd" d="m25.586 23.491-6.396-6.397c1.433-1.875 2.205-4.08 2.205-6.396 0-2.757-1.102-5.515-3.198-7.61C16.212.993 13.455 0 10.697 0 7.942 0 5.184.993 3.089 3.088.993 5.183 0 7.941 0 10.698c0 2.757.993 5.514 3.088 7.5 2.095 2.095 4.853 3.197 7.61 3.197 2.205 0 4.521-.771 6.396-2.205l6.397 6.396c.551.552 1.544.552 2.095 0 .552-.551.552-1.544 0-2.095ZM5.183 5.184c1.544-1.544 3.53-2.316 5.514-2.316 1.986 0 3.97.772 5.515 2.316 1.434 1.544 2.206 3.529 2.206 5.514 0 1.985-.772 3.97-2.206 5.514-1.544 1.434-3.53 2.206-5.514 2.206-1.986 0-3.97-.772-5.515-2.206-1.544-1.544-2.316-3.529-2.316-5.514 0-1.985.772-3.97 2.316-5.514Z" fill="#fff"/></svg>