<svg width="16" height="16" fill="none" xmlns="http://www.w3.org/2000/svg"><circle cx="8" cy="8" r="8" fill="#DA264D"/><path d="M12.184 7.166c.042-.22-.126-.484-.335-.484l-2.387-.351-1.088-2.284a.335.335 0 0 0-.168-.176c-.21-.131-.46-.043-.586.176L6.573 6.331l-2.387.351c-.125 0-.209.044-.25.132a.439.439 0 0 0 0 .615l1.716 1.757-.419 2.503c0 .088 0 .176.042.264.126.22.377.307.586.176l2.136-1.186 2.135 1.186c.042.043.126.043.21.043h.083a.455.455 0 0 0 .335-.527l-.418-2.503 1.716-1.757a.243.243 0 0 0 .126-.22Z" fill="#fff"/></svg>