<svg width="19" height="19" viewBox="0 0 19 19" fill="none" xmlns="http://www.w3.org/2000/svg">
<path d="M9.09422 16.0744C9.22188 16.1973 9.36778 16.25 9.51368 16.25C9.65957 16.25 9.80547 16.1973 9.91489 16.0919L15.769 10.4545C17.4103 8.87397 17.4103 6.29236 15.769 4.71178C14.9666 3.93905 13.9088 3.51756 12.7781 3.51756C11.6474 3.51756 10.5897 3.93905 9.78723 4.71178L9.49544 4.99277L9.18541 4.69421C8.40122 3.93905 7.34346 3.5 6.21277 3.5C5.08207 3.5 4.02432 3.92149 3.24012 4.69421C2.43769 5.46694 2 6.48554 2 7.55682C2 8.64566 2.43769 9.66426 3.24012 10.4194L9.09422 16.0744ZM4.04255 5.46694C4.6079 4.90496 5.3921 4.60641 6.21277 4.60641C7.03343 4.60641 7.81763 4.92252 8.40122 5.4845L9.11246 6.16942C9.22188 6.27479 9.36778 6.32748 9.51368 6.32748C9.65957 6.32748 9.80547 6.27479 9.91489 6.16942L10.6079 5.50207C11.1915 4.94008 11.9574 4.62397 12.7964 4.62397C13.617 4.62397 14.383 4.94008 14.9666 5.4845C16.1702 6.64359 16.1702 8.52273 14.9666 9.68182L9.49544 14.9329L4.02432 9.66426C3.44073 9.10227 3.11246 8.36467 3.11246 7.55682C3.1307 6.76653 3.45897 6.02893 4.04255 5.46694Z" fill="#919EAB"/>
</svg>
