<svg width="88" height="88" fill="none" xmlns="http://www.w3.org/2000/svg"><g opacity=".2" clip-path="url(#a)"><g opacity=".8"><path opacity=".8" d="M0 88v-8.012c21.375 0 41.436-8.332 56.562-23.426C71.656 41.436 79.988 21.375 79.988 0H88c0 23.49-9.165 45.602-25.766 62.234C45.602 78.834 23.522 88 0 88Z" fill="#EB92A7"/><path opacity=".8" d="M0 70.246v-8.011C34.32 62.234 62.265 34.322 62.265 0h8.011c0 18.78-7.306 36.405-20.574 49.672C36.404 62.94 18.778 70.246 0 70.246Z" fill="#EB92A7"/><path opacity=".8" d="M0 52.62V44.61c24.58 0 44.61-19.997 44.61-44.609h8.011c0 29.002-23.618 52.62-52.62 52.62Z" fill="#EB92A7"/></g></g><defs><clipPath id="a"><path fill="#fff" transform="rotate(90 44 44)" d="M0 0h88v88H0z"/></clipPath></defs></svg>