<svg width="16" height="16" viewBox="0 0 16 16" fill="none" xmlns="http://www.w3.org/2000/svg">
<g clip-path="url(#clip0_23100_420961)">
<path d="M8.66732 7.66667H7.33398V6.33333H8.66732V7.66667ZM8.66732 13H7.33398V9H8.66732V13ZM8.00065 3C7.12517 3 6.25827 3.17244 5.44943 3.50747C4.64059 3.8425 3.90566 4.33356 3.28661 4.95262C2.03636 6.20286 1.33398 7.89856 1.33398 9.66667C1.33398 11.4348 2.03636 13.1305 3.28661 14.3807C3.90566 14.9998 4.64059 15.4908 5.44943 15.8259C6.25827 16.1609 7.12517 16.3333 8.00065 16.3333C9.76876 16.3333 11.4645 15.631 12.7147 14.3807C13.9649 13.1305 14.6673 11.4348 14.6673 9.66667C14.6673 8.79119 14.4949 7.92428 14.1598 7.11544C13.8248 6.30661 13.3338 5.57168 12.7147 4.95262C12.0956 4.33356 11.3607 3.8425 10.5519 3.50747C9.74304 3.17244 8.87613 3 8.00065 3Z" fill="#17AA83"/>
</g>
<defs>
<clipPath id="clip0_23100_420961">
<rect width="16" height="16" fill="white"/>
</clipPath>
</defs>
</svg>
