<svg width="60" height="60" fill="none" xmlns="http://www.w3.org/2000/svg"><rect width="60" height="60" rx="4" fill="#FECDA2"/><path d="M32.713 8.198c-.305-.026-.613.178-.654.504-.386 3.127-.13 5.424.425 7.282.496 1.664 1.227 2.957 1.89 4.132l.004.007.216.384c.722 1.288 1.32 2.465 1.514 3.97.175 1.362.021 3.039-.76 5.338-1.452-1.557-2.833-2.645-4.162-3.45-1.238-.751-2.42-1.25-3.546-1.655.15-2.801-1.185-5.107-2.359-7.055l-.148-.245c-.56-.928-1.063-1.761-1.39-2.565-.346-.856-.467-1.616-.267-2.35l.007-.025c.092-.326-.128-.626-.436-.694-.3-.065-.63.1-.718.411a3.826 3.826 0 0 0-.141.877c-.033.753.151 1.487.44 2.199.362.89.909 1.796 1.456 2.701l.158.263c1.126 1.869 2.22 3.805 2.215 6.078l-.417-.136-.003-.002a188.1 188.1 0 0 1-.354-.115c-1.69-.556-3.23-1.106-4.754-2.27-1.524-1.163-3.073-2.97-4.69-6.09-.15-.288-.506-.382-.786-.257-.288.128-.444.466-.288.768 1.67 3.218 3.313 5.172 5.008 6.466 1.695 1.293 3.402 1.894 5.107 2.454.113.037.226.075.34.111l.007.003c1.594.521 3.193 1.045 4.907 2.085 1.833 1.111 3.824 2.831 6.028 5.809.19.257.555.306.816.143a.552.552 0 0 0 .165-.802c-.44-.593-.872-1.14-1.298-1.645 1.022-2.749 1.269-4.79 1.05-6.5-.185-1.436-.695-2.598-1.281-3.7a.528.528 0 0 0 .004-.073c-.006-1.216.529-2.06 1.203-2.639a4.705 4.705 0 0 1 2.066-1.008c.303-.057.544-.341.475-.67-.067-.326-.395-.498-.697-.441a5.937 5.937 0 0 0-2.642 1.283 4.538 4.538 0 0 0-1.331 1.891c-.55-.99-1.077-2.03-1.458-3.306-.507-1.7-.758-3.844-.388-6.842.042-.336-.223-.598-.533-.624Z" fill="#2F75B5" fill-opacity=".5"/><circle cx="17" cy="47" r="6" fill="#3F7DB6"/><circle cx="30" cy="47" r="6" fill="#4A9EBB"/><circle cx="43" cy="47" r="6" fill="#729A8F"/></svg>