<svg width="183" height="166" viewBox="0 0 183 166" fill="none" xmlns="http://www.w3.org/2000/svg">
<path d="M136.144 155.543C147.819 146.274 156.351 133.63 160.577 119.335C164.803 105.04 164.518 89.79 159.76 75.6632C155.002 61.5365 146.002 49.2209 133.989 40.3956C121.976 31.5703 107.533 26.6648 92.6299 26.3479C77.7267 26.031 63.0885 30.3182 50.7109 38.6248C38.3333 46.9314 28.8188 58.8533 23.4645 72.7651C18.1102 86.6768 17.1768 101.901 20.7914 116.363C24.4061 130.825 32.3929 143.82 43.663 153.576" fill="#FCEFF2"/>
<path d="M66.5278 153.376C84.4388 153.376 98.9585 139.403 98.9585 122.168C98.9585 104.932 84.4388 90.959 66.5278 90.959C48.6169 90.959 34.0972 104.932 34.0972 122.168C34.0972 139.403 48.6169 153.376 66.5278 153.376Z" fill="#EB92A7"/>
<path d="M98.9696 153.376C107.928 153.376 115.19 146.388 115.19 137.767C115.19 129.145 107.928 122.157 98.9696 122.157C90.0111 122.157 82.7487 129.145 82.7487 137.767C82.7487 146.388 90.0111 153.376 98.9696 153.376Z" fill="#EB92A7"/>
<path d="M34.0971 153.376C45.099 153.376 54.0177 144.791 54.0177 134.2C54.0177 123.609 45.099 115.024 34.0971 115.024C23.0953 115.024 14.1766 123.609 14.1766 134.2C14.1766 144.791 23.0953 153.376 34.0971 153.376Z" fill="#EB92A7"/>
<path d="M128.845 153.376C141.608 153.376 151.954 143.417 151.954 131.133C151.954 118.849 141.608 108.891 128.845 108.891C116.082 108.891 105.736 118.849 105.736 131.133C105.736 143.417 116.082 153.376 128.845 153.376Z" fill="#EB92A7"/>
<path d="M151.965 153.376C158.347 153.376 163.52 148.397 163.52 142.255C163.52 136.113 158.347 131.134 151.965 131.134C145.584 131.134 140.411 136.113 140.411 142.255C140.411 148.397 145.584 153.376 151.965 153.376Z" fill="#EB92A7"/>
<path d="M105.736 153.376C113.577 153.376 119.935 147.258 119.935 139.71C119.935 132.163 113.577 126.045 105.736 126.045C97.8939 126.045 91.5369 132.163 91.5369 139.71C91.5369 147.258 97.8939 153.376 105.736 153.376Z" fill="#EB92A7"/>
<path d="M182.129 155.865H0C0 155.865 72.294 127.2 182.129 155.865Z" fill="#EB92A7"/>
<path d="M22.5426 86.2262C28.3411 86.2262 33.0417 81.9086 33.0417 76.5826C33.0417 71.2566 28.3411 66.939 22.5426 66.939C16.7441 66.939 12.0435 71.2566 12.0435 76.5826C12.0435 81.9086 16.7441 86.2262 22.5426 86.2262Z" fill="#F3BDCA"/>
<path d="M33.0417 86.2262C35.9379 86.2262 38.2857 84.0673 38.2857 81.4043C38.2857 78.7413 35.9379 76.5825 33.0417 76.5825C30.1456 76.5825 27.7977 78.7413 27.7977 81.4043C27.7977 84.0673 30.1456 86.2262 33.0417 86.2262Z" fill="#F3BDCA"/>
<path d="M12.0546 86.215C15.6134 86.215 18.4985 83.5638 18.4985 80.2933C18.4985 77.0228 15.6134 74.3716 12.0546 74.3716C8.49569 74.3716 5.61066 77.0228 5.61066 80.2933C5.61066 83.5638 8.49569 86.215 12.0546 86.215Z" fill="#F3BDCA"/>
<path d="M52.2179 87.604H0C0 87.604 20.7205 76.9715 52.2179 87.604Z" fill="#F3BDCA"/>
<path d="M156.698 51.7955C161.834 51.7955 165.997 47.9703 165.997 43.2517C165.997 38.5332 161.834 34.708 156.698 34.708C151.562 34.708 147.399 38.5332 147.399 43.2517C147.399 47.9703 151.562 51.7955 156.698 51.7955Z" fill="#F3BDCA"/>
<path d="M147.399 51.8068C149.97 51.8068 152.054 49.8917 152.054 47.5294C152.054 45.167 149.97 43.252 147.399 43.252C144.828 43.252 142.744 45.167 142.744 47.5294C142.744 49.8917 144.828 51.8068 147.399 51.8068Z" fill="#F3BDCA"/>
<path d="M165.997 51.8066C169.151 51.8066 171.708 49.4538 171.708 46.5515C171.708 43.6492 169.151 41.2964 165.997 41.2964C162.843 41.2964 160.287 43.6492 160.287 46.5515C160.287 49.4538 162.843 51.8066 165.997 51.8066Z" fill="#F3BDCA"/>
<path d="M131.189 52.4736H182.207C182.207 52.4736 161.953 44.7964 131.189 52.4736Z" fill="#F3BDCA"/>
<path d="M72.3162 42.8967C68.7914 46.4152 66.3273 50.8542 65.2051 55.7065C64.083 60.5588 64.3481 65.629 65.9703 70.3378C67.5924 75.0466 70.5061 79.2043 74.3787 82.3361C78.2512 85.4678 82.9265 87.4473 87.8705 88.0485L91.2035 95.2923L94.4366 88.0151C98.633 87.4875 102.643 85.9655 106.132 83.5757C109.622 81.186 112.49 77.9976 114.499 74.2757C116.508 70.5539 117.599 66.4061 117.682 62.1775C117.765 57.9489 116.836 53.7617 114.975 49.9642C113.113 46.1666 110.371 42.8685 106.978 40.3442C103.584 37.8199 99.6369 36.1423 95.4644 35.451C91.2919 34.7597 87.0146 35.0747 82.9884 36.3697C78.9621 37.6648 75.3033 39.9025 72.3162 42.8967Z" fill="#DB284E"/>
<path d="M82.1376 36.6638C88.9834 36.0886 95.7856 38.1902 101.114 42.5266C106.442 46.8631 109.882 53.0966 110.709 59.9165C111.536 66.7365 109.687 73.6115 105.55 79.0962C101.413 84.5808 95.3108 88.2478 88.526 89.3261L91.2035 95.2479L94.4366 88.0151C98.1198 87.5255 101.659 86.268 104.826 84.3241C107.992 82.3801 110.715 79.793 112.819 76.7302C114.922 73.6673 116.359 70.1969 117.036 66.5436C117.714 62.8904 117.617 59.1355 116.751 55.5222C115.886 51.9088 114.271 48.5174 112.012 45.5674C109.753 42.6174 106.9 40.1745 103.637 38.3969C100.375 36.6192 96.7751 35.5465 93.0715 35.2479C89.368 34.9494 85.643 35.4318 82.1376 36.6638Z" fill="#C22046"/>
<path d="M92.2813 71.3938H89.2149C88.8271 71.3466 88.4716 71.1541 88.2201 70.8551C87.9686 70.5562 87.8397 70.173 87.8594 69.7829L86.504 45.3404C86.4373 44.2294 87.1595 43.3851 88.0038 43.4962L94.5033 44.3961C94.9024 44.5127 95.2449 44.7716 95.4661 45.1238C95.6872 45.4759 95.7715 45.8969 95.7032 46.307L93.6256 69.8606C93.6285 70.2366 93.4931 70.6004 93.2453 70.8831C92.9974 71.1658 92.6543 71.3475 92.2813 71.3938Z" fill="white"/>
<path d="M90.948 79.8712C92.5495 79.8712 93.8478 78.3789 93.8478 76.5381C93.8478 74.6973 92.5495 73.2051 90.948 73.2051C89.3465 73.2051 88.0483 74.6973 88.0483 76.5381C88.0483 78.3789 89.3465 79.8712 90.948 79.8712Z" fill="white"/>
<path d="M140.866 117.768H120.868L113.657 105.98H133.178C133.86 105.98 134.53 106.154 135.125 106.487C135.72 106.819 136.22 107.299 136.578 107.88L141.733 116.301C141.823 116.451 141.872 116.622 141.872 116.797C141.873 116.972 141.827 117.143 141.738 117.294C141.649 117.444 141.521 117.568 141.368 117.651C141.214 117.735 141.041 117.775 140.866 117.768Z" fill="#E0AC69"/>
<path d="M119.142 105.935L48.8814 105.837C47.9732 105.836 47.236 106.571 47.2348 107.479L47.1696 154.12C47.1684 155.028 47.9035 155.765 48.8117 155.766L119.072 155.864C119.981 155.866 120.718 155.131 120.719 154.222L120.784 107.582C120.785 106.674 120.05 105.937 119.142 105.935Z" fill="#E0AC69"/>
<path d="M68.8832 105.914H133.511C134.1 105.914 134.666 106.148 135.082 106.564C135.499 106.981 135.733 107.546 135.733 108.136V153.687C135.733 154.277 135.499 154.842 135.082 155.259C134.666 155.675 134.1 155.909 133.511 155.909H68.8832V105.914Z" fill="#F7CD97"/>
<path d="M62.0948 105.769H53.5733V110.78H62.0948V105.769Z" fill="#F1C27D"/>
<path d="M61.8843 150.774L53.3628 150.762L53.3558 155.772L61.8773 155.784L61.8843 150.774Z" fill="#F1C27D"/>
<path d="M40.8855 117.646H61.206C61.3701 117.644 61.5312 117.602 61.6747 117.522C61.8182 117.443 61.9397 117.329 62.0282 117.19L68.9943 105.914H48.4293C48.0637 105.914 47.7043 106.009 47.3854 106.188C47.0665 106.367 46.7986 106.624 46.6073 106.936L40.4522 116.935C40.4173 117.01 40.4015 117.092 40.406 117.174C40.4106 117.256 40.4354 117.336 40.4783 117.407C40.5212 117.477 40.5808 117.536 40.6518 117.577C40.7229 117.619 40.8032 117.643 40.8855 117.646Z" fill="#F1C27D"/>
<path d="M52.4846 155.298C57.062 155.298 60.7728 151.389 60.7728 146.566C60.7728 141.743 57.062 137.833 52.4846 137.833C47.9071 137.833 44.1964 141.743 44.1964 146.566C44.1964 151.389 47.9071 155.298 52.4846 155.298Z" fill="#F3BDCA"/>
<path d="M60.5838 155.298C62.848 155.298 64.6835 153.672 64.6835 151.665C64.6835 149.659 62.848 148.032 60.5838 148.032C58.3197 148.032 56.4842 149.659 56.4842 151.665C56.4842 153.672 58.3197 155.298 60.5838 155.298Z" fill="#B6EFDA"/>
<path d="M44.2075 155.298C46.9871 155.298 49.2404 153.299 49.2404 150.832C49.2404 148.365 46.9871 146.366 44.2075 146.366C41.4279 146.366 39.1746 148.365 39.1746 150.832C39.1746 153.299 41.4279 155.298 44.2075 155.298Z" fill="#F3BDCA"/>
<path d="M74.8493 155.865H29.9308C29.9308 155.865 47.7738 149.343 74.8493 155.865Z" fill="#F3BDCA"/>
<path d="M62.0171 154.965C66.392 154.965 69.9387 151.811 69.9387 147.921C69.9387 144.031 66.392 140.877 62.0171 140.877C57.6421 140.877 54.0955 144.031 54.0955 147.921C54.0955 151.811 57.6421 154.965 62.0171 154.965Z" fill="#F3BDCA"/>
<path d="M69.9386 154.965C72.1292 154.965 73.905 153.388 73.905 151.443C73.905 149.498 72.1292 147.921 69.9386 147.921C67.7481 147.921 65.9723 149.498 65.9723 151.443C65.9723 153.388 67.7481 154.965 69.9386 154.965Z" fill="#F3BDCA"/>
<path d="M54.0844 154.965C56.772 154.965 58.9507 153.03 58.9507 150.643C58.9507 148.256 56.772 146.321 54.0844 146.321C51.3968 146.321 49.2181 148.256 49.2181 150.643C49.2181 153.03 51.3968 154.965 54.0844 154.965Z" fill="#F3BDCA"/>
<path d="M83.3264 155.72H39.83C39.83 155.72 57.0841 149.399 83.3264 155.72Z" fill="#F3BDCA"/>
<path d="M127.523 155.309C132.511 155.309 136.555 151.404 136.555 146.588C136.555 141.771 132.511 137.866 127.523 137.866C122.534 137.866 118.49 141.771 118.49 146.588C118.49 151.404 122.534 155.309 127.523 155.309Z" fill="#F3BDCA"/>
<path d="M133.533 155.31C135.607 155.31 137.289 153.683 137.289 151.676C137.289 149.67 135.607 148.043 133.533 148.043C131.459 148.043 129.778 149.67 129.778 151.676C129.778 153.683 131.459 155.31 133.533 155.31Z" fill="#B6EFDA"/>
<path d="M118.501 155.298C121.054 155.298 123.123 153.303 123.123 150.843C123.123 148.382 121.054 146.388 118.501 146.388C115.949 146.388 113.879 148.382 113.879 150.843C113.879 153.303 115.949 155.298 118.501 155.298Z" fill="#F3BDCA"/>
<path d="M146.655 155.865H105.402C105.402 155.865 121.768 149.354 146.655 155.865Z" fill="#F3BDCA"/>
<path d="M139.733 155.332C143.752 155.332 147.01 152.183 147.01 148.299C147.01 144.415 143.752 141.266 139.733 141.266C135.714 141.266 132.456 144.415 132.456 148.299C132.456 152.183 135.714 155.332 139.733 155.332Z" fill="#F3BDCA"/>
<path d="M147.01 155.32C149.017 155.32 150.643 153.749 150.643 151.81C150.643 149.871 149.017 148.299 147.01 148.299C145.004 148.299 143.377 149.871 143.377 151.81C143.377 153.749 145.004 155.32 147.01 155.32Z" fill="#F3BDCA"/>
<path d="M132.456 155.332C134.922 155.332 136.922 153.397 136.922 151.01C136.922 148.623 134.922 146.688 132.456 146.688C129.989 146.688 127.989 148.623 127.989 151.01C127.989 153.397 129.989 155.332 132.456 155.332Z" fill="#F3BDCA"/>
<path d="M159.676 155.865H119.779C119.779 155.865 135.622 149.565 159.676 155.865Z" fill="#F3BDCA"/>
<path d="M113.491 103.791C113.402 103.425 113.335 103.054 113.291 102.68" stroke="#1A2E35" stroke-width="0.25" stroke-linecap="round" stroke-linejoin="round"/>
<path d="M113.146 100.514C113.213 96.8809 114.668 93.4145 117.446 91.8258C124.523 87.7928 132.745 94.8922 140.833 90.0259C148.61 85.3819 145.199 76.5937 142.488 73.694C139.511 70.4942 136.478 73.4606 138.522 76.6604C142.077 82.2155 150.232 82.9599 156.243 76.7715C160.131 72.7607 160.376 67.5611 160.142 64.6836" stroke="#1A2E35" stroke-width="0.25" stroke-linecap="round" stroke-linejoin="round" stroke-dasharray="1.97 1.97"/>
<path d="M159.987 63.5949C159.887 62.9061 159.787 62.4839 159.787 62.4839" stroke="#1A2E35" stroke-width="0.25" stroke-linecap="round" stroke-linejoin="round"/>
<path d="M159.387 58.1284C161.542 57.8618 162.72 62.2392 159.931 62.5725C157.143 62.9058 157.231 58.3839 159.387 58.1284Z" fill="#1A2E35"/>
<path d="M162.953 63.8615C163.764 63.4505 163.875 62.0061 162.831 60.5285C162.052 59.5177 161.086 58.6654 159.987 58.0176C159.863 59.2872 159.98 60.5687 160.331 61.795C160.92 63.506 162.142 64.2726 162.953 63.8615Z" fill="#ECECEC"/>
<path d="M159.987 58.0176C160.376 58.862 160.787 59.6841 161.209 60.5174C161.631 61.3506 162.053 62.1617 162.509 62.9727C162.12 62.1283 161.709 61.3062 161.287 60.4729C160.864 59.6397 160.442 58.8842 159.987 58.0176Z" fill="#1A2E35"/>
<path d="M162.931 61.8949C162.709 61.7061 162.464 61.5394 162.231 61.3728C161.989 61.2112 161.737 61.0664 161.476 60.9395C161.921 61.3152 162.409 61.636 162.931 61.8949Z" fill="#1A2E35"/>
<path d="M161.098 60.0952C161.02 60.3952 160.976 60.6952 160.92 60.9951C160.864 61.2951 160.853 61.6062 160.842 61.9062C160.924 61.6111 160.983 61.3102 161.02 61.0063C161.063 60.7043 161.089 60.4001 161.098 60.0952Z" fill="#1A2E35"/>
<path d="M161.398 59.6393C161.283 59.5478 161.16 59.466 161.031 59.3949C160.9 59.3304 160.762 59.2819 160.62 59.2505C160.731 59.3448 160.854 59.4233 160.987 59.4838C161.116 59.5537 161.254 59.606 161.398 59.6393Z" fill="#1A2E35"/>
<path d="M157.354 64.5836C156.465 64.3725 156.02 62.9948 156.676 61.2505C157.19 60.0858 157.921 59.0299 158.831 58.1396C159.257 59.3402 159.449 60.611 159.398 61.8838C159.242 63.7503 158.242 64.7835 157.354 64.5836Z" fill="#ECECEC"/>
<path d="M158.876 58.1953C158.709 59.1063 158.498 60.0063 158.298 60.9173C158.098 61.8283 157.865 62.7172 157.62 63.606C157.787 62.6949 157.998 61.795 158.198 60.8951C158.398 59.9952 158.587 59.0841 158.876 58.1953Z" fill="#1A2E35"/>
<path d="M156.898 62.6615C157.075 62.4293 157.264 62.2068 157.465 61.9948C157.662 61.7773 157.874 61.5732 158.098 61.3838C157.749 61.8547 157.346 62.2835 156.898 62.6615Z" fill="#1A2E35"/>
<path d="M158.309 60.4614C158.454 60.7281 158.576 61.0169 158.698 61.2947C158.82 61.5724 158.909 61.8613 158.987 62.1613C158.839 61.8922 158.709 61.6139 158.598 61.328C158.498 61.1058 158.387 60.7614 158.309 60.4614Z" fill="#1A2E35"/>
<path d="M157.854 60.1062C157.942 59.9886 158.043 59.8806 158.154 59.784C158.269 59.6924 158.391 59.6106 158.52 59.5396C158.435 59.6599 158.334 59.7683 158.22 59.8617C158.109 59.9583 157.986 60.0404 157.854 60.1062Z" fill="#1A2E35"/>
<path d="M159.387 58.1287C159.415 58.3353 159.522 58.5228 159.686 58.6514C159.85 58.7801 160.057 58.8397 160.264 58.8176C160.419 58.7989 160.565 58.7347 160.684 58.6331C160.802 58.5315 160.888 58.3971 160.93 58.2468C160.972 58.0966 160.968 57.9373 160.92 57.789C160.871 57.6408 160.78 57.5102 160.657 57.4139C160.534 57.3176 160.386 57.2598 160.23 57.2479C160.075 57.236 159.919 57.2705 159.783 57.347C159.647 57.4235 159.537 57.5386 159.466 57.6778C159.396 57.8169 159.368 57.9739 159.387 58.1287Z" fill="#375A64"/>
<path d="M157.831 58.3173C157.832 58.4287 157.856 58.5387 157.902 58.6401C157.948 58.7415 158.015 58.832 158.098 58.9057C158.182 58.9794 158.28 59.0346 158.386 59.0676C158.493 59.1007 158.605 59.1108 158.715 59.0974C158.826 59.084 158.932 59.0473 159.028 58.9897C159.123 58.9322 159.205 58.8552 159.268 58.7636C159.332 58.6721 159.375 58.5682 159.396 58.4587C159.416 58.3492 159.413 58.2366 159.387 58.1284C159.359 57.9219 159.252 57.7344 159.088 57.6057C158.924 57.4771 158.716 57.4175 158.509 57.4396C158.303 57.4673 158.117 57.5749 157.99 57.7393C157.863 57.9036 157.806 58.1112 157.831 58.3173Z" fill="#375A64"/>
<path d="M68.8832 98.8809C68.5083 97.525 68.5083 96.0928 68.8832 94.7368C69.2665 96.0916 69.2665 97.5262 68.8832 98.8809Z" fill="#1A2E35"/>
<path d="M64.6835 100.081C63.6703 99.1014 62.9507 97.8585 62.6059 96.4922C63.6104 97.4783 64.3285 98.7186 64.6835 100.081Z" fill="#1A2E35"/>
<path d="M61.6282 103.258C60.266 102.903 59.0257 102.185 58.0396 101.181C59.4018 101.536 60.6421 102.254 61.6282 103.258Z" fill="#1A2E35"/>
<path d="M76.3492 102.969C77.3468 101.951 78.6089 101.231 79.9934 100.892C79.0066 101.901 77.7614 102.62 76.3937 102.969H76.3492Z" fill="#1A2E35"/>
<path d="M73.1829 99.9138C73.5379 98.5516 74.2559 97.3113 75.2605 96.3252C74.9055 97.6874 74.1874 98.9277 73.1829 99.9138Z" fill="#1A2E35"/>
</svg>
