<svg width="16" height="17" viewBox="0 0 16 17" fill="none" xmlns="http://www.w3.org/2000/svg">
<path d="M14.566 5.90526L15.1207 5.35053C15.3534 5.1179 15.3534 4.72421 15.1207 4.47368L13.886 3.23895C13.6534 3.00632 13.2597 3.00632 13.0091 3.23895L12.4544 3.79368C11.5239 3.18526 10.4681 2.79158 9.32283 2.66632V1.52105H10.3249C10.7544 1.52105 11.0944 1.18105 11.0944 0.751579C11.0944 0.322105 10.7365 0 10.3249 0H6.78178C6.35231 0 6.01231 0.34 6.01231 0.769474C6.01231 1.19895 6.35231 1.53895 6.78178 1.53895H7.78389V2.68421C6.42389 2.82737 5.11757 3.36421 4.04389 4.24105C3.72178 4.50947 3.6681 4.99263 3.93652 5.31474C4.20494 5.63684 4.6881 5.69053 5.0102 5.42211C6.0302 4.59895 7.24704 4.16947 8.55336 4.16947C11.667 4.16947 14.1902 6.69263 14.1902 9.80632C14.1902 12.92 11.667 15.4611 8.55336 15.4611C5.51125 15.4611 3.02389 13.0274 2.91652 10.0211H3.73967C4.15125 10.0211 4.40178 9.55579 4.16915 9.21579L2.55862 6.81789C2.34389 6.51368 1.89652 6.51368 1.69967 6.81789L0.0891484 9.21579C-0.143483 9.55579 0.107043 10.0211 0.518622 10.0211H1.35967C1.46704 13.8863 4.63441 17 8.53546 17C12.4902 17 15.7113 13.7789 15.7113 9.82421C15.7291 8.37474 15.2997 7.03263 14.566 5.90526Z" fill="#49A09D"/>
<path d="M8.55331 14.1906C10.9691 14.1906 12.9196 12.2222 12.9196 9.82432C12.9196 7.42643 10.9512 5.45801 8.55331 5.45801C8.35647 5.45801 8.19542 5.61906 8.19542 5.8159V9.68117L5.26068 12.1864C5.1891 12.2401 5.15331 12.3296 5.13542 12.4191C5.11752 12.5085 5.15331 12.598 5.22489 12.6696C6.06595 13.6359 7.26489 14.1906 8.55331 14.1906Z" fill="#49A09D"/>
</svg>
