<svg width="30" height="7" viewBox="0 0 30 7" fill="none" xmlns="http://www.w3.org/2000/svg">
<path d="M3.39321 0C1.53347 0 0 1.51286 0 3.3476C0 5.18234 1.53347 6.69519 3.39321 6.69519C5.25295 6.69519 6.78642 5.18234 6.78642 3.3476C6.78642 1.51286 5.25295 0 3.39321 0ZM3.39321 4.66732C2.64279 4.66732 2.0555 4.08793 2.0555 3.3476C2.0555 2.60726 2.64279 2.02787 3.39321 2.02787C4.14363 2.02787 4.73092 2.60726 4.73092 3.3476C4.73092 4.05574 4.111 4.66732 3.39321 4.66732Z" fill="#919EAB"/>
<path d="M13.4997 0C11.6399 0 10.1064 1.51286 10.1064 3.3476C10.1064 5.18234 11.6399 6.69519 13.4997 6.69519C15.3594 6.69519 16.8929 5.18234 16.8929 3.3476C16.8929 1.51286 15.3594 0 13.4997 0ZM13.4997 4.66732C12.7492 4.66732 12.1619 4.08793 12.1619 3.3476C12.1619 2.60726 12.7492 2.02787 13.4997 2.02787C14.2501 2.02787 14.8374 2.60726 14.8374 3.3476C14.8374 4.05574 14.2174 4.66732 13.4997 4.66732Z" fill="#919EAB"/>
<path d="M23.6071 0C21.7473 0 20.2139 1.51286 20.2139 3.3476C20.2139 5.18234 21.7473 6.69519 23.6071 6.69519C25.4668 6.69519 27.0003 5.18234 27.0003 3.3476C27.0003 1.51286 25.4668 0 23.6071 0ZM23.6071 4.66732C22.8567 4.66732 22.2694 4.08793 22.2694 3.3476C22.2694 2.60726 22.8567 2.02787 23.6071 2.02787C24.3575 2.02787 24.9448 2.60726 24.9448 3.3476C24.9448 4.05574 24.3249 4.66732 23.6071 4.66732Z" fill="#919EAB"/>
</svg>
