<svg width="92" height="76" viewBox="0 0 92 76" fill="none" xmlns="http://www.w3.org/2000/svg">
<rect x="8" width="76" height="76" rx="8" fill="#7D7ADD"/>
<mask id="mask0_28103_30504" style="mask-type:alpha" maskUnits="userSpaceOnUse" x="8" y="0" width="76" height="76">
<rect x="8" width="76" height="76" rx="8" fill="#30C495"/>
</mask>
<g mask="url(#mask0_28103_30504)">
<circle opacity="0.15" cx="53" cy="175" r="135" fill="white"/>
</g>
<path d="M28.8476 26.288C28.8476 26.776 28.7356 27.224 28.5116 27.632C28.2876 28.032 27.9436 28.356 27.4796 28.604C27.0156 28.852 26.4396 28.976 25.7516 28.976H24.4796V32H22.4276V23.576H25.7516C26.4236 23.576 26.9916 23.692 27.4556 23.924C27.9196 24.156 28.2676 24.476 28.4996 24.884C28.7316 25.292 28.8476 25.76 28.8476 26.288ZM25.5956 27.344C25.9876 27.344 26.2796 27.252 26.4716 27.068C26.6636 26.884 26.7596 26.624 26.7596 26.288C26.7596 25.952 26.6636 25.692 26.4716 25.508C26.2796 25.324 25.9876 25.232 25.5956 25.232H24.4796V27.344H25.5956ZM31.9679 26.42C32.2079 26.052 32.5079 25.764 32.8679 25.556C33.2279 25.34 33.6279 25.232 34.0679 25.232V27.404H33.5039C32.9919 27.404 32.6079 27.516 32.3519 27.74C32.0959 27.956 31.9679 28.34 31.9679 28.892V32H29.9159V25.304H31.9679V26.42ZM38.0967 32.096C37.4407 32.096 36.8487 31.956 36.3207 31.676C35.8007 31.396 35.3887 30.996 35.0847 30.476C34.7887 29.956 34.6407 29.348 34.6407 28.652C34.6407 27.964 34.7927 27.36 35.0967 26.84C35.4007 26.312 35.8167 25.908 36.3447 25.628C36.8727 25.348 37.4647 25.208 38.1207 25.208C38.7767 25.208 39.3687 25.348 39.8967 25.628C40.4247 25.908 40.8407 26.312 41.1447 26.84C41.4487 27.36 41.6007 27.964 41.6007 28.652C41.6007 29.34 41.4447 29.948 41.1327 30.476C40.8287 30.996 40.4087 31.396 39.8727 31.676C39.3447 31.956 38.7527 32.096 38.0967 32.096ZM38.0967 30.32C38.4887 30.32 38.8207 30.176 39.0927 29.888C39.3727 29.6 39.5127 29.188 39.5127 28.652C39.5127 28.116 39.3767 27.704 39.1047 27.416C38.8407 27.128 38.5127 26.984 38.1207 26.984C37.7207 26.984 37.3887 27.128 37.1247 27.416C36.8607 27.696 36.7287 28.108 36.7287 28.652C36.7287 29.188 36.8567 29.6 37.1127 29.888C37.3767 30.176 37.7047 30.32 38.0967 30.32ZM42.2813 28.64C42.2813 27.952 42.4093 27.348 42.6653 26.828C42.9293 26.308 43.2853 25.908 43.7333 25.628C44.1813 25.348 44.6813 25.208 45.2333 25.208C45.6733 25.208 46.0733 25.3 46.4333 25.484C46.8013 25.668 47.0893 25.916 47.2973 26.228V23.12H49.3493V32H47.2973V31.04C47.1053 31.36 46.8293 31.616 46.4693 31.808C46.1173 32 45.7053 32.096 45.2333 32.096C44.6813 32.096 44.1813 31.956 43.7333 31.676C43.2853 31.388 42.9293 30.984 42.6653 30.464C42.4093 29.936 42.2813 29.328 42.2813 28.64ZM47.2973 28.652C47.2973 28.14 47.1533 27.736 46.8653 27.44C46.5853 27.144 46.2413 26.996 45.8333 26.996C45.4253 26.996 45.0773 27.144 44.7893 27.44C44.5093 27.728 44.3693 28.128 44.3693 28.64C44.3693 29.152 44.5093 29.56 44.7893 29.864C45.0773 30.16 45.4253 30.308 45.8333 30.308C46.2413 30.308 46.5853 30.16 46.8653 29.864C47.1533 29.568 47.2973 29.164 47.2973 28.652ZM57.4458 25.304V32H55.3938V31.088C55.1858 31.384 54.9018 31.624 54.5418 31.808C54.1898 31.984 53.7978 32.072 53.3658 32.072C52.8538 32.072 52.4018 31.96 52.0098 31.736C51.6178 31.504 51.3138 31.172 51.0978 30.74C50.8818 30.308 50.7738 29.8 50.7738 29.216V25.304H52.8138V28.94C52.8138 29.388 52.9298 29.736 53.1618 29.984C53.3938 30.232 53.7058 30.356 54.0978 30.356C54.4978 30.356 54.8138 30.232 55.0458 29.984C55.2778 29.736 55.3938 29.388 55.3938 28.94V25.304H57.4458ZM58.5118 28.652C58.5118 27.956 58.6518 27.348 58.9318 26.828C59.2198 26.308 59.6158 25.908 60.1198 25.628C60.6318 25.348 61.2158 25.208 61.8718 25.208C62.7118 25.208 63.4118 25.428 63.9718 25.868C64.5398 26.308 64.9118 26.928 65.0878 27.728H62.9038C62.7198 27.216 62.3638 26.96 61.8358 26.96C61.4598 26.96 61.1598 27.108 60.9358 27.404C60.7118 27.692 60.5998 28.108 60.5998 28.652C60.5998 29.196 60.7118 29.616 60.9358 29.912C61.1598 30.2 61.4598 30.344 61.8358 30.344C62.3638 30.344 62.7198 30.088 62.9038 29.576H65.0878C64.9118 30.36 64.5398 30.976 63.9718 31.424C63.4038 31.872 62.7038 32.096 61.8718 32.096C61.2158 32.096 60.6318 31.956 60.1198 31.676C59.6158 31.396 59.2198 30.996 58.9318 30.476C58.6518 29.956 58.5118 29.348 58.5118 28.652ZM69.9174 30.26V32H68.8734C68.1294 32 67.5494 31.82 67.1334 31.46C66.7174 31.092 66.5094 30.496 66.5094 29.672V27.008H65.6934V25.304H66.5094V23.672H68.5614V25.304H69.9054V27.008H68.5614V29.696C68.5614 29.896 68.6094 30.04 68.7054 30.128C68.8014 30.216 68.9614 30.26 69.1854 30.26H69.9174ZM22.4488 43.576C23.3368 43.576 24.1128 43.752 24.7768 44.104C25.4408 44.456 25.9528 44.952 26.3128 45.592C26.6808 46.224 26.8648 46.956 26.8648 47.788C26.8648 48.612 26.6808 49.344 26.3128 49.984C25.9528 50.624 25.4368 51.12 24.7648 51.472C24.1008 51.824 23.3288 52 22.4488 52H19.2928V43.576H22.4488ZM22.3168 50.224C23.0928 50.224 23.6968 50.012 24.1288 49.588C24.5608 49.164 24.7768 48.564 24.7768 47.788C24.7768 47.012 24.5608 46.408 24.1288 45.976C23.6968 45.544 23.0928 45.328 22.3168 45.328H21.3448V50.224H22.3168ZM29.0436 44.608C28.6836 44.608 28.3876 44.504 28.1556 44.296C27.9316 44.08 27.8196 43.816 27.8196 43.504C27.8196 43.184 27.9316 42.92 28.1556 42.712C28.3876 42.496 28.6836 42.388 29.0436 42.388C29.3956 42.388 29.6836 42.496 29.9076 42.712C30.1396 42.92 30.2556 43.184 30.2556 43.504C30.2556 43.816 30.1396 44.08 29.9076 44.296C29.6836 44.504 29.3956 44.608 29.0436 44.608ZM30.0636 45.304V52H28.0116V45.304H30.0636ZM34.2746 52.096C33.6906 52.096 33.1706 51.996 32.7146 51.796C32.2586 51.596 31.8986 51.324 31.6346 50.98C31.3706 50.628 31.2226 50.236 31.1906 49.804H33.2186C33.2426 50.036 33.3506 50.224 33.5426 50.368C33.7346 50.512 33.9706 50.584 34.2506 50.584C34.5066 50.584 34.7026 50.536 34.8386 50.44C34.9826 50.336 35.0546 50.204 35.0546 50.044C35.0546 49.852 34.9546 49.712 34.7546 49.624C34.5546 49.528 34.2306 49.424 33.7826 49.312C33.3026 49.2 32.9026 49.084 32.5826 48.964C32.2626 48.836 31.9866 48.64 31.7546 48.376C31.5226 48.104 31.4066 47.74 31.4066 47.284C31.4066 46.9 31.5106 46.552 31.7186 46.24C31.9346 45.92 32.2466 45.668 32.6546 45.484C33.0706 45.3 33.5626 45.208 34.1306 45.208C34.9706 45.208 35.6306 45.416 36.1106 45.832C36.5986 46.248 36.8786 46.8 36.9506 47.488H35.0546C35.0226 47.256 34.9186 47.072 34.7426 46.936C34.5746 46.8 34.3506 46.732 34.0706 46.732C33.8306 46.732 33.6466 46.78 33.5186 46.876C33.3906 46.964 33.3266 47.088 33.3266 47.248C33.3266 47.44 33.4266 47.584 33.6266 47.68C33.8346 47.776 34.1546 47.872 34.5866 47.968C35.0826 48.096 35.4866 48.224 35.7986 48.352C36.1106 48.472 36.3826 48.672 36.6146 48.952C36.8546 49.224 36.9786 49.592 36.9866 50.056C36.9866 50.448 36.8746 50.8 36.6506 51.112C36.4346 51.416 36.1186 51.656 35.7026 51.832C35.2946 52.008 34.8186 52.096 34.2746 52.096ZM37.834 48.652C37.834 47.956 37.974 47.348 38.254 46.828C38.542 46.308 38.938 45.908 39.442 45.628C39.954 45.348 40.538 45.208 41.194 45.208C42.034 45.208 42.734 45.428 43.294 45.868C43.862 46.308 44.234 46.928 44.41 47.728H42.226C42.042 47.216 41.686 46.96 41.158 46.96C40.782 46.96 40.482 47.108 40.258 47.404C40.034 47.692 39.922 48.108 39.922 48.652C39.922 49.196 40.034 49.616 40.258 49.912C40.482 50.2 40.782 50.344 41.158 50.344C41.686 50.344 42.042 50.088 42.226 49.576H44.41C44.234 50.36 43.862 50.976 43.294 51.424C42.726 51.872 42.026 52.096 41.194 52.096C40.538 52.096 39.954 51.956 39.442 51.676C38.938 51.396 38.542 50.996 38.254 50.476C37.974 49.956 37.834 49.348 37.834 48.652ZM48.5557 52.096C47.8997 52.096 47.3077 51.956 46.7797 51.676C46.2597 51.396 45.8477 50.996 45.5437 50.476C45.2477 49.956 45.0997 49.348 45.0997 48.652C45.0997 47.964 45.2517 47.36 45.5557 46.84C45.8597 46.312 46.2757 45.908 46.8037 45.628C47.3317 45.348 47.9237 45.208 48.5797 45.208C49.2357 45.208 49.8277 45.348 50.3557 45.628C50.8837 45.908 51.2997 46.312 51.6037 46.84C51.9077 47.36 52.0597 47.964 52.0597 48.652C52.0597 49.34 51.9037 49.948 51.5917 50.476C51.2877 50.996 50.8677 51.396 50.3317 51.676C49.8037 51.956 49.2117 52.096 48.5557 52.096ZM48.5557 50.32C48.9477 50.32 49.2797 50.176 49.5517 49.888C49.8317 49.6 49.9717 49.188 49.9717 48.652C49.9717 48.116 49.8357 47.704 49.5637 47.416C49.2997 47.128 48.9717 46.984 48.5797 46.984C48.1797 46.984 47.8477 47.128 47.5837 47.416C47.3197 47.696 47.1877 48.108 47.1877 48.652C47.1877 49.188 47.3157 49.6 47.5717 49.888C47.8357 50.176 48.1637 50.32 48.5557 50.32ZM59.7603 45.304V52H57.7083V51.088C57.5003 51.384 57.2163 51.624 56.8563 51.808C56.5043 51.984 56.1123 52.072 55.6803 52.072C55.1683 52.072 54.7163 51.96 54.3243 51.736C53.9323 51.504 53.6283 51.172 53.4123 50.74C53.1963 50.308 53.0883 49.8 53.0883 49.216V45.304H55.1283V48.94C55.1283 49.388 55.2443 49.736 55.4763 49.984C55.7083 50.232 56.0203 50.356 56.4123 50.356C56.8123 50.356 57.1283 50.232 57.3603 49.984C57.5923 49.736 57.7083 49.388 57.7083 48.94V45.304H59.7603ZM65.3142 45.232C66.0982 45.232 66.7222 45.488 67.1862 46C67.6582 46.504 67.8942 47.2 67.8942 48.088V52H65.8542V48.364C65.8542 47.916 65.7382 47.568 65.5062 47.32C65.2742 47.072 64.9622 46.948 64.5702 46.948C64.1782 46.948 63.8662 47.072 63.6342 47.32C63.4022 47.568 63.2862 47.916 63.2862 48.364V52H61.2342V45.304H63.2862V46.192C63.4942 45.896 63.7742 45.664 64.1262 45.496C64.4782 45.32 64.8742 45.232 65.3142 45.232ZM73.0522 50.26V52H72.0082C71.2642 52 70.6842 51.82 70.2682 51.46C69.8522 51.092 69.6442 50.496 69.6442 49.672V47.008H68.8282V45.304H69.6442V43.672H71.6962V45.304H73.0402V47.008H71.6962V49.696C71.6962 49.896 71.7442 50.04 71.8402 50.128C71.9362 50.216 72.0962 50.26 72.3202 50.26H73.0522Z" fill="white"/>
</svg>
