<svg width="24" height="24" viewBox="0 0 24 24" fill="none" xmlns="http://www.w3.org/2000/svg">
<circle cx="12" cy="12.0001" r="12" fill="#50BF78"/>
<path fill-rule="evenodd" clip-rule="evenodd" d="M17.3913 12.1778C17.7965 12.0317 17.9254 11.6986 18 11.3261V10.9799C17.8237 10.2693 17.6151 10.0839 16.8656 9.97885C15.9076 9.84757 14.9445 9.74255 13.9813 9.62604C13.4303 9.55876 13.4167 9.53578 13.6117 9.05169C13.9542 8.19345 14.1373 7.31059 14.0983 6.38671C14.0593 5.53339 13.744 5.15596 12.8961 5.00006H12.3586C12.089 5.11165 11.9551 5.32334 11.8872 5.58918C11.8109 5.88292 11.7414 6.1783 11.6532 6.46876C11.3769 7.38279 10.9089 8.16227 10.0085 8.63488C9.39805 8.95651 8.9894 9.46358 8.65197 10.0314C8.45867 10.3563 8.17889 10.5384 7.80924 10.6123C7.54472 10.6632 7.2802 10.6927 7.01229 10.7009C6.41034 10.7173 6.18822 10.883 6 11.4131V11.587V16.2672V16.4411C6.14922 16.9859 6.36965 17.1796 7.02416 17.1566C7.87028 17.1303 8.67571 17.2304 9.43196 17.6161C9.52183 17.6637 9.63035 17.6735 9.727 17.7096C10.373 17.9492 11.0666 17.8918 11.7312 18.0001H12.2688H12.8961H15.4939C15.8686 17.9344 16.1653 17.7621 16.284 17.3962C16.3925 17.0565 16.2993 16.7234 16.1348 16.3853C16.8114 16.3968 17.3234 16.2015 17.5286 15.5599C17.6863 15.0676 17.5235 14.6688 17.0454 14.3242C17.5032 14.2028 17.8474 13.978 17.922 13.4709C18.0017 12.9507 17.8694 12.5322 17.3896 12.2418C17.3675 12.2418 17.354 12.2369 17.3523 12.2237C17.3438 12.1909 17.3591 12.1745 17.3913 12.1778Z" fill="white"/>
</svg>
