<svg width="92" height="76" viewBox="0 0 92 76" fill="none" xmlns="http://www.w3.org/2000/svg">
<rect x="8" width="76" height="76" rx="8" fill="#E54848"/>
<mask id="mask0_28103_4271" style="mask-type:alpha" maskUnits="userSpaceOnUse" x="8" y="0" width="76" height="76">
<rect x="8" width="76" height="76" rx="8" fill="#DA264D"/>
</mask>
<g mask="url(#mask0_28103_4271)">
<circle opacity="0.15" cx="53" cy="175" r="135" fill="white"/>
</g>
<path d="M29.1084 32L27.3564 28.82H26.8644V32H24.8124V23.576H28.2564C28.9204 23.576 29.4844 23.692 29.9484 23.924C30.4204 24.156 30.7724 24.476 31.0044 24.884C31.2364 25.284 31.3524 25.732 31.3524 26.228C31.3524 26.788 31.1924 27.288 30.8724 27.728C30.5604 28.168 30.0964 28.48 29.4804 28.664L31.4244 32H29.1084ZM26.8644 27.368H28.1364C28.5124 27.368 28.7924 27.276 28.9764 27.092C29.1684 26.908 29.2644 26.648 29.2644 26.312C29.2644 25.992 29.1684 25.74 28.9764 25.556C28.7924 25.372 28.5124 25.28 28.1364 25.28H26.8644V27.368ZM38.9525 28.544C38.9525 28.736 38.9405 28.936 38.9165 29.144H34.2725C34.3045 29.56 34.4365 29.88 34.6685 30.104C34.9085 30.32 35.2005 30.428 35.5445 30.428C36.0565 30.428 36.4125 30.212 36.6125 29.78H38.7965C38.6845 30.22 38.4805 30.616 38.1845 30.968C37.8965 31.32 37.5325 31.596 37.0925 31.796C36.6525 31.996 36.1605 32.096 35.6165 32.096C34.9605 32.096 34.3765 31.956 33.8645 31.676C33.3525 31.396 32.9525 30.996 32.6645 30.476C32.3765 29.956 32.2325 29.348 32.2325 28.652C32.2325 27.956 32.3725 27.348 32.6525 26.828C32.9405 26.308 33.3405 25.908 33.8525 25.628C34.3645 25.348 34.9525 25.208 35.6165 25.208C36.2645 25.208 36.8405 25.344 37.3445 25.616C37.8485 25.888 38.2405 26.276 38.5205 26.78C38.8085 27.284 38.9525 27.872 38.9525 28.544ZM36.8525 28.004C36.8525 27.652 36.7325 27.372 36.4925 27.164C36.2525 26.956 35.9525 26.852 35.5925 26.852C35.2485 26.852 34.9565 26.952 34.7165 27.152C34.4845 27.352 34.3405 27.636 34.2845 28.004H36.8525ZM43.395 27.008H42.291V32H40.239V27.008H39.495V25.304H40.239V25.112C40.239 24.288 40.475 23.664 40.947 23.24C41.419 22.808 42.111 22.592 43.023 22.592C43.175 22.592 43.287 22.596 43.359 22.604V24.344C42.967 24.32 42.691 24.376 42.531 24.512C42.371 24.648 42.291 24.892 42.291 25.244V25.304H43.395V27.008ZM50.9712 25.304V32H48.9192V31.088C48.7112 31.384 48.4272 31.624 48.0672 31.808C47.7152 31.984 47.3232 32.072 46.8912 32.072C46.3792 32.072 45.9272 31.96 45.5352 31.736C45.1432 31.504 44.8392 31.172 44.6232 30.74C44.4072 30.308 44.2992 29.8 44.2992 29.216V25.304H46.3392V28.94C46.3392 29.388 46.4552 29.736 46.6872 29.984C46.9192 30.232 47.2312 30.356 47.6232 30.356C48.0232 30.356 48.3392 30.232 48.5712 29.984C48.8032 29.736 48.9192 29.388 48.9192 28.94V25.304H50.9712ZM56.5252 25.232C57.3092 25.232 57.9332 25.488 58.3972 26C58.8692 26.504 59.1052 27.2 59.1052 28.088V32H57.0652V28.364C57.0652 27.916 56.9492 27.568 56.7172 27.32C56.4852 27.072 56.1732 26.948 55.7812 26.948C55.3892 26.948 55.0772 27.072 54.8452 27.32C54.6132 27.568 54.4972 27.916 54.4972 28.364V32H52.4452V25.304H54.4972V26.192C54.7052 25.896 54.9852 25.664 55.3372 25.496C55.6892 25.32 56.0852 25.232 56.5252 25.232ZM60.1231 28.64C60.1231 27.952 60.2511 27.348 60.5071 26.828C60.7711 26.308 61.1271 25.908 61.5751 25.628C62.0231 25.348 62.5231 25.208 63.0751 25.208C63.5151 25.208 63.9151 25.3 64.2751 25.484C64.6431 25.668 64.9311 25.916 65.1391 26.228V23.12H67.1911V32H65.1391V31.04C64.9471 31.36 64.6711 31.616 64.3111 31.808C63.9591 32 63.5471 32.096 63.0751 32.096C62.5231 32.096 62.0231 31.956 61.5751 31.676C61.1271 31.388 60.7711 30.984 60.5071 30.464C60.2511 29.936 60.1231 29.328 60.1231 28.64ZM65.1391 28.652C65.1391 28.14 64.9951 27.736 64.7071 27.44C64.4271 27.144 64.0831 26.996 63.6751 26.996C63.2671 26.996 62.9191 27.144 62.6311 27.44C62.3511 27.728 62.2111 28.128 62.2111 28.64C62.2111 29.152 62.3511 29.56 62.6311 29.864C62.9191 30.16 63.2671 30.308 63.6751 30.308C64.0831 30.308 64.4271 30.16 64.7071 29.864C64.9951 29.568 65.1391 29.164 65.1391 28.652ZM28.4665 43.576L25.4785 52H22.9105L19.9225 43.576H22.1065L24.1945 49.936L26.2945 43.576H28.4665ZM32.3721 52.096C31.7161 52.096 31.1241 51.956 30.5961 51.676C30.0761 51.396 29.6641 50.996 29.3601 50.476C29.0641 49.956 28.9161 49.348 28.9161 48.652C28.9161 47.964 29.0681 47.36 29.3721 46.84C29.6761 46.312 30.0921 45.908 30.6201 45.628C31.1481 45.348 31.7401 45.208 32.3961 45.208C33.0521 45.208 33.6441 45.348 34.1721 45.628C34.7001 45.908 35.1161 46.312 35.4201 46.84C35.7241 47.36 35.8761 47.964 35.8761 48.652C35.8761 49.34 35.7201 49.948 35.4081 50.476C35.1041 50.996 34.6841 51.396 34.1481 51.676C33.6201 51.956 33.0281 52.096 32.3721 52.096ZM32.3721 50.32C32.7641 50.32 33.0961 50.176 33.3681 49.888C33.6481 49.6 33.7881 49.188 33.7881 48.652C33.7881 48.116 33.6521 47.704 33.3801 47.416C33.1161 47.128 32.7881 46.984 32.3961 46.984C31.9961 46.984 31.6641 47.128 31.4001 47.416C31.1361 47.696 31.0041 48.108 31.0041 48.652C31.0041 49.188 31.1321 49.6 31.3881 49.888C31.6521 50.176 31.9801 50.32 32.3721 50.32ZM43.5767 45.304V52H41.5247V51.088C41.3167 51.384 41.0327 51.624 40.6727 51.808C40.3207 51.984 39.9287 52.072 39.4967 52.072C38.9847 52.072 38.5327 51.96 38.1407 51.736C37.7487 51.504 37.4447 51.172 37.2287 50.74C37.0127 50.308 36.9047 49.8 36.9047 49.216V45.304H38.9447V48.94C38.9447 49.388 39.0607 49.736 39.2927 49.984C39.5247 50.232 39.8367 50.356 40.2287 50.356C40.6287 50.356 40.9447 50.232 41.1767 49.984C41.4087 49.736 41.5247 49.388 41.5247 48.94V45.304H43.5767ZM44.6426 48.652C44.6426 47.956 44.7826 47.348 45.0626 46.828C45.3506 46.308 45.7466 45.908 46.2506 45.628C46.7626 45.348 47.3466 45.208 48.0026 45.208C48.8426 45.208 49.5426 45.428 50.1026 45.868C50.6706 46.308 51.0426 46.928 51.2186 47.728H49.0346C48.8506 47.216 48.4946 46.96 47.9666 46.96C47.5906 46.96 47.2906 47.108 47.0666 47.404C46.8426 47.692 46.7306 48.108 46.7306 48.652C46.7306 49.196 46.8426 49.616 47.0666 49.912C47.2906 50.2 47.5906 50.344 47.9666 50.344C48.4946 50.344 48.8506 50.088 49.0346 49.576H51.2186C51.0426 50.36 50.6706 50.976 50.1026 51.424C49.5346 51.872 48.8346 52.096 48.0026 52.096C47.3466 52.096 46.7626 51.956 46.2506 51.676C45.7466 51.396 45.3506 50.996 45.0626 50.476C44.7826 49.956 44.6426 49.348 44.6426 48.652ZM56.4323 45.232C57.2003 45.232 57.8163 45.488 58.2803 46C58.7443 46.504 58.9763 47.2 58.9763 48.088V52H56.9363V48.364C56.9363 47.916 56.8203 47.568 56.5883 47.32C56.3563 47.072 56.0443 46.948 55.6523 46.948C55.2603 46.948 54.9483 47.072 54.7163 47.32C54.4843 47.568 54.3683 47.916 54.3683 48.364V52H52.3163V43.12H54.3683V46.204C54.5763 45.908 54.8603 45.672 55.2203 45.496C55.5803 45.32 55.9843 45.232 56.4323 45.232ZM66.7142 48.544C66.7142 48.736 66.7022 48.936 66.6782 49.144H62.0342C62.0662 49.56 62.1982 49.88 62.4302 50.104C62.6702 50.32 62.9622 50.428 63.3062 50.428C63.8182 50.428 64.1742 50.212 64.3742 49.78H66.5582C66.4462 50.22 66.2422 50.616 65.9462 50.968C65.6582 51.32 65.2942 51.596 64.8542 51.796C64.4142 51.996 63.9222 52.096 63.3782 52.096C62.7222 52.096 62.1382 51.956 61.6262 51.676C61.1142 51.396 60.7142 50.996 60.4262 50.476C60.1382 49.956 59.9942 49.348 59.9942 48.652C59.9942 47.956 60.1342 47.348 60.4142 46.828C60.7022 46.308 61.1022 45.908 61.6142 45.628C62.1262 45.348 62.7142 45.208 63.3782 45.208C64.0262 45.208 64.6022 45.344 65.1062 45.616C65.6102 45.888 66.0022 46.276 66.2822 46.78C66.5702 47.284 66.7142 47.872 66.7142 48.544ZM64.6142 48.004C64.6142 47.652 64.4942 47.372 64.2542 47.164C64.0142 46.956 63.7142 46.852 63.3542 46.852C63.0102 46.852 62.7182 46.952 62.4782 47.152C62.2462 47.352 62.1022 47.636 62.0462 48.004H64.6142ZM69.8487 46.42C70.0887 46.052 70.3887 45.764 70.7487 45.556C71.1087 45.34 71.5087 45.232 71.9487 45.232V47.404H71.3847C70.8727 47.404 70.4887 47.516 70.2327 47.74C69.9767 47.956 69.8487 48.34 69.8487 48.892V52H67.7967V45.304H69.8487V46.42Z" fill="white"/>
</svg>
