<svg width="371" height="371" viewBox="0 0 371 371" fill="none" xmlns="http://www.w3.org/2000/svg">
<path d="M123.552 101.007L66.8673 68.1168L81.7019 52.7378L123.552 101.007Z" fill="#DB284E"/>
<path d="M138.182 96.1529L113.254 54.6432L128.315 49.9932L138.182 96.1529Z" fill="#DB284E"/>
<path d="M121.329 115.819L84.1744 114.617L87.4407 102.935L121.329 115.819Z" fill="#DB284E"/>
<path d="M274.439 219.344C319.827 219.548 319.827 285.896 274.439 286.1C229.05 285.896 229.05 219.548 274.439 219.344Z" fill="#EB92A7"/>
<path d="M309.144 252.711C331.645 252.393 331.645 286.417 309.144 286.122C286.642 286.44 286.642 252.416 309.144 252.711Z" fill="#EB92A7"/>
<path d="M369.571 288.731H179.307C179.307 288.731 254.75 258.767 369.571 288.731Z" fill="#EB92A7"/>
<path d="M173.273 165.699C254.16 167.06 254.138 282.72 173.273 284.081C92.4083 282.72 92.4083 167.06 173.273 165.699Z" fill="#EB92A7"/>
<path d="M234.789 224.901C275.029 225.083 275.029 283.922 234.789 284.104C194.55 283.922 194.55 225.083 234.789 224.901Z" fill="#EB92A7"/>
<path d="M239.734 245.089C267.384 244.703 267.384 286.508 239.734 286.122C212.083 286.508 212.083 244.703 239.734 245.089Z" fill="#EB92A7"/>
<path d="M111.757 211.382C161.432 212.221 161.432 283.287 111.757 284.126C62.0812 283.264 62.1039 212.199 111.757 211.382Z" fill="#EB92A7"/>
<path d="M341.943 288.731H4.60268C4.60268 288.731 138.5 235.608 341.943 288.731Z" fill="#EB92A7"/>
<g opacity="0.04">
<path d="M183.208 276.8C182.822 281.087 182.596 283.831 182.596 284.353C182.596 284.648 182.618 284.943 182.664 285.192C183.299 288.55 143.263 284.194 143.263 284.194L145.01 263.53H89.6863L57.9076 126.866L58.7015 124.892L242.841 124.62L272.647 233.317H272.511L279.769 260.513L274.666 263.508H184.524L184.319 264.959C184.025 267.976 183.775 270.743 183.548 273.193C183.435 274.486 183.321 275.688 183.208 276.8Z" fill="#231F20"/>
</g>
<g opacity="0.8">
<path d="M299.866 143.424C298.664 146.713 297.19 149.843 295.489 152.77C291.383 159.801 285.916 165.699 279.542 170.281C264.753 180.896 245.132 184.276 226.714 177.585C204.825 169.623 190.739 149.662 189.242 127.818C189.038 124.938 189.06 122.034 189.31 119.108C189.718 114.209 190.784 109.264 192.553 104.432C193.982 100.508 195.797 96.8561 197.929 93.4536C197.952 93.4083 197.975 93.3856 197.997 93.3402C203.918 83.9722 212.333 76.759 222.019 72.2224C224.763 70.9295 227.621 69.8634 230.547 69.0241C231.931 68.6158 233.36 68.2756 234.789 67.9807C244.769 65.9166 255.43 66.529 265.729 70.2717C267.089 70.7707 268.428 71.3151 269.721 71.9049C271.558 72.7215 273.327 73.6514 275.051 74.6495C282.242 78.8458 288.253 84.4712 292.88 91.0266C295.761 95.1095 298.074 99.5327 299.798 104.205C300.706 106.655 301.431 109.173 301.999 111.736C302.339 113.324 302.634 114.934 302.838 116.568C303.359 120.492 303.45 124.484 303.133 128.476C302.747 133.466 301.658 138.502 299.866 143.424Z" fill="#FCEFF2"/>
<path d="M236.717 93.2949C233.337 95.9034 234.245 102.89 228.392 98.9656C222.563 95.0188 218.888 92.8866 217.232 96.3117C215.577 99.7595 220.748 101.642 219.387 105.385C218.026 109.128 215.259 109.536 212.333 106.451C209.407 103.366 209.316 100.417 204.598 100.508C199.857 100.599 197.839 98.6707 198.088 95.1095C198.133 94.4744 198.065 93.9527 197.929 93.4536C197.952 93.4083 197.975 93.3856 197.997 93.3402C203.918 83.9722 212.333 76.759 222.019 72.2224C224.763 70.9295 227.621 69.8634 230.547 69.0241C231.931 68.6158 233.36 68.2756 234.789 67.9807C236.445 68.6612 238.214 70.0222 239.144 72.7441C241.208 78.7551 244.543 77.3261 241.707 82.3617C238.872 87.3973 240.029 88.6222 243.136 89.5522C246.244 90.4822 249.805 91.7751 249.306 94.2249C248.83 96.6746 240.097 90.6636 236.717 93.2949Z" fill="#EB92A7"/>
<path d="M299.866 143.424C298.664 146.713 297.19 149.843 295.489 152.77C291.383 159.801 285.916 165.699 279.542 170.281C277.955 170.235 276.503 169.691 275.301 168.602C269.585 163.499 277.161 158.077 281.153 155.423C285.145 152.792 277.728 151.908 274.008 146.759C270.265 141.61 279.021 134.646 273.395 134.26C267.77 133.875 260.942 133.512 259.786 127.501C258.651 121.49 264.549 122.715 263.528 117.656C262.485 112.575 267.384 111.645 272.624 113.074C277.864 114.526 278.499 110.67 284.986 112.417C291.474 114.163 288.411 122.148 295.579 124.144C302.724 126.14 301.84 127.637 301.84 127.637C302.339 127.796 302.792 128.09 303.178 128.476C302.747 133.466 301.658 138.502 299.866 143.424Z" fill="#EB92A7"/>
<path d="M302.838 116.568C296.033 117.271 296.487 108.787 290.702 109.286C284.873 109.785 287.368 105.657 284.487 101.37C281.607 97.0829 271.876 99.4193 273.849 95.0868C275.822 90.7544 281.266 94.1341 283.807 91.0266C286.347 87.919 291.746 90.8905 291.746 90.8905C292.109 90.8905 292.494 90.9358 292.88 91.0266C295.761 95.1095 298.074 99.5327 299.798 104.205C300.706 106.655 301.431 109.173 301.999 111.736C302.339 113.324 302.634 114.934 302.838 116.568Z" fill="#EB92A7"/>
<path d="M259.695 83.4505C259.695 83.4505 264.322 80.1841 259.967 77.1446C255.612 74.1051 255.09 75.829 251.484 74.0597C247.877 72.2905 245.359 74.6722 247.015 78.8458C248.671 83.0422 248.739 89.9378 252.459 87.6241C256.179 85.3105 256.587 82.6792 259.695 83.4505Z" fill="#EB92A7"/>
</g>
<path d="M152.45 179.785L143.808 282.448C143.808 282.448 142.901 288.663 147.528 288.686C155.149 288.708 185.408 288.686 185.408 288.686C185.408 288.686 179.67 287.393 179.76 284.467C179.851 281.041 189.854 178.81 189.854 178.81L152.45 179.785Z" fill="#6E97F0"/>
<path d="M188.266 286.871C186.769 286.871 157.463 286.916 150.046 286.826C146.825 286.78 146.258 283.945 146.212 282.13C146.19 281.246 146.303 280.61 146.303 280.61L146.53 277.934L147.097 271.129L147.596 265.118L148.254 257.406L148.798 250.896L154.922 177.948L192.327 176.972C192.327 176.972 188.108 219.752 185.136 250.896C184.796 254.366 184.478 257.701 184.183 260.808C184.093 261.806 184.002 262.759 183.911 263.712C183.639 266.66 183.39 269.36 183.163 271.741C183.049 273.012 182.936 274.169 182.845 275.235C182.46 279.431 182.233 282.108 182.233 282.629C182.233 282.924 182.255 283.196 182.301 283.469C182.959 286.712 187.699 286.871 188.266 286.871Z" fill="#EB92A7"/>
<path d="M61.6049 123.94L82.632 208.411L85.5127 219.979L95.3117 259.311H277.274L241.186 123.94H61.6049Z" fill="#FCEFF2"/>
<path d="M61.6049 123.94L58.7015 124.892L91.4329 262.26L95.3117 259.311L61.6049 123.94Z" fill="#F7D3DC"/>
<path d="M91.4329 262.26H272.284L277.274 259.311H95.3117L91.4329 262.26Z" fill="#F3BDCA"/>
<path d="M154.956 288.709H194.107V286.849H154.956V288.709Z" fill="#DB284E"/>
<path d="M184.161 262.26L183.957 263.689L147.12 271.106L147.619 265.118L147.868 262.26H184.161Z" fill="#DB284E"/>
<path d="M188.266 286.871C186.769 286.871 157.463 286.916 150.046 286.826C146.825 286.78 146.258 283.945 146.212 282.13L182.868 275.235C182.482 279.431 182.255 282.108 182.255 282.629C182.255 282.924 182.278 283.196 182.323 283.469C182.959 286.712 187.699 286.871 188.266 286.871Z" fill="#DB284E"/>
<path d="M61.6049 123.94H241.186L270.31 232.75H88.6883L61.6049 123.94Z" fill="#FCEFF2"/>
<path d="M261.85 228.031H93.7239L87.7129 204.078L85.3766 194.824L84.4239 191.058L78.2541 166.447L77.9366 165.177L74.6702 152.18L73.2185 146.35L71.971 141.383L69.0449 129.769H234.766L237.965 141.383L239.326 146.35L240.936 152.18L251.506 190.491L252.391 193.735L252.822 195.255L260.103 221.703L261.85 228.031Z" fill="#E66983"/>
<path d="M237.965 141.383H71.971L69.0449 129.769H234.766L237.965 141.383Z" fill="#DB284E"/>
<path d="M75.8951 135.009C75.691 134.215 76.19 133.557 76.9839 133.557C77.7778 133.557 78.5944 134.215 78.7985 135.009C79.0027 135.803 78.5037 136.46 77.7098 136.46C76.9159 136.46 76.0993 135.825 75.8951 135.009Z" fill="#E5F9F0"/>
<path d="M80.7266 135.009C80.5224 134.215 81.0215 133.557 81.8154 133.557C82.6093 133.557 83.4259 134.215 83.63 135.009C83.8342 135.803 83.3351 136.46 82.5412 136.46C81.7473 136.46 80.9307 135.825 80.7266 135.009Z" fill="#E5F9F0"/>
<path d="M85.9437 135.009C85.7395 134.215 86.2385 133.557 87.0324 133.557C87.8263 133.557 88.6429 134.215 88.8471 135.009C89.0512 135.803 88.5522 136.46 87.7583 136.46C86.9417 136.46 86.1478 135.825 85.9437 135.009Z" fill="#E5F9F0"/>
<g opacity="0.18">
<path d="M278.023 199.383C275.187 205.258 269.607 209.091 263.12 209.636L130.969 220.773C124.482 221.317 118.335 218.482 114.57 213.151C110.781 207.844 110.124 201.107 112.778 195.164L168.759 69.8634C171.526 63.7163 177.174 59.7014 183.889 59.1344C190.603 58.5673 196.863 61.5614 200.606 67.1868L276.752 181.327C280.382 186.771 280.858 193.508 278.023 199.383Z" fill="#231F20"/>
</g>
<g opacity="0.08">
<path d="M191.056 298.825L172.161 303.588C172.819 313.455 171.572 320.26 168.441 321.054C166.627 324.343 151.497 327.882 145.781 326.748C143.83 326.362 141.154 324.026 138.296 320.464C125.684 322.143 110.872 323.572 109.08 322.551C105.995 320.782 93.5651 283.038 97.3305 276.981C99.2812 273.851 109.715 268.657 119.378 264.347C119.492 258.971 120.671 254.638 123.529 252.279C126.365 249.943 147.823 244.885 149.161 244.59C149.184 244.59 149.206 244.567 149.229 244.567C152.586 243.728 157.259 249.966 161.591 260.105L180.668 255.296C182.301 254.888 183.979 255.909 184.41 257.542L184.728 258.858C185.136 260.513 184.138 262.192 182.482 262.6L164.336 267.159C165.765 271.242 167.126 275.711 168.305 280.429C169.689 285.918 170.71 291.181 171.368 296.012L189.219 291.544C190.875 291.113 192.553 292.133 192.962 293.767L193.302 295.082C193.71 296.738 192.689 298.417 191.056 298.825Z" fill="#231F20"/>
</g>
<path d="M259.854 203.035L127.703 214.172C117.677 215.012 110.419 204.782 114.524 195.595L170.506 70.2944C174.747 60.7903 187.813 59.6788 193.574 68.3437L269.721 182.507C275.346 190.9 269.902 202.196 259.854 203.035Z" fill="#E3EEFF"/>
<path d="M260.285 208.025L128.134 219.162C121.624 219.707 115.5 216.871 111.734 211.541C107.969 206.233 107.288 199.496 109.965 193.531L165.946 68.2529C168.691 62.1059 174.362 58.091 181.076 57.5239C187.79 56.9568 194.05 59.9737 197.793 65.5764L273.94 179.74C277.569 185.161 278.023 191.92 275.187 197.795C272.352 203.647 266.795 207.481 260.285 208.025ZM181.915 67.5044C178.898 67.7539 176.335 69.5685 175.11 72.3359L119.106 197.636C117.904 200.313 118.199 203.352 119.9 205.734C121.601 208.139 124.369 209.409 127.295 209.159L259.445 198.022C262.371 197.772 264.867 196.049 266.16 193.395C267.43 190.741 267.226 187.724 265.592 185.274L189.423 71.1337C187.745 68.6159 184.932 67.2549 181.915 67.5044Z" fill="#FF7536"/>
<path d="M178.808 183.868C178.671 182.167 178.83 180.556 179.329 179.059C179.806 177.562 180.577 176.246 181.598 175.09C182.618 173.933 183.889 173.003 185.386 172.277C186.905 171.551 188.629 171.097 190.58 170.939C192.531 170.78 194.323 170.916 195.979 171.392C197.612 171.846 199.041 172.572 200.243 173.524C201.445 174.5 202.398 175.679 203.146 177.063C203.872 178.447 204.303 180.012 204.462 181.713C204.598 183.414 204.439 185.002 203.94 186.476C203.441 187.951 202.693 189.266 201.672 190.401C200.651 191.557 199.381 192.487 197.839 193.213C196.296 193.939 194.549 194.393 192.599 194.551C190.648 194.71 188.856 194.574 187.246 194.098C185.635 193.644 184.229 192.918 183.027 191.966C181.824 191.013 180.872 189.833 180.146 188.472C179.397 187.111 178.966 185.569 178.808 183.868ZM199.245 159.96L180.214 161.571L172.048 96.7654L196.478 94.7012L199.245 159.96Z" fill="#FF7536"/>
<path d="M51.2615 152.021C59.2665 152.021 65.7559 146.253 65.7559 139.137C65.7559 132.021 59.2665 126.253 51.2615 126.253C43.2564 126.253 36.7671 132.021 36.7671 139.137C36.7671 146.253 43.2564 152.021 51.2615 152.021Z" fill="#F3BDCA"/>
<path d="M65.7559 152.021C69.7521 152.021 72.9917 149.137 72.9917 145.579C72.9917 142.021 69.7521 139.137 65.7559 139.137C61.7596 139.137 58.52 142.021 58.52 145.579C58.52 149.137 61.7596 152.021 65.7559 152.021Z" fill="#F3BDCA"/>
<path d="M36.7444 152.021C41.6677 152.021 45.6588 148.477 45.6588 144.105C45.6588 139.733 41.6677 136.188 36.7444 136.188C31.8211 136.188 27.83 139.733 27.83 144.105C27.83 148.477 31.8211 152.021 36.7444 152.021Z" fill="#F3BDCA"/>
<path d="M92.2041 153.858H20.0951C20.0951 153.858 48.721 139.659 92.2041 153.858Z" fill="#F3BDCA"/>
<path d="M310.777 106.224C318.218 106.224 324.25 100.862 324.25 94.2476C324.25 87.6331 318.218 82.271 310.777 82.271C303.336 82.271 297.303 87.6331 297.303 94.2476C297.303 100.862 303.336 106.224 310.777 106.224Z" fill="#F3BDCA"/>
<path d="M297.28 106.201C301.001 106.201 304.017 103.52 304.017 100.213C304.017 96.906 301.001 94.2249 297.28 94.2249C293.56 94.2249 290.544 96.906 290.544 100.213C290.544 103.52 293.56 106.201 297.28 106.201Z" fill="#F3BDCA"/>
<path d="M324.228 106.201C328.8 106.201 332.507 102.911 332.507 98.8522C332.507 94.7933 328.8 91.5029 324.228 91.5029C319.655 91.5029 315.949 94.7933 315.949 98.8522C315.949 102.911 319.655 106.201 324.228 106.201Z" fill="#F3BDCA"/>
<path d="M273.826 107.131H347.705C347.705 107.131 318.376 96.4025 273.826 107.131Z" fill="#F3BDCA"/>
<path d="M85.2632 257.882C114.592 257.429 114.592 306.038 85.2632 305.584C55.9341 306.038 55.9341 257.429 85.2632 257.882Z" fill="#F3BDCA"/>
<path d="M62.6256 281.178C80.4544 280.951 80.4544 305.811 62.6256 305.584C44.7968 305.811 44.7968 280.951 62.6256 281.178Z" fill="#F3BDCA"/>
<path d="M111.258 266.207C139.339 265.844 139.339 304.995 111.258 304.654C83.1537 304.995 83.1537 265.867 111.258 266.207Z" fill="#F3BDCA"/>
<path d="M132.897 285.442C146.938 285.26 146.938 304.836 132.897 304.654C118.857 304.836 118.857 285.26 132.897 285.442Z" fill="#F3BDCA"/>
<path d="M89.6183 281.064C106.88 280.837 106.88 304.881 89.6183 304.654C72.3793 304.859 72.3793 280.837 89.6183 281.064Z" fill="#F3BDCA"/>
<path d="M169.326 306.718H50.6944C50.6944 306.718 97.8068 289.479 169.326 306.718Z" fill="#F3BDCA"/>
<path d="M107.356 285.714C121.873 285.533 121.873 305.743 107.356 305.562C92.8393 305.743 92.8393 285.533 107.356 285.714Z" fill="#F3BDCA"/>
<path d="M146.28 307.127H23.7017C23.7017 307.127 72.3566 289.298 146.28 307.127Z" fill="#F3BDCA"/>
<path d="M274.62 247.63C309.779 247.788 309.756 299.392 274.62 299.551C239.484 299.392 239.484 247.788 274.62 247.63Z" fill="#F3BDCA"/>
<path d="M247.764 273.012C265.592 272.762 265.592 299.8 247.764 299.551C229.935 299.8 229.935 272.739 247.764 273.012Z" fill="#F3BDCA"/>
<path d="M331.486 301.252H208.726C208.726 301.252 257.495 281.858 331.486 301.252Z" fill="#F3BDCA"/>
<path d="M310.936 257.769C339.04 257.383 339.04 300.004 310.936 299.619C282.831 300.004 282.831 257.383 310.936 257.769Z" fill="#F3BDCA"/>
<path d="M370.32 301.252H251.574C251.574 301.252 298.709 282.516 370.32 301.252Z" fill="#F3BDCA"/>
<path d="M332.598 278.705C346.661 278.501 346.661 299.823 332.598 299.619C318.557 299.823 318.557 278.501 332.598 278.705Z" fill="#F3BDCA"/>
<path d="M292.517 277.934C307.034 277.73 307.034 299.755 292.517 299.551C278 299.778 278 277.73 292.517 277.934Z" fill="#B6EFDA"/>
<path d="M289.273 273.919C306.535 273.67 306.535 299.846 289.273 299.619C272.012 299.846 272.012 273.67 289.273 273.919Z" fill="#B6EFDA"/>
<g opacity="0.1">
<path d="M299.662 313.932C297.893 314.975 283.058 313.728 270.424 312.23C267.611 315.814 264.957 318.196 263.029 318.604C257.313 319.784 242.161 316.449 240.301 313.183C235.061 311.936 234.88 293.744 239.915 272.558C244.974 251.372 253.298 235.199 258.561 236.447C258.583 236.447 258.606 236.469 258.629 236.469C259.967 236.764 281.47 241.55 284.351 243.864C287.209 246.178 288.457 250.488 288.638 255.841C298.347 260.037 308.871 265.118 310.845 268.226C314.678 274.237 302.724 312.117 299.662 313.932Z" fill="#231F20"/>
</g>
<path d="M352.491 301.615C352.128 296.942 346.298 292.723 342.896 290.977C342.85 292.564 341.898 293.948 340.355 295.173C342.465 296.194 347.047 298.734 347.387 301.093C347.795 304.019 343.463 304.722 334.685 304.314C325.906 303.906 320.961 299.188 316.697 294.424C312.591 289.842 305.877 287.62 305.877 287.62C303.201 286.758 303.995 292.474 303.995 292.474C303.995 292.474 309.348 294.515 312.229 297.781C315.518 301.524 324.205 309.282 334.549 309.486C345.232 309.667 353.012 308.057 352.491 301.615Z" fill="#DB284E"/>
<path d="M100.12 302.182C100.12 302.182 60.0851 310.983 54.0968 311.028C48.1085 311.074 42.6646 309.509 43.2544 305.834C43.7988 302.477 48.4715 301.66 51.8285 300.866C51.1027 299.256 50.8758 297.35 51.2161 295.128C51.2388 295.014 51.2615 294.901 51.2841 294.787C46.6341 295.468 38.8993 297.986 37.2888 302.84C35.6102 307.875 37.3568 317.765 53.008 317.107C68.6593 316.449 102.616 308.488 103.41 308.284C104.203 308.079 103.636 306.582 100.12 302.182Z" fill="#DB284E"/>
<path d="M133.963 260.718C133.963 260.718 98.1924 274.6 94.4271 280.656C90.6617 286.712 103.092 324.457 106.177 326.226C109.262 327.995 150.953 322.483 153.561 321.009C156.147 319.512 137.502 263.621 133.963 260.718Z" fill="#C22046"/>
<path d="M146.303 248.242C146.303 248.242 123.529 253.55 120.603 255.977C113.64 261.738 116.588 279.408 120.807 295.309C125.004 311.142 137.116 329.311 142.832 330.445C148.571 331.556 163.678 328.04 165.493 324.751C167.33 321.462 147.573 249.943 146.303 248.242Z" fill="#E66983"/>
<path d="M165.514 324.754C170.75 323.439 170.695 305.244 165.391 284.115C160.086 262.985 151.54 246.922 146.304 248.237C141.067 249.552 141.122 267.746 146.426 288.876C151.731 310.005 160.277 326.068 165.514 324.754Z" fill="#DB284E"/>
<path opacity="0.1" d="M165.514 324.754C170.75 323.439 170.695 305.244 165.391 284.115C160.086 262.985 151.54 246.922 146.304 248.237C141.067 249.552 141.122 267.746 146.426 288.876C151.731 310.005 160.277 326.068 165.514 324.754Z" fill="#231F20"/>
<path d="M179.579 266.275L154.083 272.671C152.427 273.08 150.749 272.082 150.34 270.426L150 269.11C149.592 267.454 150.59 265.776 152.246 265.368L177.741 258.971C179.397 258.563 181.076 259.561 181.484 261.217L181.824 262.532C182.233 264.188 181.212 265.867 179.579 266.275Z" fill="#F7CD97"/>
<path d="M188.13 302.499L162.635 308.896C160.979 309.304 159.3 308.306 158.892 306.65L158.552 305.335C158.143 303.679 159.141 302 160.797 301.592L186.293 295.196C187.949 294.787 189.627 295.785 190.036 297.441L190.376 298.757C190.784 300.413 189.786 302.091 188.13 302.499Z" fill="#F7CD97"/>
<path d="M271.49 249.739C271.49 249.739 307.442 263.167 311.276 269.178C315.109 275.189 303.155 313.092 300.093 314.884C297.031 316.699 255.272 311.686 252.64 310.257C250.032 308.828 267.997 252.688 271.49 249.739Z" fill="#C22046"/>
<path d="M258.992 237.422C258.992 237.422 281.833 242.435 284.782 244.84C291.814 250.51 289.092 268.203 285.054 284.172C281.062 300.05 269.176 318.378 263.46 319.58C257.744 320.759 242.569 317.425 240.709 314.181C238.872 310.892 257.744 239.146 258.992 237.422Z" fill="#E66983"/>
<path d="M259.383 278.045C264.424 256.85 264.252 238.656 258.999 237.406C253.746 236.157 245.401 252.326 240.36 273.521C235.319 294.715 235.49 312.91 240.743 314.16C245.996 315.409 254.342 299.24 259.383 278.045Z" fill="#DB284E"/>
<path opacity="0.1" d="M259.383 278.045C264.424 256.85 264.252 238.656 258.999 237.406C253.746 236.157 245.401 252.326 240.36 273.521C235.319 294.715 235.49 312.91 240.743 314.16C245.996 315.409 254.342 299.24 259.383 278.045Z" fill="#231F20"/>
<path d="M256.474 261.579C255.725 264.755 253.933 267.069 252.504 266.728C251.075 266.388 250.531 263.53 251.279 260.355C252.028 257.179 253.82 254.865 255.249 255.206C256.701 255.546 257.245 258.404 256.474 261.579Z" fill="#83182F"/>
<path d="M248.807 295.558C248.059 298.734 246.267 301.048 244.838 300.708C243.409 300.367 242.864 297.509 243.613 294.334C244.361 291.158 246.153 288.844 247.582 289.185C249.011 289.502 249.578 292.36 248.807 295.558Z" fill="#83182F"/>
</svg>
