<svg width="18" height="19" viewBox="0 0 18 19" fill="none" xmlns="http://www.w3.org/2000/svg">
<path d="M12.4638 10.8458C12.0841 10.8477 11.7098 10.9348 11.3683 11.1007C11.0268 11.2667 10.7269 11.5071 10.4908 11.8044L6.78312 9.4865C6.91824 9.05039 6.91824 8.58359 6.78312 8.14748L10.4908 5.82956C10.8671 6.29554 11.3962 6.61328 11.9843 6.72651C12.5725 6.83973 13.1817 6.74113 13.7042 6.44816C14.2266 6.1552 14.6284 5.68678 14.8386 5.1259C15.0487 4.56501 15.0535 3.94785 14.8522 3.38375C14.6508 2.81965 14.2564 2.34501 13.7386 2.04392C13.2208 1.74283 12.6132 1.63472 12.0233 1.73874C11.4335 1.84276 10.8995 2.1522 10.5159 2.61223C10.1324 3.07227 9.92401 3.65322 9.92777 4.25216C9.93017 4.47897 9.96431 4.70433 10.0292 4.92167L6.32156 7.23959C5.99424 6.82753 5.54683 6.5275 5.04136 6.38109C4.53589 6.23469 3.99739 6.24916 3.50051 6.42249C3.00362 6.59583 2.57297 6.91945 2.26824 7.34849C1.96352 7.77753 1.7998 8.29074 1.7998 8.81699C1.7998 9.34324 1.96352 9.85645 2.26824 10.2855C2.57297 10.7145 3.00362 11.0382 3.50051 11.2115C3.99739 11.3848 4.53589 11.3993 5.04136 11.2529C5.54683 11.1065 5.99424 10.8065 6.32156 10.3944L10.0292 12.7123C9.96431 12.9296 9.93017 13.155 9.92777 13.3818C9.92777 13.8834 10.0765 14.3737 10.3552 14.7908C10.6338 15.2078 11.0299 15.5328 11.4933 15.7248C11.9567 15.9167 12.4666 15.967 12.9585 15.8691C13.4505 15.7712 13.9024 15.5297 14.257 15.175C14.6117 14.8204 14.8532 14.3685 14.9511 13.8766C15.0489 13.3846 14.9987 12.8747 14.8068 12.4113C14.6148 11.9479 14.2898 11.5519 13.8727 11.2732C13.4557 10.9945 12.9654 10.8458 12.4638 10.8458ZM12.4638 2.73055C12.7647 2.73055 13.0589 2.8198 13.3091 2.98699C13.5594 3.15419 13.7544 3.39183 13.8696 3.66987C13.9847 3.94791 14.0149 4.25385 13.9562 4.54901C13.8974 4.84418 13.7525 5.1153 13.5397 5.3281C13.3269 5.5409 13.0558 5.68582 12.7606 5.74453C12.4655 5.80325 12.1595 5.77311 11.8815 5.65795C11.6035 5.54278 11.3658 5.34775 11.1986 5.09752C11.0314 4.8473 10.9422 4.55311 10.9422 4.25216C10.9422 3.84861 11.1025 3.46158 11.3878 3.17622C11.6732 2.89087 12.0602 2.73055 12.4638 2.73055ZM4.34854 10.3386C4.0476 10.3386 3.75341 10.2494 3.50318 10.0822C3.25295 9.91496 3.05793 9.67732 2.94276 9.39928C2.82759 9.12125 2.79746 8.8153 2.85617 8.52014C2.91488 8.22498 3.0598 7.95385 3.2726 7.74105C3.4854 7.52825 3.75653 7.38333 4.05169 7.32462C4.34685 7.26591 4.6528 7.29604 4.93084 7.41121C5.20887 7.52637 5.44652 7.7214 5.61371 7.97163C5.78091 8.22186 5.87015 8.51604 5.87015 8.81699C5.87015 9.22055 5.70984 9.60757 5.42448 9.89293C5.13913 10.1783 4.7521 10.3386 4.34854 10.3386ZM12.4638 14.9034C12.1628 14.9034 11.8687 14.8142 11.6184 14.647C11.3682 14.4798 11.1732 14.2421 11.058 13.9641C10.9428 13.6861 10.9127 13.3801 10.9714 13.085C11.0301 12.7898 11.175 12.5187 11.3878 12.3059C11.6006 12.0931 11.8718 11.9482 12.1669 11.8894C12.4621 11.8307 12.768 11.8609 13.0461 11.976C13.3241 12.0912 13.5618 12.2862 13.729 12.5365C13.8962 12.7867 13.9854 13.0809 13.9854 13.3818C13.9854 13.7854 13.8251 14.1724 13.5397 14.4578C13.2544 14.7431 12.8673 14.9034 12.4638 14.9034Z" fill="#919EAB"/>
</svg>
