<svg width="30" height="30" viewBox="0 0 30 30" fill="none" xmlns="http://www.w3.org/2000/svg">
<path d="M20.7733 17.2427C20.1406 17.2459 19.5166 17.3911 18.9474 17.6676C18.3783 17.9441 17.8785 18.3449 17.4849 18.8404L11.3055 14.9772C11.5307 14.2503 11.5307 13.4723 11.3055 12.7455L17.4849 8.88228C18.1121 9.65891 18.994 10.1885 19.9742 10.3772C20.9545 10.5659 21.9699 10.4016 22.8406 9.91328C23.7113 9.425 24.3811 8.64431 24.7313 7.7095C25.0815 6.77469 25.0895 5.74609 24.754 4.80592C24.4184 3.86575 23.7609 3.07469 22.8979 2.57287C22.035 2.07105 21.0223 1.89087 20.0392 2.06424C19.0561 2.2376 18.1661 2.75333 17.5268 3.52006C16.8876 4.2868 16.5403 5.25504 16.5466 6.25328C16.5506 6.6313 16.6075 7.00689 16.7157 7.36913L10.5363 11.2323C9.99072 10.5456 9.24504 10.0455 8.40259 9.8015C7.56013 9.55749 6.66264 9.5816 5.8345 9.87049C5.00637 10.1594 4.28861 10.6987 3.78073 11.4138C3.27285 12.1289 3 12.9842 3 13.8613C3 14.7384 3.27285 15.5938 3.78073 16.3088C4.28861 17.0239 5.00637 17.5633 5.8345 17.8522C6.66264 18.141 7.56013 18.1652 8.40259 17.9211C9.24504 17.6771 9.99072 17.1771 10.5363 16.4903L16.7157 20.3535C16.6075 20.7158 16.5506 21.0914 16.5466 21.4694C16.5466 22.3053 16.7945 23.1225 17.2589 23.8176C17.7234 24.5127 18.3835 25.0544 19.1558 25.3743C19.9281 25.6942 20.778 25.7779 21.5979 25.6148C22.4178 25.4518 23.1709 25.0492 23.762 24.4581C24.3531 23.867 24.7557 23.1139 24.9188 22.294C25.0819 21.4741 24.9982 20.6242 24.6783 19.8519C24.3584 19.0796 23.8166 18.4194 23.1215 17.955C22.4265 17.4906 21.6093 17.2427 20.7733 17.2427ZM20.7733 3.71727C21.2749 3.71727 21.7652 3.866 22.1822 4.14466C22.5993 4.42332 22.9243 4.81939 23.1163 5.28279C23.3082 5.74619 23.3584 6.25609 23.2606 6.74803C23.1627 7.23997 22.9212 7.69185 22.5665 8.04651C22.2119 8.40118 21.76 8.64271 21.2681 8.74057C20.7761 8.83842 20.2662 8.7882 19.8028 8.59625C19.3394 8.40431 18.9433 8.07926 18.6647 7.66221C18.386 7.24517 18.2373 6.75486 18.2373 6.25328C18.2373 5.58069 18.5045 4.93564 18.9801 4.46005C19.4557 3.98445 20.1007 3.71727 20.7733 3.71727ZM7.2479 16.3973C6.74632 16.3973 6.25601 16.2486 5.83896 15.9699C5.42192 15.6913 5.09687 15.2952 4.90493 14.8318C4.71298 14.3684 4.66276 13.8585 4.76061 13.3666C4.85846 12.8746 5.1 12.4228 5.45466 12.0681C5.80933 11.7134 6.26121 11.4719 6.75315 11.374C7.24508 11.2762 7.75499 11.3264 8.21839 11.5184C8.68178 11.7103 9.07785 12.0353 9.35652 12.4524C9.63518 12.8694 9.78391 13.3597 9.78391 13.8613C9.78391 14.5339 9.51673 15.179 9.04113 15.6546C8.56554 16.1302 7.92049 16.3973 7.2479 16.3973ZM20.7733 24.0054C20.2717 24.0054 19.7814 23.8566 19.3644 23.578C18.9473 23.2993 18.6223 22.9033 18.4303 22.4399C18.2384 21.9765 18.1882 21.4666 18.286 20.9746C18.3839 20.4827 18.6254 20.0308 18.9801 19.6761C19.3347 19.3215 19.7866 19.0799 20.2786 18.9821C20.7705 18.8842 21.2804 18.9345 21.7438 19.1264C22.2072 19.3183 22.6033 19.6434 22.8819 20.0604C23.1606 20.4775 23.3093 20.9678 23.3093 21.4694C23.3093 22.142 23.0421 22.787 22.5665 23.2626C22.0909 23.7382 21.4459 24.0054 20.7733 24.0054Z" fill="#919EAB"/>
</svg>
