<svg width="32" height="32" viewBox="0 0 32 32" fill="none" xmlns="http://www.w3.org/2000/svg">
<path d="M0.5 16C0.5 7.43959 7.43959 0.5 16 0.5C24.5604 0.5 31.5 7.43959 31.5 16C31.5 24.5604 24.5604 31.5 16 31.5C7.43959 31.5 0.5 24.5604 0.5 16Z" fill="white" stroke="#DB284E"/>
<path d="M3.5 16C3.5 9.09644 9.09644 3.5 16 3.5C22.9036 3.5 28.5 9.09644 28.5 16C28.5 22.9036 22.9036 28.5 16 28.5C9.09644 28.5 3.5 22.9036 3.5 16Z" fill="#DB284E" stroke="#DB284E"/>
<path d="M10.167 16.0007L14.3337 20.1673L22.667 11.834" stroke="white" stroke-width="2" stroke-linecap="round" stroke-linejoin="round"/>
</svg>
