<svg width="33" height="32" viewBox="0 0 33 32" fill="none" xmlns="http://www.w3.org/2000/svg">
<path d="M29.3336 26.8694C30.643 25.3921 30.7496 23.2507 30.4216 21.3041C29.9843 18.7014 29.195 17.5254 27.755 16.1627C26.4216 14.8961 24.7203 14.1787 23.1603 13.2641C21.419 12.2401 20.1363 10.7547 18.667 9.38407C17.1976 8.01341 15.523 6.69341 13.539 6.28807C11.4296 5.85607 9.16297 6.53341 7.50964 7.90941C5.86655 9.33175 4.7739 11.2849 4.42164 13.4294C4.2403 14.4534 4.20564 15.5147 3.85364 16.4934C3.21364 18.2827 1.6003 19.6134 1.08297 21.4454C0.903042 22.1884 0.846287 22.956 0.914971 23.7174C0.981638 24.8107 1.18164 25.9734 1.96564 26.7521" fill="#FBE9ED"/>
<path d="M21.2324 16.4318C20.699 15.6658 20.3549 14.7842 20.2283 13.8594C20.1018 12.9346 20.1964 11.993 20.5044 11.1118C20.7711 11.3785 21.0618 11.6452 21.3524 11.8852C21.1159 12.832 21.1699 13.8282 21.5074 14.7439C21.8448 15.6597 22.45 16.4527 23.2444 17.0198C24.0387 17.5868 24.9853 17.9016 25.961 17.9233C26.9368 17.9449 27.8964 17.6724 28.7151 17.1411C28.9314 17.4104 29.1283 17.6947 29.3044 17.9918C28.0197 18.8306 26.4591 19.1368 24.9527 18.8456C23.4463 18.5545 22.1121 17.6889 21.2324 16.4318Z" fill="#FBE9ED"/>
<path d="M23.2001 15.0587C22.7453 14.4091 22.5269 13.6232 22.5815 12.832C22.7548 12.9494 22.9308 13.064 23.1148 13.1707C24.6748 14.0854 26.3868 14.8054 27.7095 16.072L27.7628 16.1227C27.0049 16.5391 26.1199 16.6609 25.2777 16.4645C24.4355 16.2681 23.6956 15.7674 23.2001 15.0587Z" fill="#FBE9ED"/>
<path d="M19.4051 17.7066C18.5713 16.5101 18.0745 15.1115 17.9666 13.6572C17.8587 12.2029 18.1437 10.7464 18.7917 9.43994C19.0131 9.64794 19.2291 9.86127 19.4451 10.0719C18.8066 11.4897 18.6397 13.075 18.969 14.5947C19.2983 16.1143 20.1063 17.4883 21.2745 18.5147C22.4426 19.541 23.9091 20.1656 25.4585 20.2966C27.0079 20.4277 28.5585 20.0582 29.8824 19.2426C29.9731 19.5093 30.0584 19.7759 30.149 20.0906C28.3847 21.1098 26.3024 21.4303 24.3132 20.9889C22.3241 20.5476 20.5727 19.3764 19.4051 17.7066Z" fill="#FBE9ED"/>
<path d="M18.2828 18.4879C17.2741 17.037 16.6898 15.3336 16.5956 13.569C16.5013 11.8045 16.901 10.0486 17.7495 8.49854C18.0517 8.75809 18.3468 9.02476 18.6348 9.29853L18.7948 9.45587C18.0243 11.0184 17.7762 12.7873 18.0872 14.5015C18.3981 16.2158 19.2517 17.7848 20.522 18.9771C21.7924 20.1695 23.4122 20.9221 25.1427 21.124C26.8732 21.3259 28.6228 20.9664 30.1335 20.0985C30.2188 20.4399 30.2962 20.8079 30.3655 21.2132C30.3815 21.3092 30.3948 21.4079 30.4082 21.5039C28.3635 22.5496 26.0095 22.8203 23.7809 22.266C21.5522 21.7116 19.5993 20.3697 18.2828 18.4879Z" fill="#EB92A7"/>
<path d="M20.1089 17.2134C19.3922 16.1828 18.9543 14.9841 18.838 13.7341C18.7216 12.4842 18.9307 11.2253 19.4449 10.0801C19.7996 10.4267 20.1489 10.7734 20.5116 11.1121C20.1053 12.2754 20.0735 13.5367 20.4206 14.719C20.7678 15.9013 21.4765 16.9452 22.4472 17.7042C23.418 18.4631 24.602 18.899 25.8332 18.9507C27.0643 19.0023 28.2807 18.6671 29.3116 17.9921C29.5449 18.3919 29.7387 18.8134 29.8903 19.2507C28.3073 20.2217 26.4134 20.5516 24.5953 20.1729C22.7773 19.7943 21.1726 18.7357 20.1089 17.2134Z" fill="#EB92A7"/>
<path d="M22.0801 15.8399C21.6832 15.2711 21.4128 14.6237 21.2872 13.9415C21.1617 13.2593 21.1838 12.5582 21.3521 11.8853C21.7436 12.2249 22.155 12.541 22.5841 12.8319C22.5424 13.4585 22.6703 14.0848 22.9543 14.6449C23.2383 15.2051 23.668 15.6783 24.1981 16.015C24.7282 16.3517 25.3393 16.5394 25.967 16.5583C26.5947 16.5772 27.2159 16.4267 27.7654 16.1226C28.1029 16.4419 28.4199 16.7822 28.7147 17.1413C27.6552 17.8243 26.3722 18.0704 25.1351 17.8278C23.898 17.5851 22.8031 16.8726 22.0801 15.8399Z" fill="#EB92A7"/>
<path d="M2.31445 26.9813C2.31445 26.9813 4.31979 21.1813 13.4078 23.3146C22.4958 25.4479 19.9998 26.8373 25.4398 25.4346C29.9358 24.2773 31.1065 26.9813 31.1065 26.9813" fill="#FBE9ED"/>
<path d="M5.6582 26.8452H31.1062" stroke="#707070" stroke-width="2" stroke-miterlimit="10" stroke-linecap="round"/>
<path d="M3.87988 26.8452H4.54122" stroke="#707070" stroke-width="2" stroke-miterlimit="10" stroke-linecap="round"/>
<path d="M1.05078 26.8452H2.73611" stroke="#707070" stroke-width="2" stroke-miterlimit="10" stroke-linecap="round"/>
<path d="M4.35161 15.3199C4.35161 15.3199 2.44495 13.3786 2.04495 12.7199C1.58628 11.9652 4.44495 10.9146 4.44495 10.9146L5.27161 11.9119C5.42011 11.7191 5.60049 11.5532 5.80495 11.4212C5.85554 11.3914 5.91158 11.372 5.96977 11.3642C6.02797 11.3564 6.08714 11.3603 6.1438 11.3757C6.20046 11.3911 6.25347 11.4177 6.29969 11.4539C6.34592 11.4901 6.38442 11.5352 6.41295 11.5866L6.24495 11.7679C6.24495 11.7679 5.44495 12.8346 5.65828 13.3092C5.87161 13.7839 6.26361 14.3999 6.26361 14.3999L5.59961 14.9866L4.35161 15.3199Z" fill="#E89D89"/>
<path d="M6.8002 12.9653C6.8002 12.9653 4.70153 14.8986 3.2002 15.4879C3.2002 15.4879 6.9042 22.6026 8.70686 22.7333C9.24795 22.7606 9.78791 22.6607 10.2834 22.4417C10.779 22.2227 11.2162 21.8905 11.5602 21.4719V26.5813H24.3335L23.8002 24.5039C23.8002 24.5039 25.8669 21.9173 25.6002 20.2133C25.3739 18.7652 24.9364 17.3582 24.3015 16.0373C23.7917 15.053 22.996 14.2461 22.0189 13.7226C20.4375 12.8746 17.4855 12.2826 14.4962 13.2613C14.4962 13.2613 10.7255 14.3626 10.1895 15.4906C9.79486 16.3226 9.2562 17.3253 9.2562 17.3253L6.8002 12.9653Z" fill="#DB284E"/>
<path d="M5.30089 10.3599L1.98356 13.4239C1.90175 13.5013 1.85346 13.6077 1.84898 13.7203C1.84449 13.8329 1.88417 13.9428 1.95956 14.0265L2.02623 14.0985C2.10199 14.1833 2.20825 14.2345 2.32173 14.241C2.4352 14.2475 2.54662 14.2087 2.63156 14.1332L5.94623 11.0612C5.6861 10.8732 5.46661 10.6347 5.30089 10.3599Z" fill="#707070"/>
<path d="M7.36001 6.74381C6.93544 6.73895 6.5173 6.84782 6.14901 7.05912C5.78072 7.27043 5.47571 7.57646 5.26563 7.94545C5.05556 8.31445 4.94808 8.73294 4.95436 9.1575C4.96064 9.58206 5.08045 9.99719 5.30135 10.3598L5.58401 10.0931C5.40825 9.79314 5.31616 9.4515 5.31735 9.10381C5.32094 8.62376 5.49686 8.16098 5.81305 7.79976C6.12924 7.43854 6.56467 7.20291 7.04001 7.13581C7.14069 7.12099 7.24226 7.11297 7.34401 7.11181C7.62033 7.11648 7.89269 7.17822 8.14401 7.29314C8.25147 7.3428 8.35489 7.40075 8.45335 7.46647C8.81393 7.70623 9.08735 8.05612 9.23283 8.46397C9.37831 8.87182 9.38805 9.31577 9.2606 9.7296C9.13315 10.1434 8.87534 10.505 8.52562 10.7603C8.1759 11.0157 7.75301 11.1511 7.32001 11.1465H7.18401C7.01698 11.1342 6.85213 11.1011 6.69335 11.0478C6.59161 11.0073 6.49349 10.9582 6.40001 10.9011C6.34299 10.8696 6.28779 10.8349 6.23468 10.7971L5.94935 11.0638C6.25355 11.2833 6.60524 11.4278 6.97583 11.4858C7.34643 11.5437 7.72546 11.5134 8.08213 11.3973C8.4388 11.2812 8.76304 11.0825 9.02849 10.8175C9.29394 10.5525 9.49311 10.2286 9.60981 9.8721C9.72651 9.51562 9.75744 9.13663 9.7001 8.76595C9.64276 8.39526 9.49875 8.04333 9.2798 7.73878C9.06084 7.43422 8.77311 7.18563 8.43999 7.0132C8.10687 6.84078 7.73777 6.74939 7.36268 6.74647L7.36001 6.74381Z" fill="#707070"/>
<path d="M5.60005 10.1146C5.60005 10.1146 5.60005 10.1146 5.60005 10.0986L5.31738 10.3653C5.4831 10.6401 5.70259 10.8787 5.96272 11.0666L6.24805 10.8C5.98096 10.6259 5.7589 10.391 5.60005 10.1146Z" fill="#707070"/>
<path d="M5.60017 10.0747L5.57617 10.0987C5.57617 10.0987 5.57617 10.0987 5.57617 10.1147L5.60017 10.0747Z" fill="#78DFFF"/>
<g opacity="0.5">
<path opacity="0.5" d="M5.91419 7.71191C5.68405 7.9419 5.51341 8.22449 5.41703 8.53525C5.32065 8.846 5.30144 9.17556 5.36105 9.49541C5.42066 9.81526 5.5573 10.1158 5.75915 10.3709C5.96101 10.6261 6.22199 10.8283 6.51953 10.9599V10.9252L5.91419 7.71191Z" fill="#78DFFF"/>
<path opacity="0.5" d="M7.96706 11.0346L7.22306 7.12256C7.11439 7.1283 7.00643 7.14347 6.90039 7.16789L7.64972 11.1119C7.75727 11.094 7.86334 11.0682 7.96706 11.0346Z" fill="#78DFFF"/>
<path opacity="0.5" d="M8.53242 10.7439C8.74464 10.5874 8.92396 10.3906 9.06012 10.1647C9.19628 9.9389 9.28663 9.68846 9.326 9.42771C9.36538 9.16696 9.353 8.90101 9.28959 8.64504C9.22618 8.38908 9.11297 8.14811 8.95642 7.93589C8.66116 7.53133 8.22399 7.25321 7.73242 7.15723L8.42842 10.8186L8.53242 10.7439Z" fill="#78DFFF"/>
<path opacity="0.5" d="M6.5274 10.9333C6.54755 10.8217 6.61101 10.7227 6.70394 10.6577C6.79686 10.5928 6.9117 10.5672 7.0234 10.5866L7.1194 10.6053C7.2288 10.6255 7.32609 10.6874 7.39076 10.7779C7.45543 10.8685 7.48243 10.9806 7.46606 11.0906V11.128C7.53006 11.128 7.59406 11.128 7.65806 11.112L6.90073 7.16797C6.62816 7.22799 6.37112 7.34425 6.14606 7.5093C6.06395 7.57118 5.98641 7.63891 5.91406 7.71197L6.52473 10.912L6.5274 10.9333Z" fill="#9FEDFF"/>
<path opacity="0.5" d="M7.11934 10.592L7.02334 10.5734C6.96707 10.5639 6.90948 10.5657 6.85392 10.5787C6.79837 10.5918 6.74597 10.6157 6.69979 10.6493C6.65361 10.6828 6.61457 10.7252 6.58496 10.7739C6.55535 10.8227 6.53577 10.8769 6.52734 10.9334V10.976C6.81909 11.1008 7.13598 11.1556 7.45268 11.136V11.0987C7.47553 10.9873 7.45327 10.8714 7.39078 10.7764C7.32829 10.6814 7.23067 10.6151 7.11934 10.592Z" fill="#9FEDFF"/>
<path opacity="0.5" d="M8.41838 10.8185L7.73304 7.15717C7.56898 7.12435 7.4014 7.1127 7.23438 7.1225L7.97838 11.0345C8.13359 10.9814 8.28144 10.9088 8.41838 10.8185Z" fill="#9FEDFF"/>
</g>
<path opacity="0.1" d="M11.5547 25.9014V26.5814H24.3334L24.1627 25.9014H12.2H11.5547Z" fill="#231F20"/>
<path d="M19.8403 24.1279C19.4003 24.5946 19.2137 24.8639 19.0617 24.9279C18.795 25.0405 18.5142 25.1159 18.227 25.1519C17.9298 25.1932 17.6475 25.3077 17.4057 25.4853C17.2297 25.6186 17.0937 25.7786 17.1577 25.9359C17.299 26.2933 17.611 25.7733 18.1577 25.9546C18.1577 25.9546 17.3097 26.8106 17.0643 27.0666C16.7337 27.4106 16.3817 28.4666 17.235 28.9893C17.9977 29.4559 18.6777 29.2826 19.4243 28.5306C19.8395 28.1303 20.1546 27.6379 20.3443 27.0933C20.5123 26.6399 20.8963 26.1679 21.531 25.6426L19.8403 24.1279Z" fill="#F2AA91"/>
<path d="M2.0891 11.9714L3.69447 10.8377C3.86085 10.7202 4.06709 10.6736 4.26782 10.7082C4.46855 10.7427 4.64733 10.8556 4.76483 11.022L5.03865 11.4097C5.13137 11.541 5.19733 11.6893 5.23275 11.8461C5.26817 12.0029 5.27236 12.1651 5.24508 12.3235C5.21781 12.4819 5.1596 12.6334 5.07378 12.7693C4.98796 12.9052 4.87621 13.0229 4.74491 13.1156L3.88668 13.7217C3.6214 13.9056 3.29422 13.9773 2.97636 13.9211C2.6585 13.8649 2.37569 13.6855 2.1895 13.4218L1.91568 13.0341C1.79819 12.8677 1.75159 12.6615 1.78616 12.4607C1.82072 12.26 1.93361 12.0812 2.09999 11.9637L2.0891 11.9714Z" fill="#F2AA91"/>
<path d="M16.0218 10.4371C17.7317 10.4371 19.1178 9.05099 19.1178 7.34112C19.1178 5.63124 17.7317 4.24512 16.0218 4.24512C14.3119 4.24512 12.9258 5.63124 12.9258 7.34112C12.9258 9.05099 14.3119 10.4371 16.0218 10.4371Z" fill="#221F20"/>
<path d="M13.3178 6.15486C13.3178 6.15486 12.4164 9.83752 13.3338 11.5122C14.2511 13.1869 15.5124 11.9015 15.5124 11.9015L15.2724 13.2162C15.2724 13.2162 16.0138 14.6802 16.5818 14.6802C16.5818 14.6802 17.8831 13.3469 18.5231 12.9175C18.5231 12.9175 17.9391 12.6509 17.9898 9.87486C17.9898 9.87486 19.2644 9.17886 18.5604 7.93352C17.7924 6.53619 17.1471 9.33352 17.1471 9.33352C17.1471 9.33352 16.9844 4.65352 13.3178 6.15486Z" fill="#F2AA91"/>
<path d="M17.2477 5.52818C18.015 5.52818 18.6371 4.90615 18.6371 4.13885C18.6371 3.37154 18.015 2.74951 17.2477 2.74951C16.4804 2.74951 15.8584 3.37154 15.8584 4.13885C15.8584 4.90615 16.4804 5.52818 17.2477 5.52818Z" fill="#221F20"/>
<path d="M19.0322 24.1598C19.0322 24.1598 20.8989 25.3465 21.6269 26.5172L22.6242 25.5998L19.8082 23.3892L19.0322 24.1598Z" fill="#DB284E"/>
<path d="M13.0107 7.94416C13.0107 7.94416 14.0774 7.0455 14.1547 6.4935C14.1547 6.4935 14.7041 8.20283 17.2027 8.29616L17.0667 5.6615L14.3521 5.3335L13.1974 6.06683L13.0107 7.94416Z" fill="#221F20"/>
<path opacity="0.1" d="M20.2669 17.7334L21.3336 20.4001L19.0322 24.1601L19.0562 24.1734C20.011 24.6959 20.8372 25.4247 21.4749 26.3067L21.6269 26.5147L23.8136 24.5014" stroke="#231F20" stroke-miterlimit="10" stroke-linecap="round"/>
<path opacity="0.1" d="M11.5544 21.4719L11.3438 18.3013" stroke="#231F20" stroke-miterlimit="10" stroke-linecap="round"/>
<path opacity="0.1" d="M9.25879 17.3252L9.70412 18.0265" stroke="#231F20" stroke-miterlimit="10" stroke-linecap="round"/>
</svg>
