<svg width="878" height="307" fill="none" xmlns="http://www.w3.org/2000/svg"><g clip-path="url(#a)"><path d="M868.754-47.486c33.701 85.5-48 73.5-100 150.798-29.961 50.619 5 146.202-101.5 146.202-70.756 0-99.15-97.584-148.824-146.202-41.955-41.063-120.268-73.878-111.271-122.438 8.931-48.202 95.64-34.891 144.605-57.474 47.793-22.043 72.758-79.929 130.894-69.59 65.164 11.589 164.762 44.579 186.096 98.704Z" fill="#FFE0EE"/><path d="m520.228 73.335-34.491 142.692 115.372 30.304L635.6 103.639 520.228 73.335Z" fill="#ECB8AB"/><path d="m526.804 84.703-26.278 108.715 97.849 25.701 26.278-108.714-97.849-25.702Z" fill="#FEF1EB"/><path d="M535.983 113.791s.545-3.864 2.649-3.889c2.882-.013 3.442-.201 3.442-.201s-3.63.393-3.871-2.352c-.241-2.746.138-2.812.138-2.812s-.623 3.608-2.243 3.543c-1.62-.065-2.837-.441-2.837-.441s3.255 1.368 3.244 2.533c-.012 1.164-.522 3.619-.522 3.619Z" fill="#F7B11F"/><path d="M536.378 113.904c.126-.941.422-1.898.94-2.691.363-.598.83-.867 1.511-.9.849-.017 1.731-.029 2.587-.115a2.83 2.83 0 0 0 .792-.129c.419-.132.356-.88-.123-.825-.752.062-1.56.011-2.241-.308-.52-.231-.955-.631-1.132-1.25-.124-.472-.14-1.004-.162-1.465 0-.354-.033-.71.001-1.06l.027-.28.01-.105c.011-.105-.003.035 0 0-.03-.038.111-.094 0 0a.436.436 0 0 1-.144.091c-.154-.158-.338-.354-.492-.511-.156.902-.422 1.898-.97 2.653-.155.195-.346.422-.558.506-.319.143-.748.027-1.083-.009a13.062 13.062 0 0 1-1.999-.353c-.43-.116-.736.594-.313.78.781.33 1.555.73 2.219 1.224.187.161.409.325.563.483l.181.231.053.147c.04.287-.024.598-.055.913-.037.384-.108.765-.176 1.112-.085.52-.169 1.041-.287 1.559-.025.598.767.823.851.302.082-.486.193-.934.274-1.42.105-.73.284-1.524.288-2.265-.012-.567-.374-1.029-.783-1.355a11.14 11.14 0 0 0-1.592-1.051c-.355-.179-.71-.358-1.069-.502-.094.273-.185.51-.313.779.493.158.992.247 1.462.296.701.11 1.563.307 2.207-.049.93-.502 1.358-1.764 1.655-2.722.098-.307.162-.618.226-.929.064-.312-.184-.55-.493-.512-.275.042-.376.384-.433.626-.183.828-.07 1.759.016 2.615.086.857.458 1.568 1.121 2.062.536.41 1.231.589 1.901.66.436.046.839.089 1.285.03-.04-.287-.083-.539-.123-.825-.033-.004-.07.028-.137.02-.101-.01.067.008 0 0-.034-.003-.071.028-.104.025-.104.024-.205.013-.343.034-.922.079-1.872.085-2.787.094-1.53.05-2.328 1.626-2.729 2.961a5.451 5.451 0 0 0-.29 1.241c-.081.486.677.708.761.187Z" fill="#F7B11F"/><path d="M536.977 149.013s2.729 6.927.017 8.982c-2.713 2.055-.222 2.651-.222 2.651s1.573.599 2.511.035c-.988.382-1.775.435-2.098.61-.178.086.461 1.214.619 1.337 1.281 1.165 2.83 1.656 4.464 1.276 2.326-.514 1.163-7.124 1.163-7.124l-6.454-7.767ZM602.84 147.716c.908.806 1.079 2.198.404 3.213-2.571 3.758-7.612 12.342-11.373 17.516-2.819 3.871-2.792 3.593-3.552 4.07-2.238 1.368-2.127.219-3.632.332-4.826.373-1.808-2.737-1.859-2.567-1.821 5.145 9.85-19.692 13.876-24.801.81-1 2.252-1.155 3.223-.307l2.913 2.544Z" fill="#F19473"/><path d="M584.589 133.236s13.853 14.026 15.724 19.26c1.094 3.074 11.467-4.476 12.418-13.961.675-6.634-5.068-15.008-14.277-18.078-20.142 3.257-13.865 12.779-13.865 12.779Z" fill="#F19473"/><path d="M586.234 109.261s-7.175-5.514-16.754-5.112c-10.672.454-24.239 7.683-33.017 26.485-4.031 12.902 4.136 28.509 4.136 28.509s36.391-.276 42.589-11.354c6.265-11.071 3.046-38.528 3.046-38.528Z" fill="#F19473"/><path d="M557.257 166.109c2.098 2.868 4.667 5.086 7.35 7.177.443.331.793.58 1.172.869a5.07 5.07 0 0 0 1.316.779c.521.234 1.192.309 1.79.446 6.474 1.498 12.314.082 17.62-3.887 3.657-2.714 6.502-6.151 9.165-9.819.662-.873 1.921-2.663 3.14-5.44.514-1.1.994-2.205 1.505-3.271-2.79-7.648-8.038-13.396-13.73-18.773-11.79-.233-23.268-2.994-34.887-4.647-3.717-.522-7.888-1.621-11.531.954-2.328 5.11.855 10.802 5.523 12.729 2.481 1.015 2.391 2.304 1.42 4.266-5.877 11.627-12.013 23.119-18.761 34.262-.933 1.58-2.078 2.189-3.852 2.271-5.188.296-10.443.233-15.534 1.629.057.462-.03 1.014.208 1.357 6.376 9.876 14.774 17.1 25.745 20.892 5.205 1.636 10.635 1.648 15.887 2.798 10.672.564 20.179-2.618 28.625-9.218-3.966-3.919-8.765-6.598-13.328-9.602-2.458-1.609-3.949-3.391-3.139-6.494-8.717-7.435-12.461-16.806-10.784-28.868 2.226 3.303 3.011 6.761 5.08 9.59Z" fill="#F3CDC2"/><path d="M574.558 145.029c-.86-.236-1.639-.603-2.3-1.133-3.25-2.535-3.068-7.559-3.048-7.767.03-.311.255-.531.561-.532.305-.001.517.268.52.583-.003.035-.144 4.643 2.629 6.844 1.829 1.431 4.498 1.554 8.006.371a.52.52 0 0 1 .678.356c.108.292-.06.623-.339.697-2.628.862-4.888 1.065-6.707.581ZM595.201 159.589a3.549 3.549 0 0 1-1.266-.598c-2.535-1.862-2.192-6.454-2.175-6.627a.532.532 0 0 1 .591-.495.552.552 0 0 1 .483.615c-.003.035-.299 4.14 1.729 5.63 1.108.826 2.747.729 4.912-.256a.548.548 0 0 1 .719.291c.107.292.01.597-.276.74-1.873.773-3.461 1.051-4.717.7ZM579.708 159.611c-.497-.126-.944-.423-1.381-.824-.218-.2-.218-.552-.027-.777.192-.225.531-.222.783-.017.528.516 1.089.685 1.68.54 3.475-.806 7.911-10.865 9.332-14.682.098-.306.414-.411.709-.307.296.103.434.435.303.737-.225.573-5.354 14.284-10.078 15.373-.481.051-.924.072-1.321-.043ZM566.001 159.88c-3.709-.978-4.347-5.27-4.135-7.462a.533.533 0 0 1 .591-.496.553.553 0 0 1 .484.617c-.02.208-.46 5.469 3.568 6.308.299.069.473.37.447.648a.577.577 0 0 1-.622.458c-.134-.015-.232-.061-.333-.073ZM545.626 137.608c-.164-.054-.292-.138-.346-.285-.141-.296-.01-.597.242-.744l2.676-1.348c-.272-.346-.557-.554-.923-.63-1.027-.255-2.159.565-2.159.565a.56.56 0 0 1-.769-.121.602.602 0 0 1 .111-.794c.074-.062 1.534-1.126 3.059-.745.829.199 1.487.763 1.94 1.69l.255.52-3.743 1.86c-.108.058-.245.077-.343.032Z" fill="#452A2D"/><path d="M549.727 127.892s18.606 7.919 36.901 5.765c0 0 10.399-.168 14.726-4.548 3.609-3.62 2.293-10.693-6.183-18.111-7.633-6.659-21.221-9.995-29.163-5.775-11.521 6.129-16.281 22.669-16.281 22.669Z" fill="#F19473"/><path d="M564.493 180.436c.497-1.634 1.301-3.621 1.765-5.259.02-.209.242-.395.154-.546-.316-.599-1.206-.875-1.838-1.368-2.683-2.132-5.254-4.357-7.358-7.199-2.071-2.837-2.857-6.306-5.122-9.588-1.644 12.103 2.07 21.498 10.796 28.956.309-.388.507-.683.652-1.124l.006-.07.945-3.802ZM561.865 140.343c-.067.343-.389.518-.722.446-.332-.073-.503-.408-.436-.752.067-.344.389-.518.722-.446.329.107.5.443.436.752ZM565.357 143.466c-.068.343-.39.518-.722.446-.333-.073-.504-.408-.437-.752.067-.344.39-.518.722-.446.296.104.5.443.437.752ZM561.413 144.286c-.067.344-.389.518-.722.446-.332-.073-.504-.408-.436-.752.067-.343.389-.518.722-.445a.59.59 0 0 1 .436.751ZM589.286 160.128c-.067.343-.389.518-.722.446-.332-.073-.504-.408-.436-.752.067-.343.389-.518.722-.446a.59.59 0 0 1 .436.752ZM592.78 163.218c-.067.343-.389.518-.722.445-.332-.072-.503-.407-.436-.751.067-.344.389-.518.722-.446.329.107.534.446.436.752ZM588.871 164.04c-.067.344-.389.518-.722.446-.332-.073-.504-.408-.436-.752.067-.343.389-.518.722-.446.299.069.503.408.436.752Z" fill="#ECB8AB"/><path d="M602.73 124.443s-2.69 10.25-16.13 9.202c9.418 3.332 15.744-1.708 16.13-9.202Z" fill="#EA856A"/><path d="M616.511 221.335c-.121.196-.238.357-.359.553-19.46 20.112-48.513 29.326-77.316 21.662-28.904-7.675-50.237-30.405-58.046-57.906 4.35-1.817 12.683.399 28.094.648 0 0 24.614 40.629 70.426 15.708 2.578 1.402 6.683 2.103 37.201 19.335Z" fill="#F05C71"/><path d="M538.366 25.831c-10.854 26.884-28.585 55.711-79.883 66.35-48.062 9.967-101.37 9.266-152.729 0-57.597-10.393-88.5-13.668-136.5-45.668-34-29.5-122.863-21.586-81-45.5 38.411-21.942 190.462-71.682 251.45-73.235 63.28-1.612 135.48-14.237 181.695 8.574 46.87 23.133 29.216 59.141 16.967 89.48Z" fill="#EEE0FF" fill-opacity=".5"/><path d="M147.254 57.514c119.5 76 251.5 75.5 290.5 64-47.667 14.5-172.5 22-290.5-64Z" fill="#F7F0FF"/><path d="M670.254 281.014c91 5.5 65.5-81 133.5-170-6.333 8.641-28 40.438-48 106.5s-64 70.525-85.5 63.5Z" fill="#FFE0EE"/><path d="m698.187 58.147-10.629 12.275c-1.147 1.331-1.06 3.385.217 4.58l19.676 18.504c1.277 1.196 3.226 1.083 4.395-.249l10.628-12.275-24.287-22.835Z" fill="#435876"/><path d="m764.381 8.21-1.082-1.016-18.357-17.262c-4.264 10.83-45.89 52.87-50.544 67.108-.909 2.752-1.125 3.678.238 4.941l11.733 11.035 1.082 1.015 10.693 10.041c1.342 1.264 2.252 1.377 4.698-.225 12.143-7.92 49.981-52.847 59.917-58.376L764.381 8.21Z" fill="#BED6CE"/><path d="m748.385-14.08-3.464 4.006 37.828 35.552 3.465-4.005-37.829-35.553Z" fill="#435876"/><path d="M767.238 20.96c-4.913-4.649-9.827-9.275-14.719-13.923-1.126-1.06-2.338-2.166-3.81-2.392-2.424-.36-4.502 1.693-6.148 3.565a653.81 653.81 0 0 0-30.607 37.797c-1.148 1.512-2.295 3.091-2.728 4.964-1.061 4.558 2.403 8.8 5.671 12.004 1.775 1.76 3.724 3.543 6.148 3.994 4.005.768 7.641-2.369 10.628-5.28 10.412-10.2 20.846-20.398 31.258-30.598 1.472-1.421 2.944-2.91 3.831-4.784.888-1.872 1.039-4.264-.13-5.957" fill="#C7E6DA"/><path d="m680.381 176.633-3.028-2.685.586-5.525a1.638 1.638 0 0 0-1.035-1.694 1.641 1.641 0 0 0-1.913.532l-3.338 4.441-4.045-.1a1.623 1.623 0 0 0-1.555 1.024 1.623 1.623 0 0 0 .44 1.809l3.011 2.673-.767 6.014a1.641 1.641 0 0 0 1.033 1.726 1.64 1.64 0 0 0 1.933-.56l3.54-4.923 4.024.097a1.62 1.62 0 0 0 1.556-1.021 1.62 1.62 0 0 0-.442-1.808Zm6.246-35.319-3.093-2.744.067-4.098a1.641 1.641 0 0 0-1.046-1.551 1.644 1.644 0 0 0-1.822.422l-2.744 3.044-4.135-.102a1.625 1.625 0 0 0-1.556 1.023 1.623 1.623 0 0 0 .441 1.809l3.095 2.745-.068 4.097a1.643 1.643 0 0 0 1.045 1.551 1.643 1.643 0 0 0 1.822-.422l2.744-3.044 4.135.102a1.624 1.624 0 0 0 1.556-1.023 1.625 1.625 0 0 0-.441-1.809Z" fill="#FFFEFC"/><path d="M397.812 111.451c.053-.081.107-.188.188-.269.134-.161.268-.322.295-.537.027-.134-.027-.241-.161-.295-.134-.054-.269-.188-.43-.107-.027.026-.107 0-.134-.027-.161-.188-.403-.161-.617-.215a154.903 154.903 0 0 0-3.813-.671c-1.262-.215-2.524-.403-3.785-.591-.645-.08-1.289-.134-1.933-.215-1.209-.134-2.444-.295-3.652-.429-.053 0-.107-.027-.161-.027-.107 0-.241-.027-.268-.161-.027-.134.027-.242.161-.296.215-.08.429-.187.671-.268.483-.134.993-.215 1.477-.349.483-.107.939-.242 1.396-.376.59-.161 1.181-.349 1.772-.483a38.424 38.424 0 0 1 1.691-.43c.698-.188 1.396-.376 2.121-.456.43-.054.859-.134 1.262-.215.027 0 .054-.027.054 0 .161.107.295-.054.429-.054.161 0 .322-.053.483-.107.162-.054.349-.027.537-.081a24.52 24.52 0 0 1 1.37-.268 22.11 22.11 0 0 0 2.309-.537c.268-.081.536-.134.805-.215.027 0 .054-.027.081-.027.241-.134.268-.107.456.108a.985.985 0 0 1 .107-.242h.135c.053 0 .107-.027.161-.027v-.241c.107 0 .214.026.376.026-.081-.107-.135-.161-.188-.241-.054.027-.135.054-.188.08.107-.161-.135-.134-.135-.241.027-.054.081-.081.135-.161-.161 0-.269.08-.242.161.054.161-.081.107-.107.161-.242-.242-.457-.51-.564-.832.134-.081.08-.215.08-.323-.053.027-.107.081-.107.135 0 .053.027.134.027.188-.322-.242-.376-.188-.242-.725-.08.053-.134.107-.215.161a1.685 1.685 0 0 0-.08-.215c-.027-.054-.108-.107-.161-.188.027-.08.027-.161.053-.268-.161.053-.241-.054-.322-.135-.107-.107-.214-.188-.295-.322-.161-.215-.268-.456-.43-.671-.241-.322-.51-.618-.778-.913-.269-.295-.43-.671-.671-.966-.43-.591-.86-1.155-1.262-1.719-.483-.644-.967-1.288-1.45-1.96a185.796 185.796 0 0 1-2.604-3.758c-.188-.296-.376-.59-.564-.86a8.35 8.35 0 0 0-.456-.563c-.054-.054-.081-.108-.108-.161.027-.188.403-.215.188-.51.295.053.51.188.698.322.483.268.94.564 1.396.832.618.322 1.182.698 1.745 1.128.725.537 1.45 1.074 2.175 1.637.537.403 1.074.806 1.611 1.182.913.644 1.852 1.288 2.765 1.933.43.295.832.617 1.262.886.51.349 1.047.698 1.557 1.047.242.16.457.349.671.51.188.161.403.295.618.43.242.134.537.107.832.16-.027-.187-.08-.322-.08-.456 0-.16.027-.295.053-.456 0-.054.054-.135.027-.188-.134-.215.054-.403.081-.59 0-.081.08-.162.161-.243-.081-.16-.134-.349 0-.51-.108-.268.054-.537.054-.805 0-.269.026-.51.053-.779v-.026c.161-.457.108-.913.188-1.397.054 0 .108-.026.188-.026.107-.162-.134-.108-.161-.242.107-.054.215-.107.349-.188-.081-.027-.161 0-.188-.054-.107-.053.081-.188-.054-.268.081-.054.081-.134.027-.215-.027-.027 0-.08.027-.134.054-.054.081-.134.027-.188-.027-.027-.027-.054 0-.08.107-.35.08-.699.161-1.048.054-.349.134-.698.188-1.047.081-.644.134-1.288.242-1.906l.241-1.638c.081-.537.134-1.074.215-1.61.215-1.772.43-3.571.644-5.343l.403-3.303c.027-.134.027-.295.054-.43 0-.053.053-.08.08-.16.135.107.269.188.43.16.107-.026.161.081.188.162.027.188.08.403.107.59.108 1.075.215 2.148.322 3.196l.242 2.819c.054.886.134 1.772.188 2.63l.161 2.336.081 2.363c.026.805.107 1.638.214 2.443.054.456.108.886.161 1.343 0 .08.027.188.054.268 0 .054.027.107.027.161-.027.108-.081.188-.027.322.027.108-.054.242.027.376 0 0 0 .054-.027.08-.08.162-.054.323-.054.457 0 .188-.026.295-.187.35-.027 0-.027.053-.027.053.08.16.134.295.214.456.135 0 .108 0 .215-.107a.641.641 0 0 1 .296-.161c.107-.027.241-.027.349-.027.161-.027.322-.08.483-.134.107-.027.241-.054.322-.135.081-.08.107-.16.188-.241.51-.43 1.074-.779 1.638-1.128a37.684 37.684 0 0 0 3.785-2.738c1.343-1.128 2.685-2.31 4.027-3.437.081-.08.188-.134.269-.215.161.162.188.296.054.484-.43.644-.833 1.315-1.235 1.986-.43.698-.806 1.397-1.235 2.068-.403.67-.806 1.342-1.235 2.013l-1.692 2.658-1.127 1.772-.564.967c-.027.026-.054.08-.081.107-.322.51-.644 1.047-.966 1.53-.135.215-.161.457-.188.672 0 .134.053.188.161.214.295.054.59.108.859.135.403.026.779 0 1.181 0h1.987l2.416.08 4.054.161c2.041.081 4.081 0 6.149-.053 1.181-.027 2.389-.081 3.57-.135.081.081.135.161.242.269-.188.241-.483.322-.752.429l-2.013.725a18.59 18.59 0 0 1-1.611.484c-.698.187-1.396.375-2.094.536-.403.108-.833.188-1.235.296-.376.08-.752.188-1.155.295-.537.134-1.047.269-1.584.403-.403.107-.778.215-1.181.295-.591.134-1.155.242-1.745.376-.564.134-1.128.269-1.719.403l-1.369.322c-.644.161-1.289.322-1.96.483-.107.027-.215.027-.322.027-.054 0-.107.027-.188.054-.054.027-.188.08-.188.053-.107-.107-.134.027-.215.027h-.241c.054.054.08.108.134.161-.134.108-.134.242-.134.403.027.457.241.806.537 1.128.993 1.1 1.825 2.335 2.631 3.57.591.86 1.235 1.692 1.906 2.497l1.611 1.853c.242.295.429.644.671.94.322.402.671.778 1.02 1.181.323.376.645.725.967 1.074.08.08.134.161.08.268-.026.081-.026.188-.026.296a.565.565 0 0 1-.162-.108c-.053.054-.08.108-.134.161h-.08c-.081-.027-.135-.027-.215-.08-1.316-.752-2.631-1.477-3.92-2.256-.993-.59-1.987-1.261-2.953-1.906-.591-.402-1.181-.832-1.772-1.235-.483-.349-.993-.644-1.45-.993-.429-.295-.805-.644-1.208-.967a24.128 24.128 0 0 1-.967-.751 4.268 4.268 0 0 1-.349-.323c-.241-.214-.483-.429-.805-.483-.188-.053-.483.108-.591.349-.053.161-.107.322-.134.483-.08.672-.134 1.343-.188 2.041-.054 1.181-.215 2.363-.322 3.544-.081.671-.107 1.369-.188 2.04-.107.994-.268 1.987-.376 2.98-.107.913-.241 1.853-.322 2.766a139.417 139.417 0 0 0-.188 3.356c-.027.349-.027.698-.054 1.047 0 .188-.026.188-.214.188-.027.053-.054.134-.108.161-.027.027-.107-.027-.161-.027-.161.027-.322 0-.456.242-.081-.108-.135-.188-.215-.296h.188c0-.027 0-.08-.027-.107-.188-.134-.161-.322-.188-.51-.054-.269-.08-.537-.134-.779 0-.054-.027-.134-.027-.188.081-.376-.027-.725-.081-1.101-.053-.536-.161-1.073-.188-1.61 0-.43-.107-.833-.161-1.262-.053-.537-.08-1.074-.134-1.611 0-.054-.027-.134-.027-.215.081.027.108.054.188.107-.027-.08-.053-.161-.08-.187-.161-.054-.135-.162-.161-.296-.027-.51-.027-.993-.054-1.503 0-.135-.054-.242-.081-.376 0-.054-.026-.108-.026-.134.08-.269-.108-.537 0-.833.053-.134-.054-.349-.054-.51-.027-.268-.027-.564-.054-.886.134.054.215.108.322.161-.027-.053-.027-.107-.053-.134-.081-.054-.188-.08-.296-.134.081-.188-.107-.376.027-.564 0 0-.027-.054-.027-.08-.053-.162-.053-.162.108-.215.027 0 .027-.054.053-.054.081 0 .135.027.135.134 0 .054.053.108.08.161.027 0 .054-.026.081-.026.053-.457.053-.913-.081-1.397-.161.081.027.242-.107.323-.027-.027-.054-.027-.081-.054-.053-.027-.08-.161-.188 0h.188c-.107.188.081.161.161.215-.027.161-.027.161-.161.322.027.08.081.161.108.268-.054.027-.108.027-.161.054-.162-.081-.269-.215-.242-.376 0-.107.027-.188.054-.295.053.027.107.08.134.107.054.054.107.027.134-.08-.107 0-.188-.027-.295-.027-.027-.134-.054-.269-.108-.376-.053-.107.054-.107.081-.188-.161-.107-.161-.242-.081-.403.027-.027.027-.08.027-.134.081-.08.081-.08 0-.242-.107.081 0 .162.027.242-.161-.027-.188-.161-.161-.268.054-.215-.134-.403 0-.618-.161-.161-.054-.376-.107-.564 0-.027-.027-.053-.027-.08.08-.242.107-.484-.108-.725.135-.027.215-.054.323-.081-.081-.053-.135-.107-.188-.134v-.215a1.554 1.554 0 0 1-.054-.349c0-.134 0-.268.188-.295-.108-.188-.134-.349-.027-.51.081.054.161.08.242.107-.027-.134-.027-.241-.027-.376a.707.707 0 0 1-.215.188c-.027-.107-.081-.188-.107-.295v-.752c.053 0 .107.027.214.054 0-.107-.026-.161-.026-.188-.162-.054-.269-.081-.376-.134-.161-.081-.296-.081-.457.027-.859.671-1.718 1.342-2.523 2.067-.645.564-1.289 1.074-1.934 1.638-.59.51-1.154 1.02-1.771 1.503a62.787 62.787 0 0 0-3.169 2.739c-.402.375-.859.698-1.261 1.073-.591.511-1.155 1.021-1.719 1.504-.08.054-.161.134-.268.215.027-.457.054-.833.134-1.235.134-.51.376-.967.644-1.396.511-.886 1.021-1.799 1.531-2.685.537-.886 1.101-1.745 1.611-2.631.241-.403.429-.859.644-1.289.107-.215.268-.403.403-.617.295 0 .402-.188.537-.376.027.08.027.161.188.107a.434.434 0 0 1-.188-.107Zm8.645.886c.027-.215.027-.215-.161-.323.026.135.053.296.08.484l.081-.161c.134.053.134.053.268-.027-.107 0-.188.027-.268.027Zm-.135-13.8h.054v.027c-.027.134.027.188.161.134.081-.295.054-.537-.241-.671l.241.08c.108-.16 0-.295-.027-.43-.026-.134.054-.295.081-.483l-.215.215c0 .08 0 .161.027.269a.353.353 0 0 1-.107-.08c-.081-.135-.215-.055-.323-.081-.026.16-.026.268-.026.43.053-.028.188-.081.188-.055.08.081.134.081.187 0-.08-.107-.295-.026-.268-.241.081-.027.161-.027.242-.054-.054.054-.054.134.026.134.135.027.108.135.135.242-.054.027-.135.027-.188.027.027.134.053.242-.054.349.081 0 .107 0 .161.027-.027.053-.027.107-.054.16-.107-.08-.241-.133-.375-.24-.027.053-.054.08-.081.133.054.027.107.081.161.081.108.027.215.027.295.027Zm-5.906 4v-.053c-.081-.054-.188-.108-.269-.188-.08.107-.053.188.027.241.054.027.161 0 .242 0Zm5.853-6.067c.107-.027.188-.054.295-.081-.054-.107-.08-.188-.134-.295-.054.16-.108.241-.161.376Zm.188 19.223a4.925 4.925 0 0 0-.188.429c.107-.053.188-.08.268-.134a2.212 2.212 0 0 1-.08-.295Zm.429 5.235c-.161 0-.268-.027-.429-.027a.83.83 0 0 1 .107.215c.107-.081.215-.107.322-.188Zm-.59-25.56c-.027.028-.027.055-.054.055.08.08.188.16.268.241l.054-.053c-.08-.081-.188-.162-.268-.242Zm.349 24.03c-.081.027-.161.053-.161.08.026.134-.054.108-.135.108v.053c.054 0 .108.027.188.027.027-.08.054-.161.108-.268Zm-.161-22.31c.026 0 .053-.028.08-.028-.054-.08 0-.241-.215-.268.054.107.081.215.135.295Zm-.162 17.316c.081.054.135.08.188.107.054-.08.081-.134.108-.188-.108.027-.188.054-.296.081Zm.242 2.309c-.08-.108 0-.242-.215-.322.081.134 0 .268.215.322Zm5.826-21.344a1.166 1.166 0 0 0-.161.188c.081.027.134.053.215.08-.027-.08-.027-.16-.054-.268ZM406 111.8c-.107.188-.107.188.135.214-.054-.053-.081-.134-.135-.214Zm.376 10.712c.081.027.134.054.188.081 0-.188 0-.188-.188-.081Zm.134-7.249c0-.134-.053-.242-.241-.188.107.081.161.134.241.188Zm.188 6.739c-.053.08-.107.134-.161.215.161 0 .242-.027.161-.215Zm-.161-27.573c.027-.16 0-.215-.107-.215-.027 0-.027.027-.081.054.081.027.135.08.188.161Zm.027 25.855-.161.08c.081.054.134.108.242.188a1.072 1.072 0 0 0-.081-.268Zm-.107-25.05c0 .027-.027.054-.027.081.054.08.107.108.241.027a.798.798 0 0 0-.214-.107Zm-.269 19.063c-.188-.054-.188-.054-.241.08.08-.027.134-.054.241-.08Zm.403-1.504c-.081-.161-.081-.161-.242-.054.081 0 .161.027.242.054Zm-.107-1.718c0 .107.026.188.026.295.108-.107.161-.188-.026-.295Zm.026 2.926c.027-.134.027-.134-.08-.188.027.081.054.108.08.188Zm.081-3.329c0-.027.027-.027.027-.054a.536.536 0 0 1-.134-.107s-.027 0-.081.027c.081.054.134.107.188.134Zm.161 12.404c-.027-.081-.027-.108-.054-.215a.928.928 0 0 1-.08.215h.134Zm-.268-8.242c0 .026-.027.026-.027.053.027.027.053.054.08.054h.108v-.054c-.054 0-.108-.027-.161-.053Zm.026 6.631c.108-.054.108-.054.054-.161 0 .054-.027.107-.054.161Zm-5.503-18.955c-.135-.053-.135-.053-.215.081.08-.027.134-.054.215-.081Zm5.396 17.559c.161.027.161.027.107-.134-.026.053-.053.08-.107.134Zm.322 3.383c-.107-.054-.107-.054-.134.053.054-.026.08-.026.134-.053Zm-.349-9.317c0 .027.027.027.027.054.027-.027.081-.027.107-.054 0-.026 0-.026-.026-.053a.203.203 0 0 1-.108.053Zm-.429-.429c.026 0 .053 0 .08-.027-.027-.054-.027-.107-.054-.161h-.026v.188Zm.51-1.718c.027 0 .027.026.053.026.027-.053.054-.08.081-.134-.027 0-.027-.027-.054-.027-.053.054-.053.081-.08.135Zm-5.826-9.182-.027-.027c-.027.027-.054.027-.108.054 0 .026.027.026.027.053.054-.053.081-.08.108-.08Zm5.826-7.733v.054c.027 0 .053.027.08.027 0-.027.027-.054 0-.054-.027-.026-.053-.026-.08-.026Zm.134-1.396a.358.358 0 0 1 .134-.027c0-.026-.027-.026-.027-.053-.027 0-.053.027-.107.08Zm-.483 3.652v-.054c-.054-.027-.135-.027-.188-.054 0 .027 0 .027-.027.054.08.027.134.027.215.054Zm.617 26.848v-.054h-.161v.054h.161Zm-7.249-23.009c.027-.027.054-.054.054-.081 0 0-.027-.053-.054-.053s-.053.027-.08.053l.08.081Zm.886.752v-.054c-.053.027-.107.027-.161.054v.027c.081-.027.108-.027.161-.027Zm.161.214c.027 0 .027-.026.054-.026l-.054-.054s-.027.027-.053.027c.026.027.026.053.053.053Zm6.068 19.573-.027-.027c-.027.027-.054.053-.08.107l.026.027a.353.353 0 0 1 .081-.107Zm-.161-27.117.054-.053-.027-.027c-.027 0-.054.026-.054.026 0 .027.027.054.027.054ZM393.354 74.052l.537.268c-.134.027-.188.027-.268.054 0 .027 0 .053.026.053.108.081.296.027.349.188h.081c.215 0 .349.108.376.323.027.214.107.43.241.563.269.296.457.591.511.994 0 .107.08.188.107.295.054.134.08.269-.107.376.134.027.161.107.187.215.081.295-.053.59-.08.859 0 .107-.027.242-.054.349-.08.268-.215.51-.295.752-.027.107-.081.215-.134.322-.027 0-.108.027-.188.053.027.054.08.081.107.108-.241.403-.698.537-1.101.725-.51.268-1.047.295-1.584.134-.268-.08-.563-.134-.832-.215-.295-.08-.483-.268-.617-.537-.135-.268-.349-.51-.564-.751-.296-.323-.618-.672-.564-1.209.027-.214-.081-.456-.107-.67-.081-.323-.027-.618.08-.914.108-.295.215-.617.457-.886.187-.214.161-.241.349-.295-.054-.027-.135-.027-.242-.08.134-.162.268-.296.403-.457h.026c.215-.322.618-.242.913-.43.027-.026.081 0 .188.027-.08-.053-.107-.107-.161-.134h.483c.135 0 .242.054.349-.08.027-.027.135-.054.188-.027.323.215.618.134.94.027ZM434.11 114.269c.08-.08.187-.107.268-.054.081.027.188.054.268.081 0 .027 0 .054-.026.081.08 0 .161-.027.241-.027.135-.027.269.053.376.134.269.215.349.564.591.832.053.054.08.108.053.188-.026.242 0 .269.242.242.081.107.108.241.161.402.054.188.108.35.161.537.081.323.135.672.027.994-.107.322-.107.698-.376.966-.027.027-.027.054-.027.081.108.295-.134.456-.322.564-.349.188-.725.241-1.101.295-.053 0-.08 0-.134-.027-.161-.027-.349-.08-.51-.107-.644-.054-1.181-.349-1.691-.725a.386.386 0 0 1-.161-.242c-.161-.402-.323-.805-.457-1.208-.107-.295-.08-.591.054-.886.242-.483.51-.966.752-1.477.08-.134.161-.268.241-.375a.148.148 0 0 1 .135-.081c.214-.027.402-.08.617-.107.054 0 .107 0 .161-.027.161-.108.295-.081.457-.054.08 0 .161.027.295.054-.134-.134-.215-.081-.295-.054ZM381.085 92.175c-.161-.053-.295-.08-.456-.134.215-.108.456 0 .644.027.269.053.51.188.779.268.188.08.322.188.295.403.081.027.188.027.188.08.054.135.188.215.268.323l-.053.053c.241.135.241.35.295.564.081.484-.08.913-.188 1.37-.027.16-.107.322-.161.483-.027.053-.054.107-.107.134-.376.161-.752.43-1.208.376-.269-.027-.511 0-.779 0-.322 0-.564-.161-.779-.403-.107-.134-.161-.349-.402-.349-.054 0-.135-.107-.161-.161-.027-.161-.162-.269-.242-.403a1.363 1.363 0 0 1-.188-.456c-.134-.403-.081-.779.081-1.155.107-.295.375-.456.644-.563.242-.108.483-.215.698-.403.107-.08.161-.08.295-.054.161.054.349.027.51.027.027 0 .027-.027.027-.027ZM394.859 130.324c-.027-.08-.027-.161-.054-.187a.52.52 0 0 1-.349-.457c-.081.027-.134.054-.215.081-.027-.296-.215-.537-.322-.806-.081-.215-.188-.429-.269-.617-.08-.135-.053-.296-.026-.43.107-.429.241-.859.375-1.289.027-.107.027-.214.027-.349.188-.08.376-.08.537.054.081.054.108.054.188-.027.054-.053.108-.08.188-.134-.027 0-.054-.027-.08-.054.053-.026.134-.08.187-.107.108.054.162.215.323.081h.08c.134.107.269.026.376 0 .295.268.322.349.269.51.161.107.322-.135.483 0 .027.026.107.026.134.053.054.054.081.135.107.188.027.054.027.134.054.215h.134c0 .215 0 .215.188.215.081.161.135.349.215.51a.43.43 0 0 1 .081.242c.053.268.134.537.08.832a.776.776 0 0 0-.054.241c-.026.081-.053.162-.053.242.027.188-.027.322-.161.43-.43.402-.886.671-1.504.671-.322 0-.644 0-.939-.108ZM435.559 88.281c-.081.269.188.322.268.51.215.027.161.269.269.376.027.027 0 .108.027.161.134.135.107.269.026.43l.242.08c0 .081-.107.188.027.269.027.027 0 .107 0 .188h.188c.054.08.027.16.08.268.081.135.108.35-.026.484-.323.402-.645.778-.967 1.154-.054.08-.161.107-.242.161-.349.215-.698.161-1.074.08-.214-.053-.402-.107-.617-.107-.349-.027-.456-.295-.537-.537-.054-.134-.081-.268-.188-.349a.548.548 0 0 1-.161-.402c0-.484 0-.967.027-1.423 0-.054 0-.108.027-.135.161-.295.322-.59.51-.886a.605.605 0 0 1 .322-.241c.242-.054.456-.161.698-.269.269-.134.51-.08.752.027.08.027.188.08.349.161Z" fill="#FFDF9D"/><path d="M400.496 103.209c.134.027.242.054.376.054v.107c-.134-.054-.269-.107-.376-.161ZM396.039 126.218c.161-.081.188-.054.188.107-.081-.054-.107-.08-.188-.107ZM436.123 115.586a.375.375 0 0 1-.161.054c0-.027-.026-.027-.026-.054a.569.569 0 0 0 .134-.08c.027.054.027.08.053.08Z" fill="#FFDF9D"/><path d="M359.196 54.788c-.837 2.92-.263 4.628.296 5.498l.34-.176c3.549-4.552 2.298-9.354 2.089-10.039-1.216 1.026-2.114 2.58-2.725 4.717Z" fill="#F05C71"/><path d="M359.196 54.788c.611-2.137 1.524-3.705 2.725-4.717-.026-.061-.024-.091-.024-.091-4.603-1.032-10.796 2.386-10.796 2.386l-9.382 4.845 4.673 9.842 13.114-6.751c-.602-.887-1.147-2.594-.31-5.514Z" fill="#F05C71"/><path d="m344.822 61.755-2.985-6.304-23.899 12.342 3 6.29 2.971 6.29 23.898-12.313-2.985-6.305Z" fill="#F3CDC2"/><path d="m334.421 67.129-3.543-7.489-31.953 16.482 3.558 7.475 3.529 7.472 31.967-16.466-3.558-7.474ZM329.566 104.54l-14.405 13.51-9.906-11.478 14.405-13.51c1.749-1.64 4.443-1.492 6.017.332l4.206 4.874c1.575 1.824 1.432 4.632-.317 6.272Z" fill="#D7ACBF"/><path d="m315.299 118.177-10.151-11.761-1.161 1.089 10.15 11.761 1.162-1.089Z" fill="#F3CDC2"/></g><defs><clipPath id="a"><path fill="#fff" d="M0 0h878v307H0z"/></clipPath></defs></svg>