<svg width="600" height="300" viewBox="0 0 600 300" fill="none" xmlns="http://www.w3.org/2000/svg">
<g clip-path="url(#clip0_26014_323806)">
<path d="M371.219 66.51V49.3H366.021C365.483 47.5422 364.775 45.8409 363.907 44.22L367.613 40.55L355.403 28.38L351.727 32.05C350.096 31.192 348.389 30.4857 346.628 29.94V24.76H329.4V29.94C327.639 30.4857 325.932 31.192 324.301 32.05L320.625 28.38L308.445 40.55L312.121 44.22C311.253 45.8409 310.545 47.5422 310.007 49.3H304.809V66.51H310.007C310.545 68.2678 311.253 69.9691 312.121 71.59L308.445 75.26L320.625 87.43L324.301 83.76C325.928 84.6265 327.636 85.3332 329.4 85.87V91.06H346.628V85.87C348.392 85.3332 350.1 84.6265 351.727 83.76L355.403 87.43L367.613 75.26L363.937 71.59C364.805 69.9691 365.513 68.2678 366.051 66.51H371.219ZM338.014 72.34C335.153 72.342 332.355 71.4965 329.975 69.9106C327.594 68.3247 325.739 66.0695 324.643 63.4306C323.547 60.7916 323.26 57.8874 323.817 55.0853C324.375 52.2833 325.753 49.7094 327.776 47.6894C329.8 45.6693 332.378 44.2938 335.185 43.737C337.991 43.1801 340.901 43.4669 343.544 44.5611C346.187 45.6553 348.446 47.5076 350.035 49.8838C351.623 52.26 352.47 55.0532 352.468 57.91C352.468 59.805 352.094 61.6814 351.368 63.4321C350.642 65.1828 349.577 66.7736 348.235 68.1135C346.892 69.4535 345.299 70.5164 343.545 71.2416C341.792 71.9668 339.912 72.34 338.014 72.34Z" fill="#FCEFF2"/>
<path d="M465.93 85.5074L466.039 85.86H466.408H474.702V114H466.408H466.039L465.93 114.353C465.023 117.297 463.834 120.147 462.381 122.864L462.206 123.192L462.469 123.454L468.345 129.32L448.418 149.214L442.541 143.356L442.279 143.095L441.953 143.268C439.227 144.714 436.368 145.898 433.417 146.802L433.063 146.91V147.28V155.56H404.875V147.28V146.91L404.521 146.802C401.572 145.9 398.717 144.716 395.995 143.269L395.669 143.095L395.407 143.356L389.53 149.214L369.603 129.32L375.469 123.454L375.732 123.192L375.557 122.865C374.107 120.147 372.922 117.297 372.018 114.353L371.91 114H371.54H363.245V85.86H371.54H371.909L372.018 85.5069C372.924 82.5604 374.109 79.7068 375.557 76.9849L375.731 76.6579L375.469 76.3962L369.603 70.5399L389.53 50.6366L395.407 56.5039L395.669 56.7649L395.995 56.5916C398.719 55.1444 401.574 53.9579 404.522 53.0478L404.875 52.9389V52.57V44.29H433.063V52.57V52.9388L433.416 53.0477C436.366 53.9596 439.225 55.1462 441.953 56.5918L442.28 56.7646L442.541 56.5039L448.418 50.6366L468.344 70.5396L462.469 76.3959L462.206 76.6579L462.381 76.9853C463.832 79.7069 465.021 82.5605 465.93 85.5074ZM405.091 120.667C409.199 123.407 414.028 124.87 418.969 124.87C425.594 124.87 431.948 122.243 436.633 117.566C441.318 112.888 443.95 106.545 443.95 99.93C443.95 94.9972 442.484 90.1751 439.739 86.0738C436.994 81.9724 433.093 78.7759 428.528 76.8883C423.964 75.0008 418.941 74.5069 414.096 75.4692C409.25 76.4314 404.799 78.8066 401.305 82.2945C397.811 85.7823 395.432 90.2263 394.468 95.0643C393.504 99.9024 393.999 104.917 395.89 109.474C397.781 114.032 400.983 117.927 405.091 120.667Z" fill="#F3BDCA" stroke="#F3BDCA"/>
<path d="M52.7796 277.56C45.1869 232.76 49.4039 169.33 85.3037 136.4C111.227 112.61 158.475 102.63 192.222 111.3C237.226 122.87 266.996 166.51 309.957 184.18C348.261 199.94 392.304 193.02 431.289 179.04C446.735 173.5 462.341 166.8 478.768 167.36C501.927 168.15 522.571 183.74 535.262 203.1C549.696 225.1 555.185 255.1 541.613 277.63" fill="#FCEFF2"/>
<path d="M544.889 235.91C544.889 256.613 527.413 273.43 505.813 273.43C484.213 273.43 466.737 256.613 466.737 235.91C466.737 215.207 484.213 198.39 505.813 198.39C527.413 198.39 544.889 215.207 544.889 235.91Z" fill="#EB92A7" stroke="#EB92A7"/>
<path d="M485.53 254.92C485.53 265.124 476.912 273.43 466.237 273.43C455.563 273.43 446.945 265.124 446.945 254.92C446.945 244.716 455.563 236.41 466.237 236.41C476.912 236.41 485.53 244.716 485.53 254.92Z" fill="#EB92A7" stroke="#EB92A7"/>
<path d="M569.199 250.57C569.199 263.177 558.558 273.43 545.389 273.43C532.22 273.43 521.579 263.177 521.579 250.57C521.579 237.963 532.22 227.71 545.389 227.71C558.558 227.71 569.199 237.963 569.199 250.57Z" fill="#EB92A7" stroke="#EB92A7"/>
<path d="M596.135 276.794C596.494 276.913 596.827 277.025 597.134 277.13H400.629C460.157 262.153 509.549 262.237 544.259 266.142C561.986 268.136 575.883 271.128 585.345 273.619C590.076 274.865 593.698 275.985 596.135 276.794Z" fill="#EB92A7" stroke="#EB92A7"/>
<path d="M194.025 213.57C194.025 245.772 166.845 271.91 133.273 271.91C99.7019 271.91 72.5215 245.772 72.5215 213.57C72.5215 181.368 99.7019 155.23 133.273 155.23C166.845 155.23 194.025 181.368 194.025 213.57Z" fill="#F3BDCA" stroke="#F3BDCA"/>
<path d="M224.656 242.99C224.656 258.943 211.185 271.91 194.525 271.91C177.865 271.91 164.394 258.943 164.394 242.99C164.394 227.037 177.865 214.07 194.525 214.07C211.185 214.07 224.656 227.037 224.656 242.99Z" fill="#F3BDCA" stroke="#F3BDCA"/>
<path d="M109.154 236.27C109.154 255.94 92.5484 271.92 72.0215 271.92C51.4946 271.92 34.8889 255.94 34.8889 236.27C34.8889 216.6 51.4946 200.62 72.0215 200.62C92.5484 200.62 109.154 216.6 109.154 236.27Z" fill="#F3BDCA" stroke="#F3BDCA"/>
<path d="M77.5102 261.244C126.742 255.706 196.925 255.622 281.528 277.13H1.82133C2.53339 276.88 3.38753 276.588 4.38117 276.258C7.81867 275.118 12.9256 273.538 19.5953 271.783C32.9346 268.271 52.5242 264.055 77.5102 261.244Z" fill="#F3BDCA" stroke="#F3BDCA"/>
<path d="M542.615 256.85C542.615 266.995 534.284 275.23 523.993 275.23C513.703 275.23 505.372 266.995 505.372 256.85C505.372 246.705 513.703 238.47 523.993 238.47C534.284 238.47 542.615 246.705 542.615 256.85Z" fill="#F3BDCA" stroke="#F3BDCA"/>
<path d="M514.268 266.93C514.268 271.475 510.298 275.22 505.322 275.22C500.347 275.22 496.377 271.475 496.377 266.93C496.377 262.385 500.347 258.64 505.322 258.64C510.298 258.64 514.268 262.385 514.268 266.93Z" fill="#F3BDCA" stroke="#F3BDCA"/>
<path d="M554.235 264.92C554.235 270.581 549.295 275.23 543.125 275.23C536.956 275.23 532.016 270.581 532.016 264.92C532.016 259.259 536.956 254.61 543.125 254.61C549.295 254.61 554.235 259.259 554.235 264.92Z" fill="#F3BDCA" stroke="#F3BDCA"/>
<path d="M564.722 276.303C565.952 276.602 567.011 276.883 567.89 277.13H486.739C511.542 271.691 532.161 271.774 546.796 273.294C554.532 274.097 560.595 275.301 564.722 276.303Z" fill="#F3BDCA" stroke="#F3BDCA"/>
<path d="M129.688 57.28C129.688 57.28 130.238 57.03 131.27 56.64" stroke="#F3BDCA" stroke-width="1.08" stroke-linecap="round" stroke-linejoin="round"/>
<path d="M134.455 55.5C145.824 51.73 175.103 44.83 195.176 64.98C205.103 74.98 198.472 85.88 190.899 87.29C179.37 89.43 173.54 75.29 183.477 68.74C191.12 63.74 204.752 65.36 229.063 87.74" stroke="#F3BDCA" stroke-width="1.08" stroke-linecap="round" stroke-linejoin="round" stroke-dasharray="3.38 3.38"/>
<path d="M230.305 88.93C230.716 89.31 231.136 89.7 231.547 90.1" stroke="#F3BDCA" stroke-width="1.08" stroke-linecap="round" stroke-linejoin="round"/>
<path d="M114.63 43.8142L114.885 44.0821L115.215 43.9178L118.615 42.2297L124.54 54.0974L121.189 55.7833L120.861 55.9483L120.92 56.3107C121.161 57.7842 121.266 59.2766 121.234 60.7693L121.226 61.1368L121.575 61.254L125.178 62.4649L120.968 75.037L117.356 73.8259L117.006 73.7087L116.791 74.0084C115.917 75.2242 114.932 76.3556 113.847 77.3877L113.581 77.641L113.743 77.9707L115.437 81.4141L103.55 87.3288L101.849 83.8789L101.684 83.5447L101.317 83.6071C99.844 83.8572 98.3502 83.9621 96.8569 83.9202L96.4861 83.9098L96.3686 84.2616L95.1644 87.8681L82.5733 83.6842L83.8038 80.0608L83.923 79.7099L83.6219 79.4938C82.4071 78.622 81.2772 77.6382 80.2468 76.5553L79.9923 76.2878L79.6618 76.4524L76.2527 78.1497L70.338 66.2842L73.7373 64.5874L74.0674 64.4226L74.0074 64.0586C73.7646 62.5866 73.6628 61.0949 73.7033 59.6036L73.7134 59.2327L73.3614 59.1156L69.7493 57.9135L73.9402 45.3429L77.5324 46.5442L77.8816 46.661L78.0967 46.3622C78.9699 45.1495 79.9554 44.0214 81.04 42.9928L81.3082 42.7385L81.1437 42.4075L79.4536 39.0064L91.3387 33.1389L93.0297 36.533L93.1942 36.8631L93.5582 36.8034C95.033 36.5614 96.5274 36.4598 98.0214 36.4998L98.396 36.5099L98.5108 36.1532L99.6881 32.4946L112.276 36.7053L111.063 40.3106L110.945 40.6623L111.247 40.8774C112.467 41.7453 113.6 42.7288 114.63 43.8142ZM95.8301 72.5804C98.2932 72.8852 100.791 72.4523 103.008 71.3366C105.951 69.8547 108.191 67.2734 109.24 64.1529C110.289 61.0323 110.063 57.6246 108.61 54.6695C107.517 52.4446 105.786 50.5945 103.637 49.3541C101.489 48.1137 99.0194 47.5389 96.5429 47.7027C94.0665 47.8664 91.6945 48.7614 89.7285 50.2739C87.7624 51.7865 86.291 53.8484 85.5011 56.1978C84.7113 58.5473 84.6387 61.0781 85.2928 63.4688C85.9468 65.8595 87.2978 68.0021 89.174 69.6244C91.0503 71.2467 93.3671 72.2756 95.8301 72.5804Z" fill="#F3BDCA" stroke="#F3BDCA"/>
<path d="M501.446 127.81L499.202 125.38C498.959 125.039 498.853 124.619 498.907 124.203C498.961 123.788 499.17 123.408 499.493 123.14L517.863 104.26C518.009 104.066 518.196 103.906 518.41 103.79C518.624 103.675 518.861 103.607 519.103 103.592C519.346 103.577 519.589 103.615 519.816 103.702C520.043 103.79 520.248 103.926 520.418 104.1L524.424 109.9C524.627 110.3 524.673 110.761 524.555 111.193C524.436 111.625 524.161 111.998 523.783 112.24L503.64 127.75C503.345 128.026 502.959 128.185 502.554 128.196C502.15 128.207 501.756 128.07 501.446 127.81Z" fill="#C22046"/>
<path d="M498.49 132.747C499.95 131.403 500.188 129.29 499.022 128.027C497.855 126.765 495.726 126.83 494.266 128.175C492.806 129.519 492.568 131.632 493.734 132.895C494.901 134.157 497.03 134.091 498.49 132.747Z" fill="#C22046"/>
<path d="M507.496 139.56L506.494 136.79C506.384 136.482 506.397 136.143 506.529 135.844C506.661 135.544 506.903 135.307 507.206 135.18L524.144 128C524.318 127.925 524.507 127.889 524.697 127.895C524.887 127.901 525.073 127.948 525.242 128.034C525.411 128.12 525.559 128.242 525.676 128.392C525.793 128.542 525.875 128.715 525.917 128.9L527.319 134.98C527.356 135.147 527.359 135.321 527.329 135.489C527.298 135.658 527.234 135.819 527.141 135.963C527.048 136.107 526.927 136.231 526.786 136.329C526.645 136.426 526.485 136.494 526.317 136.53L508.979 140.44C508.666 140.501 508.342 140.445 508.069 140.283C507.795 140.121 507.591 139.863 507.496 139.56Z" fill="#C22046"/>
<path d="M504.147 141.736C505.454 141.283 506.194 139.998 505.801 138.866C505.407 137.734 504.029 137.183 502.723 137.635C501.416 138.088 500.676 139.372 501.069 140.505C501.462 141.637 502.841 142.188 504.147 141.736Z" fill="#C22046"/>
<path d="M489.947 118.59L487.863 117.52C487.627 117.385 487.45 117.165 487.37 116.905C487.29 116.645 487.313 116.364 487.433 116.12L493.823 101.5C493.88 101.353 493.968 101.221 494.081 101.111C494.194 101.002 494.33 100.919 494.479 100.868C494.628 100.816 494.786 100.798 494.943 100.814C495.099 100.83 495.251 100.88 495.386 100.96L499.523 103.74C499.753 103.915 499.906 104.172 499.951 104.457C499.995 104.742 499.928 105.033 499.763 105.27L491.329 118.17C491.193 118.399 490.975 118.57 490.72 118.648C490.464 118.725 490.188 118.705 489.947 118.59Z" fill="#C22046"/>
<path d="M488.909 123.083C489.543 121.856 489.191 120.416 488.124 119.867C487.056 119.318 485.678 119.869 485.045 121.096C484.411 122.324 484.763 123.763 485.83 124.312C486.898 124.861 488.276 124.311 488.909 123.083Z" fill="#C22046"/>
<path d="M326.715 257.84H272.285V271.14H326.715V257.84Z" fill="#DB284E"/>
<path d="M336.992 277.57H262.008C261.22 277.57 260.464 277.258 259.906 276.703C259.348 276.148 259.034 275.395 259.032 274.609C259.032 273.822 259.345 273.067 259.903 272.51C260.461 271.953 261.218 271.64 262.008 271.64H336.992C337.782 271.64 338.539 271.953 339.097 272.51C339.654 273.067 339.968 273.822 339.968 274.609C339.966 275.395 339.651 276.148 339.094 276.703C338.536 277.258 337.78 277.57 336.992 277.57Z" fill="#EB92A7" stroke="#EB92A7"/>
<path d="M421.954 104.84C421.954 102.761 421.126 100.767 419.654 99.2963C418.181 97.826 416.183 97 414.101 97H184.899C182.816 97 180.819 97.826 179.346 99.2963C177.874 100.767 177.046 102.761 177.046 104.84V237.28H421.954V104.84Z" fill="#DB284E"/>
<path d="M411.446 108.21H187.554V227.05H411.446V108.21Z" fill="#FCEFF2"/>
<path d="M184.899 259.2H414.101C416.183 259.2 418.181 258.374 419.654 256.904C421.126 255.433 421.954 253.439 421.954 251.36V237.28H177.046V251.36C177.046 253.439 177.874 255.433 179.346 256.904C180.819 258.374 182.816 259.2 184.899 259.2Z" fill="white"/>
<path d="M304.158 248.24C304.16 249.16 303.888 250.06 303.378 250.826C302.867 251.592 302.14 252.19 301.289 252.543C300.438 252.897 299.502 252.99 298.597 252.812C297.693 252.634 296.862 252.191 296.21 251.542C295.558 250.892 295.113 250.063 294.933 249.161C294.752 248.259 294.844 247.323 295.196 246.473C295.548 245.623 296.145 244.896 296.911 244.384C297.677 243.873 298.578 243.6 299.5 243.6C300.734 243.6 301.917 244.089 302.79 244.958C303.663 245.828 304.155 247.008 304.158 248.24Z" fill="#DB284E"/>
<g opacity="0.57">
<path opacity="0.57" d="M249.727 108.21L198.612 227.07H216.702L268.378 108.21H249.727Z" fill="white"/>
<path opacity="0.57" d="M380.124 108.21L329.009 227.07H347.099L398.775 108.21H380.124Z" fill="white"/>
<path opacity="0.57" d="M291.447 108.21L240.332 227.07H293.871L345.537 108.21H291.447Z" fill="white"/>
</g>
<path d="M298.518 133.02H203.5V200.21H298.518V133.02Z" fill="white"/>
<path d="M298.518 133.02H203.5V200.21H298.518V133.02Z" stroke="#EB92A7" stroke-width="3.61" stroke-linecap="round" stroke-linejoin="round"/>
<path d="M309.417 138.09H396.261" stroke="#EB92A7" stroke-width="3.36" stroke-miterlimit="10"/>
<path d="M309.417 158.37H362.815" stroke="#EB92A7" stroke-width="3.36" stroke-miterlimit="10"/>
<path d="M309.417 148.12H324.732" stroke="#EB92A7" stroke-width="3.36" stroke-miterlimit="10"/>
<path d="M309.417 171.55H396.261" stroke="#EB92A7" stroke-width="3.36" stroke-miterlimit="10"/>
<path d="M309.417 191.82H396.261" stroke="#EB92A7" stroke-width="3.36" stroke-miterlimit="10"/>
<path d="M309.417 181.58H360.652" stroke="#EB92A7" stroke-width="3.36" stroke-miterlimit="10"/>
<path d="M269.67 169.943C271.728 158.618 264.2 147.772 252.856 145.718C241.512 143.664 230.648 151.18 228.591 162.505C226.534 173.829 234.062 184.675 245.405 186.729C256.749 188.783 267.613 181.268 269.67 169.943Z" fill="#FF792F"/>
<path d="M238.549 166.23H259.053" stroke="white" stroke-linecap="round" stroke-linejoin="round"/>
<path d="M229.164 264.89C229.164 270.998 224.147 275.96 217.944 275.96C211.742 275.96 206.725 270.998 206.725 264.89C206.725 258.782 211.742 253.82 217.944 253.82C224.147 253.82 229.164 258.782 229.164 264.89Z" fill="#EB92A7" stroke="#EB92A7"/>
<path d="M211.785 271.07C211.785 273.738 209.451 275.96 206.495 275.96C203.54 275.96 201.206 273.738 201.206 271.07C201.206 268.402 203.54 266.18 206.495 266.18C209.451 266.18 211.785 268.402 211.785 271.07Z" fill="#EB92A7" stroke="#EB92A7"/>
<path d="M229.664 276.46C233.597 276.46 236.786 273.496 236.786 269.84C236.786 266.184 233.597 263.22 229.664 263.22C225.731 263.22 222.542 266.184 222.542 269.84C222.542 273.496 225.731 276.46 229.664 276.46Z" fill="#A0E8CB"/>
<path d="M241.57 277.005C241.744 277.047 241.913 277.089 242.076 277.13H195.659C210.041 274.19 222.015 274.273 230.61 275.165C235.342 275.656 239.049 276.393 241.57 277.005Z" fill="#EB92A7" stroke="#EB92A7"/>
<path d="M112.67 270.4C112.67 273.807 109.869 276.58 106.399 276.58C102.929 276.58 100.127 273.807 100.127 270.4C100.127 266.993 102.929 264.22 106.399 264.22C109.869 264.22 112.67 266.993 112.67 270.4Z" fill="#EB92A7" stroke="#EB92A7"/>
<path d="M99.7877 277.08C101.635 277.08 103.133 275.688 103.133 273.97C103.133 272.252 101.635 270.86 99.7877 270.86C97.94 270.86 96.4421 272.252 96.4421 273.97C96.4421 275.688 97.94 277.08 99.7877 277.08Z" fill="#A0E8CB"/>
<path d="M116.777 273.26C116.777 275.067 115.196 276.59 113.17 276.59C111.145 276.59 109.563 275.067 109.563 273.26C109.563 271.453 111.145 269.93 113.17 269.93C115.196 269.93 116.777 271.453 116.777 273.26Z" fill="#EB92A7" stroke="#EB92A7"/>
<path d="M112.751 276.432C114.586 276.623 116.15 276.877 117.415 277.13H95.0486C102.261 275.889 108.301 275.971 112.751 276.432Z" fill="#EB92A7" stroke="#EB92A7"/>
<path d="M103.664 200H91.4939V277.63H103.664V200Z" fill="#CECECE"/>
<path d="M228.692 200H216.522V277.63H228.692V200Z" fill="#CECECE"/>
<path d="M239.11 205.08H81.0867V229.23H239.11V205.08Z" fill="#666666"/>
<path d="M81.0867 205.08V216.53L86.095 205.08H81.0867Z" fill="#FFB769"/>
<path d="M108.663 205.08L98.095 229.23H120.673L131.24 205.08H108.663Z" fill="#FFB769"/>
<path d="M153.818 205.08L143.25 229.23H165.818L176.385 205.08H153.818Z" fill="#FFB769"/>
<path d="M198.963 205.08L188.395 229.23H210.973L221.54 205.08H198.963Z" fill="#FFB769"/>
<path d="M239.11 216.53L233.55 229.23H239.11V216.53Z" fill="#FFB769"/>
<path d="M88.2193 265.46C88.2193 271.391 83.3459 276.21 77.3204 276.21C71.2948 276.21 66.4214 271.391 66.4214 265.46C66.4214 259.529 71.2948 254.71 77.3204 254.71C83.3459 254.71 88.2193 259.529 88.2193 265.46Z" fill="#EB92A7" stroke="#EB92A7"/>
<path d="M71.3212 271.47C71.3212 274.055 69.0591 276.21 66.1919 276.21C63.3246 276.21 61.0625 274.055 61.0625 271.47C61.0625 268.885 63.3246 266.73 66.1919 266.73C69.0591 266.73 71.3212 268.885 71.3212 271.47Z" fill="#EB92A7" stroke="#EB92A7"/>
<path d="M95.1409 270.27C95.1409 273.517 92.3004 276.21 88.7194 276.21C85.1383 276.21 82.2979 273.517 82.2979 270.27C82.2979 267.023 85.1383 264.33 88.7194 264.33C92.3004 264.33 95.1409 267.023 95.1409 270.27Z" fill="#EB92A7" stroke="#EB92A7"/>
<path d="M98.6021 277.043C98.7227 277.072 98.8405 277.101 98.9555 277.13H54.5108C68.3039 274.325 79.7879 274.408 88.0391 275.266C92.5998 275.74 96.1729 276.452 98.6021 277.043Z" fill="#EB92A7" stroke="#EB92A7"/>
<path d="M250.169 262.93C250.169 270.021 244.344 275.78 237.146 275.78C229.948 275.78 224.124 270.021 224.124 262.93C224.124 255.839 229.948 250.08 237.146 250.08C244.344 250.08 250.169 255.839 250.169 262.93Z" fill="#F3BDCA" stroke="#F3BDCA"/>
<path d="M230.125 270.07C230.125 273.196 227.392 275.79 223.944 275.79C220.496 275.79 217.763 273.196 217.763 270.07C217.763 266.944 220.496 264.35 223.944 264.35C227.392 264.35 230.125 266.944 230.125 270.07Z" fill="#F3BDCA" stroke="#F3BDCA"/>
<path d="M258.382 268.65C258.382 272.56 254.964 275.79 250.669 275.79C246.374 275.79 242.955 272.56 242.955 268.65C242.955 264.74 246.374 261.51 250.669 261.51C254.964 261.51 258.382 264.74 258.382 268.65Z" fill="#F3BDCA" stroke="#F3BDCA"/>
<path d="M265.915 276.835C266.334 276.937 266.724 277.035 267.086 277.13H212.187C229.115 273.583 243.197 273.666 253.263 274.711C258.724 275.278 263.004 276.128 265.915 276.835Z" fill="#F3BDCA" stroke="#F3BDCA"/>
<path d="M189.707 51.79L193.714 55.87C194.14 56.3062 194.684 56.6101 195.279 56.7449C195.875 56.8798 196.496 56.8399 197.07 56.63C197.58 56.4424 198.034 56.1273 198.388 55.7149C198.742 55.3024 198.984 54.8064 199.092 54.274C199.199 53.7416 199.168 53.1905 199.002 52.6734C198.835 52.1563 198.539 51.6904 198.141 51.32L194.085 47.32L189.707 51.79Z" fill="#F2AA91"/>
<path opacity="0.2" d="M192.582 54.7C192.582 54.7 195.096 49.53 194.105 47.32C191.941 42.51 188.295 48.41 188.295 48.41L190.298 52.41L192.582 54.7Z" fill="#727272"/>
<path d="M177.878 44.19C179.58 49.53 182.626 56.47 185.741 56.82C190.859 57.4 196.469 49.67 196.559 44.52C196.584 43.2931 196.366 42.0732 195.919 40.9303C195.471 39.7874 194.802 38.7439 193.95 37.8595C193.097 36.9752 192.079 36.2674 190.952 35.7767C189.825 35.2861 188.613 35.0221 187.383 35C182.225 34.94 176.295 39.28 177.878 44.19Z" fill="#F2AA91"/>
<path d="M191.13 44.62C191.13 44.62 192.833 52.04 197.921 49.95C203.01 47.86 194.495 36.14 194.495 36.14L182.976 31.69L172.148 40.1L173.35 47.38C173.35 47.38 177.217 44.64 188.656 40.22L191.13 44.62Z" fill="#243051"/>
<path d="M185.551 42.58L190.379 45.55L191.851 41.01L185.551 42.58Z" fill="#221F20"/>
<path d="M191.661 46.38C191.661 46.38 198.262 66.58 209.751 58.3C216.762 53.22 209.41 44.83 201.557 43.08C198.742 42.45 197.701 41.4 194.185 38.14L187.173 39.14L191.661 46.38Z" fill="#221F20"/>
<path d="M189.207 43.84C189.197 44.3348 189.334 44.8213 189.601 45.238C189.869 45.6547 190.254 45.9828 190.708 46.1808C191.163 46.3788 191.665 46.4378 192.153 46.3502C192.641 46.2627 193.092 46.0326 193.449 45.689C193.805 45.3455 194.052 44.904 194.157 44.4204C194.263 43.9369 194.222 43.433 194.04 42.9726C193.858 42.5123 193.543 42.1162 193.136 41.8344C192.728 41.5527 192.246 41.398 191.751 41.39C191.089 41.3819 190.451 41.6346 189.975 42.0933C189.498 42.5519 189.222 43.1795 189.207 43.84Z" fill="#F2AA91"/>
<path d="M176.956 45.63C176.956 45.63 173.29 40 176.455 34.26C177.082 33.1215 177.934 32.122 178.959 31.322C179.984 30.5221 181.161 29.9384 182.419 29.6065C183.677 29.2745 184.99 29.2011 186.277 29.3908C187.564 29.5805 188.799 30.0293 189.908 30.71C192.061 32.08 193.744 33.71 195.196 37.87L176.956 45.63Z" fill="#FDD63B"/>
<path d="M195.437 38.84H195.337L174.622 47.8C174.4 47.8371 174.172 47.7985 173.975 47.6904C173.778 47.5824 173.623 47.4112 173.535 47.2045C173.447 46.9978 173.431 46.7675 173.491 46.5508C173.55 46.3342 173.68 46.1436 173.861 46.01L194.575 37.11C194.792 37.0663 195.016 37.0951 195.214 37.1918C195.412 37.2885 195.573 37.4478 195.671 37.645C195.769 37.8421 195.8 38.0661 195.757 38.2822C195.715 38.4983 195.602 38.6943 195.437 38.84Z" fill="#F2A62F"/>
<path d="M176.565 97.75L157.674 119.64L150.662 116.54L168.522 91.25C168.927 90.583 169.491 90.0257 170.163 89.6271C170.835 89.2286 171.594 89.001 172.375 88.9644C173.156 88.9279 173.933 89.0835 174.64 89.4175C175.346 89.7515 175.959 90.2538 176.425 90.88C177.012 91.9257 177.331 93.0994 177.356 94.2975C177.38 95.4956 177.109 96.6814 176.565 97.75Z" fill="#545454"/>
<path d="M142.699 116.43L153.127 123.73L155.951 118.8L150.582 115C149.973 114.574 149.286 114.273 148.561 114.112C147.835 113.952 147.084 113.936 146.352 114.065C145.62 114.194 144.921 114.466 144.294 114.865C143.667 115.264 143.125 115.782 142.699 116.39V116.43Z" fill="#FF792F"/>
<path d="M190.829 85.16L169.954 88.87L174.292 97H202.338C202.338 97 210.752 96.8 206.866 87.59L190.829 85.16Z" fill="#6C6D6D"/>
<path d="M177.657 91.52L189.848 123.07L181.995 127.57L166.278 95.85C165.905 95.1612 165.708 94.3912 165.704 93.6081C165.7 92.825 165.89 92.053 166.257 91.3607C166.623 90.6683 167.155 90.077 167.806 89.639C168.456 89.2011 169.204 88.9301 169.985 88.85C171.978 88.67 176.786 89.73 177.657 91.52Z" fill="#6C6D6D"/>
<path d="M179.43 135L189.848 129.53L187.604 124.32L181.804 127.32C180.477 128.022 179.483 129.219 179.038 130.651C178.593 132.083 178.734 133.632 179.43 134.96V135Z" fill="#FF792F"/>
<path d="M189.637 60.44C189.637 60.44 190.479 56.75 191.54 55.62C192.302 54.81 195.046 52.23 196.549 51.68C196.769 51.5964 197.005 51.5647 197.24 51.5872C197.475 51.6098 197.701 51.686 197.901 51.81C202.267 54.6223 205.515 58.8656 207.086 63.81C209.42 70.81 209.921 90.81 209.921 90.81C203.28 95.12 190.829 85.21 190.829 85.21C191.15 72.71 188.075 72.08 189.637 60.44Z" fill="#DB284E"/>
<path d="M179.47 83.21L173.671 81.14C173.439 81.0563 173.19 81.0344 172.948 81.0765C172.705 81.1186 172.478 81.2232 172.288 81.38L169.704 83.48C169.533 83.6218 169.402 83.8047 169.322 84.0115C169.242 84.2183 169.217 84.442 169.248 84.6614C169.279 84.8809 169.366 85.0887 169.5 85.2652C169.634 85.4417 169.811 85.5811 170.015 85.67C170.239 85.7668 170.487 85.7976 170.728 85.7586C170.969 85.7196 171.194 85.6125 171.377 85.45L172.619 84.37C172.619 84.37 176.866 86.8 178.879 86.13L179.47 83.21Z" fill="#F2AB90"/>
<path d="M194.245 57.49L193.243 76.49L177.798 80.49L178.439 86.26L197.31 84.26C198.65 84.1709 199.902 83.5605 200.796 82.56C201.273 81.9947 201.563 81.2962 201.627 80.56L203.971 60.9L194.245 57.49Z" fill="#DB284E"/>
<path d="M168.282 90.76L190.198 86.94C190.358 86.9122 190.511 86.8532 190.648 86.7662C190.785 86.6792 190.904 86.5659 190.997 86.433C191.09 86.3001 191.156 86.1501 191.191 85.9917C191.225 85.8333 191.229 85.6696 191.2 85.51C191.172 85.3502 191.113 85.1975 191.026 85.0606C190.938 84.9238 190.825 84.8055 190.692 84.7125C190.559 84.6196 190.409 84.5538 190.25 84.5191C190.091 84.4843 189.927 84.4812 189.767 84.51L167.861 88.34C167.701 88.3666 167.549 88.4245 167.411 88.5105C167.274 88.5965 167.156 88.7088 167.063 88.8409C166.97 88.973 166.904 89.1223 166.869 89.2801C166.834 89.4379 166.831 89.601 166.859 89.76C166.886 89.9194 166.944 90.0719 167.03 90.2087C167.116 90.3455 167.229 90.4638 167.361 90.5569C167.493 90.6499 167.643 90.7158 167.801 90.7506C167.959 90.7855 168.122 90.7887 168.282 90.76Z" fill="#243051"/>
<path d="M168.432 89.59C168.367 89.5901 168.303 89.5758 168.244 89.5481C168.185 89.5204 168.133 89.4801 168.091 89.43L154.899 74.51C154.859 74.4647 154.828 74.4119 154.809 74.3548C154.789 74.2976 154.781 74.2371 154.785 74.1767C154.788 74.1163 154.804 74.0573 154.83 74.003C154.857 73.9486 154.894 73.9 154.939 73.86C154.985 73.8199 155.038 73.7892 155.095 73.7695C155.152 73.7499 155.213 73.7417 155.273 73.7454C155.334 73.7491 155.393 73.7647 155.447 73.7912C155.502 73.8177 155.55 73.8547 155.591 73.9L168.782 88.82C168.869 88.9062 168.917 89.0231 168.917 89.145C168.917 89.2669 168.869 89.3837 168.782 89.47C168.735 89.5126 168.68 89.5453 168.62 89.5659C168.559 89.5865 168.495 89.5947 168.432 89.59Z" fill="#243051"/>
<path d="M194.064 51.47C194.064 51.47 200.315 66.47 208.859 58.99C217.403 51.51 199.544 47.2 199.544 47.2L194.064 51.47Z" fill="#221F20"/>
<path d="M454.828 152.1L460.838 147.69C460.838 147.69 464.204 148.64 464.905 147.69C465.396 147.04 462.742 146.46 462.742 146.46C463.863 145.551 465.079 144.763 466.368 144.11C468.511 143.27 466.508 136.37 462.501 137.62C461.284 138.05 460.174 138.739 459.249 139.638C458.324 140.538 457.605 141.627 457.142 142.83L450.531 146.45L454.828 152.1Z" fill="#F2AA91"/>
<path d="M499.222 198.18L500.224 206.53C500.224 206.53 497.89 209.34 497.99 210.53C498.1 211.98 500.314 209.53 500.314 209.53C500.683 210.976 500.819 212.471 500.715 213.96C500.274 216.38 508.287 218.37 509.259 213.73C509.51 212.294 509.444 210.82 509.065 209.413C508.687 208.005 508.004 206.697 507.065 205.58L507.145 197.07L499.222 198.18Z" fill="#F2AA91"/>
<path d="M455.62 206.79H473.359L471.907 271.43H459.136L455.62 206.79Z" fill="#6C6D6D"/>
<path d="M472.127 206.79H488.985L488.855 271.43H476.084L472.127 206.79Z" fill="#6C6D6D"/>
<path d="M453.336 278H472.898L471.256 271.51H458.234C456.93 271.51 455.679 272.027 454.756 272.948C453.834 273.869 453.316 275.118 453.316 276.42L453.336 278Z" fill="#FF792F"/>
<path opacity="0.2" d="M471.456 272.26C471.456 272.26 466.248 273.85 466.248 277.99H472.899L471.456 272.26Z" fill="#727272"/>
<path d="M470.394 278H489.957L488.314 271.51H475.292C473.988 271.51 472.737 272.027 471.815 272.948C470.892 273.869 470.374 275.118 470.374 276.42L470.394 278Z" fill="#FF792F"/>
<path opacity="0.2" d="M459.286 139.58C458.558 140.287 457.955 141.112 457.503 142.02L457.142 142.83C456.211 145.04 456.732 147.83 457.333 149.57L457.493 150.15L460.127 148.15L459.286 139.58Z" fill="#727272"/>
<path d="M491.489 160.7C484.478 156.09 483.706 156.84 483.706 156.84C468.501 153.92 452.164 159.62 452.164 159.62C449.034 160.81 445.828 161.792 442.568 162.56L457.954 151.38L452.545 144.18L429.717 159.28C426.712 160.89 426.371 166.41 427.563 169.48C427.563 169.54 427.563 169.48 427.563 169.48C429.907 174.68 436.117 174.89 452.995 174.1L453.536 210.21L492.822 208.92C492.822 208.92 490.297 189.02 489.466 179.34C496.668 187.29 498.161 200.04 498.161 200.04L508.237 199.37C507.326 176.41 491.489 160.7 491.489 160.7Z" fill="#DB284E"/>
<path d="M459.015 137C459.015 137 454.698 128.53 461.57 125.56C468.441 122.59 474.411 125.9 478.277 133.47C478.277 133.47 490.898 136.89 475.363 154.71L459.015 137Z" fill="#221F20"/>
<path d="M459.116 136.58C459.116 136.58 457.513 149.69 460.869 154.41C463.663 158.41 467.299 154.89 467.299 154.89L466.999 158.3C468.346 158.983 469.844 159.318 471.354 159.272C472.865 159.227 474.34 158.803 475.643 158.04C475.643 158.04 474.141 156.54 474.101 147.58C474.101 147.58 478.548 144.81 475.102 141.41C471.657 138.01 472.408 143.41 472.408 143.41C472.408 143.41 469.783 126.22 459.116 136.58Z" fill="#F2AA91"/>
<g opacity="0.3">
<path d="M190.829 85.16L194.946 84.88C196.573 84.7759 198.1 84.0576 199.216 82.8708C200.332 81.6841 200.954 80.1179 200.956 78.49V62.43" fill="#17A982"/>
<path d="M190.829 85.16L194.946 84.88C196.573 84.7759 198.1 84.0576 199.216 82.8708C200.332 81.6841 200.954 80.1179 200.956 78.49V62.43" stroke="#0F0F0F" stroke-width="0.5" stroke-miterlimit="10" stroke-linecap="round"/>
</g>
<path opacity="0.1" d="M384.552 227.05L371.48 259.2H391.343V227.07L384.552 227.05Z" fill="#0F0F0F"/>
<path d="M372.842 273L393.727 219.11C393.941 218.538 394.326 218.044 394.829 217.696C395.332 217.347 395.929 217.161 396.541 217.161C397.154 217.161 397.751 217.347 398.254 217.696C398.757 218.044 399.142 218.538 399.356 219.11L420.251 273H372.842Z" fill="#FFB769"/>
<path d="M414.762 230.67H377.68V241.04H414.762V230.67Z" fill="#FAFAFA"/>
<path d="M417.587 250.27H375.647V260.64H417.587V250.27Z" fill="#FAFAFA"/>
<path d="M423.506 277.52H369.817C368.821 277.52 367.865 277.125 367.161 276.422C366.457 275.718 366.061 274.765 366.061 273.77C366.058 273.276 366.153 272.786 366.341 272.329C366.529 271.872 366.805 271.456 367.154 271.105C367.503 270.755 367.918 270.477 368.375 270.287C368.832 270.098 369.322 270 369.817 270H423.506C424.503 270 425.458 270.395 426.163 271.098C426.867 271.802 427.263 272.755 427.263 273.75C427.265 274.244 427.17 274.734 426.983 275.191C426.795 275.648 426.519 276.064 426.17 276.415C425.821 276.765 425.406 277.043 424.949 277.233C424.491 277.422 424.001 277.52 423.506 277.52Z" fill="#D89660"/>
<path opacity="0.1" d="M208.819 257.62V239.39H177.046V229.23H216.522V253.32C213.533 253.819 210.81 255.339 208.819 257.62Z" fill="#0F0F0F"/>
</g>
<defs>
<clipPath id="clip0_26014_323806">
<rect width="601" height="300" fill="white" transform="translate(-1)"/>
</clipPath>
</defs>
</svg>
