<svg width="21" height="20" viewBox="0 0 21 20" fill="none" xmlns="http://www.w3.org/2000/svg">
<ellipse cx="10.4072" cy="10" rx="8.91892" ry="9" fill="white"/>
<path d="M14.5456 6.94382L14.5612 6.95955C14.6145 7.02099 14.6451 7.1006 14.6459 7.1843C14.6467 7.27571 14.612 7.36297 14.5504 7.42753L14.5347 7.44402L14.5206 7.46188L10.0842 13.0578C10.0553 13.0865 10.0217 13.1097 9.98513 13.1261C9.94422 13.1446 9.90023 13.1544 9.85575 13.1553C9.81125 13.1561 9.76696 13.1479 9.72544 13.131L9.53714 13.5942L9.72544 13.131C9.68402 13.1142 9.64607 13.089 9.61397 13.0567C9.61388 13.0566 9.6138 13.0566 9.61372 13.0565L6.67172 10.0866C6.61466 10.0223 6.58306 9.93766 6.5846 9.84953C6.58618 9.75907 6.62252 9.67364 6.6846 9.611C6.74654 9.5485 6.82917 9.5135 6.91484 9.51197C6.99825 9.51049 7.07982 9.54082 7.14312 9.59796L9.46889 11.946L9.8694 12.3503L10.2188 11.9011L14.0755 6.94249C14.1042 6.91403 14.1374 6.89111 14.1736 6.87468C14.2146 6.85612 14.2586 6.84615 14.3031 6.84523C14.3477 6.84432 14.392 6.85247 14.4336 6.86931C14.4752 6.88615 14.5133 6.91141 14.5456 6.94382ZM17.069 16.7159C18.8349 14.934 19.8261 12.5181 19.8261 10C19.8261 7.4819 18.8349 5.06603 17.069 3.28409C15.3029 1.502 12.9067 0.5 10.4072 0.5C7.90768 0.5 5.51146 1.502 3.74542 3.28409C1.97954 5.06603 0.988281 7.4819 0.988281 10C0.988281 12.5181 1.97954 14.934 3.74542 16.7159C5.51146 18.498 7.90768 19.5 10.4072 19.5C12.9067 19.5 15.3029 18.498 17.069 16.7159Z" fill="#49A09D" stroke="white"/>
</svg>
