<svg width="60" height="60" fill="none" xmlns="http://www.w3.org/2000/svg"><rect width="60" height="60" rx="4" fill="#CCAF8F"/><path d="M35.61 8.198c-.306-.026-.614.178-.654.504-.387 3.127-.13 5.424.425 7.282.496 1.664 1.226 2.957 1.89 4.132l.004.007.216.384c.721 1.288 1.32 2.465 1.514 3.97.175 1.362.02 3.039-.76 5.338-1.453-1.557-2.834-2.645-4.162-3.45-1.238-.751-2.42-1.25-3.546-1.655.15-2.801-1.186-5.107-2.36-7.055l-.147-.245c-.56-.928-1.063-1.761-1.39-2.565-.347-.856-.468-1.616-.267-2.35l.006-.025c.093-.326-.128-.626-.436-.694-.3-.065-.63.1-.717.411a3.826 3.826 0 0 0-.142.877c-.033.753.152 1.487.44 2.199.362.89.91 1.796 1.456 2.701l.159.263c1.126 1.869 2.22 3.805 2.214 6.078l-.416-.136-.004-.002a188.1 188.1 0 0 1-.353-.115c-1.691-.556-3.23-1.106-4.755-2.27-1.524-1.163-3.072-2.97-4.69-6.09-.15-.288-.506-.382-.786-.257-.287.128-.443.466-.287.768 1.669 3.218 3.313 5.172 5.008 6.466 1.694 1.293 3.402 1.894 5.107 2.454l.339.111.007.003c1.595.521 3.193 1.045 4.907 2.085 1.834 1.111 3.824 2.831 6.029 5.809.19.257.554.306.815.143a.552.552 0 0 0 .165-.802c-.439-.593-.871-1.14-1.297-1.645 1.021-2.749 1.268-4.79 1.049-6.5-.185-1.436-.694-2.598-1.28-3.7a.544.544 0 0 0 .004-.073c-.006-1.216.528-2.06 1.202-2.639a4.704 4.704 0 0 1 2.066-1.008c.303-.057.544-.341.476-.67-.067-.326-.396-.498-.697-.441a5.937 5.937 0 0 0-2.642 1.283 4.537 4.537 0 0 0-1.332 1.891c-.549-.99-1.077-2.03-1.457-3.306-.507-1.7-.759-3.844-.388-6.842.041-.336-.224-.598-.534-.624Z" fill="#6C958A" fill-opacity=".5"/><circle cx="23" cy="47" r="6" fill="#6A9589"/><circle cx="36" cy="47" r="6" fill="#A79B82"/></svg>