<svg width="27" height="26" viewBox="0 0 27 26" fill="none" xmlns="http://www.w3.org/2000/svg">
<path d="M2.32366 8.07715C2.42809 6.46939 3.72071 5.2094 5.32988 5.12967C7.66006 5.01423 10.9906 4.875 13.5 4.875C16.0094 4.875 19.3399 5.01423 21.6701 5.12967C23.2793 5.2094 24.5719 6.46939 24.6763 8.07715C24.7764 9.6175 24.875 11.5128 24.875 13C24.875 14.4872 24.7764 16.3825 24.6763 17.9229C24.5719 19.5306 23.2793 20.7906 21.6701 20.8703C19.3399 20.9858 16.0094 21.125 13.5 21.125C10.9906 21.125 7.66006 20.9858 5.32988 20.8703C3.72071 20.7906 2.42809 19.5306 2.32366 17.9228C2.22361 16.3825 2.125 14.4872 2.125 13C2.125 11.5128 2.22361 9.6175 2.32366 8.07715Z" fill="#FC0D1B"/>
<path d="M11.0625 9.75V16.25L17.5625 13L11.0625 9.75Z" fill="white"/>
</svg>
