<svg width="164" height="164" viewBox="0 0 164 164" fill="none" xmlns="http://www.w3.org/2000/svg">
<g clip-path="url(#clip0_12384_3001)">
<path d="M82.2803 3.19007C71.5982 3.2462 61.039 5.47335 51.2442 9.73624C41.4494 13.9991 32.6235 20.2088 25.3026 27.9879C17.9817 35.767 12.3187 44.9533 8.65757 54.9885C4.99646 65.0238 3.41369 75.6986 4.00541 86.3645C4.59712 97.0303 7.35098 107.465 12.0997 117.033C16.8484 126.602 23.4928 135.105 31.6292 142.027C39.7657 148.949 49.2244 154.144 59.4306 157.297C69.6368 160.45 80.3776 161.496 91.0003 160.37C95.5861 159.871 100.12 158.974 104.55 157.69C110.278 156.03 115.797 153.722 121 150.81C124.707 148.733 128.242 146.362 131.57 143.72C144.404 133.538 153.745 119.609 158.294 103.871C162.843 88.1324 162.374 71.3677 156.952 55.9086C151.53 40.4495 141.424 27.0647 128.041 17.6161C114.658 8.16755 98.6626 3.12505 82.2803 3.19007Z" fill="#FCEFF2"/>
<path d="M121.43 132.21C129.88 132.21 136.73 125.619 136.73 117.49C136.73 109.36 129.88 102.77 121.43 102.77C112.98 102.77 106.13 109.36 106.13 117.49C106.13 125.619 112.98 132.21 121.43 132.21Z" fill="#EB92A7"/>
<path d="M136.73 132.21C140.955 132.21 144.38 128.915 144.38 124.85C144.38 120.785 140.955 117.49 136.73 117.49C132.505 117.49 129.08 120.785 129.08 124.85C129.08 128.915 132.505 132.21 136.73 132.21Z" fill="#EB92A7"/>
<path d="M106.13 132.2C111.322 132.2 115.53 128.153 115.53 123.16C115.53 118.167 111.322 114.12 106.13 114.12C100.939 114.12 96.7301 118.167 96.7301 123.16C96.7301 128.153 100.939 132.2 106.13 132.2Z" fill="#EB92A7"/>
<path d="M163.37 133.359H79.4904C79.4904 133.359 112.79 120.149 163.37 133.359Z" fill="#EB92A7"/>
<path d="M52.0804 132C62.0712 132 70.1704 124.205 70.1704 114.59C70.1704 104.974 62.0712 97.1797 52.0804 97.1797C42.0895 97.1797 33.9904 104.974 33.9904 114.59C33.9904 124.205 42.0895 132 52.0804 132Z" fill="#EB92A7"/>
<path d="M70.1701 131.99C75.1683 131.99 79.2201 128.095 79.2201 123.29C79.2201 118.485 75.1683 114.59 70.1701 114.59C65.1719 114.59 61.1201 118.485 61.1201 123.29C61.1201 128.095 65.1719 131.99 70.1701 131.99Z" fill="#EB92A7"/>
<path d="M33.9899 131.989C40.1258 131.989 45.0999 127.203 45.0999 121.299C45.0999 115.395 40.1258 110.609 33.9899 110.609C27.854 110.609 22.8799 115.395 22.8799 121.299C22.8799 127.203 27.854 131.989 33.9899 131.989Z" fill="#EB92A7"/>
<path d="M101.68 133.36H2.47021C2.47021 133.36 41.8502 117.74 101.68 133.36Z" fill="#EB92A7"/>
<path d="M20.1602 61.3304C25.3406 61.3304 29.5402 57.5964 29.5402 52.9904C29.5402 48.3843 25.3406 44.6504 20.1602 44.6504C14.9797 44.6504 10.7802 48.3843 10.7802 52.9904C10.7802 57.5964 14.9797 61.3304 20.1602 61.3304Z" fill="#F3BDCA"/>
<path d="M29.5401 61.3302C32.1303 61.3302 34.2301 59.4633 34.2301 57.1602C34.2301 54.8572 32.1303 52.9902 29.5401 52.9902C26.9499 52.9902 24.8501 54.8572 24.8501 57.1602C24.8501 59.4633 26.9499 61.3302 29.5401 61.3302Z" fill="#F3BDCA"/>
<path d="M10.7698 61.3201C13.9509 61.3201 16.5298 59.0278 16.5298 56.2001C16.5298 53.3724 13.9509 51.0801 10.7698 51.0801C7.58861 51.0801 5.00977 53.3724 5.00977 56.2001C5.00977 59.0278 7.58861 61.3201 10.7698 61.3201Z" fill="#F3BDCA"/>
<path d="M46.66 62.52H0C0 62.52 18.52 53.33 46.66 62.52Z" fill="#F3BDCA"/>
<path d="M135.22 35.4095C141.019 35.4095 145.72 31.2368 145.72 26.0895C145.72 20.9422 141.019 16.7695 135.22 16.7695C129.421 16.7695 124.72 20.9422 124.72 26.0895C124.72 31.2368 129.421 35.4095 135.22 35.4095Z" fill="#F3BDCA"/>
<path d="M124.73 35.4098C127.629 35.4098 129.98 33.3235 129.98 30.7498C129.98 28.1762 127.629 26.0898 124.73 26.0898C121.83 26.0898 119.48 28.1762 119.48 30.7498C119.48 33.3235 121.83 35.4098 124.73 35.4098Z" fill="#F3BDCA"/>
<path d="M145.72 35.42C149.282 35.42 152.17 32.8546 152.17 29.69C152.17 26.5254 149.282 23.96 145.72 23.96C142.158 23.96 139.27 26.5254 139.27 29.69C139.27 32.8546 142.158 35.42 145.72 35.42Z" fill="#F3BDCA"/>
<path d="M106.44 36.1394H164C164 36.1394 141.15 27.7794 106.44 36.1394Z" fill="#F3BDCA"/>
<path d="M114.26 46.6904H49.7402C48.9118 46.6904 48.2402 47.362 48.2402 48.1904V133.18C48.2402 134.009 48.9118 134.68 49.7402 134.68H114.26C115.089 134.68 115.76 134.009 115.76 133.18V48.1904C115.76 47.362 115.089 46.6904 114.26 46.6904Z" fill="white"/>
<path d="M80.7596 134.68H114.26C114.657 134.677 115.037 134.518 115.317 134.237C115.598 133.957 115.757 133.577 115.76 133.18V48.1797C115.76 47.7819 115.602 47.4003 115.32 47.119C115.039 46.8377 114.657 46.6797 114.26 46.6797H97.4896L80.7596 134.68Z" fill="#F9F9F9"/>
<path d="M63.7301 55.3906H58.0201C57.5231 55.3906 57.1201 55.7936 57.1201 56.2906V62.0006C57.1201 62.4977 57.5231 62.9006 58.0201 62.9006H63.7301C64.2272 62.9006 64.6301 62.4977 64.6301 62.0006V56.2906C64.6301 55.7936 64.2272 55.3906 63.7301 55.3906Z" fill="white"/>
<path d="M63.7302 64.4006H58.0002C57.3672 64.3954 56.7619 64.1402 56.3161 63.6906C55.8703 63.2411 55.6202 62.6337 55.6202 62.0006V56.2806C55.6202 55.6485 55.8707 55.0421 56.3167 54.5942C56.7628 54.1462 57.3681 53.8933 58.0002 53.8906H63.7202C64.355 53.8906 64.964 54.1421 65.4138 54.59C65.8636 55.038 66.1176 55.6458 66.1202 56.2806V62.0006C66.1176 62.6346 65.8653 63.242 65.4179 63.6913C64.9706 64.1405 64.3642 64.3954 63.7302 64.4006ZM58.6202 61.4006H63.1302V56.8906H58.6202V61.4006Z" fill="#727272"/>
<path d="M106.88 60.6406H69.3302C68.9324 60.6406 68.5508 60.4826 68.2695 60.2013C67.9882 59.92 67.8302 59.5385 67.8302 59.1406C67.8302 58.7428 67.9882 58.3613 68.2695 58.08C68.5508 57.7987 68.9324 57.6406 69.3302 57.6406H106.88C107.278 57.6406 107.66 57.7987 107.941 58.08C108.222 58.3613 108.38 58.7428 108.38 59.1406C108.38 59.5385 108.222 59.92 107.941 60.2013C107.66 60.4826 107.278 60.6406 106.88 60.6406Z" fill="#727272"/>
<path d="M63.7301 74.3096H58.0201C57.5231 74.3096 57.1201 74.7125 57.1201 75.2096V80.9196C57.1201 81.4166 57.5231 81.8196 58.0201 81.8196H63.7301C64.2272 81.8196 64.6301 81.4166 64.6301 80.9196V75.2096C64.6301 74.7125 64.2272 74.3096 63.7301 74.3096Z" fill="white"/>
<path d="M63.73 83.3196H58C57.3661 83.3196 56.7582 83.0678 56.31 82.6196C55.8618 82.1714 55.61 81.5634 55.61 80.9296V75.2096C55.61 74.5748 55.8615 73.9658 56.3094 73.516C56.7573 73.0662 57.3652 72.8122 58 72.8096H63.72C64.3557 72.8122 64.9646 73.0659 65.4141 73.5154C65.8636 73.9649 66.1174 74.5739 66.12 75.2096V80.9296C66.1174 81.5626 65.8647 82.169 65.4171 82.6167C64.9694 83.0643 64.363 83.3169 63.73 83.3196ZM58.62 80.3196H63.13V75.8096H58.62V80.3196Z" fill="#727272"/>
<path d="M94.3302 79.5703H69.3302C68.9324 79.5703 68.5508 79.4123 68.2695 79.131C67.9882 78.8497 67.8302 78.4681 67.8302 78.0703C67.8302 77.6725 67.9882 77.291 68.2695 77.0097C68.5508 76.7283 68.9324 76.5703 69.3302 76.5703H94.3302C94.728 76.5703 95.1096 76.7283 95.3909 77.0097C95.6722 77.291 95.8302 77.6725 95.8302 78.0703C95.8302 78.4681 95.6722 78.8497 95.3909 79.131C95.1096 79.4123 94.728 79.5703 94.3302 79.5703Z" fill="#727272"/>
<path d="M63.73 102.25H58C57.3652 102.248 56.7573 101.994 56.3094 101.544C55.8615 101.094 55.61 100.485 55.61 99.8502V94.1302C55.61 93.4964 55.8618 92.8885 56.31 92.4403C56.7582 91.992 57.3661 91.7402 58 91.7402H63.72C64.3548 91.7402 64.9637 91.9917 65.4135 92.4396C65.8633 92.8876 66.1173 93.4954 66.12 94.1302V99.8502C66.1174 100.484 65.865 101.092 65.4177 101.541C64.9703 101.99 64.364 102.245 63.73 102.25ZM58.62 99.2502H63.13V94.7402H58.62V99.2502Z" fill="#727272"/>
<path d="M96.7402 98.4902H69.3302C68.9324 98.4902 68.5508 98.3322 68.2695 98.0509C67.9882 97.7696 67.8302 97.3881 67.8302 96.9902C67.8302 96.5924 67.9882 96.2109 68.2695 95.9296C68.5508 95.6483 68.9324 95.4902 69.3302 95.4902H96.7402C97.138 95.4902 97.5196 95.6483 97.8009 95.9296C98.0822 96.2109 98.2402 96.5924 98.2402 96.9902C98.2402 97.3881 98.0822 97.7696 97.8009 98.0509C97.5196 98.3322 97.138 98.4902 96.7402 98.4902Z" fill="#727272"/>
<path d="M63.7301 112.17H58.0201C57.5231 112.17 57.1201 112.573 57.1201 113.07V118.78C57.1201 119.277 57.5231 119.68 58.0201 119.68H63.7301C64.2272 119.68 64.6301 119.277 64.6301 118.78V113.07C64.6301 112.573 64.2272 112.17 63.7301 112.17Z" fill="white"/>
<path d="M63.73 121.17H58C57.3661 121.17 56.7582 120.918 56.31 120.47C55.8618 120.022 55.61 119.414 55.61 118.78V113.06C55.61 112.426 55.8618 111.818 56.31 111.37C56.7582 110.922 57.3661 110.67 58 110.67H63.72C64.3548 110.67 64.9637 110.921 65.4135 111.369C65.8633 111.817 66.1173 112.425 66.12 113.06V118.78C66.1174 119.413 65.8647 120.019 65.4171 120.467C64.9694 120.915 64.363 121.167 63.73 121.17ZM58.62 118.17H63.13V113.67H58.62V118.17Z" fill="#727272"/>
<path d="M106.88 117.42H69.3298C68.932 117.42 68.5505 117.262 68.2692 116.981C67.9879 116.699 67.8298 116.318 67.8298 115.92C67.8298 115.522 67.9879 115.141 68.2692 114.859C68.5505 114.578 68.932 114.42 69.3298 114.42H106.88C107.278 114.42 107.659 114.578 107.94 114.859C108.222 115.141 108.38 115.522 108.38 115.92C108.38 116.318 108.222 116.699 107.94 116.981C107.659 117.262 107.278 117.42 106.88 117.42Z" fill="#727272"/>
<path d="M91.5299 42.5101V40.8701C91.5313 40.7668 91.5121 40.6643 91.4735 40.5685C91.4349 40.4727 91.3776 40.3855 91.3051 40.3121C91.2325 40.2386 91.1461 40.1802 91.0508 40.1404C90.9555 40.1006 90.8532 40.0801 90.7499 40.0801H73.2499C73.1467 40.0801 73.0444 40.1006 72.9491 40.1404C72.8538 40.1802 72.7674 40.2386 72.6948 40.3121C72.6223 40.3855 72.565 40.4727 72.5264 40.5685C72.4878 40.6643 72.4686 40.7668 72.4699 40.8701V42.5101H71.1099C71.0062 42.5101 70.9035 42.5305 70.8076 42.5702C70.7118 42.6099 70.6247 42.6681 70.5513 42.7415C70.478 42.8148 70.4198 42.9019 70.3801 42.9978C70.3404 43.0936 70.3199 43.1963 70.3199 43.3001V48.4401C70.3199 48.5438 70.3404 48.6465 70.3801 48.7424C70.4198 48.8382 70.478 48.9253 70.5513 48.9987C70.6247 49.072 70.7118 49.1302 70.8076 49.1699C70.9035 49.2096 71.0062 49.2301 71.1099 49.2301H92.8899C93.0995 49.2301 93.3004 49.1468 93.4486 48.9987C93.5967 48.8505 93.6799 48.6496 93.6799 48.4401V43.3001C93.6799 43.0906 93.5967 42.8896 93.4486 42.7415C93.3004 42.5933 93.0995 42.5101 92.8899 42.5101H91.5299Z" fill="#DB284E"/>
<path d="M91.5401 41.3701H72.4701V42.5101H91.5401V41.3701Z" fill="#AC1D3E"/>
<path d="M30.4632 67.6031L33.1128 66.1961C33.5204 65.9796 33.9972 65.934 34.4385 66.0691C34.8797 66.2043 35.2492 66.5092 35.4656 66.9167L53.0816 100.089L47.3497 103.133L29.7337 69.9606C29.6261 69.7581 29.5597 69.5362 29.5381 69.3079C29.5166 69.0796 29.5404 68.8492 29.6082 68.6301C29.676 68.4111 29.7864 68.2075 29.9332 68.0313C30.0799 67.855 30.26 67.7095 30.4632 67.6031Z" fill="#DA264D"/>
<path d="M53.76 108.27L47.36 103.12L53.08 100.08L53.76 108.27Z" fill="#FFB769"/>
<path d="M51.0898 106.12L53.4798 104.85L53.7598 108.27L51.0898 106.12Z" fill="#727272"/>
<g opacity="0.2">
<path opacity="0.2" d="M53.9299 108.169L53.2499 99.9994L35.6299 66.8094C35.4114 66.4046 35.0423 66.1021 34.6025 65.9674C34.1627 65.8327 33.6876 65.8765 33.2799 66.0894L32.1099 66.7094L53.9299 108.169Z" fill="#727272"/>
</g>
<path d="M64.0402 53.75H57.7102C56.556 53.75 55.6202 54.6857 55.6202 55.84V62.45C55.6202 63.6043 56.556 64.54 57.7102 64.54H64.0402C65.1945 64.54 66.1302 63.6043 66.1302 62.45V55.84C66.1302 54.6857 65.1945 53.75 64.0402 53.75Z" fill="#DA264D"/>
<g opacity="0.2">
<path opacity="0.2" d="M60.4102 64.54H64.0002C64.5536 64.5374 65.0837 64.3163 65.4751 63.9249C65.8665 63.5336 66.0875 63.0035 66.0902 62.45V55.83C66.0875 55.2774 65.8661 54.7484 65.4745 54.3586C65.0828 53.9688 64.5527 53.75 64.0002 53.75H62.5002L60.4102 64.54Z" fill="#727272"/>
</g>
<path d="M60.4 61.7903C60.301 61.7856 60.204 61.7611 60.1146 61.7181C60.0253 61.6752 59.9455 61.6147 59.88 61.5403L57.43 58.7303C57.3559 58.6616 57.2971 58.5781 57.2575 58.4852C57.2178 58.3923 57.1981 58.2921 57.1997 58.1911C57.2013 58.09 57.2241 57.9905 57.2667 57.8989C57.3093 57.8073 57.3707 57.7256 57.4469 57.6593C57.5231 57.593 57.6124 57.5434 57.709 57.5139C57.8056 57.4843 57.9074 57.4755 58.0077 57.4878C58.1079 57.5002 58.2045 57.5335 58.291 57.5856C58.3776 57.6377 58.4522 57.7075 58.51 57.7903L60.42 60.0003L63.66 56.4903C63.7926 56.3498 63.9756 56.2677 64.1688 56.262C64.362 56.2564 64.5495 56.3277 64.69 56.4603C64.8306 56.593 64.9127 56.776 64.9183 56.9691C64.924 57.1623 64.8526 57.3498 64.72 57.4903L60.93 61.6003C60.7842 61.7292 60.5945 61.7972 60.4 61.7903Z" fill="white"/>
<path d="M64.0402 72.6699H57.7102C56.556 72.6699 55.6202 73.6057 55.6202 74.7599V81.3699C55.6202 82.5242 56.556 83.4599 57.7102 83.4599H64.0402C65.1945 83.4599 66.1302 82.5242 66.1302 81.3699V74.7599C66.1302 73.6057 65.1945 72.6699 64.0402 72.6699Z" fill="#DA264D"/>
<g opacity="0.2">
<path opacity="0.2" d="M60.4102 83.4599H64.0002C64.5527 83.4599 65.0828 83.2411 65.4745 82.8513C65.8661 82.4615 66.0875 81.9325 66.0902 81.3799V74.7599C66.0875 74.2064 65.8665 73.6764 65.4751 73.285C65.0837 72.8936 64.5536 72.6726 64.0002 72.6699H62.5002L60.4102 83.4599Z" fill="#727272"/>
</g>
<path d="M60.3997 80.71C60.3009 80.7096 60.2034 80.6879 60.1137 80.6465C60.024 80.6051 59.9442 80.5449 59.8797 80.47L57.4297 77.65C57.3281 77.5043 57.2838 77.3262 57.3056 77.1499C57.3273 76.9735 57.4135 76.8115 57.5475 76.6949C57.6815 76.5782 57.8539 76.5152 58.0315 76.518C58.2091 76.5208 58.3795 76.5892 58.5097 76.71L60.4297 78.93L63.6697 75.41C63.8027 75.2781 63.9824 75.2041 64.1697 75.2041C64.357 75.2041 64.5368 75.2781 64.6697 75.41C64.7993 75.5442 64.8717 75.7235 64.8717 75.91C64.8717 76.0965 64.7993 76.2758 64.6697 76.41L60.8797 80.51C60.7502 80.6342 60.5791 80.7055 60.3997 80.71Z" fill="white"/>
<path d="M64.0402 91.5996H57.7102C56.556 91.5996 55.6202 92.5353 55.6202 93.6896V100.3C55.6202 101.454 56.556 102.39 57.7102 102.39H64.0402C65.1945 102.39 66.1302 101.454 66.1302 100.3V93.6896C66.1302 92.5353 65.1945 91.5996 64.0402 91.5996Z" fill="#DA264D"/>
<g opacity="0.2">
<path opacity="0.2" d="M60.4102 102.39H64.0002C64.5536 102.387 65.0837 102.166 65.4751 101.775C65.8665 101.383 66.0875 100.853 66.0902 100.3V93.6896C66.0875 93.1361 65.8665 92.606 65.4751 92.2147C65.0837 91.8233 64.5536 91.6022 64.0002 91.5996H62.5002L60.4102 102.39Z" fill="#727272"/>
</g>
<path d="M60.3997 99.6407C60.2999 99.6404 60.2014 99.6178 60.1115 99.5745C60.0215 99.5313 59.9423 99.4685 59.8797 99.3907L57.4297 96.5807C57.3281 96.435 57.2838 96.2569 57.3056 96.0805C57.3273 95.9042 57.4135 95.7422 57.5475 95.6255C57.6815 95.5089 57.8539 95.4459 58.0315 95.4487C58.2091 95.4515 58.3795 95.5199 58.5097 95.6407L60.4297 97.8507L63.6697 94.3407C63.8027 94.2088 63.9824 94.1348 64.1697 94.1348C64.357 94.1348 64.5368 94.2088 64.6697 94.3407C64.7993 94.4749 64.8717 94.6541 64.8717 94.8407C64.8717 95.0272 64.7993 95.2065 64.6697 95.3407L60.8797 99.4407C60.7502 99.5648 60.5791 99.6361 60.3997 99.6407Z" fill="white"/>
<path d="M64.0402 110.529H57.7102C56.556 110.529 55.6202 111.465 55.6202 112.619V119.229C55.6202 120.384 56.556 121.319 57.7102 121.319H64.0402C65.1945 121.319 66.1302 120.384 66.1302 119.229V112.619C66.1302 111.465 65.1945 110.529 64.0402 110.529Z" fill="#DA264D"/>
<g opacity="0.2">
<path opacity="0.2" d="M60.4102 121.319H64.0002C64.5536 121.317 65.0837 121.096 65.4751 120.704C65.8665 120.313 66.0875 119.783 66.0902 119.229V112.609C66.0875 112.057 65.8661 111.528 65.4745 111.138C65.0828 110.748 64.5527 110.529 64.0002 110.529H62.5002L60.4102 121.319Z" fill="#727272"/>
</g>
<path d="M60.4 118.57C60.301 118.565 60.2039 118.541 60.1146 118.498C60.0253 118.455 59.9455 118.394 59.88 118.32L57.43 115.5C57.3678 115.43 57.3202 115.349 57.29 115.26C57.2598 115.172 57.2476 115.078 57.2542 114.985C57.2607 114.892 57.2858 114.801 57.328 114.718C57.3702 114.634 57.4287 114.56 57.5 114.5C57.642 114.377 57.827 114.315 58.0145 114.328C58.2019 114.341 58.3765 114.428 58.5 114.57L60.42 116.78L63.66 113.26C63.7926 113.119 63.9756 113.037 64.1688 113.032C64.3619 113.026 64.5494 113.097 64.69 113.23C64.8306 113.362 64.9127 113.546 64.9183 113.739C64.9239 113.932 64.8526 114.119 64.72 114.26L60.93 118.37C60.7857 118.502 60.5958 118.574 60.4 118.57Z" fill="white"/>
<path d="M103.44 72.4002C101.129 74.7095 99.5148 77.6221 98.7813 80.8054C98.0479 83.9887 98.2248 87.3141 99.2918 90.4016C100.359 93.4891 102.273 96.214 104.816 98.2651C107.358 100.316 110.426 101.611 113.67 102L115.82 106.75L118 102C120.748 101.648 123.372 100.645 125.655 99.075C127.938 97.5051 129.813 95.4132 131.126 92.9732C132.438 90.5332 133.149 87.8153 133.201 85.0452C133.252 82.2751 132.642 79.5327 131.421 77.0456C130.2 74.5585 128.404 72.3985 126.181 70.7449C123.958 69.0912 121.373 67.9917 118.64 67.5375C115.907 67.0832 113.105 67.2875 110.466 68.1332C107.828 68.9789 105.429 70.4417 103.47 72.4002H103.44Z" fill="#DA264D"/>
<path d="M113.89 93.4105C113.609 93.406 113.331 93.3423 113.076 93.2234C112.821 93.1045 112.594 92.9331 112.41 92.7205L105.56 84.8505C105.364 84.6574 105.211 84.4261 105.108 84.1711C105.006 83.916 104.958 83.6426 104.966 83.368C104.974 83.0933 105.038 82.8232 105.156 82.5747C105.273 82.3261 105.44 82.1043 105.646 81.9232C105.853 81.742 106.095 81.6054 106.357 81.5218C106.618 81.4382 106.895 81.4095 107.168 81.4374C107.441 81.4653 107.706 81.5492 107.945 81.6839C108.185 81.8187 108.394 82.0013 108.56 82.2205L113.94 88.4105L123 78.5805C123.359 78.1826 123.862 77.9439 124.397 77.9167C124.933 77.8895 125.457 78.0761 125.855 78.4355C126.253 78.7948 126.491 79.2975 126.519 79.8329C126.546 80.3683 126.359 80.8926 126 81.2905L115.36 92.7704C115.172 92.9728 114.945 93.1341 114.692 93.2442C114.439 93.3543 114.166 93.4109 113.89 93.4105Z" fill="white"/>
<path opacity="0.1" d="M109.88 68.3393C114.364 67.973 118.816 69.357 122.303 72.2011C125.789 75.0451 128.039 79.1284 128.58 83.5949C129.122 88.0614 127.914 92.5641 125.209 96.1593C122.504 99.7544 118.512 102.163 114.07 102.879L115.82 106.759L118 101.999C120.424 101.687 122.755 100.867 124.841 99.5942C126.928 98.3212 128.723 96.6232 130.109 94.6106C131.496 92.598 132.444 90.316 132.89 87.9131C133.337 85.5102 133.272 83.0401 132.701 80.6637C132.13 78.2873 131.065 76.0578 129.575 74.1202C128.085 72.1827 126.204 70.5805 124.055 69.4179C121.905 68.2554 119.534 67.5585 117.097 67.3727C114.66 67.1868 112.211 67.5162 109.91 68.3393H109.88Z" fill="#727272"/>
</g>
<defs>
<clipPath id="clip0_12384_3001">
<rect width="164" height="164" fill="white"/>
</clipPath>
</defs>
</svg>
