<svg width="102" height="102" viewBox="0 0 102 102" fill="none" xmlns="http://www.w3.org/2000/svg">
<path d="M15.4185 84.6911C15.7543 85.0456 16.0839 85.4001 16.4322 85.7422C16.4322 85.3255 16.4322 84.8963 16.4322 84.4983C16.1026 84.5854 15.7605 84.6289 15.4185 84.6911Z" fill="#DCF7EC"/>
<path d="M50.7823 1.9841C39.7578 2.03641 29.0726 5.80289 20.4521 12.6754C11.8316 19.5478 5.77894 29.1252 3.27148 39.8609C4.04892 39.6743 4.88856 39.5126 5.79039 39.3883C25.8483 36.633 26.6693 29.2318 43.0515 29.2318C59.4337 29.2318 55.4097 36.4651 55.4097 36.4651C55.4097 36.4651 58.7433 45.558 52.7415 48.2822C52.4865 50.8384 51.933 53.2578 50.8756 54.7815C48.139 58.6314 44.5939 55.2418 44.5939 55.2418L44.8116 57.7296C46.0787 57.9222 47.3147 58.2819 48.4873 58.7994V58.8367C48.8232 58.9859 49.1466 59.1476 49.4576 59.3218L49.6504 59.4337C49.9054 59.583 50.1542 59.7323 50.3905 59.894L50.5273 59.9935C50.7886 60.1739 51.0373 60.3605 51.2799 60.5595L51.3359 60.6092C51.6033 60.8331 51.8645 61.0633 52.1071 61.3058C53.0221 61.1784 53.9447 61.114 54.8686 61.113C57.5414 61.1039 60.1881 61.6391 62.6474 62.6859C65.1067 63.7327 67.3271 65.2693 69.1734 67.2019C69.6834 66.6546 70.2121 66.0451 70.7532 65.3734L70.9958 65.0624C71.1388 64.8883 71.2756 64.7079 71.4187 64.5213C71.5617 64.3347 71.8416 63.9491 72.0406 63.6506C72.1277 63.5324 72.2148 63.4018 72.3019 63.2774C72.4822 63.0224 72.6626 62.7674 72.8492 62.4937L73.0917 62.1268C73.353 61.735 73.6142 61.3369 73.8816 60.9202L74.8394 61.6354C75.2324 60.9369 75.7511 60.317 76.3694 59.8069C77.0287 59.384 82.4894 57.5057 81.6498 58.9113C81.2393 59.5954 80.2193 59.9935 79.9519 60.3791C79.9026 60.4478 79.8711 60.5276 79.8599 60.6114C79.8487 60.6952 79.8583 60.7804 79.8878 60.8597C79.9173 60.9389 79.9657 61.0096 80.029 61.0658C80.0922 61.1219 80.1682 61.1616 80.2504 61.1814C82.0105 61.6044 87.0919 62.7114 89.8098 62.6865C89.8902 62.6839 89.9693 62.7065 90.0363 62.7511C90.1032 62.7957 90.1545 62.8601 90.183 62.9353C90.4131 63.5573 90.5623 64.3658 88.1865 64.6768C85.2882 65.0624 81.7058 64.5337 79.7653 65.2987L80.692 65.9891V66.07V66.1508C80.692 66.1881 80.6609 66.2317 80.6484 66.2814L80.5863 66.4493C80.5863 66.5115 80.5427 66.58 80.5178 66.6484L80.4308 66.8847C80.3997 66.9718 80.3686 67.0651 80.3312 67.1584C78.796 71.5374 76.7436 75.7174 74.2175 79.6098C74.2175 79.6596 74.2175 79.7031 74.2175 79.7529C76.4525 79.7224 78.6281 80.4731 80.3688 81.8754C82.1094 83.2777 83.306 85.2437 83.752 87.434C91.1414 80.7954 96.3387 72.0678 98.6551 62.4082C100.972 52.7485 100.298 42.613 96.7226 33.3451C93.1477 24.0772 86.8405 16.1146 78.6373 10.5128C70.434 4.91099 60.722 1.9345 50.7886 1.97788L50.7823 1.9841Z" fill="#FCEFF2"/>
<path d="M56.8076 71.2822C57.6659 75.8722 57.5664 81.0344 57.0813 85.8048C57.5487 86.1124 58.0347 86.3908 58.5366 86.6382C58.7189 81.4624 58.1363 76.2879 56.8076 71.2822Z" fill="#C22046"/>
<path d="M55.727 66.9904C55.7581 67.0401 55.7892 67.0837 55.8141 67.1334L56.0006 67.4195L56.1126 67.5874C56.1686 67.6683 56.2308 67.7492 56.2867 67.8362L56.4174 68.0104C56.4733 68.0912 56.5355 68.1721 56.5977 68.2467L56.7283 68.4209L56.9647 68.7007C57.0393 68.794 57.1202 68.8811 57.201 68.9744L57.3627 69.1423L57.5617 69.3476L57.7048 69.4844L57.9225 69.6896L58.0531 69.8016L58.3019 70.0068L58.3827 70.0628C58.7009 70.3007 59.0403 70.5089 59.3965 70.6848L59.751 70.8465H59.807C59.9314 70.8962 60.0495 70.946 60.1739 70.9833C62.5 71.7545 65.4543 70.9833 69.1052 67.1085C67.2588 65.1759 65.0384 63.6394 62.5791 62.5925C60.1198 61.5457 57.4731 61.0106 54.8003 61.0196C53.8765 61.0206 52.9538 61.0851 52.0388 61.2124C52.2254 61.3928 52.412 61.5856 52.5861 61.7784L52.6297 61.8282C52.7914 62.0085 52.9469 62.1889 53.1024 62.3817C53.1507 62.4507 53.2026 62.5171 53.2578 62.5807C53.3698 62.73 53.488 62.8793 53.5937 63.0348C53.6994 63.1903 53.9233 63.5074 54.0788 63.7562C54.1172 63.7852 54.1472 63.8239 54.1659 63.8682L54.2219 63.9988C54.6975 64.7961 55.1133 65.6277 55.4658 66.4866C55.5528 66.7043 55.6399 66.8473 55.727 66.9904Z" fill="#EB92A7"/>
<path d="M74.2248 79.7582C74.2248 79.7084 74.2248 79.6649 74.2248 79.6151L74.1689 79.696L74.1253 79.7644C73.6589 80.4485 73.1675 81.114 72.6575 81.7546L72.6202 81.8044L72.1227 82.4263C71.6073 83.0322 71.0592 83.6094 70.4807 84.1554L70.4372 84.1989C70.2568 84.373 70.0702 84.541 69.8836 84.7027C69.3147 85.1988 68.7098 85.652 68.0737 86.0585H68.0302C67.4161 86.4453 66.7663 86.7723 66.0897 87.035C65.8783 87.1158 65.6606 87.1905 65.4678 87.2589H65.4118C65.1879 87.3273 64.964 87.3833 64.7401 87.433C64.2718 87.5381 63.7952 87.6026 63.3158 87.6258H63.235C63.0235 87.6258 62.8183 87.6258 62.613 87.6258H62.4824C62.2585 87.6258 62.0346 87.6072 61.8107 87.5699H61.7672C61.5246 87.5699 61.2758 87.4952 61.0333 87.4393H60.9089L60.2869 87.2838L60.0692 87.2154L59.5344 87.0288L59.3167 86.9417C59.0741 86.8422 58.8253 86.7365 58.5766 86.6121C58.0632 86.3821 57.5646 86.1204 57.0839 85.8284V85.9901C57.0279 86.5125 56.9657 87.0288 56.9035 87.5388L56.8662 87.8497C56.804 88.3535 56.7356 88.8573 56.6672 89.3486V89.4482C56.5925 89.9519 56.5179 90.4557 56.437 90.9471V91.0093C56.3562 91.5255 56.2691 92.0355 56.182 92.5268C55.7716 94.828 55.33 96.8494 54.9381 98.4354C54.8759 98.6966 54.82 98.9453 54.7578 99.1879C54.7018 99.4242 54.6396 99.6544 54.5898 99.8658C55.1496 99.8285 55.7156 99.7912 56.2691 99.7352C59.1212 99.4247 61.941 98.867 64.6966 98.0684C66.0566 97.6538 67.3938 97.2039 68.7081 96.7188C70.8488 95.8926 72.9273 94.9136 74.9277 93.7894C75.1329 93.6774 75.3257 93.5593 75.5496 93.4411C77.6377 92.234 79.6353 90.8766 81.5266 89.3797C82.3102 88.7537 83.0752 88.1047 83.8216 87.433C83.3724 85.2332 82.1661 83.2605 80.4127 81.8582C78.6592 80.4559 76.4696 79.7128 74.2248 79.7582Z" fill="#EB92A7"/>
<path d="M27.5975 88.4549C27.1021 90.0943 26.7505 91.7737 26.5464 93.4741C27.1061 93.7975 27.6721 94.096 28.2381 94.4132L27.6721 88.1937L27.5975 88.4549Z" fill="#A0E8CB"/>
<path d="M29.9221 26.912C29.8816 25.8643 29.4275 24.8754 28.6592 24.1619C27.8909 23.4485 26.8712 23.0686 25.8234 23.1056C25.8234 18.9012 22.1477 15.4929 17.6199 15.4929C15.8254 15.4487 14.0672 16.0029 12.6225 17.0682C11.1777 18.1335 10.1285 19.6492 9.64024 21.3766H9.41634C6.63622 21.3766 4.37854 23.4726 4.37854 26.0537C4.38912 26.7583 4.56315 27.4509 4.88693 28.0769C5.21071 28.7029 5.6754 29.2451 6.24439 29.661C4.09481 30.1601 2.00232 30.8791 0 31.8067H40.7876C37.0492 30.5197 33.2083 29.5522 29.3063 28.9146C29.7042 28.3222 29.9184 27.6256 29.9221 26.912Z" fill="#EB92A7"/>
<path d="M31.9622 59.0109C31.9622 59.0109 32.3478 58.874 33.0133 58.6875L33.2061 58.6377C34.3553 58.325 35.5199 58.0717 36.6952 57.8789C37.1182 56.9957 37.9391 54.4955 37.9391 48.0707C37.9391 48.0707 33.5855 45.3653 36.9316 42.0378C39.6246 39.351 39.6868 42.2679 39.606 43.487C39.8672 41.1609 41.6709 31.4273 52.5612 37.3172C52.9688 40.9499 53.0292 44.6132 52.7416 48.2573C58.7434 45.5581 55.4098 36.4403 55.4098 36.4403C55.4098 36.4403 59.44 29.1696 43.0516 29.2318C26.6632 29.294 25.8484 36.6331 5.79049 39.3883C4.88866 39.5127 4.04903 39.6744 3.27159 39.861C1.42369 47.7548 1.56625 55.9842 3.68646 63.8093C5.80666 71.6344 9.83806 78.81 15.4183 84.6912C15.7604 84.629 16.1024 84.5606 16.4507 84.4736C16.7306 74.3917 19.9026 62.9727 31.9622 59.0109Z" fill="#221F20"/>
<path d="M79.7696 65.3047L74.8437 61.6165L73.8859 60.9013C73.6185 61.318 73.3573 61.7223 73.0961 62.1079L72.8535 62.4748L72.3062 63.2585C72.2191 63.3829 72.132 63.5135 72.045 63.6317C71.8273 63.9302 71.6158 64.2536 71.423 64.5024C71.2302 64.7512 71.1431 64.8693 71.0001 65.0435L70.7575 65.3545C70.2164 66.0262 69.6878 66.6357 69.1778 67.183C65.5269 71.0702 62.5726 71.829 60.2465 71.0577C60.1222 71.0204 60.004 70.9707 59.8796 70.9209H59.8236L59.4691 70.7592C59.1129 70.5833 58.7735 70.3752 58.4553 70.1373L58.3745 70.0813L58.1257 69.876L57.9951 69.7641L57.7774 69.5588L57.6343 69.422L57.4353 69.2168L57.2176 68.9742C57.1368 68.8809 57.0559 68.7938 56.9813 68.7006L56.745 68.4207L56.6143 68.2465C56.5522 68.1719 56.49 68.091 56.434 68.0102L56.3034 67.836C56.2474 67.749 56.1852 67.6681 56.1292 67.5873L55.9737 67.4193L55.7872 67.1332C55.7872 67.0835 55.7312 67.0399 55.7001 66.9902C55.669 66.9404 55.5259 66.7041 55.4451 66.561C55.0926 65.7021 54.6768 64.8706 54.2012 64.0732L54.1452 63.9426C54.1265 63.8983 54.0965 63.8597 54.0581 63.8307C53.9026 63.5819 53.7409 63.3456 53.573 63.1092C53.4051 62.8729 53.3491 62.8045 53.2372 62.6552C53.1819 62.5916 53.13 62.5251 53.0817 62.4562C52.9262 62.2696 52.7707 62.083 52.609 61.9026L52.5654 61.8529C52.3913 61.6601 52.2047 61.4673 52.0181 61.2869C51.7756 61.0443 51.5143 60.8142 51.2469 60.5903L51.1909 60.5406C50.9484 60.3415 50.6996 60.1549 50.4384 59.9746L50.3762 59.8813C50.1398 59.7196 49.8911 59.5703 49.6361 59.421L49.4432 59.3091C49.1323 59.1349 48.8089 58.9732 48.473 58.824C48.2678 59.2034 46.035 62.904 37.2779 60.7582C35.4682 60.3024 33.6932 59.7183 31.9664 59.0106C19.9006 62.9724 16.7286 74.3914 16.4487 84.4732C16.4487 84.8962 16.4487 85.3253 16.4487 85.7171C19.0654 88.3139 21.9652 90.6088 25.0939 92.5586C25.579 92.8571 26.0703 93.1805 26.5617 93.4418C26.7657 91.7414 27.1174 90.062 27.6128 88.4226L27.6874 88.1863L30.7971 76.6864L28.5395 94.5364C30.6674 95.637 32.8729 96.5808 35.1384 97.3601C36.0029 97.6524 36.8798 97.926 37.763 98.1686C42.1404 99.4003 46.6685 100.014 51.2158 99.9909C52.3353 99.9909 53.4362 99.9287 54.537 99.8479C54.5868 99.6364 54.6428 99.4063 54.705 99.1699C54.7672 98.9274 54.8231 98.6786 54.8853 98.4174C55.1154 97.4658 55.3642 96.3587 55.6192 95.1273C55.7872 94.3063 55.9551 93.4293 56.123 92.5088C56.2101 92.0175 56.2971 91.5075 56.378 90.9913V90.9291C56.4589 90.4377 56.5335 89.934 56.6081 89.4302V89.3307C56.6765 88.8393 56.745 88.3355 56.8072 87.8318L56.8445 87.5208C56.9067 87.0108 56.9689 86.4946 57.0248 85.9721V85.8104C57.51 81.0401 57.6095 75.8592 56.7512 71.2879C58.0799 76.2936 58.6625 81.468 58.4802 86.6438C58.729 86.7682 58.9778 86.874 59.2203 86.9735L59.438 87.0605L59.9729 87.2471L60.1906 87.3155L60.8125 87.471H60.9369C61.1795 87.527 61.4283 87.5706 61.6708 87.6017H61.7143C61.9383 87.6265 62.1622 87.6452 62.3861 87.6576H62.5167C62.7219 87.6576 62.9272 87.6576 63.1386 87.6576H63.2195C63.6989 87.6344 64.1754 87.5699 64.6437 87.4648C64.8676 87.4151 65.0915 87.3591 65.3154 87.2907H65.3714C65.5891 87.2223 65.8068 87.1476 65.9934 87.0668C66.67 86.8041 67.3198 86.4771 67.9339 86.0903H67.9774C68.6134 85.6838 69.2184 85.2306 69.7873 84.7345C69.9739 84.5727 70.1604 84.4048 70.3408 84.2307L70.3843 84.1871C70.9614 83.6398 71.5094 83.0626 72.0263 82.4581L72.5239 81.8362L72.5612 81.7864C73.0712 81.1645 73.5625 80.4803 74.029 79.7962L74.0725 79.7277L74.1285 79.6469C76.6264 75.7808 78.6577 71.6325 80.1801 67.2887C80.2174 67.1954 80.2485 67.1021 80.2796 67.0151L80.3667 66.7787C80.3667 66.7103 80.4164 66.6419 80.4351 66.5797L80.4973 66.4118C80.4973 66.362 80.4973 66.3185 80.5408 66.2812V66.2003V66.1195L79.7696 65.3047Z" fill="#DB284E"/>
<path d="M28.2352 94.4125L27.6692 88.2179L28.2352 94.4125Z" fill="#DB284E"/>
<path d="M90.1814 62.9171C90.1529 62.8419 90.1016 62.7775 90.0347 62.7329C89.9678 62.6883 89.8886 62.6657 89.8082 62.6683C87.0717 62.6683 82.009 61.5861 80.2489 61.1632C80.1667 61.1434 80.0907 61.1037 80.0274 61.0475C79.9642 60.9914 79.9157 60.9207 79.8862 60.8414C79.8568 60.7622 79.8472 60.677 79.8584 60.5932C79.8695 60.5094 79.9011 60.4296 79.9503 60.3609C80.2178 59.9753 81.2378 59.5772 81.6483 58.8931C82.4879 57.4875 77.0272 59.3658 76.3679 59.7887C75.7496 60.2988 75.2309 60.9187 74.8379 61.6172L79.7637 65.3054C81.7042 64.5155 85.2867 65.0442 88.185 64.6835C90.567 64.3476 90.4178 63.5453 90.1814 62.9171Z" fill="#F2AA91"/>
<path d="M39.6012 43.486C39.682 42.2421 39.6012 39.3501 36.9268 42.0369C33.5869 45.3643 37.9406 48.0698 37.9406 48.0698C37.9406 54.4946 37.1196 56.9948 36.6967 57.878C35.5214 58.0708 34.3568 58.3241 33.2075 58.6368L33.0147 58.6865C32.3492 58.8731 31.9636 59.01 31.9636 59.01C33.6904 59.7177 35.4654 60.3018 37.2751 60.7576C46.0135 62.9034 48.2463 59.2028 48.4702 58.8234V58.7861C47.2937 58.2676 46.0534 57.9078 44.782 57.7163L44.5644 55.2285C44.5644 55.2285 48.1095 58.6181 50.8461 54.7682C51.922 53.2382 52.4756 50.8251 52.7119 48.2689C53.0107 44.6216 52.9607 40.9541 52.5626 37.3163C41.6723 31.4264 39.8686 41.16 39.6012 43.486ZM49.3907 55.1103H47.3942C47.2243 55.1085 47.0591 55.0535 46.922 54.9531C46.7848 54.8528 46.6824 54.712 46.6292 54.5506C45.1208 54.4142 43.7027 53.772 42.6052 52.7282C42.3034 52.4451 42.038 52.1255 41.8153 51.7767L38.7989 46.8011C38.7692 46.9041 38.7252 47.0025 38.6683 47.0934C38.0898 47.9765 36.7526 46.2351 36.7526 45.1778C36.7526 44.6697 36.9545 44.1825 37.3137 43.8232C37.673 43.464 38.1602 43.2621 38.6683 43.2621C38.8501 44.1524 38.9397 45.059 38.9357 45.9676L42.2942 51.4968C42.4942 51.8037 42.7301 52.0856 42.997 52.3364C43.9912 53.2889 45.2774 53.8783 46.6479 54.0095C46.7061 53.8579 46.8082 53.7273 46.9412 53.6342C47.0742 53.5411 47.2319 53.4899 47.3942 53.487H49.3907C49.6084 53.487 49.8173 53.5735 49.9712 53.7275C50.1252 53.8814 50.2117 54.0903 50.2117 54.308C50.2117 54.5257 50.1252 54.7346 49.9712 54.8885C49.8173 55.0425 49.6084 55.129 49.3907 55.129V55.1103Z" fill="#F2AA91"/>
<path d="M38.3946 45.5834C38.4568 45.5459 38.5311 45.5339 38.6019 45.5502C38.6727 45.5664 38.7344 45.6096 38.774 45.6705L38.9357 45.9441C38.9398 45.0355 38.8502 44.1289 38.6683 43.2386C38.1602 43.2386 37.673 43.4405 37.3138 43.7997C36.9545 44.159 36.7527 44.6462 36.7527 45.1543C36.7527 46.2116 38.0899 47.953 38.6683 47.0699C38.7252 46.979 38.7692 46.8806 38.7989 46.7776L38.3013 45.9566C38.2663 45.8942 38.2564 45.8208 38.2737 45.7514C38.2911 45.682 38.3343 45.6219 38.3946 45.5834Z" fill="#83182F"/>
<path d="M46.5716 54.2901C46.573 54.1935 46.5942 54.0983 46.6338 54.0102C45.2633 53.8791 43.977 53.2896 42.9829 52.3372L42.6035 52.729C43.7059 53.7766 45.1312 54.419 46.6462 54.5513C46.6051 54.4697 46.5798 54.3811 46.5716 54.2901Z" fill="white"/>
<path d="M42.2927 51.4977L38.9342 45.9437C38.9251 46.2263 38.8791 46.5065 38.7974 46.7771L41.8138 51.7527C42.0365 52.1016 42.3019 52.4212 42.6037 52.7043L42.9831 52.3125C42.7221 52.0687 42.4904 51.7953 42.2927 51.4977Z" fill="white"/>
<path d="M38.7707 45.67C38.7327 45.6073 38.6714 45.5622 38.6003 45.5447C38.5291 45.5272 38.454 45.5387 38.3913 45.5767C38.3286 45.6146 38.2835 45.6759 38.266 45.747C38.2486 45.8182 38.26 45.8934 38.298 45.9561L38.7955 46.777C38.8773 46.5064 38.9233 46.2262 38.9324 45.9436L38.7707 45.67Z" fill="white"/>
<path d="M47.8155 54.0477C47.8868 54.0488 47.9553 54.0759 48.008 54.1241C48.0607 54.1722 48.094 54.2379 48.1016 54.3089C48.1033 54.3448 48.0978 54.3807 48.0856 54.4146C48.0734 54.4484 48.0546 54.4795 48.0303 54.5061C48.0061 54.5327 47.9768 54.5542 47.9442 54.5695C47.9116 54.5847 47.8763 54.5934 47.8404 54.595H47.4859C47.2054 54.5962 46.9251 54.5816 46.6462 54.5514C46.6994 54.7129 46.8018 54.8536 46.9389 54.954C47.0761 55.0544 47.2413 55.1094 47.4112 55.1112H49.4077C49.6254 55.1112 49.8342 55.0247 49.9882 54.8707C50.1422 54.7168 50.2287 54.508 50.2287 54.2902C50.2287 54.0725 50.1422 53.8637 49.9882 53.7097C49.8342 53.5557 49.6254 53.4692 49.4077 53.4692H47.3926C47.2259 53.471 47.0639 53.5238 46.9282 53.6206C46.7925 53.7173 46.6898 53.8534 46.6338 54.0103C47.0263 54.0516 47.4212 54.0641 47.8155 54.0477Z" fill="#83182F"/>
<path d="M46.6451 54.5515C46.93 54.5845 47.2166 54.6011 47.5034 54.6012H47.8579C47.8938 54.5996 47.9291 54.591 47.9617 54.5757C47.9943 54.5605 48.0236 54.5389 48.0478 54.5124C48.0721 54.4858 48.0909 54.4547 48.1031 54.4209C48.1153 54.387 48.1208 54.3511 48.1191 54.3151C48.1115 54.2442 48.0782 54.1784 48.0255 54.1303C47.9728 54.0822 47.9044 54.055 47.833 54.0539C47.4387 54.0703 47.0438 54.0579 46.6513 54.0166C46.6117 54.1047 46.5906 54.1999 46.5891 54.2965C46.5922 54.3842 46.6112 54.4706 46.6451 54.5515Z" fill="#83182F"/>
<path d="M27.6692 88.2186L28.2352 94.4382L28.5399 94.5874L30.7976 76.7437L27.6692 88.2186Z" fill="#C22046"/>
<path d="M78.6456 20.3069C82.7984 20.3069 86.165 17.3163 86.165 13.6271C86.165 9.93802 82.7984 6.94739 78.6456 6.94739C74.4928 6.94739 71.1262 9.93802 71.1262 13.6271C71.1262 17.3163 74.4928 20.3069 78.6456 20.3069Z" fill="#F3BDCA"/>
<path d="M71.119 20.3133C73.1971 20.3133 74.8818 18.818 74.8818 16.9734C74.8818 15.1289 73.1971 13.6335 71.119 13.6335C69.0409 13.6335 67.3562 15.1289 67.3562 16.9734C67.3562 18.818 69.0409 20.3133 71.119 20.3133Z" fill="#F3BDCA"/>
<path d="M86.1638 20.3139C88.716 20.3139 90.7849 18.4761 90.7849 16.209C90.7849 13.9419 88.716 12.1041 86.1638 12.1041C83.6117 12.1041 81.5427 13.9419 81.5427 16.209C81.5427 18.4761 83.6117 20.3139 86.1638 20.3139Z" fill="#F3BDCA"/>
<path d="M58.0154 20.8355H99.2694C99.2694 20.8355 82.8934 14.8399 58.0154 20.8355Z" fill="#F3BDCA"/>
<path d="M61.8919 21.8734C63.3174 21.8734 64.473 20.7568 64.473 19.3794C64.473 18.002 63.3174 16.8854 61.8919 16.8854C60.4664 16.8854 59.3108 18.002 59.3108 19.3794C59.3108 20.7568 60.4664 21.8734 61.8919 21.8734Z" fill="#EB92A7"/>
<path d="M63.607 21.8741C64.2012 21.8741 64.683 21.409 64.683 20.8354C64.683 20.2618 64.2012 19.7968 63.607 19.7968C63.0127 19.7968 62.531 20.2618 62.531 20.8354C62.531 21.409 63.0127 21.8741 63.607 21.8741Z" fill="#A0E8CB"/>
<path d="M59.3093 21.8742C60.0375 21.8742 60.6278 21.3034 60.6278 20.5992C60.6278 19.8951 60.0375 19.3242 59.3093 19.3242C58.5811 19.3242 57.9907 19.8951 57.9907 20.5992C57.9907 21.3034 58.5811 21.8742 59.3093 21.8742Z" fill="#EB92A7"/>
<path d="M68.0086 22.0738H53.3181C53.3181 22.0738 59.152 19.7539 68.0086 22.0738Z" fill="#EB92A7"/>
<path d="M65.0186 21.8803C66.7463 21.8803 68.147 20.527 68.147 18.8576C68.147 17.1883 66.7463 15.835 65.0186 15.835C63.2908 15.835 61.8901 17.1883 61.8901 18.8576C61.8901 20.527 63.2908 21.8803 65.0186 21.8803Z" fill="#EB92A7"/>
<path d="M68.1472 21.8743C68.8616 21.8743 69.4408 21.3146 69.4408 20.6241C69.4408 19.9337 68.8616 19.374 68.1472 19.374C67.4327 19.374 66.8535 19.9337 66.8535 20.6241C66.8535 21.3146 67.4327 21.8743 68.1472 21.8743Z" fill="#EB92A7"/>
<path d="M62.9601 21.874C63.8395 21.874 64.5523 21.1862 64.5523 20.3377C64.5523 19.4893 63.8395 18.8015 62.9601 18.8015C62.0808 18.8015 61.3679 19.4893 61.3679 20.3377C61.3679 21.1862 62.0808 21.874 62.9601 21.874Z" fill="#EB92A7"/>
<path d="M72.6608 22.0731H58.4617C58.4617 22.0731 64.0592 19.8278 72.6608 22.0731Z" fill="#EB92A7"/>
<path d="M67.9898 28.1872C66.0241 30.149 64.6508 32.6248 64.0271 35.331C63.4034 38.0372 63.5545 40.8644 64.4633 43.4887C65.372 46.1129 67.0015 48.4282 69.1652 50.1692C71.3289 51.9102 73.9392 53.0065 76.6971 53.3327L78.5194 57.3629L80.3417 53.314C82.6752 53.015 84.9037 52.1635 86.8422 50.8305C88.7807 49.4974 90.3732 47.7211 91.4874 45.6491C92.6017 43.5772 93.2057 41.2693 93.2491 38.9171C93.2925 36.5649 92.7742 34.2362 91.7372 32.1245C90.7001 30.0128 89.1743 28.179 87.2864 26.7752C85.3985 25.3715 83.2029 24.4384 80.882 24.0534C78.5611 23.6684 76.1819 23.8426 73.9418 24.5615C71.7018 25.2805 69.6656 26.5234 68.0022 28.1872H67.9898Z" fill="#DB284E"/>
<path d="M73.4573 24.7351C77.2678 24.4194 81.0524 25.5923 84.0166 28.0076C86.9807 30.4228 88.8938 33.8926 89.3542 37.6884C89.8146 41.4841 88.7865 45.3106 86.4857 48.3645C84.1848 51.4183 80.7903 53.462 77.0148 54.0664L78.5075 57.3627L80.3298 53.3138C82.3932 53.0563 84.3791 52.3665 86.1577 51.2893C87.9364 50.2121 89.4678 48.7718 90.6519 47.0625C91.836 45.3532 92.6463 43.4133 93.0297 41.3696C93.4131 39.3258 93.361 37.2242 92.8769 35.2019C92.3928 33.1797 91.4875 31.2823 90.2202 29.6337C88.9529 27.9851 87.3521 26.6224 85.5223 25.6346C83.6925 24.6468 81.6749 24.0561 79.6013 23.9011C77.5277 23.7461 75.4447 24.0303 73.4884 24.7351H73.4573Z" fill="#C22046"/>
<path d="M68.0739 41.3032C68.6959 40.7746 69.2121 40.3454 69.579 40.0096C69.9296 39.6937 70.2408 39.3366 70.5057 38.946C70.7414 38.6358 70.8741 38.2595 70.8851 37.87C70.896 37.6484 70.8325 37.4295 70.7048 37.2481C70.6287 37.1725 70.5377 37.1136 70.4376 37.0752C70.3375 37.0368 70.2304 37.0196 70.1233 37.0249C70.0162 37.0302 69.9114 37.0577 69.8155 37.1058C69.7197 37.1539 69.6349 37.2214 69.5666 37.3041C69.4169 37.5369 69.345 37.8114 69.3613 38.0877H67.7505C67.7494 37.604 67.8737 37.1283 68.1112 36.707C68.3162 36.3506 68.624 36.0644 68.9944 35.886C69.3835 35.7047 69.8091 35.6153 70.2383 35.6248C70.5543 35.6011 70.8719 35.6412 71.1722 35.7427C71.4724 35.8442 71.7492 36.005 71.986 36.2157C72.1893 36.4181 72.3493 36.6598 72.4562 36.926C72.5631 37.1923 72.6147 37.4775 72.6079 37.7643C72.6033 38.4718 72.3526 39.1557 71.8989 39.6986C71.3666 40.3467 70.759 40.9292 70.089 41.4338H72.7137V42.7897H67.794V41.5458L68.0739 41.3032Z" fill="white"/>
<path d="M73.4292 41.6143V40.2709L76.5016 35.8737H78.3675V40.1713H79.1698V41.6143H78.3675V42.8582H76.7069V41.6143H73.4292ZM76.8188 37.7022L75.1831 40.19H76.8188V37.7022Z" fill="white"/>
<path d="M83.6275 34.5932L81.3823 44.0966C81.3465 44.2716 81.2516 44.4291 81.1134 44.5424C80.9752 44.6556 80.8022 44.7178 80.6235 44.7185C80.5059 44.7189 80.3896 44.6926 80.2836 44.6415C80.1776 44.5905 80.0846 44.5161 80.0116 44.4238C79.9385 44.3316 79.8873 44.224 79.8619 44.1092C79.8365 43.9943 79.8374 43.8752 79.8647 43.7607L82.0975 34.2075C82.1333 34.0325 82.2282 33.875 82.3664 33.7618C82.5046 33.6485 82.6776 33.5863 82.8563 33.5856C82.9801 33.5824 83.1028 33.6085 83.2145 33.6619C83.3262 33.7153 83.4237 33.7944 83.4989 33.8927C83.5741 33.991 83.625 34.1057 83.6474 34.2275C83.6697 34.3492 83.6629 34.4745 83.6275 34.5932Z" fill="white"/>
<path d="M88.9392 37.0188L86.5011 42.8776H84.797L87.2848 37.2054H84.2559V35.7874H88.9392V37.0188Z" fill="white"/>
</svg>
