<svg width="16" height="16" viewBox="0 0 16 16" fill="none" xmlns="http://www.w3.org/2000/svg">
<path d="M15.9648 8.93298H0.534058V8.93322H15.9648V8.93298Z" fill="#C42126"/>
<path d="M15.1617 4.70227H1.33887V4.7025H15.1617V4.70227Z" fill="#C42126"/>
<path d="M15.7104 6.11279H0.788818V6.11302H15.7104V6.11279Z" fill="#C42126"/>
<path d="M3.83057 14.5739H12.6688L12.6693 14.5734H3.83008L3.83057 14.5739Z" fill="#C42126"/>
<path d="M8.24904 0.458374C8.09682 0.458374 7.9458 0.463871 7.7959 0.472445H8.70229C8.55225 0.463871 8.40127 0.458374 8.24904 0.458374Z" fill="#C42126"/>
<path d="M15.9673 7.52246H0.531494V7.52269H15.9673V7.52246Z" fill="#C42126"/>
<path d="M10.5411 3.29289H14.2418C13.8023 2.75777 13.2914 2.28408 12.7254 1.88306H9.94653C10.1765 2.28761 10.3742 2.76497 10.5411 3.29289Z" fill="#E7E7E7"/>
<path d="M9.94587 1.88272H12.7248C11.576 1.06861 10.1967 0.558792 8.70309 0.472534H8.46448C9.16749 0.561017 9.4904 1.08131 9.94587 1.88272Z" fill="#DC3027"/>
<path d="M15.7111 6.11308C15.5733 5.62165 15.3885 5.15014 15.1614 4.70325H10.9039C10.9902 5.1559 11.0583 5.62872 11.1086 6.11308H15.7111Z" fill="#E7E7E7"/>
<path d="M10.6649 4.70279H15.1617C14.9055 4.19875 14.5976 3.72578 14.2418 3.29272H10.3136C10.4521 3.73118 10.5697 4.20415 10.6649 4.70279Z" fill="#DC3027"/>
<path d="M11.2723 8.93337H15.9658C15.9881 8.69488 16.0007 8.45319 16.0007 8.20895C16.0007 7.97779 15.9886 7.74958 15.9688 7.52344H11.2735C11.2887 7.99236 11.2885 8.46471 11.2723 8.93337Z" fill="#E7E7E7"/>
<path d="M15.9688 7.52262C15.9263 7.03839 15.8391 6.56728 15.7117 6.11279H10.9115C10.9597 6.57448 10.9915 7.04683 11.0071 7.52262H15.9688Z" fill="#DC3027"/>
<path d="M10.8232 11.7527H15.1414C15.3717 11.3063 15.5594 10.8344 15.7002 10.3427H11.032C10.9806 10.8277 10.9108 11.3004 10.8232 11.7527Z" fill="#E7E7E7"/>
<path d="M15.6993 10.3428C15.8294 9.88846 15.9197 9.41735 15.9646 8.93298H11.1249C11.1083 9.40913 11.0755 9.88136 11.0264 10.3428H15.6993Z" fill="#DC3027"/>
<path d="M12.67 14.5735C13.2441 14.1741 13.7622 13.6999 14.2087 13.1637H10.5726C10.4027 13.6938 10.2009 14.1704 9.9668 14.5735H12.67Z" fill="#E7E7E7"/>
<path d="M10.436 13.1632H14.209C14.5691 12.7307 14.8816 12.2577 15.1416 11.7532H10.7918C10.6952 12.2522 10.5764 12.7254 10.436 13.1632Z" fill="#DC3027"/>
<path d="M7.96899 15.9525C7.95331 15.952 7.93767 15.9513 7.922 15.9508C7.93767 15.9513 7.95335 15.952 7.96899 15.9525Z" fill="#DC3027"/>
<path d="M8.25 15.9581C9.89305 15.9581 11.4154 15.4452 12.6693 14.5734H9.86441C9.3666 15.431 9.03816 15.9581 8.25 15.9581Z" fill="#DC3027"/>
<path d="M8.24958 15.9581C8.15547 15.9581 8.06198 15.9559 7.96875 15.9526C8.06296 15.9558 8.15655 15.9581 8.24958 15.9581Z" fill="#C42126"/>
<path d="M10.2023 1.88306H3.77496C3.20889 2.28408 2.69812 2.75774 2.25842 3.29289H10.7968C10.6298 2.76497 10.4322 2.28761 10.2023 1.88306Z" fill="#F3F4F5"/>
<path d="M3.77454 1.88272H10.2019C9.74629 1.08131 9.16687 0.561017 8.46385 0.472534H7.79607C6.30244 0.558792 4.92321 1.06861 3.77454 1.88272Z" fill="#E73625"/>
<path d="M0.788818 6.11308H11.3527C11.3023 5.62862 11.2343 5.1559 11.148 4.70325H1.3385C1.11137 5.15018 0.926614 5.62165 0.788818 6.11308Z" fill="#F3F4F5"/>
<path d="M2.25872 3.29272C1.90312 3.72578 1.59499 4.19872 1.33887 4.70278H11.1484C11.0533 4.20425 10.9357 3.73131 10.7972 3.29272C10.7972 3.29272 2.25872 3.29272 2.25872 3.29272Z" fill="#E73625"/>
<path d="M0.5 8.20885C0.5 8.45309 0.512729 8.69478 0.534883 8.93327H11.4477C11.4638 8.46458 11.464 7.99236 11.4488 7.52344H0.531937C0.512107 7.74949 0.5 7.9777 0.5 8.20885Z" fill="#F3F4F5"/>
<path d="M0.531494 7.52262H11.4482C11.4327 7.04674 11.4007 6.57451 11.3526 6.11279H0.788467C0.661077 6.56738 0.573838 7.03839 0.531494 7.52262Z" fill="#E73625"/>
<path d="M11.3492 10.3427H0.800171C0.940912 10.8346 1.12874 11.3063 1.35891 11.7527H11.1404C11.228 11.3005 11.2976 10.8278 11.3492 10.3427Z" fill="#F3F4F5"/>
<path d="M0.800562 10.3428H11.3496C11.3986 9.88135 11.4315 9.409 11.4481 8.93298H0.535278C0.580174 9.41744 0.67062 9.88846 0.800562 10.3428Z" fill="#E73625"/>
<path d="M3.82993 14.5735H10.1785C10.4126 14.1703 10.6145 13.6938 10.7843 13.1637H2.29114C2.73767 13.6999 3.25564 14.1741 3.82993 14.5735Z" fill="#F3F4F5"/>
<path d="M1.35901 11.7532C1.61906 12.2577 1.93156 12.7307 2.29158 13.1632H10.7848C10.925 12.7254 11.0438 12.2522 11.1404 11.7532H1.35901Z" fill="#E73625"/>
<path d="M7.92247 15.9509C7.93814 15.9514 7.95379 15.9521 7.96946 15.9526C8.06272 15.9559 8.15621 15.9581 8.25029 15.9581C9.03848 15.9581 9.68116 15.4311 10.1791 14.5734H3.8313C5.00104 15.3869 6.40511 15.8876 7.92247 15.9509Z" fill="#E73625"/>
<path d="M8.08962 0.462158C4.11815 0.542951 0.881204 3.60938 0.532837 7.50991H8.08975V0.462158H8.08962Z" fill="#283991"/>
<path d="M2.05141 4.84888L2.16947 5.21243H2.552L2.24254 5.43723L2.36074 5.80105L2.05141 5.57611L1.74218 5.80105L1.86014 5.43723L1.55078 5.21243H1.93331L2.05141 4.84888Z" fill="#EFEFEF"/>
<path d="M2.05141 6.13367L2.16947 6.49745H2.552L2.24254 6.72225L2.36074 7.08607L2.05141 6.86113L1.74218 7.08607L1.86014 6.72225L1.55078 6.49745H1.93331L2.05141 6.13367Z" fill="#EFEFEF"/>
<path d="M3.33566 2.92188L3.45378 3.28556H3.83623L3.52682 3.51049L3.64494 3.87404L3.33566 3.64937L3.02626 3.87404L3.14437 3.51049L2.83484 3.28556H3.21742L3.33566 2.92188Z" fill="#EFEFEF"/>
<path d="M3.33566 4.20654L3.45378 4.57022H3.83623L3.52682 4.7949L3.64494 5.15871L3.33566 4.93404L3.02626 5.15871L3.14437 4.7949L2.83484 4.57022H3.21742L3.33566 4.20654Z" fill="#EFEFEF"/>
<path d="M3.33566 5.49133L3.45378 5.85515H3.83623L3.52682 6.07969L3.64494 6.44351L3.33566 6.2186L3.02626 6.44351L3.14437 6.07969L2.83484 5.85515H3.21742L3.33566 5.49133Z" fill="#EFEFEF"/>
<path d="M1.07571 6.44401L0.957511 6.08019L1.26687 5.85552H0.884572L0.875998 5.82898C0.834015 5.95882 0.796089 6.09024 0.761108 6.22313L0.766508 6.2191L1.07571 6.44401Z" fill="#EFEFEF"/>
<path d="M1.74162 4.51648L2.05085 4.29157L2.36021 4.51648L2.24202 4.15266L2.55138 3.92776H2.16885L2.05075 3.56421L1.93266 3.92776H1.79169C1.76551 3.96742 1.74018 4.00731 1.71472 4.04756L1.85962 4.15266L1.74162 4.51648Z" fill="#EFEFEF"/>
<path d="M3.33495 2.36512L3.64423 2.5898L3.52611 2.22625L3.8354 2.00134H3.61448C3.42685 2.14159 3.24583 2.29002 3.07191 2.44664L3.02527 2.5898L3.33495 2.36512Z" fill="#EFEFEF"/>
<path d="M4.31067 1.94726L4.62003 1.72235L4.92926 1.94726L4.81116 1.58344L5.1204 1.35877H4.738L4.72196 1.30981C4.59238 1.37601 4.46414 1.44489 4.33881 1.51819L4.42863 1.58341L4.31067 1.94726Z" fill="#EFEFEF"/>
<path d="M4.62096 2.2804L4.73906 2.64385H5.12146L4.8121 2.86875L4.9302 3.23256L4.62096 3.00763L4.3116 3.23256L4.4297 2.86875L4.12024 2.64385H4.50274L4.62096 2.2804Z" fill="#EFEFEF"/>
<path d="M4.62096 3.56519L4.73906 3.92864H5.12146L4.8121 4.15354L4.9302 4.51736L4.62096 4.29242L4.3116 4.51736L4.4297 4.15354L4.12024 3.92864H4.50274L4.62096 3.56519Z" fill="#EFEFEF"/>
<path d="M4.62096 4.84888L4.73906 5.21243H5.12146L4.8121 5.43723L4.9302 5.80105L4.62096 5.57611L4.3116 5.80105L4.4297 5.43723L4.12024 5.21243H4.50274L4.62096 4.84888Z" fill="#EFEFEF"/>
<path d="M4.62096 6.13367L4.73906 6.49745H5.12146L4.8121 6.72225L4.9302 7.08607L4.62096 6.86113L4.3116 7.08607L4.4297 6.72225L4.12024 6.49745H4.50274L4.62096 6.13367Z" fill="#EFEFEF"/>
<path d="M5.90502 1.63806L6.02312 2.00174H6.40552L6.09629 2.22668L6.21425 2.59023L5.90502 2.36556L5.59556 2.59023L5.71376 2.22668L5.4043 2.00174H5.78679L5.90502 1.63806Z" fill="#EFEFEF"/>
<path d="M5.90502 2.92188L6.02312 3.28556H6.40552L6.09629 3.51049L6.21425 3.87404L5.90502 3.64937L5.59556 3.87404L5.71376 3.51049L5.4043 3.28556H5.78679L5.90502 2.92188Z" fill="#EFEFEF"/>
<path d="M5.90502 4.20654L6.02312 4.57022H6.40552L6.09629 4.7949L6.21425 5.15871L5.90502 4.93404L5.59556 5.15871L5.71376 4.7949L5.4043 4.57022H5.78679L5.90502 4.20654Z" fill="#EFEFEF"/>
<path d="M5.90502 5.49133L6.02312 5.85515H6.40552L6.09629 6.07969L6.21425 6.4435L5.90502 6.2186L5.59556 6.4435L5.71376 6.07969L5.4043 5.85515H5.78679L5.90502 5.49133Z" fill="#EFEFEF"/>
<path d="M7.18908 0.995728L7.30718 1.35941H7.68958L7.38021 1.58408L7.49831 1.9479L7.18908 1.72296L6.87962 1.9479L6.99781 1.58408L6.68835 1.35941H7.07075L7.18908 0.995728Z" fill="#EFEFEF"/>
<path d="M7.18908 2.2804L7.30718 2.64385H7.68958L7.38021 2.86875L7.49831 3.23256L7.18908 3.00763L6.87962 3.23256L6.99781 2.86875L6.68835 2.64385H7.07075L7.18908 2.2804Z" fill="#EFEFEF"/>
<path d="M7.18908 3.56519L7.30718 3.92864H7.68958L7.38021 4.15354L7.49831 4.51736L7.18908 4.29242L6.87962 4.51736L6.99781 4.15354L6.68835 3.92864H7.07075L7.18908 3.56519Z" fill="#EFEFEF"/>
<path d="M7.18908 4.84888L7.30718 5.21243H7.68958L7.38021 5.43723L7.49831 5.80105L7.18908 5.57611L6.87962 5.80105L6.99781 5.43723L6.68835 5.21243H7.07075L7.18908 4.84888Z" fill="#EFEFEF"/>
<path d="M7.18908 6.13367L7.30718 6.49745H7.68958L7.38021 6.72225L7.49831 7.08607L7.18908 6.86113L6.87962 7.08607L6.99781 6.72225L6.68835 6.49745H7.07075L7.18908 6.13367Z" fill="#EFEFEF"/>
</svg>
