<svg width="210" height="210" viewBox="0 0 210 210" fill="none" xmlns="http://www.w3.org/2000/svg">
<g clip-path="url(#clip0_7712_288)">
<g clip-path="url(#clip1_7712_288)">
<path d="M164.11 181.49C179.217 169.485 190.253 153.112 195.715 134.605C201.177 116.098 200.798 96.3565 194.63 78.0724C188.462 59.7884 176.806 43.8516 161.249 32.4347C145.693 21.0177 126.994 14.6764 107.702 14.2751C88.4095 13.8739 69.4631 19.4323 53.4454 30.1925C37.4277 40.9527 25.1184 56.3911 18.1956 74.4029C11.2728 92.4146 10.0734 112.123 14.761 130.841C19.4486 149.56 29.7951 166.377 44.3897 179" fill="#FCEFF2"/>
<path d="M94.68 179.36C112.867 179.36 127.61 165.172 127.61 147.67C127.61 130.168 112.867 115.98 94.68 115.98C76.4933 115.98 61.75 130.168 61.75 147.67C61.75 165.172 76.4933 179.36 94.68 179.36Z" fill="#EB92A7"/>
<path d="M127.62 179.35C136.717 179.35 144.09 172.258 144.09 163.51C144.09 154.762 136.717 147.67 127.62 147.67C118.524 147.67 111.15 154.762 111.15 163.51C111.15 172.258 118.524 179.35 127.62 179.35Z" fill="#EB92A7"/>
<path d="M61.7495 179.36C72.9222 179.36 81.9795 170.643 81.9795 159.89C81.9795 149.137 72.9222 140.42 61.7495 140.42C50.5768 140.42 41.5195 149.137 41.5195 159.89C41.5195 170.643 50.5768 179.36 61.7495 179.36Z" fill="#EB92A7"/>
<path d="M185 181.83H4.37988C4.37988 181.83 76.0699 153.4 185 181.83Z" fill="#EB92A7"/>
<path d="M30.1398 68.2601C37.3913 68.2601 43.2698 62.5428 43.2698 55.4901C43.2698 48.4374 37.3913 42.7201 30.1398 42.7201C22.8883 42.7201 17.0098 48.4374 17.0098 55.4901C17.0098 62.5428 22.8883 68.2601 30.1398 68.2601Z" fill="#F3BDCA"/>
<path d="M43.28 68.2699C46.9085 68.2699 49.85 65.409 49.85 61.8799C49.85 58.3508 46.9085 55.4899 43.28 55.4899C39.6514 55.4899 36.71 58.3508 36.71 61.8799C36.71 65.409 39.6514 68.2699 43.28 68.2699Z" fill="#F3BDCA"/>
<path d="M17.0104 68.2699C21.4674 68.2699 25.0804 64.7553 25.0804 60.4199C25.0804 56.0844 21.4674 52.5699 17.0104 52.5699C12.5535 52.5699 8.94043 56.0844 8.94043 60.4199C8.94043 64.7553 12.5535 68.2699 17.0104 68.2699Z" fill="#F3BDCA"/>
<path d="M65.31 70.0899H0C0 70.0899 25.93 55.9999 65.31 70.0899Z" fill="#F3BDCA"/>
<path d="M170.7 111.52C179.697 111.52 186.99 105.042 186.99 97.05C186.99 89.0584 179.697 82.58 170.7 82.58C161.703 82.58 154.41 89.0584 154.41 97.05C154.41 105.042 161.703 111.52 170.7 111.52Z" fill="#F3BDCA"/>
<path d="M154.41 111.51C158.905 111.51 162.55 108.273 162.55 104.28C162.55 100.287 158.905 97.05 154.41 97.05C149.914 97.05 146.27 100.287 146.27 104.28C146.27 108.273 149.914 111.51 154.41 111.51Z" fill="#F3BDCA"/>
<path d="M186.98 111.52C192.503 111.52 196.98 107.54 196.98 102.63C196.98 97.7201 192.503 93.7399 186.98 93.7399C181.458 93.7399 176.98 97.7201 176.98 102.63C176.98 107.54 181.458 111.52 186.98 111.52Z" fill="#F3BDCA"/>
<path d="M120.69 112.65H210C210 112.65 174.55 99.6701 120.69 112.65Z" fill="#F3BDCA"/>
<path d="M65.8214 56.775L77.9955 103.081C78.4435 104.785 80.1879 105.803 81.8918 105.356L108.701 98.3073C110.405 97.8594 111.423 96.1149 110.975 94.411L98.8007 48.1046C98.3527 46.4007 96.6083 45.3826 94.9044 45.8306L68.0954 52.8788C66.3915 53.3267 65.3734 55.0712 65.8214 56.775Z" fill="#FFB769"/>
<path d="M68.9829 52.6487L82.7793 105.125L90.1779 103.18L76.3815 50.7036L68.9829 52.6487Z" fill="#FF792F"/>
<g opacity="0.1">
<path opacity="0.1" d="M83.5304 48.83L84.7604 83.62L76.4404 94.34L77.9804 106.88L106.08 82.58L91.2604 46.79L83.5304 48.83Z" fill="#020202"/>
</g>
<path d="M70.7498 153.7C71.4865 151.708 72.7977 149.98 74.5173 148.734C76.237 147.488 78.2877 146.78 80.4098 146.7C87.9998 146.26 114.82 132.7 114.82 132.7L104.62 90.8L96.0498 83L46.2998 134.76L54.6498 155.24L70.7498 153.7Z" fill="#F2AA91"/>
<path d="M85.8203 138.54C85.8203 138.54 115.96 137.8 125.59 138.96C125.59 138.96 123.36 77.0701 131.76 46.5501C131.76 46.5501 109.31 37.5501 87.2503 45.8501L85.8203 138.54Z" fill="#11936E"/>
<g opacity="0.5">
<path opacity="0.5" d="M121.67 134.17L120.53 133.99C113.53 132.84 91.1803 132.77 90.9603 132.77H90.0003L89.7803 48.7102L90.4003 48.4702C107.22 41.9702 126.4 49.3302 127.2 49.6402L128 50.0002L127.77 50.8402C121 75.6302 121.65 132.48 121.65 133.05L121.67 134.17ZM91.9303 130.83C96.1303 130.83 112.52 131 119.7 131.91C119.7 123.81 119.59 74.6202 125.7 51.1602C121.94 49.8702 105.82 44.9402 91.7603 50.0502L91.9303 130.83Z" fill="#B6EFDA"/>
<path opacity="0.5" d="M97.5503 89.66C97.8135 89.2597 98.1687 88.9283 98.5862 88.6934C99.0038 88.4585 99.4715 88.3271 99.9503 88.31C100.226 88.2796 100.504 88.2796 100.78 88.31C101.696 88.4382 102.551 88.8429 103.23 89.47C104.006 90.2054 104.567 91.1391 104.85 92.17L110.05 89.46L110.25 93.56L105.25 95.97V96.84L110.37 97.54L110.54 101.18L97.0603 99.36L96.7703 93.25C96.6322 92.0003 96.9061 90.7398 97.5503 89.66ZM100.68 92C100.499 92.0027 100.321 92.0485 100.161 92.1337C100.001 92.2189 99.8636 92.3411 99.7603 92.49C99.5311 92.8862 99.4331 93.3448 99.4803 93.8L99.5903 96.06L102.99 96.52L102.88 94.26C102.884 93.6985 102.705 93.151 102.37 92.7C102.044 92.3213 101.587 92.0787 101.09 92.02L100.68 92Z" fill="#B6EFDA"/>
<path opacity="0.5" d="M99.2502 80.8C98.9009 80.096 98.7065 79.3254 98.6802 78.54C98.6312 77.9734 98.6943 77.4027 98.8658 76.8605C99.0374 76.3183 99.3141 75.8152 99.6802 75.38C100.058 74.9572 100.52 74.618 101.037 74.3838C101.553 74.1496 102.113 74.0257 102.68 74.02C103.109 73.9815 103.541 73.9815 103.97 74.02C105.042 74.1427 106.07 74.5162 106.97 75.11C107.795 75.6566 108.481 76.3896 108.97 77.25C109.465 78.0848 109.744 79.0301 109.78 80C109.838 80.7223 109.714 81.4477 109.42 82.11C109.182 82.6514 108.793 83.113 108.3 83.44L114.94 84.35L115.11 87.99L99.1802 85.88L99.0002 82.24L100.53 82.45C99.9943 81.9942 99.5585 81.4324 99.2502 80.8ZM103.54 77.72C103.259 77.7218 102.981 77.7855 102.727 77.9064C102.473 78.0274 102.249 78.2027 102.07 78.42C101.726 78.8675 101.562 79.4276 101.61 79.99C101.639 80.7109 101.922 81.3983 102.41 81.93C102.935 82.493 103.645 82.848 104.41 82.93C104.62 82.9494 104.831 82.9494 105.04 82.93C105.316 82.9303 105.588 82.8695 105.837 82.7519C106.086 82.6343 106.305 82.4629 106.48 82.25C106.829 81.8083 106.997 81.2508 106.95 80.69C106.922 79.9491 106.636 79.2414 106.14 78.69C105.613 78.1299 104.904 77.7754 104.14 77.69C103.94 77.6805 103.739 77.6906 103.54 77.72Z" fill="#B6EFDA"/>
</g>
<g opacity="0.1">
<path opacity="0.1" d="M131.76 46.5498C131.76 46.5498 107.3 40.0898 101.46 44.5498L85.9998 130.2L85.7998 138.54L108.8 138.32L131.76 46.5498Z" fill="#020202"/>
</g>
<path d="M86.9297 134.71C86.9297 134.71 116.32 141.45 125.36 144.95C125.36 144.95 138.51 84.4299 154.19 56.9499C154.19 56.9499 130.88 42.2799 107.45 44.8899L86.9297 134.71Z" fill="#1B8884"/>
<path d="M124.17 140.42L123.05 139.98C115.7 137.13 91.4998 131.57 91.2598 131.51L90.2598 131.29L108.65 49.2901L109.37 49.2001C129 47.0001 148.07 58.8601 148.88 59.3701L149.71 59.8901L149.22 60.7401C136.42 83.1901 124.54 138.68 124.42 139.24L124.17 140.42ZM92.7098 129.75C97.1798 130.75 115.12 135.01 122.71 137.66C124.47 129.66 135.25 81.9701 146.99 60.6601C143.16 58.4501 126.75 49.6601 110.37 51.2101L92.7098 129.75Z" fill="#BBDBDA"/>
<path d="M108 91.1098C108.398 90.7783 108.865 90.5406 109.367 90.4142C109.869 90.2879 110.393 90.2761 110.9 90.3798C111.203 90.4347 111.501 90.515 111.79 90.6198C112.739 90.9555 113.572 91.5558 114.19 92.3498C114.858 93.2168 115.261 94.2588 115.35 95.3498L121.54 93.9998L120.84 97.9998L114.93 99.1198L114.78 99.9798L120.17 101.92L119.55 105.51L105.28 100.37L106.28 94.3698C106.443 93.1118 107.054 91.9546 108 91.1098ZM110.87 94.1998C110.679 94.1523 110.478 94.1501 110.286 94.1935C110.093 94.2369 109.913 94.3247 109.76 94.4498C109.426 94.7662 109.217 95.192 109.17 95.6498L108.79 97.8798L112.37 99.1598L112.75 96.9398C112.874 96.3854 112.8 95.8051 112.54 95.2998C112.262 94.827 111.821 94.4716 111.3 94.2998C111.143 94.2538 110.983 94.2204 110.82 94.1998H110.87Z" fill="#BBDBDA"/>
<path d="M111.75 82.8998C111.537 82.1382 111.5 81.3381 111.64 80.5598C111.713 79.9893 111.908 79.4412 112.212 78.9528C112.515 78.4644 112.921 78.0473 113.4 77.7298C114.464 77.0746 115.742 76.8627 116.96 77.1398C117.429 77.2285 117.89 77.3521 118.34 77.5098C119.456 77.8809 120.48 78.488 121.34 79.2898C122.082 80.017 122.649 80.9024 123 81.8798C123.348 82.7981 123.441 83.793 123.27 84.7598C123.174 85.4932 122.876 86.1855 122.41 86.7598C122.015 87.2334 121.49 87.581 120.9 87.7598L127.9 90.2798L127.28 93.8698L110.53 87.8698L111.15 84.2798L112.75 84.8598C112.282 84.2848 111.941 83.6167 111.75 82.8998ZM117.08 80.9998C116.784 80.9317 116.476 80.9249 116.177 80.9799C115.878 81.0349 115.593 81.1506 115.34 81.3198C115.109 81.4858 114.914 81.6974 114.768 81.9417C114.622 82.1859 114.527 82.4576 114.49 82.7398C114.37 83.4638 114.527 84.2064 114.93 84.8198C115.378 85.5261 116.057 86.056 116.85 86.3198C117.073 86.3948 117.3 86.4549 117.53 86.4998C117.823 86.5667 118.126 86.5736 118.422 86.5204C118.717 86.4671 118.999 86.3547 119.25 86.1898C119.482 86.0276 119.677 85.818 119.822 85.575C119.966 85.3319 120.058 85.0609 120.09 84.7798C120.216 84.0525 120.058 83.3048 119.65 82.6898C119.2 81.9797 118.518 81.4465 117.72 81.1798C117.512 81.1019 117.298 81.0417 117.08 80.9998Z" fill="#BBDBDA"/>
<path d="M46.5098 131.35C46.5098 131.35 57.7098 122.89 61.1298 117.05C64.5498 111.21 70.0398 100.05 78.8898 91.91C84.8756 86.2689 90.5507 80.3068 95.8898 74.05L95.9998 74L103.26 66.7C103.429 66.5347 103.652 66.4349 103.888 66.4184C104.124 66.402 104.359 66.4698 104.55 66.61C106.11 67.85 109.24 71.54 104.34 78.77C98.1398 87.92 96.8398 87.49 93.1698 98.99C89.4998 110.49 96.7298 126.27 79.0798 137.47" fill="#F2AA91"/>
<g opacity="0.1">
<path opacity="0.1" d="M129.49 126.43L142.75 81.3702C142.75 81.3702 127.75 79.6702 124.07 86.9202C120.39 94.1702 113.79 122.91 129.49 126.43Z" fill="#020202"/>
</g>
<path d="M149.64 84.0998L142.64 120.6C142.41 121.784 141.719 122.828 140.72 123.503C139.721 124.178 138.494 124.429 137.31 124.2L134.72 123.7C130.897 122.964 127.494 120.81 125.192 117.67C122.891 114.531 121.861 110.637 122.31 106.77L124.04 91.7698C124.273 89.7514 124.902 87.7989 125.892 86.0241C126.881 84.2494 128.211 82.6874 129.805 81.4277C131.399 80.1679 133.226 79.2352 135.182 78.683C137.137 78.1309 139.182 77.97 141.2 78.2098L145.75 78.7498C146.364 78.8291 146.956 79.0328 147.488 79.3487C148.021 79.6645 148.483 80.0858 148.848 80.5866C149.212 81.0875 149.47 81.6574 149.606 82.2615C149.742 82.8656 149.754 83.4911 149.64 84.0998Z" fill="#F2AA91"/>
<path d="M49.9998 179.6C35.1398 176.6 20.7998 148.28 20.7998 148.28L46.7998 128.67L73.3598 152.31L56.4498 179.6H49.9998Z" fill="#DB284E"/>
<g opacity="0.1">
<path opacity="0.1" d="M20.7998 148.28L23.9098 145.93C23.9098 145.93 45.6998 168.93 70.9098 150.12L73.3698 152.31L56.4498 179.6H49.9998C49.9998 179.6 36.6698 177.08 20.7998 148.28Z" fill="#020202"/>
</g>
<g opacity="0.3">
<path opacity="0.3" d="M94.1504 96C94.1504 96 91.8804 99.5 91.7604 112.61C91.6204 128.61 82.6504 135.69 82.6504 135.69" fill="#F2AA91"/>
<path opacity="0.3" d="M82.6502 136.35C82.5502 136.351 82.4512 136.329 82.361 136.286C82.2708 136.242 82.1918 136.179 82.1302 136.1C82.0204 135.961 81.9702 135.783 81.9909 135.607C82.0115 135.431 82.1012 135.27 82.2402 135.16C82.3202 135.09 90.9602 128.06 91.0902 112.6C91.2102 99.45 93.4902 95.79 93.5902 95.6C93.6943 95.4724 93.8417 95.3877 94.0042 95.3618C94.1668 95.336 94.3332 95.3709 94.4717 95.4599C94.6102 95.5489 94.711 95.6858 94.755 95.8445C94.799 96.0031 94.7831 96.1724 94.7102 96.32C94.7102 96.39 92.5402 100 92.4302 112.58C92.2902 128.71 83.4302 135.87 83.0702 136.17C82.9561 136.278 82.8072 136.342 82.6502 136.35Z" fill="#231F20"/>
</g>
<g opacity="0.1">
<path opacity="0.1" d="M49.4697 131.38C49.4697 131.38 78.4697 147.2 89.7797 144.08C86.7488 145.262 83.5962 146.103 80.3797 146.59C78.7052 146.69 77.0768 147.178 75.6227 148.014C74.1685 148.851 72.9283 150.013 71.9997 151.41L49.4697 131.38Z" fill="#020202"/>
</g>
<path d="M151.37 180.24C163.178 180.24 172.75 170.994 172.75 159.59C172.75 148.185 163.178 138.94 151.37 138.94C139.562 138.94 129.99 148.185 129.99 159.59C129.99 170.994 139.562 180.24 151.37 180.24Z" fill="#F3BDCA"/>
<path d="M129.99 180.25C135.894 180.25 140.68 175.625 140.68 169.92C140.68 164.215 135.894 159.59 129.99 159.59C124.086 159.59 119.3 164.215 119.3 169.92C119.3 175.625 124.086 180.25 129.99 180.25Z" fill="#F3BDCA"/>
<path d="M172.75 180.25C180.007 180.25 185.89 174.568 185.89 167.56C185.89 160.551 180.007 154.87 172.75 154.87C165.493 154.87 159.61 160.551 159.61 167.56C159.61 174.568 165.493 180.25 172.75 180.25Z" fill="#F3BDCA"/>
<path d="M92.7402 181.86H210C210 181.86 163.45 163.33 92.7402 181.86Z" fill="#F3BDCA"/>
<path d="M34.7505 180.96C41.8031 180.96 47.5205 174.934 47.5205 167.5C47.5205 160.066 41.8031 154.04 34.7505 154.04C27.6978 154.04 21.9805 160.066 21.9805 167.5C21.9805 174.934 27.6978 180.96 34.7505 180.96Z" fill="#F3BDCA"/>
<path d="M47.2104 180.95C50.6953 180.95 53.5204 178.443 53.5204 175.35C53.5204 172.257 50.6953 169.75 47.2104 169.75C43.7255 169.75 40.9004 172.257 40.9004 175.35C40.9004 178.443 43.7255 180.95 47.2104 180.95Z" fill="#B6EFDA"/>
<path d="M21.9805 180.96C26.2607 180.96 29.7305 177.875 29.7305 174.07C29.7305 170.265 26.2607 167.18 21.9805 167.18C17.7003 167.18 14.2305 170.265 14.2305 174.07C14.2305 177.875 17.7003 180.96 21.9805 180.96Z" fill="#F3BDCA"/>
<path d="M69.19 181.83H0C0 181.83 27.47 171.78 69.19 181.83Z" fill="#F3BDCA"/>
<path d="M49.42 180.44C56.1634 180.44 61.63 175.582 61.63 169.59C61.63 163.598 56.1634 158.74 49.42 158.74C42.6766 158.74 37.21 163.598 37.21 169.59C37.21 175.582 42.6766 180.44 49.42 180.44Z" fill="#F3BDCA"/>
<path d="M61.6295 180.43C65.004 180.43 67.7395 178.003 67.7395 175.01C67.7395 172.017 65.004 169.59 61.6295 169.59C58.2551 169.59 55.5195 172.017 55.5195 175.01C55.5195 178.003 58.2551 180.43 61.6295 180.43Z" fill="#F3BDCA"/>
<path d="M37.21 180.43C41.3521 180.43 44.71 177.448 44.71 173.77C44.71 170.092 41.3521 167.11 37.21 167.11C33.0678 167.11 29.71 170.092 29.71 173.77C29.71 177.448 33.0678 180.43 37.21 180.43Z" fill="#F3BDCA"/>
<path d="M82.21 181.6H15.21C15.21 181.6 41.82 171.87 82.21 181.6Z" fill="#F3BDCA"/>
<path d="M82.8097 193C87.5759 193 91.4397 188.93 91.4397 183.91C91.4397 178.89 87.5759 174.82 82.8097 174.82C78.0435 174.82 74.1797 178.89 74.1797 183.91C74.1797 188.93 78.0435 193 82.8097 193Z" fill="#F3BDCA"/>
<path d="M91.2297 193C93.5825 193 95.4897 191.303 95.4897 189.21C95.4897 187.117 93.5825 185.42 91.2297 185.42C88.877 185.42 86.9697 187.117 86.9697 189.21C86.9697 191.303 88.877 193 91.2297 193Z" fill="#B6EFDA"/>
<path d="M74.1804 193C77.0744 193 79.4204 190.918 79.4204 188.35C79.4204 185.782 77.0744 183.7 74.1804 183.7C71.2865 183.7 68.9404 185.782 68.9404 188.35C68.9404 190.918 71.2865 193 74.1804 193Z" fill="#F3BDCA"/>
<path d="M106.08 193.59H59.3301C59.3301 193.59 77.8901 186.8 106.08 193.59Z" fill="#F3BDCA"/>
<path d="M92.7197 192.65C97.2761 192.65 100.97 189.368 100.97 185.32C100.97 181.272 97.2761 177.99 92.7197 177.99C88.1634 177.99 84.4697 181.272 84.4697 185.32C84.4697 189.368 88.1634 192.65 92.7197 192.65Z" fill="#F3BDCA"/>
<path d="M100.97 192.64C103.251 192.64 105.1 191.001 105.1 188.98C105.1 186.959 103.251 185.32 100.97 185.32C98.6889 185.32 96.8398 186.959 96.8398 188.98C96.8398 191.001 98.6889 192.64 100.97 192.64Z" fill="#F3BDCA"/>
<path d="M84.4704 192.65C87.2705 192.65 89.5404 190.635 89.5404 188.15C89.5404 185.665 87.2705 183.65 84.4704 183.65C81.6703 183.65 79.4004 185.665 79.4004 188.15C79.4004 190.635 81.6703 192.65 84.4704 192.65Z" fill="#F3BDCA"/>
<path d="M114.87 193.43H69.6299C69.6299 193.43 87.5899 186.86 114.87 193.43Z" fill="#F3BDCA"/>
<path d="M41.5298 7.07996H11.1398C9.17923 7.07996 7.58984 8.66935 7.58984 10.63V41.02C7.58984 42.9806 9.17923 44.57 11.1398 44.57H41.5298C43.4905 44.57 45.0798 42.9806 45.0798 41.02V10.63C45.0798 8.66935 43.4905 7.07996 41.5298 7.07996Z" fill="#DB284E"/>
<path d="M16.2002 34.0498V29.2198L27.2602 13.3998H33.9402V28.8698H36.8102V34.0498H33.9402V38.5998H28.0002V34.0498H16.2002ZM28.3802 19.9998L22.5002 28.8698H28.3802V19.9998Z" fill="white"/>
</g>
</g>
<defs>
<clipPath id="clip0_7712_288">
<rect width="210" height="210" fill="white"/>
</clipPath>
<clipPath id="clip1_7712_288">
<rect width="210" height="210" fill="white"/>
</clipPath>
</defs>
</svg>
