<svg width="95" height="68" viewBox="0 0 95 68" fill="none" xmlns="http://www.w3.org/2000/svg">
<g filter="url(#filter0_d_16342_355109)">
<rect x="4" width="87" height="60" rx="8" fill="white"/>
</g>
<path fill-rule="evenodd" clip-rule="evenodd" d="M36.2357 36.1703C34.7796 36.1703 33.457 35.0129 33.457 32.8492C33.457 30.6843 34.7796 29.5708 36.2357 29.5708C37.7123 29.5708 39.0145 30.6843 39.0145 32.8492C39.0145 35.0343 37.7123 36.1703 36.2357 36.1703ZM15.3291 36.4486C14.3858 36.4486 13.873 35.8063 13.873 35.0987C13.873 34.2419 14.4678 33.8135 15.206 33.6846L17.8002 33.2776V33.749C17.8002 35.7849 16.6621 36.4486 15.3291 36.4486ZM25.58 38.0743C25.6416 38.0743 25.7031 38.0238 25.7133 37.9541C25.7337 37.8832 25.6929 37.8123 25.6312 37.7834C25.621 37.7768 25.6108 37.7715 25.6006 37.7661C24.8827 37.431 24.4316 36.6891 24.4316 35.8708V26.5482C24.4316 26.43 24.3803 26.3163 24.2983 26.2325C24.2266 26.1487 24.1137 26.1016 24.001 26.1016H23.1703C23.078 26.1016 22.996 26.0489 22.9551 25.9651C22.9243 25.8814 22.9345 25.7815 22.9857 25.7097C23.5293 24.9998 24.6777 23.5126 25.1904 22.8426C25.2416 22.7793 25.2518 22.6923 25.211 22.6192C25.1802 22.5461 25.1085 22.5 25.0366 22.5H21.8476C21.7963 22.5 21.7451 22.5226 21.704 22.5624C21.6734 22.601 21.6426 22.6547 21.6426 22.7105V35.9793C21.6426 37.1359 22.5449 38.0743 23.6522 38.0743H25.58ZM30.853 38.0743C30.9248 38.0743 30.9863 38.0238 30.9965 37.9541C31.0067 37.8832 30.9761 37.8123 30.9144 37.7834C30.9042 37.7768 30.8838 37.7715 30.8736 37.7661C30.1661 37.431 29.7046 36.6891 29.7046 35.8708V22.7105C29.7046 22.6547 29.684 22.601 29.6429 22.5624C29.6121 22.5226 29.5609 22.5 29.5096 22.5H27.1308C27.0693 22.5 27.0181 22.5226 26.9872 22.5624C26.9462 22.601 26.9258 22.6547 26.9258 22.7105V35.9793C26.9258 37.1359 27.8179 38.0743 28.9254 38.0743H30.853ZM36.2358 27.3247C33.2725 27.3247 31.0781 29.657 31.0781 32.8494C31.0781 36.0632 33.2725 38.3955 36.2358 38.3955C39.2198 38.3955 41.414 36.0632 41.414 32.8494C41.414 29.657 39.2198 27.3247 36.2358 27.3247ZM11.5 35.2494C11.5 36.8985 12.7919 38.3954 14.8736 38.3954C16.4937 38.3954 17.4779 37.5396 17.9393 36.7482C17.9393 37.4806 18.5137 38.0744 19.2108 38.0744H20.6567C20.7079 38.0744 20.7592 38.0411 20.7898 37.9886C20.8104 37.9369 20.8104 37.8745 20.7696 37.8286C20.4619 37.6385 20.1337 37.2497 20.1337 36.4056V31.2204C20.1337 29.1426 18.9648 27.3246 15.8989 27.3246C13.52 27.3246 11.9819 28.8334 11.7256 30.5664C11.7152 30.6567 11.7665 30.7425 11.8588 30.7631C12.2383 30.8553 13.2738 31.1011 13.6942 31.2C13.7353 31.2108 13.7865 31.2011 13.8276 31.1742C13.8584 31.1475 13.889 31.1055 13.8994 31.0572C14.0532 30.0962 14.7401 29.3563 15.9195 29.3563C17.2318 29.3563 17.7958 30.0639 17.7958 30.9423C17.7958 31.3063 17.642 31.607 17.0678 31.6917L14.5044 32.0999C12.8125 32.3564 11.5 33.3853 11.5 35.2494Z" fill="#FFB003"/>
<path fill-rule="evenodd" clip-rule="evenodd" d="M48.4025 29.229C46.5977 29.229 45.293 30.631 45.293 32.874C45.293 35.1171 46.5977 36.5837 48.4025 36.5837C50.2726 36.5837 51.4903 35.1171 51.4903 32.874C51.4903 30.631 50.2944 29.229 48.4025 29.229ZM43.2891 38.115V22.5H45.3112V29.2075C45.8113 28.2802 47.0291 27.4389 48.7686 27.4389C51.9433 27.4389 53.5743 29.8547 53.5743 32.8741C53.5743 35.9582 51.813 38.3954 48.7034 38.3954C47.1596 38.3954 45.9637 37.7268 45.3112 36.6054V38.115H43.2891Z" fill="#333333"/>
<mask id="mask0_16342_355109" style="mask-type:alpha" maskUnits="userSpaceOnUse" x="54" y="28" width="9" height="11">
<path fill-rule="evenodd" clip-rule="evenodd" d="M54.5742 28.1847H62.7929V38.2149H54.5742V28.1847Z" fill="white"/>
</mask>
<g mask="url(#mask0_16342_355109)">
<path fill-rule="evenodd" clip-rule="evenodd" d="M60.8026 33.8769V33.4451L57.8773 33.8769C57.0813 33.9947 56.4844 34.4462 56.4844 35.2901C56.4844 35.9967 57.0813 36.6642 58.0364 36.6642C59.5687 36.6642 60.8026 35.9379 60.8026 33.8769ZM57.4795 32.5225L60.0666 32.1496C60.6436 32.0711 60.8029 31.7766 60.8029 31.4429C60.8029 30.5203 60.1859 29.7549 58.7333 29.7549C57.4198 29.7549 56.6835 30.5597 56.5642 31.6589L54.7733 31.2466C54.9721 29.4409 56.6239 28.1847 58.6935 28.1847C61.559 28.1847 62.6735 29.7942 62.6735 31.6393V36.3698C62.6735 37.1942 62.7531 37.685 62.7929 37.9205H60.9621C60.9222 37.685 60.8626 37.3317 60.8626 36.6446C60.4447 37.312 59.4894 38.215 57.778 38.215C55.8279 38.215 54.5742 36.8802 54.5742 35.3883C54.5742 33.7003 55.8279 32.7582 57.4795 32.5225Z" fill="#333333"/>
</g>
<path fill-rule="evenodd" clip-rule="evenodd" d="M66.7169 38.3956H64.7969V28.4013H66.676V29.835C67.391 28.5883 68.5552 28.1104 69.699 28.1104C72.0479 28.1104 73.2121 29.835 73.2121 32.0582V38.3956H71.2922V32.3907C71.2922 30.9985 70.7203 29.8764 69.0045 29.8764C67.4932 29.8764 66.7169 31.1024 66.7169 32.6192V38.3956Z" fill="#333333"/>
<path fill-rule="evenodd" clip-rule="evenodd" d="M79.454 32.2919L83.4972 38.3954H81.2145L78.1772 33.7408L76.8811 35.2119V38.3954H75.082V22.5H76.8811V32.5115L80.905 27.8349H83.4199L79.454 32.2919Z" fill="#333333"/>
<defs>
<filter id="filter0_d_16342_355109" x="0" y="0" width="95" height="68" filterUnits="userSpaceOnUse" color-interpolation-filters="sRGB">
<feFlood flood-opacity="0" result="BackgroundImageFix"/>
<feColorMatrix in="SourceAlpha" type="matrix" values="0 0 0 0 0 0 0 0 0 0 0 0 0 0 0 0 0 0 127 0" result="hardAlpha"/>
<feOffset dy="4"/>
<feGaussianBlur stdDeviation="2"/>
<feColorMatrix type="matrix" values="0 0 0 0 0 0 0 0 0 0 0 0 0 0 0 0 0 0 0.15 0"/>
<feBlend mode="normal" in2="BackgroundImageFix" result="effect1_dropShadow_16342_355109"/>
<feBlend mode="normal" in="SourceGraphic" in2="effect1_dropShadow_16342_355109" result="shape"/>
</filter>
</defs>
</svg>
