<svg width="158" height="158" viewBox="0 0 158 158" fill="none" xmlns="http://www.w3.org/2000/svg">
<g clip-path="url(#clip0_26907_393506)">
<path d="M137.2 4.51001H20.3798C11.4991 4.51001 4.2998 11.7093 4.2998 20.59V137.41C4.2998 146.291 11.4991 153.49 20.3798 153.49H137.2C146.081 153.49 153.28 146.291 153.28 137.41V20.59C153.28 11.7093 146.081 4.51001 137.2 4.51001Z" fill="#ED9FB2"/>
<path d="M114.21 4.51001C114.21 4.51001 107.21 118.15 4.71973 122.38V137.59C4.71973 141.807 6.3949 145.851 9.37673 148.833C12.3586 151.815 16.4028 153.49 20.6197 153.49H137.92C142.105 153.49 146.119 151.827 149.078 148.868C152.037 145.909 153.7 141.895 153.7 137.71V20.9C153.7 16.5531 151.973 12.3843 148.899 9.31053C145.825 6.23681 141.657 4.51001 137.31 4.51001H114.21Z" fill="#EB92A7"/>
<path d="M82.8496 82.61V75.39C82.8496 74.727 82.5862 74.0911 82.1174 73.6222C81.6485 73.1534 81.0127 72.89 80.3496 72.89C79.6866 72.89 79.0507 73.1534 78.5818 73.6222C78.113 74.0911 77.8496 74.727 77.8496 75.39V82.61C77.8496 83.2731 78.113 83.9089 78.5818 84.3778C79.0507 84.8466 79.6866 85.11 80.3496 85.11C81.0127 85.11 81.6485 84.8466 82.1174 84.3778C82.5862 83.9089 82.8496 83.2731 82.8496 82.61Z" fill="white"/>
<path d="M64.8096 85.11C65.4718 85.1074 66.1062 84.8431 66.5744 84.3749C67.0427 83.9066 67.3069 83.2722 67.3096 82.61V75.39C67.3096 74.727 67.0462 74.0911 66.5773 73.6222C66.1085 73.1534 65.4726 72.89 64.8096 72.89C64.1465 72.89 63.5106 73.1534 63.0418 73.6222C62.573 74.0911 62.3096 74.727 62.3096 75.39V82.61C62.3096 83.2731 62.573 83.9089 63.0418 84.3778C63.5106 84.8466 64.1465 85.11 64.8096 85.11Z" fill="white"/>
<path d="M129.84 70.6399C128.776 69.246 127.929 67.6983 127.33 66.0499C127.004 64.2514 126.953 62.4137 127.18 60.5999C127.37 57.5999 127.57 54.4899 126.04 51.8399C124.51 49.1899 121.67 47.7699 118.95 46.4299C117.291 45.733 115.747 44.7889 114.37 43.6299C113.211 42.2532 112.267 40.7091 111.57 39.0499C110.24 36.3299 108.85 33.5199 106.16 31.9599C103.47 30.3999 100.4 30.6299 97.4002 30.8199C95.6029 31.0419 93.7824 30.9913 92.0002 30.6699C90.3518 30.0708 88.8042 29.2244 87.4102 28.1599C84.9802 26.5399 82.2402 24.6899 79.0502 24.6899C75.8602 24.6899 73.1202 26.5399 70.6902 28.1599C69.2963 29.2244 67.7486 30.0708 66.1002 30.6699C64.3017 30.9964 62.464 31.047 60.6502 30.8199C57.6502 30.6299 54.5402 30.4299 51.8902 31.9599C49.2402 33.4899 47.8202 36.3299 46.4802 39.0499C45.7832 40.7091 44.8392 42.2532 43.6802 43.6299C42.3035 44.7889 40.7594 45.733 39.1002 46.4299C36.3802 47.7599 33.5702 49.1499 32.0102 51.8399C30.4502 54.5299 30.6802 57.5999 30.8702 60.5999C31.0972 62.4137 31.0467 64.2514 30.7202 66.0499C30.1211 67.6983 29.2747 69.246 28.2102 70.6399C26.5902 73.0699 24.7402 75.8099 24.7402 78.9999C24.7402 82.1899 26.5902 84.9299 28.2102 87.3599C29.2616 88.7724 30.0911 90.3371 30.6702 91.9999C30.9967 93.7985 31.0472 95.6362 30.8202 97.4499C30.6302 100.45 30.4302 103.56 31.9602 106.21C33.4902 108.86 36.3302 110.29 39.0502 111.62C40.7094 112.317 42.2535 113.261 43.6302 114.42C44.7892 115.797 45.7332 117.341 46.4302 119C47.7702 121.72 49.1502 124.53 51.8402 126.09C54.5302 127.65 57.6002 127.42 60.6002 127.23C61.1802 127.23 61.7602 127.15 62.3202 127.13C63.662 127.111 65.0022 127.228 66.3202 127.48C67.8492 128.093 69.2914 128.903 70.6102 129.89C73.0402 131.51 75.7802 133.36 78.9702 133.36C82.1602 133.36 84.9002 131.51 87.3302 129.89C88.649 128.903 90.0913 128.093 91.6202 127.48C92.9327 127.19 94.2774 127.073 95.6202 127.13C96.1802 127.13 96.7602 127.19 97.3402 127.23C100.34 127.42 103.45 127.62 106.1 126.09C108.75 124.56 110.17 121.72 111.51 119C112.207 117.341 113.151 115.797 114.31 114.42C115.687 113.261 117.231 112.317 118.89 111.62C121.61 110.29 124.42 108.9 125.98 106.21C127.54 103.52 127.31 100.45 127.12 97.4499C126.888 95.6365 126.938 93.7979 127.27 91.9999C127.869 90.3515 128.716 88.8039 129.78 87.4099C131.4 84.9799 133.25 82.2399 133.25 79.0499C133.25 75.8599 131.46 73.0699 129.84 70.6399ZM58.2802 75.3899C58.2802 73.6581 58.9682 71.9971 60.1928 70.7725C61.4174 69.5479 63.0784 68.8599 64.8102 68.8599C66.5421 68.8599 68.203 69.5479 69.4276 70.7725C70.6523 71.9971 71.3402 73.6581 71.3402 75.3899V82.6099C71.3402 84.3418 70.6523 86.0027 69.4276 87.2273C68.203 88.452 66.5421 89.1399 64.8102 89.1399C63.0784 89.1399 61.4174 88.452 60.1928 87.2273C58.9682 86.0027 58.2802 84.3418 58.2802 82.6099V75.3899ZM50.5702 73.2099C50.0398 73.2099 49.5311 72.9992 49.156 72.6242C48.7809 72.2491 48.5702 71.7404 48.5702 71.2099C48.5702 70.6795 48.7809 70.1708 49.156 69.7957C49.5311 69.4207 50.0398 69.2099 50.5702 69.2099H53.9102C54.4407 69.2099 54.9494 69.4207 55.3244 69.7957C55.6995 70.1708 55.9102 70.6795 55.9102 71.2099V86.8099C55.9102 87.3404 55.6995 87.8491 55.3244 88.2242C54.9494 88.5992 54.4407 88.8099 53.9102 88.8099C53.3798 88.8099 52.8711 88.5992 52.496 88.2242C52.1209 87.8491 51.9102 87.3404 51.9102 86.8099V73.2099H50.5702ZM79.0002 117.47C71.3923 117.469 63.9554 115.212 57.63 110.985C51.3045 106.758 46.3744 100.75 43.4631 93.7211C40.5518 86.6922 39.79 78.958 41.274 71.4961C42.7579 64.0343 46.4211 57.18 51.8002 51.7999L52.0702 51.5199C52.2593 51.3341 52.4832 51.1874 52.729 51.0881C52.9748 50.9887 53.2378 50.9388 53.5029 50.9412C53.768 50.9435 54.0301 50.998 54.2741 51.1016C54.5182 51.2052 54.7394 51.3558 54.9252 51.5449C55.1111 51.734 55.2578 51.9579 55.3571 52.2037C55.4564 52.4495 55.5063 52.7125 55.504 52.9776C55.5017 53.2427 55.4472 53.5048 55.3436 53.7488C55.24 53.9929 55.0893 54.2141 54.9002 54.3999L54.6402 54.6599C48.4979 60.8282 44.9298 69.1005 44.6587 77.8011C44.3877 86.5018 47.4338 94.9802 53.1802 101.519C58.9266 108.057 66.9435 112.167 75.6069 113.016C84.2703 113.865 92.9324 111.389 99.8385 106.09C106.745 100.791 111.378 93.0646 112.801 84.4768C114.223 75.8889 112.329 67.0814 107.5 59.8384C102.672 52.5955 95.2707 47.4586 86.7964 45.4684C78.3221 43.4782 69.4081 44.7835 61.8602 49.1199C61.6311 49.2513 61.3783 49.3362 61.1163 49.3698C60.8544 49.4034 60.5883 49.3851 60.3334 49.316C60.0785 49.2468 59.8398 49.1281 59.6307 48.9666C59.4217 48.8051 59.2466 48.6041 59.1152 48.3749C58.9839 48.1458 58.899 47.893 58.8654 47.631C58.8317 47.3691 58.85 47.103 58.9192 46.8481C58.9884 46.5933 59.1071 46.3545 59.2686 46.1455C59.43 45.9364 59.6311 45.7613 59.8602 45.6299C64.9749 42.6962 70.6954 40.9773 76.58 40.6062C82.4646 40.2351 88.3558 41.2216 93.7985 43.4896C99.2412 45.7575 104.09 49.2462 107.97 53.6862C111.849 58.1261 114.657 63.3985 116.175 69.096C117.693 74.7936 117.881 80.7638 116.724 86.5456C115.568 92.3274 113.098 97.7659 109.505 102.441C105.912 107.116 101.292 110.903 96.0032 113.509C90.714 116.115 84.8965 117.47 79.0002 117.47ZM73.8202 82.6099V75.3899C73.8863 73.701 74.6037 72.1032 75.8221 70.9316C77.0404 69.76 78.665 69.1056 80.3552 69.1056C82.0455 69.1056 83.6701 69.76 84.8884 70.9316C86.1067 72.1032 86.8242 73.701 86.8902 75.3899V82.6099C86.8242 84.2989 86.1067 85.8967 84.8884 87.0683C83.6701 88.2398 82.0455 88.8943 80.3552 88.8943C78.665 88.8943 77.0404 88.2398 75.8221 87.0683C74.6037 85.8967 73.8863 84.2989 73.8202 82.6099ZM104.33 70.7299L96.7402 88.8299C96.5873 89.1965 96.3288 89.5092 95.9976 89.7282C95.6663 89.9473 95.2774 90.0627 94.8802 90.0599C94.6131 90.0595 94.3485 90.0086 94.1002 89.9099C93.8528 89.8113 93.6275 89.6642 93.4377 89.4772C93.2478 89.2903 93.0972 89.0673 92.9948 88.8214C92.8923 88.5755 92.84 88.3115 92.8409 88.0451C92.8419 87.7787 92.896 87.5151 93.0002 87.2699L100.59 69.1699C100.797 68.6766 101.191 68.2857 101.687 68.0832C102.182 67.8806 102.737 67.8831 103.23 68.0899C103.724 68.2968 104.114 68.6912 104.317 69.1863C104.52 69.6814 104.517 70.2366 104.31 70.7299H104.33ZM107.33 85.6299C107.413 86.1513 107.338 86.6853 107.117 87.1646C106.896 87.6439 106.538 88.0469 106.088 88.3227C105.638 88.5985 105.117 88.7348 104.589 88.7143C104.062 88.6937 103.552 88.5174 103.125 88.2074C102.698 87.8975 102.372 87.4679 102.189 86.9729C102.006 86.4779 101.973 85.9397 102.096 85.4263C102.218 84.9129 102.49 84.4474 102.877 84.0885C103.264 83.7296 103.749 83.4935 104.27 83.4099C104.62 83.3486 104.978 83.3575 105.325 83.4363C105.671 83.5152 105.998 83.6622 106.286 83.869C106.575 84.0757 106.82 84.3379 107.006 84.6403C107.192 84.9426 107.316 85.2791 107.37 85.6299H107.33ZM92.5502 74.6299C92.0199 74.6219 91.5038 74.4567 91.0673 74.1552C90.6309 73.8537 90.2938 73.4294 90.0986 72.9362C89.9035 72.4429 89.8591 71.9029 89.9711 71.3844C90.0831 70.8659 90.3465 70.3923 90.7278 70.0236C91.1091 69.6549 91.5913 69.4076 92.1133 69.3131C92.6352 69.2186 93.1735 69.2811 93.6599 69.4928C94.1463 69.7044 94.559 70.0556 94.8456 70.5019C95.1323 70.9482 95.2801 71.4696 95.2702 71.9999C95.2571 72.702 94.969 73.3709 94.4678 73.8627C93.9666 74.3546 93.2924 74.6301 92.5902 74.6299H92.5502Z" fill="white"/>
</g>
<defs>
<clipPath id="clip0_26907_393506">
<rect width="158" height="158" fill="white"/>
</clipPath>
</defs>
</svg>
