<svg width="165" height="165" viewBox="0 0 165 165" fill="none" xmlns="http://www.w3.org/2000/svg">
<g clip-path="url(#clip0_26552_405034)">
<g clip-path="url(#clip1_26552_405034)">
<path d="M131.392 144.262C143.487 134.651 152.323 121.542 156.696 106.725C161.069 91.9074 160.766 76.1018 155.827 61.463C150.889 46.8242 141.556 34.0647 129.101 24.9239C116.646 15.7831 101.675 10.706 86.2294 10.3848C70.7834 10.0635 55.6143 14.5138 42.79 23.1288C29.9657 31.7437 20.1105 44.1042 14.5678 58.525C9.02521 72.9458 8.06497 88.7251 11.818 103.712C15.5711 118.698 23.8548 132.162 35.5397 142.269" fill="#FCEFF2"/>
<path d="M141.952 143.358C149.598 143.358 155.795 137.397 155.795 130.043C155.795 122.69 149.598 116.729 141.952 116.729C134.307 116.729 128.109 122.69 128.109 130.043C128.109 137.397 134.307 143.358 141.952 143.358Z" fill="#EB92A7"/>
<path d="M155.787 143.366C159.607 143.366 162.704 140.384 162.704 136.705C162.704 133.026 159.607 130.043 155.787 130.043C151.966 130.043 148.869 133.026 148.869 136.705C148.869 140.384 151.966 143.366 155.787 143.366Z" fill="#EB92A7"/>
<path d="M128.11 143.358C132.806 143.358 136.613 139.694 136.613 135.175C136.613 130.656 132.806 126.993 128.11 126.993C123.414 126.993 119.607 130.656 119.607 135.175C119.607 139.694 123.414 143.358 128.11 143.358Z" fill="#A0E8CB"/>
<path d="M82.1367 144.535H168.133C168.133 144.535 133.994 130.996 82.1367 144.535Z" fill="#EB92A7"/>
<path d="M64.5395 143.046C75.5099 143.046 84.4032 134.489 84.4032 123.934C84.4032 113.38 75.5099 104.823 64.5395 104.823C53.5691 104.823 44.6758 113.38 44.6758 123.934C44.6758 134.489 53.5691 143.046 64.5395 143.046Z" fill="#EB92A7"/>
<path d="M84.4026 143.046C89.8901 143.046 94.3385 138.766 94.3385 133.486C94.3385 128.206 89.8901 123.927 84.4026 123.927C78.9152 123.927 74.4668 128.206 74.4668 133.486C74.4668 138.766 78.9152 143.046 84.4026 143.046Z" fill="#A0E8CB"/>
<path d="M44.6665 143.046C51.4053 143.046 56.8681 137.787 56.8681 131.3C56.8681 124.814 51.4053 119.555 44.6665 119.555C37.9277 119.555 32.4648 124.814 32.4648 131.3C32.4648 137.787 37.9277 143.046 44.6665 143.046Z" fill="#EB92A7"/>
<path d="M119.007 144.535H10.0645C10.0645 144.535 53.3146 127.385 119.007 144.535Z" fill="#EB92A7"/>
<path d="M30.8725 143.566C36.5191 143.566 41.0966 138.741 41.0966 132.789C41.0966 126.838 36.5191 122.013 30.8725 122.013C25.2259 122.013 20.6484 126.838 20.6484 132.789C20.6484 138.741 25.2259 143.566 30.8725 143.566Z" fill="#F3BDCA"/>
<path d="M40.8567 143.566C43.6468 143.566 45.9087 141.559 45.9087 139.082C45.9087 136.606 43.6468 134.599 40.8567 134.599C38.0665 134.599 35.8047 136.606 35.8047 139.082C35.8047 141.559 38.0665 143.566 40.8567 143.566Z" fill="#B6EFDA"/>
<path d="M20.6483 143.574C24.0751 143.574 26.8532 141.104 26.8532 138.058C26.8532 135.011 24.0751 132.541 20.6483 132.541C17.2214 132.541 14.4434 135.011 14.4434 138.058C14.4434 141.104 17.2214 143.574 20.6483 143.574Z" fill="#F3BDCA"/>
<path d="M58.4466 144.271H3.05078C3.05078 144.271 25.0442 136.216 58.4466 144.271Z" fill="#F3BDCA"/>
<path d="M42.6175 143.15C48.0165 143.15 52.3933 139.26 52.3933 134.463C52.3933 129.665 48.0165 125.776 42.6175 125.776C37.2185 125.776 32.8418 129.665 32.8418 134.463C32.8418 139.26 37.2185 143.15 42.6175 143.15Z" fill="#F3BDCA"/>
<path d="M52.3938 143.15C55.0955 143.15 57.2857 141.207 57.2857 138.81C57.2857 136.414 55.0955 134.471 52.3938 134.471C49.6921 134.471 47.502 136.414 47.502 138.81C47.502 141.207 49.6921 143.15 52.3938 143.15Z" fill="#F3BDCA"/>
<path d="M32.8426 143.15C36.159 143.15 38.8474 140.762 38.8474 137.818C38.8474 134.873 36.159 132.485 32.8426 132.485C29.5263 132.485 26.8379 134.873 26.8379 137.818C26.8379 140.762 29.5263 143.15 32.8426 143.15Z" fill="#F3BDCA"/>
<path d="M68.8553 144.086H15.2129C15.2129 144.086 36.5337 136.288 68.8553 144.086Z" fill="#F3BDCA"/>
<path d="M14.5869 95.0717C18.1729 95.0717 21.08 92.4873 21.08 89.2992C21.08 86.1111 18.1729 83.5266 14.5869 83.5266C11.0008 83.5266 8.09375 86.1111 8.09375 89.2992C8.09375 92.4873 11.0008 95.0717 14.5869 95.0717Z" fill="#F3BDCA"/>
<path d="M21.0806 95.0637C22.8759 95.0637 24.3312 93.7733 24.3312 92.1815C24.3312 90.5896 22.8759 89.2992 21.0806 89.2992C19.2854 89.2992 17.8301 90.5896 17.8301 92.1815C17.8301 93.7733 19.2854 95.0637 21.0806 95.0637Z" fill="#F3BDCA"/>
<path d="M8.09457 95.0716C10.2966 95.0716 12.0817 93.4837 12.0817 91.5248C12.0817 89.566 10.2966 87.978 8.09457 87.978C5.89253 87.978 4.10742 89.566 4.10742 91.5248C4.10742 93.4837 5.89253 95.0716 8.09457 95.0716Z" fill="#F3BDCA"/>
<path d="M32.9303 95.8963H0.632812C0.632812 95.8963 13.459 89.5392 32.9303 95.8963Z" fill="#F3BDCA"/>
<path d="M136.477 44.3995C142.853 44.3995 148.022 39.8077 148.022 34.1434C148.022 28.4791 142.853 23.8873 136.477 23.8873C130.101 23.8873 124.932 28.4791 124.932 34.1434C124.932 39.8077 130.101 44.3995 136.477 44.3995Z" fill="#F3BDCA"/>
<path d="M124.931 44.3915C128.119 44.3915 130.703 42.0974 130.703 39.2675C130.703 36.4375 128.119 34.1434 124.931 34.1434C121.743 34.1434 119.158 36.4375 119.158 39.2675C119.158 42.0974 121.743 44.3915 124.931 44.3915Z" fill="#F3BDCA"/>
<path d="M148.021 44.3996C151.939 44.3996 155.115 41.5785 155.115 38.0986C155.115 34.6187 151.939 31.7976 148.021 31.7976C144.104 31.7976 140.928 34.6187 140.928 38.0986C140.928 41.5785 144.104 44.3996 148.021 44.3996Z" fill="#F3BDCA"/>
<path d="M104.826 45.1922H168.132C168.132 45.1922 143 35.9929 104.826 45.1922Z" fill="#F3BDCA"/>
<path d="M95.2442 19.0355H42.8748C41.588 19.0355 40.5449 20.0786 40.5449 21.3654V99.8514C40.5449 101.138 41.588 102.181 42.8748 102.181H95.2442C96.5309 102.181 97.574 101.138 97.574 99.8514V21.3654C97.574 20.0786 96.5309 19.0355 95.2442 19.0355Z" fill="#EB92A7"/>
<g opacity="0.8">
<path opacity="0.8" d="M69.0537 60.0039C77.7646 60.0039 84.8262 52.9423 84.8262 44.2315C84.8262 35.5206 77.7646 28.459 69.0537 28.459C60.3428 28.459 53.2812 35.5206 53.2812 44.2315C53.2812 52.9423 60.3428 60.0039 69.0537 60.0039Z" fill="white"/>
<path opacity="0.8" d="M69.0538 41.2531C67.6994 41.2439 66.3587 41.5251 65.1221 42.0776C63.8855 42.6302 62.7816 43.4413 61.8849 44.4564C60.9882 45.4715 60.3194 46.6669 59.9236 47.9622C59.5277 49.2576 59.4141 50.6227 59.5903 51.9656C60.8053 53.2568 62.2716 54.2858 63.8991 54.9891C65.5266 55.6924 67.2808 56.0552 69.0538 56.0552C70.8268 56.0552 72.581 55.6924 74.2085 54.9891C75.836 54.2858 77.3023 53.2568 78.5173 51.9656C78.6828 50.6245 78.5616 49.2636 78.1618 47.9728C77.762 46.6821 77.0926 45.4909 76.198 44.4782C75.3033 43.4655 74.2039 42.6544 72.9723 42.0984C71.7407 41.5424 70.4051 41.2543 69.0538 41.2531Z" fill="#DB284E"/>
<path opacity="0.8" d="M74.5229 37.8744C74.5229 40.8928 72.0729 43.655 69.0545 43.655C67.5721 43.5847 66.1742 42.9438 65.1535 41.8664C64.1327 40.789 63.5683 39.3585 63.5782 37.8744C63.5501 37.1382 63.6707 36.4038 63.9331 35.7153C64.1954 35.0268 64.5939 34.3983 65.1049 33.8674C65.6158 33.3366 66.2286 32.9143 66.9066 32.6258C67.5845 32.3374 68.3138 32.1887 69.0505 32.1887C69.7873 32.1887 70.5165 32.3374 71.1945 32.6258C71.8725 32.9143 72.4853 33.3366 72.9962 33.8674C73.5071 34.3983 73.9057 35.0268 74.168 35.7153C74.4303 36.4038 74.551 37.1382 74.5229 37.8744Z" fill="#DB284E"/>
</g>
<path opacity="0.5" d="M86.3082 65.3281H51.801C51.1731 65.3281 50.6641 65.8371 50.6641 66.465V70.3641C50.6641 70.992 51.1731 71.501 51.801 71.501H86.3082C86.9361 71.501 87.4451 70.992 87.4451 70.3641V66.465C87.4451 65.8371 86.9361 65.3281 86.3082 65.3281Z" fill="white"/>
<path opacity="0.5" d="M86.3082 75.1039H51.801C51.1731 75.1039 50.6641 75.6129 50.6641 76.2408V80.1399C50.6641 80.7678 51.1731 81.2768 51.801 81.2768H86.3082C86.9361 81.2768 87.4451 80.7678 87.4451 80.1399V76.2408C87.4451 75.6129 86.9361 75.1039 86.3082 75.1039Z" fill="white"/>
<path d="M83.156 86.3848H54.7134C54.2104 86.3848 53.8027 86.8905 53.8027 87.5144V93.1014C53.8027 93.7252 54.2104 94.231 54.7134 94.231H83.156C83.659 94.231 84.0667 93.7252 84.0667 93.1014V87.5144C84.0667 86.8905 83.659 86.3848 83.156 86.3848Z" fill="#DB284E"/>
<path d="M97.8139 153.87C125.202 153.87 147.405 152.615 147.405 151.068C147.405 149.52 125.202 148.266 97.8139 148.266C70.4254 148.266 48.2227 149.52 48.2227 151.068C48.2227 152.615 70.4254 153.87 97.8139 153.87Z" fill="#E8E8E8"/>
<path d="M135.997 151.805L63.9396 151.42C53.2911 139.115 52.1703 122.878 66.4535 108.939C68.247 107.185 71.6897 105.944 75.3886 105.08C80.2108 104.056 85.1031 103.394 90.0242 103.102C92.3826 101.204 94.5786 99.1124 96.5894 96.8491C104.219 87.6659 110.689 88.4745 110.689 88.4745C118.447 86.9933 125.06 86.569 129.952 89.2751C134.483 91.8212 137.542 97.0893 138.663 106.753C138.881 108.578 139.023 110.567 139.087 112.718C139.343 120.556 140.872 127.537 141.769 133.446C143.074 142.045 143.066 148.354 135.997 151.805Z" fill="#971937"/>
<path d="M127.516 100.308C122.808 102.854 120.815 110.14 113.449 112.317C106.083 114.495 93.5851 114.239 86.4675 121.925C79.6061 129.323 72.1282 110.428 75.3868 105.112C80.209 104.087 85.1012 103.426 90.0223 103.134C92.3808 101.236 94.5768 99.1443 96.5875 96.8811C104.218 87.6979 110.687 88.5065 110.687 88.5065C118.445 87.0253 125.058 86.601 129.95 89.3071C132.432 92.0373 132.232 97.7618 127.516 100.308Z" fill="#83182F"/>
<path d="M94.4739 102.574C94.4739 102.574 57.6448 100.572 59.2461 114.119C60.8473 127.665 63.8897 145.423 63.8897 145.423C63.8897 145.423 70.0786 145.576 70.8152 142.325C71.5518 139.074 65.2908 117.057 90.0304 113.334C114.77 109.611 94.4739 102.574 94.4739 102.574Z" fill="#3F3F3F"/>
<path d="M65.4032 143.478C65.4032 143.478 67.0045 147.785 66.6682 149.387C66.3319 150.988 66.8764 154.078 66.2279 155.463C65.5793 156.848 64.4024 158.866 65.5233 159.37C65.9476 159.571 70.8955 155.728 71.1838 154.567C71.472 153.406 71.6882 150.091 72.6329 148.274C72.8462 147.943 72.9845 147.569 73.0381 147.18C73.0918 146.79 73.0595 146.393 72.9436 146.017C72.8276 145.641 72.6308 145.294 72.3669 145.002C72.103 144.71 71.7784 144.48 71.4159 144.327C70.0469 143.662 68.1414 140.011 68.1414 140.011L65.4032 143.478Z" fill="#F2AA91"/>
<path d="M60.5999 150.571C60.5999 150.571 59.0547 154.903 57.7577 155.904C56.4606 156.904 54.8914 159.627 53.4983 160.259C52.1052 160.892 49.9115 161.684 50.4399 162.797C50.64 163.213 56.901 163.478 57.8457 162.797C58.7905 162.117 61.1203 159.699 63.0098 158.922C63.3848 158.806 63.7299 158.61 64.021 158.346C64.312 158.083 64.5418 157.759 64.6944 157.398C64.847 157.036 64.9186 156.645 64.9042 156.253C64.8898 155.861 64.7898 155.477 64.6111 155.127C63.9946 153.734 64.8993 149.707 64.8993 149.707L60.5999 150.571Z" fill="#F2AA91"/>
<path d="M97.1657 83.5266C97.1657 83.5266 94.8598 95.9604 82.5781 102.085L84.3956 103.198C84.3956 103.198 95.4763 103.342 104.411 88.9869L97.1657 83.5266Z" fill="#F2AA91"/>
<path d="M106.853 78.923C106.276 78.2585 115.372 75.5443 117.261 83.0062C117.261 83.0062 134.002 78.6108 123.738 71.1249C120.183 68.5388 119.831 65.7846 119.327 63.2626C118.822 60.7406 115.292 53.4869 109.143 57.0657C107.485 57.0918 105.877 57.6317 104.539 58.611C100.472 62.1097 95.9802 84.4234 106.853 78.923Z" fill="#1E1C1F"/>
<path d="M120.327 77.5697C115.292 75.5886 109.821 74.9834 104.475 75.8163C103.5 75.8965 102.559 76.2114 101.732 76.7343C100.905 77.2571 100.217 77.9723 99.7267 78.8187C97.8853 81.8291 97.0286 83.4464 97.0286 83.4464C97.0286 83.4464 97.1967 84.8475 99.6947 85.9684C99.0062 88.4663 100.295 92.8298 99.0942 94.5191C97.8933 96.2085 90.4234 100.396 90.0471 102.726C89.3586 107.017 102.745 114.839 106.748 114.015C118.253 111.677 126.156 80.8763 120.327 77.5697Z" fill="#DB284E"/>
<path d="M116.396 68.7148C117.188 67.1663 117.729 65.5015 117.997 63.7829C118.133 62.1816 116.804 56.4731 111.055 57.8422C109.885 58.1057 108.79 58.6313 107.853 59.3794C106.668 60.3482 105.011 62.3578 107.509 67.2256L108.197 68.8829L116.396 68.7148Z" fill="#1E1C1F"/>
<path d="M119.295 91.5007C119.295 91.5007 121.809 99.7552 111.937 100.308L109.607 102.597C109.607 102.597 119.735 108.154 125.02 100.428C129.231 94.2629 126.068 86.817 126.068 86.817L119.295 91.5007Z" fill="#F2AA91"/>
<path d="M84.9785 103.166C84.6305 103.41 84.3109 103.692 84.0257 104.007C83.4266 104.554 82.6702 104.899 81.864 104.991C81.2157 105.098 80.5558 105.117 79.9025 105.048C79.869 105.06 79.8319 105.06 79.7984 105.048C79.7103 104.983 79.7984 104.855 79.8624 104.783C80.2022 104.501 80.6391 104.363 81.0794 104.399C80.7111 104.399 80.3508 104.231 79.9745 104.215C79.3322 104.322 78.6961 104.464 78.069 104.639C77.5728 104.733 77.0627 104.724 76.5699 104.614C76.0771 104.504 75.6119 104.295 75.2027 103.999C74.9225 103.791 75.0826 103.751 75.3308 103.606C75.579 103.462 75.8192 103.334 76.0674 103.206C77.0524 102.736 78.0978 102.404 79.1739 102.221C79.8986 102.046 80.6386 101.941 81.3836 101.909C81.7519 101.909 82.5846 101.861 82.9849 101.909C83.3852 101.957 83.2011 102.461 83.5133 102.654C83.8255 102.846 84.6742 102.982 84.9785 103.166Z" fill="#F2AA91"/>
<path d="M119.438 77.2416C119.655 77.2416 122.297 78.1223 124.178 81.8772C126.06 85.6322 126.708 87.3696 126.708 87.3696C126.708 87.3696 118.422 93.7747 115.139 91.3728C111.856 88.9709 116.412 77.1535 119.438 77.2416Z" fill="#DB284E"/>
<path d="M111.92 100.276C111.098 100.023 110.314 99.6593 109.59 99.1949C109.022 98.6905 105.691 98.2742 105.691 98.6105C105.691 98.9468 107.629 99.4111 107.845 99.7474C108.061 100.084 109.23 101.469 110.247 101.469C111.264 101.469 111.92 100.276 111.92 100.276Z" fill="#F2AA91"/>
<path d="M106.661 94.1189L109.471 103.118L102.834 102.269L100.176 93.4784L106.661 94.1189Z" fill="black"/>
<path d="M109.326 102.662L109.59 102.133L106.924 93.4784L106.66 94.1189L109.326 102.662Z" fill="#424242"/>
<path d="M106.925 93.4784L100.968 93.014L100.176 93.4784L106.661 94.1189L106.925 93.4784Z" fill="#424242"/>
<path d="M109.591 102.566C108.522 102.591 107.452 102.548 106.388 102.438C105.74 102.285 104.09 100.228 104.531 99.7154C104.811 99.3952 106.348 99.9796 107.085 99.9796C107.821 99.9796 109.735 98.9228 111.032 101.101C111.16 101.349 109.591 102.566 109.591 102.566Z" fill="#F2AA91"/>
<path d="M104.083 63.2545C104.083 63.2545 103.146 71.1727 105.14 74.055C107.134 76.9373 109.519 73.8228 109.519 73.8228L109.263 77.2735C110.166 77.6772 111.148 77.8718 112.137 77.8427C113.125 77.8136 114.094 77.5615 114.972 77.1054C114.972 77.1054 112.402 75.5041 113.146 69.8997C113.146 69.8997 115.836 68.2264 113.771 66.1608C111.705 64.0951 112.17 67.3617 112.17 67.3617C112.17 67.3617 110.544 56.9775 104.083 63.2545Z" fill="#F2AA91"/>
<g opacity="0.1">
<path opacity="0.1" d="M99.6951 86.2247H99.5991C99.5444 86.1986 99.5021 86.1522 99.4811 86.0954C99.4602 86.0386 99.4623 85.9758 99.487 85.9205L100.92 82.6459C100.946 82.5911 100.992 82.5483 101.049 82.5261C101.105 82.5038 101.168 82.5037 101.224 82.5258C101.28 82.5504 101.325 82.5962 101.347 82.6532C101.37 82.7102 101.369 82.7737 101.344 82.83L99.9033 86.1046C99.8844 86.143 99.8545 86.1749 99.8174 86.1963C99.7804 86.2176 99.7378 86.2275 99.6951 86.2247Z" fill="black"/>
</g>
<g opacity="0.1">
<path opacity="0.1" d="M119.96 91.2607L119.28 91.5009L116.445 84.5754" fill="#4EA785"/>
<path opacity="0.1" d="M119.151 91.8292L116.228 84.7036C116.207 84.6461 116.208 84.5826 116.232 84.526C116.256 84.4694 116.3 84.4241 116.356 84.3993C116.385 84.3876 116.415 84.3816 116.446 84.3817C116.476 84.3818 116.507 84.388 116.535 84.3999C116.563 84.4118 116.589 84.4292 116.611 84.4511C116.632 84.473 116.649 84.499 116.661 84.5274L119.407 91.2528L119.879 91.0846C119.938 91.0664 120.001 91.0711 120.056 91.0979C120.111 91.1247 120.154 91.1715 120.175 91.2288C120.185 91.2571 120.189 91.2872 120.188 91.3172C120.186 91.3472 120.178 91.3765 120.164 91.4034C120.151 91.4303 120.132 91.4542 120.109 91.4737C120.086 91.4932 120.06 91.5079 120.031 91.517L119.151 91.8292Z" fill="black"/>
</g>
<path d="M91.8238 105.128C91.8238 105.128 70.0226 100.996 65.9474 122.918C61.8722 144.839 59.2461 151.877 59.2461 151.877C59.2461 151.877 61.1436 153.942 64.9546 151.997C68.7656 150.051 80.9673 123.35 82.6166 119.419C84.2659 115.488 103.433 125.44 108.525 113.462L91.8238 105.128Z" fill="#6C6D6D"/>
<path d="M121.616 107.53C121.616 107.53 118.974 109.635 109.27 109.931C99.5663 110.228 86.8523 120.892 86.7562 123.918C86.6601 126.945 106.268 131.613 106.572 131.18C106.876 130.748 119.07 120.34 119.07 120.34L121.616 107.53Z" fill="#971937"/>
<path d="M141.055 151.34C146.728 151.34 151.327 146.895 151.327 141.412C151.327 135.929 146.728 131.484 141.055 131.484C135.382 131.484 130.783 135.929 130.783 141.412C130.783 146.895 135.382 151.34 141.055 151.34Z" fill="#F3BDCA"/>
<path d="M134.219 151.34C136.58 151.34 138.494 149.491 138.494 147.209C138.494 144.927 136.58 143.078 134.219 143.078C131.858 143.078 129.943 144.927 129.943 147.209C129.943 149.491 131.858 151.34 134.219 151.34Z" fill="#B6EFDA"/>
<path d="M151.328 151.34C154.229 151.34 156.58 149.068 156.58 146.264C156.58 143.461 154.229 141.188 151.328 141.188C148.428 141.188 146.076 143.461 146.076 146.264C146.076 149.068 148.428 151.34 151.328 151.34Z" fill="#F3BDCA"/>
<path d="M119.295 151.981H166.22C166.22 151.981 147.605 144.567 119.295 151.981Z" fill="#F3BDCA"/>
<path d="M129.695 151.356C134.267 151.356 137.973 147.775 137.973 143.358C137.973 138.94 134.267 135.359 129.695 135.359C125.122 135.359 121.416 138.94 121.416 143.358C121.416 147.775 125.122 151.356 129.695 151.356Z" fill="#F3BDCA"/>
<path d="M121.409 151.364C123.695 151.364 125.548 149.572 125.548 147.361C125.548 145.15 123.695 143.358 121.409 143.358C119.123 143.358 117.27 145.15 117.27 147.361C117.27 149.572 119.123 151.364 121.409 151.364Z" fill="#F3BDCA"/>
<path d="M137.973 151.364C140.781 151.364 143.057 149.163 143.057 146.448C143.057 143.733 140.781 141.532 137.973 141.532C135.165 141.532 132.889 143.733 132.889 146.448C132.889 149.163 135.165 151.364 137.973 151.364Z" fill="#F3BDCA"/>
<path d="M106.988 151.981H152.4C152.4 151.981 134.37 144.807 106.988 151.981Z" fill="#F3BDCA"/>
<path d="M81.3261 48.299C80.3503 48.3862 79.4145 48.7277 78.6119 49.2894C77.8092 49.851 77.1678 50.6133 76.7516 51.5001C76.3354 52.3869 76.159 53.3674 76.2398 54.3437C76.3207 55.32 76.656 56.258 77.2124 57.0643L77.5487 57.5239C77.5954 57.595 77.652 57.6592 77.7168 57.7144L78.1428 58.0843C78.8397 58.6983 79.6782 59.1294 80.583 59.339C81.4878 59.5486 82.4306 59.53 83.3264 59.2849C84.2223 59.0398 85.0432 58.576 85.7153 57.935C86.3875 57.294 86.8898 56.4961 87.1771 55.6129C87.4644 54.7296 87.5277 53.7889 87.3614 52.8751C87.195 51.9614 86.8041 51.1033 86.2239 50.3781C85.6437 49.6528 84.8924 49.0831 84.0375 48.7202C83.1825 48.3573 82.2508 48.2126 81.3261 48.299Z" fill="#49A09D"/>
<path d="M81.1685 56.5374C80.9885 56.5266 80.8196 56.4463 80.6978 56.3133L78.456 53.7913C78.3963 53.7328 78.3489 53.6631 78.3166 53.5861C78.2842 53.5091 78.2676 53.4264 78.2676 53.3429C78.2676 53.2594 78.2842 53.1767 78.3166 53.0998C78.3489 53.0228 78.3963 52.953 78.456 52.8946C78.519 52.8381 78.5926 52.7947 78.6726 52.7669C78.7525 52.7391 78.8372 52.7275 78.9217 52.7327C79.0061 52.738 79.0887 52.7599 79.1646 52.7973C79.2406 52.8347 79.3083 52.8868 79.3639 52.9506L81.0788 54.9346L84.0492 51.7849C84.1651 51.66 84.3259 51.5863 84.4962 51.58C84.6665 51.5737 84.8323 51.6353 84.9571 51.7513C85.082 51.8672 85.1557 52.028 85.162 52.1982C85.1683 52.3685 85.1067 52.5343 84.9907 52.6592L81.6281 56.3245C81.57 56.3894 81.4993 56.4418 81.4203 56.4784C81.3413 56.5151 81.2556 56.5351 81.1685 56.5374Z" fill="white"/>
<path d="M61.4926 88.1001L59.9794 92.3707H58.6792L57.166 88.1001H58.2869L59.4078 91.317L60.4614 88.1001H61.4926Z" fill="white"/>
<path d="M65.0898 90.9246H62.7695C62.7686 91.0144 62.7861 91.1035 62.8208 91.1863C62.8555 91.2692 62.9067 91.3441 62.9713 91.4066C63.0293 91.4622 63.0979 91.5057 63.1729 91.5346C63.248 91.5635 63.328 91.5771 63.4084 91.5747C63.5222 91.5829 63.6356 91.5547 63.7323 91.4943C63.829 91.4339 63.904 91.3443 63.9464 91.2384H65.0673C65.0124 91.46 64.909 91.6668 64.7647 91.8437C64.6108 92.0217 64.4194 92.1633 64.2043 92.2584C63.9484 92.3792 63.6689 92.4419 63.386 92.4419C63.1031 92.4419 62.8236 92.3792 62.5678 92.2584C62.3138 92.1167 62.1042 91.9071 61.9625 91.6532C61.8226 91.3649 61.75 91.0488 61.75 90.7284C61.75 90.4081 61.8226 90.0919 61.9625 89.8037C62.1042 89.5497 62.3138 89.3402 62.5678 89.1984C62.8391 89.0509 63.1445 88.9775 63.4533 88.9854C63.757 88.978 64.0578 89.0474 64.3275 89.1872C64.5807 89.325 64.7904 89.5307 64.9328 89.7813C65.0817 90.0561 65.1552 90.3655 65.1458 90.678C65.1122 90.7116 65.101 90.8125 65.0898 90.9246ZM64.0473 90.3417C64.051 90.2619 64.0367 90.1822 64.0057 90.1085C63.9747 90.0348 63.9276 89.969 63.868 89.9158C63.7377 89.8116 63.5752 89.7561 63.4084 89.7589C63.2487 89.7576 63.0937 89.8132 62.9713 89.9158C62.8474 90.0259 62.7677 90.1773 62.7471 90.3417H64.0473Z" fill="white"/>
<path d="M67.1529 89.0976C67.3376 88.9937 67.5462 88.9396 67.7582 88.9407V90.0615H67.4779C67.2697 90.0452 67.0626 90.1049 66.8951 90.2297C66.8202 90.3057 66.7633 90.3975 66.7284 90.4983C66.6935 90.5991 66.6815 90.7065 66.6933 90.8125V92.393H65.6621V88.9294H66.6933V89.5011C66.8162 89.3356 66.9729 89.1981 67.1529 89.0976Z" fill="white"/>
<path d="M68.3738 88.4701C68.267 88.3629 68.207 88.2178 68.207 88.0666C68.207 87.9153 68.267 87.7702 68.3738 87.663C68.4997 87.5588 68.6587 87.5032 68.8221 87.5061C68.9825 87.5006 69.139 87.5568 69.2593 87.663C69.3165 87.7135 69.3624 87.7756 69.3938 87.8452C69.4252 87.9148 69.4414 87.9902 69.4414 88.0666C69.4414 88.1429 69.4252 88.2183 69.3938 88.2879C69.3624 88.3575 69.3165 88.4196 69.2593 88.4701C69.139 88.5763 68.9825 88.6325 68.8221 88.627C68.6587 88.6299 68.4997 88.5743 68.3738 88.4701ZM69.3377 88.9745V92.3371H68.2617V88.9296L69.3377 88.9745Z" fill="white"/>
<path d="M71.7364 89.8374H71.176V92.3706H70.1448V89.8374H69.7637V88.9295H70.1448C70.131 88.7541 70.156 88.5778 70.218 88.4132C70.28 88.2485 70.3775 88.0995 70.5035 87.9768C70.7984 87.7424 71.1701 87.6265 71.5459 87.6517H71.7364V88.5372C71.6648 88.5239 71.5913 88.525 71.5201 88.5404C71.4489 88.5558 71.3814 88.5852 71.3217 88.6269C71.2759 88.6761 71.2412 88.7346 71.22 88.7985C71.1987 88.8623 71.1913 88.9299 71.1984 88.9968H71.7364V89.8374Z" fill="white"/>
<path d="M72.3093 88.4701C72.2025 88.3629 72.1426 88.2178 72.1426 88.0666C72.1426 87.9153 72.2025 87.7702 72.3093 87.663C72.4342 87.557 72.5939 87.5011 72.7577 87.5061C72.9181 87.5006 73.0745 87.5568 73.1948 87.663C73.2521 87.7135 73.2979 87.7756 73.3293 87.8452C73.3607 87.9148 73.377 87.9902 73.377 88.0666C73.377 88.1429 73.3607 88.2183 73.3293 88.2879C73.2979 88.3575 73.2521 88.4196 73.1948 88.4701C73.0745 88.5763 72.9181 88.6325 72.7577 88.627C72.5939 88.632 72.4342 88.5761 72.3093 88.4701ZM73.2733 88.9745V92.3371H72.2309V88.9296L73.2733 88.9745Z" fill="white"/>
<path d="M77.1962 90.9246H74.8535C74.8526 91.0145 74.8701 91.1035 74.9048 91.1864C74.9395 91.2693 74.9907 91.3442 75.0553 91.4066C75.1738 91.517 75.3305 91.5772 75.4924 91.5748C75.6062 91.583 75.7196 91.5548 75.8163 91.4944C75.913 91.4339 75.988 91.3443 76.0304 91.2385H77.1513C77.0964 91.4601 76.993 91.6668 76.8487 91.8438C76.697 92.0241 76.505 92.1661 76.2882 92.2585C76.0557 92.3631 75.8034 92.4166 75.5485 92.4154C75.2363 92.4222 74.9275 92.3489 74.6517 92.2025C74.3978 92.0607 74.1882 91.8511 74.0465 91.5972C73.9066 91.309 73.834 90.9928 73.834 90.6724C73.834 90.3521 73.9066 90.0359 74.0465 89.7477C74.1882 89.4938 74.3978 89.2842 74.6517 89.1424C74.927 88.9945 75.2361 88.9211 75.5485 88.9295C75.852 88.9244 76.1521 88.9937 76.4227 89.1312C76.6704 89.2725 76.8756 89.4776 77.0168 89.7253C77.1657 90.0002 77.2392 90.3096 77.2298 90.622C77.229 90.7238 77.2178 90.8252 77.1962 90.9246ZM76.1537 90.3418C76.1574 90.2619 76.1431 90.1823 76.1121 90.1086C76.0811 90.0349 76.0341 89.9691 75.9744 89.9158C75.8451 89.81 75.6819 89.7543 75.5148 89.7589C75.3551 89.7577 75.2001 89.8133 75.0777 89.9158C74.9583 90.0294 74.8795 90.1791 74.8535 90.3418H76.1537Z" fill="white"/>
<path d="M77.7557 89.7479C77.879 89.5025 78.0645 89.2938 78.2937 89.1426C78.5212 88.998 78.7864 88.9239 79.0559 88.9296C79.2669 88.9246 79.4756 88.9748 79.6612 89.0753C79.8392 89.1544 79.9909 89.2827 80.0983 89.4452V87.876H81.1408V92.3595H80.0983V91.8663C79.9963 92.0307 79.8534 92.1659 79.6836 92.2586C79.4904 92.3605 79.2742 92.4107 79.0559 92.4044C78.7864 92.41 78.5212 92.336 78.2937 92.1914C78.0615 92.0388 77.8755 91.8256 77.7557 91.5749C77.6258 91.2859 77.5586 90.9726 77.5586 90.6558C77.5586 90.3389 77.6258 90.0257 77.7557 89.7367V89.7479ZM79.8854 90.0617C79.819 89.9885 79.7375 89.9305 79.6465 89.8918C79.5556 89.8531 79.4573 89.8346 79.3586 89.8375C79.2597 89.8338 79.1612 89.852 79.0701 89.8908C78.979 89.9295 78.8976 89.9879 78.8317 90.0617C78.7573 90.143 78.7 90.2386 78.6634 90.3426C78.6268 90.4466 78.6116 90.557 78.6188 90.667C78.6064 90.8924 78.6828 91.1137 78.8317 91.2835C78.899 91.3555 78.9807 91.4127 79.0714 91.4513C79.1621 91.49 79.26 91.5091 79.3586 91.5077C79.4573 91.5106 79.5556 91.4921 79.6465 91.4534C79.7375 91.4147 79.819 91.3567 79.8854 91.2835C80.0315 91.1166 80.1078 90.8998 80.0983 90.6782C80.1125 90.4491 80.036 90.2237 79.8854 90.0505V90.0617Z" fill="white"/>
</g>
</g>
<defs>
<clipPath id="clip0_26552_405034">
<rect width="165" height="165" fill="white"/>
</clipPath>
<clipPath id="clip1_26552_405034">
<rect width="168.133" height="168.133" fill="white" transform="translate(0 -1.04431)"/>
</clipPath>
</defs>
</svg>
