<svg width="59" height="36" viewBox="0 0 59 36" fill="none" xmlns="http://www.w3.org/2000/svg">
<path fill-rule="evenodd" clip-rule="evenodd" d="M34.3834 26.5167L32.5712 30.0749L30.759 26.5167H28.8115V34.582H30.7939V30.5496C30.7939 30.5496 31.767 32.2506 31.9136 32.5034C32.0588 32.7576 32.3075 32.8887 32.5712 32.8887C32.8349 32.8887 33.0845 32.7576 33.2297 32.5034C33.3759 32.2506 34.3489 30.5496 34.3489 30.5496V34.582H36.3313V26.5167H34.3834Z" fill="#646567"/>
<path fill-rule="evenodd" clip-rule="evenodd" d="M37.9941 34.5818V26.5156H43.4784V28.2829H39.9765V29.6308H42.9683V31.3999H39.9765V32.8155H43.4784V34.5818H37.9941Z" fill="#646567"/>
<path fill-rule="evenodd" clip-rule="evenodd" d="M50.0252 33.8129C49.3335 34.5245 48.5624 34.7165 47.6806 34.7165C46.7402 34.7165 46.0259 34.4029 45.4372 33.8129C44.5881 32.9614 44.6208 31.737 44.6208 30.5266C44.6208 29.3148 44.5881 28.0994 45.4372 27.2489C46.0259 26.6602 46.7071 26.3444 47.6806 26.3444C49.752 26.3444 50.6374 27.6909 50.8285 29.0175H48.8366C48.6759 28.4039 48.3587 28.1094 47.6806 28.1094C47.318 28.1094 47.0443 28.2691 46.8986 28.4629C46.7166 28.6998 46.6041 29.0538 46.6041 30.5266C46.6041 31.9975 46.7166 32.3737 46.8986 32.6111C47.0443 32.8058 47.318 32.9519 47.6806 32.9519C48.1 32.9519 48.3822 32.8276 48.5624 32.6342C48.7893 32.4077 48.8701 32.0043 48.8701 31.6993V31.5858H47.6806V29.9279H50.8412V31.0517C50.8412 32.3565 50.6374 33.1897 50.0252 33.8129Z" fill="#646567"/>
<mask id="mask0_7586_10" style="mask-type:alpha" maskUnits="userSpaceOnUse" x="51" y="26" width="8" height="9">
<path d="M51.2544 26.5155H58.6506V34.5817H51.2544V26.5155Z" fill="white"/>
</mask>
<g mask="url(#mask0_7586_10)">
<path fill-rule="evenodd" clip-rule="evenodd" d="M54.2112 31.767L54.9532 29.4306L55.6944 31.767H54.2112ZM55.7166 26.5155H54.1885L51.2544 34.5817H53.2935L53.6902 33.3808H56.2158L56.613 34.5817H58.6507L55.7166 26.5155Z" fill="#646567"/>
</g>
<path fill-rule="evenodd" clip-rule="evenodd" d="M3.05847 30.8544H0.860946V33.8108H3.05847C4.05557 33.8108 4.6787 33.2326 4.6787 32.3258C4.6787 31.4204 4.05557 30.8544 3.05847 30.8544ZM2.96815 27.2845H0.860946V30.0842H2.96815C3.86314 30.0842 4.5548 29.6417 4.5548 28.6782C4.5548 27.7147 3.86314 27.2845 2.96815 27.2845ZM3.13835 34.5809H0V26.5143H3.03714C4.44134 26.5143 5.41529 27.319 5.41529 28.6669C5.41529 29.5169 4.90562 30.185 4.22576 30.4342C4.99639 30.7178 5.54055 31.3863 5.54055 32.3494C5.54055 33.8108 4.56524 34.5809 3.13835 34.5809Z" fill="#646567"/>
<path fill-rule="evenodd" clip-rule="evenodd" d="M9.42663 27.7497L7.90806 32.009H10.923L9.42663 27.7497ZM11.8175 34.5819L11.1717 32.7584H7.64755L7.00128 34.5819H6.08496L9.05311 26.5134H9.77745L12.7347 34.5819H11.8175Z" fill="#646567"/>
<path fill-rule="evenodd" clip-rule="evenodd" d="M18.7288 34.5818L14.4454 28.1122V34.5818H13.5845V26.5138H14.3996L18.683 32.9616V26.5138H19.5448V34.5818H18.7288Z" fill="#646567"/>
<path fill-rule="evenodd" clip-rule="evenodd" d="M26.4444 34.5818L23.985 30.2871L22.2863 32.3257V34.5818H21.4258V26.5138H22.2863V31.1494L26.0478 26.5138H27.1025L24.5628 29.6308L27.4633 34.5818H26.4444Z" fill="#646567"/>
<mask id="mask1_7586_10" style="mask-type:alpha" maskUnits="userSpaceOnUse" x="29" y="0" width="13" height="18">
<path d="M29.3257 0.453857H41.6957V17.6786H29.3257V0.453857Z" fill="white"/>
</mask>
<g mask="url(#mask1_7586_10)">
<path fill-rule="evenodd" clip-rule="evenodd" d="M32.2943 0.453857L29.3257 7.11995L34.0262 17.6787L41.6957 0.453857H32.2943Z" fill="#A7A8AA"/>
</g>
<mask id="mask2_7586_10" style="mask-type:alpha" maskUnits="userSpaceOnUse" x="32" y="0" width="19" height="21">
<path d="M32.2949 0.453857H50.815V20.9295H32.2949V0.453857Z" fill="white"/>
</mask>
<g mask="url(#mask2_7586_10)">
<path fill-rule="evenodd" clip-rule="evenodd" d="M41.6954 0.453857H32.2949L41.4109 20.9296H50.815L41.6954 0.453857Z" fill="#646567"/>
</g>
<mask id="mask3_7586_10" style="mask-type:alpha" maskUnits="userSpaceOnUse" x="16" y="0" width="14" height="18">
<path d="M16.9575 0.453857H29.3285V17.6786H16.9575V0.453857Z" fill="white"/>
</mask>
<g mask="url(#mask3_7586_10)">
<path fill-rule="evenodd" clip-rule="evenodd" d="M26.3599 0.453857H16.9575L24.6271 17.6787L29.3285 7.11995L26.3599 0.453857Z" fill="#F49F00"/>
</g>
<mask id="mask4_7586_10" style="mask-type:alpha" maskUnits="userSpaceOnUse" x="7" y="0" width="20" height="21">
<path d="M7.83887 0.453857H26.359V20.9295H7.83887V0.453857Z" fill="white"/>
</mask>
<g mask="url(#mask4_7586_10)">
<path fill-rule="evenodd" clip-rule="evenodd" d="M16.9575 0.453857L7.83887 20.9296H17.243L26.359 0.453857H16.9575Z" fill="#FFCC00"/>
</g>
<path fill-rule="evenodd" clip-rule="evenodd" d="M29.327 7.11963L24.627 17.6779C25.4461 19.4524 27.2443 20.6787 29.327 20.6787C31.4097 20.6787 33.2078 19.4524 34.0261 17.6779L29.327 7.11963Z" fill="#EB690B"/>
</svg>
