<svg width="1276" height="206" viewBox="0 0 1276 206" fill="none" xmlns="http://www.w3.org/2000/svg">
<mask id="mask0_26024_445705" style="mask-type:alpha" maskUnits="userSpaceOnUse" x="0" y="0" width="1276" height="206">
<rect width="1276" height="206" rx="16" fill="#17AA83"/>
</mask>
<g mask="url(#mask0_26024_445705)">
<rect x="-13.6113" y="-32.6585" width="1374.68" height="362.51" rx="16" fill="#DA264D"/>
<ellipse cx="18.328" cy="-2.00975" rx="163.328" ry="156.761" fill="#DCF7EC" fill-opacity="0.4"/>
<ellipse cx="435" cy="232.127" rx="111" ry="106.517" fill="#DCF7EC" fill-opacity="0.4"/>
<path d="M868 -14.6518C868 71.3194 795.1 142.739 703 142.739C610.9 142.739 538 71.3194 538 -14.6518C538 -100.623 610.9 -172.042 703 -172.042C795.1 -172.042 868 -100.623 868 -14.6518Z" stroke="#DCF7EC" stroke-opacity="0.4" stroke-width="50"/>
<path d="M791.965 -15.9735C791.965 31.0821 752.041 70.2679 701.483 70.2679C650.924 70.2679 611 31.0821 611 -15.9735C611 -63.0292 650.924 -102.215 701.483 -102.215C752.041 -102.215 791.965 -63.0292 791.965 -15.9735Z" stroke="#DCF7EC" stroke-opacity="0.4" stroke-width="30"/>
<path d="M49.225 102.356H58.09L61.195 84.7161L64.075 102.356H71.455L80.59 84.8061L77.485 102.356H86.26L91.885 70.6311H81.265L69.88 91.1961L65.515 70.6311H54.85L49.225 102.356ZM117.201 70.6311H96.9057L91.2807 102.356H111.621L112.836 95.3361H101.361L102.396 89.5761H112.521L113.736 82.8711H103.611L104.511 77.6061H115.986L117.201 70.6311ZM141.854 70.6311H121.559L115.934 102.356H136.274L137.489 95.3361H126.014L127.049 89.5761H137.174L138.389 82.8711H128.264L129.164 77.6061H140.639L141.854 70.6311ZM143.197 77.6511H151.567L147.202 102.356H156.067L160.432 77.6511H168.847L170.107 70.6311H144.457L143.197 77.6511ZM179.408 77.6511H187.778L183.413 102.356H192.278L196.643 77.6511H205.058L206.318 70.6311H180.668L179.408 77.6511ZM223.531 102.356H232.396L237.976 70.6311H229.156L227.041 82.6011H216.286L218.401 70.6311H209.581L203.956 102.356H212.821L215.071 89.6211H225.781L223.531 102.356ZM263.319 70.6311H243.024L237.399 102.356H257.739L258.954 95.3361H247.479L248.514 89.5761H258.639L259.854 82.8711H249.729L250.629 77.6061H262.104L263.319 70.6311ZM291.625 81.2961C291.22 83.5011 289.87 84.6261 287.485 84.6261H283.12L284.245 77.9661H288.61C291.04 77.9661 291.985 79.3161 291.625 81.2961ZM276.73 70.6311L271.105 102.356H279.97L282.04 90.6561H282.985L287.215 102.356H297.025L292.075 89.9811C297.07 88.5411 299.95 84.9411 300.67 80.8011C301.705 75.1311 298.51 70.6311 290.635 70.6311H276.73ZM326.776 70.6311H306.481L300.856 102.356H321.196L322.411 95.3361H310.936L311.971 89.5761H322.096L323.311 82.8711H313.186L314.086 77.6061H325.561L326.776 70.6311ZM347.334 102.356H356.649L350.709 70.6311H340.539L323.394 102.356H332.664L335.274 97.1811H346.524L347.334 102.356ZM345.489 90.4761H338.694L343.914 80.1711L345.489 90.4761ZM365.104 70.6311L359.479 102.356H378.199L379.414 95.6511H369.559L373.924 70.6311H365.104ZM408.816 70.6311H396.261L390.636 102.356H403.191C413.361 102.356 420.966 95.6511 422.586 86.4711C424.251 77.1561 418.941 70.6311 408.816 70.6311ZM400.851 94.6161L403.776 78.2811H406.791C411.876 78.2811 414.531 81.2061 413.631 86.4711C412.686 91.6911 408.996 94.6161 403.911 94.6161H400.851ZM449.647 70.6311H429.352L423.727 102.356H444.067L445.282 95.3361H433.807L434.842 89.5761H444.967L446.182 82.8711H436.057L436.957 77.6061H448.432L449.647 70.6311ZM470.205 102.356H479.52L473.58 70.6311H463.41L446.265 102.356H455.535L458.145 97.1811H469.395L470.205 102.356ZM468.36 90.4761H461.565L466.785 80.1711L468.36 90.4761ZM487.975 70.6311L482.35 102.356H501.07L502.285 95.6511H492.43L496.795 70.6311H487.975ZM530.194 92.7261C530.194 83.5011 517.054 83.6811 517.054 79.3611C517.054 77.9211 518.179 77.0661 519.754 77.0661C521.554 77.0661 522.544 78.1911 522.229 79.9911H531.724C532.399 73.8261 527.404 70.1361 520.249 70.1361C512.824 70.1361 507.424 73.9161 507.469 80.6211C507.514 89.8461 520.654 88.9461 520.654 93.4911C520.654 94.9761 519.439 95.7411 517.774 95.7411C515.614 95.7411 514.624 94.5261 514.804 92.5011H505.489C504.724 99.3411 510.034 102.671 517.594 102.671C525.469 102.671 530.194 98.3961 530.194 92.7261Z" fill="white"/>
<path d="M60.352 142.59H62.86V127.3H60.352V133.856H53.158V127.3H50.65V142.59H53.158V135.902H60.352V142.59ZM77.1397 130.468H74.6317V137.222C74.6317 139.444 73.4217 140.588 71.5737 140.588C69.7477 140.588 68.5377 139.444 68.5377 137.222V130.468H66.0517V137.596C66.0517 140.984 68.2077 142.766 71.0457 142.766C72.4757 142.766 73.8397 142.172 74.6317 141.138V142.59H77.1397V130.468ZM89.0508 142.59H91.5368V135.44C91.5368 132.052 89.4028 130.27 86.5648 130.27C85.1128 130.27 83.7708 130.864 82.9568 131.854V130.468H80.4488V142.59H82.9568V135.814C82.9568 133.592 84.1668 132.448 86.0148 132.448C87.8408 132.448 89.0508 133.592 89.0508 135.814V142.59ZM95.1319 139.224C95.1319 141.688 96.4739 142.59 98.6299 142.59H100.61V140.5H99.0699C98.0139 140.5 97.6619 140.126 97.6619 139.224V132.514H100.61V130.468H97.6619V127.454H95.1319V130.468H93.7019V132.514H95.1319V139.224ZM108.636 142.59H111.144V130.468H108.636V142.59ZM109.912 128.862C110.792 128.862 111.496 128.158 111.496 127.256C111.496 126.354 110.792 125.65 109.912 125.65C109.01 125.65 108.306 126.354 108.306 127.256C108.306 128.158 109.01 128.862 109.912 128.862ZM114.833 139.224C114.833 141.688 116.175 142.59 118.331 142.59H120.311V140.5H118.771C117.715 140.5 117.363 140.126 117.363 139.224V132.514H120.311V130.468H117.363V127.454H114.833V130.468H113.403V132.514H114.833V139.224ZM121.083 145.648H122.711L125.373 139.576H122.645L121.083 145.648ZM132.443 136.474C132.443 140.214 134.973 142.788 138.163 142.788C140.143 142.788 141.595 141.798 142.365 140.764V142.788C142.365 145.208 140.913 146.396 138.977 146.396C137.239 146.396 135.897 145.538 135.523 144.284H133.037C133.345 146.968 135.743 148.574 138.977 148.574C142.761 148.574 144.895 146.088 144.895 142.788V130.468H142.365V132.228C141.617 131.194 140.143 130.27 138.163 130.27C134.973 130.27 132.443 132.734 132.443 136.474ZM142.365 136.518C142.365 139.136 140.583 140.61 138.691 140.61C136.821 140.61 135.017 139.092 135.017 136.474C135.017 133.856 136.821 132.448 138.691 132.448C140.583 132.448 142.365 133.922 142.365 136.518ZM153.293 132.382C155.163 132.382 156.637 133.57 156.681 135.44H149.971C150.235 133.526 151.599 132.382 153.293 132.382ZM158.969 138.982H156.263C155.801 139.928 154.943 140.676 153.403 140.676C151.555 140.676 150.125 139.466 149.949 137.464H159.211C159.277 137.046 159.299 136.65 159.299 136.232C159.299 132.668 156.857 130.27 153.403 130.27C149.817 130.27 147.353 132.712 147.353 136.518C147.353 140.324 149.927 142.788 153.403 142.788C156.373 142.788 158.287 141.094 158.969 138.982ZM162.163 139.224C162.163 141.688 163.505 142.59 165.661 142.59H167.641V140.5H166.101C165.045 140.5 164.693 140.126 164.693 139.224V132.514H167.641V130.468H164.693V127.454H162.163V130.468H160.733V132.514H162.163V139.224ZM175.668 142.59H178.176V130.468H175.668V142.59ZM176.944 128.862C177.824 128.862 178.528 128.158 178.528 127.256C178.528 126.354 177.824 125.65 176.944 125.65C176.042 125.65 175.338 126.354 175.338 127.256C175.338 128.158 176.042 128.862 176.944 128.862ZM181.864 139.224C181.864 141.688 183.206 142.59 185.362 142.59H187.342V140.5H185.802C184.746 140.5 184.394 140.126 184.394 139.224V132.514H187.342V130.468H184.394V127.454H181.864V130.468H180.434V132.514H181.864V139.224ZM188.114 145.648H189.742L192.404 139.576H189.676L188.114 145.648ZM199.474 136.474C199.474 140.214 202.004 142.788 205.194 142.788C207.174 142.788 208.626 141.864 209.396 140.764V142.59H211.926V126.31H209.396V132.162C208.472 131.018 206.8 130.27 205.216 130.27C202.004 130.27 199.474 132.734 199.474 136.474ZM209.396 136.518C209.396 139.136 207.614 140.61 205.722 140.61C203.852 140.61 202.048 139.092 202.048 136.474C202.048 133.856 203.852 132.448 205.722 132.448C207.614 132.448 209.396 133.922 209.396 136.518ZM226.77 136.518C226.77 132.712 224.042 130.27 220.588 130.27C217.134 130.27 214.406 132.712 214.406 136.518C214.406 140.324 217.024 142.788 220.478 142.788C223.954 142.788 226.77 140.324 226.77 136.518ZM216.958 136.518C216.958 133.768 218.652 132.448 220.544 132.448C222.414 132.448 224.196 133.768 224.196 136.518C224.196 139.268 222.348 140.61 220.478 140.61C218.586 140.61 216.958 139.268 216.958 136.518ZM237.852 142.59H240.338V135.44C240.338 132.052 238.204 130.27 235.366 130.27C233.914 130.27 232.572 130.864 231.758 131.854V130.468H229.25V142.59H231.758V135.814C231.758 133.592 232.968 132.448 234.816 132.448C236.642 132.448 237.852 133.592 237.852 135.814V142.59ZM244.351 132.536L246.661 127.3H243.933L242.591 132.536H244.351ZM249.261 139.224C249.261 141.688 250.603 142.59 252.759 142.59H254.739V140.5H253.199C252.143 140.5 251.791 140.126 251.791 139.224V132.514H254.739V130.468H251.791V127.454H249.261V130.468H247.831V132.514H249.261V139.224ZM279.947 142.59H282.433V135.44C282.433 132.052 280.277 130.27 277.439 130.27C275.679 130.27 273.963 131.194 273.215 132.668C272.379 131.084 270.773 130.27 268.859 130.27C267.407 130.27 266.087 130.864 265.273 131.854V130.468H262.765V142.59H265.273V135.814C265.273 133.592 266.483 132.448 268.331 132.448C270.157 132.448 271.367 133.592 271.367 135.814V142.59H273.853V135.814C273.853 133.592 275.063 132.448 276.911 132.448C278.737 132.448 279.947 133.592 279.947 135.814V142.59ZM285.625 142.59H288.133V130.468H285.625V142.59ZM286.901 128.862C287.781 128.862 288.485 128.158 288.485 127.256C288.485 126.354 287.781 125.65 286.901 125.65C285.999 125.65 285.295 126.354 285.295 127.256C285.295 128.158 285.999 128.862 286.901 128.862ZM300.467 139.202C300.335 134.824 293.493 136.188 293.493 133.746C293.493 132.932 294.197 132.382 295.539 132.382C296.903 132.382 297.717 133.108 297.805 134.164H300.313C300.181 131.744 298.377 130.27 295.627 130.27C292.767 130.27 290.963 131.832 290.963 133.768C290.963 138.212 298.003 136.848 298.003 139.224C298.003 140.06 297.233 140.676 295.781 140.676C294.395 140.676 293.449 139.862 293.361 138.872H290.765C290.875 141.072 292.921 142.788 295.825 142.788C298.685 142.788 300.467 141.248 300.467 139.202ZM312.219 139.202C312.087 134.824 305.245 136.188 305.245 133.746C305.245 132.932 305.949 132.382 307.291 132.382C308.655 132.382 309.469 133.108 309.557 134.164H312.065C311.933 131.744 310.129 130.27 307.379 130.27C304.519 130.27 302.715 131.832 302.715 133.768C302.715 138.212 309.755 136.848 309.755 139.224C309.755 140.06 308.985 140.676 307.533 140.676C306.147 140.676 305.201 139.862 305.113 138.872H302.517C302.627 141.072 304.673 142.788 307.577 142.788C310.437 142.788 312.219 141.248 312.219 139.202ZM320.644 142.59H323.152V130.468H320.644V142.59ZM321.92 128.862C322.8 128.862 323.504 128.158 323.504 127.256C323.504 126.354 322.8 125.65 321.92 125.65C321.018 125.65 320.314 126.354 320.314 127.256C320.314 128.158 321.018 128.862 321.92 128.862ZM326.841 139.224C326.841 141.688 328.183 142.59 330.339 142.59H332.319V140.5H330.779C329.723 140.5 329.371 140.126 329.371 139.224V132.514H332.319V130.468H329.371V127.454H326.841V130.468H325.411V132.514H326.841V139.224ZM335.4 137.97H337.49L337.776 127.3H335.114L335.4 137.97ZM338.106 141.138C338.106 140.236 337.402 139.532 336.522 139.532C335.62 139.532 334.916 140.236 334.916 141.138C334.916 142.04 335.62 142.744 336.522 142.744C337.402 142.744 338.106 142.04 338.106 141.138Z" fill="white"/>
<path d="M1236.57 69.9584C1245.17 69.9584 1252.14 63.0469 1252.14 54.521C1252.14 45.9951 1245.17 39.0836 1236.57 39.0836C1227.97 39.0836 1221 45.9951 1221 54.521C1221 63.0469 1227.97 69.9584 1236.57 69.9584Z" fill="#F3BDCA"/>
<path d="M1220.98 69.9584C1225.28 69.9584 1228.76 66.5026 1228.76 62.2397C1228.76 57.9767 1225.28 54.521 1220.98 54.521C1216.68 54.521 1213.19 57.9767 1213.19 62.2397C1213.19 66.5026 1216.68 69.9584 1220.98 69.9584Z" fill="#F3BDCA"/>
<path d="M1252.14 69.9569C1257.42 69.9569 1261.7 65.714 1261.7 60.4802C1261.7 55.2463 1257.42 51.0034 1252.14 51.0034C1246.86 51.0034 1242.57 55.2463 1242.57 60.4802C1242.57 65.714 1246.86 69.9569 1252.14 69.9569Z" fill="#F3BDCA"/>
<path d="M1193.84 71.1637H1279.27C1279.27 71.1637 1245.36 57.3169 1193.84 71.1637Z" fill="#F3BDCA"/>
<path d="M1119.14 136.613C1119.14 136.613 1135.15 181.603 1138.15 196.655C1138.15 196.655 1230.44 162.783 1280.57 160.372C1280.57 160.372 1280.35 116.839 1256.89 87.6724L1119.14 136.613Z" fill="#27B787"/>
<path d="M1128.62 139.126C1128.62 139.126 1141.93 176.531 1144.43 189.038C1144.43 189.038 1229.45 157.343 1271.15 155.351C1271.15 155.351 1270.97 119.101 1251.49 94.9235L1128.62 139.126Z" stroke="#B6EFDA" stroke-width="1.94" stroke-miterlimit="10"/>
<path d="M1177.97 126.599C1178.64 126.319 1179.21 126.26 1179.69 126.421C1180.17 126.576 1180.51 126.897 1180.71 127.383C1180.77 127.524 1180.81 127.661 1180.84 127.795C1180.95 128.256 1180.92 128.718 1180.76 129.182C1180.6 129.646 1180.3 130.054 1179.85 130.406L1181.97 132.535L1180.19 133.278L1178.25 131.215L1177.87 131.372L1178.46 133.998L1176.88 134.656L1175.32 127.703L1177.97 126.599ZM1179.25 128.533C1179.22 128.429 1179.2 128.362 1179.19 128.331C1179.11 128.134 1178.98 128.011 1178.81 127.96C1178.64 127.901 1178.43 127.922 1178.18 128.025L1177.21 128.433L1177.6 130.176L1178.58 129.768C1178.87 129.647 1179.06 129.481 1179.17 129.271C1179.28 129.057 1179.31 128.811 1179.25 128.533ZM1183.41 126.746C1183.5 126.424 1183.67 126.127 1183.9 125.857C1184.14 125.583 1184.44 125.371 1184.81 125.22C1185.36 124.989 1185.88 124.984 1186.37 125.206C1186.87 125.425 1187.25 125.845 1187.51 126.466C1187.59 126.657 1187.66 126.87 1187.71 127.107C1187.84 127.674 1187.86 128.217 1187.75 128.736C1187.65 129.249 1187.46 129.695 1187.17 130.076C1186.88 130.45 1186.52 130.726 1186.09 130.903C1185.74 131.051 1185.4 131.103 1185.1 131.058C1184.79 131.014 1184.53 130.899 1184.31 130.714L1185.08 134.121L1183.5 134.78L1181.65 126.621L1183.23 125.963L1183.41 126.746ZM1186.12 127.773C1186.09 127.661 1186.06 127.561 1186.02 127.475C1185.89 127.168 1185.7 126.965 1185.45 126.868C1185.21 126.767 1184.95 126.773 1184.68 126.886C1184.37 127.017 1184.13 127.25 1183.97 127.586C1183.8 127.921 1183.77 128.301 1183.86 128.725C1183.89 128.843 1183.92 128.949 1183.96 129.041C1184.08 129.342 1184.27 129.543 1184.51 129.643C1184.76 129.744 1185.02 129.737 1185.29 129.625C1185.6 129.494 1185.84 129.261 1186 128.925C1186.17 128.581 1186.21 128.197 1186.12 127.773Z" fill="#B6EFDA"/>
<path opacity="0.2" d="M1252.84 89.2129C1252.84 89.2129 1262.69 99.9287 1262.74 107.982C1225.07 133.39 1188.98 161.063 1154.67 190.846L1138.15 196.622L1134.52 182.474L1244.95 92.0593L1252.84 89.2129Z" fill="#231F20"/>
<path d="M1097.17 148.066C1097.17 148.066 1130.31 182.524 1139.24 194.947C1139.24 194.947 1209.36 126.299 1254.12 103.461C1254.12 103.461 1235.96 63.7961 1202.6 46.8853L1097.17 148.066Z" fill="#2CC495"/>
<path d="M1106.81 146.475C1106.81 146.475 1134.34 175.107 1141.78 185.487C1141.78 185.487 1206.25 121.729 1243.43 102.808C1243.43 102.808 1228.33 69.8406 1200.61 55.7929L1106.81 146.475Z" stroke="#B6EFDA" stroke-width="1.94" stroke-miterlimit="10"/>
<path d="M1163.73 112.487C1165.27 110.842 1166.82 109.942 1168.39 109.787C1169.93 109.617 1171.3 110.089 1172.5 111.202C1172.84 111.526 1173.14 111.86 1173.39 112.202C1174.27 113.369 1174.79 114.71 1174.93 116.224C1175.07 117.739 1174.73 119.276 1173.92 120.838L1182.62 124.156L1178.53 128.524L1170.42 125.163L1169.56 126.091L1174.57 132.756L1170.95 136.626L1157.65 118.981L1163.73 112.487ZM1169.84 116.31C1169.62 116.054 1169.48 115.891 1169.4 115.821C1168.92 115.37 1168.4 115.183 1167.85 115.26C1167.29 115.309 1166.73 115.634 1166.17 116.238L1163.92 118.637L1167.26 123.058L1169.5 120.659C1170.17 119.95 1170.51 119.23 1170.55 118.499C1170.6 117.752 1170.36 117.023 1169.84 116.31ZM1179.31 105.968C1179.17 104.935 1179.26 103.888 1179.57 102.826C1179.9 101.748 1180.48 100.764 1181.32 99.8743C1182.59 98.5165 1184.06 97.8384 1185.73 97.84C1187.41 97.8265 1189.02 98.5313 1190.54 99.9546C1191.01 100.391 1191.47 100.909 1191.93 101.507C1193.02 102.945 1193.76 104.461 1194.13 106.055C1194.49 107.634 1194.51 109.145 1194.18 110.588C1193.83 112.017 1193.17 113.252 1192.19 114.293C1191.37 115.168 1190.5 115.738 1189.57 116.003C1188.65 116.268 1187.76 116.277 1186.92 116.028L1193.43 124.679L1189.8 128.549L1174.19 107.851L1177.81 103.981L1179.31 105.968ZM1188.27 105.422C1188.05 105.137 1187.84 104.896 1187.63 104.698C1186.87 103.994 1186.08 103.663 1185.25 103.706C1184.43 103.734 1183.71 104.08 1183.09 104.744C1182.37 105.513 1181.99 106.475 1181.95 107.63C1181.92 108.785 1182.3 109.904 1183.1 110.987C1183.33 111.286 1183.56 111.541 1183.79 111.753C1184.53 112.443 1185.31 112.774 1186.13 112.746C1186.94 112.719 1187.66 112.373 1188.29 111.709C1189.01 110.939 1189.38 109.977 1189.42 108.822C1189.45 107.638 1189.07 106.504 1188.27 105.422Z" fill="#B6EFDA"/>
<path d="M1112.28 243.304L1038.88 230.579C1036.78 230.216 1034.77 229.445 1032.97 228.307C1031.17 227.17 1029.61 225.69 1028.39 223.951C1027.16 222.213 1026.29 220.25 1025.83 218.175C1025.36 216.1 1025.31 213.954 1025.68 211.86L1057.56 28.2345C1057.92 26.1295 1058.69 24.1166 1059.84 22.312C1060.98 20.5073 1062.47 18.9467 1064.22 17.7201C1065.98 16.4934 1067.95 15.6251 1070.04 15.1653C1072.13 14.7054 1074.3 14.663 1076.4 15.0406L1149.8 27.7656C1151.9 28.1281 1153.91 28.8998 1155.71 30.0368C1157.51 31.1737 1159.07 32.6536 1160.3 34.392C1161.52 36.1303 1162.4 38.093 1162.86 40.1679C1163.33 42.2428 1163.39 44.3893 1163.02 46.4848L1131.14 230.127C1130.77 232.231 1130 234.242 1128.85 236.045C1127.7 237.848 1126.21 239.407 1124.46 240.631C1122.7 241.856 1120.72 242.723 1118.63 243.181C1116.54 243.64 1114.38 243.682 1112.28 243.304Z" fill="#2D3E44"/>
<path d="M1148.61 34.0934L1134.39 31.6321C1133.92 31.5585 1133.44 31.5778 1132.99 31.6891C1132.53 31.8003 1132.1 32.0012 1131.72 32.28C1131.34 32.5588 1131.02 32.9101 1130.78 33.3133C1130.53 33.7166 1130.38 34.1639 1130.31 34.6291L1129.85 37.2076C1129.7 38.1362 1129.19 38.967 1128.42 39.519C1127.66 40.071 1126.71 40.2994 1125.78 40.1545L1098.04 35.3491C1097.1 35.1669 1096.28 34.6218 1095.75 33.8337C1095.22 33.0456 1095.02 32.079 1095.2 31.1465L1095.66 28.568C1095.83 27.636 1095.64 26.6716 1095.1 25.8847C1094.57 25.0977 1093.75 24.5517 1092.82 24.3654L1087.79 23.4948L1075.35 21.3851C1072.38 20.87 1069.32 21.5544 1066.86 23.2876C1064.39 25.0209 1062.71 27.6611 1062.2 30.6275L1031.07 209.866C1030.81 211.332 1030.85 212.835 1031.18 214.287C1031.5 215.74 1032.11 217.114 1032.97 218.332C1033.83 219.549 1034.92 220.586 1036.18 221.383C1037.44 222.18 1038.85 222.721 1040.32 222.976L1113.58 235.684C1115.05 235.939 1116.56 235.902 1118.01 235.576C1119.47 235.249 1120.85 234.639 1122.07 233.781C1123.29 232.922 1124.33 231.832 1125.12 230.573C1125.92 229.314 1126.46 227.91 1126.72 226.442L1157.88 47.2872C1158.14 45.8135 1158.11 44.3019 1157.79 42.8397C1157.47 41.3774 1156.86 39.9932 1156 38.7669C1155.14 37.5405 1154.04 36.4962 1152.77 35.6942C1151.51 34.8921 1150.09 34.348 1148.61 34.0934Z" fill="#2D3E44"/>
<path d="M1109.14 239.401L1035.72 226.676C1031.48 225.94 1027.71 223.555 1025.24 220.044C1022.76 216.534 1021.78 212.186 1022.52 207.957L1054.4 24.3146C1054.76 22.2189 1055.54 20.2154 1056.68 18.4188C1057.82 16.6221 1059.31 15.0675 1061.05 13.8438C1062.8 12.6201 1064.76 11.7512 1066.84 11.2868C1068.92 10.8225 1071.08 10.7718 1073.18 11.1376L1146.57 23.8626C1150.81 24.5984 1154.58 26.9837 1157.06 30.494C1159.54 34.0043 1160.51 38.3521 1159.78 42.5817L1127.9 226.207C1127.54 228.303 1126.76 230.308 1125.62 232.107C1124.49 233.905 1123 235.462 1121.26 236.687C1119.52 237.913 1117.55 238.783 1115.47 239.249C1113.39 239.715 1111.24 239.766 1109.14 239.401Z" fill="#455A64"/>
<path d="M1145.43 30.1912L1131.18 27.7132C1130.24 27.5786 1129.29 27.8196 1128.52 28.3839C1127.76 28.9481 1127.25 29.7901 1127.11 30.727L1126.67 33.3055C1126.53 34.2446 1126.01 35.088 1125.24 35.65C1124.48 36.2121 1123.52 36.4468 1122.58 36.3025L1094.84 31.4972C1094.38 31.4071 1093.94 31.2267 1093.54 30.9665C1093.15 30.7062 1092.81 30.3712 1092.55 29.9807C1092.29 29.5901 1092.11 29.1518 1092.02 28.6908C1091.93 28.2298 1091.93 27.7553 1092.02 27.2946L1092.46 24.7161C1092.64 23.786 1092.44 22.8215 1091.92 22.0339C1091.39 21.2462 1090.57 20.6995 1089.64 20.5135L1084.6 19.6428L1072.15 17.4829C1070.68 17.2308 1069.17 17.2708 1067.71 17.6007C1066.26 17.9305 1064.88 18.5438 1063.66 19.4054C1062.44 20.267 1061.41 21.3599 1060.61 22.6217C1059.82 23.8835 1059.28 25.2894 1059.03 26.7588L1027.87 205.913C1027.35 208.88 1028.04 211.929 1029.77 214.391C1031.51 216.853 1034.16 218.525 1037.13 219.04L1110.38 231.732C1113.35 232.247 1116.4 231.565 1118.87 229.835C1121.33 228.105 1123.01 225.469 1123.53 222.506L1154.68 43.3515C1154.94 41.8812 1154.91 40.3736 1154.59 38.9153C1154.26 37.4569 1153.65 36.0766 1152.79 34.8537C1151.94 33.6307 1150.84 32.5893 1149.58 31.7891C1148.31 30.989 1146.91 30.4459 1145.43 30.1912Z" fill="#FBE9ED"/>
<g clip-path="url(#clip0_26024_445705)">
<path d="M1073.1 129.404C1073.26 129.555 1073.47 129.656 1073.69 129.696L1073.69 129.697C1073.95 129.744 1074.21 129.707 1074.45 129.59C1074.68 129.474 1074.87 129.285 1074.98 129.052C1075.1 128.818 1075.14 128.554 1075.09 128.298C1075.04 128.042 1074.91 127.808 1074.72 127.633C1071.3 124.54 1068.73 120.623 1067.25 116.256C1065.78 111.888 1065.45 107.216 1066.29 102.684C1068.98 87.9744 1083.15 78.1891 1097.86 80.8827C1112.57 83.5763 1122.36 97.7366 1119.66 112.448C1119.46 113.536 1119.2 114.611 1118.87 115.668C1118.82 115.818 1118.81 115.976 1118.82 116.133C1118.83 116.289 1118.88 116.442 1118.95 116.581C1119.02 116.721 1119.12 116.845 1119.24 116.946C1119.36 117.047 1119.5 117.124 1119.65 117.171C1119.8 117.218 1119.96 117.236 1120.12 117.222C1120.27 117.208 1120.43 117.164 1120.57 117.091C1120.71 117.018 1120.83 116.919 1120.93 116.798C1121.03 116.678 1121.11 116.539 1121.16 116.388C1121.51 115.24 1121.8 114.07 1122.02 112.887C1124.95 96.8756 1114.3 81.4649 1098.29 78.5331C1082.28 75.6013 1066.86 86.2418 1063.93 102.253C1063.01 107.184 1063.37 112.269 1064.98 117.022C1066.58 121.774 1069.38 126.037 1073.1 129.404Z" fill="#D8254E"/>
<path fill-rule="evenodd" clip-rule="evenodd" d="M1096.25 104.449L1096.54 104.443C1095.77 106.856 1095.04 109.356 1094.36 111.881C1093.84 113.807 1093.26 116.094 1092.87 118.458L1092.8 118.864L1092.8 118.864C1092.5 118.809 1092.21 118.755 1091.93 118.679C1090.73 118.364 1089.85 119.139 1089.59 120.064C1089.35 120.927 1089.64 122.018 1090.84 122.361L1090.88 122.37C1091.46 122.521 1092.04 122.633 1092.64 122.706C1092.67 122.902 1092.73 123.094 1092.8 123.281C1092.9 123.593 1093.08 123.876 1093.31 124.107C1093.55 124.339 1093.83 124.512 1094.14 124.612C1094.46 124.703 1094.8 124.706 1095.12 124.62C1095.39 124.544 1095.64 124.413 1095.86 124.236C1096.08 124.059 1096.26 123.839 1096.38 123.59C1096.54 123.304 1096.61 122.981 1096.59 122.657C1098.81 122.308 1100.94 121.48 1102.81 120.231C1106.55 117.743 1109.04 113.903 1109.64 109.676L1109.64 109.674C1110.15 106.058 1108.89 102.467 1106.32 100.302C1105.45 99.5616 1104.43 99.0115 1103.34 98.6877C1101.27 98.0942 1099.23 98.4318 1097.58 99.6381C1097.11 99.9725 1096.68 100.357 1096.29 100.785C1096.27 100.809 1096.25 100.833 1096.23 100.858C1095.5 100.852 1094.78 100.844 1094.24 100.838L1094.07 100.836L1093.98 100.835C1091.98 100.814 1089.72 100.79 1088.26 100.846C1088.5 99.7869 1088.71 98.8527 1088.91 97.9974C1089.03 97.4824 1089.14 96.9483 1089.25 96.4285L1089.3 96.1274C1090.95 96.185 1092.61 96.2309 1094.59 96.2853L1094.64 96.2941C1096.8 96.3516 1099.25 96.4195 1101.63 96.5164C1101.84 96.5204 1102.04 96.4794 1102.24 96.396C1102.43 96.3127 1102.6 96.1889 1102.74 96.0332C1102.92 95.8449 1103.06 95.6225 1103.15 95.3793C1103.24 95.1361 1103.28 94.8772 1103.27 94.6182C1103.2 93.7999 1102.63 93.2179 1101.76 93.0583C1101.64 93.0374 1101.53 93.0243 1101.41 93.0192C1099.18 92.9328 1096.91 92.8708 1094.71 92.8105L1094.64 92.8086L1094.54 92.8053C1093.08 92.7668 1091.64 92.727 1090.17 92.6806C1090.34 92.1963 1090.53 91.7234 1090.76 91.2651C1090.89 91.0392 1090.95 90.7864 1090.96 90.5283C1090.97 90.2702 1090.91 90.0145 1090.79 89.7831C1090.66 89.5282 1090.47 89.3075 1090.23 89.1377C1090 88.968 1089.73 88.8537 1089.45 88.8034C1089.08 88.7277 1088.7 88.7775 1088.37 88.9446C1088.04 89.1117 1087.77 89.3863 1087.61 89.7238C1087.17 90.6233 1086.82 91.564 1086.57 92.5324C1084.53 92.4428 1082.73 92.3375 1081.05 92.21C1080.02 92.13 1079.21 92.7 1079.04 93.6253C1078.89 94.4689 1079.49 95.6014 1080.49 95.6735C1082.09 95.7964 1083.82 95.8989 1085.76 95.9897C1085.74 96.0552 1085.73 96.1205 1085.72 96.1858L1085.72 96.1862L1085.72 96.1864C1085.67 96.3918 1085.63 96.5963 1085.58 96.7996C1085.29 98.0651 1084.98 99.4096 1084.59 101.171C1083.9 101.257 1083.26 101.351 1082.65 101.457C1081.85 101.6 1081.14 102.416 1081.07 103.284C1081.02 104.001 1081.41 104.57 1082.12 104.807C1082.52 104.955 1082.95 105.025 1083.38 105.012C1083.48 105.009 1083.6 105.005 1083.74 104.997L1083.44 106.354C1082.67 109.868 1081.88 113.502 1081.02 117.06C1080.96 117.273 1080.94 117.496 1080.98 117.715C1081.01 117.933 1081.08 118.143 1081.2 118.33C1081.34 118.523 1081.51 118.687 1081.7 118.813C1081.9 118.938 1082.12 119.023 1082.35 119.061C1083.21 119.216 1084.2 118.81 1084.46 117.732C1085.32 114.204 1086.1 110.618 1086.87 107.145L1087.4 104.721C1089.39 104.577 1093.79 104.497 1095.91 104.465L1096.25 104.449ZM1101.33 102.212C1101.62 102.188 1101.91 102.222 1102.19 102.313L1102.4 102.375C1102.82 102.512 1103.21 102.721 1103.56 102.992C1105.22 104.137 1106.12 106.534 1105.87 109.096C1105.58 111.99 1103.61 115.09 1100.84 116.991C1099.59 117.85 1098.18 118.455 1096.7 118.774C1097.08 116.649 1097.63 114.516 1098.17 112.524C1099.13 108.986 1100.19 105.517 1101.33 102.212Z" fill="#D8254E"/>
<path d="M1081.9 134.234C1082.05 134.389 1082.17 134.578 1082.25 134.787C1082.32 134.984 1082.31 135.2 1082.21 135.388C1082.15 135.532 1082.06 135.66 1081.93 135.761C1081.81 135.863 1081.67 135.935 1081.52 135.974C1081.14 136.063 1080.75 136.014 1080.41 135.835C1080.19 135.74 1079.99 135.617 1079.81 135.469C1079.66 135.352 1079.53 135.218 1079.41 135.071C1079.32 134.95 1079.24 134.822 1079.18 134.687C1079.13 134.597 1079.09 134.505 1079.06 134.41C1079.06 134.393 1079.05 134.378 1079.05 134.364C1079.04 134.337 1079.03 134.316 1079.04 134.301L1078.07 134.666L1078.11 134.824C1078.16 134.957 1078.21 135.086 1078.28 135.209C1078.38 135.387 1078.48 135.558 1078.6 135.721C1078.77 135.932 1078.95 136.122 1079.16 136.287C1079.41 136.487 1079.69 136.655 1079.98 136.785C1080.72 137.121 1081.39 137.198 1081.98 137.017C1082.26 136.931 1082.53 136.783 1082.75 136.584C1082.97 136.384 1083.14 136.138 1083.26 135.863C1083.4 135.566 1083.47 135.239 1083.45 134.91C1083.44 134.631 1083.35 134.36 1083.2 134.125C1083.05 133.893 1082.87 133.678 1082.66 133.485C1082.46 133.283 1082.24 133.091 1082.01 132.912C1081.81 132.749 1081.61 132.574 1081.42 132.389C1081.27 132.233 1081.15 132.044 1081.07 131.835C1081.01 131.638 1081.02 131.424 1081.11 131.237C1081.16 131.121 1081.25 131.019 1081.35 130.94C1081.45 130.861 1081.57 130.806 1081.69 130.781C1082.01 130.707 1082.35 130.749 1082.64 130.899C1082.8 130.972 1082.96 131.065 1083.1 131.178C1083.21 131.267 1083.31 131.369 1083.41 131.482C1083.48 131.574 1083.54 131.672 1083.59 131.774C1083.63 131.841 1083.66 131.911 1083.69 131.984C1083.69 132.014 1083.7 132.042 1083.71 132.071L1084.69 131.703L1084.65 131.578C1084.62 131.463 1084.56 131.352 1084.5 131.248C1084.42 131.1 1084.32 130.958 1084.22 130.823C1084.08 130.649 1083.92 130.491 1083.75 130.354C1083.54 130.187 1083.31 130.047 1083.07 129.94C1082.4 129.637 1081.79 129.569 1081.24 129.738C1080.98 129.81 1080.74 129.94 1080.54 130.117C1080.33 130.294 1080.17 130.514 1080.06 130.76C1079.92 131.057 1079.85 131.385 1079.87 131.714C1079.88 131.993 1079.97 132.262 1080.12 132.497C1080.28 132.729 1080.46 132.945 1080.66 133.14C1080.86 133.342 1081.08 133.533 1081.31 133.712C1081.51 133.875 1081.71 134.049 1081.9 134.234Z" fill="#D8254E"/>
<path d="M1091.32 132.321L1091.13 133.343L1088.97 132.931L1087.8 139.081L1086.67 138.865L1087.85 132.714L1085.7 132.304L1085.89 131.282L1091.32 132.321Z" fill="#D8254E"/>
<path d="M1098.54 136.985C1098.47 137.235 1098.35 137.468 1098.18 137.67C1098.03 137.874 1097.84 138.044 1097.62 138.171C1097.4 138.298 1097.16 138.379 1096.9 138.408C1096.65 138.437 1096.4 138.415 1096.15 138.342C1095.91 138.269 1095.68 138.147 1095.49 137.984C1095.29 137.824 1095.12 137.624 1094.99 137.397C1094.86 137.17 1094.79 136.92 1094.76 136.661L1094.26 132.299L1093.11 132.431L1093.61 136.789C1093.65 137.186 1093.78 137.571 1093.97 137.919C1094.17 138.267 1094.44 138.571 1094.76 138.811C1095.4 139.31 1096.21 139.537 1097.02 139.443C1097.83 139.35 1098.58 138.943 1099.09 138.311C1099.35 138.004 1099.53 137.648 1099.65 137.265C1099.76 136.882 1099.79 136.48 1099.74 136.084L1099.23 131.726L1098.09 131.86L1098.59 136.216C1098.62 136.474 1098.61 136.735 1098.54 136.985Z" fill="#D8254E"/>
<path fill-rule="evenodd" clip-rule="evenodd" d="M1103.25 130.166C1103.69 129.958 1104.17 129.841 1104.66 129.823C1105.14 129.805 1105.63 129.886 1106.08 130.061C1106.53 130.221 1106.95 130.471 1107.3 130.796C1107.66 131.12 1107.94 131.512 1108.14 131.949C1108.34 132.386 1108.45 132.859 1108.47 133.339C1108.48 133.819 1108.4 134.297 1108.22 134.744C1108.06 135.201 1107.8 135.619 1107.47 135.974C1107.14 136.329 1106.74 136.613 1106.29 136.808L1103.97 137.872L1100.93 131.23L1103.25 130.166ZM1102.4 131.703L1104.58 136.447L1105.86 135.86C1106.17 135.725 1106.45 135.527 1106.68 135.279C1106.9 135.031 1107.08 134.738 1107.19 134.419C1107.42 133.768 1107.38 133.053 1107.1 132.425C1106.81 131.798 1106.29 131.306 1105.65 131.052C1105.33 130.926 1105 130.867 1104.66 130.878C1104.32 130.889 1103.99 130.97 1103.69 131.116L1102.4 131.703Z" fill="#D8254E"/>
<path d="M1108.8 126.797L1107.89 127.495L1112.34 133.295L1113.25 132.597L1108.8 126.797Z" fill="#D8254E"/>
<path fill-rule="evenodd" clip-rule="evenodd" d="M1111.71 125.696C1111.63 124.677 1111.94 123.666 1112.57 122.868C1113.21 122.07 1114.13 121.546 1115.14 121.402C1115.63 121.346 1116.13 121.387 1116.61 121.524C1117.09 121.661 1117.53 121.891 1117.92 122.201C1118.3 122.51 1118.63 122.894 1118.86 123.328C1119.1 123.763 1119.25 124.24 1119.31 124.733C1119.39 125.751 1119.08 126.763 1118.44 127.56C1117.8 128.358 1116.88 128.883 1115.87 129.027C1115.38 129.083 1114.88 129.042 1114.4 128.905C1113.93 128.768 1113.48 128.538 1113.09 128.228C1112.71 127.919 1112.39 127.536 1112.15 127.101C1111.91 126.666 1111.76 126.189 1111.71 125.696ZM1115.81 127.921C1116.44 127.856 1117.03 127.574 1117.48 127.122C1117.93 126.671 1118.2 126.077 1118.26 125.444C1118.32 124.811 1118.16 124.177 1117.8 123.65C1117.44 123.124 1116.91 122.737 1116.3 122.557C1115.69 122.377 1115.04 122.415 1114.46 122.663C1113.87 122.911 1113.39 123.355 1113.09 123.919C1112.8 124.483 1112.71 125.131 1112.84 125.754C1112.97 126.376 1113.31 126.934 1113.81 127.332C1114.09 127.561 1114.4 127.731 1114.75 127.833C1115.09 127.934 1115.45 127.964 1115.81 127.921Z" fill="#D8254E"/>
</g>
<path d="M1039.52 19.0744L1000.58 0.254806L1009.58 -10.5782L1039.52 19.0744Z" fill="#DB284E"/>
<path d="M1042.82 13.5147L1024.36 -12.5548L1034.08 -16.3556L1042.82 13.5147Z" fill="#DB284E"/>
<path d="M1035.42 24.9178L1010.9 25.9559L1012.48 18.1367L1035.42 24.9178Z" fill="#DB284E"/>
<path d="M1267 16.3771C1255.97 16.3771 1246.93 8.07256 1246.93 -3.00011C1246.93 2.30422 1244.83 7.3913 1241.09 11.142C1237.36 14.8928 1232.29 16.9999 1227 16.9999C1232.29 16.9999 1237.36 19.107 1241.09 22.8578C1244.83 26.6085 1246.93 31.6956 1246.93 36.9999C1246.93 25.9411 1255.98 16.3771 1267 16.3771Z" fill="#E66983"/>
<path d="M1219.67 21.5185C1218.8 21.5385 1217.93 21.3862 1217.12 21.0703C1216.32 20.7545 1215.58 20.2814 1214.95 19.6786C1214.33 19.0758 1213.83 18.3552 1213.49 17.5587C1213.14 16.7622 1212.96 15.9057 1212.95 15.0388C1212.95 15.9183 1212.78 16.7892 1212.44 17.6018C1212.11 18.4143 1211.61 19.1526 1210.99 19.7745C1210.37 20.3965 1209.63 20.8898 1208.81 21.2264C1208 21.5629 1207.12 21.7362 1206.24 21.7362C1208.02 21.7362 1209.73 22.4418 1210.99 23.6978C1212.25 24.9538 1212.95 26.6573 1212.95 28.4335C1212.94 26.6341 1213.64 24.9026 1214.9 23.61C1216.15 22.3174 1217.86 21.5666 1219.67 21.5185Z" fill="#E66983"/>
<path d="M1282.77 32.52C1281.32 32.5601 1279.88 32.3117 1278.53 31.7892C1277.17 31.2668 1275.94 30.4807 1274.9 29.477C1273.85 28.4733 1273.02 27.2719 1272.44 25.9431C1271.87 24.6142 1271.56 23.1845 1271.55 21.7372C1271.54 24.6918 1270.36 27.5238 1268.27 29.6115C1266.17 31.6991 1263.33 32.8716 1260.37 32.8716C1263.33 32.8716 1266.17 34.0442 1268.27 36.1318C1270.36 38.2194 1271.54 41.0514 1271.55 44.006C1271.54 41.0071 1272.71 38.1255 1274.81 35.9785C1276.91 33.8316 1279.77 32.5901 1282.77 32.52Z" fill="#E66983"/>
<path d="M951.084 237.142C968.015 237.142 981.909 249.95 981.892 266.844C981.899 262.825 982.699 258.846 984.247 255.135C985.794 251.424 988.059 248.054 990.912 245.217C993.765 242.379 997.151 240.13 1000.87 238.598C1004.6 237.066 1008.59 236.281 1012.62 236.288C1008.59 236.283 1004.6 235.487 1000.88 233.943C997.156 232.4 993.776 230.14 990.931 227.293C988.086 224.446 985.83 221.068 984.294 217.351C982.757 213.634 981.97 209.651 981.976 205.63C981.96 222.541 967.965 237.158 951.084 237.142Z" fill="#E66983"/>
<path d="M967.309 183.528C968.408 183.499 969.501 183.689 970.526 184.087C971.55 184.484 972.485 185.082 973.276 185.844C974.066 186.606 974.697 187.518 975.13 188.526C975.563 189.534 975.791 190.619 975.799 191.716C975.799 190.608 976.02 189.511 976.448 188.488C976.875 187.466 977.502 186.539 978.292 185.76C979.082 184.981 980.019 184.367 981.048 183.952C982.078 183.537 983.18 183.331 984.29 183.344C982.056 183.317 979.922 182.413 978.351 180.827C976.781 179.241 975.9 177.101 975.9 174.872C975.883 177.148 974.975 179.327 973.37 180.944C971.765 182.562 969.589 183.489 967.309 183.528Z" fill="#E66983"/>
<path d="M932.285 211.171C934.121 211.125 935.947 211.443 937.658 212.108C939.368 212.773 940.929 213.771 942.249 215.045C943.569 216.318 944.621 217.841 945.345 219.525C946.069 221.208 946.449 223.019 946.464 224.851C946.467 223 946.834 221.168 947.547 219.459C948.259 217.751 949.302 216.199 950.616 214.893C951.929 213.586 953.488 212.551 955.203 211.847C956.918 211.142 958.756 210.782 960.61 210.786C958.756 210.784 956.919 210.417 955.207 209.706C953.495 208.996 951.939 207.955 950.63 206.644C949.321 205.333 948.284 203.778 947.578 202.067C946.872 200.355 946.51 198.522 946.515 196.671C946.507 200.463 945.015 204.101 942.356 206.81C939.698 209.519 936.084 211.084 932.285 211.171Z" fill="#E66983"/>
<path d="M931.653 229.582C990.099 229.582 1037.48 182.203 1037.48 123.757C1037.48 65.3115 990.099 17.932 931.653 17.932C873.208 17.932 825.828 65.3115 825.828 123.757C825.828 182.203 873.208 229.582 931.653 229.582Z" fill="#FCEFF2"/>
<path d="M968.547 100.831C989.195 112.977 1015.01 112.066 1034.59 98.2495C1033.83 95.213 1032.77 92.3282 1031.86 89.4434C1009.09 107.207 976.29 103.26 958.526 80.6373C945.165 63.6325 943.647 40.2508 954.578 21.7276C954.882 21.2721 955.186 20.8166 955.489 20.3611C952.453 19.602 949.416 18.9947 946.38 18.3873C930.134 47.3867 940.003 83.9776 968.547 100.831Z" fill="#EB92A7"/>
<path d="M975.834 88.5323C992.99 98.5531 1014.55 96.7311 1029.73 83.9775C1028.52 81.2445 1027.3 78.3598 1025.79 75.6268C1010.75 90.2025 986.614 89.747 972.19 74.564C959.132 60.8994 958.07 39.6433 969.609 24.764C966.724 23.5494 963.839 22.6384 960.954 21.7275C960.347 22.6384 959.74 23.3976 959.284 24.4604C946.227 46.7793 953.515 75.475 975.834 88.5323Z" fill="#EB92A7"/>
<path d="M983.58 75.3231C996.182 82.7627 1012.28 80.4853 1022.3 69.8572C1020.78 67.2761 1019.11 64.695 1017.29 62.2658C1009.69 72.1347 995.422 73.8048 985.705 66.2133C976.747 59.2292 974.318 46.7792 980.239 36.9103C981.302 35.0883 982.517 33.57 984.035 32.0517C981.454 30.5334 978.721 29.0151 975.988 27.8005C964.601 40.8578 965.968 60.5956 979.025 71.831C980.391 73.1975 981.91 74.4121 983.58 75.3231Z" fill="#EB92A7"/>
<path d="M867.883 189.803C867.883 189.803 853.915 182.818 839.187 182.97C835.543 182.97 832.659 185.855 832.507 189.499C832.507 193.143 835.392 196.179 839.035 196.331C839.339 196.331 839.643 196.331 839.946 196.331C849.208 195.117 863.935 193.598 867.124 195.268L867.883 189.803Z" fill="#A4CFCE"/>
<path d="M867.582 193.447C867.43 193.447 867.43 193.447 867.278 193.447C857.713 190.866 847.692 189.955 837.823 190.41C837.216 190.562 836.76 190.107 836.609 189.499C836.457 188.892 836.912 188.437 837.52 188.285H837.671C847.844 187.677 858.016 188.74 867.885 191.321C868.493 191.473 868.796 192.08 868.645 192.536C868.493 192.991 868.037 193.295 867.582 193.447Z" fill="#BFE1D7"/>
<path d="M839.189 194.51C839.037 194.51 838.885 194.51 838.733 194.358C838.126 194.054 837.974 193.447 838.126 192.991L839.948 188.74C840.252 188.133 840.859 187.981 841.314 188.133C841.77 188.285 842.074 189.044 841.922 189.499L840.1 193.751C840.1 194.206 839.644 194.51 839.189 194.51Z" fill="#BFE1D7"/>
<path d="M846.477 190.258C846.021 190.258 845.718 190.107 845.566 189.651L843.289 185.248C842.985 184.793 843.137 184.033 843.744 183.882C844.2 183.578 844.959 183.882 845.11 184.337L847.388 188.74C847.692 189.196 847.54 189.955 846.932 190.107C846.781 190.258 846.629 190.258 846.477 190.258Z" fill="#BFE1D7"/>
<path d="M849.513 194.358C849.361 194.358 849.058 194.358 848.906 194.206C848.45 193.902 848.299 193.295 848.602 192.687L851.183 188.892C851.487 188.436 852.094 188.284 852.55 188.588C852.55 188.588 852.55 188.588 852.702 188.588C853.157 188.892 853.309 189.651 853.005 190.106L850.424 193.902C850.272 194.357 849.817 194.509 849.513 194.358Z" fill="#BFE1D7"/>
<path d="M875.474 193.75C875.474 193.75 848.752 188.588 828.407 172.798C823.397 169.002 822.486 161.866 826.129 156.704C829.925 151.542 837.213 150.327 842.375 154.123C842.831 154.427 843.286 154.882 843.59 155.186C855.129 166.573 873.956 184.185 880.029 185.096L875.474 193.75Z" fill="#49A09D"/>
<path d="M877.45 191.169C877.298 191.169 877.146 191.169 877.146 191.169C865.303 186.918 854.372 180.997 844.351 173.405C840.403 170.521 836.911 167.18 833.571 163.536C833.115 163.081 833.267 162.474 833.723 162.018C834.178 161.563 834.786 161.714 835.241 162.17C835.393 162.322 849.209 178.719 877.753 189.044C878.361 189.196 878.512 189.955 878.361 190.41C878.209 190.866 877.905 191.169 877.45 191.169Z" fill="#BFE1D7"/>
<path d="M842.527 171.735C841.92 171.735 841.464 171.28 841.464 170.824L840.705 162.018C840.705 161.411 841.161 160.955 841.768 160.955C842.223 160.955 842.679 161.259 842.831 161.866L843.59 170.673C843.59 171.128 843.134 171.735 842.527 171.735Z" fill="#BFE1D7"/>
<path d="M841.314 178.415C840.859 178.415 840.403 178.112 840.252 177.656C840.1 177.049 840.403 176.593 841.011 176.442L848.45 174.62C849.058 174.468 849.513 174.771 849.665 175.379C849.817 175.986 849.513 176.442 848.906 176.593L841.466 178.415C841.618 178.415 841.466 178.415 841.314 178.415Z" fill="#BFE1D7"/>
<path d="M853.763 179.023C853.308 179.023 852.852 178.719 852.7 178.264L850.271 170.065C850.119 169.458 850.575 169.002 851.03 168.85C851.486 168.698 852.093 169.002 852.245 169.458L854.674 177.656C854.826 178.264 854.522 178.719 854.067 179.023C853.915 179.023 853.763 179.023 853.763 179.023Z" fill="#BFE1D7"/>
<path d="M876.995 193.75C876.995 193.75 853.461 173.405 842.226 146.076C839.493 139.396 842.529 131.652 849.21 128.768C855.89 125.731 863.786 128.919 866.822 135.6C867.126 136.207 867.278 136.814 867.429 137.422C872.44 155.338 881.094 183.578 886.712 188.133L876.995 193.75Z" fill="#1B8884"/>
<path d="M881.397 192.232C881.094 192.232 880.79 192.08 880.638 191.777C861.508 167.939 851.791 139.092 851.791 138.788C851.639 138.181 852.094 137.573 852.55 137.573C853.005 137.422 853.461 137.725 853.764 138.181C853.916 138.484 863.481 166.877 882.308 190.562C882.612 191.017 882.612 191.625 882.156 192.08C881.853 192.08 881.701 192.232 881.397 192.232Z" fill="#BFE1D7"/>
<path d="M863.178 163.536L853.765 162.777C853.157 162.777 852.702 162.169 852.854 161.562C852.854 160.955 853.461 160.499 854.068 160.651L863.33 161.41C863.937 161.41 864.393 161.866 864.393 162.473C864.241 163.08 863.785 163.536 863.178 163.536Z" fill="#BFE1D7"/>
<path d="M855.89 147.898C855.738 147.898 855.435 147.898 855.283 147.746C854.827 147.442 854.676 146.835 854.979 146.379C854.979 146.379 854.979 146.379 854.979 146.227L859.99 138.484C860.293 138.029 860.901 137.877 861.508 138.181C861.963 138.484 862.115 139.092 861.812 139.699L856.801 147.442C856.498 147.594 856.194 147.746 855.89 147.898Z" fill="#BFE1D7"/>
<path d="M857.711 152.452L848.905 151.086C848.298 150.934 847.994 150.479 847.994 149.871C847.994 149.264 848.601 148.96 849.209 148.96L858.015 150.327C858.622 150.479 858.926 150.934 858.926 151.541C858.622 151.997 858.167 152.452 857.711 152.452Z" fill="#BFE1D7"/>
<path d="M860.747 157.615C860.595 157.615 860.291 157.615 860.139 157.463C859.684 157.16 859.532 156.552 859.836 156.097C859.836 156.097 859.836 156.097 859.836 155.945L864.998 148.202C865.302 147.746 865.909 147.594 866.516 147.898C866.972 148.202 867.124 148.809 866.82 149.416L861.658 157.16C861.506 157.463 861.202 157.615 860.747 157.615Z" fill="#BFE1D7"/>
<path d="M981.756 178.567C981.756 178.567 1009.84 191.017 1039 189.651C1046.13 189.347 1051.75 183.274 1051.6 176.138C1051.45 168.85 1045.52 163.08 1038.24 163.232C1037.63 163.232 1036.87 163.232 1036.26 163.384C1018.19 166.421 989.195 170.672 982.819 167.635L981.756 178.567Z" fill="#49A09D"/>
<path d="M1018.2 179.782C1005.9 179.782 993.751 178.112 982.061 174.923C981.453 174.771 981.15 174.164 981.301 173.709C981.453 173.253 982.061 172.798 982.516 172.949C1015.77 181.907 1039.3 175.682 1039.6 175.682C1040.21 175.53 1040.67 175.986 1040.82 176.593C1040.82 177.049 1040.67 177.504 1040.21 177.808C1034.9 179.023 1029.43 179.782 1023.81 179.934C1022.14 179.782 1020.17 179.782 1018.2 179.782Z" fill="#BFE1D7"/>
<path d="M1027.46 179.479C1027.15 179.479 1027 179.327 1026.85 179.175C1026.39 178.72 1026.39 178.112 1026.7 177.657L1033.07 170.065C1033.38 169.61 1034.14 169.458 1034.59 169.913C1035.05 170.369 1035.05 170.976 1034.74 171.432L1028.37 179.023C1028.06 179.327 1027.76 179.479 1027.46 179.479Z" fill="#BFE1D7"/>
<path d="M1024.12 186.311C1023.81 186.311 1023.51 186.159 1023.36 186.007L1017.59 179.478C1017.28 179.023 1017.44 178.264 1018.04 177.96C1018.35 177.808 1018.8 177.808 1019.11 177.96L1024.88 184.489C1025.33 184.944 1025.18 185.552 1024.72 186.007C1024.57 186.311 1024.27 186.311 1024.12 186.311Z" fill="#BFE1D7"/>
<path d="M1012.27 179.023C1011.97 179.023 1011.67 178.871 1011.52 178.567C1011.06 178.112 1011.21 177.505 1011.67 177.049L1019.26 170.976C1019.71 170.672 1020.32 170.672 1020.78 171.128C1021.08 171.583 1021.08 172.191 1020.63 172.646L1013.03 178.719C1012.73 178.871 1012.43 179.023 1012.27 179.023Z" fill="#BFE1D7"/>
<path d="M975.378 177.657C975.378 177.657 1010.6 173.861 1038.69 155.793C1045.52 151.39 1047.65 142.28 1043.55 135.144C1039.15 128.008 1029.88 125.731 1022.75 130.134C1022.14 130.438 1021.53 130.893 1021.08 131.349C1004.83 144.71 978.414 165.51 970.367 166.118L975.378 177.657Z" fill="#1B8884"/>
<path d="M972.95 173.405C972.342 173.405 971.887 172.949 971.887 172.342C971.887 171.887 972.19 171.583 972.646 171.431C1005.44 161.714 1032.92 141.369 1033.07 141.217C1033.53 140.913 1034.14 140.913 1034.59 141.369C1035.05 141.824 1034.9 142.432 1034.44 142.887C1034.14 143.039 1006.5 163.536 973.253 173.405C973.101 173.253 973.101 173.253 972.95 173.405Z" fill="#BFE1D7"/>
<path d="M1017.59 163.688C1017.43 163.688 1017.28 163.688 1016.98 163.536L1007.87 158.222C1007.41 157.919 1007.11 157.311 1007.41 156.856C1007.41 156.856 1007.41 156.856 1007.41 156.704C1007.72 156.248 1008.33 155.945 1008.78 156.248C1008.78 156.248 1008.78 156.248 1008.93 156.248L1018.04 161.562C1018.5 161.866 1018.8 162.473 1018.5 162.929C1018.5 162.929 1018.5 162.929 1018.5 163.081C1018.5 163.536 1018.04 163.84 1017.59 163.688Z" fill="#BFE1D7"/>
<path d="M1025.48 148.657C1024.88 148.657 1024.42 148.202 1024.42 147.594L1024.72 137.118C1024.72 136.511 1025.18 136.055 1025.79 136.055C1026.39 136.055 1026.85 136.511 1026.85 137.118L1026.55 147.594C1026.55 148.05 1026.09 148.657 1025.48 148.657Z" fill="#BFE1D7"/>
<path d="M1029.73 156.097C1029.58 156.097 1029.43 156.097 1029.28 155.945L1020.32 151.542C1019.86 151.238 1019.71 150.631 1020.02 150.023C1020.32 149.568 1020.78 149.416 1021.38 149.568L1030.34 153.971C1030.8 154.275 1031.1 154.882 1030.8 155.337C1030.49 155.945 1030.19 156.097 1029.73 156.097Z" fill="#BFE1D7"/>
<path d="M1014.55 154.578C1013.94 154.578 1013.49 154.123 1013.49 153.516L1013.79 143.039C1013.79 142.432 1014.25 141.977 1014.85 141.977C1015.46 141.977 1015.92 142.432 1015.92 143.039L1015.61 153.516C1015.61 153.971 1015.16 154.427 1014.55 154.578Z" fill="#BFE1D7"/>
<path d="M1001.64 231.556L869.249 230.797C849.663 208.174 847.537 178.264 873.804 152.756C877.144 149.568 883.369 147.291 890.201 145.62C899.007 143.798 908.117 142.584 917.075 141.977C921.478 138.484 925.425 134.689 929.069 130.438C943.038 113.584 955.032 115.103 955.032 115.103C969.304 112.37 981.45 111.611 990.408 116.621C998.759 121.328 1004.38 131.045 1006.35 148.809C1006.81 152.149 1006.96 155.793 1007.11 159.741C1007.57 174.164 1010.3 186.918 1011.97 197.85C1014.55 213.64 1014.55 225.179 1001.64 231.556Z" fill="#971937"/>
<g opacity="0.1">
<path d="M986.006 136.814C977.351 141.521 973.708 154.882 960.195 158.83C946.682 162.777 923.756 162.322 910.547 176.442C897.945 190.107 884.128 155.338 890.201 145.621C899.008 143.799 908.117 142.584 917.075 141.977C921.478 138.485 925.426 134.689 929.07 130.438C943.038 113.585 955.033 115.103 955.033 115.103C969.305 112.37 981.451 111.611 990.409 116.621C995.116 121.632 994.66 132.26 986.006 136.814Z" fill="black"/>
</g>
<g opacity="0.1">
<path d="M1010.3 186.007C1010.3 186.007 965.813 255.545 854.522 189.347C854.371 191.624 854.219 193.902 854.371 196.179C854.371 196.179 887.317 236.718 948.201 228.367C948.201 228.367 985.247 224.268 1011.51 193.295L1010.3 186.007Z" fill="black"/>
</g>
<path d="M923.756 141.065C923.756 141.065 856.04 137.422 858.925 162.321C861.809 187.221 867.427 219.865 867.427 219.865C867.427 219.865 878.814 220.168 880.181 214.095C881.547 208.022 870.008 167.636 915.557 160.803C961.106 153.971 923.756 141.065 923.756 141.065Z" fill="#3F3F3F"/>
<path d="M928.768 105.993C925.276 120.72 915.407 133.17 901.895 140.154L905.235 142.128C905.235 142.128 925.58 142.432 942.129 116.014L928.768 105.993Z" fill="#F2AA91"/>
<path d="M946.53 97.6424C945.468 96.4278 962.169 91.4174 965.661 105.082C965.661 105.082 996.482 97.0351 977.504 83.2186C970.975 78.5119 970.368 73.3497 969.457 68.7949C968.546 64.24 962.017 50.879 950.63 57.4077C947.593 57.4077 944.557 58.4705 942.127 60.2924C934.84 66.6692 926.641 107.663 946.53 97.6424Z" fill="#1E1C1F"/>
<path d="M971.279 95.0611C962.017 91.4172 951.997 90.3544 942.128 91.8727C938.484 92.1764 935.295 94.302 933.322 97.3386C929.981 102.956 928.463 105.841 928.463 105.841C928.463 105.841 928.767 108.422 933.322 110.396C932.107 114.951 934.384 122.998 932.259 126.186C930.133 129.375 916.317 137.118 915.709 141.369C914.495 149.264 939.091 163.688 946.379 162.17C967.483 157.767 982.059 101.134 971.279 95.0611Z" fill="#DB284E"/>
<path d="M964.145 78.8155C965.663 75.9307 966.574 72.8941 967.029 69.7057C967.333 66.8209 964.904 56.1929 954.276 58.774C952.15 59.2295 950.176 60.2923 948.506 61.6588C946.381 63.4807 943.344 67.1246 947.899 76.0825L949.113 79.1191L964.145 78.8155Z" fill="#1E1C1F"/>
<path d="M969.457 120.72C969.457 120.72 974.012 135.903 955.945 136.814L951.693 141.065C951.693 141.065 970.217 151.238 980.085 137.118C987.829 125.731 982.059 112.066 982.059 112.066L969.457 120.72Z" fill="#F2AA91"/>
<path d="M906.298 142.129C905.691 142.584 905.083 143.04 904.476 143.647C903.413 144.71 902.047 145.317 900.528 145.469C899.314 145.621 898.099 145.772 896.884 145.621H896.733C896.581 145.469 896.733 145.317 896.884 145.165C897.492 144.71 898.251 144.406 899.162 144.406C898.403 144.406 897.795 144.102 897.188 144.102C896.581 144.102 894.455 144.861 893.696 144.861C891.874 145.165 889.9 144.861 888.382 143.647C887.927 143.343 888.078 143.191 888.686 142.888C889.293 142.584 889.597 142.432 890.052 142.129C891.874 141.218 893.696 140.61 895.822 140.307C897.188 140.003 898.555 139.851 899.921 139.699C900.68 139.699 902.198 139.547 902.806 139.699C903.413 139.851 903.261 140.762 903.717 141.066C904.172 141.369 905.842 141.825 906.298 142.129Z" fill="#F2AA91"/>
<path d="M969.761 94.4539C970.065 94.4539 974.923 96.1241 978.415 102.956C981.907 109.789 983.122 112.977 983.122 112.977C983.122 112.977 967.939 124.668 961.866 120.417C955.793 116.166 964.143 94.3021 969.761 94.4539Z" fill="#DB284E"/>
<path d="M955.946 136.814C954.427 136.359 953.061 135.6 951.695 134.841C950.632 133.93 944.559 133.17 944.559 133.778C944.559 134.385 948.051 135.296 948.506 135.903C948.962 136.511 950.935 139.092 952.757 139.092C954.579 139.092 955.946 136.814 955.946 136.814Z" fill="#F2AA91"/>
<path d="M946.229 125.579L951.391 141.977L939.245 140.458L934.234 124.365L946.229 125.579Z" fill="black"/>
<path d="M951.088 141.218L951.544 140.307L946.685 124.365L946.229 125.579L951.088 141.218Z" fill="#424242"/>
<path d="M946.684 124.364L935.753 123.453L934.234 124.364L946.229 125.579L946.684 124.364Z" fill="#424242"/>
<path d="M951.542 141.065C949.568 141.065 947.594 141.065 945.62 140.762C944.406 140.458 941.369 136.662 942.28 135.751C942.736 135.144 945.62 136.207 946.987 136.207C948.353 136.207 951.845 134.233 954.275 138.332C954.427 138.788 951.542 141.065 951.542 141.065Z" fill="#F2AA91"/>
<path d="M941.522 68.7951C941.522 68.7951 939.852 83.3707 943.495 88.6847C947.139 93.9987 951.542 88.2292 951.542 88.2292L951.087 94.606C954.427 96.1243 958.375 95.9725 961.563 94.3024C961.563 94.3024 956.856 91.2658 958.223 81.0932C958.223 81.0932 963.233 78.0566 959.438 74.2609C955.642 70.4652 956.401 76.5384 956.401 76.5384C956.401 76.5384 953.364 57.256 941.522 68.7951Z" fill="#F2AA91"/>
<g opacity="0.1">
<path d="M933.324 111.003H933.172C933.02 110.851 932.868 110.699 933.02 110.396L935.601 104.323C935.753 104.171 935.905 104.019 936.208 104.171C936.36 104.323 936.512 104.474 936.512 104.778L933.931 110.851C933.627 111.003 933.627 111.003 933.324 111.003Z" fill="black"/>
</g>
<g opacity="0.1">
<path d="M970.67 120.265L969.456 120.721L964.142 107.967" fill="#4EA785"/>
<path d="M969.153 121.176L963.839 108.119C963.687 107.967 963.839 107.663 964.143 107.511C964.294 107.36 964.598 107.511 964.75 107.815L969.76 120.113L970.671 119.81C970.823 119.81 971.127 119.81 971.127 120.113C971.278 120.265 971.127 120.569 970.823 120.569L969.153 121.176Z" fill="black"/>
</g>
<path d="M918.898 145.773C918.898 145.773 878.815 138.181 871.376 178.416C863.936 218.651 858.926 231.708 858.926 231.708C858.926 231.708 862.418 235.504 869.402 231.86C876.386 228.216 898.857 179.175 901.893 172.039C904.93 164.903 940.154 183.123 949.568 161.107L918.898 145.773Z" fill="#6C6D6D"/>
<path d="M973.709 150.175C973.709 150.175 968.851 153.971 950.935 154.579C933.019 155.186 909.789 174.772 909.637 180.238C909.485 185.704 945.469 194.358 946.076 193.599C946.684 192.839 969.002 173.709 969.002 173.709L973.709 150.175Z" fill="#971937"/>
<path d="M996.028 88.6845L1039 77.7528C1039.45 77.601 1039.76 77.9047 1039.91 78.3601L1047.19 107.056C1047.35 107.511 1047.04 107.815 1046.59 107.967L1003.62 118.899C1003.16 119.05 1002.86 118.747 1002.71 118.291L995.421 89.5955C995.421 89.14 995.725 88.6845 996.028 88.6845Z" fill="#E0AC69"/>
<path d="M1008.83 84.8471L1046.99 75.1301C1047.92 74.8216 1048.84 75.4386 1049 76.364L1055.92 103.664C1056.23 104.589 1055.61 105.515 1054.69 105.669L1017.14 115.232C1016.21 115.386 1015.44 114.923 1015.14 113.998L1008.06 85.9267C1008.06 85.6182 1008.36 85.0013 1008.83 84.8471Z" fill="#F7CD97"/>
<path d="M1004.22 86.5683L999.067 87.8771L999.815 90.8202L1004.97 89.5114L1004.22 86.5683Z" fill="#F1C27D"/>
<path d="M1011.04 113.609L1005.88 114.918L1006.67 118.008L1011.82 116.7L1011.04 113.609Z" fill="#F1C27D"/>
<path d="M873.029 108.612L881.762 104.198C883.28 103.65 884.836 104.258 885.494 105.493L895.527 125.712C896.131 127.088 895.665 128.699 894.288 129.302L885.5 133.857C884.124 134.461 882.513 133.994 881.909 132.618L871.876 112.399C871.131 110.967 871.739 109.412 873.029 108.612Z" fill="#DB284E"/>
<path d="M872.362 102.809L877.193 100.458C878.231 99.8854 879.504 100.383 879.935 101.366L881.111 103.781L872.575 108.108L871.313 105.496C870.882 104.513 871.238 103.185 872.362 102.809Z" fill="#F3BDCA"/>
<path d="M883.99 106.96L874.071 111.906L883.558 130.928L893.477 125.982L883.99 106.96Z" fill="#EB92A7"/>
<path d="M989.883 42.4518L989.11 44.9147L1006.35 50.3206L1007.12 47.8577L989.883 42.4518Z" fill="#DB284E"/>
<path d="M991.017 43.5918L1005.29 47.9948C1007.11 48.6022 1008.17 50.5759 1007.57 52.3979L1006.05 57.1046C1005.44 58.9265 1003.47 59.9894 1001.64 59.382L987.373 54.979C985.551 54.3717 984.488 52.3979 985.095 50.5759L986.614 45.8692C987.221 44.0473 989.195 42.9845 991.017 43.5918Z" fill="#DB284E"/>
<path d="M990.408 42.6804L1006.81 47.8426C1007.72 45.2615 1006.35 42.5285 1003.77 41.6176C1003.16 41.4657 1002.55 41.3139 1001.95 41.3139C992.838 40.7066 994.811 36.3035 994.811 36.3035C992.078 36.6072 989.953 39.0365 990.256 41.7694C990.256 42.073 990.256 42.3767 990.408 42.6804Z" fill="#F3BDCA"/>
<path d="M989.801 46.324L1004.68 51.0307C1005.29 51.1826 1005.74 51.9417 1005.44 52.549L1004.38 55.8893C1004.22 56.4966 1003.47 56.9521 1002.86 56.6484L987.979 51.9417C987.372 51.7899 986.916 51.0307 987.22 50.4234L988.283 47.0832C988.434 46.4759 989.193 46.1722 989.801 46.324Z" fill="#EB92A7"/>
<g opacity="0.1">
<path d="M918.718 94.7549V101.132C918.718 101.284 918.566 101.435 918.414 101.435H918.263L907.786 94.7549H817.6C815.019 94.7549 813.045 92.6293 813.197 90.0482V42.3738C813.045 39.7927 815.019 37.6671 817.6 37.6671H918.718C921.147 37.8189 923.121 39.9446 923.121 42.3738V90.0482C923.121 92.4775 921.147 94.6031 918.718 94.7549Z" fill="black"/>
</g>
<path d="M921.601 90.5037V97.0323C921.601 97.1842 921.45 97.336 921.298 97.336C921.146 97.336 921.146 97.336 921.146 97.336L910.822 90.3518H821.242C818.661 90.2 816.839 88.0744 816.839 85.6451V36.6043C816.687 34.0232 818.661 31.8976 821.09 31.7457H921.601C924.183 31.8976 926.005 34.0232 926.005 36.4524V85.3415C926.156 88.0744 924.183 90.2 921.601 90.5037C921.601 90.3518 921.601 90.3518 921.601 90.5037Z" fill="white"/>
<path d="M827.012 68.6402H911.126C912.34 68.6402 913.251 69.5512 913.251 70.7658V81.6975C913.251 82.9122 912.34 83.8231 911.126 83.8231H827.012C825.798 83.8231 824.887 82.9122 824.887 81.6975V70.7658C824.887 69.5512 825.798 68.6402 827.012 68.6402Z" fill="#DB284E"/>
<path d="M833.694 39.7928H856.468C857.683 39.7928 858.594 40.7038 858.594 41.9184V60.7452C858.594 61.9599 857.683 62.8708 856.468 62.8708H833.694C832.479 62.8708 831.568 61.9599 831.568 60.7452V41.9184C831.568 40.7038 832.479 39.7928 833.694 39.7928Z" fill="#E66983"/>
<path d="M851.153 54.3681H840.677L837.792 44.4992H835.666C835.363 44.4992 835.211 44.3474 835.211 44.1956C835.211 44.0437 835.363 43.7401 835.515 43.7401H835.666H838.399L839.158 46.473H853.43L851.153 54.3681ZM841.436 53.609H850.546L852.368 47.384H839.462L841.436 53.609Z" fill="white"/>
<path d="M850.09 57.5569H849.634C849.331 57.5569 849.179 57.405 849.179 57.1014C849.179 56.7977 849.331 56.6459 849.634 56.6459H850.09C850.393 56.6459 850.545 56.7977 850.545 57.1014C850.545 57.405 850.393 57.5569 850.09 57.5569Z" fill="white"/>
<path d="M846.598 57.5569H844.321C844.169 57.5569 843.865 57.405 843.865 57.1014C843.865 56.7977 844.017 56.6459 844.321 56.6459H846.598C846.902 56.6459 847.054 56.7977 847.054 57.1014C847.054 57.405 846.902 57.5569 846.598 57.5569Z" fill="white"/>
<path d="M841.587 57.5569H840.524C839.461 57.4051 838.55 56.4941 838.702 55.4313C838.854 54.5203 839.613 53.7612 840.524 53.6094H850.089C850.393 53.6094 850.545 53.7612 850.545 53.913C850.545 54.0648 850.545 54.3685 850.241 54.3685H850.089H840.524C839.917 54.3685 839.309 54.824 839.309 55.5831C839.309 56.1905 839.765 56.7978 840.524 56.7978H841.587C841.891 56.7978 842.042 56.9496 842.042 57.2533C842.042 57.4051 841.739 57.5569 841.587 57.5569Z" fill="white"/>
<path d="M842.802 58.7711C841.891 58.7711 841.132 58.0119 841.132 57.1009C841.132 56.19 841.891 55.4308 842.802 55.4308C843.713 55.4308 844.472 56.19 844.472 57.1009C844.624 58.0119 843.865 58.7711 842.802 58.7711ZM842.802 56.19C842.346 56.19 841.891 56.4936 841.891 57.1009C841.891 57.5564 842.346 58.0119 842.802 58.0119C843.257 58.0119 843.713 57.5564 843.713 57.1009C843.713 56.6455 843.409 56.19 842.802 56.19Z" fill="white"/>
<path d="M848.115 58.7711C847.204 58.7711 846.445 58.0119 846.445 57.1009C846.445 56.19 847.204 55.4308 848.115 55.4308C849.026 55.4308 849.786 56.19 849.786 57.1009C849.786 58.0119 849.026 58.7711 848.115 58.7711ZM848.115 56.19C847.66 56.19 847.204 56.4936 847.204 56.9491C847.204 57.4046 847.508 57.8601 848.115 57.8601C848.571 57.8601 849.026 57.4046 849.026 56.9491C849.026 56.6455 848.571 56.19 848.115 56.19Z" fill="white"/>
<path d="M843.714 54.3682C843.411 54.3682 843.259 54.2164 843.259 53.9127V46.7767C843.259 46.4731 843.411 46.3212 843.714 46.3212C844.018 46.3212 844.17 46.4731 844.17 46.7767V53.9127C844.17 54.2164 843.866 54.3682 843.714 54.3682Z" fill="white"/>
<path d="M847.813 54.3682C847.661 54.3682 847.357 54.2164 847.357 53.9127V46.7767C847.357 46.4731 847.509 46.3212 847.661 46.3212C847.965 46.3212 848.117 46.4731 848.117 46.6249V46.7767V53.9127C848.268 54.2164 847.965 54.3682 847.813 54.3682Z" fill="white"/>
<path d="M851.912 50.7241H839.917C839.614 50.7241 839.462 50.5723 839.462 50.2686C839.462 50.1168 839.614 49.8131 839.917 49.8131H851.912C852.064 49.8131 852.367 49.965 852.367 50.2686C852.367 50.4204 852.216 50.7241 851.912 50.7241Z" fill="white"/>
<path d="M911.125 41.7668H862.995V46.4735H911.125V41.7668Z" fill="#EB92A7"/>
<path d="M897.157 50.2685H862.995V51.9386H897.157V50.2685Z" fill="#EB92A7"/>
<path d="M897.157 54.6719H862.995V56.342H897.157V54.6719Z" fill="#EB92A7"/>
<path d="M897.157 59.0753H862.995V60.7454H897.157V59.0753Z" fill="#EB92A7"/>
<path d="M845.234 74.4912H846.677V74.9288H844.696V70.8064H845.234V74.4912ZM850.206 73.184C850.206 73.2866 850.2 73.395 850.188 73.5093H847.598C847.617 73.8287 847.726 74.0791 847.923 74.2605C848.124 74.4379 848.366 74.5267 848.65 74.5267C848.883 74.5267 849.076 74.4734 849.23 74.367C849.388 74.2566 849.498 74.1107 849.561 73.9293H850.141C850.054 74.2408 849.881 74.4951 849.62 74.6923C849.36 74.8855 849.037 74.9821 848.65 74.9821C848.343 74.9821 848.067 74.9131 847.822 74.7751C847.582 74.6371 847.393 74.4419 847.255 74.1895C847.117 73.9332 847.048 73.6375 847.048 73.3023C847.048 72.9672 847.115 72.6734 847.249 72.4211C847.383 72.1687 847.57 71.9755 847.811 71.8414C848.055 71.7034 848.335 71.6344 848.65 71.6344C848.958 71.6344 849.23 71.7014 849.467 71.8355C849.703 71.9696 849.885 72.1549 850.011 72.3915C850.141 72.6241 850.206 72.8883 850.206 73.184ZM849.65 73.0717C849.65 72.8666 849.605 72.6912 849.514 72.5453C849.423 72.3954 849.299 72.2831 849.141 72.2081C848.988 72.1293 848.816 72.0898 848.627 72.0898C848.355 72.0898 848.122 72.1766 847.929 72.3501C847.74 72.5236 847.631 72.7641 847.604 73.0717H849.65ZM851.573 72.1312V74.0417C851.573 74.1994 851.606 74.3118 851.673 74.3788C851.74 74.4419 851.857 74.4734 852.022 74.4734H852.419V74.9288H851.934C851.634 74.9288 851.409 74.8598 851.259 74.7218C851.11 74.5838 851.035 74.3571 851.035 74.0417V72.1312H850.615V71.6876H851.035V70.8714H851.573V71.6876H852.419V72.1312H851.573ZM853.154 70.8064H853.751L853.183 72.149H852.805L853.154 70.8064ZM855.512 74.9821C855.264 74.9821 855.041 74.9407 854.844 74.8579C854.647 74.7711 854.491 74.6528 854.376 74.503C854.262 74.3492 854.199 74.1738 854.187 73.9766H854.743C854.759 74.1383 854.834 74.2704 854.968 74.3729C855.106 74.4754 855.285 74.5267 855.506 74.5267C855.711 74.5267 855.873 74.4813 855.991 74.3906C856.109 74.2999 856.169 74.1856 856.169 74.0476C856.169 73.9056 856.106 73.8011 855.979 73.7341C855.853 73.6631 855.658 73.5941 855.394 73.5271C855.153 73.464 854.956 73.4009 854.802 73.3378C854.652 73.2708 854.522 73.1742 854.412 73.048C854.305 72.9179 854.252 72.7483 854.252 72.5393C854.252 72.3737 854.302 72.2219 854.4 72.0839C854.499 71.9459 854.639 71.8375 854.82 71.7586C855.001 71.6758 855.208 71.6344 855.441 71.6344C855.8 71.6344 856.09 71.7251 856.311 71.9065C856.531 72.0879 856.65 72.3363 856.665 72.6517H856.127C856.115 72.4822 856.046 72.3461 855.92 72.2436C855.798 72.1411 855.632 72.0898 855.423 72.0898C855.23 72.0898 855.076 72.1312 854.962 72.214C854.848 72.2969 854.79 72.4053 854.79 72.5393C854.79 72.6458 854.824 72.7345 854.891 72.8055C854.962 72.8725 855.049 72.9277 855.151 72.9711C855.258 73.0105 855.404 73.0559 855.589 73.1072C855.822 73.1702 856.011 73.2333 856.157 73.2964C856.303 73.3556 856.427 73.4463 856.529 73.5685C856.636 73.6907 856.691 73.8504 856.695 74.0476C856.695 74.225 856.646 74.3847 856.547 74.5267C856.449 74.6686 856.309 74.781 856.127 74.8638C855.95 74.9426 855.745 74.9821 855.512 74.9821ZM860.339 74.9703C860.067 74.9703 859.822 74.9229 859.605 74.8283C859.392 74.7297 859.225 74.5957 859.103 74.4261C858.98 74.2526 858.917 74.0535 858.913 73.8287H859.487C859.507 74.0219 859.586 74.1856 859.724 74.3196C859.866 74.4498 860.071 74.5148 860.339 74.5148C860.595 74.5148 860.796 74.4517 860.942 74.3256C861.092 74.1954 861.167 74.0298 861.167 73.8287C861.167 73.671 861.123 73.5429 861.037 73.4443C860.95 73.3457 860.842 73.2708 860.711 73.2195C860.581 73.1683 860.406 73.1131 860.185 73.0539C859.913 72.9829 859.694 72.912 859.528 72.841C859.367 72.77 859.227 72.6596 859.109 72.5098C858.994 72.356 858.937 72.151 858.937 71.8947C858.937 71.6699 858.994 71.4708 859.109 71.2973C859.223 71.1238 859.383 70.9897 859.588 70.8951C859.797 70.8005 860.035 70.7531 860.303 70.7531C860.69 70.7531 861.005 70.8497 861.25 71.043C861.498 71.2362 861.638 71.4925 861.67 71.8119H861.078C861.058 71.6541 860.976 71.5161 860.83 71.3978C860.684 71.2756 860.491 71.2145 860.25 71.2145C860.025 71.2145 859.842 71.2736 859.7 71.3919C859.558 71.5063 859.487 71.6679 859.487 71.8769C859.487 72.0268 859.528 72.149 859.611 72.2436C859.698 72.3383 859.803 72.4112 859.925 72.4625C860.051 72.5098 860.226 72.565 860.451 72.6281C860.723 72.703 860.942 72.7779 861.108 72.8528C861.273 72.9238 861.415 73.0362 861.534 73.19C861.652 73.3398 861.711 73.5448 861.711 73.8051C861.711 74.0062 861.658 74.1954 861.551 74.3729C861.445 74.5503 861.287 74.6942 861.078 74.8046C860.869 74.915 860.623 74.9703 860.339 74.9703ZM864.112 71.6285C864.356 71.6285 864.577 71.6817 864.774 71.7882C864.971 71.8907 865.125 72.0465 865.236 72.2554C865.35 72.4644 865.407 72.7188 865.407 73.0184V74.9288H864.875V73.0953C864.875 72.772 864.794 72.5255 864.632 72.356C864.471 72.1825 864.25 72.0958 863.97 72.0958C863.686 72.0958 863.459 72.1845 863.29 72.3619C863.124 72.5393 863.041 72.7976 863.041 73.1367V74.9288H862.503V70.552H863.041V72.149C863.148 71.9834 863.294 71.8552 863.479 71.7645C863.668 71.6738 863.879 71.6285 864.112 71.6285ZM867.7 74.9821C867.396 74.9821 867.12 74.9131 866.872 74.7751C866.627 74.6371 866.434 74.4419 866.292 74.1895C866.154 73.9332 866.085 73.6375 866.085 73.3023C866.085 72.9711 866.156 72.6793 866.298 72.427C866.444 72.1707 866.641 71.9755 866.89 71.8414C867.138 71.7034 867.416 71.6344 867.724 71.6344C868.031 71.6344 868.309 71.7034 868.557 71.8414C868.806 71.9755 869.001 72.1687 869.143 72.4211C869.289 72.6734 869.362 72.9672 869.362 73.3023C869.362 73.6375 869.287 73.9332 869.137 74.1895C868.991 74.4419 868.792 74.6371 868.54 74.7751C868.287 74.9131 868.007 74.9821 867.7 74.9821ZM867.7 74.5089C867.893 74.5089 868.074 74.4636 868.244 74.3729C868.414 74.2822 868.55 74.1461 868.652 73.9648C868.759 73.7834 868.812 73.5626 868.812 73.3023C868.812 73.0421 868.761 72.8213 868.658 72.6399C868.555 72.4585 868.421 72.3245 868.256 72.2377C868.09 72.147 867.911 72.1017 867.718 72.1017C867.52 72.1017 867.339 72.147 867.173 72.2377C867.012 72.3245 866.882 72.4585 866.783 72.6399C866.685 72.8213 866.635 73.0421 866.635 73.3023C866.635 73.5665 866.683 73.7893 866.777 73.9707C866.876 74.1521 867.006 74.2881 867.168 74.3788C867.329 74.4655 867.507 74.5089 867.7 74.5089ZM870.608 72.285C870.714 72.0997 870.872 71.9459 871.081 71.8237C871.294 71.6975 871.54 71.6344 871.82 71.6344C872.108 71.6344 872.368 71.7034 872.601 71.8414C872.838 71.9794 873.023 72.1746 873.157 72.427C873.291 72.6754 873.358 72.9652 873.358 73.2964C873.358 73.6237 873.291 73.9155 873.157 74.1718C873.023 74.4281 872.838 74.6272 872.601 74.7692C872.368 74.9111 872.108 74.9821 871.82 74.9821C871.544 74.9821 871.3 74.921 871.087 74.7987C870.878 74.6725 870.718 74.5168 870.608 74.3315V76.4666H870.07V71.6876H870.608V72.285ZM872.808 73.2964C872.808 73.0519 872.759 72.839 872.66 72.6576C872.562 72.4763 872.427 72.3383 872.258 72.2436C872.092 72.149 871.909 72.1017 871.708 72.1017C871.511 72.1017 871.327 72.151 871.158 72.2495C870.992 72.3442 870.858 72.4841 870.756 72.6695C870.657 72.8509 870.608 73.0618 870.608 73.3023C870.608 73.5468 870.657 73.7617 870.756 73.947C870.858 74.1284 870.992 74.2684 871.158 74.367C871.327 74.4616 871.511 74.5089 871.708 74.5089C871.909 74.5089 872.092 74.4616 872.258 74.367C872.427 74.2684 872.562 74.1284 872.66 73.947C872.759 73.7617 872.808 73.5448 872.808 73.2964ZM874.764 70.8064L874.699 73.7637H874.25L874.185 70.8064H874.764ZM874.498 74.9643C874.396 74.9643 874.309 74.9288 874.238 74.8579C874.167 74.7869 874.132 74.7002 874.132 74.5976C874.132 74.4951 874.167 74.4084 874.238 74.3374C874.309 74.2664 874.396 74.2309 874.498 74.2309C874.597 74.2309 874.68 74.2664 874.747 74.3374C874.818 74.4084 874.853 74.4951 874.853 74.5976C874.853 74.7002 874.818 74.7869 874.747 74.8579C874.68 74.9288 874.597 74.9643 874.498 74.9643Z" fill="white"/>
<g clip-path="url(#clip1_26024_445705)">
<path d="M1018.49 96.9217L1018.59 96.8785C1018.66 97.8849 1018.8 99.1492 1018.91 99.5344C1018.96 99.7345 1019.14 99.8457 1019.34 99.8003C1019.4 99.7855 1019.46 99.7567 1019.5 99.7163C1020.29 99.0781 1020.81 98.8116 1021.66 98.37C1021.86 98.2671 1021.88 98.0734 1021.83 97.94C1021.77 97.7845 1021.61 97.6503 1021.41 97.6963C1021.38 97.7038 1021.35 97.7151 1021.32 97.7301C1020.59 98.108 1020.1 98.3696 1019.52 98.7953C1019.49 98.6404 1019.47 98.4611 1019.45 98.2618C1019.56 98.1811 1019.67 98.1058 1019.77 98.0344C1020.32 97.6425 1020.68 97.3835 1021.35 97.0208C1021.55 96.9128 1021.56 96.7187 1021.51 96.5833C1021.45 96.4313 1021.29 96.3006 1021.1 96.3454C1021.07 96.3533 1021.04 96.3658 1021 96.3824C1020.32 96.7508 1019.96 97.0118 1019.41 97.4071L1019.37 97.4368C1019.33 97.0446 1019.3 96.6672 1019.28 96.3703C1019.74 96.0271 1020.19 95.8008 1020.91 95.4787C1021.07 95.4035 1021.14 95.2436 1021.08 95.0717C1021.03 94.9084 1020.86 94.7616 1020.64 94.8109C1020.62 94.8169 1020.59 94.8254 1020.57 94.8363C1020.01 95.0904 1019.57 95.3022 1019.16 95.5718C1019.14 95.5552 1019.12 95.5405 1019.11 95.528C1019.06 95.5012 1019.01 95.4833 1018.96 95.4753C1018.91 95.4673 1018.86 95.4693 1018.81 95.4812C1018.68 95.5115 1018.54 95.6149 1018.54 95.8141C1018.54 95.8345 1018.54 95.868 1018.53 95.9072L1018.54 95.911C1018.53 95.9792 1018.53 96.0634 1018.53 96.1254C1018.44 96.1732 1018.12 96.3087 1017.82 96.4388L1017.8 96.4455C1017.44 96.5979 1017.03 96.7706 1016.77 96.8961C1016.73 96.6861 1016.69 96.5009 1016.66 96.3302C1016.64 96.228 1016.62 96.1228 1016.6 96.0206L1016.59 95.9619C1016.89 95.8425 1017.19 95.7218 1017.55 95.5765L1017.56 95.5727C1017.96 95.4142 1018.41 95.2344 1018.84 95.0654C1018.88 95.0499 1018.92 95.0264 1018.94 94.9965C1018.97 94.9667 1018.99 94.9311 1019.01 94.8922C1019.02 94.844 1019.03 94.7928 1019.03 94.7415C1019.03 94.6903 1019.01 94.6402 1018.99 94.5943C1018.91 94.4521 1018.77 94.3911 1018.6 94.4305C1018.57 94.4358 1018.55 94.4427 1018.53 94.451C1018.12 94.6111 1017.7 94.7792 1017.29 94.9415L1017.27 94.9491C1017.01 95.0567 1016.74 95.1621 1016.48 95.2682C1016.47 95.1679 1016.47 95.0671 1016.47 94.9666C1016.48 94.9157 1016.47 94.8643 1016.45 94.817C1016.43 94.7697 1016.4 94.7279 1016.36 94.6952C1016.32 94.6597 1016.26 94.6349 1016.21 94.6225C1016.15 94.6101 1016.1 94.6105 1016.04 94.6237C1015.97 94.6382 1015.9 94.6769 1015.85 94.7335C1015.81 94.7901 1015.78 94.8612 1015.78 94.935C1015.77 95.1325 1015.78 95.3303 1015.81 95.5257C1015.44 95.6687 1015.1 95.7908 1014.79 95.8994C1014.6 95.9655 1014.5 96.1317 1014.54 96.3121C1014.58 96.4765 1014.77 96.6328 1014.96 96.5687C1015.26 96.4655 1015.58 96.3491 1015.94 96.2136C1015.95 96.2674 1015.96 96.3212 1015.97 96.3751C1016.01 96.6268 1016.06 96.8934 1016.13 97.2409C1016.01 97.3107 1015.91 97.3774 1015.8 97.4444C1015.67 97.5318 1015.61 97.7361 1015.66 97.897C1015.71 98.031 1015.82 98.1036 1015.97 98.091C1016.05 98.086 1016.14 98.0649 1016.21 98.0287C1016.23 98.0204 1016.25 98.0104 1016.28 97.998L1016.33 98.267C1016.47 98.9623 1016.61 99.6811 1016.73 100.391C1016.73 100.434 1016.75 100.476 1016.77 100.513C1016.8 100.55 1016.83 100.582 1016.86 100.606C1016.9 100.631 1016.94 100.647 1016.99 100.654C1017.04 100.661 1017.08 100.659 1017.13 100.648C1017.29 100.61 1017.44 100.458 1017.4 100.243C1017.28 99.5268 1017.14 98.8052 1017 98.1076L1016.92 97.6623C1017.26 97.4808 1018.05 97.1222 1018.43 96.9493L1018.49 96.9217Z" fill="#D7244F"/>
<path d="M1034.18 94.6422C1034.13 94.4867 1033.96 94.3522 1033.77 94.3983C1033.73 94.4058 1033.7 94.4173 1033.67 94.4323C1032.91 94.8292 1032.35 95.1237 1031.73 95.572C1031.71 95.4201 1031.69 95.2413 1031.66 95.0396C1031.67 95.0364 1031.67 95.0337 1031.68 95.0304C1031.87 94.8955 1032.02 94.7808 1032.13 94.7032C1032.52 94.4147 1032.74 94.2559 1033.35 93.9285C1033.55 93.8203 1033.56 93.6264 1033.51 93.4909C1033.45 93.3388 1033.29 93.2081 1033.1 93.2529C1033.06 93.2609 1033.03 93.2734 1033 93.2899C1032.39 93.6222 1032.17 93.7829 1031.77 94.0739C1031.71 94.1179 1031.64 94.1644 1031.58 94.2141C1031.54 93.8211 1031.51 93.418 1031.49 93.0755C1031.69 92.9289 1031.92 92.8067 1032.14 92.6953C1032.43 92.5442 1032.62 92.4662 1032.84 92.3757L1032.84 92.3751C1032.95 92.3286 1033.09 92.2709 1033.26 92.1923C1033.43 92.1176 1033.5 91.9584 1033.44 91.7851C1033.39 91.6212 1033.21 91.4726 1033 91.5221C1032.97 91.528 1032.95 91.5362 1032.93 91.5467C1032.75 91.6245 1032.58 91.6954 1032.41 91.7644C1032.08 91.9025 1031.73 92.0456 1031.41 92.232C1031.39 92.1903 1031.35 92.155 1031.31 92.1289C1031.22 92.0754 1031.12 92.0587 1031.02 92.0824C1030.89 92.1126 1030.75 92.2158 1030.75 92.4147C1030.74 92.4892 1030.75 92.5973 1030.75 92.7366C1030.63 92.8615 1030.51 92.9978 1030.42 93.1437C1030.33 93.2669 1030.33 93.4047 1030.41 93.5219C1030.45 93.5843 1030.51 93.6327 1030.58 93.6617C1030.65 93.6906 1030.73 93.6988 1030.81 93.6852C1030.88 94.6948 1031.01 95.9072 1031.15 96.2952C1031.22 96.4908 1031.4 96.5979 1031.58 96.5554C1031.64 96.5408 1031.7 96.5124 1031.75 96.4725C1032.53 95.8395 1033.15 95.5166 1034.02 95.0697C1034.22 94.9682 1034.23 94.7758 1034.18 94.6422Z" fill="#D7244F"/>
<path d="M1025 98.5687C1024.93 98.0774 1024.86 97.5016 1024.79 96.9451L1024.79 96.9331C1024.74 96.5426 1024.69 96.1401 1024.64 95.7764C1024.59 95.3797 1024.53 94.9508 1024.48 94.5048C1024.48 94.4639 1024.47 94.4226 1024.47 94.3816C1024.44 94.1671 1024.42 93.9454 1024.42 93.7282C1024.42 93.6822 1024.41 93.6366 1024.39 93.5948C1024.37 93.5529 1024.35 93.5161 1024.31 93.4873C1024.27 93.454 1024.22 93.4307 1024.16 93.419C1024.11 93.4074 1024.06 93.4078 1024 93.4202C1023.95 93.4322 1023.89 93.4592 1023.85 93.4984C1023.81 93.5376 1023.78 93.5875 1023.76 93.6428C1023.68 93.9048 1023.62 94.17 1023.56 94.4267C1023.52 94.5879 1023.48 94.7708 1023.43 94.9443C1023.34 95.2653 1023.27 95.5229 1023.19 95.7555C1023.16 95.827 1023.14 95.8939 1023.11 95.9595C1023.01 95.7985 1022.76 95.404 1022.59 95.0999C1022.48 94.899 1022.36 94.7013 1022.25 94.5099C1022.19 94.4203 1022.14 94.3305 1022.09 94.242C1022.08 94.216 1022.07 94.1918 1022.06 94.1678L1022.06 94.1644C1022.04 94.1351 1022.02 94.1068 1022 94.0796C1021.93 93.9948 1021.8 93.9597 1021.68 93.9885C1021.62 94.0015 1021.57 94.028 1021.52 94.0657C1021.49 94.0932 1021.47 94.1268 1021.45 94.1646C1021.44 94.1761 1021.43 94.1881 1021.43 94.2005C1021.41 94.2455 1021.4 94.2949 1021.41 94.3439C1021.41 94.4409 1021.42 94.5377 1021.43 94.6328C1021.44 94.6763 1021.45 94.7212 1021.45 94.7581C1021.49 95.1434 1021.55 95.5481 1021.65 96.0717C1021.81 96.8998 1022.04 98.0195 1022.25 98.9933C1022.25 99.0326 1022.27 99.0699 1022.29 99.1031C1022.31 99.1363 1022.34 99.1646 1022.38 99.1864C1022.42 99.2099 1022.46 99.2254 1022.5 99.2321C1022.55 99.2388 1022.6 99.2365 1022.64 99.2253C1022.8 99.1877 1022.94 99.0447 1022.9 98.844C1022.79 98.3427 1022.68 97.7623 1022.56 97.2011C1022.48 96.8152 1022.42 96.4966 1022.36 96.201C1022.34 96.1132 1022.32 96.023 1022.3 95.9323C1022.54 96.2948 1022.78 96.5466 1023.05 96.7228C1023.13 96.767 1023.22 96.7795 1023.3 96.7576C1023.36 96.7445 1023.42 96.7126 1023.46 96.6661C1023.72 96.3793 1023.84 95.9833 1023.94 95.5968C1023.96 95.6921 1023.97 95.7875 1023.98 95.8829C1024.03 96.2335 1024.08 96.6273 1024.13 97.0081L1024.13 97.0259C1024.2 97.605 1024.27 98.2038 1024.35 98.7245C1024.35 98.7631 1024.37 98.8004 1024.39 98.8338C1024.41 98.8672 1024.43 98.896 1024.46 98.9183C1024.5 98.9418 1024.54 98.9574 1024.59 98.9641C1024.63 98.9709 1024.67 98.9686 1024.72 98.9575C1024.88 98.9189 1025.03 98.773 1025 98.5687Z" fill="#D7244F"/>
<path d="M1025.96 97.9747C1026 97.5046 1026.03 97.0316 1026.05 96.6692C1026.36 96.4085 1026.64 96.1727 1026.91 95.9484C1027.25 96.5401 1027.63 97.1103 1028.04 97.6558C1028.11 97.7539 1028.25 97.7964 1028.39 97.7645C1028.45 97.7504 1028.51 97.72 1028.56 97.6763C1028.7 97.5432 1028.71 97.3395 1028.58 97.1692C1028.21 96.6911 1027.86 96.139 1027.48 95.4847C1027.64 95.3601 1027.78 95.2475 1027.91 95.1444C1028.04 95.0439 1028.08 94.8938 1028.01 94.7529C1027.94 94.612 1027.77 94.4901 1027.57 94.5351C1027.52 94.5481 1027.47 94.5731 1027.42 94.6083C1027.32 94.6845 1027.23 94.762 1027.13 94.8408C1026.97 94.5512 1026.81 94.2385 1026.61 93.8317C1026.55 93.6961 1026.48 93.559 1026.4 93.4121C1026.36 93.3546 1026.34 93.2951 1026.31 93.2302L1026.3 93.2144C1026.31 93.161 1026.31 93.1061 1026.29 93.0542C1026.27 93.0023 1026.25 92.9549 1026.21 92.9159C1026.16 92.8701 1026.11 92.8365 1026.04 92.8182C1025.98 92.7998 1025.91 92.7973 1025.85 92.8108C1025.79 92.8247 1025.73 92.8584 1025.69 92.907C1025.61 92.9922 1025.57 93.1018 1025.57 93.2154L1025.56 93.2148L1025.56 93.2838C1025.44 94.2232 1025.39 95.1783 1025.35 96.1039L1025.34 96.3189L1025.32 96.3377C1025.3 96.3497 1025.28 96.3633 1025.26 96.3784C1025.24 96.3958 1025.22 96.4134 1025.21 96.4301C1025.19 96.4468 1025.17 96.4619 1025.15 96.4773L1025.1 96.5234L1025.1 96.5287C1025.06 96.5772 1025.04 96.6369 1025.03 96.7C1025.02 96.7631 1025.04 96.8265 1025.07 96.8821C1025.12 96.976 1025.2 97.0475 1025.3 97.0818C1025.28 97.4083 1025.26 97.6812 1025.24 97.9393C1025.23 97.992 1025.24 98.0454 1025.26 98.095C1025.28 98.1445 1025.31 98.1886 1025.35 98.2235C1025.39 98.2612 1025.45 98.2876 1025.51 98.3006C1025.57 98.3137 1025.63 98.3129 1025.68 98.2986C1025.76 98.2831 1025.83 98.2429 1025.88 98.1843C1025.93 98.1257 1025.96 98.0519 1025.96 97.9747ZM1026.1 95.6824C1026.11 95.3694 1026.13 94.9649 1026.17 94.5448L1026.18 94.5702C1026.26 94.7305 1026.35 94.9121 1026.44 95.0898C1026.48 95.1631 1026.52 95.2348 1026.55 95.3061C1026.41 95.4238 1026.26 95.5461 1026.1 95.6824Z" fill="#D7244F"/>
<path d="M1030.53 95.8605C1030.47 95.8749 1030.41 95.9043 1030.36 95.9459C1030.11 96.1717 1029.9 96.327 1029.68 96.4494C1029.56 96.5131 1029.44 96.5612 1029.32 96.5924L1029.3 96.5936C1029.26 96.5 1029.25 96.3552 1029.25 96.2375C1029.24 96.0341 1029.23 95.8033 1029.21 95.5722C1029.09 94.2436 1028.95 93.1885 1028.75 92.1505C1028.75 92.1054 1028.73 92.0623 1028.71 92.0239C1028.68 91.9855 1028.65 91.9525 1028.61 91.927C1028.57 91.9016 1028.52 91.8846 1028.48 91.8772C1028.43 91.8697 1028.38 91.8719 1028.33 91.8836C1028.16 91.9241 1028 92.0832 1028.05 92.3091C1028.31 93.6533 1028.45 94.8215 1028.51 95.9854C1028.51 96.0229 1028.52 96.062 1028.52 96.1041L1028.52 96.1189C1028.53 96.5554 1028.55 97.0992 1029.03 97.2801C1029.17 97.3323 1029.33 97.3378 1029.5 97.2966C1029.66 97.2546 1029.82 97.1948 1029.97 97.1182C1030.3 96.955 1030.59 96.7136 1030.86 96.4769C1030.98 96.3657 1031.01 96.212 1030.94 96.0648C1030.87 95.9321 1030.71 95.8188 1030.53 95.8605Z" fill="#D7244F"/>
<path d="M1042.73 93.2674L1042.7 93.2736C1042.41 93.3402 1042.31 93.6065 1042.36 93.835C1042.4 94.0548 1042.59 94.2656 1042.9 94.2083L1042.92 94.2028C1043.21 94.1359 1043.32 93.8696 1043.27 93.641C1043.22 93.4211 1043.03 93.2103 1042.73 93.2674Z" fill="#D7244F"/>
<path d="M1038.59 91.4927C1038.33 90.8213 1037.77 90.3258 1037.12 90.1983C1036.9 90.1541 1036.67 90.157 1036.45 90.2066C1036.04 90.302 1035.72 90.5559 1035.55 90.921C1035.51 91.0236 1035.47 91.1311 1035.44 91.2417C1035.43 91.3051 1035.43 91.3716 1035.45 91.4346C1035.46 91.4975 1035.5 91.5546 1035.54 91.6003C1035.62 91.6716 1035.71 91.7147 1035.81 91.7216C1035.91 92.2503 1036.04 92.7941 1036.17 93.3363C1036.27 93.7169 1036.39 94.1657 1036.55 94.6098L1036.57 94.6861C1036.52 94.7064 1036.46 94.7235 1036.41 94.7374C1036.17 94.7981 1036.09 95.0161 1036.14 95.1999C1036.18 95.3719 1036.33 95.5311 1036.57 95.4758L1036.58 95.4736C1036.7 95.4444 1036.81 95.4076 1036.92 95.3636C1036.94 95.3936 1036.97 95.4216 1037 95.447C1037.11 95.5384 1037.24 95.5748 1037.36 95.547C1037.42 95.532 1037.48 95.5002 1037.53 95.4548C1037.56 95.4158 1037.6 95.3693 1037.62 95.3179C1037.64 95.2666 1037.65 95.2117 1037.64 95.1565C1037.64 95.0925 1037.62 95.0302 1037.59 94.9765C1037.94 94.7032 1038.22 94.3573 1038.43 93.9627C1038.83 93.1777 1038.89 92.2775 1038.59 91.4927ZM1036.45 91.0056C1036.49 90.9737 1036.55 90.9518 1036.6 90.9412L1036.64 90.9316C1036.73 90.9149 1036.82 90.913 1036.9 90.9259C1037.3 90.9645 1037.68 91.2903 1037.88 91.755C1038.11 92.2802 1038.07 93.0027 1037.78 93.595C1037.64 93.8623 1037.46 94.1011 1037.24 94.2979C1037.1 93.8964 1036.99 93.4764 1036.89 93.0823C1036.72 92.3821 1036.57 91.6833 1036.45 91.0053L1036.45 91.0056Z" fill="#D7244F"/>
<path d="M1041.51 92.3426C1041.34 91.8615 1041.17 91.3646 1040.96 90.8899C1040.81 90.5616 1040.65 90.2149 1040.44 89.8991C1040.35 89.7565 1040.25 89.622 1040.11 89.5418C1040.01 89.4822 1039.88 89.4637 1039.77 89.4899C1039.71 89.5039 1039.65 89.5306 1039.6 89.5681C1039.55 89.6057 1039.51 89.6532 1039.48 89.7077C1039.45 89.7668 1039.43 89.8345 1039.43 89.903C1039.43 89.9716 1039.45 90.0382 1039.49 90.0955C1039.49 90.0976 1039.49 90.0995 1039.49 90.1014C1039.49 90.1133 1039.49 90.1254 1039.49 90.1375C1039.44 90.5221 1039.4 90.9117 1039.37 91.2886L1039.37 91.2913C1039.33 91.7104 1039.29 92.0882 1039.24 92.466C1039.08 92.5652 1039.07 92.7366 1039.11 92.8541C1039.12 92.8922 1039.14 92.9278 1039.17 92.9596C1039.14 93.1215 1039.11 93.3099 1039.1 93.4907C1039.08 93.737 1039.07 94.0957 1039.25 94.3621C1039.35 94.5078 1039.51 94.5778 1039.67 94.5416C1039.7 94.534 1039.73 94.5221 1039.76 94.5061C1039.81 94.4789 1039.85 94.4425 1039.88 94.399C1039.92 94.3555 1039.94 94.3059 1039.95 94.2531C1039.96 94.2079 1039.97 94.1607 1039.96 94.1145C1039.95 94.0683 1039.94 94.0242 1039.91 93.9851C1039.82 93.8491 1039.84 93.6282 1039.86 93.4335L1039.87 93.3876C1039.88 93.2326 1039.91 93.0769 1039.94 92.9262L1039.94 92.885C1040.18 92.7732 1040.43 92.6632 1040.78 92.5179L1040.84 92.6784C1041.05 93.2899 1041.28 93.9219 1041.57 94.5133C1041.61 94.5869 1041.66 94.6463 1041.74 94.6811C1041.81 94.7159 1041.89 94.7238 1041.97 94.7036C1042.03 94.6894 1042.09 94.6623 1042.13 94.6243C1042.18 94.5862 1042.22 94.5381 1042.25 94.4834C1042.27 94.4324 1042.28 94.3766 1042.28 94.3202C1042.28 94.2639 1042.26 94.2087 1042.24 94.1592C1041.95 93.5767 1041.73 92.9495 1041.51 92.3426ZM1040.55 91.8784C1040.35 91.9591 1040.19 92.027 1040.05 92.0915C1040.07 91.847 1040.1 91.5946 1040.12 91.3575L1040.12 91.3314C1040.13 91.2181 1040.14 91.0857 1040.16 90.9496C1040.22 91.0932 1040.3 91.2547 1040.37 91.4395C1040.39 91.4848 1040.41 91.5306 1040.43 91.5761C1040.44 91.5947 1040.45 91.6131 1040.45 91.6318L1040.48 91.6929C1040.48 91.7081 1040.49 91.7186 1040.49 91.7243C1040.51 91.7752 1040.53 91.8268 1040.55 91.8784Z" fill="#D7244F"/>
<path d="M1042.58 91.0562C1042.57 90.9915 1042.56 90.9244 1042.55 90.852L1042.54 90.8451C1042.52 90.6985 1042.51 90.6116 1042.5 90.547L1042.49 90.5323C1042.47 90.4177 1042.46 90.3484 1042.41 90.0881C1042.41 90.0633 1042.4 90.0376 1042.4 90.012L1042.39 89.9721C1042.34 89.7135 1042.29 89.446 1042.17 89.2157C1042.13 89.1409 1042.07 89.0813 1041.99 89.0468C1041.91 89.0123 1041.83 89.0051 1041.75 89.0262C1041.69 89.0393 1041.63 89.0655 1041.58 89.1029C1041.54 89.1403 1041.5 89.1879 1041.47 89.2421C1041.45 89.2916 1041.44 89.3457 1041.44 89.4C1041.45 89.4542 1041.46 89.507 1041.49 89.5539C1041.51 89.5887 1041.52 89.6248 1041.53 89.6619L1041.54 89.6851C1041.55 89.7232 1041.56 89.7609 1041.57 89.7927C1041.62 89.9679 1041.65 90.1439 1041.69 90.3238C1041.74 90.5824 1041.75 90.6723 1041.77 90.7989L1041.77 90.8024C1041.78 90.8839 1041.8 90.9839 1041.83 91.1641L1041.85 91.308C1041.9 91.6177 1041.94 91.8417 1042.02 92.1866C1042.03 92.2044 1042.03 92.2239 1042.04 92.2445L1042.04 92.2533C1042.1 92.5308 1042.21 92.9952 1042.58 92.9685C1042.61 92.9662 1042.64 92.9617 1042.67 92.9548C1042.79 92.9265 1042.87 92.8623 1042.92 92.7626C1042.98 92.6019 1042.91 92.4081 1042.85 92.3189C1042.84 92.2977 1042.83 92.2754 1042.83 92.2524C1042.82 92.2497 1042.82 92.2409 1042.82 92.2284L1042.82 92.222C1042.81 92.2103 1042.81 92.1988 1042.81 92.1936C1042.8 92.1604 1042.79 92.1267 1042.78 92.0938L1042.78 92.0863C1042.76 92.0083 1042.74 91.9262 1042.72 91.8566C1042.66 91.5395 1042.63 91.3367 1042.58 91.0562Z" fill="#D7244F"/>
<path d="M1046.93 88.0301C1046.88 88.041 1046.83 88.0643 1046.79 88.098C1046.75 88.1317 1046.72 88.1746 1046.7 88.2228L1046.69 88.2222L1046.68 88.3084C1046.64 88.7414 1046.56 89.182 1046.49 89.6473L1046.49 89.6523C1046.46 89.8492 1046.43 90.014 1046.4 90.1778C1046.2 89.989 1045.98 89.7861 1045.74 89.5581C1045.66 89.4789 1045.61 89.4433 1045.58 89.4147C1045.52 89.3633 1045.46 89.3079 1045.41 89.2488C1045.33 89.1712 1045.27 89.0978 1045.2 89.0246C1045.18 88.9973 1045.16 88.9678 1045.13 88.9347L1045.12 88.9195C1045.11 88.9088 1045.11 88.897 1045.1 88.8855C1045.07 88.827 1045.02 88.7809 1044.95 88.7544C1044.89 88.7279 1044.83 88.7225 1044.76 88.7391C1044.71 88.7503 1044.66 88.7729 1044.62 88.8051C1044.58 88.8373 1044.55 88.8783 1044.53 88.9249C1044.51 88.9685 1044.5 89.016 1044.51 89.0633C1044.51 89.1106 1044.53 89.1561 1044.55 89.1959L1044.55 89.1991C1044.8 89.5328 1044.91 89.6365 1045.15 89.8629C1045.18 89.8948 1045.22 89.9288 1045.26 89.9658L1045.26 89.9675C1045.63 90.3229 1045.97 90.6355 1046.3 90.9226C1046.2 91.7649 1046.2 92.4294 1046.3 93.0138C1046.3 93.0532 1046.32 93.0911 1046.34 93.125C1046.36 93.159 1046.38 93.1881 1046.42 93.2107C1046.45 93.2332 1046.49 93.2482 1046.53 93.2549C1046.57 93.2616 1046.62 93.2597 1046.66 93.2495C1046.81 93.2149 1046.94 93.0783 1046.91 92.8842C1046.74 91.8798 1046.93 90.7705 1047.11 89.6954L1047.11 89.6867C1047.17 89.3283 1047.23 88.9895 1047.27 88.6524C1047.28 88.6203 1047.29 88.5863 1047.29 88.5517C1047.3 88.5164 1047.3 88.4809 1047.3 88.4423C1047.3 88.4107 1047.3 88.3781 1047.31 88.3453C1047.31 88.2995 1047.31 88.2529 1047.29 88.2096C1047.27 88.1663 1047.25 88.1277 1047.21 88.0973C1047.17 88.0647 1047.13 88.0417 1047.08 88.0301C1047.03 88.0184 1046.98 88.0185 1046.93 88.0301Z" fill="#D7244F"/>
<path d="M1045.44 92.3069C1045.37 92.3215 1045.32 92.3512 1045.27 92.3931C1045.04 92.6007 1044.84 92.7431 1044.64 92.8553C1044.54 92.9101 1044.44 92.9523 1044.33 92.9807C1044.3 92.9003 1044.3 92.7845 1044.29 92.6895L1044.29 92.6797C1044.28 92.4918 1044.27 92.2792 1044.25 92.0682C1044.15 90.8781 1044.01 89.8125 1043.82 88.8112C1043.81 88.7652 1043.79 88.7214 1043.77 88.6822C1043.74 88.6431 1043.71 88.6096 1043.67 88.5836C1043.63 88.5578 1043.58 88.5406 1043.53 88.533C1043.48 88.5255 1043.43 88.5277 1043.39 88.5396C1043.21 88.5805 1043.05 88.7414 1043.1 88.9701C1043.29 89.9852 1043.44 91.1262 1043.55 92.4579C1043.55 92.5078 1043.55 92.5615 1043.56 92.6258C1043.58 93.0208 1043.6 93.5128 1044.05 93.6808C1044.18 93.732 1044.33 93.7374 1044.5 93.6975C1044.65 93.6581 1044.8 93.6019 1044.94 93.5298C1045.25 93.3774 1045.52 93.1521 1045.77 92.9319C1045.9 92.8181 1045.93 92.6623 1045.85 92.5136C1045.78 92.3789 1045.62 92.2646 1045.44 92.3069Z" fill="#D7244F"/>
<path d="M1048.64 94.0377L1034.23 97.378L1034.83 99.9273L1049.24 96.587L1048.64 94.0377Z" fill="#D8254F"/>
<path d="M1036.88 98.3425C1036.84 98.3147 1036.79 98.2971 1036.74 98.2911C1036.68 98.2828 1036.62 98.2779 1036.56 98.2767C1036.49 98.2754 1036.43 98.2705 1036.36 98.2619C1036.3 98.2541 1036.23 98.2397 1036.17 98.219C1036.11 98.1971 1036.06 98.16 1036.02 98.1112C1035.97 98.0531 1035.94 97.9835 1035.92 97.9089C1035.91 97.8489 1035.9 97.7863 1035.92 97.7257C1035.93 97.6651 1035.96 97.6081 1035.99 97.5587C1036.07 97.4516 1036.19 97.379 1036.36 97.3408C1036.41 97.3269 1036.47 97.3207 1036.54 97.3223C1036.59 97.3233 1036.64 97.3304 1036.69 97.3435C1036.72 97.3537 1036.76 97.3663 1036.8 97.3813C1036.82 97.3918 1036.85 97.405 1036.87 97.4205L1036.89 97.439L1036.77 97.641C1036.77 97.6387 1036.76 97.6346 1036.75 97.6288C1036.74 97.6188 1036.72 97.6104 1036.71 97.6036C1036.68 97.5925 1036.66 97.5833 1036.63 97.5762C1036.6 97.5682 1036.57 97.564 1036.53 97.5637C1036.49 97.5628 1036.45 97.5671 1036.41 97.5767C1036.34 97.59 1036.27 97.6289 1036.22 97.6866C1036.2 97.7089 1036.19 97.7354 1036.18 97.764C1036.17 97.7926 1036.17 97.8226 1036.18 97.8515C1036.19 97.8986 1036.22 97.94 1036.26 97.9669C1036.3 97.9947 1036.35 98.0122 1036.4 98.0183C1036.46 98.0266 1036.52 98.0314 1036.58 98.0327C1036.64 98.0341 1036.71 98.0389 1036.78 98.047C1036.84 98.0545 1036.9 98.0687 1036.96 98.0893C1037.02 98.1113 1037.08 98.1486 1037.12 98.1976C1037.17 98.2554 1037.2 98.3246 1037.22 98.3986C1037.23 98.4649 1037.24 98.5343 1037.22 98.6017C1037.21 98.669 1037.18 98.7328 1037.14 98.7882C1037.06 98.9035 1036.93 98.9823 1036.75 99.0245C1036.67 99.0417 1036.6 99.0494 1036.53 99.0473C1036.46 99.0465 1036.4 99.038 1036.35 99.022C1036.3 99.009 1036.26 98.9927 1036.21 98.9735C1036.19 98.9604 1036.16 98.9448 1036.13 98.9268L1036.1 98.9036L1036.23 98.7027C1036.23 98.7065 1036.24 98.712 1036.25 98.7192C1036.27 98.7319 1036.29 98.7434 1036.31 98.7535C1036.34 98.7692 1036.37 98.7818 1036.4 98.7912C1036.44 98.8019 1036.49 98.8076 1036.53 98.8083C1036.58 98.8101 1036.64 98.8047 1036.69 98.7923C1036.79 98.7688 1036.87 98.7256 1036.91 98.6624C1036.94 98.6341 1036.95 98.601 1036.96 98.5657C1036.97 98.5303 1036.97 98.4936 1036.96 98.4584C1036.95 98.435 1036.95 98.4126 1036.93 98.3927C1036.92 98.3728 1036.9 98.3557 1036.88 98.3425Z" fill="white"/>
<path d="M1038.86 96.7869L1038.91 97.0207L1038.42 97.1346L1038.75 98.5363L1038.49 98.5956L1038.17 97.1939L1037.68 97.3077L1037.62 97.0739L1038.86 96.7869Z" fill="white"/>
<path d="M1040.97 97.6619C1041 97.6116 1041.02 97.5553 1041.03 97.4965C1041.04 97.4377 1041.04 97.3775 1041.03 97.3196L1040.8 96.3377L1041.06 96.278L1041.28 97.2599C1041.31 97.3489 1041.31 97.4415 1041.29 97.5319C1041.28 97.6223 1041.24 97.7085 1041.19 97.785C1041.09 97.9425 1040.93 98.0542 1040.75 98.0965C1040.57 98.1387 1040.38 98.1082 1040.22 98.0113C1040.14 97.9649 1040.07 97.9025 1040.02 97.8283C1039.96 97.7541 1039.92 97.6695 1039.9 97.58L1039.68 96.5976L1039.93 96.5379L1040.16 97.5198C1040.17 97.5781 1040.2 97.6333 1040.23 97.682C1040.27 97.7308 1040.31 97.772 1040.36 97.8033C1040.41 97.8356 1040.47 97.8577 1040.52 97.8681C1040.58 97.8785 1040.64 97.8771 1040.7 97.8639C1040.75 97.8507 1040.81 97.8261 1040.85 97.7915C1040.9 97.7569 1040.94 97.7131 1040.97 97.6627L1040.97 97.6619Z" fill="white"/>
<path d="M1042.63 95.9127C1042.74 95.8859 1042.85 95.8815 1042.96 95.8998C1043.07 95.918 1043.18 95.9586 1043.27 96.0189C1043.37 96.0757 1043.45 96.1509 1043.52 96.2401C1043.58 96.3293 1043.63 96.4307 1043.65 96.5382C1043.68 96.6457 1043.68 96.7571 1043.66 96.8658C1043.64 96.9745 1043.6 97.0782 1043.54 97.1708C1043.48 97.2664 1043.41 97.3491 1043.31 97.414C1043.22 97.4789 1043.12 97.5246 1043.01 97.5482L1042.44 97.681L1042.06 96.0455L1042.63 95.9127ZM1042.37 96.2198L1042.64 97.3877L1042.96 97.3144C1043.03 97.2983 1043.1 97.2665 1043.17 97.2212C1043.23 97.1759 1043.28 97.118 1043.32 97.0512C1043.4 96.9149 1043.43 96.7525 1043.39 96.598C1043.36 96.4435 1043.26 96.3088 1043.13 96.2222C1043.07 96.1796 1042.99 96.1508 1042.92 96.1378C1042.84 96.1248 1042.76 96.1278 1042.69 96.1465L1042.37 96.2198Z" fill="white"/>
<path d="M1044.39 95.5042L1044.65 95.4445L1045.03 97.08L1044.77 97.1395L1044.39 95.5042Z" fill="white"/>
<path d="M1045.89 95.3918C1046.01 95.1907 1046.2 95.062 1046.44 95.0055C1046.69 94.9491 1046.91 94.9829 1047.11 95.1068C1047.21 95.1667 1047.3 95.2451 1047.36 95.3376C1047.43 95.4301 1047.48 95.5348 1047.5 95.6457C1047.53 95.7566 1047.53 95.8715 1047.51 95.9838C1047.49 96.096 1047.45 96.2034 1047.39 96.2998C1047.26 96.501 1047.08 96.63 1046.83 96.6867C1046.59 96.7433 1046.36 96.7094 1046.16 96.5848C1046.06 96.525 1045.98 96.4465 1045.91 96.3541C1045.85 96.2616 1045.8 96.1568 1045.77 96.0459C1045.75 95.935 1045.75 95.8201 1045.76 95.7078C1045.78 95.5955 1045.82 95.4881 1045.89 95.3918ZM1046.31 96.3769C1046.43 96.4551 1046.58 96.4882 1046.72 96.4705C1046.87 96.4527 1047 96.3852 1047.1 96.2794C1047.2 96.1737 1047.26 96.0363 1047.27 95.8907C1047.28 95.7451 1047.24 95.6004 1047.16 95.4812C1047.08 95.362 1046.95 95.2758 1046.81 95.2373C1046.67 95.1987 1046.52 95.2103 1046.39 95.2699C1046.25 95.3295 1046.15 95.4336 1046.08 95.5643C1046.02 95.6949 1046 95.8442 1046.03 95.9864C1046.05 96.0669 1046.08 96.143 1046.13 96.2102C1046.18 96.2773 1046.24 96.3341 1046.31 96.3769Z" fill="white"/>
</g>
</g>
<defs>
<clipPath id="clip0_26024_445705">
<rect width="61.452" height="61.452" fill="white" transform="translate(1068.07 73) rotate(10.3742)"/>
</clipPath>
<clipPath id="clip1_26024_445705">
<rect width="33.7403" height="9.40792" fill="white" transform="translate(1014.24 95.041) rotate(-13.0508)"/>
</clipPath>
</defs>
</svg>
