<svg width="428" height="308" fill="none" xmlns="http://www.w3.org/2000/svg"><g clip-path="url(#a)"><path opacity=".3" d="m228.07 223.42-14.59 5.9" stroke="#0F0F0F" stroke-width=".5" stroke-miterlimit="10" stroke-linecap="round"/><path opacity=".2" d="m221.74 240.16-1.94-1.8a2.82 2.82 0 0 1-.27-3.88l4.48-3.63s1.68-2.28 3.68-1.93a9.838 9.838 0 0 1 6.29 4.89M281.03 206.45l-9.54 8.52" stroke="#0F0F0F" stroke-width=".5" stroke-miterlimit="10" stroke-linecap="round"/><path d="M41.39 291.01c12.156 0 22.01-9.518 22.01-21.26s-9.854-21.26-22.01-21.26c-12.156 0-22.01 9.518-22.01 21.26s9.854 21.26 22.01 21.26Z" fill="#EB92A7"/><path d="M63.39 291.01c6.456 0 11.69-5.055 11.69-11.29 0-6.235-5.234-11.29-11.69-11.29-6.456 0-11.69 5.055-11.69 11.29 0 6.235 5.234 11.29 11.69 11.29ZM19.38 291c6.219 0 11.26-4.867 11.26-10.87 0-6.003-5.041-10.87-11.26-10.87-6.219 0-11.26 4.867-11.26 10.87 0 6.003 5.041 10.87 11.26 10.87Z" fill="#EB92A7"/><path d="M82.6 291.87H.22s32.7-13.02 82.38 0Z" fill="#EB92A7"/><path d="M157.71 62.07c6 9.34-6.66 27.84-31.87 64.61C96.17 170 58.73 224.58 30.25 216 9.29 209.71-4 170 2.18 139.44c14.7-72.87 140.97-99.95 155.53-77.37Z" fill="#CBEBEF"/><path d="M57.55 270.75c.67 4.78 7.48 19 202.3 20.79 100.86.93 118.53-2.7 134.29-18.58 34.06-34.33 37.68-104.31 8.33-148.76-39.6-60-124.5-50.86-169.83-32.83a77.442 77.442 0 0 0-13.12 6.43C149.08 142.18 148.83 188.86 76 250.22 63.26 261 56.74 265 57.55 270.75Z" fill="#FBE9ED"/><path d="M120.88 274a.67.67 0 0 0 1.29-.35c-4-16.16-3-9.13-6.29-22.9-8.29-34.43.39-50.9 1-69.12.61-18.22-13.33-39.55-42.83-28.63C50 161.88 31 168.25 21.68 168a2.209 2.209 0 0 0-1.89 3.43c6.47 9.8 23.49 31.69 46.12 30.93 29.14-1 28.62-8.93 35.59-2 6.97 6.93 7.55 14.51 8.74 28.66 1.03 12.2 1.1 13.12 10.64 44.98Z" fill="#81D8EF"/><path d="M111.45 217.23a58.02 58.02 0 0 0 1.36-6.81c.331-2.286.528-4.59.59-6.9.189-4.66-.375-9.32-1.67-13.8a29.131 29.131 0 0 0-2.84-6.45 24.084 24.084 0 0 0-4.48-5.48 26.654 26.654 0 0 0-5.88-3.92c-1-.49-2.07-1-3.14-1.44-1.07-.44-2.14-.87-3.22-1.27a51.43 51.43 0 0 0-6.68-1.9 43.496 43.496 0 0 0-6.91-.81 44.451 44.451 0 0 0-6.92.31c-2.29.28-4.55.7-6.78 1.18-4.47 1-8.85 2.13-13.3 2.89a59.113 59.113 0 0 1-13.48.84.381.381 0 0 0-.41.36.4.4 0 0 0 .36.41c4.57.36 9.167.199 13.7-.48 4.54-.65 9-1.76 13.41-2.63a55.373 55.373 0 0 1 13.36-1.23c2.223.107 4.434.394 6.61.86a49.674 49.674 0 0 1 6.41 1.91c1 .41 2.08.81 3.1 1.28s2 .94 3 1.44a24.576 24.576 0 0 1 5.41 3.65 24.207 24.207 0 0 1 6.7 11.07 42.133 42.133 0 0 1 1.61 13.16 65.39 65.39 0 0 1-.51 6.69 57.227 57.227 0 0 1-1.23 6.57.92.92 0 0 0 .098.705.94.94 0 0 0 .929.451.927.927 0 0 0 .773-.686l.03.03Z" fill="#4DB9D6"/><path opacity=".5" d="M104.69 275a12.96 12.96 0 0 1-2.29-.62c-.758-.261-1.5-.568-2.22-.92a33.811 33.811 0 0 1-4.17-2.4 54.555 54.555 0 0 1-7.45-6.13 107.993 107.993 0 0 1-12.37-15c-1.91-2.65-3.78-5.33-5.81-7.93a33.756 33.756 0 0 0-7.06-7 18.43 18.43 0 0 0-4.48-2.3 17.713 17.713 0 0 0-4.93-.94 30.103 30.103 0 0 0-9.78 1.32.219.219 0 0 0-.15.26.239.239 0 0 0 .26.16 31.278 31.278 0 0 1 9.61-.85c1.582.151 3.137.504 4.63 1.05a17.447 17.447 0 0 1 4.15 2.3 33.983 33.983 0 0 1 6.61 6.92c2 2.57 3.78 5.29 5.67 8 1.89 2.71 3.82 5.32 5.88 7.89.52.64 1.07 1.26 1.6 1.89.53.63 1.06 1.26 1.64 1.85l1.69 1.81 1.78 1.72a48.006 48.006 0 0 0 7.86 6 28.485 28.485 0 0 0 4.45 2.24 16.238 16.238 0 0 0 4.85 1.23.277.277 0 0 0 .178-.076.282.282 0 0 0-.118-.474h-.03Z" fill="#fff"/><path d="M331.7 273.54s24.59 17.06 39.77 1.73c14.1-14.26 14-29.71 28.81-33.06a2.32 2.32 0 0 0 1.23-3.79c-4.6-5.25-15.91-14.38-35.56-7.89-26.66 8.81-34.25 43.01-34.25 43.01Z" fill="#EB92A7"/><path d="M333.62 272.8a14.947 14.947 0 0 0 4.53-.83 25.446 25.446 0 0 0 4.21-1.77 42.524 42.524 0 0 0 7.57-5.06l1.75-1.47 1.65-1.55c.57-.51 1.09-1.06 1.62-1.6a80 80 0 0 0 1.57-1.63c2-2.23 4-4.54 5.86-6.88 1.86-2.34 3.71-4.71 5.66-6.95a31.003 31.003 0 0 1 6.44-5.94 16.083 16.083 0 0 1 3.92-1.83 17.235 17.235 0 0 1 4.29-.69c2.965-.01 5.913.439 8.74 1.33.05.005.1-.008.142-.036a.217.217 0 0 0 .084-.263.217.217 0 0 0-.096-.111 27.612 27.612 0 0 0-8.88-1.81 16.132 16.132 0 0 0-4.58.56 16.713 16.713 0 0 0-4.25 1.83 31.104 31.104 0 0 0-6.9 6c-2 2.25-3.9 4.6-5.8 6.91A99.763 99.763 0 0 1 349 264a48.977 48.977 0 0 1-7.17 5.17 32.362 32.362 0 0 1-3.95 2c-.68.272-1.375.509-2.08.71-.692.208-1.402.355-2.12.44a.262.262 0 0 0-.106.029.272.272 0 0 0-.14.162.269.269 0 0 0-.014.109.302.302 0 0 0 .078.115.3.3 0 0 0 .122.065Z" fill="#FBE9ED"/><path d="M311.7 161.7s1.41-24.56 13.24-30.2c11.83-5.64 33.62-8 37.29-43.13 2.15-20.56 3.4-29.53 4.06-33.43a2.324 2.324 0 0 0-1.483-2.576 2.333 2.333 0 0 0-1.057-.134c-10.86 1.14-46.27 6.6-55.48 29.72-10.93 27.41 3.43 79.75 3.43 79.75Z" fill="#EB92A7"/><path d="M354.62 61.27a104.219 104.219 0 0 0-10 8.74l-1.18 1.16-1.16 1.19c-.78.8-1.55 1.59-2.3 2.41-1.51 1.62-3 3.3-4.42 5-1.42 1.7-2.84 3.41-4.17 5.19-1.33 1.78-2.66 3.55-4 5.36a126.348 126.348 0 0 0-7.08 11.32c-.53 1-1.07 2-1.58 3l-1.39 3.07-.7 1.53-.6 1.57-1.18 3.15-1 3.2-.49 1.6-.42 1.63c-.27 1.08-.57 2.16-.81 3.25l-.66 3.28a96.01 96.01 0 0 0-1.34 26.65 1 1 0 0 0 1.91-.12v-.06c-.149-4.337-.019-8.68.39-13 .4-4.328 1.037-8.632 1.91-12.89l.7-3.18c.26-1 .56-2.09.83-3.14l.42-1.57.49-1.54 1-3.09 1.16-3 .57-1.51.67-1.48 1.33-3c.49-1 1-1.9 1.51-2.85 1-1.92 2.15-3.77 3.25-5.65.55-.94 1.17-1.84 1.75-2.76.58-.92 1.16-1.84 1.79-2.73 2.42-3.63 5-7.13 7.7-10.58 1.37-1.7 2.74-3.41 4.17-5.06.69-.84 1.42-1.66 2.14-2.48l1.09-1.23L346 71.4c3-3.22 6-6.36 9.27-9.27a.526.526 0 0 0 .166-.385.523.523 0 0 0-.166-.385.55.55 0 0 0-.65-.09Z" fill="#FBE9ED"/><path d="M308.67 271.18c-2.3 1.32 20.63-31.59 25.31-81.3 2.2-23.42.41-52.48 12.91-64.52 10.4-10 48.18-6.51 60.57-5a1.844 1.844 0 0 1 1.535 1.243 1.835 1.835 0 0 1-.475 1.917c-5.56 5.3-17.38 17.73-19.91 29.66-3.33 15.72-17.39 26.47-30.37 30-12.98 3.53-20.13 6.54-25.2 28s-17.81 56.26-24.37 60Z" fill="#EB92A7"/><path d="M390.66 128a59.569 59.569 0 0 0-22.5 7.2 46.74 46.74 0 0 0-9.62 7.07 40.74 40.74 0 0 0-7.34 9.48l-.72 1.33c-.23.44-.43.9-.65 1.35-.22.45-.43.92-.62 1.37l-.57 1.36c-.76 1.81-1.52 3.63-2.25 5.45-1.48 3.64-2.9 7.307-4.26 11-2.73 7.37-5.22 14.84-7.25 22.45a.374.374 0 0 0 .053.261.378.378 0 0 0 .667-.041c1.24-3.71 2.53-7.42 3.9-11.09s2.75-7.34 4.18-11l2.17-5.46 2.23-5.44a384.14 384.14 0 0 1 2.26-5.42l.57-1.36c.2-.45.41-.87.61-1.31.2-.44.38-.87.61-1.3l.68-1.26a40.333 40.333 0 0 1 6.94-9.14 45.97 45.97 0 0 1 4.37-3.77l.57-.44.59-.42c.4-.28.78-.56 1.19-.83.8-.53 1.61-1.07 2.44-1.56a60.484 60.484 0 0 1 10.53-4.92 62.028 62.028 0 0 1 11.28-3 .299.299 0 0 0 .25-.34.3.3 0 0 0-.31-.22Z" fill="#FBE9ED"/><path d="M330.57 275c-1.41.74 8-15.42 8.7-29.66.7-14.24 3.93-38.53 16.21-53.07 12.28-14.54 25.72-15.86 42.66-2.65 14.12 11 22.93 16.57 28.09 17.6a1.996 1.996 0 0 1 1.345 1.108 1.998 1.998 0 0 1-.035 1.742c-3.31 6.1-12.68 20.11-28.4 19.13-20.06-1.26-44.37-14.3-51.78-3.42-7.41 10.88-6.46 17-6.69 22.12-.23 5.12-.73 22.1-10.1 27.1Z" fill="#EB92A7"/><path d="M392.42 207.09a39.08 39.08 0 0 0-3.49-3 46.39 46.39 0 0 0-3.76-2.59 37.249 37.249 0 0 0-8.31-3.93 26.042 26.042 0 0 0-4.56-1 19.276 19.276 0 0 0-4.74 0c-.39.06-.79.1-1.18.19-.39.09-.78.16-1.16.27l-2.22.69-2.16.84-2.11 1a26.517 26.517 0 0 0-7.32 5.74 32.612 32.612 0 0 0-5.06 7.71l-.5 1c-.18.35-.3.71-.45 1.06-.29.71-.6 1.41-.86 2.12l-.74 2.16c-.27.72-.43 1.46-.64 2.19a77.495 77.495 0 0 0-1.9 8.88.337.337 0 0 0 .27.39.35.35 0 0 0 .38-.25c.72-2.92 1.4-5.84 2.38-8.66.45-1.43 1-2.81 1.53-4.2.28-.69.6-1.36.9-2 .15-.33.28-.68.46-1l.52-1a33.337 33.337 0 0 1 5-7.21 25.613 25.613 0 0 1 6.9-5.26l2-.94 2.05-.78 2.1-.64c.35-.1.69-.16 1-.25.31-.09.7-.11 1.05-.17a17.044 17.044 0 0 1 4.27 0 24.15 24.15 0 0 1 4.26.86 41.29 41.29 0 0 1 8.13 3.44c1.3.72 2.59 1.47 3.84 2.28 1.25.81 2.48 1.68 3.65 2.58a.35.35 0 0 0 .49-.06.344.344 0 0 0 .08-.234.343.343 0 0 0-.1-.226Z" fill="#FBE9ED"/><path d="M297.38 251.92h-30.94V287a4.53 4.53 0 0 1-1.14 3v1.45h5.56v-39.53h26.52Z" fill="#E0AC69"/><path d="M314 274a1.847 1.847 0 0 0 1.848-2.192 1.854 1.854 0 0 0-1.446-1.47 1.85 1.85 0 0 0-2.222 1.812A1.842 1.842 0 0 0 314 274Z" fill="#F7CD97"/><path d="M320.9 251.92h-23.52 12.44a2.211 2.211 0 0 1 2.2 2.2v16a2.828 2.828 0 0 1 4.355.427 2.833 2.833 0 0 1-1.271 4.188 2.828 2.828 0 0 1-3.084-.615v15.16a2.178 2.178 0 0 1-2 2.18h11a3 3 0 0 0 3-2.95v-33.64a2.997 2.997 0 0 0-1.947-2.762 3.004 3.004 0 0 0-1.173-.188ZM270.86 291.51h26.47l-26.47-.04v.04ZM293.27 270.28a1.818 1.818 0 0 0-1.75 1.36h3.54a1.861 1.861 0 0 0-1.79-1.36Z" fill="#F7CD97"/><path d="M302.58 270.3a1.85 1.85 0 1 0 1.82 1.85 1.82 1.82 0 0 0-1.82-1.85Z" fill="#F7CD97"/><path d="M312 289.33v-15.16a2.836 2.836 0 0 1-.84-2c0-.372.074-.741.218-1.085.145-.343.356-.654.622-.915v-16a2.211 2.211 0 0 0-2.2-2.2h-38.94v39.55h39.08a2.18 2.18 0 0 0 2.06-2.19Zm-28.79-14.42h-2.31v-2.31h2.31v2.31Zm-5.28-2.61V270c.796 0 1.559-.316 2.121-.879a2.996 2.996 0 0 0 .879-2.121h2.3a5.294 5.294 0 0 1-3.3 4.908 5.301 5.301 0 0 1-2.04.392h.04Zm9.84 2.66c-1.37 0-2.45-.73-2.44-1.66v-.3h1v.27c0 .35.67.67 1.42.67.75 0 1.42-.31 1.42-.66 0-.35-.77-.5-1.39-.68-1.06-.31-2.27-.66-2.27-1.69 0-1.03 1-1.65 2.25-1.65S290 270 290 271v.27h-1V271c0-.36-.57-.67-1.23-.67s-1.22.31-1.22.66c0 .35.8.51 1.39.68 1.07.31 2.28.67 2.27 1.69-.01 1.02-1.11 1.64-2.48 1.64l.04-.04Zm8.38-2.33h-4.59a1.812 1.812 0 0 0 1.75 1.36 1.903 1.903 0 0 0 1.59-.74l.16-.2.83.57-.18.23a2.864 2.864 0 0 1-2.4 1.12 2.832 2.832 0 0 1-.519-5.608 2.827 2.827 0 0 1 2.898 1.215 2.83 2.83 0 0 1 .471 1.573l-.01.48Zm3.61-2.34h-1.66v3c0 .46.38.69 1.1.69h.52v1h-.51c-1.34 0-2.11-.61-2.12-1.67v-3h-.94v-1h.94V268h1v1.33h1.62l.05.96Zm2.86 4.69a2.844 2.844 0 0 1-2.625-1.756 2.84 2.84 0 1 1 5.465-1.074 2.857 2.857 0 0 1-.842 2.029 2.855 2.855 0 0 1-2.038.821l.04-.02Zm4.59-3.65V275h-1v-8h1v4.33Zm2.88 3.55-2.67-2.24v-1l2.82-2.33h1.53l-1 .86-2.36 2 3.35 2.84h-1.53l-.14-.13Z" fill="#F7CD97"/><path d="M287.9 271.62c-.59-.17-1.39-.41-1.39-.68 0-.27.57-.67 1.22-.66.65.01 1.23.31 1.23.67v.27h1V271c0-.91-1-1.66-2.24-1.66-1.24 0-2.25.74-2.25 1.65 0 .91 1.21 1.38 2.27 1.69.62.18 1.39.41 1.39.68 0 .27-.68.67-1.42.66-.74-.01-1.42-.32-1.42-.67V273h-1v.28c0 .93 1.07 1.65 2.44 1.66 1.37.01 2.44-.73 2.44-1.65 0-.92-1.17-1.36-2.27-1.67ZM293.28 269.3a2.83 2.83 0 0 0 0 5.66 2.857 2.857 0 0 0 2.4-1.12l.18-.23-.83-.57-.16.2a1.903 1.903 0 0 1-1.59.74 1.81 1.81 0 0 1-1.75-1.36h4.59v-.49a2.84 2.84 0 0 0-2.84-2.83Zm-1.76 2.34a1.82 1.82 0 0 1 2.874-.981c.323.246.557.59.666.981h-3.54Z" fill="#231F20"/><path d="M298.11 268h-1v1.33h-.94v1h.94v3c0 1.06.78 1.67 2.12 1.67h.51v-1h-.52c-.72 0-1.09-.23-1.1-.69v-3h1.62v-1h-1.64l.01-1.31Z" fill="#D7244F"/><path d="M302.59 269.31a2.837 2.837 0 0 0-2.631 1.746 2.84 2.84 0 1 0 5.461 1.094 2.847 2.847 0 0 0-2.83-2.84Zm0 4.69a1.85 1.85 0 1 1 .694-.144 1.831 1.831 0 0 1-.704.144h.01ZM314 275a2.822 2.822 0 0 0 2.347-1.26 2.84 2.84 0 0 0 .261-2.651 2.83 2.83 0 0 0-4.608-.929v4a2.794 2.794 0 0 0 2 .84Zm0-4.68a1.847 1.847 0 0 1 1.848 2.192 1.854 1.854 0 0 1-1.446 1.47 1.85 1.85 0 0 1-2.222-1.812 1.837 1.837 0 0 1 1.82-1.86v.01ZM312 274.17v-4a2.8 2.8 0 0 0 0 4ZM306.14 274.98h1.02v-1.46l.01-.88v-5.66h-1.02l-.01 8Z" fill="#D7244F"/><path d="m308.37 272.15 2.36-1.96 1-.86-1.53-.01-2.82 2.34v.98l2.67 2.24.14.11h1.53l-3.35-2.84ZM277.89 270v2.31a5.305 5.305 0 0 0 3.738-1.552 5.305 5.305 0 0 0 1.552-3.738h-2.3a3 3 0 0 1-2.99 2.98Z" fill="#D7244F"/><path d="m280.845 272.571-.003 2.31 2.31.003.003-2.31-2.31-.003Z" fill="#231F20"/><path d="M263 291.46h2.33V290a4.51 4.51 0 0 1-2.33 1.46Z" fill="#F1C27D"/><path d="m225.38 230.2-64.38-.1a3.407 3.407 0 0 0-3.41 3.41v18.41h17.86a3 3 0 0 1 2.95 3v33.69a3 3 0 0 1-2.78 2.94h8.62V230.2h41.14Zm-49.69 6.09h-10.48v-6.17h10.47l.01 6.17Z" fill="#E0AC69"/><path d="M184.23 291.61h41.06l-41.06-.06v.06ZM251.14 258.73c-.761 0-1.491.302-2.029.841a2.866 2.866 0 0 0 0 4.058 2.866 2.866 0 0 0 2.029.841 2.813 2.813 0 0 0 2.55-1.67v-2.4a2.82 2.82 0 0 0-2.55-1.67ZM248.07 233.64v24.84a4.392 4.392 0 0 1 3.1-1.28c.915.01 1.804.3 2.55.83v-4a2.203 2.203 0 0 1 2.2-2.2h10.54v-17.1a4.58 4.58 0 0 0-4.58-4.58h-36.5 19.29a3.398 3.398 0 0 1 2.433 1.03 3.413 3.413 0 0 1 .967 2.46ZM258.55 291.46h-2.71a2.183 2.183 0 0 1-1.552-.645 2.185 2.185 0 0 1-.638-1.555v-24.08a4.393 4.393 0 0 1-5.65-.46v23.52a3.389 3.389 0 0 1-3.13 3.38h17a4.567 4.567 0 0 0 1.11-.15h-4.42l-.01-.01Z" fill="#F7CD97"/><path d="M265.35 255.85h-6.75v-4h-2.7a2.2 2.2 0 0 0-2.2 2.2v4a4.348 4.348 0 0 1 1.365 1.558 4.35 4.35 0 0 1-1.365 5.582v24.08a2.206 2.206 0 0 0 .638 1.555 2.185 2.185 0 0 0 1.552.645h2.71v-4h6.76V290a4.524 4.524 0 0 0 1.14-3v-35.12h-1.08l-.07 3.97Z" fill="#F7CD97"/><path d="M254 261.6a2.99 2.99 0 0 0-.26-1.2v2.4a2.84 2.84 0 0 0 .26-1.2ZM258.6 255.84l6.75.01.01-3.98h-5.94l-.82-.01v3.98ZM258.55 287.48v4H263a4.513 4.513 0 0 0 2.3-1.48v-2.53l-6.75.01ZM248 288.23v-23.52a4.399 4.399 0 0 1-1.3-3.12 4.328 4.328 0 0 1 1.31-3.11v-24.84a3.419 3.419 0 0 0-.992-2.414 3.406 3.406 0 0 0-2.408-1.006h-60.38v61.35l41.06.06h19.57a3.389 3.389 0 0 0 3.14-3.4Zm-44.66-22.37h-3.58v-3.58h3.58v3.58Zm-8.2-4.05v-3.58a4.631 4.631 0 0 0 4.64-4.62h3.58a8.22 8.22 0 0 1-8.23 8.2h.01Zm15.27 4.12c-2.13 0-3.79-1.13-3.79-2.56v-.44h1.59v.43c0 .54 1 1 2.2 1 1.2 0 2.2-.49 2.2-1s-1.19-.77-2.15-1.05c-1.65-.48-3.52-1-3.53-2.62 0-1.41 1.57-2.56 3.49-2.55 1.92.01 3.48 1.15 3.48 2.56v.43h-1.6v-.43c0-.55-.88-1-1.89-1-1.01 0-1.9.48-1.9 1s1.24.78 2.15 1.05c1.66.49 3.54 1 3.53 2.63 0 1.43-1.67 2.56-3.79 2.55h.01Zm13-3.61h-7.12a2.8 2.8 0 0 0 2.71 2.11 3.008 3.008 0 0 0 2.47-1.15l.25-.32 1.29.89-.29.36a4.455 4.455 0 0 1-3.72 1.74 4.39 4.39 0 1 1 4.41-4.38v.75Zm5.6-3.62h-2.51v4.67c0 .71.59 1.07 1.72 1.07h.78V266h-.79c-2.08 0-3.28-.95-3.3-2.6v-4.67h-1.47v-1.53h1.47v-2.1h1.59v2.06h2.5l.01 1.54Zm4.43 7.27a4.402 4.402 0 0 1-3.081-7.522 4.398 4.398 0 0 1 4.796-.938 4.398 4.398 0 0 1 2.705 4.07 4.39 4.39 0 0 1-1.292 3.135A4.414 4.414 0 0 1 233.43 266l.01-.03Zm7.12-5.67v5.7H239v-12.41h1.58l-.02 6.71Zm4.47 5.51-4.14-3.46v-1.53l4.36-3.62h2.37l-1.54 1.33-3.66 3.06 5.19 4.4h-2.37l-.21-.18Z" fill="#F7CD97"/><path d="M219 258.68a2.822 2.822 0 0 0-2.72 2.11h5.49a2.88 2.88 0 0 0-2.77-2.11ZM233.44 258.7a2.869 2.869 0 1 0 2.82 2.88 2.86 2.86 0 0 0-.813-2.024 2.842 2.842 0 0 0-2.007-.856ZM210.66 260.75c-.91-.27-2.15-.63-2.15-1.05 0-.42.89-1 1.9-1 1.01 0 1.89.49 1.89 1v.43h1.59v-.43c0-1.41-1.56-2.56-3.48-2.56s-3.49 1.14-3.49 2.55c0 1.59 1.88 2.14 3.53 2.62 1 .28 2.16.63 2.15 1.05-.01.42-1 1-2.2 1-1.2 0-2.21-.5-2.2-1v-.43h-1.59v.44c0 1.43 1.66 2.56 3.79 2.56s3.79-1.12 3.79-2.55c.01-1.59-1.87-2.14-3.53-2.63Z" fill="#F7CD97"/><path d="M219 257.16a4.401 4.401 0 0 0-3.104 1.286 4.38 4.38 0 0 0-1.286 3.104 4.382 4.382 0 0 0 1.286 3.104A4.38 4.38 0 0 0 219 265.94a4.463 4.463 0 0 0 3.72-1.74l.29-.36-1.29-.89-.25.32a3.008 3.008 0 0 1-2.47 1.15 2.804 2.804 0 0 1-2.71-2.11h7.12v-.76a4.408 4.408 0 0 0-4.41-4.39Zm-2.72 3.63a2.821 2.821 0 0 1 2.72-2.11 2.878 2.878 0 0 1 2.77 2.11h-5.49ZM226.5 255.11h-1.59v2.07h-1.47v1.53h1.47v4.67c0 1.65 1.22 2.59 3.3 2.6h.79v-1.52h-.79c-1.13 0-1.7-.36-1.72-1.07v-4.67H229v-1.53h-2.51l.01-2.08Z" fill="#F7CD97"/><path d="M233.45 257.18c-.87 0-1.721.258-2.445.741a4.406 4.406 0 0 0-1.871 4.517 4.395 4.395 0 0 0 3.457 3.457 4.4 4.4 0 1 0 .859-8.715Zm0 7.26a2.868 2.868 0 0 1-2.87-3.402 2.872 2.872 0 0 1 2.247-2.28 2.87 2.87 0 0 1 3.443 2.822 2.85 2.85 0 0 1-2.83 2.86h.01ZM251.13 264.47a2.878 2.878 0 0 1-2.548-1.461 2.875 2.875 0 0 1 .072-2.937 2.875 2.875 0 0 1 2.615-1.336 2.875 2.875 0 0 1 2.421 1.664V258a4.487 4.487 0 0 0-2.55-.83c-1.162 0-2.277.46-3.1 1.28v6.23a4.392 4.392 0 0 0 5.65.46v-2.34a2.815 2.815 0 0 1-2.56 1.67Z" fill="#F7CD97"/><path d="M255.54 261.6a4.379 4.379 0 0 0-1.85-3.57v2.37c.169.378.257.786.26 1.2a2.846 2.846 0 0 1-.27 1.2v2.37a4.378 4.378 0 0 0 1.86-3.57ZM246.73 261.59a4.399 4.399 0 0 0 1.3 3.12v-6.23a4.319 4.319 0 0 0-1.3 3.11ZM238.96 265.97l1.58.01.01-2.28v-3.4l.01-6.74h-1.58l-.02 12.41Z" fill="#F7CD97"/><path d="m242.42 261.58 3.66-3.05 1.54-1.33h-2.37l-4.36 3.62-.01 1.53 4.14 3.46.22.17 2.37.01-5.19-4.41ZM195.13 258.23v3.58a8.216 8.216 0 0 0 5.805-2.401 8.217 8.217 0 0 0 2.415-5.799h-3.58a4.62 4.62 0 0 1-1.363 3.271 4.623 4.623 0 0 1-3.277 1.349ZM199.769 262.302l-.005 3.58 3.58.006.005-3.58-3.58-.006Z" fill="#F7CD97"/><path d="m165.202 230.088-.009 6.17 10.48.015.009-6.17-10.48-.015Z" fill="#F1C27D"/><path d="M151.92 251.92h-32v4h-6.75v-4h-2.7a2.195 2.195 0 0 0-2.035 1.356c-.11.268-.166.555-.165.844v35.19a2.188 2.188 0 0 0 1.35 2.032c.266.111.552.168.84.168h2.71v-4h6.75v4h5.56v-39.59h26.44Z" fill="#E0AC69"/><path d="M168.53 274a1.847 1.847 0 0 0 1.848-2.192 1.854 1.854 0 0 0-1.446-1.47 1.85 1.85 0 0 0-2.222 1.812 1.816 1.816 0 0 0 1.117 1.709c.223.093.462.141.703.141ZM157.58 251.92h-5.66l5.66.01v-.01ZM164.48 291.51h.65v-.18a2.104 2.104 0 0 1-.65.18Z" fill="#F7CD97"/><path d="M164.36 251.94a2.183 2.183 0 0 1 1.552.645 2.185 2.185 0 0 1 .638 1.555v16a2.84 2.84 0 1 1 2 4.84 2.787 2.787 0 0 1-2-.82v11.19h9.1v6.12a2.999 2.999 0 0 0 2.78-2.94v-33.66a3 3 0 0 0-2.95-3h-11.12v.07Z" fill="#F7CD97"/><path d="M166.51 285.36v4a2.158 2.158 0 0 1-.376 1.212 2.158 2.158 0 0 1-.994.788v.18h10.48v-6.12l-9.11-.06ZM125.4 291.51h26.47l-26.47-.04v.04ZM147.81 270.28a1.818 1.818 0 0 0-1.75 1.36h3.54a1.861 1.861 0 0 0-1.79-1.36ZM155.3 272.14a1.848 1.848 0 0 0 1.82 1.86c.146-.014.29-.045.43-.09v-3.52a1.506 1.506 0 0 0-.43-.09 1.838 1.838 0 0 0-1.82 1.84ZM158.94 272.15a1.81 1.81 0 0 0-1.39-1.76v3.52a1.818 1.818 0 0 0 1.39-1.76Z" fill="#F7CD97"/><path d="M157.53 288.1v-13.16c-.143.01-.287.01-.43 0a2.842 2.842 0 0 1-2.776-1.709 2.852 2.852 0 0 1 0-2.252 2.84 2.84 0 0 1 2.776-1.709c.144.007.288.024.43.05v-17.43H125.4v39.55h35.47a3.412 3.412 0 0 1-3.34-3.34Zm-19.82-13.19h-2.31v-2.31h2.31v2.31Zm-5.28-2.61V270c.796 0 1.559-.316 2.121-.879a2.996 2.996 0 0 0 .879-2.121h2.3a5.295 5.295 0 0 1-5.3 5.3Zm9.84 2.66c-1.37 0-2.45-.73-2.45-1.66v-.3h1v.27c0 .35.67.67 1.42.67.75 0 1.42-.31 1.42-.66 0-.35-.77-.5-1.39-.68-1.06-.31-2.27-.66-2.27-1.69 0-1.03 1-1.65 2.24-1.65 1.24 0 2.25.75 2.25 1.66v.27h-1V271c0-.36-.57-.67-1.23-.67s-1.22.31-1.22.66c0 .35.8.51 1.39.68 1.07.31 2.28.67 2.27 1.69-.01 1.02-1.06 1.64-2.43 1.64v-.04Zm8.38-2.33h-4.59a1.812 1.812 0 0 0 1.75 1.36 1.903 1.903 0 0 0 1.59-.74l.16-.2.83.57-.18.23a2.867 2.867 0 0 1-2.4 1.12 2.832 2.832 0 0 1-.519-5.608 2.827 2.827 0 0 1 2.898 1.215 2.83 2.83 0 0 1 .471 1.573l-.01.48Zm3.61-2.34h-1.62v3c0 .46.38.69 1.1.69h.51v1h-.51c-1.34 0-2.11-.61-2.12-1.67v-3h-.94v-1h.94V268h1v1.33h1.62l.02.96Z" fill="#F7CD97"/><path d="M165.14 285.36h1.37v-11.19a2.836 2.836 0 0 1-.84-2c0-.372.074-.741.218-1.085.145-.343.356-.654.622-.915v-16a2.188 2.188 0 0 0-1.35-2.032 2.183 2.183 0 0 0-.84-.168h-6.78v17.43a2.82 2.82 0 0 1 0 5.58v13.16a3.412 3.412 0 0 0 3.32 3.41h3.63c.225-.025.444-.085.65-.18v-6.01Zm-3.43-14V275h-1v-8h1v4.36Zm.21 1.31v-1l2.82-2.33h1.52l-1 .86-2.36 2 3.35 2.84h-1.53l-.15-.11-2.65-2.26Z" fill="#F7CD97"/><path d="M165.13 291.33a2.154 2.154 0 0 0 1.37-2v-4h-1.37v6ZM142.44 271.62c-.59-.17-1.39-.41-1.39-.68 0-.27.57-.67 1.22-.66.65.01 1.23.31 1.23.67v.27h1V271c0-.91-1-1.66-2.25-1.66s-2.25.66-2.25 1.6c0 .94 1.21 1.38 2.27 1.69.62.18 1.39.41 1.39.68 0 .27-.68.67-1.42.66-.74-.01-1.42-.32-1.42-.67v-.3h-1v.28c0 .93 1.08 1.65 2.45 1.66 1.37.01 2.44-.73 2.44-1.65 0-.92-1.2-1.36-2.27-1.67ZM147.81 269.3a2.828 2.828 0 0 0-2.001 4.831c.531.531 1.25.829 2.001.829a2.867 2.867 0 0 0 2.4-1.12l.18-.23-.83-.57-.16.2a1.905 1.905 0 0 1-1.59.74 1.812 1.812 0 0 1-1.75-1.36h4.59v-.49a2.845 2.845 0 0 0-.835-2.002 2.844 2.844 0 0 0-2.005-.828Zm-1.75 2.34a1.82 1.82 0 0 1 2.874-.981c.323.246.557.59.666.981h-3.54ZM152.65 268h-1v1.33h-.94v1h.94v3c0 1.06.78 1.67 2.12 1.67h.51v-1h-.51c-.72 0-1.09-.23-1.1-.69v-3h1.62v-1h-1.62l-.02-1.31Z" fill="#F7CD97"/><path d="M157.12 274a1.849 1.849 0 1 1 0-3.7c.147.009.292.039.43.09v-1a3.273 3.273 0 0 0-.43-.05 2.842 2.842 0 0 0-2.776 1.709 2.835 2.835 0 0 0 .66 3.193 2.842 2.842 0 0 0 2.116.768c.143.01.287.01.43 0v-1a2.059 2.059 0 0 1-.43-.01ZM160 272.15a2.829 2.829 0 0 0-2.4-2.79v1a1.814 1.814 0 0 1 1.388 1.76 1.81 1.81 0 0 1-1.388 1.76v1a2.84 2.84 0 0 0 2.4-2.73ZM168.52 275a2.822 2.822 0 0 0 2.347-1.26 2.84 2.84 0 0 0 .261-2.651 2.83 2.83 0 0 0-4.608-.929v4c.261.266.572.477.915.622a2.81 2.81 0 0 0 1.085.218Zm0-4.68a1.847 1.847 0 0 1 1.848 2.192 1.854 1.854 0 0 1-1.446 1.47 1.85 1.85 0 0 1-2.222-1.812 1.819 1.819 0 0 1 .525-1.313 1.83 1.83 0 0 1 1.305-.547l-.01.01Z" fill="#F7CD97"/><path d="M166.53 274.17v-4a2.819 2.819 0 0 0-.622.915 2.81 2.81 0 0 0-.218 1.085c.004.752.306 1.471.84 2ZM160.68 274.98h1.02v-1.46l.01-.88v-5.66h-1.02l-.01 8Z" fill="#F7CD97"/><path d="m166.26 274.99-3.35-2.84 2.36-1.96.99-.86-1.52-.01-2.82 2.34v.98l2.67 2.24.14.11h1.53ZM132.43 270v2.31a5.301 5.301 0 0 0 5.29-5.29h-2.3a3 3 0 0 1-2.99 2.98ZM135.402 272.571l-.003 2.31 2.31.003.003-2.31-2.31-.003ZM113.14 255.84l6.75.01.01-3.98h-5.94l-.82-.01v3.98ZM119.84 287.49l-6.75-.01v3.98h.81l5.94.01v-3.98Z" fill="#F7CD97"/><path d="m224.91 131.88-39.3-3.12-.39 4.88-8.28-.66.38-4.87 1 .08-4.32-.35a2.721 2.721 0 0 0-2.91 2.49l-3.42 43.18a2.713 2.713 0 0 0 1.471 2.633c.317.162.664.259 1.019.287l3.31.26.39-4.88 8.29.66-.39 4.87-7.29-.57 14.11 1.12 3.78-48.54 32.55 2.53Z" fill="#E0AC69"/><path d="M243.17 160.57a2.28 2.28 0 1 0-2-2.44 2.258 2.258 0 0 0 2 2.44Z" fill="#F7CD97"/><path d="M240.17 133.09a2.699 2.699 0 0 1 2.48 2.91l-1.56 19.65a3.49 3.49 0 1 1-.39 4.92l-1.09 13.74 11.18.88-.6 7.51a3.61 3.61 0 0 0 3.7-3.33l3.22-41.37a3.64 3.64 0 0 0-3.34-3.91l-21.92-1.7 8.32.7Z" fill="#F7CD97"/><path d="m239.61 174.31-.38 4.87a2.68 2.68 0 0 1-1.88 2.33v.21l12.66 1h.2l.6-7.51-11.2-.9ZM218.11 154a2.222 2.222 0 0 0-2.28 1.5l4.34.34a2.291 2.291 0 0 0-2.06-1.84ZM227.13 157a2.248 2.248 0 0 0 2.05 2.44c.178.005.357-.015.53-.06l.34-4.32a1.847 1.847 0 0 0-.52-.15 2.257 2.257 0 0 0-2.17 1.243c-.132.264-.21.552-.23.847ZM231.58 157.37a2.22 2.22 0 0 0-1.53-2.29l-.34 4.32a2.23 2.23 0 0 0 1.87-2.03Z" fill="#F7CD97"/><path d="m228.33 176.82 1.28-16.16c-.176.01-.353.01-.53 0a3.468 3.468 0 0 1-1.365-.324 3.477 3.477 0 0 1-1.836-2.047 3.485 3.485 0 0 1 .217-2.741 3.499 3.499 0 0 1 2.135-1.733c.454-.13.93-.165 1.399-.105.176.015.35.045.52.09l1.7-21.38-6.94-.55-32.55-2.53-3.78 48.54 32.48 2.57 11 .86a4.197 4.197 0 0 1-3.73-4.49Zm-23.06-18.09-2.83-.22.22-2.83 2.84.22-.23 2.83ZM199 155l.23-2.83a3.663 3.663 0 0 0 2.706-.847 3.677 3.677 0 0 0 1.294-2.523l2.83.23a6.519 6.519 0 0 1-2.286 4.456A6.511 6.511 0 0 1 199 155Zm11.83 4.21c-1.68-.14-2.93-1.13-2.84-2.27v-.34l1.25.1v.34c0 .43.77.89 1.68 1 .91.11 1.78-.25 1.81-.68.03-.43-.89-.69-1.64-1-1.27-.48-2.72-1-2.63-2.28.09-1.28 1.4-1.93 2.92-1.81 1.52.12 2.68 1.12 2.59 2.24v.34l-1.26-.1v-.34c0-.44-.64-.88-1.44-.94-.8-.06-1.53.27-1.56.7-.03.43.93.7 1.64 1 1.28.48 2.73 1 2.63 2.29-.1 1.29-1.44 1.9-3.12 1.77l-.03-.02Zm10.51-2.06-5.64-.45a2.244 2.244 0 0 0 2 1.84 2.3 2.3 0 0 0 1.093-.135c.349-.132.66-.346.907-.625l.22-.23 1 .78-.24.27a3.555 3.555 0 0 1-3.05 1.15 3.487 3.487 0 0 1-3.074-4.436 3.492 3.492 0 0 1 2.958-2.51 3.486 3.486 0 0 1 3.45 1.774c.335.604.483 1.294.426 1.982l-.05.59Zm4.65-2.52-2-.16-.3 3.69c0 .56.4.89 1.29 1l.63.05-.09 1.2h-.63c-1.64-.13-2.54-1-2.45-2.25l.29-3.7-1.16-.09.1-1.21 1.16.09.13-1.63 1.25.1-.13 1.63 2 .16-.09 1.12Z" fill="#F7CD97"/><path d="m237.93 174.18 1.68.13 1.09-13.74a3.474 3.474 0 0 1-.457-3.852c.209-.408.497-.771.847-1.068l1.56-19.65a2.697 2.697 0 0 0-1.465-2.624 2.706 2.706 0 0 0-1.015-.286l-8.32-.66-1.7 21.38a3.467 3.467 0 0 1 2.703 3.659 3.464 3.464 0 0 1-1.026 2.201 3.463 3.463 0 0 1-2.217.99l-1.28 16.16a4.203 4.203 0 0 0 3.75 4.5l4.46.34c.276-.009.549-.06.81-.15l.58-7.33Zm-2.87-17.55v.41l-.1 1.2-.08 1.08-.15 1.79-1.25-.09.78-9.83 1.25.1-.45 5.34Zm.14 1.63.09-1.2 3.68-2.6 1.87.15-1.3 1-3.08 2.19 3.83 3.8-1.87-.15-.17-.15-3.05-3.04Z" fill="#F7CD97"/><path d="M237.35 181.51a2.679 2.679 0 0 0 1.88-2.33l.38-4.87-1.68-.13-.58 7.33Z" fill="#F7CD97"/><path d="M211.39 155.15c-.71-.27-1.67-.64-1.64-1 .03-.36.76-.76 1.56-.7.8.06 1.47.5 1.44.94v.34l1.26.1v-.34c.09-1.12-1.07-2.12-2.59-2.24-1.52-.12-2.83.69-2.92 1.81-.09 1.12 1.36 1.8 2.63 2.28.75.28 1.67.64 1.64 1-.03.36-.89.75-1.81.68-.92-.07-1.71-.53-1.68-1v-.34l-1.25-.1v.34c-.09 1.14 1.16 2.13 2.84 2.27 1.68.14 3.07-.66 3.16-1.79.09-1.13-1.36-1.77-2.64-2.25ZM218.21 152.81a3.501 3.501 0 0 0-2.641.752 3.499 3.499 0 0 0-1.109 3.821 3.5 3.5 0 0 0 1.827 2.049c.428.2.891.312 1.363.328a3.559 3.559 0 0 0 3.05-1.15l.24-.27-1-.78-.22.23a2.308 2.308 0 0 1-2 .76 2.241 2.241 0 0 1-2-1.84l5.64.45v-.6a3.492 3.492 0 0 0-3.15-3.75Zm-2.38 2.71a2.223 2.223 0 0 1 2.28-1.5 2.288 2.288 0 0 1 2.06 1.84l-4.34-.34Z" fill="#231F20"/><path d="m224.26 151.65-1.25-.1-.13 1.63-1.16-.09-.1 1.21 1.16.09-.29 3.7c-.09 1.3.81 2.12 2.45 2.25h.63l.09-1.2-.63-.05c-.89-.07-1.32-.4-1.29-1l.3-3.69 2 .16.1-1.21-2-.16.12-1.54Z" fill="#D7244F"/><path d="M229.18 159.46a2.273 2.273 0 1 1 .35-4.53c.18.024.355.075.52.15l.1-1.27a3.041 3.041 0 0 0-.52-.09 3.496 3.496 0 0 0-3.534 1.838 3.502 3.502 0 0 0-.217 2.741 3.492 3.492 0 0 0 3.201 2.371c.177.01.354.01.53 0l.1-1.26a1.927 1.927 0 0 1-.53.05Z" fill="#D7244F"/><path d="M232.84 157.47a3.503 3.503 0 0 0-2.69-3.66l-.1 1.27a2.229 2.229 0 0 1-.34 4.32l-.1 1.26a3.488 3.488 0 0 0 3.23-3.19ZM243.08 161.78a3.488 3.488 0 0 0 2.686-5.998 3.48 3.48 0 0 0-3.168-.889 3.484 3.484 0 0 0-1.518.757l-.39 4.92a3.481 3.481 0 0 0 2.39 1.21Zm.45-5.75a2.275 2.275 0 0 1 2.065 2.868 2.285 2.285 0 0 1-1.916 1.67 2.283 2.283 0 0 1-2.559-2.438 2.26 2.26 0 0 1 2.41-2.13v.03Z" fill="#D7244F"/><path d="m240.7 160.57.39-4.92a3.485 3.485 0 0 0-1.218 2.379 3.467 3.467 0 0 0 .828 2.541ZM233.45 161.02l1.26.1.14-1.8.08-1.08.1-1.2.03-.41.42-5.34-1.25-.1-.78 9.83Z" fill="#D7244F"/><path d="m240.29 161.56-3.83-3.8 3.08-2.19 1.3-.96-1.87-.15-3.68 2.6-.09 1.2 3.05 3 .17.15 1.87.15ZM199.26 152.19 199 155a6.502 6.502 0 0 0 4.745-1.547A6.524 6.524 0 0 0 206 149l-2.83-.23a3.668 3.668 0 0 1-2.488 3.236 3.673 3.673 0 0 1-1.422.184Z" fill="#D7244F"/><path d="m202.655 155.665-.224 2.831 2.831.225.225-2.831-2.832-.225Z" fill="#231F20"/><path d="m176.94 132.99 8.28.65.39-4.88-7.29-.57-1-.08-.38 4.88ZM182.15 172.47l-8.29-.66-.39 4.88 1 .08 7.29.57.39-4.87Z" fill="#F1C27D"/><path d="M217.87 232.11s2.75-7.22 5.95-6.56a21.958 21.958 0 0 1 6.72 3.12l5.15 7s-14.46 5.7-19.55 2.43a111.315 111.315 0 0 1-33.42-.51 73.324 73.324 0 0 0 5.28-15.86c9.42 5.34 19.6 9.34 29.87 10.38Z" fill="#F2AA91"/><path d="M139.64 179.7s21.15 26.63 48.34 42a73.364 73.364 0 0 1-5.26 15.83c-14.1-2.31-30.43-7.84-44.27-20.11l1.19-37.72Z" fill="#008FCA"/><path d="m297 182.25 1.28 35.26a97.281 97.281 0 0 1-10.4 3.8c-2.61-6.63-7.87-14.62-12.13-20.54 13.57-5.97 21.25-18.52 21.25-18.52Z" fill="#D7244F"/><path d="M223.12 184.88a7.054 7.054 0 0 0-6.41-1.16c-4 1.05-7.56 2.74-10.27.76-2.71-1.98-3.38 1-3.38 1l8.05 5.24 12.01-5.84Z" fill="#F9B384"/><path d="M228 188.6s-2-6.21-6.47-5-14.43 7.59-17.17 6.75c-2.74-.84-6.34-3.07-8-2.06l3.37 3.6s-8.26-4-9.42-1.07l13.69 6.43s19.14-3.35 24-8.65Z" fill="#F9B384"/><path d="m303.84 155.27-.55-.1a1.234 1.234 0 0 1-.836-.539 1.225 1.225 0 0 1-.164-.981c.68-2.67 1.83-8.69-1.57-9.25-4.39-.73-21-.31-25.74-5.16-4.54-4.66-3.23-12.32.7-15.32a.619.619 0 0 1 .85.08l.52.6a.606.606 0 0 0 .656.179.611.611 0 0 0 .414-.539.61.61 0 0 1 1-.4c1.44 1.44 4.91 3.52 12.84 3.18 11.27-.5 19.42 2.23 21.32 9.66a.61.61 0 0 0 .729.425.611.611 0 0 0 .271-.145c.69-.67 1.91-1.19 3.95-.15 3.54 1.82 3.82 8.57-1.47 15.39a.606.606 0 0 0-.15.569.613.613 0 0 0 .4.431c1.36.5 3.54 1.92-.46 5.4-4 3.48-7.7 4.21-9.11 4.3a.606.606 0 0 1-.451-.168.612.612 0 0 1-.189-.442l-.07-6.9a.603.603 0 0 0-.23-.471.615.615 0 0 0-.51-.119l-2.15.47Z" fill="#231F20"/><path d="M236.65 243.55s-9.25 7.51-11 6.42a29.742 29.742 0 0 1-3.8-3.38 2.861 2.861 0 0 1-.27-3.88l4.48-3.63c2.08-2.66 4.23-2.38 7.12-.3a9.447 9.447 0 0 1 3.47 4.77Z" fill="#F2AA91"/><path d="M114.84 288.6s.94-24.28 20.55-59.1a55.857 55.857 0 0 0 6.4-35.93l-2.15-13.87s-26.91-9.11-56.74-.38c0 0-42.18 24.81-14.54 112.12 4.07 1.45 13-1.18 23.37-1.13 10.64.06 18.79.28 23.11-1.71Z" fill="#008FCA"/><path d="M117.85 240.77a1.557 1.557 0 0 1 1 2.22l-20.19 38.7a1.53 1.53 0 0 1-1.8.77l-66-19.06a1.544 1.544 0 0 1-.928-.74 1.56 1.56 0 0 1-.132-1.18l11.37-39.37A1.551 1.551 0 0 1 43 221l74.85 19.77Z" fill="#46B8E0"/><path d="M113.59 236.22a1.628 1.628 0 0 1 1.15 2.14l-16.16 43.89a1.618 1.618 0 0 1-2 1l-65.84-19a1.64 1.64 0 0 1-1.13-1.91l9.12-42.24a1.623 1.623 0 0 1 1.347-1.276c.218-.032.44-.02.653.036l72.86 17.36Z" fill="#36A8DB"/><path d="M107.86 231.79a1.99 1.99 0 0 1 1.361.858 1.997 1.997 0 0 1 .289 1.582l-11 47.38a2.007 2.007 0 0 1-.938 1.276 1.988 1.988 0 0 1-1.572.194l-64.81-18.71a2.001 2.001 0 0 1-1.38-2.43l10-38.68a1.998 1.998 0 0 1 2.19-1.48l65.86 10.01Z" fill="#0374B5"/><path d="M55.37 249.86c-5-38 24.27-67.24 24.27-67.24l17.42 20.32c-13.23 16.49-19.52 31.61-22.39 43.48-3.81-1.11-12.99-2.87-19.3 3.44Z" fill="#008FCA"/><path opacity=".3" d="M74.67 246.86a.44.44 0 0 0 .43-.34c3.57-14.72 11.07-29.29 22.31-43.3a.438.438 0 0 0 .097-.326.45.45 0 0 0-.162-.299.447.447 0 0 0-.492-.046.454.454 0 0 0-.133.111c-11.33 14.11-18.89 28.8-22.48 43.65a.437.437 0 0 0 .163.466c.047.035.1.06.157.074l.11.01Z" fill="#0F0F0F"/><path d="M74.67 246.42a69.684 69.684 0 0 0-2 23.19 3.003 3.003 0 0 0 2.83 2.74c1.68.12 4 .28 6 .4 2.26.13 4.76-1.3 6.44-2.49a1 1 0 0 1 1.48 1.27c-1.25 2.45-4.42 4.62-6.61 5.9a1 1 0 0 0 .24 1.91l9.41 2.66C77.09 296.47 67 280.27 67 280.27a73.334 73.334 0 0 1-11.58-30.41c6.26-6.31 15.44-4.55 19.25-3.44Z" fill="#F2AA91"/><path d="M111.74 168c-1.2-2.8-3.26-5.14-4.89-7.73a28.23 28.23 0 0 1-4.26-13.65c-.26-2.7.301-5.415 1.61-7.79 1.43-2.28 4.21-3.87 6.84-3.26-.72-3.11.54-6.42 2.63-8.84a24.563 24.563 0 0 1 7.77-5.48c4.08-2 9-3.7 13.06-1.61 5 2.57 5.91 9.27 9.29 13.76a8.23 8.23 0 0 1 1.32 2.06 2.003 2.003 0 0 1-.47 2.24c-.66.49-3.36 1.06-3.35.24l-4.45 24.27-25.1 5.79Z" fill="#231F20"/><path d="M138.78 136.94s2.89 24.29-3.24 33.14c-6.13 8.85-13.43-.72-13.43-.72l.78 10.61s-8.93 4.37-17.52-.51c0 0 7.9-5.06 5.61-22.08 0 0-8.26-5.14-1.92-11.46 6.34-6.32 5 3.67 5 3.67s4.94-31.92 24.72-12.65Z" fill="#F2AA91"/><path opacity=".2" d="M55.11 88.42h73.27a2.839 2.839 0 0 0 2.84-2.84 2.842 2.842 0 0 0-2.84-2.83H55.11a2.84 2.84 0 0 0-2.84 2.83 2.84 2.84 0 0 0 2.84 2.84Z" fill="#fff"/><path opacity=".53" d="M46.3 99.52h73.28a2.828 2.828 0 0 0 2.83-2.83 2.842 2.842 0 0 0-2.83-2.84H46.3a2.84 2.84 0 0 0-2 4.841c.53.53 1.25.829 2 .829ZM67.14 121.74h52.44a2.843 2.843 0 0 0 2.83-2.84 2.828 2.828 0 0 0-2.83-2.83H67.14a2.829 2.829 0 0 0-2.83 2.83 2.83 2.83 0 0 0 2.83 2.84Z" fill="#fff"/><path opacity=".2" d="M38.09 110.63h73.27a2.837 2.837 0 0 0 2.84-2.84 2.843 2.843 0 0 0-2.84-2.83H38.09a2.842 2.842 0 0 0-2.84 2.83 2.843 2.843 0 0 0 2.84 2.84Z" fill="#fff"/><path d="m345.82 187.18 1.09.43a.368.368 0 0 0 .497-.338.368.368 0 0 0-.109-.255.37.37 0 0 0-.118-.077l-1.12-.44a.351.351 0 0 0-.279.006.368.368 0 0 0-.191.204.372.372 0 0 0 .21.47h.02ZM350.09 189.12l1 .58a.372.372 0 0 0 .5-.13.365.365 0 0 0 .037-.284.374.374 0 0 0-.177-.226l-1-.58a.35.35 0 0 0-.28-.036.364.364 0 0 0-.22.176.356.356 0 0 0-.036.275.354.354 0 0 0 .176.215v.01ZM354.05 191.64l.94.7a.37.37 0 1 0 .45-.59l-1-.72a.361.361 0 0 0-.132-.078.365.365 0 0 0-.48.269.375.375 0 0 0 .059.295c.03.042.069.077.113.104l.05.02ZM357.67 194.64l.84.82a.38.38 0 0 0 .613-.121.378.378 0 0 0 0-.288.373.373 0 0 0-.083-.121l-.86-.84a.38.38 0 0 0-.53 0 .388.388 0 0 0 0 .54l.02.01ZM360.9 198.06l.74.91a.376.376 0 0 0 .26.137.395.395 0 0 0 .28-.087.376.376 0 0 0 .137-.26.39.39 0 0 0-.087-.28l-.76-.92a.379.379 0 0 0-.535-.055.38.38 0 0 0-.055.535l.02.02ZM363.73 201.81l.65 1a.379.379 0 0 0 .53.11.392.392 0 0 0 .11-.54l-.66-1a.393.393 0 0 0-.242-.166.388.388 0 0 0-.398.596h.01ZM366.17 205.84l.54 1a.381.381 0 0 0 .232.19.39.39 0 0 0 .298-.03.389.389 0 0 0 .196-.224.374.374 0 0 0-.026-.296l-.56-1.06a.383.383 0 0 0-.226-.19c-.049-.014-.1-.02-.15-.014a.396.396 0 0 0-.336.275.398.398 0 0 0 .022.299l.01.05ZM368.19 210.1l.44 1.09a.396.396 0 0 0 .529.243.393.393 0 0 0 .25-.386.391.391 0 0 0-.039-.157l-.45-1.11a.4.4 0 0 0-.74.3l.01.02ZM369.79 214.53l.33 1.13a.395.395 0 0 0 .191.245.389.389 0 0 0 .309.035.409.409 0 0 0 .27-.5l-.34-1.15a.403.403 0 0 0-.344-.285.394.394 0 0 0-.392.211.412.412 0 0 0-.034.304l.01.01ZM371 219.09l.22 1.15a.422.422 0 0 0 .48.33.422.422 0 0 0 .32-.48l-.23-1.18a.386.386 0 0 0-.168-.258.395.395 0 0 0-.302-.062.42.42 0 0 0-.32.48v.02ZM371.66 223.74l.11 1.17a.405.405 0 0 0 .289.358.397.397 0 0 0 .161.012.41.41 0 0 0 .37-.44l-.11-1.2a.416.416 0 0 0-.148-.278.407.407 0 0 0-.142-.076.4.4 0 0 0-.314.031.417.417 0 0 0-.2.243c-.016.052-.021.106-.016.16v.02ZM371.9 228.44v1.17a.428.428 0 0 0 .41.43.415.415 0 0 0 .296-.116.415.415 0 0 0 .124-.294v-1.19a.415.415 0 0 0-.117-.296.41.41 0 0 0-.293-.124.424.424 0 0 0-.294.119.424.424 0 0 0-.126.291v.01ZM371.66 233.14l-.13 1.17a.418.418 0 0 0 .37.46.433.433 0 0 0 .47-.37l.13-1.19a.416.416 0 0 0-.198-.454.428.428 0 0 0-.341-.037.415.415 0 0 0-.255.23.42.42 0 0 0-.036.171l-.01.02ZM371 237.79l-.24 1.15a.428.428 0 0 0 .32.51.428.428 0 0 0 .51-.33l.24-1.17a.422.422 0 0 0-.325-.505.422.422 0 0 0-.505.325v.02ZM369.84 242.36l-.35 1.13a.44.44 0 0 0 .28.54.428.428 0 0 0 .54-.29l.36-1.14a.438.438 0 0 0-.618-.512.43.43 0 0 0-.212.252v.02ZM368.3 246.81l-.45 1.09a.44.44 0 0 0-.001.336.427.427 0 0 0 .241.234.45.45 0 0 0 .57-.24l.45-1.11a.441.441 0 0 0-.81-.33v.02ZM366.37 251.11l-.54 1a.45.45 0 0 0 .79.41l.54-1.06a.432.432 0 0 0-.19-.59.44.44 0 0 0-.59.19l-.01.05ZM364.07 255.22l-.63 1a.446.446 0 0 0-.057.334.434.434 0 0 0 .197.276.45.45 0 0 0 .62-.14l.64-1a.45.45 0 0 0-.76-.47h-.01ZM361.42 259.11l-.71.93a.453.453 0 1 0 .72.55l.72-1a.46.46 0 0 0-.08-.63.447.447 0 0 0-.63.08l-.02.07ZM358.44 262.76l-.79.86a.467.467 0 0 0-.12.331.47.47 0 0 0 .15.319.467.467 0 0 0 .331.12.474.474 0 0 0 .319-.15l.8-.89a.45.45 0 0 0 .117-.326.45.45 0 0 0-.473-.432.455.455 0 0 0-.314.148l-.02.02ZM355.16 266.12l-.87.8a.463.463 0 0 0-.03.65.463.463 0 0 0 .65.03l.88-.81a.468.468 0 0 0 .189-.327.451.451 0 0 0-.12-.359.46.46 0 0 0-.689.016h-.01ZM351.58 269.17l-.94.71a.469.469 0 0 0-.169.487.457.457 0 0 0 .214.283.479.479 0 0 0 .171.06.48.48 0 0 0 .344-.09l1-.72a.47.47 0 0 0 .176-.308.46.46 0 0 0-.096-.342.469.469 0 0 0-.305-.186.456.456 0 0 0-.345.096l-.05.01ZM347.72 271.87l-1 .61a.464.464 0 0 0-.216.478c.01.061.033.12.066.172a.462.462 0 0 0 .47.215.458.458 0 0 0 .17-.065l1-.63a.451.451 0 0 0 .215-.286.452.452 0 0 0-.055-.354.464.464 0 0 0-.478-.216.48.48 0 0 0-.172.066v.01ZM343.63 274.17l-1.06.51a.472.472 0 0 0 .41.85l1.08-.52a.48.48 0 0 0 .11-.778.482.482 0 0 0-.342-.119.48.48 0 0 0-.178.047l-.02.01ZM339.32 276.06l-1.1.41a.49.49 0 0 0-.29.62.486.486 0 0 0 .62.28l1.12-.42a.485.485 0 0 0 .267-.247.47.47 0 0 0 .013-.363.462.462 0 0 0-.247-.266.466.466 0 0 0-.363-.014h-.02ZM334.85 277.53l-1.13.3a.488.488 0 0 0-.35.6.49.49 0 0 0 .6.34l1.15-.31a.48.48 0 0 0-.25-.93h-.02ZM330.27 278.58l-1.16.2a.478.478 0 0 0-.396.37.468.468 0 0 0-.004.19.483.483 0 0 0 .369.396.491.491 0 0 0 .191.004l1.18-.2a.49.49 0 0 0 .331-.74.503.503 0 0 0-.309-.216.496.496 0 0 0-.192-.004h-.01ZM325.61 279.21l-1.17.1a.502.502 0 0 0 .08 1l1.19-.1a.49.49 0 0 0 .342-.175.488.488 0 0 0 .095-.171.489.489 0 0 0-.03-.382.492.492 0 0 0-.293-.249.489.489 0 0 0-.194-.023h-.02ZM320.91 279.43h-1.19a.501.501 0 0 0 0 1h1.2a.5.5 0 0 0 0-1h-.01ZM274.76 258.84l-.85-.81a.527.527 0 0 0-.844.167.519.519 0 0 0 0 .396c.027.063.065.12.114.167l.86.82a.517.517 0 0 0 .365.154.515.515 0 0 0 .365-.154.52.52 0 0 0 0-.72l-.01-.02ZM271.39 255.53l-.83-.84a.529.529 0 0 0-.73 0 .519.519 0 0 0 0 .73l.84.85a.491.491 0 0 0 .36.153.5.5 0 0 0 .36-.153.506.506 0 0 0 .114-.563.517.517 0 0 0-.114-.167v-.01ZM268.12 252.11l-.8-.87a.523.523 0 0 0-.692.011.525.525 0 0 0-.166.332.523.523 0 0 0 .098.357l.81.88a.52.52 0 0 0 .357.163.512.512 0 0 0 .393-.863v-.01ZM265 248.59l-.78-.89a.519.519 0 0 0-.73 0 .496.496 0 0 0-.125.159.505.505 0 0 0 .075.571l.78.9a.519.519 0 0 0 .73 0 .513.513 0 0 0 .153-.555.5.5 0 0 0-.103-.175v-.01ZM261.85 245l-.77-.91a.52.52 0 1 0-.79.67l.77.91a.52.52 0 0 0 .79-.67ZM258.81 241.37l-.76-.91a.496.496 0 0 0-.551-.176.52.52 0 0 0-.249.826l.76.91a.516.516 0 0 0 .706.041.523.523 0 0 0 .094-.701v.01ZM255.8 237.7l-.74-.92a.522.522 0 0 0-.941.261.525.525 0 0 0 .131.389l.75.92a.518.518 0 0 0 .348.195.499.499 0 0 0 .382-.115.519.519 0 0 0 .07-.73ZM252.82 234l-.74-.93a.532.532 0 0 0-.703-.034.527.527 0 0 0-.117.694l.75.92a.521.521 0 0 0 .907-.471.52.52 0 0 0-.097-.179ZM249.84 230.31l-.74-.93a.532.532 0 0 0-.703-.034.527.527 0 0 0-.117.694l.75.92a.522.522 0 0 0 .713.059.518.518 0 0 0 .097-.709ZM246.85 226.62l-.75-.92a.525.525 0 0 0-.735-.075.52.52 0 0 0-.075.735l.75.92a.523.523 0 1 0 .81-.66ZM243.83 223l-.77-.91a.505.505 0 0 0-.561-.172.5.5 0 0 0-.179.102.526.526 0 0 0-.185.357.512.512 0 0 0 .125.383l.76.91a.53.53 0 0 0 .81-.67ZM240.75 219.32l-.77-.9a.536.536 0 0 0-.368-.24.53.53 0 0 0-.432.92l.78.89a.525.525 0 0 0 .558.155.51.51 0 0 0 .302-.26.518.518 0 0 0-.07-.575v.01ZM237.62 215.74l-.8-.89a.54.54 0 0 0-.375-.155.528.528 0 0 0-.489.726.51.51 0 0 0 .114.169l.79.88a.54.54 0 0 0 .375.156.522.522 0 0 0 .375-.156.53.53 0 0 0 .01-.73ZM234.39 212.23l-.82-.86a.514.514 0 0 0-.37-.155.516.516 0 0 0-.37.155.525.525 0 0 0-.115.578.525.525 0 0 0 .115.172l.82.86a.525.525 0 0 0 .599.175.527.527 0 0 0 .35-.517.532.532 0 0 0-.189-.388l-.02-.02ZM231.07 208.82l-.85-.84a.528.528 0 0 0-.907.148.53.53 0 0 0 .167.602l.84.83a.54.54 0 0 0 .375.155.521.521 0 0 0 .375-.155.522.522 0 0 0 0-.74ZM227.63 205.51l-.88-.8a.53.53 0 1 0-.75.75l.87.79a.53.53 0 0 0 .75-.04.533.533 0 0 0-.04-.75l.05.05ZM224.06 202.35l-.91-.77a.549.549 0 0 0-.75.07.542.542 0 0 0 .06.75l.9.76a.538.538 0 0 0 .75-.06.548.548 0 0 0-.05-.75ZM220.34 199.35l-1-.72a.517.517 0 0 0-.74.11.532.532 0 0 0 .1.74l.94.71a.537.537 0 0 0 .75-.1.532.532 0 0 0-.05-.74ZM216.47 196.55l-1-.66a.536.536 0 0 0-.698.177.54.54 0 0 0 .098.713l1 .66a.526.526 0 0 0 .401.078.533.533 0 0 0 .189-.968h.01ZM212.45 194l-1-.61a.548.548 0 0 0-.74.19.537.537 0 0 0 .19.73l1 .6a.527.527 0 0 0 .592-.034.53.53 0 0 0-.042-.876ZM208.28 191.64l-1.06-.55a.524.524 0 0 0-.72.23.52.52 0 0 0-.036.408.541.541 0 0 0 .266.312l1.05.54a.538.538 0 0 0 .72-.23.53.53 0 0 0-.22-.71ZM204 189.53l-1.1-.53a.546.546 0 1 0-.44 1l1.08.48a.546.546 0 1 0 .44-1l.02.05ZM199.6 187.66l-1.12-.43a.52.52 0 0 0-.41.01.526.526 0 0 0-.28.3.539.539 0 0 0 .3.7l1.1.42a.528.528 0 0 0 .69-.3.536.536 0 0 0 .002-.407.536.536 0 0 0-.282-.293ZM195.1 186l-1.13-.37a.535.535 0 0 0-.351.08.535.535 0 0 0-.219.643.54.54 0 0 0 .23.277l1.12.36a.535.535 0 0 0 .668-.088.546.546 0 0 0 .146-.444.538.538 0 0 0-.484-.468l.02.01ZM190.53 184.66l-1.16-.3a.532.532 0 0 0-.569.19.537.537 0 0 0 .108.759.526.526 0 0 0 .191.091l1.14.3a.537.537 0 0 0 .569-.199.561.561 0 0 0 .091-.191.53.53 0 0 0-.37-.65ZM185.88 183.54l-1.17-.24a.541.541 0 0 0-.21 1l1.16.23a.539.539 0 0 0 .554-.83.535.535 0 0 0-.344-.23l.01.07ZM181.19 182.66l-1.18-.18a.546.546 0 0 0-.55.258.559.559 0 0 0-.07.202.557.557 0 0 0 .45.62l1.17.17a.53.53 0 0 0 .61-.45.536.536 0 0 0-.43-.62ZM176.45 182l-1.19-.11a.528.528 0 0 0-.59.48.553.553 0 0 0 .49.6l1.17.11a.538.538 0 0 0 .59-.49.548.548 0 0 0-.47-.59ZM171.69 181.67h-1.19a.553.553 0 0 0-.505.523.548.548 0 0 0 .455.567h1.17a.555.555 0 0 0 .392-.143.555.555 0 0 0 .178-.377.549.549 0 0 0-.5-.57ZM166.91 181.56h-1.19a.549.549 0 0 0 0 1.09h1.19a.523.523 0 0 0 .505-.339.524.524 0 0 0 .035-.211.548.548 0 0 0-.54-.54ZM162.14 181.7l-1.19.08a.55.55 0 0 0-.327.957.537.537 0 0 0 .397.133l1.18-.08a.556.556 0 0 0 .334-.203.556.556 0 0 0 .115-.373.553.553 0 0 0-.519-.514h.01ZM157.38 182.1l-1.19.14a.552.552 0 0 0-.48.61.56.56 0 0 0 .61.48l1.17-.14a.565.565 0 0 0 .363-.208.565.565 0 0 0 .117-.402.549.549 0 0 0-.59-.48ZM152.65 182.75l-1.18.21a.547.547 0 0 0-.45.63.56.56 0 0 0 .64.45l1.16-.21a.549.549 0 0 0 .198-.963.549.549 0 0 0-.378-.117h.01ZM148 183.66l-1.17.27a.543.543 0 0 0-.42.445.556.556 0 0 0 .255.557.554.554 0 0 0 .415.068l1.15-.27a.554.554 0 0 0 .375-.646.551.551 0 0 0-.615-.424h.01ZM143.32 184.82l-1.15.34a.547.547 0 0 0-.321.666.545.545 0 0 0 .631.384l1.13-.32a.542.542 0 0 0 .37-.68.561.561 0 0 0-.66-.39ZM138.76 186.24l-1.13.4a.553.553 0 0 0-.204.638.55.55 0 0 0 .564.362l1.11-.39a.561.561 0 0 0 .417-.251.553.553 0 0 0-.296-.821.552.552 0 0 0-.481.072l.02-.01ZM134.28 187.91l-1.1.46a.531.531 0 0 0-.303.296.552.552 0 0 0 .003.424.558.558 0 0 0 .509.342.548.548 0 0 0 .211-.042l1.08-.46a.546.546 0 0 0 .213-.677.555.555 0 0 0-.633-.323l.02-.02ZM129.9 189.83l-1.07.51a.552.552 0 0 0-.26.74.543.543 0 0 0 .53.319.533.533 0 0 0 .21-.059l1.07-.51a.562.562 0 0 0-.054-1.029.532.532 0 0 0-.426.029ZM125.64 192l-1 .58a.567.567 0 0 0 .54 1l1-.57a.558.558 0 0 0 .21-.75.556.556 0 0 0-.32-.29.556.556 0 0 0-.43.03ZM121.51 194.39l-1 .64a.551.551 0 0 0-.18.76.57.57 0 0 0 .77.18l1-.62a.554.554 0 1 0-.59-.94v-.02ZM117.52 197l-1 .69a.567.567 0 0 0-.25.366.555.555 0 0 0 .094.432.555.555 0 0 0 .379.23.557.557 0 0 0 .427-.118l1-.68a.562.562 0 0 0 .14-.77.549.549 0 0 0-.79-.15ZM113.66 199.83l-.94.72a.557.557 0 0 0-.066.747.559.559 0 0 0 .736.143l1-.72a.562.562 0 0 0 .105-.785.562.562 0 0 0-.785-.105h-.05ZM109.89 202.73l-.93.74a.562.562 0 0 0-.1.78.57.57 0 0 0 .79.1l.93-.74a.523.523 0 0 0 .144-.163.567.567 0 0 0 .055-.423.55.55 0 0 0-.099-.194.559.559 0 0 0-.79-.1ZM106.16 205.67l-.94.73a.563.563 0 0 0 .279.994.558.558 0 0 0 .411-.114l.93-.73a.568.568 0 0 0 .1-.79.563.563 0 0 0-.78-.09ZM102.41 208.57l-.94.71a.583.583 0 0 0-.213.373.584.584 0 0 0 .103.417.55.55 0 0 0 .592.207.563.563 0 0 0 .198-.097l1-.72a.552.552 0 0 0-.054-.928.573.573 0 0 0-.428-.059.563.563 0 0 0-.198.097h-.06ZM98.6 211.38l-1 .68a.568.568 0 0 0-.13.79.556.556 0 0 0 .78.13l1-.69a.56.56 0 0 0-.232-1.008.572.572 0 0 0-.418.088v.01ZM94.69 214l-1 .63a.557.557 0 0 0-.26.574.562.562 0 0 0 .434.452c.145.034.298.01.426-.066l1-.64a.568.568 0 0 0 .254-.352.56.56 0 0 0-.226-.588.556.556 0 0 0-.423-.092.564.564 0 0 0-.205.082ZM90.64 216.41l-1 .55a.557.557 0 0 0-.24.76.582.582 0 0 0 .77.24l1.06-.56a.57.57 0 0 0-.102-1.043.553.553 0 0 0-.428.043l-.06.01ZM86.41 218.45l-1.08.44a.567.567 0 0 0-.262.72.57.57 0 0 0 .692.33l1.11-.45a.573.573 0 0 0 .01-1.05.55.55 0 0 0-.43 0l-.04.01ZM82 220l-1.13.3a.57.57 0 0 0-.4.69.57.57 0 0 0 .7.4l1.16-.31a.566.566 0 0 0 .1-1.039A.565.565 0 0 0 82 220ZM77.44 221l-1.16.13a.553.553 0 0 0-.383.209.56.56 0 0 0-.117.421.57.57 0 0 0 .63.5l1.2-.14a.582.582 0 0 0 .5-.63.56.56 0 0 0-.63-.5l-.04.01ZM72.79 221.21l-1.16-.05a.582.582 0 0 0-.571.762.564.564 0 0 0 .51.378l1.21.06a.57.57 0 0 0 .6-.54.58.58 0 0 0-.54-.6l-.05-.01ZM68.17 220.69l-1.17-.24a.574.574 0 0 0-.601.871.572.572 0 0 0 .36.249l1.18.25a.558.558 0 0 0 .593-.225.566.566 0 0 0 .092-.429.569.569 0 0 0-.444-.456l-.01-.02ZM63.68 219.45l-1.09-.45a.558.558 0 0 0-.74.33.58.58 0 0 0 .33.74l1.13.43a.567.567 0 0 0 .73-.34.55.55 0 0 0-.33-.73l-.03.02ZM59.42 217.56l-1-.56a.565.565 0 0 0-.78.23.57.57 0 0 0 .23.77l1.06.58a.561.561 0 0 0 .77-.22.58.58 0 0 0-.22-.78l-.06-.02ZM55.44 215.12l-.95-.69a.575.575 0 0 0-.81.13.59.59 0 0 0 .13.8l1 .71a.574.574 0 0 0 .67-.93l-.04-.02ZM51.78 212.2l-.86-.79a.561.561 0 0 0-.414-.161.578.578 0 0 0-.404.185.566.566 0 0 0-.09.637c.033.068.08.129.138.179l.88.82a.58.58 0 0 0 .78-.85l-.03-.02ZM48.47 208.89l-.77-.89a.579.579 0 0 0-.977.354.58.58 0 0 0 .107.406l.79.91a.578.578 0 0 0 .977-.354.58.58 0 0 0-.107-.406l-.02-.02ZM45.54 205.23l-.67-1a.59.59 0 0 0-.81-.14.579.579 0 0 0-.14.8l.69 1a.58.58 0 0 0 1.04-.454.569.569 0 0 0-.09-.206h-.02ZM43 201.29l-.56-1a.583.583 0 0 0-1.067.123.56.56 0 0 0 .057.437l.58 1.06a.59.59 0 0 0 .964.074.575.575 0 0 0 .12-.429.569.569 0 0 0-.074-.215l-.02-.05ZM40.89 197.11l-.45-1.11a.582.582 0 0 0-1.07.46l.47 1.1a.588.588 0 0 0 .316.313.583.583 0 0 0 .444-.003.564.564 0 0 0 .317-.314.572.572 0 0 0-.007-.446h-.02ZM39.24 192.73l-.34-1.13a.58.58 0 0 0-.72-.39.591.591 0 0 0-.39.73l.35 1.15a.584.584 0 0 0 .725.385.58.58 0 0 0 .385-.725l-.01-.02ZM38.05 188.19l-.23-1.19a.57.57 0 0 0-.68-.46.588.588 0 0 0-.46.68l.24 1.18a.584.584 0 0 0 .453.459.576.576 0 0 0 .599-.25.59.59 0 0 0 .088-.439l-.01.02ZM37.28 183.56l-.12-1.17a.59.59 0 0 0-.858-.454.587.587 0 0 0-.302.574l.13 1.2a.571.571 0 0 0 .64.51.576.576 0 0 0 .5-.413.582.582 0 0 0 .02-.227l-.01-.02ZM36.93 178.87v-1.17a.584.584 0 0 0-.374-.533.58.58 0 0 0-.226-.037.569.569 0 0 0-.57.59v1.2a.573.573 0 0 0 .366.532.555.555 0 0 0 .224.038.58.58 0 0 0 .57-.59l.01-.03ZM37 174.17V173a.577.577 0 0 0-.328-.564.59.59 0 0 0-.842.494l-.07 1.2a.589.589 0 0 0 1.17.07l.07-.03ZM37.39 169.49l.15-1.17a.6.6 0 0 0-.51-.66.588.588 0 0 0-.66.5l-.16 1.18a.588.588 0 0 0 1.087.377.584.584 0 0 0 .073-.217l.02-.01ZM38.15 164.85l.24-1.15a.601.601 0 0 0-.46-.7.581.581 0 0 0-.69.45l-.24 1.16a.59.59 0 0 0 .45.7.59.59 0 0 0 .7-.45v-.01ZM39.25 160.27l.32-1.13a.592.592 0 1 0-1.14-.32l-.32 1.18a.592.592 0 0 0 1.14.32v-.05ZM40.66 155.78l.4-1.1a.593.593 0 0 0-.35-.76.592.592 0 0 0-.76.35l-.41 1.13a.58.58 0 0 0 .36.75.566.566 0 0 0 .45-.014.557.557 0 0 0 .3-.336l.01-.02ZM42.38 151.4l.47-1.08a.59.59 0 0 0-1.08-.48l-.49 1.09a.584.584 0 0 0-.008.455.596.596 0 0 0 1.098.025l.01-.01ZM44.39 147.14l.54-1a.6.6 0 0 0-.25-.8.578.578 0 0 0-.452-.042.587.587 0 0 0-.348.292l-.56 1.06a.593.593 0 0 0 1.05.55l.02-.06ZM46.67 143l.62-1a.61.61 0 0 0-.19-.82.6.6 0 0 0-.82.2l-.62 1a.59.59 0 0 0 .641.889.601.601 0 0 0 .37-.269ZM49.23 139.07l.69-.95a.612.612 0 0 0 .01-.675.602.602 0 0 0-.383-.264.61.61 0 0 0-.627.249l-.71 1a.611.611 0 0 0 1 .7l.02-.06ZM52.09 135.34l.75-.9a.575.575 0 0 0 .072-.643.576.576 0 0 0-.566-.309.595.595 0 0 0-.396.202l-.77.92a.583.583 0 0 0 .89.75l.02-.02ZM55.19 131.78l.8-.86a.556.556 0 0 0 .124-.617.556.556 0 0 0-.124-.183.563.563 0 0 0-.182-.128.56.56 0 0 0-.436 0 .563.563 0 0 0-.182.128l-.82.87a.58.58 0 0 0 .186.935.57.57 0 0 0 .624-.125l.01-.02ZM58.45 128.37l.84-.84a.57.57 0 0 0 0-.8.562.562 0 0 0-.79 0l-.85.84a.57.57 0 1 0 .8.8ZM61.84 125.07l.86-.81a.536.536 0 0 0 .123-.602.536.536 0 0 0-.123-.178.56.56 0 0 0-.39-.162.547.547 0 0 0-.39.162l-.87.81a.554.554 0 0 0 .354.957.553.553 0 0 0 .396-.147l.04-.03ZM65.33 121.86l.88-.78a.558.558 0 0 0 .237-.385.549.549 0 0 0-.957-.435l-.89.79a.55.55 0 0 0 .72.82l.01-.01ZM68.89 118.75l.9-.77a.531.531 0 0 0-.69-.81l-.91.76a.539.539 0 0 0 .69.83l.01-.01ZM72.52 115.71l.92-.75a.509.509 0 0 0-.278-.853.51.51 0 0 0-.352.063l-.93.74a.512.512 0 0 0 .262.911.518.518 0 0 0 .378-.101v-.01ZM76.22 112.75l.94-.73a.48.48 0 0 0-.235-.857.482.482 0 0 0-.355.097l-.94.72a.482.482 0 0 0 .418.856.486.486 0 0 0 .172-.086ZM80 109.87l1-.71a.46.46 0 0 0 .09-.64.45.45 0 0 0-.63-.09l-1 .7a.451.451 0 0 0 .195.823.472.472 0 0 0 .345-.083ZM83.81 107.07l1-.69a.43.43 0 1 0-.5-.7l-1 .68a.422.422 0 0 0-.18.277.43.43 0 0 0 .347.502.433.433 0 0 0 .323-.069h.01ZM87.69 104.36l1-.67a.392.392 0 0 0-.44-.65l-1 .65a.398.398 0 0 0-.038.69.393.393 0 0 0 .32.054.397.397 0 0 0 .148-.074h.01ZM91.64 101.74l1-.63a.35.35 0 0 0-.37-.59l-1 .62a.368.368 0 0 0-.12.49.368.368 0 0 0 .5.12l-.01-.01ZM95.68 99.26l1-.59a.31.31 0 0 0 .11-.41.31.31 0 0 0-.42-.12l-1 .58a.32.32 0 0 0-.04.525.31.31 0 0 0 .35.025v-.01ZM99.81 97l.88-.45a.26.26 0 0 0 .11-.34.25.25 0 0 0-.33-.11l-.9.43a.26.26 0 0 0-.12.35.27.27 0 0 0 .35.13l.01-.01Z" fill="#FBB040"/><path d="m103.23 86.9 1.6 6.61 3.79-3.92-5.39-2.69Z" fill="#0374B5"/><path d="M132 75.93 118 95.9a1.728 1.728 0 0 1-2.45.38L96 81.39a.68.68 0 0 1-.24-.73.67.67 0 0 1 .58-.5L132 75.93Z" fill="#008FCA"/><path d="m103.23 86.9 28.81-10.97-25.66 13.38.36 1.86-3.51-4.27Z" fill="#0374B5"/><path d="m108.25 90.73-3.42 2.78 1.55-4.2 1.87 1.42Z" fill="#0374B5"/><path d="M364.28 287.89c4.7 0 8.51-3.68 8.51-8.22 0-4.54-3.81-8.22-8.51-8.22-4.7 0-8.51 3.68-8.51 8.22 0 4.54 3.81 8.22 8.51 8.22ZM398.34 287.89c5.777 0 10.46-4.522 10.46-10.1 0-5.578-4.683-10.1-10.46-10.1-5.777 0-10.46 4.522-10.46 10.1 0 5.578 4.683 10.1 10.46 10.1Z" fill="#FBE9ED"/><path d="M334.62 289.18H428s-37.07-14.76-93.38 0Z" fill="#FBE9ED"/><path d="M371.76 287.94c5.589 0 10.12-4.379 10.12-9.78s-4.531-9.78-10.12-9.78c-5.589 0-10.12 4.379-10.12 9.78s4.531 9.78 10.12 9.78Z" fill="#FBE9ED"/><g clip-path="url(#b)"><path fill="#F7CD97" d="m197.343 148 52.813 3.933-1.344 15.038L196 163.037z"/><path d="m202.759 152.896.162-.022c-.381 1.578-.795 3.579-.83 4.218-.018.332.196.588.511.611a.639.639 0 0 0 .292-.049c1.489-.603 2.391-.766 3.886-1.036.35-.062.467-.352.459-.58-.008-.265-.184-.547-.503-.571a.57.57 0 0 0-.154.009c-1.279.23-2.137.399-3.218.774.045-.247.1-.532.165-.848.21-.069.404-.135.588-.197 1.01-.34 1.677-.565 2.861-.801.351-.07.464-.362.456-.593-.012-.26-.185-.536-.495-.559a.595.595 0 0 0-.163.011c-1.199.24-1.871.467-2.889.811l-.077.025c.141-.617.28-1.209.401-1.672.857-.306 1.636-.441 2.862-.594a.512.512 0 0 0 .467-.539c-.001-.276-.188-.583-.529-.608a.643.643 0 0 0-.124.003c-.967.122-1.718.241-2.467.457a.51.51 0 0 0-.245-.24.572.572 0 0 0-.228-.063.54.54 0 0 0-.573.38 4.841 4.841 0 0 1-.052.14v.006c-.039.103-.086.23-.116.326-.15.032-.693.089-1.218.141l-.026.003c-.616.061-1.314.131-1.762.2.043-.34.083-.64.12-.916.022-.166.041-.337.06-.504l.009-.096c.512-.039 1.021-.081 1.633-.131l.015-.002c.668-.055 1.426-.117 2.161-.169a.45.45 0 0 0 .329-.187.61.61 0 0 0 .122-.464c-.044-.254-.234-.417-.506-.438a.822.822 0 0 0-.111 0c-.695.049-1.403.107-2.086.164l-.031.003c-.453.038-.897.074-1.348.11.037-.157.084-.312.141-.464a.508.508 0 0 0-.034-.469.583.583 0 0 0-.442-.261.512.512 0 0 0-.331.08.534.534 0 0 0-.212.273 4.944 4.944 0 0 0-.245.919c-.628.041-1.187.07-1.708.087-.318.01-.553.216-.579.512-.024.27.194.603.503.593a52.298 52.298 0 0 0 1.632-.08c-.011.087-.021.175-.033.262-.055.407-.112.839-.181 1.403-.211.051-.403.102-.589.157-.244.07-.439.352-.435.625a.44.44 0 0 0 .363.443c.129.032.264.039.397.021l.11-.017-.054.437a171.27 171.27 0 0 1-.451 3.441.51.51 0 0 0 .093.392.515.515 0 0 0 .375.19.563.563 0 0 0 .613-.489c.168-1.155.313-2.326.453-3.459l.089-.723c.611-.112 1.963-.288 2.614-.372l.103-.014ZM227.304 156.852c-.009-.265-.184-.548-.504-.572a.656.656 0 0 0-.153.009c-1.344.242-2.313.431-3.457.824.039-.244.09-.53.154-.85a41.147 41.147 0 0 0 .863-.293c.732-.254 1.135-.394 2.201-.607.351-.071.464-.363.455-.594-.011-.26-.184-.536-.495-.559a.587.587 0 0 0-.162.011 13.55 13.55 0 0 0-2.227.615c-.112.038-.229.08-.357.123.142-.618.294-1.25.434-1.783a7.825 7.825 0 0 1 1.154-.275c.515-.091.831-.122 1.198-.159l.004.001c.188-.019.423-.041.724-.079a.512.512 0 0 0 .468-.538c-.001-.277-.188-.587-.531-.612a.709.709 0 0 0-.122.002c-.298.037-.589.064-.871.091-.566.053-1.154.107-1.724.241a.515.515 0 0 0-.102-.207.594.594 0 0 0-.413-.209.54.54 0 0 0-.573.378c-.038.114-.088.28-.148.496a4.474 4.474 0 0 0-.703.464.53.53 0 0 0-.196.576.612.612 0 0 0 .514.439c-.386 1.58-.791 3.497-.772 4.158.01.333.222.581.516.603a.628.628 0 0 0 .287-.048c1.476-.599 2.569-.797 4.083-1.07.347-.061.462-.349.455-.576ZM211.668 158.506c.133-.786.311-1.701.483-2.586l.002-.019c.121-.621.245-1.26.351-1.841a90.521 90.521 0 0 1 .425-2.218c.069-.34.139-.692.252-1.022a.476.476 0 0 0-.045-.421.577.577 0 0 0-.184-.174.575.575 0 0 0-.242-.075.515.515 0 0 0-.467.227c-.248.364-.473.74-.692 1.103a33.98 33.98 0 0 1-.447.731c-.286.451-.525.81-.759 1.128a7.675 7.675 0 0 1-.212.277 26.165 26.165 0 0 1-.352-1.563c-.067-.36-.147-.719-.226-1.067a248.96 248.96 0 0 1-.107-.486 1.758 1.758 0 0 0-.008-.128l-.001-.006a1.778 1.778 0 0 0-.046-.158.49.49 0 0 0-.43-.29.567.567 0 0 0-.269.045.5.5 0 0 0-.162.115.489.489 0 0 0-.153.254 2.362 2.362 0 0 0-.099.456 2.79 2.79 0 0 1-.034.201 22.581 22.581 0 0 0-.354 2.104 222.294 222.294 0 0 0-.547 4.755.472.472 0 0 0 .097.357.538.538 0 0 0 .375.185c.261.019.542-.132.577-.46.085-.819.197-1.763.304-2.675.074-.628.135-1.146.189-1.628.016-.143.033-.29.052-.437.172.667.404 1.165.726 1.565a.51.51 0 0 0 .356.172.486.486 0 0 0 .286-.063c.518-.32.898-.867 1.243-1.41l-.084.456c-.101.56-.223 1.185-.34 1.791l-.006.028c-.178.92-.363 1.872-.505 2.705a.443.443 0 0 0 .076.352.498.498 0 0 0 .357.179c.267.02.566-.131.62-.459ZM213.392 158.052c.289-.701.562-1.413.768-1.959.59-.252 1.129-.478 1.647-.692.216 1.067.497 2.118.841 3.148.062.185.245.315.467.332a.584.584 0 0 0 .296-.055c.276-.137.388-.445.279-.767-.308-.904-.568-1.919-.802-3.097.293-.117.557-.223.805-.318a.508.508 0 0 0 .338-.554c-.032-.248-.232-.517-.544-.54a.588.588 0 0 0-.259.041l-.553.217a62.44 62.44 0 0 1-.272-1.789c-.032-.24-.071-.483-.117-.746a4.688 4.688 0 0 1-.045-.321l-.002-.027a.576.576 0 0 0 .011-.5.598.598 0 0 0-.481-.331.473.473 0 0 0-.288.071.772.772 0 0 0-.327.417l-.02-.008-.032.106c-.64 1.382-1.181 2.822-1.704 4.217l-.123.324-.042.018a.766.766 0 0 0-.101.037 2.308 2.308 0 0 0-.11.052 2.308 2.308 0 0 1-.101.048l-.104.044.003.01a.522.522 0 0 0-.226.525.644.644 0 0 0 .245.415c-.189.49-.351.899-.511 1.284a.527.527 0 0 0 .022.487.607.607 0 0 0 .467.275.547.547 0 0 0 .347-.083.574.574 0 0 0 .228-.281Zm1.328-3.446c.178-.471.411-1.08.664-1.708l.006.044c.038.283.081.603.133.92.021.13.044.258.066.385-.275.112-.559.228-.869.359Z" fill="#D7244F"/><path d="M221.244 156.981a.572.572 0 0 0-.282.054c-.492.225-.884.363-1.272.446a2.257 2.257 0 0 1-.613.046l-.02-.004c-.014-.163.046-.388.094-.571.084-.317.18-.675.265-1.038.489-2.087.8-3.768 1.012-5.452a.546.546 0 0 0-.104-.411.576.576 0 0 0-.397-.199.58.58 0 0 0-.634.516c-.275 2.181-.629 4.04-1.115 5.849-.015.059-.033.119-.051.184l-.007.023c-.19.676-.43 1.517.194 2.021.182.146.411.228.697.249.26.012.521-.006.779-.053.579-.091 1.135-.322 1.647-.558a.534.534 0 0 0 .321-.594c-.034-.235-.225-.486-.514-.508ZM240.73 158.8l-.043-.003c-.462-.035-.745.325-.786.697-.04.358.139.771.626.829l.039.003c.464.035.749-.324.79-.696.039-.359-.139-.772-.626-.83ZM235.432 154.121c-.055-1.15-.651-2.176-1.556-2.679a2.451 2.451 0 0 0-1.001-.304 2.022 2.022 0 0 0-1.693.668c-.123.134-.232.28-.324.437a.605.605 0 0 0-.025.598.646.646 0 0 0 .337.312c-.104.859-.19 1.749-.254 2.643a21.823 21.823 0 0 0-.069 2.127l.003.13a3.129 3.129 0 0 1-.274 0c-.382-.02-.605.277-.629.58-.022.283.129.6.513.628l.015.002c.183.008.367.005.551-.011.023.058.05.114.082.167.117.191.293.309.486.323a.568.568 0 0 0 .297-.061.661.661 0 0 0 .324-.4.554.554 0 0 0 .007-.302 4.919 4.919 0 0 0 1.75-1.154c.991-1.01 1.523-2.359 1.46-3.704Zm-2.962-1.763a.649.649 0 0 1 .266-.024l.066.004c.137.016.269.054.391.115.569.246.984.928 1.057 1.735.082.912-.337 1.998-1.068 2.765a3.677 3.677 0 0 1-1.152.82c-.01-.681.033-1.376.081-2.025.084-1.155.205-2.296.359-3.391v.001ZM239.375 156.809c-.013-.816-.031-1.66-.111-2.486-.055-.572-.121-1.178-.279-1.761-.071-.263-.149-.515-.323-.706a.735.735 0 0 0-.486-.242.713.713 0 0 0-.536.197.605.605 0 0 0-.174.61.425.425 0 0 0-.027.052c-.266.564-.509 1.144-.747 1.705v.004a44.124 44.124 0 0 1-.764 1.739c-.296.074-.396.331-.39.531a.646.646 0 0 0 .036.19c-.119.235-.254.51-.365.78-.15.368-.335.914-.198 1.407.076.27.279.453.53.472.053.003.105 0 .157-.01a.663.663 0 0 0 .409-.297.536.536 0 0 0 .068-.431c-.07-.252.075-.578.202-.867l.03-.067c.1-.23.216-.456.328-.675l.031-.059c.412-.058.843-.106 1.436-.163l.005.272c.018 1.038.038 2.11.188 3.156a.53.53 0 0 0 .501.481.66.66 0 0 0 .522-.206.59.59 0 0 0 .146-.501c-.149-1.03-.169-2.095-.189-3.125Zm-1.208-1.167c-.329.031-.603.059-.856.087.16-.362.319-.737.468-1.09l.017-.038c.071-.169.154-.366.241-.568a19.26 19.26 0 0 1 .101 1.089l.006.096.005.105a11.437 11.437 0 0 1 .018.319ZM241.602 155.346l.05-.328.001-.012c.035-.236.058-.375.075-.479l.002-.024c.03-.184.049-.295.1-.718l.015-.123.009-.065c.054-.419.11-.853.038-1.264a.576.576 0 0 0-.18-.342.56.56 0 0 0-.354-.147.63.63 0 0 0-.514.2.563.563 0 0 0-.13.485c.01.062.015.125.016.187l-.003.039c-.002.063-.006.126-.009.178-.018.29-.052.577-.089.868-.052.42-.076.564-.112.766v.006c-.022.131-.049.291-.091.581l-.035.232c-.075.499-.129.86-.174 1.427l-.008.095-.001.015c-.041.455-.109 1.217.451 1.35a.856.856 0 0 0 .142.022.522.522 0 0 0 .463-.177c.179-.214.165-.546.128-.708a.564.564 0 0 1-.012-.116c0-.004.002-.019.001-.04l.001-.01c.002-.02 0-.04 0-.048.002-.056.005-.112.009-.166l.001-.012c.008-.129.023-.263.033-.377.06-.516.109-.843.177-1.295ZM249.582 152.777a.487.487 0 0 0-.431.188l-.018-.007-.055.128c-.281.642-.605 1.282-.947 1.958l-.004.008c-.145.286-.265.526-.383.765a44.38 44.38 0 0 1-.688-1.265 4.807 4.807 0 0 0-.167-.295 2.804 2.804 0 0 1-.175-.335 8.672 8.672 0 0 1-.194-.44 4.404 4.404 0 0 1-.065-.173l-.009-.028a1.126 1.126 0 0 1-.014-.062.47.47 0 0 0-.434-.385.53.53 0 0 0-.434.175.467.467 0 0 0-.099.426v.006c.206.628.316.838.559 1.298l.111.208.002.004c.376.719.731 1.359 1.084 1.956-.564 1.242-.893 2.259-1.036 3.199a.468.468 0 0 0 .084.359.477.477 0 0 0 .34.174.513.513 0 0 0 .555-.44c.245-1.617 1.07-3.227 1.866-4.787l.007-.013c.265-.52.517-1.012.749-1.507a.577.577 0 0 0 .087-.142c.022-.053.041-.107.063-.165.017-.048.036-.097.056-.146a.449.449 0 0 0-.185-.591.517.517 0 0 0-.225-.071ZM245.248 158.616a.588.588 0 0 0-.285.054c-.45.208-.811.333-1.167.409a2.046 2.046 0 0 1-.529.044c0-.136.047-.316.085-.465l.004-.015c.078-.292.167-.622.245-.954.436-1.869.75-3.567.953-5.193a.552.552 0 0 0-.107-.417.567.567 0 0 0-.401-.202c-.284-.021-.595.151-.641.522-.208 1.647-.551 3.463-1.048 5.552-.018.079-.041.162-.067.263-.164.614-.369 1.379.212 1.847.176.142.395.221.671.242.245.011.49-.006.732-.051.541-.085 1.059-.3 1.539-.52a.544.544 0 0 0 .326-.602c-.037-.239-.228-.492-.522-.514Z" fill="#D7244F"/><path d="m249.186 162.788-23.154-1.725-.374 4.183 23.154 1.725.374-4.183Z" fill="#D8254F"/><path d="M229.509 163.796a.503.503 0 0 0-.187-.146 2.419 2.419 0 0 0-.263-.108 2.75 2.75 0 0 1-.288-.116 1.435 1.435 0 0 1-.258-.155.57.57 0 0 1-.179-.238.735.735 0 0 1-.046-.357.675.675 0 0 1 .085-.282.672.672 0 0 1 .194-.22c.168-.127.384-.181.649-.161a1.09 1.09 0 0 1 .494.161c.051.034.101.071.147.111.033.028.064.06.09.095l.026.039-.286.25-.019-.026a.665.665 0 0 0-.486-.243.5.5 0 0 0-.337.079.31.31 0 0 0-.145.232.295.295 0 0 0 .059.213c.05.063.114.113.187.146.085.041.173.077.262.108.098.033.194.072.289.116.091.041.178.093.258.153a.584.584 0 0 1 .179.24c.044.111.06.233.046.354a.771.771 0 0 1-.301.561c-.18.138-.416.195-.709.174a1.319 1.319 0 0 1-.597-.194 1.49 1.49 0 0 1-.17-.136.782.782 0 0 1-.103-.112l-.032-.049.286-.248.021.035c.023.028.047.055.072.08a.77.77 0 0 0 .308.191c.08.028.163.045.247.051a.583.583 0 0 0 .397-.093.384.384 0 0 0 .16-.404.29.29 0 0 0-.05-.101ZM233.229 162.354l-.035.384-.789-.059-.206 2.3-.411-.031.206-2.3-.79-.059.035-.383 1.99.148ZM235.946 164.694a.734.734 0 0 0 .252-.497l.144-1.611.414.031-.143 1.611a1.09 1.09 0 0 1-.394.761 1.13 1.13 0 0 1-.813.267 1.104 1.104 0 0 1-.966-.76c-.043-.139-.058-.286-.043-.432l.144-1.612.414.031-.144 1.611a.707.707 0 0 0 .16.529.66.66 0 0 0 .975.073v-.002ZM239.288 162.805a1.271 1.271 0 0 1 .905.467 1.303 1.303 0 0 1 .308.974 1.338 1.338 0 0 1-.477.916 1.31 1.31 0 0 1-.975.327l-.921-.069.24-2.683.92.068Zm-.542.346-.171 1.916.508.038a.9.9 0 0 0 .675-.229c.188-.17.306-.407.329-.661a.986.986 0 0 0-.208-.7.853.853 0 0 0-.625-.326l-.508-.038ZM242.121 163.016l.413.031-.24 2.684-.412-.031.239-2.684ZM244.401 163.552a1.36 1.36 0 0 1 1.022-.327 1.331 1.331 0 0 1 1.208.944 1.396 1.396 0 0 1-.095 1.06 1.407 1.407 0 0 1-.335.427c-.29.247-.632.356-1.025.327a1.312 1.312 0 0 1-.95-.474 1.39 1.39 0 0 1-.161-1.531 1.38 1.38 0 0 1 .336-.426Zm.145 1.708a.967.967 0 0 0 1.233.228 1.03 1.03 0 0 0 .48-1.195.964.964 0 0 0-1.048-.689 1.007 1.007 0 0 0-.603.305 1.039 1.039 0 0 0-.282.622.955.955 0 0 0 .22.729Z" fill="#fff"/></g><g clip-path="url(#c)"><path fill="#F7CD97" d="M129.192 265H174.8l-.192 13H129z"/><path d="m134.156 268.858.138-.029c-.226 1.379-.454 3.125-.443 3.676.005.286.206.492.478.492a.567.567 0 0 0 .248-.061c1.239-.614 2.004-.811 3.27-1.139.297-.075.379-.332.358-.527-.025-.227-.194-.458-.469-.458a.53.53 0 0 0-.131.017c-1.084.28-1.811.48-2.715.871.023-.215.052-.464.088-.739.175-.073.338-.141.492-.207.846-.356 1.404-.592 2.406-.87.297-.083.375-.341.353-.539-.026-.223-.193-.448-.461-.448a.548.548 0 0 0-.139.019c-1.014.284-1.576.521-2.429.881l-.065.027c.082-.538.164-1.056.238-1.461.717-.318 1.377-.483 2.42-.694a.441.441 0 0 0 .367-.492c-.019-.237-.199-.489-.494-.489a.545.545 0 0 0-.106.011c-.822.166-1.459.316-2.089.55a.458.458 0 0 0-.226-.191.506.506 0 0 0-.2-.039.468.468 0 0 0-.468.363l-.035.124v.005a5.01 5.01 0 0 0-.078.287c-.128.038-.59.121-1.038.199l-.022.004c-.525.092-1.12.197-1.5.285.015-.295.03-.555.044-.795.009-.143.014-.292.019-.436l.002-.083c.437-.066.872-.135 1.394-.217l.013-.002c.57-.09 1.217-.193 1.845-.284a.395.395 0 0 0 .271-.182.53.53 0 0 0 .075-.406c-.055-.216-.228-.344-.463-.344a.745.745 0 0 0-.095.007c-.594.087-1.198.182-1.782.275l-.026.004c-.386.062-.765.121-1.151.181.022-.138.053-.274.092-.408a.432.432 0 0 0-.059-.4.499.499 0 0 0-.397-.196.439.439 0 0 0-.278.09.455.455 0 0 0-.165.248 4.225 4.225 0 0 0-.152.804c-.537.076-1.015.136-1.461.185-.273.029-.461.221-.465.477-.003.233.206.505.471.477.426-.046.882-.103 1.396-.174-.004.076-.007.152-.012.227-.021.354-.042.728-.066 1.217-.177.057-.339.114-.495.172-.205.076-.355.331-.334.565a.378.378 0 0 0 .34.357c.113.02.229.017.342-.007l.094-.022-.019.379c-.048.978-.097 1.989-.167 2.984a.44.44 0 0 0 .105.33.45.45 0 0 0 .335.14c.23 0 .474-.158.495-.459.07-1.003.119-2.018.167-3l.031-.626c.517-.136 1.667-.373 2.221-.487l.087-.019ZM155.489 270.686c-.025-.227-.194-.459-.47-.459a.515.515 0 0 0-.13.017c-1.139.294-1.959.519-2.917.929.018-.212.044-.46.078-.739l.021-.008c.294-.123.539-.228.701-.299.613-.265.95-.411 1.851-.663.298-.083.376-.341.353-.539-.025-.223-.192-.448-.46-.448a.542.542 0 0 0-.139.019c-.915.256-1.255.404-1.873.671l-.299.129c.083-.54.173-1.093.259-1.56.313-.134.653-.227.973-.309.437-.112.706-.159 1.019-.213h.003c.161-.028.361-.063.617-.114a.441.441 0 0 0 .368-.492c-.019-.238-.199-.492-.496-.492a.524.524 0 0 0-.104.01 22.66 22.66 0 0 1-.742.133c-.483.082-.985.167-1.465.318a.441.441 0 0 0-.101-.171.511.511 0 0 0-.368-.154.467.467 0 0 0-.468.362 9.75 9.75 0 0 0-.096.436 3.95 3.95 0 0 0-.574.442.457.457 0 0 0-.131.508.532.532 0 0 0 .47.344c-.231 1.382-.456 3.054-.398 3.62.03.286.228.485.482.485a.536.536 0 0 0 .244-.06c1.229-.609 2.155-.848 3.437-1.179.295-.075.375-.329.355-.524ZM142.166 273.107c.064-.684.158-1.482.25-2.252v-.017c.064-.541.13-1.098.184-1.603.058-.551.123-1.146.202-1.762.007-.056.015-.113.021-.17.037-.297.075-.603.151-.894a.41.41 0 0 0-.065-.359.49.49 0 0 0-.382-.186.427.427 0 0 0-.223.058.446.446 0 0 0-.164.167c-.19.328-.359.665-.523.991-.104.205-.221.437-.338.657-.216.405-.399.728-.58 1.016a6.137 6.137 0 0 1-.164.252c-.085-.25-.282-.858-.402-1.319-.08-.306-.173-.609-.262-.903l-.124-.41a1.2 1.2 0 0 0-.014-.109l-.002-.006a1.487 1.487 0 0 0-.049-.132.422.422 0 0 0-.388-.222.493.493 0 0 0-.228.056.421.421 0 0 0-.132.109.38.38 0 0 0-.115.228c-.032.13-.051.264-.056.398a2.543 2.543 0 0 1-.016.174c-.078.53-.13 1.094-.17 1.83a198.325 198.325 0 0 0-.166 4.119.397.397 0 0 0 .26.402.468.468 0 0 0 .181.033c.225 0 .457-.148.466-.432.02-.709.056-1.526.09-2.317.023-.544.042-.993.057-1.41l.017-.378c.191.561.422.974.724 1.297a.437.437 0 0 0 .317.125.413.413 0 0 0 .242-.073c.424-.307.715-.802.977-1.29l-.043.398c-.051.486-.116 1.031-.178 1.559l-.003.024c-.094.802-.192 1.631-.261 2.356a.379.379 0 0 0 .088.297.428.428 0 0 0 .318.131c.231 0 .478-.149.503-.433ZM143.617 272.606c.204-.621.392-1.249.535-1.731.49-.254.939-.483 1.369-.7.255.902.563 1.787.924 2.65a.447.447 0 0 0 .422.255.504.504 0 0 0 .251-.066c.229-.135.305-.407.191-.677a20.887 20.887 0 0 1-.887-2.608c.244-.12.464-.227.671-.325a.437.437 0 0 0 .255-.497c-.043-.211-.232-.429-.502-.429a.497.497 0 0 0-.22.052l-.461.221a56.353 56.353 0 0 1-.348-1.519 17.37 17.37 0 0 0-.148-.633 4.438 4.438 0 0 1-.059-.272l-.004-.024a.483.483 0 0 0-.022-.43.515.515 0 0 0-.434-.253.404.404 0 0 0-.243.079.67.67 0 0 0-.255.379l-.017-.005-.021.093c-.461 1.228-.833 2.499-1.194 3.73l-.084.286-.035.019a.582.582 0 0 0-.085.038 1.554 1.554 0 0 0-.091.052 1.743 1.743 0 0 1-.083.047l-.087.045.004.008a.443.443 0 0 0-.161.465.553.553 0 0 0 .237.341c-.131.433-.244.795-.357 1.136a.448.448 0 0 0 .05.416.52.52 0 0 0 .419.206.469.469 0 0 0 .292-.093.49.49 0 0 0 .178-.256Zm.921-3.044c.122-.416.283-.954.46-1.51l.008.038c.051.241.109.513.174.781.026.111.053.219.08.327-.228.114-.465.231-.722.364Z" fill="#D7244F"/><path d="M150.292 271.184a.493.493 0 0 0-.239.065 5.142 5.142 0 0 1-1.064.464c-.17.05-.346.077-.523.079l-.018-.003c-.022-.138.015-.336.045-.496.052-.277.112-.591.161-.909.286-1.823.446-3.287.52-4.746a.467.467 0 0 0-.115-.346.482.482 0 0 0-.353-.146.5.5 0 0 0-.513.484c-.096 1.891-.281 3.509-.583 5.094-.009.051-.02.104-.032.162l-.004.02c-.12.593-.272 1.33.296 1.723.165.114.368.17.614.17.224-.007.448-.039.666-.096.491-.116.953-.349 1.378-.585a.46.46 0 0 0 .239-.53c-.045-.2-.225-.404-.475-.404ZM167.144 271.5h-.037c-.399 0-.619.327-.631.649-.012.31.169.653.591.672h.033c.401 0 .623-.326.634-.649.011-.31-.169-.653-.59-.672ZM162.294 267.821c-.12-.985-.698-1.827-1.507-2.201a2.11 2.11 0 0 0-.88-.198c-.571 0-1.072.243-1.411.682a2.273 2.273 0 0 0-.251.397.533.533 0 0 0 .017.514c.07.118.181.206.31.247a46.363 46.363 0 0 0-.049 2.286c.001.542.011 1.184.077 1.831l.011.112c-.081.009-.16.015-.235.017-.33.008-.503.277-.504.538-.001.245.15.507.481.507h.013c.158-.004.316-.019.472-.044.024.048.051.094.082.138a.544.544 0 0 0 .438.247.5.5 0 0 0 .413-.228.556.556 0 0 0 .09-.209.475.475 0 0 0-.013-.259 4.257 4.257 0 0 0 1.43-1.103c.786-.931 1.156-2.124 1.016-3.274Zm-2.656-1.325a.563.563 0 0 1 .226-.038h.058c.118.004.234.029.343.073.504.175.904.734 1.018 1.423.129.778-.162 1.737-.74 2.443a3.168 3.168 0 0 1-.937.777 20.222 20.222 0 0 1-.06-1.744c-.001-.997.029-1.984.092-2.935v.001ZM165.853 269.877a26.9 26.9 0 0 0-.255-2.129c-.083-.487-.179-1.003-.352-1.494-.078-.221-.161-.432-.323-.585a.625.625 0 0 0-.433-.177.592.592 0 0 0-.447.204.519.519 0 0 0-.113.525l.003.009a.396.396 0 0 0-.021.047c-.192.501-.364 1.015-.532 1.512v.003c-.186.553-.355 1.05-.544 1.543-.25.082-.319.309-.302.481.006.055.021.11.044.16-.087.21-.186.455-.264.693-.106.326-.229.807-.08 1.222.082.227.268.371.485.371a.512.512 0 0 0 .135-.019.562.562 0 0 0 .331-.281.462.462 0 0 0 .032-.374c-.077-.212.027-.502.117-.757l.022-.06c.072-.204.157-.406.239-.6l.022-.054c.351-.076.718-.145 1.223-.232l.022.234c.082.89.167 1.81.364 2.698a.452.452 0 0 0 .461.381.57.57 0 0 0 .434-.21.51.51 0 0 0 .094-.439c-.194-.876-.28-1.789-.362-2.672Zm-1.113-.925c-.281.048-.513.089-.729.129.114-.321.227-.653.332-.965l.012-.035.171-.503a18.203 18.203 0 0 1 .157.929l.01.082.012.09.006.046.029.227ZM167.672 268.478l.022-.285v-.01c.015-.205.025-.326.033-.416l.001-.021c.014-.16.023-.257.04-.623 0-.035.003-.071.005-.107l.003-.056c.02-.364.04-.74-.048-1.088a.5.5 0 0 0-.177-.283.478.478 0 0 0-.313-.103.538.538 0 0 0-.429.205.484.484 0 0 0-.08.425c.012.052.021.105.026.159l-.001.033c.003.055.003.109.004.154.003.251-.008.499-.021.751-.018.364-.029.49-.047.666v.005c-.01.113-.023.252-.041.505l-.015.201a16.12 16.12 0 0 0-.058 1.237l-.001.082v.012c-.006.394-.016 1.053.474 1.131.041.007.082.01.123.01a.45.45 0 0 0 .387-.182c.14-.195.106-.479.064-.616a.466.466 0 0 1-.017-.099l-.002-.034v-.009a3.363 3.363 0 0 1-.006-.184v-.011c-.001-.111.003-.227.005-.326.018-.447.039-.731.069-1.123ZM174.36 265.761a.415.415 0 0 0-.201.049.415.415 0 0 0-.156.141l-.017-.005-.039.113c-.2.569-.437 1.14-.688 1.742l-.003.007c-.106.255-.194.468-.28.681a38.09 38.09 0 0 1-.672-1.042 3.348 3.348 0 0 0-.162-.242 2.461 2.461 0 0 1-.172-.277 8.403 8.403 0 0 1-.194-.366 2.905 2.905 0 0 1-.067-.144l-.009-.023a.821.821 0 0 1-.017-.053.412.412 0 0 0-.146-.221.391.391 0 0 0-.251-.081.435.435 0 0 0-.2.046.404.404 0 0 0-.219.504v.005c.217.526.325.699.563 1.078l.109.173.002.003c.369.593.714 1.12 1.055 1.61-.404 1.103-.622 1.997-.684 2.814a.402.402 0 0 0 .095.303.404.404 0 0 0 .303.127.44.44 0 0 0 .448-.413c.107-1.404.713-2.84 1.297-4.231l.005-.011c.195-.464.379-.902.547-1.342a.468.468 0 0 0 .065-.128c.016-.047.029-.094.044-.146.012-.042.024-.085.039-.128a.388.388 0 0 0 .023-.188.38.38 0 0 0-.065-.175.44.44 0 0 0-.353-.18ZM171.012 271.053a.5.5 0 0 0-.241.065 4.718 4.718 0 0 1-.976.426 1.783 1.783 0 0 1-.452.071c-.009-.117.021-.274.043-.404l.003-.013c.049-.256.104-.546.149-.836.256-1.633.416-3.111.486-4.52a.482.482 0 0 0-.118-.352.481.481 0 0 0-.358-.148c-.244 0-.5.168-.517.49-.073 1.428-.251 3.009-.544 4.835-.011.069-.025.142-.041.23-.102.538-.229 1.208.3 1.573.16.11.354.164.592.164.211-.006.42-.036.625-.09.459-.108.89-.326 1.288-.545a.466.466 0 0 0 .242-.538c-.047-.203-.227-.408-.481-.408Z" fill="#D7244F"/><path d="M174.66 274.384h-19.995l-.053 3.616h19.995l.053-3.616Z" fill="#D8254F"/><path d="M157.827 276.508a.461.461 0 0 0-.17-.113 2.112 2.112 0 0 0-.233-.076 2.362 2.362 0 0 1-.255-.082 1.198 1.198 0 0 1-.232-.116.49.49 0 0 1-.168-.193.62.62 0 0 1-.062-.303.574.574 0 0 1 .207-.449c.136-.12.318-.18.547-.18a.905.905 0 0 1 .651.268l.025.032-.23.233-.017-.022a.66.66 0 0 0-.142-.108.663.663 0 0 0-.292-.069.437.437 0 0 0-.284.089.268.268 0 0 0-.109.209.252.252 0 0 0 .063.179c.048.051.106.09.171.114.075.03.153.055.232.076.086.022.171.049.255.081.081.03.159.068.232.115.072.048.13.115.168.194a.637.637 0 0 1 .063.301.657.657 0 0 1-.223.502c-.146.129-.345.194-.598.194a1.098 1.098 0 0 1-.525-.128 1.368 1.368 0 0 1-.155-.106.8.8 0 0 1-.095-.089l-.031-.041.23-.231a.686.686 0 0 0 .088.093.686.686 0 0 0 .113.081.808.808 0 0 0 .379.091c.14 0 .252-.035.335-.105a.327.327 0 0 0 .125-.26.261.261 0 0 0-.063-.181ZM160.929 275.032l-.005.332h-.682l-.029 1.988h-.355l.029-1.988h-.681l.004-.332h1.719ZM163.412 276.868a.635.635 0 0 0 .184-.443l.021-1.393h.358l-.021 1.393a.954.954 0 0 1-.289.679.977.977 0 0 1-.682.281.948.948 0 0 1-.877-.591.923.923 0 0 1-.065-.368l.021-1.394h.357l-.021 1.393a.622.622 0 0 0 .362.582.575.575 0 0 0 .652-.138v-.001ZM166.161 275.032a1.09 1.09 0 0 1 .807.343 1.122 1.122 0 0 1 .327.817 1.157 1.157 0 0 1-.351.817 1.105 1.105 0 0 1-.817.343h-.795l.035-2.32h.794Zm-.443.332-.024 1.656h.438a.751.751 0 0 0 .565-.24.87.87 0 0 0 .24-.588.845.845 0 0 0-.223-.588.728.728 0 0 0-.557-.24h-.439ZM168.607 275.032h.357l-.034 2.32h-.356l.033-2.32ZM170.6 275.346a1.17 1.17 0 0 1 .857-.346 1.144 1.144 0 0 1 1.098.734 1.211 1.211 0 0 1-.275 1.304 1.172 1.172 0 0 1-.859.346c-.339 0-.621-.115-.846-.346a1.16 1.16 0 0 1-.25-.388 1.211 1.211 0 0 1 .275-1.304Zm.234 1.458a.828.828 0 0 0 .513.255.85.85 0 0 0 .561-.139.888.888 0 0 0 .335-1.056.842.842 0 0 0-.377-.437.828.828 0 0 0-.567-.088.864.864 0 0 0-.498.3.9.9 0 0 0-.147.885c.04.105.102.2.18.28Z" fill="#fff"/></g><g clip-path="url(#d)"><path fill="#F7CD97" d="m277.056 265.417 41.517-.417-.056 11.836-41.517.417z"/><path d="m281.61 268.884.125-.028c-.193 1.257-.384 2.849-.37 3.35.008.26.192.446.44.443a.507.507 0 0 0 .225-.057c1.123-.57 1.817-.757 2.967-1.066.27-.072.342-.306.321-.483-.025-.207-.181-.416-.432-.413a.48.48 0 0 0-.119.016c-.984.265-1.643.453-2.463.818.019-.196.043-.423.073-.673l.446-.193c.767-.332 1.273-.552 2.182-.815.27-.078.339-.313.317-.493-.026-.203-.18-.407-.423-.404a.454.454 0 0 0-.127.019c-.92.267-1.43.489-2.203.824l-.059.025c.07-.491.14-.963.203-1.332.65-.297 1.249-.453 2.197-.654a.401.401 0 0 0 .329-.451c-.019-.216-.185-.443-.454-.441a.523.523 0 0 0-.096.011c-.747.159-1.326.301-1.897.52a.35.35 0 0 0-.052-.068.465.465 0 0 0-.338-.138.425.425 0 0 0-.422.335l-.031.113v.005a4.667 4.667 0 0 0-.069.262c-.115.035-.535.115-.942.191l-.02.004a29.2 29.2 0 0 0-1.364.273l.033-.724c.007-.131.01-.266.014-.398v-.075c.398-.064.793-.131 1.268-.211l.012-.002c.518-.087 1.105-.186 1.676-.275a.358.358 0 0 0 .245-.168.479.479 0 0 0 .065-.371c-.052-.195-.211-.31-.425-.308a.623.623 0 0 0-.086.007c-.54.085-1.089.177-1.619.266l-.024.005-1.046.175c.019-.126.045-.25.08-.372a.408.408 0 0 0-.058-.364.455.455 0 0 0-.363-.175.408.408 0 0 0-.4.311 3.91 3.91 0 0 0-.131.734c-.488.074-.923.133-1.329.182-.248.029-.417.205-.418.438-.001.212.192.458.432.43a38.37 38.37 0 0 0 1.27-.171l-.009.207c-.016.322-.032.663-.049 1.109a8.78 8.78 0 0 0-.449.161c-.186.07-.32.304-.299.517a.345.345 0 0 0 .313.322.82.82 0 0 0 .312-.01l.084-.021-.013.345c-.035.891-.07 1.812-.125 2.718a.396.396 0 0 0 .098.3.406.406 0 0 0 .307.124.442.442 0 0 0 .446-.422c.055-.914.091-1.838.125-2.732l.022-.571c.469-.128 1.514-.354 2.018-.464l.079-.017ZM301.046 270.352c-.024-.206-.18-.416-.431-.413a.482.482 0 0 0-.119.017c-1.034.278-1.779.49-2.647.872.015-.193.036-.419.064-.674l.02-.007c.266-.114.488-.212.635-.279.555-.247.861-.382 1.679-.62.27-.078.339-.313.317-.494-.026-.202-.18-.406-.424-.404a.494.494 0 0 0-.126.02c-.83.241-1.139.378-1.699.627l-.27.12c.069-.492.147-.996.221-1.422.284-.125.592-.213.883-.291.396-.105.641-.15.925-.203h.003c.146-.027.328-.06.561-.109a.4.4 0 0 0 .33-.451c-.019-.216-.186-.446-.455-.444a.503.503 0 0 0-.095.011c-.231.048-.456.088-.675.128-.439.079-.894.16-1.331.302a.41.41 0 0 0-.093-.155.464.464 0 0 0-.336-.136.425.425 0 0 0-.423.334c-.022.091-.05.224-.083.397a3.509 3.509 0 0 0-.518.408.413.413 0 0 0-.115.463.487.487 0 0 0 .43.309c-.197 1.261-.387 2.785-.328 3.3.03.259.211.439.443.437a.507.507 0 0 0 .221-.057c1.113-.566 1.954-.792 3.118-1.105.268-.071.339-.303.318-.481ZM288.94 272.678c.053-.623.131-1.35.207-2.052v-.016c.053-.492.108-1 .153-1.46a68.072 68.072 0 0 1 .186-1.761c.031-.271.062-.55.129-.816a.38.38 0 0 0-.063-.326.456.456 0 0 0-.349-.166.395.395 0 0 0-.35.209c-.17.3-.321.608-.468.907-.092.187-.196.4-.301.601a15.05 15.05 0 0 1-.519.931 5.384 5.384 0 0 1-.147.23 20.17 20.17 0 0 1-.378-1.197 22.513 22.513 0 0 0-.247-.819l-.116-.373a1.026 1.026 0 0 0-.014-.099l-.002-.005a1.238 1.238 0 0 0-.046-.12.385.385 0 0 0-.355-.199.455.455 0 0 0-.207.053.402.402 0 0 0-.12.101.374.374 0 0 0-.102.209c-.028.119-.044.24-.047.362-.004.056-.007.113-.013.159-.066.483-.109.997-.138 1.667a174.995 174.995 0 0 0-.113 3.752.368.368 0 0 0 .1.272c.04.039.088.07.14.091.053.02.108.03.165.029.204-.003.414-.14.42-.398.012-.645.037-1.39.061-2.11.016-.495.029-.904.039-1.284l.012-.345c.179.51.393.884.671 1.175a.399.399 0 0 0 .289.11.379.379 0 0 0 .22-.068c.383-.284.644-.736.878-1.183l-.036.362c-.042.444-.096.94-.148 1.421l-.002.022c-.079.731-.16 1.487-.216 2.147a.355.355 0 0 0 .083.27.384.384 0 0 0 .291.116c.21-.002.433-.14.453-.399ZM290.257 272.209c.179-.567.345-1.141.47-1.581.445-.236.851-.448 1.241-.65.239.82.528 1.622.865 2.404.061.141.213.23.387.228a.445.445 0 0 0 .227-.062c.207-.125.274-.373.168-.617-.3-.687-.571-1.462-.832-2.367.222-.111.421-.211.608-.302a.397.397 0 0 0 .228-.454c-.041-.192-.215-.389-.461-.387a.47.47 0 0 0-.2.05l-.417.206a51.1 51.1 0 0 1-.331-1.38 15.277 15.277 0 0 0-.14-.575 3.649 3.649 0 0 1-.057-.248l-.003-.021a.43.43 0 0 0-.195-.556.452.452 0 0 0-.227-.061.36.36 0 0 0-.22.074.599.599 0 0 0-.229.347l-.015-.005-.019.085c-.408 1.122-.736 2.282-1.052 3.407l-.075.261-.031.017a.67.67 0 0 0-.159.084l-.076.043-.078.042.003.008a.402.402 0 0 0-.142.424.499.499 0 0 0 .219.308c-.116.396-.215.726-.315 1.037a.426.426 0 0 0-.021.197.4.4 0 0 0 .24.32c.067.032.14.048.214.046a.426.426 0 0 0 .265-.087.453.453 0 0 0 .16-.235Zm.81-2.779c.108-.381.249-.871.405-1.379l.008.034c.049.219.103.466.165.71l.076.297a36.52 36.52 0 0 0-.654.338Z" fill="#D7244F"/><path d="M296.32 270.854a.438.438 0 0 0-.217.061 4.77 4.77 0 0 1-.964.432 1.752 1.752 0 0 1-.475.076l-.017-.002c-.022-.126.011-.306.036-.452.045-.253.096-.539.139-.829.243-1.662.375-2.996.43-4.325a.42.42 0 0 0-.109-.314.43.43 0 0 0-.323-.129.454.454 0 0 0-.461.445c-.071 1.722-.224 3.197-.484 4.642l-.028.148-.004.018c-.104.541-.236 1.214.285 1.566a.961.961 0 0 0 .561.149c.204-.008.407-.04.605-.094.446-.109.865-.326 1.25-.545a.418.418 0 0 0 .211-.484c-.042-.182-.207-.366-.435-.363ZM311.663 270.987h-.034c-.363.004-.56.303-.568.597-.007.282.16.593.545.606h.03c.364-.004.563-.303.571-.596.007-.283-.16-.594-.544-.607ZM307.215 267.682c-.119-.895-.652-1.657-1.393-1.99a1.908 1.908 0 0 0-.802-.171c-.52.005-.974.23-1.278.633a2.091 2.091 0 0 0-.225.363.48.48 0 0 0 .02.469.503.503 0 0 0 .285.221c-.025.678-.033 1.379-.025 2.082.007.493.022 1.077.088 1.666l.011.101c-.074.01-.146.016-.215.018-.3.01-.454.257-.453.495.002.223.141.46.442.457h.012a3.12 3.12 0 0 0 .43-.045.828.828 0 0 0 .075.125.5.5 0 0 0 .401.221.443.443 0 0 0 .228-.068.513.513 0 0 0 .227-.334.43.43 0 0 0-.015-.236 3.866 3.866 0 0 0 1.291-1.017c.708-.854 1.034-1.944.896-2.99Zm-2.43-1.182a.515.515 0 0 1 .206-.036l.052-.001a.935.935 0 0 1 .313.064c.46.154.829.659.94 1.285.124.708-.132 1.584-.651 2.231a2.9 2.9 0 0 1-.847.717 18.691 18.691 0 0 1-.07-1.588c-.011-.908.009-1.807.057-2.672ZM310.473 269.521a24.333 24.333 0 0 0-.251-1.935c-.08-.443-.173-.912-.334-1.357-.073-.201-.151-.392-.299-.53a.579.579 0 0 0-.396-.157.538.538 0 0 0-.405.19.463.463 0 0 0-.116.226.464.464 0 0 0 .017.253l.003.008a.379.379 0 0 0-.018.042c-.171.459-.322.928-.47 1.382v.003c-.165.505-.314.959-.482 1.409-.227.077-.288.285-.27.441.006.05.02.1.041.146a8.999 8.999 0 0 0-.234.633c-.093.297-.201.736-.062 1.112.077.206.248.336.446.334a.507.507 0 0 0 .122-.018.525.525 0 0 0 .299-.259.42.42 0 0 0 .025-.341c-.071-.192.02-.457.101-.691l.019-.055c.063-.186.139-.37.212-.548l.019-.049c.319-.072.652-.138 1.111-.222l.022.213c.083.809.169 1.646.356 2.453a.415.415 0 0 0 .423.342.515.515 0 0 0 .394-.195.468.468 0 0 0 .081-.401c-.184-.795-.27-1.625-.354-2.429Zm-1.021-.832c-.255.046-.467.086-.663.125.101-.293.201-.597.294-.882l.01-.032.151-.459c.042.195.081.413.123.661l.029.183.01.075.011.081.006.042.029.206ZM312.116 268.231l.017-.26v-.009c.012-.187.02-.297.027-.379v-.019c.011-.146.019-.233.031-.567l.003-.098.003-.051c.014-.331.03-.673-.054-.99a.45.45 0 0 0-.449-.347.488.488 0 0 0-.389.191.428.428 0 0 0-.069.387c.012.048.02.096.025.145v.03a9.797 9.797 0 0 1-.008.825c-.013.331-.022.445-.036.605v.005c-.008.103-.019.23-.033.46l-.012.184c-.025.394-.043.68-.041 1.126v.086c-.002.359-.005.958.441 1.025a.716.716 0 0 0 .113.008.41.41 0 0 0 .35-.169c.126-.179.093-.437.053-.562a.451.451 0 0 1-.017-.089l-.002-.032v-.008a.29.29 0 0 0-.003-.038l-.004-.129v-.01c-.002-.101.001-.207.001-.297.012-.407.029-.665.053-1.023ZM318.18 265.697a.39.39 0 0 0-.324.176l-.015-.005-.035.104a30.745 30.745 0 0 1-.61 1.592l-.002.006c-.095.233-.173.428-.249.623a35.596 35.596 0 0 1-.621-.942 3.77 3.77 0 0 0-.15-.22 2.032 2.032 0 0 1-.159-.25 6.641 6.641 0 0 1-.243-.462l-.008-.021-.016-.048a.376.376 0 0 0-.135-.2.37.37 0 0 0-.229-.072.428.428 0 0 0-.182.044.38.38 0 0 0-.195.461v.004c.203.478.303.635.523.977l.101.156.002.003a32.7 32.7 0 0 0 .975 1.456c-.358 1.008-.548 1.824-.597 2.568a.354.354 0 0 0 .089.275.37.37 0 0 0 .277.113.4.4 0 0 0 .404-.38c.085-1.28.623-2.592 1.142-3.863l.004-.011c.173-.424.337-.824.486-1.226a.432.432 0 0 0 .058-.118c.014-.042.026-.085.038-.132.011-.039.022-.078.035-.118.02-.054.027-.113.02-.171a.366.366 0 0 0-.062-.159.4.4 0 0 0-.322-.16ZM315.181 270.545a.453.453 0 0 0-.22.061 4.286 4.286 0 0 1-.884.397c-.134.04-.272.063-.411.069-.009-.106.016-.25.036-.369l.002-.012c.042-.233.09-.497.128-.761.218-1.489.351-2.837.402-4.12a.437.437 0 0 0-.111-.319.444.444 0 0 0-.327-.131.458.458 0 0 0-.466.45c-.054 1.3-.201 2.742-.452 4.407-.009.062-.021.129-.035.209-.088.49-.197 1.102.287 1.429a.915.915 0 0 0 .541.144c.192-.007.382-.036.568-.087.417-.103.808-.305 1.168-.508a.425.425 0 0 0 .215-.492c-.044-.184-.211-.37-.441-.367Z" fill="#D7244F"/><path d="m318.532 273.544-18.202.182-.015 3.293 18.201-.183.016-3.292Z" fill="#D8254F"/><path d="M303.227 275.631a.405.405 0 0 0-.156-.101 1.739 1.739 0 0 0-.212-.067 2.326 2.326 0 0 1-.233-.072 1.126 1.126 0 0 1-.212-.104.445.445 0 0 1-.155-.175.576.576 0 0 1-.06-.275.532.532 0 0 1 .185-.41c.123-.111.288-.167.497-.169a.868.868 0 0 1 .396.093c.042.023.083.049.122.077a.5.5 0 0 1 .077.068l.023.029-.207.214-.017-.019a.645.645 0 0 0-.13-.098.589.589 0 0 0-.266-.06.395.395 0 0 0-.257.084.24.24 0 0 0-.098.191.231.231 0 0 0 .059.163c.044.045.097.08.156.101.069.027.14.049.212.067.079.02.157.044.233.072.074.026.146.061.212.103.066.043.12.103.156.175a.57.57 0 0 1 .059.273.609.609 0 0 1-.198.459c-.131.119-.312.18-.543.182a.976.976 0 0 1-.621-.207.73.73 0 0 1-.087-.08l-.029-.037.207-.212.02.025a.622.622 0 0 0 .314.187c.064.017.13.025.197.024a.455.455 0 0 0 .304-.099.308.308 0 0 0 .112-.238.239.239 0 0 0-.06-.164ZM306.038 274.259l-.002.302-.62.006-.009 1.81-.323.004.008-1.811-.62.007.002-.302 1.564-.016ZM308.315 275.908a.571.571 0 0 0 .164-.405l.006-1.269.326-.003-.006 1.268a.864.864 0 0 1-.257.621.886.886 0 0 1-.618.262.86.86 0 0 1-.867-.865l.006-1.268.326-.004-.006 1.268a.56.56 0 0 0 .334.527.533.533 0 0 0 .208.042.538.538 0 0 0 .384-.173v-.001ZM310.802 274.211a.997.997 0 0 1 .737.305 1.027 1.027 0 0 1 .305.741 1.047 1.047 0 0 1-.312.747 1.039 1.039 0 0 1-.339.237.993.993 0 0 1-.401.082l-.724.008.01-2.113.724-.007Zm-.401.306-.007 1.508.399-.004a.689.689 0 0 0 .512-.224.79.79 0 0 0 .213-.537.766.766 0 0 0-.208-.533.671.671 0 0 0-.51-.214l-.399.004ZM313.028 274.189l.325-.003-.01 2.112-.324.003.009-2.112ZM314.844 274.456c.211-.212.47-.319.777-.323a1.044 1.044 0 0 1 1.007.658 1.1 1.1 0 0 1-.004.835 1.113 1.113 0 0 1-.234.355c-.211.213-.47.32-.779.324-.309.003-.567-.1-.774-.308a1.077 1.077 0 0 1-.31-.767 1.109 1.109 0 0 1 .317-.774Zm.227 1.325c.125.13.291.21.47.228a.772.772 0 0 0 .509-.131.812.812 0 0 0 .295-.965.77.77 0 0 0-.347-.394.755.755 0 0 0-.517-.076.79.79 0 0 0-.451.279.81.81 0 0 0-.179.505.744.744 0 0 0 .22.554Z" fill="#fff"/></g><path d="M227.17 186.79c20.69 19.28 36.29 19.35 48.54 14 4.26 5.92 9.52 13.91 12.13 20.54-50.35 15.06-65.87-31.1-65.87-31.1l5.2-3.44Z" fill="#F9B384"/><path d="M364.64 289.72s6.56-83.9-41.24-113c0 0-13.36-8.83-30 8.26s-11.29 34.83 2.68 51.47c13.97 16.64 28.21 37.48 24.82 54.11 4 1.92 13.3.17 23.43.19 10.13.02 16.34.89 20.31-1.03Z" fill="#D8254F"/><path d="M305.57 228.84s-30.19 25.29-62.8 14.25a7.802 7.802 0 0 0-6.12.46l-9.38 4.95a8.367 8.367 0 0 1-11.09-3.1 17.623 17.623 0 0 1-2.63-7.05l18.34-7.43-1.35-2.25s9-.76 11.3 5.66c0 0 17.06 7.1 45.82-24.54 0 0 13.06 11.1 17.91 19.05Z" fill="#F9B384"/><path opacity=".3" d="M307.2 228.73a.631.631 0 0 0 .37-.12c12.75-8.61 18.75-22.52 18.81-22.66a.668.668 0 0 0-.35-.88.675.675 0 0 0-.513.001.676.676 0 0 0-.367.359c-.06.13-5.91 13.69-18.33 22.07a.67.67 0 0 0 .38 1.23ZM288.26 209.51a.676.676 0 0 0 .56-.31c0-.06 3.93-6.11 11.33-19.36 2.25-4 5.21-6.59 8.79-7.59 5.94-1.67 11.67 1.52 11.72 1.55a.67.67 0 0 0 .91-.25.66.66 0 0 0-.25-.91A16.662 16.662 0 0 0 309.1 181a16.85 16.85 0 0 0-10.1 8.19c-7.37 13.21-11.24 19.23-11.28 19.29a.656.656 0 0 0 .012.74.688.688 0 0 0 .528.29Z" fill="#0F0F0F"/><path d="M281.82 140s-2.88 24.28 3.25 33.13c6.13 8.85 12.4.44 12.4.44l.24 9.45s5.62 1 17.53-8.05c0 0-6.73-3.18-5.61-14.54 0 0 8.25-5.14 1.91-11.46-6.34-6.32-5 3.68-5 3.68s-4.95-31.95-24.72-12.65Z" fill="#F9B384"/><path d="M281.68 141.37s5.08 6.91 14.86.32c6.87-4.62 8.74 5.64 8.74 5.64L304.17 132l-13.23-1.38-9.81 3.6-1.78 4.44 2.33 2.71Z" fill="#231F20"/><path opacity=".3" d="M283.76 213.92s-8.9 9.29-11.55 10.29" stroke="#000" stroke-width=".75" stroke-miterlimit="10"/><path d="M377.89 287.89c11.294 0 20.45-8.842 20.45-19.75s-9.156-19.75-20.45-19.75c-11.294 0-20.45 8.842-20.45 19.75s9.156 19.75 20.45 19.75Z" fill="#FBE9ED"/><path d="M355.28 287.94c9.101 0 16.48-7.128 16.48-15.92s-7.379-15.92-16.48-15.92c-9.102 0-16.48 7.128-16.48 15.92s7.378 15.92 16.48 15.92Z" fill="#FBE9ED"/><path d="M338.79 287.94c4.551 0 8.24-3.564 8.24-7.96s-3.689-7.96-8.24-7.96-8.24 3.564-8.24 7.96 3.689 7.96 8.24 7.96Z" fill="#FBE9ED"/><path d="M310.09 289.18h90.38s-35.88-14.28-90.38 0Z" fill="#FBE9ED"/><g clip-path="url(#e)"><path fill="#F7CD97" d="m193.085 257.636 63.274-.636-.085 18.04-63.274.635z"/><path d="m200.025 262.919.191-.042c-.294 1.916-.585 4.341-.563 5.105.012.397.293.68.67.676a.779.779 0 0 0 .343-.087c1.711-.869 2.769-1.153 4.522-1.625.411-.11.521-.466.489-.736-.037-.315-.275-.634-.658-.63a.738.738 0 0 0-.181.025c-1.5.404-2.505.691-3.754 1.246.029-.298.066-.643.111-1.026.243-.103.468-.201.68-.293 1.169-.507 1.94-.842 3.326-1.242.411-.119.516-.478.483-.752-.04-.309-.274-.619-.646-.615-.065 0-.13.01-.193.029-1.403.407-2.18.744-3.358 1.256l-.089.038c.106-.749.212-1.468.309-2.031.99-.451 1.904-.69 3.348-.996a.612.612 0 0 0 .502-.688c-.029-.328-.283-.675-.692-.671a.737.737 0 0 0-.147.017c-1.138.242-2.02.458-2.891.792a.538.538 0 0 0-.079-.104.695.695 0 0 0-.515-.21.648.648 0 0 0-.644.51 4.35 4.35 0 0 1-.047.173v.007c-.035.127-.079.283-.104.399-.176.054-.816.176-1.437.291l-.03.006c-.728.135-1.552.288-2.078.416.017-.41.034-.771.051-1.103.009-.2.015-.406.02-.606l.001-.115c.606-.098 1.208-.199 1.932-.321l.018-.003c.789-.133 1.684-.284 2.554-.419a.541.541 0 0 0 .374-.257.736.736 0 0 0 .099-.564c-.079-.298-.321-.473-.648-.47a.817.817 0 0 0-.131.011c-.823.128-1.66.269-2.468.405l-.036.007c-.535.09-1.061.179-1.594.267.028-.192.069-.381.122-.567a.63.63 0 0 0 .023-.289.598.598 0 0 0-.111-.266.68.68 0 0 0-.553-.266.604.604 0 0 0-.386.129.635.635 0 0 0-.225.345 5.913 5.913 0 0 0-.199 1.119 61.42 61.42 0 0 1-2.025.276c-.378.045-.636.313-.638.669-.001.323.292.698.659.655a64.36 64.36 0 0 0 1.935-.26l-.013.315c-.025.49-.049 1.01-.075 1.689-.245.082-.469.162-.684.245-.284.108-.488.464-.456.789.027.27.204.453.477.49.157.026.318.021.475-.015l.129-.031-.021.526a198.466 198.466 0 0 1-.189 4.142.603.603 0 0 0 .149.457.646.646 0 0 0 .214.144.64.64 0 0 0 .253.045.673.673 0 0 0 .68-.644c.084-1.392.138-2.801.191-4.164l.034-.869c.715-.196 2.307-.54 3.074-.707l.12-.027ZM229.648 265.157c-.037-.315-.275-.634-.658-.63a.74.74 0 0 0-.181.026c-1.576.424-2.711.747-4.034 1.329.022-.294.055-.639.098-1.027l.03-.011c.405-.174.744-.323.968-.425.846-.376 1.312-.583 2.559-.945.412-.119.516-.477.482-.752-.039-.309-.273-.62-.645-.616a.738.738 0 0 0-.192.029c-1.266.368-1.736.577-2.59.957-.129.057-.264.118-.412.182.107-.75.224-1.517.337-2.166.433-.191.903-.325 1.346-.444.604-.16.978-.229 1.41-.309h.005c.223-.041.5-.092.854-.166.337-.071.535-.34.503-.688-.029-.33-.283-.68-.694-.676a.706.706 0 0 0-.144.016c-.352.073-.695.135-1.028.195-.669.12-1.364.244-2.028.46a.606.606 0 0 0-.143-.235.707.707 0 0 0-.512-.208.645.645 0 0 0-.644.508c-.034.139-.077.343-.127.606-.281.182-.546.39-.79.622a.634.634 0 0 0-.175.706.74.74 0 0 0 .656.471c-.301 1.92-.59 4.243-.501 5.028.046.396.323.67.675.666a.75.75 0 0 0 .337-.086c1.697-.862 2.979-1.207 4.753-1.684.408-.108.516-.463.485-.733ZM211.197 268.702c.08-.95.199-2.058.316-3.128v-.023c.081-.751.165-1.525.232-2.227a109.699 109.699 0 0 1 .283-2.684c.048-.411.096-.837.197-1.242a.576.576 0 0 0-.096-.497.677.677 0 0 0-.532-.253.59.59 0 0 0-.308.084.617.617 0 0 0-.225.234c-.259.457-.489.927-.713 1.382-.14.286-.299.61-.459.916a23.72 23.72 0 0 1-.79 1.419 9.765 9.765 0 0 1-.224.351 31.104 31.104 0 0 1-.577-1.825 35.163 35.163 0 0 0-.376-1.248l-.177-.568a1.712 1.712 0 0 0-.022-.151l-.002-.007a1.705 1.705 0 0 0-.071-.184c-.095-.188-.302-.304-.54-.302a.69.69 0 0 0-.317.08.608.608 0 0 0-.181.154.577.577 0 0 0-.156.318 2.712 2.712 0 0 0-.072.553 3.218 3.218 0 0 1-.021.242c-.1.736-.164 1.519-.209 2.541a272.843 272.843 0 0 0-.173 5.717.587.587 0 0 0 .034.224.588.588 0 0 0 .118.191.644.644 0 0 0 .466.182c.311-.003.631-.212.64-.606.019-.983.056-2.118.092-3.216.025-.754.046-1.377.061-1.956.005-.172.01-.349.018-.526.272.776.599 1.347 1.022 1.79a.604.604 0 0 0 .441.169.577.577 0 0 0 .335-.104c.584-.433.981-1.123 1.338-1.803l-.054.551c-.065.676-.147 1.433-.226 2.166l-.003.034c-.12 1.114-.244 2.265-.329 3.272a.515.515 0 0 0 .126.411.585.585 0 0 0 .443.178c.32-.004.66-.214.691-.609ZM213.204 267.987c.274-.864.527-1.739.718-2.409a180.6 180.6 0 0 1 1.89-.991 31.91 31.91 0 0 0 1.319 3.664c.093.214.324.35.589.348a.689.689 0 0 0 .347-.095c.315-.191.417-.569.255-.941-.457-1.046-.869-2.228-1.267-3.607.338-.169.641-.322.927-.46a.606.606 0 0 0 .346-.693c-.063-.292-.328-.592-.701-.588a.69.69 0 0 0-.305.075c-.21.102-.422.207-.636.313a71.308 71.308 0 0 1-.504-2.102 24.022 24.022 0 0 0-.215-.876 5.168 5.168 0 0 1-.085-.378l-.006-.032a.668.668 0 0 0-.296-.848.716.716 0 0 0-.347-.094.556.556 0 0 0-.336.114.923.923 0 0 0-.348.528l-.023-.006-.029.129c-.622 1.71-1.121 3.478-1.604 5.192l-.113.398-.048.026a.827.827 0 0 0-.117.054 3.524 3.524 0 0 0-.126.073 2.278 2.278 0 0 1-.115.067l-.119.064.005.011a.617.617 0 0 0-.217.647.767.767 0 0 0 .334.47 62.322 62.322 0 0 1-.48 1.58.65.65 0 0 0-.032.3.613.613 0 0 0 .366.488.706.706 0 0 0 .325.07.656.656 0 0 0 .405-.133.681.681 0 0 0 .243-.358Zm1.235-4.236c.164-.579.379-1.327.618-2.101l.011.052a38.665 38.665 0 0 0 .368 1.534c-.315.16-.642.327-.997.515Z" fill="#D7244F"/><path d="M222.445 265.921a.683.683 0 0 0-.331.093c-.562.318-1.015.521-1.469.659a2.705 2.705 0 0 1-.724.117l-.025-.004c-.033-.192.016-.466.054-.689.069-.385.147-.822.212-1.263.371-2.533.572-4.566.655-6.592a.663.663 0 0 0-.034-.258.622.622 0 0 0-.131-.22.682.682 0 0 0-.492-.198c-.336.004-.686.238-.704.679-.107 2.624-.342 4.872-.738 7.076-.012.071-.027.144-.042.224l-.006.028c-.158.824-.359 1.85.434 2.386.231.156.513.23.855.227.311-.012.621-.06.922-.142.68-.167 1.319-.498 1.905-.831a.637.637 0 0 0 .323-.738c-.065-.277-.317-.557-.664-.554ZM245.828 266.125h-.051c-.553.006-.854.462-.866.91-.012.43.243.903.83.924l.045-.001c.556-.005.859-.461.871-.909.011-.431-.244-.904-.829-.924ZM239.049 261.088c-.18-1.364-.993-2.525-2.122-3.033a2.926 2.926 0 0 0-1.223-.261c-.792.008-1.484.351-1.947.965a3.121 3.121 0 0 0-.343.554.723.723 0 0 0 .03.713c.1.163.254.283.434.338a65.24 65.24 0 0 0-.037 3.173c.01.752.033 1.641.133 2.539l.017.154a3.176 3.176 0 0 1-.327.027c-.457.016-.693.392-.69.755.002.339.214.701.673.696h.018c.219-.008.438-.031.655-.068.033.067.072.13.115.191.158.215.38.338.611.335a.671.671 0 0 0 .347-.102.792.792 0 0 0 .346-.51.664.664 0 0 0-.022-.359 5.893 5.893 0 0 0 1.968-1.551c1.077-1.302 1.575-2.962 1.364-4.556Zm-3.703-1.802c.1-.04.207-.059.313-.055l.08-.001c.164.004.325.037.477.097.702.236 1.264 1.005 1.432 1.959.19 1.078-.2 2.413-.992 3.4a4.384 4.384 0 0 1-1.289 1.092 28.112 28.112 0 0 1-.108-2.419 60.559 60.559 0 0 1 .087-4.073ZM244.015 263.89c-.099-.97-.205-1.973-.383-2.949-.123-.674-.263-1.39-.51-2.068-.111-.306-.229-.598-.455-.807a.876.876 0 0 0-.603-.24.852.852 0 0 0-.618.289.727.727 0 0 0-.146.743.74.74 0 0 0-.027.065c-.261.698-.492 1.413-.717 2.105v.005a56.654 56.654 0 0 1-.734 2.148c-.346.117-.439.433-.412.671.009.077.03.152.063.222-.118.292-.252.633-.357.966-.142.453-.306 1.122-.094 1.695.118.314.378.511.679.508a.693.693 0 0 0 .453-.178.79.79 0 0 0 .189-.244.644.644 0 0 0 .038-.52c-.108-.292.031-.696.153-1.052l.029-.084c.097-.283.212-.564.323-.835l.031-.075c.485-.11.993-.211 1.693-.338l.033.323c.127 1.234.258 2.509.543 3.739a.643.643 0 0 0 .227.382.622.622 0 0 0 .418.139.79.79 0 0 0 .599-.297.71.71 0 0 0 .125-.611c-.281-1.211-.413-2.477-.54-3.702Zm-1.556-1.268c-.389.071-.712.131-1.011.191.154-.447.306-.91.448-1.345l.016-.048.23-.7c.063.298.123.629.187 1.008.015.093.03.186.043.279.006.038.012.076.016.113l.018.125.009.064.044.313ZM246.519 261.925l.026-.396v-.014c.018-.285.031-.453.041-.578v-.029c.018-.222.029-.356.047-.865 0-.048.004-.098.006-.148l.003-.078c.023-.505.046-1.026-.081-1.509a.674.674 0 0 0-.685-.529.752.752 0 0 0-.592.291.654.654 0 0 0-.123.283.65.65 0 0 0 .017.307c.018.073.031.147.038.222v.045a15.794 15.794 0 0 1-.011 1.256c-.02.505-.034.679-.056.924v.007a33.16 33.16 0 0 0-.05.701l-.018.279a21.933 21.933 0 0 0-.063 1.717v.114l-.001.017c-.002.547-.006 1.461.674 1.563.057.008.114.012.171.012.235-.003.412-.089.534-.258.192-.273.141-.666.08-.856a.787.787 0 0 1-.025-.137c0-.005 0-.022-.003-.047v-.013c0-.023-.004-.047-.005-.057a6.644 6.644 0 0 1-.006-.198v-.015c-.003-.154.001-.315.002-.452.018-.621.044-1.014.08-1.559ZM255.76 258.062a.582.582 0 0 0-.493.268l-.023-.007-.052.158c-.271.792-.592 1.587-.931 2.427l-.004.009c-.143.355-.263.653-.379.949-.3-.44-.612-.911-.946-1.436a5.737 5.737 0 0 0-.228-.334 3.243 3.243 0 0 1-.243-.382 10.507 10.507 0 0 1-.275-.504c-.03-.061-.062-.126-.095-.199l-.013-.033c-.009-.023-.016-.048-.023-.072a.552.552 0 0 0-.555-.415.632.632 0 0 0-.5.253.561.561 0 0 0-.075.517v.006c.309.728.462.967.797 1.489l.153.237.003.005c.52.818 1.007 1.544 1.487 2.219-.546 1.536-.835 2.779-.91 3.914a.53.53 0 0 0 .024.224.528.528 0 0 0 .111.194.56.56 0 0 0 .422.173.61.61 0 0 0 .616-.58c.13-1.95.949-3.949 1.741-5.887l.006-.016c.264-.646.514-1.257.741-1.87a.616.616 0 0 0 .088-.178c.021-.065.04-.131.059-.202.016-.059.033-.119.052-.18a.548.548 0 0 0-.063-.503.594.594 0 0 0-.217-.181.594.594 0 0 0-.275-.063ZM251.19 265.45a.71.71 0 0 0-.335.094c-.515.292-.932.478-1.348.605a2.516 2.516 0 0 1-.625.105c-.014-.162.024-.381.054-.562l.003-.018c.064-.356.137-.759.196-1.161.331-2.269.534-4.323.611-6.278a.66.66 0 0 0-.169-.487.68.68 0 0 0-.498-.2c-.34.003-.693.24-.711.687-.081 1.981-.306 4.178-.688 6.715-.014.096-.032.197-.053.319-.134.748-.301 1.679.438 2.178.224.152.493.224.824.221.292-.012.582-.057.866-.134.635-.156 1.23-.465 1.779-.774a.65.65 0 0 0 .329-.75c-.068-.28-.322-.563-.673-.56Z" fill="#D7244F"/><path d="m256.297 270.021-27.74.278-.024 5.018 27.741-.279.023-5.017Z" fill="#D8254F"/><path d="M232.972 273.203a.607.607 0 0 0-.238-.155 2.577 2.577 0 0 0-.323-.102 3.388 3.388 0 0 1-.355-.11 1.695 1.695 0 0 1-.323-.158.684.684 0 0 1-.237-.266.875.875 0 0 1-.09-.419.806.806 0 0 1 .282-.626c.186-.169.439-.255.756-.258a1.275 1.275 0 0 1 .79.26.68.68 0 0 1 .117.104l.035.044-.316.326-.025-.03a.917.917 0 0 0-.198-.148.843.843 0 0 0-.405-.091.598.598 0 0 0-.393.127.372.372 0 0 0-.058.539c.066.07.147.123.237.155.106.041.214.075.324.102.12.03.238.067.355.109.113.04.221.093.323.157a.687.687 0 0 1 .237.267.879.879 0 0 1 .09.417.918.918 0 0 1-.302.699c-.2.181-.476.274-.827.277a1.533 1.533 0 0 1-.729-.17 1.863 1.863 0 0 1-.217-.145 1.1 1.1 0 0 1-.133-.122l-.044-.056.316-.324a.464.464 0 0 0 .029.039.989.989 0 0 0 .094.089.95.95 0 0 0 .158.11.996.996 0 0 0 .228.085c.097.026.198.038.299.037.195-.002.349-.052.463-.151a.458.458 0 0 0 .171-.363.34.34 0 0 0-.091-.249ZM237.255 271.111l-.002.461-.946.009-.013 2.759-.493.005.013-2.759-.945.009.002-.46 2.384-.024ZM240.726 273.624a.867.867 0 0 0 .25-.618l.009-1.932.496-.005-.009 1.932a1.292 1.292 0 0 1-.392.946c-.252.253-.59.396-.941.4a1.314 1.314 0 0 1-1.226-.807 1.29 1.29 0 0 1-.095-.511l.009-1.933.496-.005-.009 1.932a.836.836 0 0 0 .244.614.783.783 0 0 0 .901.182.823.823 0 0 0 .267-.193v-.002ZM244.515 271.038a1.505 1.505 0 0 1 1.124.465 1.553 1.553 0 0 1 .465 1.129 1.62 1.62 0 0 1-.476 1.138 1.572 1.572 0 0 1-.516.362 1.524 1.524 0 0 1-.612.125l-1.103.012.016-3.219 1.102-.012Zm-.61.467-.011 2.298.608-.006c.145.001.29-.028.424-.087a1.07 1.07 0 0 0 .357-.254c.207-.222.323-.515.325-.819a1.18 1.18 0 0 0-.318-.813 1.026 1.026 0 0 0-.777-.325l-.608.006ZM247.909 271.004l.495-.005-.015 3.219-.494.005.014-3.219ZM250.677 271.412c.32-.323.715-.487 1.184-.492a1.589 1.589 0 0 1 1.534 1.003 1.704 1.704 0 0 1-.363 1.813 1.63 1.63 0 0 1-1.187.493 1.57 1.57 0 0 1-1.179-.469 1.623 1.623 0 0 1-.352-.534 1.68 1.68 0 0 1 .006-1.272 1.67 1.67 0 0 1 .357-.542Zm.345 2.019c.191.198.444.321.716.347.272.027.546-.043.775-.2.23-.156.4-.388.482-.656a1.223 1.223 0 0 0-.031-.814 1.153 1.153 0 0 0-1.317-.716 1.206 1.206 0 0 0-.687.424 1.24 1.24 0 0 0-.273.77 1.156 1.156 0 0 0 .335.845Z" fill="#fff"/></g></g><defs><clipPath id="a"><rect width="428" height="308" rx="4" fill="#fff"/></clipPath><clipPath id="b"><path fill="#fff" transform="matrix(.99724 .07427 -.08898 .99603 197.343 148)" d="M0 0h52.959v15.097H0z"/></clipPath><clipPath id="c"><path fill="#fff" transform="matrix(1 0 -.01476 .9999 129.192 265)" d="M0 0h45.608v13.001H0z"/></clipPath><clipPath id="d"><path fill="#fff" transform="matrix(.99995 -.01004 -.00472 .99999 277.056 265.417)" d="M0 0h41.519v11.836H0z"/></clipPath><clipPath id="e"><path fill="#fff" transform="matrix(.99995 -.01004 -.00472 .99999 193.085 257.636)" d="M0 0h63.277v18.039H0z"/></clipPath></defs></svg>