<svg xmlns="http://www.w3.org/2000/svg" width="1440" height="310" fill="none"><g clip-path="url(#a)"><path fill="#fff" d="M0 0h1440v310H0z"/><path fill="#FBE9ED" d="M1440 0H0v310h1440V0Z"/><g fill="#fff" opacity=".5"><path d="M1017.1 162.5h-14.7L945.801 219v14.7l71.299-71.2ZM945.801 177.1l14.6-14.6h-14.6v14.6ZM988.801 162.5h-14.7l-28.3 28.2v14.7l43-42.9ZM1023.9 225.9l-14.6 14.6h14.6v-14.6ZM1023.9 212.3v-14.7L981 240.5h14.7l28.2-28.2ZM1023.9 184v-14.7l-71.199 71.2h14.6L1023.9 184Z" opacity=".5"/></g><g fill="#fff" opacity=".5"><path d="M518.301 160.6h-9.3l-35.7 35.8v9.2l45-45ZM473.301 169.8l9.2-9.2h-9.2v9.2ZM500.401 160.6h-9.3l-17.8 17.8v9.3l27.1-27.1ZM522.6 200.7l-9.2 9.2h9.2v-9.2ZM522.601 192.1v-9.3l-27.1 27.1h9.3l17.8-17.8ZM522.601 174.2v-9.3l-45 45h9.3l35.7-35.7Z" opacity=".5"/></g><path stroke="#fff" stroke-miterlimit="10" stroke-width="82.31" d="M1440 186.8c-103.2 0-186.8-83.6-186.8-186.8" opacity=".5"/><path fill="#A0E8CB" d="M0 76.1v1.4l1-.1c-.4-.5-.7-.9-1-1.3Z"/><path fill="#EB92A7" d="M0 84.8h115.2c-12.1-2.9-24.3-5.2-36.6-6.8 1.9-2.2 2.9-5.1 2.9-8 0-7.2-6.1-13-13.5-13 0-14.3-12.2-25.9-27.2-25.9-12.9 0-23.6 8.5-26.4 20h-.7c-5.4 0-10.4 2.5-13.7 6.8v26.9Z"/><path fill="#F3BDCA" d="M1188.8 310c28.3-9.3 57.1-16.7 86.4-22.3-2.5-4.6-3.7-9.8-3.7-15 0-18.5 15.7-33.5 35-33.5 2.7 0 5.4.3 8 .9 3.3-30 29.9-53.3 62.1-53.3 26.7 0 49.5 16 58.4 38.6 1.6-.4 3.3-.8 5-1V310h-251.2Z"/><path fill="#EB92A7" d="M1325.4 80.7c11.49 0 20.8-8.283 20.8-18.5s-9.31-18.5-20.8-18.5-20.8 8.283-20.8 18.5 9.31 18.5 20.8 18.5Z"/><path fill="#EB92A7" d="M1346.2 80.6c5.74 0 10.4-4.119 10.4-9.2 0-5.081-4.66-9.2-10.4-9.2s-10.4 4.119-10.4 9.2c0 5.081 4.66 9.2 10.4 9.2ZM1304.6 80.6c7.07 0 12.8-5.06 12.8-11.3 0-6.24-5.73-11.3-12.8-11.3s-12.8 5.06-12.8 11.3c0 6.24 5.73 11.3 12.8 11.3Z"/><path fill="#EB92A7" d="M1382.5 82.1h-114.1s45.3-16.6 114.1 0ZM453.701 278.9c18.28 0 33.1-14.282 33.1-31.9s-14.82-31.9-33.1-31.9c-18.281 0-33.1 14.282-33.1 31.9s14.819 31.9 33.1 31.9Z"/><path fill="#EB92A7" d="M420.5 278.9c9.168 0 16.6-7.163 16.6-16s-7.432-16-16.6-16c-9.168 0-16.6 7.163-16.6 16s7.432 16 16.6 16ZM486.9 278.9c11.267 0 20.4-8.775 20.4-19.6 0-10.825-9.133-19.6-20.4-19.6s-20.4 8.775-20.4 19.6c0 10.825 9.133 19.6 20.4 19.6Z"/><path fill="#EB92A7" d="M362.801 281.4h181.8s-72.2-28.7-181.8 0ZM312.1 279c22.036 0 39.9-17.192 39.9-38.4s-17.864-38.4-39.9-38.4c-22.036 0-39.9 17.192-39.9 38.4s17.864 38.4 39.9 38.4Z"/><path fill="#EB92A7" d="M352 279c11.046 0 20-8.596 20-19.2s-8.954-19.2-20-19.2-20 8.596-20 19.2 8.954 19.2 20 19.2ZM272.101 279c13.531 0 24.5-10.566 24.5-23.6s-10.969-23.6-24.5-23.6-24.5 10.566-24.5 23.6 10.969 23.6 24.5 23.6Z"/><path fill="#EB92A7" d="M395.7 281.4H222.4s68.8-27.3 173.3 0Z"/><path fill="#F3BDCA" d="M252.8 138.9c17.342 0 31.4-13.297 31.4-29.7s-14.058-29.7-31.4-29.7c-17.341 0-31.4 13.297-31.4 29.7s14.059 29.7 31.4 29.7Z"/><path fill="#F3BDCA" d="M284.1 138.8c8.671 0 15.7-6.626 15.7-14.8s-7.029-14.8-15.7-14.8c-8.67 0-15.7 6.626-15.7 14.8s7.03 14.8 15.7 14.8ZM221.401 138.8c10.659 0 19.3-8.148 19.3-18.2s-8.641-18.2-19.3-18.2c-10.66 0-19.3 8.148-19.3 18.2s8.64 18.2 19.3 18.2Z"/><path fill="#F3BDCA" d="M341.4 143.1h-156s61.9-32.7 156 0ZM1023.9 258.4c17.34 0 31.4-13.297 31.4-29.7s-14.06-29.7-31.4-29.7c-17.34 0-31.4 13.297-31.4 29.7s14.06 29.7 31.4 29.7Z"/><path fill="#F3BDCA" d="M992.501 258.4c8.669 0 15.699-6.626 15.699-14.8s-7.03-14.8-15.699-14.8c-8.671 0-15.7 6.626-15.7 14.8s7.029 14.8 15.7 14.8ZM1055.2 258.4c10.66 0 19.3-8.148 19.3-18.2s-8.64-18.2-19.3-18.2-19.3 8.148-19.3 18.2 8.64 18.2 19.3 18.2Z"/><path fill="#F3BDCA" d="M935.301 262.6H1091.2s-61.9-32.6-155.899 0ZM523.101 219.1c8.284 0 15-6.402 15-14.3 0-7.898-6.716-14.3-15-14.3-8.285 0-15 6.402-15 14.3 0 7.898 6.715 14.3 15 14.3Z"/><path fill="#F3BDCA" d="M508.101 219c4.142 0 7.5-3.179 7.5-7.1s-3.358-7.1-7.5-7.1c-4.143 0-7.5 3.179-7.5 7.1s3.357 7.1 7.5 7.1ZM538.2 219.1c5.081 0 9.2-3.94 9.2-8.8 0-4.86-4.119-8.8-9.2-8.8-5.081 0-9.2 3.94-9.2 8.8 0 4.86 4.119 8.8 9.2 8.8Z"/><path fill="#F3BDCA" d="M481.801 220.2h82.5c.1 0-32.7-12.8-82.5 0ZM902.199 58.8c8.284 0 15-6.402 15-14.3 0-7.898-6.716-14.3-15-14.3-8.284 0-15 6.402-15 14.3 0 7.898 6.716 14.3 15 14.3Z"/><path fill="#F3BDCA" d="M887.102 58.8c4.142 0 7.5-3.179 7.5-7.1s-3.358-7.1-7.5-7.1c-4.143 0-7.5 3.179-7.5 7.1s3.357 7.1 7.5 7.1ZM917.2 58.8c5.081 0 9.2-3.94 9.2-8.8 0-4.86-4.119-8.8-9.2-8.8-5.081 0-9.2 3.94-9.2 8.8 0 4.86 4.119 8.8 9.2 8.8Z"/><path fill="#F3BDCA" d="M860.9 59.9h82.5s-32.7-12.8-82.5 0Z"/><path stroke="#DB284E" stroke-linecap="round" stroke-miterlimit="10" stroke-width="11.39" d="M291.5 145.7c14.1-51.6 67.4-82.1 119-68 46 12.6 76.1 56.8 70.8 104.2"/><path stroke="#DB284E" stroke-linecap="round" stroke-linejoin="round" stroke-width="11.39" d="m280.101 129.8 11.3 16 17.9-8"/><path stroke="#DB284E" stroke-linecap="round" stroke-miterlimit="10" stroke-width="11.39" d="M477.601 203c-14.1 51.6-67.4 82.1-119 68-46.1-12.6-76.1-56.8-70.8-104.3"/><path stroke="#DB284E" stroke-linecap="round" stroke-linejoin="round" stroke-width="11.39" d="m489.001 218.9-11.4-16-17.8 8"/><path fill="#F3BDCA" d="M456.001 280.4c7.676 0 13.9-5.999 13.9-13.4 0-7.401-6.224-13.4-13.9-13.4-7.677 0-13.9 5.999-13.9 13.4 0 7.401 6.223 13.4 13.9 13.4Z"/><path fill="#F3BDCA" d="M446.7 280.5c3.204 0 5.8-2.507 5.8-5.6 0-3.093-2.596-5.6-5.8-5.6-3.203 0-5.8 2.507-5.8 5.6 0 3.093 2.597 5.6 5.8 5.6ZM469.901 280.5c3.921 0 7.1-3.089 7.1-6.9 0-3.811-3.179-6.9-7.1-6.9s-7.1 3.089-7.1 6.9c0 3.811 3.179 6.9 7.1 6.9Z"/><path fill="#F3BDCA" d="M426.5 281.4H490s-25.2-10.1-63.5 0Z"/><path fill="#F3BDCA" d="M437.2 280.5c6.186 0 11.2-4.835 11.2-10.8 0-5.965-5.014-10.8-11.2-10.8-6.186 0-11.2 4.835-11.2 10.8 0 5.965 5.014 10.8 11.2 10.8Z"/><path fill="#F3BDCA" d="M426 280.5c3.093 0 5.6-2.418 5.6-5.4s-2.507-5.4-5.6-5.4c-3.092 0-5.6 2.418-5.6 5.4s2.508 5.4 5.6 5.4ZM448.4 280.5c3.811 0 6.9-2.955 6.9-6.6 0-3.645-3.089-6.6-6.9-6.6-3.811 0-6.9 2.955-6.9 6.6 0 3.645 3.089 6.6 6.9 6.6Z"/><path fill="#F3BDCA" d="M406.4 281.4h61.4c.1 0-24.3-9.8-61.4 0Z"/><path fill="#606060" d="M326.201 220.5c.4.1.7.4.6.8-.1.4-.4.7-.8.6-.1 0-.2-.1-.3-.1-.4-.2-1.1-1.2-1.1-1.2.5-.2 1.1-.2 1.6-.1ZM333.9 219.5c.4.1.7.6.5 1-.2.4-.7.5-1.1.3-.4-.3-.8-.8-1.1-1.2.6-.2 1.2-.2 1.7-.1Z"/><path fill="#A9EDFF" d="M303.5 237.2c3.5-3.7 8.8-5 13.6-3.4 8.2 2.9 12.5-1.2 12.5-1.2l4.6 5.1-16.8 15-13.9-15.5Z"/><path fill="url(#b)" d="m369.799 160.572-10.495 2.889a.71.71 0 0 0-.497.874l1.28 4.651a.712.712 0 0 0 .875.497l10.495-2.889a.712.712 0 0 0 .497-.875l-1.28-4.65a.711.711 0 0 0-.875-.497Z"/><path fill="url(#c)" d="m375.217 163.902 11.009 39.982a1.31 1.31 0 0 1-.914 1.609l-16.338 4.498a1.31 1.31 0 0 1-1.609-.915l-11.009-39.982a1.308 1.308 0 0 1 .914-1.609l16.338-4.498a1.303 1.303 0 0 1 1.609.914v.001Z"/><path fill="#CE679B" d="m383.249 193.074 2.977 10.81a1.31 1.31 0 0 1-.914 1.609l-16.338 4.498a1.31 1.31 0 0 1-1.609-.915l-7.58-27.528a37.422 37.422 0 0 0 3.308 2.867 38.792 38.792 0 0 0 3.85 2.615c4.229 2.514 8.842 4.258 13.622 5.441.889.217 1.782.418 2.684.602v.001Z" opacity=".16" style="mix-blend-mode:multiply"/><path fill="#3A2738" d="m365.904 157.524-4.815 1.326 1.054 3.829 4.815-1.325-1.054-3.83Z"/><path fill="url(#d)" d="m371.328 154.554-13.784 3.795a.37.37 0 0 0-.259.455l.553 2.008a.37.37 0 0 0 .455.259l11.061-3.045a2.826 2.826 0 0 0 1.974-3.473v.001Z"/><path fill="#fff" fill-opacity=".5" d="m373.914 168.314 8.276 30.057a.984.984 0 0 1-.689 1.209l-12.281 3.382a.984.984 0 0 1-1.21-.688l-8.275-30.056a.984.984 0 0 1 .687-1.211l12.282-3.381a.984.984 0 0 1 1.21.688Z" opacity=".78"/><g fill="#fff" opacity=".17"><path d="m359.481 180.446 1.689-3.012 1.299 4.717-1.689 3.012-1.299-4.717ZM373.146 163.115l-2.912 5.191-4.664 1.284 2.912-5.191 4.664-1.284ZM361.239 186.831l1.689-3.012.599 2.173-1.69 3.012-.598-2.173ZM375.216 163.902l.231.837-1.769 3.155a.986.986 0 0 0-.974-.268l-.818.225 2.671-4.765c.313.162.559.45.659.815v.001ZM377.666 172.797l1.298 4.716-1.688 3.011-1.299-4.717 1.689-3.01ZM379.423 179.182l.599 2.172-1.689 3.011-.598-2.173 1.688-3.01Z"/></g><path fill="url(#e)" d="m368.056 192.129 3.292 13.635a.969.969 0 0 1-.713 1.167l-16.165 3.901a.968.968 0 0 1-1.166-.713l-3.29-13.635a9.604 9.604 0 0 1-.1-.464c-.013-.072-.026-.143-.037-.216a8.844 8.844 0 0 1 .059-3.162 8.934 8.934 0 0 1 1.61-3.592l-1.106-4.584 11.755-2.837 1.107 4.582a8.892 8.892 0 0 1 4.754 5.918Z"/><path fill="#D166B5" d="m362.195 181.631-11.757 2.836 1.106 4.583 11.756-2.836-1.105-4.583Z" opacity=".16" style="mix-blend-mode:multiply"/><path fill="#fff" d="m368.005 191.917 2.396 9.927-18.043 4.354-2.395-9.927a9.604 9.604 0 0 1-.1-.464l18.019-4.348c.045.151.086.303.123.458Z" opacity=".51"/><path fill="url(#f)" d="M359.861 196.263a.474.474 0 0 0-.779.2l-.698 2.56a1.69 1.69 0 0 0 .425 1.628c.71.724 1.937.753 2.741.066.805-.687.882-1.832.172-2.555l-1.861-1.899Z"/><path fill="url(#g)" d="M359.036 194.309a4.45 4.45 0 0 0-3.279 5.363 4.452 4.452 0 0 0 5.364 3.279 4.45 4.45 0 0 0 3.278-5.365 4.449 4.449 0 0 0-5.363-3.277Zm1.932 8.007a3.796 3.796 0 0 1-4.575-2.797 3.797 3.797 0 0 1 2.796-4.576 3.797 3.797 0 0 1 4.576 2.797 3.797 3.797 0 0 1-2.797 4.576Z"/><path fill="#47333F" d="m363.614 179.183.961 3.976a.591.591 0 0 1-.436.713l-14.405 3.477a.59.59 0 0 1-.712-.435l-.96-3.978a.592.592 0 0 1 .435-.714l4.059-.98-.977-4.047a3.236 3.236 0 0 1 4.83-3.518 3.219 3.219 0 0 1 1.457 2.001l.977 4.047 4.059-.98a.59.59 0 0 1 .712.437v.001Z"/><path fill="#D166B5" d="m370.399 201.836.949 3.927a.967.967 0 0 1-.713 1.167l-16.165 3.902a.968.968 0 0 1-1.166-.713l-3.341-13.848a9.604 9.604 0 0 1-.1-.464l.015-.004a8.844 8.844 0 0 1 .059-3.162c.467.97 1.04 1.886 1.7 2.738a17.217 17.217 0 0 0 4.778 4.22c.891.537 1.83.993 2.799 1.363h.002a13.72 13.72 0 0 0 .63.228 19.042 19.042 0 0 0 3.171.774c2.435.384 4.94.317 7.385-.128h-.003Z" opacity=".15" style="mix-blend-mode:multiply"/><path fill="#fff" d="M363.87 188.565a.88.88 0 0 1-.648 1.062.88.88 0 0 1-.413-1.71.88.88 0 0 1 1.061.648Z" opacity=".5"/><path fill="#47333F" d="m296.118 180.119 3.012-1.614a.908.908 0 0 1 1.229.371l1.614 3.012a.907.907 0 0 1-.371 1.228l-3.012 1.614a.908.908 0 0 1-1.229-.371l-1.614-3.012a.907.907 0 0 1 .371-1.228Z"/><path fill="#D166B5" d="m296.118 180.119 3.012-1.614a.908.908 0 0 1 1.229.371l1.614 3.012a.907.907 0 0 1-.371 1.228l-3.012 1.614a.908.908 0 0 1-1.229-.371l-1.614-3.012a.907.907 0 0 1 .371-1.228Z" opacity=".39" style="mix-blend-mode:multiply"/><path fill="#56404E" d="M299.824 181.699a.982.982 0 1 0-1.956-.176.982.982 0 0 0 1.956.176Z"/><path fill="#47333F" d="m308.302 181.617 1.278 2.385-14.99 8.034-1.279-2.385a.609.609 0 0 1 .249-.825l13.917-7.459a.608.608 0 0 1 .825.25Z"/><path fill="#D166B5" d="m308.829 182.597-14.99 8.034.751 1.402 14.991-8.034-.752-1.402Z" opacity=".39" style="mix-blend-mode:multiply"/><path fill="#47333F" d="m306.15 180.799.533.995-12.327 6.606-.532-.994c-.009-.017-.018-.033-.024-.051a1.429 1.429 0 0 1 .61-1.888l9.802-5.254a1.433 1.433 0 0 1 1.938.586Z"/><path fill="#D166B5" d="m306.149 180.799.533.995-12.326 6.606-.533-.994c-.009-.017-.018-.033-.024-.051l12.323-6.604c.01.015.019.032.027.048Z" opacity=".39" style="mix-blend-mode:multiply"/><path fill="url(#h)" d="m312.93 184.663 26.213 48.91a2.166 2.166 0 0 1-.886 2.932l-15.507 8.311a2.167 2.167 0 0 1-2.932-.885l-26.213-48.91a2.166 2.166 0 0 1 .886-2.932l15.507-8.311a2.167 2.167 0 0 1 2.932.885Z"/><path fill="#fff" d="m318.971 195.933-19.325 10.357 14.131 26.364 19.324-10.357-14.13-26.364ZM316.894 192.056l-19.325 10.357 1.343 2.506 19.325-10.358-1.343-2.505Z" opacity=".9"/><path fill="url(#i)" d="M340.5 204.359a104.004 104.004 0 0 1 .773 3.519c.282 1.376.536 2.759.763 4.147.348 2.178.644 4.368.786 6.598a1.452 1.452 0 0 1-1.109 1.508l-17.369 4.14a1.457 1.457 0 0 1-1.672-.846l-.134-.319c-.815-1.952-1.501-3.933-2.14-5.924-.369-1.172-.717-2.35-1.046-3.532a109.897 109.897 0 0 1-1.04-4.002l-.222-.93a99.692 99.692 0 0 1-1.294-6.477l-.042-.252c-.349-2.183-.648-4.379-.774-6.615a1.45 1.45 0 0 1 1.111-1.494l17.388-4.145a1.453 1.453 0 0 1 1.666.831c.894 2.053 1.618 4.148 2.293 6.255l.022.072a99.311 99.311 0 0 1 2.04 7.466Z"/><g fill="#fff" opacity=".17"><path d="m328.797 191.091-10.707 17.628a99.692 99.692 0 0 1-1.294-6.477l5.889-9.694 6.113-1.458-.001.001ZM321.472 206.191a9.768 9.768 0 0 0 .467 3.197l-2.589 4.263c-.256-.917-.501-1.838-.733-2.761l2.854-4.699h.001ZM333.775 189.904l-4.974 8.188a7.11 7.11 0 0 0-2.803.651l4.963-8.168 2.815-.67-.001-.001ZM331.414 215.433a7.005 7.005 0 0 0 1.278-.439l-5.174 8.519-3.174.757a1.456 1.456 0 0 1-1.672-.846c-.045-.106-.091-.212-.135-.319l4.804-7.907a7.156 7.156 0 0 0 4.074.232l-.001.003ZM337.27 207.46a9.853 9.853 0 0 0-.269-2.42 9.725 9.725 0 0 0-1.477-3.312l2.936-4.833a99.302 99.302 0 0 1 1.656 5.88l-2.846 4.685ZM340.64 204.958c.224.97.436 1.945.634 2.921l-8.777 14.45-2.816.671 10.959-18.042Z"/></g><path fill="#47333F" d="m333.35 187.838.489 2.051-16.109 3.839-.49-2.051a1.43 1.43 0 0 1 1.057-1.722l13.33-3.178a1.433 1.433 0 0 1 1.724 1.061h-.001Z"/><path fill="#D166B5" d="m317.305 192 .411 1.721 16.11-3.841-.41-1.721L317.305 192Z" opacity=".18" style="mix-blend-mode:multiply"/><path fill="#47333F" d="m323.64 181.259-3.899.928-3.856.92.518 2.175 1.295-.31a2.635 2.635 0 0 1 3.173 1.952l.956 4.008 7.356-1.753-1.706-7.159a1.632 1.632 0 0 0-1.966-1.209l-1.87.446-.001.002Z"/><path fill="#D166B5" d="m340.197 220.493-15.854 3.779a1.456 1.456 0 0 1-1.672-.845c-.876-2.055-1.6-4.144-2.274-6.244a113.32 113.32 0 0 1-2.086-7.535c-.613-2.528-1.14-5.08-1.558-7.658-.35-2.183-.649-4.379-.774-6.616-.039-.7.426-1.33 1.112-1.494l2.089-.498c.097.783.691 5.038 2.784 10.01 1.71 4.082 4.431 8.646 8.708 12.176 2.569 2.127 5.707 3.88 9.527 4.925h-.002Z" opacity=".19" style="mix-blend-mode:multiply"/><path fill="#fff" fill-opacity=".26" d="M337 205.04c.195.815.281 1.627.27 2.42-.045 3.323-1.813 6.282-4.578 7.536a7.018 7.018 0 0 1-1.277.438 7.16 7.16 0 0 1-4.075-.232c-2.438-.864-4.502-2.986-5.4-5.812a9.82 9.82 0 0 1-.467-3.198c.068-3.276 1.808-6.19 4.526-7.449a7.11 7.11 0 0 1 2.802-.651c2.613-.059 5.121 1.34 6.722 3.636A9.659 9.659 0 0 1 337 205.04Z"/><path fill="url(#j)" d="m359.441 191.851-20.471 7.132c-.542-1.22-.311-2.754.442-3.89.875-1.322 2.324-2.162 3.822-2.684 1.498-.52 3.074-.762 4.609-1.159 1.536-.395 3.072-.971 4.246-2.038.582-.531 1.072-1.194 1.281-1.955.206-.762.104-1.63-.382-2.253 0 0 1.058.124 2.32.745 1.698.834 3.768 2.566 4.134 6.101l-.001.001Z"/><path fill="#D166B5" d="m359.441 191.851-15.324 5.339c.18-1.148 1.003-2.174 1.993-2.821 1.176-.768 2.57-1.11 3.922-1.49 1.355-.381 2.736-.832 3.789-1.762a5.162 5.162 0 0 0 1.704-3.314 5.09 5.09 0 0 0-.219-2.055c1.698.834 3.768 2.565 4.135 6.101v.002Z" opacity=".28" style="mix-blend-mode:multiply"/><path fill="url(#k)" d="m362.349 195.043 4.278 12.28a1.614 1.614 0 0 1-.995 2.052l-20.496 7.141a1.615 1.615 0 0 1-2.056-.989l-4.278-12.28a1.61 1.61 0 0 1 .993-2.055l20.505-7.145a1.615 1.615 0 0 1 2.047.997l.002-.001Z"/><path fill="#fff" d="m362.894 196.612-23.543 8.203 3.184 9.141 23.543-8.203-3.184-9.141Z" opacity=".25"/><path fill="#D166B5" d="m362.349 195.043 4.808 13.801-9.142 3.185-4.367-12.534a1.734 1.734 0 0 0-2.209-1.067l-12.718 4.432a1.61 1.61 0 0 1 1.075-1.67l20.504-7.144a1.614 1.614 0 0 1 2.048.996l.001.001Z" opacity=".16" style="mix-blend-mode:multiply"/><path fill="#EB557B" d="M361.04 191.294a2.346 2.346 0 0 1-.104 1.8 2.35 2.35 0 0 1-1.346 1.201l-19.093 6.652a2.358 2.358 0 0 1-3.001-1.45l23.543-8.203h.001Z"/><path fill="url(#l)" d="m315.11 208.982 6.418 9.971a1.471 1.471 0 0 1-.444 2.032l-16.643 10.713a1.472 1.472 0 0 1-2.034-.438l-6.417-9.971a1.421 1.421 0 0 1-.155-.325 1.467 1.467 0 0 1 .597-1.71l16.65-10.717a1.471 1.471 0 0 1 2.028.446v-.001Z"/><path fill="url(#m)" d="m311.882 203.965 1.884 2.928a1.012 1.012 0 0 1-.303 1.398l-17.419 11.211a1.012 1.012 0 0 1-1.398-.303l-1.884-2.927a1.012 1.012 0 0 1 .303-1.398l17.419-11.212a1.012 1.012 0 0 1 1.398.303Z"/><path fill="#fff" d="m315.929 210.257-19.117 12.305 4.777 7.422 19.117-12.305-4.777-7.422Z" opacity=".51"/><path fill="#D166B5" d="m315.111 208.982 7.212 11.206-7.423 4.778-6.551-10.177a1.58 1.58 0 0 0-2.185-.474l-10.327 6.648a1.467 1.467 0 0 1 .597-1.71l16.649-10.717a1.472 1.472 0 0 1 2.028.446Z" opacity=".16" style="mix-blend-mode:multiply"/><path fill="#88D1E2" d="M329.601 232.6c3.9.6 7.8-1.3 9.6-4.8l2.7 3-7.7 6.9-4.6-5.1Z"/><path fill="#E0AC69" d="m398.4 211.5-21.4 6.3-11.5-10.3 20.9-6.1c1.5-.4 3.1 0 4.2 1l8.2 7.4c.4.4.4 1.1 0 1.5-.1.1-.3.1-.4.2Z"/><path fill="#E0AC69" d="m296.5 227.9 74.7-22c1.1-.3 2.3.3 2.6 1.4l14.5 49.4c.3 1.1-.3 2.3-1.4 2.6l-74.7 22c-1.1.3-2.3-.3-2.6-1.4L295 230.5c-.3-1.1.3-2.3 1.5-2.6Z"/><path fill="#F7CD97" d="m317.601 221.6 68.8-20.4c1.5-.4 3.1.4 3.5 1.9l14.2 47.9c.4 1.5-.4 3.1-1.9 3.5l-68.8 20.5-15.8-53.4Z"/><path fill="#231F20" d="M348.5 241.4c-.9 0-2 0-2.1-.4-.1-.4.5-1.1 1.4-1.4.9-.3 1.8-.1 1.9.4l.1.4 1.4-.4-.1-.4c-.4-1.2-2-1.8-3.7-1.3-1.7.5-2.7 1.9-2.4 3.1.4 1.4 2.2 1.4 3.7 1.4.9 0 2 0 2.1.4.1.4-.6 1.2-1.6 1.5-1 .3-2 .1-2.2-.3l-.1-.4-1.4.4.1.4c.4 1.2 2.1 1.8 4 1.3s3-1.9 2.6-3.2c-.4-1.3-2.2-1.5-3.7-1.5Z"/><path fill="#231F20" d="M354.8 236.1c-2.2.4-3.6 2.5-3.2 4.7.4 2.2 2.5 3.6 4.7 3.2.3 0 .5-.1.8-.2 1.3-.3 2.3-1.2 2.8-2.5l.1-.4-1.4-.4-.1.3c-.3.8-1 1.4-1.9 1.6-1.1.3-2.3-.1-2.9-1.1l6.2-1.8-.2-.7c-.6-2-2.8-3.3-4.9-2.7Zm-1.4 3.9c0-1.2.7-2.2 1.8-2.5 1.1-.3 2.3.1 3 1.1l-4.8 1.4Z"/><path fill="#30C495" d="m360.801 232.4-1.4.4.5 1.8-1.3.4.4 1.3 1.3-.4 1.2 4.1c.4 1.4 1.7 1.9 3.5 1.4l.7-.2-.4-1.3-.7.2c-1 .3-1.6.1-1.8-.5l-1.2-4.1 2.2-.6-.4-1.3-2.2.6-.4-1.8ZM367.4 232.4c-2.1.6-3.3 2.9-2.7 5 .6 2.1 2.9 3.3 5 2.7 2.1-.6 3.3-2.9 2.7-5-.7-2.1-2.9-3.3-5-2.7Zm.4 1.4c1.4-.4 2.8.4 3.2 1.7.4 1.4-.4 2.8-1.7 3.2-1.4.4-2.8-.4-3.2-1.7-.5-1.4.3-2.8 1.7-3.2-.1 0-.1 0 0 0ZM382.801 227.9c-2.1.6-3.3 2.9-2.7 5 .6 2.1 2.9 3.3 5 2.7 2.1-.6 3.3-2.9 2.7-5-.7-2.1-2.9-3.3-5-2.7Zm1.8 6.3c-1.4.4-2.8-.3-3.3-1.7-.4-1.4.3-2.8 1.7-3.3s2.8.3 3.3 1.7v.1c.4 1.4-.3 2.8-1.7 3.2ZM374.5 233.8l-.2-.5-1.7-5.8-1.4.4 3.2 10.8 1.4-.4-.6-2-.3-1.2-.4-1.3Z"/><path fill="#30C495" d="m378.701 230.4 1-1.6-2.1.6-2.8 4.3.4 1.3 4.4 2 .3.1 2-.6-5.6-2.5 2.4-3.6ZM335.201 246.3l-.9-3.1c2.2-.7 3.5-3 2.8-5.2l3.1-.9c1.2 3.9-1 8.1-5 9.2Z"/><path fill="#231F20" d="m342.498 244.719-3.07.904.904 3.069 3.07-.904-.904-3.069Z"/><path fill="#F1C27D" d="m310.236 223.867-9.113 2.684 1.582 5.372 9.113-2.684-1.582-5.372ZM324.321 271.886l-9.113 2.683 1.582 5.372 9.113-2.683-1.582-5.372Z"/><path fill="#F1C27D" d="m291.4 243.1 21.8-6.4c.4-.1.6-.4.7-.7l3.9-14.3-22 6.5c-.8.2-1.4.9-1.6 1.7l-3.4 12.6c-.1.3.1.6.4.7 0-.1.1-.1.2-.1Z"/><path fill="#F7CD97" d="m363.601 208.1 15.8-4.7-4 11.9-9.6-1-2.2-6.2Z"/><path fill="#F3BDCA" d="M225.301 280.1c10.217 0 18.5-8.73 18.5-19.5s-8.283-19.5-18.5-19.5-18.5 8.73-18.5 19.5 8.283 19.5 18.5 19.5Z"/><path fill="#F3BDCA" d="M243.401 280.1c5.026 0 9.1-3.626 9.1-8.1 0-4.473-4.074-8.1-9.1-8.1s-9.1 3.627-9.1 8.1c0 4.474 4.074 8.1 9.1 8.1ZM206.801 280.1c6.185 0 11.2-4.477 11.2-10s-5.015-10-11.2-10c-6.186 0-11.2 4.477-11.2 10s5.014 10 11.2 10Z"/><path fill="#F3BDCA" d="M275.2 281.4H174.9s39.8-14.6 100.3 0Z"/><path fill="#F3BDCA" d="M246.6 279.3c9.776 0 17.7-7.029 17.7-15.7s-7.924-15.7-17.7-15.7c-9.775 0-17.7 7.029-17.7 15.7s7.925 15.7 17.7 15.7Z"/><path fill="#F3BDCA" d="M264.3 279.4c4.916 0 8.9-3.537 8.9-7.9s-3.984-7.9-8.9-7.9c-4.915 0-8.9 3.537-8.9 7.9s3.985 7.9 8.9 7.9ZM228.9 279.4c6.02 0 10.9-4.343 10.9-9.7 0-5.357-4.88-9.7-10.9-9.7-6.02 0-10.9 4.343-10.9 9.7 0 5.357 4.88 9.7 10.9 9.7Z"/><path fill="#F3BDCA" d="M294.1 281H197s38.6-14.1 97.1 0Z"/><path fill="#DB284E" d="M301 83.2 283.4 53l-8.2 7.9L301 83.2ZM296.7 86.2l-22.2-13.3L272 81l24.7 5.2ZM305.401 79.6l-.6-19.9-6.2 1.8 6.8 18.1Z"/><path fill="#F3BDCA" d="M243.7 310s-36.7-18.2-102.2-29.8c3.9-7 6-14.9 6-23 0-26.7-22.4-48.3-50.1-48.3-4.6 0-9.1.6-13.6 1.8-10.3-26.5-36.9-45.4-68-45.4-5.4 0-10.7.6-15.9 1.7v143h243.8Z"/><path fill="#DB284E" d="M604.1 146.2 593 126.1h-3.1v20.1H577V92.9h21.8c3.7-.1 7.4.6 10.7 2.2 2.8 1.3 5.1 3.4 6.6 6s2.2 5.5 2.2 8.5c0 3.4-1 6.7-3 9.5-2.2 2.9-5.3 5-8.8 5.9l12.3 21.1-14.7.1Zm-14.2-29.3h8c1.9.1 3.9-.5 5.3-1.7 1.3-1.3 1.9-3.1 1.8-4.9.1-1.8-.5-3.5-1.8-4.8-1.5-1.3-3.4-1.9-5.3-1.7h-8v13.1ZM639.4 103.3v10.8h17.4v10h-17.4v11.7H659v10.4h-32.6V92.9H659v10.4h-19.6ZM705.7 92.9v10.4h-14.1v42.9h-13v-42.9h-14.1V92.9h41.2ZM725.001 92.9v31.8c0 3.2.8 5.6 2.3 7.4 1.6 1.7 3.9 2.6 6.9 2.6 3 0 5.4-.9 7-2.6 1.6-1.7 2.4-4.2 2.4-7.4V92.9h13v31.8c.1 4.2-.9 8.4-3 12.1-1.9 3.2-4.8 5.8-8.2 7.4-3.6 1.7-7.5 2.6-11.4 2.5-3.9.1-7.7-.8-11.3-2.5-3.3-1.6-6-4.2-7.8-7.4-2.1-3.7-3.1-7.9-3-12.1V92.9h13.1ZM792.899 146.2l-11.1-20.1h-3.1v20.1h-13V92.9h21.8c3.7-.1 7.4.6 10.7 2.2 2.8 1.3 5.1 3.4 6.6 6s2.2 5.5 2.2 8.5c0 3.4-1 6.7-3 9.5-2.2 2.9-5.3 5-8.8 5.9l12.3 21.1-14.6.1Zm-14.2-29.3h8c1.9.1 3.9-.5 5.3-1.7 1.3-1.3 1.9-3.1 1.8-4.9.1-1.8-.5-3.5-1.8-4.8-1.5-1.3-3.4-1.9-5.3-1.7h-8v13.1ZM862.802 146.2h-13l-21.7-32.8v32.8h-13V92.9h13l21.7 33v-33h13v53.3Z"/><path fill="#000" d="m581.4 216.2-6.9-7c-2.3 2.5-5.1 4.6-8.3 6-3.1 1.3-6.5 2-9.9 1.9-3.3.1-6.6-.6-9.7-2-2.7-1.2-4.9-3.1-6.5-5.6-1.6-2.6-2.4-5.5-2.3-8.5-.1-3.5 1-6.9 3.1-9.7 2.4-3 5.6-5.3 9.3-6.6-1.4-1.6-2.6-3.4-3.5-5.3-.7-1.7-1.1-3.5-1.1-5.3 0-2.1.6-4.2 1.7-6 1.2-1.8 2.9-3.3 4.9-4.2 2.3-1 4.8-1.6 7.4-1.5 2.5-.1 4.9.5 7.1 1.6 1.9 1 3.5 2.5 4.5 4.4 1 1.9 1.5 4.1 1.4 6.3h-6.9c.1-1.8-.5-3.6-1.7-4.9-1.3-1.2-3-1.9-4.7-1.8-1.8-.1-3.5.5-4.9 1.7-1.2 1.1-1.9 2.7-1.8 4.4 0 1.6.4 3.1 1.2 4.4 1.2 1.9 2.6 3.7 4.2 5.2l15.8 15.9 1.4-2.1 5.2-8.6h7.4l-6.2 10.8c-.9 1.5-1.9 3.1-3 4.8l11.9 11.9-9.1-.2Zm-17.7-6.6c2.4-1.2 4.5-2.9 6.3-4.9L554.4 189c-6.5 2.5-9.7 6.4-9.7 11.8-.1 2.8 1.1 5.5 3.2 7.4 2.3 2 5.3 3.1 8.4 3 2.6 0 5.1-.5 7.4-1.6ZM639.001 216.2l-11.1-20.1h-3.1v20.1h-13V163h21.8c3.7-.1 7.4.6 10.7 2.2 2.8 1.3 5.1 3.4 6.6 6s2.2 5.5 2.2 8.5c0 3.4-1 6.7-3 9.5-2.2 2.9-5.3 5-8.8 5.9l12.3 21.1h-14.6Zm-14.2-29.3h8c1.9.2 3.9-.5 5.3-1.8 1.3-1.3 1.9-3.1 1.8-4.9.1-1.8-.5-3.5-1.8-4.8-1.5-1.3-3.4-1.9-5.3-1.7h-8v13.2ZM674.3 173.3v10.8h17.4v10h-17.4v11.7H694v10.4h-32.6V163H694v10.4l-19.7-.1ZM737.001 162.9v10.4h-21.7v11.2h16.2v10.1h-16.2v21.5h-13v-53.2h34.7ZM756.601 162.9v31.9c0 3.2.8 5.6 2.3 7.4 1.5 1.8 3.9 2.6 6.9 2.6 3 0 5.4-.9 7-2.6 1.6-1.7 2.4-4.2 2.4-7.4v-31.9h13v31.8c.1 4.2-.9 8.4-3 12.1-2 3.2-4.8 5.8-8.2 7.4-3.6 1.7-7.5 2.6-11.4 2.5-3.9.1-7.7-.8-11.3-2.5-3.3-1.6-6-4.2-7.8-7.4-2-3.7-3-7.9-2.9-12.1v-31.8h13ZM844.901 216.2h-12.9l-21.7-32.8v32.8h-13V163h13l21.7 33v-33h13l-.1 53.2ZM888.999 166.3c4.1 2.1 7.5 5.4 9.7 9.4 4.6 8.7 4.6 19.1 0 27.8-2.3 4-5.7 7.3-9.8 9.4-4.5 2.3-9.6 3.4-14.7 3.3h-20V163h20c5.2-.2 10.2 1 14.8 3.3Zm-4.1 34.6c2.7-2.7 4.1-6.5 4.1-11.4s-1.4-8.7-4.1-11.4c-2.7-2.7-6.5-4.1-11.5-4.1h-6.2v31h6.2c4.9 0 8.8-1.4 11.5-4.1Z"/><path fill="#F2AA91" d="M1006.2 150.1s-21.3 16.7-46.5-16.3c.2-.5 4-10.5.9-12.2-1.8-1-4.2 5.4-4.2 5.4s-3.8-7.1-4.9-10.7c-1.8-5.8-19.7-.7-17.1 10.1 2.6 10.8 13.1 15.9 13.1 15.9 4.4 9.6 25 48.9 66 35.4 46.5-15.4-7.3-27.6-7.3-27.6Z"/><path fill="#6C6D6D" d="M1050.3 255.8h46l-5.6 173.5H1059l-8.7-173.5Z"/><path fill="#3F3F3F" d="M1087.8 255.8h45.2l-.3 173.5H1101l-13.2-173.5Z"/><path fill="#DB284E" d="M1134.1 182.1c-4.1 30.7.8 79.7.8 79.7l-87 2.9.2-94.5c-9.3-38.7-6.4-41-6.4-41s40.5-15.3 78.2-7.5c0 .1 22.5-2.2 14.2 60.4Z"/><path fill="#221F20" d="M1056.7 68.4s1-12.3 18.1-20.2c17.1-7.9 20.1-9.6 29.7 10.8 0 0 31.3 9.2-7.2 57l-40.6-47.6Z"/><path fill="#F2AA91" d="M1059 67.4s-4 35.2 4.3 47.9c6.9 10.6 15.9 1.3 15.9 1.3l-.7 9.1c6.7 3.8 15 3.5 21.4-.7 0 0-3.7-4-3.8-28.1 0 0 11-7.4 2.6-16.6-8.4-9.2-6.7 5.3-6.7 5.3s-6.6-46.1-33-18.2ZM1108.7 228s-5.2-6.1-7.8-6.1c-2.6 0-.9 4.7 3.4 6.8l4.4-.7Z"/><path fill="#DB284E" d="M1041.8 129.2s-32.7 17.5-39.3 18l8.7 35.9s30.9-9.9 45.7-16.6c3.9-1.8 7.3-4.6 9.9-8.1 8.8-13.5-10.3-24.6-25-29.2Z"/><path fill="#FBE9ED" d="m1063.8 212.1 35-5.3 8.7 42.8-34.6 4.3-9.1-41.8Z"/><path fill="#C1C1C1" d="m1087.8 206.5-3.8.6c-.1-1.6-1.5-2.7-3.1-2.6h-.1c-1.6.3-2.6 1.8-2.4 3.4l-3.8.6.6 4.4 13-2-.4-4.4Z"/><path fill="#DB284E" d="M1123.1 122.3s18.2 3.2 23.7 11.5l-22.8 8.5-.9-20Z"/><path fill="#F2AA91" d="M1109.3 240.9s56.9 1.9 66.8-26.6c6.1-17.3-13-49.5-13-49.5l-22.8 17.4s10.3 14.2 8.9 22.6c-1.4 8.4-41.3 22.5-41.3 22.5l1.4 13.6Z"/><path fill="#DB284E" d="M1118.5 160.5s22.2 24.1 24 31l30.7-16.8s-14.9-23.8-24.1-38c-2.4-3.7-5.6-6.7-9.4-8.8-14.2-6.2-20.1 16.3-21.2 32.6Z"/><path fill="#F2AA91" d="M1107.3 228s-13.2-2.4-18.4-1.1c-5.2 1.3-4.6 9.3-4.6 9.3s-1.4 13.7 24.5 5.3c25.9-8.4-1.5-13.5-1.5-13.5Z"/><path fill="#DB284E" d="M1056.8 67.4c21.4-4.6 43.6 3.2 57.4 20.2 0 0 12.2-30.8-17.9-44.1-30.1-13.3-42.3 13.9-39.5 23.9Z"/><path fill="#B02341" d="m1086.5 68.1-19.9-13c-2.3-.9-4.7-1.3-7.1-1.3-1.4 0-6.9.5-10.2 2.2-2.4 1.3-4.5 3-6.3 5.1-.4.6-.5 1.4-.3 2.1.7 2.7 15.7 8.6 15.7 8.6l.4-4.4c.2 0 17.5-1.7 27.7.7Z"/><path fill="#EB92A7" d="m1093.7 165.6 22.2-1.1 1.4 18.9c.3 4.5-2.7 8.5-6.9 8.9l-6.5.7c-4.2.5-8-2.9-8.4-7.5l-1.8-19.9Z"/><path fill="#49A09D" d="M400 120.841s6.768 32.507 7.425 43.159c0 0 66.399-14.713 101.037-11.703 0 0 3.926-30.067-9.432-52.297L400 120.841Z"/><path fill="#E8F3F3" d="M443.633 124.916c1.351-1.102 2.633-1.632 3.846-1.588 1.202.031 2.203.536 3.002 1.516.232.285.425.572.577.86.559.99.813 2.073.762 3.251-.051 1.177-.469 2.323-1.253 3.437l6.318 3.457-3.589 2.927-5.861-3.427-.763.622 3.146 5.642-3.181 2.594-8.342-14.938 5.338-4.353Zm4.277 3.573a5.19 5.19 0 0 0-.282-.421c-.323-.397-.701-.594-1.133-.593-.43-.02-.893.171-1.389.576l-1.972 1.608 2.093 3.743 1.972-1.608c.583-.475.925-.992 1.027-1.55.115-.568.009-1.153-.316-1.755Zm8.337-6.954c.002-.807.18-1.603.532-2.386.365-.793.913-1.487 1.645-2.084 1.116-.91 2.313-1.278 3.592-1.102 1.291.165 2.447.874 3.468 2.126.314.384.615.83.905 1.337.683 1.218 1.086 2.459 1.208 3.722.112 1.251-.035 2.413-.439 3.487a6.306 6.306 0 0 1-1.906 2.638c-.719.586-1.448.933-2.187 1.04-.738.107-1.417.021-2.037-.258l4.083 7.323-3.18 2.594-9.802-17.525 3.18-2.594.938 1.682Zm6.924.515a4.33 4.33 0 0 0-.414-.622c-.506-.62-1.08-.957-1.723-1.01-.63-.065-1.218.126-1.764.571-.632.516-1.021 1.215-1.168 2.099-.147.883.029 1.782.528 2.697.145.254.293.474.444.66.496.607 1.059.943 1.689 1.007.631.064 1.219-.126 1.764-.571.632-.516 1.022-1.216 1.168-2.099.149-.906-.025-1.817-.524-2.732Z"/><path fill="#E8F3F3" d="m447.479 123.328-.036.999.01.001.026-1Zm3.579 2.376-.883.468.006.012.007.012.87-.492Zm.762 3.251.999.043-.999-.043Zm-1.253 3.437-.818-.575-.644.915.982.538.48-.878Zm6.318 3.457.632.775 1.152-.939-1.304-.714-.48.878Zm-3.589 2.927-.505.864.599.35.538-.439-.632-.775Zm-5.861-3.427.504-.863-.599-.35-.537.438.632.775Zm-.763.622-.632-.775-.649.53.408.732.873-.487Zm3.146 5.642.632.775.649-.53-.408-.732-.873.487Zm-3.181 2.594-.873.487.582 1.041.923-.753-.632-.775Zm-8.342-14.938-.632-.774-.65.53.409.732.873-.488Zm9.615-.78.879-.476-.015-.028-.017-.027-.847.531Zm-1.415-1.014-.049.999.026.002.026-.001-.003-1Zm-3.361 2.184-.632-.775-.65.53.409.733.873-.488Zm2.093 3.743-.873.488.582 1.04.923-.753-.632-.775Zm2.999-3.158-.98-.198-.002.009-.001.009.983.18Zm-3.961-4.553c1.245-1.015 2.295-1.395 3.178-1.364l.072-1.998c-1.543-.056-3.056.623-4.514 1.812l1.264 1.55Zm3.188-1.363c.894.023 1.627.381 2.253 1.148l1.549-1.264c-.972-1.192-2.24-1.845-3.75-1.884l-.052 2Zm2.253 1.148c.196.241.35.473.469.696l1.767-.935a6.243 6.243 0 0 0-.687-1.025l-1.549 1.264Zm.482.72c.463.82.676 1.717.633 2.715l1.998.087c.059-1.357-.235-2.627-.89-3.786l-1.741.984Zm.633 2.715c-.042.958-.38 1.923-1.072 2.906l1.635 1.151c.877-1.246 1.374-2.573 1.435-3.97l-1.998-.087Zm-.734 4.359 6.318 3.456.96-1.755-6.318-3.456-.96 1.755Zm6.166 1.804-3.589 2.927 1.264 1.55 3.589-2.927-1.264-1.55Zm-2.453 2.839-5.861-3.427-1.009 1.727 5.861 3.427 1.009-1.727Zm-6.997-3.339-.763.622 1.264 1.55.763-.622-1.264-1.55Zm-1.004 1.884 3.145 5.642 1.747-.974-3.145-5.642-1.747.974Zm3.387 4.38-3.181 2.594 1.264 1.55 3.181-2.594-1.264-1.55Zm-1.676 2.881-8.342-14.937-1.746.975 8.342 14.937 1.746-.975Zm-8.583-13.675 5.338-4.353-1.264-1.55-5.338 4.354 1.264 1.549Zm9.83-2.086a5.725 5.725 0 0 0-.354-.522l-1.55 1.264.052.076c.04.059.092.139.157.244l1.695-1.062Zm-.354-.522c-.475-.582-1.121-.963-1.912-.961l.007 2c.074 0 .183.014.355.225l1.55-1.264Zm-1.86-.959c-.773-.038-1.473.312-2.069.799l1.264 1.55c.395-.323.621-.356.708-.352l.097-1.997Zm-2.069.799-1.972 1.608 1.264 1.55 1.972-1.608-1.264-1.55Zm-2.213 2.871 2.093 3.743 1.746-.976-2.093-3.743-1.746.976Zm3.598 4.03 1.972-1.608-1.264-1.55-1.972 1.608 1.264 1.55Zm1.972-1.608c.706-.576 1.222-1.286 1.379-2.145l-1.967-.36c-.048.258-.217.581-.676.955l1.264 1.55Zm1.375-2.127c.169-.838-.001-1.66-.417-2.429l-1.759.952c.235.435.276.782.216 1.081l1.96.396Zm7.041-8.907-.873.487 1.862 3.338.011-3.822-1-.003Zm.532-2.386-.908-.417-.004.007.912.41Zm5.237-3.186-.136.991.009.001.127-.992Zm4.373 3.463.872-.489-.004-.007-.868.496Zm1.208 3.722.996-.089-.001-.007-.995.096Zm-.439 3.487.931.364.004-.012-.935-.352Zm-4.093 3.678-.143-.99.143.99Zm-2.037-.258.41-.912-2.755-1.241 1.471 2.64.874-.487Zm4.083 7.323.632.775.65-.53-.408-.732-.874.487Zm-3.18 2.594-.873.488.582 1.04.923-.753-.632-.775Zm-9.802-17.525-.632-.775-.651.53.41.733.873-.488Zm3.18-2.594.873-.487-.581-1.042-.924.754.632.775Zm7.862 2.197.878-.478-.005-.009-.873.487Zm-2.137-1.632-.101.994.009.001.009.001.083-.996Zm-2.932 2.67.987.163-.987-.163Zm.528 2.697-.878.479.004.009.005.008.869-.496Zm2.133 1.667.101-.995-.101.995Zm2.932-2.67.987.163v-.001l-.987-.162Zm-6.448-3.244a4.812 4.812 0 0 1 .444-1.978l-1.824-.821a6.81 6.81 0 0 0-.62 2.793l2 .006Zm.441-1.971c.296-.643.745-1.219 1.368-1.727l-1.264-1.55c-.84.685-1.488 1.499-1.921 2.442l1.817.835Zm1.368-1.727c.928-.757 1.853-1.02 2.824-.887l.271-1.981c-1.586-.218-3.056.255-4.359 1.318l1.264 1.55Zm2.833-.885c.979.125 1.92.662 2.82 1.766l1.55-1.264c-1.142-1.4-2.513-2.281-4.116-2.486l-.254 1.984Zm2.82 1.766c.273.335.544.734.811 1.201l1.737-.992a10.76 10.76 0 0 0-.998-1.473l-1.55 1.264Zm.808 1.195c.622 1.109.977 2.217 1.085 3.328l1.99-.192c-.136-1.415-.586-2.788-1.331-4.115l-1.744.979Zm1.084 3.321c.1 1.116-.032 2.125-.379 3.045l1.871.705c.463-1.227.624-2.541.5-3.928l-1.992.178Zm-.375 3.033a5.302 5.302 0 0 1-1.606 2.228l1.264 1.55a7.297 7.297 0 0 0 2.205-3.049l-1.863-.729Zm-1.606 2.228c-.613.499-1.177.75-1.698.825l.287 1.979c.957-.138 1.85-.581 2.675-1.254l-1.264-1.55Zm-1.698.825c-.569.082-1.054.013-1.484-.18l-.821 1.823c.81.365 1.684.468 2.592.336l-.287-1.979Zm-2.768 1.219 4.084 7.323 1.747-.974-4.084-7.323-1.747.974Zm4.325 6.061-3.18 2.594 1.264 1.55 3.18-2.594-1.264-1.55Zm-1.675 2.88-9.803-17.524-1.745.976 9.802 17.525 1.746-.977Zm-10.043-16.261 3.18-2.594-1.264-1.55-3.18 2.594 1.264 1.55Zm1.675-2.882.938 1.682 1.746-.974-.938-1.682-1.746.974Zm9.608 1.223a5.385 5.385 0 0 0-.512-.767l-1.55 1.264c.097.12.204.277.316.478l1.746-.975Zm-.512-.767c-.633-.776-1.439-1.293-2.414-1.375l-.167 1.993c.31.026.653.183 1.031.646l1.55-1.264Zm-2.397-1.373c-.924-.094-1.771.199-2.497.791l1.264 1.55c.366-.298.695-.386 1.031-.352l.202-1.989Zm-2.497.791c-.839.685-1.34 1.612-1.523 2.71l1.974.327c.11-.668.389-1.141.813-1.487l-1.264-1.55Zm-1.523 2.71c-.188 1.138.05 2.262.637 3.34l1.756-.957c-.41-.752-.524-1.427-.419-2.056l-1.974-.327Zm.646 3.357c.167.292.346.559.539.796l1.549-1.264a3.908 3.908 0 0 1-.351-.524l-1.737.992Zm.539.796c.62.761 1.408 1.273 2.362 1.37l.202-1.99c-.306-.031-.645-.191-1.015-.644l-1.549 1.264Zm2.362 1.37c.925.094 1.771-.199 2.497-.791l-1.264-1.55c-.365.297-.695.385-1.031.351l-.202 1.99Zm2.497-.791c.84-.685 1.341-1.612 1.523-2.711l-1.973-.327c-.111.669-.389 1.141-.814 1.488l1.264 1.55Zm1.523-2.712c.19-1.155-.043-2.289-.633-3.372l-1.756.957c.407.747.524 1.433.416 2.091l1.973.324Z"/><path stroke="#E8F3F3" stroke-miterlimit="10" stroke-width="1.27" d="M406 123.042s5.651 27.08 6.204 35.958c0 0 61.466-13.915 90.346-11.397 0 0 3.28-25.008-7.862-43.603L406 123.042Z"/><path fill="#B6EFDA" d="M443.149 117.624c.923-.246 1.683-.221 2.279.073.593.287.979.764 1.157 1.434.052.194.084.381.095.56.057.62-.06 1.218-.351 1.794-.291.577-.758 1.055-1.4 1.435l2.377 3.15-2.452.654-2.156-3.032-.521.139.301 3.526-2.173.58-.803-9.34 3.647-.973Zm1.332 2.748a3.206 3.206 0 0 0-.046-.273c-.073-.271-.217-.455-.433-.552-.21-.107-.485-.115-.823-.025l-1.347.359.202 2.341 1.347-.359c.398-.106.686-.287.862-.543.186-.258.265-.574.238-.948Zm5.73-1.596c.183-.402.451-.759.803-1.071a3.181 3.181 0 0 1 1.291-.671c.762-.203 1.443-.117 2.042.258.608.374 1.026.988 1.254 1.844.07.262.12.553.151.871a5.147 5.147 0 0 1-.235 2.131 4.274 4.274 0 0 1-1.005 1.643 3.445 3.445 0 0 1-1.546.888c-.491.131-.933.14-1.326.028a1.98 1.98 0 0 1-.96-.588l.391 4.577-2.173.58-.949-10.962 2.172-.579.09 1.051Zm3.343 1.817a2.447 2.447 0 0 0-.067-.404c-.113-.423-.324-.721-.633-.893-.301-.173-.637-.211-1.01-.111-.432.115-.784.377-1.056.785-.272.408-.387.897-.344 1.466.015.159.04.303.074.43.11.415.316.709.616.883.301.174.637.211 1.01.112.432-.115.784-.377 1.056-.785.279-.419.396-.913.354-1.483Z"/><path fill="#80BDBA" d="M378 128.753s19.58 26.816 24.511 36.247c0 0 54.63-40.749 87.489-52.244 0 0-8.758-29.005-30.1-43.756L378 128.753Z"/><path stroke="#E8F3F3" stroke-miterlimit="10" stroke-width="1.27" d="M384 128.811S400.38 151.15 404.556 159c0 0 50.832-37.968 78.444-47.549 0 0-7.362-24.158-25.2-36.451L384 128.811Z"/><path fill="#E8F3F3" d="M421.633 110.916c1.351-1.102 2.633-1.632 3.846-1.588 1.202.031 2.203.536 3.002 1.516.232.285.425.572.577.86.559.99.813 2.073.762 3.251-.051 1.177-.469 2.323-1.253 3.437l6.318 3.457-3.589 2.927-5.861-3.427-.763.622 3.146 5.642-3.181 2.594-8.342-14.938 5.338-4.353Zm4.277 3.573a5.19 5.19 0 0 0-.282-.421c-.323-.397-.701-.594-1.133-.593-.43-.02-.893.171-1.389.576l-1.972 1.608 2.093 3.743 1.972-1.608c.583-.475.925-.992 1.027-1.55.115-.568.009-1.153-.316-1.755Zm8.337-6.954c.002-.807.18-1.603.532-2.386.365-.793.913-1.487 1.645-2.084 1.116-.91 2.313-1.278 3.592-1.102 1.291.165 2.447.874 3.468 2.126.314.384.615.83.905 1.337.683 1.218 1.086 2.459 1.208 3.722.112 1.251-.035 2.413-.439 3.487a6.306 6.306 0 0 1-1.906 2.638c-.719.586-1.448.933-2.187 1.04-.738.107-1.417.021-2.037-.258l4.083 7.323-3.18 2.594-9.802-17.525 3.18-2.594.938 1.682Zm6.924.515a4.33 4.33 0 0 0-.414-.622c-.506-.62-1.08-.957-1.723-1.01-.63-.065-1.218.126-1.764.571-.632.516-1.021 1.215-1.168 2.099-.147.883.029 1.782.528 2.697.145.254.293.474.444.66.496.607 1.059.943 1.689 1.007.631.064 1.219-.126 1.764-.571.632-.516 1.022-1.216 1.168-2.099.149-.906-.025-1.817-.524-2.732Z"/><g clip-path="url(#n)"><path fill="#F7CD97" d="m330.843 240.491 57.327-17.94 5.003 15.984-57.328 17.94z"/><path fill="#D7244F" d="m338.639 243.259.161-.089c.272 1.776.69 4.002.926 4.672.122.348.458.521.799.414a.744.744 0 0 0 .288-.172c1.31-1.238 2.191-1.781 3.651-2.68.343-.209.343-.555.237-.785-.122-.269-.428-.485-.774-.377a.73.73 0 0 0-.158.072c-1.25.77-2.082 1.3-3.061 2.134a45.558 45.558 0 0 1-.188-.939c.191-.158.369-.306.535-.446.92-.769 1.527-1.278 2.673-2.012.341-.218.335-.565.227-.798-.123-.262-.423-.473-.76-.368a.73.73 0 0 0-.167.079c-1.16.746-1.772 1.258-2.698 2.034l-.07.058a66.426 66.426 0 0 1-.291-1.882c.772-.671 1.536-1.133 2.762-1.801a.56.56 0 0 0 .263-.746c-.12-.283-.447-.52-.818-.404a.668.668 0 0 0-.129.055c-.967.527-1.707.961-2.404 1.495a.563.563 0 0 0-.102-.071.684.684 0 0 0-.527-.043c-.227.071-.463.274-.441.628l.006.165.002.007a6.4 6.4 0 0 0 .017.381c-.145.097-.692.38-1.223.653l-.027.014c-.623.319-1.329.681-1.771.938-.099-.367-.186-.691-.265-.99-.047-.179-.1-.363-.151-.542l-.032-.102a275.13 275.13 0 0 0 1.665-.814l.015-.008c.681-.334 1.452-.714 2.204-1.072a.512.512 0 0 0 .268-.33.672.672 0 0 0-.069-.527c-.156-.242-.425-.33-.721-.238a.98.98 0 0 0-.117.046c-.711.34-1.433.694-2.128 1.037l-.032.016c-.46.226-.913.449-1.373.673a4.156 4.156 0 0 1-.049-.534.555.555 0 0 0-.236-.467.669.669 0 0 0-.578-.084.579.579 0 0 0-.421.588c.01.351.055.701.134 1.044-.644.304-1.221.566-1.763.801-.331.143-.489.451-.391.766.09.287.462.538.784.399a60.08 60.08 0 0 0 1.685-.762l.077.283c.115.441.24.907.407 1.515-.2.14-.381.272-.553.405-.227.173-.312.545-.191.823a.5.5 0 0 0 .571.303c.15-.02.295-.069.427-.144.03-.017.067-.037.109-.063l.129.471c.335 1.216.68 2.473.994 3.718a.56.56 0 0 0 .265.363.62.62 0 0 0 .477.039c.289-.091.532-.38.437-.757-.316-1.254-.664-2.516-.999-3.737l-.214-.778c.594-.37 1.944-1.112 2.595-1.47l.102-.057ZM366.191 237.105c-.123-.269-.429-.486-.776-.377a.66.66 0 0 0-.157.073c-1.312.807-2.253 1.404-3.291 2.283-.063-.266-.131-.58-.201-.935a44.653 44.653 0 0 0 .784-.66c.664-.565 1.029-.876 2.06-1.539.341-.219.335-.565.226-.799-.122-.262-.422-.472-.759-.367a.69.69 0 0 0-.167.079c-1.047.672-1.415.987-2.084 1.557l-.323.275a63.716 63.716 0 0 1-.304-2.01c.34-.287.73-.535 1.099-.762.503-.308.823-.471 1.194-.661l.004-.001c.191-.098.429-.219.73-.382a.56.56 0 0 0 .263-.747c-.119-.283-.448-.524-.821-.407a.669.669 0 0 0-.127.053 32.62 32.62 0 0 1-.879.455c-.574.29-1.17.591-1.714.965a.556.556 0 0 0-.195-.169.694.694 0 0 0-.525-.044c-.228.072-.463.274-.442.627.009.132.027.324.055.571a5.01 5.01 0 0 0-.542.767c-.133.231-.119.475.039.673a.707.707 0 0 0 .73.236c.266 1.783.658 3.918.96 4.588.153.337.482.503.801.404a.741.741 0 0 0 .282-.17c1.3-1.228 2.368-1.886 3.846-2.795.34-.207.338-.551.234-.781ZM350.42 245.308c-.194-.862-.398-1.875-.594-2.853l-.006-.021c-.138-.687-.28-1.395-.416-2.034a93.435 93.435 0 0 1-.456-2.236l-.042-.217c-.073-.377-.149-.767-.171-1.154a.52.52 0 0 0-.227-.412.654.654 0 0 0-.555-.078.57.57 0 0 0-.395.427c-.107.476-.184.955-.259 1.419-.047.292-.1.622-.159.937a21.36 21.36 0 0 1-.319 1.472c-.033.13-.068.252-.105.372-.208-.272-.7-.939-1.038-1.456a30.88 30.88 0 0 0-.693-1.001l-.321-.454a1.518 1.518 0 0 0-.062-.128l-.004-.006a1.751 1.751 0 0 0-.116-.142.566.566 0 0 0-.577-.119.633.633 0 0 0-.264.158.542.542 0 0 0-.122.185.521.521 0 0 0-.052.324c.012.173.042.343.09.509.019.077.038.155.05.22.116.68.278 1.39.525 2.306.392 1.449.949 3.406 1.453 5.106a.516.516 0 0 0 .255.326.632.632 0 0 0 .474.033c.282-.088.514-.361.411-.711-.26-.876-.545-1.891-.821-2.872-.19-.674-.347-1.231-.496-1.748a30.729 30.729 0 0 1-.132-.47c.466.612.923 1.027 1.433 1.303.14.069.301.079.449.029a.55.55 0 0 0 .274-.184c.409-.543.576-1.263.709-1.963l.106.503c.131.616.271 1.308.405 1.978l.006.031c.205 1.019.416 2.072.623 2.986a.478.478 0 0 0 .453.393.547.547 0 0 0 .23-.029c.29-.091.539-.37.456-.729ZM352.043 244.125c.006-.84-.011-1.683-.026-2.329.514-.504.985-.961 1.439-1.396a29.43 29.43 0 0 0 2.23 2.88c.145.164.393.221.633.146a.651.651 0 0 0 .289-.179c.233-.255.219-.618-.033-.903-.71-.8-1.417-1.732-2.167-2.843.259-.243.492-.461.712-.662.214-.196.26-.467.12-.708-.139-.241-.465-.434-.803-.328a.669.669 0 0 0-.256.15c-.162.148-.325.299-.49.452a68.066 68.066 0 0 1-1.05-1.722 19.96 19.96 0 0 0-.442-.716 5.817 5.817 0 0 1-.184-.311l-.014-.027a.62.62 0 0 0-.201-.518.698.698 0 0 0-.649-.138.53.53 0 0 0-.273.192.837.837 0 0 0-.167.563l-.023.001.01.123c-.083 1.683-.039 3.385.005 5.034l.009.383-.037.037a.758.758 0 0 0-.091.079 2.702 2.702 0 0 0-.093.1 3.804 3.804 0 0 1-.086.091l-.091.089.008.009a.563.563 0 0 0-.015.632c.098.16.254.276.436.323.01.582.013 1.069.009 1.531a.581.581 0 0 0 .231.49.699.699 0 0 0 .609.087.618.618 0 0 0 .451-.612Zm-.071-4.087a98.698 98.698 0 0 1-.03-2.029l.025.043c.162.274.344.585.534.888.077.125.156.247.233.368a62.81 62.81 0 0 0-.762.73Z"/><path fill="#D7244F" d="M359.861 239.759a.641.641 0 0 0-.275.173c-.421.435-.776.739-1.15.986-.194.128-.404.23-.625.303l-.024.004c-.084-.161-.117-.417-.145-.625-.046-.36-.097-.768-.163-1.176-.376-2.343-.766-4.198-1.261-6.013a.589.589 0 0 0-.285-.378.648.648 0 0 0-.502-.04c-.305.096-.557.399-.449.794.642 2.352 1.062 4.405 1.322 6.464.009.066.016.135.024.21l.004.026c.088.773.194 1.736 1.066 1.993.254.074.531.063.841-.034.279-.096.547-.224.798-.379.571-.335 1.058-.803 1.497-1.259a.58.58 0 0 0 .086-.742c-.137-.226-.445-.405-.759-.307ZM381.169 233.517l-.046.015c-.502.156-.646.643-.531 1.042.11.384.476.733 1.014.59l.041-.013c.504-.158.651-.644.536-1.044-.112-.384-.476-.733-1.014-.59ZM373.59 230.922c-.549-1.157-1.614-1.961-2.783-2.101a2.862 2.862 0 0 0-1.185.105c-.717.224-1.25.718-1.498 1.389a2.797 2.797 0 0 0-.156.584.672.672 0 0 0 .229.623c.136.117.31.181.489.18.256.924.546 1.873.86 2.817.221.663.492 1.444.836 2.211l.058.132a3.653 3.653 0 0 1-.289.113c-.411.14-.519.537-.415.857.098.3.392.562.808.432l.017-.005c.197-.067.389-.148.576-.24.049.05.102.095.158.137a.739.739 0 0 0 .65.129.65.65 0 0 0 .428-.441.717.717 0 0 0 .029-.291.605.605 0 0 0-.121-.312 5.46 5.46 0 0 0 1.352-1.912c.613-1.448.597-3.054-.043-4.407Zm-3.873-.577a.734.734 0 0 1 .269-.135l.072-.023c.15-.041.306-.056.461-.045.704.016 1.432.542 1.853 1.34.476.902.498 2.19.056 3.281a4.074 4.074 0 0 1-.864 1.321 25.218 25.218 0 0 1-.779-2.112 54.852 54.852 0 0 1-1.068-3.627ZM378.892 232.038c-.363-.831-.742-1.69-1.178-2.504-.302-.564-.631-1.158-1.046-1.69-.187-.241-.377-.466-.641-.59a.858.858 0 0 0-.616-.046.77.77 0 0 0-.285.162.77.77 0 0 0-.195.264.652.652 0 0 0 .069.687l.008.01a.462.462 0 0 0-.007.065c-.04.689-.048 1.386-.059 2.059l.002.005a50.552 50.552 0 0 1-.063 2.102c-.281.199-.276.504-.185.707.03.066.071.126.12.179-.025.291-.051.63-.052.952-.002.44.037 1.078.391 1.527.196.245.488.348.76.263a.685.685 0 0 0 .162-.076.714.714 0 0 0 .298-.722.612.612 0 0 0-.106-.223c-.181-.229-.169-.624-.158-.973l.003-.082c.008-.277.034-.557.058-.828l.007-.074c.41-.231.843-.46 1.444-.765l.121.278c.462 1.057.94 2.149 1.546 3.159a.61.61 0 0 0 .733.284.745.745 0 0 0 .461-.428.64.64 0 0 0-.059-.574c-.596-.995-1.073-2.079-1.533-3.128Zm-1.771-.694c-.334.169-.61.311-.865.445.014-.437.021-.888.028-1.312l.001-.047.012-.682a20.924 20.924 0 0 1 .572 1.075c.015.032.032.064.046.096l.051.105.026.054c.043.088.087.177.129.266ZM380.614 229.611l-.088-.358-.004-.012a24.825 24.825 0 0 1-.125-.523l-.008-.025c-.047-.201-.075-.323-.201-.778-.014-.043-.025-.088-.037-.133l-.019-.07c-.121-.453-.247-.921-.498-1.313a.654.654 0 0 0-.772-.28.721.721 0 0 0-.457.42.614.614 0 0 0-.032.285.62.62 0 0 0 .103.267c.037.059.069.121.097.185l.012.041c.026.066.048.131.067.187.105.305.192.612.277.927.124.452.16.61.209.832l.002.006c.033.143.073.319.152.635l.063.252c.134.543.231.935.426 1.536l.031.101.005.016c.152.484.405 1.294 1.052 1.197.054-.008.107-.02.159-.036.213-.067.349-.192.413-.375.097-.294-.059-.628-.168-.779a.698.698 0 0 1-.078-.156l-.003-.011c-.007-.021-.017-.04-.021-.049a4.533 4.533 0 0 1-.061-.174l-.004-.013c-.047-.136-.088-.279-.126-.401-.158-.554-.245-.909-.366-1.401ZM387.926 223.655a.554.554 0 0 0-.373.372l-.023.001-.003.154c-.023.775-.09 1.567-.162 2.403l-.001.009c-.03.354-.055.65-.078.944a50.735 50.735 0 0 1-1.264-1.011 5.122 5.122 0 0 0-.302-.233 3.276 3.276 0 0 1-.328-.271c-.142-.128-.27-.25-.391-.371a4.4 4.4 0 0 1-.143-.15l-.021-.025a.853.853 0 0 1-.041-.058.539.539 0 0 0-.622-.214.588.588 0 0 0-.383.36.517.517 0 0 0 .078.478l.002.006c.485.559.691.729 1.143 1.099l.206.168.004.003c.704.581 1.35 1.09 1.977 1.555-.064 1.509.023 2.689.274 3.713.015.07.044.135.086.192a.501.501 0 0 0 .155.142.546.546 0 0 0 .433.036c.26-.081.48-.342.396-.682-.431-1.761-.249-3.755-.076-5.688l.002-.015c.058-.645.113-1.254.146-1.858.02-.059.03-.12.03-.182.001-.063-.001-.127-.003-.195a3.308 3.308 0 0 1-.003-.173.495.495 0 0 0-.199-.428.579.579 0 0 0-.516-.081ZM385.852 231.448a.652.652 0 0 0-.277.175 6.264 6.264 0 0 1-1.056.905c-.167.11-.348.199-.538.264-.059-.139-.085-.343-.109-.511l-.002-.018c-.042-.332-.09-.708-.15-1.08-.337-2.099-.732-3.972-1.212-5.724a.616.616 0 0 0-.291-.384.647.647 0 0 0-.509-.04c-.307.096-.561.403-.452.803.484 1.776.898 3.781 1.266 6.131.014.088.026.183.041.297.089.698.199 1.568 1.011 1.807.247.073.512.062.811-.031.263-.091.514-.21.75-.357.533-.312.987-.749 1.399-1.173a.589.589 0 0 0 .087-.753c-.141-.23-.451-.411-.769-.311Z"/><path fill="#D8254F" d="m391.781 234.089-25.134 7.866 1.392 4.446 25.134-7.865-1.392-4.447Z"/><path fill="#fff" d="M371.478 243.311a.606.606 0 0 0-.26-.072 2.661 2.661 0 0 0-.322-.001 3.216 3.216 0 0 1-.354 0 1.615 1.615 0 0 1-.338-.051.648.648 0 0 1-.29-.17.8.8 0 0 1-.2-.346.732.732 0 0 1 .08-.632c.122-.2.327-.345.615-.435a1.214 1.214 0 0 1 .589-.04c.068.013.136.031.202.052a.74.74 0 0 1 .135.06l.044.03-.194.375-.032-.019a.914.914 0 0 0-.222-.077.884.884 0 0 0-.394.03.575.575 0 0 0-.321.221.34.34 0 0 0 .099.493c.08.043.169.068.26.072.107.007.215.007.322.001.118-.006.236-.007.353-.001.115.005.228.021.339.05.11.031.21.09.29.171a.801.801 0 0 1 .199.344.83.83 0 0 1-.077.702c-.131.215-.355.373-.673.472a1.466 1.466 0 0 1-.712.05c-.08-.017-.16-.04-.237-.069a.996.996 0 0 1-.156-.071l-.055-.038.195-.373a.72.72 0 0 0 .038.026.908.908 0 0 0 .285.107.944.944 0 0 0 .231.013c.096-.004.191-.02.282-.05.177-.055.303-.142.379-.26a.422.422 0 0 0-.004-.481.318.318 0 0 0-.096-.083ZM374.782 240.284l.128.408-.857.268.765 2.445-.447.139-.765-2.444-.856.268-.128-.408 2.16-.676ZM378.644 241.554a.776.776 0 0 0 .053-.615l-.536-1.712.45-.141.536 1.712a1.192 1.192 0 0 1-.09.945 1.278 1.278 0 0 1-2.084.235 1.187 1.187 0 0 1-.231-.426l-.536-1.714.449-.14.536 1.712a.8.8 0 0 0 .395.477.767.767 0 0 0 .87-.087.758.758 0 0 0 .188-.244v-.002ZM381.359 238.226c.189-.062.389-.085.587-.068.198.018.391.076.566.17a1.463 1.463 0 0 1 .628 2.009 1.46 1.46 0 0 1-.888.741l-.999.313-.893-2.853.999-.312Zm-.423.58.637 2.037.551-.173a.995.995 0 0 0 .614-.516 1.094 1.094 0 0 0-.453-1.446 1.002 1.002 0 0 0-.798-.074l-.551.172ZM384.435 237.263l.448-.14.893 2.853-.448.14-.893-2.853ZM387.065 236.864c.2-.374.513-.628.937-.76a1.552 1.552 0 0 1 1.207.089 1.539 1.539 0 0 1 .651 2.081c-.2.374-.514.628-.94.762a1.535 1.535 0 0 1-1.963-.996 1.536 1.536 0 0 1 .108-1.176Zm.882 1.692a1.12 1.12 0 0 0 1.65-.993 1.12 1.12 0 1 0-2.192.337 1.06 1.06 0 0 0 .542.656Z"/></g></g><defs><linearGradient id="i" x1="321.427" x2="354.283" y1="202.081" y2="222.286" gradientUnits="userSpaceOnUse"><stop stop-color="#FFBF61"/><stop offset=".18" stop-color="#FBAD5B"/><stop offset=".48" stop-color="#F79653"/><stop offset=".76" stop-color="#F4884E"/><stop offset="1" stop-color="#F4844D"/></linearGradient><linearGradient id="b" x1="362.465" x2="365.731" y1="154.445" y2="166.311" gradientUnits="userSpaceOnUse"><stop stop-color="#47333F"/><stop offset=".57" stop-color="#44303D"/><stop offset=".97" stop-color="#3B2838"/><stop offset="1" stop-color="#3A2738"/></linearGradient><linearGradient id="d" x1="361.328" x2="365.221" y1="145.865" y2="160.006" gradientUnits="userSpaceOnUse"><stop stop-color="#47333F"/><stop offset=".68" stop-color="#45313D"/><stop offset=".92" stop-color="#3E2B3A"/><stop offset="1" stop-color="#3A2738"/></linearGradient><linearGradient id="e" x1="353.325" x2="369.162" y1="193.329" y2="203.006" gradientUnits="userSpaceOnUse"><stop stop-color="#EB557B"/><stop offset=".31" stop-color="#E65077"/><stop offset=".62" stop-color="#DA446D"/><stop offset=".93" stop-color="#C6305D"/><stop offset="1" stop-color="#C12B59"/></linearGradient><linearGradient id="f" x1="358.235" x2="362.035" y1="197.837" y2="200.053" gradientUnits="userSpaceOnUse"><stop stop-color="#EB557B"/><stop offset=".31" stop-color="#E65077"/><stop offset=".62" stop-color="#DA446D"/><stop offset=".93" stop-color="#C6305D"/><stop offset="1" stop-color="#C12B59"/></linearGradient><linearGradient id="g" x1="356.222" x2="363.897" y1="196.373" y2="200.849" gradientUnits="userSpaceOnUse"><stop stop-color="#EB557B"/><stop offset=".31" stop-color="#E65077"/><stop offset=".62" stop-color="#DA446D"/><stop offset=".93" stop-color="#C6305D"/><stop offset="1" stop-color="#C12B59"/></linearGradient><linearGradient id="h" x1="313.503" x2="319.555" y1="198.111" y2="232.131" gradientUnits="userSpaceOnUse"><stop stop-color="#EB557B"/><stop offset=".31" stop-color="#E65077"/><stop offset=".62" stop-color="#DA446D"/><stop offset=".93" stop-color="#C6305D"/><stop offset="1" stop-color="#C12B59"/></linearGradient><linearGradient id="c" x1="366.516" x2="377.637" y1="169.155" y2="209.555" gradientUnits="userSpaceOnUse"><stop stop-color="#FFBF61"/><stop offset=".18" stop-color="#FBAD5B"/><stop offset=".48" stop-color="#F79653"/><stop offset=".76" stop-color="#F4884E"/><stop offset="1" stop-color="#F4844D"/></linearGradient><linearGradient id="j" x1="343.525" x2="350.742" y1="178.758" y2="199.471" gradientUnits="userSpaceOnUse"><stop stop-color="#fff"/><stop offset=".4" stop-color="#FEFDFD"/><stop offset=".55" stop-color="#FDF6F8"/><stop offset=".65" stop-color="#FCEAEF"/><stop offset=".74" stop-color="#FAD9E1"/><stop offset=".81" stop-color="#F8C3D0"/><stop offset=".87" stop-color="#F4A8BB"/><stop offset=".93" stop-color="#F188A2"/><stop offset=".98" stop-color="#EC6386"/><stop offset="1" stop-color="#EB557B"/></linearGradient><linearGradient id="k" x1="333.606" x2="355.68" y1="196.05" y2="206.717" gradientUnits="userSpaceOnUse"><stop stop-color="#EB557B"/><stop offset=".54" stop-color="#E8537A"/><stop offset=".78" stop-color="#E14C7A"/><stop offset=".96" stop-color="#D54079"/><stop offset="1" stop-color="#D13D79"/></linearGradient><linearGradient id="l" x1="289.845" x2="311.694" y1="216.02" y2="220.757" gradientUnits="userSpaceOnUse"><stop stop-color="#8E8FD7"/><stop offset=".48" stop-color="#8B8DD4"/><stop offset=".69" stop-color="#8486CD"/><stop offset=".85" stop-color="#787CC1"/><stop offset=".99" stop-color="#676CAF"/><stop offset="1" stop-color="#656BAD"/></linearGradient><linearGradient id="m" x1="298.751" x2="305.571" y1="210.603" y2="212.083" gradientUnits="userSpaceOnUse"><stop stop-color="#47333F"/><stop offset=".43" stop-color="#3E2B3A"/><stop offset="1" stop-color="#3A2738"/></linearGradient><clipPath id="a"><path fill="#fff" d="M0 0h1440v310H0z"/></clipPath><clipPath id="n"><path fill="#fff" d="m330.843 240.491 57.327-17.94 5.003 15.984-57.328 17.94z"/></clipPath></defs></svg>