<svg xmlns="http://www.w3.org/2000/svg" width="1440" height="310" fill="none"><path fill="#FBE9ED" d="M1440 0H0v310h1440V0Z"/><g fill="#fff" opacity=".5"><path d="M530.899 93.16h-9.37l-36.09 36.09v9.37l45.46-45.46ZM485.439 102.47l9.31-9.31h-9.31v9.31ZM512.829 93.16h-9.38l-18.01 18.01v9.38l27.39-27.39ZM535.249 133.66l-9.31 9.31h9.31v-9.31ZM535.249 124.96v-9.38l-27.39 27.39h9.38l18.01-18.01ZM535.249 106.88V97.5l-45.46 45.47h9.37l36.09-36.09Z" opacity=".5"/></g><g fill="#fff" opacity=".5"><path d="M1134.83 148.57h-9.38l-36.09 36.09v9.38l45.47-45.47ZM1089.36 157.88l9.32-9.31h-9.32v9.31ZM1116.75 148.57h-9.37l-18.02 18.02v9.37l27.39-27.39ZM1139.18 189.07l-9.31 9.32h9.31v-9.32ZM1139.18 180.37V171l-27.39 27.39h9.38l18.01-18.02ZM1139.18 162.3v-9.38l-45.47 45.47h9.38l36.09-36.09Z" opacity=".5"/></g><path stroke="#fff" stroke-miterlimit="10" stroke-width="82.31" d="M1440 186.81c-103.17 0-186.81-83.64-186.81-186.81" opacity=".5"/><path fill="#EB92A7" d="M0 76.08v1.41l1-.14a14.017 14.017 0 0 1-1-1.27Z"/><path fill="#EB92A7" d="M0 84.76h115.25a354.31 354.31 0 0 0-36.63-6.83 12.48 12.48 0 0 0 2.91-8C81.53 62.8 75.45 57 68 57c0-14.27-12.2-25.85-27.19-25.85-12.87 0-23.64 8.54-26.43 20h-.72A16.9 16.9 0 0 0 0 57.9v26.86Z"/><path fill="#F3BDCA" d="M1188.8 310a702.376 702.376 0 0 1 86.37-22.33 32.145 32.145 0 0 1-3.74-15c0-18.49 15.69-33.49 35-33.49 2.69-.001 5.38.297 8 .89 3.34-30 29.86-53.29 62.09-53.29 26.73 0 49.53 16 58.44 38.62 1.65-.426 3.32-.76 5-1V310H1188.8Z"/><path fill="#EB92A7" d="M1325.43 80.67c11.49 0 20.8-8.274 20.8-18.48 0-10.206-9.31-18.48-20.8-18.48s-20.8 8.274-20.8 18.48c0 10.206 9.31 18.48 20.8 18.48Z"/><path fill="#EB92A7" d="M1346.23 80.66c5.74 0 10.4-4.137 10.4-9.24 0-5.103-4.66-9.24-10.4-9.24s-10.4 4.137-10.4 9.24c0 5.103 4.66 9.24 10.4 9.24ZM1304.62 80.66c7.06 0 12.78-5.082 12.78-11.35 0-6.269-5.72-11.35-12.78-11.35s-12.78 5.081-12.78 11.35c0 6.268 5.72 11.35 12.78 11.35Z"/><path fill="#EB92A7" d="M1382.47 82.11h-114.08s45.28-16.58 114.08 0Z"/><path fill="#F3BDCA" d="M243.72 310s-36.72-18.22-102.2-29.76a46.727 46.727 0 0 0 6-23c0-26.67-22.43-48.29-50.09-48.29-4.577 0-9.134.609-13.55 1.81C73.56 184.24 47 165.4 15.93 165.4A75.3 75.3 0 0 0 0 167.11V310h243.72Z"/><path fill="#DB284E" d="M592.22 106.85a21.996 21.996 0 0 1 9 8.64 27.393 27.393 0 0 1 0 25.66 21.847 21.847 0 0 1-9 8.68 28.655 28.655 0 0 1-13.54 3.08h-18.45v-49.14h18.411a28.64 28.64 0 0 1 13.579 3.08Zm-3.78 32c2.52-2.473 3.78-5.973 3.78-10.5s-1.26-8.05-3.78-10.57c-2.52-2.52-6.043-3.78-10.57-3.78h-5.669v28.56h5.669c4.52-.007 8.044-1.247 10.57-3.72v.01ZM623.089 113.36v9.94h16v9.24h-16v10.78h18.13v9.59h-30.1v-49.14h30.1v9.59h-18.13ZM661 143.67h15.68v9.24H649v-49.14h12v39.9ZM694.34 103.77v49.14h-12v-49.14h12ZM749.149 103.77l-17.43 49.14h-15l-17.43-49.14h12.74l12.18 37.1 12.25-37.1h12.69ZM766.089 113.36v9.94h16v9.24h-16v10.78h18.13v9.59h-30.1v-49.14h30.1v9.59h-18.13ZM817.05 152.91l-10.22-18.55H804v18.55h-12v-49.14h20.09a22.163 22.163 0 0 1 9.91 2 14.005 14.005 0 0 1 6.12 5.56 15.502 15.502 0 0 1 2 7.88 14.642 14.642 0 0 1-2.76 8.75 14.861 14.861 0 0 1-8.16 5.46l11.34 19.46-13.49.03Zm-13.09-27h7.42a6.812 6.812 0 0 0 4.94-1.61 6.098 6.098 0 0 0 1.64-4.55 5.902 5.902 0 0 0-1.64-4.41 6.812 6.812 0 0 0-4.94-1.61H804l-.04 12.18ZM879.77 103.77l-17 32.9v16.24h-12v-16.24l-17-32.9h13.579l9.521 20.58 9.45-20.58h13.45Z"/><path fill="#000" d="M572.67 173.85v32.06h-4.18v-32.06h4.18ZM605.001 205.91h-4.19l-16.81-25.53v25.53h-4.2V173.8h4.2l16.83 25.48V173.8h4.17v32.11ZM630.261 173.85v3.4h-13.94v10.81h11.32v3.41h-11.32v14.44h-4.18v-32.06h18.12ZM641.72 204.14a15.265 15.265 0 0 1-5.82-5.84 17.727 17.727 0 0 1 0-16.89 15.265 15.265 0 0 1 5.82-5.84 16.996 16.996 0 0 1 16.33 0 15.267 15.267 0 0 1 5.79 5.82 17.996 17.996 0 0 1 0 16.93 15.267 15.267 0 0 1-5.79 5.82 16.996 16.996 0 0 1-16.33 0Zm14.19-3.14a10.997 10.997 0 0 0 4.23-4.46 15.449 15.449 0 0 0 0-13.45 11.066 11.066 0 0 0-4.21-4.44 12.514 12.514 0 0 0-12.14 0 11 11 0 0 0-4.21 4.44 15.448 15.448 0 0 0 0 13.45 10.921 10.921 0 0 0 4.23 4.46 12.438 12.438 0 0 0 12.1 0ZM688.36 205.91l-7.64-13.11h-5.06v13.11h-4.18v-32.06h10.351a13.702 13.702 0 0 1 6.139 1.24 8.68 8.68 0 0 1 3.75 3.36 9.335 9.335 0 0 1 1.241 4.83 9.452 9.452 0 0 1-1.911 5.84 9.29 9.29 0 0 1-5.73 3.36l8 13.43h-4.96Zm-12.7-16.47h6.171a6.994 6.994 0 0 0 5.099-1.68 6.01 6.01 0 0 0 1.711-4.48 5.756 5.756 0 0 0-1.68-4.42 7.32 7.32 0 0 0-5.13-1.56h-6.171v12.14ZM731.999 174.08v31.83h-4.19v-23.74l-10.61 23.74h-2.94l-10.63-23.78v23.78h-4.18v-31.83h4.55l11.78 26.31 11.78-26.31h4.44ZM758 198.78h-14l-2.58 7.13H737L748.62 174h4.83L765 205.91h-4.41l-2.59-7.13Zm-1.19-3.41L751 179.18l-5.8 16.19h11.61ZM789.79 173.85v3.4h-8.74v28.66h-4.19v-28.66h-8.78v-3.4h21.71ZM799.129 173.85v32.06h-4.19v-32.06h4.19ZM812.65 204.14a15.404 15.404 0 0 1-5.82-5.84 17.728 17.728 0 0 1 0-16.89 15.404 15.404 0 0 1 5.82-5.84 16.996 16.996 0 0 1 16.33 0 15.356 15.356 0 0 1 5.8 5.82 18.008 18.008 0 0 1 0 16.93 15.356 15.356 0 0 1-5.8 5.82 16.996 16.996 0 0 1-16.33 0Zm14.19-3.14a11.004 11.004 0 0 0 4.23-4.46 15.448 15.448 0 0 0 0-13.45 11.072 11.072 0 0 0-4.21-4.44 12.517 12.517 0 0 0-12.14 0 11.066 11.066 0 0 0-4.21 4.44 15.449 15.449 0 0 0 0 13.45 10.997 10.997 0 0 0 4.23 4.46 12.435 12.435 0 0 0 12.1 0ZM867.62 205.91h-4.19l-16.83-25.53v25.53h-4.19V173.8h4.19l16.83 25.48V173.8h4.19v32.11Z"/><path fill="#F3BDCA" d="M251.709 159c21.595 0 39.1-16.556 39.1-36.98 0-20.423-17.505-36.98-39.1-36.98-21.594 0-39.1 16.557-39.1 36.98 0 20.424 17.506 36.98 39.1 36.98Z"/><path fill="#F3BDCA" d="M212.611 159c10.797 0 19.55-8.278 19.55-18.49 0-10.212-8.753-18.49-19.55-18.49-10.798 0-19.55 8.278-19.55 18.49 0 10.212 8.752 18.49 19.55 18.49ZM290.809 159c13.266 0 24.02-10.172 24.02-22.72 0-12.548-10.754-22.72-24.02-22.72s-24.02 10.172-24.02 22.72c0 12.548 10.754 22.72 24.02 22.72Z"/><path fill="#F3BDCA" d="M149.561 165.26h208.77s-82.87-43.73-208.77 0Z"/><path fill="#EB92A7" d="M1115.56 101.92c22.24 0 40.27-12.867 40.27-28.74 0-15.873-18.03-28.74-40.27-28.74-22.24 0-40.27 12.867-40.27 28.74 0 15.873 18.03 28.74 40.27 28.74Z"/><path fill="#EB92A7" d="m1098.55 90.87-4.91 16.88 17.22-12.58-12.31-4.3Z"/><path stroke="#fff" stroke-linecap="round" stroke-miterlimit="10" stroke-width="4.78" d="M1142.73 68.88h-54.35M1142.73 80.33h-40.88"/><path fill="#F3BDCA" d="M938.54 160.46c11.388 0 20.62-6.586 20.62-14.71s-9.232-14.71-20.62-14.71c-11.388 0-20.62 6.586-20.62 14.71s9.232 14.71 20.62 14.71Z"/><path fill="#F3BDCA" d="m947.239 154.81 2.52 8.64-8.81-6.44 6.29-2.2Z"/><path stroke="#fff" stroke-linecap="round" stroke-miterlimit="10" stroke-width="2.45" d="M924.631 143.55h27.82M931.52 149.41h20.93"/><path fill="#EB92A7" d="M490.091 85.92c9.637 0 17.45-5.574 17.45-12.45 0-6.876-7.813-12.45-17.45-12.45-9.638 0-17.45 5.574-17.45 12.45 0 6.876 7.812 12.45 17.45 12.45Z"/><path fill="#EB92A7" d="m482.73 81.14-2.13 7.31 7.46-5.45-5.33-1.86Z"/><path stroke="#fff" stroke-linecap="round" stroke-miterlimit="10" stroke-width="2.07" d="M501.87 71.62h-23.55M496.03 76.58h-17.71"/><path fill="#DB284E" d="M333.64 115.73c19.076 0 34.54-11.036 34.54-24.65 0-13.614-15.464-24.65-34.54-24.65S299.1 77.466 299.1 91.08c0 13.614 15.464 24.65 34.54 24.65Z"/><path fill="#DB284E" d="m348.23 106.25 4.21 14.48-14.76-10.79 10.55-3.69Z"/><path stroke="#fff" stroke-linecap="round" stroke-miterlimit="10" stroke-width="4.1" d="M310.34 87.4h46.61M321.891 97.21h35.06"/><path fill="#F3BDCA" d="M1195.64 156.48c8.26 0 14.96-6.514 14.96-14.55 0-8.036-6.7-14.55-14.96-14.55-8.26 0-14.96 6.514-14.96 14.55 0 8.036 6.7 14.55 14.96 14.55Z"/><path fill="#F3BDCA" d="M1210.6 156.47c4.13 0 7.48-3.255 7.48-7.27s-3.35-7.27-7.48-7.27c-4.13 0-7.48 3.255-7.48 7.27s3.35 7.27 7.48 7.27ZM1180.69 156.47c5.07 0 9.18-3.998 9.18-8.93 0-4.932-4.11-8.93-9.18-8.93-5.07 0-9.18 3.998-9.18 8.93 0 4.932 4.11 8.93 9.18 8.93Z"/><path fill="#F3BDCA" d="M1235.69 158.56h-74.37s29.51-16.02 74.37 0Z"/><path fill="#EB92A7" d="M514.825 252.454c15.356 0 27.804-11.991 27.804-26.784 0-14.792-12.448-26.784-27.804-26.784-15.355 0-27.804 11.992-27.804 26.784 0 14.793 12.449 26.784 27.804 26.784Z"/><path fill="#EB92A7" d="M542.631 252.454c7.677 0 13.902-5.996 13.902-13.392 0-7.396-6.225-13.392-13.902-13.392-7.678 0-13.902 5.996-13.902 13.392 0 7.396 6.224 13.392 13.902 13.392ZM487.022 252.454c9.429 0 17.073-7.37 17.073-16.461 0-9.092-7.644-16.462-17.073-16.462s-17.073 7.37-17.073 16.462c0 9.091 7.644 16.461 17.073 16.461Z"/><path fill="#EB92A7" d="M591.076 254.535H438.574s60.543-24.03 152.502 0ZM395.188 250.646c28.601 0 51.786-22.336 51.786-49.889 0-27.553-23.185-49.889-51.786-49.889-28.6 0-51.786 22.336-51.786 49.889 0 27.553 23.186 49.889 51.786 49.889Z"/><path fill="#EB92A7" d="M446.975 250.646c14.3 0 25.893-11.163 25.893-24.934s-11.593-24.934-25.893-24.934-25.893 11.163-25.893 24.934 11.593 24.934 25.893 24.934ZM343.403 250.646c17.571 0 31.815-13.723 31.815-30.652 0-16.929-14.244-30.653-31.815-30.653s-31.815 13.724-31.815 30.653 14.244 30.652 31.815 30.652Z"/><path fill="#EB92A7" d="M537.17 254.535H253.188s112.727-44.759 283.982 0Z"/><path fill="#F3BDCA" d="M293.191 252.854c9.174 0 16.611-7.851 16.611-17.534 0-9.684-7.437-17.534-16.611-17.534s-16.611 7.85-16.611 17.534c0 9.683 7.437 17.534 16.611 17.534Z"/><path fill="#F3BDCA" d="M309.404 252.854c4.535 0 8.211-3.267 8.211-7.296s-3.676-7.295-8.211-7.295c-4.534 0-8.211 3.266-8.211 7.295s3.677 7.296 8.211 7.296ZM276.582 252.854c5.567 0 10.08-4.01 10.08-8.957 0-4.946-4.513-8.956-10.08-8.956s-10.08 4.01-10.08 8.956c0 4.947 4.513 8.957 10.08 8.957Z"/><path fill="#F3BDCA" d="M337.985 253.989H248s35.7-13.098 89.985 0Z"/><path fill="#F3BDCA" d="M312.28 252.181c8.768 0 15.876-6.325 15.876-14.128s-7.108-14.128-15.876-14.128-15.876 6.325-15.876 14.128 7.108 14.128 15.876 14.128Z"/><path fill="#F3BDCA" d="M328.157 252.181c4.384 0 7.938-3.163 7.938-7.064 0-3.901-3.554-7.064-7.938-7.064s-7.938 3.163-7.938 7.064c0 3.901 3.554 7.064 7.938 7.064ZM296.384 252.181c5.393 0 9.765-3.888 9.765-8.683s-4.372-8.683-9.765-8.683c-5.393 0-9.765 3.888-9.765 8.683s4.372 8.683 9.765 8.683Z"/><path fill="#F3BDCA" d="M354.911 253.695h-87.087s34.566-12.678 87.087 0ZM426.962 252.727c12.503 0 22.638-9.798 22.638-21.885 0-12.087-10.135-21.886-22.638-21.886-12.502 0-22.638 9.799-22.638 21.886s10.136 21.885 22.638 21.885Z"/><path fill="#F3BDCA" d="M442.04 252.748c5.208 0 9.429-4.085 9.429-9.124 0-5.039-4.221-9.124-9.429-9.124-5.207 0-9.429 4.085-9.429 9.124 0 5.039 4.222 9.124 9.429 9.124ZM404.325 252.748c6.39 0 11.571-5.016 11.571-11.205s-5.181-11.206-11.571-11.206c-6.391 0-11.571 5.017-11.571 11.206 0 6.189 5.18 11.205 11.571 11.205Z"/><path fill="#F3BDCA" d="M474.801 254.157H371.502s41.034-16.44 103.299 0Z"/><path fill="#F3BDCA" d="M457.56 252.79c10.078 0 18.249-7.897 18.249-17.638 0-9.742-8.171-17.639-18.249-17.639-10.079 0-18.249 7.897-18.249 17.639 0 9.741 8.17 17.638 18.249 17.638Z"/><path fill="#F3BDCA" d="M475.807 252.79c5.034 0 9.114-3.953 9.114-8.829 0-4.877-4.08-8.83-9.114-8.83-5.033 0-9.114 3.953-9.114 8.83 0 4.876 4.081 8.829 9.114 8.829ZM439.331 252.79c6.194 0 11.214-4.856 11.214-10.848 0-5.991-5.02-10.848-11.214-10.848-6.193 0-11.214 4.857-11.214 10.848 0 5.992 5.021 10.848 11.214 10.848Z"/><path fill="#F3BDCA" d="M507.602 254.157H407.6s39.669-15.831 100.002 0Z"/><path fill="#C22046" d="M475.179 208.956h-4.011l4.473-18.795h3.99l-4.452 18.795ZM493.175 224.219h-4.011l8.085-34.058h4.011l-8.085 34.058Z"/><path fill="#FFB769" d="M364.005 162.368c3.583 0 6.489-2.984 6.489-6.665 0-3.68-2.906-6.664-6.489-6.664-3.584 0-6.489 2.984-6.489 6.664 0 3.681 2.905 6.665 6.489 6.665Z"/><path fill="#DB284E" d="M439.856 245.411h-66.003a1.298 1.298 0 0 1-1.302-1.303v-6.307a1.325 1.325 0 0 1 1.302-1.325h58.317c.347.006.678.148.922.395.243.248.38.582.38.93l6.384 7.61Z"/><path fill="#13161A" d="M460.162 260.275c10.891 0 19.719-8.839 19.719-19.741 0-10.903-8.828-19.742-19.719-19.742-10.89 0-19.719 8.839-19.719 19.742 0 10.902 8.829 19.741 19.719 19.741Z"/><path fill="#DB284E" d="M460.164 250.604c5.556 0 10.059-4.509 10.059-10.07 0-5.562-4.503-10.07-10.059-10.07-5.555 0-10.059 4.508-10.059 10.07 0 5.561 4.504 10.07 10.059 10.07Z"/><path fill="#C22046" d="M358.775 212.656a29.198 29.198 0 0 0-8.82-1.366 28.531 28.531 0 0 0-6.3.693 29.403 29.403 0 0 0-14.991 8.617 29.452 29.452 0 0 0-7.563 15.561 3.808 3.808 0 0 0 3.759 4.373h.126a2.44 2.44 0 0 0 2.415-2.208 22.71 22.71 0 0 1 7.741-14.993 22.661 22.661 0 0 1 31.266 1.525 22.718 22.718 0 0 1 6.248 15.676h6.531a29.3 29.3 0 0 0-5.66-17.275 29.252 29.252 0 0 0-14.752-10.603Z"/><path fill="#C22046" d="m389.035 236.539-9.87 3.995c-6.846-13.329-13.839-19.868-19.824-23.126-10.752-5.824-18.228-.904-15.708-5.466l18.438-38.978a17.142 17.142 0 0 1 6.51-5.424 16.785 16.785 0 0 1 8.82-1.556c3.528.315 4.83 1.913 4.977 5.445.294 6.833-3.213 25.228-6.888 33.806-8.988 21.192 13.545 31.304 13.545 31.304Z"/><path fill="#C22046" d="m378.977 170.441-7.455-2.838c-1.008 0-2.94.904-2.94 0l1.092-18.186a1.851 1.851 0 0 1 1.848-1.829h4.809c1.008 0 5.061 1.934 4.788 5.572l1.26 18.353c.021 1.03-2.394-1.072-3.402-1.072Z"/><path fill="#AC1D3E" d="M516.507 183.686h-55.713a2.753 2.753 0 0 0-2.751 2.754v1.514a2.753 2.753 0 0 0 2.751 2.754h55.713a2.753 2.753 0 0 0 2.751-2.754v-1.514a2.753 2.753 0 0 0-2.751-2.754Z"/><path fill="#13161A" d="M349.955 260.275c10.891 0 19.719-8.839 19.719-19.741 0-10.903-8.828-19.742-19.719-19.742-10.89 0-19.719 8.839-19.719 19.742 0 10.902 8.829 19.741 19.719 19.741Z"/><path fill="#DB284E" d="M360.014 240.534a10.111 10.111 0 0 1-1.155 4.688 1.796 1.796 0 0 0-.147.273 10.057 10.057 0 0 1-12.404 4.443 10.07 10.07 0 0 1-6.158-11.659 10.073 10.073 0 0 1 5.962-7.038h.126a10.07 10.07 0 0 1 9.37 1.025 10.09 10.09 0 0 1 4.427 8.331l-.021-.063ZM422.301 200.757s7.707 17.134-9.471 35.74h39.543l-5.376-40.828-24.696 5.088Z"/><path fill="#DB284E" d="M500.001 242.804a2.625 2.625 0 0 1-2.604 2.607H434.04a2.625 2.625 0 0 1-2.604-2.607l.84-41.437 21.315-1.304c28.371 0 46.41 14.317 46.41 42.741ZM370.493 155.325a11.077 11.077 0 0 1-.168 1.871 10.218 10.218 0 0 1-3.495 6.028 10.203 10.203 0 0 1-6.543 2.382v-20.393c2.689 0 5.269 1.062 7.18 2.955a10.223 10.223 0 0 1 3.026 7.157Z"/><path fill="#2B478B" d="M386.6 156.713h-.504l-11.214-3.112a1.09 1.09 0 0 1-.693-1.24c0-.589.483-1.009.924-.925l11.256 2.102c.441 0 .798.757.903 1.346.189.988-.273 1.829-.672 1.829Z"/><path fill="#C22046" d="M359.468 218.228c.105.63.21 1.24.294 1.829a22.429 22.429 0 0 0-9.723-2.103 22.688 22.688 0 0 0-15.235 5.893 22.733 22.733 0 0 0-7.34 14.605 2.436 2.436 0 0 1-2.415 2.208h-.126a3.792 3.792 0 0 1-2.882-1.323 3.807 3.807 0 0 1-.877-3.05 29.32 29.32 0 0 1 7.497-15.536c4-4.308 9.203-7.312 14.931-8.62h.126l18.438-38.978a17.127 17.127 0 0 1 6.51-5.424 77.196 77.196 0 0 0-9.807 45.074c.154 1.556.343 3.154.567 4.794l.042.631Z"/><path fill="#323942" d="M462.64 190.708h-40.446a1.933 1.933 0 0 0-1.932 1.934v6.181c0 1.068.865 1.934 1.932 1.934h40.446a1.933 1.933 0 0 0 1.932-1.934v-6.181a1.933 1.933 0 0 0-1.932-1.934Z"/><path fill="#AC1D3E" d="M494.918 245.411h-60.9s-3.717-22.558 9.996-30.169a20.286 20.286 0 0 1 11.949-2.102c14.259 1.451 32.193 13.539 38.955 32.271Z"/><path fill="#C22046" d="M370.325 157.196a10.218 10.218 0 0 1-3.495 6.028 10.197 10.197 0 0 1-6.543 2.381v-5.676c3.003 0 7.413-.294 10.038-2.733Z"/><path fill="#13161A" d="M451.699 200.757h-29.4a1.955 1.955 0 0 1-1.932-1.955v-6.139a1.955 1.955 0 0 1 1.932-1.955h20.16a49.827 49.827 0 0 0 9.24 10.049Z"/><path fill="#C22046" d="M494.917 245.411h-25.2c-15.267-7.737-14.322-26.448-13.65-32.208 14.154 1.387 32.088 13.476 38.85 32.208ZM358.712 245.495a10.057 10.057 0 0 1-12.404 4.442 10.056 10.056 0 0 1-6.108-6.91 10.07 10.07 0 0 1-.05-4.748 10.067 10.067 0 0 1 5.962-7.038c.861 4.373 3.675 12.425 12.6 14.254Z"/><path fill="#DB284E" d="M359.468 218.228c.105.63.21 1.24.294 1.829-3.633-3.364-11.34-6.307-16.17-8.01h.126l18.438-38.978a17.135 17.135 0 0 1 6.51-5.424 77.197 77.197 0 0 0-9.807 45.075c.154 1.555.343 3.153.567 4.793l.042.715Z"/><path fill="#6C6D6D" d="M456.698 170.588s.693 11.416-3.129 17.87c-3.528 5.95-63.231 2.418-63.231 2.418s-.252-8.851 2.1-11.122c2.352-2.27 13.314-8.787 48.3-12.488l15.96 3.322Z"/><path fill="#DB284E" d="M457.559 143.341c-.903 11.353.294 28.614-.756 31.536-.882 2.565-11.13 1.051-15.204.189a87.262 87.262 0 0 1-5.229-1.324c-5.271-1.493-11.025-3.637-11.655-5.235a.6.6 0 0 1 0-.189 1.382 1.382 0 0 1 0-.652c.147-.61.63-1.241.903-2.355.113-.44.176-.891.189-1.345 0-2.103 0-4.457.168-7.022v-.715a7.755 7.755 0 0 1 0-.988v-.295c0-3.174.273-6.496.483-9.797 0-1.03.147-2.102.21-3.069v-1.072c0-.358.105-1.325.168-1.955.29-4.202.929-8.372 1.911-12.467a19.938 19.938 0 0 1 6.972-9.924l2.751-2.102a9.544 9.544 0 0 0 6.3-.315c2.499-1.093 3.381-1.892 3.801-1.577 5.901 4.184 10.08 16.819 8.988 30.673Z"/><path fill="#1C4575" d="M412.492 227.814s-.525 8.599-2.1 8.704h-18.9a3.356 3.356 0 0 1 3.066-3.006c3.066-.526 8.169-2.691 10.038-6.728 1.869-4.036 7.896 1.03 7.896 1.03Z"/><path fill="#6C6D6D" d="M414.677 228.382a11.434 11.434 0 0 1-6.132 1.745 15.94 15.94 0 0 1-2.898 0 13.734 13.734 0 0 1-3.675-.946l-11.634-38.2s12.012-10.512 18.291-3.973a10.75 10.75 0 0 1 2.1 4.204c3.99 12.867 3.948 37.17 3.948 37.17Z"/><path fill="#FFB27D" d="M395.001 149.417c-1.377.358-2.782.59-4.2.694-.903-.126-5.334-1.871-6.72-1.135-1.386.736-4.494 5.193-3.276 6.748a4.892 4.892 0 0 0 3.045-2.102c1.323-1.892 3.234-1.051 3.087-.799-.147.253-2.457 1.64-1.953 2.103a7.347 7.347 0 0 0 4.431-.904 27.467 27.467 0 0 1 6.552-.925l-.966-3.68Z"/><path fill="#DB284E" d="M436.874 116.326s-12.6 18.354-23.1 23.715a230.128 230.128 0 0 1-23.919 9.482s1.575 6.958 3.654 8.409c0 0 16.8-1.535 27.615-6.622 4.956-2.334 24.108-16.819 25.851-18.06 1.743-1.24-2.583-19.573-10.101-16.924Z"/><path stroke="#000" stroke-linecap="round" stroke-miterlimit="10" stroke-width=".27" d="m426.311 148.093 18.06-12.993a9.118 9.118 0 0 0 3.398-7.776 9.137 9.137 0 0 0-1.346-4.159 9.109 9.109 0 0 0-3.123-3.054M429.504 125.997l3.381-3.784" opacity=".3"/><path fill="#F2AA91" d="M429.987 93.18s-1.659 13.538 1.806 18.416c2.877 4.079 6.636.505 6.636.505l.189 3.3s3.423 1.409 9.744-2.544a16.59 16.59 0 0 1-2.94-8.409s4.599-2.859 1.071-6.307c-3.528-3.448-2.772 2.102-2.772 2.102s-2.751-17.765-13.734-7.064Z"/><path fill="#1E1C1F" d="M445.211 106.487a5.605 5.605 0 0 0-.882-4.205s.882-2.417 0-2.964c-.882-.547-1.407 1.535-1.806 1.135a10.035 10.035 0 0 1-2.772-4.625c-.546-2.418-8.799-.673-9.786-.4-.987.274 5.481-11.752 12.453-8.892 6.972 2.859 7.476 6.433 6.678 9.334s-.798 10.007-3.885 10.617Z"/><path fill="#DB284E" d="M450.146 96.585a.752.752 0 0 1-.336.652.356.356 0 0 1-.21 0h-26.691a.652.652 0 0 1-.546-.715.652.652 0 0 1 .546-.715l5.964-.757a11.112 11.112 0 0 1 2.345-5.732 11.087 11.087 0 0 1 5.047-3.581c.965-.304 1.971-.46 2.982-.463a10.81 10.81 0 0 1 7.268 3.09 10.835 10.835 0 0 1 3.232 7.212v.21a.756.756 0 0 1 .399.799Z"/><path fill="#C22046" d="M441.201 95.639c2.1-10.512-4.641-9.86-4.851-9.84.965-.303 1.97-.458 2.982-.462a10.81 10.81 0 0 1 7.267 3.09 10.836 10.836 0 0 1 3.233 7.212h-8.631Z"/><path fill="#E0AC69" d="m507.917 150.002-47.544-.149a1.281 1.281 0 0 0-1.285 1.278l-.099 31.493a1.281 1.281 0 0 0 1.277 1.287l47.544.149a1.282 1.282 0 0 0 1.285-1.278l.099-31.493a1.283 1.283 0 0 0-1.277-1.287Z"/><path fill="#F7CD97" d="m473.83 149.938 43.806.076a1.722 1.722 0 0 1 1.719 1.727l-.053 30.59a1.725 1.725 0 0 1-1.725 1.72l-43.806-.076.059-34.037Z"/><path fill="#F1C27D" d="m469.108 149.881-5.796-.019-.01 3.427 5.796.018.01-3.426ZM469.013 180.532l-5.796-.018-.011 3.427 5.796.018.011-3.427Z"/><g clip-path="url(#a)"><path fill="#D7244F" d="m481.045 165.151.113-.023c-.169 1.115-.336 2.526-.32 2.972a.395.395 0 0 0 .4.398.479.479 0 0 0 .204-.049c1.016-.496 1.644-.656 2.686-.921.244-.061.309-.268.289-.426-.023-.184-.166-.371-.393-.371a.438.438 0 0 0-.108.014c-.891.227-1.489.388-2.23.704.016-.174.037-.375.063-.597l.404-.167c.694-.289 1.152-.479 1.975-.704.245-.067.306-.276.285-.436-.024-.18-.164-.362-.385-.362a.404.404 0 0 0-.115.016c-.834.229-1.295.421-1.995.712l-.053.022c.062-.436.123-.855.179-1.182.587-.257 1.131-.391 1.989-.561.2-.04.317-.196.297-.398-.019-.192-.17-.395-.414-.395a.428.428 0 0 0-.087.009c-.677.134-1.201.255-1.718.444a.396.396 0 0 0-.047-.061.432.432 0 0 0-.308-.125.376.376 0 0 0-.381.294 9.12 9.12 0 0 1-.028.1v.004a4.483 4.483 0 0 0-.061.232c-.104.031-.485.098-.854.161l-.018.004a27.52 27.52 0 0 0-1.235.23c.009-.239.018-.449.027-.643.005-.116.008-.236.011-.353v-.067c.36-.053.718-.109 1.148-.175l.011-.002c.469-.073 1.002-.156 1.519-.229a.337.337 0 0 0 .126-.05.307.307 0 0 0 .095-.098.417.417 0 0 0 .058-.328c-.048-.174-.193-.278-.387-.278a.512.512 0 0 0-.078.006c-.489.07-.987.147-1.467.222l-.022.003c-.318.05-.63.098-.948.146a2.64 2.64 0 0 1 .071-.329.346.346 0 0 0-.054-.324.405.405 0 0 0-.146-.117.401.401 0 0 0-.183-.041.36.36 0 0 0-.363.273c-.059.212-.098.43-.115.65-.442.062-.836.11-1.204.149-.225.024-.378.179-.378.386 0 .189.176.409.394.386.352-.037.728-.083 1.151-.14l-.007.183c-.013.286-.026.589-.04.984a8.639 8.639 0 0 0-.406.139c-.169.061-.289.268-.269.457a.315.315 0 0 0 .285.289.743.743 0 0 0 .282-.006l.077-.018-.011.306a111.48 111.48 0 0 1-.101 2.413.368.368 0 0 0 .017.144.37.37 0 0 0 .073.124.39.39 0 0 0 .279.112c.19 0 .389-.127.402-.371.046-.811.075-1.632.102-2.425l.018-.507c.425-.11 1.371-.301 1.827-.394l.072-.015ZM498.678 166.629c-.023-.184-.166-.371-.393-.371a.432.432 0 0 0-.108.014c-.936.238-1.611.419-2.396.751.012-.171.03-.372.055-.598l.017-.006c.241-.099.442-.184.575-.242.503-.214.78-.332 1.521-.536.244-.067.305-.275.284-.436-.024-.18-.164-.362-.385-.362a.41.41 0 0 0-.115.016c-.752.206-1.031.326-1.538.542l-.244.104c.061-.437.129-.883.194-1.261a5.56 5.56 0 0 1 .8-.25c.359-.09.58-.128.838-.172h.003c.132-.023.297-.051.507-.092a.352.352 0 0 0 .298-.398c-.019-.192-.17-.398-.415-.398a.491.491 0 0 0-.086.008c-.209.041-.413.075-.611.108-.398.066-.811.134-1.206.256a.355.355 0 0 0-.085-.138.434.434 0 0 0-.306-.124.376.376 0 0 0-.381.293 7.02 7.02 0 0 0-.074.352 3.069 3.069 0 0 0-.468.358.36.36 0 0 0-.103.41.443.443 0 0 0 .392.278c-.174 1.118-.339 2.47-.284 2.928.029.231.194.392.404.392.07 0 .138-.017.2-.048 1.007-.493 1.769-.686 2.824-.954.242-.06.305-.266.286-.424ZM487.709 168.587c.044-.554.112-1.198.178-1.821v-.014c.047-.437.094-.888.132-1.296.042-.445.088-.927.146-1.425l.016-.137c.026-.24.054-.488.113-.723a.326.326 0 0 0-.058-.29.411.411 0 0 0-.318-.151.357.357 0 0 0-.316.182c-.153.265-.288.538-.42.802-.083.165-.177.353-.271.53-.174.328-.32.59-.466.823a5.97 5.97 0 0 1-.133.203 18.336 18.336 0 0 1-.348-1.067c-.07-.247-.15-.492-.227-.729l-.107-.333a1.242 1.242 0 0 0-.013-.088l-.002-.004a1.078 1.078 0 0 0-.042-.107.355.355 0 0 0-.323-.18.423.423 0 0 0-.188.045.34.34 0 0 0-.107.089c-.011.011-.022.022-.031.034a.319.319 0 0 0-.061.15 1.596 1.596 0 0 0-.042.322c-.002.049-.006.1-.011.141-.058.429-.094.884-.117 1.479-.037.942-.07 2.218-.087 3.331a.325.325 0 0 0 .091.243.395.395 0 0 0 .278.109c.185 0 .375-.12.379-.349.008-.573.028-1.235.046-1.874a196.3 196.3 0 0 0 .04-1.446c.164.454.36.788.613 1.049a.373.373 0 0 0 .263.101.344.344 0 0 0 .199-.059c.346-.248.581-.648.791-1.043l-.031.321c-.036.394-.083.835-.128 1.261l-.002.02c-.068.649-.139 1.319-.186 1.905a.308.308 0 0 0 .076.24.358.358 0 0 0 .264.106c.19 0 .392-.12.41-.35ZM488.9 168.182c.161-.502.309-1.01.42-1.4.402-.206.77-.391 1.122-.566.221.73.487 1.445.795 2.142.056.126.194.207.352.207a.414.414 0 0 0 .206-.054c.187-.109.247-.329.149-.547a17.07 17.07 0 0 1-.764-2.109c.201-.096.381-.184.55-.263a.345.345 0 0 0 .205-.401.443.443 0 0 0-.42-.347.41.41 0 0 0-.181.042l-.377.179a42.558 42.558 0 0 1-.306-1.229 13.792 13.792 0 0 0-.13-.511 2.656 2.656 0 0 1-.052-.221l-.004-.019a.383.383 0 0 0-.023-.348.442.442 0 0 0-.362-.204.328.328 0 0 0-.199.064.52.52 0 0 0-.206.306l-.014-.004-.016.075c-.366.993-.658 2.021-.94 3.017l-.067.231-.028.015a.476.476 0 0 0-.07.03l-.074.042a1.537 1.537 0 0 1-.069.039l-.07.036.003.007a.348.348 0 0 0-.128.376.456.456 0 0 0 .201.275c-.104.351-.193.643-.281.918a.36.36 0 0 0 .046.337.429.429 0 0 0 .348.167.39.39 0 0 0 .384-.282Zm.723-2.462c.096-.336.222-.771.362-1.22l.007.03c.045.195.096.415.152.632l.071.264c-.187.092-.381.187-.592.294Z"/><path fill="#D7244F" d="M494.393 167.032a.412.412 0 0 0-.197.053 4.23 4.23 0 0 1-.872.374c-.14.041-.285.063-.431.064l-.015-.002c-.02-.112.009-.271.031-.401.04-.224.085-.478.122-.735.214-1.474.328-2.658.372-3.838a.382.382 0 0 0-.1-.279.406.406 0 0 0-.293-.118c-.2 0-.408.134-.417.391-.056 1.529-.19 2.838-.419 4.119l-.025.131-.003.016c-.092.479-.209 1.076.265 1.393a.893.893 0 0 0 .509.137c.185-.005.369-.031.548-.077.404-.093.783-.282 1.131-.473a.362.362 0 0 0 .19-.429c-.039-.161-.19-.326-.396-.326ZM508.307 167.287h-.031c-.329 0-.506.265-.512.525-.006.251.147.528.496.544h.027c.331 0 .51-.264.516-.525.005-.251-.148-.528-.496-.544ZM504.26 164.312c-.111-.796-.598-1.477-1.271-1.779a1.794 1.794 0 0 0-.728-.16c-.471 0-.882.196-1.156.551-.079.1-.147.207-.203.321a.417.417 0 0 0 .021.416.46.46 0 0 0 .259.199c-.02.602-.025 1.225-.014 1.849.008.439.025.957.087 1.481l.01.09a2.725 2.725 0 0 1-.194.014c-.272.006-.412.224-.409.435.002.198.129.41.403.41h.01c.131-.003.261-.015.39-.036.02.039.043.077.069.112a.458.458 0 0 0 .364.199.4.4 0 0 0 .207-.058.456.456 0 0 0 .204-.294.385.385 0 0 0-.014-.21 3.419 3.419 0 0 0 1.166-.892c.638-.752.929-1.717.799-2.648Zm-2.208-1.071a.473.473 0 0 1 .186-.031h.048a.869.869 0 0 1 .284.06c.418.141.755.593.857 1.15.116.629-.112 1.405-.58 1.975a2.538 2.538 0 0 1-.765.629 16.206 16.206 0 0 1-.07-1.41c-.014-.807 0-1.605.04-2.373ZM507.222 165.975a21.404 21.404 0 0 0-.236-1.721c-.075-.394-.16-.812-.309-1.208-.067-.179-.138-.35-.273-.474a.534.534 0 0 0-.36-.143.493.493 0 0 0-.367.165.424.424 0 0 0-.104.2.42.42 0 0 0 .017.225l.003.007a.254.254 0 0 0-.016.038c-.153.405-.289.821-.421 1.222v.003c-.147.447-.281.849-.431 1.248-.205.066-.259.25-.243.389a.446.446 0 0 0 .038.129c-.069.17-.148.368-.209.561-.083.263-.179.652-.052.987.071.184.227.3.406.3a.41.41 0 0 0 .269-.101.466.466 0 0 0 .112-.141.388.388 0 0 0 .043-.149.384.384 0 0 0-.022-.154c-.065-.171.016-.405.088-.612l.017-.048c.057-.165.125-.328.19-.486l.018-.043c.288-.061.59-.117 1.006-.187l.021.189c.079.719.16 1.463.333 2.182a.383.383 0 0 0 .386.307.457.457 0 0 0 .356-.17.403.403 0 0 0 .072-.355c-.171-.707-.253-1.446-.332-2.16Zm-.929-.748c-.232.039-.423.072-.601.105.09-.26.179-.529.263-.781l.009-.028.135-.407c.038.174.075.368.114.589l.027.163.009.066.011.072.006.038.027.183ZM508.707 164.844l.014-.231v-.008c.01-.166.018-.264.023-.336v-.017c.01-.129.016-.208.025-.504l.003-.086.002-.046c.012-.294.024-.598-.052-.88a.411.411 0 0 0-.409-.312.451.451 0 0 0-.352.166.386.386 0 0 0-.073.164.392.392 0 0 0 .012.18.916.916 0 0 1 .023.129v.026c.003.045.004.088.005.125.006.202 0 .403-.008.607a8.614 8.614 0 0 1-.031.538v.004c-.007.092-.016.205-.028.408l-.009.163a12.14 12.14 0 0 0-.033 1v.077c0 .318 0 .851.405.914a.584.584 0 0 0 .102.008c.14 0 .245-.049.317-.147.113-.158.082-.387.045-.498a.434.434 0 0 1-.015-.08l-.002-.028v-.007c0-.014-.002-.027-.003-.034l-.004-.115v-.008c-.003-.09 0-.184 0-.264.009-.362.023-.591.043-.908ZM514.194 162.647a.348.348 0 0 0-.293.153l-.014-.004-.03.092c-.159.46-.348.921-.547 1.409l-.002.005a58.32 58.32 0 0 0-.224.551 37.602 37.602 0 0 1-.567-.842 3.14 3.14 0 0 0-.136-.197 1.956 1.956 0 0 1-.146-.224 6.683 6.683 0 0 1-.222-.411l-.008-.02-.014-.042a.336.336 0 0 0-.331-.245.376.376 0 0 0-.297.144.324.324 0 0 0-.043.301v.004c.186.426.278.566.479.872l.091.14.002.002c.312.48.603.906.891 1.302-.32.892-.489 1.615-.531 2.276a.323.323 0 0 0 .082.244.345.345 0 0 0 .252.103c.171 0 .351-.115.365-.334.071-1.135.553-2.296 1.019-3.421l.004-.009c.155-.375.302-.729.435-1.085a.375.375 0 0 0 .052-.104 2.1 2.1 0 0 0 .034-.117l.031-.104a.316.316 0 0 0-.039-.294.37.37 0 0 0-.293-.145ZM511.496 166.926a.419.419 0 0 0-.199.052 3.822 3.822 0 0 1-.801.345 1.463 1.463 0 0 1-.371.057c-.009-.094.013-.222.03-.327l.002-.01c.037-.207.079-.441.113-.676.191-1.32.306-2.516.347-3.655a.379.379 0 0 0-.239-.374.4.4 0 0 0-.16-.03c-.202 0-.412.136-.421.396-.043 1.155-.171 2.434-.391 3.91-.008.055-.019.114-.031.185-.077.435-.174.977.267 1.272.134.09.294.133.491.133a2.3 2.3 0 0 0 .515-.072c.377-.088.731-.264 1.056-.441a.37.37 0 0 0 .194-.435c-.042-.164-.193-.33-.402-.33Z"/><path fill="#D8254F" d="M514.548 169.619h-16.505v2.924h16.505v-2.924Z"/><path fill="#fff" d="M500.677 171.337a.375.375 0 0 0-.142-.092 1.786 1.786 0 0 0-.192-.061 1.998 1.998 0 0 1-.212-.066 1.076 1.076 0 0 1-.193-.094.423.423 0 0 1-.141-.156.497.497 0 0 1-.055-.245.465.465 0 0 1 .166-.363.657.657 0 0 1 .449-.146c.068 0 .135.008.201.025a.791.791 0 0 1 .34.192l.021.026-.187.188-.015-.017a.603.603 0 0 0-.119-.088.483.483 0 0 0-.241-.055.35.35 0 0 0-.233.072.204.204 0 0 0-.088.168.204.204 0 0 0 .055.145.363.363 0 0 0 .142.092c.062.024.127.045.192.061a2.6 2.6 0 0 1 .212.066c.067.024.132.055.193.093a.41.41 0 0 1 .141.157.516.516 0 0 1 .055.244.514.514 0 0 1-.177.405c-.119.105-.283.157-.492.157a.917.917 0 0 1-.434-.104 1.038 1.038 0 0 1-.13-.085.675.675 0 0 1-.079-.072l-.026-.033.186-.187.018.023a.575.575 0 0 0 .151.118.712.712 0 0 0 .313.074.417.417 0 0 0 .275-.085.263.263 0 0 0 .101-.211.189.189 0 0 0-.013-.078.193.193 0 0 0-.042-.068ZM503.221 170.143v.269h-.563v1.607h-.293v-1.607h-.562v-.269h1.418ZM505.293 171.628a.482.482 0 0 0 .147-.358v-1.127h.296v1.127a.738.738 0 0 1-.231.548.801.801 0 0 1-1.291-.25.757.757 0 0 1-.058-.298v-1.127h.295v1.127a.496.496 0 0 0 .147.359.49.49 0 0 0 .348.15.474.474 0 0 0 .347-.15v-.001ZM507.541 170.143a.924.924 0 0 1 .67.278.914.914 0 0 1 .28.66.918.918 0 0 1-.28.661.922.922 0 0 1-.67.277h-.656v-1.876h.656Zm-.362.269v1.339h.362a.624.624 0 0 0 .463-.194.685.685 0 0 0-.211-1.097.624.624 0 0 0-.252-.048h-.362ZM509.559 170.143h.294v1.876h-.294v-1.876ZM511.207 170.397a.966.966 0 0 1 .703-.28c.279 0 .514.094.705.28a.958.958 0 0 1 .21 1.055.962.962 0 0 1-.915.594.961.961 0 0 1-.988-.965.958.958 0 0 1 .285-.684Zm.211 1.179a.703.703 0 0 0 1.152-.76.704.704 0 0 0-1.193-.182.702.702 0 0 0-.161.447.67.67 0 0 0 .202.495Z"/></g><path fill="#EB92A7" d="M1023.97 252.041c30.6 0 55.4-23.867 55.4-53.308 0-29.442-24.8-53.308-55.4-53.308-30.604 0-55.411 23.866-55.411 53.308 0 29.441 24.807 53.308 55.411 53.308Z"/><path fill="#EB92A7" d="M1098.18 251.777c16.54 0 29.95-12.899 29.95-28.812 0-15.912-13.41-28.811-29.95-28.811s-29.95 12.899-29.95 28.811c0 15.913 13.41 28.812 29.95 28.812Z"/><path fill="#EB92A7" d="M1128.12 251.777c8.27 0 14.98-6.45 14.98-14.406s-6.71-14.406-14.98-14.406-14.97 6.45-14.97 14.406 6.7 14.406 14.97 14.406ZM1068.23 251.758c10.16 0 18.4-7.922 18.4-17.695 0-9.772-8.24-17.694-18.4-17.694-10.16 0-18.4 7.922-18.4 17.694 0 9.773 8.24 17.695 18.4 17.695Z"/><path fill="#EB92A7" d="M1180.27 254.028h-164.18s65.18-25.857 164.18 0ZM962.437 251.366c19.555 0 35.408-15.257 35.408-34.077s-15.853-34.077-35.408-34.077-35.408 15.257-35.408 34.077 15.853 34.077 35.408 34.077Z"/><path fill="#EB92A7" d="M997.843 251.347c9.787 0 17.717-7.624 17.717-17.029 0-9.405-7.93-17.029-17.717-17.029-9.783 0-17.714 7.624-17.714 17.029 0 9.405 7.931 17.029 17.714 17.029ZM927.027 251.346c12.01 0 21.746-9.367 21.746-20.923 0-11.556-9.736-20.924-21.746-20.924-12.01 0-21.746 9.368-21.746 20.924s9.736 20.923 21.746 20.923Z"/><path fill="#EB92A7" d="M1059.52 254.028H865.336s77.079-30.574 194.184 0Z"/><path fill="#DB284E" d="M1021 48.685a48.152 48.152 0 0 0-48.15 48.15c0 26.6 48.15 96.751 48.15 96.751s48.15-70.151 48.15-96.75a48.147 48.147 0 0 0-48.15-48.15Zm0 72.852c-4.99 0-9.86-1.479-14.01-4.25a25.21 25.21 0 1 1 14.01 4.25Z"/><path fill="#C22046" d="M1021 71.136a25.074 25.074 0 0 1 15.05 5.01 25.185 25.185 0 0 0-38.528-5.874 25.199 25.199 0 0 0-8.303 19.9 25.185 25.185 0 0 0 10.135 19.034 25.169 25.169 0 0 1 8.976-34.665 25.157 25.157 0 0 1 12.67-3.405ZM1069.15 96.836a47.939 47.939 0 0 0-4.14-19.562 48.033 48.033 0 0 0-11.75-16.179 47.945 47.945 0 0 1 9.3 28.42c0 24.467-40.77 85.829-47.29 95.459a492.2 492.2 0 0 0 5.73 8.612s48.15-70.15 48.15-96.75Z"/><path fill="#DB284E" d="m959.524 204.214 31.709-5.441 29.187 5.441 30.12-6.146 31.94 6.146 19.46 51.869-42.38-10.511-38.56 10.511-38.771-9.336-42.161 9.336 19.456-51.869Z"/><path fill="#F3BDCA" d="M1084 236.353c-.29-.724-.62-1.468-.92-2.192a6.354 6.354 0 0 1-.29-.724 1.264 1.264 0 0 0-.33-.783v-.294a2.31 2.31 0 0 1 0-.372c-.14-.137-.41-.176-.43-.391h.43c-.3-.196-.57-.274-.67-.548-.47-1.135-.94-2.251-1.39-3.367 0-.117-.12-.254 0-.313s.14-.235 0-.391c-.21-.509-.43-1.018-.62-1.527-.2-.509-.59-1.39-.89-1.957v-.137l-.23.235-.96-.627c-.1-.005-.2-.005-.29 0a.477.477 0 0 1-.24.01.45.45 0 0 1-.21-.108.668.668 0 0 0-.28-.143.626.626 0 0 0-.31.006c-.12.03-.25.03-.37 0a1.054 1.054 0 0 0-.75 0l-.27-.293-.47.176v-.411l-.67-.196c-.23.176-.25.157-.56 0l-.86-.528h-.18c-.24.156-.33.117-.55-.137a1.553 1.553 0 0 0-.23-.216l-.3.235c-.21-.176-.43-.313-.6-.489a.428.428 0 0 0-.47 0l-1.22.587c.17.05.33.109.49.176.1.057.18.138.24.235 0 .118 0 .118-.22.137l-.53.137h-.21c-.08 0-.43 0-.43.294v.117c0 .118-.53-.411-.86-.333-.01.098-.01.196 0 .294a.636.636 0 0 1-.1.402.622.622 0 0 1-.31.264c-.14 0-.14.195 0 .371.13.177.11.314 0 .353-.17.035-.33.104-.46.202-.14.097-.26.222-.35.365a.677.677 0 0 1-.29.222.772.772 0 0 1-.35.072h-.53a1.68 1.68 0 0 1-.84-.313l-.79-.627c-.24.223-.44.488-.58.783.35.149.72.241 1.09.274a.71.71 0 0 1 .26 0c.23.154.52.21.8.157.31-.03.62.038.88.196a.47.47 0 0 1 .19.16c.05.068.08.148.08.231 0 .137 0 .196-.21.196-.22 0-.26.196-.35.313-.1.118-.16.255 0 .509.15.254.27.254.58.235.1-.02.2-.02.3 0 .11.051.23.059.35.023a.494.494 0 0 0 .27-.219.84.84 0 0 0 .3.269c.12.062.25.091.39.083.13.006.25.047.35.118l.63.235 1.04.313c.25 0 .45.117.6 0 .13-.056.27-.095.41-.117l.26.43.49-.313.33.352c.09.151.24.263.41.317.16.053.35.045.51-.023h.2c0 .509.48.43.82.528h.31l.55.548v.314c.21 0 .33 0 .35-.177.02-.176.22-.195.47-.117l-.16.626.36.157c.37.156.43.235.31.47a.51.51 0 0 0-.09.293c0 .105.03.208.09.294.15.185.33.332.55.43.21 0 .25 0 .35-.156h.14c0 .117 0 .313.15.352.16.039.34.392.57.587h.35c.32.216.57.451.85.627.27.176.39.254.17.469-.21.216-.16.412 0 .705.16.294.33.587 0 .724 0 .176 0 .313-.12.45-.11.138 0 .255.2.314h.33v-.157c0-.039 0-.254.22-.215.07.014.14.049.19.102.05.052.09.119.1.191a.781.781 0 0 0 0 .216c.35.137.33 0 .47-.157.29.019.59.019.88 0 .24 0 .41 0 .39-.274a.324.324 0 0 1 .12-.215c.13-.121.27-.232.41-.333.1.054.19.132.26.228.06.095.1.205.11.32 0 .137 0 .333.18.431.18.098.47.704.94.861a.4.4 0 0 1 .15.102c.05.043.08.095.1.152.26.34.57.632.92.862.14.079.28.144.43.195a5.053 5.053 0 0 1-1.33-1.742Zm-67.48-16.206c-.14-.274 0-.529 0-.803h.45v.411c.18-.191.37-.367.58-.528.25-.157.5-.294.77-.411-.22-.216-.59-.235-.57-.568.02-.333 0-.509.43-.568a.933.933 0 0 1-.03-.469.879.879 0 0 1 .19-.431c.15-.254.33-.489 0-.763l.33-.157c.21 0 .41-.156.39-.391 0-.032 0-.064.01-.092a.415.415 0 0 1 .06-.072.202.202 0 0 1 .09-.031c.03-.002.07.004.09.019.22 0 .55 0 .67.313s.2.156.37.137h.33a.465.465 0 0 1 .21-.052c.07 0 .14.017.21.052.06.038.13.058.2.058s.14-.02.21-.058a.606.606 0 0 0-.12-.369.538.538 0 0 0-.33-.199 5.543 5.543 0 0 1-1.61-.92.87.87 0 0 0-.41-.078.341.341 0 0 1-.14-.021.32.32 0 0 1-.18-.195.312.312 0 0 1-.01-.136v-.216a.624.624 0 0 1 0-.332h.37a.606.606 0 0 0 .29-.118v-.215c0-.039-.41-.274-.62-.431a.592.592 0 0 1-.26-.137 3.072 3.072 0 0 1-.17-.509c-.71 0-.73 0-.67-.45a.482.482 0 0 0-.05-.352.483.483 0 0 0-.26-.235l-.57.215a.79.79 0 0 1-.07-.303c0-.105.03-.208.07-.304.12-.195.25-.215.39 0a.552.552 0 0 0 .45.196c.29 0 .47 0 .57-.274l.25.196a.285.285 0 0 0 .32 0c-.4-.215-.55-.587-1.1-.607a.317.317 0 0 0 0-.137v-.137c-.35-.176-.39-.196-.61 0a.77.77 0 0 1-.58.118l-1.26-.275-.13.196-.85-.176v.294c0 .156 0 .274-.27.293a.213.213 0 0 0-.11.034.185.185 0 0 0-.08.084c-.03.142-.03.288 0 .43-.02.08 0 .161.04.232.04.071.1.127.17.16.24.117.22.176.12.352a1.86 1.86 0 0 1-.69.646h-.11c-.47 0-.57 0-.47.333.09.332 0 .587-.45.763-.45.176-.32.313-.16.548a.51.51 0 0 1 .12.333c0 .196-.12.235-.34.156-.21-.078-.21 0-.33 0l.14.137c-.16.103-.31.228-.43.372-.2.235-.2.235-.51.157-.31-.078-.43 0-.41.274.02.274 0 .313 0 .47.01.071.01.144 0 .215l-.35-.313-.42.196c.01.104.01.208 0 .313 0 .196.18.274.4.176l.35-.215v.352c.1.048.21.074.32.074.11 0 .22-.026.32-.074a.48.48 0 0 1 .22 0h.47c.09-.028.18-.03.27-.006.09.024.17.074.24.143.15.195.29.405.41.626h-.49c0 .216 0 .216.31.294.59.156.67.293.47.783v.117a.525.525 0 0 0 0 .49h.39c-.19.195-.29.371 0 .567.3.196 0 0 0 0s.18.294.4.333c.21.039.33.117.35.254.02.137.13.764-.3 1.057l.22.725c.27.137.27.137.31.313.04.176 0 .293.39.332.13.01.27.01.4 0a.643.643 0 0 0-.11-.297.525.525 0 0 0-.23-.211c-.29-.294-.21-.588.18-.764.23-.058.47-.058.7 0 .22-.254 0-.43-.15-.685l.25.098a.61.61 0 0 0 .2 0c.45-.098.62-.196.55-.352Zm-6.29 4.208c.2 0 .35-.157.32-.333-.04-.176.13-.47.43-.587.29-.117.25-.176.13-.333-.11-.156-.15-.156 0-.293l.39.352a.743.743 0 0 1 .1-.29.73.73 0 0 1 .22-.219v-.137c0-.137 0-.352.37-.372a.317.317 0 0 0 .19-.088.28.28 0 0 0 .1-.186c.07-.211.11-.427.14-.646a.535.535 0 0 1 .43-.528v-.118c0-.411 0-.469.59-.489h.49a.574.574 0 0 0-.1-.131.418.418 0 0 0-.14-.084 1.13 1.13 0 0 1-.43-.271 1.09 1.09 0 0 1-.27-.434.666.666 0 0 0-.41-.509.924.924 0 0 0 0-.235c0-.176-.12-.254-.32-.195h-.13a.49.49 0 0 1-.31.005.463.463 0 0 1-.24-.182c-.12-.176 0-.274.14-.372h.09a1.044 1.044 0 0 1-.09-.391c.06-.225.15-.442.27-.646v-.293a.48.48 0 0 0-.33 0c-.22 0-.41.137-.63.156l-1 .118c-.27-.177-.31-.196-.6 0l-.42.215c-.25.137-.27.196-.11.391.15.196.17.157 0 .274h-.18c-.37-.098-.43 0-.41.216a.497.497 0 0 1-.08.312.497.497 0 0 1-.23.216c-.14 0-.2.137-.18.274.02.068.01.139-.02.203a.282.282 0 0 1-.14.149h-.56l-.71.235c-.41.151-.85.224-1.29.216-.45 0-.69.372-1.1.372 0 0-.19 0-.27.156-.05.061-.1.126-.14.196 0 .156.24.235.14.43-.22-.117-.41-.274-.69 0-.27.274-.11.177 0 .255l-.41.235h-.64a1.388 1.388 0 0 1 0 1.135.268.268 0 0 0 0 .126c.01.041.03.08.05.113.03.034.06.061.1.081.04.019.08.03.12.032.24 0 .26.137.28.294-.01.104-.01.209 0 .313 0 .352 0 .45-.51.489h-.16l1.27.177c.16 0 .14-.216 0-.353-.13-.137 0-.274.12-.313.19-.049.38-.049.57 0 .17 0 .11.176 0 .294-.12.117-.12.548-.2.822-.07.236-.07.488 0 .724.2-.372.55-.352.86-.372h.98c.2-.069.41-.069.61 0 .08.02.17.009.24-.03.08-.04.14-.106.17-.185.08-.165.18-.322.29-.47a.207.207 0 0 1 .07-.068.23.23 0 0 1 .1-.025c.03 0 .07.009.09.025.03.016.06.04.08.068.11.083.21.182.29.294a.65.65 0 0 0 .9.117c.33-.215.45-.196.57.118.04.109.12.204.21.27.1.066.22.102.34.101.01-.091.01-.183 0-.274-.06-.1-.14-.192-.22-.274.61-.509.63-.019.82.157Zm-12.466-7.516a.29.29 0 0 1 .196.235c0 .352 0 .352.45.215h.117c.118 0 0 .254 0 .333a1.035 1.035 0 0 1-.45 0c-.117.196.118.293.098.43a2.132 2.132 0 0 1-.176.451c.254.293.509-.157.802 0l-.293.352c.117 0 .195.274.313.274a.63.63 0 0 1 .568.352c.117.137.371.196.391.392l.35-.118c.1.252.1.531 0 .783a.528.528 0 0 1-.09.242.604.604 0 0 1-.201.169l-.49.333c.431.235.47.274.451.587a.94.94 0 0 0 .31.92.555.555 0 0 0 0 .783l.32-.254c.17-.137.29-.118.39 0 .05.118.11.23.19.332.36-.215.84-.235.83-.704 0 0 .13-.529 0-.803a.755.755 0 0 1 0-.47.52.52 0 0 0 .05-.214.545.545 0 0 0-.02-.22.668.668 0 0 0-.11-.193.564.564 0 0 0-.18-.136h-.37v-.45c.19.062.39.101.59.117.34-.051.66-.185.94-.391.2-.077.42-.123.64-.137.22-.118.24-.176.1-.313-.14-.137-.14 0-.2 0s.18-.137.2-.196c.02-.059.14-.313.49-.274.43.017.86-.077 1.25-.274a.352.352 0 0 1 .41 0h.14l.53-.118v-.293c.6.215 1.43 0 1.39-.548h.27c.3 0 .43-.255.3-.49-.09-.11-.2-.203-.32-.274h-.15c-.03-.021-.04-.047-.06-.076-.01-.028-.01-.059-.01-.09s0-.061.01-.09c.02-.029.03-.054.06-.076a.17.17 0 0 1 .07-.05.163.163 0 0 1 .08-.018c.03 0 .06.006.09.018.02.011.05.028.07.05.12.156.25.117.45 0 .22-.099.4-.272.51-.49h-.18c-.19-.176-.19-.176 0-.352a.555.555 0 0 0 .18-.215c.15-.188.36-.331.58-.411h.34s.13 0 .15-.137c.02-.137 0-.294-.29-.235-.19.071-.38.163-.55.274-.15 0-.29.196-.49.137l-.74-.196c-.29 0-.61-.235-.94 0h-.12v-.352l-.29.196a.919.919 0 0 0-.39-.177c-.23.02-.45.066-.67.137a.39.39 0 0 1-.31.431l-.16.254c-.06.098-.39.196-.57.294-.17.098-.33 0-.41 0h-.64l-.65-.157-.12.098a.576.576 0 0 1-.56.196 3.27 3.27 0 0 0-.61 0c-.17.039-.34.039-.51 0a1.591 1.591 0 0 0-.68 0c-.14 0-.34 0-.4-.176h.45c0-.431-.641-.45-.778-.803l-.568.255a2.662 2.662 0 0 0-.215-.235c-.235-.196-.235-.235 0-.489.235-.255.137-.372-.137-.588-.118.255-.216.49-.313.744-.47 0-.47 0-.47.216h.372c.117.234-.157.332-.313.411-.157.078-.509.371-.314.665l-.352.196c.018.11.018.222 0 .333a.377.377 0 0 0 .372.078Zm-14.132 11.137a.435.435 0 0 1 0-.215 2.14 2.14 0 0 1 .235-.705c.217-.213.46-.397.724-.548.431.137.411.117.724-.235.189-.176.4-.327.627-.45a.575.575 0 0 0 .51-.037.58.58 0 0 0 .273-.433l.9.333c.157 0 .157.196.117.313-.039.118 0 .255.235.255l.255-.372c-.274-.157-.235-.372-.118-.588.118-.215 0-.332 0-.43 0-.098-.156-.196 0-.333.47.118.47.118.783-.274v-.294c-.235.118-.372.333-.646.177a.715.715 0 0 0 0-.666 4.648 4.648 0 0 0-.43-.646.535.535 0 0 0-.548-.137h-.803l-.254-.117.176.333c-.392 0-.666 0-.822.411-.157.411-.176.117-.255.156-.078.039-.156-.176-.137-.254a1.08 1.08 0 0 1 .333-.333s.255-.117.196-.255h-.372a.494.494 0 0 1 .431-.274.434.434 0 0 0 .411-.254h-.607a.644.644 0 0 0 0-.196c0-.195-.137-.45-.372-.45-.332.02-.666.02-.998 0a.807.807 0 0 0-.294 0l-.509.235c-.332.157-.352.196-.235.45.118.255.216.235 0 .411-.45.118-.841.118-1.096-.274 0 .215-.098.372-.156.607l-.666-.313-.098.117v.137c0 .039 0 .157-.117.157-.47.156-.94.489-1.449.274-.176 0-.332 0-.508.156-.177.157.176.372.332.411.224.062.422.192.568.372l.548-.117a1.5 1.5 0 0 0 .196.431c.192.139.395.264.606.371.177.118.157.274 0 .451a.228.228 0 0 1-.139.134.237.237 0 0 1-.193-.017l-.333-.215-.372.235c-.156 0-.274.215-.156.352.117.137.254 0 .391 0s.352-.196.47 0c.117.196.587.254.607.607.274 0 .548 0 .645.176.098.176.196.274.47.215l-.098.294c-.156 0-.313-.176-.43 0-.118.176.117.176.235.235 0 .235.176.685.411.606.266-.044.538-.037.802.02Zm-6.674-14.054c.195.118.195.274.117.47-.01.091-.01.183 0 .274v.255c-.587-.137-.587-.137-.842 0l.314.274s.098.215 0 .293a.492.492 0 0 0-.333.353l-.196.567h.274a.412.412 0 0 1 .548.176c.101.127.212.245.333.353a.365.365 0 0 1 .219.219.366.366 0 0 1-.023.309c-.08.133-.152.27-.216.411h.255a.354.354 0 0 0 .156.45s0 .137.157.196c.113.153.238.296.372.431a.41.41 0 0 0 .431 0h.254a.41.41 0 0 1 0 .156c0 .333.235.392.626.196.283-.127.592-.181.901-.157a.373.373 0 0 1 .411.235.51.51 0 0 0 .156.216c.082-.113.174-.217.274-.314 0 0 .235 0 .333-.176l.333-.235c.215-.215.254-.234.45 0a.313.313 0 0 0 .372 0 .555.555 0 0 0 .376-.266.583.583 0 0 0 .055-.458 3.563 3.563 0 0 1-.196-.489h.685v-.313l.607-.137-.725-.353a.548.548 0 0 0-.43 0l-1.018.451c-.274-.137-.587.117-.881.215v-.529c.13.02.262.02.392 0 .147-.063.291-.135.43-.215.137 0 .313 0 .47-.117.157-.118-.411 0-.607-.118l-.117-.274a1.5 1.5 0 0 1-.568-.176.571.571 0 0 0-.665-.157c0-.176 0-.274.215-.391.215-.117.157-.137.157-.196 0-.058 0-.391-.216-.548-.215-.156-.587-.137-.665-.391-.078-.255-.118 0-.176 0l-.725.137v-.137a.656.656 0 0 0 .036-.533.68.68 0 0 0-.368-.387 2.356 2.356 0 0 1-.372-.235c-.157.117-.176.157 0 .215.176.059.156 0 .196.118.039.117.215.352 0 .528a.71.71 0 0 1-.666.176c-.176 0-.196-.137 0-.274s.254-.274 0-.391l-.802-.392c0 .177 0 .333-.118.49a.128.128 0 0 0-.026.047.17.17 0 0 0-.006.055.138.138 0 0 0 .052.093Zm-3.758 2.212v.607l.626-.137c.215 0 .333-.137.333-.313s0-.235.117-.372h1.253c0-.352.274-.763-.333-.803 0-.195.118-.254.313-.313.196-.058.294-.117.255-.352h.313c.116.02.236.02.352 0v-.607c0-.137 0-.587.157-.881H975.666c-.215 0 .117 0 .137-.156.11-.153.189-.326.235-.509 0 0-.118-.176-.157-.255-.039-.078-.411-.411-.9-.195-.137 0-.235 0-.157-.137.08-.09.165-.175.255-.255l-.862-.45c-.391.352-.391.352-.587.117-.195-.234.157-.254.118-.293-.039-.039-.235-.47-.509-.529a2.506 2.506 0 0 1-.587 0 1.08 1.08 0 0 0-.49.137l-.587.274c0 .157.215 0 .255.137a2.382 2.382 0 0 0-.118.607c.034.202.094.4.176.587l-.215.294.196.117c.074.064.14.136.195.216h-.587c.01.078.01.157 0 .235v.274c0 .078.137.332.294.45a.583.583 0 0 0 .685 0h.098v.196c0 .215 0 .371.332.391.333.02.235 0 .216.235a.681.681 0 0 1-.274.568.333.333 0 0 0-.081.125c-.017.048-.023.098-.017.149 0 .156.117.234.333.234.215 0 .254 0 .234.157a.685.685 0 0 1-.195.313s.195-.019.098.137Zm-1.586-3.719-.293-.372a.97.97 0 0 0 .176-.391.502.502 0 0 1 .176-.372s-.118-.274-.313-.333l.098-.43a1.68 1.68 0 0 0 .802-.47c.117-.215.294-.392.509-.509.098 0 .137-.176 0-.196-.137-.019-.372-.137-.352-.352-.157 0-.157 0-.176-.196l-.177-.489c0-.118-.156-.176-.352-.157l-.842.118c0-.313-.195-.372-.645-.235a.663.663 0 0 1-.294 0 .94.94 0 0 0-.646.117c-.431.177-.431.196-.528-.098-.549 0-.549 0-.725-.117l.137-.157a.173.173 0 0 0 .058-.23.175.175 0 0 0-.058-.063c-.215 0-.411-.157-.665 0-.255.156-.196-.215-.392-.118a.276.276 0 0 0-.176.333c.137 0 .353-.137.411 0a1.146 1.146 0 0 0-.274.118c-.117 0-.176.176 0 .215.176.039.157.372.235.528.055.138.135.264.235.372l1.468 1.312c.176.156.176.156.47 0 .293-.157.332 0 .411 0 .078 0 0 0 0 .156 0 .353 0 .372.567.333l.235.235c.098 0 .098.156 0 .254s-.176.646.313.627c.49-.02.255 0 .255.176.014.104.014.209 0 .313a3.662 3.662 0 0 0-.157.489c0 .137.157.235.313.216.157-.02.372-.177.353-.353a.545.545 0 0 0 0-.254l-.157-.02Zm85.166 9.591 1.21.176c.06.011.13.002.18-.026a.243.243 0 0 0 .13-.13c0-.274.24-.294.63 0 .12-.196.35-.137.59 0a.632.632 0 0 0 .56 0c.1-.046.21-.069.32-.069.11 0 .21.023.31.069h.16s0-.137-.1-.176l-.29-.157s.17-.176.13-.254c-.04-.079 0-.49.12-.744l-.55-.274c.02-.15.02-.301 0-.45a7.587 7.587 0 0 0-.23-.49 2.572 2.572 0 0 0-.43 0h-.63c-.21-.01-.42-.05-.63-.117-.25-.118-.47-.274-.74-.157-.27.118-.14 0-.19 0-.12-.06-.22-.132-.32-.215a.598.598 0 0 0-.29-.076c-.1 0-.21.026-.3.076h-.19c-.22 0-.37-.176-.49-.157-.2.013-.4.06-.59.137-.13 0-.15.176 0 .313.16.137.12.294-.21.431a.818.818 0 0 0-.79-.117h-.43c-.35 0-.37 0-.17.313.19.313.21.313 0 .411-.22.098-.22 0-.16.254.11.029.22.029.33 0 .1-.035.2-.04.29-.016.09.025.18.078.24.153.22.216.3.216.51 0 .12-.074.26-.133.39-.176.16.235.24.489.43.627.2.137 0 .411.24.626l.57-.196c.01.072.01.144 0 .215 0 .177 0 .294.31.353a.827.827 0 0 0 .08-.157Zm-73.226-2.388a1.29 1.29 0 0 1-.294-.137c-.195-.137-.313-.372-.704-.156a.553.553 0 0 0-.274 0 .642.642 0 0 1-.314 0 1.174 1.174 0 0 0-.88.509l.215.097c-.338.048-.68.048-1.018 0-.352 0-.372-.352-.47-.626-.274.137-.509.176-.567.47-.059.293-.372.411-.392.665-.019.255 0 0-.098 0l-.508.431a2.237 2.237 0 0 0-1.077.372c0 .176.137.333.352.372.216.039.568.391.901.528l-.137.196c-.037.063-.07.128-.098.196l.293.235c.372.293.705.254 1.038-.177 0 0 .117-.176.274-.137.156.039 0 0 0 0 0 .353.156.451.567.274l.47-.235v-.274c0-.078 0-.234.176-.313.176-.078.451-.156.646 0l.176.157c.177-.144.329-.316.451-.509a.622.622 0 0 1 .567-.352.722.722 0 0 0 .607-.333l.157-.137h.234a.953.953 0 0 0 .764 0c.148-.079.306-.138.47-.176.352 0 .548-.255.528-.529-.02-.274 0-.332 0-.469a2.45 2.45 0 0 1-.607-.098.6.6 0 0 0-.607 0l-.841.156Zm41.636 3.347v.255a.774.774 0 0 0 0 .215.25.25 0 0 0 .05.117c.03.033.07.06.11.077.04.018.08.025.12.022a.284.284 0 0 0 .13-.04c.33-.132.63-.34.88-.607 0-.117.23-.215.33-.313s.31.255.43.255c.37.044.74.15 1.08.313.15.052.28.156.37.293 0 0 .1.216.27.177v-.353h.4c0-.195 0-.254-.22-.313l-.47-.196c-.2 0-.29-.352-.59-.215-.21-.254-.45-.117-.68 0a.717.717 0 0 0-.57-.313c-.12 0-.29 0-.33-.118a.914.914 0 0 0-.36-.267.861.861 0 0 0-.45-.046.594.594 0 0 1-.35-.117.52.52 0 0 0-.6 0c-.26.182-.51.378-.75.587l.67.47c0 .215 0 .509-.3.626a.448.448 0 0 0-.16.093.443.443 0 0 0-.1.151.393.393 0 0 0 .01.363c0 .294 0 .411-.29.528.09.061.18.126.27.196.12 0 .16.215 0 .294-.16.078-.12.293-.14.45-.02.156 0 .411.43.47.01.084.01.17 0 .254 0 .235-.13.45.16.646.29.196.18.313 0 .45a.515.515 0 0 0-.19.181.533.533 0 0 0-.06.25l-.12.626c0 .176-.16.352-.22.509-.06.157.43.176.53.294.1.117 0 .332 0 .548.24-.017.48-.056.71-.118a.507.507 0 0 1 .26-.074c.09 0 .18.026.26.074 0-.391.14-.391.63-.215-.19-.294-.29-.607-.68-.783-.4-.176-.22-.313 0-.411h.21v-.489c.12-.157.29-.294.28-.411-.02-.118-.22-.255-.38-.411.11-.141.18-.301.22-.47a2.26 2.26 0 0 0-.14-.627c.06-.073.11-.152.16-.234a.559.559 0 0 0 0-.314v-.508c0-.177-.3-.353-.45-.529-.16-.176-.26 0-.39 0-.04-.076-.07-.148-.12-.215a1.236 1.236 0 0 0-.24-.216c-.17-.195-.17-.313 0-.469.1-.152.22-.279.38-.372v-.02Zm-16.31 12.116h-.49c-.27 0-.55 0-.7.235h-.12c-.47 0-.88-.333-1.35-.411a.642.642 0 0 1-.21-.103.615.615 0 0 1-.15-.174.795.795 0 0 1-.07-.218.59.59 0 0 1 .02-.229.781.781 0 0 0 0-.216c-.2 0-.47 0-.49-.352-.02-.352-.18-.411-.57-.333-.17.049-.35.088-.53.118-.29 0-.35 0-.43-.274a.326.326 0 0 0-.05-.166.396.396 0 0 0-.12-.128.751.751 0 0 0-.71.137c-.06.101-.08.22-.06.335.03.115.09.218.18.291.04.04.08.088.1.142.03.054.04.113.04.172 0 .156-.24.176-.38.137a.451.451 0 0 0-.51.113.471.471 0 0 0-.09.161l-.43-.333c-.12.352 0 .391 0 .626s.19.196.15.255a.965.965 0 0 0-.04.477c.02.16.08.312.18.443h-.65a.68.68 0 0 0-.32.104.667.667 0 0 0-.22.248l1.07.157c.2.077.41.077.61 0 .27-.137.65 0 .94-.274.25.02.5.072.74.156.22 0 .34.333.55.392.22.058.49 0 .71 0 .52 0 .68 0 .9-.49.33-.089.68-.089 1.01 0v.411c.26.118.53.196.77.313.23.118 1.05.118 1.52.353h.2c.22-.431-.24-.646-.27-.998h.31a.666.666 0 0 0 .21-.258c.04-.105.05-.22.02-.33a.29.29 0 0 0-.15-.177.324.324 0 0 0-.24-.018c-.21.019-.51-.196-.88-.274v-.02Zm-15.129-.705h-.215c-.078 0 .196-.411.274-.587a.633.633 0 0 1 .137-.176c.199-.124.408-.229.627-.313a.528.528 0 0 0 .411-.548c-.333 0-.548-.255-.607-.548a.247.247 0 0 0-.036-.112.244.244 0 0 0-.082-.084.757.757 0 0 1-.332-.607c-.49.137-.959.294-1.312-.117-.43.156-.704-.157-1.096-.196l-.411.352c0-.215 0-.215.274-.685a.728.728 0 0 0-.665 0c-.294.216 0 .392 0 .548a2.68 2.68 0 0 0-.568.411.679.679 0 0 1-.548.255 2.462 2.462 0 0 1-.529 0c-.332.352-.293.45.274.528a1.923 1.923 0 0 1-.117.353c-.137.215-.313.391-.47.606-.156.216-.176.509.274.549h1.116a.76.76 0 0 0 .568-.157.508.508 0 0 1 .587 0 .641.641 0 0 1 .293.313c.235.47.353.509.94.294l.391-.137.725.587.704-.294s.157 0 .157-.137 0-.176-.118-.195a.7.7 0 0 0-.646.117v-.02Zm30.629-13.701c0 .333.28.49.41.764.2-.138.42-.25.65-.333.25-.03.5-.03.74 0 0 .176 0 .333.12.411a1.974 1.974 0 0 0 1.37.744 3.507 3.507 0 0 1 1.29.352c.2 0 .38.235.57.352.2.118.35.333.24.548l-.14.235c.37.133.76.205 1.15.215v-.117c-.33-.166-.6-.442-.76-.783 0 0-.2-.156-.29-.254a1.818 1.818 0 0 1-.43-.353.653.653 0 0 0-.16-.175.64.64 0 0 0-.22-.099l-.45-.137a.475.475 0 0 1-.23-.195 2.497 2.497 0 0 1-.16-.372c0-.176 0-.294.28-.274.27.019.35 0 .47.176.02.024.04.044.07.058.03.013.06.02.09.02s.07-.007.09-.02a.236.236 0 0 0 .08-.058s.12-.176 0-.274c-.12-.098-.2-.137-.12-.274a.86.86 0 0 1 .32 0c.41.117.7-.157 1.09-.137 0 0 .14-.118.16-.176a.728.728 0 0 0 0-.294c-.01-.094 0-.19.03-.279a.68.68 0 0 1 .16-.23l.38.294c.37-.137.27-.47.45-.725-.49 0-.96-.195-1.34 0l.26.372c-.31.098-.55.177-.8 0a.337.337 0 0 0-.21-.071.31.31 0 0 0-.2.071l-.2.157-.22-.274c-.13-.176-.31-.215-.43 0-.11.215-.54.47-.62.802a.375.375 0 0 1-.34.255 4.17 4.17 0 0 1-1.33-.118c-.04-.147-.1-.291-.17-.43 0-.157-.28-.157-.47-.176-.2.001-.4-.053-.57-.157v-.391c0-.137 0-.196-.14-.216a.205.205 0 0 0-.09-.026.221.221 0 0 0-.1.018c-.03.013-.05.033-.08.058a.257.257 0 0 0-.04.087c-.12.294-.12.294-.49.157h-.18c-.01.104-.01.209 0 .313.06.092.08.202.06.307a.51.51 0 0 1-.17.261c.41-.02.64.098.62.372v.019Zm-9.37 1.957a.608.608 0 0 1-.57.118c-.12-.274-.2-.548-.31-.803a.312.312 0 0 0-.16-.156.57.57 0 0 1-.25-.164.553.553 0 0 1-.14-.267h-.18c-.06 0-.11 0-.15.137-.04.137 0 0 0 0 0 .47-.4.724-.92.842h-.24c0 .254.39.391.31.665-.47 0-.47 0-.7.274-.23.274-.37.451-.33.725.04.274-.51 0-.61.372.1-.066.22-.118.33-.157.24 0 .34 0 .39.196.06.195 0 .293.1.45.03.102.03.211 0 .313-.35.333-.15.685-.15 1.057.25-.196.56-.274.8-.431a.805.805 0 0 1 .72-.176c.06.02.12.02.18 0 .17-.132.37-.214.59-.235.15 0 .11-.156 0-.274v-.098h.33v-.313c.21 0 .43 0 .57-.098.13-.16.24-.33.35-.509a.324.324 0 0 0 0-.195c-.16-.353-.14-.45.19-.705-.15-.372 0-.489.42-.587h.35a.773.773 0 0 0-.47-.125.733.733 0 0 0-.45.184v-.04Zm-28.266 7.203.372.196c.352-.235.352-.274 0-.626l.274-.215s.196-.118.215-.196c.167-.462.278-.941.333-1.429a.344.344 0 0 0 0-.196c-.235-.176-.235-.352 0-.587s0 0 0-.137-.528-.333-.587-.646c-.059-.313-.196-.137-.274-.215l-.548.372c0 .235.313.274.157.528-.157.255-.177 0-.235 0a.51.51 0 0 0-.646.137H984.826a.77.77 0 0 0-.626.352c-.118.196-.196.412 0 .549.195.137-.627.411-.646.782-.274 0-.313-.391-.685-.176.126.197.263.387.411.568h.509v.939l.215-.548h.881c.117 0 .235 0 .215.137a.586.586 0 0 1 0 .196.232.232 0 0 0-.002.108.227.227 0 0 0 .131.164.23.23 0 0 0 .106.022.395.395 0 0 0 .391-.176v-.098c.274-.353.431-.372.705 0l.313.195Zm-10.55-9.082c.157 0 .176.177.196.294.02.118 0 .294.255.333l.293-.294h.157c.391 0 .841 0 1.037-.45a.45.45 0 0 0 .294-.372s.117-.117.156-.176c.039-.059.176-.215.137-.235a.395.395 0 0 0-.293-.117.487.487 0 0 1-.385.008.48.48 0 0 1-.261-.282.661.661 0 0 0-.372-.392.13.13 0 0 1-.013-.059c0-.02.004-.04.013-.058 0-.235-.157-.353-.333-.47a3.631 3.631 0 0 1-.43-.372c.137-.176.117-.352.371-.489.255-.137 0-.176 0-.235l-.371-.333a.317.317 0 0 0-.412 0l-.274.118c-.137 0-.274.137-.391 0-.117-.137 0-.177 0-.274 0-.098.157-.235 0-.353a1.019 1.019 0 0 1-.157-.333 2.018 2.018 0 0 0-.215.392.548.548 0 0 1-.274.235 4.503 4.503 0 0 1-.607.156v-.254c-.235.137-.509.196-.665.411l.978.568v.548l.509-.157c.14.114.271.238.392.372a.268.268 0 0 1 .06.085.268.268 0 0 1 .021.101.268.268 0 0 1-.021.101.268.268 0 0 1-.06.085l-.157.176c.196.215.216.529.627.568 0 .137-.177.274-.157.372.02.097.176.195.254.293.079.098-.254.313.098.45v.039Zm25.226 14.25c.01-.17.01-.34 0-.509a.51.51 0 0 0-.11-.235c-.24-.235-.18-.47 0-.744l.84.176c.33 0 .53-.156.43-.43-.04-.09-.07-.181-.1-.274.12-.118.24-.196.31-.294.08-.098 0-.176 0-.254h-.23l-.35.215a2.2 2.2 0 0 1-.65-.254 1.47 1.47 0 0 1-.29-.509l-.45.176c-.23.111-.41.289-.53.509a.442.442 0 0 0-.05.225c0 .078.01.155.05.225 0 .274 0 .372-.353.372h-.822c-.275 0-.862 0-1.077-.353 0 0-.157 0-.235-.097a2.976 2.976 0 0 0-1.605 0c-.29.066-.591.066-.881 0 0 .391-.411.528-.802.743.567.118.626.568.881.862h.332a1.082 1.082 0 0 0 .881 0c.149-.032.302-.032.45 0 .21.005.416.052.607.137.162.116.307.254.431.411.469-.177.489-.216.235-.666h.352c.221-.028.444-.028.665 0 .203.06.395.153.568.274h.153l-.114.392c.624 0 .564.371.704.665.57-.059.76-.274.76-.763Zm29.7-8.241c.41.392.78.177 1.23 0 0-.195 0-.411-.2-.548a1.171 1.171 0 0 0-.43-.37 1.204 1.204 0 0 0-.56-.119h-.18a.676.676 0 0 1-.35-.273.657.657 0 0 1-.1-.432c0-.274.25-.195.43-.195v-.255a.52.52 0 0 0 0-.176l-.65-.235c-.18.066-.37.118-.56.157a3.27 3.27 0 0 1-.61 0 .538.538 0 0 1-.29-.065.553.553 0 0 1-.22-.209 1.292 1.292 0 0 0-.19-.255.336.336 0 0 0-.18-.058c-.06 0-.13.02-.18.058v.255c0 .078.28.47-.17.646l-.39.156c.41.49.45.529.8.705.35.176.29-.255.55 0 .25.254 0 .333 0 .411 0 .078.33.157.5.215.11.09.24.139.38.139.13 0 .27-.049.37-.139 0 .274.14.47 0 .607s-.31.528-.43.822l.86.274c0-.21.04-.418.12-.611.09-.192.21-.364.37-.505h.08Zm29.47-3.405h-.43l-.21.274c-.39-.255-.61-.646-1.16-.783 0 .411-.47.548-.45.959-.39 0-.66-.352-1.07-.333-.79 0-.81 0-.88.215h.21a.838.838 0 0 1 .45 0c.15.042.29.123.39.235a.79.79 0 0 0 .41.253c.16.039.32.026.47-.037.18.606.79.998 1.33 1.468h-.74c.24.528.29.587.78.548.49-.039.69-.294.45-.725a2.908 2.908 0 0 1-.17-.293c-.18-.294-.12-.411.25-.47s.32 0 .28-.215a.414.414 0 0 1-.01-.29.467.467 0 0 1 .16-.239.831.831 0 0 0 .14-.254c-.02-.176-.08-.274-.27-.313h.07Zm-79.659 3.151c0-.176-.098-.235-.294-.254a1.45 1.45 0 0 1-.704-.235c-.235-.216-.196-.49-.255-.744a3.188 3.188 0 0 0 1.116-.333c-.274 0-.431-.293-.802-.176a.427.427 0 0 1-.255 0c-.098-.098-.176-.215-.274-.333a.75.75 0 0 1-.313 0 1.542 1.542 0 0 1-.45 0c-.157 0 0-.215 0-.333 0-.117 0-.489-.255-.587a1.156 1.156 0 0 1-.685-.45l-.372-.607c-.235 0-.45.157-.646.255-.195.098-.274.235-.097.352.169.087.346.159.528.215.137 0 .196 0 .157.216v.235c.391 0 0 .313.215.332.215.02.117.294.235.431l.607-.196s0 .294.371.274a.55.55 0 0 1 .314.098s.137.157.215.235a.268.268 0 0 1 .06.085.268.268 0 0 1 .021.101.268.268 0 0 1-.021.101.268.268 0 0 1-.06.085.527.527 0 0 0-.196.587c.47 0 .47 0 .607.411.294.203.563.44.802.705.294.254.646.45.96.685.313.235.195 0 .352 0a.625.625 0 0 1 .156-.705l-.724-.235c-.176.079-.313-.019-.313-.215Zm42.259-1.957a2.08 2.08 0 0 1 0-.353c0-.176.1-.274.31-.254.13.01.25.01.37 0 0-.274-.17-.529 0-.763h.53a2.703 2.703 0 0 1-.35-1.645c.33-.137.33-.137.37-.352-.53 0-.41-.372-.37-.646h-.65l.24.274c.06.063.1.147.1.235s-.04.173-.1.235c-.12.235-.35.431-.29.724-.28.215-.26.548-.47.783-.22.187-.45.357-.69.509 0 0 .26.235.24.313-.02.078.21.47 0 .685-.22.216 0 .118 0 .157.06.111.14.216.23.313h.69l-.16-.215Zm40.09.665a1.075 1.075 0 0 0-.87 0c-.13-.156-.35-.333-.35-.43-.02-.25.02-.502.14-.725.14-.137.12-.215 0-.293a.39.39 0 0 1-.26-.167.369.369 0 0 1-.07-.303v-.235h-.24c-.17-.254-.33-.509-.53-.763-.23.156 0 .313 0 .509l-.29.215c.12.153.22.317.31.489 0 .274.14.548.22.822-.41.177-.49.49-.22.92h.28c.02 0 .39.157.58.216.2.058.59.195.65.567.27-.333.57 0 .84 0 .35-.293.86-.098 1.35 0l.18-.333-1.18-.293a1.629 1.629 0 0 1-.54-.235v.039Zm-1.49-.391h-.16v-.098l.22.117s-.02-.039-.06-.058v.039Zm-21.67 14.601c.2-.156 0-.352 0-.528a1.111 1.111 0 0 0-.2-.333c-.13.039-.25.098-.37.176a.262.262 0 0 1-.14.115.308.308 0 0 1-.19.003c-.16 0-.23 0-.29.195-.06.196-.3.588-.45.881a.278.278 0 0 1-.12.029c-.04 0-.08-.01-.12-.029 0 0-.12-.117-.16-.196v-.254l-.41-.196-.66.607v.196a.89.89 0 0 0 .21.626c.24.294.2.431-.11.607l-.45.254v.118c.13.02.26.02.39 0a5.836 5.836 0 0 1 1.76-.431.62.62 0 0 0 .35-.215c.12-.147.2-.317.25-.5.04-.183.04-.373.01-.557h.31c.37 0 .49 0 .39-.411-.1-.411-.02-.157 0-.196v.039Zm12.68-14.582a1.113 1.113 0 0 1-.58-.587.303.303 0 0 0-.12 0l-.39.215a.51.51 0 0 0-.21-.287.506.506 0 0 0-.34-.085l-.8-.137c-.32-.391-.69-.45-.94-.137l-.16.235c-.14.177-.19.177-.43 0l-.39-.293h-1.23a.946.946 0 0 0-.43 0 .853.853 0 0 0-.18.43s.31.274.43.216a.86.86 0 0 1 .67.137c.33-.313.37-.294.88 0 .5.293.6.332.82.156.23-.142.5-.198.76-.156h.49l.72.117v.215h.46c.15.235.25.49.6.588.35.097.43 0 .51 0 .08 0 .1-.529-.14-.666v.039Zm-16.14-9.512c.07-.054.11-.13.13-.216v-.646c0-.215-.35 0-.43.138a.468.468 0 0 1-.15.215.566.566 0 0 0-.26.179.59.59 0 0 0-.1.291v.156h-.31a.644.644 0 0 0-.14.215c0 .177-.13.235-.37.255-.23.019-.31 0-.35 0-.04 0-.49.176-.76.137H1033.09c.24.137.4.274.38.489-.02.216 0 .137.15.176.19.1.4.135.61.099.21-.035.4-.139.55-.294l.23.235c.26-.115.49-.274.69-.47.24-.384.57-.711.96-.959Zm-12 3.523h.13a.7.7 0 0 0 0-.352.891.891 0 0 1-.07-.323c0-.112.03-.223.07-.323.1-.268.23-.523.38-.764.15-.242.39-.422.66-.507.28-.086.58-.073.84.038h.24c.19 0 .31 0 .31-.196v-.196a.268.268 0 0 1-.02-.088c0-.03.01-.06.02-.088.38-.162.78-.255 1.2-.274h.23-.12c-.29 0-.55 0-.66-.274-.12-.274-.75-.176-1.1-.255h-.1c.06.093.12.179.2.255v.293h-.24c-.15 0-.27 0-.31.196-.04.196-.19.176-.37.176a1.962 1.962 0 0 0-.98.118v.372a.531.531 0 0 0-.17.259.539.539 0 0 0 .01.308v.157c-.11.301-.2.608-.27.92a1.34 1.34 0 0 0 0 .489c0 .02.01.04.02.059h.1Zm53.55 15.893-.65-.45c-.25-.176-.47-.156-.58 0v.215h-.22c-.41-.117-.45 0-.47.274a.74.74 0 0 1-.06.359.91.91 0 0 1-.19.307.281.281 0 0 0-.18.215.24.24 0 0 0-.01.145c.02.047.04.092.07.129.03.076.03.159 0 .235 0 0 0 .118-.22.235.1.011.19.011.28 0h1.47a.348.348 0 0 0 .26-.061.79.79 0 0 0 .09-.103c.02-.04.03-.084.04-.13.03-.201.03-.405 0-.606 0-.255 0-.333.35-.294.03.012.07.016.11.012a.262.262 0 0 0 .1-.033.27.27 0 0 0 .08-.074c.02-.03.04-.065.04-.101-.11-.019-.25-.156-.41-.274h.1Zm-47.43 2.349c-.31.125-.66.166-.99.118-.32 0-.57 0-.71-.372-.39 0-.39 0-.7-.137a1.96 1.96 0 0 0-2.1.234.571.571 0 0 0-.15.372c0 .196 0 .274.29.274s.72-.156 1.1 0c.06.02.13.02.19 0l.86-.215c.08.105.16.204.26.294.08.085.19.134.31.137.25 0 .61 0 .78-.255.18-.254.14 0 .22 0h.64l.34.235 1.21-.411a2.67 2.67 0 0 1-.47-.156c-.16-.105-.34-.17-.52-.191-.19-.02-.38.005-.56.073Zm-3.38 3.19c-.34.275-.53.235-.69-.176a3.597 3.597 0 0 1-.15-.45l-.53.157.12-.646-.65.293c-.37-.215-.37-.215-.78.137-.51-.371-.75-.332-1.12.177a.934.934 0 0 0 1.25.137.78.78 0 0 1 .38-.103c.14 0 .27.036.39.103 0 .234 0 .509.19.646.36.16.67.401.92.704.3.313.51.294.77 0 .25-.293 0 0 .15-.137l.35.157c.34.156.42.137.53-.255l-.94-.861-.19.117Zm1.6-24.075h.12v.353h.41c.21-.019.42-.019.63 0 .31 0 .58 0 .74-.215h.22c.13.1.29.154.46.154.16 0 .32-.054.46-.154a.232.232 0 0 1 .31 0c.16.137.27.274.43.391.16.117.18.117.24 0 .05-.117 0-.117.17-.196a.992.992 0 0 1-.61-.372c-.14-.21-.34-.368-.58-.45-.14.098-.16.333-.43.313-.28-.019-.36-.195-.51-.332a.691.691 0 0 0-.49-.137l-.18.215s-.17-.118-.25-.118a8.091 8.091 0 0 0-.96 0 .298.298 0 0 0-.14.049.386.386 0 0 0-.1.108c-.11.313-.11.313.04.313l.02.078Zm16.03.157c-.43-.176-.49-.333-.21-.568.27-.234.15-.254.41-.254.25 0 .25-.176.37-.274l-.25-.391c-.14-.177-.3-.235-.45 0-.11.1-.21.212-.3.332l.24.255c-.24 0-.55 0-.61.293-.02.15-.02.301 0 .45v.216l-.43-.196c-.45.215-.49.333-.16.587.34.255.38.353.3.627.17 0 .31-.118.23-.255-.08-.137 0-.43.18-.607.1.018.19.018.29 0 .4-.009.79.057 1.16.196 0 0 .21 0 .19-.137h-.17l-.79-.274Zm-1.09 8.788c0-.195 0-.274-.24-.332-.23-.059-.37-.235-.37-.431-.19-.02-.39-.066-.57-.137a1.443 1.443 0 0 0-1.62.255c-.12.137 0 .215.14.391.13.176.21-.254.5-.137l-.19.352c.23.176.23.176.55 0a.798.798 0 0 1 .37 0s.12.157.17.235c.13.011.25.011.38 0 0 0 .15-.117.25-.156.1-.02.21-.02.31 0l.32-.04Zm-55.356 6.773c0-.392 0-.392.411-.529s.49-.235.509-.548h-.333c-.254 0-.528.137-.743 0-.216-.137-.137 0-.216 0-.391 0-.607.216-.528.529.078.313-.157.822-.842.783v.137c.137.332.196.352.626.215l.49-.215c.156.117 0 .45.274.391 0-.156.137-.254.196-.391.064-.117.11-.242.137-.372h.019Zm30.126 5.245s-.2-.137-.26-.215c-.06-.078-.25-.215-.45-.117-.19.097-.11.254 0 .391.12.137 0 0 0 0s-.49-.254-.74 0l.27.176.24.216-.32.156s-.15.176-.13.215c.02.04.19.118.29 0h.18l.11.294c.7-.303 1.44-.469 2.2-.489-.29-.354-.6-.682-.94-.979l-.45.352Zm-29.128-14.425a.46.46 0 0 1 0-.215.202.202 0 0 0 .015-.097.216.216 0 0 0-.191-.197h-.313c-.294.313 0 .607-.176.94l.705.254s.176 0 .195.117c.02.118.392.294.627.431-.157-.157 0-.333 0-.509a.413.413 0 0 0 0-.489c-.137-.118-.314 0-.47 0-.157 0-.411-.039-.411-.235h.019Zm54.018-7.692a.328.328 0 0 1 0-.196c.22-.137 0-.313 0-.489 0-.177-.19-.177-.31-.235l-.29-.216c-.02.163-.02.327 0 .49.04.094.04.199 0 .293-.12.203-.22.412-.32.627l.3.254c.33-.137.59-.254.6-.528h.02Zm-50.005 8.905.176-.293a.399.399 0 0 0 .275.207.388.388 0 0 0 .332-.09.329.329 0 0 0 .144-.274.328.328 0 0 0-.144-.274 1.196 1.196 0 0 0-.901-.274h-.137a1.348 1.348 0 0 0-.234.842h.137c.037.057.09.103.152.131a.36.36 0 0 0 .2.025Zm22.135 12.469c-.19.097-.43.274-.47.45-.04.176 0 .704.63.861.12-.137.1-.45.41-.372l.41-.861c-.1-.056-.2-.095-.31-.118a2.01 2.01 0 0 0-.75.059l.08-.019Zm-45.623-20.924-.626-.529a1.797 1.797 0 0 0-.294-.156c0 .117-.117.215-.098.254.041.195.128.376.255.529.137.195.352.332.391.567.039.235.176.118.255 0 .108-.139.188-.299.235-.469 0 0 0-.137-.118-.196Zm17.616 6.322c.215-.254.431-.176.665 0 .235.176.333 0 .47 0 .137 0 .294 0 .411-.157.118-.156.216-.195 0-.274a.719.719 0 0 0-.411 0c-.11.022-.216.062-.313.118-.411.156-.548 0-.509-.255.039-.254 0-.195-.313-.156 0 .215 0 .391-.255.528a.153.153 0 0 0-.013.059c0 .02.005.04.013.059a.223.223 0 0 0 0 .176.274.274 0 0 0 .353-.098h-.098Zm19.907 11.744a.258.258 0 0 0 .21 0l.79-.509h-2.23v.47l.31-.196.92.235Zm5.15 2.564c-.53.157-.65.607-.32 1.096l1.12-.47c-.1-.122-.18-.253-.26-.391a.358.358 0 0 0-.18-.207.406.406 0 0 0-.27-.048l-.09.02Zm52-5.5c-.27-.313-.27-.333 0-.529l-.39-.411a.854.854 0 0 0-.23.725c0 .274.31.528.15.763.2.157.36.215.51.117.16-.097.1-.293 0-.469l-.04-.196Zm-42.75 5.989s0-.117-.13-.137a.41.41 0 0 0-.21-.058c-.07 0-.14.02-.2.058-.28.196-.41.176-.65-.098a.919.919 0 0 1-.16-.215.527.527 0 0 0-.2-.156.628.628 0 0 0-.72.156l1.53.861.33-.372c.09.018.19.018.28 0a.17.17 0 0 0 .13.018.163.163 0 0 0 .1-.076l-.1.019Zm-22.407-1.311a.582.582 0 0 1-.469-.157.55.55 0 0 0-.548-.117c0 .196 0 .411.176.43.176.02.548.275.841.392l.372.098c.255-.49.175-.646-.274-.666l-.098.02Zm37.757-14.093-.94-.117c-.16 0-.35 0-.39.156a.26.26 0 0 0 0 .333.495.495 0 0 0 .47 0l.8-.293.06-.079Zm20.22 12.527c0 .157-.2.274-.2.431 0 .156-.19.254-.39.332l.26.49c.16-.087.32-.185.47-.294 0 0 .17-.196.15-.313a2.104 2.104 0 0 0-.13-.607l-.16-.039Zm-13-20.297c.09.033.19.033.28 0 .08-.16.13-.332.15-.509 0-.118-.11-.216-.27-.196h-.16c-.19.117 0 .313-.15.47-.16.156.04.235.15.254v-.019Zm6.7 7.829c-.22-.137-.22-.157-.32-.137-.26.102-.54.161-.82.176l-.1.118c.69.352.85.332 1.24-.059v-.098Zm-79.647-1.233c0-.255-.137-.294-.411-.333a1.15 1.15 0 0 0-.117.294.988.988 0 0 0 .215.43s.215 0 .45-.117c.235-.118-.156-.274-.137-.274Zm92.817 11.744c-.04.088-.08.174-.14.254-.19.274 0 .45.37.607 0-.137 0-.274.14-.411.14-.137.12-.352-.37-.45Zm-31.32-12.292v-.333a3.25 3.25 0 0 1-.53-.117c-.31 0-.37 0-.43.274.55-.255.67.137 1.02.156l-.06.02Zm-56.545 2.114a6.612 6.612 0 0 1-.411.626h.822a2.333 2.333 0 0 0-.352-.646l-.059.02Zm66.545 13.701c.77.117.94 0 .81-.529-.18.235-.73.04-.83.47l.02.059Zm-15.26-18.927c.17.098.33.156.47 0 .13-.157.23-.196.11-.353h-.54l-.04.353Zm24.84 1.957c-.22-.333-.55-.391-1.02-.391.12.117.17.215.25.234.25.024.5.031.75.02l.02.137Zm-.63 1.625v.215c.08.068.19.115.29.137 0 0 .12 0 .14-.157a1.04 1.04 0 0 0 0-.352.967.967 0 0 0-.45.02l.02.137Zm-40.54 16.48-.56-.215c0 .176-.14.313 0 .372.17.072.37.095.55.067.19-.027.37-.105.52-.224-.15-.333-.35-.059-.53-.137l.02.137Zm-31.843-22.274.47-.372c-.176-.176-.391 0-.626 0s-.059.235.156.372Zm53.373 14.699V227.8h-.13c.17.293-.02.626.13 1.018v.058Zm7.03 7.399h-.82c-.28 0 0 0-.2.137.73.137.88.117 1.02-.196v.059Zm25.21-15.11c.35.152.73.232 1.12.234-.43-.411-.79-.274-1.12-.293v.059Zm-68.897-10.903s.176-.117.157-.156c-.02-.039-.137-.137-.196-.118a2.59 2.59 0 0 0-.352.137v.137c.13.01.261.01.391 0Zm-13.877 5.657-.568-.137c-.035-.012-.072-.016-.108-.012a.25.25 0 0 0-.183.107.265.265 0 0 0-.042.101h.881l.02-.059Zm49.364 11.959s.12.157.19.196h.51a.466.466 0 0 0-.14-.271.485.485 0 0 0-.29-.121s-.17.196-.27.196Zm32.98-8.514h-.2a.232.232 0 0 0 0 .117c0 .137.18.255.3.431.06-.176.06-.352-.1-.47v-.078Zm-75.063 11.744c0 .176 0 .274.235.254.235-.019.156-.117.137-.176-.02-.059-.176-.098-.372-.059v-.019Zm32.593 6.107h-.61c.41.45.45.45.61.019v-.019Zm8.31-8.025c.04-.03.06-.066.08-.107a.286.286 0 0 0 0-.257.258.258 0 0 0-.08-.106c-.31.215-.31.215.04.489l-.04-.019Zm-58.989-8.065c.216-.293.176-.391-.235-.372l.235.372Zm14.856-5.754v.45c.274-.254.274-.254 0-.431v-.019Zm91.403 17.87-.21-.235a.955.955 0 0 1-.2 0v.176l.3.216s.11-.118.11-.137v-.02Zm-33.27-12.566s-.16 0-.16.118c0 .117.18.156.36.117.17-.039-.12-.215-.28-.215l.08-.02Zm-29.61 4.835v.313c.23 0 .25-.118.19-.215-.02-.036-.04-.066-.08-.083a.172.172 0 0 0-.11-.015Zm16.73 3.484h.55c-.39-.274-.43-.255-.59 0h.04Zm1.64 8.123c.18 0 .32 0 .34-.157a.171.171 0 0 0-.06-.083.203.203 0 0 0-.08-.054c-.22 0-.27.117-.23.294h.03Zm-58.891-20.983v.137l.254.137a1.455 1.455 0 0 0-.137-.235l-.117-.039Zm59.011 4.208h-.31c-.1 0 .23.137.33 0s0 0-.02-.019v.019Zm-1.23 0c-.26 0-.26 0-.14.235s.2-.019.14-.156v-.079Zm10.18 14.739h.25c0-.235-.16-.294-.35-.235 0 .107.02.212.06.313l.04-.078Zm10.51-14.758s0-.098-.12-.098-.14 0 0 .176l.12-.078Zm-37.68 1.155.31.195c.02-.117-.06-.176-.31-.117v-.078Zm8.08-1.507c-.17 0-.25.137 0 .293v-.293Zm-25.031-.157h.235-.235Zm16.871 4.952v.313a.52.52 0 0 0 0-.176s.02 0 0-.059v-.078Zm28.3-6.459-.15.196c.13.097.23.058.08-.118l.07-.078Zm-31.04-.783.24-.176c-.28.039-.36.058-.32.254l.08-.078Zm69.56 18.36h.3c-.34-.177-.34-.177-.37.078l.07-.078Zm-4.07-1.958.16.176h.21c-.11-.078-.21-.137-.45-.137l.08-.039Zm-55.12 3.191.14.215v-.215h-.14Zm21.42-19.025-.12-.137h.14s.1.137-.02.137Zm-77.434-5.677h-.313s.137.118.313 0Zm22.235 8.436h-.215.215Zm73.499 2.349v.098c0 .098.02-.078 0-.098Zm-81.23-7.673s-.059.02 0 0Zm7.457 16.305.157.293c.117-.215.176-.332-.078-.332l-.079.039Zm-4.952-1.546v.156-.156Zm49.125-2.799h.1-.1Zm-59.401-4.13h.137-.137Zm61.481 19.788h.19-.19Zm-53.769-28.498h-.156.156Zm80.229 10.041H1061.91l-.22-.118-.06.118h-.02Z"/><path fill="#231F20" d="m1059.56 245.572-9.03-47.504-30.12 6.146.59 51.869 38.56-10.511ZM982.229 246.746l9.004-47.973-31.709 5.441-19.456 51.869 42.161-9.337Z" opacity=".2"/><path fill="#F3BDCA" d="M926.66 260.057c7.081 0 12.821-6.056 12.821-13.525 0-7.47-5.74-13.526-12.821-13.526-7.08 0-12.82 6.056-12.82 13.526 0 7.469 5.74 13.525 12.82 13.525Z"/><path fill="#F3BDCA" d="M939.185 260.056c3.503 0 6.342-2.524 6.342-5.637 0-3.113-2.839-5.637-6.342-5.637-3.502 0-6.341 2.524-6.341 5.637 0 3.113 2.839 5.637 6.341 5.637ZM913.837 260.037c4.302 0 7.79-3.093 7.79-6.909s-3.488-6.91-7.79-6.91-7.79 3.094-7.79 6.91c0 3.816 3.488 6.909 7.79 6.909Z"/><path fill="#F3BDCA" d="M961.262 260.937h-69.446s27.54-10.1 69.446 0Z"/><path fill="#F3BDCA" d="M941.395 259.528c6.778 0 12.273-4.881 12.273-10.902 0-6.021-5.495-10.903-12.273-10.903-6.777 0-12.272 4.882-12.272 10.903 0 6.021 5.495 10.902 12.272 10.902Z"/><path fill="#F3BDCA" d="M953.667 259.528c3.384 0 6.127-2.436 6.127-5.441s-2.743-5.442-6.127-5.442c-3.383 0-6.126 2.437-6.126 5.442 0 3.005 2.743 5.441 6.126 5.441ZM929.141 259.528c4.162 0 7.536-2.997 7.536-6.694s-3.374-6.694-7.536-6.694c-4.162 0-7.536 2.997-7.536 6.694s3.374 6.694 7.536 6.694Z"/><path fill="#F3BDCA" d="M974.335 260.702h-67.273s26.698-9.786 67.273 0ZM1104.91 260.134c7.03 0 12.72-5.503 12.72-12.292 0-6.788-5.69-12.291-12.72-12.291-7.02 0-12.72 5.503-12.72 12.291 0 6.789 5.7 12.292 12.72 12.292Z"/><path fill="#F3BDCA" d="M1113.38 260.115c2.93 0 5.31-2.287 5.31-5.109 0-2.821-2.38-5.108-5.31-5.108-2.93 0-5.3 2.287-5.3 5.108 0 2.822 2.37 5.109 5.3 5.109ZM1092.19 260.135c3.6 0 6.52-2.813 6.52-6.283s-2.92-6.283-6.52-6.283c-3.6 0-6.52 2.813-6.52 6.283s2.92 6.283 6.52 6.283Z"/><path fill="#F3BDCA" d="M1131.84 260.937h-57.99s22.96-9.179 57.99 0Z"/><path fill="#F3BDCA" d="M1122.12 260.154c5.66 0 10.25-4.434 10.25-9.904 0-5.469-4.59-9.904-10.25-9.904-5.67 0-10.26 4.435-10.26 9.904 0 5.47 4.59 9.904 10.26 9.904Z"/><path fill="#F3BDCA" d="M1132.37 260.154c2.83 0 5.13-2.217 5.13-4.952s-2.3-4.952-5.13-4.952-5.13 2.217-5.13 4.952 2.3 4.952 5.13 4.952ZM1111.86 260.154c3.48 0 6.3-2.725 6.3-6.087 0-3.362-2.82-6.087-6.3-6.087s-6.3 2.725-6.3 6.087c0 3.362 2.82 6.087 6.3 6.087Z"/><path fill="#F3BDCA" d="M1150.18 260.937h-56.17s22.31-8.886 56.17 0ZM916.831 62.309c11.351 0 20.552-8.168 20.552-18.243s-9.201-18.242-20.552-18.242c-11.35 0-20.552 8.168-20.552 18.242 0 10.075 9.202 18.243 20.552 18.243Z"/><path fill="#F3BDCA" d="M937.362 62.309c5.675 0 10.276-4.084 10.276-9.121 0-5.038-4.601-9.122-10.276-9.122s-10.276 4.084-10.276 9.122c0 5.037 4.601 9.12 10.276 9.12ZM896.279 62.328c6.972 0 12.625-5.021 12.625-11.215s-5.653-11.216-12.625-11.216-12.625 5.022-12.625 11.216c0 6.194 5.653 11.215 12.625 11.215Z"/><path fill="#F3BDCA" d="M973.163 63.738H860.5s44.725-16.364 112.663 0Z"/><defs><clipPath id="a"><path fill="#fff" d="M476.9 162.031h37.648v10.512H476.9z"/></clipPath></defs></svg>