<svg width="197" height="197" viewBox="0 0 197 197" fill="none" xmlns="http://www.w3.org/2000/svg">
<g clip-path="url(#clip0_7873_167652)">
<path opacity="0.2" d="M171.33 177.89C183.887 163.803 192.086 146.374 194.932 127.719C197.778 109.064 195.15 89.9832 187.365 72.7924C179.58 55.6017 166.974 41.0396 151.075 30.8728C135.177 20.706 116.669 15.3714 97.7988 15.5163C78.9281 15.6612 60.505 21.2793 44.7645 31.6891C29.0241 42.0988 16.6428 56.8528 9.1229 74.1611C1.60297 91.4693 -0.732447 110.588 2.39998 129.197C5.5324 147.807 13.998 165.107 26.7698 179L171.33 177.89Z" fill="#81D8EF"/>
<path d="M32.4301 178.35C42.5425 178.35 50.7401 170.461 50.7401 160.73C50.7401 150.999 42.5425 143.11 32.4301 143.11C22.3178 143.11 14.1201 150.999 14.1201 160.73C14.1201 170.461 22.3178 178.35 32.4301 178.35Z" fill="#70CFE5"/>
<path d="M14.1202 178.35C19.1736 178.35 23.2702 174.406 23.2702 169.54C23.2702 164.674 19.1736 160.73 14.1202 160.73C9.06681 160.73 4.97021 164.674 4.97021 169.54C4.97021 174.406 9.06681 178.35 14.1202 178.35Z" fill="#70CFE5"/>
<path d="M50.73 178.35C56.9432 178.35 61.98 173.506 61.98 167.53C61.98 161.554 56.9432 156.71 50.73 156.71C44.5168 156.71 39.48 161.554 39.48 167.53C39.48 173.506 44.5168 178.35 50.73 178.35Z" fill="#70CFE5"/>
<path d="M0 179.73H75.88C75.88 179.73 45.77 163.92 0 179.73Z" fill="#70CFE5"/>
<path d="M159.89 177.46C169.13 177.46 176.62 170.252 176.62 161.36C176.62 152.468 169.13 145.26 159.89 145.26C150.65 145.26 143.16 152.468 143.16 161.36C143.16 170.252 150.65 177.46 159.89 177.46Z" fill="#81D8EF"/>
<path d="M143.16 177.46C147.783 177.46 151.53 173.856 151.53 169.41C151.53 164.964 147.783 161.36 143.16 161.36C138.537 161.36 134.79 164.964 134.79 169.41C134.79 173.856 138.537 177.46 143.16 177.46Z" fill="#81D8EF"/>
<path d="M176.62 177.46C182.297 177.46 186.9 173.032 186.9 167.57C186.9 162.108 182.297 157.68 176.62 157.68C170.942 157.68 166.34 162.108 166.34 167.57C166.34 173.032 170.942 177.46 176.62 177.46Z" fill="#81D8EF"/>
<path d="M118.49 178.83H196C196 178.83 165.25 160.63 118.49 178.83Z" fill="#81D8EF"/>
<path d="M133.18 125.63C105.9 103.9 83.0001 75.8101 65.6201 42.8101L28.1001 73.0001C48.1701 111.15 74.6701 143.64 106.21 168.76L133.18 125.63Z" fill="#11936E"/>
<path opacity="0.5" d="M74.5297 96.6741C73.3573 97.4347 72.1397 97.3451 71.0428 96.1803L69.226 94.251L72.9606 91.7988L74.7774 93.728C75.8743 94.8928 75.6657 95.9477 74.5297 96.6741ZM73.0063 86.742L58.1045 96.5169L61.0353 99.6291L66.6639 95.9427L67.3666 96.6889L64.2403 103.033L67.5481 106.545L70.6711 99.7239C73.2074 101.25 75.7978 100.974 77.6565 99.7391C80.254 98.0486 80.8732 95.096 77.9253 91.9655L73.0063 86.742ZM82.3735 104.821L84.0513 103.722L81.1205 100.61L63.6383 112.093L66.569 115.206L73.8754 110.42C73.4142 111.644 73.5956 113.259 75.001 114.751C77.3491 117.245 81.5813 117.655 85.3159 115.203C89.0505 112.75 89.5271 109.245 87.1791 106.752C85.7737 105.259 83.9509 104.709 82.3735 104.821ZM82.3508 112.054C80.4568 113.288 78.3985 112.926 77.2844 111.743C76.1875 110.578 76.2395 108.846 78.1336 107.612C80.0276 106.378 82.0506 106.739 83.1647 107.922C84.2616 109.087 84.2278 110.802 82.3508 112.054Z" fill="#B6EFDA"/>
<path opacity="0.5" d="M64.57 50.5699L35 74.2399C35 74.2399 63 131.42 103.71 160.73L126.91 127.23C126.91 127.23 76.52 85.0699 64.57 50.5699Z" stroke="#B6EFDA" stroke-width="2" stroke-miterlimit="10"/>
<path d="M127.62 116.87C92.6871 112.296 59.0153 100.809 28.57 83.08L10.79 124.74C45.9901 145.239 84.921 158.521 125.31 163.81L127.62 116.87Z" fill="#17AA83"/>
<path d="M68.7244 121.342C68.0326 122.652 66.8591 123.199 65.2412 122.688L62.5616 121.842L64.7502 117.64L67.4299 118.487C69.0478 118.998 69.4003 120.082 68.7244 121.342ZM62.1771 112.936L53.4383 129.692L57.7611 131.057L61.0648 124.733L62.1012 125.061L62.4884 132.55L67.3673 134.091L66.73 126.161C69.8673 126.262 72.1225 124.667 73.2042 122.562C74.7343 119.654 73.7803 116.6 69.4323 115.227L62.1771 112.936ZM80.1994 124.827L81.184 122.941L76.8612 121.576L66.6176 141.249L70.9404 142.614L75.2286 134.405C75.4349 135.777 76.4381 137.178 78.511 137.832C81.9743 138.926 86.1041 137.116 88.2928 132.915C90.4815 128.713 89.1097 125.222 85.6465 124.128C83.5735 123.473 81.6017 123.907 80.1994 124.827ZM83.9195 131.534C82.8045 133.656 80.7116 134.385 79.0685 133.866C77.4506 133.355 76.603 131.725 77.718 129.603C78.833 127.481 80.8926 126.769 82.5357 127.288C84.1536 127.799 85.0091 129.404 83.9195 131.534Z" fill="#B6EFDA"/>
<path d="M32.3702 89.76L17.4502 123.31C17.4502 123.31 81.5202 156.67 117.45 157.12L117.75 120.55C117.75 120.55 71.1702 113.24 32.3702 89.76Z" stroke="#B6EFDA" stroke-width="2" stroke-miterlimit="10"/>
<path d="M111.88 47.72C111.047 47.4371 110.232 47.1031 109.44 46.72C108.558 46.2734 107.624 45.9375 106.66 45.72C105.12 45.48 102.48 45.64 101.02 47.22C99.2001 49.22 96.0201 47.57 96.6201 57.87C97.3601 69.53 103.86 68.25 104.02 68.05C104.18 67.85 109.82 60.59 109.82 60.59C109.82 60.59 111.82 64.9 111.82 64.74C111.82 64.58 121.87 51.07 111.88 47.72Z" fill="#0E2E35"/>
<path d="M118.74 124.56C91.7398 135.22 62.0298 140.08 31.0698 138.91C33.1165 152.09 35.1698 165.267 37.2298 178.44C73.0398 179.8 107.43 174.17 138.6 161.85L118.74 124.56Z" fill="#2EBF92"/>
<path opacity="0.5" d="M36.2598 143.16L41.3398 175.6C41.3398 175.6 93.9998 177 108.65 164.81L97.0498 137C97.0498 137 50.3198 143.64 36.2598 143.16Z" stroke="#B6EFDA" stroke-width="2" stroke-miterlimit="10"/>
<path d="M74.2598 168V177.65C74.2598 179.21 91.6698 180.48 113.14 180.48C134.61 180.48 152 179.23 152 177.67V168H74.2598Z" fill="#E59F39"/>
<path d="M102.4 180.39V168H74.2598V177.65C74.2598 179 86.1498 180.05 102.4 180.39Z" fill="#EAB054"/>
<path d="M103.71 180.41C106.71 180.47 109.89 180.5 113.14 180.5C117.99 180.5 122.63 180.43 126.91 180.31V168H103.71V180.41Z" fill="#EAB054"/>
<path d="M128.47 180.27C142.32 179.84 152.02 178.84 152.02 177.67V168H128.47V180.27Z" fill="#EAB054"/>
<path d="M113.14 170.75C134.613 170.75 152.02 169.483 152.02 167.92C152.02 166.357 134.613 165.09 113.14 165.09C91.6669 165.09 74.2598 166.357 74.2598 167.92C74.2598 169.483 91.6669 170.75 113.14 170.75Z" fill="#E59F39"/>
<path d="M145.16 167.92C145.16 169 130.82 169.92 113.16 169.92C95.5002 169.92 81.1602 169.05 81.1602 167.92C81.1602 166.79 95.5002 165.92 113.16 165.92C130.82 165.92 145.16 166.83 145.16 167.92Z" fill="#F7CC7F"/>
<path d="M67.6099 157.8V167.46C67.6099 169.02 85.0099 170.28 106.49 170.28C127.97 170.28 145.37 169.02 145.37 167.46V157.8H67.6099Z" fill="#E59F39"/>
<path d="M95.7399 170.17V157.8H67.6099V167.46C67.6099 168.75 79.4999 169.83 95.7399 170.17Z" fill="#EAB054"/>
<path d="M97.0498 170.2C100.05 170.25 103.23 170.28 106.49 170.28C111.34 170.28 115.98 170.22 120.26 170.1V157.8H97.0498V170.2Z" fill="#EAB054"/>
<path d="M121.81 170.05C135.67 169.62 145.37 168.62 145.37 167.46V157.8H121.81V170.05Z" fill="#EAB054"/>
<path d="M106.49 160.53C127.963 160.53 145.37 159.263 145.37 157.7C145.37 156.137 127.963 154.87 106.49 154.87C85.017 154.87 67.6099 156.137 67.6099 157.7C67.6099 159.263 85.017 160.53 106.49 160.53Z" fill="#E59F39"/>
<path d="M138.51 157.7C138.51 158.78 124.17 159.7 106.51 159.7C88.8498 159.7 74.5098 158.82 74.5098 157.7C74.5098 156.58 88.8398 155.7 106.51 155.7C124.18 155.7 138.51 156.62 138.51 157.7Z" fill="#F7CC7F"/>
<path d="M72 147.32V157C72 158.56 89.41 159.83 110.88 159.83C132.35 159.83 149.76 158.56 149.76 157V147.35L72 147.32Z" fill="#E59F39"/>
<path d="M100.18 159.69V147.32H72V157C72 158.26 83.93 159.35 100.18 159.69Z" fill="#EAB054"/>
<path d="M101.49 159.71C104.49 159.77 107.67 159.8 110.92 159.8C115.77 159.8 120.41 159.73 124.69 159.61V147.32H101.49V159.71Z" fill="#EAB054"/>
<path d="M126.25 159.57C140.1 159.14 149.8 158.14 149.8 156.97V147.32H126.25V159.57Z" fill="#EAB054"/>
<path d="M110.92 150.05C132.393 150.05 149.8 148.783 149.8 147.22C149.8 145.657 132.393 144.39 110.92 144.39C89.4472 144.39 72.04 145.657 72.04 147.22C72.04 148.783 89.4472 150.05 110.92 150.05Z" fill="#E59F39"/>
<path d="M142.94 147.22C142.94 148.3 128.6 149.17 110.94 149.17C93.2799 149.17 78.9399 148.3 78.9399 147.22C78.9399 146.14 93.2799 145.22 110.94 145.22C128.6 145.22 142.94 146.13 142.94 147.22Z" fill="#F7CC7F"/>
<path d="M67.6099 137V146.65C67.6099 148.21 85.0099 149.47 106.49 149.47C127.97 149.47 145.37 148.21 145.37 146.65V137H67.6099Z" fill="#E59F39"/>
<path d="M95.7399 149.35V137H67.6099V146.65C67.6099 147.92 79.4999 149 95.7399 149.35Z" fill="#EAB054"/>
<path d="M97.0498 149.37C100.05 149.43 103.23 149.45 106.49 149.45C111.34 149.45 115.98 149.39 120.26 149.27V137H97.0498V149.37Z" fill="#EAB054"/>
<path d="M121.81 149.23C135.67 148.79 145.37 147.79 145.37 146.63V137H121.81V149.23Z" fill="#EAB054"/>
<path d="M106.49 139.7C127.963 139.7 145.37 138.433 145.37 136.87C145.37 135.307 127.963 134.04 106.49 134.04C85.017 134.04 67.6099 135.307 67.6099 136.87C67.6099 138.433 85.017 139.7 106.49 139.7Z" fill="#E59F39"/>
<path d="M138.51 136.87C138.51 137.96 124.17 138.87 106.51 138.87C88.8498 138.87 74.5098 138 74.5098 136.87C74.5098 135.74 88.8398 134.87 106.51 134.87C124.18 134.87 138.51 135.79 138.51 136.87Z" fill="#F7CC7F"/>
<path d="M138.19 169.12L139.12 174.03C139.129 174.969 139.186 175.907 139.29 176.84C139.81 178.94 148.63 173.84 146.29 173.43C145.483 172.809 144.783 172.059 144.22 171.21C143.735 170.168 143.347 169.083 143.06 167.97L138.19 169.12Z" fill="#F7A491"/>
<path d="M145.87 173.13C145.87 173.13 143.6 173.69 142.44 173.81C141.28 173.93 139.79 172.12 138.96 172.46C138.13 172.8 137.55 178.55 137.55 178.55C137.55 178.55 152.1 179.21 155.55 178.26C156.9 177.89 150.4 174.86 145.87 173.13Z" fill="#F47458"/>
<path d="M158.48 168.89L159.4 173.81C159.46 174.45 159.4 176.06 159.57 176.62C160.09 178.72 168.75 173.96 166.44 173.55C165.699 172.777 165.054 171.918 164.52 170.99C164.04 169.946 163.652 168.862 163.36 167.75L158.48 168.89Z" fill="#F7A491"/>
<path d="M165.94 173.13C165.94 173.13 163.66 173.69 162.5 173.81C161.34 173.93 159.86 172.12 159.03 172.46C158.2 172.8 157.61 178.55 157.61 178.55C157.61 178.55 172.16 179.21 175.61 178.26C177 177.89 170.47 174.86 165.94 173.13Z" fill="#F47458"/>
<path d="M108 119.8L134.47 113.66C134.47 113.66 146.34 110.52 149.21 114.21C152.08 117.9 164.21 168.73 164.21 168.73C164.21 168.73 157.93 169.28 157.52 169L142.83 142.93C141.433 140.457 140.513 137.743 140.12 134.93L139.12 127.46L128.34 130.6C128.34 130.6 115.93 133.33 110.88 130.19C105.83 127.05 108 119.8 108 119.8Z" fill="#0E2E35"/>
<path d="M118.2 74.17C118.61 74.17 119.76 74.57 121.44 77.72C123.57 81.72 126.7 93.92 126.7 93.92L117.37 97.39L116.17 94.85L114.17 75.29C114.17 75.29 118.08 74.16 118.2 74.17Z" fill="#008FCA"/>
<path d="M105.86 72.41C110.025 72.5471 114.163 73.1372 118.2 74.17C118.2 74.17 120.45 93.45 116.2 108.11C115.2 111.39 116.99 121.71 116.99 121.71L89.3398 121.35C89.3398 121.35 92.6098 96.4 91.3398 92.35C90.0698 88.3 90.0798 74.3 90.0798 74.3L96.2999 73.23C99.4614 72.7171 102.657 72.443 105.86 72.41Z" fill="#008FCA"/>
<path d="M89.7801 76.44C91.9701 75.62 93.8601 91.33 94.4001 102.21C94.5501 105.31 96.4701 108.46 99.5701 108.44C103.37 108.44 107.23 108.2 108.57 108.11C109.5 108.04 111.66 107.25 112.57 107.11C113.323 106.978 114.089 106.941 114.85 107C116.688 107.679 118.479 108.481 120.21 109.4C120.71 109.93 122.08 111.27 121.85 111.84C121.62 112.41 119.22 110.23 119.22 110.23L118 109.6C119.47 111.02 122.25 112.89 121.85 113.6C121.45 114.31 118.95 112.36 117.15 111.06C118.69 112.45 120.6 114.92 120.15 115.31C119.7 115.7 117.58 112.79 115.26 111.97C114.4 111.66 113.54 112.51 112.87 112.61C112.297 112.742 111.705 112.776 111.12 112.71L108.78 112.48C108.134 112.525 107.492 112.619 106.86 112.76C105.86 112.97 104.21 113.2 102.93 113.51C95.5701 115.3 92.6401 113.93 90.5401 112.95C84.3901 110 83.6701 78.73 89.7801 76.44Z" fill="#F2AA91"/>
<path d="M84.8801 98.24C84.3901 88.45 84.4601 76.38 89.9701 74.33C92.1401 73.51 95.9701 78.4 95.2801 98.44C91.8188 98.8116 88.3245 98.7444 84.8801 98.24Z" fill="#008FCA"/>
<path d="M146.21 92.2601L120.15 94.0001C119.813 94.0212 119.49 94.1431 119.222 94.3499C118.955 94.5566 118.756 94.8389 118.65 95.1601L111.9 115.25L97.5402 116.19C97.4447 116.195 97.3512 116.219 97.2651 116.261C97.179 116.302 97.102 116.361 97.0387 116.432C96.9754 116.504 96.927 116.588 96.8964 116.678C96.8657 116.769 96.8534 116.865 96.8602 116.96C96.8731 117.152 96.9612 117.331 97.1054 117.458C97.2495 117.586 97.4382 117.651 97.6302 117.64L138.52 114.97C139.071 114.934 139.599 114.74 140.041 114.409C140.483 114.079 140.82 113.628 141.01 113.11L147.91 94.5901C148.018 94.3224 148.056 94.0317 148.02 93.7455C147.984 93.4592 147.876 93.1867 147.706 92.9536C147.536 92.7206 147.31 92.5346 147.048 92.4133C146.786 92.2919 146.498 92.2392 146.21 92.2601Z" fill="#0374B5"/>
<path d="M133.22 104.67C133.168 104.94 133.039 105.189 132.849 105.387C132.659 105.585 132.415 105.725 132.148 105.788C131.881 105.852 131.601 105.838 131.342 105.747C131.083 105.655 130.855 105.492 130.687 105.275C130.518 105.058 130.416 104.797 130.392 104.523C130.368 104.249 130.423 103.974 130.551 103.731C130.679 103.488 130.874 103.287 131.113 103.152C131.353 103.017 131.626 102.954 131.9 102.97C132.3 103.022 132.662 103.23 132.909 103.549C133.157 103.867 133.268 104.27 133.22 104.67Z" fill="white"/>
<path d="M89.3201 120.72L118.17 115.72C118.17 115.72 130.64 113.82 133.5 117.5C136.36 121.18 144.69 169 144.69 169C144.69 169 138.41 169.54 138 169.27C137.59 169 130.09 153.14 126.68 145.97C125.594 143.694 124.83 141.277 124.41 138.79L123.31 132.29L119.68 133.54C113.308 135.752 106.515 136.478 99.8201 135.66C97.3777 135.461 94.9987 134.782 92.8201 133.66C87.7301 130.53 89.3201 120.72 89.3201 120.72Z" fill="#184655"/>
<path d="M145.29 54.24L145.75 59.89L149.03 56.19L159.65 47.5L150.6 50.35C150.6 50.35 146.14 52.52 145.94 52.8C145.69 53.2642 145.473 53.7453 145.29 54.24Z" fill="#0374B5"/>
<path d="M140.48 51.81L159.65 47.5L145.29 54.24L140.48 51.81Z" fill="#008FCA"/>
<path d="M152.66 58.42L146.75 55.47L159.65 47.5L152.66 58.42Z" fill="#008FCA"/>
<path d="M143.05 57.3701C143.547 57.1794 144.063 57.0453 144.59 56.9701V56.5601C144.028 56.6378 143.478 56.7822 142.95 56.9901L143.05 57.3701Z" fill="#FBB040"/>
<path d="M133.59 90.7599C134.353 90.0703 135.049 89.3103 135.67 88.4899L136 88.7399C135.363 89.5803 134.65 90.3603 133.87 91.0699L133.59 90.7599ZM137.27 85.8599C137.47 85.4399 137.65 84.9899 137.82 84.5399C138.012 84.0259 138.175 83.5018 138.31 82.9699L138.71 83.0699C138.57 83.618 138.403 84.1586 138.21 84.6899C138.037 85.1499 137.847 85.5999 137.64 86.0399L137.27 85.8599ZM138.93 76.8599H139.35C139.375 77.9079 139.339 78.9564 139.24 79.9999H138.83C138.933 78.9467 138.967 77.8877 138.93 76.8299V76.8599ZM138.35 70.6699L138.76 70.6099C138.93 71.8199 139.05 72.8099 139.14 73.7199H138.73C138.64 72.8199 138.52 71.8399 138.35 70.6399V70.6699ZM137.88 67.5599C137.724 66.5244 137.673 65.4757 137.73 64.4299H138.14C138.087 65.4324 138.137 66.4377 138.29 67.4299L137.88 67.4899V67.5599ZM138.4 61.3199C138.805 60.3247 139.419 59.4279 140.2 58.6899L140.48 58.9899C139.744 59.6886 139.167 60.538 138.79 61.4799L138.4 61.3199Z" fill="#FBB040"/>
<path d="M113.54 54.72C113.54 54.72 114.8 65.3 112.13 69.15C109.46 73 106.82 69.43 106.82 69.43V73.43C106.82 73.43 107.34 78.03 106.23 78.26C104.74 78.57 101.13 74.41 98.9902 73.2C98.9902 73.2 102.43 70.99 101.44 63.58C101.44 63.58 97.8402 61.35 100.6 58.58C103.36 55.81 102.78 60.18 102.78 60.18C102.78 60.18 104.94 46.33 113.54 54.72Z" fill="#F2AA91"/>
<path d="M99.9399 57.73C99.9399 57.73 102.57 58.38 103.55 56.73C104.53 55.08 108.01 51.4 112.45 52.91C116.89 54.42 108.55 49.24 108.19 49.24H103.58C103.58 49.24 100.29 51.93 100.17 52.24C100.05 52.55 99.1099 55.76 99.1099 55.76L99.9399 57.73Z" fill="#0E2E35"/>
<path opacity="0.3" d="M94.1802 98.58L95.2802 98.44V87.96" stroke="black" stroke-width="0.5" stroke-miterlimit="10" stroke-linecap="round"/>
<path opacity="0.3" d="M118.79 86.46L118.38 95.74" stroke="black" stroke-width="0.5" stroke-miterlimit="10" stroke-linecap="round"/>
<path d="M47.56 179.73C55.038 179.73 61.1 173.896 61.1 166.7C61.1 159.504 55.038 153.67 47.56 153.67C40.0821 153.67 34.02 159.504 34.02 166.7C34.02 173.896 40.0821 179.73 47.56 179.73Z" fill="#9DE4F4"/>
<path d="M34.02 179.72C37.759 179.72 40.79 176.805 40.79 173.21C40.79 169.615 37.759 166.7 34.02 166.7C30.281 166.7 27.25 169.615 27.25 173.21C27.25 176.805 30.281 179.72 34.02 179.72Z" fill="#9DE4F4"/>
<path d="M61.0998 179.72C65.6948 179.72 69.4198 176.138 69.4198 171.72C69.4198 167.302 65.6948 163.72 61.0998 163.72C56.5048 163.72 52.7798 167.302 52.7798 171.72C52.7798 176.138 56.5048 179.72 61.0998 179.72Z" fill="#9DE4F4"/>
<path d="M18.6201 179.73H82.8401C82.8401 179.73 57.3501 169.62 18.6201 179.73Z" fill="#9DE4F4"/>
<path d="M171.5 85.03C176.769 85.03 181.04 80.8752 181.04 75.75C181.04 70.6248 176.769 66.47 171.5 66.47C166.231 66.47 161.96 70.6248 161.96 75.75C161.96 80.8752 166.231 85.03 171.5 85.03Z" fill="#9DE4F4"/>
<path d="M181.04 85.03C183.674 85.03 185.81 82.9526 185.81 80.39C185.81 77.8274 183.674 75.75 181.04 75.75C178.406 75.75 176.27 77.8274 176.27 80.39C176.27 82.9526 178.406 85.03 181.04 85.03Z" fill="#9DE4F4"/>
<path d="M161.96 85.03C165.196 85.03 167.82 82.478 167.82 79.33C167.82 76.182 165.196 73.63 161.96 73.63C158.724 73.63 156.1 76.182 156.1 79.33C156.1 82.478 158.724 85.03 161.96 85.03Z" fill="#9DE4F4"/>
<path d="M194.68 86.35H147.23C147.23 86.35 166.07 76.13 194.68 86.35Z" fill="#9DE4F4"/>
<path d="M29.8702 45.77C35.8901 45.77 40.7702 41.4362 40.7702 36.09C40.7702 30.7439 35.8901 26.41 29.8702 26.41C23.8503 26.41 18.9702 30.7439 18.9702 36.09C18.9702 41.4362 23.8503 45.77 29.8702 45.77Z" fill="#A6E9F4"/>
<path d="M18.9798 45.76C21.9897 45.76 24.4298 43.593 24.4298 40.92C24.4298 38.2469 21.9897 36.08 18.9798 36.08C15.9698 36.08 13.5298 38.2469 13.5298 40.92C13.5298 43.593 15.9698 45.76 18.9798 45.76Z" fill="#A6E9F4"/>
<path d="M40.7701 45.77C44.4649 45.77 47.4601 43.1061 47.4601 39.82C47.4601 36.5339 44.4649 33.87 40.7701 33.87C37.0753 33.87 34.0801 36.5339 34.0801 39.82C34.0801 43.1061 37.0753 45.77 40.7701 45.77Z" fill="#A6E9F4"/>
<path d="M0 46.52H59.75C59.75 46.52 36 37.84 0 46.52Z" fill="#A6E9F4"/>
</g>
<defs>
<clipPath id="clip0_7873_167652">
<rect width="196.05" height="196.03" fill="white"/>
</clipPath>
</defs>
</svg>
