<svg xmlns="http://www.w3.org/2000/svg" width="1440" height="312" fill="none"><g clip-path="url(#a)"><path fill="#FBE9ED" d="M1440 0H0v310h1440V0Z"/><g fill="#fff" opacity=".5"><path d="M1050.79 44.85h-14.86l-57.18 57.19v14.85l72.04-72.04ZM978.75 59.61l14.76-14.76h-14.76v14.76ZM1022.15 44.85h-14.86l-28.54 28.54v14.86l43.4-43.4ZM1057.68 109.03l-14.75 14.76h14.75v-14.76ZM1057.68 95.24V80.39l-43.4 43.4h14.86l28.54-28.55ZM1057.68 66.6V51.74l-72.039 72.05h14.859l57.18-57.19Z" opacity=".5"/></g><path stroke="#fff" stroke-miterlimit="10" stroke-width="87.84" d="M1440 199.36c-110.1 0-199.36-89.26-199.36-199.36" opacity=".5"/><path fill="#F3BDCA" d="M1140.29 310a837.075 837.075 0 0 1 103-26.64 38.416 38.416 0 0 1-4.45-17.94c0-22.07 18.71-40 41.8-40 3.21 0 6.41.355 9.54 1.06 4-35.74 35.63-63.58 74.08-63.58 31.89 0 59.09 19.15 69.72 46.08 1.97-.531 3.98-.948 6-1.25V310h-299.69Z"/><path fill="#EB92A7" d="M1143.5 242.95c15.97 0 28.92-12.46 28.92-27.83 0-15.37-12.95-27.83-28.92-27.83-15.97 0-28.92 12.46-28.92 27.83 0 15.37 12.95 27.83 28.92 27.83Z"/><path fill="#EB92A7" d="M1114.58 242.94c7.99 0 14.46-6.228 14.46-13.91s-6.47-13.91-14.46-13.91c-7.99 0-14.46 6.228-14.46 13.91s6.47 13.91 14.46 13.91ZM1172.43 242.95c9.81 0 17.77-7.656 17.77-17.1 0-9.444-7.96-17.1-17.77-17.1-9.81 0-17.77 7.656-17.77 17.1 0 9.444 7.96 17.1 17.77 17.1Z"/><path fill="#EB92A7" d="M1064.2 245.12h158.61s-62.96-24.97-158.61 0ZM1004.28 199.77c9.89 0 17.9-7.71 17.9-17.22 0-9.51-8.01-17.22-17.9-17.22-9.885 0-17.899 7.71-17.899 17.22 0 9.51 8.014 17.22 17.899 17.22Z"/><path fill="#EB92A7" d="M1022.18 199.78c4.94 0 8.95-3.855 8.95-8.61 0-4.755-4.01-8.61-8.95-8.61-4.94 0-8.95 3.855-8.95 8.61 0 4.755 4.01 8.61 8.95 8.61ZM986.391 199.78c6.075 0 11-4.737 11-10.58s-4.925-10.58-11-10.58c-6.076 0-11 4.737-11 10.58s4.924 10.58 11 10.58Z"/><path fill="#EB92A7" d="M1041.75 200.84h-77.68s30.84-12.23 77.68 0Z"/><g stroke="#fff" stroke-miterlimit="10" stroke-width="28.37" opacity=".5"><path d="M297.44 0c0 164.27-133.17 297.44-297.44 297.44" opacity=".5"/><path d="M234.63 0c0 129.58-105 234.63-234.63 234.63" opacity=".5"/><path d="M172.12 0A172.118 172.118 0 0 1 0 172.12" opacity=".5"/></g><path fill="#F3BDCA" d="M942.459 75.39c9.577 0 17.34-7.365 17.34-16.45 0-9.085-7.763-16.45-17.34-16.45-9.576 0-17.34 7.365-17.34 16.45 0 9.085 7.764 16.45 17.34 16.45Z"/><path fill="#F3BDCA" d="M925.119 75.39c4.789 0 8.67-3.685 8.67-8.23s-3.881-8.23-8.67-8.23c-4.788 0-8.67 3.685-8.67 8.23s3.882 8.23 8.67 8.23ZM959.8 75.39c5.882 0 10.65-4.526 10.65-10.11s-4.768-10.11-10.65-10.11c-5.881 0-10.65 4.526-10.65 10.11s4.769 10.11 10.65 10.11Z"/><path fill="#F3BDCA" d="M894.91 76.67H990s-37.75-14.76-95.09 0ZM1302.66 67.7c7.59 0 13.74-5.834 13.74-13.03s-6.15-13.03-13.74-13.03-13.74 5.834-13.74 13.03 6.15 13.03 13.74 13.03Z"/><path fill="#F3BDCA" d="M1288.92 67.7c3.79 0 6.87-2.92 6.87-6.52 0-3.601-3.08-6.52-6.87-6.52s-6.87 2.919-6.87 6.52c0 3.6 3.08 6.52 6.87 6.52ZM1316.4 67.71c4.66 0 8.44-3.586 8.44-8.01 0-4.424-3.78-8.01-8.44-8.01s-8.44 3.586-8.44 8.01c0 4.424 3.78 8.01 8.44 8.01Z"/><path fill="#F3BDCA" d="M1265 68.72h75.32s-29.9-11.72-75.32 0ZM243.72 310s-36.72-18.22-102.2-29.76a46.727 46.727 0 0 0 6-23c0-26.67-22.43-48.29-50.09-48.29-4.577 0-9.134.609-13.55 1.81C73.56 184.24 47 165.4 15.93 165.4A75.3 75.3 0 0 0 0 167.11V310h243.72Z"/><path fill="#231F20" d="M552.301 159.73v45.53h-5.95v-20.64h-23.19v20.64h-5.94v-45.53h5.94v20h23.19v-20h5.95ZM571.499 202.74a21.785 21.785 0 0 1-8.26-8.29 25.161 25.161 0 0 1 0-24 21.785 21.785 0 0 1 8.26-8.29 24.067 24.067 0 0 1 23.2 0 21.616 21.616 0 0 1 8.23 8.26 25.58 25.58 0 0 1 0 24 21.616 21.616 0 0 1-8.23 8.26 24.064 24.064 0 0 1-23.2 0v.06Zm20.16-4.4a15.706 15.706 0 0 0 6-6.34 21.93 21.93 0 0 0 0-19.11 15.728 15.728 0 0 0-6-6.3 17.789 17.789 0 0 0-17.25 0 15.788 15.788 0 0 0-6 6.3 21.944 21.944 0 0 0 0 19.11 15.713 15.713 0 0 0 6 6.34 17.73 17.73 0 0 0 17.18 0h.07ZM671.001 159.73l-13.2 45.53h-6.66l-10.58-36.65-11 36.65-6.6.06-12.74-45.59h6.34l9.93 38.61 11-38.61h6.66l10.45 38.47 10-38.47h6.4ZM723 159.73v4.83h-12.41v40.7h-6v-40.7h-12.43v-4.83H723ZM739.39 202.74a21.785 21.785 0 0 1-8.26-8.29 25.161 25.161 0 0 1 0-24 21.785 21.785 0 0 1 8.26-8.29 24.067 24.067 0 0 1 23.2 0 21.623 21.623 0 0 1 8.23 8.26 25.579 25.579 0 0 1 0 24 21.623 21.623 0 0 1-8.23 8.26 24.067 24.067 0 0 1-23.2 0v.06Zm20.16-4.4a15.706 15.706 0 0 0 6-6.34 21.945 21.945 0 0 0 0-19.11 15.728 15.728 0 0 0-6-6.3 17.789 17.789 0 0 0-17.25 0 15.774 15.774 0 0 0-6 6.3 21.945 21.945 0 0 0 0 19.11 15.706 15.706 0 0 0 6 6.34 17.73 17.73 0 0 0 17.18 0h.07Z"/><path fill="#DB284E" d="M826.691 181.66a13.648 13.648 0 0 1-5.69 5.34 20.003 20.003 0 0 1-9.5 2.05h-7v16.63h-11.28v-46.29h18.29a20.765 20.765 0 0 1 9.37 1.91c2.4 1.143 4.4 2.983 5.74 5.28a15.299 15.299 0 0 1 1.91 7.72 14.923 14.923 0 0 1-1.84 7.36Zm-11.22-3.07a6.611 6.611 0 0 0 0-8.58 6.757 6.757 0 0 0-4.82-1.52h-6.14v11.62h6.14a6.757 6.757 0 0 0 4.82-1.52ZM863.249 197.53h-17.25l-2.77 8.19h-11.86l16.77-46.33h13.06l16.8 46.33h-12l-2.75-8.19Zm-2.9-8.71-5.75-17-5.67 17h11.42ZM922.781 159.39l-16 31v15.31h-11.32v-15.29l-16-31h12.8l9 19.4 8.91-19.4 12.61-.02Z"/><path fill="#F3BDCA" d="M626.17 122.26H523.15v1.67h103.02v-1.67ZM916.84 122.26H813.82v1.67h103.02v-1.67Z"/><path fill="#EB92A7" d="M269.551 254.02c19.794 0 35.84-15.437 35.84-34.48s-16.046-34.48-35.84-34.48c-19.794 0-35.84 15.437-35.84 34.48s16.046 34.48 35.84 34.48Z"/><path fill="#EB92A7" d="M233.709 254.02c9.897 0 17.92-7.719 17.92-17.24 0-9.521-8.023-17.24-17.92-17.24-9.897 0-17.92 7.719-17.92 17.24 0 9.521 8.023 17.24 17.92 17.24ZM305.389 254.02c12.161 0 22.02-9.483 22.02-21.18s-9.859-21.18-22.02-21.18-22.02 9.483-22.02 21.18 9.859 21.18 22.02 21.18Z"/><path fill="#EB92A7" d="M206.131 256.71h148.49s-58.95-30.94-148.49 0ZM467.93 253.82c12.79 0 23.16-9.98 23.16-22.29 0-12.31-10.37-22.29-23.16-22.29-12.791 0-23.16 9.98-23.16 22.29 0 12.31 10.369 22.29 23.16 22.29Z"/><path fill="#EB92A7" d="M444.76 253.81c6.395 0 11.58-4.988 11.58-11.14s-5.185-11.14-11.58-11.14c-6.396 0-11.58 4.988-11.58 11.14s5.184 11.14 11.58 11.14ZM491.089 253.82c7.859 0 14.23-6.129 14.23-13.69s-6.371-13.69-14.23-13.69-14.23 6.129-14.23 13.69 6.371 13.69 14.23 13.69Z"/><path fill="#EB92A7" d="M410.609 255.72h107.39s-42.66-25.2-107.39 0Z"/><path fill="#327674" d="M431.001 182.06c-37.77-30.07-69.51-69-93.54-114.65l-52 41.73c27.79 52.81 64.48 97.79 108.15 132.57l37.39-59.65Z"/><g fill="#BBDBDA" opacity=".5"><path d="M355.074 134.97c1.724 1.831 2.617 3.621 2.678 5.369.079 1.733-.545 3.224-1.872 4.474a7.62 7.62 0 0 1-1.179.919c-1.365.906-2.898 1.382-4.597 1.429-1.698.047-3.39-.436-5.073-1.45l-4.324 9.444-4.579-4.863 4.328-8.783-.973-1.033-7.792 5.104-4.057-4.309 20.63-13.532 6.81 7.231Zm-4.701 6.519c.3-.22.492-.369.576-.448.538-.506.783-1.07.737-1.692-.014-.62-.338-1.267-.97-1.939l-2.516-2.671-5.17 3.395 2.515 2.671c.744.79 1.522 1.229 2.336 1.319.829.107 1.66-.105 2.492-.635Zm10.859 11.279c1.161-.08 2.323.094 3.485.521 1.178.443 2.234 1.16 3.168 2.151 1.423 1.512 2.074 3.197 1.953 5.054-.105 1.874-1.006 3.61-2.702 5.207-.521.491-1.131.97-1.831 1.439-1.682 1.108-3.425 1.815-5.23 2.12-1.787.289-3.474.197-5.06-.275-1.568-.488-2.898-1.311-3.99-2.47-.917-.974-1.491-1.987-1.72-3.039-.23-1.051-.176-2.037.162-2.957l-10.115 6.625-4.057-4.309 24.202-15.898 4.057 4.309-2.322 1.522Zm-.032 10.013c.333-.219.617-.439.853-.66.839-.791 1.265-1.652 1.277-2.582.027-.913-.307-1.739-1.003-2.478-.807-.857-1.853-1.345-3.139-1.466-1.286-.12-2.561.226-3.826 1.036a6.98 6.98 0 0 0-.903.708c-.823.775-1.248 1.619-1.276 2.532-.027.913.307 1.74 1.003 2.479.807.856 1.853 1.345 3.139 1.465 1.319.121 2.61-.223 3.875-1.034Z"/><path d="m357.752 140.339-.999.036v.01l.999-.046Zm-3.051 5.393-.529-.848-.012.007-.011.008.552.833Zm-4.597 1.429.028 1-.028-1Zm-5.073-1.45.516-.857-.959-.577-.466 1.018.909.416Zm-4.324 9.444-.728.685 1.019 1.082.619-1.351-.91-.416Zm-4.579-4.863-.897-.442-.307.622.476.505.728-.685Zm4.328-8.783.897.442.307-.622-.476-.505-.728.685Zm-.973-1.033.728-.685-.574-.611-.702.46.548.836Zm-7.792 5.104-.728.685.575.611.701-.46-.548-.836Zm-4.057-4.309-.549-.836-.997.654.818.868.728-.686Zm20.63-13.532.728-.686-.575-.61-.702.46.549.836Zm2.109 13.75.537.843.027-.017.026-.019-.59-.807Zm1.313-2.14-1 .023.001.026.001.026.998-.075Zm-3.486-4.61.728-.685-.575-.611-.701.461.548.835Zm-5.17 3.395-.549-.835-.996.654.817.867.728-.686Zm4.851 3.99.127-.992-.009-.001-.009-.001-.109.994Zm6.465-6.468c1.629 1.73 2.357 3.3 2.407 4.719l1.999-.071c-.074-2.078-1.132-4.088-2.95-6.019l-1.456 1.371Zm2.407 4.729c.065 1.425-.432 2.638-1.559 3.7l1.371 1.456c1.527-1.438 2.279-3.207 2.186-5.247l-1.998.091Zm-1.559 3.7a6.565 6.565 0 0 1-1.022.799l1.059 1.696a8.556 8.556 0 0 0 1.334-1.039l-1.371-1.456Zm-1.045.814c-1.204.798-2.553 1.221-4.072 1.262l.055 2c1.879-.052 3.594-.582 5.122-1.595l-1.105-1.667Zm-4.072 1.262c-1.48.041-2.984-.376-4.53-1.307l-1.032 1.714c1.821 1.096 3.699 1.646 5.617 1.593l-.055-2Zm-5.955-.866-4.324 9.443 1.819.833 4.323-9.444-1.818-.832Zm-2.687 9.174-4.579-4.863-1.456 1.371 4.579 4.863 1.456-1.371Zm-4.41-3.735 4.328-8.783-1.794-.884-4.328 8.783 1.794.884Zm4.159-9.91-.973-1.033-1.456 1.371.973 1.033 1.456-1.371Zm-2.249-1.184-7.792 5.103 1.096 1.673 7.792-5.103-1.096-1.673Zm-6.516 5.254-4.057-4.308-1.456 1.371 4.057 4.308 1.456-1.371Zm-4.237-2.787 20.63-13.532-1.097-1.672-20.63 13.532 1.097 1.672Zm19.354-13.682 6.81 7.231 1.456-1.371-6.81-7.232-1.456 1.372Zm3.427 13.871a8.08 8.08 0 0 0 .672-.527l-1.371-1.456-.035.03-.1.08c-.086.066-.2.152-.346.258l1.18 1.615Zm.672-.527c.712-.671 1.121-1.515 1.048-2.495l-1.995.15c.02.264-.061.547-.424.889l1.371 1.456Zm1.05-2.442c-.021-.964-.52-1.836-1.241-2.602l-1.456 1.371c.543.577.692.999.698 1.276l1.999-.045Zm-1.241-2.602-2.516-2.671-1.456 1.371 2.516 2.671 1.456-1.371Zm-3.792-2.821-5.171 3.395 1.098 1.671 5.17-3.395-1.097-1.671Zm-5.35 4.916 2.515 2.671 1.456-1.371-2.515-2.671-1.456 1.371Zm2.515 2.671c.853.905 1.837 1.504 2.954 1.627l.219-1.988c-.509-.056-1.082-.337-1.717-1.01l-1.456 1.371Zm2.936 1.625c1.102.141 2.165-.152 3.157-.784l-1.074-1.687c-.672.428-1.271.559-1.828.487l-.255 1.984Zm13.479 9.652-.548-.837-3.198 2.095 3.814-.261-.068-.997Zm3.485.521.352-.936-.007-.003-.345.939Zm5.121 7.205-.998-.065v.009l.998.056Zm-4.533 6.646.55.835.007-.004-.557-.831Zm-5.23 2.12.16.987.007-.001-.167-.986Zm-5.06-.275-.297.955.012.004.285-.959Zm-5.71-5.509.977-.213-.977.213Zm.162-2.957.939.344 1.041-2.837-2.528 1.656.548.837Zm-10.115 6.625-.728.685.575.611.701-.46-.548-.836Zm-4.057-4.309-.549-.836-.996.655.817.867.728-.686Zm24.202-15.898.728-.685-.575-.611-.702.461.549.835Zm4.057 4.309.548.836.998-.653-.818-.869-.728.686Zm-2.354 11.535.54.842.009-.006-.549-.836Zm2.13-3.242-1-.03v.018l1 .012Zm-4.142-3.944-.093.996.093-.996Zm-3.826 1.036-.54-.842-.008.006-.009.005.557.831Zm-2.179 3.24 1 .03-1-.03Zm4.142 3.944-.093.996h.002l.091-.996Zm3.975-10.05c1.012-.069 2.034.081 3.073.462l.689-1.877c-1.286-.472-2.588-.67-3.899-.58l.137 1.995Zm3.065.46c1.024.385 1.954 1.012 2.791 1.901l1.457-1.371c-1.03-1.093-2.211-1.901-3.544-2.402l-.704 1.872Zm2.791 1.901c1.258 1.336 1.785 2.756 1.685 4.303l1.995.13c.142-2.168-.634-4.116-2.223-5.804l-1.457 1.371Zm1.684 4.312c-.088 1.56-.833 3.069-2.39 4.535l1.371 1.456c1.836-1.729 2.893-3.691 3.016-5.879l-1.997-.112Zm-2.39 4.535c-.474.447-1.04.893-1.701 1.336l1.113 1.662a15.266 15.266 0 0 0 1.959-1.542l-1.371-1.456Zm-1.695 1.332c-1.578 1.039-3.192 1.689-4.846 1.969l.333 1.972c1.955-.331 3.827-1.094 5.613-2.271l-1.1-1.67Zm-4.839 1.968c-1.654.267-3.187.179-4.615-.246l-.571 1.917c1.743.519 3.583.614 5.505.303l-.319-1.974Zm-4.604-.243c-1.409-.438-2.589-1.171-3.559-2.201l-1.456 1.372c1.214 1.288 2.694 2.202 4.421 2.739l.594-1.91Zm-3.559-2.201c-.823-.874-1.289-1.73-1.471-2.566l-1.954.427c.276 1.267.958 2.436 1.969 3.511l1.456-1.372Zm-1.471-2.566c-.193-.885-.142-1.675.124-2.4l-1.878-.689c-.409 1.116-.466 2.297-.2 3.516l1.954-.427Zm-1.363-3.581-10.115 6.625 1.096 1.673 10.115-6.625-1.096-1.673Zm-8.839 6.776-4.057-4.308-1.456 1.371 4.057 4.308 1.456-1.371Zm-4.236-2.787 24.202-15.898-1.098-1.671-24.202 15.897 1.098 1.672Zm22.925-16.048 4.057 4.309 1.456-1.372-4.057-4.308-1.456 1.371Zm4.237 2.787-2.322 1.521 1.096 1.673 2.322-1.522-1.096-1.672Zm-1.257 13.207c.371-.244.703-.499.989-.768l-1.371-1.456c-.184.173-.42.358-.715.552l1.097 1.672Zm.989-.768c.987-.93 1.576-2.034 1.592-3.297l-2-.025c-.008.596-.27 1.213-.963 1.866l1.371 1.456Zm1.591-3.28c.037-1.209-.418-2.285-1.274-3.194l-1.456 1.371c.536.57.75 1.146.731 1.763l1.999.06Zm-1.274-3.194c-.99-1.051-2.271-1.635-3.774-1.775l-.186 1.991c1.069.1 1.881.494 2.504 1.155l1.456-1.371Zm-3.774-1.775c-1.543-.144-3.038.279-4.459 1.189l1.08 1.684c1.109-.711 2.164-.978 3.193-.882l.186-1.991Zm-4.476 1.2a7.987 7.987 0 0 0-1.031.811l1.371 1.456c.204-.193.46-.395.773-.605l-1.113-1.662Zm-1.031.811c-.968.911-1.553 1.992-1.59 3.23l1.999.06c.018-.588.283-1.195.962-1.834l-1.371-1.456Zm-1.59 3.23c-.036 1.209.419 2.286 1.274 3.194l1.456-1.371c-.536-.569-.75-1.145-.731-1.763l-1.999-.06Zm1.274 3.194c.991 1.052 2.271 1.635 3.774 1.776l.186-1.992c-1.069-.1-1.881-.493-2.504-1.155l-1.456 1.371Zm3.776 1.776c1.569.144 3.08-.274 4.506-1.188l-1.079-1.684c-1.104.708-2.177.978-3.244.88l-.183 1.992Z"/></g><path stroke="#BBDBDA" stroke-miterlimit="10" stroke-width="2.77" d="m336 78.15-41 32.77s38.69 79.16 95.1 119.75l32.12-46.39S352.51 125.92 336 78.15Z" opacity=".5"/><path fill="#49A09D" d="M423.24 169.94c-47.44-6-94-21.89-137.12-46.78-8.207 19.227-16.413 38.45-24.62 57.67 49.91 28.78 103.7 47.13 158.55 54.09a70627.9 70627.9 0 0 0 3.19-64.98Z"/><path fill="#E8F3F3" d="M342.764 167.591c2.543.803 4.295 1.998 5.257 3.584.969 1.563 1.162 3.267.58 5.11a8.15 8.15 0 0 1-.615 1.461c-.796 1.544-1.968 2.778-3.517 3.7-1.548.922-3.364 1.35-5.446 1.282l.882 10.979-6.755-2.133-.536-10.369-1.435-.453-4.573 8.755-5.985-1.89 12.098-23.198 10.045 3.172Zm-.98 8.466c.164-.359.265-.597.302-.713.236-.747.171-1.396-.194-1.947-.334-.568-.967-.999-1.901-1.293l-3.709-1.172-3.03 5.817 3.709 1.172c1.097.346 2.045.35 2.844.013.823-.331 1.483-.956 1.979-1.877Zm15.886 4.824c1.034-.674 2.199-1.115 3.496-1.321 1.32-.199 2.669-.081 4.045.354 2.1.663 3.574 1.885 4.423 3.667.872 1.789.936 3.862.191 6.219a14.97 14.97 0 0 1-.95 2.278c-.984 1.896-2.232 3.452-3.745 4.668-1.505 1.192-3.114 1.98-4.826 2.363-1.704.36-3.361.286-4.971-.223-1.354-.427-2.409-1.068-3.165-1.923-.756-.854-1.216-1.795-1.38-2.822l-5.936 11.366-5.985-1.89 14.182-27.236 5.984 1.89-1.363 2.61Zm5.15 9.285c.196-.374.345-.725.448-1.051.368-1.167.317-2.184-.153-3.051-.447-.859-1.184-1.451-2.21-1.775-1.19-.376-2.412-.287-3.664.267-1.253.553-2.255 1.533-3.006 2.938a7.425 7.425 0 0 0-.47 1.121c-.361 1.144-.318 2.145.129 3.005.447.859 1.184 1.451 2.21 1.775 1.19.376 2.412.287 3.664-.267 1.283-.569 2.301-1.557 3.052-2.962Z"/><path fill="#E8F3F3" d="m348.021 171.175-.852.517.005.008.847-.525Zm-.035 6.571-.873-.481-.007.012-.006.012.886.457Zm-3.517 3.7.51.856-.51-.856Zm-5.446 1.282.032-.995-1.115-.037.09 1.112.993-.08Zm.882 10.979-.3.95 1.412.445-.119-1.475-.993.08Zm-6.755-2.133-.995.051.036.69.659.209.3-.95Zm-.536-10.369.995-.052-.036-.69-.659-.208-.3.95Zm-1.435-.453.3-.95-.796-.252-.387.741.883.461Zm-4.573 8.755-.3.95.796.251.387-.74-.883-.461Zm-5.985-1.89-.883-.461-.55 1.053 1.133.358.3-.95Zm12.098-23.198.3-.95-.797-.252-.386.741.883.461Zm9.065 11.638.877.472.015-.028.013-.029-.905-.415Zm.108-2.66-.858.505.013.023.014.021.831-.549Zm-5.61-2.465.3-.95-.798-.252-.386.742.884.46Zm-3.03 5.817-.884-.46-.548 1.053 1.132.357.3-.95Zm6.553 1.185-.371-.925-.008.003-.008.004.387.918Zm2.659-9.393c2.412.761 3.914 1.845 4.705 3.151l1.704-1.033c-1.132-1.868-3.135-3.174-5.809-4.018l-.6 1.9Zm4.71 3.159c.807 1.303.977 2.702.477 4.285l1.9.6c.664-2.104.447-4.111-.683-5.935l-1.694 1.05Zm.477 4.285a7.058 7.058 0 0 1-.538 1.28l1.745.961c.276-.501.506-1.05.693-1.641l-1.9-.6Zm-.551 1.304c-.707 1.373-1.746 2.471-3.14 3.301l1.019 1.712c1.703-1.014 3.008-2.383 3.892-4.1l-1.771-.913Zm-3.14 3.301c-1.361.811-2.982 1.205-4.905 1.143l-.065 1.991c2.243.073 4.253-.388 5.989-1.422l-1.019-1.712Zm-5.93 2.218.882 10.978 1.986-.159-.882-10.979-1.986.16Zm2.175 9.949-6.755-2.133-.6 1.9 6.755 2.133.6-1.9Zm-6.06-1.235-.536-10.369-1.99.103.536 10.369 1.99-.103Zm-1.231-11.267-1.435-.453-.6 1.9 1.435.453.6-1.9Zm-2.618.036-4.573 8.755 1.766.922 4.573-8.755-1.766-.922Zm-3.39 8.266-5.985-1.89-.6 1.9 5.985 1.89.6-1.9Zm-5.402-.479 12.099-23.199-1.767-.921-12.098 23.198 1.766.922Zm10.915-22.709 10.045 3.172.6-1.9-10.045-3.172-.6 1.9Zm10.27 11.103c.159-.346.288-.642.347-.828l-1.9-.6-.005.012-.014.037a16.074 16.074 0 0 1-.239.548l1.811.831Zm.347-.828c.308-.975.249-1.948-.313-2.797l-1.662 1.099c.168.254.239.579.075 1.098l1.9.6Zm-.285-2.753c-.508-.862-1.403-1.404-2.46-1.737l-.6 1.9c.811.255 1.183.576 1.343.848l1.717-1.011Zm-2.46-1.737-3.709-1.172-.6 1.9 3.709 1.172.6-1.9Zm-4.893-.682-3.03 5.817 1.767.92 3.03-5.817-1.767-.92Zm-2.446 7.227 3.709 1.172.6-1.9-3.709-1.172-.6 1.9Zm3.709 1.172c1.248.394 2.452.436 3.532-.02l-.775-1.835c-.519.219-1.212.253-2.157-.045l-.6 1.9Zm3.516-.013c1.076-.432 1.898-1.241 2.484-2.329l-1.754-.945c-.407.755-.904 1.197-1.473 1.425l.743 1.849Zm17.493 2.023-.883-.461-1.763 3.375 3.19-2.08-.544-.834Zm3.496-1.321-.148-.985-.008.001.156.984Zm8.468 4.021-.9.429.004.008.896-.437Zm-.759 8.497.884.459.004-.007-.888-.452Zm-3.745 4.668.619.781.005-.004-.624-.777Zm-4.826 2.363.206.975.012-.003-.218-.972Zm-8.136-2.146.746-.66-.746.66Zm-1.38-2.822.984-.156-.473-2.973-1.394 2.668.883.461Zm-5.936 11.366-.3.95.796.251.387-.74-.883-.461Zm-5.985-1.89-.884-.46-.548 1.052 1.132.358.3-.95Zm14.182-27.236.3-.95-.798-.252-.386.742.884.46Zm5.984 1.89.883.461.55-1.053-1.133-.358-.3.95Zm3.787 11.895.879.47.005-.009-.884-.461Zm.295-4.102-.884.46.004.008.004.007.876-.475Zm-5.874-1.508.403.911-.403-.911Zm-3.006 2.938-.879-.47-.004.009-.005.009.888.452Zm-.341 4.126.884-.46-.884.46Zm5.874 1.508.403.911h.001l-.404-.911Zm-1.554-11.413c.91-.593 1.941-.985 3.109-1.171l-.313-1.968c-1.426.227-2.725.715-3.884 1.47l1.088 1.669Zm3.101-1.17c1.158-.174 2.353-.074 3.596.319l.6-1.9c-1.509-.477-3.011-.612-4.493-.389l.297 1.97Zm3.596.319c1.87.59 3.108 1.644 3.823 3.146l1.799-.857c-.981-2.062-2.692-3.454-5.022-4.189l-.6 1.9Zm3.827 3.154c.735 1.507.824 3.307.137 5.482l1.9.6c.802-2.538.764-4.884-.246-6.955l-1.791.873Zm.137 5.482a13.928 13.928 0 0 1-.888 2.126l1.776.904c.426-.836.765-1.646 1.012-2.43l-1.9-.6Zm-.884 2.12c-.927 1.785-2.09 3.229-3.485 4.349l1.248 1.554c1.631-1.311 2.964-2.979 4.005-4.986l-1.768-.917Zm-3.479 4.345c-1.4 1.108-2.873 1.825-4.425 2.172l.435 1.944c1.871-.418 3.615-1.277 5.227-2.554l-1.237-1.562Zm-4.414 2.17c-1.542.325-3.024.256-4.465-.199l-.6 1.9c1.779.562 3.61.642 5.477.248l-.412-1.949Zm-4.465-.199c-1.223-.386-2.108-.943-2.719-1.633l-1.492 1.321c.902 1.019 2.127 1.744 3.611 2.212l.6-1.9Zm-2.719-1.633c-.644-.727-1.011-1.497-1.142-2.318l-1.967.313c.195 1.232.748 2.343 1.617 3.326l1.492-1.321Zm-3.009-2.623-5.936 11.365 1.766.923 5.936-11.365-1.766-.923Zm-4.753 10.877-5.985-1.89-.6 1.9 5.985 1.89.6-1.9Zm-5.401-.48 14.181-27.236-1.767-.92-14.182 27.236 1.768.92Zm12.998-26.746 5.984 1.89.6-1.9-5.984-1.89-.6 1.9Zm5.401.479-1.363 2.61 1.766.922 1.363-2.61-1.766-.922Zm5.554 12.817c.216-.415.39-.819.514-1.212l-1.9-.6c-.082.26-.207.556-.381.891l1.767.921Zm.514-1.212c.429-1.359.402-2.667-.227-3.826l-1.752.95c.312.575.387 1.301.079 2.276l1.9.6Zm-.219-3.81c-.583-1.121-1.546-1.872-2.794-2.266l-.6 1.9c.805.254 1.315.687 1.626 1.285l1.768-.919Zm-2.794-2.266c-1.445-.457-2.916-.336-4.367.305l.806 1.823c1.054-.466 2.025-.524 2.961-.228l.6-1.9Zm-4.367.305c-1.488.658-2.643 1.812-3.482 3.38l1.757.94c.665-1.243 1.514-2.047 2.531-2.497l-.806-1.823Zm-3.491 3.398a8.396 8.396 0 0 0-.532 1.273l1.9.6c.091-.287.225-.61.408-.969l-1.776-.904Zm-.532 1.273c-.421 1.332-.401 2.617.195 3.764l1.768-.919c-.298-.572-.364-1.29-.063-2.245l-1.9-.6Zm.195 3.764c.583 1.121 1.547 1.872 2.794 2.266l.6-1.9c-.805-.254-1.315-.687-1.626-1.285l-1.768.919Zm2.794 2.266c1.445.457 2.916.336 4.367-.306l-.806-1.822c-1.054.466-2.025.524-2.961.228l-.6 1.9Zm4.368-.306c1.513-.672 2.685-1.83 3.527-3.403l-1.757-.94c-.662 1.237-1.525 2.054-2.578 2.522l.808 1.821Z"/><path stroke="#E8F3F3" stroke-miterlimit="10" stroke-width="2.77" d="m291.381 132.41-20.66 46.44s88.71 46.15 138.46 46.81l.42-50.66s-64.51-10.09-118.22-42.59Z"/><path fill="#0E2E35" d="M401.459 74.2a29.77 29.77 0 0 1-3.38-1.35 16.78 16.78 0 0 0-3.85-1.44c-2.13-.33-5.79-.11-7.81 2.07-2.52 2.72-7 .49-6.09 14.75 1 16.14 10 14.37 10.24 14.09.24-.28 8-10.32 8-10.32s2.73 6 2.73 5.74c0-.26 13.98-18.9.16-23.54Z"/><path fill="#498E8C" d="M410.999 180.59c-37.33 14.75-78.51 21.49-121.38 19.87 2.853 18.24 5.7 36.48 8.54 54.72 49.57 1.88 97.18-5.92 140.34-23l-27.5-51.59Z"/><path stroke="#BBDBDA" stroke-miterlimit="10" stroke-width="2.77" d="m296.76 206.34 7 44.91s72.9 2 93.2-14.94l-16.06-38.53s-64.68 9.22-84.14 8.56Z" opacity=".5"/><path fill="#E59F39" d="M349.369 240.75v13.37c0 2.16 24.1 3.91 53.83 3.91 29.73 0 53.8-1.75 53.8-3.91v-13.37h-107.63Z"/><path fill="#EAB054" d="M388.319 257.88v-17.13h-38.95v13.37c0 1.78 16.46 3.29 38.95 3.76ZM390.141 257.91c4.18.08 8.55.12 13.06.12 6.71 0 13.14-.09 19.06-.26v-17h-32.12v17.14ZM424.42 257.71c19.18-.6 32.61-2 32.61-3.59v-13.37h-32.61v16.96Z"/><path fill="#E59F39" d="M403.199 244.52c29.73 0 53.83-1.751 53.83-3.91 0-2.159-24.1-3.91-53.83-3.91-29.729 0-53.83 1.751-53.83 3.91 0 2.159 24.101 3.91 53.83 3.91Z"/><path fill="#F7CC7F" d="M447.529 240.61c0 1.5-19.85 2.71-44.33 2.71-24.48 0-44.33-1.21-44.33-2.71s19.85-2.71 44.33-2.71c24.48 0 44.33 1.21 44.33 2.71Z"/><path fill="#E59F39" d="M340.16 226.61V240c0 2.16 24.1 3.92 53.83 3.92 29.73 0 53.83-1.76 53.83-3.92v-13.39H340.16Z"/><path fill="#EAB054" d="M379.11 243.73v-17.12h-38.95V240c0 1.76 16.46 3.27 38.95 3.73ZM380.93 243.77c4.18.08 8.55.12 13.06.12 6.71 0 13.14-.09 19.06-.26v-17h-32.12v17.14ZM415.211 243.57c19.18-.6 32.61-2 32.61-3.6v-13.36h-32.61v16.96Z"/><path fill="#E59F39" d="M393.99 230.38c29.73 0 53.83-1.751 53.83-3.91 0-2.159-24.1-3.91-53.83-3.91-29.729 0-53.83 1.751-53.83 3.91 0 2.159 24.101 3.91 53.83 3.91Z"/><path fill="#F7CC7F" d="M438.32 226.47c0 1.5-19.85 2.71-44.33 2.71-24.48 0-44.33-1.21-44.33-2.71s19.85-2.71 44.33-2.71c24.48 0 44.33 1.24 44.33 2.71Z"/><path fill="#E59F39" d="M346.289 212.09v13.37c0 2.16 24.1 3.91 53.83 3.91 29.73 0 53.88-1.75 53.88-3.91v-13.37h-107.71Z"/><path fill="#EAB054" d="M385.25 229.22v-17.13h-39v13.37c.04 1.78 16.51 3.29 39 3.76ZM387.061 229.25c4.19.08 8.56.12 13.06.12 6.72 0 13.14-.09 19.07-.25v-17h-32.13v17.13ZM421.34 229.05c19.18-.6 32.62-2 32.62-3.59v-13.37h-32.62v16.96Z"/><path fill="#E59F39" d="M400.119 215.86c29.73 0 53.83-1.751 53.83-3.91 0-2.159-24.1-3.91-53.83-3.91-29.729 0-53.83 1.751-53.83 3.91 0 2.159 24.101 3.91 53.83 3.91Z"/><path fill="#F7CC7F" d="M444.451 212c0 1.5-19.84 2.71-44.33 2.71s-44.32-1.26-44.32-2.71 19.84-2.71 44.32-2.71 44.33 1.16 44.33 2.71Z"/><path fill="#E59F39" d="M340.16 197.78v13.36c0 2.16 24.1 3.91 53.83 3.91 29.73 0 53.83-1.75 53.83-3.91v-13.36H340.16Z"/><path fill="#EAB054" d="M379.11 214.9v-17.12h-38.95v13.36c0 1.78 16.46 3.29 38.95 3.76ZM380.93 214.93c4.18.08 8.55.12 13.06.12 6.71 0 13.14-.09 19.06-.25v-17h-32.12v17.13ZM415.211 214.74c19.18-.6 32.61-2 32.61-3.6v-13.36h-32.61v16.96Z"/><path fill="#E59F39" d="M393.99 201.54c29.73 0 53.83-1.751 53.83-3.91 0-2.159-24.1-3.91-53.83-3.91-29.729 0-53.83 1.751-53.83 3.91 0 2.159 24.101 3.91 53.83 3.91Z"/><path fill="#F7CC7F" d="M438.32 197.63c0 1.5-19.85 2.72-44.33 2.72-24.48 0-44.33-1.22-44.33-2.72 0-1.5 19.85-2.71 44.33-2.71 24.48 0 44.33 1.22 44.33 2.71Z"/><path fill="#F7A491" d="M437.881 242.27s1.28 6.79 1.28 6.81c.07.88 0 3.12.24 3.89.72 2.9 12.93-4.15 9.72-4.72a13.233 13.233 0 0 1-2.87-3.08 26.59 26.59 0 0 1-1.61-4.48l-6.76 1.58Z"/><path fill="#F47458" d="M448.519 247.83a47.496 47.496 0 0 1-4.76.94c-1.6.16-3.66-2.33-4.81-1.86-1.15.47-2 8.42-2 8.42s20.14.92 24.91-.39c1.92-.52-7.07-4.71-13.34-7.11Z"/><path fill="#F7A491" d="M466 242s1.28 6.79 1.28 6.81c.012 1.3.092 2.598.24 3.89.71 2.91 12.7-3.69 9.5-4.25a18.38 18.38 0 0 1-2.65-3.55 26.677 26.677 0 0 1-1.61-4.48L466 242Z"/><path fill="#F47458" d="M476.3 247.83a48.065 48.065 0 0 1-4.76.94c-1.6.16-3.66-2.33-4.81-1.86-1.15.47-2 8.42-2 8.42s20.14.92 24.9-.39c1.93-.52-7.07-4.71-13.33-7.11Z"/><path fill="#3F3F3F" d="m396.13 174 36.64-8.5s16.44-4.34 20.4.76c3.96 5.1 20.83 75.48 20.83 75.48s-15.17 1-15.74.64L444.39 206c-2.18-4.75-3.21-7.2-3.75-11.1l-1.45-10.34-14.92 4.35s-17.19 3.78-24.18-.57c-6.99-4.35-3.96-14.34-3.96-14.34Z"/><path fill="#DB284E" d="M410.2 110.82c.58 0 2.16.55 4.48 4.92 3 5.58 7.29 22.43 7.29 22.43L409.05 143l-1.66-3.52-2.73-27.08s5.34-1.59 5.54-1.58Z"/><path fill="#DB284E" d="M393.119 108.39c3.69 0 12.84 1.08 17.08 2.43 0 0 3.12 26.7-2.81 47-1.32 4.54 1.1 18.83 1.1 18.83l-38.29-.5s4.54-34.55 2.8-40.15c-1.74-5.6-1.75-25-1.75-25l8.6-1.48a86.257 86.257 0 0 1 13.27-1.13Z"/><path fill="#F2AA91" d="M370.859 114c3-1.13 5.64 20.61 6.39 35.68.22 4.29 2.87 8.64 7.16 8.62 5.26 0 10.61-.33 12.41-.46 1.29-.1 4.27-1.19 5.56-1.36a13.17 13.17 0 0 1 3.16-.15c.24 0 6.85 2.74 7.41 3.33.71.73 2.6 2.58 2.28 3.38-.32.8-3.64-2.23-3.64-2.23l-1.63-.91c2 2 5.88 4.56 5.33 5.51-.55.95-4-1.71-6.51-3.51 2.13 1.92 4.77 5.35 4.17 5.88-.6.53-3.56-3.49-6.77-4.63-1.19-.42-2.38.75-3.32.89a6.617 6.617 0 0 1-2.42.14l-3.23-.32c-.895.061-1.784.192-2.66.39-1.39.3-3.67.61-5.44 1-10.19 2.48-14.25.58-17.16-.78-8.56-3.98-9.55-47.34-1.09-50.47Z"/><path fill="#DB284E" d="M364.07 144.15c-.67-13.56-.58-30.26 7.05-33.11 3-1.13 8.31 5.64 7.36 33.38-4.07.34-10.05.58-14.41-.27Z"/><path fill="#5D696D" d="m449 135.86-36.07 2.36a2.366 2.366 0 0 0-2.09 1.6l-9.33 27.82-19.89 1.3a.997.997 0 0 0-.89.679 1.018 1.018 0 0 0 .63 1.281c.125.043.258.06.39.05l56.6-3.7a3.937 3.937 0 0 0 3.45-2.57l9.54-25.68a2.355 2.355 0 0 0-.334-2.193 2.358 2.358 0 0 0-2.006-.947Z"/><path fill="#fff" d="M431 153.05a2.006 2.006 0 0 1-1.495 1.579 2.003 2.003 0 0 1-2.465-1.774 2.007 2.007 0 0 1 2.13-2.165 2.132 2.132 0 0 1 1.83 2.36Z"/><path fill="#515151" d="m370.219 175.26 39.94-6.89s17.26-2.63 21.23 2.47c3.97 5.1 15.49 71.21 15.49 71.21s-13.13 1-13.7.62c-.57-.38-7.86-21.24-11.24-32.5-1-3.35-2.56-6.5-3.14-9.94l-1.51-9-5 1.73a61.21 61.21 0 0 1-27.51 2.94c-3.88-.48-7.5-1.31-9.75-2.7-7.03-4.35-4.81-17.94-4.81-17.94Z"/><path fill="#EB92A7" d="m447.711 83.23.64 7.82 4.54-5.12 14.69-12-12.52 3.95s-6.17 3-6.46 3.39c-.34.633-.638 1.288-.89 1.96Z"/><path fill="#F3BDCA" d="m441.051 79.87 26.53-5.97-19.87 9.33-6.66-3.36Z"/><path fill="#F3BDCA" d="m457.91 89.02-8.18-4.08 17.85-11.04-9.67 15.12Z"/><path fill="#FBB040" d="M444.61 87.57a9.57 9.57 0 0 1 2.14-.56l-.06-.57a10.06 10.06 0 0 0-2.28.59l.2.54ZM431.51 133.79a22.91 22.91 0 0 0 2.88-3.14l.46.34a24.726 24.726 0 0 1-3 3.23l-.34-.43Zm5.09-6.79c.28-.59.54-1.2.77-1.82.23-.62.48-1.44.68-2.19l.55.14a22.511 22.511 0 0 1-.7 2.24c-.23.64-.5 1.27-.78 1.87l-.52-.24Zm2.31-12.5h.57a36.099 36.099 0 0 1-.14 4.35h-.57c.132-1.443.178-2.892.14-4.34v-.01Zm-.81-8.57.56-.09c.24 1.68.41 3 .54 4.31h-.57c-.13-1.15-.3-2.55-.53-4.21v-.01Zm-.64-4.31a21.011 21.011 0 0 1-.22-4.34h.57a20.55 20.55 0 0 0 .21 4.22l-.57.08.01.04Zm.71-8.64a10.49 10.49 0 0 1 2.49-3.64l.39.41a9.991 9.991 0 0 0-2.35 3.45l-.53-.22Z"/><path fill="#F2AA91" d="M403.76 83.9s1.74 14.64-2 20c-3.74 5.36-7.35.38-7.35.38v5.59s.73 6.37-.81 6.69c-2.05.43-7.06-5.33-10-7 0 0 4.77-3 3.38-13.31 0 0-5-3.1-1.15-6.91s3 2.22 3 2.22 3.01-19.28 14.93-7.66Z"/><path fill="#0E2E35" d="M384.92 88.07s3.64.9 5-1.44c1.36-2.34 6.18-7.37 12.33-5.28s-5.41-5.08-5.9-5.08h-6.39s-4.55 3.72-4.71 4.13c-.16.41-1.48 4.88-1.48 4.88l1.15 2.79Z"/><path stroke="#000" stroke-linecap="round" stroke-miterlimit="10" stroke-width=".69" d="m376.949 144.62 1.53-.2v-14.51M411.019 127.83l-.57 12.86" opacity=".3"/><path fill="#F3BDCA" d="M322.169 256.96c12.874 0 23.31-10.042 23.31-22.43s-10.436-22.43-23.31-22.43c-12.873 0-23.31 10.042-23.31 22.43s10.437 22.43 23.31 22.43Z"/><path fill="#F3BDCA" d="M298.859 256.96c6.44 0 11.66-5.023 11.66-11.22 0-6.197-5.22-11.22-11.66-11.22-6.439 0-11.66 5.023-11.66 11.22 0 6.197 5.221 11.22 11.66 11.22ZM345.48 256.96c7.909 0 14.32-6.169 14.32-13.78 0-7.61-6.411-13.78-14.32-13.78-7.909 0-14.32 6.17-14.32 13.78 0 7.611 6.411 13.78 14.32 13.78Z"/><path fill="#F3BDCA" d="M272.35 257h110.56s-43.91-17.45-110.56 0Z"/><path fill="#FFB769" d="m1011.62 96.531 11.6 82.071a5.522 5.522 0 0 0 6.24 4.692l47.51-6.719a5.513 5.513 0 0 0 4.69-6.237l-11.6-82.071a5.522 5.522 0 0 0-6.24-4.692l-47.51 6.718a5.514 5.514 0 0 0-4.69 6.238Z"/><path fill="#FF792F" d="m1019.4 89.853 13.02 93.032 13.12-1.837-13.02-93.032-13.12 1.837Z"/><path fill="#020202" d="m1045.11 86.24-4.98 60.07-16.48 16.74.09 21.86 53.26-36.04-18.19-64.55-13.7 1.92Z" opacity=".1"/><path fill="#F2AA91" d="M1001.78 263.94a18.585 18.585 0 0 1 7.47-7.765 18.574 18.574 0 0 1 10.53-2.305c13.14.79 62-17.1 62-17.1l-9-74.07-13.15-15.14-96.04 78.84 10.18 36.91 28.01.63Z"/><path fill="#187470" d="M1030.76 240.94s52 4.87 68.29 8.83c0 0 8.78-106.86 29.43-157.62 0 0-36.76-20.09-76.38-10.27l-21.34 159.06Z"/><g fill="#BBDBDA" opacity=".5"><path d="m1093.29 240.74-1.92-.55c-11.82-3.41-50.21-8.06-50.6-8.11l-1.66-.2 16.74-144.56L1057 87c30.24-7.75 61.7 8.79 63 9.5l1.34.72-.57 1.4c-16.68 41.23-27.15 139.11-27.26 140.1l-.22 2.02Zm-50.45-11.8c7.22.9 35.37 4.48 47.53 7.5 1.56-13.93 11.48-98.52 26.69-137.61-6.21-3-32.91-14.74-58.13-8.82l-16.09 138.93Z" opacity=".5"/><path d="M1060.89 159.3a5.226 5.226 0 0 1 4.41-1.84c.48.027.95.104 1.41.23a7.919 7.919 0 0 1 4 2.49 10.008 10.008 0 0 1 2.24 5l9.5-3.62-.51 7.11-9 3.12-.1 1.5 8.65 2.25-.45 6.3-22.91-5.95.74-10.56a9.88 9.88 0 0 1 2.02-6.03Zm4.9 4.73a1.99 1.99 0 0 0-.92.123c-.3.113-.56.293-.77.527a3.639 3.639 0 0 0-.73 2.2l-.28 3.9 5.75 1.48.27-3.9a4.428 4.428 0 0 0-.57-2.78 3.448 3.448 0 0 0-2.06-1.44 4.823 4.823 0 0 0-.69-.14v.03ZM1065.62 144.42a9.543 9.543 0 0 1-.52-4c.06-1.987.9-3.871 2.34-5.24a7.078 7.078 0 0 1 5.44-1.73c.74.051 1.48.168 2.2.35 1.79.44 3.45 1.285 4.86 2.47a11.122 11.122 0 0 1 3.07 4.1c.67 1.538.96 3.217.83 4.89a7.555 7.555 0 0 1-1 3.56 5.28 5.28 0 0 1-2.2 2.05l11.23 2.92-.45 6.29-26.9-7 .45-6.29 2.57.67a8.565 8.565 0 0 1-1.92-3.04Zm8-4.42a3.298 3.298 0 0 0-2.66.89 3.954 3.954 0 0 0-1.11 2.62 5.372 5.372 0 0 0 1 3.49 5.532 5.532 0 0 0 3.21 2.19c.35.086.72.143 1.08.17.47.051.95-.002 1.41-.153.45-.152.86-.4 1.21-.727a3.853 3.853 0 0 0 1.12-2.6 5.433 5.433 0 0 0-1-3.51 5.566 5.566 0 0 0-3.22-2.2 4.53 4.53 0 0 0-1.05-.17h.01Z" opacity=".5"/></g><path fill="#020202" d="M1128.48 92.15s-40.73-16.09-51.69-9.59l-44 144.1-2 14.28 39.54 4.3 58.15-153.09Z" opacity=".1"/><path fill="#49A09D" d="M1033.46 234.58s49.16 17.58 64 25.44c0 0 34.93-101.37 67.5-145.45 0 0-37.1-30-77.91-30.25l-53.59 150.26Z"/><path fill="#E8F3F3" d="m1096.33 252-1.84-1c-12.07-6.4-52.54-20.89-52.94-21l-1.67-.59 48.32-137.28h1.26c34.12.24 64.57 24.5 65.84 25.53l1.33 1.07-1 1.36c-26.59 36-58.31 129-58.63 129.91l-.67 2Zm-51.93-24.76c7.48 2.7 37.46 13.61 49.9 19.71 4.67-13.44 32.91-93.2 57.44-127.53-6.14-4.58-32.57-23-61-23.71l-46.34 131.53Z"/><path fill="#E8F3F3" d="M1078.48 163.91a5.994 5.994 0 0 1 5.14-.66c.51.149 1 .346 1.47.59a9.125 9.125 0 0 1 3.78 3.46 9.843 9.843 0 0 1 1.38 5.45l11-1.08-2 6.82-10.39.72-.43 1.44 8.86 4.44-1.79 6-23.5-11.7 3-10.13a9.109 9.109 0 0 1 3.48-5.35Zm4.3 5.89a2.294 2.294 0 0 0-2 .21 3.32 3.32 0 0 0-1.25 2l-1.11 3.74 5.89 2.94 1.11-3.74c.34-.926.34-1.944 0-2.87a4.03 4.03 0 0 0-1.93-1.94c-.35-.21-.59-.3-.71-.34ZM1086.69 150.58a8.684 8.684 0 0 1 .28-4.05 6.97 6.97 0 0 1 1.32-2.65 6.95 6.95 0 0 1 2.29-1.87 8.2 8.2 0 0 1 6.23-.28c.79.237 1.56.541 2.3.91 1.82.874 3.43 2.125 4.73 3.67a11.58 11.58 0 0 1 2.46 4.81c.4 1.648.36 3.373-.12 5a6.868 6.868 0 0 1-1.88 3.21 5.485 5.485 0 0 1-2.8 1.44l11.5 5.76-1.79 6-27.58-13.77 1.8-6 2.64 1.32a8.715 8.715 0 0 1-1.38-3.5Zm9.55-2.26a3.833 3.833 0 0 0-3.06.19c-.43.24-.8.563-1.1.952-.31.388-.52.833-.65 1.308a5.152 5.152 0 0 0 .33 3.68 6.402 6.402 0 0 0 3 3c.37.184.75.335 1.14.45a3.782 3.782 0 0 0 3-.18c.43-.234.81-.555 1.11-.942.3-.387.51-.833.63-1.308a5.026 5.026 0 0 0-.34-3.69 6.397 6.397 0 0 0-3-3 6.941 6.941 0 0 0-1.06-.46Z"/><path fill="#F2AA91" d="M964.641 220.57s21-12.25 28.05-21.6c7.05-9.35 18.789-27.4 35.659-39.6a392.43 392.43 0 0 0 33-27.24c.03-.032.06-.063.09-.09l14-11.08a1.677 1.677 0 0 1 2.24.12c2.42 2.45 7.06 9.42-2.84 20.85-12.53 14.48-14.68 13.48-23.33 32.5-8.65 19.02.58 47.62-32.06 63.29"/><path fill="#020202" d="m1108.32 229 32-74.76s-25.45-6-33.25 5.74c-7.8 11.74-25.07 59.79 1.25 69.02Z" opacity=".1"/><path fill="#F2AA91" d="M1151.58 160.34 1132 221.66a7.848 7.848 0 0 1-3.89 4.605 7.886 7.886 0 0 1-6.01.505l-4.35-1.39a26.73 26.73 0 0 1-15.15-12.306 26.686 26.686 0 0 1-2.74-19.324l6-25.5a26.717 26.717 0 0 1 12.01-16.599 26.716 26.716 0 0 1 20.24-3.211l7.72 1.85c1.06.242 2.06.702 2.93 1.35a7.812 7.812 0 0 1 3.14 5.487 7.77 7.77 0 0 1-.32 3.213Z"/><path fill="#DB284E" d="M945 310H791.41l174.22-94 40.84 46.06L968.39 310H945Z"/><path fill="#020202" d="m791.411 310 36.59-19.19s99.95 27.79 174.709-33l3.79 4.27L968.391 310h-177 .02Z" opacity=".1"/><g opacity=".3"><path fill="#F2AA91" d="M1053.75 169.51s-4.62 5.55-7.48 28.07c-3.5 27.48-20.37 37.81-20.37 37.81" opacity=".3"/><path fill="#231F20" d="M1025.77 236.55a1.25 1.25 0 0 1-.49-.181 1.23 1.23 0 0 1-.36-.369 1.268 1.268 0 0 1-.16-.423c-.02-.15-.02-.303.02-.451.03-.148.1-.288.19-.41.09-.123.2-.227.33-.306.16-.1 16.44-10.43 19.82-37 2.87-22.59 7.54-28.43 7.74-28.66.1-.119.21-.217.35-.289a1.136 1.136 0 0 1 .88-.082c.15.046.28.122.4.221.12.096.21.215.28.349a1.125 1.125 0 0 1 .08.876c-.04.145-.11.279-.21.395-.08.1-4.48 5.89-7.22 27.48-3.53 27.72-20.2 38.23-20.91 38.66-.22.14-.48.207-.74.19Z" opacity=".3"/></g><path fill="#020202" d="M969.74 221.24s46.62 33.1 66.72 30a76.322 76.322 0 0 1-16.68 2.4 18.78 18.78 0 0 0-8.51 1.458 18.782 18.782 0 0 0-6.95 5.112l-34.58-38.97Z" opacity=".1"/><path fill="#F3BDCA" d="M172.719 116.2c17.32 0 31.36-13.279 31.36-29.66 0-16.38-14.04-29.66-31.36-29.66-17.319 0-31.36 13.28-31.36 29.66 0 16.381 14.041 29.66 31.36 29.66Z"/><path fill="#F3BDCA" d="M204.08 116.2c8.66 0 15.68-6.64 15.68-14.83 0-8.19-7.02-14.83-15.68-14.83-8.659 0-15.68 6.64-15.68 14.83 0 8.19 7.021 14.83 15.68 14.83ZM141.36 116.2c10.637 0 19.26-8.157 19.26-18.22 0-10.063-8.623-18.22-19.26-18.22-10.637 0-19.26 8.157-19.26 18.22 0 10.063 8.623 18.22 19.26 18.22Z"/><path fill="#F3BDCA" d="M254.53 121.15H98.59s61.9-32.67 155.94 0Z"/><g clip-path="url(#b)"><path fill="#D7244F" d="m650.935 102.242.518-.106c-.775 5.091-1.536 11.536-1.465 13.57.037 1.057.805 1.817 1.83 1.817a2.12 2.12 0 0 0 .931-.224c4.641-2.265 7.513-2.995 12.271-4.204 1.117-.28 1.41-1.226 1.32-1.946-.105-.839-.756-1.693-1.795-1.693a2.05 2.05 0 0 0-.493.063c-4.072 1.035-6.801 1.771-10.188 3.215.074-.794.17-1.711.289-2.727.658-.27 1.268-.523 1.843-.763 3.171-1.317 5.264-2.188 9.025-3.215 1.118-.306 1.397-1.258 1.303-1.989-.111-.822-.752-1.655-1.762-1.655a1.978 1.978 0 0 0-.524.073c-3.808 1.045-5.917 1.923-9.113 3.252l-.241.1c.279-1.99.558-3.902.814-5.397 2.686-1.174 5.167-1.784 9.089-2.561.915-.182 1.447-.896 1.356-1.817-.085-.875-.778-1.805-1.89-1.805-.134 0-.268.014-.399.04-3.092.614-5.487 1.168-7.849 2.032a1.63 1.63 0 0 0-.216-.28 1.973 1.973 0 0 0-1.404-.57c-.683 0-1.5.352-1.743 1.339-.025.1-.071.266-.126.459v.019c-.095.335-.212.75-.279 1.058-.478.14-2.216.446-3.901.737l-.083.015c-1.977.34-4.214.726-5.643 1.051.042-1.09.083-2.05.123-2.935.024-.53.036-1.078.049-1.61v-.308c1.645-.243 3.281-.496 5.247-.8l.049-.01c2.145-.332 4.577-.71 6.94-1.046a1.47 1.47 0 0 0 1.012-.672 1.93 1.93 0 0 0 .261-1.5c-.217-.796-.878-1.268-1.766-1.268-.119 0-.238.009-.356.025-2.235.32-4.51.672-6.704 1.013l-.099.017c-1.453.227-2.88.448-4.33.667.075-.508.183-1.01.324-1.504a1.609 1.609 0 0 0-.246-1.479 1.904 1.904 0 0 0-1.506-.724 1.656 1.656 0 0 0-1.655 1.247c-.273.97-.449 1.966-.526 2.972-2.022.28-3.822.501-5.502.68-1.027.108-1.725.817-1.725 1.762 0 .86.803 1.866 1.8 1.76 1.605-.167 3.324-.378 5.257-.64-.01.28-.02.56-.032.84-.062 1.303-.12 2.686-.182 4.492-.666.211-1.273.419-1.857.634-.77.28-1.32 1.222-1.228 2.086.077.72.559 1.212 1.302 1.318.428.073.866.064 1.29-.027.098-.021.215-.046.351-.079l-.049 1.398c-.126 3.611-.256 7.346-.462 11.018a1.594 1.594 0 0 0 .412 1.221 1.749 1.749 0 0 0 1.271.514c.868 0 1.779-.582 1.84-1.694.21-3.703.34-7.452.465-11.076l.081-2.314c1.942-.5 6.266-1.375 8.349-1.797l.327-.069ZM731.49 108.992c-.104-.838-.755-1.694-1.796-1.694a1.981 1.981 0 0 0-.491.065c-4.278 1.086-7.359 1.913-10.948 3.428.056-.782.139-1.699.253-2.729.027-.01.054-.019.079-.03 1.101-.451 2.02-.839 2.627-1.104 2.296-.979 3.56-1.517 6.945-2.446 1.118-.308 1.397-1.258 1.301-1.991-.109-.822-.75-1.655-1.761-1.655a2.05 2.05 0 0 0-.523.073c-3.435.944-4.712 1.489-7.027 2.476-.351.149-.718.307-1.118.475.28-1.993.59-4.033.887-5.758 1.176-.495 2.453-.838 3.655-1.143 1.64-.411 2.654-.584 3.829-.786h.013c.605-.103 1.358-.23 2.32-.419.915-.179 1.448-.889 1.359-1.817-.084-.878-.778-1.817-1.895-1.817-.132 0-.264.012-.393.037-.955.186-1.887.342-2.793.493-1.816.301-3.703.613-5.507 1.17a1.644 1.644 0 0 0-.39-.63 1.975 1.975 0 0 0-1.396-.567c-.683 0-1.5.35-1.743 1.336-.091.37-.205.909-.338 1.608a14.417 14.417 0 0 0-2.14 1.635c-.558.516-.729 1.198-.466 1.873a2.04 2.04 0 0 0 1.79 1.271c-.794 5.103-1.55 11.277-1.297 13.368.128 1.054.885 1.791 1.843 1.791.318-.003.631-.079.915-.223 4.602-2.247 8.082-3.131 12.899-4.354 1.106-.275 1.395-1.216 1.307-1.936ZM681.38 117.932c.205-2.526.515-5.47.817-8.314v-.063c.211-1.996.429-4.054.603-5.918a278.307 278.307 0 0 1 .736-7.135c.123-1.094.249-2.226.52-3.301a1.506 1.506 0 0 0-.268-1.324 1.878 1.878 0 0 0-1.45-.688 1.622 1.622 0 0 0-1.445.83c-.699 1.211-1.317 2.457-1.919 3.662-.379.756-.807 1.614-1.238 2.423-.793 1.497-1.463 2.691-2.129 3.755a23.02 23.02 0 0 1-.605.928c-.335-.921-1.11-3.168-1.591-4.871a90.318 90.318 0 0 0-1.038-3.331c-.164-.508-.329-1.016-.488-1.517a5.438 5.438 0 0 0-.062-.403l-.007-.019a4.776 4.776 0 0 0-.194-.49c-.261-.504-.825-.818-1.473-.818a1.865 1.865 0 0 0-.859.205c-.19.1-.357.237-.492.404-.05.049-.096.1-.14.155a1.495 1.495 0 0 0-.279.686 7.272 7.272 0 0 0-.19 1.47 8.729 8.729 0 0 1-.051.644c-.264 1.957-.429 4.038-.537 6.755a691.856 691.856 0 0 0-.396 15.21 1.5 1.5 0 0 0 .419 1.108 1.772 1.772 0 0 0 1.266.498c.848 0 1.715-.548 1.732-1.595.039-2.617.127-5.636.211-8.556.059-2.007.106-3.665.14-5.205.011-.457.023-.927.042-1.398.751 2.073 1.645 3.599 2.801 4.79.324.307.757.473 1.203.461.323.007.64-.087.907-.268 1.583-1.135 2.654-2.96 3.615-4.762-.048.488-.094.977-.14 1.466-.167 1.798-.38 3.81-.585 5.758l-.01.09c-.311 2.961-.634 6.022-.852 8.699a1.396 1.396 0 0 0 .348 1.096 1.639 1.639 0 0 0 1.207.485c.87 0 1.791-.551 1.871-1.602ZM686.826 116.084a222.868 222.868 0 0 0 1.919-6.392 491.5 491.5 0 0 1 5.127-2.586 84.774 84.774 0 0 0 3.631 9.785c.256.573.885.942 1.606.942.33.003.655-.081.943-.243.853-.499 1.127-1.503.681-2.498-1.257-2.796-2.392-5.95-3.491-9.632.916-.44 1.74-.839 2.514-1.199.75-.353 1.107-1.056.933-1.834-.175-.779-.9-1.585-1.915-1.585-.287.001-.57.067-.828.191-.568.267-1.143.54-1.725.818a198.149 198.149 0 0 1-1.397-5.61c-.174-.75-.37-1.513-.595-2.335a14.558 14.558 0 0 1-.237-1.008l-.017-.087a1.757 1.757 0 0 0-.106-1.588 1.99 1.99 0 0 0-1.654-.933c-.327-.004-.646.099-.91.292a2.397 2.397 0 0 0-.939 1.398l-.064-.019-.075.344c-1.669 4.533-3.004 9.226-4.295 13.774l-.303 1.055-.13.069a1.985 1.985 0 0 0-.317.14c-.12.063-.234.128-.341.191a6.988 6.988 0 0 1-.312.175l-.323.166.013.031a1.603 1.603 0 0 0-.581 1.716c.131.522.458.973.914 1.258a176.17 176.17 0 0 1-1.283 4.194 1.654 1.654 0 0 0 .212 1.537 1.985 1.985 0 0 0 1.589.762 1.771 1.771 0 0 0 1.756-1.289Zm3.302-11.239a250.42 250.42 0 0 1 1.653-5.575l.031.14c.207.888.438 1.893.698 2.884.105.408.215.809.323 1.208-.856.417-1.742.852-2.705 1.343Z"/><path fill="#D7244F" d="M711.921 110.833a1.858 1.858 0 0 0-.898.239c-1.524.829-2.753 1.358-3.986 1.713a7.45 7.45 0 0 1-1.968.292l-.068-.01c-.093-.512.037-1.24.139-1.832.182-1.024.39-2.184.559-3.355.978-6.732 1.497-12.137 1.697-17.527a1.7 1.7 0 0 0-.455-1.276 1.874 1.874 0 0 0-1.34-.538c-.913 0-1.862.613-1.905 1.786-.257 6.98-.866 12.958-1.915 18.81-.033.189-.072.384-.113.596l-.014.074c-.419 2.189-.954 4.913 1.211 6.362.63.42 1.397.627 2.327.627a11.327 11.327 0 0 0 2.504-.354c1.846-.426 3.578-1.289 5.168-2.16.751-.408 1.075-1.137.868-1.957-.18-.736-.868-1.49-1.811-1.49ZM775.49 112h-.139c-1.504 0-2.316 1.206-2.342 2.397-.027 1.145.673 2.411 2.266 2.481h.125c1.511 0 2.329-1.205 2.356-2.396.023-1.146-.675-2.412-2.266-2.482ZM756.996 98.415c-.508-3.634-2.733-6.745-5.807-8.126a8.17 8.17 0 0 0-3.328-.729c-2.152 0-4.029.895-5.282 2.516-.36.454-.669.945-.924 1.465a1.901 1.901 0 0 0 .092 1.9c.271.436.691.76 1.183.91a166.497 166.497 0 0 0-.06 8.443c.036 2.001.11 4.369.393 6.761l.048.411c-.306.034-.603.055-.887.062-1.243.03-1.88 1.024-1.867 1.99.01.902.591 1.871 1.839 1.871h.049c.596-.015 1.19-.07 1.779-.163.091.178.197.349.316.51.431.578 1.038.91 1.665.91.332-.002.658-.093.942-.264a2.058 2.058 0 0 0 .933-1.347c.07-.318.047-.65-.064-.957a15.651 15.651 0 0 0 5.33-4.073c2.913-3.436 4.244-7.842 3.65-12.09Zm-10.09-4.892c.271-.104.561-.151.852-.14h.216a3.91 3.91 0 0 1 1.298.272c1.912.645 3.449 2.709 3.918 5.251.53 2.874-.512 6.416-2.653 9.021a11.634 11.634 0 0 1-3.492 2.871c-.227-2.155-.289-4.369-.322-6.441-.062-3.681 0-7.327.183-10.835v.001ZM770.53 106.007c-.279-2.585-.581-5.257-1.076-7.859-.344-1.798-.735-3.705-1.414-5.517-.306-.817-.631-1.597-1.248-2.16a2.438 2.438 0 0 0-1.643-.653 2.246 2.246 0 0 0-1.676.752 1.88 1.88 0 0 0-.386 1.972 1.559 1.559 0 0 0-.074.172c-.699 1.852-1.317 3.749-1.922 5.583v.014c-.672 2.039-1.282 3.876-1.968 5.696-.939.301-1.186 1.142-1.11 1.775.026.205.084.405.173.592-.317.775-.677 1.678-.957 2.56-.38 1.202-.818 2.978-.234 4.509.324.839 1.033 1.37 1.851 1.37.171 0 .341-.023.506-.069a2.057 2.057 0 0 0 1.236-1.038 1.691 1.691 0 0 0 .096-1.381c-.298-.782.074-1.852.403-2.796l.078-.222c.258-.752.568-1.496.867-2.216l.081-.197c1.318-.279 2.698-.535 4.599-.855l.095.862c.359 3.287.732 6.683 1.522 9.964a1.748 1.748 0 0 0 1.76 1.405 2.122 2.122 0 0 0 1.627-.776 1.835 1.835 0 0 0 .33-1.622c-.78-3.231-1.154-6.603-1.516-9.865Zm-4.245-3.416c-1.057.177-1.933.329-2.745.479.412-1.185.819-2.413 1.2-3.566l.042-.127c.183-.55.395-1.195.617-1.856a63.453 63.453 0 0 1 .643 3.43c.015.101.032.201.044.302l.049.331c.011.083.021.14.025.171.044.276.086.556.125.836ZM777.314 100.843l.066-1.054v-.037c.044-.757.078-1.204.103-1.537v-.077c.045-.59.073-.946.116-2.3 0-.13.008-.262.014-.395l.008-.207c.055-1.342.11-2.73-.24-4.017a1.873 1.873 0 0 0-1.869-1.426 2.045 2.045 0 0 0-1.607.758 1.733 1.733 0 0 0-.28 1.568c.051.194.086.391.107.59v.122c.012.202.018.4.022.569.027.923 0 1.84-.036 2.773a40.632 40.632 0 0 1-.14 2.456v.018c-.032.42-.073.934-.127 1.865l-.045.743c-.098 1.599-.167 2.757-.149 4.567v.349c0 1.454 0 3.886 1.85 4.175.155.024.311.036.467.037.638 0 1.117-.225 1.447-.671.518-.721.375-1.77.208-2.276a1.965 1.965 0 0 1-.072-.365c0-.014.001-.06-.008-.127v-.033c0-.062-.011-.125-.014-.153-.01-.176-.015-.353-.019-.527v-.039c-.01-.411 0-.839 0-1.203.042-1.651.107-2.698.198-4.146ZM802.385 90.81a1.58 1.58 0 0 0-1.338.7l-.063-.018-.139.419c-.725 2.1-1.587 4.207-2.499 6.433l-.01.023c-.385.942-.706 1.731-1.019 2.516-.821-1.18-1.676-2.44-2.591-3.846-.32-.49-.487-.715-.624-.896a9.217 9.217 0 0 1-.665-1.024 28.89 28.89 0 0 1-.753-1.348c-.083-.163-.17-.337-.261-.532l-.036-.088a2.448 2.448 0 0 1-.064-.192 1.54 1.54 0 0 0-1.514-1.119 1.698 1.698 0 0 0-1.356.659 1.472 1.472 0 0 0-.196 1.374v.016c.848 1.945 1.267 2.585 2.186 3.984.13.197.265.407.419.636l.008.011a138.094 138.094 0 0 0 4.07 5.946c-1.464 4.072-2.235 7.374-2.425 10.39a1.459 1.459 0 0 0 .375 1.118 1.555 1.555 0 0 0 1.149.47c.781 0 1.605-.524 1.668-1.526.326-5.185 2.529-10.484 4.656-15.62l.017-.043c.709-1.712 1.381-3.33 1.99-4.955.103-.144.183-.303.237-.472.056-.172.105-.347.157-.537.043-.155.088-.316.139-.475a1.433 1.433 0 0 0-.177-1.34 1.675 1.675 0 0 0-1.341-.663ZM790.055 110.349a1.886 1.886 0 0 0-.908.24c-1.397.763-2.528 1.247-3.658 1.573a6.828 6.828 0 0 1-1.698.262c-.041-.43.061-1.013.139-1.492l.01-.049c.169-.945.361-2.015.516-3.084.872-6.03 1.396-11.49 1.582-16.69a1.745 1.745 0 0 0-.467-1.3 1.878 1.878 0 0 0-1.356-.546c-.923 0-1.879.62-1.923 1.809-.195 5.27-.779 11.111-1.785 17.852-.036.253-.085.523-.139.847-.355 1.987-.798 4.461 1.218 5.808.61.41 1.343.608 2.243.608a10.612 10.612 0 0 0 2.351-.332c1.725-.399 3.34-1.204 4.828-2.012.763-.419 1.093-1.159.883-1.986-.188-.749-.881-1.508-1.836-1.508Z"/><path fill="#D8254F" d="M803.998 122.648H728.59V136h75.408v-13.352Z"/><path fill="#fff" d="M740.632 130.493a1.716 1.716 0 0 0-.648-.42 8.024 8.024 0 0 0-.88-.279 9.331 9.331 0 0 1-.967-.302 4.721 4.721 0 0 1-.881-.429 1.883 1.883 0 0 1-.647-.714 2.312 2.312 0 0 1-.251-1.119c-.005-.315.06-.628.192-.914.131-.287.324-.541.566-.743.506-.444 1.19-.666 2.053-.666a3.584 3.584 0 0 1 1.644.396c.176.094.346.2.508.316.116.082.222.176.319.279l.095.119-.853.86a1.376 1.376 0 0 0-.271-.259 2.545 2.545 0 0 0-.34-.222 2.438 2.438 0 0 0-1.102-.253 1.631 1.631 0 0 0-1.065.328.962.962 0 0 0-.402.771.935.935 0 0 0 .249.662c.182.188.403.331.649.419.287.111.581.204.879.28.327.083.65.183.967.299.308.111.603.254.881.426.274.179.497.426.647.718.175.343.262.725.251 1.111a2.37 2.37 0 0 1-.811 1.852c-.542.478-1.29.717-2.245.717a4.34 4.34 0 0 1-1.117-.14 3.772 3.772 0 0 1-.869-.334 4.942 4.942 0 0 1-.59-.391 2.839 2.839 0 0 1-.364-.329l-.12-.149.854-.854c.016.023.043.058.081.104.079.086.165.166.255.239.134.114.279.214.433.298.197.102.404.18.619.234.265.071.539.106.814.104.529 0 .948-.129 1.257-.388.145-.115.262-.261.342-.427.079-.167.12-.35.118-.535a.932.932 0 0 0-.25-.665ZM752.248 125.041v1.225h-2.571v7.341h-1.34v-7.341h-2.569v-1.225h6.48ZM761.716 131.82a2.266 2.266 0 0 0 .672-1.636v-5.143h1.349v5.143a3.39 3.39 0 0 1-1.053 2.506 3.662 3.662 0 0 1-5.109 0 3.38 3.38 0 0 1-1.053-2.504v-5.145h1.348v5.143a2.26 2.26 0 0 0 .671 1.641 2.174 2.174 0 0 0 1.588.685 2.178 2.178 0 0 0 1.587-.685v-.005ZM771.983 125.042a4.2 4.2 0 0 1 3.062 1.266 4.207 4.207 0 0 1 1.279 3.016 4.194 4.194 0 0 1-1.279 3.017 4.2 4.2 0 0 1-3.062 1.266h-2.997v-8.565h2.997Zm-1.653 1.224v6.117h1.653a2.858 2.858 0 0 0 2.118-.888 3.134 3.134 0 0 0 0-4.341 2.84 2.84 0 0 0-.966-.666 2.842 2.842 0 0 0-1.152-.222h-1.653ZM781.207 125.041h1.346v8.566h-1.343l-.003-8.566ZM788.739 126.2c.868-.852 1.939-1.277 3.212-1.277 1.274 0 2.347.425 3.221 1.277a4.4 4.4 0 0 1 .962 4.816 4.389 4.389 0 0 1-.962 1.432c-.868.853-1.941 1.279-3.221 1.279-1.279 0-2.35-.426-3.212-1.279a4.398 4.398 0 0 1 0-6.248Zm.964 5.383a3.21 3.21 0 0 0 5.358-1.303 3.215 3.215 0 0 0-1.542-3.78 3.208 3.208 0 0 0-4.004.784 3.21 3.21 0 0 0-.734 2.04 3.075 3.075 0 0 0 .922 2.259Z"/></g></g><defs><clipPath id="a"><path fill="#fff" d="M0 0h1440v311.63H0z"/></clipPath><clipPath id="b"><rect width="172" height="48" x="632" y="88" fill="#fff" rx="4"/></clipPath></defs></svg>