<svg xmlns="http://www.w3.org/2000/svg" width="1441" height="310" fill="none"><path fill="#FBE9ED" d="M1440 0H0v310h1440V0Z" opacity=".8"/><path fill="#F3BDCA" d="M574 309h-68s26.997-9 68 0ZM574 308c3.314 0 6-2.462 6-5.5s-2.686-5.5-6-5.5-6 2.462-6 5.5 2.686 5.5 6 5.5Z"/><path fill="#F3BDCA" d="M595 309h-65s25.855-9 65 0Z"/><path fill="#F1C27D" d="M454 309h4v-2c-1.04.988-2.44 1.688-4 2Z"/><path fill="#F7CD97" d="M447 303v6h7.205c1.479-.337 2.806-1.095 3.795-2.167v-3.82L447 303ZM318.233 299v6.453a3.496 3.496 0 0 1-2.233 3.262V309h17v-9.972L318.233 299Z"/><path fill="#F7CD97" d="M318 309a3.107 3.107 0 0 0 1.451-1.058c.357-.48.548-1.047.549-1.628V301h-2v8Z"/><path fill="#F1C27D" d="m255 303.013-9-.013v5.987h1.086L255 309v-5.987Z"/><path fill="#F3BDCA" d="M272 309h-84s33.347-11.25 84 0Z"/><path fill="#F3BDCA" d="M288 309h-82s32.548-11.25 82 0ZM542 308c8.284 0 15-6.268 15-14s-6.716-14-15-14c-8.284 0-15 6.268-15 14s6.716 14 15 14Z"/><path fill="#F3BDCA" d="M552 308a6 6 0 1 0 0-12 6 6 0 0 0 0 12ZM527.5 308c4.142 0 7.5-3.134 7.5-7s-3.358-7-7.5-7c-4.142 0-7.5 3.134-7.5 7s3.358 7 7.5 7Z"/><path fill="#F3BDCA" d="M562 308c6.627 0 12-5.149 12-11.5s-5.373-11.5-12-11.5-12 5.149-12 11.5 5.373 11.5 12 11.5Z"/><path fill="#F3BDCA" d="M550.5 308c4.142 0 7.5-3.134 7.5-7s-3.358-7-7.5-7c-4.142 0-7.5 3.134-7.5 7s3.358 7 7.5 7Z"/><path fill="#E0AC69" d="M501 254.061 458.737 254v48.843a6.352 6.352 0 0 1-1.555 4.149V309H454h10.766v-54.939H501Z"/><path fill="#F7CD97" d="M524.453 285a2.502 2.502 0 0 0 1.832-4.251A2.5 2.5 0 0 0 522 282.5a2.47 2.47 0 0 0 .709 1.758 2.466 2.466 0 0 0 1.744.742Z"/><path fill="#F7CD97" d="M533.82 254H501h17.357a3.084 3.084 0 0 1 2.166.904 3.06 3.06 0 0 1 .89 2.164v22.253a3.964 3.964 0 0 1 4.3-.843 3.934 3.934 0 0 1 2.432 3.631c0 .777-.231 1.536-.664 2.182a3.947 3.947 0 0 1-4.046 1.676 3.957 3.957 0 0 1-2.022-1.07v21.072a3.05 3.05 0 0 1-.819 2.063 3.07 3.07 0 0 1-2.005.968h15.292c1.092 0 2.14-.432 2.912-1.202a4.09 4.09 0 0 0 1.207-2.9v-46.795a4.086 4.086 0 0 0-1.228-2.923 4.137 4.137 0 0 0-2.952-1.18ZM495.5 280a2.512 2.512 0 0 0-1.579.556A2.68 2.68 0 0 0 493 282h5a2.718 2.718 0 0 0-.927-1.436A2.55 2.55 0 0 0 495.5 280Z"/><path fill="#F7CD97" d="M508.547 280a2.498 2.498 0 0 0-2.342 1.508 2.506 2.506 0 0 0 .506 2.739 2.497 2.497 0 0 0 3.858-.344 2.51 2.51 0 0 0 .431-1.391 2.487 2.487 0 0 0-.704-1.765 2.47 2.47 0 0 0-1.749-.747Z"/><path fill="#F7CD97" d="M522 305.992V284.91a3.883 3.883 0 0 1-.875-4.3 3.93 3.93 0 0 1 .875-1.278v-22.263a3.023 3.023 0 0 0-.9-2.165 3.104 3.104 0 0 0-1.004-.667 3.145 3.145 0 0 0-1.186-.237H464v55H519.145a3.124 3.124 0 0 0 2.019-.959 3.035 3.035 0 0 0 .836-2.049Zm-40.623-19.998h-3.263v-3.203h3.25l.013 3.203Zm-7.416-3.654v-3.215a4.257 4.257 0 0 0 2.98-1.211 4.138 4.138 0 0 0 1.247-2.93h3.25a7.286 7.286 0 0 1-.58 2.826 7.386 7.386 0 0 1-1.635 2.39 7.5 7.5 0 0 1-2.439 1.591 7.573 7.573 0 0 1-2.872.549h.049Zm13.892 3.654c-1.941 0-3.449-1.011-3.449-2.302v-.39h1.446v.378c0 .487.952.938 2.003.938 1.05 0 2.002-.439 2.002-.926 0-.487-1.088-.694-1.953-.95-1.508-.426-3.201-.913-3.213-2.338-.013-1.425 1.421-2.302 3.176-2.302 1.755 0 3.164 1.035 3.164 2.302v.39h-1.446v-.39c0-.499-.804-.926-1.73-.926-.927 0-1.718.427-1.718.926 0 .499 1.124.694 1.952.938 1.508.438 3.226.937 3.214 2.35-.013 1.413-1.508 2.302-3.498 2.302h.05Zm11.827-3.24h-6.488c.144.539.464 1.016.911 1.357.446.342.995.528 1.56.531.43.017.858-.068 1.247-.248a2.68 2.68 0 0 0 .99-.787l.235-.28 1.174.791-.259.329a4.079 4.079 0 0 1-1.502 1.183c-.589.271-1.235.4-1.885.376a4.037 4.037 0 0 1-2.222-.672 3.95 3.95 0 0 1-1.469-1.775 3.892 3.892 0 0 1-.221-2.281 3.934 3.934 0 0 1 1.102-2.017 4.054 4.054 0 0 1 4.366-.842 3.995 3.995 0 0 1 1.793 1.459c.438.65.67 1.414.668 2.194v.682Zm5.092-3.239h-2.287v4.189c0 .634.532.963 1.558.963h.716v1.327h-.716c-1.891 0-2.991-.853-3.004-2.326v-4.19h-1.359v-1.364h1.335v-1.863h1.446v1.851h2.286l.025 1.413Zm4.029 6.516a4.057 4.057 0 0 1-2.223-.672 3.964 3.964 0 0 1-1.469-1.776 3.889 3.889 0 0 1-.221-2.28 3.934 3.934 0 0 1 1.102-2.017 4.029 4.029 0 0 1 2.054-1.074 4.058 4.058 0 0 1 2.313.232 3.99 3.99 0 0 1 1.792 1.458c.438.651.671 1.414.668 2.195a3.932 3.932 0 0 1-1.215 2.777 4.05 4.05 0 0 1-2.851 1.12l.05.037Zm6.476-5.079v5.042h-1.434v-11.083h1.446l-.012 6.041Zm4.066 4.872-3.708-3.106v-1.364l3.967-3.252h2.151l-1.397 1.218-3.337 2.728 4.721 3.946h-2.286l-.111-.17Z"/><path fill="#231F20" d="M488.204 281.284c-.72-.247-1.699-.58-1.699-.951 0-.37.699-.938 1.495-.938.796 0 1.505.432 1.505.938v.395h1.301v-.395c0-1.234-1.236-2.321-2.752-2.333-1.516-.012-2.764 1.049-2.764 2.333 0 1.284 1.484 1.939 2.796 2.371.753.259 1.699.58 1.699.963 0 .382-.828.938-1.742.938s-1.742-.457-1.742-.951v-.382H485v.395c0 1.308 1.312 2.333 3 2.333s3-1.012 3-2.321c0-1.309-1.484-1.951-2.796-2.395ZM496.084 278.006a3.76 3.76 0 0 0-1.546.238 3.844 3.844 0 0 0-1.328.85 4.005 4.005 0 0 0-.895 1.324 4.12 4.12 0 0 0 0 3.164c.208.5.513.95.895 1.324.382.374.834.663 1.328.85a3.76 3.76 0 0 0 1.546.238 3.854 3.854 0 0 0 1.82-.381 3.976 3.976 0 0 0 1.451-1.199l.251-.334-1.134-.802-.227.284a2.611 2.611 0 0 1-.957.797 2.514 2.514 0 0 1-1.204.252 2.428 2.428 0 0 1-1.508-.538 2.58 2.58 0 0 1-.881-1.375H500v-.692a4.138 4.138 0 0 0-.302-1.54 4.022 4.022 0 0 0-.851-1.302 3.861 3.861 0 0 0-1.27-.864 3.762 3.762 0 0 0-1.493-.294Zm-2.389 3.296a2.56 2.56 0 0 1 .88-1.373c.432-.344.963-.53 1.509-.528a2.444 2.444 0 0 1 1.506.541c.431.346.741.828.882 1.373l-4.777-.013Z"/><path fill="#30C495" d="M502.738 276h-1.43v1.902H500v1.402h1.308v4.306c0 1.514 1.1 2.39 2.971 2.39h.709v-1.402h-.709c-1.015 0-1.528-.338-1.541-.988v-4.306H505v-1.414h-2.262V276Z"/><path fill="#30C495" d="M509 278a4.004 4.004 0 0 0-3.696 2.469 4.009 4.009 0 0 0-.227 2.311 3.992 3.992 0 0 0 1.095 2.048c.559.56 1.272.941 2.048 1.095A4.004 4.004 0 0 0 513 282a4.014 4.014 0 0 0-4-4Zm0 6.593a2.608 2.608 0 0 1-2.595-3.095 2.6 2.6 0 0 1 2.044-2.064 2.605 2.605 0 0 1 3.119 2.566 2.596 2.596 0 0 1-2.58 2.593H509ZM524.473 286a3.179 3.179 0 0 0 1.659-.468 3.719 3.719 0 0 0 1.27-1.301 4.35 4.35 0 0 0 .58-1.829 4.502 4.502 0 0 0-.246-1.923 4.002 4.002 0 0 0-1.015-1.564 3.36 3.36 0 0 0-1.544-.836 3.114 3.114 0 0 0-1.708.09 3.46 3.46 0 0 0-1.469.995v5.672c.658.742 1.546 1.16 2.473 1.164Zm0-6.613c.456-.007.903.14 1.286.422.382.283.682.688.86 1.165.179.477.23 1.003.145 1.513a2.748 2.748 0 0 1-.622 1.347c-.32.369-.729.622-1.176.726a2.037 2.037 0 0 1-1.332-.143 2.38 2.38 0 0 1-1.037-.962 2.871 2.871 0 0 1-.39-1.455c-.001-.342.056-.68.17-.996.114-.316.281-.604.492-.847.212-.242.463-.435.74-.567.277-.133.574-.201.875-.203h-.011ZM522 285v-6a4.41 4.41 0 0 0-.74 1.374A5.15 5.15 0 0 0 521 282c0 .558.088 1.111.26 1.626.172.514.423.982.74 1.374ZM514 286h.983l.009-2.01V280.981L515 275h-.992L514 286ZM516.367 281.994l3.254-2.77L521 278h-2.105l-3.883 3.301-.012 1.385 3.689 3.153.194.161h2.105l-4.621-4.006ZM474 278.897V282c2.109-.003 4.132-.74 5.63-2.05 1.497-1.311 2.349-3.089 2.37-4.95h-3.478c-.027 1.042-.516 2.033-1.361 2.761-.845.728-1.98 1.136-3.161 1.136Z"/><path fill="#231F20" d="m478.503 282.849-.004 3.204 3.203.004.005-3.203-3.204-.005Z"/><path fill="#E0AC69" d="M402 224.133 312.739 224a4.749 4.749 0 0 0-3.347 1.379A4.714 4.714 0 0 0 308 228.71v25.427h24.739c1.086 0 2.128.43 2.896 1.196a4.072 4.072 0 0 1 1.199 2.885v46.568a4.06 4.06 0 0 1-1.126 2.799 4.088 4.088 0 0 1-2.75 1.258V309h11.969v-84.758l57.073-.109Zm-68.933 8.476h-14.581v-8.476h14.581v8.476Z"/><path fill="#F7CD97" d="M437.239 264a4.367 4.367 0 0 0-2.997 1.172A3.888 3.888 0 0 0 433 268c0 1.061.447 2.078 1.242 2.828a4.367 4.367 0 0 0 2.997 1.172 4.337 4.337 0 0 0 2.243-.644 3.994 3.994 0 0 0 1.518-1.685v-3.33a4.01 4.01 0 0 0-1.517-1.69 4.354 4.354 0 0 0-2.244-.651ZM433.542 228.747 433.481 263a6.121 6.121 0 0 1 7.862-.616v-5.483c0-.804.321-1.576.894-2.144a3.065 3.065 0 0 1 2.16-.888H459v-23.552a6.286 6.286 0 0 0-1.864-4.467 6.395 6.395 0 0 0-4.5-1.85H402h26.772a4.754 4.754 0 0 1 3.385 1.384 4.679 4.679 0 0 1 1.385 3.363ZM447.892 308.771h-3.713a3.044 3.044 0 0 1-2.147-.885 3.018 3.018 0 0 1-.889-2.138v-33.11a6.065 6.065 0 0 1-7.813-.638v32.351a4.69 4.69 0 0 1-1.258 3.162A4.729 4.729 0 0 1 429 309h23.464a5.91 5.91 0 0 0 1.536-.217h-6.108v-.012Z"/><path fill="#F7CD97" d="M457.41 258.625h-9.506V253h-3.809a3.09 3.09 0 0 0-2.189.911 3.118 3.118 0 0 0-.906 2.199v5.625a6.17 6.17 0 0 1 1.906 2.208 6.216 6.216 0 0 1-1.906 7.889v34.058c0 .825.326 1.616.906 2.199a3.09 3.09 0 0 0 2.189.911h3.797v-5.625h9.505v3.581a6.42 6.42 0 0 0 1.603-4.225V253h-1.516l-.074 5.625Z"/><path fill="#F7CD97" d="m448 259.982 9.987.018.013-7.982-8.782-.018h-1.205l-.013 7.982ZM435.938 304.342v-32.583a6.06 6.06 0 0 1-1.371-1.976 5.92 5.92 0 0 1 0-4.673 6.05 6.05 0 0 1 1.371-1.976l.062-34.403a4.661 4.661 0 0 0-1.422-3.341 4.938 4.938 0 0 0-3.434-1.39H345v84.915l58.515.085h27.903a4.927 4.927 0 0 0 3.194-1.474 4.66 4.66 0 0 0 1.326-3.184Zm-63.672-30.982h-4.994v-4.962h4.994v4.962Zm-11.648-5.617v-4.961a6.763 6.763 0 0 0 2.524-.483c.8-.32 1.528-.791 2.141-1.384a6.406 6.406 0 0 0 1.433-2.076 6.25 6.25 0 0 0 .507-2.45h5.106c-.007 3.014-1.244 5.902-3.439 8.03-2.195 2.129-5.17 3.324-8.272 3.324Zm21.761 5.714c-3.034 0-5.394-1.565-5.394-3.554v-.595h2.26v.595c0 .752 1.498 1.443 3.134 1.443 1.635 0 3.146-.679 3.146-1.431s-1.698-1.068-3.059-1.456c-2.359-.667-4.994-1.431-4.994-3.639 0-1.965 2.235-3.554 4.994-3.542 2.759.012 4.994 1.601 4.994 3.554v.594h-2.26v-.606c0-.764-1.248-1.432-2.709-1.432s-2.734.716-2.734 1.444c0 .57 1.773 1.08 3.071 1.456 2.36.667 4.994 1.431 4.994 3.639-.037 1.977-2.409 3.53-5.443 3.53Zm18.602-5.01h-10.15a3.87 3.87 0 0 0 1.419 2.106c.701.53 1.563.817 2.451.817h.038a4.298 4.298 0 0 0 1.96-.376 4.188 4.188 0 0 0 1.56-1.213l.35-.436 1.835 1.213-.4.497a6.405 6.405 0 0 1-2.351 1.835 6.58 6.58 0 0 1-2.954.591h-.075a6.374 6.374 0 0 1-3.468-1.022 6.108 6.108 0 0 1-2.3-2.722 5.907 5.907 0 0 1-.355-3.504 6.015 6.015 0 0 1 1.709-3.106 6.302 6.302 0 0 1 3.196-1.66 6.41 6.41 0 0 1 3.606.345 6.21 6.21 0 0 1 2.802 2.234 5.944 5.944 0 0 1 1.052 3.37l.075 1.031Zm7.977-5.01h-3.57v6.466c0 .982.836 1.492 2.497 1.492h1.123v2.11h-1.123c-2.972 0-4.682-1.322-4.707-3.639v-6.478h-2.197v-2.074h2.085v-2.851h2.259v2.851h3.571l.062 2.123Zm6.318 10.068a6.366 6.366 0 0 1-3.468-1.022 6.094 6.094 0 0 1-2.299-2.722 5.9 5.9 0 0 1-.356-3.504 6.019 6.019 0 0 1 1.709-3.106 6.302 6.302 0 0 1 3.196-1.66 6.41 6.41 0 0 1 3.606.345 6.216 6.216 0 0 1 2.802 2.234 5.947 5.947 0 0 1 1.052 3.37c0 .802-.164 1.595-.481 2.335a6.07 6.07 0 0 1-1.369 1.976 6.26 6.26 0 0 1-2.047 1.31 6.366 6.366 0 0 1-2.408.444h.063Zm10.15-7.848v7.861h-2.26v-17.19h2.26v9.329Zm6.367 7.63-5.893-4.852v-2.111l6.242-5.022h3.371l-2.197 1.844-5.219 4.233 7.404 6.066h-3.384l-.324-.158Z"/><path fill="#F7CD97" d="M392.974 264a4.164 4.164 0 0 0-2.511.836A4.007 4.007 0 0 0 389 267h8a4.067 4.067 0 0 0-1.494-2.166 4.224 4.224 0 0 0-2.532-.834ZM413.073 264.001a3.996 3.996 0 0 0-3.746 2.415 4.003 4.003 0 0 0 .814 4.382 4.004 4.004 0 0 0 4.364.908 3.993 3.993 0 0 0 1.809-1.467 3.995 3.995 0 0 0 .686-2.226 3.976 3.976 0 0 0-3.927-4.012Z"/><path fill="#231F20" d="M381.443 266.335c-1.156-.402-2.843-.946-2.843-1.554 0-.816 1.156-1.528 2.496-1.528 1.341 0 2.508.712 2.508 1.528v.647h2.092v-.634c0-2.085-2.057-3.794-4.623-3.794-2.565 0-4.622 1.683-4.622 3.781 0 2.343 2.484 3.159 4.622 3.884 1.26.415 2.831.933 2.831 1.554 0 .622-1.386 1.528-2.912 1.528-1.525 0-2.9-.738-2.9-1.541v-.634H376v.634c0 2.124 2.184 3.781 4.992 3.794 2.808.013 5.004-1.657 5.004-3.781.116-2.331-2.369-3.172-4.553-3.884ZM392.958 261.001c-1.58 0-3.095.684-4.213 1.903-1.117 1.218-1.745 2.871-1.745 4.594 0 1.724.628 3.376 1.745 4.595 1.118 1.219 2.633 1.903 4.213 1.903h.084a5.7 5.7 0 0 0 2.819-.633 6.27 6.27 0 0 0 2.245-1.966l.381-.533-1.751-1.299-.334.468a4.112 4.112 0 0 1-1.481 1.335 3.73 3.73 0 0 1-1.879.432h-.06c-.847 0-1.67-.308-2.339-.875a4.21 4.21 0 0 1-1.355-2.257H399v-1.131a7.015 7.015 0 0 0-.451-2.519 6.57 6.57 0 0 0-1.311-2.133 5.923 5.923 0 0 0-1.966-1.412 5.519 5.519 0 0 0-2.314-.472Zm-3.706 5.38a4.213 4.213 0 0 1 1.365-2.25 3.62 3.62 0 0 1 2.341-.869 3.675 3.675 0 0 1 2.364.872 4.27 4.27 0 0 1 1.39 2.26l-7.46-.013Z"/><path fill="#30C495" d="M403.391 259h-2.284v2.836H399v2.1h2.107v6.444c0 2.256 1.754 3.56 4.757 3.62H407v-2.148h-1.136c-1.627 0-2.46-.507-2.523-1.484v-6.432h3.609v-2.1h-3.609l.05-2.836Z"/><path fill="#30C495" d="M413 262a5.998 5.998 0 0 0-5.885 7.171 6.007 6.007 0 0 0 4.714 4.714 6.006 6.006 0 0 0 6.16-2.552A5.998 5.998 0 0 0 413 262Zm0 9.948a3.933 3.933 0 0 1-3.68-2.39 3.936 3.936 0 1 1 6.414 1.228 3.912 3.912 0 0 1-2.758 1.15l.024.012ZM437.384 271.746a3.971 3.971 0 0 1-2.872-1.244 4.346 4.346 0 0 1-1.19-3.003c0-1.127.428-2.207 1.19-3.003a3.972 3.972 0 0 1 2.872-1.245 3.883 3.883 0 0 1 2.157.688 4.139 4.139 0 0 1 1.459 1.799v-3.51a5.995 5.995 0 0 0-4.116-1.208 6.079 6.079 0 0 0-3.884 1.869v9.207a6.075 6.075 0 0 0 3.879 1.882 5.993 5.993 0 0 0 4.121-1.196v-3.509a4.126 4.126 0 0 1-1.46 1.793 3.858 3.858 0 0 1-2.156.68ZM443 268.006c0-.98-.181-1.947-.527-2.818-.346-.871-.848-1.621-1.464-2.188v3.325a4.95 4.95 0 0 1 .283 1.669 5.047 5.047 0 0 1-.292 1.681V273c.616-.564 1.119-1.312 1.466-2.181a7.665 7.665 0 0 0 .534-2.813ZM431 267.494a5.97 5.97 0 0 0 .518 2.441A6.326 6.326 0 0 0 433 272v-9a6.326 6.326 0 0 0-1.48 2.059 5.99 5.99 0 0 0-.52 2.435ZM420 273.987l2.967.013v-3.3l.017-1.968v-2.958L423 256h-2.967L420 273.987Z"/><path fill="#30C495" d="m425.048 267.994 4.892-4.175L432 262h-3.16l-5.84 4.941v2.082l5.524 4.738.293.227 3.171.012-6.94-6.006ZM360 263.193V268a10.972 10.972 0 0 0 7.769-3.216A11.04 11.04 0 0 0 371 257h-4.768a6.222 6.222 0 0 1-1.832 4.397 6.16 6.16 0 0 1-4.4 1.796Z"/><path fill="#231F20" d="m366.222 268.596-.008 4.963 4.963.008.008-4.963-4.963-.008Z"/><path fill="#F1C27D" d="m318.304 224.005-.012 8.543 15.834.022.012-8.543-15.834-.022Z"/><path fill="#E0AC69" d="M300 254.061 255.322 254v5.524h-9.419V254h-3.751a3.062 3.062 0 0 0-2.176.89 3.055 3.055 0 0 0-.903 2.164L239 305.946c0 .81.323 1.587.898 2.159a3.072 3.072 0 0 0 2.168.895h3.751v-5.524h9.42V309h-8.284 16.041v-54.939H300Z"/><path fill="#F7CD97" d="M322.943 285a3.46 3.46 0 0 0 1.682-.399 2.68 2.68 0 0 0 1.13-1.111 2.12 2.12 0 0 0 .194-1.448 2.392 2.392 0 0 0-.807-1.293 3.218 3.218 0 0 0-1.535-.697 3.556 3.556 0 0 0-1.742.134 2.948 2.948 0 0 0-1.355.92c-.332.412-.51.897-.51 1.394-.004.655.303 1.286.854 1.754.552.468 1.302.736 2.089.746Z"/><path fill="#F7CD97" d="M317 254.024c.411 0 .817.08 1.197.234.379.154.724.381 1.014.666.289.285.519.623.675.995.156.372.236.771.234 1.173v22.253a4.094 4.094 0 0 1 4.383-.838c.734.299 1.36.804 1.801 1.452.441.647.677 1.408.677 2.186a3.887 3.887 0 0 1-.687 2.178 4.015 4.015 0 0 1-1.802 1.441 4.11 4.11 0 0 1-2.316.224 4.054 4.054 0 0 1-2.056-1.067v15.558h12.915V309a4.22 4.22 0 0 0 2.813-1.264 4.046 4.046 0 0 0 1.152-2.814v-46.82a4.056 4.056 0 0 0-1.227-2.9 4.232 4.232 0 0 0-2.962-1.202H317v.024ZM294.5 280a2.512 2.512 0 0 0-1.579.556A2.68 2.68 0 0 0 292 282h5a2.742 2.742 0 0 0-.928-1.434A2.564 2.564 0 0 0 294.5 280ZM305 282.488a2.51 2.51 0 0 0 .701 1.766 2.435 2.435 0 0 0 1.725.746 2.31 2.31 0 0 0 .574-.119v-4.762a2.222 2.222 0 0 0-.574-.119 2.428 2.428 0 0 0-1.717.737 2.51 2.51 0 0 0-.709 1.751Z"/><path fill="#F7CD97" d="M310 282.5a2.57 2.57 0 0 0-.564-1.59A2.628 2.628 0 0 0 308 280v5a2.628 2.628 0 0 0 1.436-.91 2.57 2.57 0 0 0 .564-1.59Z"/><path fill="#F7CD97" d="M307.411 304.323v-18.268a4.889 4.889 0 0 1-.593 0 3.926 3.926 0 0 1-3.821-2.379 3.967 3.967 0 0 1 .907-4.428 3.926 3.926 0 0 1 2.914-1.073c.199.003.398.023.593.061V254H263v55h49a4.681 4.681 0 0 1-3.235-1.405 4.739 4.739 0 0 1-1.354-3.272Zm-27.4-18.268h-3.184v-3.203h3.196l-.012 3.203Zm-7.264-3.654v-3.215a4.117 4.117 0 0 0 2.915-1.212 4.163 4.163 0 0 0 1.213-2.929h3.197a7.415 7.415 0 0 1-2.166 5.212 7.3 7.3 0 0 1-5.196 2.144h.037Zm13.597 3.654c-1.889 0-3.378-1.011-3.378-2.302v-.39h1.404v.378c0 .487.932.938 1.962.938 1.029 0 1.973-.439 1.973-.926 0-.487-1.065-.694-1.925-.95-1.465-.426-3.136-.913-3.148-2.338-.012-1.425 1.405-2.302 3.112-2.302s3.099 1.035 3.099 2.302v.39h-1.416v-.39c0-.5-.799-.926-1.695-.926s-1.695.426-1.695.926c0 .499 1.113.694 1.925.938 1.477.438 3.148.937 3.136 2.35-.013 1.413-1.49 2.302-3.391 2.302h.037Zm11.587-3.24h-6.345c.141.539.455 1.016.893 1.357a2.51 2.51 0 0 0 1.529.531 2.646 2.646 0 0 0 2.204-1.035l.217-.28 1.151.791-.255.329a3.997 3.997 0 0 1-3.305 1.559h-.061a3.93 3.93 0 0 1-3.616-2.447 3.957 3.957 0 0 1 .863-4.298 3.921 3.921 0 0 1 2.012-1.073 3.9 3.9 0 0 1 2.266.231 3.93 3.93 0 0 1 1.756 1.459c.429.65.657 1.414.654 2.194l.037.682Zm4.988-3.239h-2.228v4.189c0 .634.533.962 1.538.962h.642v1.328h-.715c-1.852 0-2.918-.853-2.93-2.326v-4.19h-1.307v-1.364h1.319v-1.863h1.417v1.851h2.216l.048 1.413Z"/><path fill="#F7CD97" d="M319.7 300.475h2.3V284.91a4.044 4.044 0 0 1-1.069-1.272 3.403 3.403 0 0 1-.396-1.517c.007-.523.14-1.039.392-1.518a3.98 3.98 0 0 1 1.073-1.271v-22.263a2.61 2.61 0 0 0-.276-1.173 3.07 3.07 0 0 0-.796-.996 3.763 3.763 0 0 0-1.194-.666 4.32 4.32 0 0 0-1.411-.234H307v24.236c1.119.138 2.14.606 2.879 1.318.738.712 1.144 1.621 1.144 2.561s-.406 1.849-1.144 2.561c-.739.712-1.76 1.18-2.879 1.318v18.268c-.004 1.237.575 2.426 1.613 3.311 1.038.886 2.452 1.398 3.939 1.427h6.064a4.29 4.29 0 0 0 1.084-.244v-8.281Zm-5.727-19.487v5.006h-1.714v-11.132h1.699l.015 6.126Zm.351 1.827v-1.364l4.717-3.251h2.549l-1.67 1.217-3.941 2.728 5.596 3.946h-2.505l-.249-.158-4.497-3.118Z"/><path fill="#231F20" d="M286.726 281.284c-.841-.247-1.995-.58-1.995-.951 0-.37.828-.938 1.756-.938.929 0 1.757.432 1.757.938v.395h1.467v-.395c0-1.234-1.442-2.321-3.211-2.333-1.769-.012-3.211 1.049-3.224 2.333-.013 1.284 1.744 1.939 3.262 2.371.89.259 1.994.58 1.994.963 0 .382-.978.938-2.045.938-1.066 0-2.032-.457-2.032-.951v-.382H283v.395c0 1.308 1.543 2.333 3.5 2.333s3.5-1.012 3.5-2.321c0-1.309-1.744-1.951-3.274-2.395Z"/><path fill="#231F20" d="M294.084 278.006a3.76 3.76 0 0 0-1.546.238 3.844 3.844 0 0 0-1.328.85 4.005 4.005 0 0 0-.895 1.324 4.12 4.12 0 0 0 0 3.164c.208.5.513.95.895 1.324.382.374.834.663 1.328.85a3.76 3.76 0 0 0 1.546.238h.059a3.851 3.851 0 0 0 1.814-.384 3.988 3.988 0 0 0 1.446-1.196l.251-.334-1.135-.802-.215.284a2.624 2.624 0 0 1-.962.799 2.54 2.54 0 0 1-1.211.25 2.432 2.432 0 0 1-1.508-.538 2.577 2.577 0 0 1-.88-1.375H298v-.692c0-.529-.102-1.054-.299-1.542a4.004 4.004 0 0 0-.851-1.304 3.855 3.855 0 0 0-1.271-.864 3.768 3.768 0 0 0-1.495-.29Zm-2.389 3.296a2.56 2.56 0 0 1 .88-1.373c.432-.344.963-.53 1.509-.528a2.457 2.457 0 0 1 1.504.543c.431.346.741.827.884 1.371l-4.777-.013Z"/><path fill="#30C495" d="M300.757 276h-1.433v1.902H298v1.402h1.324v4.306c0 1.514 1.09 2.39 2.965 2.39H303v-1.402h-.711c-1.017 0-1.544-.338-1.556-.988v-4.306H303v-1.414h-2.267l.024-1.89Z"/><path fill="#30C495" d="M307.373 284.596a2.75 2.75 0 0 1-1.908-.762 2.56 2.56 0 0 1-.79-1.842c0-.69.284-1.353.79-1.841a2.752 2.752 0 0 1 1.908-.763c.214.015.425.057.627.124v-1.444a3.763 3.763 0 0 0-.627-.062 4.282 4.282 0 0 0-1.654.238 4.156 4.156 0 0 0-1.423.85 4.003 4.003 0 0 0-.958 1.323 3.88 3.88 0 0 0 0 3.163c.223.499.549.95.958 1.323.409.374.893.663 1.423.85a4.282 4.282 0 0 0 1.654.238c.209.012.418.012.627 0v-1.456a2.637 2.637 0 0 1-.627.061ZM311 282c.002-.968-.3-1.904-.851-2.638-.551-.734-1.313-1.218-2.149-1.362v1.467c.482.148.909.473 1.213.927.304.453.469 1.009.469 1.581 0 .572-.165 1.128-.469 1.581a2.277 2.277 0 0 1-1.213.927V286c.834-.149 1.594-.634 2.144-1.367.549-.733.853-1.667.856-2.633ZM322.904 286a4.143 4.143 0 0 0 2.896-1.172A3.953 3.953 0 0 0 327 282a3.953 3.953 0 0 0-1.2-2.828 4.143 4.143 0 0 0-2.896-1.172c-1.087 0-2.13.418-2.904 1.164v5.672a4.155 4.155 0 0 0 2.904 1.164Zm0-6.613a2.731 2.731 0 0 1 1.497.422c.445.283.794.688 1.002 1.165a2.56 2.56 0 0 1 .168 1.513 2.597 2.597 0 0 1-.723 1.347c-.373.369-.85.622-1.37.726-.52.104-1.06.054-1.551-.143a2.658 2.658 0 0 1-1.207-.962 2.566 2.566 0 0 1-.256-2.451c.132-.316.327-.604.573-.847a2.707 2.707 0 0 1 1.88-.77h-.013ZM320 285v-6a4.383 4.383 0 0 0-.733 1.367A5.326 5.326 0 0 0 319 282c.007.562.099 1.116.27 1.631.172.515.42.981.73 1.369ZM312 286h.992v-4.561l.008-.458V275h-.983L312 286Z"/><path fill="#30C495" d="m319.988 286-4.621-4.006 3.254-2.77L320 278h-2.105L314 281.301v1.385l3.677 3.153.206.161h2.105ZM273 278.897V282a6.982 6.982 0 0 0 4.926-2.05A7.097 7.097 0 0 0 280 275h-3.055a3.993 3.993 0 0 1-1.183 2.76 3.929 3.929 0 0 1-2.762 1.137Z"/><path fill="#231F20" d="m277.001 282.849-.005 3.203 3.204.005.004-3.204-3.203-.004Z"/><path fill="#F1C27D" d="m246 259.987 10 .013v-5.987l-8.781-.013H246v5.987Z"/><path fill="#F3BDCA" d="M230.5 308c8.56 0 15.5-7.163 15.5-16s-6.94-16-15.5-16c-8.56 0-15.5 7.163-15.5 16s6.94 16 15.5 16Z"/><path fill="#F3BDCA" d="M245.5 308c4.142 0 7.5-2.91 7.5-6.5s-3.358-6.5-7.5-6.5c-4.142 0-7.5 2.91-7.5 6.5s3.358 6.5 7.5 6.5ZM214.5 308c5.247 0 9.5-3.806 9.5-8.5s-4.253-8.5-9.5-8.5-9.5 3.806-9.5 8.5 4.253 8.5 9.5 8.5Z"/><path fill="#F3BDCA" d="M248 308c8.284 0 15-6.044 15-13.5s-6.716-13.5-15-13.5c-8.284 0-15 6.044-15 13.5s6.716 13.5 15 13.5Z"/><path fill="#F3BDCA" d="M262.5 308c4.142 0 7.5-3.134 7.5-7s-3.358-7-7.5-7c-4.142 0-7.5 3.134-7.5 7s3.358 7 7.5 7ZM233 308c4.971 0 9-3.806 9-8.5s-4.029-8.5-9-8.5-9 3.806-9 8.5 4.029 8.5 9 8.5ZM175.42 91.45c13.569 0 24.57-9.774 24.57-21.83s-11.001-21.83-24.57-21.83c-13.57 0-24.57 9.774-24.57 21.83s11 21.83 24.57 21.83Z"/><path fill="#F3BDCA" d="M199.99 91.44c6.788 0 12.29-4.885 12.29-10.91s-5.502-10.91-12.29-10.91c-6.787 0-12.29 4.885-12.29 10.91s5.503 10.91 12.29 10.91ZM150.85 91.45c8.34 0 15.1-6.004 15.1-13.41 0-7.406-6.76-13.41-15.1-13.41-8.339 0-15.1 6.004-15.1 13.41 0 7.406 6.761 13.41 15.1 13.41Z"/><path fill="#F3BDCA" d="M235.11 94.57H112.92s48.5-24.05 122.19 0ZM1167.21 90.19c17.94 0 32.48-12.917 32.48-28.85 0-15.933-14.54-28.85-32.48-28.85-17.94 0-32.48 12.917-32.48 28.85 0 15.933 14.54 28.85 32.48 28.85Z"/><path fill="#F3BDCA" d="M1134.73 90.2c8.97 0 16.24-6.46 16.24-14.43s-7.27-14.43-16.24-14.43c-8.97 0-16.24 6.46-16.24 14.43s7.27 14.43 16.24 14.43ZM1199.69 90.19c11.02 0 19.95-7.933 19.95-17.72 0-9.786-8.93-17.72-19.95-17.72s-19.95 7.934-19.95 17.72c0 9.787 8.93 17.72 19.95 17.72Z"/><path fill="#F3BDCA" d="M1078.15 92.45h178.12s-70.71-25.89-178.12 0ZM314.58 310s-47.44-22.33-131.92-36.48a55.103 55.103 0 0 0 7.81-28.24c0-32.69-28.94-59.19-64.65-59.19a70.24 70.24 0 0 0-17.49 2.21C95 155.83 60.71 132.74 20.57 132.74c-6.91-.001-13.802.699-20.57 2.09V310h314.58Z"/><path fill="#EB92A7" d="M216.05 310s-32.58-16.15-90.6-26.38a41.444 41.444 0 0 0 5.37-20.42c0-23.64-19.89-42.8-44.41-42.8a45.713 45.713 0 0 0-12 1.6c-9.19-23.48-32.7-40.18-60.27-40.18A66.361 66.361 0 0 0 0 183.34V310h216.05Z"/><path fill="#D7244F" d="m956.84 43.41-89.481 17v119.21a34.07 34.07 0 0 0 5.52 18.67c11.42 17.51 64.51 60.51 84 60.51 20.53 0 72.611-43.07 84.001-60.56a34.164 34.164 0 0 0 5.48-18.62V60.39l-89.52-16.98Z"/><path fill="#DF4E71" stroke="#B92045" stroke-miterlimit="10" stroke-width="5.01" d="M956.84 63.17 883.78 77v97.35a27.9 27.9 0 0 0 4.5 15.26C897.61 203.93 941 239 956.84 239c16.76 0 59.29-35.17 68.59-49.45a27.742 27.742 0 0 0 4.48-15.21V77l-73.07-13.83Z"/><path fill="#231F20" d="M956.84 43.41V258.8s60.89-17.28 88.62-71.51l.87-126.9-89.49-16.98Z" opacity=".1"/><path stroke="#fff" stroke-linecap="round" stroke-linejoin="round" stroke-width="15.02" d="m914.23 148.64 30.221 21.37 55.01-51.04"/><path fill="#EB92A7" d="M1142.33 261.1c16.3 0 29.52-12.715 29.52-28.4 0-15.685-13.22-28.4-29.52-28.4-16.3 0-29.52 12.715-29.52 28.4 0 15.685 13.22 28.4 29.52 28.4Z"/><path fill="#EB92A7" d="M1171.84 261.1c8.15 0 14.76-6.358 14.76-14.2s-6.61-14.2-14.76-14.2c-8.15 0-14.76 6.358-14.76 14.2s6.61 14.2 14.76 14.2ZM1112.81 261.11c10.01 0 18.13-7.813 18.13-17.45s-8.12-17.45-18.13-17.45-18.13 7.813-18.13 17.45 8.12 17.45 18.13 17.45Z"/><path fill="#EB92A7" d="M1014.77 263.61h183.4s-72.8-28.87-183.4 0ZM1005.05 262.38c18.31 0 33.16-14.287 33.16-31.91 0-17.623-14.85-31.91-33.16-31.91-18.314 0-33.16 14.287-33.16 31.91 0 17.623 14.846 31.91 33.16 31.91Z"/><path fill="#EB92A7" d="M1038.21 262.38c9.16 0 16.58-7.141 16.58-15.95s-7.42-15.95-16.58-15.95c-9.16 0-16.58 7.141-16.58 15.95s7.42 15.95 16.58 15.95ZM971.89 262.38c11.25 0 20.37-8.775 20.37-19.6 0-10.825-9.12-19.6-20.37-19.6-11.251 0-20.37 8.775-20.37 19.6 0 10.825 9.119 19.6 20.37 19.6Z"/><path fill="#EB92A7" d="M1096 264.87H914.13s72.19-28.63 181.87 0Z"/><path fill="#F3BDCA" d="M948.86 263.26c9.422 0 17.06-8.054 17.06-17.99 0-9.936-7.638-17.99-17.06-17.99-9.422 0-17.06 8.054-17.06 17.99 0 9.936 7.638 17.99 17.06 17.99Z"/><path fill="#F3BDCA" d="M965.52 263.25c4.656 0 8.43-3.353 8.43-7.49 0-4.137-3.774-7.49-8.43-7.49s-8.43 3.353-8.43 7.49c0 4.137 3.774 7.49 8.43 7.49ZM931.8 263.25c5.722 0 10.36-4.119 10.36-9.2 0-5.081-4.638-9.2-10.36-9.2-5.721 0-10.36 4.119-10.36 9.2 0 5.081 4.639 9.2 10.36 9.2Z"/><path fill="#F3BDCA" d="M994.89 264.42h-92.47s36.71-13.42 92.47 0Z"/><path fill="#F3BDCA" d="M968.47 262.56c9.014 0 16.32-6.492 16.32-14.5s-7.306-14.5-16.32-14.5c-9.013 0-16.32 6.492-16.32 14.5s7.307 14.5 16.32 14.5Z"/><path fill="#F3BDCA" d="M984.79 262.56c4.506 0 8.16-3.246 8.16-7.25s-3.654-7.25-8.16-7.25c-4.507 0-8.16 3.246-8.16 7.25s3.653 7.25 8.16 7.25ZM952.15 262.56c5.54 0 10.03-3.989 10.03-8.91s-4.49-8.91-10.03-8.91c-5.539 0-10.03 3.989-10.03 8.91s4.491 8.91 10.03 8.91Z"/><path fill="#F3BDCA" d="M1012.28 264.11h-89.49s35.52-13 89.49 0Z"/><path fill="#000" d="M1063.74 167.51a.43.43 0 0 1-.16 0 .286.286 0 0 1-.12-.084.334.334 0 0 1-.08-.125.375.375 0 0 1-.03-.147.68.68 0 0 1 .04-.144l2.4-5.47a.343.343 0 0 1 .09-.122.28.28 0 0 1 .12-.08c.05-.018.1-.027.15-.026a.433.433 0 0 1 .27.119.52.52 0 0 1 .08.126c.01.047.02.097.02.147 0 .051-.01.1-.03.146l-2.4 5.46a.32.32 0 0 1-.15.15.36.36 0 0 1-.2.05Z" opacity=".1"/><g opacity=".1"><path fill="#4EA785" d="m1097.56 175.94-1.14.4-4.73-11.56" opacity=".1"/><path fill="#000" d="m1096.21 176.82-4.87-11.9a.372.372 0 0 1 0-.293.341.341 0 0 1 .09-.124.284.284 0 0 1 .12-.083c.05-.019.1-.029.15-.028.05 0 .1.01.14.03.05.019.09.047.13.083.03.036.06.078.08.125l4.59 11.23.79-.28c.1-.032.2-.025.29.02.1.045.17.124.2.22s.02.2-.02.29a.382.382 0 0 1-.22.19l-1.47.52Z" opacity=".1"/></g><path fill="#fff" d="M1133.55 124.13c2.82-2.261 5-5.227 6.31-8.6a25.42 25.42 0 0 1-8.25-12.24 25.568 25.568 0 0 1 .57-16.807 25.614 25.614 0 0 1 42.34-8.568c4 4.15 6.49 9.528 7.06 15.265a25.679 25.679 0 0 1-3.93 16.351 25.651 25.651 0 0 1-13.22 10.392 25.631 25.631 0 0 1-16.82-.043c-3.34 2.84-7.78 4.61-13.82 4.87a.358.358 0 0 1-.21-.056.315.315 0 0 1-.13-.167.323.323 0 0 1-.02-.216.346.346 0 0 1 .12-.181Z"/><path fill="#DB284E" d="M1145 90.19c4.39-7.13 11.13 0 11.13 0s6.74-7.09 11.13 0c5.46 8.88-11.13 17.68-11.13 17.68s-16.64-8.8-11.13-17.68Z"/><path fill="#F3BDCA" d="M1081.78 310a1000.902 1000.902 0 0 1 123.16-31.84 45.91 45.91 0 0 1-5.32-21.44c0-26.38 22.37-47.77 50-47.77 3.84.003 7.66.429 11.4 1.27 4.76-42.72 42.58-76 88.54-76 38.12 0 70.63 22.9 83.34 55.09 2.35-.64 4.73-1.141 7.13-1.5V310h-358.25Z"/><path fill="#EB92A7" d="M1198.34 310s36.44-18.06 101.34-29.51a46.246 46.246 0 0 1-6-22.83c0-26.45 22.23-47.88 49.66-47.88 4.54.001 9.06.599 13.44 1.78 10.28-26.26 36.58-44.94 67.42-44.94a74.68 74.68 0 0 1 15.8 1.7V310h-241.66Z"/><g clip-path="url(#a)"><path fill="#F7CD97" d="M357 256h87v24h-87z"/><path fill="#D7244F" d="m366.578 263.121.262-.053c-.392 2.546-.777 5.768-.741 6.785.018.528.407.909.925.909.164-.002.325-.04.471-.112 2.348-1.133 3.8-1.498 6.207-2.102.565-.14.713-.613.667-.973-.053-.42-.382-.847-.907-.847a1.058 1.058 0 0 0-.25.032c-2.06.517-3.44.885-5.153 1.607.037-.397.086-.855.146-1.363.333-.135.642-.262.933-.382 1.603-.658 2.662-1.094 4.565-1.607.565-.153.706-.629.659-.995-.057-.411-.381-.827-.892-.827a.996.996 0 0 0-.265.036c-1.926.523-2.993.962-4.609 1.626l-.122.05c.141-.995.282-1.951.412-2.699 1.358-.587 2.613-.891 4.597-1.28.463-.091.732-.448.686-.908-.043-.438-.394-.903-.956-.903a.983.983 0 0 0-.202.021c-1.564.306-2.775.583-3.97 1.015a.817.817 0 0 0-.11-.14 1 1 0 0 0-.71-.285c-.345 0-.758.176-.881.67l-.064.229v.01a9.57 9.57 0 0 0-.141.529c-.242.07-1.121.223-1.973.368l-.042.008c-1 .17-2.132.362-2.854.525.021-.545.041-1.025.062-1.467.012-.265.018-.539.025-.806v-.153c.832-.122 1.659-.248 2.654-.401l.024-.004c1.085-.166 2.315-.355 3.511-.523a.752.752 0 0 0 .512-.337.961.961 0 0 0 .132-.749c-.11-.398-.445-.634-.894-.634-.06 0-.12.004-.18.012-1.13.16-2.281.336-3.391.507l-.05.008c-.735.113-1.457.224-2.19.334.038-.254.093-.506.164-.752a.791.791 0 0 0-.124-.74.975.975 0 0 0-.763-.362.832.832 0 0 0-.837.624 7.644 7.644 0 0 0-.265 1.485 91.5 91.5 0 0 1-2.784.341c-.519.054-.872.408-.872.88 0 .431.406.933.911.881a89.313 89.313 0 0 0 2.659-.32c-.005.14-.01.279-.017.419-.031.652-.06 1.344-.092 2.247-.336.105-.644.209-.939.317-.389.14-.668.611-.621 1.043.039.359.283.605.658.659.217.036.438.032.653-.014.05-.01.109-.023.177-.04l-.024.699c-.064 1.806-.13 3.674-.234 5.51a.79.79 0 0 0 .208.61.911.911 0 0 0 .295.194.902.902 0 0 0 .348.063c.439 0 .9-.291.931-.847.106-1.851.172-3.726.235-5.538l.041-1.157c.982-.25 3.169-.687 4.223-.898l.166-.035ZM407.323 266.496c-.053-.419-.382-.847-.908-.847a1.05 1.05 0 0 0-.249.032c-2.163.543-3.722.957-5.537 1.715.028-.392.07-.85.128-1.365.014-.005.027-.009.04-.015a73.279 73.279 0 0 0 1.329-.552c1.161-.489 1.8-.758 3.513-1.223.565-.154.706-.629.657-.995-.055-.411-.379-.828-.89-.828-.09.001-.179.013-.265.036-1.737.472-2.383.745-3.554 1.238l-.566.238c.142-.997.299-2.016.449-2.879.595-.247 1.241-.419 1.849-.572a22.846 22.846 0 0 1 1.937-.392h.006c.306-.052.687-.116 1.173-.21.463-.09.733-.445.688-.909-.043-.439-.394-.908-.959-.908-.066 0-.133.006-.198.019-.483.093-.955.17-1.413.246-.918.151-1.873.307-2.786.585a.819.819 0 0 0-.197-.315 1.007 1.007 0 0 0-.706-.284c-.346 0-.759.176-.882.669a15.88 15.88 0 0 0-.171.803 7.369 7.369 0 0 0-1.082.818c-.282.258-.369.599-.236.937a1.028 1.028 0 0 0 .906.635c-.402 2.551-.784 5.638-.656 6.684.065.527.447.895.932.895.161-.001.319-.039.463-.111 2.327-1.124 4.088-1.565 6.524-2.177.56-.138.706-.608.661-.968ZM381.977 270.966c.104-1.263.261-2.735.413-4.157v-.031c.107-.998.217-2.027.305-2.959.096-1.017.203-2.116.337-3.253l.036-.315c.062-.547.126-1.113.263-1.65a.754.754 0 0 0-.136-.662.942.942 0 0 0-.733-.344.817.817 0 0 0-.731.415c-.354.605-.667 1.228-.971 1.83-.192.379-.408.808-.626 1.212-.401.749-.74 1.346-1.077 1.878-.103.163-.203.315-.306.464a40.574 40.574 0 0 1-.805-2.436 45.764 45.764 0 0 0-.525-1.666l-.247-.758a2.484 2.484 0 0 0-.031-.201l-.004-.01a2.234 2.234 0 0 0-.098-.245c-.132-.252-.417-.409-.745-.409a.947.947 0 0 0-.434.103.786.786 0 0 0-.249.202.863.863 0 0 0-.071.077.746.746 0 0 0-.141.343c-.057.241-.09.487-.096.735a4.676 4.676 0 0 1-.026.322c-.134.979-.217 2.019-.271 3.378a341.758 341.758 0 0 0-.201 7.605.74.74 0 0 0 .212.554.906.906 0 0 0 .641.249c.428 0 .867-.274.876-.798.019-1.308.064-2.818.106-4.278.03-1.003.054-1.832.071-2.602.005-.229.012-.464.021-.699.38 1.036.832 1.799 1.417 2.395a.859.859 0 0 0 .608.23.786.786 0 0 0 .459-.134c.801-.567 1.343-1.48 1.829-2.381l-.071.733c-.085.899-.192 1.905-.296 2.879l-.005.045c-.157 1.481-.321 3.011-.431 4.35a.688.688 0 0 0 .176.547.834.834 0 0 0 .61.243c.441 0 .907-.275.947-.801ZM384.732 270.042c.371-1.146.713-2.306.97-3.196.929-.47 1.779-.892 2.594-1.293a42.026 42.026 0 0 0 1.836 4.892c.13.287.448.472.813.472a.97.97 0 0 0 .477-.122c.431-.25.57-.751.344-1.249-.635-1.398-1.21-2.975-1.766-4.816.464-.22.881-.419 1.272-.6.379-.176.56-.527.472-.917-.089-.389-.455-.792-.969-.792a.98.98 0 0 0-.419.096c-.287.133-.578.27-.872.408a94.137 94.137 0 0 1-.706-2.804 33.412 33.412 0 0 0-.301-1.168 7.048 7.048 0 0 1-.12-.504l-.009-.043a.87.87 0 0 0-.054-.794 1.012 1.012 0 0 0-.836-.467.77.77 0 0 0-.461.146 1.195 1.195 0 0 0-.474.699l-.033-.009-.038.172c-.844 2.266-1.52 4.612-2.172 6.887l-.154.527-.065.034a1.152 1.152 0 0 0-.161.07c-.06.032-.118.065-.172.096a3.589 3.589 0 0 1-.158.087l-.163.084.006.015a.798.798 0 0 0-.294.858c.066.261.232.487.463.629-.239.8-.445 1.468-.649 2.097a.828.828 0 0 0-.044.398.828.828 0 0 0 .151.371c.095.12.217.217.357.283.139.067.292.1.447.098a.91.91 0 0 0 .555-.172.89.89 0 0 0 .333-.473Zm1.67-5.62c.222-.768.513-1.761.836-2.787l.016.07c.104.444.222.946.353 1.442.053.204.109.405.163.604-.433.209-.881.426-1.368.671Z"/><path fill="#D7244F" d="M397.425 267.417a.946.946 0 0 0-.454.119c-.771.415-1.393.679-2.016.856a3.772 3.772 0 0 1-.996.146l-.034-.004c-.047-.256.019-.62.07-.917.092-.511.197-1.091.283-1.677.494-3.366.757-6.069.858-8.763a.85.85 0 0 0-.23-.639.934.934 0 0 0-.312-.201.933.933 0 0 0-.366-.068c-.462 0-.941.307-.963.894-.13 3.49-.438 6.478-.969 9.405-.017.094-.036.192-.057.297l-.007.037c-.212 1.095-.482 2.457.612 3.182.319.209.707.313 1.177.313a5.758 5.758 0 0 0 1.267-.177c.934-.213 1.81-.644 2.614-1.08.38-.204.544-.569.439-.978-.091-.369-.439-.745-.916-.745ZM429.579 268h-.071c-.761 0-1.171.603-1.184 1.199-.014.572.34 1.205 1.146 1.24h.063c.764 0 1.178-.602 1.192-1.198.012-.573-.341-1.206-1.146-1.241ZM420.225 261.208c-.257-1.817-1.383-3.373-2.938-4.064a4.168 4.168 0 0 0-1.683-.364c-1.088 0-2.038.448-2.672 1.258a4.1 4.1 0 0 0-.467.733.944.944 0 0 0 .046.95c.138.218.35.379.599.454a83.261 83.261 0 0 0-.031 4.222c.019 1.001.056 2.185.2 3.38l.024.206a5.139 5.139 0 0 1-.449.031c-.629.015-.951.512-.944.995.004.451.298.936.93.936h.025c.301-.008.602-.035.9-.082.046.089.099.174.159.255.219.289.525.455.842.455a.941.941 0 0 0 .477-.132c.121-.075.225-.173.306-.288.082-.116.138-.247.166-.385a.859.859 0 0 0-.032-.479 7.902 7.902 0 0 0 2.695-2.037c1.474-1.717 2.147-3.92 1.847-6.044Zm-5.104-2.446a1.09 1.09 0 0 1 .431-.07h.109c.225.008.447.054.657.135.967.323 1.744 1.355 1.982 2.626.268 1.437-.259 3.208-1.342 4.511a5.896 5.896 0 0 1-1.766 1.435c-.116-1.077-.147-2.184-.164-3.22-.031-1.841 0-3.664.093-5.418v.001ZM427.071 265.003c-.142-1.292-.294-2.628-.545-3.929-.174-.899-.372-1.853-.715-2.758-.155-.409-.319-.799-.631-1.081a1.24 1.24 0 0 0-.831-.326 1.145 1.145 0 0 0-.848.376.926.926 0 0 0-.201.969l.005.017a.825.825 0 0 0-.037.086c-.353.926-.666 1.874-.972 2.791v.007a72.289 72.289 0 0 1-.995 2.848c-.475.151-.6.571-.562.888a.97.97 0 0 0 .088.296c-.161.387-.343.839-.484 1.28-.192.601-.414 1.489-.119 2.254.164.42.523.685.937.685a.955.955 0 0 0 .255-.034 1.042 1.042 0 0 0 .626-.519.844.844 0 0 0 .048-.691c-.151-.39.038-.926.204-1.398l.039-.111c.131-.376.288-.747.439-1.107l.041-.099c.667-.14 1.365-.268 2.326-.428l.048.432c.182 1.643.371 3.341.77 4.981a.872.872 0 0 0 .316.512.89.89 0 0 0 .574.191 1.09 1.09 0 0 0 .823-.388.905.905 0 0 0 .167-.811c-.394-1.616-.583-3.302-.766-4.933Zm-2.148-1.708c-.535.089-.978.165-1.388.24.208-.593.414-1.206.607-1.783l.021-.064.312-.928a31.424 31.424 0 0 1 .325 1.715l.023.151.025.166.012.085c.022.139.043.278.063.418ZM430.502 262.421l.033-.527v-.018c.022-.379.039-.602.052-.769v-.038c.023-.295.037-.473.059-1.15 0-.065.004-.131.007-.197l.004-.104c.028-.671.056-1.365-.121-2.009a.941.941 0 0 0-.946-.712 1.045 1.045 0 0 0-.813.378.85.85 0 0 0-.141.785c.025.096.043.195.054.294v.061c.006.102.009.201.011.285.013.462 0 .919-.018 1.386-.024.672-.043.903-.071 1.228v.009c-.016.21-.037.467-.064.933l-.023.372c-.049.799-.085 1.378-.076 2.283v.175c0 .726 0 1.942.936 2.087.079.012.157.018.236.018.323 0 .566-.112.732-.335.262-.361.19-.885.106-1.138a1.05 1.05 0 0 1-.037-.182c0-.007 0-.03-.004-.064v-.017c0-.031-.005-.062-.007-.076a7.903 7.903 0 0 1-.01-.263v-.02c-.005-.205 0-.419 0-.602.021-.825.055-1.349.101-2.073ZM443.183 257.405a.809.809 0 0 0-.676.35l-.032-.009-.071.209c-.366 1.05-.802 2.104-1.264 3.217l-.004.012c-.195.471-.358.865-.516 1.258a72.783 72.783 0 0 1-1.311-1.924 7.381 7.381 0 0 0-.315-.448 4.647 4.647 0 0 1-.337-.511 14.457 14.457 0 0 1-.38-.675 5.46 5.46 0 0 1-.132-.265l-.019-.044c-.012-.031-.022-.065-.032-.097a.782.782 0 0 0-.766-.559.87.87 0 0 0-.686.329.73.73 0 0 0-.099.687v.009c.429.972.641 1.292 1.106 1.991.065.099.134.204.212.318l.004.006a68.823 68.823 0 0 0 2.058 2.973c-.74 2.036-1.13 3.687-1.226 5.195a.715.715 0 0 0 .189.559.805.805 0 0 0 .582.235c.395 0 .811-.262.843-.763.165-2.592 1.279-5.242 2.355-7.81l.009-.021c.359-.856.698-1.666 1.006-2.478a.851.851 0 0 0 .121-.236c.028-.086.053-.173.079-.268.022-.078.044-.158.07-.238a.704.704 0 0 0-.089-.67.85.85 0 0 0-.679-.332ZM436.946 267.174a.978.978 0 0 0-.459.12c-.706.382-1.279.624-1.85.787-.28.079-.568.123-.859.131-.021-.215.031-.507.071-.746l.005-.025c.085-.472.182-1.007.26-1.541.442-3.016.707-5.745.801-8.346a.864.864 0 0 0-.236-.65.973.973 0 0 0-.686-.273c-.467 0-.951.311-.973.905-.099 2.635-.394 5.555-.903 8.926-.018.127-.043.261-.071.424-.179.993-.403 2.23.616 2.904.309.204.68.304 1.135.304a5.428 5.428 0 0 0 1.19-.167c.872-.199 1.689-.602 2.442-1.005.385-.21.552-.58.446-.994-.095-.374-.446-.754-.929-.754Z"/><path fill="#D8254F" d="M443.999 273.324h-38.142V280h38.142v-6.676Z"/><path fill="#fff" d="M411.947 277.246a.873.873 0 0 0-.328-.209 4.03 4.03 0 0 0-.445-.14 4.606 4.606 0 0 1-.489-.151 2.38 2.38 0 0 1-.446-.215.943.943 0 0 1-.327-.357 1.142 1.142 0 0 1-.127-.559 1.058 1.058 0 0 1 .384-.829c.255-.221.602-.332 1.038-.332a1.816 1.816 0 0 1 1.089.355c.058.041.112.088.161.14l.048.06-.432.429c-.008-.007-.019-.021-.034-.039a1.283 1.283 0 0 0-.274-.201 1.29 1.29 0 0 0-.558-.127.835.835 0 0 0-.539.165.482.482 0 0 0-.077.716.863.863 0 0 0 .328.21c.145.055.294.102.445.139.165.042.329.092.489.15.156.055.305.127.446.213a.95.95 0 0 1 .327.359c.088.172.132.363.127.555a1.172 1.172 0 0 1-.411.926c-.274.239-.652.359-1.135.359a2.203 2.203 0 0 1-1.004-.237 2.482 2.482 0 0 1-.299-.196 1.365 1.365 0 0 1-.184-.164l-.061-.075.432-.427.041.053a1.455 1.455 0 0 0 .348.268 1.594 1.594 0 0 0 .725.169c.268 0 .479-.065.636-.194a.602.602 0 0 0 .203-.66.478.478 0 0 0-.097-.154ZM417.823 274.521v.612h-1.3v3.67h-.678v-3.67h-1.3v-.612h3.278ZM422.612 277.91a1.127 1.127 0 0 0 .34-.818v-2.571h.682v2.571a1.68 1.68 0 0 1-.533 1.253 1.864 1.864 0 0 1-2.584 0 1.682 1.682 0 0 1-.532-1.252v-2.572h.681v2.571a1.131 1.131 0 0 0 .34.82 1.11 1.11 0 0 0 1.606 0v-.002ZM427.806 274.521a2.127 2.127 0 0 1 1.548.633 2.08 2.08 0 0 1 0 3.016 2.127 2.127 0 0 1-1.548.634h-1.516v-4.283h1.516Zm-.837.612v3.058h.837a1.452 1.452 0 0 0 1.07-.443 1.557 1.557 0 0 0 0-2.171 1.453 1.453 0 0 0-1.07-.444h-.837ZM432.471 274.521h.681v4.282h-.679l-.002-4.282ZM436.28 275.1c.439-.426.981-.639 1.625-.639s1.187.213 1.629.639a2.199 2.199 0 0 1 .658 1.562 2.175 2.175 0 0 1-.658 1.562c-.439.427-.982.64-1.629.64s-1.188-.213-1.625-.64a2.193 2.193 0 0 1-.658-1.562 2.179 2.179 0 0 1 .658-1.562Zm.488 2.692a1.633 1.633 0 0 0 2.052.215c.314-.205.547-.511.658-.867a1.589 1.589 0 0 0-.047-1.083 1.619 1.619 0 0 0-.733-.807 1.64 1.64 0 0 0-2.025.392 1.59 1.59 0 0 0-.371 1.02 1.53 1.53 0 0 0 .466 1.13Z"/></g><g clip-path="url(#b)"><path fill="#F7CD97" d="M272 274h55v15h-55z"/><path fill="#D7244F" d="m278.055 278.451.166-.033c-.248 1.59-.492 3.605-.469 4.24a.57.57 0 0 0 .585.568.697.697 0 0 0 .298-.07c1.484-.708 2.402-.936 3.924-1.314.357-.087.451-.383.422-.608-.034-.262-.242-.529-.574-.529a.652.652 0 0 0-.158.02c-1.302.323-2.175.553-3.258 1.004.024-.248.055-.534.093-.852l.589-.238c1.014-.412 1.683-.684 2.886-1.005.357-.096.447-.393.417-.622-.036-.256-.241-.517-.564-.517a.629.629 0 0 0-.167.023c-1.218.327-1.892.601-2.914 1.016l-.078.031c.09-.621.179-1.219.261-1.686.859-.367 1.652-.557 2.906-.8.293-.057.463-.28.434-.568-.027-.274-.249-.564-.604-.564a.611.611 0 0 0-.128.013c-.989.191-1.755.364-2.51.634a.528.528 0 0 0-.069-.087.64.64 0 0 0-.449-.178c-.218 0-.48.11-.557.418l-.04.143v.007a5.927 5.927 0 0 0-.09.33c-.153.044-.709.14-1.247.23l-.027.005c-.632.106-1.347.227-1.804.329.013-.341.026-.641.039-.918.008-.165.012-.336.016-.503v-.096c.526-.076 1.049-.155 1.678-.25l.015-.003c.686-.104 1.464-.222 2.219-.327a.463.463 0 0 0 .324-.21.586.586 0 0 0 .084-.469c-.07-.248-.281-.396-.565-.396a.874.874 0 0 0-.114.008c-.715.1-1.442.21-2.144.317l-.032.005c-.464.071-.92.14-1.384.208.024-.159.059-.316.104-.47a.49.49 0 0 0-.079-.462.606.606 0 0 0-.482-.226.533.533 0 0 0-.529.389 4.743 4.743 0 0 0-.168.929 59.49 59.49 0 0 1-1.759.213c-.329.033-.552.255-.552.55 0 .269.257.583.576.551a58.38 58.38 0 0 0 1.681-.201l-.011.263c-.019.407-.038.839-.058 1.403-.213.066-.407.132-.594.199-.246.087-.422.382-.392.652.024.224.178.378.416.411.137.023.277.02.413-.008.031-.006.068-.014.112-.025l-.016.437c-.04 1.129-.082 2.296-.148 3.443a.493.493 0 0 0 .132.382.574.574 0 0 0 .406.16c.278 0 .569-.181.589-.529.067-1.157.109-2.329.149-3.461l.026-.723c.62-.157 2.003-.43 2.669-.562l.105-.021ZM303.814 280.56c-.034-.262-.242-.529-.575-.529a.637.637 0 0 0-.157.02c-1.368.339-2.353.598-3.501 1.071.018-.244.045-.531.081-.853a14.278 14.278 0 0 1 3.086-1.119c.358-.096.447-.393.416-.622-.035-.256-.24-.517-.563-.517a.672.672 0 0 0-.167.023 14.328 14.328 0 0 0-2.247.774l-.357.148c.089-.623.188-1.26.283-1.799a8.31 8.31 0 0 1 1.169-.357c.524-.129.848-.183 1.224-.246h.004c.194-.032.435-.072.742-.131.293-.056.463-.278.435-.568-.027-.274-.249-.568-.606-.568a.672.672 0 0 0-.126.012 33.01 33.01 0 0 1-.893.154c-.581.094-1.184.192-1.761.366a.523.523 0 0 0-.124-.197.64.64 0 0 0-.447-.177c-.218 0-.48.109-.557.417a9.676 9.676 0 0 0-.108.503 4.62 4.62 0 0 0-.685.511c-.178.161-.233.374-.149.585a.64.64 0 0 0 .227.28.67.67 0 0 0 .346.117c-.254 1.595-.496 3.524-.415 4.178.041.329.283.559.589.559a.675.675 0 0 0 .293-.069c1.471-.703 2.584-.979 4.125-1.361.353-.086.446-.38.418-.605ZM287.79 283.354c.066-.79.165-1.71.261-2.598v-.02c.068-.624.137-1.267.193-1.85.06-.635.128-1.322.213-2.032l.022-.197c.04-.342.08-.696.167-1.032a.468.468 0 0 0-.086-.413.613.613 0 0 0-.464-.215.517.517 0 0 0-.462.259c-.223.378-.421.768-.614 1.144-.121.236-.258.505-.395.758-.254.467-.468.84-.681 1.173a6.953 6.953 0 0 1-.194.29c-.107-.288-.355-.99-.508-1.522a29.53 29.53 0 0 0-.332-1.041c-.053-.159-.106-.318-.156-.474a1.58 1.58 0 0 0-.02-.126l-.002-.006a1.688 1.688 0 0 0-.062-.153c-.084-.158-.264-.256-.472-.256a.62.62 0 0 0-.274.064.494.494 0 0 0-.157.126.45.45 0 0 0-.134.263 2.165 2.165 0 0 0-.061.459 2.74 2.74 0 0 1-.017.202 21.518 21.518 0 0 0-.171 2.111 211.764 211.764 0 0 0-.127 4.753.463.463 0 0 0 .134.346.577.577 0 0 0 .405.156c.271 0 .548-.172.554-.499.012-.817.04-1.761.067-2.673.019-.628.034-1.146.045-1.627l.013-.437c.241.648.526 1.125.896 1.497a.545.545 0 0 0 .385.144.506.506 0 0 0 .29-.084c.506-.354.849-.925 1.156-1.488l-.045.458c-.053.562-.121 1.191-.187 1.8l-.003.028c-.1.925-.203 1.882-.273 2.718a.436.436 0 0 0 .112.343.516.516 0 0 0 .385.151c.279 0 .573-.172.599-.5ZM289.532 282.776c.234-.716.45-1.441.613-1.997a145.49 145.49 0 0 1 1.64-.808 25.99 25.99 0 0 0 1.161 3.057c.082.18.283.295.514.295a.62.62 0 0 0 .301-.076c.273-.156.36-.47.218-.781-.402-.873-.765-1.859-1.117-3.01.293-.137.557-.262.804-.374.24-.111.354-.33.299-.574a.644.644 0 0 0-.613-.495.633.633 0 0 0-.264.06l-.552.255a62.846 62.846 0 0 1-.447-1.752 16.984 16.984 0 0 0-.19-.73 4.857 4.857 0 0 1-.076-.315l-.005-.027a.534.534 0 0 0-.034-.497.639.639 0 0 0-.529-.291.495.495 0 0 0-.291.091.746.746 0 0 0-.3.437l-.021-.006-.024.107c-.533 1.417-.96 2.883-1.373 4.305l-.097.33-.041.021a.654.654 0 0 0-.102.044 1.84 1.84 0 0 0-.109.06c-.034.019-.066.037-.1.054l-.103.052.004.01a.5.5 0 0 0-.186.536.652.652 0 0 0 .293.393c-.151.5-.281.918-.411 1.311a.51.51 0 0 0 .068.48.646.646 0 0 0 .86.131.56.56 0 0 0 .21-.296Zm1.056-3.512c.14-.48.324-1.101.528-1.742l.01.044c.066.277.14.591.223.901l.104.377c-.274.131-.557.267-.865.42Z"/><path fill="#D7244F" d="M297.556 281.135a.61.61 0 0 0-.287.075c-.487.259-.88.424-1.275.535a2.385 2.385 0 0 1-.629.091l-.022-.003c-.029-.159.012-.387.045-.572.058-.32.124-.683.178-1.049.313-2.103.479-3.792.543-5.477a.522.522 0 0 0-.145-.399.62.62 0 0 0-.429-.168c-.292 0-.595.192-.609.559-.082 2.181-.277 4.049-.612 5.878l-.036.186-.005.023c-.134.684-.305 1.535.387 1.988.202.131.447.196.744.196.271-.007.539-.045.801-.111.591-.133 1.144-.402 1.652-.674.241-.128.344-.356.278-.612-.057-.23-.278-.466-.579-.466ZM317.883 281.5h-.044c-.481 0-.741.377-.749.749-.009.358.215.754.724.775h.04c.483 0 .745-.376.754-.748.007-.358-.216-.754-.725-.776ZM311.97 277.255c-.163-1.136-.874-2.108-1.857-2.54a2.65 2.65 0 0 0-1.064-.227c-.689 0-1.289.279-1.689.786a2.489 2.489 0 0 0-.296.458.592.592 0 0 0 .029.593.679.679 0 0 0 .379.285 51.272 51.272 0 0 0-.02 2.638c.012.625.036 1.365.126 2.113l.016.128a3.184 3.184 0 0 1-.284.02c-.397.009-.601.32-.597.621.003.283.189.585.588.585h.016c.19-.004.38-.021.569-.051.029.056.063.109.101.16.138.18.331.284.532.284a.6.6 0 0 0 .495-.263.645.645 0 0 0 .105-.24.525.525 0 0 0-.021-.299 4.995 4.995 0 0 0 1.704-1.273c.932-1.074 1.358-2.451 1.168-3.778Zm-3.227-1.529a.705.705 0 0 1 .273-.044h.069c.142.005.282.034.415.085.611.202 1.103.846 1.253 1.641.169.898-.164 2.005-.849 2.819a3.681 3.681 0 0 1-1.116.897 21.976 21.976 0 0 1-.103-2.012c-.02-1.151 0-2.29.058-3.387v.001ZM316.297 279.627c-.089-.807-.185-1.643-.344-2.456-.11-.562-.235-1.157-.452-1.724-.098-.255-.202-.499-.399-.675a.786.786 0 0 0-.525-.204.725.725 0 0 0-.536.235.575.575 0 0 0-.124.616.637.637 0 0 0-.024.054c-.223.579-.421 1.172-.614 1.745v.004a44.93 44.93 0 0 1-.629 1.78.499.499 0 0 0-.355.555.599.599 0 0 0 .055.185 10.47 10.47 0 0 0-.306.8c-.121.376-.262.931-.075 1.409.104.262.331.428.592.428a.632.632 0 0 0 .162-.021.66.66 0 0 0 .395-.325.526.526 0 0 0 .031-.431c-.096-.245.024-.579.129-.874l.025-.069c.082-.235.181-.468.277-.693l.026-.061c.421-.088.863-.168 1.47-.268l.031.27c.115 1.027.234 2.088.487 3.113.026.127.096.24.199.32.103.08.232.123.363.119a.68.68 0 0 0 .521-.242.565.565 0 0 0 .105-.507c-.249-1.01-.369-2.063-.485-3.083Zm-1.357-1.067c-.338.055-.618.103-.878.149.132-.37.262-.753.384-1.114l.013-.04.198-.58a20.286 20.286 0 0 1 .205 1.072l.014.095.016.103.008.053.04.262ZM318.466 278.013l.021-.329v-.011c.015-.237.025-.377.034-.481v-.024c.014-.184.023-.296.037-.719 0-.04.002-.082.004-.123l.003-.065c.017-.419.035-.853-.077-1.255a.59.59 0 0 0-.218-.326.614.614 0 0 0-.38-.12.663.663 0 0 0-.514.237.528.528 0 0 0-.089.49c.016.061.027.122.034.184v.038a12.559 12.559 0 0 1-.004 1.045c-.016.42-.027.564-.045.767v.006c-.01.131-.023.292-.041.583l-.014.232c-.031.5-.054.861-.048 1.427v.109c0 .455 0 1.215.592 1.305a.926.926 0 0 0 .149.011c.204 0 .357-.07.463-.209.165-.226.12-.553.066-.711a.658.658 0 0 1-.023-.114l-.002-.04v-.011c0-.019-.004-.038-.005-.047a4.631 4.631 0 0 1-.006-.165v-.012c-.003-.129 0-.262 0-.376.013-.516.034-.843.063-1.296ZM326.484 274.878a.505.505 0 0 0-.428.219l-.02-.006-.045.131a37.707 37.707 0 0 1-.799 2.01l-.003.008c-.123.294-.226.541-.326.786a44.804 44.804 0 0 1-.828-1.202 4.765 4.765 0 0 0-.2-.28 2.963 2.963 0 0 1-.213-.32 9.256 9.256 0 0 1-.324-.587l-.011-.028a.608.608 0 0 1-.021-.06.482.482 0 0 0-.181-.256.496.496 0 0 0-.303-.093.54.54 0 0 0-.434.205.446.446 0 0 0-.062.43v.005c.271.607.405.808.699 1.245l.134.199.002.003c.456.685.881 1.293 1.302 1.858-.468 1.273-.715 2.304-.776 3.247a.456.456 0 0 0 .12.349.497.497 0 0 0 .368.147c.249 0 .513-.164.533-.477.104-1.62.809-3.276 1.489-4.881l.005-.013c.227-.535.442-1.041.637-1.549a.555.555 0 0 0 .076-.147l.05-.168c.013-.049.028-.099.044-.149a.43.43 0 0 0 .025-.216.427.427 0 0 0-.082-.202.53.53 0 0 0-.428-.208ZM322.541 280.984a.627.627 0 0 0-.291.075 5.72 5.72 0 0 1-1.169.491c-.177.05-.36.078-.543.083-.013-.135.019-.317.044-.467l.003-.015c.054-.296.116-.63.165-.964.279-1.884.447-3.59.506-5.216a.54.54 0 0 0-.149-.406.607.607 0 0 0-.434-.17c-.295 0-.601.194-.615.565-.062 1.647-.249 3.472-.57 5.579-.012.079-.028.163-.045.264-.113.621-.255 1.394.389 1.815.196.128.43.19.718.19.254-.007.506-.041.752-.104.551-.124 1.068-.376 1.544-.628.243-.131.349-.362.282-.621-.06-.234-.282-.471-.587-.471Z"/><path fill="#D8254F" d="M327 284.828h-24.114V289H327v-4.172Z"/><path fill="#fff" d="M306.737 287.279a.545.545 0 0 0-.208-.131 2.338 2.338 0 0 0-.281-.087 2.982 2.982 0 0 1-.309-.095 1.55 1.55 0 0 1-.282-.134.591.591 0 0 1-.207-.223.709.709 0 0 1-.08-.35.665.665 0 0 1 .243-.518c.161-.138.38-.208.656-.208a1.16 1.16 0 0 1 .79.31l.03.037-.272.269c-.005-.005-.013-.013-.022-.025a.77.77 0 0 0-.174-.125.755.755 0 0 0-.352-.079.533.533 0 0 0-.341.102.305.305 0 0 0-.128.241.286.286 0 0 0 .08.207.542.542 0 0 0 .207.131c.092.035.186.064.281.087.105.026.208.058.309.094.099.034.193.079.282.133a.594.594 0 0 1 .207.224.714.714 0 0 1 .08.347.724.724 0 0 1-.259.579c-.174.15-.413.224-.718.224a1.424 1.424 0 0 1-.357-.043 1.243 1.243 0 0 1-.583-.33l-.038-.046.272-.267.026.032a.828.828 0 0 0 .082.075.795.795 0 0 0 .336.166c.085.022.173.033.261.033a.616.616 0 0 0 .402-.122.38.38 0 0 0 .147-.3.287.287 0 0 0-.08-.208ZM310.451 285.575v.383h-.822v2.294h-.428v-2.294h-.822v-.383h2.072ZM313.479 287.694a.692.692 0 0 0 .214-.512v-1.607h.432v1.607a1.044 1.044 0 0 1-.337.784 1.186 1.186 0 0 1-.817.324c-.305 0-.598-.116-.817-.324a1.042 1.042 0 0 1-.336-.783v-1.608h.431v1.607a.711.711 0 0 0 .214.513.7.7 0 0 0 .508.215.706.706 0 0 0 .508-.215v-.001ZM316.762 285.576a1.358 1.358 0 0 1 .979.395 1.29 1.29 0 0 1 0 1.886 1.341 1.341 0 0 1-.979.395h-.958v-2.676h.958Zm-.529.382v1.912h.529a.909.909 0 0 0 .677-.278.967.967 0 0 0 0-1.356.909.909 0 0 0-.677-.278h-.529ZM319.712 285.575h.43v2.677h-.429l-.001-2.677ZM322.12 285.938c.277-.267.62-.4 1.027-.4.407 0 .751.133 1.03.4.132.127.236.279.307.447a1.34 1.34 0 0 1 0 1.058 1.368 1.368 0 0 1-.307.447c-.278.267-.621.4-1.03.4a1.417 1.417 0 0 1-1.335-.847 1.342 1.342 0 0 1 0-1.058 1.35 1.35 0 0 1 .308-.447Zm.308 1.682a1.04 1.04 0 0 0 1.297.134.989.989 0 0 0 .386-1.219 1.013 1.013 0 0 0-.463-.504 1.036 1.036 0 0 0-1.28.245.998.998 0 0 0-.162 1.021.967.967 0 0 0 .222.323Z"/></g><g clip-path="url(#c)"><path fill="#F7CD97" d="M474 274h56v15h-56z"/><path fill="#D7244F" d="m480.165 278.451.169-.033c-.253 1.59-.501 3.605-.477 4.24.011.33.262.568.595.568a.724.724 0 0 0 .304-.07c1.511-.708 2.445-.936 3.995-1.314a.531.531 0 0 0 .429-.608.593.593 0 0 0-.744-.509c-1.326.323-2.215.553-3.318 1.004.025-.248.056-.534.095-.852l.6-.238c1.032-.412 1.714-.684 2.938-1.005a.542.542 0 0 0 .424-.622c-.036-.256-.245-.517-.573-.517a.659.659 0 0 0-.171.023c-1.24.327-1.927.601-2.967 1.016l-.079.031c.091-.621.182-1.219.265-1.686.875-.367 1.683-.557 2.96-.8.298-.057.471-.28.441-.568a.622.622 0 0 0-.745-.551c-1.007.191-1.787.364-2.556.634a.486.486 0 0 0-.07-.087.658.658 0 0 0-.457-.178c-.222 0-.488.11-.567.418l-.041.143v.007a5.962 5.962 0 0 0-.091.33c-.156.044-.722.14-1.27.23l-.028.005c-.643.106-1.371.227-1.837.329l.04-.918c.008-.165.012-.336.016-.503v-.096c.536-.076 1.068-.155 1.709-.25l.016-.003c.698-.104 1.49-.222 2.259-.327a.493.493 0 0 0 .33-.21.587.587 0 0 0 .085-.469c-.071-.248-.286-.396-.575-.396a.892.892 0 0 0-.116.008c-.728.1-1.469.21-2.183.317l-.032.005c-.473.071-.938.14-1.41.208.024-.159.06-.316.106-.47a.49.49 0 0 0-.08-.462.621.621 0 0 0-.219-.167.623.623 0 0 0-.272-.059.55.55 0 0 0-.341.104.514.514 0 0 0-.198.285 4.605 4.605 0 0 0-.171.929c-.658.087-1.244.157-1.791.213-.335.033-.562.255-.562.55 0 .269.261.583.586.551a60.534 60.534 0 0 0 1.712-.201l-.011.263c-.02.407-.039.839-.059 1.403-.217.066-.415.132-.605.199-.25.087-.429.382-.399.652.025.224.182.378.423.411.14.023.282.02.421-.008.031-.006.07-.014.114-.025l-.016.437c-.041 1.129-.083 2.296-.151 3.443a.493.493 0 0 0 .134.382.592.592 0 0 0 .414.16c.283 0 .579-.181.599-.529.069-1.157.111-2.329.152-3.461l.026-.723c.632-.157 2.04-.43 2.719-.562l.106-.021ZM506.392 280.56a.594.594 0 0 0-.745-.509c-1.392.339-2.396.598-3.564 1.071.018-.244.045-.531.082-.853a14.719 14.719 0 0 1 3.143-1.119.542.542 0 0 0 .423-.622c-.036-.256-.244-.517-.573-.517a.704.704 0 0 0-.171.023 14.828 14.828 0 0 0-2.288.774l-.363.148c.091-.623.192-1.26.288-1.799a8.62 8.62 0 0 1 1.19-.357c.534-.129.864-.183 1.247-.246h.004c.197-.032.442-.072.756-.131.297-.056.471-.278.442-.568a.625.625 0 0 0-.745-.556c-.311.058-.614.107-.909.154-.591.094-1.206.192-1.793.366a.518.518 0 0 0-.127-.197.655.655 0 0 0-.455-.177c-.222 0-.488.109-.567.417-.03.116-.067.284-.11.503-.249.149-.482.32-.697.511-.182.161-.237.374-.152.585.048.113.128.21.231.28a.69.69 0 0 0 .352.117c-.259 1.595-.505 3.524-.422 4.178.042.329.288.559.6.559a.7.7 0 0 0 .298-.069c1.498-.703 2.631-.979 4.199-1.361a.528.528 0 0 0 .426-.605ZM490.077 283.354c.067-.79.168-1.71.266-2.598v-.02c.069-.624.14-1.267.197-1.85a82.141 82.141 0 0 1 .239-2.229c.04-.342.081-.696.169-1.032a.455.455 0 0 0-.087-.413.592.592 0 0 0-.211-.159.631.631 0 0 0-.261-.056.535.535 0 0 0-.471.259c-.227.378-.428.768-.624 1.144-.124.236-.263.505-.403.758-.258.467-.477.84-.694 1.173-.066.102-.13.197-.196.29-.11-.288-.362-.99-.518-1.522a29.523 29.523 0 0 0-.338-1.041c-.054-.159-.108-.318-.159-.474a1.58 1.58 0 0 0-.02-.126l-.003-.006a1.448 1.448 0 0 0-.063-.153c-.085-.158-.269-.256-.48-.256a.638.638 0 0 0-.279.064.505.505 0 0 0-.16.126.463.463 0 0 0-.137.263 2.233 2.233 0 0 0-.062.459c-.004.071-.008.143-.016.202-.086.611-.14 1.262-.175 2.111a205.398 205.398 0 0 0-.129 4.753.463.463 0 0 0 .136.346.606.606 0 0 0 .413.156c.276 0 .558-.172.564-.499.012-.817.041-1.761.068-2.673.019-.628.035-1.146.046-1.627.003-.143.007-.29.013-.437.245.648.536 1.125.912 1.497a.562.562 0 0 0 .392.144.525.525 0 0 0 .296-.084c.515-.354.863-.925 1.176-1.488l-.045.458c-.055.562-.124 1.191-.191 1.8l-.003.028c-.101.925-.206 1.882-.277 2.718a.42.42 0 0 0 .113.343.552.552 0 0 0 .393.151c.283 0 .583-.172.609-.5ZM491.85 282.776c.239-.716.459-1.441.625-1.997.598-.294 1.145-.558 1.669-.808a25.942 25.942 0 0 0 1.183 3.057c.083.18.288.295.523.295a.637.637 0 0 0 .306-.076c.278-.156.367-.47.222-.781-.409-.873-.779-1.859-1.136-3.01.298-.137.566-.262.818-.374.244-.111.361-.33.304-.574a.652.652 0 0 0-.624-.495.656.656 0 0 0-.269.06l-.562.255a57.249 57.249 0 0 1-.454-1.752 18.877 18.877 0 0 0-.194-.73 4.273 4.273 0 0 1-.077-.315l-.006-.027a.523.523 0 0 0-.035-.497.66.66 0 0 0-.538-.291.51.51 0 0 0-.296.091.747.747 0 0 0-.306.437l-.021-.006-.024.107c-.544 1.417-.978 2.883-1.399 4.305l-.098.33-.043.021a.665.665 0 0 0-.103.044c-.039.019-.076.04-.111.06a1.987 1.987 0 0 1-.102.054l-.105.052.004.01a.492.492 0 0 0-.189.536c.043.163.15.304.298.393-.154.5-.286.918-.418 1.311a.499.499 0 0 0 .069.48.66.66 0 0 0 .518.238.594.594 0 0 0 .357-.107.552.552 0 0 0 .214-.296Zm1.075-3.512c.144-.48.331-1.101.539-1.742l.01.044c.067.277.142.591.227.901.034.127.07.253.105.377-.279.131-.567.267-.881.42Z"/><path fill="#D7244F" d="M500.021 281.135a.635.635 0 0 0-.293.075 6.503 6.503 0 0 1-1.297.535 2.48 2.48 0 0 1-.641.091l-.022-.003c-.03-.159.012-.387.045-.572.059-.32.127-.683.182-1.049.318-2.103.488-3.792.553-5.477a.524.524 0 0 0-.149-.399.612.612 0 0 0-.436-.168c-.297 0-.606.192-.62.559-.084 2.181-.282 4.049-.623 5.878l-.037.186-.005.023c-.136.684-.31 1.535.394 1.988.206.131.455.196.758.196a3.79 3.79 0 0 0 .815-.111c.601-.133 1.165-.402 1.683-.674.244-.128.35-.356.283-.612a.625.625 0 0 0-.59-.466ZM520.717 281.5h-.045c-.49 0-.754.377-.763.749-.008.358.22.754.738.775h.041c.492 0 .758-.376.767-.748.008-.358-.22-.754-.738-.776ZM514.696 277.255c-.165-1.136-.889-2.108-1.89-2.54a2.742 2.742 0 0 0-1.084-.227c-.701 0-1.312.279-1.72.786a2.514 2.514 0 0 0-.301.458.58.58 0 0 0 .03.593.691.691 0 0 0 .386.285c-.03.858-.036 1.747-.02 2.638.012.625.036 1.365.128 2.113l.016.128a3.32 3.32 0 0 1-.289.02.599.599 0 0 0-.608.621c.003.283.192.585.599.585h.016c.194-.004.387-.021.579-.051.03.056.064.109.103.16.14.18.338.284.542.284a.622.622 0 0 0 .504-.263.633.633 0 0 0 .107-.24.525.525 0 0 0-.021-.299 5.094 5.094 0 0 0 1.735-1.273c.948-1.074 1.382-2.451 1.188-3.778Zm-3.285-1.529a.73.73 0 0 1 .278-.044h.07c.145.005.288.034.422.085.623.202 1.124.846 1.276 1.641.173.898-.167 2.005-.864 2.819-.314.368-.7.673-1.136.897a21.989 21.989 0 0 1-.105-2.012c-.02-1.151 0-2.29.059-3.387v.001ZM519.103 279.627c-.091-.807-.189-1.643-.351-2.456-.112-.562-.239-1.157-.46-1.724-.099-.255-.205-.499-.406-.675a.812.812 0 0 0-.535-.204.748.748 0 0 0-.546.235.56.56 0 0 0-.126.616.637.637 0 0 0-.024.054c-.227.579-.429 1.172-.625 1.745v.004a44.492 44.492 0 0 1-.641 1.78.499.499 0 0 0-.362.555.602.602 0 0 0 .057.185c-.103.242-.221.524-.312.8-.123.376-.266.931-.076 1.409a.65.65 0 0 0 .767.407.683.683 0 0 0 .236-.123.65.65 0 0 0 .167-.202.516.516 0 0 0 .031-.431c-.097-.245.024-.579.131-.874l.026-.069c.084-.235.185-.468.282-.693l.026-.061c.43-.088.879-.168 1.498-.268l.031.27c.116 1.027.238 2.088.495 3.113.027.127.099.24.203.32.105.08.236.123.37.119a.7.7 0 0 0 .53-.242.557.557 0 0 0 .107-.507c-.253-1.01-.375-2.063-.493-3.083Zm-1.382-1.067c-.345.055-.63.103-.894.149.134-.37.267-.753.391-1.114l.013-.04.201-.58a19.825 19.825 0 0 1 .209 1.072c.005.032.011.063.015.095l.016.103.008.053.041.262ZM521.311 278.013l.022-.329v-.011c.014-.237.025-.377.033-.481v-.024c.015-.184.024-.296.038-.719 0-.04.003-.082.005-.123l.002-.065c.018-.419.036-.853-.078-1.255a.58.58 0 0 0-.222-.326.632.632 0 0 0-.386-.12.69.69 0 0 0-.524.237.529.529 0 0 0-.091.49c.017.061.028.122.035.184v.038a11.962 11.962 0 0 1-.005 1.045c-.015.42-.027.564-.045.767v.006c-.01.131-.024.292-.041.583l-.015.232c-.032.5-.054.861-.049 1.427v.109c0 .455 0 1.215.603 1.305.05.008.101.011.152.011.208 0 .364-.07.471-.209.169-.226.122-.553.068-.711a.58.58 0 0 1-.024-.114l-.002-.04v-.011c0-.019-.004-.038-.005-.047a4.631 4.631 0 0 1-.006-.165v-.012c-.003-.129 0-.262 0-.376.013-.516.035-.843.064-1.296ZM529.474 274.878a.526.526 0 0 0-.435.219l-.021-.006-.045.131a37.404 37.404 0 0 1-.814 2.01l-.003.008c-.125.294-.23.541-.332.786a48.434 48.434 0 0 1-.843-1.202c-.104-.153-.159-.223-.203-.28a2.856 2.856 0 0 1-.217-.32 8.629 8.629 0 0 1-.245-.421 8.087 8.087 0 0 1-.085-.166l-.012-.028c-.008-.019-.014-.04-.021-.06a.482.482 0 0 0-.184-.256.512.512 0 0 0-.309-.093.557.557 0 0 0-.441.205.444.444 0 0 0-.064.43v.005c.276.607.413.808.712 1.245l.136.199.003.003a42.95 42.95 0 0 0 1.325 1.858c-.477 1.273-.728 2.304-.789 3.247a.451.451 0 0 0 .293.46.518.518 0 0 0 .203.036c.254 0 .522-.164.543-.477.106-1.62.823-3.276 1.516-4.881l.005-.013c.231-.535.45-1.041.648-1.549a.505.505 0 0 0 .077-.147c.018-.054.034-.109.051-.168.014-.049.029-.099.046-.149a.43.43 0 0 0-.058-.418.57.57 0 0 0-.437-.208ZM525.46 280.984a.643.643 0 0 0-.296.075c-.455.238-.823.39-1.191.491-.18.05-.366.078-.553.083-.013-.135.02-.317.046-.467l.003-.015c.055-.296.117-.63.168-.964.284-1.884.454-3.59.515-5.216a.524.524 0 0 0-.152-.406.614.614 0 0 0-.442-.17c-.3 0-.612.194-.626.565-.063 1.647-.253 3.472-.581 5.579-.012.079-.028.163-.045.264-.116.621-.26 1.394.396 1.815.199.128.438.19.73.19.259-.007.516-.041.766-.104.562-.124 1.087-.376 1.572-.628.248-.131.356-.362.287-.621a.632.632 0 0 0-.597-.471Z"/><path fill="#D8254F" d="M529.999 284.828h-24.551V289h24.551v-4.172Z"/><path fill="#fff" d="M509.368 287.279a.557.557 0 0 0-.211-.131 2.414 2.414 0 0 0-.286-.087 3.09 3.09 0 0 1-.315-.095c-.1-.035-.196-.08-.287-.134a.584.584 0 0 1-.21-.223.69.69 0 0 1-.082-.35.627.627 0 0 1 .062-.285.673.673 0 0 1 .185-.233c.164-.138.387-.208.668-.208a1.193 1.193 0 0 1 .804.31l.031.037-.278.269a.444.444 0 0 0-.088-.081.724.724 0 0 0-.266-.124.768.768 0 0 0-.203-.024.548.548 0 0 0-.347.102.311.311 0 0 0-.095.106.29.29 0 0 0 .046.342.56.56 0 0 0 .21.131c.094.035.19.064.287.087.106.026.211.058.315.094.1.034.196.079.287.133a.602.602 0 0 1 .21.224.704.704 0 0 1 .082.347.725.725 0 0 1-.264.579c-.177.15-.42.224-.731.224a1.485 1.485 0 0 1-.364-.043 1.302 1.302 0 0 1-.475-.227.889.889 0 0 1-.118-.103l-.039-.046.278-.267a.539.539 0 0 0 .109.107.818.818 0 0 0 .343.166c.086.022.175.033.265.033a.635.635 0 0 0 .409-.122.375.375 0 0 0 .149-.3.27.27 0 0 0-.019-.112.273.273 0 0 0-.062-.096ZM513.151 285.575v.383h-.837v2.294h-.437v-2.294h-.836v-.383h2.11ZM516.233 287.694a.7.7 0 0 0 .219-.512v-1.607h.439v1.607a1.029 1.029 0 0 1-.343.784 1.22 1.22 0 0 1-.832.324c-.31 0-.609-.116-.831-.324a1.05 1.05 0 0 1-.343-.783v-1.608h.439v1.607a.705.705 0 0 0 .218.513.717.717 0 0 0 .517.215.735.735 0 0 0 .517-.215v-.001ZM519.576 285.576a1.41 1.41 0 0 1 1.305.826 1.275 1.275 0 0 1-.308 1.455 1.385 1.385 0 0 1-.997.395h-.976v-2.676h.976Zm-.538.382v1.912h.538a.979.979 0 0 0 .375-.069.92.92 0 0 0 .314-.209.955.955 0 0 0-.689-1.634h-.538ZM522.579 285.575h.438v2.677h-.437l-.001-2.677ZM525.031 285.938c.282-.267.631-.4 1.046-.4.414 0 .764.133 1.048.4a1.34 1.34 0 0 1 .314 1.505c-.073.167-.18.319-.314.447-.282.267-.632.4-1.048.4-.417 0-.765-.133-1.046-.4a1.344 1.344 0 0 1-.424-.976 1.34 1.34 0 0 1 .424-.976Zm.314 1.682a1.079 1.079 0 0 0 1.321.134c.202-.128.352-.319.423-.541a.972.972 0 0 0-.03-.678 1.027 1.027 0 0 0-.472-.504 1.09 1.09 0 0 0-.697-.102 1.058 1.058 0 0 0-.606.347.976.976 0 0 0-.239.638.95.95 0 0 0 .3.706Z"/></g><path fill="#F1D9DF" d="M1059.59 281.818c46.17 0 83.6-2.115 83.6-4.723 0-2.609-37.43-4.724-83.6-4.724-46.16 0-83.59 2.115-83.59 4.724 0 2.608 37.43 4.723 83.59 4.723Z"/><path fill="#971937" d="m1123.95 278.336-121.46-.647c-17.948-20.743-19.837-48.113 4.24-71.609 3.02-2.955 8.83-5.047 15.06-6.505 8.13-1.726 16.38-2.84 24.67-3.333a91.55 91.55 0 0 0 11.07-10.541c12.86-15.479 23.76-14.116 23.76-14.116 13.08-2.497 24.23-3.212 32.47 1.349 7.64 4.292 12.8 13.172 14.69 29.462.37 3.077.6 6.428.71 10.054.43 13.212 3.01 24.981 4.52 34.941 2.2 14.494 2.19 25.129-9.73 30.945Z"/><path fill="#83182F" d="M1109.66 191.532c-7.94 4.291-11.3 16.572-23.71 20.243-12.42 3.671-33.48 3.239-45.48 16.195-11.57 12.47-24.17-19.38-18.68-28.341a166.069 166.069 0 0 1 24.67-3.333c3.97-3.2 7.68-6.726 11.07-10.541 12.86-15.479 23.76-14.116 23.76-14.116 13.08-2.497 24.23-3.212 32.47 1.349 4.19 4.602 3.85 14.252-4.1 18.544Z"/><path fill="#3F3F3F" d="M1053.96 195.351s-62.077-3.374-59.377 19.461c2.699 22.835 7.827 52.768 7.827 52.768s10.43.257 11.67-5.223c1.25-5.479-9.31-42.592 32.39-48.868 41.71-6.275 7.49-18.138 7.49-18.138Z"/><path fill="#F2AA91" d="M1004.96 264.301s2.7 7.26 2.14 9.96c-.57 2.699.35 7.908-.75 10.243-1.09 2.335-3.07 5.736-1.18 6.586.71.337 9.05-6.141 9.54-8.098.48-1.957.85-7.544 2.44-10.607a4.53 4.53 0 0 0 .68-1.845c.09-.657.04-1.326-.16-1.96a4.401 4.401 0 0 0-.97-1.709 4.502 4.502 0 0 0-1.6-1.14c-2.31-1.12-5.52-7.274-5.52-7.274l-4.62 5.844ZM996.862 276.258s-2.604 7.301-4.791 8.988c-2.186 1.687-4.831 6.276-7.179 7.342-2.349 1.066-6.046 2.402-5.156 4.278.338.702 10.891 1.147 12.484 0 1.592-1.147 5.52-5.223 8.7-6.532a4.488 4.488 0 0 0 1.71-.97c.49-.444.88-.99 1.13-1.6a4.56 4.56 0 0 0 .36-1.929 4.648 4.648 0 0 0-.5-1.898c-1.04-2.348.49-9.136.49-9.136l-7.248 1.457ZM1058.5 163.244s-3.89 20.959-24.59 31.284l3.06 1.875s18.68.243 33.74-23.954l-12.21-9.205Z"/><path fill="#1E1C1F" d="M1074.83 155.485c-.97-1.121 14.36-5.696 17.54 6.882 0 0 28.22-7.409 10.92-20.027-5.99-4.359-6.58-9.002-7.43-13.253-.85-4.251-6.81-16.479-17.17-10.446-2.79.044-5.51.954-7.76 2.605-6.86 5.897-14.43 43.51 3.9 34.239Z"/><path fill="#DB284E" d="M1097.54 153.204a51.36 51.36 0 0 0-26.72-2.956c-1.64.135-3.23.666-4.62 1.547-1.4.882-2.55 2.087-3.38 3.514-3.11 5.074-4.55 7.8-4.55 7.8s.28 2.362 4.49 4.252c-1.16 4.21 1.02 11.565-1.01 14.413-2.02 2.848-14.61 9.906-15.25 13.833-1.16 7.234 21.41 20.419 28.15 19.029 19.4-3.941 32.72-55.859 22.89-61.432Z"/><path fill="#1E1C1F" d="M1090.92 138.277a27.97 27.97 0 0 0 2.7-8.313c.22-2.699-2.02-12.322-11.71-10.014-1.97.444-3.81 1.33-5.39 2.591-2 1.633-4.8 5.021-.58 13.226l1.16 2.794 13.82-.284Z"/><path fill="#F2AA91" d="M1095.8 176.686s4.24 13.914-12.4 14.845l-3.93 3.86s17.07 9.366 25.98-3.657c7.1-10.392 1.77-22.943 1.77-22.943l-11.42 7.895ZM1037.96 196.35c-.59.411-1.13.886-1.61 1.417a6.5 6.5 0 0 1-3.64 1.66c-1.09.18-2.21.212-3.31.094a.227.227 0 0 1-.17 0c-.15-.108 0-.324.11-.445.57-.476 1.3-.709 2.05-.648-.62 0-1.23-.283-1.87-.31-1.08.18-2.15.419-3.21.715-.83.158-1.69.143-2.52-.042a6.226 6.226 0 0 1-2.31-1.038c-.47-.351-.2-.418.22-.661.41-.243.82-.459 1.24-.675a19.902 19.902 0 0 1 5.23-1.66c1.23-.296 2.47-.472 3.73-.526.62 0 2.02-.081 2.7 0 .67.081.36.931.89 1.255.53.324 1.96.553 2.47.864Z"/><path fill="#DB284E" d="M1096.05 152.65c.36 0 4.81 1.485 7.98 7.814 3.18 6.33 4.27 9.258 4.27 9.258s-13.97 10.797-19.5 6.748c-5.54-4.048 2.14-23.968 7.25-23.82Z"/><path fill="#F2AA91" d="M1083.37 191.478a16.07 16.07 0 0 1-3.92-1.822c-.96-.85-6.58-1.552-6.58-.985 0 .566 3.27 1.349 3.63 1.916.37.567 2.34 2.902 4.05 2.902 1.72 0 2.82-2.011 2.82-2.011Z"/><path fill="#000" d="m1074.51 181.099 4.73 15.17-11.19-1.431-4.48-14.818 10.94 1.079Z"/><path fill="#424242" d="m1079 195.499.45-.89-4.5-14.589-.44 1.079 4.49 14.4Z"/><path fill="#424242" d="m1074.95 180.02-10.04-.783-1.34.783 10.94 1.079.44-1.079Z"/><path fill="#F2AA91" d="M1079.45 195.337c-1.81.043-3.61-.029-5.4-.215-1.1-.257-3.88-3.725-3.13-4.589.47-.54 3.06.445 4.3.445 1.24 0 4.47-1.781 6.65 1.89.22.418-2.42 2.469-2.42 2.469ZM1070.16 129.073s-1.58 13.347 1.78 18.206c3.36 4.858 7.38-.391 7.38-.391l-.43 5.816a11.053 11.053 0 0 0 9.62-.283s-4.33-2.699-3.07-12.146c0 0 4.53-2.821 1.05-6.303-3.48-3.482-2.7 2.024-2.7 2.024s-2.74-17.504-13.63-6.923Z"/><path fill="#000" d="M1062.76 167.793h-.16a.419.419 0 0 1-.2-.218.428.428 0 0 1 .01-.295l2.42-5.52a.385.385 0 0 1 .22-.202.384.384 0 0 1 .5.214c.04.096.04.204-.01.298l-2.42 5.52a.455.455 0 0 1-.15.155.364.364 0 0 1-.21.048Z" opacity=".1"/><g opacity=".1"><path fill="#4EA785" d="m1096.92 176.281-1.14.405-4.78-11.674" opacity=".1"/><path fill="#000" d="m1095.56 177.24-4.93-12.012a.44.44 0 0 1 .01-.299.385.385 0 0 1 .51-.213c.05.021.09.05.13.087.03.037.06.08.08.128l4.63 11.337.8-.284c.1-.03.2-.022.29.023.1.045.17.124.21.22.01.048.02.099.02.15-.01.05-.02.1-.04.145a.35.35 0 0 1-.1.118.295.295 0 0 1-.13.073l-1.48.527Z" opacity=".1"/></g><path fill="#6C6D6D" d="M1049.5 199.656s-36.75-6.964-43.62 29.988c-6.87 36.951-11.297 48.814-11.297 48.814s3.199 3.482 9.627.202c6.42-3.279 26.99-48.288 29.77-54.914 2.78-6.626 35.09 10.149 43.67-10.041l-28.15-14.049Z"/><path fill="#971937" d="M1099.72 203.705s-4.46 3.549-20.81 4.049c-16.36.499-37.79 18.475-37.95 23.577-.17 5.101 32.88 12.969 33.4 12.24.51-.728 21.06-18.273 21.06-18.273l4.3-21.593Z"/><path fill="#DB284E" d="M358.194 152.68c2.521.537 4.547 1.798 6.076 3.782 1.529 1.943 2.294 4.175 2.294 6.696 0 3.637-1.281 6.531-3.844 8.68-2.521 2.108-6.055 3.162-10.602 3.162h-20.274v-43.524h19.592c4.423 0 7.874 1.013 10.354 3.038 2.521 2.025 3.782 4.774 3.782 8.246 0 2.563-.682 4.691-2.046 6.386-1.323 1.695-3.1 2.873-5.332 3.534Zm-15.748-3.596h6.944c1.736 0 3.059-.372 3.968-1.116.951-.785 1.426-1.922 1.426-3.41 0-1.488-.475-2.625-1.426-3.41-.909-.785-2.232-1.178-3.968-1.178h-6.944v9.114Zm7.812 17.36c1.777 0 3.141-.393 4.092-1.178.992-.827 1.488-2.005 1.488-3.534s-.517-2.728-1.55-3.596c-.992-.868-2.377-1.302-4.154-1.302h-7.688v9.61h7.812Zm33.057-26.474v8.804h14.198v8.184h-14.198v9.548h16.058V175h-26.66v-43.524h26.66v8.494h-16.058Zm33.543 26.846h13.888V175h-24.49v-43.524h10.602v35.34Zm46.039.496h-16.244L444.049 175h-11.098l15.748-43.524h12.276L476.723 175h-11.222l-2.604-7.688Zm-2.728-8.184-5.394-15.934-5.332 15.934h10.726ZM520.452 175H509.85l-17.732-26.846V175h-10.602v-43.524h10.602l17.732 26.97v-26.97h10.602V175Zm34.965-43.524v29.636c0 4.588-1.302 8.122-3.906 10.602-2.563 2.48-6.035 3.72-10.416 3.72-4.588 0-8.267-1.302-11.036-3.906s-4.154-6.303-4.154-11.098h10.54c0 1.819.372 3.203 1.116 4.154.744.909 1.819 1.364 3.224 1.364 1.281 0 2.273-.413 2.976-1.24.703-.827 1.054-2.025 1.054-3.596v-29.636h10.602Zm35.658 35.836h-16.244L572.227 175h-11.098l15.748-43.524h12.276L604.901 175h-11.222l-2.604-7.688Zm-2.728-8.184-5.394-15.934-5.332 15.934h10.726Zm61.579 8.184h-16.244L631.078 175H619.98l15.748-43.524h12.276L663.752 175H652.53l-2.604-7.688Zm-2.728-8.184-5.394-15.934-5.332 15.934h10.726Zm70.637-27.652V175h-10.602v-26.102L697.499 175h-8.556l-9.796-26.164V175h-10.602v-43.524h12.524l12.214 30.132 12.09-30.132h12.462Zm34.718 35.836h-16.244L733.705 175h-11.098l15.748-43.524h12.276L766.379 175h-11.222l-2.604-7.688Zm-2.728-8.184-5.394-15.934-5.332 15.934h10.726ZM810.108 175h-10.602l-17.732-26.846V175h-10.602v-43.524h10.602l17.732 26.97v-26.97h10.602V175Z"/><path fill="#000" d="M643.404 78.029v22.145c0 2.465-.76 4.443-2.279 5.934-1.519 1.462-3.526 2.193-6.02 2.193-2.523 0-4.544-.745-6.063-2.236-1.519-1.519-2.279-3.583-2.279-6.192h3.913c.029 1.462.401 2.652 1.118 3.569.745.917 1.849 1.376 3.311 1.376s2.551-.43 3.268-1.29c.717-.889 1.075-2.007 1.075-3.354V78.029h3.956Zm25.425 23.306h-13.072L653.349 108h-4.128l10.836-29.799h4.515L675.365 108h-4.128l-2.408-6.665Zm-1.118-3.182-5.418-15.136-5.418 15.136h10.836Zm42.777-19.909V108h-3.913V85.812L696.685 108h-2.752L684 85.769V108h-3.913V78.244h4.214l11.008 24.596 11.008-24.596h4.171Zm10.549-.215V108h-3.913V78.029h3.913ZM751.271 108h-3.913L731.62 84.135V108h-3.913V77.986h3.913l15.738 23.822V77.986h3.913V108Zm24.386-6.665h-13.072L760.177 108h-4.128l10.836-29.799h4.515L782.193 108h-4.128l-2.408-6.665Zm-1.118-3.182-5.418-15.136-5.418 15.136h10.836Zm35.94 9.847h-3.913l-15.738-23.865V108h-3.913V77.986h3.913l15.738 23.822V77.986h3.913V108Z"/><defs><clipPath id="a"><path fill="#fff" d="M357 256h87v24h-87z"/></clipPath><clipPath id="b"><path fill="#fff" d="M272 274h55v15h-55z"/></clipPath><clipPath id="c"><path fill="#fff" d="M474 274h56v15h-56z"/></clipPath></defs></svg>