<svg xmlns="http://www.w3.org/2000/svg" width="1440" height="310" fill="none"><path fill="#FBE9ED" d="M1440 0H0v310h1440V0Z"/><g fill="#fff" opacity=".5"><path d="M479.339 93.16h-9.37l-36.09 36.09v9.37l45.46-45.46ZM433.879 102.47l9.31-9.31h-9.31v9.31ZM461.269 93.16h-9.38l-18.01 18.01v9.38l27.39-27.39ZM483.689 133.66l-9.31 9.31h9.31v-9.31ZM483.689 124.96v-9.38l-27.39 27.39h9.38l18.01-18.01ZM483.689 106.88V97.5l-45.46 45.47h9.37l36.09-36.09Z" opacity=".5"/></g><g fill="#fff" opacity=".5"><path d="M1178.49 148.57h-9.38l-36.09 36.09v9.38l45.47-45.47ZM1133.02 157.88l9.32-9.31h-9.32v9.31ZM1160.41 148.57h-9.37l-18.02 18.02v9.37l27.39-27.39ZM1182.84 189.07l-9.31 9.32h9.31v-9.32ZM1182.84 180.37V171l-27.39 27.39h9.38l18.01-18.02ZM1182.84 162.3v-9.38l-45.47 45.47h9.38l36.09-36.09Z" opacity=".5"/></g><path stroke="#fff" stroke-miterlimit="10" stroke-width="82.31" d="M1440 186.81c-103.17 0-186.81-83.64-186.81-186.81" opacity=".5"/><path fill="#EB92A7" d="M0 76.08v1.41l1-.14a14.003 14.003 0 0 1-1-1.27Z"/><path fill="#EB92A7" d="M0 84.76h115.25a354.31 354.31 0 0 0-36.63-6.83 12.48 12.48 0 0 0 2.91-8C81.53 62.8 75.45 57 68 57c0-14.27-12.2-25.85-27.19-25.85-12.87 0-23.64 8.54-26.43 20h-.72A16.9 16.9 0 0 0 0 57.9v26.86Z"/><path fill="#F3BDCA" d="M1188.8 310a702.376 702.376 0 0 1 86.37-22.33 32.142 32.142 0 0 1-3.74-15c0-18.49 15.69-33.49 35-33.49 2.69-.001 5.38.298 8 .89 3.34-30 29.86-53.29 62.09-53.29 26.73 0 49.53 16 58.44 38.62 1.65-.426 3.32-.76 5-1V310H1188.8Z"/><path fill="#EB92A7" d="M1325.43 80.67c11.49 0 20.8-8.274 20.8-18.48 0-10.206-9.31-18.48-20.8-18.48s-20.8 8.274-20.8 18.48c0 10.206 9.31 18.48 20.8 18.48Z"/><path fill="#EB92A7" d="M1346.23 80.66c5.74 0 10.4-4.137 10.4-9.24 0-5.103-4.66-9.24-10.4-9.24s-10.4 4.137-10.4 9.24c0 5.103 4.66 9.24 10.4 9.24ZM1304.62 80.66c7.06 0 12.78-5.082 12.78-11.35 0-6.269-5.72-11.35-12.78-11.35s-12.78 5.081-12.78 11.35c0 6.268 5.72 11.35 12.78 11.35Z"/><path fill="#EB92A7" d="M1382.47 82.11h-114.08s45.28-16.58 114.08 0Z"/><path fill="#F3BDCA" d="M243.72 310s-36.72-18.22-102.2-29.76a46.727 46.727 0 0 0 6-23c0-26.67-22.43-48.29-50.09-48.29-4.577 0-9.134.609-13.55 1.81C73.56 184.24 47 165.4 15.93 165.4A75.236 75.236 0 0 0 0 167.11V310h243.72ZM200.149 159c21.594 0 39.1-16.556 39.1-36.98 0-20.423-17.506-36.98-39.1-36.98s-39.1 16.557-39.1 36.98c0 20.424 17.506 36.98 39.1 36.98Z"/><path fill="#F3BDCA" d="M161.05 159c10.797 0 19.55-8.278 19.55-18.49 0-10.212-8.753-18.49-19.55-18.49s-19.55 8.278-19.55 18.49c0 10.212 8.753 18.49 19.55 18.49ZM239.249 159c13.265 0 24.019-10.172 24.019-22.72 0-12.548-10.754-22.72-24.019-22.72-13.266 0-24.02 10.172-24.02 22.72 0 12.548 10.754 22.72 24.02 22.72Z"/><path fill="#F3BDCA" d="M98 165.26h208.77s-82.87-43.73-208.77 0Z"/><path fill="#EB92A7" d="M1159.22 101.92c22.24 0 40.27-12.867 40.27-28.74 0-15.873-18.03-28.74-40.27-28.74-22.24 0-40.27 12.867-40.27 28.74 0 15.873 18.03 28.74 40.27 28.74Z"/><path fill="#EB92A7" d="m1142.21 90.87-4.91 16.88 17.22-12.58-12.31-4.3Z"/><path stroke="#fff" stroke-linecap="round" stroke-miterlimit="10" stroke-width="4.78" d="M1186.39 68.88h-54.35M1186.39 80.33h-40.88"/><path fill="#F3BDCA" d="M982.204 160.46c11.388 0 20.616-6.586 20.616-14.71s-9.228-14.71-20.616-14.71-20.62 6.586-20.62 14.71 9.232 14.71 20.62 14.71Z"/><path fill="#F3BDCA" d="m990.903 154.81 2.52 8.64-8.81-6.44 6.29-2.2Z"/><path stroke="#fff" stroke-linecap="round" stroke-miterlimit="10" stroke-width="2.45" d="M968.295 143.55h27.82M975.184 149.41h20.93"/><path fill="#EB92A7" d="M438.53 85.92c9.637 0 17.45-5.574 17.45-12.45 0-6.876-7.813-12.45-17.45-12.45s-17.45 5.574-17.45 12.45c0 6.876 7.813 12.45 17.45 12.45Z"/><path fill="#EB92A7" d="m431.169 81.14-2.13 7.31 7.46-5.45-5.33-1.86Z"/><path stroke="#fff" stroke-linecap="round" stroke-miterlimit="10" stroke-width="2.07" d="M450.31 71.62h-23.55M444.47 76.58h-17.71"/><path fill="#DB284E" d="M282.079 115.73c19.076 0 34.54-11.036 34.54-24.65 0-13.614-15.464-24.65-34.54-24.65s-34.54 11.036-34.54 24.65c0 13.614 15.464 24.65 34.54 24.65Z"/><path fill="#DB284E" d="m296.669 106.25 4.21 14.48-14.76-10.79 10.55-3.69Z"/><path stroke="#fff" stroke-linecap="round" stroke-miterlimit="10" stroke-width="4.1" d="M258.779 87.4h46.61M270.33 97.21h35.06"/><path fill="#F3BDCA" d="M1239.3 156.48c8.27 0 14.96-6.514 14.96-14.55 0-8.036-6.69-14.55-14.96-14.55-8.26 0-14.96 6.514-14.96 14.55 0 8.036 6.7 14.55 14.96 14.55ZM1210.6 156.47c4.13 0 7.48-3.255 7.48-7.27s-3.35-7.27-7.48-7.27c-4.13 0-7.48 3.255-7.48 7.27s3.35 7.27 7.48 7.27Z"/><path fill="#F3BDCA" d="M1224.35 156.47c5.07 0 9.18-3.998 9.18-8.93 0-4.932-4.11-8.93-9.18-8.93-5.07 0-9.18 3.998-9.18 8.93 0 4.932 4.11 8.93 9.18 8.93Z"/><path fill="#F3BDCA" d="M1279.35 158.56h-74.37s29.51-16.02 74.37 0Z"/><path fill="#EB92A7" d="M463.265 252.454c15.356 0 27.804-11.992 27.804-26.784 0-14.793-12.448-26.784-27.804-26.784-15.356 0-27.804 11.991-27.804 26.784 0 14.792 12.448 26.784 27.804 26.784Z"/><path fill="#EB92A7" d="M491.07 252.454c7.678 0 13.902-5.996 13.902-13.392 0-7.396-6.224-13.392-13.902-13.392-7.678 0-13.902 5.996-13.902 13.392 0 7.396 6.224 13.392 13.902 13.392ZM435.462 252.454c9.429 0 17.073-7.37 17.073-16.461 0-9.092-7.644-16.462-17.073-16.462s-17.073 7.37-17.073 16.462c0 9.091 7.644 16.461 17.073 16.461Z"/><path fill="#EB92A7" d="M539.516 254.535H387.014s60.543-24.03 152.502 0ZM343.628 250.646c28.6 0 51.786-22.336 51.786-49.889 0-27.553-23.186-49.889-51.786-49.889-28.601 0-51.786 22.336-51.786 49.889 0 27.553 23.185 49.889 51.786 49.889Z"/><path fill="#EB92A7" d="M395.414 250.646c14.301 0 25.893-11.163 25.893-24.934 0-13.77-11.592-24.934-25.893-24.934-14.3 0-25.893 11.164-25.893 24.934 0 13.771 11.593 24.934 25.893 24.934ZM291.842 250.646c17.571 0 31.815-13.723 31.815-30.652 0-16.929-14.244-30.653-31.815-30.653s-31.815 13.724-31.815 30.653 14.244 30.652 31.815 30.652Z"/><path fill="#EB92A7" d="M485.61 254.536H201.627s112.728-44.76 283.983 0Z"/><path fill="#F3BDCA" d="M293.191 252.854c9.174 0 16.611-7.851 16.611-17.534 0-9.684-7.437-17.534-16.611-17.534s-16.611 7.85-16.611 17.534c0 9.683 7.437 17.534 16.611 17.534ZM257.844 252.854c4.535 0 8.211-3.267 8.211-7.296s-3.676-7.295-8.211-7.295-8.211 3.266-8.211 7.295 3.676 7.296 8.211 7.296Z"/><path fill="#F3BDCA" d="M276.582 252.854c5.567 0 10.08-4.01 10.08-8.957 0-4.946-4.513-8.956-10.08-8.956s-10.08 4.01-10.08 8.956c0 4.947 4.513 8.957 10.08 8.957Z"/><path fill="#F3BDCA" d="M286.424 253.989h-89.985s35.7-13.098 89.985 0Z"/><path fill="#F3BDCA" d="M260.72 252.181c8.768 0 15.876-6.326 15.876-14.128 0-7.803-7.108-14.128-15.876-14.128s-15.876 6.325-15.876 14.128c0 7.802 7.108 14.128 15.876 14.128Z"/><path fill="#F3BDCA" d="M276.596 252.181c4.384 0 7.938-3.163 7.938-7.064 0-3.902-3.554-7.064-7.938-7.064s-7.938 3.162-7.938 7.064c0 3.901 3.554 7.064 7.938 7.064ZM296.384 252.181c5.393 0 9.765-3.887 9.765-8.683 0-4.795-4.372-8.683-9.765-8.683-5.393 0-9.765 3.888-9.765 8.683 0 4.796 4.372 8.683 9.765 8.683Z"/><path fill="#F3BDCA" d="M303.351 253.694h-87.087s34.566-12.677 87.087 0ZM375.402 252.727c12.502 0 22.638-9.798 22.638-21.885 0-12.087-10.136-21.886-22.638-21.886-12.503 0-22.638 9.799-22.638 21.886s10.135 21.885 22.638 21.885Z"/><path fill="#F3BDCA" d="M390.48 252.748c5.207 0 9.429-4.085 9.429-9.124 0-5.039-4.222-9.124-9.429-9.124-5.208 0-9.429 4.085-9.429 9.124 0 5.039 4.221 9.124 9.429 9.124ZM352.764 252.749c6.391 0 11.571-5.017 11.571-11.206 0-6.189-5.18-11.206-11.571-11.206-6.39 0-11.571 5.017-11.571 11.206 0 6.189 5.181 11.206 11.571 11.206Z"/><path fill="#F3BDCA" d="M423.24 254.157H319.941s41.034-16.44 103.299 0Z"/><path fill="#F3BDCA" d="M405.999 252.79c10.079 0 18.249-7.897 18.249-17.638 0-9.742-8.17-17.639-18.249-17.639-10.079 0-18.249 7.897-18.249 17.639 0 9.741 8.17 17.638 18.249 17.638Z"/><path fill="#F3BDCA" d="M424.247 252.791c5.033 0 9.114-3.954 9.114-8.83 0-4.877-4.081-8.83-9.114-8.83-5.034 0-9.114 3.953-9.114 8.83 0 4.876 4.08 8.83 9.114 8.83ZM387.771 252.791c6.193 0 11.214-4.857 11.214-10.849 0-5.991-5.021-10.848-11.214-10.848-6.194 0-11.214 4.857-11.214 10.848 0 5.992 5.02 10.849 11.214 10.849Z"/><path fill="#F3BDCA" d="M456.041 254.157H356.039s39.669-15.831 100.002 0Z"/><path fill="#C22046" d="M423.618 208.956h-4.011l4.473-18.795h3.99l-4.452 18.795ZM441.615 224.219h-4.011l8.085-34.058h4.011l-8.085 34.058Z"/><path fill="#FFB769" d="M312.444 162.368c3.584 0 6.489-2.984 6.489-6.664 0-3.681-2.905-6.665-6.489-6.665s-6.489 2.984-6.489 6.665c0 3.68 2.905 6.664 6.489 6.664Z"/><path fill="#DB284E" d="M388.295 245.411h-66.003a1.3 1.3 0 0 1-1.302-1.303v-6.307c0-.348.137-.682.38-.93.244-.247.575-.389.922-.395h58.317a1.327 1.327 0 0 1 1.302 1.325l6.384 7.61Z"/><path fill="#13161A" d="M408.602 260.275c10.89 0 19.719-8.839 19.719-19.741 0-10.903-8.829-19.742-19.719-19.742-10.891 0-19.719 8.839-19.719 19.742 0 10.902 8.828 19.741 19.719 19.741Z"/><path fill="#DB284E" d="M408.604 250.604c5.555 0 10.059-4.509 10.059-10.07 0-5.562-4.504-10.071-10.059-10.071-5.556 0-10.059 4.509-10.059 10.071 0 5.561 4.503 10.07 10.059 10.07Z"/><path fill="#C22046" d="M307.215 212.656a29.172 29.172 0 0 0-8.82-1.366 28.518 28.518 0 0 0-6.3.693 29.394 29.394 0 0 0-14.991 8.617 29.438 29.438 0 0 0-7.563 15.561 3.79 3.79 0 0 0 .106 1.62 3.792 3.792 0 0 0 2.067 2.406 3.791 3.791 0 0 0 1.586.346h.126a2.43 2.43 0 0 0 1.632-.637c.446-.408.725-.968.783-1.57a22.71 22.71 0 0 1 7.741-14.993 22.66 22.66 0 0 1 31.265 1.525 22.721 22.721 0 0 1 6.249 15.675h6.531a29.313 29.313 0 0 0-5.66-17.274 29.256 29.256 0 0 0-14.752-10.603Z"/><path fill="#C22046" d="m337.475 236.539-9.87 3.994c-6.846-13.328-13.839-19.867-19.824-23.126-10.752-5.823-18.228-.904-15.708-5.466l18.438-38.977a17.147 17.147 0 0 1 6.51-5.425 16.781 16.781 0 0 1 8.82-1.555c3.528.315 4.83 1.913 4.977 5.445.294 6.833-3.213 25.228-6.888 33.806-8.988 21.192 13.545 31.304 13.545 31.304Z"/><path fill="#C22046" d="m327.416 170.441-7.455-2.838c-1.008 0-2.94.904-2.94 0l1.092-18.186a1.851 1.851 0 0 1 1.848-1.829h4.809c1.008 0 5.061 1.935 4.788 5.572l1.26 18.353c.021 1.03-2.394-1.072-3.402-1.072Z"/><path fill="#AC1D3E" d="M464.946 183.686h-55.713a2.753 2.753 0 0 0-2.751 2.754v1.514a2.753 2.753 0 0 0 2.751 2.754h55.713a2.752 2.752 0 0 0 2.751-2.754v-1.514a2.752 2.752 0 0 0-2.751-2.754Z"/><path fill="#13161A" d="M298.395 260.275c10.89 0 19.719-8.839 19.719-19.741 0-10.903-8.829-19.742-19.719-19.742-10.891 0-19.719 8.839-19.719 19.742 0 10.902 8.828 19.741 19.719 19.741Z"/><path fill="#DB284E" d="M308.454 240.534a10.136 10.136 0 0 1-1.155 4.688 1.712 1.712 0 0 0-.147.273 10.07 10.07 0 0 1-7.703 5.069 10.038 10.038 0 0 1-4.701-.626 10.073 10.073 0 0 1-.196-18.697h.126a10.07 10.07 0 0 1 9.369 1.025 10.093 10.093 0 0 1 4.428 8.331l-.021-.063ZM370.741 200.757s7.707 17.134-9.471 35.74h39.543l-5.376-40.828-24.696 5.088Z"/><path fill="#DB284E" d="M448.44 242.804a2.626 2.626 0 0 1-2.604 2.607h-63.357a2.624 2.624 0 0 1-2.604-2.607l.84-41.438 21.315-1.303c28.371 0 46.41 14.317 46.41 42.741ZM318.933 155.325c-.003.627-.06 1.253-.168 1.871a10.224 10.224 0 0 1-3.496 6.028 10.192 10.192 0 0 1-6.542 2.381v-20.393c2.688 0 5.268 1.062 7.179 2.956a10.224 10.224 0 0 1 3.027 7.157Z"/><path fill="#2B478B" d="M335.04 156.712h-.504l-11.214-3.111a1.092 1.092 0 0 1-.693-1.24c0-.589.483-1.01.924-.925l11.256 2.102c.441 0 .798.757.903 1.345.189.989-.273 1.829-.672 1.829Z"/><path fill="#C22046" d="M307.907 218.228c.105.63.21 1.24.294 1.829a22.44 22.44 0 0 0-9.723-2.103 22.692 22.692 0 0 0-15.234 5.893 22.735 22.735 0 0 0-7.341 14.605 2.438 2.438 0 0 1-2.415 2.208h-.126a3.802 3.802 0 0 1-3.759-4.373 29.315 29.315 0 0 1 7.498-15.536c4-4.308 9.202-7.312 14.93-8.62h.126l18.438-38.978a17.142 17.142 0 0 1 6.51-5.424 77.214 77.214 0 0 0-9.807 45.075c.154 1.555.343 3.153.567 4.793l.042.631Z"/><path fill="#323942" d="M411.079 190.708h-40.446a1.933 1.933 0 0 0-1.932 1.934v6.181c0 1.068.865 1.934 1.932 1.934h40.446a1.933 1.933 0 0 0 1.932-1.934v-6.181a1.933 1.933 0 0 0-1.932-1.934Z"/><path fill="#AC1D3E" d="M443.357 245.411h-60.9s-3.717-22.558 9.996-30.169a20.286 20.286 0 0 1 11.949-2.102c14.259 1.45 32.193 13.539 38.955 32.271Z"/><path fill="#C22046" d="M318.765 157.196a10.224 10.224 0 0 1-3.496 6.028 10.192 10.192 0 0 1-6.542 2.381v-5.676c3.003 0 7.413-.294 10.038-2.733Z"/><path fill="#13161A" d="M400.139 200.757h-29.4a1.95 1.95 0 0 1-1.932-1.955v-6.139a1.954 1.954 0 0 1 1.932-1.955h20.16a49.743 49.743 0 0 0 9.24 10.049Z"/><path fill="#C22046" d="M443.357 245.411h-25.2c-15.267-7.736-14.322-26.447-13.65-32.208 14.154 1.388 32.088 13.476 38.85 32.208ZM307.152 245.495a10.07 10.07 0 0 1-7.703 5.069 10.05 10.05 0 0 1-8.593-3.34 10.076 10.076 0 0 1 3.696-15.983c.861 4.373 3.675 12.425 12.6 14.254Z"/><path fill="#DB284E" d="M307.907 218.228c.105.631.21 1.24.294 1.829-3.633-3.364-11.34-6.307-16.17-8.01h.126l18.438-38.978a17.142 17.142 0 0 1 6.51-5.424 77.214 77.214 0 0 0-9.807 45.075c.154 1.555.343 3.153.567 4.793l.042.715Z"/><path fill="#6C6D6D" d="M405.137 170.588s.693 11.416-3.129 17.87c-3.528 5.95-63.231 2.418-63.231 2.418s-.252-8.851 2.1-11.121c2.352-2.271 13.314-8.788 48.3-12.488l15.96 3.321Z"/><path fill="#DB284E" d="M405.999 143.342c-.903 11.352.294 28.613-.756 31.535-.882 2.565-11.13 1.051-15.204.189a87.262 87.262 0 0 1-5.229-1.324c-5.271-1.493-11.025-3.637-11.655-5.235a.6.6 0 0 1 0-.189 1.357 1.357 0 0 1 0-.652c.147-.61.63-1.24.903-2.355.112-.44.176-.891.189-1.345 0-2.103 0-4.457.168-7.022v-.715a7.755 7.755 0 0 1 0-.988v-.294c0-3.175.273-6.497.483-9.797 0-1.031.147-2.103.21-3.07v-1.072c0-.357.105-1.325.168-1.955a75.646 75.646 0 0 1 1.911-12.467 19.923 19.923 0 0 1 6.972-9.923l2.751-2.103a9.544 9.544 0 0 0 6.3-.315c2.499-1.093 3.381-1.892 3.801-1.577 5.901 4.184 10.08 16.819 8.988 30.674Z"/><path fill="#1C4575" d="M360.932 227.814s-.525 8.599-2.1 8.704h-18.9a3.362 3.362 0 0 1 3.066-3.006c3.066-.526 8.169-2.691 10.038-6.728 1.869-4.036 7.896 1.03 7.896 1.03Z"/><path fill="#6C6D6D" d="M363.116 228.382a11.44 11.44 0 0 1-6.132 1.745 15.94 15.94 0 0 1-2.898 0 13.79 13.79 0 0 1-3.675-.946l-11.634-38.2s12.012-10.512 18.291-3.974a10.74 10.74 0 0 1 2.1 4.205c3.99 12.867 3.948 37.17 3.948 37.17Z"/><path fill="#FFB27D" d="M343.44 149.417c-1.376.358-2.782.59-4.2.694-.903-.126-5.334-1.871-6.72-1.135-1.386.736-4.494 5.193-3.276 6.748a4.89 4.89 0 0 0 3.045-2.102c1.323-1.892 3.234-1.051 3.087-.799-.147.252-2.457 1.64-1.953 2.102a7.338 7.338 0 0 0 4.431-.904 27.576 27.576 0 0 1 6.552-.925l-.966-3.679Z"/><path fill="#DB284E" d="M385.314 116.326s-12.6 18.354-23.1 23.715a230.216 230.216 0 0 1-23.919 9.482s1.575 6.958 3.654 8.409c0 0 16.8-1.535 27.615-6.622 4.956-2.334 24.108-16.819 25.851-18.06 1.743-1.24-2.583-19.573-10.101-16.924Z"/><path stroke="#000" stroke-linecap="round" stroke-miterlimit="10" stroke-width=".27" d="m374.75 148.093 18.06-12.993a9.126 9.126 0 0 0 3.398-7.776 9.123 9.123 0 0 0-4.469-7.214M377.943 125.997l3.381-3.784" opacity=".3"/><path fill="#F2AA91" d="M378.426 93.18s-1.659 13.538 1.806 18.416c2.877 4.079 6.636.505 6.636.505l.189 3.3s3.423 1.409 9.744-2.544a16.608 16.608 0 0 1-2.94-8.409s4.599-2.859 1.071-6.307c-3.528-3.448-2.772 2.102-2.772 2.102s-2.751-17.765-13.734-7.064Z"/><path fill="#1E1C1F" d="M393.651 106.487a5.592 5.592 0 0 0-.882-4.205s.882-2.417 0-2.964c-.882-.547-1.407 1.535-1.806 1.135a10.027 10.027 0 0 1-2.772-4.625c-.546-2.418-8.799-.673-9.786-.4-.987.274 5.481-11.752 12.453-8.892 6.972 2.859 7.476 6.433 6.678 9.334s-.798 10.007-3.885 10.617Z"/><path fill="#DB284E" d="M398.586 96.585a.764.764 0 0 1-.336.652.358.358 0 0 1-.21 0h-26.691a.648.648 0 0 1-.546-.715.648.648 0 0 1 .546-.715l5.964-.757a11.101 11.101 0 0 1 7.392-9.313c.965-.303 1.97-.46 2.982-.463 2.725.077 5.32 1.18 7.267 3.09a10.836 10.836 0 0 1 3.233 7.212v.21a.754.754 0 0 1 .399.8Z"/><path fill="#C22046" d="M389.64 95.639c2.1-10.512-4.641-9.86-4.851-9.84.965-.303 1.97-.458 2.982-.462 2.725.077 5.32 1.18 7.267 3.09a10.831 10.831 0 0 1 3.233 7.212h-8.631Z"/><path fill="#E0AC69" d="m456.356 150.002-47.544-.149a1.281 1.281 0 0 0-1.285 1.278l-.099 31.493a1.282 1.282 0 0 0 1.277 1.287l47.544.149a1.28 1.28 0 0 0 1.285-1.278l.099-31.493a1.282 1.282 0 0 0-1.277-1.287Z"/><path fill="#F7CD97" d="m422.27 149.938 43.805.077c.457 0 .895.183 1.217.507.323.323.503.762.502 1.219l-.053 30.59a1.72 1.72 0 0 1-1.725 1.721l-43.806-.077.06-34.037Z"/><path fill="#F1C27D" d="m417.548 149.881-5.796-.019-.011 3.427 5.796.018.011-3.426ZM417.452 180.532l-5.796-.018-.011 3.427 5.796.018.011-3.427Z"/><g clip-path="url(#a)"><path fill="#D7244F" d="m429.484 165.151.114-.023c-.17 1.115-.336 2.526-.321 2.972a.395.395 0 0 0 .401.398.478.478 0 0 0 .203-.049c1.016-.497 1.645-.656 2.686-.921.245-.061.309-.269.289-.426-.023-.184-.165-.371-.393-.371a.445.445 0 0 0-.108.014c-.891.226-1.488.388-2.23.704.017-.174.038-.375.064-.597l.403-.167c.694-.289 1.152-.479 1.976-.704.244-.067.305-.276.285-.436-.025-.18-.165-.362-.386-.362a.448.448 0 0 0-.115.015c-.833.229-1.295.422-1.994.713l-.053.021c.061-.435.122-.854.178-1.181.588-.258 1.131-.391 1.99-.561.2-.04.316-.196.296-.398-.018-.192-.17-.395-.413-.395a.43.43 0 0 0-.088.009c-.676.134-1.201.255-1.718.444a.342.342 0 0 0-.047-.061.43.43 0 0 0-.307-.125.377.377 0 0 0-.382.293 2.229 2.229 0 0 1-.027.101v.004c-.021.074-.047.164-.061.232-.105.03-.486.098-.854.161l-.019.004c-.432.074-.922.158-1.235.23l.027-.643c.006-.116.008-.236.011-.353v-.067c.36-.053.718-.109 1.149-.175l.01-.002c.47-.073 1.002-.156 1.519-.23a.318.318 0 0 0 .222-.147.432.432 0 0 0 .057-.328c-.048-.174-.192-.278-.387-.278a.512.512 0 0 0-.078.006c-.489.07-.987.147-1.467.222l-.022.003-.947.146c.016-.111.04-.221.071-.329a.358.358 0 0 0-.054-.324.417.417 0 0 0-.33-.159.36.36 0 0 0-.362.273c-.06.213-.098.431-.115.651-.443.061-.837.11-1.205.149-.224.024-.377.179-.377.386 0 .189.176.409.394.386.351-.037.727-.083 1.15-.14l-.007.183a74.37 74.37 0 0 0-.039.984 9.11 9.11 0 0 0-.407.139c-.168.061-.289.268-.269.457a.314.314 0 0 0 .285.288.77.77 0 0 0 .283-.005l.077-.018-.011.306c-.028.791-.056 1.609-.101 2.413a.33.33 0 0 0 .017.143c.015.046.04.089.073.125a.385.385 0 0 0 .278.112c.19 0 .389-.127.403-.371.046-.811.074-1.632.102-2.425l.017-.507c.425-.11 1.372-.301 1.828-.394l.071-.015ZM447.116 166.629c-.023-.184-.165-.371-.393-.371a.43.43 0 0 0-.107.014c-.937.238-1.611.419-2.397.751.013-.172.031-.373.056-.598a32.297 32.297 0 0 0 .592-.248c.503-.215.779-.333 1.52-.536.245-.068.306-.276.285-.436-.024-.18-.164-.363-.386-.363a.49.49 0 0 0-.114.016 9.656 9.656 0 0 0-1.538.543l-.245.104c.061-.437.129-.884.194-1.261.258-.109.537-.184.8-.251.359-.09.581-.128.839-.172h.002c.133-.022.297-.05.508-.092a.352.352 0 0 0 .298-.397c-.019-.193-.171-.398-.415-.398a.411.411 0 0 0-.086.008c-.209.041-.413.075-.612.108-.397.066-.81.134-1.205.256a.36.36 0 0 0-.085-.138.434.434 0 0 0-.306-.124.376.376 0 0 0-.381.292 7.02 7.02 0 0 0-.074.352 3.201 3.201 0 0 0-.469.359.36.36 0 0 0-.102.41.445.445 0 0 0 .392.278c-.174 1.118-.339 2.47-.284 2.928.028.23.194.392.404.392a.45.45 0 0 0 .2-.049c1.007-.492 1.769-.686 2.823-.953.242-.061.306-.267.286-.424ZM436.148 168.587c.045-.554.113-1.198.179-1.821v-.014c.046-.437.094-.888.132-1.296.041-.445.088-.927.146-1.425l.015-.137a5.52 5.52 0 0 1 .114-.723.34.34 0 0 0 .005-.152.318.318 0 0 0-.064-.138.411.411 0 0 0-.317-.151.354.354 0 0 0-.316.182c-.153.265-.289.538-.42.802-.083.165-.177.353-.271.53-.174.328-.321.59-.466.823a5.97 5.97 0 0 1-.133.203 18.336 18.336 0 0 1-.348-1.067c-.07-.247-.15-.492-.227-.729l-.107-.333a1.242 1.242 0 0 0-.014-.088l-.001-.004a1.086 1.086 0 0 0-.043-.107.353.353 0 0 0-.322-.18.423.423 0 0 0-.188.045.343.343 0 0 0-.108.089.317.317 0 0 0-.091.184 1.596 1.596 0 0 0-.042.322c-.003.049-.006.1-.011.141-.058.429-.094.884-.118 1.479-.036.942-.07 2.218-.087 3.331a.329.329 0 0 0 .22.325.382.382 0 0 0 .149.027c.186 0 .376-.12.38-.349.008-.573.027-1.235.046-1.874.013-.44.023-.803.03-1.14l.009-.306c.165.454.361.788.614 1.049a.371.371 0 0 0 .263.101.344.344 0 0 0 .199-.059c.346-.248.58-.648.791-1.043l-.031.321c-.037.394-.083.835-.128 1.261l-.002.02c-.068.649-.139 1.319-.187 1.905a.308.308 0 0 0 .077.24.358.358 0 0 0 .264.106c.19 0 .392-.12.409-.35ZM437.34 168.182c.161-.502.309-1.01.42-1.4.402-.206.77-.391 1.123-.566.22.729.486 1.445.794 2.142.056.126.194.207.352.207a.414.414 0 0 0 .206-.054c.187-.109.247-.329.15-.547a16.9 16.9 0 0 1-.765-2.109c.201-.096.381-.184.551-.263a.345.345 0 0 0 .204-.401.442.442 0 0 0-.419-.347.425.425 0 0 0-.182.041l-.377.18a43.403 43.403 0 0 1-.306-1.229 13.792 13.792 0 0 0-.13-.511 3.798 3.798 0 0 1-.052-.221l-.004-.019a.383.383 0 0 0-.023-.348.428.428 0 0 0-.362-.204.326.326 0 0 0-.199.064.53.53 0 0 0-.206.306l-.014-.004-.016.075c-.365.993-.658 2.02-.94 3.017l-.067.231-.028.015a.423.423 0 0 0-.069.03 1.26 1.26 0 0 0-.075.042 1.159 1.159 0 0 1-.068.038l-.071.037.003.007a.348.348 0 0 0-.127.376.45.45 0 0 0 .2.275c-.104.351-.192.643-.281.918a.372.372 0 0 0-.019.175.37.37 0 0 0 .065.162.435.435 0 0 0 .348.167.387.387 0 0 0 .384-.282Zm.723-2.462c.096-.336.222-.771.362-1.221l.007.031c.045.194.096.415.153.632l.07.264c-.187.092-.381.187-.592.294Z"/><path fill="#D7244F" d="M442.833 167.032a.4.4 0 0 0-.197.052 4.238 4.238 0 0 1-.872.375c-.14.041-.285.062-.431.064l-.015-.002c-.02-.112.009-.271.031-.401.04-.224.085-.478.122-.735.214-1.474.328-2.658.372-3.838a.382.382 0 0 0-.1-.28.414.414 0 0 0-.293-.118c-.2 0-.408.135-.417.392-.057 1.528-.19 2.837-.419 4.119l-.025.13-.003.017c-.092.479-.209 1.076.265 1.393a.893.893 0 0 0 .509.137c.185-.005.369-.031.548-.077.404-.094.783-.283 1.131-.473a.363.363 0 0 0 .19-.429c-.039-.161-.19-.326-.396-.326ZM456.747 167.287h-.03c-.33 0-.507.264-.513.525-.006.251.147.528.496.543h.027c.331 0 .51-.263.516-.524.005-.251-.148-.529-.496-.544ZM452.699 164.312c-.111-.796-.598-1.477-1.271-1.779a1.778 1.778 0 0 0-.728-.16c-.471 0-.882.196-1.156.551a1.756 1.756 0 0 0-.203.321.417.417 0 0 0 .02.416c.06.095.152.166.259.199-.02.602-.024 1.225-.013 1.849.008.438.024.957.086 1.481l.011.09a2.23 2.23 0 0 1-.194.013c-.272.007-.412.225-.409.436.002.198.129.41.402.41h.011c.131-.003.261-.015.39-.036.02.039.043.077.069.112a.458.458 0 0 0 .364.199c.073 0 .144-.02.206-.058a.432.432 0 0 0 .133-.126.47.47 0 0 0 .072-.169.382.382 0 0 0-.014-.209c.448-.21.846-.514 1.166-.892.638-.753.929-1.717.799-2.648Zm-2.208-1.071a.47.47 0 0 1 .186-.031h.047a.858.858 0 0 1 .284.06c.419.141.755.593.858 1.15.116.629-.112 1.405-.581 1.975a2.549 2.549 0 0 1-.764.629c-.05-.472-.063-.957-.071-1.41-.013-.807 0-1.605.041-2.373ZM455.662 165.975a22.278 22.278 0 0 0-.236-1.721c-.075-.394-.161-.812-.309-1.209-.067-.179-.139-.349-.274-.473a.534.534 0 0 0-.359-.143.494.494 0 0 0-.367.165.403.403 0 0 0-.104.2.398.398 0 0 0 .017.224l.002.008-.016.037c-.153.406-.288.821-.421 1.223v.003c-.147.447-.28.849-.43 1.248-.206.066-.26.25-.243.388a.397.397 0 0 0 .038.13 7.1 7.1 0 0 0-.21.561c-.083.263-.179.652-.051.987.071.184.226.3.405.3a.413.413 0 0 0 .269-.101.437.437 0 0 0 .155-.29.367.367 0 0 0-.022-.154c-.065-.171.017-.405.088-.612l.018-.049c.056-.164.124-.327.189-.485l.018-.043a24.18 24.18 0 0 1 1.007-.187l.021.188c.078.72.16 1.464.333 2.182a.389.389 0 0 0 .136.225.388.388 0 0 0 .249.083.465.465 0 0 0 .356-.17.391.391 0 0 0 .078-.169.39.39 0 0 0-.006-.186c-.17-.708-.252-1.446-.331-2.16Zm-.93-.749c-.231.039-.423.073-.6.105.09-.259.179-.528.262-.78l.009-.028.135-.407a12.065 12.065 0 0 1 .141.751l.01.066.011.073a5.765 5.765 0 0 1 .032.22ZM457.146 164.844l.015-.231v-.008l.022-.337v-.017c.01-.129.016-.207.026-.503l.003-.087.002-.045c.012-.294.024-.598-.053-.88a.41.41 0 0 0-.409-.312.44.44 0 0 0-.352.166.379.379 0 0 0-.061.343.823.823 0 0 1 .023.13v.026c.003.045.004.088.005.125.006.202 0 .403-.008.607-.01.294-.018.396-.03.538v.004c-.007.092-.016.204-.028.408l-.01.163c-.021.35-.037.604-.033 1v.077c0 .318 0 .851.405.914a.704.704 0 0 0 .103.008.367.367 0 0 0 .316-.147c.114-.158.083-.387.046-.498a.436.436 0 0 1-.016-.08l-.002-.028v-.007a.222.222 0 0 0-.003-.034l-.004-.115v-.009c-.002-.09 0-.183 0-.263.009-.362.024-.591.043-.908ZM462.634 162.647a.359.359 0 0 0-.166.039.356.356 0 0 0-.127.114l-.013-.004-.031.092c-.159.46-.347.921-.547 1.409l-.002.005c-.084.206-.155.379-.223.551-.18-.259-.367-.535-.567-.843-.07-.107-.107-.156-.137-.196a1.948 1.948 0 0 1-.145-.224 4.446 4.446 0 0 1-.222-.412l-.008-.019a.517.517 0 0 1-.014-.042.338.338 0 0 0-.332-.245.379.379 0 0 0-.165.037.377.377 0 0 0-.131.107.325.325 0 0 0-.06.145.33.33 0 0 0 .017.156v.004c.185.426.277.566.478.872l.092.139.002.003c.311.48.603.906.89 1.302-.32.892-.489 1.615-.53 2.275a.317.317 0 0 0 .333.348c.171 0 .352-.115.365-.334.072-1.135.554-2.296 1.019-3.421l.004-.009c.155-.375.302-.73.436-1.085a.405.405 0 0 0 .052-.104c.012-.037.023-.076.034-.117l.03-.104a.32.32 0 0 0-.168-.401.372.372 0 0 0-.164-.038ZM459.935 166.926a.422.422 0 0 0-.199.052 3.816 3.816 0 0 1-.8.345 1.464 1.464 0 0 1-.372.057c-.009-.094.014-.222.031-.327l.002-.01c.037-.207.079-.441.113-.676.191-1.32.305-2.516.346-3.655a.38.38 0 0 0-.102-.284.403.403 0 0 0-.297-.12c-.202 0-.411.136-.421.396-.043 1.155-.17 2.434-.391 3.91l-.03.185c-.078.435-.175.977.266 1.272.134.09.294.133.491.133.174-.004.347-.029.515-.072.378-.088.731-.264 1.057-.441a.37.37 0 0 0 .193-.435c-.041-.164-.193-.33-.402-.33Z"/><path fill="#D8254F" d="M462.987 169.619h-16.505v2.924h16.505v-2.924Z"/><path fill="#fff" d="M449.117 171.337a.383.383 0 0 0-.142-.092 1.86 1.86 0 0 0-.192-.061 1.928 1.928 0 0 1-.212-.066 1.076 1.076 0 0 1-.193-.094.402.402 0 0 1-.141-.157.494.494 0 0 1-.055-.244.462.462 0 0 1 .166-.364c.11-.097.26-.145.449-.145a.789.789 0 0 1 .471.156.45.45 0 0 1 .07.061l.021.026-.187.188a.286.286 0 0 0-.06-.057.483.483 0 0 0-.178-.087.578.578 0 0 0-.137-.017.36.36 0 0 0-.233.072.216.216 0 0 0-.088.169.203.203 0 0 0 .054.145c.04.041.089.073.142.092.063.024.127.045.193.061.071.018.142.04.211.066a.98.98 0 0 1 .193.093c.06.039.109.093.142.157a.512.512 0 0 1 .055.243.52.52 0 0 1-.178.406c-.118.105-.282.157-.491.157a.92.92 0 0 1-.564-.189.685.685 0 0 1-.08-.072l-.026-.033.187-.187.018.023a.543.543 0 0 0 .286.168.63.63 0 0 0 .178.023.411.411 0 0 0 .275-.085.26.26 0 0 0 .101-.21.212.212 0 0 0-.013-.079.195.195 0 0 0-.042-.067ZM451.66 170.143v.268h-.563v1.608h-.293v-1.608h-.563v-.268h1.419ZM453.732 171.628a.488.488 0 0 0 .147-.359v-1.126h.295v1.126a.747.747 0 0 1-.23.549.8.8 0 0 1-1.291-.25.76.76 0 0 1-.058-.298v-1.127h.295v1.126a.5.5 0 0 0 .147.36.49.49 0 0 0 .348.15.476.476 0 0 0 .347-.15v-.001ZM455.979 170.143a.915.915 0 0 1 .671.277.935.935 0 0 1 .28.661.925.925 0 0 1-.28.661.915.915 0 0 1-.671.277h-.656v-1.876h.656Zm-.361.268v1.34h.361a.627.627 0 0 0 .464-.195.683.683 0 0 0-.211-1.096.627.627 0 0 0-.253-.049h-.361ZM457.999 170.143h.294v1.876h-.294v-1.876ZM459.647 170.397a.962.962 0 0 1 .703-.28.968.968 0 0 1 .99.964.966.966 0 0 1-.99.964.959.959 0 0 1-.914-.593.967.967 0 0 1 .211-1.055Zm.211 1.179a.702.702 0 0 0 1.173-.286.702.702 0 1 0-1.375-.209.665.665 0 0 0 .202.495Z"/></g><path fill="#EB92A7" d="M1067.63 252.041c30.6 0 55.41-23.867 55.41-53.308 0-29.442-24.81-53.309-55.41-53.309-30.6 0-55.41 23.867-55.41 53.309 0 29.441 24.81 53.308 55.41 53.308Z"/><path fill="#EB92A7" d="M1141.84 251.777c16.54 0 29.95-12.9 29.95-28.812s-13.41-28.812-29.95-28.812-29.94 12.9-29.94 28.812 13.4 28.812 29.94 28.812Z"/><path fill="#EB92A7" d="M1171.79 251.777c8.27 0 14.97-6.45 14.97-14.406s-6.7-14.406-14.97-14.406-14.98 6.45-14.98 14.406 6.71 14.406 14.98 14.406ZM1111.89 251.757c10.17 0 18.4-7.922 18.4-17.694 0-9.772-8.23-17.694-18.4-17.694-10.16 0-18.39 7.922-18.39 17.694 0 9.772 8.23 17.694 18.39 17.694Z"/><path fill="#EB92A7" d="M1223.93 254.028h-164.18s65.18-25.856 164.18 0ZM1006.1 251.366c19.56 0 35.41-15.257 35.41-34.077s-15.85-34.077-35.41-34.077c-19.554 0-35.407 15.257-35.407 34.077s15.853 34.077 35.407 34.077Z"/><path fill="#EB92A7" d="M1041.51 251.346c9.78 0 17.71-7.624 17.71-17.028 0-9.405-7.93-17.029-17.71-17.029-9.79 0-17.72 7.624-17.72 17.029 0 9.404 7.93 17.028 17.72 17.028ZM970.691 251.346c12.01 0 21.746-9.367 21.746-20.923 0-11.556-9.736-20.924-21.746-20.924-12.01 0-21.746 9.368-21.746 20.924s9.736 20.923 21.746 20.923Z"/><path fill="#EB92A7" d="M1103.19 254.028H909s77.079-30.574 194.19 0Z"/><path fill="#DB284E" d="M1064.66 48.685a48.134 48.134 0 0 0-34.04 14.103 48.156 48.156 0 0 0-14.11 34.047c0 26.6 48.15 96.751 48.15 96.751s48.15-70.151 48.15-96.75a48.147 48.147 0 0 0-48.15-48.15Zm0 72.852c-4.98 0-9.86-1.479-14-4.25a25.216 25.216 0 0 1-9.29-11.317 25.144 25.144 0 0 1-1.43-14.569c.97-4.89 3.38-9.383 6.9-12.908a25.247 25.247 0 0 1 12.92-6.895c4.89-.97 9.96-.468 14.56 1.443a25.15 25.15 0 0 1 11.31 9.294 25.145 25.145 0 0 1 4.24 14.011c0 6.683-2.66 13.09-7.39 17.814a25.185 25.185 0 0 1-17.82 7.377Z"/><path fill="#C22046" d="M1064.67 71.136a25.118 25.118 0 0 1 15.05 5.01 25.187 25.187 0 0 0-38.53-5.874 25.13 25.13 0 0 0-6.39 9.017 25.21 25.21 0 0 0-1.92 10.884 25.297 25.297 0 0 0 2.93 10.655 25.202 25.202 0 0 0 7.21 8.378 25.224 25.224 0 0 1-3.56-12.635 25.169 25.169 0 0 1 25.21-25.435ZM1112.82 96.836c0-6.74-1.41-13.404-4.15-19.562a48.033 48.033 0 0 0-11.75-16.179 47.945 47.945 0 0 1 9.3 28.42c0 24.467-40.77 85.829-47.29 95.459 3.51 5.363 5.74 8.612 5.74 8.612s48.15-70.15 48.15-96.75Z"/><path fill="#DB284E" d="m1003.19 204.214 31.71-5.441 29.18 5.441 30.12-6.146 31.95 6.146 19.45 51.869-42.37-10.511-38.56 10.511-38.78-9.336-42.158 9.336 19.458-51.869Z"/><path fill="#F3BDCA" d="M1127.67 236.353c-.3-.724-.63-1.468-.92-2.192a9.183 9.183 0 0 1-.3-.724 1.21 1.21 0 0 0-.33-.783v-.294a2.31 2.31 0 0 1 0-.372c-.14-.137-.41-.176-.43-.391h.43c-.29-.196-.57-.274-.66-.548-.47-1.135-.94-2.251-1.39-3.367 0-.117-.12-.254 0-.313.11-.059.13-.235 0-.391-.22-.509-.43-1.018-.63-1.527-.2-.509-.59-1.39-.88-1.957v-.137l-.24.234-.96-.626a2.803 2.803 0 0 0-.29 0 .477.477 0 0 1-.24.01.45.45 0 0 1-.21-.108.634.634 0 0 0-.27-.144.667.667 0 0 0-.32.007c-.12.03-.25.03-.37 0-.24-.092-.5-.092-.74 0l-.28-.293-.47.176v-.411l-.66-.196c-.24.176-.26.157-.57 0l-.86-.528h-.18c-.23.156-.33.117-.54-.137a1.236 1.236 0 0 0-.24-.216l-.29.235c-.22-.176-.43-.313-.61-.489a.428.428 0 0 0-.47 0l-1.21.587c.16.05.33.109.49.176.09.057.17.138.23.235 0 .117 0 .117-.21.137l-.53.137h-.22c-.08 0-.43 0-.43.294v.117c0 .118-.53-.411-.86-.333-.01.098-.01.196 0 .294a.7.7 0 0 1-.09.402.682.682 0 0 1-.32.263c-.14 0-.14.196 0 .372s.12.313 0 .353a1.233 1.233 0 0 0-.8.567.814.814 0 0 1-.65.294h-.53c-.3-.027-.59-.136-.84-.313l-.78-.627c-.24.222-.44.488-.59.783.35.149.72.241 1.1.274a.62.62 0 0 1 .25 0c.24.154.53.21.8.157.31-.03.62.038.88.196a.47.47 0 0 1 .19.16c.05.068.08.148.09.231 0 .137 0 .196-.22.196-.21 0-.25.196-.35.313-.1.117-.16.254 0 .509.16.254.28.254.59.235.1-.02.2-.02.29 0 .11.051.24.059.35.022a.48.48 0 0 0 .28-.218c.07.114.17.207.29.269.12.062.26.091.39.083.13.006.25.047.36.118l.62.235 1.04.313c.25 0 .45.117.61 0 .13-.056.27-.095.41-.118l.25.431.49-.313.33.352c.1.151.24.263.41.317.17.053.35.045.51-.023h.2c0 .509.49.43.82.528h.31l.55.548v.313c.22 0 .34 0 .36-.176.01-.176.21-.195.46-.117l-.15.626.35.157c.37.156.43.235.31.47a.507.507 0 0 0-.09.293c0 .105.03.208.09.294.15.185.34.332.55.43.22 0 .26 0 .35-.156h.14c0 .117 0 .313.16.352.15.039.33.392.57.587h.35c.31.216.57.45.84.627.27.176.39.254.18.469-.22.216-.16.411 0 .705.15.294.33.587 0 .724 0 .176 0 .313-.12.45s0 .255.19.314h.34v-.157c0-.039 0-.254.21-.215.07.014.14.049.19.102.06.052.09.119.11.191a.396.396 0 0 0 0 .216c.35.137.33 0 .47-.157.29.019.58.019.88 0 .23 0 .41 0 .39-.274 0-.042.01-.083.03-.121a.333.333 0 0 1 .08-.094c.13-.121.27-.232.42-.333.1.054.19.132.25.228.07.095.11.205.12.32 0 .137 0 .333.17.431.18.097.47.704.94.861.06.023.11.058.16.102a.69.69 0 0 1 .1.152c.25.34.56.632.92.861.13.08.28.145.43.196a4.82 4.82 0 0 1-1.33-1.742Zm-67.49-16.206c-.14-.274 0-.529 0-.803h.45v.411c.18-.191.38-.368.59-.528.24-.157.5-.294.76-.411-.22-.216-.59-.235-.57-.568.02-.333 0-.509.43-.568a.933.933 0 0 1-.03-.469.98.98 0 0 1 .19-.431c.16-.254.33-.489 0-.763l.33-.157c.22 0 .41-.157.39-.391 0-.032.01-.064.02-.093a.136.136 0 0 1 .06-.071.142.142 0 0 1 .09-.031c.03-.002.06.004.09.018.21 0 .55 0 .66.314.12.313.2.156.38.137h.33a.399.399 0 0 1 .2-.053c.08 0 .15.018.21.053a.385.385 0 0 0 .41 0 .5.5 0 0 0-.12-.369.538.538 0 0 0-.33-.199 5.624 5.624 0 0 1-1.6-.92.888.888 0 0 0-.42-.078.296.296 0 0 1-.13-.021.475.475 0 0 1-.12-.077.444.444 0 0 1-.07-.118c-.01-.044-.01-.091-.01-.137v-.215a.627.627 0 0 1 0-.333h.37a.687.687 0 0 0 .3-.117v-.215c0-.039-.41-.274-.63-.431a.615.615 0 0 1-.25-.137 4.45 4.45 0 0 1-.18-.509c-.7 0-.72 0-.67-.45a.533.533 0 0 0-.04-.352.504.504 0 0 0-.27-.235l-.57.215a.784.784 0 0 1 0-.607c.12-.195.26-.215.4 0a.543.543 0 0 0 .45.196c.29 0 .46 0 .56-.274l.26.196c.04.032.1.049.15.049.06 0 .11-.017.16-.049-.39-.216-.55-.587-1.1-.607a.317.317 0 0 0 0-.137v-.137c-.35-.176-.39-.196-.6 0a.789.789 0 0 1-.59.117l-1.25-.274-.14.196-.84-.176c-.01.098-.01.196 0 .294 0 .156 0 .274-.27.293a.285.285 0 0 0-.12.033.272.272 0 0 0-.08.085c-.03.142-.03.288 0 .43a.373.373 0 0 0 .21.392c.24.117.22.176.12.352-.17.272-.4.494-.68.646h-.12c-.47 0-.57 0-.47.333.1.332 0 .587-.45.763-.45.176-.31.313-.16.548a.51.51 0 0 1 .12.333c0 .195-.12.235-.33.156-.22-.078-.22 0-.34 0l.14.137c-.16.103-.3.228-.43.372-.19.235-.19.235-.51.157-.31-.078-.43 0-.41.274.02.274 0 .313 0 .47.01.071.01.143 0 .215l-.35-.313-.41.195v.314c0 .195.17.274.39.176l.35-.216v.353a.743.743 0 0 0 .65 0 .415.415 0 0 1 .21 0h.47c.09-.028.19-.03.28-.006.09.024.17.074.23.143.16.195.3.405.41.626h-.49c0 .215 0 .215.32.294.58.156.66.293.47.783v.117a.525.525 0 0 0 0 .489h.39c-.2.196-.3.372 0 .568.29.196 0 0 0 0s.17.294.39.333c.21.039.33.117.35.254.02.137.14.764-.29 1.057l.21.724c.28.137.28.137.32.314.04.176 0 .293.39.332.13.01.26.01.39 0a.63.63 0 0 0-.33-.509c-.3-.293-.22-.587.17-.763.23-.058.48-.058.71 0 .21-.254 0-.431-.16-.685l.26.098c.06.011.13.011.19 0 .45-.098.63-.196.55-.352Zm-6.28 4.208c.19 0 .35-.157.31-.333-.04-.176.14-.47.43-.587.29-.118.25-.176.14-.333-.12-.156-.16-.156 0-.293l.39.352a.619.619 0 0 1 .1-.291.608.608 0 0 1 .21-.218v-.137c0-.137 0-.352.37-.372a.345.345 0 0 0 .2-.088.41.41 0 0 0 .1-.186c.06-.211.11-.427.13-.646a.535.535 0 0 1 .43-.528v-.118c0-.411 0-.47.59-.489h.49a.35.35 0 0 0-.09-.131.418.418 0 0 0-.14-.084 1.106 1.106 0 0 1-.44-.271 1.213 1.213 0 0 1-.27-.434.686.686 0 0 0-.13-.31.697.697 0 0 0-.28-.199.924.924 0 0 0 0-.235c0-.176-.12-.254-.31-.196h-.14c-.1.036-.2.038-.3.006a.487.487 0 0 1-.25-.182c-.12-.176 0-.274.14-.372h.1a1.056 1.056 0 0 1-.1-.391c.07-.225.16-.442.27-.646v-.294a.492.492 0 0 0-.33 0c-.21 0-.41.137-.63.157l-.99.117c-.28-.176-.32-.195-.61 0l-.41.216c-.26.137-.28.195-.12.391.16.196.18.157 0 .274h-.18c-.37-.098-.43 0-.41.216a.563.563 0 0 1-.07.312.575.575 0 0 1-.24.216c-.14 0-.2.137-.18.274.02.068.02.139-.01.203a.331.331 0 0 1-.14.149h-.57l-.7.235c-.42.151-.86.224-1.3.216-.45 0-.68.371-1.09.371 0 0-.2 0-.28.157-.05.06-.09.126-.13.196 0 .156.23.235.13.43-.21-.117-.41-.274-.68 0-.28.274-.12.176 0 .255l-.41.235h-.65a1.388 1.388 0 0 1 0 1.135.268.268 0 0 0 .06.239c.02.034.06.061.09.081.04.019.08.03.13.032.23 0 .25.137.27.294-.01.104-.01.209 0 .313 0 .352 0 .45-.51.489h-.16l1.28.176c.15 0 .13-.215 0-.352-.14-.137 0-.274.11-.313.19-.049.39-.049.57 0 .18 0 .12.176 0 .294-.12.117-.12.548-.19.822-.08.235-.08.488 0 .724.19-.372.54-.352.86-.372h.98a.895.895 0 0 1 .6 0c.09.02.17.009.25-.03.07-.04.13-.106.16-.185.09-.165.19-.323.3-.47.01-.028.04-.052.07-.068a.191.191 0 0 1 .19 0c.03.016.05.04.07.068.11.083.21.181.29.294.11.134.26.221.43.243.17.022.34-.023.47-.126.34-.215.45-.196.57.117.04.11.12.205.22.271.1.066.21.102.33.101.01-.091.01-.183 0-.274-.06-.1-.13-.192-.22-.274.61-.509.63-.019.83.157Zm-12.47-7.516c.05.017.09.048.13.09.03.041.06.091.06.145 0 .352 0 .352.45.215h.12c.12 0 0 .254 0 .333-.15.033-.3.033-.45 0-.12.195.12.293.1.43-.04.157-.1.308-.18.45.26.294.51-.156.81 0l-.3.353c.12 0 .2.274.31.274a.61.61 0 0 1 .57.352c.12.137.37.196.39.392l.36-.118c.09.252.09.531 0 .783a.677.677 0 0 1-.1.241.532.532 0 0 1-.2.17l-.49.333c.43.235.47.274.45.587-.03.167-.02.341.03.504a1 1 0 0 0 .29.416.375.375 0 0 0-.12.179.527.527 0 0 0-.05.212c0 .073.02.146.05.213.02.067.06.128.12.179l.31-.255c.18-.137.29-.117.39 0 .05.119.12.231.2.333.35-.215.84-.235.82-.704 0 0 .14-.529 0-.803a.755.755 0 0 1 0-.47.773.773 0 0 0 .06-.214.816.816 0 0 0-.03-.22.55.55 0 0 0-.29-.329h-.37v-.45c.19.062.39.101.59.117.34-.051.66-.186.94-.391.21-.077.42-.123.65-.137.21-.118.23-.176.09-.313-.13-.137-.13 0-.19 0s.17-.137.19-.196c.02-.059.14-.313.49-.274.44.017.87-.077 1.26-.274a.344.344 0 0 1 .2-.066c.07 0 .15.023.21.066h.13l.53-.118v-.293c.61.215 1.43 0 1.39-.548h.28c.29 0 .43-.255.29-.49-.09-.11-.19-.203-.31-.274h-.16a.219.219 0 0 1-.05-.076.28.28 0 0 1-.02-.09c0-.031.01-.062.02-.09a.219.219 0 0 1 .05-.076.17.17 0 0 1 .07-.05.24.24 0 0 1 .09-.018c.03 0 .05.006.08.018a.17.17 0 0 1 .07.05c.12.156.26.117.45 0 .22-.099.4-.272.51-.49h-.17c-.2-.176-.2-.176 0-.352a.63.63 0 0 0 .17-.215c.16-.188.36-.331.59-.411h.33s.14 0 .16-.137c.02-.137 0-.294-.3-.235-.19.071-.37.163-.54.274-.16 0-.3.195-.49.137l-.75-.196c-.29 0-.6-.235-.94 0h-.11v-.352l-.3.195a.877.877 0 0 0-.39-.176c-.22.019-.45.065-.66.137a.397.397 0 0 1-.08.277.36.36 0 0 1-.24.154s-.1.156-.15.254c-.06.098-.4.196-.57.294-.18.098-.33 0-.41 0h-.65l-.64-.157-.12.098a.6.6 0 0 1-.57.196 3.27 3.27 0 0 0-.61 0 1.11 1.11 0 0 1-.5 0 1.638 1.638 0 0 0-.69 0c-.14 0-.33 0-.39-.176h.45c0-.431-.65-.45-.78-.803l-.57.255a2.57 2.57 0 0 0-.22-.235c-.23-.196-.23-.235 0-.489.24-.255.14-.372-.13-.588-.12.255-.22.49-.32.744-.47 0-.47 0-.47.215h.37c.12.235-.15.333-.31.411-.15.079-.51.372-.31.666l-.35.196c.01.11.01.222 0 .332.05.046.11.077.17.091a.4.4 0 0 0 .2-.012Zm-14.13 11.137a.393.393 0 0 1 0-.215c.03-.247.11-.486.23-.705.22-.213.46-.397.73-.548.43.137.41.117.72-.235.19-.176.4-.328.63-.45a.57.57 0 0 0 .51-.038.526.526 0 0 0 .18-.183.564.564 0 0 0 .09-.249l.9.333c.16 0 .16.196.12.313-.04.117 0 .254.23.254l.26-.371c-.28-.157-.24-.372-.12-.588.12-.215 0-.332 0-.43 0-.098-.16-.196 0-.333.47.117.47.117.78-.274v-.294c-.23.118-.37.333-.64.177a.767.767 0 0 0 .08-.333c0-.116-.03-.23-.08-.333a4.381 4.381 0 0 0-.44-.646.517.517 0 0 0-.54-.137h-.81l-.25-.117.18.332c-.4 0-.67 0-.83.411-.15.411-.17.118-.25.157-.08.039-.16-.176-.14-.254.09-.135.2-.248.34-.333 0 0 .25-.118.19-.255h-.37c.04-.081.1-.149.18-.197a.458.458 0 0 1 .25-.077c.09.004.17-.018.24-.064a.373.373 0 0 0 .17-.19h-.61a.644.644 0 0 0 0-.196c0-.196-.13-.45-.37-.45-.33.02-.66.02-1 0a.785.785 0 0 0-.29 0l-.51.235c-.33.156-.35.196-.23.45.11.254.21.235 0 .411-.45.118-.85.118-1.1-.274 0 .215-.1.372-.16.607l-.66-.313-.1.117v.137c0 .039 0 .157-.12.157-.47.156-.94.489-1.45.274-.17 0-.33 0-.5.156-.18.157.17.372.33.411.22.062.42.192.57.372l.54-.117c.05.153.11.298.2.43.19.14.39.264.61.372.17.118.15.274 0 .45-.02.031-.03.059-.06.083a.23.23 0 0 1-.18.064.292.292 0 0 1-.1-.029l-.33-.215-.37.234c-.16 0-.27.216-.16.353.12.137.26 0 .39 0 .14 0 .36-.196.47 0 .12.196.59.254.61.607.27 0 .55 0 .65.176.09.176.19.274.47.215l-.1.294c-.16 0-.31-.177-.43 0-.12.176.12.176.23.235 0 .234.18.685.41.606.27-.044.54-.037.81.02Zm-6.68-14.054c.2.118.2.274.12.47-.01.091-.01.183 0 .274v.255c-.59-.137-.59-.137-.84 0l.31.274s.1.215 0 .293a.496.496 0 0 0-.33.352l-.2.568h.28c.09-.048.2-.057.31-.024.1.033.18.105.23.2.1.127.22.245.34.353a.38.38 0 0 1 .13.085c.04.038.07.084.09.134.01.05.02.104.02.157a.413.413 0 0 1-.05.152c-.08.133-.15.27-.21.411h.25a.375.375 0 0 0-.01.256c.03.083.09.152.17.194 0 0 0 .137.16.196.11.152.23.296.37.431a.404.404 0 0 0 .43 0h.25a.41.41 0 0 1 0 .156c0 .333.24.392.63.196.28-.127.59-.181.9-.157.08-.014.17.001.25.044.07.043.13.11.16.191.03.085.09.159.16.216.08-.113.17-.217.27-.314 0 0 .24 0 .33-.176l.34-.235c.21-.215.25-.235.45 0 .05.04.12.062.18.062.07 0 .13-.022.19-.062a.49.49 0 0 0 .21-.093.592.592 0 0 0 .24-.396.62.62 0 0 0-.02-.235 4.249 4.249 0 0 1-.2-.489h.69v-.313l.6-.137-.72-.353a.546.546 0 0 0-.43 0l-1.02.45c-.27-.137-.59.118-.88.216v-.529c.13.02.26.02.39 0 .15-.064.29-.135.43-.215.14 0 .32 0 .47-.117.16-.118-.41 0-.6-.118l-.12-.274c-.2-.02-.39-.08-.57-.176a.58.58 0 0 0-.31-.19.545.545 0 0 0-.35.033c0-.176 0-.274.21-.391.22-.118.16-.137.16-.196s0-.391-.22-.548c-.21-.156-.58-.137-.66-.391-.08-.255-.12 0-.18 0l-.72.137v-.137a.788.788 0 0 0 .07-.263.622.622 0 0 0-.04-.27.677.677 0 0 0-.14-.232.687.687 0 0 0-.23-.155 2.68 2.68 0 0 1-.37-.235c-.15.117-.17.156 0 .215.18.059.16 0 .2.118.04.117.21.352 0 .528a.765.765 0 0 1-.31.175.72.72 0 0 1-.36.001c-.17 0-.19-.137 0-.274.2-.137.26-.274 0-.391l-.8-.392c0 .176 0 .333-.12.49-.01.014-.02.03-.02.047-.01.018-.01.036-.01.055 0 .018.01.036.02.052s.02.03.03.041Zm-3.76 2.212v.607l.63-.137c.22 0 .33-.137.33-.313s0-.235.12-.372h1.25c0-.353.28-.764-.33-.803 0-.195.12-.254.31-.313.2-.059.3-.117.26-.352h.31c.12.02.24.02.35 0v-.607c0-.137 0-.587.16-.881h-.92c-.22 0 .12 0 .14-.156.11-.154.19-.326.23-.509 0 0-.12-.176-.15-.255-.04-.078-.42-.411-.91-.195-.13 0-.23 0-.15-.137.08-.09.16-.175.25-.255l-.86-.45c-.39.352-.39.352-.59.117-.19-.235.16-.254.12-.293-.04-.039-.23-.47-.51-.529-.19.023-.39.023-.58 0-.18.006-.34.053-.49.137l-.59.274c0 .157.21 0 .25.137-.06.197-.1.401-.11.607.03.202.09.4.17.587l-.21.294.19.117c.08.063.14.136.2.216h-.59c.01.078.01.156 0 .235v.274c0 .078.14.332.29.45a.599.599 0 0 0 .69 0h.1v.195c0 .216 0 .372.33.392.33.019.24 0 .22.235a.687.687 0 0 1-.28.567.52.52 0 0 0-.08.126c-.02.048-.02.098-.02.148 0 .157.12.235.34.235.21 0 .25 0 .23.157-.03.12-.1.229-.19.313 0 0 .19-.02.09.137Zm-1.58-3.719-.3-.372a.957.957 0 0 0 .18-.391c0-.071.02-.141.05-.205a.436.436 0 0 1 .13-.167s-.12-.274-.32-.333l.1-.43c.31-.079.59-.241.8-.47.12-.215.3-.392.51-.509.1 0 .14-.176 0-.196-.13-.019-.37-.137-.35-.352-.16 0-.16 0-.18-.196l-.17-.489c0-.118-.16-.176-.35-.157l-.85.118c0-.313-.19-.372-.64-.235a.69.69 0 0 1-.3 0 .923.923 0 0 0-.64.117c-.43.176-.43.196-.53-.098-.55 0-.55 0-.72-.117l.13-.157a.125.125 0 0 0 .06-.063.235.235 0 0 0 .02-.083c0-.03-.01-.058-.02-.084a.125.125 0 0 0-.06-.063c-.21 0-.41-.157-.66 0-.26.156-.2-.216-.39-.118a.269.269 0 0 0-.18.333c.14 0 .35-.137.41 0-.09.027-.19.067-.27.117-.12 0-.18.177 0 .216.17.039.15.372.23.528.06.137.14.264.24.372l1.47 1.312c.17.156.17.156.46 0 .3-.157.34 0 .42 0 .07 0 0 0 0 .156 0 .352 0 .372.56.333l.24.235c.1 0 .1.156 0 .254s-.18.646.31.627c.49-.02.26 0 .26.176.01.104.01.209 0 .313-.07.159-.12.323-.16.489 0 .137.16.235.31.216.16-.02.37-.177.35-.353a.545.545 0 0 0 0-.254l-.15-.02Zm85.16 9.591 1.21.176c.07.011.13.002.19-.026.05-.029.1-.074.13-.13 0-.274.23-.294.62 0 .12-.196.36-.137.59 0a.665.665 0 0 0 .57 0c.1-.046.2-.07.31-.07.11 0 .22.024.32.07h.15s0-.137-.1-.177l-.29-.156s.18-.176.14-.255c-.04-.078 0-.489.11-.743l-.54-.274c.02-.15.02-.301 0-.451-.07-.167-.15-.33-.24-.489a2.573 2.573 0 0 0-.43 0h-.62c-.22-.01-.43-.05-.63-.117-.26-.118-.47-.274-.75-.157-.27.118-.13 0-.19 0-.11-.06-.22-.133-.31-.215a.608.608 0 0 0-.59 0h-.2c-.21 0-.37-.176-.49-.157-.2.013-.4.06-.58.137-.14 0-.16.176 0 .313.15.137.11.294-.22.431a.817.817 0 0 0-.37-.162.805.805 0 0 0-.41.045h-.43c-.35 0-.37 0-.18.313.2.313.22.313 0 .411-.21.098-.21 0-.16.254.11.029.23.029.34 0a.449.449 0 0 1 .28-.016c.1.025.18.078.25.153.21.216.29.216.51 0 .12-.074.25-.133.39-.176.15.235.23.489.43.626.19.137 0 .411.23.627l.57-.196c.01.071.01.144 0 .215 0 .176 0 .294.31.353a.486.486 0 0 0 .08-.157Zm-73.22-2.388a1.45 1.45 0 0 1-.3-.137c-.19-.137-.31-.372-.7-.156a.537.537 0 0 0-.27 0 .666.666 0 0 1-.32 0c-.17.013-.34.066-.5.154a1.2 1.2 0 0 0-.38.354l.22.098a3.63 3.63 0 0 1-1.02 0c-.35 0-.37-.352-.47-.626-.27.137-.51.176-.57.47-.06.293-.37.411-.39.665-.02.255 0 0-.1 0l-.51.431c-.38.029-.75.157-1.07.372 0 .176.13.332.35.372.21.039.57.391.9.528l-.14.196c-.03.063-.07.128-.1.196l.3.234c.37.294.7.255 1.04-.176 0 0 .11-.176.27-.137.16.039 0 0 0 0 0 .353.16.45.57.274l.47-.235v-.274c0-.078 0-.235.17-.313.18-.078.45-.156.65 0l.18.157c.17-.144.32-.316.45-.509a.61.61 0 0 1 .56-.352.765.765 0 0 0 .35-.09c.1-.058.19-.142.26-.243l.16-.137h.23a.943.943 0 0 0 .76 0c.15-.079.31-.138.47-.176.36 0 .55-.255.53-.529-.02-.274 0-.333 0-.47a2.38 2.38 0 0 1-.6-.097.6.6 0 0 0-.61 0l-.84.156Zm41.63 3.347v.255a.774.774 0 0 0 0 .215c.01.043.03.083.06.117.02.033.06.06.1.077.04.017.08.025.13.022a.284.284 0 0 0 .12-.04 2.3 2.3 0 0 0 .88-.607c0-.117.24-.215.33-.313.1-.098.32.255.44.255.37.044.73.15 1.07.313.16.052.29.155.37.293 0 0 .1.216.28.176v-.352h.39c0-.196 0-.254-.22-.313l-.47-.196c-.19 0-.29-.352-.58-.215-.22-.254-.45-.117-.69 0a.749.749 0 0 0-.24-.226.724.724 0 0 0-.33-.087c-.11 0-.29 0-.33-.118a.84.84 0 0 0-.8-.313.572.572 0 0 1-.35-.117.544.544 0 0 0-.31-.096c-.11 0-.21.033-.3.096a7.48 7.48 0 0 0-.74.587l.66.47c0 .215 0 .509-.29.626a.376.376 0 0 0-.16.093.358.358 0 0 0-.11.151.383.383 0 0 0-.03.183c0 .063.01.124.04.18 0 .293 0 .411-.29.528.09.061.19.126.27.196.12 0 .16.215 0 .294-.15.078-.11.293-.13.45-.02.156 0 .411.43.47.01.084.01.17 0 .254 0 .235-.14.45.15.646.3.196.18.313 0 .45a.493.493 0 0 0-.18.18.45.45 0 0 0-.07.251l-.12.626c0 .176-.15.352-.21.509-.06.157.43.176.53.294.09.117 0 .332 0 .548.23-.017.47-.057.7-.118a.507.507 0 0 1 .53 0c0-.391.14-.391.62-.215-.19-.294-.29-.607-.68-.783-.39-.176-.22-.313 0-.411h.22v-.489c.11-.157.29-.294.27-.411-.02-.118-.22-.255-.37-.412.1-.14.17-.3.21-.469a2.245 2.245 0 0 0-.13-.627c.05-.073.11-.152.15-.235a.423.423 0 0 0 0-.313v-.509c0-.176-.29-.352-.45-.528-.15-.176-.25 0-.39 0a.929.929 0 0 0-.12-.215 1.18 1.18 0 0 0-.23-.216c-.18-.195-.18-.313 0-.469.09-.152.22-.279.37-.372v-.02Zm-16.3 12.116h-.49c-.28 0-.55 0-.71.235h-.12c-.47 0-.88-.333-1.35-.411a.614.614 0 0 1-.2-.103.644.644 0 0 1-.15-.174.432.432 0 0 1-.07-.218.587.587 0 0 1 .01-.229.781.781 0 0 0 0-.216c-.19 0-.47 0-.49-.352-.02-.352-.17-.411-.56-.333-.18.049-.35.088-.53.118-.3 0-.36 0-.43-.274a.479.479 0 0 0-.06-.166.386.386 0 0 0-.12-.128.751.751 0 0 0-.37-.022.717.717 0 0 0-.33.159c-.06.101-.08.22-.06.335a.48.48 0 0 0 .17.291c.05.04.08.088.11.142.02.054.03.113.03.172 0 .156-.23.176-.37.137a.478.478 0 0 0-.37.002.717.717 0 0 0-.15.11.486.486 0 0 0-.09.162l-.43-.333c-.12.352 0 .391 0 .626s.2.196.16.255a.969.969 0 0 0-.05.477c.03.16.09.312.18.443h-.64a.615.615 0 0 0-.32.104.615.615 0 0 0-.23.248l1.08.156c.19.078.41.078.6 0 .28-.137.65 0 .94-.274.26.02.51.073.75.157.21 0 .33.333.55.391.21.059.48 0 .7 0 .53 0 .68 0 .9-.489.33-.09.68-.09 1.02 0v.411c.25.118.53.196.76.313.24.118 1.06.118 1.53.353h.19c.22-.431-.23-.646-.27-.999h.31a.52.52 0 0 0 .21-.257.62.62 0 0 0 .03-.33.306.306 0 0 0-.16-.177.299.299 0 0 0-.23-.018c-.22.019-.51-.196-.88-.275v-.019Zm-15.13-.705h-.22c-.08 0 .2-.411.27-.587a.919.919 0 0 1 .14-.176c.2-.124.41-.229.63-.313a.505.505 0 0 0 .3-.199c.08-.1.12-.224.11-.349-.33 0-.55-.255-.61-.548a.219.219 0 0 0-.12-.196.752.752 0 0 1-.23-.264.825.825 0 0 1-.1-.343c-.49.137-.96.294-1.31-.117-.43.156-.7-.157-1.1-.196l-.41.352c0-.215 0-.215.28-.685a.725.725 0 0 0-.67 0c-.29.216 0 .392 0 .548-.2.112-.4.25-.57.411a.657.657 0 0 1-.24.191c-.1.044-.2.066-.3.064a2.47 2.47 0 0 1-.53 0c-.34.352-.3.45.27.528a2.19 2.19 0 0 1-.12.353c-.13.215-.31.391-.47.606-.15.216-.17.509.28.548h1.11a.75.75 0 0 0 .57-.156.517.517 0 0 1 .59 0c.13.068.23.178.29.313.24.47.35.509.94.294l.39-.137.73.587.7-.294s.16 0 .16-.137 0-.176-.12-.196a.688.688 0 0 0-.64.118v-.02Zm30.63-13.701c0 .333.27.489.41.763.2-.137.42-.249.64-.332.25-.03.5-.03.75 0 0 .176 0 .332.12.411.16.211.37.386.6.514.24.128.5.206.77.229.22.02.44.06.66.118.22.058.43.136.63.235.19 0 .37.235.57.352.19.118.35.333.23.548l-.14.235c.37.133.76.205 1.16.215a.232.232 0 0 1 0-.117 1.653 1.653 0 0 1-.77-.783s-.19-.157-.29-.254c-.16-.097-.3-.215-.43-.353a.523.523 0 0 0-.16-.175.523.523 0 0 0-.21-.099l-.45-.137a.495.495 0 0 1-.24-.196 2.399 2.399 0 0 1-.15-.371c0-.177 0-.294.27-.274.27.019.35 0 .47.176.02.024.05.044.08.058.02.013.06.02.09.02s.06-.007.09-.02a.198.198 0 0 0 .07-.058s.12-.176 0-.274c-.11-.098-.19-.137-.11-.274.1-.02.21-.02.31 0 .41.117.7-.157 1.1-.137 0 0 .13-.118.15-.177a.723.723 0 0 0 0-.293c-.01-.094 0-.19.04-.279a.564.564 0 0 1 .16-.23l.37.294c.37-.137.27-.47.45-.725-.49 0-.96-.195-1.33 0l.25.372c-.31.098-.54.176-.8 0a.33.33 0 0 0-.41 0l-.2.157-.21-.274c-.14-.176-.31-.215-.43 0s-.55.47-.63.802a.355.355 0 0 1-.13.179.344.344 0 0 1-.2.076c-.45.032-.9-.007-1.33-.118a3.367 3.367 0 0 0-.18-.43c0-.157-.27-.157-.47-.176-.2.001-.39-.053-.57-.157v-.391c0-.138 0-.196-.13-.216a.212.212 0 0 0-.1-.026.192.192 0 0 0-.09.017.225.225 0 0 0-.08.059.278.278 0 0 0-.05.087c-.11.294-.11.294-.49.157h-.17a.824.824 0 0 0 0 .313c.05.092.07.202.05.307a.414.414 0 0 1-.17.261c.41-.02.65.097.63.371v.02Zm-9.38 1.957a.608.608 0 0 1-.57.118c-.11-.274-.19-.548-.31-.803a.312.312 0 0 0-.16-.156.633.633 0 0 1-.25-.164.653.653 0 0 1-.14-.267h-.17c-.06 0-.12 0-.16.137-.04.137 0 0 0 0 0 .47-.39.724-.92.842h-.23c0 .254.39.391.31.665-.47 0-.47 0-.71.274-.23.274-.37.45-.33.724.04.275-.51 0-.61.372.11-.065.22-.117.34-.156.23 0 .33 0 .39.196.06.195 0 .293.1.45.03.102.03.211 0 .313-.36.333-.16.685-.16 1.057.25-.196.57-.274.8-.431.1-.086.22-.146.34-.177a.83.83 0 0 1 .39.001.26.26 0 0 0 .17 0c.17-.132.38-.214.59-.235.16 0 .12-.156 0-.274v-.098h.33v-.313c.22 0 .43 0 .57-.098.13-.16.25-.33.35-.509a.324.324 0 0 0 0-.195c-.15-.353-.13-.451.2-.705-.16-.372 0-.489.41-.587h.35a.755.755 0 0 0-.47-.125.784.784 0 0 0-.45.184v-.04Zm-28.26 7.203.37.196c.35-.235.35-.274 0-.626l.27-.216s.2-.117.22-.195c.17-.462.28-.942.33-1.429a.328.328 0 0 0 0-.196c-.23-.176-.23-.352 0-.587.24-.235 0 0 0-.137s-.53-.333-.58-.646c-.06-.313-.2-.137-.28-.215l-.55.372c0 .234.32.274.16.528s-.18 0-.24 0a.481.481 0 0 0-.34-.05.497.497 0 0 0-.3.187h-.98a.758.758 0 0 0-.63.352c-.11.196-.19.411 0 .548.2.137-.62.411-.64.783-.28 0-.32-.391-.69-.176.13.197.27.387.41.568h.51v.939l.22-.548h.88c.12 0 .23 0 .21.137.02.065.02.131 0 .196 0 .035-.01.072 0 .108.01.036.03.069.05.098.02.028.05.051.08.066a.27.27 0 0 0 .11.022.394.394 0 0 0 .39-.177v-.097c.27-.353.43-.372.71 0l.31.195Zm-10.55-9.082c.15 0 .17.177.19.294.02.117 0 .294.26.333l.29-.294h.16c.39 0 .84 0 1.04-.45a.583.583 0 0 0 .2-.144.47.47 0 0 0 .09-.228s.12-.117.16-.176c.04-.059.17-.215.13-.235a.323.323 0 0 0-.13-.09.409.409 0 0 0-.16-.027.445.445 0 0 1-.38.007.453.453 0 0 1-.17-.113.811.811 0 0 1-.1-.168.704.704 0 0 0-.14-.236.614.614 0 0 0-.23-.156c-.01-.018-.01-.038-.01-.059 0-.02 0-.04.01-.058 0-.235-.15-.353-.33-.47-.15-.113-.3-.237-.43-.372.14-.176.12-.352.37-.489s0-.177 0-.235l-.37-.333a.32.32 0 0 0-.21-.077c-.07 0-.15.027-.2.077l-.28.117c-.13 0-.27.137-.39 0s0-.176 0-.274c0-.097.16-.234 0-.352a1.013 1.013 0 0 1-.15-.333c-.09.122-.16.254-.22.392a.551.551 0 0 1-.27.235c-.2.066-.41.118-.61.156v-.254c-.24.137-.51.196-.67.411l.98.568v.548l.51-.157c.14.114.27.238.39.372.03.024.05.052.06.084.02.032.02.067.02.102 0 .035 0 .069-.02.101a.176.176 0 0 1-.06.085l-.15.176c.19.215.21.528.62.568 0 .137-.17.274-.15.371.02.098.17.196.25.294.08.098-.25.313.1.45v.039Zm25.23 14.25c.01-.17.01-.34 0-.509a.527.527 0 0 0-.12-.235c-.23-.235-.18-.47 0-.744l.84.176c.34 0 .53-.156.43-.43-.04-.09-.07-.181-.09-.274.11-.118.23-.196.31-.294.08-.098 0-.176 0-.254h-.24l-.35.215c-.23-.05-.44-.136-.64-.255a1.653 1.653 0 0 1-.3-.509l-.45.177a1.24 1.24 0 0 0-.53.509.577.577 0 0 0-.05.225c0 .078.02.155.05.225 0 .274 0 .372-.35.372h-.82c-.28 0-.86 0-1.08-.353 0 0-.15 0-.23-.098a2.994 2.994 0 0 0-1.61 0c-.29.067-.59.067-.88 0 0 .392-.41.529-.8.744.57.118.63.568.88.861h.33a1.072 1.072 0 0 0 .88 0 1.1 1.1 0 0 1 .45 0c.21.006.42.053.61.137.16.117.31.255.43.411.47-.176.49-.215.24-.665h.35c.22-.028.44-.028.66 0 .21.06.4.153.57.274h.16l-.12.391c.63 0 .57.372.7.666.57-.059.77-.274.77-.763Zm29.69-8.241c.41.392.78.176 1.23 0 0-.195 0-.411-.19-.548a1.193 1.193 0 0 0-1-.489h-.18a.717.717 0 0 1-.35-.273.721.721 0 0 1-.1-.432c0-.274.26-.195.43-.195v-.255a.52.52 0 0 0 0-.176l-.64-.235c-.19.065-.38.118-.57.157-.2.019-.4.019-.61 0a.538.538 0 0 1-.29-.065.627.627 0 0 1-.22-.209.992.992 0 0 0-.19-.255.29.29 0 0 0-.35 0v.255c0 .078.27.469-.18.646l-.39.156c.41.489.45.529.8.705.35.176.3-.255.55 0 .25.254 0 .333 0 .411 0 .078.33.156.51.215.1.09.23.139.37.139.14 0 .27-.049.37-.139 0 .274.14.47 0 .607-.13.137-.31.528-.43.822l.86.274c0-.21.04-.419.13-.611.08-.192.21-.365.36-.505h.08Zm29.48-3.405h-.43l-.22.274c-.39-.255-.6-.646-1.15-.783 0 .411-.47.548-.45.959-.39 0-.67-.353-1.08-.333-.78 0-.8 0-.88.215h.21a.876.876 0 0 1 .46 0c.15.041.28.123.39.235.1.126.24.214.4.253a.78.78 0 0 0 .48-.037c.17.606.78.998 1.33 1.467h-.75c.24.529.3.588.79.549.49-.04.68-.294.45-.725a1.816 1.816 0 0 1-.18-.293c-.17-.294-.12-.411.26-.47.37-.059.31 0 .27-.215a.479.479 0 0 1-.01-.29.486.486 0 0 1 .17-.239c.06-.076.1-.162.13-.254-.02-.176-.07-.274-.27-.313h.08Zm-79.66 3.151c0-.176-.1-.235-.3-.255a1.428 1.428 0 0 1-.7-.234c-.24-.216-.2-.49-.26-.744.39-.042.77-.155 1.12-.333-.28 0-.43-.294-.8-.176a.46.46 0 0 1-.26 0c-.1-.098-.18-.215-.27-.333a.784.784 0 0 1-.32 0c-.15.022-.3.022-.45 0-.15 0 0-.215 0-.333 0-.117 0-.489-.25-.587a1.164 1.164 0 0 1-.69-.45l-.37-.607c-.23 0-.45.157-.64.255-.2.098-.28.235-.1.352.17.087.35.159.53.215.13 0 .19 0 .15.216v.234c.4 0 0 .314.22.333.21.02.12.294.23.431l.61-.196s0 .294.37.274c.11 0 .22.034.32.098 0 0 .13.157.21.235.03.024.05.052.06.084.01.032.02.067.02.102 0 .035-.01.069-.02.101a.176.176 0 0 1-.06.085.494.494 0 0 0-.19.262.455.455 0 0 0 0 .325c.46 0 .46 0 .6.411.3.203.57.439.8.705.3.254.65.45.96.685.32.235.2 0 .36 0a.612.612 0 0 1-.04-.377c.03-.127.1-.241.19-.328l-.72-.235c-.18.078-.31-.019-.31-.215Zm42.25-1.957a2.08 2.08 0 0 1 0-.353c0-.176.1-.274.32-.254.12.01.24.01.37 0 0-.274-.18-.529 0-.764h.53a2.777 2.777 0 0 1-.36-1.644c.34-.137.34-.137.38-.352-.53 0-.41-.372-.38-.646h-.64l.23.274c.07.062.1.147.1.235s-.03.172-.1.235c-.11.235-.35.43-.29.724-.27.215-.25.548-.47.783-.21.187-.44.357-.68.509 0 0 .25.235.23.313-.02.078.22.47 0 .685-.22.215 0 .118 0 .157.07.111.15.216.24.313h.68l-.16-.215Zm40.09.665a1.042 1.042 0 0 0-.86 0c-.14-.157-.35-.333-.35-.431-.03-.249.02-.501.13-.724.14-.137.12-.215 0-.293a.409.409 0 0 1-.33-.47v-.235h-.23c-.18-.254-.34-.509-.53-.763-.24.156 0 .313 0 .509l-.3.215c.12.153.23.317.32.489 0 .274.13.548.21.822-.41.176-.49.49-.21.92h.27c.02 0 .39.157.59.215.19.059.58.196.64.568.28-.333.57 0 .85 0 .35-.293.86-.098 1.35 0l.17-.333-1.17-.293a1.68 1.68 0 0 1-.55-.235v.039Zm-1.49-.391h-.15v-.098l.21.117s-.02-.039-.06-.059v.04Zm-21.67 14.601c.2-.156 0-.352 0-.528a1.082 1.082 0 0 0-.19-.333 1.26 1.26 0 0 0-.37.176.322.322 0 0 1-.15.114.301.301 0 0 1-.19.004c-.15 0-.23 0-.29.195-.06.196-.29.587-.45.881a.278.278 0 0 1-.12.029.21.21 0 0 1-.11-.029s-.12-.117-.16-.196c-.01-.084-.01-.17 0-.254l-.41-.196-.67.607v.196a.9.9 0 0 0 .22.626c.23.294.19.431-.12.607l-.45.254v.118c.13.02.26.02.39 0a5.88 5.88 0 0 1 1.76-.431c.14-.03.27-.106.36-.215.11-.147.2-.317.24-.5.05-.183.05-.373.01-.557h.31c.37 0 .49 0 .39-.411-.09-.411-.02-.157 0-.196v.039Zm12.69-14.582a1.132 1.132 0 0 1-.59-.587.303.303 0 0 0-.12 0l-.39.215a.493.493 0 0 0-.2-.287.534.534 0 0 0-.35-.085l-.8-.137c-.31-.391-.68-.45-.94-.137l-.15.235c-.14.176-.2.176-.44 0l-.39-.293h-1.23a.946.946 0 0 0-.43 0 .853.853 0 0 0-.18.43s.32.274.43.216a.86.86 0 0 1 .67.137c.33-.314.37-.294.88 0 .51.293.61.332.82.156.23-.142.5-.198.77-.156h.48l.73.117v.215h.45c.16.235.25.49.61.587.35.098.43 0 .5 0 .08 0 .1-.528-.13-.665v.039Zm-16.15-9.512c.07-.054.12-.13.14-.216v-.646c0-.215-.36 0-.43.137a.486.486 0 0 1-.16.216.505.505 0 0 0-.35.469v.157h-.32a.801.801 0 0 0-.13.215c0 .176-.14.235-.37.255-.24.019-.32 0-.36 0-.04 0-.49.176-.76.137H1076.76c.23.137.39.274.37.489-.02.215 0 .137.16.176.18.1.4.135.61.099.21-.035.4-.139.54-.294l.24.234c.25-.114.48-.273.68-.469.25-.384.58-.711.96-.959Zm-12 3.523h.14a.704.704 0 0 0 0-.353.727.727 0 0 1-.08-.323c0-.111.03-.222.08-.322.09-.268.22-.524.37-.764a1.234 1.234 0 0 1 1.51-.47h.23c.2 0 .32 0 .32-.195v-.196c-.02-.028-.02-.058-.02-.088 0-.03 0-.061.02-.088.37-.162.78-.255 1.19-.274h.23-.11c-.3 0-.55 0-.67-.274s-.74-.176-1.09-.255h-.1c.05.093.12.179.19.255v.293h-.23c-.16 0-.28 0-.31.196-.04.196-.2.176-.38.176a1.976 1.976 0 0 0-.98.118v.372a.455.455 0 0 0-.16.258c-.03.102-.03.21.01.309v.157c-.11.301-.2.608-.28.92a2 2 0 0 0 0 .489c.01.02.01.04.02.059h.1Zm53.55 15.893-.64-.45c-.26-.176-.47-.157-.59 0v.215h-.21c-.42-.117-.45 0-.47.274 0 .123-.02.245-.06.359a.936.936 0 0 1-.2.307.472.472 0 0 0-.12.086.3.3 0 0 0-.06.129.354.354 0 0 0 0 .145c.01.047.03.092.06.129.03.076.03.159 0 .235 0 0 0 .117-.21.235.09.011.18.011.27 0h1.47c.05.008.09.007.14-.003a.413.413 0 0 0 .12-.058.276.276 0 0 0 .09-.103.3.3 0 0 0 .04-.13c.03-.201.03-.405 0-.606 0-.255 0-.333.35-.294a.276.276 0 0 0 .22-.022c.03-.018.05-.043.08-.073.02-.03.03-.065.04-.101-.12-.019-.26-.156-.41-.274h.09Zm-47.42 2.349c-.32.125-.66.166-1 .117-.31 0-.57 0-.7-.371-.4 0-.4 0-.71-.138a1.949 1.949 0 0 0-2.09.235.582.582 0 0 0-.16.372c0 .196 0 .274.29.274.3 0 .73-.156 1.1 0 .06.02.13.02.19 0l.87-.215c.07.105.16.203.25.294.08.085.2.134.31.137.26 0 .61 0 .79-.255.17-.254.13 0 .21 0h.65l.33.235 1.21-.411c-.16-.037-.31-.09-.47-.157a1.159 1.159 0 0 0-1.07-.117Zm-3.39 3.19c-.33.274-.53.235-.68-.176a3.65 3.65 0 0 1-.16-.45l-.53.157.12-.646-.65.293c-.37-.215-.37-.215-.78.137-.51-.372-.74-.332-1.12.176a.948.948 0 0 0 1.26.137.725.725 0 0 1 .38-.102c.13 0 .26.035.38.102 0 .235 0 .509.2.646.35.161.67.402.92.705.29.313.51.294.76 0s0 0 .16-.137l.35.157c.33.156.41.137.53-.255l-.94-.861-.2.117Zm1.61-24.075h.11v.353h.42c.2-.019.41-.019.62 0 .31 0 .59 0 .75-.216h.21c.13.1.29.155.46.155a.75.75 0 0 0 .46-.155c.04-.038.1-.059.16-.059s.11.021.15.059c.16.137.28.274.43.392.16.117.18.117.24 0 .06-.118 0-.118.18-.196a.966.966 0 0 1-.61-.372 1.16 1.16 0 0 0-.59-.45c-.14.098-.16.333-.43.313-.27-.019-.35-.196-.51-.333a.687.687 0 0 0-.49-.137l-.17.216s-.18-.118-.26-.118a8.091 8.091 0 0 0-.96 0 .262.262 0 0 0-.13.049.221.221 0 0 0-.1.108c-.12.313-.12.313.04.313l.02.078Zm16.03.157c-.43-.176-.49-.333-.22-.568.28-.235.16-.254.41-.254.26 0 .26-.176.37-.274l-.25-.392c-.14-.176-.29-.234-.45 0-.11.101-.21.213-.29.333l.23.255c-.23 0-.55 0-.61.293-.02.15-.02.301 0 .45v.216l-.43-.196c-.45.215-.49.333-.15.587.33.255.37.352.29.626.18 0 .31-.117.24-.254-.08-.137 0-.431.17-.607.1.018.2.018.3 0 .39-.01.78.057 1.15.196 0 0 .22 0 .2-.137h-.18l-.78-.274Zm-1.1 8.788c0-.195 0-.274-.23-.332-.24-.059-.38-.235-.38-.431-.19-.02-.38-.066-.56-.137a1.487 1.487 0 0 0-.86-.126 1.47 1.47 0 0 0-.77.38c-.12.137 0 .216.14.392.14.176.21-.255.51-.137l-.2.352c.24.176.24.176.55 0a.798.798 0 0 1 .37 0l.18.235c.12.011.25.011.37 0 0 0 .16-.117.25-.157a.905.905 0 0 1 .32 0l.31-.039Zm-55.35 6.773c0-.392 0-.392.41-.529s.49-.235.51-.548h-.33c-.26 0-.53.137-.75 0-.21-.137-.14 0-.21 0-.4 0-.61.215-.53.529.08.313-.16.822-.84.783v.137c.13.332.19.352.62.215l.49-.215c.16.117 0 .45.28.391 0-.157.13-.254.19-.391.07-.117.11-.242.14-.372h.02Zm30.12 5.245s-.19-.137-.25-.215c-.06-.078-.26-.215-.45-.117-.2.097-.12.254 0 .391.11.137 0 0 0 0s-.49-.254-.75 0l.28.176.23.215-.31.157s-.16.176-.14.215c.02.039.2.118.3 0h.17l.12.294a5.856 5.856 0 0 1 2.19-.489c-.28-.354-.6-.682-.94-.979l-.45.352Zm-29.12-14.425a.393.393 0 0 1 0-.215c.01-.031.01-.064.01-.097a.162.162 0 0 0-.03-.094.234.234 0 0 0-.07-.07.235.235 0 0 0-.09-.033h-.31c-.3.313 0 .607-.18.939l.71.255s.17 0 .19.117c.02.118.39.294.63.431-.16-.157 0-.333 0-.509a.43.43 0 0 0 .08-.245.424.424 0 0 0-.08-.244c-.14-.118-.32 0-.47 0-.16 0-.41-.039-.41-.235h.02Zm54.02-7.692a.225.225 0 0 1 0-.196c.21-.137 0-.313 0-.49 0-.176-.2-.176-.31-.234l-.3-.216c-.02.163-.02.327 0 .49.04.094.04.199 0 .293a7.02 7.02 0 0 0-.31.627l.29.254c.33-.137.59-.254.61-.528h.02Zm-50.01 8.905.18-.293c.02.053.06.099.11.135a.386.386 0 0 0 .49-.018.33.33 0 0 0 .11-.119.413.413 0 0 0 .04-.155.413.413 0 0 0-.04-.155.347.347 0 0 0-.11-.119 1.196 1.196 0 0 0-.9-.274h-.14a1.39 1.39 0 0 0-.23.842h.14c.03.057.09.103.15.131.06.027.13.036.2.025Zm22.14 12.468c-.2.098-.43.274-.47.451-.04.176 0 .704.62.861.12-.137.1-.45.41-.372l.41-.861a.973.973 0 0 0-.31-.118c-.25-.028-.5-.008-.74.059l.08-.02Zm-45.63-20.923-.63-.529a1.76 1.76 0 0 0-.29-.156c0 .117-.12.215-.1.254.04.194.13.376.26.529.13.195.35.332.39.567.04.235.18.118.25 0 .11-.139.19-.299.24-.47 0 0 0-.137-.12-.195Zm17.62 6.322c.21-.255.43-.176.66 0 .24.176.34 0 .47 0 .14 0 .3 0 .41-.157.12-.156.22-.195 0-.274a.698.698 0 0 0-.41 0c-.11.022-.21.062-.31.118-.41.156-.55 0-.51-.255.04-.254 0-.195-.31-.156 0 .215 0 .391-.26.528-.01.018-.01.039-.01.059 0 .02 0 .04.01.059a.257.257 0 0 0-.02.088c0 .03.01.06.02.088.06.03.13.036.2.018a.253.253 0 0 0 .15-.116h-.09Zm19.9 11.744c.04.014.07.022.11.022.04 0 .07-.008.11-.022l.78-.509h-2.23v.47l.31-.196.92.235Zm5.15 2.564c-.53.156-.65.607-.31 1.096l1.11-.47a2.824 2.824 0 0 1-.25-.391.445.445 0 0 0-.18-.207.417.417 0 0 0-.27-.048l-.1.02Zm52.01-5.5c-.28-.313-.28-.333 0-.529l-.39-.411a.9.9 0 0 0-.2.336c-.04.125-.06.258-.04.389 0 .274.31.528.16.763.19.156.35.215.51.117.15-.098.09-.293 0-.469l-.04-.196Zm-42.75 5.989s0-.117-.14-.137a.385.385 0 0 0-.41 0c-.27.196-.41.176-.65-.098a.901.901 0 0 1-.15-.215.655.655 0 0 0-.21-.156.592.592 0 0 0-.5 0 .655.655 0 0 0-.21.156l1.52.861.34-.372c.09.018.18.018.27 0 .04.022.09.029.13.018a.218.218 0 0 0 .11-.076l-.1.019Zm-22.41-1.311c-.09.009-.17 0-.25-.027a.516.516 0 0 1-.22-.13.532.532 0 0 0-.26-.134.536.536 0 0 0-.29.017c0 .196 0 .411.18.43.17.02.54.274.84.392l.37.098c.25-.49.18-.646-.27-.666l-.1.02Zm37.75-14.093-.94-.117c-.15 0-.35 0-.39.156a.318.318 0 0 0-.05.167c0 .06.02.118.05.166.08.038.16.057.24.057.08 0 .16-.019.23-.057l.81-.294.05-.078Zm20.22 12.527c0 .157-.19.274-.19.431 0 .156-.2.254-.39.332l.25.49c.16-.087.32-.186.47-.294 0 0 .18-.196.16-.313a2.514 2.514 0 0 0-.14-.607l-.16-.039Zm-12.99-20.297a.38.38 0 0 0 .27 0c.08-.16.13-.332.16-.509 0-.118-.12-.216-.28-.196h-.15c-.2.117 0 .313-.16.47-.16.156.04.235.16.254v-.019Zm6.69 7.829c-.21-.137-.21-.157-.31-.137-.27.102-.54.161-.82.176l-.1.117c.68.353.84.333 1.23-.058v-.098Zm-79.64-1.233c0-.255-.14-.294-.41-.333a.824.824 0 0 0-.12.294.99.99 0 0 0 .21.43s.22 0 .45-.117c.24-.118-.15-.274-.13-.274Zm92.81 11.744c-.03.088-.08.173-.13.254-.2.274 0 .45.37.607 0-.137 0-.274.14-.411.13-.137.11-.353-.38-.45Zm-31.31-12.292v-.333a2.948 2.948 0 0 1-.53-.118c-.32 0-.37 0-.43.275.55-.255.66.137 1.02.156l-.06.02Zm-56.55 2.114c-.13.216-.26.425-.41.626h.82c-.08-.233-.2-.451-.35-.646l-.06.02Zm66.55 13.701c.76.117.94 0 .8-.529-.18.235-.72.039-.82.47l.02.059Zm-15.27-18.927c.18.097.33.156.47 0 .14-.157.24-.196.12-.353h-.55l-.04.353Zm24.84 1.957c-.22-.333-.55-.392-1.02-.392.12.118.18.216.26.235.24.024.49.031.74.02l.02.137Zm-.63 1.624v.216c.09.068.19.115.3.137 0 0 .11 0 .13-.157a1.04 1.04 0 0 0 0-.352.98.98 0 0 0-.45.019l.02.137Zm-40.53 16.481-.57-.215c0 .176-.14.313 0 .372a1.084 1.084 0 0 0 1.08-.157c-.16-.333-.36-.059-.53-.137l.02.137Zm-31.85-22.274.47-.372c-.17-.176-.39 0-.63 0-.23 0-.05.235.16.372Zm53.38 14.699V227.8h-.14c.18.293-.02.626.14 1.018v.058Zm7.02 7.399h-.82c-.27 0 0 0-.19.137.72.137.88.117 1.01-.196v.059Zm25.21-15.111c.36.153.74.233 1.12.235-.43-.411-.78-.274-1.12-.293v.058Zm-68.89-10.902s.17-.117.15-.156c-.02-.04-.13-.137-.19-.118-.12.037-.24.083-.35.137v.137c.13.009.26.009.39 0Zm-13.88 5.657-.57-.137a.257.257 0 0 0-.11-.013.283.283 0 0 0-.1.034.27.27 0 0 0-.08.074.338.338 0 0 0-.04.1h.88l.02-.058Zm49.36 11.959s.12.157.2.196h.51a.48.48 0 0 0-.43-.392s-.18.196-.28.196Zm32.98-8.514h-.19a.122.122 0 0 0 0 .117c0 .137.17.255.29.431.06-.176.06-.353-.1-.47v-.078Zm-75.06 11.744c0 .176 0 .274.24.254.23-.02.15-.117.13-.176-.02-.059-.17-.098-.37-.059v-.019Zm32.59 6.106h-.61c.41.451.45.451.61.02v-.02Zm8.32-8.025a.39.39 0 0 0 .08-.106c.02-.04.02-.084.02-.128 0-.045 0-.089-.02-.129a.39.39 0 0 0-.08-.106c-.31.215-.31.215.04.489l-.04-.02Zm-58.99-8.064c.21-.293.17-.391-.24-.372l.24.372Zm14.85-5.754v.45c.28-.255.28-.255 0-.431v-.019Zm91.41 17.87-.22-.235a.862.862 0 0 1-.19 0v.176l.29.216s.12-.118.12-.137v-.02Zm-33.28-12.566s-.15 0-.15.117c0 .118.17.157.35.118.18-.039-.12-.215-.27-.215l.07-.02Zm-29.61 4.835v.313c.23 0 .25-.118.2-.216a.191.191 0 0 0-.09-.083.156.156 0 0 0-.11-.014Zm16.73 3.484h.55c-.39-.274-.43-.255-.58 0h.03Zm1.65 8.123c.17 0 .31 0 .33-.157a.249.249 0 0 0-.05-.083c-.03-.024-.05-.042-.09-.054-.21 0-.27.117-.23.294h.04Zm-58.9-20.983v.137l.26.137a1.968 1.968 0 0 0-.14-.235l-.12-.039Zm59.02 4.208h-.32c-.09 0 .24.137.34 0 .09-.137 0 0-.02-.019v.019Zm-1.24 0c-.25 0-.25 0-.13.235.11.235.19-.019.13-.156v-.079Zm10.18 14.739h.26c0-.235-.16-.294-.36-.235.01.107.03.212.06.313l.04-.078Zm10.51-14.758s0-.098-.12-.098c-.11 0-.13 0 0 .176l.12-.078Zm-37.68 1.155.32.195c.02-.117-.06-.176-.32-.117v-.078Zm8.09-1.508c-.18 0-.26.137 0 .294v-.294Zm-25.04-.156h.24-.24Zm16.88 4.952v.313a.52.52 0 0 0 0-.176s.01 0 0-.059v-.078Zm28.3-6.459-.16.195c.14.098.24.059.08-.117l.08-.078Zm-31.05-.783.24-.176c-.27.039-.35.058-.31.254l.07-.078Zm69.57 18.359h.29c-.33-.176-.33-.176-.37.079l.08-.079Zm-4.07-1.957.15.176h.22a.7.7 0 0 0-.45-.137l.08-.039Zm-55.12 3.191.14.215v-.215h-.14Zm21.41-19.026-.12-.137h.14s.1.137-.02.137Zm-77.43-5.676h-.31s.13.118.31 0Zm22.24 8.436h-.22.22Zm73.49 2.349v.098c0 .098.02-.078 0-.098Zm-81.23-7.673s-.05.02 0 0Zm7.46 16.305.16.293c.12-.215.17-.332-.08-.332l-.08.039Zm-4.95-1.547v.157-.157Zm49.13-2.798h.1-.1Zm-59.41-4.13h.14-.14Zm61.48 19.788h.2-.2Zm-53.76-28.498h-.16.16Zm80.23 10.041H1105.57l-.22-.118s-.04.078-.05.118h-.02Z"/><path fill="#231F20" d="m1103.22 245.572-9.02-47.504-30.13 6.146.59 51.869 38.56-10.511ZM1025.89 246.746l9.01-47.974-31.71 5.442-19.458 51.869 42.158-9.337Z" opacity=".2"/><path fill="#F3BDCA" d="M970.324 260.056c7.081 0 12.821-6.055 12.821-13.525 0-7.469-5.74-13.525-12.821-13.525-7.08 0-12.82 6.056-12.82 13.525 0 7.47 5.74 13.525 12.82 13.525Z"/><path fill="#F3BDCA" d="M982.85 260.056c3.502 0 6.341-2.523 6.341-5.637 0-3.113-2.839-5.637-6.341-5.637-3.503 0-6.342 2.524-6.342 5.637 0 3.114 2.839 5.637 6.342 5.637ZM957.501 260.037c4.302 0 7.79-3.093 7.79-6.909s-3.488-6.91-7.79-6.91-7.79 3.094-7.79 6.91c0 3.816 3.488 6.909 7.79 6.909Z"/><path fill="#F3BDCA" d="M1004.93 260.937h-69.45s27.54-10.1 69.45 0Z"/><path fill="#F3BDCA" d="M985.059 259.528c6.778 0 12.273-4.881 12.273-10.902 0-6.021-5.495-10.902-12.273-10.902-6.777 0-12.272 4.881-12.272 10.902 0 6.021 5.495 10.902 12.272 10.902Z"/><path fill="#F3BDCA" d="M997.331 259.528c3.379 0 6.129-2.436 6.129-5.441s-2.75-5.441-6.129-5.441c-3.383 0-6.126 2.436-6.126 5.441s2.743 5.441 6.126 5.441ZM972.805 259.528c4.162 0 7.536-2.997 7.536-6.694s-3.374-6.694-7.536-6.694c-4.162 0-7.535 2.997-7.535 6.694s3.373 6.694 7.535 6.694Z"/><path fill="#F3BDCA" d="M1018 260.703h-67.273s26.697-9.787 67.273 0ZM1148.58 260.135c7.02 0 12.72-5.504 12.72-12.292 0-6.789-5.7-12.292-12.72-12.292-7.03 0-12.73 5.503-12.73 12.292 0 6.788 5.7 12.292 12.73 12.292Z"/><path fill="#F3BDCA" d="M1157.05 260.115c2.93 0 5.3-2.287 5.3-5.108 0-2.822-2.37-5.109-5.3-5.109-2.93 0-5.31 2.287-5.31 5.109 0 2.821 2.38 5.108 5.31 5.108ZM1135.85 260.135c3.6 0 6.52-2.813 6.52-6.283s-2.92-6.283-6.52-6.283c-3.6 0-6.52 2.813-6.52 6.283s2.92 6.283 6.52 6.283Z"/><path fill="#F3BDCA" d="M1175.51 260.937h-58s22.96-9.179 58 0Z"/><path fill="#F3BDCA" d="M1165.78 260.154c5.66 0 10.26-4.434 10.26-9.904s-4.6-9.904-10.26-9.904-10.26 4.434-10.26 9.904 4.6 9.904 10.26 9.904Z"/><path fill="#F3BDCA" d="M1176.03 260.154c2.83 0 5.13-2.217 5.13-4.952s-2.3-4.952-5.13-4.952-5.13 2.217-5.13 4.952 2.3 4.952 5.13 4.952ZM1155.52 260.154c3.48 0 6.31-2.725 6.31-6.087 0-3.362-2.83-6.088-6.31-6.088-3.48 0-6.3 2.726-6.3 6.088s2.82 6.087 6.3 6.087Z"/><path fill="#F3BDCA" d="M1193.85 260.937h-56.18s22.32-8.886 56.18 0ZM916.831 62.309c11.351 0 20.552-8.168 20.552-18.243s-9.201-18.242-20.552-18.242c-11.35 0-20.552 8.168-20.552 18.242 0 10.075 9.202 18.243 20.552 18.243Z"/><path fill="#F3BDCA" d="M937.362 62.309c5.675 0 10.276-4.084 10.276-9.121 0-5.038-4.601-9.122-10.276-9.122s-10.276 4.084-10.276 9.121c0 5.038 4.601 9.122 10.276 9.122ZM896.279 62.328c6.972 0 12.625-5.021 12.625-11.215s-5.653-11.215-12.625-11.215-12.625 5.02-12.625 11.215c0 6.194 5.653 11.215 12.625 11.215Z"/><path fill="#F3BDCA" d="M973.163 63.738H860.5s44.725-16.363 112.663 0Z"/><path fill="#DB284E" d="M561.014 178.488c0 2.521-.579 4.836-1.736 6.944-1.157 2.067-2.935 3.741-5.332 5.022-2.397 1.281-5.373 1.922-8.928 1.922h-6.572V208h-10.602v-43.524h17.174c3.472 0 6.407.599 8.804 1.798 2.397 1.199 4.195 2.852 5.394 4.96 1.199 2.108 1.798 4.526 1.798 7.254Zm-16.802 5.456c2.025 0 3.534-.475 4.526-1.426s1.488-2.294 1.488-4.03c0-1.736-.496-3.079-1.488-4.03-.992-.951-2.501-1.426-4.526-1.426h-5.766v10.912h5.766Zm32.923-10.974v8.804h14.198v8.184h-14.198v9.548h16.058V208h-26.66v-43.524h26.66v8.494h-16.058ZM639.012 208H628.41l-17.732-26.846V208h-10.602v-43.524h10.602l17.732 26.97v-26.97h10.602V208Zm36.578-29.76a7.712 7.712 0 0 0-3.41-3.286c-1.447-.785-3.162-1.178-5.146-1.178-3.431 0-6.18 1.137-8.246 3.41-2.067 2.232-3.1 5.229-3.1 8.99 0 4.009 1.074 7.151 3.224 9.424 2.19 2.232 5.187 3.348 8.99 3.348 2.604 0 4.794-.661 6.572-1.984 1.818-1.323 3.141-3.224 3.968-5.704h-13.454v-7.812h23.064v9.858c-.786 2.645-2.129 5.105-4.03 7.378-1.86 2.273-4.237 4.113-7.13 5.518-2.894 1.405-6.159 2.108-9.796 2.108-4.299 0-8.143-.93-11.532-2.79-3.348-1.901-5.973-4.526-7.874-7.874-1.86-3.348-2.79-7.171-2.79-11.47s.93-8.122 2.79-11.47c1.901-3.389 4.526-6.014 7.874-7.874 3.348-1.901 7.171-2.852 11.47-2.852 5.208 0 9.589 1.261 13.144 3.782 3.596 2.521 5.972 6.014 7.13 10.478H675.59Zm28.936-13.764V208h-10.602v-43.524h10.602ZM734.405 208l-9.052-16.43h-2.542V208h-10.602v-43.524h17.794c3.431 0 6.345.599 8.742 1.798 2.439 1.199 4.258 2.852 5.456 4.96 1.199 2.067 1.798 4.381 1.798 6.944 0 2.893-.826 5.477-2.48 7.75-1.612 2.273-4.009 3.885-7.192 4.836L746.371 208h-11.966Zm-11.594-23.932h6.572c1.943 0 3.39-.475 4.34-1.426.992-.951 1.488-2.294 1.488-4.03 0-1.653-.496-2.955-1.488-3.906-.95-.951-2.397-1.426-4.34-1.426h-6.572v10.788Zm40.446-19.592V208h-10.602v-43.524h10.602Zm56.973 0V208h-10.602v-26.102L799.894 208h-8.556l-9.796-26.164V208H770.94v-43.524h12.524l12.214 30.132 12.09-30.132h12.462Zm34.718 35.836h-16.244L836.1 208h-11.098l15.748-43.524h12.276L868.774 208h-11.222l-2.604-7.688Zm-2.728-8.184-5.394-15.934-5.332 15.934h10.726ZM912.503 208h-10.602l-17.732-26.846V208h-10.602v-43.524h10.602l17.732 26.97v-26.97h10.602V208Z"/><path fill="#000" d="M598.4 107.15V142h-4.55v-34.85h4.55ZM633.555 142h-4.55l-18.3-27.75V142h-4.55v-34.9h4.55l18.3 27.7v-27.7h4.55V142Zm27.456-34.85v3.7h-15.15v11.75h12.3v3.7h-12.3V142h-4.55v-34.85h19.7Zm21.295 35.2c-3.233 0-6.183-.75-8.85-2.25-2.666-1.533-4.783-3.65-6.35-6.35-1.533-2.733-2.3-5.8-2.3-9.2 0-3.4.767-6.45 2.3-9.15 1.567-2.733 3.684-4.85 6.35-6.35 2.667-1.533 5.617-2.3 8.85-2.3 3.267 0 6.234.767 8.9 2.3 2.667 1.5 4.767 3.6 6.3 6.3 1.534 2.7 2.3 5.767 2.3 9.2 0 3.433-.766 6.5-2.3 9.2-1.533 2.7-3.633 4.817-6.3 6.35-2.666 1.5-5.633 2.25-8.9 2.25Zm0-3.95c2.434 0 4.617-.567 6.55-1.7 1.967-1.133 3.5-2.75 4.6-4.85 1.134-2.1 1.7-4.533 1.7-7.3 0-2.8-.566-5.233-1.7-7.3-1.1-2.1-2.616-3.717-4.55-4.85-1.933-1.133-4.133-1.7-6.6-1.7-2.466 0-4.666.567-6.6 1.7-1.933 1.133-3.466 2.75-4.6 4.85-1.1 2.067-1.65 4.5-1.65 7.3 0 2.767.55 5.2 1.65 7.3 1.134 2.1 2.667 3.717 4.6 4.85 1.967 1.133 4.167 1.7 6.6 1.7Zm41.857 3.6-8.3-14.25h-5.5V142h-4.55v-34.85h11.25c2.633 0 4.85.45 6.65 1.35 1.833.9 3.2 2.117 4.1 3.65.9 1.533 1.35 3.283 1.35 5.25 0 2.4-.7 4.517-2.1 6.35-1.367 1.833-3.433 3.05-6.2 3.65l8.75 14.6h-5.45Zm-13.8-17.9h6.7c2.467 0 4.317-.6 5.55-1.8 1.233-1.233 1.85-2.867 1.85-4.9 0-2.067-.617-3.667-1.85-4.8-1.2-1.133-3.05-1.7-5.55-1.7h-6.7v13.2Zm61.22-16.7V142h-4.55v-25.8l-11.5 25.8h-3.2l-11.55-25.85V142h-4.55v-34.6h4.9l12.8 28.6 12.8-28.6h4.85Zm28.316 26.85h-15.2l-2.8 7.75h-4.8l12.6-34.65h5.25l12.55 34.65h-4.8l-2.8-7.75Zm-1.3-3.7-6.3-17.6-6.3 17.6h12.6Zm25.442 11.8c-2.3 0-4.367-.4-6.2-1.2-1.8-.833-3.217-1.967-4.25-3.4-1.034-1.467-1.567-3.15-1.6-5.05h4.85c.166 1.633.833 3.017 2 4.15 1.2 1.1 2.933 1.65 5.2 1.65 2.166 0 3.866-.533 5.1-1.6 1.266-1.1 1.9-2.5 1.9-4.2 0-1.333-.367-2.417-1.1-3.25-.734-.833-1.65-1.467-2.75-1.9-1.1-.433-2.584-.9-4.45-1.4-2.3-.6-4.15-1.2-5.55-1.8-1.367-.6-2.55-1.533-3.55-2.8-.967-1.3-1.45-3.033-1.45-5.2 0-1.9.483-3.583 1.45-5.05.966-1.467 2.316-2.6 4.05-3.4 1.766-.8 3.783-1.2 6.05-1.2 3.266 0 5.933.817 8 2.45 2.1 1.633 3.283 3.8 3.55 6.5h-5c-.167-1.333-.867-2.5-2.1-3.5-1.234-1.033-2.867-1.55-4.9-1.55-1.9 0-3.45.5-4.65 1.5-1.2.967-1.8 2.333-1.8 4.1 0 1.267.35 2.3 1.05 3.1a7.446 7.446 0 0 0 2.65 1.85c1.066.4 2.55.867 4.45 1.4 2.3.633 4.15 1.267 5.55 1.9 1.4.6 2.6 1.55 3.6 2.85 1 1.267 1.5 3 1.5 5.2 0 1.7-.45 3.3-1.35 4.8-.9 1.5-2.234 2.717-4 3.65-1.767.933-3.85 1.4-6.25 1.4Zm22.845-35.2V142h-4.55v-34.85h4.55Z"/><defs><clipPath id="a"><path fill="#fff" d="M425.34 162.031h37.648v10.512H425.34z"/></clipPath></defs></svg>