<svg xmlns="http://www.w3.org/2000/svg" width="1440" height="311" fill="none"><path fill="#FBE9ED" d="M1440 0H0v310h1440V0Z" opacity=".8"/><path fill="#F3BDCA" d="M540.05 309.5c6.721 0 12.17-5.265 12.17-11.76s-5.449-11.76-12.17-11.76-12.17 5.265-12.17 11.76 5.449 11.76 12.17 11.76Z"/><path fill="#F3BDCA" d="M548.15 309.5c2.8 0 5.07-2.194 5.07-4.9 0-2.706-2.27-4.9-5.07-4.9-2.8 0-5.07 2.194-5.07 4.9 0 2.706 2.27 4.9 5.07 4.9ZM527.88 309.49c3.441 0 6.23-2.691 6.23-6.01s-2.789-6.01-6.23-6.01c-3.44 0-6.23 2.691-6.23 6.01s2.79 6.01 6.23 6.01Z"/><path fill="#F3BDCA" d="M565.81 310.26h-55.59s22.07-8.79 55.59 0Z"/><path fill="#F3BDCA" d="M556.5 309.52c5.418 0 9.81-4.245 9.81-9.48 0-5.236-4.392-9.48-9.81-9.48-5.417 0-9.81 4.244-9.81 9.48 0 5.235 4.393 9.48 9.81 9.48Z"/><path fill="#F3BDCA" d="M566.31 309.52c2.712 0 4.91-2.122 4.91-4.74 0-2.618-2.198-4.74-4.91-4.74-2.711 0-4.91 2.122-4.91 4.74 0 2.618 2.199 4.74 4.91 4.74ZM546.69 309.52c3.33 0 6.03-2.606 6.03-5.82 0-3.214-2.7-5.82-6.03-5.82s-6.03 2.606-6.03 5.82c0 3.214 2.7 5.82 6.03 5.82Z"/><path fill="#F3BDCA" d="M583.4 310.26h-53.8s21.4-8.5 53.8 0Z"/><path fill="#E0AC69" d="m506.41 264.91-35.33-.05V305a5.165 5.165 0 0 1-1.3 3.41v1.65h-2.66 9v-45.15h30.29Z"/><path fill="#F7CD97" d="M525.36 290.13a2.109 2.109 0 1 0-2.07-2.11c-.003.274.049.547.152.801a2.081 2.081 0 0 0 1.918 1.309Z"/><path fill="#F7CD97" d="M533.26 264.91h-26.85 14.2a2.51 2.51 0 0 1 2.5 2.52v18.28a3.23 3.23 0 1 1 0 4.58v17.31a2.509 2.509 0 0 1-2.31 2.49h12.51a3.37 3.37 0 0 0 3.37-3.37v-38.44a3.377 3.377 0 0 0-1.004-2.401 3.38 3.38 0 0 0-2.416-.969ZM476.13 310.11h30.22l-30.22-.04v.04ZM501.72 285.88a2.057 2.057 0 0 0-2 1.54h4c-.12-.44-.38-.828-.742-1.106a2.086 2.086 0 0 0-1.258-.434Z"/><path fill="#F7CD97" d="M512.35 285.89a2.111 2.111 0 1 0 1.707 3.294 2.11 2.11 0 0 0 .363-1.174 2.085 2.085 0 0 0-1.269-1.952 2.101 2.101 0 0 0-.801-.168Z"/><path fill="#F7CD97" d="M523.06 307.62v-17.31a3.224 3.224 0 0 1-.708-3.531c.164-.393.405-.75.708-1.049v-18.28a2.511 2.511 0 0 0-2.5-2.52h-44.43v45.16H520.75a2.51 2.51 0 0 0 2.31-2.47Zm-32.87-16.42h-2.64v-2.63h2.63l.01 2.63Zm-6-3v-2.64a3.421 3.421 0 0 0 3.42-3.4h2.63a6.06 6.06 0 0 1-6.09 6.04h.04Zm11.24 3c-1.57 0-2.79-.83-2.79-1.89v-.32h1.17v.31c0 .4.77.77 1.62.77.85 0 1.62-.36 1.62-.76s-.88-.57-1.58-.78c-1.22-.35-2.59-.75-2.6-1.92-.01-1.17 1.15-1.89 2.57-1.89s2.56.85 2.56 1.89v.32h-1.17v-.32c0-.41-.65-.76-1.4-.76-.75 0-1.39.35-1.39.76 0 .41.91.57 1.58.77 1.22.36 2.61.77 2.6 1.93-.01 1.16-1.22 1.89-2.83 1.89h.04Zm9.57-2.66h-5.25a2.08 2.08 0 0 0 2 1.55 2.168 2.168 0 0 0 1.81-.85l.19-.23.95.65-.21.27a3.302 3.302 0 0 1-2.74 1.28 3.235 3.235 0 0 1-1.798-.552 3.235 3.235 0 0 1-1.368-3.33 3.238 3.238 0 0 1 2.554-2.538 3.24 3.24 0 0 1 3.862 3.19v.56Zm4.12-2.66h-1.85v3.44c0 .52.43.79 1.26.79h.58v1.09h-.58c-1.53 0-2.42-.7-2.43-1.91v-3.44H505v-1.12h1.08v-1.53h1.17v1.52h1.85l.02 1.16Zm3.26 5.35a3.235 3.235 0 0 1-1.798-.552 3.235 3.235 0 0 1-1.368-3.33 3.238 3.238 0 0 1 2.554-2.538 3.24 3.24 0 0 1 3.862 3.19 3.25 3.25 0 0 1-3.29 3.2l.04.03Zm5.24-4.17v4.14h-1.16v-9.1h1.17l-.01 4.96Zm3.29 4-3-2.55v-1.12l3.21-2.67h1.74l-1.13 1-2.7 2.24 3.82 3.24H521l-.09-.14Z"/><path fill="#231F20" d="M495.58 287.4c-.67-.2-1.58-.47-1.58-.77 0-.3.65-.76 1.39-.76.74 0 1.4.35 1.4.76v.32H498v-.32c0-1-1.15-1.88-2.56-1.89-1.41-.01-2.57.85-2.57 1.89s1.38 1.57 2.6 1.92c.7.21 1.58.47 1.58.78 0 .31-.77.76-1.62.76-.85 0-1.62-.37-1.62-.77v-.31h-1.21v.32c0 1.06 1.22 1.89 2.79 1.89s2.79-.82 2.79-1.88-1.38-1.58-2.6-1.94ZM501.72 284.75a3.237 3.237 0 0 0-3.42 3.235 3.239 3.239 0 0 0 3.42 3.235 3.298 3.298 0 0 0 1.524-.309 3.297 3.297 0 0 0 1.216-.971l.21-.27-.95-.65-.19.23a2.182 2.182 0 0 1-1.81.85 2.083 2.083 0 0 1-2-1.55H505v-.56a3.248 3.248 0 0 0-3.28-3.24Zm-2 2.67a2.055 2.055 0 0 1 2-1.54 2.087 2.087 0 0 1 2 1.55l-4-.01Z"/><path fill="#30C495" d="M507.24 283.2h-1.17v1.52H505v1.12h1.07v3.44c0 1.21.9 1.91 2.43 1.91h.58v-1.12h-.58c-.83 0-1.25-.27-1.26-.79v-3.44h1.85v-1.13h-1.85v-1.51Z"/><path fill="#30C495" d="M512.35 284.77a3.242 3.242 0 0 0-2.993 2 3.242 3.242 0 0 0 2.361 4.418 3.237 3.237 0 0 0 2.92-5.466 3.25 3.25 0 0 0-2.288-.952Zm0 5.34a2.106 2.106 0 0 1-1.971-1.284 2.108 2.108 0 0 1 3.698-1.994c.232.349.355.759.353 1.178a2.097 2.097 0 0 1-2.09 2.1h.01ZM525.36 291.25a3.223 3.223 0 0 0 2.689-1.429 3.227 3.227 0 0 0-.626-4.292 3.228 3.228 0 0 0-4.333.201v4.58a3.24 3.24 0 0 0 2.27.94Zm0-5.34a2.112 2.112 0 0 1 2.103 2.503 2.11 2.11 0 1 1-4.027-1.197 2.092 2.092 0 0 1 1.131-1.142c.254-.107.527-.163.803-.164h-.01ZM523.08 290.31v-4.58a3.21 3.21 0 0 0-.956 2.29 3.224 3.224 0 0 0 .956 2.29ZM516.41 291.24h1.16l.01-1.67v-2.5l.01-4.97h-1.17l-.01 9.14Z"/><path fill="#30C495" d="m518.95 288.01 2.69-2.24 1.14-.99h-1.74l-3.21 2.67-.01 1.12 3.05 2.55.16.13h1.74l-3.82-3.24ZM484.15 285.54v2.66a6.063 6.063 0 0 0 6.05-6h-2.63a3.417 3.417 0 0 1-3.42 3.34Z"/><path fill="#231F20" d="m487.514 288.496-.003 2.64 2.64.003.003-2.64-2.64-.003Z"/><path fill="#F1C27D" d="M467.12 310.05h2.66v-1.65a5.104 5.104 0 0 1-2.66 1.65Z"/><path fill="#E0AC69" d="m424.2 240.11-73.46-.11a3.9 3.9 0 0 0-3.9 3.89v21h20.36a3.37 3.37 0 0 1 3.37 3.37v38.46a3.359 3.359 0 0 1-3.19 3.35v.13h9.85v-70l46.97-.09Zm-56.73 7h-12v-7h12v7Z"/><path fill="#F7CD97" d="M377.23 310.23h46.87l-46.87-.07v.07ZM453.61 272.68a3.28 3.28 0 0 0 0 6.56 3.22 3.22 0 0 0 2.91-1.91v-2.73a3.222 3.222 0 0 0-1.174-1.386 3.22 3.22 0 0 0-1.736-.534ZM450.12 244.04l-.05 28.36a5 5 0 0 1 6.46-.51v-4.54a2.513 2.513 0 0 1 2.51-2.51h12v-19.5a5.23 5.23 0 0 0-5.23-5.23H424.2h22a3.89 3.89 0 0 1 2.782 1.146 3.895 3.895 0 0 1 1.138 2.784ZM462.07 310.05H459a2.509 2.509 0 0 1-2.51-2.51v-27.49a5.002 5.002 0 0 1-6.46-.53v26.86a3.903 3.903 0 0 1-3.58 3.86h19.4c.43-.004.857-.064 1.27-.18h-5.05v-.01Z"/><path fill="#F7CD97" d="M469.84 269.4h-7.71v-4.54h-3.09a2.513 2.513 0 0 0-2.51 2.51v4.54a4.99 4.99 0 0 1 2.103 4.075 4.998 4.998 0 0 1-2.103 4.075v27.49a2.513 2.513 0 0 0 2.51 2.51h3.08v-4.54h7.71v2.89a5.165 5.165 0 0 0 1.3-3.41v-40.14h-1.23l-.06 4.54Z"/><path fill="#F7CD97" d="M456.83 275.96c0-.47-.102-.934-.3-1.36v2.73c.198-.43.3-.897.3-1.37ZM462.13 269.39l7.71.01.01-4.54-6.78-.01h-.93l-.01 4.54ZM462.08 305.51v4.54h5.05a5.095 5.095 0 0 0 2.66-1.64v-2.89l-7.71-.01ZM450 306.37v-26.86a5.01 5.01 0 0 1-1.484-3.555A4.995 4.995 0 0 1 450 272.4l.05-28.36a3.9 3.9 0 0 0-3.89-3.9h-69v70l46.87.07h22.35a3.899 3.899 0 0 0 3.62-3.84Zm-51-25.54h-4v-4.09h4v4.09Zm-9.33-4.63v-4.09a5.284 5.284 0 0 0 4.884-3.25c.267-.64.405-1.327.406-2.02h4.09a9.382 9.382 0 0 1-9.38 9.36Zm17.43 4.71c-2.43 0-4.32-1.29-4.32-2.93v-.49h1.81v.49c0 .62 1.2 1.19 2.51 1.19 1.31 0 2.52-.56 2.52-1.18 0-.62-1.36-.88-2.45-1.2-1.89-.55-4-1.18-4-3 0-1.62 1.79-2.93 4-2.92 2.21.01 4 1.32 4 2.93v.49h-1.81v-.5c0-.63-1-1.18-2.17-1.18s-2.19.59-2.19 1.19c0 .47 1.42.89 2.46 1.2 1.89.55 4 1.18 4 3-.03 1.63-1.93 2.91-4.36 2.91Zm14.9-4.13h-8.13a3.202 3.202 0 0 0 3.1 2.41h.03a3.371 3.371 0 0 0 2.82-1.31l.28-.36 1.47 1-.32.41a5.158 5.158 0 0 1-4.25 2h-.06a4.998 4.998 0 0 1-4.619-3.087 4.995 4.995 0 0 1 1.084-5.449 5 5 0 0 1 8.535 3.536l.06.85Zm6.39-4.13h-2.86v5.33c0 .81.67 1.23 2 1.23h.9v1.74h-.9c-2.38 0-3.75-1.09-3.77-3v-5.34H422v-1.71h1.67v-2.35h1.81v2.35h2.86l.05 1.75Zm5.06 8.3a4.998 4.998 0 0 1-4.619-3.087 4.995 4.995 0 0 1 1.084-5.449 5 5 0 1 1 3.485 8.536h.05Zm8.13-6.47v6.48h-1.81v-14.17h1.81v7.69Zm5.1 6.29-4.72-4v-1.74l5-4.14h2.7l-1.76 1.52-4.18 3.49 5.93 5h-2.71l-.26-.13Z"/><path fill="#F7CD97" d="M416.93 272.63a3.206 3.206 0 0 0-3.11 2.4h6.26a3.26 3.26 0 0 0-3.15-2.4ZM433.41 272.65a3.277 3.277 0 0 0-3.284 3.879 3.277 3.277 0 0 0 4.458 2.439 3.273 3.273 0 0 0 2.046-3.028 3.26 3.26 0 0 0-3.22-3.29Z"/><path fill="#231F20" d="M407.41 275c-1-.31-2.46-.73-2.46-1.2 0-.63 1-1.18 2.16-1.18 1.16 0 2.17.55 2.17 1.18v.5h1.81v-.49c0-1.61-1.78-2.93-4-2.93-2.22 0-4 1.3-4 2.92 0 1.81 2.15 2.44 4 3 1.09.32 2.45.72 2.45 1.2s-1.2 1.18-2.52 1.18-2.51-.57-2.51-1.19v-.49h-1.81v.49c0 1.64 1.89 2.92 4.32 2.93 2.43.01 4.33-1.28 4.33-2.92.1-1.8-2.05-2.45-3.94-3ZM416.93 270.89a5 5 0 1 0 0 10h.07a5.158 5.158 0 0 0 4.25-2l.32-.41-1.47-1-.28.36a3.373 3.373 0 0 1-2.82 1.36h-.05a3.194 3.194 0 0 1-1.963-.674 3.191 3.191 0 0 1-1.137-1.736H422v-.87a5 5 0 0 0-5.07-5.03Zm-3.11 4.14a3.205 3.205 0 0 1 3.11-2.4 3.256 3.256 0 0 1 3.15 2.41l-6.26-.01Z"/><path fill="#30C495" d="M425.48 268.55h-1.81v2.35H422v1.74h1.67v5.34c0 1.87 1.39 2.95 3.77 3h.9v-1.78h-.9c-1.29 0-1.95-.42-2-1.23v-5.33h2.86v-1.74h-2.86l.04-2.35Z"/><path fill="#30C495" d="M433.42 270.92a4.995 4.995 0 0 0-4.619 3.087 4.991 4.991 0 0 0 1.083 5.448 5.002 5.002 0 0 0 5.449 1.084 4.994 4.994 0 0 0 3.087-4.619 5.001 5.001 0 0 0-5-5Zm0 8.29a3.279 3.279 0 0 1-3.272-3.892 3.283 3.283 0 0 1 2.57-2.602 3.276 3.276 0 0 1 3.38 1.394c.362.542.554 1.179.552 1.83a3.263 3.263 0 0 1-3.25 3.26l.02.01ZM453.61 279.2a3.28 3.28 0 0 1 0-6.56 3.22 3.22 0 0 1 1.742.531c.518.34.927.822 1.178 1.389v-2.71a5 5 0 0 0-6.46.51v7.11a5.002 5.002 0 0 0 6.46.53v-2.71a3.218 3.218 0 0 1-2.92 1.91Z"/><path fill="#30C495" d="M458.64 275.97a5.004 5.004 0 0 0-2.11-4.08v2.71c.197.426.3.89.3 1.36a3.292 3.292 0 0 1-.31 1.37v2.71a5.002 5.002 0 0 0 2.12-4.07ZM448.58 275.95a5.001 5.001 0 0 0 1.48 3.56v-7.11a5.003 5.003 0 0 0-1.48 3.55ZM439.71 280.95l1.81.01v-2.6l.01-1.55v-2.33l.01-7.7h-1.81l-.02 14.17Z"/><path fill="#30C495" d="m443.66 275.95 4.18-3.49 1.76-1.52h-2.7l-4.99 4.13v1.74l4.72 3.96.25.19 2.71.01-5.93-5.02ZM389.68 272.11v4.09a9.38 9.38 0 0 0 9.39-9.36H395a5.283 5.283 0 0 1-5.32 5.27Z"/><path fill="#231F20" d="m394.987 276.75-.007 4.09 4.09.007.007-4.09-4.09-.007Z"/><path fill="#F1C27D" d="m355.499 240.004-.01 7.04 11.96.017.01-7.04-11.96-.017ZM367.2 310.11h-11.78 12v-.06l-.22.06Z"/><path fill="#E0AC69" d="m340.35 264.91-36.57-.05v4.54h-7.71v-4.54H293a2.522 2.522 0 0 0-2.328 1.547 2.504 2.504 0 0 0-.192.963l-.06 40.18a2.509 2.509 0 0 0 2.51 2.51H296v-4.54h7.71v4.54h-6.78 13.13v-45.15h30.29Z"/><path fill="#F7CD97" d="M359.3 290.13a2.109 2.109 0 1 0-2.07-2.11 2.102 2.102 0 0 0 2.07 2.11ZM346.81 264.91h-6.46l6.46.01v-.01ZM354.68 310.11h.74v-.2a2.538 2.538 0 0 1-.74.2Z"/><path fill="#F7CD97" d="M354.54 264.93a2.504 2.504 0 0 1 1.778.739 2.509 2.509 0 0 1 .732 1.781v18.28a3.24 3.24 0 0 1 5.52 2.3 3.235 3.235 0 0 1-2.003 2.973 3.245 3.245 0 0 1-3.517-.693v12.78h10.39v7a3.357 3.357 0 0 0 3.19-3.35v-38.46a3.37 3.37 0 0 0-3.37-3.37h-12.72v.02Z"/><path fill="#F7CD97" d="M357 303.09v4.53a2.46 2.46 0 0 1-1.57 2.29v.2h11.95v-7l-10.38-.02ZM310.07 310.11h30.21l-30.21-.04v.04ZM335.65 285.88a2.062 2.062 0 0 0-2 1.54h4a2.1 2.1 0 0 0-2-1.54ZM344.21 288a2.092 2.092 0 0 0 2.07 2.11c.167-.013.332-.046.49-.1v-4a1.949 1.949 0 0 0-.49-.1 2.09 2.09 0 0 0-2.07 2.09ZM348.35 288.01a2.074 2.074 0 0 0-1.58-2v4a2.071 2.071 0 0 0 1.58-2Z"/><path fill="#F7CD97" d="M346.75 306.2v-15c-.163.01-.326.01-.49 0a3.24 3.24 0 1 1 0-6.47c.165.002.329.019.49.05v-19.9h-36.68v45.16h40.47a3.876 3.876 0 0 1-2.671-1.154 3.874 3.874 0 0 1-1.119-2.686Zm-22.63-15h-2.63v-2.63h2.64l-.01 2.63Zm-6-3v-2.64a3.41 3.41 0 0 0 3.41-3.4h2.64a6.048 6.048 0 0 1-3.759 5.586 6.056 6.056 0 0 1-2.321.454h.03Zm11.23 3c-1.56 0-2.79-.83-2.79-1.89v-.32h1.16v.31c0 .4.77.77 1.62.77.85 0 1.63-.36 1.63-.76s-.88-.57-1.59-.78c-1.21-.35-2.59-.75-2.6-1.92-.01-1.17 1.16-1.89 2.57-1.89s2.56.85 2.56 1.89v.32h-1.17v-.32c0-.41-.66-.76-1.4-.76-.74 0-1.4.35-1.4.76 0 .41.92.57 1.59.77 1.22.36 2.6.77 2.59 1.93-.01 1.16-1.23 1.89-2.8 1.89h.03Zm9.57-2.66h-5.24a2.082 2.082 0 0 0 2 1.55 2.175 2.175 0 0 0 1.82-.85l.18-.23.95.65-.21.27a3.319 3.319 0 0 1-1.21.969 3.322 3.322 0 0 1-1.52.311h-.05a3.24 3.24 0 1 1 3.25-3.23l.03.56Zm4.12-2.66h-1.84v3.44c0 .52.44.79 1.27.79h.53v1.09h-.59c-1.53 0-2.41-.7-2.42-1.91v-3.44h-1.08v-1.12H340v-1.53h1.17v1.52H343l.04 1.16Z"/><path fill="#F7CD97" d="M355.43 303.09H357v-12.78a3.254 3.254 0 0 1-1-2.29 3.191 3.191 0 0 1 1-2.29v-18.28a2.527 2.527 0 0 0-.188-.964 2.525 2.525 0 0 0-1.359-1.364 2.511 2.511 0 0 0-.963-.192h-7.73v19.9a3.216 3.216 0 0 1 2.746 3.185 3.221 3.221 0 0 1-2.746 3.185v15a3.88 3.88 0 0 0 3.79 3.89h4.14c.255-.029.505-.096.74-.2v-6.8Zm-3.91-16v4.11h-1.17v-9.14h1.16l.01 5.03Zm.24 1.5v-1.12l3.22-2.67h1.74l-1.14 1-2.69 2.24 3.82 3.24H355l-.17-.13-3.07-2.56Z"/><path fill="#F7CD97" d="M355.42 309.91a2.46 2.46 0 0 0 1.57-2.29v-4.53h-1.57v6.82Z"/><path fill="#231F20" d="M329.52 287.4c-.67-.2-1.59-.47-1.59-.77 0-.3.66-.76 1.4-.76.74 0 1.4.35 1.4.76v.32h1.17v-.32c0-1-1.15-1.88-2.56-1.89-1.41-.01-2.56.85-2.57 1.89-.01 1.04 1.39 1.57 2.6 1.92.71.21 1.59.47 1.59.78 0 .31-.78.76-1.63.76-.85 0-1.62-.37-1.62-.77v-.31h-1.16v.32c0 1.06 1.23 1.89 2.79 1.89s2.79-.82 2.79-1.88-1.39-1.58-2.61-1.94Z"/><path fill="#231F20" d="M335.66 284.75a3.24 3.24 0 1 0 0 6.47h.05a3.315 3.315 0 0 0 2.73-1.28l.21-.27-.95-.65-.18.23a2.18 2.18 0 0 1-1.82.85 2.086 2.086 0 0 1-2-1.55h5.24v-.56a3.242 3.242 0 0 0-3.28-3.24Zm-2 2.67a2.062 2.062 0 0 1 2-1.54 2.1 2.1 0 0 1 2 1.55l-4-.01Z"/><path fill="#30C495" d="M341.17 283.2H340v1.52h-1.08v1.12H340v3.44c0 1.21.89 1.91 2.42 1.91h.58v-1.12h-.58c-.83 0-1.26-.27-1.27-.79v-3.44H343v-1.13h-1.85l.02-1.51Z"/><path fill="#30C495" d="M346.28 290.11a2.11 2.11 0 0 1 0-4.22c.167.012.332.046.49.1v-1.17a2.77 2.77 0 0 0-.49-.05 3.24 3.24 0 1 0 0 6.47c.163.01.327.01.49 0v-1.18c-.16.037-.325.053-.49.05ZM349.52 288.01a3.217 3.217 0 0 0-2.74-3.19v1.17a2.07 2.07 0 0 1 0 4v1.21a3.237 3.237 0 0 0 2.74-3.19ZM359.3 291.25c.856 0 1.678-.341 2.284-.946a3.233 3.233 0 0 0-2.284-5.514c-.857 0-1.68.338-2.29.94v4.58a3.233 3.233 0 0 0 2.29.94Zm0-5.34a2.112 2.112 0 0 1 2.103 2.503 2.11 2.11 0 0 1-4.183-.393 2.098 2.098 0 0 1 2.09-2.11h-.01ZM357 290.31v-4.58a3.202 3.202 0 0 0-1 2.29 3.253 3.253 0 0 0 1 2.29ZM350.34 291.24h1.17v-3.79l.01-.38v-4.97h-1.16l-.02 9.14Z"/><path fill="#30C495" d="m356.71 291.25-3.82-3.24 2.69-2.24 1.14-.99h-1.74l-3.22 2.67v1.12l3.04 2.55.17.13h1.74ZM318.09 285.54v2.66a6.06 6.06 0 0 0 6.05-6h-2.64a3.41 3.41 0 0 1-3.41 3.34Z"/><path fill="#231F20" d="m321.463 288.495-.004 2.64 2.64.004.004-2.64-2.64-.004Z"/><path fill="#F1C27D" d="m296.07 269.39 7.71.01v-4.54l-6.77-.01h-.94v4.54ZM303.72 305.52l-7.71-.01v4.54h.93l6.78.01v-4.54Z"/><path fill="#F3BDCA" d="M282.86 309.38c7.047 0 12.76-6.022 12.76-13.45 0-7.428-5.713-13.45-12.76-13.45-7.048 0-12.76 6.022-12.76 13.45 0 7.428 5.712 13.45 12.76 13.45Z"/><path fill="#F3BDCA" d="M295.32 309.38c3.485 0 6.31-2.507 6.31-5.6 0-3.093-2.825-5.6-6.31-5.6-3.485 0-6.31 2.507-6.31 5.6 0 3.093 2.825 5.6 6.31 5.6ZM270.1 309.38c4.28 0 7.75-3.08 7.75-6.88s-3.47-6.88-7.75-6.88c-4.281 0-7.75 3.08-7.75 6.88s3.469 6.88 7.75 6.88Z"/><path fill="#F3BDCA" d="M317.29 310.26h-69.17s27.46-10.06 69.17 0Z"/><path fill="#F3BDCA" d="M297.53 308.86c6.744 0 12.21-4.853 12.21-10.84s-5.466-10.84-12.21-10.84c-6.743 0-12.21 4.853-12.21 10.84s5.467 10.84 12.21 10.84Z"/><path fill="#F3BDCA" d="M309.73 308.86c3.369 0 6.1-2.427 6.1-5.42s-2.731-5.42-6.1-5.42c-3.369 0-6.1 2.427-6.1 5.42s2.731 5.42 6.1 5.42ZM285.32 308.86c4.142 0 7.5-2.982 7.5-6.66s-3.358-6.66-7.5-6.66c-4.142 0-7.5 2.982-7.5 6.66s3.358 6.66 7.5 6.66Z"/><path fill="#F3BDCA" d="M330.3 310.03h-66.94s26.57-9.73 66.94 0ZM175.42 91.45c13.569 0 24.57-9.774 24.57-21.83s-11.001-21.83-24.57-21.83c-13.57 0-24.57 9.774-24.57 21.83s11 21.83 24.57 21.83Z"/><path fill="#F3BDCA" d="M199.99 91.44c6.788 0 12.29-4.885 12.29-10.91s-5.502-10.91-12.29-10.91c-6.787 0-12.29 4.885-12.29 10.91s5.503 10.91 12.29 10.91ZM150.85 91.45c8.34 0 15.1-6.004 15.1-13.41 0-7.406-6.76-13.41-15.1-13.41-8.339 0-15.1 6.004-15.1 13.41 0 7.406 6.761 13.41 15.1 13.41Z"/><path fill="#F3BDCA" d="M235.11 94.57H112.92s48.5-24.05 122.19 0ZM1167.21 90.19c17.94 0 32.48-12.917 32.48-28.85 0-15.933-14.54-28.85-32.48-28.85-17.94 0-32.48 12.917-32.48 28.85 0 15.933 14.54 28.85 32.48 28.85Z"/><path fill="#F3BDCA" d="M1134.73 90.2c8.97 0 16.24-6.46 16.24-14.43s-7.27-14.43-16.24-14.43c-8.97 0-16.24 6.46-16.24 14.43s7.27 14.43 16.24 14.43ZM1199.69 90.19c11.02 0 19.95-7.933 19.95-17.72 0-9.786-8.93-17.72-19.95-17.72s-19.95 7.934-19.95 17.72c0 9.787 8.93 17.72 19.95 17.72Z"/><path fill="#F3BDCA" d="M1078.15 92.45h178.12s-70.71-25.89-178.12 0ZM314.58 310s-47.44-22.33-131.92-36.48a55.103 55.103 0 0 0 7.81-28.24c0-32.69-28.94-59.19-64.65-59.19a70.24 70.24 0 0 0-17.49 2.21C95 155.83 60.71 132.74 20.57 132.74c-6.91-.001-13.802.699-20.57 2.09V310h314.58Z"/><path fill="#EB92A7" d="M216.05 310s-32.58-16.15-90.6-26.38a41.444 41.444 0 0 0 5.37-20.42c0-23.64-19.89-42.8-44.41-42.8a45.713 45.713 0 0 0-12 1.6c-9.19-23.48-32.7-40.18-60.27-40.18A66.361 66.361 0 0 0 0 183.34V310h216.05Z"/><path fill="#DB284E" d="M311.51 148.84a14.627 14.627 0 0 1-6.37-4.83 13.198 13.198 0 0 1-2.51-7.7h11.88a5.76 5.76 0 0 0 1.77 3.88 5.659 5.659 0 0 0 3.91 1.34 6.143 6.143 0 0 0 3.92-1.14 3.812 3.812 0 0 0 1.44-3.17 3.783 3.783 0 0 0-1.15-2.81 9.007 9.007 0 0 0-2.8-1.82 44.602 44.602 0 0 0-4.74-1.64 50.05 50.05 0 0 1-7.24-2.74 13.166 13.166 0 0 1-4.83-4.05 11.247 11.247 0 0 1-2-7 11.992 11.992 0 0 1 4.64-10c3.093-2.42 7.117-3.63 12.07-3.63s9.023 1.21 12.21 3.63a12.992 12.992 0 0 1 5 10.08h-12.14a4.732 4.732 0 0 0-1.63-3.49 5.77 5.77 0 0 0-3.86-1.27 4.83 4.83 0 0 0-3.26 1.07 3.903 3.903 0 0 0-1.24 3.11 3.831 3.831 0 0 0 2.09 3.46 34.215 34.215 0 0 0 6.53 2.67 59.127 59.127 0 0 1 7.21 2.88 13.707 13.707 0 0 1 4.8 4 10.637 10.637 0 0 1 2 6.72 13.188 13.188 0 0 1-2 7.12 13.931 13.931 0 0 1-5.78 5.09 19.76 19.76 0 0 1-8.94 1.89 23.525 23.525 0 0 1-8.98-1.65ZM372.62 141.92h-17.11l-2.74 8.1h-11.69l16.59-45.83h12.92L387.18 150h-11.82l-2.74-8.08Zm-2.87-8.62-5.68-16.77-5.62 16.77h11.3ZM422 104.19v8.94h-18.63v9.66h14v8.69h-14V150H392.2v-45.81H422ZM439.08 113.13v9.27H454v8.6h-14.92v10H456v9h-28.09v-45.81H456v8.94h-16.92ZM484.65 148.84a14.621 14.621 0 0 1-6.37-4.83 13.12 13.12 0 0 1-2.51-7.7h11.88a5.748 5.748 0 0 0 1.76 3.88 5.679 5.679 0 0 0 3.92 1.34 6.157 6.157 0 0 0 3.92-1.14 3.846 3.846 0 0 0 1.43-3.17 3.757 3.757 0 0 0-1.14-2.81 9.016 9.016 0 0 0-2.81-1.82A44.523 44.523 0 0 0 490 131a50.362 50.362 0 0 1-7.25-2.74 13.31 13.31 0 0 1-4.83-4.05 11.24 11.24 0 0 1-2-7 11.99 11.99 0 0 1 4.63-10c3.093-2.42 7.12-3.63 12.08-3.63s9.03 1.21 12.21 3.63a13.003 13.003 0 0 1 5 10.08H497.7a4.706 4.706 0 0 0-1.63-3.49 5.733 5.733 0 0 0-3.85-1.27 4.811 4.811 0 0 0-3.26 1.07 3.89 3.89 0 0 0-1.24 3.11 3.838 3.838 0 0 0 2.08 3.46 34.41 34.41 0 0 0 6.53 2.67 59.268 59.268 0 0 1 7.22 2.88 13.716 13.716 0 0 1 4.8 4 10.703 10.703 0 0 1 2 6.72 13.188 13.188 0 0 1-2 7.12 14.003 14.003 0 0 1-5.78 5.09 19.803 19.803 0 0 1-8.94 1.89 23.486 23.486 0 0 1-8.98-1.7ZM556.92 104.19V150h-11.16v-18.85h-17.37V150h-11.17v-45.81h11.17v18h17.37v-18h11.16ZM574.77 147.47a22.433 22.433 0 0 1-8.55-8.39 24.726 24.726 0 0 1 0-24.19 22.47 22.47 0 0 1 8.55-8.35 24.837 24.837 0 0 1 23.7 0 21.994 21.994 0 0 1 8.49 8.35 24.999 24.999 0 0 1 0 24.19 22.284 22.284 0 0 1-8.49 8.39 24.844 24.844 0 0 1-23.67 0h-.03Zm20.63-10.84c2.2-2.433 3.3-5.653 3.3-9.66 0-4.007-1.1-7.237-3.3-9.69a11.266 11.266 0 0 0-8.78-3.63 11.406 11.406 0 0 0-8.84 3.59c-2.2 2.4-3.3 5.643-3.3 9.73 0 4.087 1.1 7.32 3.3 9.7a11.36 11.36 0 0 0 8.84 3.62 11.217 11.217 0 0 0 8.78-3.66ZM649.36 126.22a13.393 13.393 0 0 1-5.61 5.32 19.762 19.762 0 0 1-9.4 2h-6.92V150h-11.17v-45.81h18.09a20.648 20.648 0 0 1 9.27 1.89 12.998 12.998 0 0 1 5.68 5.22 15.218 15.218 0 0 1 1.89 7.64 14.745 14.745 0 0 1-1.83 7.28Zm-11.09-3a6.541 6.541 0 0 0 0-8.48 6.691 6.691 0 0 0-4.77-1.5h-6.07v11.49h6.07a6.652 6.652 0 0 0 4.77-1.55v.04ZM690.1 126.22a13.452 13.452 0 0 1-5.61 5.32 19.786 19.786 0 0 1-9.4 2h-6.92V150H657v-45.81h18.09a20.645 20.645 0 0 1 9.27 1.89 13.062 13.062 0 0 1 5.64 5.22 15.218 15.218 0 0 1 1.89 7.64 14.74 14.74 0 0 1-1.79 7.28Zm-11.1-3a6.509 6.509 0 0 0 0-8.48 6.65 6.65 0 0 0-4.76-1.5h-6.07v11.49h6.07a6.6 6.6 0 0 0 4.76-1.55v.04ZM708.9 104.19V150h-11.16v-45.81h11.16ZM758 150h-11.16l-18.68-28.27V150H717v-45.81h11.16l18.68 28.4v-28.4H758V150ZM796.52 118.68a8.382 8.382 0 0 0-3.56-3.49 11.592 11.592 0 0 0-5.45-1.21 11.218 11.218 0 0 0-8.68 3.56c-2.18 2.367-3.27 5.533-3.27 9.5 0 4.22 1.143 7.517 3.43 9.89 2.286 2.373 5.429 3.56 9.429 3.56a11.468 11.468 0 0 0 7-2.09 11.905 11.905 0 0 0 4.141-6h-14.211v-8.23h24.291v10.38a21.901 21.901 0 0 1-4.21 7.77 22.115 22.115 0 0 1-7.54 5.81 23.346 23.346 0 0 1-10.32 2.22 24.43 24.43 0 0 1-12.11-3 21.174 21.174 0 0 1-8.291-8.26 26.09 26.09 0 0 1 0-24.18 21.271 21.271 0 0 1 8.261-8.3 24.247 24.247 0 0 1 12.08-3 23.426 23.426 0 0 1 13.87 4 18.76 18.76 0 0 1 7.479 11l-12.339.07Z"/><path fill="#0F0F0F" d="M589.93 181.22a9.534 9.534 0 0 0-3.68-4.15 10.654 10.654 0 0 0-5.61-1.46 11.477 11.477 0 0 0-5.77 1.46 10.427 10.427 0 0 0-4 4.21 14.343 14.343 0 0 0 0 12.65 10.422 10.422 0 0 0 4 4.18c1.759.993 3.751 1.5 5.77 1.47a10.431 10.431 0 0 0 7.36-2.67 11.104 11.104 0 0 0 3.38-7.24h-12.19v-3.24h16.44v3.07a15.298 15.298 0 0 1-2.37 6.9 14.569 14.569 0 0 1-5.3 4.95 14.79 14.79 0 0 1-7.32 1.82 15.419 15.419 0 0 1-7.76-2 14.703 14.703 0 0 1-5.55-5.54 16.922 16.922 0 0 1 0-16.07 14.6 14.6 0 0 1 5.55-5.56 15.419 15.419 0 0 1 7.76-2 15.627 15.627 0 0 1 8.61 2.41 13.782 13.782 0 0 1 5.46 6.8l-4.78.01ZM604.79 172.36v19.33c0 2.72.66 4.73 2 6.05a8.732 8.732 0 0 0 11.05 0c1.33-1.32 2-3.33 2-6.05v-19.33h4v19.29a12.493 12.493 0 0 1-1.53 6.42 9.688 9.688 0 0 1-4.15 3.88 14.103 14.103 0 0 1-11.7 0 9.514 9.514 0 0 1-4.12-3.88 12.61 12.61 0 0 1-1.51-6.42v-19.29h3.96ZM648.53 196.12H635.2l-2.45 6.79h-4.21l11.05-30.37h4.6l11 30.37H651l-2.47-6.79Zm-1.14-3.25-5.52-15.42-5.53 15.42h11.05ZM676.1 202.91l-7.28-12.49H664v12.49h-4v-30.55h9.86c2.016-.06 4.018.347 5.85 1.19a8.183 8.183 0 0 1 3.58 3.19 9.496 9.496 0 0 1-.64 10.17 8.838 8.838 0 0 1-5.46 3.2l7.67 12.8h-4.76ZM664 187.22h5.87a6.638 6.638 0 0 0 4.87-1.6 5.748 5.748 0 0 0 1.62-4.27 5.462 5.462 0 0 0-1.6-4.21 6.994 6.994 0 0 0-4.89-1.49H664v11.57ZM704.72 196.12h-13.329l-2.451 6.79h-4.21l11-30.37h4.601l11 30.37h-4.211l-2.4-6.79Zm-1.139-3.25-5.531-15.42-5.519 15.42h11.05ZM740.22 202.91h-4l-16-24.32v24.32h-4v-30.59h4l16 24.28v-24.28h4v30.59ZM765.81 172.36v3.25h-8.32v27.3h-4v-27.3h-8.37v-3.25h20.69ZM774.71 175.61v10.21h11.13v3.28h-11.13v10.52h12.45v3.29h-16.44v-30.59h16.44v3.29h-12.45ZM797.19 175.61v10.21h11.14v3.28h-11.14v10.52h12.45v3.29h-16.43v-30.59h16.43v3.29h-12.45Z"/><path fill="#D7244F" d="m956.84 43.41-89.481 17v119.21a34.07 34.07 0 0 0 5.52 18.67c11.42 17.51 64.51 60.51 84 60.51 20.53 0 72.611-43.07 84.001-60.56a34.164 34.164 0 0 0 5.48-18.62V60.39l-89.52-16.98Z"/><path fill="#DF4E71" stroke="#B92045" stroke-miterlimit="10" stroke-width="5.01" d="M956.84 63.17 883.78 77v97.35a27.9 27.9 0 0 0 4.5 15.26C897.61 203.93 941 239 956.84 239c16.76 0 59.29-35.17 68.59-49.45a27.742 27.742 0 0 0 4.48-15.21V77l-73.07-13.83Z"/><path fill="#231F20" d="M956.84 43.41V258.8s60.89-17.28 88.62-71.51l.87-126.9-89.49-16.98Z" opacity=".1"/><path stroke="#fff" stroke-linecap="round" stroke-linejoin="round" stroke-width="15.02" d="m914.23 148.64 30.221 21.37 55.01-51.04"/><path fill="#EB92A7" d="M1142.33 261.1c16.3 0 29.52-12.715 29.52-28.4 0-15.685-13.22-28.4-29.52-28.4-16.3 0-29.52 12.715-29.52 28.4 0 15.685 13.22 28.4 29.52 28.4Z"/><path fill="#EB92A7" d="M1171.84 261.1c8.15 0 14.76-6.358 14.76-14.2s-6.61-14.2-14.76-14.2c-8.15 0-14.76 6.358-14.76 14.2s6.61 14.2 14.76 14.2ZM1112.81 261.11c10.01 0 18.13-7.813 18.13-17.45s-8.12-17.45-18.13-17.45-18.13 7.813-18.13 17.45 8.12 17.45 18.13 17.45Z"/><path fill="#EB92A7" d="M1014.77 263.61h183.4s-72.8-28.87-183.4 0ZM1005.05 262.38c18.31 0 33.16-14.287 33.16-31.91 0-17.623-14.85-31.91-33.16-31.91-18.314 0-33.16 14.287-33.16 31.91 0 17.623 14.846 31.91 33.16 31.91Z"/><path fill="#EB92A7" d="M1038.21 262.38c9.16 0 16.58-7.141 16.58-15.95s-7.42-15.95-16.58-15.95c-9.16 0-16.58 7.141-16.58 15.95s7.42 15.95 16.58 15.95ZM971.89 262.38c11.25 0 20.37-8.775 20.37-19.6 0-10.825-9.12-19.6-20.37-19.6-11.251 0-20.37 8.775-20.37 19.6 0 10.825 9.119 19.6 20.37 19.6Z"/><path fill="#EB92A7" d="M1096 264.87H914.13s72.19-28.63 181.87 0Z"/><path fill="#F3BDCA" d="M948.86 263.26c9.422 0 17.06-8.054 17.06-17.99 0-9.936-7.638-17.99-17.06-17.99-9.422 0-17.06 8.054-17.06 17.99 0 9.936 7.638 17.99 17.06 17.99Z"/><path fill="#F3BDCA" d="M965.52 263.25c4.656 0 8.43-3.353 8.43-7.49 0-4.137-3.774-7.49-8.43-7.49s-8.43 3.353-8.43 7.49c0 4.137 3.774 7.49 8.43 7.49ZM931.8 263.25c5.722 0 10.36-4.119 10.36-9.2 0-5.081-4.638-9.2-10.36-9.2-5.721 0-10.36 4.119-10.36 9.2 0 5.081 4.639 9.2 10.36 9.2Z"/><path fill="#F3BDCA" d="M994.89 264.42h-92.47s36.71-13.42 92.47 0Z"/><path fill="#F3BDCA" d="M968.47 262.56c9.014 0 16.32-6.492 16.32-14.5s-7.306-14.5-16.32-14.5c-9.013 0-16.32 6.492-16.32 14.5s7.307 14.5 16.32 14.5Z"/><path fill="#F3BDCA" d="M984.79 262.56c4.506 0 8.16-3.246 8.16-7.25s-3.654-7.25-8.16-7.25c-4.507 0-8.16 3.246-8.16 7.25s3.653 7.25 8.16 7.25ZM952.15 262.56c5.54 0 10.03-3.989 10.03-8.91s-4.49-8.91-10.03-8.91c-5.539 0-10.03 3.989-10.03 8.91s4.491 8.91 10.03 8.91Z"/><path fill="#F3BDCA" d="M1012.28 264.11h-89.49s35.52-13 89.49 0Z"/><path fill="#000" d="M1063.74 167.51a.43.43 0 0 1-.16 0 .286.286 0 0 1-.12-.084.334.334 0 0 1-.08-.125.375.375 0 0 1-.03-.147.68.68 0 0 1 .04-.144l2.4-5.47a.343.343 0 0 1 .09-.122.28.28 0 0 1 .12-.08c.05-.018.1-.027.15-.026a.433.433 0 0 1 .27.119.52.52 0 0 1 .08.126c.01.047.02.097.02.147 0 .051-.01.1-.03.146l-2.4 5.46a.32.32 0 0 1-.15.15.36.36 0 0 1-.2.05Z" opacity=".1"/><g opacity=".1"><path fill="#4EA785" d="m1097.56 175.94-1.14.4-4.73-11.56" opacity=".1"/><path fill="#000" d="m1096.21 176.82-4.87-11.9a.372.372 0 0 1 0-.293.341.341 0 0 1 .09-.124.284.284 0 0 1 .12-.083c.05-.019.1-.029.15-.028.05 0 .1.01.14.03.05.019.09.047.13.083.03.036.06.078.08.125l4.59 11.23.79-.28c.1-.032.2-.025.29.02.1.045.17.124.2.22s.02.2-.02.29a.382.382 0 0 1-.22.19l-1.47.52Z" opacity=".1"/></g><path fill="#fff" d="M1133.55 124.13c2.82-2.261 5-5.227 6.31-8.6a25.42 25.42 0 0 1-8.25-12.24 25.568 25.568 0 0 1 .57-16.807 25.614 25.614 0 0 1 42.34-8.568c4 4.15 6.49 9.528 7.06 15.265a25.679 25.679 0 0 1-3.93 16.351 25.651 25.651 0 0 1-13.22 10.392 25.631 25.631 0 0 1-16.82-.043c-3.34 2.84-7.78 4.61-13.82 4.87a.358.358 0 0 1-.21-.056.315.315 0 0 1-.13-.167.323.323 0 0 1-.02-.216.346.346 0 0 1 .12-.181Z"/><path fill="#DB284E" d="M1145 90.19c4.39-7.13 11.13 0 11.13 0s6.74-7.09 11.13 0c5.46 8.88-11.13 17.68-11.13 17.68s-16.64-8.8-11.13-17.68Z"/><path fill="#F3BDCA" d="M1081.78 310a1000.902 1000.902 0 0 1 123.16-31.84 45.91 45.91 0 0 1-5.32-21.44c0-26.38 22.37-47.77 50-47.77 3.84.003 7.66.429 11.4 1.27 4.76-42.72 42.58-76 88.54-76 38.12 0 70.63 22.9 83.34 55.09 2.35-.64 4.73-1.141 7.13-1.5V310h-358.25Z"/><path fill="#EB92A7" d="M1198.34 310s36.44-18.06 101.34-29.51a46.246 46.246 0 0 1-6-22.83c0-26.45 22.23-47.88 49.66-47.88 4.54.001 9.06.599 13.44 1.78 10.28-26.26 36.58-44.94 67.42-44.94a74.68 74.68 0 0 1 15.8 1.7V310h-241.66Z"/><g clip-path="url(#a)"><path fill="#F7CD97" d="M387 266.2h72v20h-72z"/><path fill="#D7244F" d="m394.926 272.134.217-.044c-.324 2.121-.643 4.807-.613 5.654.015.44.337.757.766.757a.895.895 0 0 0 .39-.093c1.942-.944 3.144-1.248 5.136-1.752.468-.116.591-.511.553-.811-.044-.349-.317-.705-.752-.705a.849.849 0 0 0-.206.026c-1.705.431-2.847.738-4.265 1.34.031-.331.072-.713.121-1.136l.772-.318c1.327-.549 2.203-.912 3.778-1.34.468-.128.584-.524.545-.829-.046-.342-.315-.689-.737-.689a.816.816 0 0 0-.22.03c-1.594.436-2.477.801-3.814 1.355l-.102.042c.117-.829.234-1.626.341-2.249 1.125-.489 2.163-.743 3.805-1.067.383-.076.606-.373.568-.757-.036-.365-.326-.752-.791-.752a.852.852 0 0 0-.167.017c-1.295.255-2.297.486-3.286.846a.638.638 0 0 0-.091-.116.814.814 0 0 0-.587-.238c-.286 0-.628.147-.73.558-.01.042-.03.111-.052.191v.008c-.04.14-.089.312-.117.441-.2.058-.928.186-1.633.307l-.035.006c-.828.142-1.764.303-2.362.438.017-.454.034-.854.051-1.223.01-.221.015-.449.021-.671v-.128c.688-.101 1.373-.207 2.196-.334l.021-.003c.898-.139 1.915-.296 2.905-.436a.61.61 0 0 0 .423-.28.808.808 0 0 0 .11-.625c-.091-.332-.368-.529-.74-.529-.05 0-.099.004-.149.011-.935.133-1.888.28-2.806.422l-.042.007c-.608.094-1.205.186-1.812.278.031-.212.077-.421.136-.627a.671.671 0 0 0-.103-.616.8.8 0 0 0-.631-.302.696.696 0 0 0-.693.52 6.413 6.413 0 0 0-.22 1.238c-.846.117-1.6.209-2.303.284-.43.045-.722.34-.722.734 0 .358.336.777.754.733.671-.07 1.391-.157 2.2-.266l-.013.349c-.026.543-.051 1.119-.076 1.872-.279.088-.534.175-.778.264-.322.117-.552.509-.514.869.032.3.234.505.545.549.179.031.363.027.54-.011.041-.008.09-.019.147-.033l-.02.583c-.053 1.505-.107 3.061-.194 4.591a.66.66 0 0 0 .173.508.719.719 0 0 0 .532.215c.363 0 .744-.243.77-.706.088-1.543.142-3.105.195-4.615l.034-.964c.812-.209 2.622-.573 3.495-.749l.136-.029ZM428.647 274.947c-.043-.35-.316-.706-.751-.706a.792.792 0 0 0-.206.027c-1.791.452-3.081.797-4.583 1.428.023-.326.058-.708.106-1.137l.033-.012c.461-.188.845-.35 1.1-.46.961-.408 1.49-.632 2.907-1.02.468-.128.585-.524.544-.829-.045-.342-.314-.69-.737-.69a.858.858 0 0 0-.219.031c-1.438.393-1.972.62-2.941 1.031l-.468.198c.117-.83.247-1.68.371-2.399.492-.206 1.027-.349 1.53-.476a19.172 19.172 0 0 1 1.603-.328h.005c.254-.043.569-.096.972-.174.382-.075.606-.371.568-.757-.035-.366-.325-.757-.793-.757a.82.82 0 0 0-.164.015c-.4.078-.79.142-1.17.205-.76.126-1.549.256-2.305.488a.677.677 0 0 0-.163-.262.829.829 0 0 0-.584-.237c-.286 0-.628.146-.73.557-.038.154-.086.379-.142.67a6.052 6.052 0 0 0-.895.681c-.234.215-.305.499-.195.781a.848.848 0 0 0 .749.529c-.333 2.126-.649 4.699-.543 5.57.054.439.371.746.772.746a.878.878 0 0 0 .383-.092c1.926-.937 3.383-1.305 5.399-1.815.463-.114.584-.506.547-.806ZM407.671 278.672c.086-1.053.216-2.279.342-3.465v-.026c.088-.831.179-1.689.252-2.466.079-.847.168-1.763.279-2.71l.03-.262c.051-.456.104-.928.217-1.376a.627.627 0 0 0-.112-.552.781.781 0 0 0-.607-.286.686.686 0 0 0-.605.346c-.292.504-.551 1.023-.803 1.525-.159.315-.338.673-.518 1.01a24.63 24.63 0 0 1-.892 1.564 9.3 9.3 0 0 1-.253.387 34.39 34.39 0 0 1-.666-2.03 38.187 38.187 0 0 0-.434-1.387l-.205-.632a1.736 1.736 0 0 0-.026-.168l-.003-.008a1.804 1.804 0 0 0-.081-.204c-.109-.21-.345-.341-.617-.341a.784.784 0 0 0-.359.085.649.649 0 0 0-.206.169.616.616 0 0 0-.175.35 2.942 2.942 0 0 0-.08.612 3.329 3.329 0 0 1-.022.269c-.11.815-.179 1.682-.224 2.815-.07 1.791-.134 4.219-.166 6.337a.623.623 0 0 0 .175.462.754.754 0 0 0 .531.207c.354 0 .717-.228.725-.665.016-1.09.053-2.348.088-3.564.024-.837.044-1.528.058-2.169.005-.191.01-.387.018-.583.314.864.688 1.5 1.173 1.996a.703.703 0 0 0 .503.192.658.658 0 0 0 .38-.111c.662-.473 1.111-1.234 1.513-1.985l-.059.611c-.07.749-.159 1.588-.244 2.399l-.005.038c-.13 1.234-.265 2.509-.356 3.624a.575.575 0 0 0 .145.457.68.68 0 0 0 .505.202c.365 0 .751-.229.784-.667ZM409.95 277.902c.307-.955.59-1.922.803-2.664.769-.391 1.472-.743 2.147-1.077.422 1.389.929 2.75 1.52 4.077.107.239.37.392.672.392a.804.804 0 0 0 .395-.101c.357-.208.471-.626.285-1.041-.526-1.165-1.002-2.479-1.462-4.013.384-.184.729-.35 1.053-.5.314-.147.463-.44.39-.764-.073-.324-.376-.66-.801-.66a.816.816 0 0 0-.347.079l-.722.341a84.875 84.875 0 0 1-.585-2.337 25.547 25.547 0 0 0-.249-.973 6.19 6.19 0 0 1-.099-.42l-.007-.036a.731.731 0 0 0-.045-.662.825.825 0 0 0-.692-.389.636.636 0 0 0-.381.122.999.999 0 0 0-.393.582l-.027-.007-.031.143c-.699 1.889-1.258 3.844-1.798 5.739l-.127.44-.054.028a.923.923 0 0 0-.133.058l-.143.08c-.044.026-.086.05-.131.073l-.135.069.006.013a.666.666 0 0 0-.243.715.862.862 0 0 0 .382.524 68.632 68.632 0 0 1-.537 1.748.69.69 0 0 0 .089.64.828.828 0 0 0 .665.318.743.743 0 0 0 .735-.537Zm1.382-4.683c.184-.641.425-1.468.692-2.323l.013.058c.087.37.184.789.293 1.202.043.17.09.337.135.503-.359.174-.729.355-1.133.56Z"/><path fill="#D7244F" d="M420.455 275.714a.785.785 0 0 0-.376.099c-.638.346-1.152.566-1.668.714a3.147 3.147 0 0 1-.824.122l-.029-.004c-.038-.214.016-.517.059-.764.076-.426.163-.91.234-1.398.409-2.805.626-5.057.71-7.303a.707.707 0 0 0-.191-.531.786.786 0 0 0-.56-.225c-.383 0-.78.256-.798.745-.107 2.908-.362 5.399-.801 7.837-.014.079-.031.16-.048.248l-.005.031c-.176.912-.4 2.047.506 2.651.264.175.585.261.974.261.354-.01.706-.059 1.049-.147.772-.178 1.497-.537 2.163-.9.314-.17.45-.474.363-.815-.075-.307-.363-.621-.758-.621ZM447.066 276.2h-.059c-.63 0-.969.503-.98.999-.011.477.281 1.004.949 1.034h.052c.632 0 .975-.502.986-.999.01-.477-.283-1.005-.948-1.034ZM439.324 270.54c-.213-1.515-1.144-2.811-2.431-3.386a3.43 3.43 0 0 0-1.393-.304c-.901 0-1.687.373-2.211 1.048-.151.19-.28.394-.387.611a.787.787 0 0 0 .039.791.882.882 0 0 0 .495.379 69.573 69.573 0 0 0-.025 3.518c.015.834.046 1.821.164 2.817l.02.172a4.457 4.457 0 0 1-.371.026c-.52.012-.787.426-.782.829.005.376.248.779.77.779h.021c.249-.006.498-.029.745-.068.038.075.082.146.132.213.18.241.434.379.697.379a.78.78 0 0 0 .648-.35.863.863 0 0 0 .137-.321.714.714 0 0 0-.027-.399 6.54 6.54 0 0 0 2.231-1.697c1.219-1.432 1.777-3.267 1.528-5.037Zm-4.224-2.039a.905.905 0 0 1 .357-.058h.09c.187.007.37.045.544.113.8.269 1.444 1.129 1.64 2.188.222 1.198-.215 2.673-1.111 3.759-.404.49-.9.896-1.461 1.196-.096-.898-.121-1.82-.135-2.683-.026-1.535 0-3.053.076-4.515ZM444.989 273.703c-.117-1.077-.243-2.191-.451-3.275-.144-.749-.307-1.544-.591-2.298-.128-.341-.265-.666-.523-.901a1.024 1.024 0 0 0-.688-.272.943.943 0 0 0-.701.314.769.769 0 0 0-.199.38.767.767 0 0 0 .032.427l.005.014a.744.744 0 0 0-.031.072c-.292.772-.551 1.562-.804 2.326v.006c-.282.85-.537 1.615-.824 2.373-.393.126-.497.476-.465.74a.79.79 0 0 0 .073.247 14.19 14.19 0 0 0-.401 1.066c-.159.501-.343 1.241-.098 1.879.135.35.432.571.775.571a.797.797 0 0 0 .515-.192.858.858 0 0 0 .214-.269.71.71 0 0 0 .04-.576c-.125-.325.031-.771.169-1.165l.033-.092c.108-.314.237-.623.363-.923l.033-.082c.552-.117 1.13-.223 1.926-.357l.039.36c.151 1.369.307 2.784.638 4.151a.727.727 0 0 0 .736.585.893.893 0 0 0 .681-.323.759.759 0 0 0 .138-.676c-.326-1.346-.483-2.751-.634-4.11Zm-1.777-1.424c-.443.074-.809.138-1.149.2.172-.494.343-1.005.502-1.486l.018-.053c.076-.229.165-.498.258-.773a26.608 26.608 0 0 1 .269 1.429l.019.126.02.138.011.071.052.348ZM447.828 271.551l.028-.439v-.015c.019-.316.033-.502.043-.641v-.032c.019-.246.031-.394.049-.958 0-.054.003-.109.006-.165l.003-.086c.023-.559.046-1.137-.1-1.674a.783.783 0 0 0-.783-.594.869.869 0 0 0-.673.316.72.72 0 0 0-.117.653c.021.081.036.163.045.246v.051c.005.084.007.167.009.237.011.385 0 .766-.015 1.155-.02.56-.035.753-.058 1.024v.007a33.46 33.46 0 0 0-.054.777l-.018.31c-.041.666-.07 1.148-.063 1.903v.145c0 .606 0 1.619.775 1.74.064.01.13.015.195.015.267 0 .468-.094.606-.279.217-.301.157-.738.087-.949a.772.772 0 0 1-.03-.152c0-.005 0-.025-.004-.053v-.014c0-.025-.004-.051-.005-.063a8.087 8.087 0 0 1-.009-.22v-.016c-.004-.171 0-.349 0-.501.018-.688.045-1.124.083-1.728ZM458.324 267.371a.656.656 0 0 0-.56.291l-.027-.007-.058.175c-.303.874-.664 1.753-1.046 2.68l-.004.01c-.161.392-.296.721-.427 1.048a61.25 61.25 0 0 1-1.084-1.603 5.725 5.725 0 0 0-.262-.373 3.843 3.843 0 0 1-.278-.426c-.117-.197-.22-.381-.315-.562a6.704 6.704 0 0 1-.109-.222l-.016-.036a1.918 1.918 0 0 1-.026-.081.65.65 0 0 0-.237-.341.651.651 0 0 0-.397-.125.716.716 0 0 0-.568.275.605.605 0 0 0-.082.572v.007c.355.81.531 1.077.915 1.66.055.082.111.169.176.265l.003.005a57.003 57.003 0 0 0 1.704 2.477c-.613 1.697-.936 3.072-1.015 4.329a.608.608 0 0 0 .157.466.648.648 0 0 0 .481.196c.326 0 .671-.219.698-.636.136-2.16 1.058-4.368 1.949-6.509l.007-.017c.297-.714.578-1.388.833-2.065a.688.688 0 0 0 .099-.197c.024-.071.044-.144.066-.223.018-.065.037-.132.058-.198a.592.592 0 0 0-.074-.559.71.71 0 0 0-.561-.276ZM453.162 275.512a.79.79 0 0 0-.38.1c-.584.318-1.058.52-1.531.655-.231.066-.47.103-.711.11-.017-.18.026-.423.059-.622l.004-.021c.07-.393.151-.839.215-1.284.366-2.513.585-4.788.663-6.955a.72.72 0 0 0-.195-.542.806.806 0 0 0-.568-.227c-.387 0-.787.259-.805.754-.082 2.196-.326 4.629-.747 7.438-.015.106-.036.218-.059.353-.148.828-.334 1.859.51 2.42.256.171.562.254.939.254.332-.01.663-.056.984-.139.722-.166 1.398-.501 2.022-.838.319-.175.457-.483.369-.828-.079-.312-.369-.628-.769-.628Z"/><path fill="#D8254F" d="M459 280.637h-31.566v5.563H459v-5.563Z"/><path fill="#fff" d="M432.473 283.905a.71.71 0 0 0-.271-.174 3.49 3.49 0 0 0-.368-.117 3.518 3.518 0 0 1-.405-.126 1.93 1.93 0 0 1-.369-.178.792.792 0 0 1-.271-.298.954.954 0 0 1-.105-.466.878.878 0 0 1 .318-.691c.211-.185.498-.277.859-.277.129 0 .258.016.384.048.105.027.208.066.304.117.074.039.145.083.213.131a.928.928 0 0 1 .133.117l.04.049-.357.359a.601.601 0 0 0-.114-.108.964.964 0 0 0-.142-.093.998.998 0 0 0-.461-.105.682.682 0 0 0-.446.137.4.4 0 0 0-.064.597.71.71 0 0 0 .271.174c.121.046.244.085.369.117.137.035.272.076.404.125.129.046.253.105.369.177a.795.795 0 0 1 .271.299c.073.143.11.302.105.463a.996.996 0 0 1-.082.424.992.992 0 0 1-.258.348c-.226.199-.54.298-.939.298a1.802 1.802 0 0 1-.831-.197 2.038 2.038 0 0 1-.248-.163 1.23 1.23 0 0 1-.152-.137l-.05-.062.357-.356a.99.99 0 0 0 .034.044 1.254 1.254 0 0 0 .288.223c.083.043.17.075.259.097.112.03.226.045.341.044.222 0 .397-.054.526-.162a.486.486 0 0 0 .143-.178.488.488 0 0 0 .025-.372.389.389 0 0 0-.08-.128ZM437.337 281.634v.51h-1.077v3.059h-.56v-3.059h-1.076v-.51h2.713ZM441.299 284.458a.921.921 0 0 0 .282-.682v-2.142h.564v2.142a1.407 1.407 0 0 1-.44 1.045 1.54 1.54 0 0 1-2.139 0 1.405 1.405 0 0 1-.441-1.043v-2.144h.564v2.142a.935.935 0 0 0 .282.684.91.91 0 0 0 1.026.211.91.91 0 0 0 .302-.211v-.002ZM445.597 281.634c.239-.003.475.042.696.132.22.091.419.226.586.396a1.752 1.752 0 0 1 .535 1.256 1.741 1.741 0 0 1-.535 1.257 1.77 1.77 0 0 1-.586.396c-.221.09-.457.135-.696.132h-1.254v-3.569h1.254Zm-.692.51v2.549h.692c.166.003.33-.029.483-.092.152-.064.29-.159.404-.278a1.304 1.304 0 0 0 0-1.809 1.206 1.206 0 0 0-.887-.37h-.692ZM449.459 281.634h.564v3.569h-.563l-.001-3.569ZM452.611 282.117c.363-.355.812-.533 1.345-.533.533 0 .982.178 1.348.533a1.837 1.837 0 0 1 .403 2.006 1.84 1.84 0 0 1-1.751 1.13c-.536 0-.984-.178-1.345-.533a1.843 1.843 0 0 1-.545-1.302 1.838 1.838 0 0 1 .545-1.301Zm.404 2.243a1.346 1.346 0 0 0 2.243-.543 1.335 1.335 0 0 0-.646-1.575 1.343 1.343 0 0 0-1.676.326c-.198.24-.307.54-.307.85a1.278 1.278 0 0 0 .386.942Z"/></g><g clip-path="url(#b)"><path fill="#F7CD97" d="M317 281.2h46v12h-46z"/><path fill="#D7244F" d="m322.064 284.761.139-.027c-.208 1.273-.411 2.884-.392 3.392.01.265.215.455.489.455a.604.604 0 0 0 .249-.056c1.241-.567 2.009-.749 3.282-1.051a.427.427 0 0 0 .353-.487.483.483 0 0 0-.48-.423.581.581 0 0 0-.132.016c-1.089.258-1.819.443-2.725.804.02-.199.046-.428.078-.682l.493-.191c.848-.329 1.407-.547 2.413-.804a.434.434 0 0 0 .349-.497.478.478 0 0 0-.612-.396c-1.018.262-1.582.481-2.437.814l-.064.024c.074-.497.149-.975.217-1.349.719-.293 1.382-.446 2.431-.64.245-.045.387-.224.363-.454a.506.506 0 0 0-.612-.441c-.827.153-1.468.291-2.1.507a.374.374 0 0 0-.057-.069.54.54 0 0 0-.376-.143c-.182 0-.401.088-.466.335a4.215 4.215 0 0 1-.034.114v.005c-.025.084-.056.188-.074.265-.128.035-.593.111-1.043.184l-.023.004c-.528.085-1.127.181-1.509.263.011-.273.022-.513.033-.734.006-.133.01-.27.013-.403v-.077c.44-.06.877-.124 1.403-.2l.013-.002c.574-.083 1.224-.178 1.856-.262a.395.395 0 0 0 .271-.168.467.467 0 0 0 .07-.375c-.058-.199-.235-.317-.472-.317a.62.62 0 0 0-.096.007c-.597.08-1.206.168-1.793.253l-.026.004-1.158.167c.02-.127.049-.253.087-.376a.384.384 0 0 0-.066-.37.497.497 0 0 0-.179-.134.555.555 0 0 0-.224-.047.468.468 0 0 0-.28.083.417.417 0 0 0-.163.229c-.073.242-.12.491-.14.743-.541.07-1.022.125-1.472.17-.274.027-.461.204-.461.44 0 .215.215.467.481.44.43-.041.889-.094 1.406-.16l-.008.21a76.76 76.76 0 0 0-.049 1.123c-.178.053-.34.105-.497.159a.515.515 0 0 0-.328.521c.021.18.15.303.348.33a.975.975 0 0 0 .345-.007c.026-.005.058-.011.094-.02l-.013.35c-.034.903-.068 1.836-.124 2.754a.381.381 0 0 0 .111.305.462.462 0 0 0 .155.097.502.502 0 0 0 .184.032c.233 0 .476-.145.493-.424.056-.925.091-1.862.124-2.769l.022-.578c.519-.125 1.675-.344 2.233-.449l.087-.017ZM343.607 286.448a.482.482 0 0 0-.48-.423.528.528 0 0 0-.131.016c-1.144.271-1.968.478-2.928.857.015-.196.037-.425.067-.683a12.297 12.297 0 0 1 2.582-.895.432.432 0 0 0 .347-.497.475.475 0 0 0-.471-.414.54.54 0 0 0-.139.018c-.919.236-1.261.372-1.88.619l-.299.119c.075-.498.158-1.008.238-1.44.314-.123.655-.209.977-.285.438-.103.71-.146 1.024-.197h.004c.161-.026.363-.057.62-.105.245-.044.387-.222.363-.454a.508.508 0 0 0-.611-.445c-.256.047-.505.086-.748.123-.485.076-.99.154-1.472.293a.411.411 0 0 0-.104-.157.546.546 0 0 0-.374-.142c-.183 0-.401.087-.466.334a7.47 7.47 0 0 0-.09.402 3.885 3.885 0 0 0-.573.408c-.149.129-.195.3-.124.469.039.09.105.168.189.224a.569.569 0 0 0 .289.093c-.212 1.276-.414 2.82-.347 3.342a.494.494 0 0 0 .493.448.605.605 0 0 0 .245-.055c1.231-.562 2.162-.783 3.45-1.089a.423.423 0 0 0 .349-.484ZM330.207 288.683c.054-.631.137-1.367.218-2.079v-.015c.056-.499.115-1.014.161-1.48.051-.508.107-1.058.178-1.626l.019-.157c.033-.274.067-.557.139-.826a.356.356 0 0 0-.072-.331.49.49 0 0 0-.173-.127.54.54 0 0 0-.214-.045.466.466 0 0 0-.224.054.431.431 0 0 0-.163.154c-.187.303-.352.614-.513.915a26.24 26.24 0 0 1-.331.606c-.212.374-.391.673-.57.939a6.66 6.66 0 0 1-.161.232c-.09-.231-.297-.792-.426-1.218-.085-.282-.183-.562-.277-.833l-.131-.379c-.004-.035-.01-.068-.016-.101l-.002-.004a1.105 1.105 0 0 0-.052-.123c-.07-.126-.221-.205-.394-.205a.534.534 0 0 0-.23.052.407.407 0 0 0-.131.101.355.355 0 0 0-.112.21 1.64 1.64 0 0 0-.051.367c-.004.057-.007.115-.014.162a16.147 16.147 0 0 0-.143 1.688 163.298 163.298 0 0 0-.107 3.803.364.364 0 0 0 .112.277.509.509 0 0 0 .339.124c.227 0 .459-.137.463-.398.011-.655.034-1.409.057-2.139.015-.502.028-.917.037-1.302l.011-.349c.201.518.44.9.75 1.197a.47.47 0 0 0 .321.116.447.447 0 0 0 .243-.067c.423-.284.71-.741.967-1.191l-.038.367c-.045.449-.101.952-.156 1.439l-.003.023c-.083.74-.169 1.505-.228 2.174a.335.335 0 0 0 .093.274.444.444 0 0 0 .323.121c.233 0 .479-.137.501-.4ZM331.663 288.221a51.95 51.95 0 0 0 .513-1.598c.491-.235.94-.446 1.371-.646.27.833.594 1.65.971 2.446.069.143.237.235.43.235a.524.524 0 0 0 .252-.061c.228-.124.301-.375.182-.624a18.5 18.5 0 0 1-.933-2.408c.245-.11.465-.21.672-.3.2-.088.296-.264.249-.458a.531.531 0 0 0-.733-.349l-.462.205c-.115-.405-.23-.839-.373-1.403a16.159 16.159 0 0 0-.159-.584 3.083 3.083 0 0 1-.064-.252l-.004-.021a.416.416 0 0 0-.029-.397.514.514 0 0 0-.189-.169.566.566 0 0 0-.253-.065.431.431 0 0 0-.243.073.6.6 0 0 0-.251.35l-.017-.005-.021.086c-.446 1.134-.803 2.307-1.148 3.444l-.081.264-.035.017a.524.524 0 0 0-.085.035c-.032.015-.062.032-.091.047-.028.016-.055.03-.084.044l-.086.042.004.007a.403.403 0 0 0-.149.193.377.377 0 0 0-.007.237c.035.13.123.243.245.314-.126.4-.235.734-.343 1.048a.388.388 0 0 0 .056.385.533.533 0 0 0 .425.19.49.49 0 0 0 .294-.086.444.444 0 0 0 .176-.236Zm.883-2.81c.118-.384.271-.88.442-1.393l.008.034c.056.222.118.474.187.721.028.102.058.203.086.302-.229.105-.465.213-.723.336Z"/><path fill="#D7244F" d="M338.374 286.908a.523.523 0 0 0-.24.06 5.452 5.452 0 0 1-1.066.428 2.12 2.12 0 0 1-.527.073l-.018-.002c-.024-.128.01-.31.038-.458.048-.256.104-.546.149-.839.261-1.683.4-3.034.454-4.382a.42.42 0 0 0-.122-.319.506.506 0 0 0-.358-.134c-.244 0-.498.153-.51.446-.068 1.745-.231 3.24-.512 4.703a9.91 9.91 0 0 1-.03.149l-.004.018c-.112.547-.255 1.228.324 1.591.169.105.374.156.622.156.226-.006.451-.035.67-.088.494-.107.957-.322 1.382-.54.201-.102.288-.284.232-.489a.51.51 0 0 0-.484-.373ZM355.375 287.2h-.037a.603.603 0 0 0-.627.599c-.007.286.18.603.606.621h.034a.605.605 0 0 0 .63-.599.595.595 0 0 0-.606-.621ZM350.429 283.804c-.136-.909-.731-1.687-1.553-2.032a2.333 2.333 0 0 0-.89-.182c-.576 0-1.078.224-1.413.629a2.027 2.027 0 0 0-.247.366.453.453 0 0 0 .025.475c.072.109.184.19.316.228a38.86 38.86 0 0 0-.016 2.11c.01.501.029 1.093.105 1.691l.013.102a2.888 2.888 0 0 1-.237.016.485.485 0 0 0-.5.497.463.463 0 0 0 .492.468h.013c.16-.003.319-.017.476-.041a.836.836 0 0 0 .085.128.571.571 0 0 0 .445.227.512.512 0 0 0 .501-.402.402.402 0 0 0-.017-.24 4.167 4.167 0 0 0 1.426-1.018c.779-.859 1.135-1.96.976-3.022Zm-2.699-1.223a.608.608 0 0 1 .228-.035h.058c.119.004.236.027.347.068.511.161.923.677 1.048 1.312.142.719-.137 1.604-.71 2.256a3.081 3.081 0 0 1-.933.718 17.09 17.09 0 0 1-.087-1.611c-.016-.92 0-1.831.049-2.709v.001ZM354.048 285.702a22.701 22.701 0 0 0-.288-1.965c-.091-.45-.196-.926-.378-1.379-.081-.205-.168-.4-.333-.541a.684.684 0 0 0-.44-.163.641.641 0 0 0-.245.049.602.602 0 0 0-.203.139.468.468 0 0 0-.127.228.435.435 0 0 0 .024.265c-.008.014-.014.029-.02.043-.187.463-.352.938-.514 1.396v.004c-.18.509-.343.969-.526 1.424a.397.397 0 0 0-.297.443.448.448 0 0 0 .046.148c-.085.194-.181.42-.256.64-.101.301-.219.745-.063 1.128a.536.536 0 0 0 .631.325.56.56 0 0 0 .193-.098.517.517 0 0 0 .137-.162.408.408 0 0 0 .053-.17.405.405 0 0 0-.027-.175c-.08-.195.02-.463.108-.699l.021-.055c.069-.188.152-.374.232-.554l.021-.05c.353-.069.722-.133 1.23-.213l.026.215c.096.822.195 1.671.407 2.491a.431.431 0 0 0 .167.256.486.486 0 0 0 .303.095.567.567 0 0 0 .436-.194.445.445 0 0 0 .088-.405c-.209-.808-.309-1.651-.406-2.466Zm-1.135-.854c-.283.044-.517.082-.734.119.11-.296.219-.603.321-.891l.011-.032.165-.464a14.043 14.043 0 0 1 .172.858l.012.075.013.083.007.043c.011.069.023.139.033.209ZM355.863 284.411l.018-.264v-.009c.012-.189.021-.301.027-.384v-.02c.012-.147.02-.236.031-.574 0-.033.003-.066.004-.099l.002-.052c.015-.335.03-.682-.064-1.004a.467.467 0 0 0-.183-.261.52.52 0 0 0-.317-.096.55.55 0 0 0-.43.19.408.408 0 0 0-.074.392.908.908 0 0 1 .028.147v.031l.006.142c.007.231 0 .46-.01.693a8.953 8.953 0 0 1-.037.614v.005c-.009.104-.019.233-.034.466l-.012.186c-.026.399-.045.689-.04 1.141v.088c0 .363 0 .971.495 1.044a.866.866 0 0 0 .125.009c.17 0 .299-.057.387-.168.138-.18.1-.443.055-.569a.566.566 0 0 1-.019-.091l-.002-.032v-.008c0-.016-.003-.032-.004-.039a5.96 5.96 0 0 1-.005-.131v-.01c-.002-.103 0-.21 0-.301.011-.413.029-.674.053-1.036ZM362.568 281.903a.446.446 0 0 0-.203.045.423.423 0 0 0-.155.129l-.017-.004-.037.105a29.807 29.807 0 0 1-.668 1.608l-.003.006c-.103.235-.189.432-.272.629a33.8 33.8 0 0 1-.693-.962c-.086-.122-.131-.178-.167-.224a2.13 2.13 0 0 1-.178-.256 6.472 6.472 0 0 1-.271-.47l-.01-.022a.677.677 0 0 1-.017-.048.39.39 0 0 0-.151-.205.438.438 0 0 0-.254-.075.498.498 0 0 0-.202.043.453.453 0 0 0-.161.122.35.35 0 0 0-.052.344v.004c.227.486.339.646.585.996l.112.159.002.002a34.8 34.8 0 0 0 1.088 1.487c-.391 1.018-.597 1.843-.648 2.597a.347.347 0 0 0 .1.28.428.428 0 0 0 .307.117c.209 0 .43-.131.446-.381.088-1.296.677-2.621 1.246-3.905l.004-.011c.19-.428.369-.832.532-1.238a.415.415 0 0 0 .064-.119c.015-.043.028-.086.042-.134.011-.039.023-.079.037-.119a.34.34 0 0 0-.047-.335.457.457 0 0 0-.359-.165ZM359.27 286.787a.536.536 0 0 0-.243.06 4.885 4.885 0 0 1-.978.393c-.148.04-.3.062-.454.066-.011-.108.016-.253.037-.373l.003-.012c.045-.237.096-.504.138-.771.233-1.508.373-2.873.423-4.173a.433.433 0 0 0-.125-.325.522.522 0 0 0-.363-.136c-.247 0-.502.155-.514.452-.052 1.318-.208 2.778-.477 4.463-.01.063-.023.131-.038.212-.095.496-.213 1.115.326 1.452a1.1 1.1 0 0 0 .6.152c.212-.006.423-.034.629-.083.461-.1.893-.301 1.291-.503.204-.105.292-.29.236-.497a.518.518 0 0 0-.491-.377Z"/><path fill="#D8254F" d="M362.999 289.862h-20.167v3.338h20.167v-3.338Z"/><path fill="#fff" d="M346.052 291.823a.458.458 0 0 0-.173-.105 2.434 2.434 0 0 0-.235-.07 2.323 2.323 0 0 1-.259-.075 1.355 1.355 0 0 1-.236-.107.494.494 0 0 1-.173-.179.546.546 0 0 1-.067-.279.53.53 0 0 1 .203-.415c.135-.111.318-.166.549-.166a1.007 1.007 0 0 1 .576.178c.031.02.059.044.085.07l.025.029-.228.215a.585.585 0 0 0-.291-.164.669.669 0 0 0-.167-.019.456.456 0 0 0-.285.082.25.25 0 0 0-.078.084.221.221 0 0 0-.029.108.226.226 0 0 0 .066.166.462.462 0 0 0 .174.105c.077.027.155.051.235.07.087.021.174.046.259.074.082.028.161.064.235.107a.479.479 0 0 1 .173.179c.047.086.07.182.067.278a.564.564 0 0 1-.217.463c-.145.12-.345.179-.6.179a1.204 1.204 0 0 1-.531-.118 1.344 1.344 0 0 1-.158-.098.764.764 0 0 1-.097-.082l-.032-.037.228-.214a.55.55 0 0 0 .09.086.736.736 0 0 0 .281.133.89.89 0 0 0 .218.026.529.529 0 0 0 .336-.097.315.315 0 0 0 .092-.107.284.284 0 0 0 .015-.223.216.216 0 0 0-.051-.077ZM349.159 290.46v.306h-.688v1.836h-.358v-1.836h-.687v-.306h1.733ZM351.691 292.155a.546.546 0 0 0 .18-.409v-1.286h.36v1.286a.805.805 0 0 1-.281.626c-.183.167-.428.26-.683.26-.256 0-.501-.093-.684-.26a.838.838 0 0 1-.21-.285.79.79 0 0 1-.071-.34v-1.287h.36v1.286a.548.548 0 0 0 .18.41.59.59 0 0 0 .424.171.6.6 0 0 0 .425-.171v-.001ZM354.437 290.46c.153-.002.304.025.445.08.14.054.268.135.374.237.108.098.194.215.253.344a.99.99 0 0 1 0 .82 1.062 1.062 0 0 1-.253.344 1.123 1.123 0 0 1-.374.237 1.181 1.181 0 0 1-.445.08h-.801v-2.142h.801Zm-.442.306v1.53h.442a.805.805 0 0 0 .567-.222.762.762 0 0 0 .233-.543.762.762 0 0 0-.492-.709.825.825 0 0 0-.308-.056h-.442ZM356.904 290.46h.36v2.142h-.359l-.001-2.142ZM358.918 290.75c.232-.213.519-.319.859-.319.341 0 .628.106.862.319.11.102.197.224.257.358a1.035 1.035 0 0 1 0 .846c-.06.134-.147.256-.257.358-.232.213-.519.32-.862.32a1.22 1.22 0 0 1-.859-.32 1.103 1.103 0 0 1-.257-.358 1.035 1.035 0 0 1 0-.846c.06-.134.147-.256.257-.358Zm.258 1.346c.14.133.324.216.522.236a.912.912 0 0 0 .563-.128.815.815 0 0 0 .348-.434.757.757 0 0 0-.025-.542.823.823 0 0 0-.387-.403.92.92 0 0 0-.573-.082.871.871 0 0 0-.498.278.77.77 0 0 0 .05 1.075Z"/></g><g clip-path="url(#c)"><path fill="#F7CD97" d="M484 281.2h46v12h-46z"/><path fill="#D7244F" d="m489.064 284.761.139-.027c-.208 1.273-.411 2.884-.392 3.392.01.265.215.455.489.455a.604.604 0 0 0 .249-.056c1.241-.567 2.009-.749 3.282-1.051a.427.427 0 0 0 .353-.487.483.483 0 0 0-.48-.423.581.581 0 0 0-.132.016c-1.089.258-1.819.443-2.725.804.02-.199.046-.428.078-.682l.493-.191c.848-.329 1.407-.547 2.413-.804a.434.434 0 0 0 .349-.497.478.478 0 0 0-.612-.396c-1.018.262-1.582.481-2.437.814l-.064.024c.074-.497.149-.975.217-1.349.719-.293 1.382-.446 2.431-.64.245-.045.387-.224.363-.454a.506.506 0 0 0-.612-.441c-.827.153-1.468.291-2.1.507a.374.374 0 0 0-.057-.069.54.54 0 0 0-.376-.143c-.182 0-.401.088-.466.335a4.215 4.215 0 0 1-.034.114v.005c-.025.084-.056.188-.074.265-.128.035-.593.111-1.043.184l-.023.004c-.528.085-1.127.181-1.509.263.011-.273.022-.513.033-.734.006-.133.01-.27.013-.403v-.077c.44-.06.877-.124 1.403-.2l.013-.002c.574-.083 1.224-.178 1.856-.262a.395.395 0 0 0 .271-.168.467.467 0 0 0 .07-.375c-.058-.199-.235-.317-.472-.317a.62.62 0 0 0-.096.007c-.597.08-1.206.168-1.793.253l-.026.004-1.158.167c.02-.127.049-.253.087-.376a.384.384 0 0 0-.066-.37.497.497 0 0 0-.179-.134.555.555 0 0 0-.224-.047.468.468 0 0 0-.28.083.417.417 0 0 0-.163.229c-.073.242-.12.491-.14.743-.541.07-1.022.125-1.472.17-.274.027-.461.204-.461.44 0 .215.215.467.481.44.43-.041.889-.094 1.406-.16l-.008.21a76.76 76.76 0 0 0-.049 1.123c-.178.053-.34.105-.497.159a.515.515 0 0 0-.328.521c.021.18.15.303.348.33a.975.975 0 0 0 .345-.007c.026-.005.058-.011.094-.02l-.013.35c-.034.903-.068 1.836-.124 2.754a.381.381 0 0 0 .111.305.462.462 0 0 0 .155.097.502.502 0 0 0 .184.032c.233 0 .476-.145.493-.424.056-.925.091-1.862.124-2.769l.022-.578c.519-.125 1.675-.344 2.233-.449l.087-.017ZM510.607 286.448a.482.482 0 0 0-.48-.423.528.528 0 0 0-.131.016c-1.144.271-1.968.478-2.928.857.015-.196.037-.425.067-.683a12.297 12.297 0 0 1 2.582-.895.432.432 0 0 0 .347-.497.475.475 0 0 0-.471-.414.54.54 0 0 0-.139.018c-.919.236-1.261.372-1.88.619l-.299.119c.075-.498.158-1.008.238-1.44.314-.123.655-.209.977-.285.438-.103.71-.146 1.024-.197h.004c.161-.026.363-.057.62-.105.245-.044.387-.222.363-.454a.508.508 0 0 0-.611-.445c-.256.047-.505.086-.748.123-.485.076-.99.154-1.472.293a.411.411 0 0 0-.104-.157.546.546 0 0 0-.374-.142c-.183 0-.401.087-.466.334a7.47 7.47 0 0 0-.09.402 3.885 3.885 0 0 0-.573.408c-.149.129-.195.3-.124.469.039.09.105.168.189.224a.569.569 0 0 0 .289.093c-.212 1.276-.414 2.82-.347 3.342a.494.494 0 0 0 .493.448.605.605 0 0 0 .245-.055c1.231-.562 2.162-.783 3.45-1.089a.423.423 0 0 0 .349-.484ZM497.207 288.683c.054-.631.137-1.367.218-2.079v-.015c.056-.499.115-1.014.161-1.48.051-.508.107-1.058.178-1.626l.019-.157c.033-.274.067-.557.139-.826a.356.356 0 0 0-.072-.331.49.49 0 0 0-.173-.127.54.54 0 0 0-.214-.045.466.466 0 0 0-.224.054.431.431 0 0 0-.163.154c-.187.303-.352.614-.513.915a26.24 26.24 0 0 1-.331.606c-.212.374-.391.673-.57.939a6.66 6.66 0 0 1-.161.232c-.09-.231-.297-.792-.426-1.218-.085-.282-.183-.562-.277-.833l-.131-.379c-.004-.035-.01-.068-.016-.101l-.002-.004a1.105 1.105 0 0 0-.052-.123c-.07-.126-.221-.205-.394-.205a.534.534 0 0 0-.23.052.407.407 0 0 0-.131.101.355.355 0 0 0-.112.21 1.64 1.64 0 0 0-.051.367c-.004.057-.007.115-.014.162a16.147 16.147 0 0 0-.143 1.688 163.298 163.298 0 0 0-.107 3.803.364.364 0 0 0 .112.277.509.509 0 0 0 .339.124c.227 0 .459-.137.463-.398.011-.655.034-1.409.057-2.139.015-.502.028-.917.037-1.302l.011-.349c.201.518.44.9.75 1.197a.47.47 0 0 0 .321.116.447.447 0 0 0 .243-.067c.423-.284.71-.741.967-1.191l-.038.367c-.045.449-.101.952-.156 1.439l-.003.023c-.083.74-.169 1.505-.228 2.174a.335.335 0 0 0 .093.274.444.444 0 0 0 .323.121c.233 0 .479-.137.501-.4ZM498.663 288.221a51.95 51.95 0 0 0 .513-1.598c.491-.235.94-.446 1.371-.646.27.833.594 1.65.971 2.446.069.143.237.235.43.235a.524.524 0 0 0 .252-.061c.228-.124.301-.375.182-.624a18.5 18.5 0 0 1-.933-2.408c.245-.11.465-.21.672-.3.2-.088.296-.264.249-.458a.531.531 0 0 0-.733-.349l-.462.205c-.115-.405-.23-.839-.373-1.403a16.159 16.159 0 0 0-.159-.584 3.083 3.083 0 0 1-.064-.252l-.004-.021a.416.416 0 0 0-.029-.397.514.514 0 0 0-.189-.169.566.566 0 0 0-.253-.065.431.431 0 0 0-.243.073.6.6 0 0 0-.251.35l-.017-.005-.021.086c-.446 1.134-.803 2.307-1.148 3.444l-.081.264-.035.017a.524.524 0 0 0-.085.035c-.032.015-.062.032-.091.047-.028.016-.055.03-.084.044l-.086.042.004.007a.403.403 0 0 0-.149.193.377.377 0 0 0-.007.237c.035.13.123.243.245.314-.126.4-.235.734-.343 1.048a.388.388 0 0 0 .056.385.533.533 0 0 0 .425.19.49.49 0 0 0 .294-.086.444.444 0 0 0 .176-.236Zm.883-2.81c.118-.384.271-.88.442-1.393l.008.034c.056.222.118.474.187.721.028.102.058.203.086.302-.229.105-.465.213-.723.336Z"/><path fill="#D7244F" d="M505.374 286.908a.523.523 0 0 0-.24.06 5.452 5.452 0 0 1-1.066.428 2.12 2.12 0 0 1-.527.073l-.018-.002c-.024-.128.01-.31.038-.458.048-.256.104-.546.149-.839.261-1.683.4-3.034.454-4.382a.42.42 0 0 0-.122-.319.506.506 0 0 0-.358-.134c-.244 0-.498.153-.51.446-.068 1.745-.231 3.24-.512 4.703a9.91 9.91 0 0 1-.03.149l-.004.018c-.112.547-.255 1.228.324 1.591.169.105.374.156.622.156.226-.006.451-.035.67-.088.494-.107.957-.322 1.382-.54.201-.102.288-.284.232-.489a.51.51 0 0 0-.484-.373ZM522.375 287.2h-.037a.603.603 0 0 0-.627.599c-.007.286.18.603.606.621h.034a.605.605 0 0 0 .63-.599.595.595 0 0 0-.606-.621ZM517.429 283.804c-.136-.909-.731-1.687-1.553-2.032a2.333 2.333 0 0 0-.89-.182c-.576 0-1.078.224-1.413.629a2.027 2.027 0 0 0-.247.366.453.453 0 0 0 .025.475c.072.109.184.19.316.228a38.86 38.86 0 0 0-.016 2.11c.01.501.029 1.093.105 1.691l.013.102a2.888 2.888 0 0 1-.237.016.485.485 0 0 0-.5.497.463.463 0 0 0 .492.468h.013c.16-.003.319-.017.476-.041a.836.836 0 0 0 .085.128.571.571 0 0 0 .445.227.512.512 0 0 0 .501-.402.402.402 0 0 0-.017-.24 4.167 4.167 0 0 0 1.426-1.018c.779-.859 1.135-1.96.976-3.022Zm-2.699-1.223a.608.608 0 0 1 .228-.035h.058c.119.004.236.027.347.068.511.161.923.677 1.048 1.312.142.719-.137 1.604-.71 2.256a3.081 3.081 0 0 1-.933.718 17.09 17.09 0 0 1-.087-1.611c-.016-.92 0-1.831.049-2.709v.001ZM521.048 285.702a22.701 22.701 0 0 0-.288-1.965c-.091-.45-.196-.926-.378-1.379-.081-.205-.168-.4-.333-.541a.684.684 0 0 0-.44-.163.641.641 0 0 0-.245.049.602.602 0 0 0-.203.139.468.468 0 0 0-.127.228.435.435 0 0 0 .024.265c-.008.014-.014.029-.02.043-.187.463-.352.938-.514 1.396v.004c-.18.509-.343.969-.526 1.424a.397.397 0 0 0-.297.443.448.448 0 0 0 .046.148c-.085.194-.181.42-.256.64-.101.301-.219.745-.063 1.128a.536.536 0 0 0 .631.325.56.56 0 0 0 .193-.098.517.517 0 0 0 .137-.162.408.408 0 0 0 .053-.17.405.405 0 0 0-.027-.175c-.08-.195.02-.463.108-.699l.021-.055c.069-.188.152-.374.232-.554l.021-.05c.353-.069.722-.133 1.23-.213l.026.215c.096.822.195 1.671.407 2.491a.431.431 0 0 0 .167.256.486.486 0 0 0 .303.095.567.567 0 0 0 .436-.194.445.445 0 0 0 .088-.405c-.209-.808-.309-1.651-.406-2.466Zm-1.135-.854c-.283.044-.517.082-.734.119.11-.296.219-.603.321-.891l.011-.032.165-.464a14.043 14.043 0 0 1 .172.858l.012.075.013.083.007.043c.011.069.023.139.033.209ZM522.863 284.411l.018-.264v-.009c.012-.189.021-.301.027-.384v-.02c.012-.147.02-.236.031-.574 0-.033.003-.066.004-.099l.002-.052c.015-.335.03-.682-.064-1.004a.467.467 0 0 0-.183-.261.52.52 0 0 0-.317-.096.55.55 0 0 0-.43.19.408.408 0 0 0-.074.392.908.908 0 0 1 .028.147v.031l.006.142c.007.231 0 .46-.01.693a8.953 8.953 0 0 1-.037.614v.005c-.009.104-.019.233-.034.466l-.012.186c-.026.399-.045.689-.04 1.141v.088c0 .363 0 .971.495 1.044a.866.866 0 0 0 .125.009c.17 0 .299-.057.387-.168.138-.18.1-.443.055-.569a.566.566 0 0 1-.019-.091l-.002-.032v-.008c0-.016-.003-.032-.004-.039a5.96 5.96 0 0 1-.005-.131v-.01c-.002-.103 0-.21 0-.301.011-.413.029-.674.053-1.036ZM529.568 281.903a.446.446 0 0 0-.203.045.423.423 0 0 0-.155.129l-.017-.004-.037.105a29.807 29.807 0 0 1-.668 1.608l-.003.006c-.103.235-.189.432-.272.629a33.8 33.8 0 0 1-.693-.962c-.086-.122-.131-.178-.167-.224a2.13 2.13 0 0 1-.178-.256 6.472 6.472 0 0 1-.271-.47l-.01-.022a.677.677 0 0 1-.017-.048.39.39 0 0 0-.151-.205.438.438 0 0 0-.254-.075.498.498 0 0 0-.202.043.453.453 0 0 0-.161.122.35.35 0 0 0-.052.344v.004c.227.486.339.646.585.996l.112.159.002.002a34.8 34.8 0 0 0 1.088 1.487c-.391 1.018-.597 1.843-.648 2.597a.347.347 0 0 0 .1.28.428.428 0 0 0 .307.117c.209 0 .43-.131.446-.381.088-1.296.677-2.621 1.246-3.905l.004-.011c.19-.428.369-.832.532-1.238a.415.415 0 0 0 .064-.119c.015-.043.028-.086.042-.134.011-.039.023-.079.037-.119a.34.34 0 0 0-.047-.335.457.457 0 0 0-.359-.165ZM526.27 286.787a.536.536 0 0 0-.243.06 4.885 4.885 0 0 1-.978.393c-.148.04-.3.062-.454.066-.011-.108.016-.253.037-.373l.003-.012c.045-.237.096-.504.138-.771.233-1.508.373-2.873.423-4.173a.433.433 0 0 0-.125-.325.522.522 0 0 0-.363-.136c-.247 0-.502.155-.514.452-.052 1.318-.208 2.778-.477 4.463-.01.063-.023.131-.038.212-.095.496-.213 1.115.326 1.452a1.1 1.1 0 0 0 .6.152c.212-.006.423-.034.629-.083.461-.1.893-.301 1.291-.503.204-.105.292-.29.236-.497a.518.518 0 0 0-.491-.377Z"/><path fill="#D8254F" d="M529.999 289.862h-20.167v3.338h20.167v-3.338Z"/><path fill="#fff" d="M513.052 291.823a.458.458 0 0 0-.173-.105 2.434 2.434 0 0 0-.235-.07 2.323 2.323 0 0 1-.259-.075 1.355 1.355 0 0 1-.236-.107.494.494 0 0 1-.173-.179.546.546 0 0 1-.067-.279.53.53 0 0 1 .203-.415c.135-.111.318-.166.549-.166a1.007 1.007 0 0 1 .576.178c.031.02.059.044.085.07l.025.029-.228.215a.585.585 0 0 0-.291-.164.669.669 0 0 0-.167-.019.456.456 0 0 0-.285.082.25.25 0 0 0-.078.084.221.221 0 0 0-.029.108.226.226 0 0 0 .066.166.462.462 0 0 0 .174.105c.077.027.155.051.235.07.087.021.174.046.259.074.082.028.161.064.235.107a.479.479 0 0 1 .173.179c.047.086.07.182.067.278a.564.564 0 0 1-.217.463c-.145.12-.345.179-.6.179a1.204 1.204 0 0 1-.531-.118 1.344 1.344 0 0 1-.158-.098.764.764 0 0 1-.097-.082l-.032-.037.228-.214a.55.55 0 0 0 .09.086.736.736 0 0 0 .281.133.89.89 0 0 0 .218.026.529.529 0 0 0 .336-.097.315.315 0 0 0 .092-.107.284.284 0 0 0 .015-.223.216.216 0 0 0-.051-.077ZM516.159 290.46v.306h-.688v1.836h-.358v-1.836h-.687v-.306h1.733ZM518.691 292.155a.546.546 0 0 0 .18-.409v-1.286h.36v1.286a.805.805 0 0 1-.281.626c-.183.167-.428.26-.683.26-.256 0-.501-.093-.684-.26a.838.838 0 0 1-.21-.285.79.79 0 0 1-.071-.34v-1.287h.36v1.286a.548.548 0 0 0 .18.41.59.59 0 0 0 .424.171.6.6 0 0 0 .425-.171v-.001ZM521.437 290.46c.153-.002.304.025.445.08.14.054.268.135.374.237.108.098.194.215.253.344a.99.99 0 0 1 0 .82 1.062 1.062 0 0 1-.253.344 1.123 1.123 0 0 1-.374.237 1.181 1.181 0 0 1-.445.08h-.801v-2.142h.801Zm-.442.306v1.53h.442a.805.805 0 0 0 .567-.222.762.762 0 0 0 .233-.543.762.762 0 0 0-.492-.709.825.825 0 0 0-.308-.056h-.442ZM523.904 290.46h.36v2.142h-.359l-.001-2.142ZM525.918 290.75c.232-.213.519-.319.859-.319.341 0 .628.106.862.319.11.102.197.224.257.358a1.035 1.035 0 0 1 0 .846c-.06.134-.147.256-.257.358-.232.213-.519.32-.862.32a1.22 1.22 0 0 1-.859-.32 1.103 1.103 0 0 1-.257-.358 1.035 1.035 0 0 1 0-.846c.06-.134.147-.256.257-.358Zm.258 1.346c.14.133.324.216.522.236a.912.912 0 0 0 .563-.128.815.815 0 0 0 .348-.434.757.757 0 0 0-.025-.542.823.823 0 0 0-.387-.403.92.92 0 0 0-.573-.082.871.871 0 0 0-.498.278.77.77 0 0 0 .05 1.075Z"/></g><path fill="#F1D9DF" d="M1059.59 281.818c46.17 0 83.6-2.115 83.6-4.723 0-2.609-37.43-4.724-83.6-4.724-46.16 0-83.59 2.115-83.59 4.724 0 2.608 37.43 4.723 83.59 4.723Z"/><path fill="#971937" d="m1123.95 278.336-121.46-.647c-17.947-20.743-19.837-48.113 4.24-71.609 3.02-2.955 8.83-5.047 15.06-6.505 8.13-1.726 16.38-2.84 24.67-3.333a91.55 91.55 0 0 0 11.07-10.541c12.86-15.479 23.76-14.116 23.76-14.116 13.08-2.497 24.23-3.212 32.47 1.349 7.64 4.292 12.8 13.172 14.69 29.462.37 3.077.61 6.428.71 10.054.44 13.212 3.01 24.981 4.52 34.941 2.2 14.494 2.19 25.129-9.73 30.945Z"/><path fill="#83182F" d="M1109.66 191.531c-7.93 4.292-11.3 16.573-23.71 20.244-12.42 3.671-33.48 3.239-45.48 16.195-11.57 12.47-24.17-19.38-18.68-28.341a166.202 166.202 0 0 1 24.67-3.334 91.464 91.464 0 0 0 11.07-10.54c12.86-15.479 23.76-14.116 23.76-14.116 13.08-2.497 24.23-3.212 32.47 1.349 4.19 4.602 3.85 14.252-4.1 18.543Z"/><path fill="#3F3F3F" d="M1053.96 195.351s-62.077-3.374-59.377 19.461c2.699 22.835 7.827 52.768 7.827 52.768s10.43.257 11.67-5.223c1.25-5.479-9.31-42.592 32.39-48.868 41.71-6.275 7.49-18.138 7.49-18.138Z"/><path fill="#F2AA91" d="M1004.96 264.301s2.7 7.26 2.14 9.96c-.57 2.699.35 7.908-.75 10.243-1.09 2.335-3.07 5.736-1.18 6.586.71.337 9.05-6.141 9.54-8.098.48-1.957.85-7.544 2.44-10.607a4.53 4.53 0 0 0 .68-1.845c.09-.657.04-1.326-.16-1.96a4.401 4.401 0 0 0-.97-1.709 4.502 4.502 0 0 0-1.6-1.14c-2.31-1.12-5.52-7.274-5.52-7.274l-4.62 5.844ZM996.862 276.258s-2.604 7.301-4.791 8.988c-2.186 1.687-4.831 6.276-7.179 7.342-2.349 1.066-6.046 2.402-5.156 4.278.338.702 10.891 1.147 12.484 0 1.592-1.147 5.52-5.223 8.7-6.532a4.488 4.488 0 0 0 1.71-.97c.49-.444.88-.99 1.13-1.6a4.56 4.56 0 0 0 .36-1.929 4.648 4.648 0 0 0-.5-1.898c-1.04-2.348.49-9.136.49-9.136l-7.248 1.457ZM1058.5 163.245s-3.89 20.958-24.59 31.283l3.06 1.876s18.68.243 33.74-23.955l-12.21-9.204Z"/><path fill="#1E1C1F" d="M1074.83 155.485c-.97-1.121 14.36-5.696 17.54 6.882 0 0 28.22-7.409 10.92-20.027-5.99-4.359-6.58-9.002-7.43-13.253-.85-4.251-6.81-16.479-17.17-10.446-2.79.044-5.51.954-7.76 2.605-6.86 5.897-14.43 43.51 3.9 34.239Z"/><path fill="#DB284E" d="M1097.54 153.204a51.36 51.36 0 0 0-26.72-2.956c-1.64.135-3.23.666-4.62 1.547-1.4.882-2.55 2.087-3.38 3.514-3.11 5.074-4.55 7.8-4.55 7.8s.28 2.362 4.49 4.252c-1.16 4.21 1.02 11.565-1.01 14.413-2.02 2.848-14.61 9.906-15.25 13.833-1.16 7.234 21.41 20.419 28.15 19.029 19.4-3.941 32.72-55.859 22.89-61.432Z"/><path fill="#1E1C1F" d="M1090.92 138.277a27.666 27.666 0 0 0 2.69-8.313c.23-2.699-2.01-12.322-11.7-10.014-1.97.444-3.81 1.33-5.39 2.591-2 1.633-4.8 5.021-.58 13.226l1.16 2.794 13.82-.284Z"/><path fill="#F2AA91" d="M1095.8 176.686s4.24 13.914-12.4 14.845l-3.93 3.86s17.07 9.366 25.98-3.657c7.1-10.392 1.77-22.943 1.77-22.943l-11.42 7.895ZM1037.96 196.35c-.59.41-1.13.886-1.61 1.417a6.5 6.5 0 0 1-3.64 1.66c-1.09.18-2.21.211-3.31.094a.227.227 0 0 1-.17 0c-.15-.108 0-.324.1-.445a2.865 2.865 0 0 1 2.06-.648c-.62 0-1.23-.284-1.87-.311-1.08.181-2.15.42-3.21.716a6.254 6.254 0 0 1-4.83-1.08c-.47-.351-.2-.418.22-.661.41-.243.82-.459 1.24-.675a19.902 19.902 0 0 1 5.23-1.66c1.23-.296 2.47-.472 3.73-.526.62 0 2.02-.081 2.7 0 .67.081.36.931.89 1.255.52.324 1.96.553 2.47.864Z"/><path fill="#DB284E" d="M1096.05 152.65c.36 0 4.81 1.485 7.98 7.814 3.18 6.33 4.27 9.259 4.27 9.259s-13.97 10.796-19.5 6.747c-5.54-4.048 2.14-23.968 7.25-23.82Z"/><path fill="#F2AA91" d="M1083.37 191.478a16.07 16.07 0 0 1-3.92-1.822c-.96-.851-6.58-1.552-6.58-.986 0 .567 3.27 1.35 3.63 1.917.37.567 2.34 2.901 4.05 2.901 1.72 0 2.82-2.01 2.82-2.01Z"/><path fill="#000" d="m1074.5 181.099 4.74 15.17-11.19-1.431-4.48-14.818 10.93 1.079Z"/><path fill="#424242" d="m1079 195.499.45-.89-4.5-14.589-.44 1.079 4.49 14.4Z"/><path fill="#424242" d="m1074.95 180.02-10.04-.783-1.34.783 10.93 1.079.45-1.079Z"/><path fill="#F2AA91" d="M1079.45 195.338c-1.81.042-3.61-.03-5.4-.216-1.1-.257-3.88-3.725-3.13-4.589.47-.54 3.06.445 4.3.445 1.24 0 4.47-1.781 6.65 1.89.22.418-2.42 2.47-2.42 2.47ZM1070.16 129.073s-1.58 13.347 1.78 18.206c3.36 4.858 7.38-.391 7.38-.391l-.43 5.816a11.053 11.053 0 0 0 9.62-.283s-4.33-2.699-3.07-12.146c0 0 4.53-2.821 1.05-6.303-3.48-3.482-2.7 2.024-2.7 2.024s-2.74-17.504-13.63-6.923Z"/><path fill="#000" d="M1062.76 167.793h-.16a.422.422 0 0 1-.2-.218.428.428 0 0 1 .01-.295l2.42-5.52a.382.382 0 0 1 .22-.202.383.383 0 0 1 .5.214c.04.096.04.203-.01.298l-2.42 5.52a.455.455 0 0 1-.15.155.364.364 0 0 1-.21.048Z" opacity=".1"/><g opacity=".1"><path fill="#4EA785" d="m1096.92 176.281-1.14.405-4.78-11.674" opacity=".1"/><path fill="#000" d="m1095.56 177.24-4.93-12.012a.44.44 0 0 1 .01-.299.385.385 0 0 1 .51-.212c.05.02.09.049.13.086a.54.54 0 0 1 .08.129l4.63 11.336.8-.283c.1-.031.2-.023.3.022.09.045.16.124.2.221.01.047.02.098.02.149-.01.05-.02.1-.04.145-.02.045-.06.086-.09.118a.408.408 0 0 1-.14.073l-1.48.527Z" opacity=".1"/></g><path fill="#6C6D6D" d="M1049.5 199.656s-36.75-6.964-43.62 29.988c-6.869 36.951-11.296 48.814-11.296 48.814s3.198 3.482 9.626.202c6.42-3.279 26.99-48.287 29.77-54.914 2.78-6.626 35.09 10.149 43.67-10.041l-28.15-14.049Z"/><path fill="#971937" d="M1099.72 203.705s-4.46 3.549-20.81 4.049c-16.36.499-37.79 18.475-37.95 23.577-.17 5.101 32.88 12.969 33.4 12.24.51-.728 21.06-18.273 21.06-18.273l4.3-21.593Z"/><defs><clipPath id="a"><path fill="#fff" d="M387 266.2h72v20h-72z"/></clipPath><clipPath id="b"><path fill="#fff" d="M317 281.2h46v12h-46z"/></clipPath><clipPath id="c"><path fill="#fff" d="M484 281.2h46v12h-46z"/></clipPath></defs></svg>