<svg xmlns="http://www.w3.org/2000/svg" width="1440" height="310" fill="none"><path fill="#FBE9ED" d="M1440 0H0v310h1440V0Z"/><path stroke="#fff" stroke-miterlimit="10" stroke-width="82.31" d="M1440 186.81c-103.17 0-186.81-83.64-186.81-186.81" opacity=".5"/><path fill="#EB92A7" d="M0 76.08v1.41l1-.14a14.003 14.003 0 0 1-1-1.27Z"/><path fill="#EB92A7" d="M0 84.76h115.25a354.31 354.31 0 0 0-36.63-6.83 12.48 12.48 0 0 0 2.91-8C81.53 62.8 75.45 57 68 57c0-14.27-12.2-25.85-27.19-25.85-12.87 0-23.64 8.54-26.43 20h-.72A16.9 16.9 0 0 0 0 57.9v26.86Z"/><path fill="#F3BDCA" d="M1188.8 310a702.376 702.376 0 0 1 86.37-22.33 32.142 32.142 0 0 1-3.74-15c0-18.49 15.69-33.49 35-33.49 2.69-.001 5.38.298 8 .89 3.34-30 29.86-53.29 62.09-53.29 26.73 0 49.53 16 58.44 38.62 1.65-.426 3.32-.76 5-1V310H1188.8Z"/><path fill="#EB92A7" d="M764.04 110.96c11.488 0 20.8-8.274 20.8-18.48 0-10.206-9.312-18.48-20.8-18.48-11.487 0-20.8 8.274-20.8 18.48 0 10.206 9.313 18.48 20.8 18.48Z"/><path fill="#EB92A7" d="M784.839 110.95c5.744 0 10.401-4.137 10.401-9.24 0-5.103-4.657-9.24-10.401-9.24-5.743 0-10.4 4.137-10.4 9.24 0 5.103 4.657 9.24 10.4 9.24ZM743.229 110.95c7.058 0 12.78-5.082 12.78-11.35s-5.722-11.35-12.78-11.35c-7.058 0-12.78 5.082-12.78 11.35s5.722 11.35 12.78 11.35Z"/><path fill="#EB92A7" d="M821.08 112.4H707s45.28-16.58 114.08 0Z"/><path fill="#F3BDCA" d="M229.45 310s-34.6-17.15-96.22-28a43.903 43.903 0 0 0 5.7-21.68c0-25.11-21.11-45.46-47.16-45.46A48.689 48.689 0 0 0 79 216.54c-9.76-24.94-34.74-42.67-64-42.67a70.567 70.567 0 0 0-15 1.61V310h229.45ZM549.169 134.84c11.449 0 20.73-9.026 20.73-20.16s-9.281-20.16-20.73-20.16c-11.448 0-20.73 9.026-20.73 20.16s9.282 20.16 20.73 20.16Z"/><path fill="#F3BDCA" d="M528.44 134.85c5.727 0 10.37-4.513 10.37-10.08s-4.643-10.08-10.37-10.08c-5.727 0-10.37 4.513-10.37 10.08s4.643 10.08 10.37 10.08ZM569.9 134.85c7.031 0 12.73-5.543 12.73-12.38 0-6.837-5.699-12.38-12.73-12.38-7.031 0-12.73 5.543-12.73 12.38 0 6.837 5.699 12.38 12.73 12.38Z"/><path fill="#F3BDCA" d="M596.74 137.73H493.66c62.18-22.2 103.08 0 103.08 0ZM255.471 191.18c9.576 0 17.34-7.553 17.34-16.87s-7.764-16.87-17.34-16.87c-9.577 0-17.34 7.553-17.34 16.87s7.763 16.87 17.34 16.87Z"/><path fill="#F3BDCA" d="M238.131 191.17c4.788 0 8.67-3.774 8.67-8.43s-3.882-8.43-8.67-8.43-8.67 3.774-8.67 8.43 3.882 8.43 8.67 8.43ZM272.81 191.18c5.882 0 10.65-4.638 10.65-10.36 0-5.722-4.768-10.36-10.65-10.36-5.882 0-10.65 4.638-10.65 10.36 0 5.722 4.768 10.36 10.65 10.36Z"/><path fill="#F3BDCA" d="M295.26 193.59H209c52-18.59 86.26 0 86.26 0ZM658.099 250.6c10.107 0 18.3-7.969 18.3-17.8s-8.193-17.8-18.3-17.8c-10.107 0-18.3 7.969-18.3 17.8s8.193 17.8 18.3 17.8Z"/><path fill="#F3BDCA" d="M636.92 250.6c5.059 0 9.16-3.985 9.16-8.9 0-4.916-4.101-8.9-9.16-8.9s-9.16 3.984-9.16 8.9c0 4.915 4.101 8.9 9.16 8.9ZM676.41 250.6c6.208 0 11.24-4.893 11.24-10.93 0-6.036-5.032-10.93-11.24-10.93s-11.24 4.894-11.24 10.93c0 6.037 5.032 10.93 11.24 10.93Z"/><path fill="#F3BDCA" d="M707.21 253.15H606c61.05-21.81 101.21 0 101.21 0Z"/><path fill="#DB284E" d="M545.931 56.59a45.077 45.077 0 0 0 3.554 67.02 45.081 45.081 0 0 0 22.956 9.66l5.57 12.3 5.56-12.35a45.115 45.115 0 0 0 33.998-23.379 45.106 45.106 0 0 0-12.817-57.57 45.114 45.114 0 0 0-58.821 4.319Z"/><path fill="#C22046" d="M562.61 46.06a45.082 45.082 0 0 1 48.772 39.473 45.08 45.08 0 0 1-37.922 49.987l4.55 10 5.56-12.35a45.079 45.079 0 0 0 38.562-36.5 45.09 45.09 0 0 0-59.562-50.66l.04.05Z"/><path fill="#fff" d="M546.18 96.6c1.94-1.61 3.47-2.92 4.59-3.95a18.79 18.79 0 0 0 2.83-3.24 5.852 5.852 0 0 0 1.16-3.29 2.937 2.937 0 0 0-.56-1.9 2.36 2.36 0 0 0-3.46.16 3.857 3.857 0 0 0-.64 2.39h-4.9a8.363 8.363 0 0 1 1.09-4.22 6.276 6.276 0 0 1 2.7-2.49 8.557 8.557 0 0 1 3.72-.8 7.179 7.179 0 0 1 5.29 1.81 6.403 6.403 0 0 1 1.8 4.72 9.275 9.275 0 0 1-2.17 5.89 31.963 31.963 0 0 1-5.52 5.3h8v4.13h-14.9v-3.77l.97-.74ZM562.51 97.55v-4.1L571.89 80h5.67v13.15H580v4.4h-2.43v3.85h-5.08v-3.85h-9.98Zm10.33-11.94-5 7.54h5v-7.54ZM593.61 76.13l-6.83 29a2.38 2.38 0 0 1-3.356 1.6 2.4 2.4 0 0 1-1.288-1.626 2.403 2.403 0 0 1 .004-1.064L589 75a2.382 2.382 0 0 1 2.32-1.84 2.39 2.39 0 0 1 2.29 2.97ZM609.77 83.54l-7.45 17.86h-5.2l7.54-17.3h-9.23v-4.34h14.34v3.78Z"/><path fill="#EB92A7" d="M443.311 305.38c39.4 0 71.34-30.203 71.34-67.46 0-37.257-31.94-67.46-71.34-67.46-39.4 0-71.34 30.203-71.34 67.46 0 37.257 31.94 67.46 71.34 67.46Z"/><path fill="#EB92A7" d="M514.65 305.38c19.7 0 35.67-15.102 35.67-33.73 0-18.629-15.97-33.73-35.67-33.73-19.7 0-35.67 15.101-35.67 33.73 0 18.628 15.97 33.73 35.67 33.73ZM359.361 308.83c29.436 0 53.3-22.57 53.3-50.41 0-27.841-23.864-50.41-53.3-50.41-29.437 0-53.3 22.569-53.3 50.41 0 27.84 23.863 50.41 53.3 50.41Z"/><path fill="#EB92A7" d="M645.49 310H271.1s148.62-78.44 374.39 0Z"/><path fill="#F2AA91" d="M558 180.61a1.265 1.265 0 0 1-.18-1.54c1-1.57 3.15-4.91 5.14-6.19 1.99-1.28 19.85-7.47 17.11-2.9-1.32 2.21-4.62 3.51-5.5 4.74a1.67 1.67 0 0 0-.198 1.572 1.682 1.682 0 0 0 1.198 1.038c5.72 1.39 22.13 5 31 4.89a1.252 1.252 0 0 1 1.2.8c.76 2 1.24 4.63-6.48 5.65-9.63 1.28-21.64-.57-27.79 2.28-4.5 2.05-13.11-7.9-15.5-10.34Z"/><path fill="#DB284E" d="M490.999 186.37c7.17 17.42 27 48.39 63.86-9.89l22.14 16.52s-29.71 95.47-76.93 64l-10.71-70.19a.88.88 0 0 1 1.64-.44Z"/><path fill="#727272" d="M505.109 260.08s2-31.26-9.21-61.07a29.99 29.99 0 0 1-5.2-8.94l6.44 65.81 4.09 2.43 3.88 1.77Z" opacity=".1"/><path fill="#221F20" d="M495 97.25s13-23.66-40.1-23.54c-53.1.12-55.8 24.08-120.85 33-44.83 6.15-41.42 38.88-35 58.63a48.68 48.68 0 0 0 11.7 18.72c4.65 4.78 11.66 16 18 42.16 10.62 44.07 51.78 28.06 74.34 6.86 22.56-21.2 38.5-93.61 72.35-95.24C509.29 136.21 495 97.25 495 97.25Z"/><path fill="#DB284E" d="M490.199 310s43.32-144.35-38.95-144.35c-115.77 0-76.17 144.35-76.17 144.35h26.78l-.69-6.56a95.082 95.082 0 0 1 3.6-37.6l.24-.77 4.13 44.93h81.06Z"/><path fill="#F2AA91" d="M485.73 100s5.09 41.55-5.54 56.54c-8.86 12.5-20.36 1.51-20.36 1.51l.93 10.8a28.374 28.374 0 0 1-27.35-.8s4.76-4.78 4.88-33.18c0 0-14.09-8.77-3.27-19.56s8.54 6.27 8.54 6.27 2.13-43.17 42.17-21.58Z"/><path fill="#F2AA91" d="M418.92 170.35s31.35-10.82 53.54-.71c0 0-8.81 18.77-53.54.71Z"/><path fill="#83182F" d="M440.671 131.63c-1.88 2.87-6.21-2.78-6.21-6.21a6.207 6.207 0 0 1 6.21-6.21s1.99 9.38 0 12.42Z"/><path stroke="#fff" stroke-linecap="round" stroke-miterlimit="10" stroke-width="1.77" d="m440.24 127.56 11.39 18.88s5.49 9.25 18.75 8.71"/><path fill="#83182F" d="M475.441 152.39h-6.47a2.657 2.657 0 0 0-2.66 2.655 2.657 2.657 0 0 0 2.66 2.655h6.47a2.658 2.658 0 0 0 2.66-2.655 2.658 2.658 0 0 0-2.66-2.655Z"/><path fill="#727272" d="m405.01 265.07 10.15-37.29-7.87 62.15-2.28-24.86Z" opacity=".1"/><path stroke="#231F20" stroke-linecap="round" stroke-miterlimit="10" d="m405.01 265.07 10.15-37.29M500.051 257s4.34-25.17 0-44.85" opacity=".5"/><path fill="#F3BDCA" d="M510.25 307.05c12.747 0 23.08-9.773 23.08-21.83 0-12.056-10.333-21.83-23.08-21.83-12.747 0-23.08 9.774-23.08 21.83 0 12.057 10.333 21.83 23.08 21.83Z"/><path fill="#F3BDCA" d="M487.171 307.06c6.373 0 11.54-4.889 11.54-10.92s-5.167-10.92-11.54-10.92c-6.373 0-11.54 4.889-11.54 10.92s5.167 10.92 11.54 10.92ZM533.34 307.05c7.831 0 14.18-6.004 14.18-13.41 0-7.406-6.349-13.41-14.18-13.41-7.831 0-14.18 6.004-14.18 13.41 0 7.406 6.349 13.41 14.18 13.41Z"/><path fill="#F3BDCA" d="M455.311 310h122s-48.43-25.56-122 0ZM354.85 307.8c9.538 0 17.27-7.311 17.27-16.33 0-9.019-7.732-16.33-17.27-16.33s-17.27 7.311-17.27 16.33c0 9.019 7.732 16.33 17.27 16.33Z"/><path fill="#F3BDCA" d="M337.579 307.79c4.766 0 8.63-3.654 8.63-8.16 0-4.507-3.864-8.16-8.63-8.16-4.766 0-8.63 3.653-8.63 8.16 0 4.506 3.864 8.16 8.63 8.16ZM372.12 307.79c5.859 0 10.61-4.491 10.61-10.03s-4.751-10.03-10.61-10.03c-5.86 0-10.61 4.491-10.61 10.03s4.75 10.03 10.61 10.03Z"/><path fill="#F3BDCA" d="M313.76 310H405s-36.21-19.12-91.24 0Z"/><path fill="#DCF7EC" d="M1075 48.1s-2.65 22.72 18.69 31.12l7.44-11.3-14.55-24L1075 48.1Z"/><path fill="#EB92A7" d="M1027.47 116.19c14.62 0 26.47-8.457 26.47-18.89 0-10.432-11.85-18.89-26.47-18.89S1001 86.868 1001 97.3c0 10.433 11.85 18.89 26.47 18.89Z"/><path fill="#EB92A7" d="m1038.65 108.93 3.23 11.09-11.32-8.26 8.09-2.83Z"/><path stroke="#fff" stroke-linecap="round" stroke-miterlimit="10" stroke-width="3.14" d="M1009.61 94.48h26.61M1014.21 102h26.86"/><path fill="#F3BDCA" d="M1086.68 111.48c24.56 0 44.48-14.21 44.48-31.74 0-17.53-19.92-31.74-44.48-31.74-24.57 0-44.48 14.21-44.48 31.74 0 17.53 19.91 31.74 44.48 31.74Z"/><path fill="#F3BDCA" d="m1067.9 99.28-5.43 18.65 19.02-13.9-13.59-4.75Z"/><path stroke="#fff" stroke-linecap="round" stroke-miterlimit="10" stroke-width="4" d="M1116.69 75h-60.02M1116.69 87.64h-45.15"/><path fill="#F3BDCA" d="M1170.24 206.3c5.48 0 9.92-4.32 9.92-9.65s-4.44-9.65-9.92-9.65c-5.48 0-9.92 4.32-9.92 9.65s4.44 9.65 9.92 9.65Z"/><path fill="#F3BDCA" d="M1158.76 206.29c2.74 0 4.96-2.158 4.96-4.82 0-2.662-2.22-4.82-4.96-4.82-2.74 0-4.96 2.158-4.96 4.82 0 2.662 2.22 4.82 4.96 4.82ZM1180.16 206.29c3.36 0 6.09-2.65 6.09-5.92 0-3.269-2.73-5.92-6.09-5.92s-6.09 2.651-6.09 5.92c0 3.27 2.73 5.92 6.09 5.92Z"/><path fill="#F3BDCA" d="M1196.85 207.68H1142c33.09-11.82 54.85 0 54.85 0Z"/><path fill="#000" d="m1009.85 194-20.09-22.26V194h-6.37v-48.79h6.37v22.61l20.16-22.61h8.05l-22.12 24.43 22.33 24.36h-8.33Zm44.28-10.85h-21.28l-3.92 10.85h-6.72l17.64-48.51h7.35l17.57 48.51h-6.72l-3.92-10.85Zm-1.82-5.18-8.82-24.64-8.82 24.64h17.64Zm69.64-32.41V194h-6.37v-36.12l-16.1 36.12H1095l-16.17-36.19V194h-6.37v-48.44h6.86l17.92 40.04 17.92-40.04h6.79Zm17.18-.35V194h-6.37v-48.79h6.37Z"/><path fill="#DB284E" d="M689.9 144.86V194h-11.97v-20.23h-18.62V194h-11.97v-49.14h11.97v19.25h18.62v-19.25h11.97Zm20.401 0v29.4c0 2.94.724 5.203 2.17 6.79 1.447 1.587 3.57 2.38 6.37 2.38 2.8 0 4.947-.793 6.44-2.38 1.494-1.587 2.24-3.85 2.24-6.79v-29.4h11.97v29.33c0 4.387-.933 8.097-2.8 11.13-1.866 3.033-4.386 5.32-7.56 6.86-3.126 1.54-6.626 2.31-10.5 2.31-3.873 0-7.35-.747-10.43-2.24-3.033-1.54-5.436-3.827-7.21-6.86-1.773-3.08-2.66-6.813-2.66-11.2v-29.33h11.97Zm67.346 23.94c2.846.607 5.133 2.03 6.86 4.27 1.726 2.193 2.59 4.713 2.59 7.56 0 4.107-1.447 7.373-4.34 9.8-2.847 2.38-6.837 3.57-11.97 3.57h-22.89v-49.14h22.12c4.993 0 8.89 1.143 11.69 3.43 2.846 2.287 4.27 5.39 4.27 9.31 0 2.893-.77 5.297-2.31 7.21-1.494 1.913-3.5 3.243-6.02 3.99Zm-17.78-4.06h7.84c1.96 0 3.453-.42 4.48-1.26 1.073-.887 1.61-2.17 1.61-3.85 0-1.68-.537-2.963-1.61-3.85-1.027-.887-2.52-1.33-4.48-1.33h-7.84v10.29Zm8.82 19.6c2.006 0 3.546-.443 4.62-1.33 1.12-.933 1.68-2.263 1.68-3.99 0-1.727-.584-3.08-1.75-4.06-1.12-.98-2.684-1.47-4.69-1.47h-8.68v10.85h8.82Zm37.112-39.48v29.4c0 2.94.724 5.203 2.17 6.79 1.447 1.587 3.57 2.38 6.37 2.38 2.8 0 4.947-.793 6.44-2.38 1.494-1.587 2.24-3.85 2.24-6.79v-29.4h11.97v29.33c0 4.387-.933 8.097-2.8 11.13-1.866 3.033-4.386 5.32-7.56 6.86-3.126 1.54-6.626 2.31-10.5 2.31-3.873 0-7.35-.747-10.43-2.24-3.033-1.54-5.436-3.827-7.21-6.86-1.773-3.08-2.66-6.813-2.66-11.2v-29.33h11.97ZM887.355 194h-11.97l-20.02-30.31V194h-11.97v-49.14h11.97l20.02 30.45v-30.45h11.97V194Zm41.296-33.6c-.886-1.633-2.17-2.87-3.85-3.71-1.633-.887-3.57-1.33-5.81-1.33-3.873 0-6.976 1.283-9.31 3.85-2.333 2.52-3.5 5.903-3.5 10.15 0 4.527 1.214 8.073 3.64 10.64 2.474 2.52 5.857 3.78 10.15 3.78 2.94 0 5.414-.747 7.42-2.24 2.054-1.493 3.547-3.64 4.48-6.44h-15.19v-8.82h26.04v11.13c-.886 2.987-2.403 5.763-4.55 8.33-2.1 2.567-4.783 4.643-8.05 6.23-3.266 1.587-6.953 2.38-11.06 2.38-4.853 0-9.193-1.05-13.02-3.15-3.78-2.147-6.743-5.11-8.89-8.89-2.1-3.78-3.15-8.097-3.15-12.95s1.05-9.17 3.15-12.95c2.147-3.827 5.11-6.79 8.89-8.89 3.78-2.147 8.097-3.22 12.95-3.22 5.88 0 10.827 1.423 14.84 4.27 4.06 2.847 6.744 6.79 8.05 11.83h-13.23Zm32.671-15.54V194h-11.97v-49.14h11.97Z"/></svg>