<svg width="197" height="197" viewBox="0 0 197 197" fill="none" xmlns="http://www.w3.org/2000/svg">
<g clip-path="url(#clip0_7873_167731)">
<path opacity="0.2" d="M171.33 177.9C183.888 163.814 192.088 146.386 194.936 127.731C197.783 109.075 195.156 89.9948 187.372 72.8035C179.589 55.6122 166.983 41.0492 151.086 30.8813C135.188 20.7134 116.681 15.3775 97.8104 15.5211C78.9397 15.6647 60.5162 21.2816 44.775 31.6903C29.0338 42.0989 16.6516 56.8521 9.13046 74.1598C1.60934 91.4675 -0.727398 110.586 2.40375 129.196C5.53489 147.805 13.9993 165.106 26.7702 179L171.33 177.9Z" fill="#81D8EF"/>
<path d="M46.9199 177.75C61.5555 177.75 73.4199 166.333 73.4199 152.25C73.4199 138.167 61.5555 126.75 46.9199 126.75C32.2844 126.75 20.4199 138.167 20.4199 152.25C20.4199 166.333 32.2844 177.75 46.9199 177.75Z" fill="#81D8EF"/>
<path d="M20.4199 177.75C27.7377 177.75 33.6699 172.042 33.6699 165C33.6699 157.958 27.7377 152.25 20.4199 152.25C13.1021 152.25 7.16992 157.958 7.16992 165C7.16992 172.042 13.1021 177.75 20.4199 177.75Z" fill="#81D8EF"/>
<path d="M73.4201 177.74C82.4113 177.74 89.7001 170.729 89.7001 162.08C89.7001 153.431 82.4113 146.42 73.4201 146.42C64.4289 146.42 57.1401 153.431 57.1401 162.08C57.1401 170.729 64.4289 177.74 73.4201 177.74Z" fill="#81D8EF"/>
<path d="M0 179.74H109.82C109.82 179.74 66.24 156.86 0 179.74Z" fill="#81D8EF"/>
<path d="M149.79 177.98C161.614 177.98 171.2 168.757 171.2 157.38C171.2 146.003 161.614 136.78 149.79 136.78C137.965 136.78 128.38 146.003 128.38 157.38C128.38 168.757 137.965 177.98 149.79 177.98Z" fill="#81D8EF"/>
<path d="M128.38 177.98C134.29 177.98 139.08 173.369 139.08 167.68C139.08 161.991 134.29 157.38 128.38 157.38C122.471 157.38 117.68 161.991 117.68 167.68C117.68 173.369 122.471 177.98 128.38 177.98Z" fill="#81D8EF"/>
<path d="M171.2 177.98C178.462 177.98 184.35 172.312 184.35 165.32C184.35 158.328 178.462 152.66 171.2 152.66C163.937 152.66 158.05 158.328 158.05 165.32C158.05 172.312 163.937 177.98 171.2 177.98Z" fill="#81D8EF"/>
<path d="M96.8101 179.74H196C196 179.74 156.64 156.44 96.8101 179.74Z" fill="#81D8EF"/>
<path d="M172.85 77.23C178.119 77.23 182.39 73.0752 182.39 67.95C182.39 62.8248 178.119 58.67 172.85 58.67C167.581 58.67 163.31 62.8248 163.31 67.95C163.31 73.0752 167.581 77.23 172.85 77.23Z" fill="#9DE4F4"/>
<path d="M182.39 77.23C185.025 77.23 187.16 75.1526 187.16 72.59C187.16 70.0273 185.025 67.95 182.39 67.95C179.756 67.95 177.62 70.0273 177.62 72.59C177.62 75.1526 179.756 77.23 182.39 77.23Z" fill="#9DE4F4"/>
<path d="M163.31 77.23C166.547 77.23 169.17 74.678 169.17 71.53C169.17 68.3819 166.547 65.83 163.31 65.83C160.074 65.83 157.45 68.3819 157.45 71.53C157.45 74.678 160.074 77.23 163.31 77.23Z" fill="#9DE4F4"/>
<path d="M196 78.56H148.58C148.58 78.56 167.41 68.33 196 78.56Z" fill="#9DE4F4"/>
<path d="M29.8702 45.78C35.8901 45.78 40.7702 41.4462 40.7702 36.1C40.7702 30.7539 35.8901 26.42 29.8702 26.42C23.8503 26.42 18.9702 30.7539 18.9702 36.1C18.9702 41.4462 23.8503 45.78 29.8702 45.78Z" fill="#A6E9F4"/>
<path d="M18.9798 45.78C21.9897 45.78 24.4298 43.613 24.4298 40.94C24.4298 38.2669 21.9897 36.1 18.9798 36.1C15.9698 36.1 13.5298 38.2669 13.5298 40.94C13.5298 43.613 15.9698 45.78 18.9798 45.78Z" fill="#A6E9F4"/>
<path d="M40.7701 45.78C44.4649 45.78 47.4601 43.1161 47.4601 39.83C47.4601 36.5439 44.4649 33.88 40.7701 33.88C37.0753 33.88 34.0801 36.5439 34.0801 39.83C34.0801 43.1161 37.0753 45.78 40.7701 45.78Z" fill="#A6E9F4"/>
<path d="M0 46.53H59.75C59.75 46.53 36 37.85 0 46.53Z" fill="#A6E9F4"/>
<path d="M59.6901 179.73C68.9906 179.73 76.5301 172.477 76.5301 163.53C76.5301 154.583 68.9906 147.33 59.6901 147.33C50.3896 147.33 42.8501 154.583 42.8501 163.53C42.8501 172.477 50.3896 179.73 59.6901 179.73Z" fill="#9DE4F4"/>
<path d="M42.8502 179.74C47.5004 179.74 51.2702 176.114 51.2702 171.64C51.2702 167.167 47.5004 163.54 42.8502 163.54C38.1999 163.54 34.4302 167.167 34.4302 171.64C34.4302 176.114 38.1999 179.74 42.8502 179.74Z" fill="#9DE4F4"/>
<path d="M76.5299 179.73C82.2406 179.73 86.8699 175.275 86.8699 169.78C86.8699 164.285 82.2406 159.83 76.5299 159.83C70.8193 159.83 66.1899 164.285 66.1899 169.78C66.1899 175.275 70.8193 179.73 76.5299 179.73Z" fill="#9DE4F4"/>
<path d="M23.7002 179.74H103.56C103.56 179.74 71.8602 167.17 23.7002 179.74Z" fill="#9DE4F4"/>
<path d="M127.02 34.33H80.2898C76.2691 34.33 73.0098 37.5893 73.0098 41.61V172.39C73.0098 176.411 76.2691 179.67 80.2898 179.67H127.02C131.04 179.67 134.3 176.411 134.3 172.39V41.61C134.3 37.5893 131.04 34.33 127.02 34.33Z" fill="#263238"/>
<path d="M121.49 34.39H75.8998C71.5644 34.39 68.0498 37.9046 68.0498 42.24V171.88C68.0498 176.215 71.5644 179.73 75.8998 179.73H121.49C125.825 179.73 129.34 176.215 129.34 171.88V42.24C129.34 37.9046 125.825 34.39 121.49 34.39Z" fill="#455A64"/>
<path d="M120.1 36.71H111.78C111.187 36.7853 110.647 37.0883 110.274 37.5549C109.9 38.0216 109.723 38.6152 109.78 39.21V41C109.837 41.5949 109.66 42.1885 109.286 42.6552C108.913 43.1218 108.373 43.4248 107.78 43.5H91.5499C90.9563 43.4224 90.416 43.1173 90.0429 42.6491C89.6698 42.1808 89.4931 41.586 89.5499 40.99V39.17C89.6067 38.5752 89.4296 37.9816 89.0563 37.5149C88.683 37.0483 88.1428 36.7453 87.5499 36.67H77.2399C73.6199 36.67 70.6899 40.14 70.6899 44.43L70.7499 168.94C70.7499 173.23 73.6799 176.7 77.2999 176.71L120.16 176.77C123.78 176.77 126.72 173.3 126.71 169.01V44.5C126.65 40.2 123.72 36.72 120.1 36.71Z" fill="white"/>
<path d="M120.1 36.71H120.36C120.608 36.7149 120.856 36.7417 121.1 36.79C122.075 36.9703 122.991 37.3856 123.77 38C124.33 38.4612 124.822 38.9999 125.23 39.6C125.725 40.3356 126.1 41.1459 126.34 42C126.471 42.4751 126.565 42.96 126.62 43.45C126.674 43.9782 126.697 44.5091 126.69 45.04V48.53C126.69 58.38 126.69 72.65 126.69 90.27C126.69 107.89 126.69 128.87 126.74 152.17V161C126.74 162.49 126.74 164 126.74 165.5V167.77C126.761 168.531 126.738 169.292 126.67 170.05C126.584 170.818 126.396 171.572 126.11 172.29C125.552 173.76 124.548 175.019 123.24 175.89C122.573 176.314 121.829 176.599 121.05 176.73C120.273 176.82 119.491 176.85 118.71 176.82H111.62H92.2898H77.4598C76.6103 176.83 75.7684 176.66 74.9898 176.32C74.2107 175.969 73.5076 175.47 72.9198 174.85C71.7527 173.605 70.9984 172.03 70.7598 170.34C70.6568 169.508 70.6233 168.668 70.6598 167.83C70.6598 166.99 70.6598 166.16 70.6598 165.33V155.4C70.6598 148.847 70.6598 142.4 70.6598 136.06C70.6598 123.38 70.6598 111.15 70.6598 99.49C70.6598 87.83 70.6598 76.77 70.6598 66.41V44.35C70.6498 43.2097 70.8716 42.0793 71.3116 41.0272C71.7517 39.9752 72.4009 39.0236 73.2198 38.23C74.0288 37.4746 75.0276 36.9527 76.1098 36.72C76.3724 36.6582 76.6402 36.6214 76.9098 36.61C77.1798 36.61 77.4498 36.61 77.7098 36.61H86.8898C87.1398 36.61 87.3798 36.61 87.6298 36.61C87.8786 36.6291 88.1205 36.7007 88.3398 36.82C88.7829 37.0601 89.1343 37.4398 89.3398 37.9C89.541 38.3382 89.6336 38.8184 89.6098 39.3V40.7C89.5841 41.1491 89.6522 41.5986 89.8098 42.02C89.9667 42.4194 90.2337 42.7661 90.5798 43.02C90.751 43.1497 90.9441 43.2479 91.1498 43.31C91.3592 43.3601 91.5747 43.3803 91.7898 43.37H101.55H107.85C108.16 43.3537 108.462 43.2601 108.728 43.0977C108.993 42.9353 109.214 42.7092 109.37 42.44C109.679 41.9288 109.829 41.3368 109.8 40.74C109.8 40.16 109.8 39.6 109.8 39.05C109.808 38.5117 109.963 37.9859 110.25 37.53C110.519 37.1077 110.931 36.7956 111.41 36.65C111.642 36.6159 111.878 36.6159 112.11 36.65C111.882 36.6371 111.653 36.6539 111.43 36.7C110.959 36.8413 110.557 37.151 110.3 37.57C110.016 38.0116 109.863 38.5249 109.86 39.05V40.74C109.894 41.3513 109.741 41.9585 109.42 42.48C109.258 42.7628 109.029 43.0017 108.754 43.176C108.478 43.3503 108.165 43.4546 107.84 43.48H91.7098C91.4881 43.4894 91.2661 43.4692 91.0498 43.42C90.8281 43.3576 90.6209 43.2522 90.4398 43.11C90.0724 42.8302 89.7917 42.4524 89.6298 42.02C89.4728 41.5846 89.4048 41.1221 89.4298 40.66V39.31C89.4395 38.8586 89.3472 38.4108 89.1598 38C88.9678 37.5801 88.6497 37.2306 88.2498 37C88.0417 36.8899 87.8141 36.822 87.5798 36.8C87.3498 36.8 87.0998 36.8 86.8498 36.8H77.6698C77.4098 36.8 77.1398 36.8 76.8798 36.8C76.614 36.8163 76.3499 36.8531 76.0898 36.91C75.0325 37.1431 74.0581 37.658 73.2698 38.4C72.4681 39.1789 71.8324 40.112 71.401 41.1432C70.9696 42.1744 70.7515 43.2822 70.7598 44.4V51.46C70.7598 56.27 70.7598 61.28 70.7598 66.46C70.7598 76.82 70.7598 87.89 70.7598 99.54C70.7598 111.19 70.7598 123.43 70.7598 136.11C70.7598 142.45 70.7598 148.897 70.7598 155.45C70.7598 158.717 70.7598 162.013 70.7598 165.34V167.84C70.7278 168.668 70.7612 169.497 70.8598 170.32C71.092 171.975 71.8288 173.519 72.9698 174.74C73.5375 175.339 74.2169 175.822 74.9698 176.16C75.7257 176.493 76.544 176.66 77.3698 176.65H92.3498H111.68H118.77C119.541 176.679 120.313 176.652 121.08 176.57C121.837 176.441 122.562 176.163 123.21 175.75C123.85 175.332 124.418 174.812 124.89 174.21C125.365 173.606 125.743 172.931 126.01 172.21C126.292 171.505 126.477 170.765 126.56 170.01C126.623 169.258 126.647 168.504 126.63 167.75V152.17C126.63 128.87 126.63 107.89 126.63 90.27C126.63 72.65 126.63 58.38 126.63 48.53V45C126.646 44.4726 126.626 43.9447 126.57 43.42C126.423 42.0605 125.957 40.755 125.21 39.61C124.802 39.0099 124.31 38.4712 123.75 38.01C122.982 37.3922 122.076 36.97 121.11 36.78C120.865 36.7347 120.618 36.7046 120.37 36.69L120.1 36.71Z" fill="#263238"/>
<path d="M85.2598 162.77L84.3398 176.31L90.1898 177.03L92.9898 163.2L85.2598 162.77Z" fill="#F2AA91"/>
<path d="M84.4199 174.52L84.3599 174.91C84.3599 174.91 77.4299 176.67 77.1899 177.91L90.2699 179.6L90.6499 175.22C89.6222 175.558 88.5337 175.67 87.4586 175.549C86.3836 175.428 85.3471 175.077 84.4199 174.52Z" fill="#FF735D"/>
<path d="M89.1501 176.44C89.2698 176.497 89.3651 176.595 89.4183 176.716C89.4716 176.837 89.4793 176.974 89.4401 177.1C89.3909 177.224 89.2955 177.323 89.1741 177.377C89.0526 177.431 88.9149 177.436 88.7901 177.39C88.663 177.333 88.5613 177.231 88.5042 177.104C88.447 176.977 88.4385 176.833 88.4801 176.7C88.5442 176.576 88.6548 176.482 88.7878 176.439C88.9207 176.396 89.0654 176.407 89.1901 176.47" fill="white"/>
<path d="M90.2701 179.6L90.3601 178.54L77.7901 177.32C77.7901 177.32 77.1801 177.49 77.1901 177.91L90.2701 179.6Z" fill="white"/>
<path d="M84.3101 174.94C84.3101 175.01 84.6201 175.08 84.9101 175.32C85.2001 175.56 85.3301 175.86 85.3901 175.84C85.4501 175.82 85.3901 175.44 85.0501 175.15C84.7101 174.86 84.3101 174.88 84.3101 174.94Z" fill="#263238"/>
<path d="M82.8701 175.33C82.8701 175.39 83.1101 175.54 83.2901 175.84C83.4701 176.14 83.5001 176.43 83.5601 176.43C83.6201 176.43 83.7101 176.08 83.4801 175.72C83.2501 175.36 82.8801 175.27 82.8701 175.33Z" fill="#263238"/>
<path d="M81.8799 176.87C81.9299 176.87 82.0599 176.59 81.9399 176.22C81.8199 175.85 81.5499 175.67 81.5099 175.72C81.4699 175.77 81.6399 175.98 81.7299 176.29C81.8199 176.6 81.8199 176.86 81.8799 176.87Z" fill="#263238"/>
<path d="M114.85 111.33C114.85 111.33 114.85 111.42 114.85 111.46C114.86 111.32 114.84 111.2 114.85 111.33Z" fill="#263238"/>
<path d="M118.31 114.5L118.84 119.12L123.06 122.97C123.156 122.813 123.219 122.638 123.246 122.456C123.274 122.274 123.265 122.089 123.22 121.91C123.03 121.43 124.22 122.54 124.22 122.54V125.19C124.22 125.19 124.94 125.48 125.22 124.85C125.426 123.899 125.553 122.932 125.6 121.96L125.27 121.72C125.404 121.582 125.504 121.414 125.561 121.229C125.619 121.045 125.632 120.85 125.6 120.66C125.85 120.05 125.937 119.384 125.85 118.73C125.788 118.148 125.64 117.578 125.41 117.04L121.95 113.18L118.31 114.5Z" fill="#F2AA91"/>
<path d="M120.43 118.94C121.167 120.049 122.102 121.012 123.19 121.78C123.19 121.78 122.57 121.15 121.81 120.37C121.05 119.59 120.47 118.91 120.43 118.94Z" fill="#724940"/>
<path d="M123.4 119.79C123.686 120.212 124.022 120.598 124.4 120.94C124.74 121.312 125.119 121.648 125.53 121.94C124.91 121.127 124.195 120.392 123.4 119.75V119.79Z" fill="#724940"/>
<path d="M124 118.73C124.245 119.08 124.512 119.415 124.8 119.73C125.038 120.077 125.295 120.411 125.57 120.73C125.441 120.326 125.222 119.957 124.93 119.65C124.7 119.271 124.381 118.955 124 118.73Z" fill="#724940"/>
<path d="M124.45 117.64C124.634 117.914 124.845 118.169 125.08 118.4C125.43 118.81 125.7 119.16 125.75 119.13C125.641 118.811 125.455 118.522 125.21 118.29C124.85 117.87 124.48 117.6 124.45 117.64Z" fill="#724940"/>
<path d="M93.3799 62.37C92.845 62.2305 92.3281 62.0292 91.8399 61.77C91.3276 61.5652 90.8383 61.3071 90.3799 61C90.9148 61.1395 91.4316 61.3408 91.9199 61.6C92.4343 61.8002 92.9242 62.0585 93.3799 62.37Z" fill="#455A64"/>
<path d="M88.5099 69.46C87.7292 69.6793 87.0608 70.1868 86.6399 70.88C86.1599 71.51 85.6999 69.72 85.6399 69.05C85.6248 68.9467 85.5864 68.8483 85.5277 68.762C85.469 68.6757 85.3914 68.6039 85.301 68.5519C85.2105 68.4999 85.1094 68.4691 85.0053 68.4619C84.9012 68.4546 84.7968 68.4711 84.6999 68.51L82.4599 69.51H81.7999C81.6435 69.5649 81.5135 69.6766 81.4356 69.8229C81.3578 69.9693 81.3379 70.1396 81.3799 70.3L82.3899 74V75L86.8799 75.61L86.9999 73.1C87.0728 72.7622 87.1629 72.4285 87.2699 72.1C87.3768 71.74 87.5461 71.4015 87.7699 71.1C88.0078 70.7817 88.2757 70.487 88.5699 70.22L88.6499 70.17C88.6966 70.1413 88.7373 70.1039 88.7699 70.06C88.8058 70.0058 88.8276 69.9436 88.8333 69.8789C88.8391 69.8142 88.8285 69.7491 88.8027 69.6894C88.7769 69.6298 88.7366 69.5776 88.6854 69.5376C88.6343 69.4975 88.574 69.4708 88.5099 69.46Z" fill="#F2AA91"/>
<path d="M88.4199 58.56C88.4199 58.56 85.7999 58.06 82.0399 54.64C78.2799 51.22 76.4199 46.64 75.9799 46.64C75.5399 46.64 73.5499 45.83 70.0499 54.03C66.5499 62.23 68.0499 64.03 68.8199 64.03C69.5899 64.03 74.5499 62.45 77.6999 62.72C80.1715 63.0493 82.5995 63.6496 84.9399 64.51L88.4199 58.56Z" fill="#0374B5"/>
<path d="M94.0699 62.82L93.2299 64.53L92.8499 65.3C92.5923 65.7965 92.1553 66.1762 91.6278 66.3619C91.1002 66.5477 90.5217 66.5256 90.0099 66.3L84.3799 64.52L87.3799 57.01L93.0299 59.82C93.2984 59.945 93.5391 60.1227 93.7376 60.3425C93.9361 60.5624 94.0883 60.8199 94.1853 61.0997C94.2824 61.3796 94.3221 61.6761 94.3023 61.9716C94.2825 62.2671 94.2034 62.5556 94.0699 62.82Z" fill="#263238"/>
<path d="M90.93 65.61L89.25 69.14L88.36 68.92L82.69 73.81L81 70.68C81 70.68 84.38 69.1 85 67.86C85.62 66.62 84.86 66.36 84.86 66.36L86.42 64.48L90.93 65.61Z" fill="#263238"/>
<path d="M70.3599 54.16C68.4999 58.6 67.7899 62.53 68.7599 62.94C69.7299 63.35 72.0399 60.07 73.8899 55.63C75.7399 51.19 76.4599 47.26 75.4899 46.85C74.5199 46.44 72.2199 49.71 70.3599 54.16Z" fill="#263238"/>
<path d="M93.7598 65L93.0898 64.81L93.9998 63L94.4998 63.3C94.6839 63.4063 94.8259 63.5725 94.9023 63.7708C94.9787 63.9692 94.9849 64.1877 94.9198 64.39C94.844 64.6227 94.6803 64.8166 94.4637 64.9305C94.2471 65.0444 93.9946 65.0693 93.7598 65Z" fill="#455A64"/>
<g opacity="0.3">
<path opacity="0.3" d="M85.8501 65.13L89.9801 67.6L90.4601 66.6L85.8501 65.13Z" fill="black"/>
</g>
<path d="M92.9999 63.44C91.8397 63.1075 90.7222 62.641 89.6699 62.05C90.2573 62.1902 90.8274 62.3948 91.3699 62.66C91.9397 62.8607 92.4862 63.1222 92.9999 63.44Z" fill="#455A64"/>
<path d="M92.3899 64.5699C92.3899 64.5699 92.1999 64.5699 91.9199 64.4799L91.4099 64.3299C91.2199 64.2699 91.0299 64.1799 90.8199 64.0899C90.3 63.9018 89.8087 63.6426 89.3599 63.3199C89.8883 63.4649 90.4009 63.6625 90.8899 63.9099C91.0999 63.9999 91.2899 64.09 91.4799 64.16L91.9599 64.3499C92.1155 64.3962 92.2613 64.4708 92.3899 64.5699Z" fill="#455A64"/>
<path d="M74.3698 53.07C74.3698 53.07 72.0698 51.73 70.9198 54.82C69.7698 57.91 72.1598 58.34 72.1598 58.34C73.1393 56.6953 73.8832 54.9213 74.3698 53.07Z" fill="#FAFAFA"/>
<path d="M81.65 69.54C81.5455 69.5844 81.4621 69.6674 81.4174 69.7718C81.3727 69.8761 81.37 69.9937 81.41 70.1C81.57 70.52 81.82 71.19 82.01 71.59C82.0651 71.7225 82.1429 71.8443 82.24 71.95C82.2913 72.0014 82.3557 72.0379 82.4261 72.0555C82.4966 72.0731 82.5705 72.0712 82.64 72.05C82.78 72.05 85.39 69.99 85.48 69.86C85.538 69.7961 85.5763 69.7169 85.5905 69.6318C85.6047 69.5467 85.5941 69.4593 85.56 69.38C85.43 68.98 85.31 68.15 84.83 67.94C83.69 67.46 81.83 69.44 81.65 69.54Z" fill="#F2AA91"/>
<path d="M115.59 139.85L113.22 120.85C114.76 117.26 115.32 113.67 114.87 111.43C114.87 111.67 114.87 111.96 114.87 111.3C114.49 107.3 111.07 104.45 111.07 104.45L109.93 99.66L95.3299 101.66L95.8799 109.66L87.2999 139.91C86.7092 141.992 86.3437 144.13 86.2099 146.29L84.6899 171.18L92.3199 172.08C92.3199 172.08 95.3199 158.01 96.1199 152.08C96.3899 150.08 96.5699 148.27 96.6799 146.76C96.9063 143.792 97.8949 140.934 99.5499 138.46L104.05 131.73C104.9 136.16 105.86 141.63 106.36 144.48C106.584 145.778 107.15 146.993 108 148L126.76 162.77V153.87C124.93 149.61 115.59 139.85 115.59 139.85Z" fill="#263238"/>
<path opacity="0.3" d="M113.22 120.88L104.05 131.78" stroke="black" stroke-width="0.5" stroke-miterlimit="10" stroke-linecap="round"/>
<path opacity="0.3" d="M95.8599 109.76C95.8599 109.76 97.4199 105.12 99.3999 104.63" stroke="black" stroke-width="0.5" stroke-miterlimit="10" stroke-linecap="round"/>
<path opacity="0.3" d="M96.1802 102.25L96.4502 106.7" stroke="black" stroke-width="0.5" stroke-miterlimit="10" stroke-linecap="round"/>
<path d="M109.58 77.91C109.58 77.91 109.58 77.55 109.71 76.97C109.841 76.2222 110.098 75.502 110.47 74.84C110.801 74.1654 111.337 73.6125 112 73.26C112.292 73.1416 112.607 73.0937 112.92 73.12C112.844 73.0767 112.758 73.0526 112.67 73.05C112.429 73.0258 112.185 73.0601 111.96 73.15C111.24 73.4779 110.654 74.0426 110.3 74.75C109.911 75.4274 109.659 76.1751 109.56 76.95C109.509 77.2685 109.515 77.5939 109.58 77.91Z" fill="#263238"/>
<path d="M101.62 72.9999L100.72 73.4199L99.3598 74.5999C99.3598 74.5999 94.5498 83.9999 94.4598 85.9099C94.5435 87.8421 94.8797 89.755 95.4598 91.5999L94.3598 99.8799C94.1998 100.88 94.8198 101.75 95.2298 101.75L108.47 99.9999C110.19 99.6699 110.9 98.7599 110.79 97.7699L110.6 95.9199L116.24 76.9999C116.58 78.1199 116.05 73.9999 113.53 73.0599C112.47 72.6499 103.24 72.6999 101.62 72.9999Z" fill="#008FCA"/>
<path d="M100.07 74.09C100.07 74.09 97.7099 75.9 95.4799 78C93.9299 79.43 90.5799 81.87 88.6799 83.22C88.545 83.3153 88.387 83.3725 88.2224 83.3857C88.0578 83.3989 87.8927 83.3675 87.7444 83.2949C87.5961 83.2223 87.47 83.1111 87.3795 82.973C87.289 82.8349 87.2373 82.6749 87.2299 82.51L86.8999 75.51L82.4099 74.9C82.4099 74.9 80.2199 85.68 81.6099 88.65C82.9999 91.62 84.6099 91.75 89.2899 90.26C91.3117 89.6645 93.2954 88.9465 95.2299 88.11L100.07 74.09Z" fill="#008FCA"/>
<path d="M112.1 73.05C112.1 73.05 109.71 76.17 109.58 79.05C109.45 81.93 113.86 99.05 113.86 99.05L117.72 114.72L122.53 112.95C122.53 112.95 121.41 101.79 121.2 100.41C120.75 97.52 118.85 91.9 118.59 88.64C118.236 84.9188 117.546 81.2372 116.53 77.64C115.93 76.2 115.91 73 112.1 73.05Z" fill="#008FCA"/>
<path opacity="0.3" d="M111.96 91.33L109.88 81.63" stroke="black" stroke-width="0.5" stroke-miterlimit="10" stroke-linecap="round"/>
<path opacity="0.3" d="M97.2902 77.66C97.2902 77.66 93.5702 80.53 94.6902 88.36" stroke="black" stroke-width="0.5" stroke-miterlimit="10" stroke-linecap="round"/>
<path d="M108.87 53.75C108.974 53.2861 109.209 52.8619 109.548 52.5284C109.887 52.195 110.315 51.9663 110.78 51.87C111.714 51.6874 112.681 51.7848 113.56 52.15C114.575 52.4769 115.495 53.0467 116.24 53.81C116.611 54.1922 116.903 54.6447 117.097 55.141C117.291 55.6372 117.384 56.1673 117.37 56.7C117.32 57.7 116.82 58.7 117.1 59.65C117.379 60.3578 117.886 60.9525 118.54 61.34C119.192 61.7257 119.768 62.2273 120.24 62.82C120.466 63.1239 120.581 63.4958 120.567 63.8741C120.552 64.2524 120.409 64.6144 120.16 64.9C119.66 65.35 118.77 65.41 118.56 66.04C118.506 66.4553 118.579 66.8772 118.77 67.25C118.886 67.6783 118.909 68.1262 118.838 68.5641C118.767 69.002 118.605 69.4199 118.36 69.79C117.871 70.5297 117.204 71.1349 116.42 71.55C115.764 71.9633 115.024 72.2237 114.253 72.3119C113.483 72.4002 112.703 72.3141 111.97 72.06C111.273 71.7387 110.67 71.2427 110.22 70.62C109.494 69.5496 109.091 68.293 109.06 67C109.02 65.7253 109.1 64.4496 109.3 63.19" fill="#263238"/>
<path d="M107.64 68.89C109.075 69.2032 110.575 68.9526 111.83 68.19C112.309 67.8092 112.694 67.3236 112.956 66.7706C113.218 66.2175 113.349 65.6118 113.34 65C113.34 63.87 112.8 62.71 113.15 61.63C113.39 60.89 114.01 60.31 114.22 59.56C114.53 58.44 113.85 57.31 113.22 56.34C112.834 55.7001 112.355 55.1206 111.8 54.62C111.519 54.3718 111.188 54.1877 110.829 54.0806C110.469 53.9736 110.091 53.9461 109.72 54" fill="#263238"/>
<path d="M97.9101 54.11C97.8616 54.979 97.4737 55.7941 96.8301 56.38C96.1893 56.9579 95.7277 57.7076 95.5001 58.54C95.2901 60.05 96.7601 61.45 96.5001 62.94C96.3301 63.74 95.6801 64.38 95.5601 65.19C95.5394 65.5851 95.6027 65.9801 95.7457 66.3489C95.8888 66.7178 96.1084 67.0522 96.3901 67.33C96.9101 67.93 97.5401 68.42 98.0001 69.07C98.0001 69.07 99.5501 71.41 103.22 69.5" fill="#263238"/>
<path d="M111.08 55.42C111.03 55.0355 110.869 54.6738 110.617 54.379C110.365 54.0843 110.032 53.8693 109.66 53.76C108.907 53.5674 108.179 53.2889 107.49 52.93C106.961 52.4909 106.478 51.9983 106.05 51.46C105.453 50.8663 104.71 50.4408 103.895 50.2267C103.081 50.0126 102.224 50.0174 101.412 50.2407C100.6 50.464 99.8619 50.8978 99.2715 51.4982C98.6811 52.0987 98.2598 52.8444 98.0502 53.66C97.881 54.2063 97.8643 54.7885 98.0017 55.3436C98.1392 55.8988 98.4256 56.4058 98.8302 56.81C99.8302 57.66 101.35 57.47 102.64 57.21C103.93 56.95 105.41 56.68 106.49 57.44C107.099 57.9617 107.588 58.6102 107.92 59.34C108.246 60.065 108.816 60.6525 109.53 61C110.28 61.26 111.31 60.81 111.34 60" fill="#263238"/>
<path d="M98.6698 55.2C98.6698 55.2 95.7998 64.09 97.4398 67.86C99.0798 71.63 102.53 68.58 102.53 68.58V71.06C102.53 71.7379 102.429 72.412 102.23 73.06C101.88 74.22 101.42 76.12 102.05 76.39C103.28 76.91 107.05 73.94 109.14 73.25C109.14 73.25 106.58 71.34 108.69 65.13C108.69 65.13 111.07 63.59 109.16 60.75C107.25 57.91 107.01 61.75 107.01 61.75C107.01 61.75 107.5 49.43 98.6698 55.2Z" fill="#F2AA91"/>
<path d="M110.6 67.75C110.089 67.8544 109.56 67.8354 109.058 67.6946C108.555 67.5537 108.094 67.2951 107.712 66.9402C107.329 66.5852 107.037 66.1442 106.859 65.6537C106.682 65.1633 106.624 64.6375 106.69 64.12C106.8 63.21 107.29 62.29 106.98 61.43C106.56 60.29 104.98 59.94 104.55 58.81C104.3 58.15 104.55 57.38 104.24 56.73C104.08 56.4402 103.863 56.186 103.602 55.9831C103.34 55.7802 103.04 55.6328 102.72 55.55C102.079 55.3822 101.469 55.1157 100.91 54.76C100.631 54.5741 100.426 54.2954 100.333 53.9733C100.24 53.6511 100.263 53.3063 100.4 53C103.163 53.3434 105.876 54.0148 108.48 55C109.1 55.1615 109.656 55.5108 110.07 56C110.39 56.6144 110.506 57.3152 110.4 58C110.25 61.32 110.09 64.64 109.94 68" fill="#263238"/>
<path d="M113 56.0901C112.502 55.4842 111.911 54.961 111.25 54.5401C110.555 54.1766 109.805 53.93 109.03 53.8101C109.261 53.7632 109.499 53.7632 109.73 53.8101C110.299 53.8861 110.846 54.0766 111.34 54.3701C111.837 54.6534 112.278 55.0263 112.64 55.4701C112.796 55.6534 112.918 55.8634 113 56.0901Z" fill="#455A64"/>
<path d="M108.65 68.92C108.65 68.92 108.65 68.92 108.81 68.92C108.966 68.931 109.123 68.931 109.28 68.92C109.866 68.9216 110.444 68.7882 110.97 68.53C111.762 68.1462 112.401 67.5044 112.78 66.71C113.25 65.7393 113.356 64.6324 113.08 63.59C112.928 63.0775 112.824 62.5518 112.77 62.02C112.747 61.5322 112.868 61.0485 113.12 60.63C113.362 60.2333 113.55 59.8062 113.68 59.36C113.759 58.9572 113.759 58.5428 113.68 58.14C113.579 57.5597 113.323 57.0173 112.94 56.57C112.835 56.4543 112.722 56.3473 112.6 56.25C112.51 56.18 112.46 56.15 112.46 56.16C112.46 56.17 112.63 56.31 112.88 56.63C113.227 57.0781 113.451 57.6089 113.53 58.17C113.588 58.5534 113.568 58.9447 113.47 59.32C113.34 59.7487 113.155 60.1587 112.92 60.54C112.792 60.7567 112.691 60.9885 112.62 61.23C112.545 61.4897 112.515 61.7601 112.53 62.03C112.585 62.5748 112.689 63.1137 112.84 63.64C113.115 64.6397 113.02 65.7055 112.57 66.64C112.274 67.2784 111.807 67.8227 111.221 68.2126C110.635 68.6026 109.953 68.8232 109.25 68.85C108.87 69 108.65 68.9 108.65 68.92Z" fill="#455A64"/>
<path d="M115.2 53C115.026 52.8323 114.807 52.7178 114.57 52.67C113.999 52.5139 113.391 52.5598 112.85 52.8C112.318 53.0453 111.89 53.4702 111.64 54C111.517 54.2085 111.458 54.4484 111.47 54.69C111.47 54.69 111.57 54.43 111.78 54.07C112.043 53.5922 112.451 53.211 112.946 52.9825C113.441 52.7539 113.996 52.69 114.53 52.8C114.94 52.86 115.18 53 115.2 53Z" fill="#455A64"/>
<path d="M112.46 55.2901C112.46 55.2901 112.46 55.2101 112.46 55.0501C112.453 54.8228 112.508 54.598 112.62 54.4001C112.8 54.089 113.068 53.8383 113.39 53.6801C113.602 53.583 113.832 53.5327 114.065 53.5327C114.298 53.5327 114.528 53.583 114.74 53.6801C115.267 53.9132 115.695 54.3237 115.95 54.8401C116.244 55.4317 116.375 56.0909 116.33 56.7501C116.273 57.4917 116.156 58.2274 115.98 58.9501C115.778 59.7371 115.684 60.5478 115.7 61.3601C115.774 62.1694 115.983 62.9605 116.32 63.7001C116.627 64.3786 116.897 65.0729 117.13 65.7801C117.329 66.427 117.384 67.1097 117.29 67.7801C117.208 68.3535 117.036 68.9103 116.78 69.4301C116.398 70.1895 115.943 70.9096 115.42 71.5801L115.01 72.1301C114.955 72.1939 114.908 72.2644 114.87 72.3401C114.934 72.2873 114.991 72.2269 115.04 72.1601C115.15 72.0401 115.3 71.8701 115.49 71.6301C116.045 70.9755 116.524 70.2611 116.92 69.5001C117.192 68.9661 117.378 68.3923 117.47 67.8001C117.567 67.1305 117.516 66.4477 117.32 65.8001C117.094 65.082 116.827 64.3775 116.52 63.6901C116.194 62.9685 115.988 62.1983 115.91 61.4101C115.85 59.7901 116.51 58.2901 116.53 56.8301C116.566 56.1383 116.421 55.4491 116.11 54.8301C115.822 54.2882 115.361 53.8586 114.8 53.6101C114.564 53.5156 114.311 53.473 114.058 53.485C113.804 53.4971 113.556 53.5636 113.33 53.6801C112.994 53.8593 112.719 54.1342 112.54 54.4701C112.434 54.6874 112.39 54.9293 112.41 55.1701C112.423 55.2116 112.44 55.2518 112.46 55.2901Z" fill="#455A64"/>
<path d="M131.76 179.74C137.763 179.74 142.63 175.057 142.63 169.28C142.63 163.503 137.763 158.82 131.76 158.82C125.757 158.82 120.89 163.503 120.89 169.28C120.89 175.057 125.757 179.74 131.76 179.74Z" fill="#9DE4F4"/>
<path d="M120.89 179.74C123.889 179.74 126.32 177.398 126.32 174.51C126.32 171.622 123.889 169.28 120.89 169.28C117.891 169.28 115.46 171.622 115.46 174.51C115.46 177.398 117.891 179.74 120.89 179.74Z" fill="#9DE4F4"/>
<path d="M142.62 179.73C146.309 179.73 149.3 176.856 149.3 173.31C149.3 169.764 146.309 166.89 142.62 166.89C138.931 166.89 135.94 169.764 135.94 173.31C135.94 176.856 138.931 179.73 142.62 179.73Z" fill="#9DE4F4"/>
<path d="M108.53 179.74H160.07C160.07 179.74 139.61 171.62 108.53 179.74Z" fill="#9DE4F4"/>
<path opacity="0.3" d="M76.4899 49.21C76.0502 51.7681 75.3396 54.2722 74.3699 56.68C73.0699 59.37 70.9199 62.75 70.9199 62.75" stroke="black" stroke-width="0.5" stroke-miterlimit="10" stroke-linecap="round"/>
<g opacity="0.2">
<path opacity="0.2" d="M55.3402 82.4401C55.0693 82.1115 54.8377 81.7524 54.6502 81.3701C54.4073 80.9215 54.1333 80.4904 53.8302 80.0801C53.4487 79.4985 53.0277 78.9439 52.5702 78.4201C51.3606 76.9597 49.942 75.6859 48.3602 74.6401C46.2796 73.2465 43.9508 72.2654 41.5002 71.7501C38.5286 71.0981 35.4451 71.1563 32.5002 71.9201C29.1534 72.8023 26.0999 74.555 23.6502 77.0001C22.3168 78.3084 21.1906 79.8124 20.3102 81.4601C19.8468 82.3044 19.4425 83.1798 19.1002 84.0801C18.7817 85.0063 18.5212 85.9514 18.3202 86.9101C17.4937 90.9426 17.9774 95.1337 19.7008 98.8719C21.4242 102.61 24.297 105.7 27.9002 107.69C28.7572 108.167 29.646 108.585 30.5602 108.94C31.4682 109.263 32.397 109.523 33.3402 109.72C35.1611 110.122 37.0327 110.243 38.8902 110.08C42.1318 109.823 45.2573 108.758 47.9808 106.981C50.7043 105.204 52.9389 102.773 54.4802 99.9101C55.6706 97.7062 56.434 95.2973 56.7302 92.8101C56.9638 90.9268 56.9166 89.0194 56.5902 87.1501C56.4919 86.4737 56.3448 85.8053 56.1502 85.1501C56.0362 84.6541 55.8892 84.1664 55.7102 83.6901C55.5341 83.3013 55.4097 82.8912 55.3402 82.4701C55.569 82.8294 55.76 83.2114 55.9102 83.6101C56.1338 84.0564 56.3178 84.5216 56.4602 85.0001C56.6958 85.6512 56.8797 86.32 57.0102 87.0001C57.4207 88.9045 57.532 90.8613 57.3402 92.8001C57.0745 95.6814 56.1922 98.472 54.7533 100.982C53.3143 103.493 51.3522 105.665 49.0002 107.35C46.0575 109.458 42.6053 110.742 39.0002 111.07C37.0411 111.265 35.0636 111.15 33.1402 110.73C32.1453 110.531 31.166 110.26 30.2102 109.92C29.2462 109.548 28.3076 109.114 27.4002 108.62C23.5801 106.535 20.5325 103.276 18.7082 99.3247C16.8839 95.3735 16.3797 90.94 17.2702 86.6801C17.4823 85.6623 17.7629 84.66 18.1102 83.6801C18.4781 82.7581 18.9091 81.8627 19.4002 81.0001C20.3305 79.269 21.5248 77.6934 22.9402 76.3301C25.5267 73.7422 28.764 71.9007 32.3102 71.0001C35.1052 70.3173 38.0139 70.2407 40.8409 70.7754C43.6679 71.3101 46.3477 72.4437 48.7002 74.1001C50.2993 75.2073 51.7163 76.5568 52.9002 78.1001C53.3465 78.6467 53.7478 79.2286 54.1002 79.84C54.383 80.2728 54.6305 80.7276 54.8402 81.2001C55.0507 81.5943 55.2184 82.01 55.3402 82.4401Z" fill="#A6E9F4"/>
<path opacity="0.2" d="M46.2904 73C46.3604 73 46.1704 73.47 45.7804 74.24L45.0004 75.67C44.8504 75.93 44.7004 76.23 44.5204 76.52C44.3404 76.81 44.0904 77.11 43.8604 77.41C41.5673 80.8047 38.3845 83.5031 34.6604 85.21L33.0404 85.92L31.3904 86.43C31.1204 86.51 30.8604 86.6 30.5904 86.67L29.7904 86.83C29.2504 86.93 28.7404 87.04 28.2304 87.12C26.4169 87.358 24.5832 87.4016 22.7604 87.25C19.6604 86.98 17.8504 86.25 17.9004 86.11C17.9504 85.97 19.7804 86.41 22.8104 86.48C24.5711 86.52 26.3317 86.3995 28.0704 86.12C28.5604 86.04 29.0704 85.91 29.5604 85.81L30.3304 85.64L31.0904 85.4L32.6504 84.9L34.2004 84.22C37.7645 82.58 40.8796 80.103 43.2804 77L43.9804 76.17C44.1804 75.9 44.3504 75.63 44.5204 75.38L45.4104 74.11C45.9104 73.37 46.2204 73 46.2904 73Z" fill="#A6E9F4"/>
<path opacity="0.2" d="M28.3702 108.77C28.3102 108.77 28.4902 108.29 28.8902 107.52C29.1102 107.11 29.3502 106.65 29.6302 106.14C29.7802 105.87 29.9302 105.57 30.1202 105.28L30.7702 104.39C33.0687 101 36.25 98.3031 39.9702 96.5901L41.6002 95.8801L43.2402 95.3701C43.5102 95.2901 43.7702 95.2001 44.0402 95.1301L44.8502 94.9701C45.3802 94.8801 45.8502 94.7601 46.4102 94.6801C48.2203 94.442 50.0508 94.3984 51.8702 94.5501C54.9702 94.8201 56.7802 95.5501 56.7302 95.7001C56.6802 95.8501 54.8502 95.3901 51.8202 95.3201C50.0597 95.2855 48.2995 95.406 46.5602 95.6801C46.0702 95.7601 45.5602 95.8901 45.0702 96.0001L44.3002 96.1601L43.5402 96.4001L42.0002 96.9001L40.4502 97.5801C36.9058 99.2437 33.8176 101.742 31.4502 104.86C31.2002 105.14 30.9702 105.42 30.7502 105.68C30.5302 105.94 30.3702 106.23 30.2002 106.47L29.3102 107.74C28.7502 108.43 28.4402 108.8 28.3702 108.77Z" fill="#A6E9F4"/>
<path opacity="0.2" d="M55.5303 82.8601C55.6603 83.1301 47.6703 87.0901 37.6903 91.6801C27.7103 96.2701 19.5203 99.7901 19.4003 99.5101C19.2803 99.2301 27.2503 95.2901 37.2303 90.6901C47.2103 86.0901 55.4003 82.5901 55.5303 82.8601Z" fill="#A6E9F4"/>
<path opacity="0.2" d="M45.19 109C44.91 109.13 40.96 101.15 36.37 91.17C31.78 81.19 28.27 73 28.54 72.89C28.81 72.78 32.76 80.75 37.36 90.72C41.96 100.69 45.46 108.89 45.19 109Z" fill="#A6E9F4"/>
<path opacity="0.2" d="M45.1704 109C45.1704 109.13 42.5404 108.76 38.7804 106.86C36.5959 105.732 34.577 104.308 32.7804 102.63C30.5638 100.547 28.762 98.0636 27.4704 95.31C26.195 92.542 25.4877 89.5462 25.3904 86.5C25.3069 84.0351 25.5524 81.5701 26.1204 79.17C27.1204 75.09 28.4504 72.83 28.5704 72.9C28.6904 72.97 27.6404 75.3 26.8804 79.33C26.4335 81.6753 26.2723 84.066 26.4004 86.45C26.5459 89.3524 27.2451 92.2003 28.4604 94.84C29.6916 97.4734 31.385 99.8646 33.4604 101.9C35.1772 103.556 37.0916 104.993 39.1604 106.18C42.7104 108.2 45.2204 108.83 45.1704 109Z" fill="#A6E9F4"/>
<path opacity="0.2" d="M28.9404 72.7001C28.9404 72.5601 31.5804 72.9301 35.3304 74.8401C37.5161 75.9663 39.5353 77.3898 41.3304 79.0701C43.5463 81.1533 45.3479 83.637 46.6404 86.3901C47.9123 89.1593 48.6194 92.1544 48.7204 95.2001C48.8001 97.6615 48.5546 100.123 47.9904 102.52C46.9904 106.61 45.6604 108.87 45.5404 108.8C45.4204 108.73 46.4704 106.39 47.2304 102.36C47.6777 100.015 47.8389 97.6241 47.7104 95.2401C47.5577 92.3387 46.8588 89.4922 45.6504 86.8501C44.4143 84.2196 42.7214 81.8293 40.6504 79.7901C38.9509 78.1386 37.053 76.7043 35.0004 75.5201C31.4004 73.4901 28.9004 72.8601 28.9404 72.7001Z" fill="#A6E9F4"/>
</g>
<path d="M125.48 142.42C125.451 142.448 125.428 142.481 125.413 142.518C125.397 142.555 125.389 142.595 125.389 142.635C125.389 142.675 125.397 142.715 125.413 142.752C125.428 142.789 125.451 142.822 125.48 142.85" fill="#FBB040"/>
<path d="M124.58 140.89L124.13 140.38C124.102 140.351 124.069 140.328 124.032 140.313C123.995 140.297 123.955 140.289 123.915 140.289C123.875 140.289 123.835 140.297 123.798 140.313C123.761 140.328 123.728 140.351 123.7 140.38C123.645 140.436 123.614 140.511 123.614 140.59C123.614 140.668 123.645 140.744 123.7 140.8L124.15 141.32C124.178 141.349 124.211 141.372 124.248 141.387C124.285 141.403 124.325 141.411 124.365 141.411C124.405 141.411 124.445 141.403 124.482 141.387C124.519 141.372 124.552 141.349 124.58 141.32C124.636 141.262 124.667 141.185 124.667 141.105C124.667 141.025 124.636 140.948 124.58 140.89Z" fill="#FBB040"/>
<path d="M122.77 138.84L122.31 138.33C122.284 138.3 122.251 138.276 122.215 138.26C122.179 138.244 122.14 138.235 122.1 138.235C122.06 138.235 122.021 138.244 121.985 138.26C121.948 138.276 121.916 138.3 121.89 138.33C121.861 138.357 121.839 138.39 121.823 138.426C121.808 138.462 121.8 138.501 121.8 138.54C121.8 138.579 121.808 138.618 121.823 138.654C121.839 138.69 121.861 138.723 121.89 138.75L122.35 139.25C122.377 139.28 122.41 139.304 122.447 139.32C122.484 139.337 122.524 139.345 122.565 139.345C122.605 139.345 122.645 139.337 122.682 139.32C122.719 139.304 122.753 139.28 122.78 139.25C122.83 139.193 122.858 139.119 122.856 139.043C122.854 138.967 122.823 138.894 122.77 138.84Z" fill="#FBB040"/>
<path d="M120.92 136.82L120.45 136.32C120.392 136.264 120.315 136.233 120.235 136.233C120.155 136.233 120.078 136.264 120.02 136.32C119.991 136.348 119.968 136.381 119.953 136.418C119.937 136.455 119.929 136.495 119.929 136.535C119.929 136.575 119.937 136.615 119.953 136.652C119.968 136.689 119.991 136.722 120.02 136.75L120.49 137.25C120.518 137.279 120.551 137.302 120.587 137.318C120.624 137.334 120.663 137.343 120.703 137.344C120.743 137.345 120.783 137.338 120.82 137.324C120.857 137.309 120.891 137.288 120.92 137.26C120.949 137.232 120.972 137.199 120.988 137.163C121.004 137.126 121.013 137.087 121.014 137.047C121.015 137.007 121.008 136.967 120.994 136.93C120.979 136.893 120.958 136.859 120.93 136.83L120.92 136.82Z" fill="#FBB040"/>
<path d="M119 134.86L118.51 134.37C118.452 134.314 118.375 134.283 118.295 134.283C118.215 134.283 118.138 134.314 118.08 134.37C118.051 134.398 118.028 134.431 118.013 134.468C117.997 134.505 117.989 134.545 117.989 134.585C117.989 134.625 117.997 134.665 118.013 134.702C118.028 134.739 118.051 134.772 118.08 134.8L118.57 135.28C118.627 135.337 118.704 135.369 118.785 135.369C118.866 135.369 118.943 135.337 119 135.28C119.057 135.223 119.089 135.146 119.089 135.065C119.089 134.984 119.057 134.907 119 134.85V134.86Z" fill="#FBB040"/>
<path d="M117 133L116.49 132.53C116.43 132.476 116.351 132.447 116.271 132.451C116.19 132.455 116.114 132.49 116.06 132.55C116.005 132.61 115.977 132.688 115.981 132.769C115.985 132.85 116.02 132.926 116.08 132.98L116.59 133.43C116.616 133.464 116.65 133.491 116.688 133.511C116.726 133.53 116.768 133.542 116.811 133.543C116.854 133.545 116.897 133.538 116.937 133.522C116.977 133.506 117.013 133.482 117.042 133.451C117.072 133.42 117.094 133.383 117.109 133.342C117.123 133.302 117.128 133.258 117.124 133.216C117.12 133.173 117.107 133.132 117.085 133.094C117.064 133.057 117.035 133.025 117 133Z" fill="#FBB040"/>
<path d="M115 131.14L114.47 130.7C114.412 130.644 114.335 130.613 114.255 130.613C114.175 130.613 114.098 130.644 114.04 130.7C114.011 130.728 113.988 130.761 113.973 130.798C113.957 130.835 113.949 130.875 113.949 130.915C113.949 130.955 113.957 130.995 113.973 131.032C113.988 131.069 114.011 131.102 114.04 131.13L114.56 131.56C114.623 131.604 114.701 131.623 114.777 131.613C114.854 131.603 114.924 131.565 114.974 131.507C115.024 131.448 115.05 131.373 115.047 131.296C115.045 131.219 115.014 131.145 114.96 131.09L115 131.14Z" fill="#FBB040"/>
<path d="M112.84 129.41L112.29 129C112.225 128.952 112.143 128.931 112.063 128.942C111.982 128.953 111.909 128.996 111.86 129.06C111.814 129.126 111.795 129.207 111.806 129.287C111.817 129.366 111.858 129.439 111.92 129.49L112.46 129.9C112.492 129.925 112.528 129.944 112.567 129.954C112.607 129.965 112.648 129.968 112.688 129.962C112.728 129.956 112.767 129.943 112.801 129.922C112.836 129.901 112.866 129.873 112.89 129.84C112.939 129.776 112.962 129.695 112.952 129.615C112.943 129.535 112.903 129.461 112.84 129.41Z" fill="#FBB040"/>
<path d="M110.61 127.8L110.04 127.42C110.006 127.398 109.968 127.382 109.927 127.375C109.887 127.367 109.846 127.367 109.806 127.376C109.766 127.384 109.728 127.4 109.695 127.423C109.661 127.446 109.632 127.476 109.61 127.51C109.568 127.578 109.554 127.66 109.57 127.738C109.587 127.816 109.634 127.885 109.7 127.93L110.27 128.31C110.338 128.356 110.421 128.374 110.501 128.359C110.582 128.344 110.653 128.298 110.7 128.23C110.743 128.16 110.757 128.077 110.74 127.997C110.724 127.917 110.677 127.847 110.61 127.8Z" fill="#FBB040"/>
<path d="M108.3 126.32L107.7 125.97C107.629 125.932 107.546 125.922 107.468 125.943C107.39 125.963 107.323 126.012 107.28 126.08C107.242 126.151 107.232 126.234 107.253 126.311C107.273 126.389 107.322 126.457 107.39 126.5L107.97 126.84C108.004 126.861 108.043 126.875 108.083 126.881C108.123 126.887 108.164 126.885 108.203 126.875C108.243 126.865 108.279 126.846 108.311 126.822C108.343 126.797 108.37 126.765 108.39 126.73C108.429 126.663 108.441 126.583 108.425 126.507C108.408 126.431 108.363 126.365 108.3 126.32Z" fill="#FBB040"/>
<path d="M105.9 125L105.29 124.68C105.255 124.661 105.216 124.649 105.176 124.646C105.136 124.642 105.096 124.646 105.057 124.658C105.019 124.671 104.984 124.69 104.953 124.716C104.923 124.742 104.898 124.774 104.88 124.81C104.861 124.846 104.849 124.886 104.845 124.926C104.841 124.967 104.846 125.008 104.858 125.047C104.87 125.086 104.889 125.122 104.916 125.154C104.942 125.185 104.974 125.211 105.01 125.23L105.61 125.54C105.682 125.577 105.765 125.584 105.842 125.56C105.919 125.536 105.983 125.482 106.02 125.41C106.057 125.338 106.064 125.255 106.04 125.178C106.015 125.101 105.962 125.037 105.89 125H105.9Z" fill="#FBB040"/>
<path d="M103.44 123.76L102.81 123.48C102.773 123.463 102.732 123.454 102.692 123.453C102.651 123.453 102.61 123.46 102.572 123.475C102.534 123.489 102.499 123.512 102.469 123.54C102.44 123.568 102.416 123.602 102.4 123.64C102.384 123.677 102.375 123.716 102.374 123.756C102.373 123.797 102.381 123.837 102.395 123.874C102.41 123.911 102.433 123.945 102.461 123.974C102.489 124.002 102.523 124.025 102.56 124.04L103.18 124.31C103.218 124.327 103.258 124.336 103.299 124.336C103.34 124.337 103.38 124.33 103.418 124.315C103.457 124.3 103.491 124.278 103.521 124.25C103.55 124.221 103.574 124.187 103.59 124.15C103.616 124.078 103.615 123.999 103.588 123.927C103.56 123.856 103.508 123.796 103.44 123.76Z" fill="#FBB040"/>
<path d="M100.91 122.69L100.26 122.44C100.222 122.426 100.183 122.419 100.143 122.42C100.103 122.422 100.063 122.431 100.027 122.448C99.9906 122.465 99.958 122.488 99.931 122.518C99.904 122.548 99.8832 122.582 99.8699 122.62C99.8537 122.657 99.8453 122.697 99.8452 122.738C99.8451 122.779 99.8532 122.819 99.8691 122.856C99.885 122.894 99.9083 122.928 99.9377 122.956C99.9671 122.984 100.002 123.006 100.04 123.02L100.67 123.27C100.708 123.284 100.749 123.291 100.789 123.29C100.83 123.289 100.87 123.28 100.907 123.263C100.944 123.246 100.978 123.222 101.006 123.193C101.034 123.163 101.055 123.128 101.07 123.09C101.1 123.016 101.101 122.932 101.071 122.858C101.041 122.783 100.983 122.723 100.91 122.69Z" fill="#FBB040"/>
<path d="M98.3202 121.76L97.6702 121.55C97.6303 121.529 97.5861 121.516 97.5409 121.514C97.4956 121.511 97.4504 121.518 97.4083 121.535C97.3662 121.552 97.3283 121.578 97.2973 121.611C97.2663 121.644 97.2429 121.683 97.2288 121.727C97.2147 121.77 97.2102 121.815 97.2156 121.86C97.2211 121.905 97.2363 121.949 97.2603 121.987C97.2843 122.025 97.3164 122.058 97.3544 122.083C97.3924 122.108 97.4353 122.124 97.4802 122.13L98.1302 122.33C98.2084 122.355 98.2935 122.348 98.3666 122.311C98.4398 122.273 98.495 122.208 98.5202 122.13C98.5395 122.055 98.5296 121.975 98.4926 121.906C98.4555 121.837 98.394 121.785 98.3202 121.76Z" fill="#FBB040"/>
<path d="M95.6898 121L95.0298 120.82C94.9904 120.809 94.9493 120.807 94.9088 120.812C94.8684 120.817 94.8294 120.831 94.7941 120.851C94.7588 120.872 94.7279 120.899 94.7031 120.931C94.6784 120.964 94.6602 121.001 94.6498 121.04C94.6378 121.079 94.634 121.121 94.6387 121.162C94.6434 121.203 94.6565 121.242 94.6771 121.278C94.6977 121.314 94.7255 121.345 94.7586 121.369C94.7918 121.393 94.8296 121.411 94.8698 121.42L95.5298 121.59C95.5699 121.6 95.6116 121.603 95.6526 121.597C95.6935 121.591 95.7329 121.577 95.7683 121.555C95.8037 121.534 95.8345 121.505 95.8588 121.472C95.8831 121.438 95.9004 121.4 95.9098 121.36C95.9202 121.322 95.9227 121.282 95.9171 121.243C95.9115 121.204 95.898 121.166 95.8774 121.133C95.8568 121.099 95.8296 121.07 95.7973 121.047C95.765 121.024 95.7284 121.008 95.6898 121Z" fill="#FBB040"/>
<path d="M93 120.32L92.33 120.18C92.29 120.171 92.2486 120.171 92.2082 120.178C92.1678 120.185 92.1293 120.2 92.0949 120.223C92.0605 120.245 92.0309 120.274 92.0077 120.308C91.9845 120.342 91.9684 120.38 91.96 120.42C91.945 120.501 91.9615 120.584 92.0061 120.653C92.0508 120.722 92.1202 120.771 92.2 120.79L92.86 120.93C92.9407 120.945 93.0241 120.929 93.093 120.884C93.1619 120.839 93.2109 120.77 93.23 120.69C93.2404 120.651 93.2426 120.609 93.2365 120.569C93.2304 120.529 93.2162 120.49 93.1946 120.456C93.1731 120.421 93.1448 120.391 93.1113 120.368C93.0778 120.344 93.04 120.328 93 120.32Z" fill="#FBB040"/>
<path d="M90.3198 119.81L89.6398 119.71C89.559 119.699 89.4769 119.719 89.4114 119.768C89.3459 119.817 89.3022 119.889 89.2898 119.97C89.2781 120.052 89.2987 120.135 89.3472 120.202C89.3957 120.27 89.4683 120.315 89.5498 120.33L90.2198 120.43C90.26 120.437 90.3012 120.436 90.3409 120.426C90.3807 120.417 90.418 120.4 90.4508 120.375C90.4836 120.351 90.511 120.32 90.5315 120.285C90.552 120.25 90.565 120.211 90.5698 120.17C90.5818 120.089 90.5626 120.007 90.5161 119.94C90.4697 119.874 90.3995 119.827 90.3198 119.81Z" fill="#FBB040"/>
<path d="M87.5999 119.46L86.9099 119.39C86.8692 119.386 86.828 119.39 86.7888 119.402C86.7496 119.414 86.7132 119.433 86.6816 119.459C86.65 119.485 86.6238 119.517 86.6047 119.553C86.5855 119.59 86.5737 119.629 86.5699 119.67C86.5658 119.711 86.5698 119.752 86.5816 119.791C86.5935 119.83 86.613 119.867 86.6391 119.898C86.6651 119.93 86.6971 119.956 86.7333 119.975C86.7695 119.994 86.8092 120.006 86.8499 120.01L87.5199 120.08C87.6022 120.088 87.6842 120.063 87.7479 120.01C87.8117 119.958 87.852 119.882 87.8599 119.8C87.8679 119.718 87.8429 119.636 87.7904 119.572C87.7378 119.508 87.6622 119.468 87.5799 119.46H87.5999Z" fill="#FBB040"/>
<path d="M84.86 119.25H84.17C84.1293 119.247 84.0884 119.253 84.0498 119.266C84.0111 119.279 83.9754 119.299 83.9448 119.326C83.9141 119.353 83.8891 119.386 83.8711 119.423C83.8531 119.459 83.8426 119.499 83.84 119.54C83.8373 119.623 83.8671 119.704 83.9231 119.766C83.9791 119.827 84.0569 119.865 84.14 119.87H84.82C84.9033 119.873 84.9843 119.843 85.0459 119.787C85.1075 119.731 85.1449 119.653 85.15 119.57C85.1528 119.489 85.1241 119.411 85.0699 119.351C85.0158 119.291 84.9405 119.255 84.86 119.25Z" fill="#FBB040"/>
<path d="M82.1099 119.18H81.4199C81.3376 119.18 81.2588 119.213 81.2007 119.271C81.1425 119.329 81.1099 119.408 81.1099 119.49C81.1098 119.532 81.1182 119.573 81.1344 119.611C81.1506 119.649 81.1743 119.684 81.2042 119.713C81.234 119.742 81.2694 119.764 81.3082 119.779C81.3469 119.794 81.3883 119.801 81.4299 119.8H82.1199C82.1659 119.808 82.2132 119.806 82.2585 119.794C82.3037 119.782 82.3457 119.76 82.3816 119.73C82.4175 119.7 82.4463 119.663 82.4661 119.62C82.486 119.578 82.4962 119.532 82.4962 119.485C82.4962 119.438 82.486 119.392 82.4661 119.35C82.4463 119.307 82.4175 119.27 82.3816 119.24C82.3457 119.21 82.3037 119.188 82.2585 119.176C82.2132 119.164 82.1659 119.162 82.1199 119.17L82.1099 119.18Z" fill="#FBB040"/>
<path d="M79.3601 119.26H78.6801C78.5969 119.265 78.5191 119.303 78.4631 119.364C78.4071 119.426 78.3773 119.507 78.3801 119.59C78.39 119.672 78.4305 119.748 78.4935 119.801C78.5565 119.855 78.6373 119.883 78.7201 119.88H79.4001C79.4461 119.888 79.4934 119.886 79.5387 119.874C79.5839 119.862 79.6259 119.84 79.6618 119.81C79.6977 119.78 79.7265 119.743 79.7463 119.7C79.7661 119.658 79.7764 119.612 79.7764 119.565C79.7764 119.518 79.7661 119.472 79.7463 119.43C79.7265 119.387 79.6977 119.35 79.6618 119.32C79.6259 119.29 79.5839 119.268 79.5387 119.256C79.4934 119.244 79.4461 119.242 79.4001 119.25L79.3601 119.26Z" fill="#FBB040"/>
<path d="M76.6298 119.49L75.9399 119.57C75.8643 119.589 75.7984 119.636 75.7546 119.7C75.7107 119.765 75.6919 119.843 75.7018 119.92C75.7116 119.998 75.7493 120.069 75.8079 120.12C75.8665 120.172 75.9418 120.2 76.0198 120.2L76.6998 120.12C76.7831 120.11 76.859 120.068 76.9114 120.002C76.9637 119.937 76.9883 119.853 76.9799 119.77C76.9762 119.728 76.9641 119.688 76.9443 119.651C76.9245 119.614 76.8974 119.581 76.8647 119.555C76.832 119.529 76.7943 119.51 76.754 119.499C76.7136 119.487 76.6714 119.484 76.6298 119.49Z" fill="#FBB040"/>
<path d="M73.9 119.87L73.23 119.98C73.1491 119.997 73.078 120.045 73.0318 120.114C72.9855 120.183 72.9676 120.266 72.9818 120.348C72.9961 120.429 73.0413 120.502 73.1081 120.551C73.1749 120.6 73.258 120.621 73.34 120.61L74.01 120.5C74.0935 120.485 74.1678 120.438 74.2165 120.369C74.2653 120.299 74.2845 120.214 74.27 120.13C74.264 120.088 74.2495 120.048 74.2274 120.012C74.2053 119.975 74.176 119.944 74.1413 119.92C74.1066 119.896 74.0673 119.879 74.0258 119.87C73.9843 119.861 73.9415 119.861 73.9 119.87Z" fill="#FBB040"/>
<path d="M71.2102 120.39L70.5402 120.54C70.4662 120.566 70.4045 120.618 70.3666 120.687C70.3287 120.756 70.3173 120.836 70.3345 120.912C70.3518 120.989 70.3965 121.056 70.4602 121.102C70.5239 121.148 70.6022 121.168 70.6802 121.16L71.3402 121.01C71.3851 121.005 71.4285 120.991 71.4676 120.968C71.5066 120.946 71.5404 120.915 71.5667 120.878C71.5931 120.842 71.6113 120.8 71.6203 120.755C71.6293 120.711 71.6287 120.665 71.6188 120.621C71.6088 120.577 71.5897 120.536 71.5625 120.5C71.5354 120.464 71.5009 120.434 71.4614 120.412C71.4218 120.39 71.3781 120.377 71.3331 120.373C71.2881 120.369 71.2428 120.375 71.2002 120.39H71.2102Z" fill="#FBB040"/>
<path d="M68.5398 121.06L67.8798 121.25C67.8073 121.281 67.7486 121.337 67.7149 121.408C67.6812 121.479 67.6749 121.56 67.6972 121.635C67.7194 121.711 67.7687 121.776 67.8356 121.817C67.9025 121.858 67.9823 121.874 68.0598 121.86L68.7098 121.67C68.7906 121.645 68.8581 121.588 68.8975 121.513C68.9368 121.438 68.9449 121.351 68.9198 121.27C68.8966 121.192 68.8438 121.127 68.7727 121.087C68.7017 121.048 68.6181 121.038 68.5398 121.06Z" fill="#FBB040"/>
<path d="M65.92 121.87L65.27 122.1C65.226 122.11 65.1845 122.129 65.1483 122.156C65.1122 122.183 65.0822 122.218 65.0602 122.257C65.0383 122.296 65.025 122.34 65.0212 122.385C65.0173 122.43 65.0231 122.475 65.038 122.518C65.0529 122.561 65.0767 122.6 65.1077 122.632C65.1388 122.665 65.1764 122.691 65.2182 122.708C65.2599 122.725 65.3048 122.734 65.35 122.732C65.3951 122.731 65.4394 122.72 65.48 122.7L66.12 122.47C66.1972 122.441 66.26 122.383 66.2954 122.308C66.3308 122.234 66.336 122.148 66.31 122.07C66.2827 121.993 66.2271 121.93 66.1546 121.893C66.0822 121.856 65.9983 121.848 65.92 121.87Z" fill="#FBB040"/>
<path d="M63.3398 122.83L62.7098 123.09C62.633 123.125 62.572 123.188 62.5387 123.265C62.5054 123.343 62.5023 123.43 62.5298 123.51C62.5462 123.549 62.57 123.584 62.6 123.613C62.63 123.643 62.6655 123.666 62.7045 123.682C62.7435 123.698 62.7853 123.706 62.8274 123.705C62.8695 123.705 62.9111 123.696 62.9498 123.68L63.5798 123.42C63.6564 123.385 63.7167 123.322 63.7483 123.244C63.7799 123.166 63.7804 123.078 63.7498 123C63.7148 122.926 63.6535 122.867 63.5776 122.836C63.5018 122.804 63.417 122.802 63.3398 122.83Z" fill="#FBB040"/>
<path d="M60.8201 123.93L60.2101 124.23C60.1718 124.248 60.1375 124.274 60.1092 124.305C60.0809 124.337 60.0592 124.374 60.0452 124.414C60.0312 124.454 60.0254 124.496 60.0279 124.538C60.0305 124.581 60.0414 124.622 60.0601 124.66C60.0772 124.698 60.1018 124.732 60.1324 124.76C60.1631 124.788 60.199 124.81 60.2382 124.824C60.2774 124.838 60.319 124.844 60.3606 124.842C60.4021 124.839 60.4428 124.828 60.4801 124.81L61.0901 124.51C61.1283 124.492 61.1626 124.466 61.1909 124.435C61.2192 124.403 61.241 124.366 61.2549 124.326C61.2689 124.286 61.2747 124.244 61.2722 124.202C61.2696 124.159 61.2587 124.118 61.2401 124.08C61.1999 124.009 61.1353 123.954 61.0581 123.927C60.9809 123.899 60.8964 123.9 60.8201 123.93Z" fill="#FBB040"/>
<path d="M58.37 125.18L57.77 125.51C57.6958 125.551 57.6409 125.62 57.6174 125.702C57.594 125.783 57.6039 125.871 57.645 125.945C57.6861 126.019 57.7551 126.074 57.8366 126.098C57.9182 126.121 58.0058 126.111 58.08 126.07L58.67 125.74C58.7445 125.698 58.7997 125.628 58.824 125.546C58.8483 125.464 58.8397 125.376 58.8 125.3C58.7581 125.228 58.6897 125.175 58.6094 125.153C58.5291 125.13 58.4432 125.14 58.37 125.18Z" fill="#FBB040"/>
<path d="M55.9998 126.56L55.4198 126.93C55.3834 126.951 55.3517 126.98 55.3268 127.014C55.3019 127.048 55.2842 127.087 55.2748 127.128C55.2654 127.17 55.2646 127.212 55.2723 127.254C55.2801 127.295 55.2962 127.335 55.3198 127.37C55.365 127.441 55.4367 127.492 55.5191 127.511C55.6016 127.529 55.6881 127.515 55.7598 127.47L56.3298 127.11C56.4012 127.065 56.4518 126.993 56.4705 126.911C56.4893 126.828 56.4746 126.742 56.4298 126.67C56.4091 126.634 56.3815 126.603 56.3486 126.578C56.3156 126.553 56.278 126.535 56.238 126.524C56.1979 126.514 56.1562 126.512 56.1153 126.518C56.0744 126.524 56.0351 126.538 55.9998 126.56Z" fill="#FBB040"/>
<path d="M53.7002 128.07L53.1402 128.47C53.1058 128.495 53.0767 128.526 53.0545 128.562C53.0324 128.598 53.0176 128.639 53.0111 128.68C53.0046 128.722 53.0065 128.765 53.0166 128.806C53.0267 128.847 53.045 128.886 53.0702 128.92C53.094 128.954 53.1245 128.983 53.1597 129.005C53.195 129.027 53.2343 129.042 53.2753 129.048C53.3164 129.055 53.3583 129.053 53.3987 129.043C53.439 129.033 53.4769 129.015 53.5102 128.99L54.0602 128.6C54.0953 128.576 54.1253 128.545 54.1484 128.509C54.1715 128.474 54.1872 128.434 54.1947 128.392C54.2021 128.35 54.2011 128.307 54.1918 128.265C54.1824 128.224 54.1649 128.185 54.1402 128.15C54.0903 128.084 54.0173 128.039 53.9358 128.024C53.8543 128.009 53.7702 128.026 53.7002 128.07Z" fill="#FBB040"/>
<path d="M51.49 129.69L50.94 130.1C50.8723 130.152 50.828 130.228 50.8168 130.313C50.8055 130.397 50.8283 130.482 50.88 130.55C50.9317 130.618 51.0082 130.662 51.0926 130.673C51.1769 130.684 51.2624 130.662 51.33 130.61L51.87 130.2C51.9089 130.177 51.9425 130.147 51.9688 130.11C51.995 130.073 52.0132 130.032 52.0222 129.988C52.0312 129.943 52.0307 129.898 52.0209 129.854C52.0111 129.81 51.9921 129.769 51.9652 129.732C51.9383 129.696 51.9041 129.666 51.8648 129.644C51.8255 129.622 51.782 129.609 51.7371 129.605C51.6922 129.601 51.647 129.606 51.6045 129.621C51.5619 129.636 51.5229 129.659 51.49 129.69Z" fill="#FBB040"/>
<path d="M49.3199 131.36L48.7799 131.78C48.747 131.806 48.7197 131.839 48.6994 131.876C48.6791 131.912 48.6663 131.953 48.6616 131.995C48.657 132.036 48.6606 132.079 48.6723 132.119C48.684 132.159 48.7036 132.197 48.7299 132.23C48.783 132.296 48.8592 132.338 48.9429 132.35C49.0266 132.361 49.1114 132.339 49.1799 132.29L49.7099 131.87C49.7494 131.847 49.7835 131.816 49.8099 131.779C49.8364 131.741 49.8546 131.699 49.8632 131.654C49.8719 131.609 49.8708 131.563 49.8602 131.519C49.8495 131.474 49.8294 131.433 49.8013 131.397C49.7733 131.36 49.7378 131.331 49.6973 131.31C49.6568 131.289 49.6123 131.276 49.5667 131.274C49.521 131.271 49.4754 131.279 49.4329 131.295C49.3903 131.312 49.3518 131.337 49.3199 131.37V131.36Z" fill="#FBB040"/>
<path d="M47.1698 133L46.6299 133.42C46.5629 133.475 46.5201 133.554 46.5107 133.64C46.5014 133.726 46.5262 133.812 46.5799 133.88C46.6216 133.949 46.6882 134.001 46.7662 134.023C46.8442 134.045 46.9277 134.037 46.9999 134L47.5399 133.58C47.6075 133.527 47.6513 133.449 47.6616 133.364C47.6719 133.279 47.6479 133.193 47.5949 133.125C47.5418 133.057 47.4641 133.014 47.3787 133.003C47.2934 132.993 47.2075 133.017 47.1398 133.07L47.1698 133Z" fill="#FBB040"/>
<path d="M44.9998 134.71L44.4598 135.12C44.3912 135.173 44.3465 135.252 44.3353 135.338C44.3241 135.424 44.3472 135.511 44.3998 135.58C44.4253 135.614 44.4572 135.642 44.4937 135.663C44.5301 135.684 44.5705 135.698 44.6123 135.704C44.6541 135.709 44.6966 135.706 44.7374 135.696C44.7781 135.685 44.8163 135.666 44.8498 135.64L45.3998 135.23C45.4683 135.177 45.513 135.098 45.5242 135.012C45.5355 134.926 45.5123 134.839 45.4598 134.77C45.4342 134.736 45.4023 134.708 45.3658 134.687C45.3294 134.666 45.2891 134.652 45.2472 134.646C45.2054 134.641 45.1629 134.644 45.1221 134.654C45.0814 134.665 45.0432 134.684 45.0098 134.71H44.9998Z" fill="#FBB040"/>
<path d="M42.83 136.33L42.27 136.72C42.1997 136.769 42.1518 136.844 42.1368 136.928C42.1218 137.013 42.141 137.1 42.19 137.17C42.2391 137.24 42.3141 137.288 42.3985 137.303C42.4828 137.318 42.5697 137.299 42.64 137.25L43.2 136.86C43.2352 136.836 43.2652 136.805 43.2883 136.769C43.3114 136.734 43.3271 136.694 43.3345 136.652C43.342 136.61 43.341 136.567 43.3316 136.525C43.3223 136.484 43.3047 136.445 43.28 136.41C43.257 136.374 43.2266 136.343 43.1909 136.319C43.1552 136.295 43.1149 136.279 43.0726 136.271C43.0303 136.263 42.9869 136.265 42.9451 136.275C42.9034 136.285 42.8642 136.304 42.83 136.33Z" fill="#FBB040"/>
<path d="M40.58 137.85L40 138.21C39.9279 138.257 39.8771 138.331 39.8584 138.415C39.8398 138.499 39.8547 138.587 39.9 138.66C39.9215 138.696 39.9502 138.728 39.9843 138.753C40.0184 138.778 40.0573 138.796 40.0985 138.805C40.1397 138.814 40.1824 138.815 40.2239 138.807C40.2654 138.8 40.305 138.784 40.34 138.76L40.93 138.4C40.9846 138.351 41.0212 138.284 41.0339 138.212C41.0465 138.14 41.0346 138.065 41 138C40.9529 137.928 40.8795 137.877 40.7954 137.858C40.7113 137.84 40.6233 137.855 40.55 137.9L40.58 137.85Z" fill="#FBB040"/>
<path d="M38.2498 139.22L37.6498 139.54C37.605 139.555 37.5641 139.58 37.5297 139.613C37.4954 139.646 37.4685 139.685 37.4509 139.729C37.4333 139.773 37.4253 139.821 37.4276 139.868C37.4299 139.915 37.4424 139.962 37.4641 140.004C37.4859 140.046 37.5165 140.083 37.5538 140.112C37.5911 140.141 37.6343 140.162 37.6804 140.173C37.7265 140.184 37.7744 140.185 37.8209 140.176C37.8674 140.167 37.9114 140.148 37.9498 140.12L38.5598 139.8C38.6047 139.785 38.6456 139.76 38.6799 139.727C38.7143 139.694 38.7412 139.655 38.7588 139.611C38.7764 139.567 38.7843 139.519 38.7821 139.472C38.7798 139.425 38.7673 139.378 38.7456 139.336C38.7238 139.294 38.6932 139.257 38.6559 139.228C38.6186 139.199 38.5754 139.178 38.5293 139.167C38.4832 139.156 38.4353 139.155 38.3888 139.164C38.3423 139.173 38.2983 139.192 38.2598 139.22H38.2498Z" fill="#FBB040"/>
<path d="M35.8099 140.39L35.1899 140.65C35.1104 140.682 35.0467 140.744 35.0129 140.823C34.9792 140.902 34.9781 140.99 35.0099 141.07C35.0418 141.15 35.1039 141.213 35.1826 141.247C35.2614 141.281 35.3504 141.282 35.4299 141.25L36.0699 140.99C36.1169 140.979 36.1611 140.959 36.1992 140.929C36.2374 140.9 36.2686 140.863 36.2908 140.82C36.313 140.777 36.3255 140.73 36.3275 140.682C36.3295 140.634 36.3209 140.586 36.3024 140.541C36.2838 140.497 36.2558 140.457 36.2202 140.424C36.1846 140.392 36.1423 140.367 36.0964 140.353C36.0504 140.339 36.0018 140.335 35.9541 140.341C35.9063 140.347 35.8605 140.364 35.8199 140.39H35.8099Z" fill="#FBB040"/>
<path d="M33.2799 141.29L32.6299 141.46C32.5474 141.483 32.4772 141.538 32.4341 141.612C32.3911 141.686 32.3787 141.774 32.3995 141.858C32.4203 141.941 32.4727 142.013 32.5456 142.058C32.6185 142.103 32.7061 142.118 32.7899 142.1L33.4599 141.92C33.5416 141.894 33.6106 141.839 33.6532 141.765C33.6958 141.691 33.7089 141.603 33.6899 141.52C33.6795 141.478 33.6608 141.439 33.6349 141.404C33.6089 141.37 33.5763 141.341 33.5389 141.32C33.5016 141.298 33.4603 141.285 33.4175 141.279C33.3747 141.274 33.3313 141.278 33.2899 141.29H33.2799Z" fill="#FBB040"/>
<path d="M30.6498 141.84L29.9898 141.92C29.9477 141.925 29.9069 141.938 29.8699 141.959C29.833 141.98 29.8005 142.008 29.7744 142.041C29.7484 142.075 29.7292 142.113 29.7182 142.154C29.7071 142.195 29.7042 142.238 29.7098 142.28C29.7199 142.366 29.7632 142.444 29.8306 142.499C29.8979 142.553 29.9838 142.578 30.0698 142.57L30.7598 142.49C30.8066 142.49 30.8529 142.48 30.8956 142.461C30.9383 142.442 30.9764 142.414 31.0074 142.379C31.0385 142.344 31.0617 142.303 31.0756 142.258C31.0895 142.213 31.0937 142.166 31.088 142.12C31.0823 142.073 31.0667 142.029 31.0424 141.989C31.0181 141.949 30.9856 141.914 30.947 141.888C30.9084 141.861 30.8646 141.843 30.8185 141.835C30.7725 141.827 30.7252 141.829 30.6798 141.84H30.6498Z" fill="#FBB040"/>
<path d="M27.9999 142H27.3299C27.2871 141.997 27.2441 142.003 27.2036 142.018C27.1631 142.032 27.1259 142.054 27.0942 142.083C27.0624 142.112 27.0369 142.147 27.0189 142.186C27.001 142.225 26.9912 142.267 26.9899 142.31C26.9872 142.353 26.9931 142.397 27.0072 142.438C27.0213 142.479 27.0434 142.517 27.0722 142.549C27.101 142.582 27.136 142.608 27.175 142.627C27.2141 142.646 27.2565 142.657 27.2999 142.66H27.9899C28.0374 142.668 28.0861 142.666 28.1326 142.654C28.1791 142.641 28.2224 142.619 28.2593 142.588C28.2962 142.557 28.3259 142.518 28.3462 142.474C28.3666 142.431 28.3771 142.383 28.3771 142.335C28.3771 142.287 28.3666 142.239 28.3462 142.196C28.3259 142.152 28.2962 142.113 28.2593 142.082C28.2224 142.051 28.1791 142.029 28.1326 142.016C28.0861 142.004 28.0374 142.002 27.9899 142.01L27.9999 142Z" fill="#FBB040"/>
<path d="M25.3201 141.69L24.6701 141.55C24.5853 141.532 24.4969 141.548 24.4239 141.595C24.3509 141.642 24.2993 141.715 24.2801 141.8C24.2698 141.842 24.2682 141.886 24.2754 141.928C24.2825 141.971 24.2982 142.012 24.3216 142.048C24.345 142.085 24.3755 142.116 24.4113 142.141C24.4472 142.165 24.4876 142.182 24.5301 142.19L25.2101 142.34C25.2522 142.35 25.2959 142.352 25.3386 142.345C25.3814 142.338 25.4222 142.322 25.4587 142.298C25.4951 142.275 25.5265 142.245 25.5508 142.209C25.5751 142.173 25.5919 142.132 25.6001 142.09C25.618 142.005 25.6018 141.917 25.555 141.844C25.5083 141.771 25.4347 141.719 25.3501 141.7L25.3201 141.69Z" fill="#FBB040"/>
<path d="M22.7402 141L22.1202 140.76C22.0796 140.744 22.0361 140.736 21.9924 140.737C21.9486 140.738 21.9055 140.747 21.8655 140.765C21.8255 140.783 21.7894 140.808 21.7593 140.84C21.7292 140.872 21.7057 140.909 21.6902 140.95C21.6608 141.031 21.6642 141.12 21.6997 141.199C21.7352 141.277 21.8 141.339 21.8802 141.37L22.5302 141.62C22.6112 141.649 22.7004 141.646 22.7789 141.61C22.8574 141.575 22.9189 141.51 22.9502 141.43C22.9662 141.39 22.9739 141.347 22.9729 141.304C22.9719 141.261 22.9623 141.219 22.9445 141.18C22.9268 141.14 22.9013 141.105 22.8697 141.076C22.838 141.047 22.8008 141.024 22.7602 141.01L22.7402 141Z" fill="#FBB040"/>
<path d="M20.2899 139.88L19.6999 139.56C19.6619 139.539 19.62 139.525 19.5767 139.52C19.5335 139.516 19.4897 139.519 19.4478 139.531C19.406 139.543 19.367 139.564 19.333 139.591C19.299 139.618 19.2708 139.652 19.2499 139.69C19.2103 139.766 19.2017 139.854 19.2259 139.936C19.2502 140.018 19.3054 140.088 19.3799 140.13L19.9899 140.47C20.028 140.491 20.0698 140.504 20.1131 140.509C20.1563 140.514 20.2 140.51 20.2418 140.498C20.2836 140.486 20.3226 140.466 20.3566 140.439C20.3906 140.412 20.4189 140.378 20.4399 140.34C20.4609 140.302 20.4742 140.26 20.4791 140.217C20.4839 140.174 20.4802 140.13 20.4681 140.088C20.456 140.046 20.4358 140.007 20.4087 139.973C20.3816 139.939 20.348 139.911 20.3099 139.89L20.2899 139.88Z" fill="#FBB040"/>
<path d="M18 138.48L17.46 138.08C17.3895 138.036 17.305 138.02 17.2233 138.036C17.1417 138.052 17.069 138.098 17.0198 138.165C16.9705 138.232 16.9483 138.315 16.9576 138.397C16.967 138.48 17.0071 138.556 17.07 138.61L17.63 139.02C17.7004 139.072 17.7883 139.093 17.8745 139.08C17.9607 139.067 18.0382 139.02 18.09 138.95C18.1168 138.916 18.1364 138.876 18.1474 138.834C18.1584 138.792 18.1607 138.748 18.1542 138.705C18.1476 138.662 18.1323 138.621 18.1093 138.584C18.0862 138.547 18.0558 138.515 18.02 138.49L18 138.48Z" fill="#FBB040"/>
<path d="M15.8999 136.8L15.3999 136.35C15.3349 136.29 15.2489 136.259 15.1608 136.263C15.0726 136.266 14.9896 136.305 14.9299 136.37C14.8703 136.435 14.8388 136.521 14.8426 136.609C14.8463 136.697 14.8849 136.78 14.9499 136.84L15.4599 137.31C15.5232 137.37 15.6074 137.404 15.6949 137.404C15.7825 137.404 15.8667 137.37 15.9299 137.31C15.9611 137.279 15.9858 137.243 16.0027 137.202C16.0196 137.162 16.0282 137.119 16.0282 137.075C16.0282 137.031 16.0196 136.988 16.0027 136.948C15.9858 136.907 15.9611 136.871 15.9299 136.84L15.8999 136.8Z" fill="#FBB040"/>
<path d="M13.9998 134.9L13.5598 134.39C13.5299 134.359 13.4942 134.335 13.4547 134.318C13.4152 134.301 13.3727 134.292 13.3298 134.292C13.2869 134.292 13.2444 134.301 13.2049 134.318C13.1654 134.335 13.1296 134.359 13.0998 134.39C13.0686 134.421 13.0439 134.457 13.027 134.498C13.0102 134.538 13.0015 134.581 13.0015 134.625C13.0015 134.669 13.0102 134.712 13.027 134.752C13.0439 134.793 13.0686 134.829 13.0998 134.86L13.5498 135.38C13.5805 135.411 13.6171 135.436 13.6574 135.453C13.6978 135.47 13.7411 135.478 13.7848 135.478C13.8285 135.478 13.8718 135.47 13.9122 135.453C13.9525 135.436 13.9891 135.411 14.0198 135.38C14.0803 135.317 14.1141 135.233 14.1141 135.145C14.1141 135.057 14.0803 134.973 14.0198 134.91L13.9998 134.9Z" fill="#FBB040"/>
<path d="M12.3098 132.8L11.9198 132.24C11.8694 132.167 11.7921 132.117 11.7049 132.101C11.6177 132.085 11.5277 132.105 11.4548 132.155C11.3819 132.205 11.3319 132.283 11.316 132.37C11.3001 132.457 11.3194 132.547 11.3698 132.62L11.7698 133.18C11.8202 133.252 11.897 133.3 11.9832 133.315C12.0695 133.33 12.1582 133.31 12.2298 133.26C12.3014 133.21 12.3501 133.133 12.3651 133.047C12.3801 132.96 12.3602 132.872 12.3098 132.8Z" fill="#FBB040"/>
<path d="M10.8501 130.53L10.5201 129.94C10.4991 129.902 10.4708 129.868 10.4368 129.841C10.4028 129.814 10.3638 129.794 10.3221 129.782C10.2803 129.77 10.2365 129.766 10.1933 129.771C10.1501 129.776 10.1082 129.789 10.0701 129.81C10.0321 129.831 9.99848 129.859 9.97134 129.893C9.94419 129.927 9.92401 129.966 9.91194 130.008C9.89987 130.05 9.89614 130.094 9.90098 130.137C9.90582 130.18 9.91912 130.222 9.94014 130.26L10.2701 130.87C10.3126 130.947 10.3838 131.004 10.4682 131.028C10.5526 131.053 10.6432 131.042 10.7201 131C10.797 130.958 10.854 130.886 10.8783 130.802C10.9027 130.718 10.8926 130.627 10.8501 130.55V130.53Z" fill="#FBB040"/>
<path d="M9.64021 128.12L9.37021 127.5C9.35286 127.46 9.32762 127.423 9.29598 127.393C9.26434 127.362 9.22694 127.338 9.18595 127.322C9.14497 127.307 9.10124 127.299 9.05732 127.3C9.0134 127.302 8.97019 127.312 8.93021 127.33C8.89019 127.346 8.8539 127.371 8.8235 127.401C8.79311 127.432 8.76925 127.468 8.75337 127.509C8.73748 127.549 8.7299 127.592 8.73108 127.635C8.73225 127.678 8.74216 127.721 8.76021 127.76L9.03021 128.4C9.06344 128.481 9.12737 128.545 9.20799 128.579C9.2886 128.613 9.37931 128.613 9.46021 128.58C9.54175 128.545 9.60625 128.479 9.63989 128.397C9.67353 128.314 9.67364 128.222 9.64021 128.14V128.12Z" fill="#FBB040"/>
<path d="M8.68018 125.6L8.49018 125C8.46011 124.923 8.40191 124.859 8.32721 124.823C8.25252 124.786 8.16682 124.779 8.08726 124.803C8.00769 124.827 7.9401 124.881 7.89801 124.952C7.85591 125.024 7.8424 125.109 7.86018 125.19L8.06018 125.85C8.07171 125.892 8.09152 125.932 8.11845 125.966C8.14538 126.001 8.1789 126.029 8.21705 126.051C8.2552 126.072 8.29723 126.086 8.34068 126.091C8.38414 126.096 8.42816 126.092 8.47018 126.08C8.55616 126.055 8.62858 125.996 8.67166 125.917C8.71474 125.839 8.72499 125.746 8.70018 125.66L8.68018 125.6Z" fill="#FBB040"/>
<path d="M7.99982 123L7.86982 122.34C7.84838 122.254 7.7952 122.179 7.72098 122.131C7.64676 122.083 7.55701 122.065 7.46982 122.08C7.42705 122.088 7.38636 122.105 7.3501 122.129C7.31384 122.153 7.28272 122.185 7.25855 122.221C7.23438 122.257 7.21762 122.298 7.20926 122.34C7.2009 122.383 7.20109 122.427 7.20982 122.47L7.33982 123.14C7.35902 123.227 7.41173 123.303 7.48656 123.352C7.5614 123.401 7.65236 123.418 7.73982 123.4C7.78432 123.393 7.82687 123.377 7.86469 123.352C7.9025 123.328 7.93473 123.296 7.95927 123.258C7.98381 123.22 8.00011 123.178 8.0071 123.133C8.01408 123.089 8.0116 123.043 7.99982 123Z" fill="#FBB040"/>
<path d="M7.55989 120.33L7.48989 119.66C7.47981 119.572 7.4354 119.491 7.3662 119.434C7.29701 119.378 7.20857 119.352 7.11989 119.36C7.03138 119.37 6.95036 119.415 6.89426 119.484C6.83816 119.553 6.81145 119.641 6.81989 119.73L6.88989 120.42C6.89997 120.509 6.94438 120.59 7.01357 120.646C7.08276 120.702 7.17121 120.728 7.25989 120.72C7.34839 120.71 7.42941 120.666 7.48551 120.596C7.54161 120.527 7.56832 120.439 7.55989 120.35V120.33Z" fill="#FBB040"/>
<path d="M7.36006 117.64V116.96C7.36853 116.911 7.36622 116.861 7.35329 116.813C7.34036 116.765 7.31712 116.721 7.2852 116.683C7.25329 116.645 7.21347 116.615 7.16853 116.594C7.12359 116.573 7.07463 116.562 7.02506 116.562C6.97549 116.562 6.92652 116.573 6.88159 116.594C6.83665 116.615 6.79683 116.645 6.76491 116.683C6.733 116.721 6.70976 116.765 6.69683 116.813C6.6839 116.861 6.68159 116.911 6.69006 116.96V117.65C6.68717 117.737 6.71769 117.822 6.77535 117.887C6.83301 117.952 6.91343 117.992 7.00006 118C7.04471 117.999 7.08868 117.989 7.12943 117.97C7.17019 117.952 7.20694 117.926 7.23759 117.893C7.26824 117.861 7.29218 117.823 7.30804 117.781C7.32391 117.739 7.33139 117.695 7.33006 117.65L7.36006 117.64Z" fill="#FBB040"/>
<path d="M7.38008 114.93V114.26C7.38278 114.216 7.37657 114.172 7.36182 114.13C7.34708 114.088 7.3241 114.05 7.29424 114.017C7.26439 113.985 7.22828 113.958 7.18805 113.94C7.14782 113.921 7.1043 113.911 7.06008 113.91C7.01672 113.907 6.97326 113.913 6.93219 113.927C6.89111 113.941 6.85323 113.964 6.82071 113.992C6.78819 114.021 6.76168 114.056 6.7427 114.095C6.72371 114.134 6.71263 114.177 6.71008 114.22V114.91C6.70161 114.959 6.70392 115.009 6.71685 115.057C6.72978 115.105 6.75302 115.149 6.78493 115.187C6.81685 115.225 6.85667 115.255 6.90161 115.276C6.94654 115.297 6.99551 115.308 7.04508 115.308C7.09465 115.308 7.14361 115.297 7.18855 115.276C7.23349 115.255 7.27331 115.225 7.30522 115.187C7.33714 115.149 7.36038 115.105 7.37331 115.057C7.38624 115.009 7.38855 114.959 7.38008 114.91V114.93Z" fill="#FBB040"/>
<path d="M7.61988 112.24L7.70988 111.57C7.72127 111.481 7.69722 111.392 7.64293 111.32C7.58864 111.249 7.5085 111.202 7.41988 111.19C7.33157 111.181 7.24321 111.206 7.17266 111.26C7.10211 111.314 7.05465 111.392 7.03988 111.48H6.99988L6.90988 112.16C6.90284 112.204 6.90484 112.249 6.91577 112.293C6.92669 112.336 6.94631 112.377 6.97343 112.412C7.00055 112.448 7.0346 112.477 7.07353 112.499C7.11246 112.521 7.15544 112.535 7.19988 112.54C7.28863 112.551 7.37831 112.527 7.44944 112.473C7.52058 112.419 7.56745 112.339 7.57988 112.25L7.61988 112.24Z" fill="#FBB040"/>
<path d="M8.05992 109.57L8.19992 108.91C8.21574 108.864 8.22168 108.816 8.21735 108.768C8.21302 108.72 8.19853 108.673 8.17482 108.631C8.15111 108.589 8.11874 108.553 8.07985 108.524C8.04097 108.496 7.99646 108.476 7.94927 108.466C7.90209 108.456 7.85332 108.456 7.8062 108.466C7.75908 108.477 7.71469 108.497 7.67597 108.526C7.63725 108.554 7.6051 108.591 7.58164 108.633C7.55818 108.675 7.54396 108.722 7.53992 108.77L7.39992 109.45C7.38969 109.493 7.38836 109.538 7.39601 109.582C7.40366 109.626 7.42013 109.668 7.44443 109.706C7.46873 109.743 7.50035 109.775 7.53739 109.8C7.57442 109.825 7.61611 109.842 7.65992 109.85C7.74711 109.865 7.83686 109.847 7.91108 109.799C7.9853 109.75 8.03848 109.676 8.05992 109.59V109.57Z" fill="#FBB040"/>
<path d="M8.69023 106.94L8.88023 106.29C8.89754 106.246 8.9055 106.199 8.9036 106.152C8.9017 106.105 8.88998 106.058 8.86919 106.016C8.8484 105.973 8.819 105.936 8.78285 105.905C8.74671 105.875 8.70462 105.852 8.65927 105.839C8.61392 105.826 8.5663 105.822 8.51946 105.828C8.47262 105.835 8.42757 105.85 8.38721 105.875C8.34684 105.899 8.31203 105.932 8.285 105.971C8.25797 106.01 8.23932 106.054 8.23023 106.1L8.04023 106.77C8.02151 106.815 8.0125 106.863 8.01379 106.911C8.01509 106.959 8.02665 107.007 8.04773 107.05C8.0688 107.094 8.09889 107.132 8.136 107.163C8.17311 107.194 8.21638 107.217 8.26293 107.229C8.30949 107.242 8.35825 107.245 8.40598 107.238C8.45371 107.23 8.49931 107.213 8.53974 107.186C8.58017 107.16 8.6145 107.125 8.64045 107.084C8.6664 107.044 8.68337 106.998 8.69023 106.95V106.94Z" fill="#FBB040"/>
<path d="M9.49989 104.36L9.72989 103.72C9.76039 103.635 9.75592 103.542 9.71748 103.46C9.67903 103.379 9.60976 103.316 9.52489 103.285C9.44002 103.255 9.34651 103.259 9.26493 103.297C9.18335 103.336 9.12039 103.405 9.08989 103.49L8.84989 104.14C8.83425 104.182 8.82731 104.227 8.82949 104.271C8.83167 104.316 8.84293 104.36 8.86257 104.4C8.88222 104.44 8.90984 104.476 8.94376 104.505C8.97768 104.535 9.01719 104.557 9.05989 104.57C9.10119 104.586 9.14526 104.593 9.18948 104.592C9.2337 104.59 9.27715 104.58 9.31727 104.561C9.35738 104.543 9.39334 104.516 9.42299 104.483C9.45264 104.45 9.47539 104.412 9.48989 104.37L9.49989 104.36Z" fill="#FBB040"/>
<path d="M10.4901 101.83L10.7601 101.21C10.7939 101.126 10.7941 101.033 10.7606 100.949C10.727 100.865 10.6623 100.797 10.5801 100.76C10.5387 100.742 10.4942 100.732 10.4491 100.731C10.404 100.731 10.3592 100.739 10.3174 100.756C10.2755 100.773 10.2373 100.797 10.2052 100.829C10.173 100.861 10.1475 100.898 10.1301 100.94L9.86006 101.57C9.82426 101.646 9.81881 101.733 9.84483 101.813C9.87084 101.893 9.92636 101.96 10.0001 102C10.0408 102.018 10.0847 102.029 10.1294 102.03C10.174 102.031 10.2185 102.024 10.2603 102.008C10.3021 101.992 10.3403 101.969 10.3729 101.938C10.4055 101.907 10.4317 101.871 10.4501 101.83H10.4901Z" fill="#FBB040"/>
<path d="M11.64 99.38L11.96 98.78C11.981 98.7406 11.9941 98.6975 11.9984 98.653C12.0027 98.6086 11.9983 98.5637 11.9853 98.521C11.9723 98.4783 11.951 98.4386 11.9226 98.4041C11.8943 98.3696 11.8594 98.341 11.82 98.32C11.7806 98.299 11.7375 98.286 11.693 98.2816C11.6486 98.2773 11.6037 98.2818 11.561 98.2948C11.5183 98.3078 11.4786 98.329 11.4441 98.3574C11.4096 98.3858 11.381 98.4206 11.36 98.46L11.04 99.07C10.9976 99.1496 10.9885 99.2428 11.0147 99.329C11.041 99.4153 11.1004 99.4876 11.18 99.53C11.2191 99.5524 11.2623 99.5666 11.3071 99.5717C11.3518 99.5767 11.3972 99.5726 11.4403 99.5595C11.4834 99.5464 11.5233 99.5246 11.5577 99.4954C11.592 99.4663 11.62 99.4304 11.64 99.39V99.38Z" fill="#FBB040"/>
<path d="M12.9998 97.0001L13.3498 96.4201C13.3776 96.3435 13.3778 96.2597 13.3504 96.1831C13.323 96.1064 13.2698 96.0417 13.1998 96.0001C13.1618 95.9763 13.1194 95.9602 13.0752 95.9528C13.0309 95.9455 12.9856 95.947 12.9419 95.9572C12.8982 95.9674 12.857 95.9862 12.8206 96.0124C12.7842 96.0387 12.7533 96.0718 12.7298 96.1101L12.3698 96.7001C12.3501 96.7414 12.3388 96.7863 12.3364 96.832C12.334 96.8778 12.3407 96.9236 12.356 96.9667C12.3713 97.0099 12.395 97.0497 12.4257 97.0837C12.4564 97.1177 12.4935 97.1454 12.5348 97.1651C12.5762 97.1848 12.621 97.1961 12.6668 97.1985C12.7125 97.2009 12.7583 97.1942 12.8015 97.1789C12.8447 97.1635 12.8844 97.1399 12.9184 97.1092C12.9525 97.0785 12.9801 97.0414 12.9998 97.0001Z" fill="#FBB040"/>
<path d="M14.4302 94.75L14.8202 94.2C14.8711 94.1268 14.8913 94.0365 14.8764 93.9486C14.8614 93.8607 14.8125 93.7822 14.7402 93.73C14.7044 93.7034 14.6636 93.6844 14.6203 93.674C14.577 93.6636 14.532 93.6621 14.4881 93.6696C14.4442 93.6771 14.4022 93.6934 14.3648 93.7175C14.3273 93.7416 14.2951 93.7731 14.2702 93.81L13.8602 94.36C13.8086 94.4347 13.7882 94.5266 13.8031 94.6161C13.818 94.7057 13.8672 94.7859 13.9402 94.84C13.9759 94.8665 14.0167 94.8855 14.06 94.8959C14.1034 94.9063 14.1483 94.9078 14.1923 94.9003C14.2362 94.8928 14.2781 94.8765 14.3156 94.8524C14.353 94.8283 14.3852 94.7969 14.4102 94.76L14.4302 94.75Z" fill="#FBB040"/>
<path d="M16.0701 92.6L16.5101 92.08C16.5383 92.0465 16.5597 92.0078 16.573 91.9661C16.5862 91.9243 16.5911 91.8804 16.5874 91.8367C16.5837 91.7931 16.5714 91.7506 16.5513 91.7117C16.5312 91.6728 16.5036 91.6383 16.4701 91.61C16.4366 91.5818 16.3979 91.5604 16.3561 91.5472C16.3144 91.5339 16.2704 91.529 16.2268 91.5327C16.1832 91.5364 16.1407 91.5487 16.1018 91.5688C16.0629 91.5889 16.0283 91.6165 16.0001 91.65L15.5601 92.17C15.4989 92.235 15.4648 92.3208 15.4648 92.41C15.4648 92.4993 15.4989 92.5851 15.5601 92.65C15.594 92.6782 15.6332 92.6992 15.6754 92.7119C15.7175 92.7247 15.7618 92.7288 15.8056 92.7241C15.8494 92.7195 15.8919 92.7061 15.9304 92.6848C15.969 92.6635 16.0029 92.6347 16.0301 92.6H16.0701Z" fill="#FBB040"/>
<path d="M17.8601 90.55L18.3201 90.06C18.3628 89.9945 18.3809 89.916 18.3711 89.8384C18.3613 89.7608 18.3243 89.6893 18.2667 89.6364C18.209 89.5836 18.1345 89.5529 18.0564 89.5499C17.9783 89.5469 17.9016 89.5717 17.8401 89.62L17.3701 90.12C17.3182 90.1848 17.2928 90.2668 17.2987 90.3497C17.3046 90.4325 17.3416 90.51 17.4022 90.5668C17.4627 90.6236 17.5425 90.6554 17.6255 90.656C17.7085 90.6566 17.7887 90.6259 17.8501 90.57L17.8601 90.55Z" fill="#FBB040"/>
<path d="M19.7299 88.59L20.2099 88.11C20.2675 88.0473 20.2995 87.9652 20.2995 87.88C20.2995 87.7948 20.2675 87.7127 20.2099 87.65C20.18 87.6192 20.1443 87.5946 20.1048 87.5779C20.0653 87.5611 20.0228 87.5525 19.9799 87.5525C19.9369 87.5525 19.8945 87.5611 19.855 87.5779C19.8154 87.5946 19.7797 87.6192 19.7499 87.65L19.2599 88.13C19.2 88.1916 19.1665 88.2741 19.1665 88.36C19.1665 88.4459 19.2 88.5284 19.2599 88.59C19.2897 88.6209 19.3254 88.6454 19.365 88.6621C19.4045 88.6789 19.4469 88.6875 19.4899 88.6875C19.5328 88.6875 19.5753 88.6789 19.6148 88.6621C19.6543 88.6454 19.69 88.6209 19.7199 88.59H19.7299Z" fill="#FBB040"/>
<path d="M21.6798 86.69L22.1798 86.23C22.2391 86.1701 22.2723 86.0893 22.2723 86.005C22.2723 85.9208 22.2391 85.8399 22.1798 85.78C22.1188 85.7231 22.0384 85.6914 21.9548 85.6914C21.8713 85.6914 21.7909 85.7231 21.7298 85.78L21.2298 86.25C21.1786 86.3103 21.1516 86.3875 21.1539 86.4666C21.1563 86.5457 21.1879 86.6211 21.2426 86.6783C21.2973 86.7355 21.3712 86.7703 21.4501 86.7762C21.529 86.7821 21.6073 86.7585 21.6698 86.71L21.6798 86.69Z" fill="#FBB040"/>
<path d="M23.6898 84.85L24.1998 84.4C24.259 84.3401 24.2923 84.2593 24.2923 84.175C24.2923 84.0908 24.259 84.0099 24.1998 83.95C24.1717 83.9198 24.1377 83.8956 24.0998 83.8791C24.062 83.8625 24.0211 83.854 23.9798 83.854C23.9385 83.854 23.8976 83.8625 23.8598 83.8791C23.8219 83.8956 23.7879 83.9198 23.7598 83.95L23.2498 84.4C23.2208 84.4289 23.1977 84.4631 23.182 84.5009C23.1663 84.5387 23.1582 84.5791 23.1582 84.62C23.1582 84.6609 23.1663 84.7014 23.182 84.7392C23.1977 84.777 23.2208 84.8112 23.2498 84.84C23.2786 84.8691 23.3129 84.8921 23.3506 84.9078C23.3884 84.9235 23.4289 84.9316 23.4698 84.9316C23.5107 84.9316 23.5512 84.9235 23.589 84.9078C23.6267 84.8921 23.661 84.8691 23.6898 84.84V84.85Z" fill="#FBB040"/>
<path d="M25.74 83.0599L26.26 82.6199C26.3137 82.5646 26.3448 82.4912 26.3473 82.4142C26.3498 82.3371 26.3235 82.2619 26.2736 82.2032C26.2236 82.1445 26.1536 82.1065 26.0771 82.0967C26.0006 82.0868 25.9232 82.1058 25.86 82.1499L25.34 82.5899C25.2927 82.6455 25.2666 82.716 25.2661 82.7889C25.2657 82.8619 25.291 82.9327 25.3375 82.9888C25.3841 83.045 25.449 83.0829 25.5208 83.0959C25.5926 83.1089 25.6667 83.0962 25.73 83.0599H25.74Z" fill="#FBB040"/>
<path d="M27.8301 81.3101L28.3501 80.8801C28.4098 80.831 28.4476 80.7602 28.4551 80.6833C28.4626 80.6064 28.4392 80.5297 28.3901 80.4701C28.3411 80.4104 28.2703 80.3726 28.1934 80.3651C28.1165 80.3576 28.0398 80.381 27.9801 80.4301L27.4501 80.8501C27.388 80.8993 27.3479 80.9711 27.3385 81.0497C27.3292 81.1284 27.3513 81.2076 27.4001 81.2701C27.4557 81.3221 27.529 81.351 27.6051 81.351C27.6813 81.351 27.7546 81.3221 27.8101 81.2701L27.8301 81.3101Z" fill="#FBB040"/>
<path d="M29.9999 79.61L30.5399 79.19C30.5978 79.1446 30.6355 79.0782 30.6448 79.0052C30.6542 78.9322 30.6344 78.8585 30.5899 78.8C30.5393 78.7499 30.471 78.7218 30.3999 78.7218C30.3287 78.7218 30.2604 78.7499 30.2099 78.8L29.6599 79.21C29.6013 79.2571 29.5633 79.3252 29.554 79.3999C29.5447 79.4745 29.5647 79.5498 29.6099 79.61C29.6621 79.6607 29.7321 79.689 29.8049 79.689C29.8777 79.689 29.9476 79.6607 29.9999 79.61Z" fill="#FBB040"/>
<path d="M32.12 78L32.66 77.59C32.7153 77.5499 32.7526 77.4896 32.7638 77.4223C32.775 77.3549 32.7593 77.2858 32.72 77.23C32.6781 77.174 32.6162 77.1365 32.5472 77.1253C32.4781 77.1141 32.4075 77.1301 32.35 77.17L31.8 77.57C31.7441 77.6119 31.7066 77.6739 31.6954 77.7429C31.6842 77.8119 31.7002 77.8825 31.74 77.94C31.76 77.9688 31.7855 77.9932 31.8151 78.0119C31.8447 78.0306 31.8777 78.0431 31.9123 78.0487C31.9468 78.0543 31.9821 78.0529 32.0161 78.0445C32.0501 78.0362 32.0821 78.021 32.11 78H32.12Z" fill="#FBB040"/>
<path d="M34.3199 76.34L34.8699 75.95C34.8966 75.932 34.9194 75.9088 34.9369 75.8817C34.9545 75.8547 34.9664 75.8244 34.972 75.7927C34.9776 75.761 34.9768 75.7285 34.9695 75.6971C34.9623 75.6657 34.9488 75.636 34.9299 75.61C34.8918 75.5582 34.8352 75.523 34.7719 75.5119C34.7086 75.5007 34.6434 75.5143 34.5899 75.55L34.0299 75.94C34.0028 75.9589 33.9798 75.983 33.9621 76.0109C33.9445 76.0388 33.9325 76.0699 33.9269 76.1025C33.9214 76.135 33.9223 76.1683 33.9296 76.2005C33.937 76.2327 33.9507 76.2631 33.9699 76.29C33.9879 76.3167 34.0111 76.3395 34.0381 76.357C34.0651 76.3746 34.0954 76.3865 34.1271 76.3921C34.1589 76.3977 34.1914 76.3969 34.2228 76.3896C34.2542 76.3824 34.2838 76.3689 34.3099 76.35L34.3199 76.34Z" fill="#FBB040"/>
<path d="M36.5499 74.78L37.1099 74.4C37.1345 74.3839 37.1557 74.363 37.1721 74.3385C37.1885 74.3141 37.1999 74.2866 37.2055 74.2577C37.2111 74.2288 37.2108 74.199 37.2047 74.1702C37.1986 74.1414 37.1868 74.1141 37.1699 74.09C37.1372 74.0407 37.0867 74.0059 37.0289 73.9928C36.9712 73.9798 36.9107 73.9895 36.8599 74.02L36.2799 74.4C36.255 74.4171 36.2336 74.4389 36.2171 74.4642C36.2006 74.4895 36.1892 74.5178 36.1836 74.5476C36.1781 74.5773 36.1784 74.6078 36.1846 74.6374C36.1908 74.667 36.2028 74.695 36.2199 74.72C36.237 74.7449 36.2588 74.7663 36.2841 74.7828C36.3094 74.7993 36.3378 74.8107 36.3675 74.8163C36.3972 74.8218 36.4277 74.8215 36.4573 74.8153C36.4869 74.809 36.515 74.7971 36.5399 74.78H36.5499Z" fill="#FBB040"/>
<path d="M38.82 73.2799L39.4 72.9099C39.4429 72.8813 39.4731 72.8373 39.4842 72.787C39.4954 72.7367 39.4867 72.684 39.46 72.6399C39.433 72.5954 39.3897 72.5632 39.3393 72.5501C39.2888 72.537 39.2353 72.5441 39.19 72.5699L38.6 72.9299C38.5565 72.9604 38.5261 73.0062 38.5149 73.0581C38.5038 73.1101 38.5128 73.1643 38.54 73.2099C38.5534 73.2333 38.5714 73.2538 38.5929 73.2701C38.6144 73.2863 38.639 73.2981 38.6651 73.3046C38.6913 73.3112 38.7185 73.3123 38.7451 73.3081C38.7717 73.3039 38.7972 73.2943 38.82 73.2799Z" fill="#FBB040"/>
<path d="M41.1398 71.85L41.7298 71.51C41.762 71.4833 41.784 71.4462 41.7918 71.4051C41.7997 71.364 41.793 71.3214 41.7729 71.2847C41.7528 71.248 41.7205 71.2195 41.6816 71.204C41.6427 71.1886 41.5996 71.1871 41.5598 71.2L40.9598 71.53C40.9174 71.5538 40.8861 71.5936 40.873 71.6405C40.8599 71.6874 40.8659 71.7375 40.8898 71.78C40.9137 71.8224 40.9534 71.8536 41.0003 71.8668C41.0472 71.8799 41.0974 71.8738 41.1398 71.85Z" fill="#FBB040"/>
<path d="M43.5202 70.52L44.0202 70.26C44.0517 70.2411 44.0752 70.2114 44.0863 70.1764C44.0973 70.1413 44.0952 70.1035 44.0802 70.07C44.0632 70.039 44.0359 70.0149 44.0029 70.0021C43.97 69.9893 43.9336 69.9886 43.9002 70L43.3802 70.25C43.3461 70.269 43.3202 70.2999 43.3073 70.3367C43.2944 70.3736 43.2954 70.4138 43.3102 70.45C43.3176 70.4687 43.3289 70.4856 43.3434 70.4995C43.3579 70.5134 43.3752 70.5241 43.3942 70.5307C43.4131 70.5374 43.4333 70.5398 43.4533 70.538C43.4734 70.5361 43.4927 70.53 43.5102 70.52H43.5202Z" fill="#FBB040"/>
<path d="M45.4902 64.74L46.4002 68.54L48.5902 66.29L45.4902 64.74Z" fill="#0374B5"/>
<path d="M62.0601 58.4301L54.0001 69.9201C53.923 70.029 53.8249 70.1214 53.7116 70.1918C53.5982 70.2622 53.4719 70.3092 53.3401 70.3301C53.2081 70.3484 53.0737 70.3401 52.9449 70.3058C52.8161 70.2714 52.6955 70.2117 52.5901 70.1301L41.3301 61.5701C41.2646 61.5245 41.2156 61.459 41.1904 61.3833C41.1651 61.3076 41.1651 61.2258 41.1901 61.1501C41.2108 61.0748 41.2531 61.0072 41.3117 60.9557C41.3704 60.9042 41.4428 60.8709 41.5201 60.8601L62.0601 58.4301Z" fill="#008FCA"/>
<path d="M45.4902 64.7401L62.0602 58.4301L47.3002 66.1301L47.5102 67.1901L45.4902 64.7401Z" fill="#0374B5"/>
<path d="M48.3699 66.94L46.3999 68.54L47.2999 66.13L48.3699 66.94Z" fill="#0374B5"/>
<path d="M42.11 109.54C42.3584 110.222 42.3991 110.962 42.227 111.667C42.0549 112.372 41.6777 113.01 41.143 113.5C40.6084 113.991 39.9403 114.312 39.2233 114.423C38.5062 114.534 37.7723 114.43 37.1144 114.124C36.4564 113.818 35.9039 113.324 35.5266 112.704C35.1494 112.084 34.9644 111.367 34.995 110.642C35.0255 109.917 35.2703 109.217 35.6984 108.631C36.1265 108.045 36.7186 107.6 37.4 107.35C37.853 107.184 38.3343 107.109 38.8163 107.13C39.2983 107.15 39.7716 107.265 40.209 107.468C40.6465 107.672 41.0396 107.96 41.3658 108.315C41.6919 108.67 41.9448 109.087 42.11 109.54Z" fill="#FF735D"/>
<path d="M49.2298 99.1C49.48 99.7814 49.5226 100.522 49.3521 101.227C49.1816 101.933 48.8057 102.572 48.2719 103.064C47.7381 103.556 47.0705 103.878 46.3534 103.991C45.6363 104.103 44.9019 104.001 44.2432 103.696C43.5845 103.391 43.031 102.897 42.6526 102.278C42.2743 101.658 42.0882 100.941 42.1178 100.215C42.1474 99.4902 42.3914 98.79 42.819 98.2034C43.2465 97.6168 43.8384 97.1702 44.5198 96.92C44.9721 96.7525 45.453 96.6761 45.935 96.6951C46.4169 96.7141 46.8903 96.8282 47.328 97.0308C47.7657 97.2334 48.1591 97.5205 48.4854 97.8756C48.8118 98.2307 49.0648 98.6468 49.2298 99.1Z" fill="#FF735D"/>
<path d="M54.6 113.7C54.789 114.389 54.7733 115.118 54.5549 115.799C54.3364 116.479 53.9247 117.081 53.3698 117.531C52.815 117.981 52.141 118.26 51.4303 118.334C50.7196 118.408 50.0028 118.273 49.3674 117.946C48.7321 117.619 48.2056 117.114 47.8524 116.493C47.4991 115.872 47.3343 115.161 47.378 114.448C47.4217 113.735 47.6722 113.05 48.0987 112.477C48.5252 111.903 49.1094 111.467 49.78 111.22C50.7481 110.914 51.7977 111.003 52.7004 111.468C53.6031 111.932 54.2858 112.735 54.6 113.7Z" fill="#FF735D"/>
<path d="M49.9999 114.9C49.9399 115.17 47.1699 114.71 43.8199 113.9C40.4699 113.09 37.8199 112.16 37.8799 111.9C37.9399 111.64 40.7199 112.09 44.0599 112.9C47.3999 113.71 49.9999 114.63 49.9999 114.9Z" fill="#FF735D"/>
<path d="M44.9999 100.38C45.2299 100.53 44.0599 102.82 42.3799 105.5C40.6999 108.18 39.1499 110.22 38.9099 110.07C38.6699 109.92 39.8499 107.63 41.5299 104.96C43.2099 102.29 44.7399 100.24 44.9999 100.38Z" fill="#FF735D"/>
<g opacity="0.3">
<path opacity="0.3" d="M160.45 98.44L163.45 100.14L175.2 94.71L178.6 88.71C178.6 88.71 183.42 91.06 178.41 98.62C173.4 106.18 175.14 104.51 175.14 104.51C175.14 104.51 184.99 110.14 185.33 111.51C185.57 112.51 180.28 122.44 177.33 127.82C176.669 129.142 175.583 130.204 174.247 130.837C172.911 131.47 171.402 131.636 169.96 131.31C169.562 131.204 169.18 131.05 168.82 130.85C166.36 129.45 154.9 120.32 154.9 120.32L149.71 117.38L160.45 98.44Z" fill="#A6E9F4"/>
<path opacity="0.3" d="M152.77 91.9099L142.96 113.54L148.11 116.46L159.54 96.2899L152.77 91.9099Z" fill="#A6E9F4"/>
</g>
<path d="M174.036 86.0713L170.408 84.016L162.226 98.4596L165.854 100.515L174.036 86.0713Z" fill="#FF735D"/>
<path d="M168.684 81.5927L165.056 79.5374L156.258 95.0686L159.886 97.1239L168.684 81.5927Z" fill="#FF735D"/>
<path d="M161.812 80.2399L158.184 78.1846L150.475 91.7929L154.104 93.8482L161.812 80.2399Z" fill="#FF735D"/>
<path d="M154.745 79.046L151.117 76.9907L144.611 88.476L148.239 90.5313L154.745 79.046Z" fill="#FF735D"/>
<path d="M174.77 87.66C174.77 87.66 174.37 87.38 173.61 87C172.521 86.4765 171.328 86.2064 170.12 86.21C169.288 86.2142 168.463 86.3596 167.68 86.64C166.84 86.93 165.98 87.37 165.03 87.76C164.033 88.2216 162.937 88.4278 161.84 88.36C160.681 88.2145 159.563 87.8406 158.55 87.26C157.49 86.72 156.55 86.1 155.55 85.6C154.617 85.1092 153.635 84.7171 152.62 84.43C150.907 83.8909 149.061 83.9544 147.39 84.61C146.274 85.0691 145.327 85.862 144.68 86.88C144.47 87.2709 144.287 87.6751 144.13 88.09C144.194 87.6423 144.343 87.2111 144.57 86.82C145.198 85.742 146.154 84.8938 147.3 84.4C148.084 84.0545 148.924 83.8545 149.78 83.81C150.761 83.7702 151.743 83.8815 152.69 84.14C153.727 84.4313 154.732 84.8267 155.69 85.32C156.69 85.82 157.69 86.44 158.69 86.98C159.672 87.5371 160.751 87.9003 161.87 88.05C162.9 88.1052 163.929 87.9132 164.87 87.49C165.81 87.11 166.68 86.67 167.56 86.38C168.551 86.0462 169.6 85.9192 170.643 86.0069C171.685 86.0947 172.698 86.3952 173.62 86.89C173.913 87.0485 174.194 87.229 174.46 87.43C174.571 87.4956 174.675 87.5727 174.77 87.66Z" fill="#263238"/>
<path d="M166.82 101.11L143.19 87.7L153.06 70.3" stroke="black" stroke-width="0.79" stroke-miterlimit="10" stroke-linecap="round"/>
</g>
<defs>
<clipPath id="clip0_7873_167731">
<rect width="196.05" height="196.03" fill="white"/>
</clipPath>
</defs>
</svg>
