<svg width="162" height="162" viewBox="0 0 162 162" fill="none" xmlns="http://www.w3.org/2000/svg">
<g clip-path="url(#clip0_9653_21)">
<path d="M144.52 0H17.48C7.82606 0 0 7.82606 0 17.48V144.52C0 154.174 7.82606 162 17.48 162H144.52C154.174 162 162 154.174 162 144.52V17.48C162 7.82606 154.174 0 144.52 0Z" fill="#008FCA" fill-opacity="0.78"/>
<path d="M119.06 0C119.06 0 111.39 123.57 0 128.17V144.71C0 146.981 0.447219 149.229 1.31612 151.327C2.18503 153.424 3.4586 155.33 5.06412 156.936C6.66965 158.541 8.57568 159.815 10.6734 160.684C12.7711 161.553 15.0194 162 17.29 162H144.84C149.391 162 153.756 160.192 156.974 156.974C160.192 153.756 162 149.391 162 144.84V17.84C162.001 15.4977 161.541 13.1781 160.646 11.0137C159.75 8.84929 158.437 6.88255 156.781 5.22582C155.125 3.56909 153.159 2.25485 150.996 1.35818C148.832 0.461517 146.512 -3.68393e-07 144.17 0L119.06 0Z" fill="#008FCA"/>
<path d="M130 102.9L107.32 110.7C107.576 109.313 107.523 107.887 107.164 106.523C106.806 105.16 106.152 103.892 105.247 102.81C104.343 101.728 103.211 100.859 101.933 100.264C100.654 99.6695 99.26 99.3643 97.8499 99.37H82.2599C81.8461 99.3729 81.4389 99.2659 81.0799 99.06L68.3699 91.91C65.8461 90.4966 63.0025 89.753 60.1099 89.75H43.0499C42.5508 88.3449 41.6295 87.1285 40.4121 86.2674C39.1948 85.4063 37.741 84.9427 36.2499 84.94H21.8099C21.4939 84.9387 21.1807 84.9998 20.8884 85.1198C20.5961 85.2399 20.3303 85.4164 20.1064 85.6394C19.8825 85.8624 19.7048 86.1274 19.5835 86.4193C19.4623 86.7111 19.3999 87.024 19.3999 87.34V130.65C19.3999 131.289 19.6538 131.902 20.1058 132.354C20.5577 132.806 21.1707 133.06 21.8099 133.06H36.2499C37.7111 133.061 39.1382 132.619 40.3432 131.792C41.5482 130.966 42.4744 129.793 42.9999 128.43C45.744 128.701 48.4114 129.492 50.8599 130.76L63.4399 138.31C67.7013 140.865 72.5194 142.348 77.4802 142.63C82.4411 142.912 87.3962 141.986 91.9199 139.93L136.83 120.16C139.119 119.254 140.954 117.476 141.932 115.218C142.91 112.959 142.951 110.404 142.045 108.115C141.139 105.826 139.361 103.991 137.102 103.013C134.844 102.035 132.289 101.994 130 102.9ZM135 115.71H134.92L89.9199 135.52C86.1075 137.252 81.9315 138.032 77.751 137.793C73.5705 137.555 69.5105 136.304 65.9199 134.15L53.3299 126.6C50.2742 124.966 46.9277 123.947 43.4799 123.6V94.56H60.1099C62.1739 94.5616 64.2025 95.0954 65.9999 96.11L78.7099 103.26C79.7927 103.862 81.011 104.179 82.2499 104.18H97.8399C99.079 104.237 100.249 104.768 101.105 105.665C101.962 106.562 102.44 107.755 102.44 108.995C102.44 110.235 101.962 111.428 101.105 112.325C100.249 113.222 99.079 113.754 97.8399 113.81H73.3799C72.7689 113.849 72.1957 114.12 71.7769 114.567C71.3581 115.013 71.1251 115.603 71.1251 116.215C71.1251 116.827 71.3581 117.417 71.7769 117.863C72.1957 118.31 72.7689 118.581 73.3799 118.62H97.8399C99.4134 118.621 100.963 118.232 102.35 117.49L131.61 107.49C132.159 107.236 132.753 107.096 133.357 107.078C133.962 107.061 134.563 107.166 135.126 107.387C135.688 107.609 136.2 107.942 136.63 108.367C137.06 108.792 137.399 109.3 137.627 109.86C137.856 110.419 137.968 111.02 137.957 111.624C137.947 112.229 137.814 112.825 137.566 113.376C137.319 113.928 136.962 114.423 136.517 114.833C136.073 115.243 135.55 115.558 134.98 115.76L135 115.71Z" fill="white"/>
<path d="M82.75 42.14H77.02V46.75H82.75V42.14Z" fill="white"/>
<path d="M90.3501 38.32H84.6201V46.75H90.3501V38.32Z" fill="white"/>
<path d="M97.96 34.09H92.23V46.76H97.96V34.09Z" fill="white"/>
<path d="M78.3398 36.3L85.2698 31.62L89.0798 32.96L96.2898 28.22" stroke="white" stroke-width="1.33" stroke-linecap="round" stroke-linejoin="round"/>
<path d="M96.4998 30.98L96.6398 28.01L93.7998 27.11" stroke="white" stroke-width="1.33" stroke-linecap="round" stroke-linejoin="round"/>
<path d="M87.4899 54.54C97.2156 54.54 105.1 46.6557 105.1 36.93C105.1 27.2043 97.2156 19.32 87.4899 19.32C77.7641 19.32 69.8799 27.2043 69.8799 36.93C69.8799 46.6557 77.7641 54.54 87.4899 54.54Z" stroke="white" stroke-width="3.18" stroke-miterlimit="10"/>
<path d="M43.2101 78.4C52.9358 78.4 60.8201 70.5157 60.8201 60.79C60.8201 51.0643 52.9358 43.18 43.2101 43.18C33.4844 43.18 25.6001 51.0643 25.6001 60.79C25.6001 70.5157 33.4844 78.4 43.2101 78.4Z" stroke="white" stroke-width="3.18" stroke-miterlimit="10"/>
<path d="M54.1899 54.62H49.6899C49.5139 55.1686 49.1682 55.6472 48.7028 55.9867C48.2373 56.3262 47.676 56.5092 47.0999 56.5092C46.5237 56.5092 45.9625 56.3262 45.497 55.9867C45.0315 55.6472 44.6859 55.1686 44.5099 54.62H32.2199C31.8777 54.6481 31.5597 54.8074 31.3323 55.0646C31.1049 55.3218 30.9858 55.657 30.9999 56V65.51C30.9777 65.6887 30.992 65.87 31.042 66.043C31.092 66.216 31.1766 66.377 31.2907 66.5163C31.4048 66.6556 31.5459 66.7704 31.7057 66.8535C31.8654 66.9366 32.0403 66.9865 32.2199 67H44.5099C44.6859 66.4514 45.0315 65.9728 45.497 65.6333C45.9625 65.2938 46.5237 65.1108 47.0999 65.1108C47.676 65.1108 48.2373 65.2938 48.7028 65.6333C49.1682 65.9728 49.5139 66.4514 49.6899 67H54.1899C54.5411 66.9769 54.8688 66.8155 55.1012 66.5512C55.3336 66.2869 55.4518 65.9413 55.4299 65.59V56C55.4437 55.6538 55.3218 55.3158 55.0902 55.0581C54.8586 54.8003 54.5356 54.6432 54.1899 54.62Z" fill="white"/>
<path d="M47.0498 57.75V58.61" stroke="#008FCA" stroke-opacity="0.78" stroke-width="0.44" stroke-miterlimit="10" stroke-linecap="round"/>
<path d="M47.0498 60.06V62.24" stroke="#008FCA" stroke-opacity="0.78" stroke-width="0.44" stroke-miterlimit="10" stroke-linecap="round" stroke-dasharray="1.45 1.45"/>
<path d="M47.0498 62.96V63.82" stroke="#008FCA" stroke-opacity="0.78" stroke-width="0.44" stroke-miterlimit="10" stroke-linecap="round"/>
<path d="M118.79 93.56C128.516 93.56 136.4 85.6758 136.4 75.95C136.4 66.2243 128.516 58.34 118.79 58.34C109.064 58.34 101.18 66.2243 101.18 75.95C101.18 85.6758 109.064 93.56 118.79 93.56Z" stroke="white" stroke-width="3.18" stroke-miterlimit="10"/>
<path d="M122.41 78.65C122.346 78.6183 122.276 78.6018 122.205 78.6018C122.134 78.6018 122.064 78.6183 122 78.65C121.853 78.7687 121.745 78.929 121.69 79.11C121.53 79.55 121.6 79.83 121.91 79.95C121.973 79.9825 122.044 79.9994 122.115 79.9994C122.186 79.9994 122.257 79.9825 122.32 79.95C122.474 79.8398 122.586 79.6814 122.64 79.5C122.715 79.327 122.736 79.1352 122.7 78.95C122.679 78.8803 122.642 78.8166 122.592 78.7644C122.541 78.7121 122.479 78.6729 122.41 78.65Z" fill="white"/>
<path d="M130 74.11L115 68.78C114.801 68.7076 114.587 68.6808 114.376 68.7016C114.165 68.7223 113.961 68.7902 113.78 68.9L109.39 71.6C109.113 71.7693 108.902 72.0284 108.793 72.334C108.684 72.6397 108.683 72.9736 108.79 73.28L110.49 78.15C110.562 78.3503 110.677 78.5322 110.827 78.6826C110.978 78.833 111.16 78.9483 111.36 79.02L126.36 84.36C126.717 84.485 127.108 84.4636 127.449 84.3006C127.791 84.1376 128.053 83.8461 128.18 83.49L130.88 75.93C131.004 75.572 130.982 75.1791 130.817 74.8379C130.652 74.4966 130.358 74.2348 130 74.11ZM110.56 74C110.349 73.9779 110.149 73.8943 109.986 73.7595C109.822 73.6248 109.702 73.4449 109.64 73.2422C109.578 73.0395 109.577 72.8231 109.637 72.6198C109.697 72.4165 109.815 72.2354 109.978 72.0991C110.14 71.9627 110.339 71.8771 110.549 71.8529C110.76 71.8288 110.973 71.8671 111.162 71.9632C111.351 72.0592 111.507 72.2087 111.612 72.3931C111.716 72.5775 111.764 72.7886 111.75 73C111.74 73.1447 111.701 73.286 111.635 73.4153C111.569 73.5446 111.478 73.6594 111.367 73.7527C111.256 73.846 111.127 73.9161 110.989 73.9585C110.85 74.001 110.704 74.0151 110.56 74ZM117.33 73.16C117.408 72.9413 117.528 72.7403 117.684 72.5686C117.841 72.3969 118.029 72.258 118.24 72.16C118.67 71.9855 119.15 71.9855 119.58 72.16C120.014 72.3086 120.373 72.6208 120.58 73.03C120.743 73.3513 120.804 73.7149 120.754 74.0718C120.704 74.4287 120.545 74.7615 120.3 75.0254C120.054 75.2893 119.734 75.4716 119.382 75.5475C119.029 75.6234 118.662 75.5894 118.33 75.45C117.897 75.2996 117.539 74.9879 117.33 74.58C117.233 74.3611 117.183 74.1244 117.183 73.885C117.183 73.6457 117.233 73.409 117.33 73.19V73.16ZM123.79 79.91C123.723 80.133 123.609 80.3388 123.455 80.5136C123.301 80.6884 123.111 80.828 122.899 80.9229C122.686 81.0178 122.456 81.0658 122.223 81.0636C121.99 81.0613 121.761 81.009 121.55 80.91C121.324 80.8435 121.116 80.7287 120.939 80.5736C120.762 80.4184 120.622 80.2267 120.526 80.0116C120.431 79.7966 120.384 79.5634 120.388 79.3282C120.392 79.0931 120.447 78.8617 120.55 78.65C120.625 78.43 120.745 78.2277 120.901 78.0557C121.058 77.8837 121.248 77.7456 121.46 77.65C121.886 77.475 122.364 77.475 122.79 77.65C123.015 77.7165 123.224 77.8313 123.401 77.9865C123.577 78.1416 123.718 78.3334 123.813 78.5484C123.909 78.7635 123.956 78.9967 123.952 79.2318C123.948 79.4669 123.892 79.6984 123.79 79.91ZM118.2 79.57L116.59 79L122.92 73.54L124.53 74.15L118.2 79.57Z" fill="white"/>
<path d="M118.7 74.46C118.763 74.495 118.833 74.5134 118.905 74.5134C118.977 74.5134 119.047 74.495 119.11 74.46C119.261 74.3472 119.373 74.1898 119.43 74.01C119.59 73.56 119.52 73.28 119.2 73.16C118.88 73.04 118.65 73.21 118.48 73.66C118.31 74.11 118.39 74.35 118.7 74.46Z" fill="white"/>
<path d="M110.31 73.67C110.02 73.6672 109.733 73.6165 109.46 73.52C108.644 73.1601 107.937 72.5917 107.411 71.872C106.884 71.1523 106.556 70.3066 106.46 69.42C106.422 69.0732 106.473 68.7224 106.607 68.4006C106.742 68.0788 106.956 67.7964 107.23 67.58C107.523 67.3735 107.872 67.2618 108.23 67.26C108.608 67.2674 108.98 67.356 109.32 67.52C110.059 67.8883 110.693 68.439 111.16 69.12C111.318 69.351 111.462 69.5914 111.59 69.84C112.25 71.15 112.22 72.46 111.51 73.17C111.446 73.2437 111.372 73.3077 111.29 73.36C111.003 73.5614 110.661 73.6696 110.31 73.67ZM108.31 68.67C108.229 68.6669 108.149 68.6877 108.08 68.73C107.99 68.8421 107.928 68.9743 107.9 69.1153C107.873 69.2564 107.879 69.4021 107.92 69.54C108.008 70.0799 108.224 70.5909 108.55 71.03C108.744 71.354 109.004 71.6342 109.312 71.8528C109.62 72.0714 109.97 72.2237 110.34 72.3C110.421 72.3044 110.501 72.2835 110.57 72.24C110.88 72.02 110.85 70.99 110.1 69.93C109.777 69.4497 109.337 69.0606 108.82 68.8L108.67 68.74C108.544 68.6861 108.407 68.6589 108.27 68.66L108.31 68.67Z" fill="white"/>
<path d="M108.27 67.45C108.618 67.4569 108.96 67.5424 109.27 67.7C109.969 68.0516 110.566 68.5788 111 69.23C111.155 69.4509 111.295 69.6813 111.42 69.92C112.03 71.15 112.03 72.39 111.42 73.04L111.22 73.21C110.954 73.3977 110.635 73.4958 110.31 73.49C110.043 73.4877 109.779 73.4369 109.53 73.34C108.715 73.0103 108.017 72.4422 107.53 71.71C106.44 70.18 106.36 68.43 107.35 67.71C107.618 67.5179 107.94 67.4164 108.27 67.42V67.45ZM110.27 72.42C110.391 72.4205 110.509 72.3857 110.61 72.32C111.05 72.01 110.96 70.85 110.19 69.75C109.843 69.2462 109.375 68.8371 108.83 68.56L108.67 68.49C108.533 68.4372 108.387 68.4101 108.24 68.41C108.12 68.4066 108.002 68.4378 107.9 68.5C107.46 68.81 107.55 69.98 108.33 71.07C108.538 71.4207 108.819 71.7227 109.154 71.9556C109.488 72.1885 109.869 72.3468 110.27 72.42ZM108.27 67.01C107.861 67.0035 107.461 67.1298 107.13 67.37C105.97 68.19 106.01 70.17 107.22 71.87C107.753 72.665 108.513 73.2816 109.4 73.64C109.692 73.7454 110 73.7996 110.31 73.8C110.713 73.8088 111.109 73.6898 111.44 73.46L111.69 73.25C112.45 72.48 112.49 71.08 111.8 69.69C111.667 69.4334 111.517 69.1862 111.35 68.95C110.865 68.2435 110.207 67.6723 109.44 67.29C109.074 67.1148 108.676 67.0193 108.27 67.01ZM110.27 72.01C109.93 71.9331 109.61 71.788 109.328 71.5835C109.046 71.3789 108.809 71.1191 108.63 70.82C108.328 70.4003 108.123 69.9187 108.03 69.41C108.03 69.03 108.03 68.82 108.12 68.78C108.21 68.74 108.12 68.78 108.24 68.78C108.343 68.7825 108.444 68.8028 108.54 68.84H108.67C109.179 69.1096 109.607 69.51 109.91 70C110.65 71 110.58 71.93 110.42 72C110.381 72.013 110.339 72.013 110.3 72L110.27 72.01Z" fill="#008FCA" fill-opacity="0.78"/>
<path d="M110.38 71.92C110.596 71.8645 110.824 71.8748 111.034 71.9496C111.245 72.0245 111.428 72.1604 111.56 72.34C111.703 72.5266 111.78 72.7551 111.78 72.99C111.78 73.225 111.703 73.4534 111.56 73.64C111.38 73.93 113.93 71.48 113.93 71.48L112.2 69.89L110.2 71.1L110.38 71.92Z" fill="white"/>
<path d="M111.568 69.7984L110.396 70.5079L110.593 70.8329L111.765 70.1235L111.568 69.7984Z" fill="#008FCA" fill-opacity="0.78"/>
<path d="M110.89 71.91C111.08 71.9538 111.255 72.0459 111.399 72.1773C111.542 72.3087 111.65 72.475 111.71 72.66L111.46 73.1C111.422 72.9005 111.332 72.7146 111.199 72.5616C111.065 72.4087 110.893 72.2942 110.7 72.23L110.89 71.91Z" fill="#008FCA" fill-opacity="0.78"/>
</g>
<defs>
<clipPath id="clip0_9653_21">
<rect width="162" height="162" fill="white"/>
</clipPath>
</defs>
</svg>
