<svg width="158" height="158" viewBox="0 0 158 158" fill="none" xmlns="http://www.w3.org/2000/svg">
<path d="M137.2 4.51001H20.3798C11.4991 4.51001 4.2998 11.7093 4.2998 20.59V137.41C4.2998 146.291 11.4991 153.49 20.3798 153.49H137.2C146.081 153.49 153.28 146.291 153.28 137.41V20.59C153.28 11.7093 146.081 4.51001 137.2 4.51001Z" fill="#ED9FB2"/>
<path d="M114.21 4.51001C114.21 4.51001 107.21 118.15 4.71973 122.38V137.59C4.71973 141.807 6.3949 145.851 9.37673 148.833C12.3586 151.815 16.4028 153.49 20.6197 153.49H137.92C142.105 153.49 146.119 151.827 149.078 148.868C152.037 145.909 153.7 141.895 153.7 137.71V20.9C153.7 16.5531 151.973 12.3843 148.899 9.31053C145.825 6.23681 141.657 4.51001 137.31 4.51001H114.21Z" fill="#EB92A7"/>
<path d="M103.619 81.4701C102.277 81.009 100.812 81.0661 99.5095 81.63C98.0071 82.2475 96.7663 83.3682 95.9995 84.8001C95.7914 85.1854 95.6142 85.5867 95.4695 86.0001C95.2403 86.5322 95.1221 87.1056 95.1221 87.685C95.1221 88.2645 95.2403 88.8379 95.4695 89.3701C95.7074 89.8604 96.043 90.2969 96.4557 90.6529C96.8684 91.0089 97.3495 91.2767 97.8695 91.4401C99.2152 91.9116 100.689 91.8617 101.999 91.3001C103.496 90.6718 104.731 89.5494 105.499 88.1201C105.715 87.7508 105.896 87.3625 106.039 86.96C106.274 86.4222 106.395 85.8417 106.395 85.255C106.395 84.6683 106.274 84.088 106.039 83.5501C105.795 83.0598 105.455 82.6234 105.039 82.2662C104.623 81.9091 104.141 81.6384 103.619 81.4701Z" fill="white"/>
<path d="M82.58 71.53C82.7176 71.2736 82.8411 71.0099 82.95 70.74C83.0963 70.3896 83.1615 70.0105 83.1408 69.6313C83.12 69.2521 83.0137 68.8824 82.83 68.55C82.3375 67.7992 81.5926 67.2494 80.73 67L76.63 65.55L73 72L77.1 73.46C78.1137 73.8828 79.2452 73.9289 80.29 73.59C81.2756 73.2002 82.0884 72.4691 82.58 71.53Z" fill="white"/>
<path d="M138.88 69.19L58.5998 40.62C57.5285 40.235 56.3844 40.0963 55.2522 40.214C54.12 40.3317 53.0289 40.7029 52.0598 41.3L28.5698 55.74C27.0917 56.652 25.969 58.0409 25.3872 59.6773C24.8054 61.3137 24.7992 63.0997 25.3698 64.74L34.4398 90.74C34.8153 91.8172 35.4281 92.7962 36.233 93.6045C37.0379 94.4129 38.0142 95.0299 39.0898 95.41L119.36 124C121.264 124.677 123.359 124.571 125.185 123.705C127.011 122.838 128.419 121.283 129.1 119.38L143.51 78.91C144.18 77.0069 144.069 74.9158 143.201 73.0942C142.334 71.2725 140.78 69.8688 138.88 69.19ZM41.2698 63.62C41.1444 64.7539 40.6858 65.8253 39.9517 66.6986C39.2177 67.5719 38.2413 68.208 37.1459 68.5266C36.0504 68.8451 34.8851 68.8318 33.7973 68.4883C32.7094 68.1448 31.7478 67.4865 31.0339 66.5966C30.3201 65.7067 29.886 64.6252 29.7866 63.4887C29.6873 62.3523 29.927 61.2118 30.4756 60.2115C31.0241 59.2113 31.8569 58.3961 32.8686 57.8689C33.8804 57.3418 35.0257 57.1265 36.1598 57.25C36.9138 57.3322 37.6442 57.5622 38.3092 57.9269C38.9743 58.2917 39.5609 58.7839 40.0355 59.3756C40.5101 59.9672 40.8634 60.6466 41.0752 61.3749C41.287 62.1032 41.3531 62.8661 41.2698 63.62ZM72.1298 76.93L70.5398 76.37L65.0898 86L58.4698 83.66L72.8998 58.17L83.9998 62.11C86.8064 63.0967 88.7198 64.4934 89.7398 66.3C90.24 67.164 90.5393 68.1295 90.6155 69.1249C90.6917 70.1203 90.5427 71.12 90.1798 72.05C89.9854 72.6092 89.7376 73.1484 89.4398 73.66C88.4913 75.3569 87.0751 76.7454 85.3598 77.66C83.4756 78.6561 81.3416 79.0801 79.2198 78.88L79.7798 91.19L72.3098 88.54L72.1298 76.93ZM113.38 87.93C113.062 88.7954 112.678 89.6346 112.23 90.44C111.148 92.4143 109.658 94.1357 107.86 95.49C106.255 96.7445 104.378 97.6042 102.38 98C100.522 98.3553 98.6031 98.2104 96.8198 97.58C95.4809 97.1482 94.2848 96.36 93.3598 95.3C92.58 94.3925 92.0829 93.2767 91.9298 92.09L84.8498 104.57L78.2298 102.22L95.1498 72.33L101.76 74.67L100.14 77.54C101.405 76.7898 102.821 76.3298 104.286 76.1932C105.751 76.0566 107.227 76.2468 108.61 76.75C109.668 77.0778 110.644 77.626 111.475 78.3585C112.306 79.0911 112.972 79.9913 113.43 81C114.334 83.2492 114.316 85.764 113.38 88V87.93Z" fill="white"/>
<path d="M33.5697 66.84C32.0091 66.8278 30.4626 66.5436 28.9997 66C24.4508 64.1702 20.5608 61.0088 17.8397 56.93C15.0554 53.1774 13.3818 48.7179 13.0097 44.06C12.8197 39.73 14.2697 36.23 17.1097 34.22C18.7236 33.0837 20.6562 32.4885 22.6297 32.52C24.6581 32.5573 26.6542 33.035 28.4797 33.92C32.4271 35.8795 35.805 38.8202 38.2897 42.46C39.1535 43.6846 39.9256 44.9715 40.5997 46.31C44.1197 53.31 43.9697 60.31 40.1997 64.16C39.8344 64.525 39.4397 64.8595 39.0197 65.16C37.4253 66.28 35.518 66.868 33.5697 66.84ZM22.6797 40C22.2467 39.979 21.8176 40.0906 21.4497 40.32C19.7997 41.46 19.9997 47 23.9997 52.63C27.1497 57.08 31.2097 59.41 33.5897 59.41C34.0196 59.4308 34.4455 59.3191 34.8097 59.09C36.4597 57.92 36.2997 52.41 32.2997 46.75C30.5639 44.1858 28.212 42.0987 25.4597 40.68C25.1897 40.56 24.9297 40.45 24.6697 40.36C24.0315 40.1283 23.3586 40.0065 22.6797 40Z" fill="white"/>
<path d="M22.6697 33.5301C24.5497 33.5711 26.3985 34.018 28.0897 34.8401C31.8729 36.7101 35.1129 39.5197 37.4997 43.0001C38.3364 44.1836 39.0851 45.4269 39.7397 46.7201C42.9997 53.3101 42.9997 59.9401 39.5197 63.4501C39.1952 63.7756 38.844 64.0733 38.4697 64.34C37.0337 65.3396 35.3191 65.861 33.5697 65.8301C32.1421 65.8105 30.7283 65.5467 29.3897 65.0501C25.04 63.283 21.3198 60.2526 18.7097 56.3501C12.8897 48.1301 12.4697 38.7801 17.7097 35.0501C19.1514 34.0357 20.8771 33.5036 22.6397 33.5301H22.6697ZM33.5397 60.4201C34.1772 60.4458 34.8068 60.2709 35.3397 59.9201C37.6897 58.2601 37.2197 52.0201 33.0797 46.1701C31.2423 43.4561 28.7483 41.2511 25.8297 39.7601C25.5397 39.6301 25.2497 39.5101 24.9697 39.4101C24.2353 39.144 23.4608 39.0053 22.6797 39.0001C22.0373 38.9717 21.4028 39.1505 20.8697 39.5101C18.5197 41.1701 18.9897 47.4001 23.1297 53.2601C26.4297 57.9201 30.7297 60.4601 33.5397 60.4601V60.4201ZM22.6697 31.5101C20.4872 31.4758 18.3505 32.1378 16.5697 33.4001C13.4397 35.6101 11.8297 39.4001 12.0397 44.1101C12.4191 48.9598 14.1514 53.6058 17.0397 57.5201C19.8822 61.7829 23.9465 65.0874 28.6997 67.0001C30.2591 67.5785 31.9066 67.8829 33.5697 67.9001C35.7436 67.9285 37.87 67.2629 39.6397 66.0001C40.1275 65.6669 40.5828 65.2885 40.9997 64.8701C45.0697 60.7501 45.2997 53.2801 41.5897 45.8701C40.8915 44.4782 40.0893 43.1411 39.1897 41.8701C36.595 38.0791 33.064 35.0235 28.9397 33.0001C26.9824 32.055 24.843 31.5466 22.6697 31.5101ZM33.5397 58.4001C31.4697 58.4001 27.6997 56.1701 24.7797 52.0501C20.7797 46.4201 21.1797 41.7301 22.0397 41.1201C22.2358 41.0152 22.4583 40.97 22.6797 40.9901C23.228 41.0078 23.7692 41.1194 24.2797 41.3201C24.5097 41.4001 24.7397 41.4901 24.9897 41.6001C27.5854 42.9407 29.8005 44.915 31.4297 47.3401C35.4297 52.9701 35.0297 57.6601 34.1697 58.2701C33.9753 58.3694 33.7576 58.4144 33.5397 58.4001Z" fill="#ED9FB2"/>
<path d="M34 57.44C34 57.44 38.27 56.38 40.31 59.7C42.35 63.02 41.01 65.09 40.04 66.7C39.07 68.31 52.71 55.08 52.71 55.08L43.44 46.6L33 53L34 57.44Z" fill="white"/>
<path d="M40.3423 46.1632L34.0547 49.9696L35.106 51.7062L41.3936 47.8998L40.3423 46.1632Z" fill="#ED9FB2"/>
<path d="M36.6595 57.37C37.6733 57.6108 38.61 58.1036 39.3827 58.8029C40.1553 59.5021 40.739 60.3851 41.0795 61.37L39.7595 63.71C39.5425 62.6497 39.0531 61.6642 38.3394 60.8506C37.6258 60.0369 36.7124 59.4233 35.6895 59.07L36.6595 57.37Z" fill="#ED9FB2"/>
</svg>
