<svg width="158" height="158" viewBox="0 0 158 158" fill="none" xmlns="http://www.w3.org/2000/svg">
<path d="M137.2 4.51001H20.3798C11.4991 4.51001 4.2998 11.7093 4.2998 20.59V137.41C4.2998 146.291 11.4991 153.49 20.3798 153.49H137.2C146.081 153.49 153.28 146.291 153.28 137.41V20.59C153.28 11.7093 146.081 4.51001 137.2 4.51001Z" fill="#ED9FB2"/>
<path d="M114.21 4.51001C114.21 4.51001 107.21 118.15 4.71973 122.38V137.59C4.71973 141.807 6.3949 145.851 9.37673 148.833C12.3586 151.815 16.4028 153.49 20.6197 153.49H137.92C142.105 153.49 146.119 151.827 149.078 148.868C152.037 145.909 153.7 141.895 153.7 137.71V20.9C153.7 16.5531 151.973 12.3843 148.899 9.31053C145.825 6.23681 141.657 4.51001 137.31 4.51001H114.21Z" fill="#EB92A7"/>
<path d="M45.3104 73.6801C42.9588 73.6827 40.7042 74.6181 39.0413 76.2809C37.3784 77.9438 36.4431 80.1984 36.4404 82.5501V110.92C36.4431 113.272 37.3784 115.526 39.0413 117.189C40.7042 118.852 42.9588 119.787 45.3104 119.79H56.0004C57.9223 119.784 59.7899 119.152 61.3204 117.99V73.6801H45.3104Z" fill="white"/>
<path d="M121.56 87C121.563 85.9633 121.361 84.9362 120.964 83.9783C120.568 83.0205 119.985 82.1509 119.25 81.42C120.081 80.5132 120.712 79.4421 121.103 78.2759C121.494 77.1097 121.636 75.8745 121.52 74.65C121.234 72.4112 120.132 70.3566 118.425 68.8803C116.718 67.4039 114.526 66.6097 112.27 66.65H90.3596C91.4496 63.35 93.1896 57.31 93.1896 52.46C93.1896 44.77 86.6496 38.27 82.5496 38.27C80.234 38.3054 77.9869 39.0603 76.1196 40.43C75.9113 40.5971 75.743 40.8086 75.6271 41.0491C75.5112 41.2896 75.4505 41.553 75.4496 41.82V53.82L65.2396 75.91L64.8096 76.13V114.13C67.5996 115.404 70.6141 116.115 73.6796 116.22H106.24C108.075 116.24 109.864 115.64 111.316 114.516C112.768 113.393 113.798 111.812 114.24 110.03C114.646 108.233 114.42 106.35 113.6 104.7C114.914 104.035 116.019 103.021 116.794 101.768C117.569 100.515 117.982 99.0729 117.99 97.6C117.992 96.3672 117.704 95.1511 117.15 94.05C118.465 93.3983 119.574 92.3942 120.353 91.1494C121.131 89.9047 121.549 88.4682 121.56 87Z" fill="white"/>
</svg>
