<svg width="256" height="172" viewBox="0 0 256 172" fill="none" xmlns="http://www.w3.org/2000/svg">
<rect x="1" y="2" width="254" height="169" rx="7" fill="#FBE9ED"/>
<path d="M45.9197 26.56C45.9197 27.6731 45.6004 28.7628 44.9997 29.7C46.9997 29.64 49.0897 29.64 51.2697 29.7L55.5097 25.11L56.6097 26.43C57.0179 25.2503 57.7939 24.2328 58.8236 23.5271C59.8533 22.8215 61.0823 22.4649 62.3297 22.51C62.3297 16.7 57.0297 12 50.4997 12C44.8897 12 40.1997 15.47 38.9897 20.12C42.8397 20.27 45.9197 23.11 45.9197 26.56Z" fill="#F3BDCA"/>
<path d="M56.6099 26.43L59.6799 30.11C62.0599 30.3 64.5299 30.57 67.0699 30.9C67.279 30.6578 67.4602 30.3928 67.6099 30.11L64.3399 24.66L66.4399 24.02C65.2895 23.0456 63.8274 22.5169 62.3199 22.53C61.0765 22.4857 59.8516 22.8404 58.8243 23.5421C57.7969 24.2438 57.0209 25.2557 56.6099 26.43Z" fill="#F3BDCA"/>
<path d="M44.9996 29.7C45.6003 28.7628 45.9196 27.6731 45.9196 26.56C45.9196 23.09 42.8396 20.27 38.9796 20.12H38.6596C34.6596 20.12 31.3896 23.01 31.3896 26.58C31.4001 28.0937 31.9824 29.5475 33.0196 30.65C36.9946 30.1335 40.993 29.8165 44.9996 29.7Z" fill="#F3BDCA"/>
<path d="M82.9298 33.84C79.0798 32.91 75.3598 32.17 71.7798 31.58L72.2598 33.84H82.9298Z" fill="#F3BDCA"/>
<path d="M50.49 30.51L51.27 29.68C49.09 29.6333 47 29.6333 45 29.68C40.987 29.7891 36.9819 30.0995 33 30.61C27.9051 31.175 22.8799 32.2504 18 33.82H56L50.49 30.51Z" fill="#F3BDCA"/>
<path d="M67.0697 30.88C64.5297 30.55 62.0697 30.28 59.6797 30.09L62.8297 33.84H69.8297L68.1497 31.03L67.0697 30.88Z" fill="#F3BDCA"/>
<path d="M59.6797 30.09L56.5997 26.43L55.5097 25.14L51.2697 29.68L50.4897 30.51L56.0597 33.84L69.6997 41.99L62.8397 33.84L59.6797 30.09Z" fill="#DB284E"/>
<path d="M67.6098 30.09L68.1798 31.03L69.8598 33.84L73.5898 40.05L72.2598 33.84L71.7798 31.58L69.9398 22.92L66.4398 24L64.3398 24.64L67.6098 30.09Z" fill="#DB284E"/>
<path d="M55.1899 45.7L68.9599 46.14L56.3999 41.37L55.1899 45.7Z" fill="#DB284E"/>
<path d="M190.495 38.1937L176.662 37.2886C176.163 37.256 175.731 37.6263 175.697 38.1157L175.288 44.1238C175.255 44.6133 175.633 45.0365 176.132 45.0692L189.965 45.9743C190.465 46.0069 190.897 45.6366 190.93 45.1472L191.339 39.1391C191.372 38.6496 190.995 38.2264 190.495 38.1937Z" fill="url(#paint0_linear_26518_406763)"/>
<path d="M195.617 44.3452L192.102 96.0033C192.045 96.8441 191.347 97.4955 190.505 97.5282C190.447 97.5302 190.389 97.5295 190.329 97.5253L168.793 96.1171C168.734 96.1134 168.676 96.1063 168.618 96.0967C167.788 95.9552 167.184 95.2179 167.241 94.3771L170.756 42.719C170.817 41.8201 171.611 41.1369 172.53 41.1974L194.066 42.6056C194.502 42.6337 194.887 42.8246 195.166 43.1129C195.473 43.4326 195.649 43.8725 195.617 44.3441L195.617 44.3452Z" fill="url(#paint1_linear_26518_406763)"/>
<g style="mix-blend-mode:multiply" opacity="0.16">
<path d="M193.052 82.0363L192.102 96.0033C192.045 96.8441 191.347 97.4955 190.505 97.5282C190.447 97.5302 190.389 97.5295 190.329 97.5253L168.793 96.1171C168.734 96.1134 168.676 96.1063 168.618 96.0967C167.788 95.9552 167.184 95.2179 167.241 94.3771L169.661 58.8094C170.491 60.4408 171.42 62.0237 172.438 63.5489C173.523 65.1752 174.706 66.7356 175.972 68.2128C180.006 72.9141 184.823 76.8648 190.077 80.2232C191.055 80.8447 192.044 81.4477 193.053 82.0352L193.052 82.0363Z" fill="#CE679B"/>
</g>
<path d="M187.088 33.0011L180.741 32.5859L180.405 37.5336L186.751 37.9489L187.088 33.0011Z" fill="#3A2738"/>
<path d="M194.857 31.7269L176.688 30.5389C176.428 30.5216 176.202 30.7148 176.186 30.9695L176.009 33.5645C175.992 33.8187 176.189 34.0401 176.448 34.0563L191.028 35.0095C193.01 35.1389 194.724 33.6687 194.857 31.7258L194.857 31.7269Z" fill="url(#paint2_linear_26518_406763)"/>
<path opacity="0.78" d="M192.2 49.0113L189.558 87.8455C189.512 88.5222 188.915 89.0338 188.223 88.9886L172.034 87.9303C171.476 87.8934 171.027 87.5042 170.901 86.9973C170.871 86.8781 170.858 86.7527 170.867 86.6232L173.51 47.789C173.555 47.1123 174.152 46.5992 174.844 46.6444L191.033 47.7027C191.51 47.7341 191.905 48.0216 192.091 48.4198C192.173 48.5995 192.215 48.8003 192.2 49.0113Z" fill="white" fill-opacity="0.5"/>
<g opacity="0.17">
<path d="M169.758 57.3862L173.051 54.5287L172.637 60.6241L169.343 63.4811L169.758 57.3862Z" fill="white"/>
<path d="M193.456 42.5668L187.779 47.4905L181.631 47.0888L187.308 42.1652L193.456 42.5668Z" fill="white"/>
<path d="M169.195 65.6355L172.49 62.7785L172.299 65.5861L169.005 68.4432L169.195 65.6355Z" fill="white"/>
<path d="M195.615 44.3452L195.542 45.4269L192.092 48.4202C191.905 48.023 191.51 47.7344 191.033 47.7031L189.955 47.6323L195.165 43.113C195.472 43.4326 195.648 43.8725 195.616 44.3441L195.615 44.3452Z" fill="white"/>
<path d="M194.834 55.838L194.419 61.9308L191.127 64.7872L191.541 58.6933L194.834 55.838Z" fill="white"/>
<path d="M194.272 64.0874L194.082 66.8939L190.789 69.7503L190.98 66.9427L194.272 64.0874Z" fill="white"/>
</g>
<path d="M175.175 74.6816L173.419 92.1083C173.352 92.771 172.749 93.2562 172.073 93.1908L150.996 91.1498C150.32 91.0844 149.825 90.4931 149.892 89.8305L151.648 72.4044C151.668 72.2059 151.694 72.011 151.723 71.8163C151.737 71.7258 151.752 71.637 151.769 71.5467C152.011 70.2075 152.492 68.9602 153.165 67.8433C154.031 66.4086 155.212 65.1889 156.607 64.2691L157.197 58.4116L172.526 59.8955L171.936 65.752C174.041 67.8332 175.296 70.7101 175.227 73.8169C175.226 73.9083 175.223 73.9985 175.219 74.0908C175.209 74.2868 175.194 74.4831 175.175 74.6816Z" fill="url(#paint3_linear_26518_406763)"/>
<g style="mix-blend-mode:multiply" opacity="0.16">
<path d="M172.524 59.8972L157.196 58.4119L156.605 64.2691L171.933 65.7545L172.524 59.8972Z" fill="#D166B5"/>
</g>
<path opacity="0.51" d="M175.201 74.4107L173.922 87.0982L150.396 84.82L151.676 72.1325C151.696 71.934 151.722 71.7391 151.75 71.5444L175.245 73.8199C175.235 74.016 175.221 74.2122 175.201 74.4107Z" fill="white"/>
<path d="M163.584 76.1891C163.538 76.0953 163.463 76.0116 163.361 75.9518C163.09 75.7936 162.733 75.8624 162.563 76.105L160.651 78.8353C160.236 79.4363 160.139 80.2227 160.48 80.9297C161.03 82.0751 162.493 82.6128 163.749 82.1336C165.004 81.6535 165.577 80.3361 165.026 79.1918L163.584 76.1891Z" fill="url(#paint4_linear_26518_406763)"/>
<path d="M163.411 73.5461C160.304 73.2457 157.528 75.478 157.22 78.5225C156.914 81.5676 159.191 84.2892 162.297 84.5906C165.405 84.8915 168.182 82.6592 168.489 79.6131C168.796 76.5686 166.518 73.8465 163.411 73.5461ZM162.38 83.7793C159.73 83.5232 157.787 81.2004 158.048 78.6027C158.31 76.005 160.68 74.1007 163.33 74.3569C165.979 74.6141 167.923 76.9358 167.661 79.5335C167.4 82.1313 165.03 84.0355 162.38 83.7793Z" fill="url(#paint5_linear_26518_406763)"/>
<path d="M175.257 57.5943L174.746 62.6768C174.706 63.0817 174.336 63.3781 173.924 63.3376L155.14 61.5201C154.727 61.4807 154.425 61.1186 154.466 60.7143L154.978 55.6308C155.019 55.2249 155.388 54.9279 155.802 54.9679L161.094 55.4797L161.616 50.3069C161.84 48.0884 163.856 46.4663 166.119 46.686C167.25 46.796 168.231 47.3443 168.899 48.1438C169.568 48.9423 169.924 49.9912 169.813 51.1013L169.291 56.2741L174.584 56.7858C174.997 56.8253 175.299 57.1873 175.258 57.5933L175.257 57.5943Z" fill="#47333F"/>
<g style="mix-blend-mode:multiply" opacity="0.15">
<path d="M173.925 87.0883L173.42 92.1073C173.353 92.77 172.75 93.2552 172.074 93.1897L150.996 91.1498C150.32 91.0844 149.825 90.4931 149.892 89.8305L151.677 72.1324C151.696 71.9339 151.722 71.739 151.751 71.5444L151.771 71.5463C152.012 70.2071 152.493 68.9598 153.167 67.8429C153.322 69.1775 153.627 70.4929 154.064 71.7681C154.804 73.9376 155.924 75.9922 157.337 77.8355C157.563 78.1322 157.798 78.4222 158.042 78.7059C158.889 79.7046 159.827 80.629 160.837 81.4624L160.839 81.4636C161.046 81.6351 161.254 81.802 161.468 81.964C161.479 81.9733 161.49 81.9826 161.502 81.9909C162.303 82.6017 163.141 83.1596 164.009 83.6643C164.332 83.8527 164.659 84.033 164.992 84.2068C167.76 85.659 170.801 86.6089 173.927 87.0885L173.925 87.0883Z" fill="#D166B5"/>
</g>
<path opacity="0.5" d="M171.633 68.7609C171.572 69.3637 171.024 69.8042 170.408 69.7453C169.793 69.6854 169.344 69.1482 169.404 68.5448C169.465 67.942 170.013 67.5015 170.629 67.5604C171.244 67.6203 171.693 68.1575 171.633 68.7609Z" fill="white"/>
<path d="M93.6834 30.9726L97.9824 30.3067C98.6134 30.2089 99.205 30.6317 99.3045 31.2489L99.9839 35.4627C100.084 36.0812 99.6523 36.6611 99.0226 36.7586L94.7236 37.4245C94.0926 37.5222 93.501 37.0995 93.4015 36.4823L92.7222 32.2685C92.6225 31.65 93.0537 31.0701 93.6834 30.9726Z" fill="#47333F"/>
<g style="mix-blend-mode:multiply" opacity="0.39">
<path d="M93.6834 30.9726L97.9824 30.3067C98.6134 30.2089 99.205 30.6317 99.3045 31.2489L99.9839 35.4627C100.084 36.0812 99.6523 36.6611 99.0226 36.7586L94.7236 37.4245C94.0926 37.5222 93.501 37.0995 93.4015 36.4823L92.7222 32.2685C92.6225 31.65 93.0537 31.0701 93.6834 30.9726Z" fill="#D166B5"/>
</g>
<path d="M97.4776 34.3579C97.7627 33.7416 97.4841 33.0154 96.8553 32.736C96.2265 32.4565 95.4856 32.7296 95.2005 33.3459C94.9154 33.9623 95.1941 34.6884 95.8228 34.9679C96.4516 35.2473 97.1925 34.9742 97.4776 34.3579Z" fill="#56404E"/>
<path d="M107.71 37.743L108.248 41.0803L86.8516 44.3944L86.3136 41.0572C86.2468 40.6414 86.5348 40.2527 86.9576 40.1873L106.823 37.1105C107.247 37.0451 107.644 37.3273 107.71 37.743Z" fill="#47333F"/>
<g style="mix-blend-mode:multiply" opacity="0.39">
<path d="M107.932 39.1149L86.5354 42.4291L86.8517 44.3909L108.249 41.0767L107.932 39.1149Z" fill="#D166B5"/>
</g>
<path d="M105.463 35.8955L105.687 37.2864L88.0932 40.0116L87.8694 38.6207C87.8655 38.5976 87.8615 38.5745 87.8615 38.5515C87.745 37.602 88.4152 36.7257 89.3865 36.5756L103.378 34.4085C104.35 34.2584 105.262 34.8896 105.45 35.8275C105.457 35.8493 105.461 35.8724 105.463 35.8955Z" fill="#47333F"/>
<g style="mix-blend-mode:multiply" opacity="0.39">
<path d="M105.463 35.8956L105.687 37.2864L88.093 40.0116L87.8692 38.6208C87.8652 38.5977 87.8613 38.5746 87.8613 38.5515L105.45 35.8276C105.457 35.8494 105.461 35.8725 105.463 35.8956Z" fill="#D166B5"/>
</g>
<path d="M111.998 43.2358L123.029 111.665C123.267 113.139 122.24 114.523 120.736 114.757L98.6009 118.185C97.0969 118.419 95.6845 117.411 95.4463 115.937L84.4154 47.5084C84.1772 46.0341 85.2047 44.6497 86.7088 44.4162L108.844 40.9879C110.348 40.7544 111.76 41.7616 111.998 43.2358Z" fill="url(#paint6_linear_26518_406763)"/>
<path opacity="0.9" d="M114.543 59.0035L86.959 63.2761L92.9057 100.161L120.489 95.8889L114.543 59.0035Z" fill="white"/>
<path opacity="0.9" d="M113.669 53.5797L86.0854 57.8523L86.6506 61.3577L114.234 57.0851L113.669 53.5797Z" fill="white"/>
<path d="M209.074 157.483C219.267 157.483 227.53 149.658 227.53 140.005C227.53 130.352 219.267 122.527 209.074 122.527C198.882 122.527 190.619 130.352 190.619 140.005C190.619 149.658 198.882 157.483 209.074 157.483Z" fill="#F3BDCA"/>
<path d="M196.797 157.483C201.039 157.483 204.477 154.224 204.477 150.205C204.477 146.185 201.039 142.926 196.797 142.926C192.555 142.926 189.117 146.185 189.117 150.205C189.117 154.224 192.555 157.483 196.797 157.483Z" fill="#DB284E"/>
<path d="M227.543 157.483C232.755 157.483 236.981 153.481 236.981 148.544C236.981 143.608 232.755 139.605 227.543 139.605C222.33 139.605 218.105 143.608 218.105 148.544C218.105 153.481 222.33 157.483 227.543 157.483Z" fill="#EB92A7"/>
<path d="M170.024 158.619H254.316C254.316 158.619 220.857 145.561 170.024 158.619Z" fill="#EB92A7"/>
<path d="M184.123 157.521C192.339 157.521 199 151.216 199 143.438C199 135.661 192.339 129.356 184.123 129.356C175.907 129.356 169.247 135.661 169.247 143.438C169.247 151.216 175.907 157.521 184.123 157.521Z" fill="#DB284E"/>
<path d="M169.246 157.521C173.354 157.521 176.685 154.368 176.685 150.479C176.685 146.591 173.354 143.438 169.246 143.438C165.138 143.438 161.808 146.591 161.808 150.479C161.808 154.368 165.138 157.521 169.246 157.521Z" fill="#DB284E"/>
<path d="M199 157.521C204.051 157.521 208.146 153.647 208.146 148.869C208.146 144.091 204.051 140.217 199 140.217C193.95 140.217 189.855 144.091 189.855 148.869C189.855 153.647 193.95 157.521 199 157.521Z" fill="#DB284E"/>
<path d="M143.34 158.619H224.919C224.919 158.619 192.529 145.985 143.34 158.619Z" fill="#DB284E"/>
<path d="M57.5452 155.523C68.7298 155.523 77.7967 146.971 77.7967 136.422C77.7967 125.873 68.7298 117.321 57.5452 117.321C46.3606 117.321 37.2937 125.873 37.2937 136.422C37.2937 146.971 46.3606 155.523 57.5452 155.523Z" fill="#EB92A7"/>
<path d="M77.7964 155.523C83.3887 155.523 87.9222 151.247 87.9222 145.973C87.9222 140.698 83.3887 136.422 77.7964 136.422C72.2041 136.422 67.6707 140.698 67.6707 145.973C67.6707 151.247 72.2041 155.523 77.7964 155.523Z" fill="#DB284E"/>
<path d="M37.2812 155.523C44.1538 155.523 49.7251 150.269 49.7251 143.788C49.7251 137.307 44.1538 132.052 37.2812 132.052C30.4087 132.052 24.8374 137.307 24.8374 143.788C24.8374 150.269 30.4087 155.523 37.2812 155.523Z" fill="#EB92A7"/>
<path d="M113.078 157.021H2C2 157.021 46.0948 139.88 113.078 157.021Z" fill="#EB92A7"/>
<path d="M71.6453 93.8003C74.572 92.1143 77.935 91.297 81.3263 91.4477C84.7176 91.5984 87.9914 92.7106 90.7505 94.6492C100.392 101.428 107.474 97.8452 107.474 97.8452L111.435 106.085L83.6943 118.856L71.6453 93.8003Z" fill="#A9EDFF"/>
<path d="M107.422 97.8077C109.792 98.89 112.445 99.231 115.02 98.7843C117.595 98.3376 119.967 97.1249 121.815 95.3109L124.133 100.13L111.396 106.035L107.422 97.8077Z" fill="#88D1E2"/>
<path d="M136.905 77.7803C136.879 78.0345 136.852 78.2887 136.822 78.5429C136.685 79.7786 136.532 81.0143 136.361 82.2469C136.123 83.9845 135.849 85.719 135.54 87.4487C135.046 90.1599 134.484 92.8632 133.72 95.5505C133.481 96.3993 132.652 96.962 131.755 96.8725L109.129 94.6185C108.232 94.529 107.536 93.8144 107.472 92.9351C107.462 92.7913 107.453 92.6474 107.444 92.5035C107.283 89.8674 107.288 87.2505 107.353 84.64C107.4 83.1069 107.475 81.5754 107.575 80.0472C107.652 78.861 107.743 77.6748 107.851 76.4919C107.898 75.9611 107.948 75.4304 108.002 74.9012C108.041 74.5048 108.082 74.1099 108.125 73.7135C108.421 70.9831 108.801 68.2591 109.282 65.5462C109.3 65.4407 109.318 65.3384 109.338 65.2329C109.832 62.5152 110.393 59.804 111.179 57.1151C111.424 56.2743 112.249 55.7228 113.141 55.8107L135.792 58.0663C136.68 58.1543 137.378 58.8576 137.447 59.7305C137.662 62.5185 137.656 65.2856 137.584 68.0464C137.584 68.0784 137.582 68.1088 137.581 68.1408C137.504 70.6873 137.344 73.2227 137.109 75.7533C137.046 76.4295 136.979 77.1057 136.905 77.7803Z" fill="url(#paint7_linear_26518_406763)"/>
<g opacity="0.17">
<path d="M128.39 57.3311L108.124 73.7152C108.421 70.9848 108.801 68.2608 109.282 65.548L120.428 56.5382L128.392 57.3311H128.39Z" fill="white"/>
<path d="M113.252 72.1245C112.89 73.0757 112.645 74.094 112.535 75.1651C112.502 75.4736 112.482 75.7821 112.474 76.0859L107.573 80.0472C107.65 78.861 107.741 77.6749 107.849 76.4919L113.25 72.1245H113.252Z" fill="white"/>
<path d="M134.875 57.9768L125.461 65.5862C124.866 65.3992 124.247 65.2697 123.607 65.2057C123.001 65.145 122.405 65.1466 121.817 65.2025L131.208 57.6124L134.876 57.9784L134.875 57.9768Z" fill="white"/>
<path d="M121.337 87.1036C121.917 87.1611 122.493 87.1627 123.057 87.1116L113.263 95.0295L109.129 94.617C108.232 94.5275 107.536 93.8129 107.472 92.9337C107.462 92.7898 107.452 92.6459 107.444 92.5021L116.535 85.1533C117.899 86.2227 119.534 86.9213 121.338 87.1004L121.337 87.1036Z" fill="white"/>
<path d="M131.721 80.1095C132.066 79.1791 132.303 78.1864 132.411 77.1457C132.574 75.5695 132.427 74.0428 132.022 72.6344L137.579 68.1423C137.502 70.6889 137.343 73.2243 137.108 75.7549L131.721 80.1095Z" fill="white"/>
<path d="M136.822 78.5446C136.685 79.7803 136.532 81.016 136.361 82.2485L119.748 95.6784L116.08 95.3123L136.822 78.5446Z" fill="white"/>
</g>
<path d="M135.229 55.3664L134.958 57.9849L113.973 55.8939L114.244 53.2754C114.345 52.2955 115.237 51.5793 116.237 51.6784L133.601 53.4081C134.601 53.5072 135.332 54.3848 135.231 55.3664H135.229Z" fill="#47333F"/>
<g style="mix-blend-mode:multiply" opacity="0.18">
<path d="M114.188 53.6821L113.96 55.8801L134.946 57.9695L135.174 55.7716L114.188 53.6821Z" fill="#D166B5"/>
</g>
<path d="M126.307 43.6214L121.228 43.1146L116.205 42.6143L115.916 45.391L117.604 45.5589C119.447 45.7427 120.789 47.3557 120.602 49.1621L120.072 54.2809L129.655 55.2353L130.603 46.0944C130.719 44.9754 129.887 43.9763 128.745 43.8628L126.309 43.6198L126.307 43.6214Z" fill="#47333F"/>
<g style="mix-blend-mode:multiply" opacity="0.19">
<path d="M129.78 96.6775L109.128 94.6201C108.231 94.5306 107.534 93.816 107.471 92.9367C107.278 90.1536 107.283 87.3944 107.352 84.6416C107.453 81.3836 107.673 78.1368 108.001 74.9012C108.324 71.6689 108.759 68.4445 109.336 65.2329C109.831 62.5152 110.392 59.804 111.178 57.1151C111.424 56.2743 112.248 55.7228 113.141 55.8107L115.863 56.0825C115.651 57.0448 114.583 62.3058 115.017 69.0264C115.363 74.5416 116.723 81.0399 120.388 86.9579C122.586 90.5212 125.626 93.8767 129.782 96.6775H129.78Z" fill="#D166B5"/>
</g>
<path d="M132.41 77.1457C132.302 78.1864 132.065 79.1792 131.72 80.1096C130.273 84.0086 126.907 86.771 123.056 87.1131C122.492 87.1642 121.916 87.1626 121.336 87.1051C119.532 86.926 117.896 86.2274 116.532 85.158C113.962 83.1373 112.369 79.7882 112.473 76.0875C112.481 75.7821 112.501 75.4752 112.533 75.1667C112.644 74.0972 112.891 73.0773 113.251 72.1261C114.706 68.2911 118.02 65.5702 121.817 65.2026C122.404 65.1466 123.001 65.145 123.606 65.2058C124.245 65.2697 124.865 65.3992 125.46 65.5862C128.627 66.5902 131.058 69.2694 132.021 72.6345C132.427 74.0429 132.573 75.5695 132.41 77.1457Z" fill="white" fill-opacity="0.26"/>
<path d="M164.929 70.8152H137.318C137.177 69.1534 138.098 67.4395 139.479 66.4102C141.087 65.2111 143.182 64.8156 145.202 64.8156C147.221 64.8181 149.219 65.1806 151.231 65.3429C153.243 65.5077 155.333 65.4595 157.192 64.6837C158.115 64.2971 158.982 63.7165 159.552 62.9053C160.12 62.0915 160.36 61.0266 160.037 60.0924C160.037 60.0924 161.258 60.673 162.515 61.9241C164.208 63.605 165.972 66.4964 164.931 70.8152H164.929Z" fill="url(#paint8_linear_26518_406763)"/>
<g style="mix-blend-mode:multiply" opacity="0.28">
<path d="M164.929 70.8153H144.26C144.957 69.535 146.377 68.6641 147.839 68.3079C149.575 67.8858 151.395 68.0544 153.181 68.1621C154.97 68.2699 156.82 68.3054 158.477 67.6411C159.977 67.0415 161.229 65.8741 161.914 64.434C162.289 63.6481 162.489 62.7887 162.513 61.9216C164.206 63.6025 165.97 66.4939 164.929 70.8127V70.8153Z" fill="#D166B5"/>
</g>
<path d="M167.088 75.7724V92.0068C167.088 93.1173 166.164 94.0173 165.03 94.0173H137.386C136.253 94.0173 135.328 93.1173 135.328 92.0068V75.7724C135.328 75.6013 135.351 75.4416 135.391 75.2831C135.613 74.4059 136.42 73.7569 137.384 73.7569H165.04C165.999 73.762 166.802 74.4123 167.022 75.2831C167.062 75.4428 167.085 75.6026 167.085 75.7724H167.088Z" fill="url(#paint9_linear_26518_406763)"/>
<path opacity="0.25" d="M167.085 77.8467H135.331V89.931H167.085V77.8467Z" fill="white"/>
<g style="mix-blend-mode:multiply" opacity="0.16">
<path d="M167.087 75.7729V94.0177H154.755V77.4474C154.755 76.2508 153.767 75.2823 152.547 75.2823H135.392C135.613 74.4051 136.42 73.7561 137.385 73.7561H165.041C165.999 73.7612 166.802 74.4115 167.022 75.2823C167.062 75.442 167.085 75.6018 167.085 75.7716L167.087 75.7729Z" fill="#D166B5"/>
</g>
<path d="M167.085 70.8153C167.085 71.6266 166.749 72.3631 166.206 72.8955C165.663 73.4279 164.913 73.7574 164.084 73.7574H138.331C136.675 73.7574 135.33 72.4391 135.33 70.8153H167.084H167.085Z" fill="#EB557B"/>
<path d="M104.43 72.8017L107.971 87.1925C108.213 88.1771 107.59 89.1694 106.585 89.4068L82.0784 95.1993C81.0739 95.4367 80.058 94.8332 79.8155 93.8473L76.2751 79.4566C76.2378 79.305 76.2231 79.1585 76.225 79.0094C76.2298 78.1855 76.8036 77.4409 77.6598 77.2386L102.177 71.4437C103.028 71.2478 103.881 71.655 104.266 72.3816C104.337 72.5147 104.392 72.6517 104.429 72.802L104.43 72.8017Z" fill="url(#paint10_linear_26518_406763)"/>
<path d="M102.65 65.5608L103.69 69.7863C103.856 70.4641 103.431 71.1462 102.74 71.3096L77.0899 77.3722C76.3997 77.5354 75.7025 77.1186 75.5357 76.4408L74.4962 72.2153C74.3295 71.5375 74.7562 70.8551 75.4464 70.6919L101.096 64.6294C101.261 64.5904 101.424 64.5844 101.581 64.6072C102.087 64.6781 102.523 65.0444 102.65 65.5608Z" fill="url(#paint11_linear_26518_406763)"/>
<path opacity="0.51" d="M104.881 74.6409L76.7307 81.2946L79.3661 92.0069L107.516 85.3533L104.881 74.6409Z" fill="white"/>
<g style="mix-blend-mode:multiply" opacity="0.16">
<path d="M104.43 72.8017L108.409 88.9756L97.4779 91.5594L93.8642 76.8704C93.6032 75.8094 92.5159 75.1588 91.4347 75.4144L76.2275 79.0088C76.2323 78.1849 76.8061 77.4403 77.6622 77.2379L102.179 71.4431C103.03 71.2472 103.883 71.6544 104.268 72.381C104.34 72.5141 104.395 72.6511 104.432 72.8014L104.43 72.8017Z" fill="#D166B5"/>
</g>
<path d="M206.234 106.597H175.831L164.89 89.1187H194.503C195.528 89.1332 196.533 89.4018 197.424 89.8995C198.315 90.3972 199.063 91.1078 199.598 91.9651L207.418 104.449C207.542 104.662 207.609 104.901 207.612 105.146C207.615 105.39 207.555 105.631 207.436 105.846C207.317 106.062 207.145 106.243 206.934 106.375C206.724 106.506 206.483 106.582 206.234 106.597Z" fill="#E0AC69"/>
<path d="M172.904 89.0469L67.0489 88.902C65.4662 88.8998 64.1813 90.1557 64.1791 91.7071L64.0813 160.346C64.0791 161.898 65.3604 163.157 66.9431 163.159L172.799 163.304C174.381 163.306 175.666 162.05 175.668 160.499L175.766 91.8598C175.768 90.3084 174.487 89.049 172.904 89.0469Z" fill="#E0AC69"/>
<path d="M97.0159 89.0187H194.567C195.58 89.0187 196.552 89.4133 197.269 90.1157C197.985 90.8181 198.388 91.7707 198.388 92.7641V159.468C198.388 160.461 197.985 161.414 197.269 162.117C196.552 162.819 195.58 163.214 194.567 163.214H97.0159V89.0187Z" fill="#F7CD97"/>
<path d="M129.623 125.96C128.502 125.635 126.961 125.199 126.961 124.712C126.961 124.225 128.057 123.463 129.305 123.463C130.553 123.463 131.648 124.05 131.648 124.712V125.236H133.597V124.712C133.597 123.014 131.674 121.615 129.305 121.615C126.936 121.615 125.013 123.001 125 124.712C125 126.634 127.331 127.296 129.356 127.87C130.54 128.207 132.018 128.632 132.018 129.119C132.018 129.605 130.744 130.367 129.292 130.367C127.84 130.367 126.579 129.768 126.579 129.119V128.594H124.618V129.106C124.618 130.841 126.668 132.215 129.292 132.215C131.916 132.215 133.966 130.854 133.966 129.131C133.966 127.208 131.674 126.547 129.623 125.948" fill="#231F20"/>
<path d="M139.914 121.615C139.18 121.581 138.447 121.692 137.758 121.943C137.07 122.195 136.44 122.58 135.908 123.077C135.376 123.574 134.953 124.171 134.664 124.833C134.374 125.495 134.225 126.208 134.225 126.928C134.225 127.648 134.374 128.36 134.664 129.022C134.953 129.684 135.376 130.282 135.908 130.778C136.44 131.275 137.07 131.661 137.758 131.912C138.447 132.163 139.18 132.275 139.914 132.24C140.796 132.271 141.673 132.095 142.472 131.729C143.272 131.362 143.971 130.814 144.512 130.13L144.856 129.693L143.264 128.619L142.958 129.006C142.602 129.461 142.139 129.825 141.61 130.069C141.08 130.312 140.498 130.427 139.914 130.405C139.153 130.409 138.412 130.166 137.806 129.714C137.2 129.263 136.763 128.628 136.564 127.908H145.34V126.984C145.34 125.575 144.77 124.225 143.755 123.228C142.74 122.231 141.363 121.669 139.927 121.665L139.914 121.615ZM136.602 125.998C136.804 125.279 137.241 124.645 137.846 124.193C138.451 123.742 139.191 123.499 139.952 123.501C140.721 123.495 141.47 123.737 142.086 124.187C142.703 124.638 143.152 125.274 143.365 125.998H136.602Z" fill="#231F20"/>
<path d="M149.148 119.131H147.2V121.628H145.391V123.463H147.2V129.106C147.2 131.091 148.703 132.24 151.263 132.24H152.244V130.405H151.263C149.874 130.405 149.161 129.955 149.148 129.156V123.476H152.244V121.64H149.148V119.131Z" fill="#30C495"/>
<path d="M157.72 121.641C156.647 121.641 155.598 121.952 154.706 122.537C153.814 123.121 153.118 123.952 152.707 124.924C152.297 125.895 152.189 126.965 152.399 127.996C152.608 129.028 153.125 129.976 153.884 130.719C154.642 131.463 155.609 131.97 156.662 132.175C157.714 132.38 158.805 132.275 159.797 131.872C160.788 131.47 161.636 130.788 162.232 129.914C162.828 129.039 163.146 128.011 163.146 126.959C163.146 125.548 162.575 124.196 161.557 123.198C160.539 122.201 159.159 121.641 157.72 121.641ZM157.72 123.488C158.424 123.476 159.115 123.669 159.706 124.043C160.297 124.418 160.76 124.956 161.038 125.59C161.315 126.223 161.394 126.924 161.263 127.601C161.133 128.279 160.8 128.903 160.306 129.395C159.812 129.886 159.18 130.221 158.491 130.359C157.801 130.497 157.086 130.43 156.435 130.167C155.785 129.905 155.229 129.458 154.838 128.884C154.448 128.311 154.241 127.636 154.243 126.946C154.24 126.037 154.603 125.163 155.255 124.515C155.906 123.867 156.792 123.498 157.72 123.488Z" fill="#30C495"/>
<path d="M179.55 121.678C178.477 121.678 177.428 121.99 176.536 122.574C175.644 123.159 174.948 123.989 174.538 124.961C174.127 125.933 174.019 127.002 174.229 128.034C174.438 129.065 174.955 130.013 175.714 130.757C176.473 131.501 177.439 132.007 178.492 132.212C179.544 132.418 180.635 132.312 181.627 131.91C182.618 131.507 183.466 130.826 184.062 129.951C184.658 129.076 184.976 128.048 184.976 126.996C184.976 125.586 184.405 124.233 183.387 123.236C182.37 122.238 180.989 121.678 179.55 121.678ZM179.55 130.417C178.848 130.429 178.157 130.236 177.566 129.863C176.976 129.489 176.512 128.951 176.234 128.318C175.956 127.685 175.877 126.986 176.006 126.308C176.136 125.631 176.468 125.007 176.96 124.515C177.453 124.023 178.084 123.687 178.772 123.548C179.461 123.409 180.176 123.474 180.827 123.734C181.477 123.995 182.034 124.44 182.426 125.012C182.818 125.584 183.027 126.257 183.028 126.946C183.034 127.858 182.672 128.735 182.02 129.386C181.369 130.036 180.481 130.407 179.55 130.417Z" fill="#30C495"/>
<path d="M166.482 126.047L166.495 125.411V117.271L164.546 117.258L164.521 132.277H166.482V129.531V127.883V126.047Z" fill="#30C495"/>
<path d="M173.297 123.276L175.208 121.665H172.291L166.903 126.047V127.895L171.998 132.077L172.266 132.29H175.195L168.788 126.971L173.297 123.276Z" fill="#30C495"/>
<path d="M110.467 127.233V122.914C111.22 122.919 111.967 122.778 112.664 122.499C113.362 122.22 113.996 121.809 114.531 121.29C115.066 120.77 115.491 120.152 115.781 119.471C116.072 118.79 116.222 118.059 116.224 117.321H120.644C120.62 119.955 119.536 122.473 117.628 124.327C115.719 126.181 113.141 127.221 110.454 127.221" fill="#30C495"/>
<path d="M116.166 127.797L116.16 132.129L120.58 132.135L120.586 127.803L116.166 127.797Z" fill="#231F20"/>
<path d="M86.4857 88.9287L73.5706 88.911L73.5599 96.3642L86.475 96.3819L86.4857 88.9287Z" fill="#F1C27D"/>
<path d="M86.3902 155.732L73.4751 155.715L73.4645 163.168L86.3796 163.186L86.3902 155.732Z" fill="#F1C27D"/>
<path d="M54.5395 106.472H85.388C85.6419 106.479 85.8931 106.42 86.1166 106.301C86.3401 106.183 86.528 106.009 86.6616 105.798L97.2332 88.9813H66.0408C65.4838 88.9815 64.9361 89.1217 64.4501 89.3883C63.964 89.6549 63.5557 90.0392 63.2642 90.5044L53.9026 105.336C53.8291 105.447 53.7877 105.576 53.7829 105.709C53.7781 105.842 53.8101 105.974 53.8753 106.09C53.9406 106.206 54.0368 106.303 54.1537 106.371C54.2706 106.438 54.4039 106.473 54.5395 106.472Z" fill="#F1C27D"/>
<path d="M87.0812 163.139C90.5492 163.139 93.3605 160.69 93.3605 157.67C93.3605 154.65 90.5492 152.202 87.0812 152.202C83.6133 152.202 80.802 154.65 80.802 157.67C80.802 160.69 83.6133 163.139 87.0812 163.139Z" fill="#56CCA5"/>
<path d="M61.9648 163.139C66.2276 163.139 69.6833 160.131 69.6833 156.422C69.6833 152.713 66.2276 149.705 61.9648 149.705C57.702 149.705 54.2463 152.713 54.2463 156.422C54.2463 160.131 57.702 163.139 61.9648 163.139Z" fill="#FBE9ED"/>
<path d="M108.976 164H40.0701C40.0701 164 67.4287 154.187 108.976 164Z" fill="#FBE9ED"/>
<path d="M101.449 162.627C104.804 162.627 107.524 160.257 107.524 157.333C107.524 154.41 104.804 152.04 101.449 152.04C98.0936 152.04 95.3735 154.41 95.3735 157.333C95.3735 160.257 98.0936 162.627 101.449 162.627Z" fill="#FBE9ED"/>
<path d="M77.1212 162.639C81.2434 162.639 84.585 159.727 84.585 156.135C84.585 152.543 81.2434 149.63 77.1212 149.63C72.9991 149.63 69.6575 152.543 69.6575 156.135C69.6575 159.727 72.9991 162.639 77.1212 162.639Z" fill="#FBE9ED"/>
<path d="M121.929 163.775H55.2517C55.2517 163.775 81.7188 154.275 121.929 163.775Z" fill="#FBE9ED"/>
<path d="M189.918 162.864C192.415 162.864 194.44 160.947 194.44 158.582C194.44 156.217 192.415 154.3 189.918 154.3C187.421 154.3 185.397 156.217 185.397 158.582C185.397 160.947 187.421 162.864 189.918 162.864Z" fill="#56CCA5"/>
<path d="M171.807 162.876C174.881 162.876 177.373 160.518 177.373 157.608C177.373 154.698 174.881 152.34 171.807 152.34C168.733 152.34 166.241 154.698 166.241 157.608C166.241 160.518 168.733 162.876 171.807 162.876Z" fill="#FBE9ED"/>
<path d="M205.686 163.538H156.013C156.013 163.538 175.742 155.848 205.686 163.538Z" fill="#FBE9ED"/>
<path d="M197.383 162.889C202.223 162.889 206.146 159.172 206.146 154.587C206.146 150.002 202.223 146.285 197.383 146.285C192.543 146.285 188.62 150.002 188.62 154.587C188.62 159.172 192.543 162.889 197.383 162.889Z" fill="#FBE9ED"/>
<path d="M206.145 162.889C208.565 162.889 210.527 161.033 210.527 158.744C210.527 156.455 208.565 154.599 206.145 154.599C203.725 154.599 201.764 156.455 201.764 158.744C201.764 161.033 203.725 162.889 206.145 162.889Z" fill="#FBE9ED"/>
<path d="M188.62 162.889C191.595 162.889 194.007 160.608 194.007 157.795C194.007 154.982 191.595 152.702 188.62 152.702C185.644 152.702 183.232 154.982 183.232 157.795C183.232 160.608 185.644 162.889 188.62 162.889Z" fill="#FBE9ED"/>
<path d="M221.405 163.538H173.349C173.349 163.538 192.428 156.097 221.405 163.538Z" fill="#FBE9ED"/>
<path d="M162.292 89.0811L184.683 89.0562L174.774 102.739L162.763 97.8077L162.292 89.0811Z" fill="#F7CD97"/>
<g clip-path="url(#clip0_26518_406763)">
<rect width="79.283" height="22.1535" transform="matrix(0.999952 -0.0098458 -0.00481186 0.999988 107.414 114.556)" fill="#F7CD97"/>
<path d="M116.11 121.045L116.349 120.994C115.981 123.347 115.615 126.325 115.644 127.263C115.658 127.751 116.011 128.098 116.483 128.093C116.632 128.091 116.779 128.054 116.913 127.986C119.057 126.919 120.382 126.569 122.578 125.99C123.094 125.856 123.231 125.418 123.191 125.086C123.144 124.699 122.846 124.308 122.367 124.313C122.291 124.314 122.214 124.324 122.14 124.344C120.26 124.84 119.001 125.192 117.437 125.874C117.473 125.507 117.519 125.083 117.576 124.614C117.88 124.486 118.162 124.367 118.427 124.253C119.892 123.631 120.859 123.22 122.594 122.729C123.11 122.582 123.241 122.142 123.199 121.805C123.15 121.426 122.856 121.044 122.391 121.049C122.309 121.05 122.228 121.062 122.149 121.085C120.391 121.585 119.417 121.999 117.942 122.627L117.83 122.674C117.963 121.755 118.096 120.871 118.217 120.18C119.458 119.626 120.603 119.333 122.412 118.957C122.834 118.869 123.081 118.537 123.041 118.112C123.004 117.708 122.687 117.283 122.174 117.288C122.113 117.288 122.051 117.295 121.99 117.308C120.564 117.605 119.458 117.872 118.368 118.281C118.34 118.235 118.307 118.192 118.269 118.153C118.184 118.069 118.083 118.004 117.973 117.96C117.862 117.915 117.743 117.894 117.623 117.896C117.308 117.899 116.931 118.066 116.817 118.522C116.805 118.569 116.783 118.645 116.758 118.734L116.758 118.743C116.713 118.899 116.658 119.09 116.627 119.233C116.406 119.3 115.604 119.449 114.827 119.591L114.788 119.598C113.877 119.764 112.845 119.952 112.185 120.109C112.207 119.605 112.228 119.162 112.249 118.754C112.261 118.509 112.268 118.256 112.275 118.01L112.275 117.868C113.034 117.748 113.789 117.624 114.696 117.475L114.718 117.471C115.708 117.307 116.829 117.122 117.919 116.956C118.015 116.94 118.106 116.903 118.187 116.849C118.267 116.794 118.336 116.724 118.387 116.641C118.454 116.539 118.499 116.425 118.52 116.306C118.542 116.187 118.539 116.065 118.511 115.948C118.413 115.582 118.109 115.367 117.7 115.371C117.645 115.371 117.59 115.376 117.535 115.384C116.505 115.542 115.455 115.715 114.443 115.882L114.398 115.89C113.728 116.001 113.069 116.11 112.401 116.217C112.436 115.983 112.487 115.75 112.553 115.522C112.592 115.407 112.602 115.285 112.583 115.166C112.563 115.048 112.516 114.936 112.443 114.84C112.361 114.736 112.256 114.653 112.136 114.596C112.015 114.539 111.884 114.511 111.75 114.513C111.577 114.51 111.406 114.565 111.267 114.671C111.128 114.777 111.028 114.927 110.985 115.096C110.857 115.545 110.774 116.006 110.736 116.47C109.803 116.608 108.973 116.719 108.198 116.809C107.725 116.863 107.401 117.194 107.399 117.63C107.397 118.027 107.765 118.487 108.225 118.434C108.965 118.35 109.758 118.245 110.65 118.115C110.644 118.244 110.639 118.373 110.633 118.502C110.602 119.105 110.572 119.743 110.539 120.577C110.232 120.677 109.951 120.776 109.682 120.878C109.326 121.01 109.071 121.448 109.111 121.846C109.145 122.178 109.366 122.403 109.708 122.448C109.905 122.48 110.107 122.474 110.303 122.43C110.348 122.42 110.402 122.408 110.465 122.392L110.439 123.037C110.373 124.705 110.305 126.429 110.202 128.125C110.192 128.227 110.204 128.33 110.236 128.426C110.268 128.523 110.32 128.611 110.389 128.686C110.465 128.763 110.556 128.822 110.657 128.862C110.757 128.902 110.865 128.921 110.973 128.918C111.374 128.914 111.795 128.641 111.826 128.128C111.93 126.418 111.999 124.687 112.065 123.014L112.107 121.946C113.003 121.706 114.998 121.282 115.959 121.078L116.11 121.045Z" fill="#D7244F"/>
<path d="M153.225 123.793C153.178 123.407 152.88 123.015 152.401 123.02C152.324 123.021 152.248 123.031 152.174 123.051C150.2 123.572 148.778 123.968 147.12 124.684C147.148 124.322 147.188 123.899 147.243 123.423C147.256 123.418 147.268 123.414 147.279 123.409C147.788 123.195 148.212 123.012 148.493 122.887C149.553 122.425 150.137 122.171 151.699 121.727C152.215 121.58 152.346 121.14 152.303 120.802C152.255 120.423 151.961 120.042 151.495 120.046C151.414 120.048 151.333 120.06 151.254 120.082C149.668 120.533 149.079 120.791 148.009 121.257C147.848 121.327 147.678 121.402 147.493 121.481C147.627 120.56 147.774 119.617 147.915 118.82C148.458 118.586 149.047 118.422 149.602 118.275C150.359 118.078 150.826 117.994 151.369 117.895L151.375 117.895C151.654 117.845 152.001 117.783 152.445 117.691C152.867 117.605 153.114 117.275 153.075 116.847C153.039 116.442 152.721 116.011 152.206 116.017C152.145 116.017 152.084 116.024 152.025 116.036C151.584 116.126 151.154 116.202 150.736 116.275C149.899 116.423 149.028 116.575 148.195 116.841C148.159 116.732 148.098 116.633 148.017 116.552C147.846 116.385 147.615 116.293 147.375 116.296C147.06 116.299 146.683 116.465 146.568 116.921C146.526 117.092 146.472 117.341 146.409 117.664C146.057 117.888 145.725 118.144 145.419 118.429C145.161 118.669 145.081 118.985 145.2 119.295C145.267 119.461 145.38 119.604 145.525 119.706C145.671 119.808 145.844 119.867 146.023 119.874C145.645 122.233 145.283 125.086 145.395 126.049C145.452 126.535 145.799 126.872 146.241 126.868C146.387 126.865 146.532 126.828 146.663 126.761C148.789 125.703 150.395 125.279 152.618 124.693C153.128 124.561 153.264 124.125 153.225 123.793Z" fill="#D7244F"/>
<path d="M130.108 128.146C130.208 126.98 130.358 125.62 130.503 124.305L130.503 124.276C130.605 123.354 130.71 122.404 130.794 121.542C130.886 120.603 130.988 119.588 131.115 118.537C131.127 118.441 131.139 118.343 131.149 118.246C131.209 117.74 131.269 117.217 131.396 116.72C131.425 116.615 131.429 116.506 131.408 116.4C131.387 116.294 131.342 116.195 131.276 116.11C131.195 116.012 131.094 115.933 130.978 115.879C130.863 115.825 130.737 115.798 130.609 115.8C130.474 115.798 130.34 115.834 130.223 115.903C130.105 115.971 130.008 116.07 129.941 116.189C129.616 116.751 129.328 117.329 129.048 117.888C128.872 118.238 128.673 118.636 128.472 119.012C128.104 119.706 127.792 120.26 127.482 120.754C127.388 120.906 127.296 121.048 127.202 121.185C127.049 120.762 126.697 119.729 126.479 118.944C126.334 118.426 126.169 117.911 126.008 117.412C125.934 117.178 125.859 116.944 125.786 116.714C125.78 116.65 125.77 116.589 125.759 116.528L125.756 116.519C125.731 116.443 125.701 116.368 125.667 116.295C125.548 116.063 125.289 115.92 124.99 115.923C124.853 115.924 124.717 115.958 124.594 116.022C124.506 116.069 124.429 116.133 124.366 116.211C124.343 116.233 124.322 116.257 124.302 116.283C124.232 116.377 124.187 116.486 124.171 116.601C124.118 116.824 124.087 117.051 124.08 117.28C124.074 117.384 124.067 117.491 124.055 117.577C123.929 118.482 123.849 119.443 123.793 120.698C123.706 122.682 123.623 125.373 123.576 127.719C123.572 127.813 123.586 127.907 123.619 127.994C123.652 128.082 123.702 128.162 123.767 128.229C123.844 128.303 123.935 128.361 124.035 128.399C124.135 128.437 124.242 128.456 124.35 128.453C124.741 128.449 125.142 128.192 125.152 127.709C125.175 126.501 125.223 125.107 125.268 123.759C125.299 122.832 125.325 122.067 125.344 121.356C125.35 121.145 125.357 120.928 125.366 120.711C125.708 121.664 126.117 122.364 126.647 122.909C126.796 123.049 126.995 123.123 127.2 123.116C127.349 123.118 127.495 123.073 127.619 122.988C128.351 122.457 128.849 121.61 129.296 120.774C129.273 120.999 129.25 121.225 129.228 121.451C129.147 122.282 129.044 123.211 128.946 124.111L128.941 124.153C128.791 125.521 128.635 126.935 128.529 128.171C128.518 128.262 128.526 128.354 128.553 128.441C128.581 128.528 128.626 128.608 128.687 128.676C128.759 128.749 128.845 128.805 128.941 128.843C129.036 128.881 129.139 128.898 129.242 128.894C129.643 128.89 130.069 128.632 130.108 128.146Z" fill="#D7244F"/>
<path d="M132.623 127.269C132.966 126.207 133.282 125.133 133.521 124.31C134.37 123.868 135.146 123.47 135.89 123.093C136.348 124.627 136.899 126.13 137.542 127.592C137.659 127.856 137.948 128.023 138.28 128.02C138.433 128.02 138.582 127.98 138.715 127.903C139.11 127.669 139.238 127.205 139.035 126.748C138.462 125.463 137.946 124.012 137.447 122.318C137.87 122.111 138.251 121.923 138.609 121.753C138.955 121.587 139.121 121.261 139.043 120.902C138.964 120.544 138.632 120.175 138.164 120.179C138.031 120.182 137.901 120.213 137.781 120.272C137.519 120.398 137.253 120.526 136.985 120.657C136.789 119.912 136.594 119.112 136.353 118.074C136.275 117.729 136.186 117.377 136.084 116.999C136.045 116.851 136.009 116.699 135.977 116.535L135.97 116.495C136.02 116.377 136.043 116.249 136.035 116.122C136.027 115.995 135.989 115.872 135.924 115.763C135.844 115.634 135.732 115.528 135.599 115.454C135.466 115.38 135.317 115.341 135.164 115.339C135.013 115.339 134.866 115.388 134.744 115.478C134.526 115.636 134.371 115.867 134.308 116.128L134.278 116.12L134.243 116.279C133.464 118.378 132.838 120.55 132.233 122.655L132.091 123.143L132.031 123.176C131.98 123.193 131.931 123.216 131.884 123.242C131.829 123.271 131.776 123.302 131.727 123.332C131.678 123.361 131.631 123.387 131.582 123.414L131.433 123.492L131.439 123.506C131.32 123.597 131.23 123.721 131.181 123.863C131.133 124.005 131.128 124.157 131.167 124.301C131.227 124.541 131.377 124.748 131.586 124.877C131.365 125.618 131.175 126.236 130.985 126.818C130.942 126.936 130.928 127.062 130.944 127.186C130.961 127.309 131.007 127.427 131.08 127.527C131.166 127.638 131.277 127.726 131.404 127.786C131.53 127.846 131.67 127.875 131.811 127.871C131.992 127.875 132.171 127.817 132.318 127.708C132.465 127.599 132.572 127.444 132.623 127.269ZM134.169 122.066C134.376 121.355 134.645 120.436 134.944 119.486L134.958 119.55C135.051 119.959 135.156 120.422 135.273 120.878C135.321 121.066 135.371 121.251 135.419 121.434C135.024 121.631 134.615 121.836 134.169 122.066Z" fill="#D7244F"/>
<path d="M144.201 124.732C144.056 124.734 143.913 124.773 143.786 124.846C143.082 125.236 142.514 125.485 141.945 125.654C141.65 125.743 141.345 125.791 141.038 125.798L141.006 125.794C140.965 125.558 141.026 125.222 141.074 124.948C141.16 124.475 141.259 123.938 141.339 123.397C141.805 120.286 142.056 117.789 142.16 115.3C142.168 115.193 142.154 115.085 142.118 114.984C142.082 114.883 142.026 114.791 141.953 114.713C141.873 114.634 141.776 114.571 141.671 114.529C141.565 114.488 141.451 114.468 141.337 114.471C140.916 114.475 140.478 114.762 140.455 115.304C140.321 118.527 140.027 121.288 139.531 123.994C139.515 124.081 139.497 124.172 139.477 124.269L139.471 124.304C139.273 125.316 139.02 126.575 140.015 127.235C140.304 127.425 140.657 127.517 141.086 127.513C141.476 127.498 141.863 127.44 142.241 127.338C143.093 127.133 143.893 126.727 144.628 126.318C144.975 126.127 145.126 125.788 145.032 125.411C144.951 125.072 144.635 124.727 144.201 124.732Z" fill="#D7244F"/>
<path d="M173.499 124.981L173.434 124.982C172.741 124.989 172.364 125.549 172.35 126.099C172.335 126.627 172.654 127.209 173.389 127.234L173.446 127.233C174.143 127.226 174.522 126.666 174.537 126.117C174.551 125.588 174.232 125.006 173.499 124.981Z" fill="#D7244F"/>
<path d="M165.005 118.795C164.779 117.12 163.76 115.694 162.346 115.071C161.865 114.857 161.343 114.748 160.814 114.75C159.822 114.76 158.955 115.181 158.374 115.935C158.207 116.146 158.063 116.374 157.944 116.615C157.873 116.753 157.84 116.907 157.846 117.06C157.853 117.214 157.9 117.363 157.983 117.492C158.107 117.692 158.3 117.839 158.526 117.906C158.478 119.175 158.462 120.487 158.479 121.803C158.492 122.727 158.52 123.819 158.646 124.922L158.667 125.111C158.526 125.129 158.389 125.14 158.258 125.144C157.685 125.163 157.389 125.625 157.393 126.071C157.395 126.487 157.661 126.932 158.236 126.926L158.259 126.926C158.534 126.916 158.808 126.888 159.079 126.842C159.121 126.924 159.169 127.003 159.224 127.076C159.421 127.342 159.7 127.492 159.989 127.489C160.142 127.487 160.293 127.443 160.424 127.363C160.535 127.293 160.63 127.201 160.705 127.094C160.779 126.986 160.831 126.865 160.857 126.737C160.89 126.59 160.88 126.437 160.83 126.296C161.777 125.845 162.618 125.195 163.295 124.392C164.646 122.793 165.269 120.753 165.005 118.795ZM160.365 116.583C160.49 116.534 160.624 116.511 160.758 116.515L160.857 116.514C161.062 116.519 161.264 116.559 161.455 116.633C162.335 116.923 163.039 117.868 163.25 119.039C163.487 120.363 162.999 122.002 162.006 123.215C161.559 123.762 161.01 124.217 160.391 124.556C160.291 123.562 160.267 122.54 160.256 121.584C160.236 119.885 160.273 118.203 160.365 116.583L160.365 116.583Z" fill="#D7244F"/>
<path d="M171.226 122.238C171.103 121.046 170.97 119.814 170.748 118.616C170.593 117.787 170.417 116.909 170.108 116.076C169.969 115.7 169.821 115.341 169.538 115.084C169.333 114.894 169.063 114.789 168.782 114.79C168.636 114.792 168.492 114.824 168.358 114.885C168.225 114.946 168.106 115.035 168.008 115.145C167.896 115.263 167.82 115.41 167.786 115.568C167.753 115.727 167.765 115.891 167.82 116.041C167.822 116.047 167.823 116.052 167.825 116.057C167.812 116.083 167.801 116.109 167.791 116.137C167.465 116.995 167.175 117.873 166.893 118.722L166.893 118.728C166.578 119.673 166.293 120.523 165.973 121.366C165.54 121.51 165.424 121.899 165.457 122.19C165.469 122.285 165.495 122.377 165.536 122.463C165.388 122.822 165.22 123.24 165.089 123.649C164.911 124.205 164.705 125.027 164.971 125.731C165.118 126.117 165.444 126.358 165.821 126.355C165.9 126.354 165.979 126.343 166.055 126.321C166.177 126.282 166.291 126.22 166.389 126.136C166.487 126.053 166.568 125.951 166.627 125.836C166.679 125.738 166.71 125.631 166.718 125.521C166.726 125.411 166.711 125.301 166.674 125.198C166.538 124.839 166.712 124.343 166.866 123.906L166.902 123.803C167.023 123.455 167.168 123.11 167.307 122.777L167.345 122.685C167.953 122.55 168.59 122.426 169.466 122.27L169.508 122.667C169.666 124.182 169.831 125.748 170.188 127.259C170.224 127.445 170.325 127.611 170.473 127.728C170.621 127.845 170.806 127.906 170.996 127.899C171.139 127.897 171.281 127.863 171.411 127.8C171.541 127.737 171.656 127.646 171.747 127.534C171.83 127.429 171.887 127.306 171.914 127.176C171.941 127.046 171.937 126.911 171.903 126.784C171.551 125.296 171.386 123.742 171.226 122.238ZM169.277 120.68C168.789 120.767 168.385 120.841 168.011 120.914C168.204 120.365 168.394 119.797 168.572 119.263L168.592 119.204C168.677 118.949 168.776 118.65 168.88 118.344C168.959 118.709 169.035 119.117 169.114 119.582C169.134 119.696 169.152 119.81 169.169 119.924C169.176 119.971 169.183 120.017 169.189 120.064L169.21 120.216C169.215 120.254 169.22 120.281 169.222 120.295C169.241 120.422 169.26 120.551 169.277 120.68Z" fill="#D7244F"/>
<path d="M174.364 119.824C174.375 119.669 174.385 119.509 174.397 119.337L174.397 119.32C174.419 118.97 174.436 118.764 174.448 118.61L174.448 118.575C174.47 118.302 174.484 118.138 174.507 117.513C174.507 117.453 174.511 117.392 174.514 117.33L174.518 117.235C174.547 116.615 174.575 115.974 174.417 115.382C174.371 115.19 174.26 115.022 174.104 114.903C173.948 114.785 173.756 114.725 173.559 114.732C173.417 114.732 173.276 114.764 173.148 114.826C173.019 114.888 172.906 114.978 172.816 115.089C172.738 115.191 172.685 115.311 172.662 115.437C172.639 115.563 172.646 115.692 172.684 115.814C172.706 115.903 172.722 115.994 172.731 116.086L172.731 116.142C172.736 116.236 172.739 116.327 172.74 116.405C172.75 116.831 172.736 117.254 172.717 117.685C172.692 118.305 172.675 118.519 172.647 118.819L172.647 118.827C172.632 119.021 172.612 119.258 172.585 119.688L172.562 120.032C172.514 120.77 172.479 121.305 172.483 122.14C172.483 122.183 172.483 122.23 172.483 122.28L172.483 122.301C172.479 122.972 172.474 124.095 173.326 124.22C173.397 124.23 173.469 124.235 173.541 124.234C173.835 124.232 174.057 124.126 174.21 123.918C174.45 123.583 174.387 123.1 174.31 122.867C174.295 122.812 174.284 122.756 174.278 122.699C174.278 122.693 174.279 122.671 174.275 122.64L174.275 122.625C174.275 122.596 174.27 122.567 174.269 122.555C174.265 122.473 174.263 122.391 174.261 122.311L174.261 122.293C174.258 122.104 174.263 121.906 174.264 121.738C174.287 120.976 174.319 120.492 174.364 119.824Z" fill="#D7244F"/>
<path d="M185.943 115.08C185.821 115.079 185.701 115.109 185.593 115.166C185.485 115.224 185.393 115.307 185.325 115.409L185.296 115.4L185.23 115.595C184.892 116.567 184.49 117.544 184.065 118.575L184.06 118.586C183.88 119.022 183.73 119.388 183.584 119.752C183.209 119.211 182.817 118.633 182.399 117.988C182.253 117.764 182.176 117.661 182.113 117.577C182.001 117.428 181.9 117.271 181.809 117.108C181.681 116.892 181.569 116.689 181.465 116.489C181.427 116.415 181.387 116.334 181.346 116.245L181.329 116.205C181.318 116.176 181.309 116.145 181.3 116.116C181.258 115.965 181.167 115.833 181.041 115.741C180.915 115.649 180.762 115.601 180.605 115.607C180.484 115.607 180.365 115.635 180.256 115.689C180.148 115.743 180.053 115.82 179.978 115.917C179.912 116.007 179.869 116.113 179.852 116.224C179.836 116.334 179.847 116.447 179.885 116.552L179.885 116.559C180.271 117.453 180.463 117.746 180.884 118.388C180.943 118.478 181.005 118.575 181.075 118.68L181.079 118.685C181.731 119.69 182.34 120.582 182.942 121.411C182.258 123.296 181.895 124.824 181.801 126.217C181.792 126.31 181.802 126.404 181.832 126.493C181.861 126.581 181.908 126.663 181.971 126.731C182.04 126.801 182.122 126.856 182.213 126.892C182.304 126.928 182.402 126.946 182.5 126.943C182.86 126.939 183.241 126.694 183.272 126.231C183.434 123.836 184.461 121.381 185.453 119L185.461 118.981C185.792 118.187 186.105 117.437 186.389 116.685C186.437 116.618 186.474 116.544 186.5 116.466C186.526 116.386 186.549 116.305 186.573 116.217C186.593 116.146 186.614 116.071 186.638 115.997C186.677 115.895 186.69 115.785 186.676 115.677C186.662 115.57 186.622 115.467 186.559 115.38C186.488 115.285 186.394 115.208 186.287 115.156C186.18 115.104 186.063 115.078 185.943 115.08Z" fill="#D7244F"/>
<path d="M180.216 124.153C180.069 124.156 179.925 124.196 179.797 124.268C179.152 124.627 178.629 124.855 178.108 125.011C177.852 125.086 177.589 125.13 177.324 125.14C177.307 124.941 177.355 124.672 177.392 124.45L177.397 124.427C177.477 123.991 177.567 123.496 177.641 123.002C178.057 120.215 178.31 117.693 178.407 115.291C178.415 115.182 178.4 115.072 178.363 114.97C178.327 114.867 178.27 114.773 178.195 114.694C178.113 114.613 178.016 114.55 177.909 114.507C177.802 114.465 177.687 114.445 177.571 114.448C177.146 114.452 176.704 114.743 176.681 115.292C176.579 117.725 176.297 120.423 175.819 123.539C175.801 123.656 175.778 123.781 175.752 123.931C175.584 124.849 175.375 125.993 176.301 126.606C176.581 126.792 176.919 126.88 177.333 126.876C177.699 126.862 178.063 126.807 178.418 126.712C179.214 126.52 179.96 126.141 180.648 125.762C181 125.565 181.154 125.222 181.059 124.841C180.974 124.496 180.656 124.149 180.216 124.153Z" fill="#D7244F"/>
<path d="M186.616 129.766L151.858 130.109L151.829 136.271L186.586 135.929L186.616 129.766Z" fill="#D8254F"/>
<path d="M157.39 133.674C157.307 133.589 157.205 133.523 157.093 133.484C156.96 133.434 156.825 133.392 156.688 133.359C156.537 133.322 156.388 133.277 156.243 133.224C156.101 133.173 155.965 133.108 155.838 133.03C155.712 132.949 155.61 132.836 155.541 132.703C155.46 132.544 155.421 132.367 155.428 132.188C155.426 132.043 155.457 131.898 155.518 131.765C155.579 131.632 155.669 131.514 155.781 131.42C156.015 131.213 156.331 131.107 156.729 131.103C156.871 131.101 157.013 131.118 157.151 131.153C157.267 131.181 157.38 131.223 157.486 131.278C157.566 131.321 157.644 131.369 157.719 131.422C157.772 131.459 157.821 131.502 157.865 131.549L157.909 131.604L157.514 132.004C157.507 131.997 157.496 131.985 157.482 131.968C157.454 131.937 157.423 131.91 157.389 131.886C157.34 131.848 157.288 131.815 157.233 131.785C157.164 131.75 157.09 131.724 157.014 131.706C156.92 131.683 156.823 131.672 156.726 131.673C156.55 131.666 156.376 131.722 156.234 131.83C156.178 131.871 156.131 131.925 156.099 131.987C156.066 132.049 156.049 132.118 156.047 132.187C156.043 132.3 156.084 132.41 156.161 132.492C156.244 132.577 156.346 132.643 156.459 132.682C156.591 132.732 156.726 132.774 156.863 132.807C157.014 132.844 157.162 132.889 157.308 132.941C157.45 132.991 157.586 133.055 157.714 133.134C157.84 133.215 157.942 133.328 158.01 133.462C158.09 133.62 158.129 133.796 158.123 133.974C158.127 134.135 158.096 134.296 158.03 134.444C157.965 134.593 157.867 134.725 157.745 134.832C157.494 135.055 157.149 135.169 156.709 135.173C156.535 135.176 156.362 135.156 156.195 135.114C156.055 135.081 155.921 135.03 155.795 134.963C155.7 134.911 155.609 134.851 155.523 134.786C155.464 134.741 155.408 134.69 155.357 134.636L155.302 134.567L155.697 134.169C155.705 134.18 155.717 134.196 155.734 134.217C155.771 134.256 155.81 134.293 155.851 134.326C155.913 134.378 155.98 134.423 156.05 134.462C156.141 134.508 156.236 134.543 156.335 134.567C156.457 134.598 156.583 134.613 156.71 134.611C156.954 134.609 157.147 134.547 157.29 134.426C157.357 134.373 157.412 134.305 157.449 134.227C157.486 134.15 157.505 134.066 157.504 133.98C157.506 133.924 157.498 133.868 157.478 133.815C157.458 133.763 157.429 133.715 157.39 133.674Z" fill="white"/>
<path d="M162.757 131.106L162.754 131.671L161.569 131.682L161.553 135.071L160.935 135.077L160.952 131.689L159.767 131.7L159.77 131.135L162.757 131.106Z" fill="white"/>
<path d="M167.106 134.192C167.206 134.092 167.285 133.974 167.339 133.843C167.393 133.713 167.42 133.573 167.419 133.433L167.43 131.06L168.052 131.054L168.041 133.427C168.043 133.643 168.001 133.858 167.916 134.057C167.832 134.257 167.707 134.438 167.55 134.588C167.233 134.899 166.81 135.075 166.37 135.079C165.93 135.084 165.509 134.916 165.195 134.612C165.04 134.465 164.917 134.286 164.834 134.088C164.752 133.89 164.711 133.677 164.715 133.461L164.727 131.086L165.348 131.08L165.336 133.454C165.334 133.594 165.36 133.734 165.412 133.863C165.465 133.993 165.543 134.11 165.642 134.208C165.736 134.307 165.849 134.385 165.975 134.439C166.1 134.492 166.236 134.518 166.373 134.517C166.51 134.516 166.645 134.486 166.771 134.431C166.897 134.375 167.011 134.294 167.106 134.193L167.106 134.192Z" fill="white"/>
<path d="M171.853 131.016C172.116 131.01 172.376 131.057 172.618 131.155C172.86 131.253 173.079 131.4 173.262 131.587C173.447 131.765 173.595 131.98 173.695 132.218C173.795 132.457 173.846 132.713 173.845 132.973C173.843 133.233 173.79 133.491 173.687 133.731C173.585 133.971 173.436 134.189 173.248 134.371C173.064 134.561 172.844 134.712 172.601 134.815C172.358 134.918 172.097 134.971 171.834 134.969L170.453 134.983L170.472 131.03L171.853 131.016ZM171.088 131.589L171.075 134.412L171.837 134.404C172.019 134.406 172.2 134.369 172.368 134.297C172.537 134.225 172.689 134.119 172.815 133.985C173.074 133.713 173.22 133.353 173.222 132.979C173.224 132.606 173.081 132.248 172.825 131.981C172.7 131.85 172.549 131.747 172.381 131.678C172.213 131.609 172.033 131.576 171.851 131.581L171.088 131.589Z" fill="white"/>
<path d="M176.105 130.974L176.726 130.968L176.707 134.921L176.087 134.927L176.105 130.974Z" fill="white"/>
<path d="M179.574 131.475C179.976 131.078 180.47 130.876 181.057 130.871C181.644 130.865 182.138 131.057 182.539 131.446C182.728 131.633 182.877 131.856 182.979 132.102C183.081 132.349 183.132 132.614 183.131 132.882C183.13 133.15 183.076 133.416 182.971 133.664C182.867 133.913 182.716 134.139 182.525 134.329C182.123 134.727 181.627 134.928 181.038 134.934C180.448 134.94 179.955 134.748 179.56 134.359C179.371 134.172 179.221 133.949 179.119 133.702C179.017 133.456 178.965 133.191 178.967 132.923C178.968 132.655 179.022 132.389 179.127 132.14C179.231 131.892 179.383 131.665 179.574 131.475ZM180.006 133.955C180.245 134.198 180.562 134.348 180.903 134.381C181.244 134.414 181.588 134.327 181.875 134.135C182.162 133.943 182.376 133.659 182.479 133.329C182.582 133 182.568 132.647 182.44 132.33C182.312 132.013 182.077 131.752 181.776 131.592C181.475 131.431 181.126 131.382 180.789 131.451C180.452 131.52 180.148 131.704 179.929 131.971C179.709 132.239 179.588 132.573 179.586 132.917C179.581 133.11 179.616 133.302 179.688 133.481C179.76 133.659 179.868 133.821 180.006 133.955Z" fill="white"/>
</g>
<path d="M186.06 76C185.692 76.0917 185.317 76.1585 184.94 76.2H186.31C186.23 76.14 186.13 76.08 186.06 76Z" fill="#DCF7EC"/>
<path d="M238.23 2.65002C229.23 2.65002 221.77 9.19002 220.83 17.58C220.095 17.4152 219.343 17.3313 218.59 17.33C217.329 17.3021 216.075 17.5229 214.9 17.9798C213.724 18.4367 212.65 19.1206 211.739 19.9926C210.828 20.8646 210.098 21.9076 209.59 23.0619C209.083 24.2162 208.807 25.4592 208.78 26.72C208.77 28.1833 209.113 29.6274 209.78 30.93C201.592 32.4982 193.512 34.5858 185.59 37.18H256V13.18C255.528 13.2507 255.061 13.3475 254.6 13.47C253.266 10.2363 250.993 7.47682 248.075 5.54802C245.157 3.61923 241.728 2.60976 238.23 2.65002Z" fill="#F3BDCA"/>
<path d="M202.478 159.306L202.147 159.433C200.583 160.055 198.999 160.668 197.365 161.28L197.054 161.396C195.49 161.98 193.903 162.55 192.292 163.106L190.508 156.34C154.938 157.111 150.537 149.871 150.186 147H105.814C105.463 149.86 101.102 157.121 65.4924 156.351C59.1692 155.277 52.9608 153.556 46.9557 151.211C33.8018 156.682 21.1057 163.301 9 171H247C247 171 235.441 162.409 215.45 153.607C211.4 155.549 207.076 157.449 202.478 159.306Z" fill="#F3BDCA"/>
<path d="M192.73 131.48V142L195.35 140.14C209.68 129.56 239.21 104.04 256 63.29V43.72C240.68 89.44 208.64 119 192.73 131.48Z" fill="#EB92A7"/>
<path d="M64.24 143.06V132.54C54.92 126.88 37.75 115 24 97.29L21.24 100.66C21.94 101.66 22.64 102.56 23.35 103.47L18.73 109.47C35.16 128.48 55.85 139.23 64.24 143.06Z" fill="#D18671"/>
<path d="M26.7101 94C15.2266 78.7692 6.2563 61.7977 0.140137 43.73V63.47C5.62791 76.6922 12.732 89.1839 21.2901 100.66L24.0001 97.29L26.7101 94Z" fill="#EB92A7"/>
<path d="M198.93 66.77L198.75 66.93L198.93 66.77Z" fill="#DB284E"/>
<path d="M201.32 60.63C201.32 60.77 201.32 60.92 201.32 61.06C201.34 60.91 201.33 60.77 201.32 60.63Z" fill="#DB284E"/>
<path d="M197.65 45.52C197.72 45.64 197.77 45.77 197.83 45.89L197.65 45.52Z" fill="#DB284E"/>
<path d="M199.56 66.11L199.35 66.35L199.56 66.11Z" fill="#DB284E"/>
<path d="M187.44 147.06L170.55 138.61C170.115 138.356 169.612 138.244 169.11 138.289C168.609 138.334 168.133 138.533 167.75 138.86C167.295 139.247 166.998 139.789 166.917 140.381C166.836 140.973 166.976 141.575 167.31 142.07L170.59 146.96L150.19 147.6C150.09 147.948 150.07 148.313 150.13 148.67C150.48 151.39 154.87 158.25 190.35 157.52L187.44 147.06Z" fill="#F2AA91"/>
<path d="M202 160.46L197.23 162.21C198.82 161.63 200.4 161.05 202 160.46Z" fill="#DB284E"/>
<path d="M195.35 140.15L202.27 160.35C206.863 158.603 211.177 156.803 215.21 154.95C234.48 146.12 247.55 136.45 255.98 128.67V63.3C239.21 104.05 209.68 129.57 195.35 140.15Z" fill="#DB284E"/>
<path d="M191 143.26C188.54 144.95 187.12 145.79 187.12 145.79L187.47 147.06L190.38 157.53L192.16 163.94C193.773 163.407 195.357 162.867 196.91 162.32L191 143.26Z" fill="#DB284E"/>
<path d="M105.87 148.67C105.93 148.313 105.91 147.948 105.81 147.6L95.74 147.29L85.57 147H85.4L85.57 146.76L88.69 142.11C89.0243 141.615 89.1642 141.013 89.0831 140.421C89.0019 139.829 88.7053 139.287 88.25 138.9C87.8667 138.573 87.3914 138.374 86.8898 138.329C86.3882 138.284 85.8851 138.396 85.45 138.65L77.74 141.34L73.22 142.92L68 144.69C68 144.69 66.6 144.15 64.2 143.06C55.81 139.23 35.12 128.48 18.7 109.45L4.5 127.87C14.83 136.15 29.91 146.37 47.16 152.66C53.15 154.882 59.3428 156.513 65.65 157.53C101.17 158.26 105.52 151.38 105.87 148.67Z" fill="#EA9781"/>
<path d="M4.5 127.87L18.74 109.45L23.36 103.45C22.65 102.54 21.95 101.59 21.25 100.64C12.6933 89.1702 5.58925 76.6852 0.1 63.47C0.1 63.4 0.03 63.33 0 63.25V128.66C0.73 129.33 1.5 130.02 2.3 130.72L4.5 127.87Z" fill="#DB284E"/>
<path d="M190.97 143.26L196.88 162.32L197.19 162.21L201.96 160.47L202.29 160.34L195.37 140.14L195.35 140.15L192.73 142.01L190.97 143.26Z" fill="#EB92A7"/>
<path d="M247.9 2C249.517 2.00264 251.067 2.64617 252.21 3.78957C253.354 4.93297 253.997 6.48299 254 8.1V163.51C253.997 165.127 253.354 166.677 252.21 167.82C251.067 168.964 249.517 169.607 247.9 169.61H8.1C6.48299 169.607 4.93297 168.964 3.78957 167.82C2.64617 166.677 2.00264 165.127 2 163.51V8.1C2.00264 6.48299 2.64617 4.93297 3.78957 3.78957C4.93297 2.64617 6.48299 2.00264 8.1 2H247.9ZM247.9 0H8.1C5.95175 0 3.89148 0.85339 2.37244 2.37244C0.85339 3.89148 0 5.95175 0 8.1L0 163.51C0 165.658 0.85339 167.719 2.37244 169.238C3.89148 170.757 5.95175 171.61 8.1 171.61H247.9C250.048 171.61 252.109 170.757 253.628 169.238C255.147 167.719 256 165.658 256 163.51V8.1C256 5.95175 255.147 3.89148 253.628 2.37244C252.109 0.85339 250.048 0 247.9 0Z" fill="#DB284E"/>
<defs>
<linearGradient id="paint0_linear_26518_406763" x1="184.242" y1="27.9585" x2="183.239" y2="43.2916" gradientUnits="userSpaceOnUse">
<stop stop-color="#47333F"/>
<stop offset="0.57" stop-color="#44303D"/>
<stop offset="0.97" stop-color="#3B2838"/>
<stop offset="1" stop-color="#3A2738"/>
</linearGradient>
<linearGradient id="paint1_linear_26518_406763" x1="182.95" y1="46.9642" x2="179.534" y2="99.1703" gradientUnits="userSpaceOnUse">
<stop stop-color="#FFBF61"/>
<stop offset="0.18" stop-color="#FBAD5B"/>
<stop offset="0.48" stop-color="#F79653"/>
<stop offset="0.76" stop-color="#F4884E"/>
<stop offset="1" stop-color="#F4844D"/>
</linearGradient>
<linearGradient id="paint2_linear_26518_406763" x1="186.471" y1="17.376" x2="185.275" y2="35.6495" gradientUnits="userSpaceOnUse">
<stop stop-color="#47333F"/>
<stop offset="0.68" stop-color="#45313D"/>
<stop offset="0.92" stop-color="#3E2B3A"/>
<stop offset="1" stop-color="#3A2738"/>
</linearGradient>
<linearGradient id="paint3_linear_26518_406763" x1="156.954" y1="70.0452" x2="171.589" y2="88.2459" gradientUnits="userSpaceOnUse">
<stop stop-color="#EB557B"/>
<stop offset="0.31" stop-color="#E65077"/>
<stop offset="0.62" stop-color="#DA446D"/>
<stop offset="0.93" stop-color="#C6305D"/>
<stop offset="1" stop-color="#C12B59"/>
</linearGradient>
<linearGradient id="paint4_linear_26518_406763" x1="160.968" y1="77.3768" x2="164.526" y2="81.6195" gradientUnits="userSpaceOnUse">
<stop stop-color="#EB557B"/>
<stop offset="0.31" stop-color="#E65077"/>
<stop offset="0.62" stop-color="#DA446D"/>
<stop offset="0.93" stop-color="#C6305D"/>
<stop offset="1" stop-color="#C12B59"/>
</linearGradient>
<linearGradient id="paint5_linear_26518_406763" x1="159.162" y1="74.8232" x2="166.348" y2="83.3952" gradientUnits="userSpaceOnUse">
<stop stop-color="#EB557B"/>
<stop offset="0.31" stop-color="#E65077"/>
<stop offset="0.62" stop-color="#DA446D"/>
<stop offset="0.93" stop-color="#C6305D"/>
<stop offset="1" stop-color="#C12B59"/>
</linearGradient>
<linearGradient id="paint6_linear_26518_406763" x1="107.053" y1="59.3249" x2="100.341" y2="101.96" gradientUnits="userSpaceOnUse">
<stop stop-color="#EB557B"/>
<stop offset="0.31" stop-color="#E65077"/>
<stop offset="0.62" stop-color="#DA446D"/>
<stop offset="0.93" stop-color="#C6305D"/>
<stop offset="1" stop-color="#C12B59"/>
</linearGradient>
<linearGradient id="paint7_linear_26518_406763" x1="114.92" y1="67.2603" x2="145.227" y2="105.172" gradientUnits="userSpaceOnUse">
<stop stop-color="#FFBF61"/>
<stop offset="0.18" stop-color="#FBAD5B"/>
<stop offset="0.48" stop-color="#F79653"/>
<stop offset="0.76" stop-color="#F4884E"/>
<stop offset="1" stop-color="#F4844D"/>
</linearGradient>
<linearGradient id="paint8_linear_26518_406763" x1="151.273" y1="48.8423" x2="151.273" y2="76.2254" gradientUnits="userSpaceOnUse">
<stop stop-color="white"/>
<stop offset="0.4" stop-color="#FEFDFD"/>
<stop offset="0.55" stop-color="#FDF6F8"/>
<stop offset="0.65" stop-color="#FCEAEF"/>
<stop offset="0.74" stop-color="#FAD9E1"/>
<stop offset="0.81" stop-color="#F8C3D0"/>
<stop offset="0.87" stop-color="#F4A8BB"/>
<stop offset="0.93" stop-color="#F188A2"/>
<stop offset="0.98" stop-color="#EC6386"/>
<stop offset="1" stop-color="#EB557B"/>
</linearGradient>
<linearGradient id="paint9_linear_26518_406763" x1="132.095" y1="65.1536" x2="153.733" y2="87.2288" gradientUnits="userSpaceOnUse">
<stop stop-color="#EB557B"/>
<stop offset="0.54" stop-color="#E8537A"/>
<stop offset="0.78" stop-color="#E14C7A"/>
<stop offset="0.96" stop-color="#D54079"/>
<stop offset="1" stop-color="#D13D79"/>
</linearGradient>
<linearGradient id="paint10_linear_26518_406763" x1="71.0928" y1="70.7206" x2="95.1193" y2="85.7078" gradientUnits="userSpaceOnUse">
<stop stop-color="#8E8FD7"/>
<stop offset="0.48" stop-color="#8B8DD4"/>
<stop offset="0.69" stop-color="#8486CD"/>
<stop offset="0.85" stop-color="#787CC1"/>
<stop offset="0.99" stop-color="#676CAF"/>
<stop offset="1" stop-color="#656BAD"/>
</linearGradient>
<linearGradient id="paint11_linear_26518_406763" x1="84.0747" y1="67.9928" x2="91.575" y2="72.6724" gradientUnits="userSpaceOnUse">
<stop stop-color="#47333F"/>
<stop offset="0.43" stop-color="#3E2B3A"/>
<stop offset="1" stop-color="#3A2738"/>
</linearGradient>
<clipPath id="clip0_26518_406763">
<rect width="79.283" height="22.1535" fill="white" transform="matrix(0.999952 -0.0098458 -0.00481186 0.999988 107.414 114.556)"/>
</clipPath>
</defs>
</svg>
