<svg width="158" height="158" viewBox="0 0 158 158" fill="none" xmlns="http://www.w3.org/2000/svg">
<g clip-path="url(#clip0_26907_393563)">
<path d="M137.2 4.51001H20.3798C11.4991 4.51001 4.2998 11.7093 4.2998 20.59V137.41C4.2998 146.291 11.4991 153.49 20.3798 153.49H137.2C146.081 153.49 153.28 146.291 153.28 137.41V20.59C153.28 11.7093 146.081 4.51001 137.2 4.51001Z" fill="#ED9FB2"/>
<path d="M114.21 4.51001C114.21 4.51001 107.21 118.15 4.71973 122.38V137.59C4.71973 141.807 6.3949 145.851 9.37673 148.833C12.3586 151.815 16.4028 153.49 20.6197 153.49H137.92C142.105 153.49 146.119 151.827 149.078 148.868C152.037 145.909 153.7 141.895 153.7 137.71V20.9C153.7 16.5531 151.973 12.3843 148.899 9.31053C145.825 6.23681 141.657 4.51001 137.31 4.51001H114.21Z" fill="#EB92A7"/>
<path d="M130.72 63.43C130.724 62.9931 130.606 62.5639 130.38 62.19L115 35.13C114.78 34.7422 114.462 34.419 114.077 34.1927C113.693 33.9663 113.256 33.8447 112.81 33.84H45.1803C44.7354 33.8434 44.2993 33.9646 43.9164 34.1911C43.5335 34.4177 43.2174 34.7416 43.0003 35.13L27.6203 62.19C27.4033 62.5676 27.2863 62.9944 27.2803 63.43C27.283 66.3098 28.1242 69.1266 29.7011 71.5363C31.278 73.9461 33.5224 75.8445 36.1603 77V121.62C36.1629 122.291 36.43 122.934 36.9036 123.41C37.3772 123.885 38.0192 124.155 38.6903 124.16H119.28C119.953 124.157 120.598 123.889 121.073 123.413C121.549 122.937 121.818 122.293 121.82 121.62V77.32C121.831 77.2269 121.831 77.133 121.82 77.04C124.465 75.8806 126.715 73.9762 128.296 71.5593C129.876 69.1425 130.719 66.3177 130.72 63.43ZM123.34 60.09H106.19V60L100.12 38.92H111.32L123.34 60.09ZM63.2303 38.94H76.2303V60.09H57.1403L63.2303 38.94ZM81.7503 38.94H94.4103L100.5 60.09H81.7503V38.94ZM46.6603 38.94H57.5203L51.4503 60V60.07H34.6603L46.6603 38.94ZM42.1203 73.18C39.836 73.1839 37.623 72.3848 35.8682 70.9225C34.1134 69.4601 32.9283 67.4275 32.5203 65.18H51.7403C51.3243 67.4274 50.1343 69.4582 48.3769 70.9196C46.6196 72.381 44.4059 73.1807 42.1203 73.18ZM66.7203 73.18C64.4352 73.1788 62.2225 72.3783 60.4655 70.9173C58.7086 69.4562 57.5181 67.4265 57.1003 65.18H76.3203C75.9104 67.4266 74.7248 69.4581 72.9704 70.9201C71.216 72.3821 69.004 73.1819 66.7203 73.18ZM81.7203 65.18H100.9C100.494 67.4292 99.3112 69.4643 97.5574 70.9299C95.8037 72.3954 93.5908 73.1984 91.3053 73.1984C89.0198 73.1984 86.8069 72.3954 85.0531 70.9299C83.2993 69.4643 82.1162 67.4292 81.7103 65.18H81.7203ZM68.1003 120.5H46.1003V92.63C46.0976 92.1534 46.1894 91.681 46.3702 91.24C46.5511 90.7991 46.8175 90.3983 47.154 90.0608C47.4906 89.7233 47.8906 89.4559 48.3311 89.2738C48.7715 89.0917 49.2437 88.9986 49.7203 89H64.4903C65.4486 89.0026 66.3668 89.3852 67.0435 90.0638C67.7203 90.7424 68.1003 91.6616 68.1003 92.62V120.5ZM110.85 105.12C110.85 105.831 110.568 106.512 110.065 107.015C109.563 107.518 108.881 107.8 108.17 107.8H81.9003C81.1895 107.8 80.5078 107.518 80.0052 107.015C79.5026 106.512 79.2203 105.831 79.2203 105.12L79.0003 88.2C79.0003 87.4892 79.2826 86.8075 79.7852 86.3049C80.2878 85.8023 80.9695 85.52 81.6803 85.52H108C108.711 85.52 109.393 85.8023 109.895 86.3049C110.398 86.8075 110.68 87.4892 110.68 88.2L110.85 105.12ZM115.85 73.2C113.568 73.2015 111.357 72.4014 109.604 70.9392C107.852 69.4771 106.668 67.4458 106.26 65.2H125.5C125.079 67.4448 123.887 69.4722 122.131 70.9327C120.375 72.3931 118.164 73.1949 115.88 73.2H115.85Z" fill="white"/>
<path d="M88.4199 95.13L93.7699 101.08L102.8 90.77" stroke="white" stroke-width="3" stroke-linecap="round" stroke-linejoin="round"/>
</g>
<defs>
<clipPath id="clip0_26907_393563">
<rect width="158" height="158" fill="white"/>
</clipPath>
</defs>
</svg>
