<svg width="158" height="158" viewBox="0 0 158 158" fill="none" xmlns="http://www.w3.org/2000/svg">
<g clip-path="url(#clip0_26552_405123)">
<path d="M123.48 136.42C134.852 127.393 143.163 115.078 147.281 101.154C151.398 87.2301 151.121 72.3753 146.487 58.6149C141.853 44.8545 133.088 32.8581 121.387 24.2612C109.686 15.6643 95.618 10.8854 81.1016 10.576C66.5852 10.2666 52.3266 14.4417 40.2699 22.5322C28.2131 30.6227 18.9449 42.2348 13.729 55.7853C8.513 69.3357 7.60311 84.1652 11.1233 98.2517C14.6436 112.338 22.4226 124.996 33.3998 134.5" fill="#FCEFF2"/>
<path d="M125.291 135.69C133.796 135.69 140.691 129.055 140.691 120.87C140.691 112.685 133.796 106.05 125.291 106.05C116.785 106.05 109.891 112.685 109.891 120.87C109.891 129.055 116.785 135.69 125.291 135.69Z" fill="#EB92A7"/>
<path d="M140.68 135.69C144.933 135.69 148.38 132.372 148.38 128.28C148.38 124.188 144.933 120.87 140.68 120.87C136.428 120.87 132.98 124.188 132.98 128.28C132.98 132.372 136.428 135.69 140.68 135.69Z" fill="#EB92A7"/>
<path d="M109.89 135.68C115.114 135.68 119.35 131.606 119.35 126.58C119.35 121.554 115.114 117.48 109.89 117.48C104.665 117.48 100.43 121.554 100.43 126.58C100.43 131.606 104.665 135.68 109.89 135.68Z" fill="#EB92A7"/>
<path d="M85.7305 136.68H158C158 136.68 129.31 125.3 85.7305 136.68Z" fill="#EB92A7"/>
<path d="M56.6009 134.58C72.0483 134.58 84.5709 122.528 84.5709 107.66C84.5709 92.7925 72.0483 80.74 56.6009 80.74C41.1535 80.74 28.6309 92.7925 28.6309 107.66C28.6309 122.528 41.1535 134.58 56.6009 134.58Z" fill="#EB92A7"/>
<path d="M84.5701 134.57C92.2965 134.57 98.5601 128.544 98.5601 121.11C98.5601 113.676 92.2965 107.65 84.5701 107.65C76.8436 107.65 70.5801 113.676 70.5801 121.11C70.5801 128.544 76.8436 134.57 84.5701 134.57Z" fill="#EB92A7"/>
<path d="M28.6195 134.58C38.1077 134.58 45.7995 127.175 45.7995 118.04C45.7995 108.905 38.1077 101.5 28.6195 101.5C19.1312 101.5 11.4395 108.905 11.4395 118.04C11.4395 127.175 19.1312 134.58 28.6195 134.58Z" fill="#EB92A7"/>
<path d="M153.41 136.68H0C0 136.68 60.9 112.52 153.41 136.68Z" fill="#EB92A7"/>
<path d="M29.7491 69.72C36.9067 69.72 42.7091 64.0743 42.7091 57.11C42.7091 50.1457 36.9067 44.5 29.7491 44.5C22.5915 44.5 16.7891 50.1457 16.7891 57.11C16.7891 64.0743 22.5915 69.72 29.7491 69.72Z" fill="#F3BDCA"/>
<path d="M42.7105 69.72C46.2893 69.72 49.1905 66.8994 49.1905 63.42C49.1905 59.9406 46.2893 57.12 42.7105 57.12C39.1317 57.12 36.2305 59.9406 36.2305 63.42C36.2305 66.8994 39.1317 69.72 42.7105 69.72Z" fill="#F3BDCA"/>
<path d="M16.7901 69.71C21.1863 69.71 24.7501 66.2447 24.7501 61.97C24.7501 57.6953 21.1863 54.23 16.7901 54.23C12.3939 54.23 8.83008 57.6953 8.83008 61.97C8.83008 66.2447 12.3939 69.71 16.7901 69.71Z" fill="#F3BDCA"/>
<path d="M64.47 71.52H0C0 71.52 25.59 57.63 64.47 71.52Z" fill="#F3BDCA"/>
<path d="M128.25 32.2201C134.243 32.2201 139.1 27.3982 139.1 21.4501C139.1 15.5019 134.243 10.6801 128.25 10.6801C122.258 10.6801 117.4 15.5019 117.4 21.4501C117.4 27.3982 122.258 32.2201 128.25 32.2201Z" fill="#F3BDCA"/>
<path d="M117.4 32.2199C120.394 32.2199 122.82 29.8068 122.82 26.8299C122.82 23.8531 120.394 21.4399 117.4 21.4399C114.407 21.4399 111.98 23.8531 111.98 26.8299C111.98 29.8068 114.407 32.2199 117.4 32.2199Z" fill="#F3BDCA"/>
<path d="M139.099 32.22C142.778 32.22 145.759 29.2561 145.759 25.6C145.759 21.9439 142.778 18.98 139.099 18.98C135.421 18.98 132.439 21.9439 132.439 25.6C132.439 29.2561 135.421 32.22 139.099 32.22Z" fill="#F3BDCA"/>
<path d="M98.5098 33.06H158C158 33.06 134.38 23.39 98.5098 33.06Z" fill="#F3BDCA"/>
<path d="M113.06 135.97C120.543 135.97 126.61 130.109 126.61 122.88C126.61 115.651 120.543 109.79 113.06 109.79C105.576 109.79 99.5098 115.651 99.5098 122.88C99.5098 130.109 105.576 135.97 113.06 135.97Z" fill="#F3BDCA"/>
<path d="M104.04 135.97C107.155 135.97 109.68 133.53 109.68 130.52C109.68 127.51 107.155 125.07 104.04 125.07C100.926 125.07 98.4004 127.51 98.4004 130.52C98.4004 133.53 100.926 135.97 104.04 135.97Z" fill="#F3BDCA"/>
<path d="M126.61 135.97C130.437 135.97 133.54 132.97 133.54 129.27C133.54 125.57 130.437 122.57 126.61 122.57C122.782 122.57 119.68 125.57 119.68 129.27C119.68 132.97 122.782 135.97 126.61 135.97Z" fill="#F3BDCA"/>
<path d="M84.3809 136.82H146.271C146.271 136.82 121.711 127 84.3809 136.82Z" fill="#F3BDCA"/>
<path d="M98.0704 136C104.101 136 108.99 131.277 108.99 125.45C108.99 119.623 104.101 114.9 98.0704 114.9C92.0394 114.9 87.1504 119.623 87.1504 125.45C87.1504 131.277 92.0394 136 98.0704 136Z" fill="#F3BDCA"/>
<path d="M87.1495 136C90.1649 136 92.6095 133.636 92.6095 130.72C92.6095 127.804 90.1649 125.44 87.1495 125.44C84.134 125.44 81.6895 127.804 81.6895 130.72C81.6895 133.636 84.134 136 87.1495 136Z" fill="#F3BDCA"/>
<path d="M108.999 136C112.705 136 115.709 133.099 115.709 129.52C115.709 125.941 112.705 123.04 108.999 123.04C105.293 123.04 102.289 125.941 102.289 129.52C102.289 133.099 105.293 136 108.999 136Z" fill="#F3BDCA"/>
<path d="M68.1191 136.82H127.999C127.999 136.82 104.249 127.35 68.1191 136.82Z" fill="#F3BDCA"/>
<path d="M98.3792 144.18L59.1292 144C58.0064 143.995 56.8957 143.768 55.8603 143.334C54.825 142.899 53.8854 142.265 53.0952 141.467C52.3049 140.67 51.6796 139.724 51.2547 138.685C50.8299 137.646 50.614 136.533 50.6192 135.41L50.9992 37C51.0032 35.8763 51.2285 34.7644 51.6625 33.728C52.0964 32.6915 52.7304 31.7507 53.5282 30.9594C54.326 30.1681 55.2719 29.5419 56.3119 29.1164C57.3519 28.691 58.4656 28.4747 59.5892 28.48L98.8392 28.67C99.9616 28.6739 101.072 28.899 102.107 29.3324C103.143 29.7659 104.082 30.3991 104.873 31.196C105.663 31.9929 106.289 32.9377 106.714 33.9765C107.138 35.0153 107.354 36.1276 107.349 37.25L106.939 135.65C106.934 137.916 106.029 140.087 104.424 141.686C102.819 143.286 100.645 144.183 98.3792 144.18Z" fill="#455A64"/>
<path d="M98.8202 32.0799H91.2102C90.9616 32.0825 90.716 32.1344 90.4876 32.2325C90.2592 32.3307 90.0525 32.4732 89.8795 32.6517C89.7065 32.8303 89.5707 33.0414 89.4798 33.2728C89.389 33.5042 89.3449 33.7514 89.3502 33.9999V35.3799C89.3569 35.628 89.3141 35.8749 89.2243 36.1063C89.1346 36.3377 88.9997 36.5489 88.8275 36.7276C88.6553 36.9063 88.4493 37.0489 88.2214 37.1472C87.9935 37.2454 87.7484 37.2974 87.5002 37.2999L72.6602 37.1999C72.4116 37.1948 72.1665 37.1403 71.939 37.0398C71.7116 36.9392 71.5063 36.7945 71.3352 36.6141C71.1641 36.4336 71.0304 36.2211 70.942 35.9886C70.8536 35.7562 70.8122 35.5085 70.8202 35.2599V33.8799C70.8311 33.3827 70.6466 32.901 70.3064 32.5383C69.9661 32.1756 69.4971 31.9608 69.0002 31.9399H66.3102H59.6502C58.0589 31.9399 56.5328 32.5721 55.4076 33.6973C54.2824 34.8225 53.6502 36.3486 53.6502 37.9399L53.2402 133.94C53.2402 135.531 53.8724 137.057 54.9976 138.183C56.1228 139.308 57.6489 139.94 59.2402 139.94L98.4102 140.12C100.002 140.12 101.528 139.488 102.653 138.363C103.778 137.237 104.41 135.711 104.41 134.12L104.82 38.1199C104.826 37.3286 104.674 36.5441 104.375 35.8116C104.076 35.079 103.635 34.4128 103.077 33.8514C102.519 33.29 101.856 32.8445 101.126 32.5405C100.395 32.2364 99.6115 32.0799 98.8202 32.0799Z" fill="white"/>
<g opacity="0.3">
<path opacity="0.3" d="M61.2101 39.73H57.2101C57.1756 39.73 57.1425 39.7163 57.1182 39.6919C57.0938 39.6675 57.0801 39.6345 57.0801 39.6C57.0826 39.5673 57.0974 39.5367 57.1215 39.5145C57.1456 39.4922 57.1773 39.4799 57.2101 39.48H61.2101C61.2411 39.4823 61.2703 39.4957 61.2924 39.5177C61.3144 39.5397 61.3278 39.5689 61.3301 39.6C61.3302 39.6328 61.3179 39.6644 61.2956 39.6885C61.2733 39.7127 61.2428 39.7275 61.2101 39.73V39.73Z" fill="black"/>
</g>
<g opacity="0.3">
<path opacity="0.3" d="M61.2098 40.83H57.2098C57.178 40.83 57.1475 40.8173 57.125 40.7948C57.1025 40.7723 57.0898 40.7418 57.0898 40.71C57.0898 40.6781 57.1025 40.6476 57.125 40.6251C57.1475 40.6026 57.178 40.59 57.2098 40.59H61.2098C61.2417 40.59 61.2722 40.6026 61.2947 40.6251C61.3172 40.6476 61.3298 40.6781 61.3298 40.71C61.3298 40.7418 61.3172 40.7723 61.2947 40.7948C61.2722 40.8173 61.2417 40.83 61.2098 40.83V40.83Z" fill="black"/>
</g>
<g opacity="0.3">
<path opacity="0.3" d="M61.2101 41.9399H57.2101C57.1773 41.94 57.1456 41.9277 57.1215 41.9055C57.0974 41.8832 57.0826 41.8527 57.0801 41.8199C57.0801 41.8029 57.0834 41.786 57.09 41.7702C57.0965 41.7544 57.1061 41.7401 57.1182 41.728C57.1302 41.7159 57.1446 41.7064 57.1603 41.6998C57.1761 41.6933 57.193 41.6899 57.2101 41.6899H61.2101C61.2428 41.6925 61.2733 41.7073 61.2956 41.7314C61.3179 41.7555 61.3302 41.7871 61.3301 41.8199C61.3278 41.851 61.3144 41.8802 61.2924 41.9022C61.2703 41.9242 61.2411 41.9376 61.2101 41.9399V41.9399Z" fill="black"/>
</g>
<g opacity="0.3">
<path opacity="0.3" d="M90.1509 133.72H67.8509C67.8351 133.72 67.8195 133.717 67.805 133.711C67.7904 133.705 67.7772 133.696 67.766 133.685C67.7549 133.674 67.746 133.66 67.74 133.646C67.734 133.631 67.7309 133.616 67.7309 133.6C67.7295 133.583 67.7316 133.567 67.737 133.551C67.7424 133.535 67.751 133.521 67.7623 133.509C67.7736 133.496 67.7873 133.487 67.8025 133.48C67.8178 133.473 67.8342 133.47 67.8509 133.47H90.1509C90.1675 133.47 90.184 133.473 90.1992 133.48C90.2145 133.487 90.2282 133.496 90.2395 133.509C90.2508 133.521 90.2594 133.535 90.2648 133.551C90.2702 133.567 90.2723 133.583 90.2709 133.6C90.2709 133.616 90.2678 133.631 90.2617 133.646C90.2557 133.66 90.2469 133.674 90.2357 133.685C90.2246 133.696 90.2114 133.705 90.1968 133.711C90.1822 133.717 90.1666 133.72 90.1509 133.72V133.72Z" fill="black"/>
</g>
<g opacity="0.3">
<path opacity="0.3" d="M90.1509 135.81H67.8509C67.8342 135.81 67.8178 135.807 67.8025 135.8C67.7873 135.793 67.7736 135.784 67.7623 135.771C67.751 135.759 67.7424 135.745 67.737 135.729C67.7316 135.713 67.7295 135.697 67.7309 135.68C67.7309 135.648 67.7435 135.618 67.766 135.595C67.7885 135.573 67.8191 135.56 67.8509 135.56H90.1509C90.1827 135.56 90.2132 135.573 90.2357 135.595C90.2582 135.618 90.2709 135.648 90.2709 135.68C90.2723 135.697 90.2702 135.713 90.2648 135.729C90.2594 135.745 90.2508 135.759 90.2395 135.771C90.2282 135.784 90.2145 135.793 90.1992 135.8C90.184 135.807 90.1675 135.81 90.1509 135.81Z" fill="black"/>
</g>
<g opacity="0.3">
<path opacity="0.3" d="M97.5309 41.2H95.2809L94.6009 39.2H94.0809C94.0491 39.2 94.0186 39.1873 93.9961 39.1648C93.9736 39.1423 93.9609 39.1118 93.9609 39.08C93.9609 39.0481 93.9736 39.0176 93.9961 38.9951C94.0186 38.9726 94.0491 38.96 94.0809 38.96H94.7809L95.4609 40.96H97.3509L97.7309 39.64H95.3809C95.3482 39.6374 95.3177 39.6226 95.2954 39.5985C95.2732 39.5744 95.2608 39.5428 95.2609 39.51C95.2609 39.4942 95.264 39.4786 95.2701 39.464C95.2761 39.4495 95.2849 39.4363 95.2961 39.4251C95.3072 39.414 95.3205 39.4051 95.335 39.3991C95.3496 39.3931 95.3652 39.39 95.3809 39.39H98.0609L97.5309 41.2Z" fill="black"/>
<path opacity="0.3" d="M97.3208 41.68H95.4608L95.2508 41.12C95.2426 41.0893 95.2451 41.0568 95.2578 41.0277C95.2706 40.9987 95.2928 40.9748 95.3208 40.96C95.3365 40.9538 95.3534 40.9509 95.3702 40.9516C95.3871 40.9524 95.4036 40.9567 95.4187 40.9642C95.4338 40.9718 95.4472 40.9824 95.4579 40.9955C95.4686 41.0085 95.4764 41.0237 95.4808 41.04L95.6308 41.43H97.3208C97.3536 41.4325 97.3841 41.4473 97.4064 41.4714C97.4286 41.4955 97.4409 41.5272 97.4408 41.56C97.4408 41.5918 97.4282 41.6223 97.4057 41.6448C97.3832 41.6673 97.3527 41.68 97.3208 41.68V41.68Z" fill="black"/>
<path opacity="0.3" d="M95.8606 42.48C95.8151 42.48 95.7701 42.4709 95.7282 42.4532C95.6862 42.4355 95.6483 42.4096 95.6166 42.3769C95.5849 42.3443 95.5601 42.3056 95.5436 42.2632C95.5271 42.2208 95.5193 42.1755 95.5206 42.13C95.512 42.0798 95.5145 42.0283 95.5279 41.9791C95.5413 41.93 95.5653 41.8843 95.5981 41.8454C95.631 41.8064 95.6719 41.7751 95.7181 41.7537C95.7643 41.7322 95.8147 41.7211 95.8656 41.7211C95.9166 41.7211 95.9669 41.7322 96.0131 41.7537C96.0593 41.7751 96.1003 41.8064 96.1331 41.8454C96.166 41.8843 96.19 41.93 96.2033 41.9791C96.2167 42.0283 96.2192 42.0798 96.2106 42.13C96.212 42.1764 96.2039 42.2225 96.1868 42.2656C96.1697 42.3087 96.144 42.3478 96.1112 42.3806C96.0784 42.4134 96.0393 42.4391 95.9962 42.4562C95.9531 42.4733 95.907 42.4814 95.8606 42.48V42.48ZM95.8606 42.03C95.8349 42.0323 95.8107 42.0435 95.7924 42.0618C95.7741 42.0801 95.7629 42.1043 95.7606 42.13C95.7605 42.1575 95.7707 42.1841 95.7892 42.2045C95.8077 42.2248 95.8332 42.2375 95.8606 42.24C95.8898 42.24 95.9178 42.2284 95.9384 42.2078C95.959 42.1872 95.9706 42.1592 95.9706 42.13C95.9736 42.114 95.973 42.0975 95.9688 42.0818C95.9646 42.066 95.957 42.0514 95.9464 42.039C95.9359 42.0265 95.9228 42.0166 95.9079 42.0098C95.8931 42.0031 95.8769 41.9997 95.8606 42V42.03Z" fill="black"/>
<path opacity="0.3" d="M97.0004 42.4799C96.9076 42.4799 96.8185 42.443 96.7529 42.3774C96.6873 42.3118 96.6504 42.2227 96.6504 42.1299C96.6504 42.0371 96.6873 41.9481 96.7529 41.8824C96.8185 41.8168 96.9076 41.7799 97.0004 41.7799C97.0932 41.7799 97.1822 41.8168 97.2479 41.8824C97.3135 41.9481 97.3504 42.0371 97.3504 42.1299C97.3518 42.1762 97.3437 42.2224 97.3266 42.2655C97.3095 42.3086 97.2837 42.3477 97.251 42.3805C97.2182 42.4133 97.179 42.439 97.1359 42.4561C97.0929 42.4732 97.0467 42.4813 97.0004 42.4799V42.4799ZM97.0004 41.9999C96.9746 42.0022 96.9505 42.0134 96.9322 42.0317C96.9139 42.05 96.9026 42.0741 96.9004 42.0999C96.9003 42.1274 96.9105 42.154 96.929 42.1744C96.9475 42.1947 96.973 42.2074 97.0004 42.2099C97.0296 42.2099 97.0575 42.1983 97.0782 42.1777C97.0988 42.1571 97.1104 42.1291 97.1104 42.0999C97.1079 42.0725 97.0952 42.047 97.0748 42.0285C97.0545 42.01 97.0279 41.9998 97.0004 41.9999Z" fill="black"/>
</g>
<path opacity="0.5" d="M93.1098 91.22H65.3798C65.0816 91.22 64.8398 91.4617 64.8398 91.76V92.46C64.8398 92.7582 65.0816 93 65.3798 93H93.1098C93.4081 93 93.6498 92.7582 93.6498 92.46V91.76C93.6498 91.4617 93.4081 91.22 93.1098 91.22Z" fill="#F3BDCA"/>
<path opacity="0.5" d="M93.1098 94.8199H65.3798C65.0816 94.8199 64.8398 95.0617 64.8398 95.3599V96.0599C64.8398 96.3582 65.0816 96.5999 65.3798 96.5999H93.1098C93.4081 96.5999 93.6498 96.3582 93.6498 96.0599V95.3599C93.6498 95.0617 93.4081 94.8199 93.1098 94.8199Z" fill="#F3BDCA"/>
<path opacity="0.5" d="M93.1098 98.42H65.3798C65.0816 98.42 64.8398 98.6618 64.8398 98.96V99.66C64.8398 99.9583 65.0816 100.2 65.3798 100.2H93.1098C93.4081 100.2 93.6498 99.9583 93.6498 99.66V98.96C93.6498 98.6618 93.4081 98.42 93.1098 98.42Z" fill="#F3BDCA"/>
<path d="M77.9393 53.2701C75.0073 53.4969 72.1879 54.4971 69.7685 56.1687C67.3491 57.8404 65.4163 60.1237 64.167 62.7859C62.9177 65.448 62.3967 68.3939 62.6571 71.3231C62.9175 74.2522 63.95 77.06 65.6493 79.4601L66.6493 80.8201C66.8039 81.0232 66.9781 81.2108 67.1693 81.3801L68.4293 82.4901C70.5075 84.2724 72.9933 85.5143 75.6664 86.1059C78.3395 86.6975 81.1173 86.6203 83.7534 85.8813C86.3896 85.1424 88.8027 83.7643 90.7787 81.8695C92.7548 79.9746 94.2329 77.6214 95.0818 75.0186C95.9307 72.4158 96.1242 69.6437 95.6453 66.9481C95.1664 64.2525 94.0297 61.7168 92.3362 59.5657C90.6426 57.4146 88.4445 55.7146 85.9366 54.6164C83.4287 53.5182 80.6886 53.0557 77.9593 53.2701H77.9393Z" fill="#49A09D"/>
<path d="M77.4507 77.87C77.176 77.8695 76.9045 77.8104 76.6544 77.6966C76.4044 77.5828 76.1815 77.4169 76.0007 77.21L69.4607 69.68C69.1627 69.294 69.0236 68.8087 69.0719 68.3235C69.1202 67.8383 69.3522 67.39 69.7204 67.0703C70.0887 66.7507 70.5652 66.584 71.0524 66.6044C71.5395 66.6248 72.0005 66.8307 72.3407 67.18L77.4907 73.09L86.1507 63.7C86.4942 63.3221 86.9737 63.096 87.4838 63.0717C87.7364 63.0596 87.9888 63.0974 88.2268 63.1829C88.4648 63.2684 88.6836 63.3999 88.8707 63.57C89.0578 63.74 89.2096 63.9453 89.3174 64.174C89.4253 64.4028 89.487 64.6505 89.499 64.9031C89.5111 65.1556 89.4733 65.4081 89.3878 65.6461C89.3023 65.8841 89.1708 66.1029 89.0007 66.29L78.8907 77.29C78.7043 77.4816 78.4799 77.6321 78.2319 77.732C77.984 77.8319 77.7179 77.8789 77.4507 77.87V77.87Z" fill="white"/>
<path d="M96.0004 109.42H62.4704C61.8794 109.42 61.4004 109.899 61.4004 110.49V115.8C61.4004 116.391 61.8794 116.87 62.4704 116.87H96.0004C96.5913 116.87 97.0704 116.391 97.0704 115.8V110.49C97.0704 109.899 96.5913 109.42 96.0004 109.42Z" fill="#D7244F"/>
<path d="M74.79 111.62C75.0574 111.758 75.2795 111.97 75.43 112.23C75.5844 112.512 75.6637 112.829 75.66 113.15C75.6646 113.471 75.5853 113.788 75.43 114.07C75.2761 114.334 75.0508 114.549 74.78 114.69C74.4701 114.845 74.1264 114.921 73.78 114.91H72.5V111.4H73.82C74.1567 111.39 74.4904 111.466 74.79 111.62V111.62ZM74.52 113.9C74.614 113.8 74.6865 113.682 74.733 113.553C74.7794 113.424 74.7988 113.287 74.79 113.15C74.7988 113.013 74.7794 112.876 74.733 112.747C74.6865 112.618 74.614 112.5 74.52 112.4C74.419 112.305 74.2993 112.231 74.1684 112.185C74.0376 112.138 73.8985 112.12 73.76 112.13H73.36V114.13H73.76C73.8957 114.146 74.0331 114.133 74.1638 114.094C74.2945 114.054 74.4157 113.988 74.52 113.9V113.9Z" fill="white"/>
<path d="M76.8906 114.71C76.6178 114.559 76.39 114.338 76.2306 114.07C76.073 113.787 75.9902 113.469 75.9902 113.145C75.9902 112.821 76.073 112.503 76.2306 112.22C76.3872 111.95 76.6157 111.728 76.8906 111.58C77.1675 111.422 77.482 111.343 77.8006 111.35C78.116 111.343 78.4274 111.422 78.7006 111.58C78.9769 111.723 79.2035 111.946 79.3506 112.22C79.5082 112.503 79.591 112.821 79.591 113.145C79.591 113.469 79.5082 113.787 79.3506 114.07C79.1919 114.339 78.9649 114.561 78.6927 114.714C78.4205 114.866 78.1127 114.945 77.8006 114.94C77.482 114.947 77.1675 114.868 76.8906 114.71ZM78.4706 113.88C78.5598 113.78 78.6279 113.663 78.6708 113.535C78.7138 113.408 78.7307 113.274 78.7206 113.14C78.7355 112.87 78.646 112.605 78.4706 112.4C78.3853 112.308 78.2814 112.236 78.1658 112.188C78.0503 112.139 77.9258 112.116 77.8006 112.12C77.6735 112.113 77.5465 112.134 77.4288 112.183C77.3111 112.231 77.2058 112.305 77.1206 112.4C76.9584 112.613 76.8706 112.873 76.8706 113.14C76.8706 113.407 76.9584 113.667 77.1206 113.88C77.305 114.049 77.5457 114.142 77.7956 114.142C78.0455 114.142 78.2863 114.049 78.4706 113.88V113.88Z" fill="white"/>
<path d="M83.2103 114.91H82.3503L80.9203 112.74V114.91H80.0703V111.4H80.9203L82.3503 113.57V111.4H83.2103V114.91Z" fill="white"/>
<path d="M84.6801 112.08V112.79H85.8301V113.45H84.6801V114.22H86.0001V114.91H83.8301V111.4H86.0001V112.08H84.6801Z" fill="white"/>
<path d="M115.42 98.16C114.817 99.9558 114.782 101.894 115.32 103.71C115.804 104.764 116.05 105.911 116.04 107.07C115.91 108 115.3 108.82 115.18 109.75C114.94 111.66 116.74 113.46 116.26 115.31C116.127 115.732 115.901 116.12 115.601 116.445C115.3 116.77 114.931 117.025 114.52 117.19C113.696 117.509 112.807 117.622 111.93 117.52C111.278 117.518 110.637 117.356 110.061 117.049C109.486 116.743 108.995 116.3 108.63 115.76C108.254 114.783 108.195 113.713 108.46 112.7C109.036 108.147 110.185 103.685 111.88 99.42" fill="#263238"/>
<path d="M98.1391 141.29L97.3991 144.11L89.7891 144.05C89.7891 144.05 90.3491 142.71 94.5091 142.78L94.8191 141.29H98.1391Z" fill="#F2AA91"/>
<path d="M125.83 98.86C125.76 99 123.83 108.93 123.83 108.93L128.38 109.14L130.14 100.6L125.83 98.86Z" fill="#455A64"/>
<path d="M123.831 108.93L123.301 108.7L125.271 98.92L125.891 98.88L123.831 108.93Z" fill="#263238"/>
<path d="M127.66 101C127.656 101.03 127.658 101.061 127.666 101.091C127.674 101.12 127.687 101.148 127.706 101.172C127.725 101.196 127.748 101.216 127.774 101.232C127.801 101.247 127.83 101.256 127.86 101.26C127.924 101.266 127.987 101.247 128.037 101.208C128.087 101.169 128.121 101.113 128.13 101.05C128.136 100.988 128.117 100.926 128.078 100.877C128.039 100.829 127.982 100.798 127.92 100.79C127.858 100.784 127.796 100.803 127.748 100.842C127.699 100.882 127.668 100.938 127.66 101V101Z" fill="#263238"/>
<path d="M128.601 108L128.671 106.7L126.721 105.9L127.481 104.1C127.568 103.902 127.695 103.724 127.855 103.577C128.014 103.431 128.202 103.319 128.407 103.248C128.611 103.178 128.829 103.151 129.044 103.168C129.26 103.186 129.47 103.248 129.661 103.35L130.441 103.78C130.717 103.928 130.959 104.133 131.15 104.381C131.341 104.629 131.478 104.915 131.551 105.22C131.762 106.267 131.912 107.326 132.001 108.39" fill="#F2AA91"/>
<path d="M133.801 141.08C133.801 141.08 140.171 142.9 140.511 142.94C142.381 143.16 142.511 145.34 141.781 145.31C141.421 145.31 135.631 145.53 134.901 145.48C133.896 145.265 132.912 144.96 131.961 144.57L133.801 141.08Z" fill="#A01B3B"/>
<path d="M125.311 138.87L121.591 141.31C119.501 142.68 117.591 143.92 117.471 144.03C117.061 144.34 117.531 145.8 118.241 145.55C118.571 145.43 124.551 144.08 125.241 143.81C126.269 143.169 127.24 142.44 128.141 141.63L125.311 138.87Z" fill="#A01B3B"/>
<path d="M124.43 141.74C124.406 141.435 124.289 141.145 124.096 140.907C123.904 140.67 123.643 140.496 123.35 140.41C123.575 140.59 123.788 140.784 123.99 140.99C124.152 141.23 124.299 141.481 124.43 141.74V141.74Z" fill="#263238"/>
<path d="M124.001 140.8C124.001 140.8 123.911 140.58 123.831 140.23C123.777 140.024 123.747 139.813 123.741 139.6C123.731 139.477 123.731 139.353 123.741 139.23C123.73 139.177 123.73 139.123 123.741 139.07C123.741 139.07 123.741 139.07 123.841 139.07C123.941 139.07 123.971 139.25 124.011 139.36C124.046 139.478 124.073 139.598 124.091 139.72C124.112 139.929 124.112 140.14 124.091 140.35C124.031 140.71 123.961 140.93 123.981 140.94C124.086 140.766 124.154 140.572 124.181 140.37C124.214 140.151 124.214 139.929 124.181 139.71C124.171 139.578 124.147 139.447 124.111 139.32C124.089 139.255 124.062 139.191 124.031 139.13C124 139.048 123.939 138.98 123.861 138.94C123.816 138.921 123.766 138.918 123.719 138.931C123.672 138.943 123.63 138.971 123.601 139.01C123.561 139.081 123.537 139.159 123.531 139.24C123.521 139.37 123.521 139.5 123.531 139.63C123.55 139.85 123.59 140.068 123.651 140.28C123.729 140.476 123.848 140.654 124.001 140.8V140.8Z" fill="#263238"/>
<path d="M124 140.72C124 140.72 124.19 140.65 124.49 140.57C124.67 140.524 124.854 140.5 125.04 140.5C125.143 140.485 125.247 140.485 125.35 140.5C125.395 140.504 125.437 140.523 125.469 140.554C125.502 140.585 125.523 140.626 125.53 140.67C125.531 140.718 125.519 140.765 125.496 140.807C125.473 140.849 125.44 140.884 125.4 140.91C125.317 140.968 125.221 141.002 125.12 141.01C124.941 141.023 124.761 141.002 124.59 140.95C124.427 140.893 124.26 140.846 124.09 140.81C124.233 140.913 124.391 140.99 124.56 141.04C124.74 141.114 124.936 141.145 125.13 141.13C125.25 141.121 125.367 141.083 125.47 141.02C125.53 140.982 125.58 140.928 125.613 140.865C125.646 140.802 125.662 140.731 125.66 140.66C125.65 140.588 125.618 140.521 125.568 140.469C125.517 140.417 125.451 140.382 125.38 140.37C125.264 140.356 125.146 140.356 125.03 140.37C124.84 140.385 124.652 140.422 124.47 140.48C124.295 140.516 124.132 140.599 124 140.72Z" fill="#263238"/>
<path d="M107.16 109.34L113.37 109.92L115.89 110.64C116.967 110.943 117.952 111.506 118.76 112.28L126.89 120.08L128.37 108L132.43 108.35L131.75 123.95C131.452 124.888 130.863 125.707 130.069 126.288C129.274 126.869 128.314 127.181 127.33 127.18C126.11 127.162 124.942 126.684 124.06 125.84L118.27 120.4L118.1 128.17L122.1 131.43L106.63 140C106.63 140 105.79 136.7 106.17 129.36C106.24 128.01 103.77 123.93 103.59 122.72C103.121 118.946 102.913 115.143 102.97 111.34L107.16 109.34Z" fill="#D7244F"/>
<path d="M103.339 111.22C103.339 111.22 100.199 112.39 99.4391 114.85C98.7691 117.03 96.5191 129.3 96.5191 129.3L94.2891 142.3L98.9591 142.48L104.339 120.35L103.339 111.22Z" fill="#D7244F"/>
<path d="M134.71 141C134.71 141 116.15 128.83 115.39 128.57C114.63 128.31 112.79 127.12 110.95 127.57C109.919 127.929 108.991 128.53 108.242 129.324C107.494 130.118 106.947 131.08 106.65 132.13C105.82 134.54 105.76 139.93 105.76 139.93C105.76 139.93 107.22 144.17 110.07 145.06C110.313 145.133 110.56 145.193 110.81 145.24C112.525 145.562 114.297 145.366 115.9 144.677C117.503 143.988 118.864 142.836 119.81 141.37L120.22 140.74C120.22 140.74 132.36 145.2 132.55 145.14L134.71 141Z" fill="#3F3F3F"/>
<path d="M140.999 126.78C141.672 127.047 142.25 127.51 142.656 128.109C143.063 128.708 143.28 129.416 143.279 130.14C143.279 135.02 133.429 140.39 133.429 140.39L120.869 132.07L122.079 131.4C122.079 131.4 137.239 124.69 140.999 126.78Z" fill="#515151"/>
<g opacity="0.3">
<path opacity="0.3" d="M120.19 140.89L116.34 139.38C116.308 139.369 116.283 139.346 116.268 139.316C116.253 139.286 116.25 139.252 116.26 139.22C116.265 139.203 116.274 139.188 116.286 139.175C116.297 139.162 116.312 139.152 116.328 139.145C116.344 139.139 116.362 139.136 116.379 139.136C116.397 139.137 116.414 139.142 116.43 139.15L120.28 140.66C120.311 140.66 120.342 140.673 120.364 140.695C120.387 140.718 120.4 140.748 120.4 140.78C120.4 140.812 120.387 140.842 120.364 140.865C120.342 140.887 120.311 140.9 120.28 140.9L120.19 140.89Z" fill="black"/>
</g>
<g opacity="0.3">
<path opacity="0.3" d="M134.76 129.4L135.21 128.22C135.214 128.204 135.222 128.188 135.232 128.175C135.243 128.162 135.257 128.152 135.272 128.145C135.288 128.139 135.305 128.136 135.322 128.136C135.339 128.137 135.355 128.142 135.37 128.15C135.399 128.163 135.423 128.187 135.436 128.216C135.449 128.246 135.45 128.279 135.44 128.31L135.14 129.08L136.3 128.88C136.316 128.877 136.332 128.877 136.347 128.881C136.363 128.884 136.378 128.891 136.391 128.9C136.404 128.91 136.415 128.922 136.423 128.935C136.432 128.949 136.437 128.964 136.44 128.98C136.446 129.013 136.439 129.047 136.42 129.075C136.401 129.103 136.373 129.123 136.34 129.13L134.76 129.4Z" fill="black"/>
</g>
<g opacity="0.3">
<path opacity="0.3" d="M126.889 136C126.87 135.999 126.851 135.994 126.834 135.985C126.817 135.977 126.802 135.965 126.789 135.95C126.778 135.939 126.769 135.926 126.763 135.911C126.757 135.896 126.754 135.881 126.754 135.865C126.754 135.849 126.757 135.834 126.763 135.819C126.769 135.804 126.778 135.791 126.789 135.78L134.849 129.15C134.873 129.127 134.906 129.114 134.939 129.114C134.973 129.114 135.005 129.127 135.029 129.15C135.04 129.161 135.049 129.174 135.055 129.189C135.061 129.204 135.064 129.219 135.064 129.235C135.064 129.251 135.061 129.266 135.055 129.281C135.049 129.296 135.04 129.309 135.029 129.32L126.999 136H126.889Z" fill="black"/>
</g>
<path d="M103.719 99.81C103.538 99.6311 103.322 99.4916 103.084 99.4002C102.846 99.3088 102.592 99.2674 102.338 99.2787C102.084 99.2899 101.834 99.3536 101.606 99.4657C101.377 99.5777 101.174 99.7358 101.009 99.93C100.651 100.407 100.433 100.975 100.379 101.57C100.328 102.164 100.214 102.75 100.039 103.32C99.9458 103.605 99.7825 103.863 99.5642 104.069C99.3458 104.275 99.0794 104.423 98.7892 104.5C98.3492 104.58 97.7892 104.44 97.4892 104.74C97.3557 104.88 97.2748 105.063 97.2602 105.256C97.2456 105.449 97.2983 105.641 97.4092 105.8C97.6404 106.11 97.9565 106.346 98.3192 106.48C98.4592 106.54 98.6192 106.63 98.6292 106.78C98.6392 106.93 98.3692 107.05 98.1892 107.13C98.0596 107.201 97.9459 107.298 97.855 107.415C97.7641 107.532 97.6979 107.666 97.6605 107.809C97.6231 107.952 97.6152 108.101 97.6373 108.248C97.6594 108.394 97.7111 108.534 97.7892 108.66C97.9582 108.907 98.1873 109.108 98.4549 109.242C98.7224 109.377 99.0198 109.442 99.3192 109.43C99.9176 109.396 100.506 109.261 101.059 109.03C100.959 109.149 100.904 109.299 100.904 109.455C100.904 109.61 100.959 109.761 101.059 109.88C101.16 110.001 101.29 110.094 101.437 110.15C101.585 110.206 101.744 110.223 101.899 110.2C102.209 110.149 102.494 109.998 102.709 109.77C103.136 109.332 103.419 108.773 103.519 108.17C103.608 107.564 103.641 106.952 103.619 106.34C103.631 104.165 103.788 101.994 104.089 99.84" fill="#263238"/>
<path d="M104.34 111.31L110.03 114.44C110.03 114.44 109.85 110.7 109.76 109.58C109.622 108.985 109.531 108.38 109.49 107.77C109.49 107.77 111.15 109.13 111.7 108.88C112.25 108.63 115.31 103.58 114.09 99.41C112.87 95.24 110.09 95.41 110.09 95.41C110.09 95.41 104.65 94.59 104.32 102.41L104.34 111.31Z" fill="#F2AA91"/>
<path d="M106 110.9C106 110.32 106.62 107.84 106.87 106.31C107.12 104.78 106.13 104.53 105.97 103.63C105.892 103.03 105.996 102.42 106.27 101.88C107.73 102.4 108.27 101.36 109.1 100.74C109.817 100.089 110.302 99.2218 110.48 98.27C110.82 97.27 111.23 96.63 112.29 96.53C112.884 97.0196 113.342 97.6531 113.62 98.37C113.934 99.8319 114.161 101.311 114.3 102.8C114.45 101.03 115.88 100.29 115.49 97.68C115.401 96.9996 115.112 96.361 114.66 95.8448C114.208 95.3286 113.613 94.9581 112.95 94.78C112.53 94.72 111.74 94.67 111.74 94.67C111.128 94.1466 110.407 93.7642 109.63 93.55C107.86 92.76 105.72 94.17 104.54 95.72C103.695 97.0043 103.167 98.4713 103 100C102.842 101.049 102.819 102.115 102.93 103.17C102.995 103.516 102.972 103.872 102.862 104.206C102.751 104.54 102.558 104.841 102.3 105.08C101.41 105.77 101.18 107.08 101.79 108.83C102.4 110.58 100.15 113.55 100.15 113.55C100.777 113.04 101.446 112.585 102.15 112.19C103.41 111.692 104.695 111.261 106 110.9V110.9Z" fill="#263238"/>
<path d="M102.681 101.14C102.605 101.004 102.558 100.855 102.54 100.7C102.523 100.545 102.537 100.389 102.581 100.24C102.6 100.087 102.65 99.9385 102.727 99.8045C102.804 99.6706 102.908 99.5534 103.031 99.46C102.916 99.7241 102.816 99.9946 102.731 100.27C102.694 100.558 102.678 100.849 102.681 101.14Z" fill="#FAFAFA"/>
<path d="M103.649 109.66C103.442 111.14 103.746 112.646 104.509 113.93C104.748 114.392 105.091 114.792 105.509 115.1C105.73 115.248 105.982 115.344 106.245 115.38C106.509 115.417 106.777 115.393 107.029 115.31C107.279 115.222 107.492 115.053 107.636 114.831C107.779 114.608 107.843 114.344 107.819 114.08C107.699 113.34 106.819 112.87 106.819 112.08C107.149 112.28 107.599 112.48 107.889 112.22C107.98 112.124 108.038 112.002 108.058 111.872C108.078 111.742 108.057 111.608 107.999 111.49C107.877 111.258 107.726 111.043 107.549 110.85C107.216 110.42 106.972 109.928 106.833 109.402C106.694 108.877 106.662 108.328 106.739 107.79C106.739 107.49 106.869 106.57 106.869 106.27C106.869 105.97 106.789 106.27 106.569 106.07C106.448 105.983 106.309 105.924 106.161 105.899C106.014 105.873 105.863 105.88 105.719 105.92C105.438 106.016 105.182 106.173 104.969 106.38C104.627 106.723 104.361 107.135 104.189 107.588C104.017 108.042 103.942 108.526 103.969 109.01" fill="#263238"/>
<g opacity="0.3">
<path opacity="0.3" d="M102.879 126.47C102.862 126.468 102.846 126.462 102.832 126.453C102.818 126.444 102.806 126.432 102.797 126.417C102.788 126.403 102.783 126.386 102.782 126.37C102.78 126.353 102.783 126.336 102.789 126.32L104.179 120.59C104.188 120.559 104.209 120.533 104.237 120.516C104.264 120.499 104.297 120.494 104.329 120.5C104.346 120.502 104.362 120.508 104.376 120.517C104.391 120.526 104.402 120.538 104.411 120.553C104.42 120.567 104.425 120.584 104.426 120.6C104.428 120.617 104.425 120.634 104.419 120.65L102.999 126.37C102.991 126.397 102.976 126.42 102.954 126.438C102.933 126.456 102.907 126.467 102.879 126.47Z" fill="black"/>
</g>
<g opacity="0.3">
<path opacity="0.3" d="M104.64 115.53C104.613 115.528 104.588 115.518 104.567 115.502C104.546 115.487 104.529 115.465 104.52 115.44C104.367 114.726 103.958 114.092 103.371 113.657C102.783 113.223 102.058 113.018 101.33 113.08C101.313 113.083 101.296 113.082 101.28 113.078C101.264 113.074 101.249 113.066 101.235 113.056C101.222 113.046 101.211 113.033 101.204 113.018C101.196 113.003 101.191 112.987 101.19 112.97C101.189 112.954 101.19 112.938 101.195 112.923C101.2 112.908 101.208 112.894 101.218 112.882C101.228 112.87 101.241 112.86 101.255 112.853C101.269 112.846 101.284 112.841 101.3 112.84C102.08 112.788 102.854 113.012 103.487 113.473C104.119 113.933 104.57 114.601 104.76 115.36C104.77 115.392 104.767 115.426 104.752 115.456C104.737 115.486 104.711 115.509 104.68 115.52L104.64 115.53Z" fill="black"/>
</g>
<g opacity="0.3">
<path opacity="0.3" d="M126.69 121.79C126.674 121.789 126.659 121.784 126.646 121.777C126.632 121.77 126.62 121.76 126.611 121.747C126.601 121.735 126.595 121.721 126.591 121.706C126.587 121.691 126.587 121.675 126.59 121.66L126.78 120.08C126.785 120.047 126.802 120.018 126.828 119.997C126.854 119.977 126.887 119.967 126.92 119.97C126.937 119.971 126.953 119.976 126.968 119.984C126.982 119.991 126.996 120.002 127.006 120.016C127.016 120.029 127.024 120.044 127.028 120.06C127.032 120.077 127.033 120.093 127.03 120.11L126.83 121.69C126.823 121.721 126.804 121.748 126.779 121.766C126.753 121.785 126.721 121.793 126.69 121.79V121.79Z" fill="black"/>
</g>
<g opacity="0.3">
<path opacity="0.3" d="M118.271 120.49C118.255 120.488 118.24 120.482 118.226 120.474C118.212 120.465 118.2 120.454 118.191 120.441C118.182 120.428 118.175 120.413 118.172 120.398C118.168 120.382 118.168 120.366 118.171 120.35C118.377 118.695 118.185 117.015 117.611 115.45C117.604 115.436 117.6 115.42 117.6 115.404C117.599 115.388 117.602 115.372 117.607 115.357C117.613 115.343 117.621 115.329 117.632 115.317C117.643 115.306 117.656 115.296 117.671 115.29C117.685 115.282 117.702 115.277 117.719 115.276C117.736 115.276 117.753 115.279 117.768 115.285C117.783 115.292 117.797 115.302 117.808 115.315C117.819 115.328 117.827 115.344 117.831 115.36C118.424 116.956 118.623 118.671 118.411 120.36C118.413 120.378 118.41 120.397 118.404 120.414C118.397 120.432 118.386 120.447 118.373 120.46C118.359 120.472 118.343 120.482 118.325 120.487C118.308 120.492 118.289 120.493 118.271 120.49V120.49Z" fill="black"/>
</g>
<path d="M36.7099 143.92C42.1168 143.92 46.4999 139.3 46.4999 133.6C46.4999 127.9 42.1168 123.28 36.7099 123.28C31.3031 123.28 26.9199 127.9 26.9199 133.6C26.9199 139.3 31.3031 143.92 36.7099 143.92Z" fill="#F3BDCA"/>
<path d="M46.2697 143.92C48.9427 143.92 51.1097 141.995 51.1097 139.62C51.1097 137.245 48.9427 135.32 46.2697 135.32C43.5966 135.32 41.4297 137.245 41.4297 139.62C41.4297 141.995 43.5966 143.92 46.2697 143.92Z" fill="#F3BDCA"/>
<path d="M26.9302 143.92C30.2108 143.92 32.8702 141.556 32.8702 138.64C32.8702 135.724 30.2108 133.36 26.9302 133.36C23.6497 133.36 20.9902 135.724 20.9902 138.64C20.9902 141.556 23.6497 143.92 26.9302 143.92Z" fill="#F3BDCA"/>
<path d="M63.1094 144.59H10.1094C10.1094 144.59 31.1294 136.88 63.1094 144.59Z" fill="#F3BDCA"/>
<path d="M47.9596 143.52C53.129 143.52 57.3196 139.8 57.3196 135.21C57.3196 130.621 53.129 126.9 47.9596 126.9C42.7902 126.9 38.5996 130.621 38.5996 135.21C38.5996 139.8 42.7902 143.52 47.9596 143.52Z" fill="#F3BDCA"/>
<path d="M57.3206 143.52C59.9053 143.52 62.0006 141.657 62.0006 139.36C62.0006 137.062 59.9053 135.2 57.3206 135.2C54.7359 135.2 52.6406 137.062 52.6406 139.36C52.6406 141.657 54.7359 143.52 57.3206 143.52Z" fill="#F3BDCA"/>
<path d="M38.5996 143.52C41.7752 143.52 44.3496 141.232 44.3496 138.41C44.3496 135.588 41.7752 133.3 38.5996 133.3C35.424 133.3 32.8496 135.588 32.8496 138.41C32.8496 141.232 35.424 143.52 38.5996 143.52Z" fill="#F3BDCA"/>
<path d="M73.0898 144.41H21.7598C21.7598 144.41 42.1298 137 73.0898 144.41Z" fill="#F3BDCA"/>
<path d="M141.189 62.2267L109.524 71.5524C108.819 71.7599 108.416 72.4993 108.624 73.2039L113.661 90.3076C113.868 91.0122 114.608 91.4152 115.312 91.2077L146.978 81.8821C147.682 81.6746 148.085 80.9351 147.878 80.2305L142.841 63.1268C142.633 62.4222 141.894 62.0192 141.189 62.2267Z" fill="#D7244F"/>
<path d="M143.365 64.8986L109.148 74.9757L110.567 79.7912L144.784 69.7141L143.365 64.8986Z" fill="#EB92A7"/>
<path d="M142.336 75.7907L135.822 77.7089C135.462 77.815 135.256 78.193 135.362 78.5533L136.229 81.4982C136.335 81.8585 136.713 82.0645 137.074 81.9584L143.587 80.0402C143.947 79.9341 144.153 79.5561 144.047 79.1958L143.18 76.2509C143.074 75.8906 142.696 75.6846 142.336 75.7907Z" fill="#FFB769"/>
<path d="M31 106.33C40.6152 114.621 51.786 120.914 63.86 124.84L57 139.62C43.0363 135.085 30.1175 127.809 19 118.22L31 106.33Z" fill="#49A09D"/>
<path d="M41.4154 119.153C42.0412 119.459 42.4474 119.836 42.6341 120.284C42.8235 120.725 42.8071 121.173 42.5849 121.627C42.5202 121.759 42.4483 121.877 42.3691 121.98C42.1033 122.348 41.7524 122.621 41.3163 122.799C40.8803 122.977 40.3946 123.017 39.8591 122.918L39.6594 125.789L37.9972 124.975L38.2627 122.275L37.9096 122.102L36.3868 124.186L34.9141 123.465L38.9437 117.942L41.4154 119.153ZM40.8324 121.302C40.8889 121.216 40.9242 121.158 40.9382 121.13C41.0282 120.946 41.0369 120.776 40.9641 120.619C40.8999 120.459 40.753 120.323 40.5233 120.211L39.6104 119.764L38.6009 121.149L39.5138 121.596C39.7836 121.728 40.0284 121.766 40.2481 121.71C40.4736 121.657 40.6683 121.521 40.8324 121.302ZM44.7491 123.167C45.0425 123.034 45.3608 122.965 45.7039 122.962C46.0527 122.962 46.3965 123.045 46.7352 123.211C47.252 123.465 47.5853 123.838 47.7351 124.331C47.8906 124.828 47.8264 125.366 47.5423 125.945C47.4551 126.123 47.3437 126.307 47.208 126.497C46.88 126.949 46.4968 127.302 46.0586 127.557C45.6231 127.807 45.1768 127.948 44.7196 127.98C44.2652 128.006 43.8399 127.923 43.4437 127.729C43.1107 127.565 42.8631 127.359 42.701 127.108C42.5388 126.858 42.4567 126.597 42.4545 126.326L40.4778 129.031L39.0051 128.309L43.7303 121.825L45.203 122.546L44.7491 123.167ZM45.7181 125.767C45.7831 125.678 45.8353 125.593 45.8747 125.513C46.0153 125.226 46.0418 124.961 45.954 124.719C45.872 124.479 45.7047 124.298 45.4521 124.174C45.1593 124.03 44.8403 124.006 44.4951 124.1C44.1499 124.195 43.8528 124.409 43.6039 124.742C43.536 124.837 43.481 124.928 43.4388 125.014C43.301 125.295 43.2731 125.556 43.3551 125.795C43.4371 126.035 43.6044 126.216 43.857 126.34C44.1499 126.483 44.4689 126.508 44.8141 126.414C45.1678 126.316 45.4692 126.101 45.7181 125.767Z" fill="#F3BDCA"/>
<path d="M42.6341 120.284L41.7111 120.669L41.715 120.678L42.6341 120.284ZM42.3691 121.98L41.5747 121.373L41.5664 121.384L41.5583 121.395L42.3691 121.98ZM41.3163 122.799L41.6942 123.725L41.6942 123.725L41.3163 122.799ZM39.8591 122.918L40.0401 121.935L38.9392 121.732L38.8615 122.849L39.8591 122.918ZM39.6594 125.789L39.2194 126.687L40.5538 127.341L40.6569 125.859L39.6594 125.789ZM37.9972 124.975L37.002 124.877L36.9341 125.568L37.5573 125.873L37.9972 124.975ZM38.2627 122.275L39.2579 122.373L39.3258 121.682L38.7026 121.377L38.2627 122.275ZM37.9096 122.102L38.3495 121.204L37.5967 120.835L37.1022 121.512L37.9096 122.102ZM36.3868 124.186L35.9468 125.084L36.6996 125.453L37.1942 124.776L36.3868 124.186ZM34.9141 123.465L34.1063 122.875L33.4036 123.838L34.4742 124.363L34.9141 123.465ZM38.9437 117.942L39.3837 117.044L38.6304 116.675L38.1359 117.353L38.9437 117.942ZM40.8324 121.302L41.6323 121.902L41.6514 121.877L41.6689 121.85L40.8324 121.302ZM40.9641 120.619L40.0364 120.992L40.0461 121.017L40.0571 121.04L40.9641 120.619ZM39.6104 119.764L40.0504 118.866L39.2967 118.496L38.8023 119.175L39.6104 119.764ZM38.6009 121.149L37.7928 120.56L37.091 121.522L38.161 122.047L38.6009 121.149ZM40.2481 121.71L40.0181 120.737L40.0094 120.739L40.0007 120.741L40.2481 121.71ZM40.9755 120.051C41.4774 120.297 41.6516 120.526 41.7111 120.669L43.557 119.899C43.2433 119.147 42.6051 118.622 41.8553 118.255L40.9755 120.051ZM41.715 120.678C41.7831 120.837 41.7883 120.98 41.6869 121.187L43.4829 122.067C43.8259 121.367 43.8639 120.614 43.5531 119.89L41.715 120.678ZM41.6869 121.187C41.6476 121.267 41.6093 121.327 41.5747 121.373L43.1634 122.588C43.2873 122.426 43.3929 122.25 43.4829 122.067L41.6869 121.187ZM41.5583 121.395C41.4063 121.605 41.2079 121.763 40.9385 121.873L41.6942 123.725C42.2968 123.479 42.8003 123.091 43.1798 122.565L41.5583 121.395ZM40.9385 121.873C40.7057 121.968 40.4176 122.004 40.0401 121.935L39.678 123.902C40.3715 124.029 41.0549 123.986 41.6942 123.725L40.9385 121.873ZM38.8615 122.849L38.6618 125.72L40.6569 125.859L40.8567 122.988L38.8615 122.849ZM40.0993 124.891L38.4372 124.077L37.5573 125.873L39.2194 126.687L40.0993 124.891ZM38.9924 125.073L39.2579 122.373L37.2675 122.177L37.002 124.877L38.9924 125.073ZM38.7026 121.377L38.3495 121.204L37.4696 123L37.8227 123.173L38.7026 121.377ZM37.1022 121.512L35.5794 123.596L37.1942 124.776L38.717 122.692L37.1022 121.512ZM36.8267 123.288L35.354 122.567L34.4742 124.363L35.9468 125.084L36.8267 123.288ZM35.7219 124.054L39.7516 118.531L38.1359 117.353L34.1063 122.875L35.7219 124.054ZM38.5038 118.84L40.9755 120.051L41.8553 118.255L39.3837 117.044L38.5038 118.84ZM41.6689 121.85C41.7178 121.775 41.7898 121.665 41.8363 121.57L40.0402 120.69C40.0455 120.679 40.0497 120.671 40.0519 120.667C40.0542 120.663 40.0556 120.66 40.0559 120.66C40.0562 120.659 40.0542 120.663 40.049 120.671C40.0384 120.688 40.0212 120.715 39.9959 120.754L41.6689 121.85ZM41.8363 121.57C42.0318 121.171 42.0949 120.68 41.8711 120.198L40.0571 121.04C40.026 120.973 40.0095 120.893 40.0135 120.814C40.0173 120.739 40.0373 120.696 40.0402 120.69L41.8363 121.57ZM41.8919 120.246C41.6995 119.768 41.3094 119.482 40.9633 119.313L40.0834 121.109C40.1337 121.134 40.1409 121.145 40.1263 121.131C40.1091 121.115 40.0677 121.07 40.0364 120.992L41.8919 120.246ZM40.9633 119.313L40.0504 118.866L39.1705 120.662L40.0834 121.109L40.9633 119.313ZM38.8023 119.175L37.7928 120.56L39.409 121.738L40.4185 120.353L38.8023 119.175ZM38.161 122.047L39.0739 122.494L39.9537 120.698L39.0409 120.251L38.161 122.047ZM39.0739 122.494C39.4869 122.696 39.9798 122.811 40.4956 122.679L40.0007 120.741C40.0157 120.737 40.0292 120.736 40.0398 120.735C40.0501 120.735 40.055 120.736 40.0533 120.735C40.0489 120.735 40.0168 120.729 39.9537 120.698L39.0739 122.494ZM40.4782 122.683C40.9709 122.567 41.3542 122.273 41.6323 121.902L40.0326 120.702C40.0048 120.739 39.9893 120.749 39.9909 120.748C39.9915 120.748 39.9949 120.745 40.0008 120.743C40.0067 120.74 40.0127 120.738 40.0181 120.737L40.4782 122.683ZM44.7491 123.167L43.9416 122.578L41.6867 125.664L45.1643 124.077L44.7491 123.167ZM45.7039 122.962L45.704 121.962L45.6958 121.962L45.7039 122.962ZM47.7351 124.331L46.7782 124.622L46.7809 124.63L47.7351 124.331ZM47.208 126.497L48.0171 127.085L48.0214 127.079L47.208 126.497ZM46.0586 127.557L46.5556 128.425L46.5617 128.421L46.0586 127.557ZM44.7196 127.98L44.7779 128.978L44.79 128.977L44.7196 127.98ZM42.701 127.108L43.5403 126.565L42.701 127.108ZM42.4545 126.326L43.4544 126.317L43.4299 123.296L41.647 125.736L42.4545 126.326ZM40.4778 129.031L40.0378 129.929L40.7906 130.298L41.2852 129.621L40.4778 129.031ZM39.0051 128.309L38.1969 127.72L37.4953 128.683L38.5652 129.207L39.0051 128.309ZM43.7303 121.825L44.1703 120.927L43.4165 120.557L42.9221 121.236L43.7303 121.825ZM45.203 122.546L46.0105 123.136L46.7141 122.173L45.6429 121.648L45.203 122.546ZM45.7181 125.767L46.5197 126.365L46.526 126.357L45.7181 125.767ZM45.954 124.719L45.0079 125.043L45.0108 125.051L45.0138 125.059L45.954 124.719ZM44.4951 124.1L44.7586 125.065L44.7586 125.065L44.4951 124.1ZM43.6039 124.742L42.8023 124.144L42.7963 124.152L42.7904 124.161L43.6039 124.742ZM43.3551 125.795L44.3012 125.471L44.3012 125.471L43.3551 125.795ZM44.8141 126.414L45.0776 127.378L45.0791 127.378L44.8141 126.414ZM45.1643 124.077C45.3218 124.005 45.5003 123.964 45.712 123.962L45.6958 121.962C45.2213 121.966 44.7632 122.062 44.3339 122.258L45.1643 124.077ZM45.7038 123.962C45.888 123.962 46.0821 124.005 46.2953 124.109L47.1752 122.313C46.7109 122.086 46.2174 121.962 45.704 121.962L45.7038 123.962ZM46.2953 124.109C46.5948 124.256 46.7188 124.426 46.7782 124.622L48.6919 124.041C48.4517 123.25 47.9091 122.673 47.1752 122.313L46.2953 124.109ZM46.7809 124.63C46.8423 124.826 46.8443 125.097 46.6443 125.506L48.4403 126.385C48.8085 125.634 48.939 124.829 48.6893 124.032L46.7809 124.63ZM46.6443 125.506C46.5851 125.626 46.5036 125.763 46.3945 125.916L48.0214 127.079C48.1837 126.852 48.3251 126.621 48.4403 126.385L46.6443 125.506ZM46.3989 125.909C46.1443 126.26 45.862 126.515 45.5554 126.693L46.5617 128.421C47.1317 128.09 47.6156 127.637 48.017 127.085L46.3989 125.909ZM45.5615 126.69C45.2441 126.871 44.9424 126.962 44.6491 126.982L44.79 128.977C45.4112 128.933 46.0021 128.742 46.5556 128.425L45.5615 126.69ZM44.6612 126.982C44.373 126.998 44.1201 126.946 43.8837 126.831L43.0038 128.627C43.5597 128.899 44.1573 129.014 44.7779 128.978L44.6612 126.982ZM43.8837 126.831C43.6741 126.728 43.5825 126.63 43.5403 126.565L41.8617 127.652C42.1438 128.088 42.5473 128.403 43.0038 128.627L43.8837 126.831ZM43.5403 126.565C43.471 126.458 43.4549 126.38 43.4544 126.317L41.4545 126.334C41.4584 126.814 41.6067 127.258 41.8617 127.652L43.5403 126.565ZM41.647 125.736L39.6704 128.441L41.2852 129.621L43.2619 126.916L41.647 125.736ZM40.9177 128.133L39.445 127.411L38.5652 129.207L40.0378 129.929L40.9177 128.133ZM39.8133 128.898L44.5385 122.414L42.9221 121.236L38.1969 127.72L39.8133 128.898ZM43.2904 122.723L44.7631 123.444L45.6429 121.648L44.1703 120.927L43.2904 122.723ZM44.3955 121.956L43.9416 122.578L45.5566 123.757L46.0105 123.136L44.3955 121.956ZM46.526 126.357C46.6178 126.231 46.7026 126.096 46.7727 125.953L44.9767 125.073C44.968 125.091 44.9485 125.125 44.9102 125.178L46.526 126.357ZM46.7727 125.953C47.0022 125.485 47.0956 124.934 46.8943 124.378L45.0138 125.059C45.0102 125.049 45.0072 125.037 45.0057 125.025C45.0042 125.012 45.0046 125.003 45.005 125C45.0057 124.992 45.0049 125.015 44.9767 125.073L46.7727 125.953ZM46.9001 124.395C46.7223 123.876 46.3538 123.502 45.892 123.276L45.0122 125.072C45.0277 125.08 45.0353 125.085 45.0374 125.086C45.0393 125.088 45.0366 125.086 45.0315 125.08C45.0264 125.075 45.0208 125.068 45.016 125.059C45.0112 125.051 45.0088 125.045 45.0079 125.043L46.9001 124.395ZM45.892 123.276C45.3587 123.015 44.7868 122.984 44.2316 123.136L44.7586 125.065C44.8937 125.028 44.9599 125.046 45.0122 125.072L45.892 123.276ZM44.2316 123.136C43.6371 123.298 43.1619 123.662 42.8023 124.144L44.4055 125.34C44.5437 125.155 44.6626 125.091 44.7586 125.065L44.2316 123.136ZM42.7904 124.161C42.6971 124.291 42.6118 124.429 42.5408 124.574L44.3369 125.454C44.3503 125.426 44.375 125.383 44.4174 125.324L42.7904 124.161ZM42.5408 124.574C42.3157 125.033 42.2217 125.572 42.409 126.119L44.3012 125.471C44.3045 125.481 44.3071 125.492 44.3084 125.504C44.3097 125.515 44.3092 125.524 44.3088 125.527C44.3082 125.533 44.3094 125.51 44.3369 125.454L42.5408 124.574ZM42.409 126.119C42.5869 126.638 42.9553 127.012 43.4171 127.238L44.297 125.442C44.2815 125.434 44.2738 125.429 44.2717 125.428C44.2698 125.426 44.2725 125.428 44.2776 125.433C44.2828 125.439 44.2883 125.446 44.2931 125.454C44.2979 125.462 44.3003 125.469 44.3012 125.471L42.409 126.119ZM43.4171 127.238C43.9504 127.499 44.5223 127.53 45.0776 127.378L44.5506 125.449C44.4154 125.486 44.3493 125.468 44.297 125.442L43.4171 127.238ZM45.0791 127.378C45.676 127.214 46.1565 126.852 46.5196 126.365L44.9165 125.169C44.7818 125.35 44.6596 125.419 44.5491 125.449L45.0791 127.378Z" fill="#E8F3F3"/>
<path d="M61.1795 125.43L55.7495 137.49C55.7495 137.49 30.7495 127.92 22.0195 118.37L31.4095 108.94C31.4095 108.94 45.5595 120.63 61.1795 125.43Z" stroke="#E8F3F3" stroke-width="0.72" stroke-miterlimit="10"/>
<path d="M21.3999 67.75L19.0499 70.65C18.5599 71.23 22.5999 76.65 28.8899 81.97C35.1799 87.29 41.2299 90.42 41.7199 89.84L44.1799 86.93L21.3999 67.75Z" fill="#E59F39"/>
<path d="M25.7797 79.28L29.6397 74.69L21.3997 67.75L19.0497 70.65C18.6397 71.13 21.1197 75.15 25.7797 79.28Z" fill="#EAB054"/>
<path d="M26.1504 79.62C27.0204 80.38 27.9304 81.17 28.8904 81.97C30.3104 83.17 31.6904 84.29 32.9804 85.3L36.8204 80.73L30.0004 75L26.1504 79.62Z" fill="#EAB054"/>
<path d="M33.4492 85.67C37.6392 88.92 41.3592 90.27 41.7192 89.84L44.1792 86.93L37.2792 81.12L33.4492 85.67Z" fill="#EAB054"/>
<path d="M44.197 86.8746C45.1893 85.6958 40.897 80.4499 34.61 75.1576C28.3229 69.8653 22.4219 66.5306 21.4295 67.7094C20.4372 68.8882 24.7295 74.1341 31.0165 79.4264C37.3036 84.7188 43.2046 88.0534 44.197 86.8746Z" fill="#E59F39"/>
<path d="M42.1994 85.2C41.5094 86.02 36.7494 83.2001 31.5694 78.7901C26.3894 74.3801 22.7494 70.2301 23.4394 69.4101C24.1294 68.5901 28.8894 71.4101 34.0694 75.8201C39.2494 80.2301 42.8794 84.38 42.1994 85.2Z" fill="#F7CC7F"/>
<path d="M109.939 47.61L110.939 50.22C111.139 50.76 116.209 50.12 121.999 47.95C127.789 45.78 132.099 42.95 131.899 42.45L130.899 39.76L109.939 47.61Z" fill="#E59F39"/>
<path d="M119.109 49L117.529 44.77L109.939 47.61L110.939 50.22C111.129 50.66 114.679 50.52 119.109 49Z" fill="#EAB054"/>
<path d="M119.469 48.88L121.999 48C123.309 47.52 124.549 47 125.689 46.55L124.119 42.35L117.859 44.69L119.469 48.88Z" fill="#EAB054"/>
<path d="M126.131 46.33C129.811 44.79 132.071 42.85 131.921 42.45L130.921 39.76L124.561 42.14L126.131 46.33Z" fill="#EAB054"/>
<path d="M121.147 45.6268C126.941 43.4616 131.309 40.8256 130.903 39.7392C130.497 38.6528 125.471 39.5273 119.677 41.6925C113.883 43.8578 109.515 46.4938 109.921 47.5802C110.327 48.6666 115.353 47.7921 121.147 45.6268Z" fill="#E59F39"/>
<path d="M129.05 40.42C129.33 41.18 125.7 43.2301 120.92 45.0201C116.14 46.8101 112.06 47.6401 111.77 46.8801C111.48 46.1201 115.13 44.0701 119.9 42.2901C124.67 40.5101 128.77 39.67 129.05 40.42Z" fill="#F7CC7F"/>
<path d="M31.5601 21.39L30.6301 23.08C30.4301 23.41 32.9801 25.82 36.6301 27.94C40.2801 30.06 43.6301 31.11 43.8701 30.78L44.8701 29.07L31.5601 21.39Z" fill="#E59F39"/>
<path d="M34.8293 26.85L36.3793 24.17L31.5593 21.39L30.6293 23.08C30.4593 23.36 32.0893 25.18 34.8293 26.85Z" fill="#EAB054"/>
<path d="M35.0508 27L36.6508 28C37.4808 28.48 38.2808 28.92 39.0308 29.32L40.5708 26.65L36.5708 24.36L35.0508 27Z" fill="#EAB054"/>
<path d="M39.3008 29.4C41.7308 30.68 43.7408 31.03 43.8908 30.78L44.8908 29.07L40.8908 26.75L39.3008 29.4Z" fill="#EAB054"/>
<path d="M44.8776 29.0468C45.2753 28.3581 42.6198 26.0805 38.9465 23.9597C35.2733 21.839 31.9731 20.6781 31.5755 21.3668C31.1778 22.0556 33.8333 24.3331 37.5065 26.4539C41.1798 28.5747 44.48 29.7356 44.8776 29.0468Z" fill="#E59F39"/>
<path d="M43.7098 28.3701C43.4298 28.8501 40.7098 27.8201 37.7098 26.08C34.7098 24.34 32.4498 22.5301 32.7098 22.0801C32.9698 21.6301 35.7098 22.63 38.7098 24.38C41.7098 26.13 43.9998 27.9001 43.7098 28.3701Z" fill="#F7CC7F"/>
</g>
<defs>
<clipPath id="clip0_26552_405123">
<rect width="158" height="158" rx="4" fill="white"/>
</clipPath>
</defs>
</svg>
