<svg width="162" height="162" viewBox="0 0 162 162" fill="none" xmlns="http://www.w3.org/2000/svg">
<g clip-path="url(#clip0_9653_48)">
<path d="M17.44 0H144.11C146.403 0.00393627 148.673 0.459451 150.789 1.34054C152.906 2.22162 154.829 3.51102 156.447 5.13512C158.066 6.75922 159.349 8.68621 160.222 10.8061C161.096 12.9259 161.544 15.1971 161.54 17.49V144.49C161.547 146.785 161.101 149.058 160.228 151.18C159.356 153.302 158.073 155.232 156.454 156.858C154.836 158.484 152.912 159.775 150.794 160.658C148.676 161.54 146.405 161.996 144.11 162H17.44C12.8084 161.992 8.36956 160.145 5.09921 156.865C1.82886 153.586 -0.00526332 149.142 4.58558e-05 144.51V17.51C-0.00521233 15.215 0.441789 12.9414 1.31551 10.8192C2.18923 8.69694 3.47254 6.76767 5.09213 5.14159C6.71171 3.5155 8.63583 2.22447 10.7545 1.34225C12.8732 0.46004 15.145 0.00393509 17.44 0V0Z" fill="#008FCA" fill-opacity="0.78"/>
<path d="M119.18 0C119.18 0 111.59 123.57 0.459987 128.17V144.71C0.456044 146.977 0.898915 149.223 1.7633 151.32C2.62768 153.416 3.89663 155.321 5.49764 156.927C7.09865 158.533 9.00035 159.807 11.0941 160.678C13.1878 161.548 15.4325 161.997 17.7 162H144.89C147.14 161.997 149.368 161.551 151.446 160.687C153.524 159.824 155.411 158.559 157 156.965C158.589 155.371 159.849 153.48 160.707 151.4C161.564 149.319 162.004 147.09 162 144.84V17.84C162.005 15.5016 161.55 13.1851 160.659 11.0229C159.769 8.86062 158.461 6.89497 156.811 5.23824C155.161 3.58151 153.201 2.26617 151.042 1.36737C148.883 0.468576 146.568 0.00393517 144.23 0L119.18 0Z" fill="#008FCA"/>
<path d="M43.17 58.51C39.9978 58.5259 36.9609 59.7972 34.7235 62.0459C32.486 64.2946 31.2299 67.3378 31.23 70.51V108.79C31.2299 111.962 32.486 115.005 34.7235 117.254C36.9609 119.503 39.9978 120.774 43.17 120.79H57.55C60.1376 120.781 62.6516 119.928 64.71 118.36V58.51H43.17Z" fill="white"/>
<path d="M137.43 79.6C137.436 78.3169 137.188 77.0453 136.698 75.8591C136.209 74.6729 135.489 73.5957 134.58 72.69C135.605 71.5635 136.384 70.2353 136.866 68.7906C137.348 67.3458 137.523 65.8163 137.38 64.3C137.034 61.5388 135.681 59.0024 133.582 57.1759C131.482 55.3494 128.783 54.3611 126 54.4H99.0002C100.34 50.31 102.49 42.83 102.49 36.82C102.49 27.3 94.4102 19.25 89.3502 19.25C86.4896 19.2981 83.7148 20.2346 81.4102 21.93C81.1541 22.1383 80.9471 22.4003 80.8036 22.6976C80.6602 22.9948 80.5839 23.32 80.5802 23.65V38.51L70.1802 66.13H55.1802L57.5302 113.19C60.9702 114.77 74.5302 115.65 78.3402 115.78H118.54C120.811 115.804 123.023 115.06 124.817 113.667C126.611 112.275 127.881 110.316 128.42 108.11C128.929 105.885 128.649 103.552 127.63 101.51C129.247 100.68 130.604 99.421 131.551 97.8702C132.499 96.3194 133 94.5373 133 92.72C133.017 91.1984 132.674 89.6943 132 88.33C133.623 87.5178 134.989 86.2723 135.947 84.7315C136.906 83.1906 137.419 81.4146 137.43 79.6V79.6Z" stroke="white" stroke-width="5.17" stroke-linecap="round" stroke-linejoin="round"/>
<path d="M73.2802 134.89C72.1951 134.888 71.1118 134.801 70.0402 134.63C64.8065 133.8 60.0772 131.03 56.794 126.871C53.5108 122.711 51.9145 117.468 52.323 112.185C52.7316 106.901 55.1149 101.966 58.9986 98.3606C62.8822 94.7554 67.9812 92.7451 73.2802 92.73H73.4202C78.8075 92.7025 84.0007 94.7397 87.9324 98.4228C91.8641 102.106 94.2357 107.155 94.5596 112.533C94.8835 117.91 93.1353 123.208 89.6741 127.336C86.213 131.465 81.3019 134.111 75.9502 134.73C75.0646 134.842 74.1729 134.899 73.2802 134.9V134.89ZM70.4102 121.89L84.3102 105.81L72.6302 119.2C72.0313 119.885 71.1897 120.311 70.2831 120.387C69.3764 120.463 68.4755 120.185 67.7702 119.61L62.3002 115.14L70.4102 121.89Z" fill="white"/>
<path d="M73.4198 94.56C78.3211 94.5618 83.037 96.434 86.6048 99.7945C90.1726 103.155 92.3235 107.75 92.6182 112.643C92.913 117.535 91.3295 122.356 88.191 126.12C85.0524 129.885 80.5955 132.31 75.7298 132.9C74.9172 133.003 74.099 133.057 73.2798 133.06C72.2754 133.052 71.2728 132.972 70.2798 132.82C65.5004 132.058 61.1834 129.524 58.1884 125.722C55.1935 121.921 53.7405 117.13 54.1189 112.305C54.4972 107.48 56.6791 102.975 60.2299 99.6864C63.7808 96.3979 68.4401 94.5676 73.2798 94.56H73.4198ZM69.9898 118.56C69.6036 118.557 69.2297 118.423 68.9298 118.18L63.3198 113.6C63.0372 113.367 62.6858 113.234 62.3198 113.22C62.0746 113.22 61.8324 113.275 61.611 113.381C61.3896 113.486 61.1944 113.64 61.0398 113.83L60.7798 114.15C60.6389 114.318 60.5326 114.513 60.4673 114.722C60.402 114.932 60.379 115.152 60.3994 115.371C60.4199 115.589 60.4835 115.802 60.5865 115.996C60.6896 116.189 60.8301 116.361 60.9998 116.5L69.4198 123.43C69.7538 123.707 70.1835 123.842 70.6159 123.804C71.0483 123.767 71.4485 123.56 71.7298 123.23L85.8498 106.89C85.9919 106.726 86.1002 106.536 86.1686 106.33C86.2369 106.124 86.264 105.906 86.2482 105.69C86.2324 105.473 86.1741 105.262 86.0766 105.068C85.979 104.874 85.8442 104.702 85.6798 104.56L85.3798 104.29C85.0804 104.022 84.6916 103.876 84.2898 103.88C84.0528 103.88 83.8184 103.93 83.6027 104.029C83.387 104.127 83.195 104.271 83.0398 104.45L71.2398 118C71.0852 118.181 70.8935 118.326 70.6779 118.426C70.4622 118.526 70.2276 118.578 69.9898 118.58V118.56ZM73.4198 90.9H73.2598C67.1811 90.9 61.3513 93.3148 57.053 97.6131C52.7546 101.911 50.3398 107.741 50.3398 113.82C50.3398 119.899 52.7546 125.729 57.053 130.027C61.3513 134.325 67.1811 136.74 73.2598 136.74C74.243 136.734 75.2249 136.667 76.1998 136.54C81.9753 135.812 87.257 132.913 90.9721 128.431C94.6872 123.95 96.5571 118.222 96.2019 112.412C95.8467 106.602 93.2931 101.145 89.0598 97.149C84.8265 93.1534 79.2309 90.9191 73.4098 90.9H73.4198Z" fill="#008FCA" fill-opacity="0.78"/>
</g>
<defs>
<clipPath id="clip0_9653_48">
<rect width="162" height="162" fill="white"/>
</clipPath>
</defs>
</svg>
