<svg width="158" height="158" viewBox="0 0 158 158" fill="none" xmlns="http://www.w3.org/2000/svg">
<path d="M137.2 4.51001H20.3798C11.4991 4.51001 4.2998 11.7093 4.2998 20.59V137.41C4.2998 146.291 11.4991 153.49 20.3798 153.49H137.2C146.081 153.49 153.28 146.291 153.28 137.41V20.59C153.28 11.7093 146.081 4.51001 137.2 4.51001Z" fill="#ED9FB2"/>
<path d="M114.21 4.51001C114.21 4.51001 107.21 118.15 4.71973 122.38V137.59C4.71973 141.807 6.3949 145.851 9.37673 148.833C12.3586 151.815 16.4028 153.49 20.6197 153.49H137.92C142.105 153.49 146.119 151.827 149.078 148.868C152.037 145.909 153.7 141.895 153.7 137.71V20.9C153.7 16.5531 151.973 12.3843 148.899 9.31053C145.825 6.23681 141.657 4.51001 137.31 4.51001H114.21Z" fill="#EB92A7"/>
<path d="M78.0498 30.08C68.2368 30.08 58.8257 33.9782 51.8869 40.917C44.948 47.8559 41.0498 57.2669 41.0498 67.08C41.0498 87.51 78.0498 127.95 78.0498 127.95C78.0498 127.95 115.05 87.51 115.05 67.08C115.05 57.2669 111.152 47.8559 104.213 40.917C97.2739 33.9782 87.8628 30.08 78.0498 30.08ZM78.0498 80.4C74.9 80.396 71.8221 79.4584 69.205 77.7056C66.588 75.9527 64.5493 73.4634 63.3467 70.5523C62.144 67.6411 61.8314 64.4387 62.4483 61.3499C63.0653 58.2611 64.584 55.4245 66.8127 53.1987C69.0413 50.9728 71.8798 49.4576 74.9694 48.8446C78.0589 48.2316 81.2609 48.5482 84.1706 49.7545C87.0802 50.9608 89.567 53.0026 91.3165 55.6218C93.066 58.241 93.9998 61.3202 93.9998 64.47C93.9985 66.5632 93.5849 68.6357 92.7826 70.5692C91.9803 72.5026 90.8051 74.2591 89.324 75.7383C87.8429 77.2175 86.085 78.3906 84.1505 79.1904C82.2161 79.9903 80.1431 80.4013 78.0498 80.4Z" fill="white"/>
<path d="M127.51 119.72C127.361 119.72 127.213 119.699 127.07 119.66L118.66 117.12C115.682 117.991 112.593 118.429 109.49 118.42C96.6302 118.42 86.1602 111.12 86.1602 102.14C86.1602 93.16 96.6302 85.85 109.49 85.85C122.35 85.85 132.82 93.16 132.82 102.14C132.82 106.14 130.74 109.99 126.94 112.97L128.89 117.65C128.986 117.877 129.024 118.124 129.001 118.37C128.978 118.615 128.894 118.851 128.757 119.056C128.621 119.262 128.435 119.43 128.217 119.545C128 119.661 127.757 119.721 127.51 119.72ZM119.85 100.78C119.601 100.78 119.357 100.854 119.15 100.992C118.943 101.131 118.781 101.328 118.686 101.558C118.591 101.788 118.566 102.041 118.614 102.286C118.663 102.53 118.783 102.755 118.959 102.931C119.135 103.107 119.36 103.227 119.604 103.276C119.849 103.324 120.102 103.299 120.332 103.204C120.563 103.109 120.759 102.947 120.898 102.74C121.036 102.533 121.11 102.289 121.11 102.04C121.108 101.707 120.974 101.388 120.738 101.152C120.502 100.916 120.184 100.783 119.85 100.78ZM109.49 100.78C109.156 100.78 108.835 100.913 108.599 101.149C108.363 101.385 108.23 101.706 108.23 102.04C108.23 102.374 108.363 102.695 108.599 102.931C108.835 103.167 109.156 103.3 109.49 103.3C109.824 103.3 110.145 103.167 110.381 102.931C110.617 102.695 110.75 102.374 110.75 102.04C110.75 101.706 110.617 101.385 110.381 101.149C110.145 100.913 109.824 100.78 109.49 100.78ZM99.1301 100.78C98.796 100.78 98.4755 100.913 98.2392 101.149C98.0029 101.385 97.8702 101.706 97.8702 102.04C97.8702 102.374 98.0029 102.695 98.2392 102.931C98.4755 103.167 98.796 103.3 99.1301 103.3C99.4643 103.3 99.7848 103.167 100.021 102.931C100.257 102.695 100.39 102.374 100.39 102.04C100.39 101.706 100.257 101.385 100.021 101.149C99.7848 100.913 99.4643 100.78 99.1301 100.78Z" fill="white"/>
<path d="M109.49 87.3501C121.55 87.3501 131.32 93.9701 131.32 102.14C131.32 106.14 128.95 109.8 125.11 112.46L127.51 118.22L118.66 115.55C115.691 116.471 112.599 116.933 109.49 116.92C97.4902 116.92 87.6602 110.3 87.6602 102.14C87.6602 93.9801 97.4402 87.3501 109.49 87.3501ZM119.85 104.8C120.396 104.8 120.93 104.638 121.384 104.335C121.837 104.032 122.191 103.601 122.4 103.096C122.609 102.592 122.664 102.037 122.557 101.502C122.451 100.966 122.188 100.474 121.802 100.088C121.416 99.7025 120.924 99.4396 120.389 99.3331C119.853 99.2266 119.298 99.2813 118.794 99.4902C118.29 99.699 117.859 100.053 117.555 100.507C117.252 100.961 117.09 101.494 117.09 102.04C117.09 102.403 117.162 102.761 117.3 103.096C117.439 103.431 117.642 103.735 117.899 103.992C118.155 104.248 118.459 104.451 118.794 104.59C119.129 104.729 119.488 104.8 119.85 104.8ZM109.49 104.8C110.036 104.8 110.57 104.638 111.024 104.335C111.477 104.032 111.831 103.601 112.04 103.096C112.249 102.592 112.304 102.037 112.197 101.502C112.091 100.966 111.828 100.474 111.442 100.088C111.056 99.7025 110.564 99.4396 110.029 99.3331C109.493 99.2266 108.938 99.2813 108.434 99.4902C107.93 99.699 107.499 100.053 107.195 100.507C106.892 100.961 106.73 101.494 106.73 102.04C106.73 102.403 106.802 102.761 106.94 103.096C107.079 103.431 107.282 103.735 107.539 103.992C107.795 104.248 108.099 104.451 108.434 104.59C108.769 104.729 109.128 104.8 109.49 104.8ZM99.1301 104.8C99.6743 104.8 100.206 104.639 100.659 104.338C101.112 104.036 101.466 103.607 101.676 103.105C101.886 102.603 101.943 102.05 101.84 101.516C101.736 100.982 101.477 100.49 101.095 100.103C100.713 99.715 100.225 99.449 99.6927 99.3381C99.16 99.2271 98.6063 99.2761 98.1014 99.4789C97.5964 99.6816 97.1626 100.029 96.8546 100.478C96.5466 100.926 96.378 101.456 96.3702 102C96.3688 102.363 96.4393 102.722 96.5776 103.058C96.7158 103.393 96.919 103.698 97.1756 103.955C97.4321 104.211 97.7369 104.414 98.0724 104.553C98.4078 104.691 98.7673 104.761 99.1301 104.76V104.8ZM109.49 84.3101C95.5702 84.3101 84.6602 92.1201 84.6602 102.1C84.6602 112.08 95.5702 119.88 109.49 119.88C112.585 119.886 115.667 119.473 118.65 118.65L126.65 121.06C126.933 121.139 127.226 121.179 127.52 121.18C128.014 121.18 128.499 121.058 128.935 120.825C129.37 120.592 129.741 120.256 130.015 119.846C130.288 119.435 130.457 118.963 130.505 118.472C130.553 117.981 130.479 117.486 130.29 117.03L128.77 113.38C132.37 110.23 134.33 106.29 134.33 102.1C134.33 92.1001 123.42 84.3101 109.5 84.3101H109.49Z" fill="#EB92A7"/>
</svg>
