<svg width="111" height="24" viewBox="0 0 111 24" fill="none" xmlns="http://www.w3.org/2000/svg">
<path fill-rule="evenodd" clip-rule="evenodd" d="M56.7164 2.12602C59.7034 2.12602 62.0507 2.32952 63.7301 2.53137C63.6955 2.19385 63.6281 1.85634 63.6281 1.51882C63.6281 1.1813 63.6955 0.876879 63.7301 0.506273H46.4146C46.4492 0.876879 46.515 1.1813 46.515 1.51882C46.515 1.85634 46.4492 2.19385 46.4146 2.53137C48.3276 2.32952 50.3754 2.12602 53.7638 2.12602V23.6625C54.2343 23.6277 54.736 23.5616 55.2393 23.5616C55.7097 23.5616 56.1785 23.6294 56.7164 23.6625V2.12602V2.12602ZM34.3792 2.09293H36.9633L40.3188 2.16076C41.3254 2.2286 42.3321 2.32952 43.3404 2.53137C43.3058 2.19385 43.2384 1.85634 43.2384 1.51882C43.2384 1.1813 43.3058 0.876879 43.3404 0.506273H31.4267V23.4937H43.5427C43.5082 23.1562 43.4407 22.8187 43.4407 22.4812C43.4407 22.1437 43.5082 21.8392 43.5427 21.4686C42.5015 21.6374 41.4949 21.7383 40.4537 21.7731C38.4403 21.8409 36.427 21.9749 34.3792 21.9071V12.0513H39.5819C40.5885 12.0513 41.5623 12.187 42.5689 12.22C42.5344 11.8494 42.467 11.545 42.467 11.2753C42.467 10.9709 42.5344 10.6681 42.5689 10.3968C41.5623 10.4299 40.5885 10.5656 39.5819 10.5656H34.3792V2.09293V2.09293ZM11.7558 17.5177C11.9269 17.9479 12.2131 17.5756 12.4401 17.5177L22.5971 0.641941C22.8816 0.383841 23.2813 0.153867 23.6251 0.411967L23.8537 0.871915L23.9672 22.2247C24.1679 22.5407 24.0528 22.999 24.0824 23.373H20.3157C20.6578 18.436 20.6578 13.0407 20.3157 8.10368H20.087C17.0917 13.0688 14.0093 18.0058 11.4137 23.143H10.8429C7.84762 18.436 5.27835 13.5569 2.16957 8.90776H1.94093C1.7123 13.6429 1.82579 18.5518 2.28306 23.143C1.65473 23.1711 0.827364 23.5731 0.11514 23.2571C0.598729 15.7954 0.199028 8.10368 0 0.641941C0.0296075 0.239901 0.485233 0.297808 0.799401 0.297808L11.7558 17.5177ZM98.2145 24C105.699 24 111 19.0713 111 11.5434C111 3.44299 104.59 0 98.282 0C91.3341 0 85.8649 4.65904 85.8649 12.0513C85.8649 19.2748 90.7978 24 98.2145 24ZM107.712 11.8147C107.947 15.5274 105.396 22.8865 98.3149 22.8865C93.3161 22.8865 89.153 19.3079 89.153 12.4566C89.153 5.60375 92.7108 1.11512 98.6159 1.11512C101.3 1.11512 103.919 2.26169 105.597 4.38936C107.342 6.64939 107.712 9.012 107.712 11.8147ZM67.9557 23.5947C68.4261 23.5599 68.9278 23.4937 69.4311 23.4937C69.9016 23.4937 70.3703 23.5616 70.9082 23.5947V12.321H72.183L74.8674 15.4943L78.8282 20.6579C79.5322 21.6026 80.2033 22.549 80.9419 23.5947C81.5455 23.5599 82.2166 23.4937 82.8548 23.4937C83.493 23.4937 84.0967 23.5616 84.8007 23.5947L84.1625 22.7509L82.5522 20.8614L75.6388 12.0513C79.0272 11.4441 82.5193 9.55301 82.5193 5.63849C82.5193 2.23025 80.2379 0.507928 75.0697 0.507928H67.9557V23.5947ZM70.9099 1.75541C72.3195 1.68758 74.6009 1.58665 75.8428 1.7885C78.3594 2.19385 79.5339 3.71267 79.5339 6.04219C79.5339 8.67448 77.6883 10.3637 75.2391 10.8683C73.5268 11.2058 71.3803 11.0718 70.9099 11.0371V1.75541Z" fill="black"/>
</svg>
