<svg width="142" height="17" viewBox="0 0 142 17" fill="none" xmlns="http://www.w3.org/2000/svg">
<path d="M0.528 7.536C0.528 6.64 0.704 5.84533 1.056 5.152C1.41867 4.45867 1.904 3.92533 2.512 3.552C3.13067 3.17867 3.81867 2.992 4.576 2.992C5.23733 2.992 5.81333 3.12533 6.304 3.392C6.80533 3.65867 7.20533 3.99467 7.504 4.4V3.136H9.76V12H7.504V10.704C7.216 11.12 6.816 11.4667 6.304 11.744C5.80267 12.0107 5.22133 12.144 4.56 12.144C3.81333 12.144 3.13067 11.952 2.512 11.568C1.904 11.184 1.41867 10.6453 1.056 9.952C0.704 9.248 0.528 8.44267 0.528 7.536ZM7.504 7.568C7.504 7.024 7.39733 6.56 7.184 6.176C6.97067 5.78133 6.68267 5.48267 6.32 5.28C5.95733 5.06667 5.568 4.96 5.152 4.96C4.736 4.96 4.352 5.06133 4 5.264C3.648 5.46667 3.36 5.76533 3.136 6.16C2.92267 6.544 2.816 7.00267 2.816 7.536C2.816 8.06933 2.92267 8.53867 3.136 8.944C3.36 9.33867 3.648 9.64267 4 9.856C4.36267 10.0693 4.74667 10.176 5.152 10.176C5.568 10.176 5.95733 10.0747 6.32 9.872C6.68267 9.65867 6.97067 9.36 7.184 8.976C7.39733 8.58133 7.504 8.112 7.504 7.568ZM17.3598 3.008C18.4158 3.008 19.2691 3.344 19.9198 4.016C20.5704 4.67733 20.8958 5.60533 20.8958 6.8V12H18.6558V7.104C18.6558 6.4 18.4798 5.86133 18.1278 5.488C17.7758 5.104 17.2958 4.912 16.6878 4.912C16.0691 4.912 15.5784 5.104 15.2158 5.488C14.8638 5.86133 14.6878 6.4 14.6878 7.104V12H12.4478V3.136H14.6878V4.24C14.9864 3.856 15.3651 3.55733 15.8238 3.344C16.2931 3.12 16.8051 3.008 17.3598 3.008ZM22.9499 7.536C22.9499 6.64 23.1259 5.84533 23.4779 5.152C23.8405 4.45867 24.3312 3.92533 24.9499 3.552C25.5685 3.17867 26.2565 2.992 27.0139 2.992C27.5899 2.992 28.1392 3.12 28.6619 3.376C29.1845 3.62133 29.6005 3.952 29.9099 4.368V0.16H32.1819V12H29.9099V10.688C29.6325 11.1253 29.2432 11.4773 28.7419 11.744C28.2405 12.0107 27.6592 12.144 26.9979 12.144C26.2512 12.144 25.5685 11.952 24.9499 11.568C24.3312 11.184 23.8405 10.6453 23.4779 9.952C23.1259 9.248 22.9499 8.44267 22.9499 7.536ZM29.9259 7.568C29.9259 7.024 29.8192 6.56 29.6059 6.176C29.3925 5.78133 29.1045 5.48267 28.7419 5.28C28.3792 5.06667 27.9899 4.96 27.5739 4.96C27.1579 4.96 26.7739 5.06133 26.4219 5.264C26.0699 5.46667 25.7819 5.76533 25.5579 6.16C25.3445 6.544 25.2379 7.00267 25.2379 7.536C25.2379 8.06933 25.3445 8.53867 25.5579 8.944C25.7819 9.33867 26.0699 9.64267 26.4219 9.856C26.7845 10.0693 27.1685 10.176 27.5739 10.176C27.9899 10.176 28.3792 10.0747 28.7419 9.872C29.1045 9.65867 29.3925 9.36 29.6059 8.976C29.8192 8.58133 29.9259 8.112 29.9259 7.568ZM50.1901 3.008C51.2781 3.008 52.1528 3.344 52.8141 4.016C53.4861 4.67733 53.8221 5.60533 53.8221 6.8V12H51.5821V7.104C51.5821 6.41067 51.4061 5.88267 51.0541 5.52C50.7021 5.14667 50.2221 4.96 49.6141 4.96C49.0061 4.96 48.5208 5.14667 48.1581 5.52C47.8061 5.88267 47.6301 6.41067 47.6301 7.104V12H45.3901V7.104C45.3901 6.41067 45.2141 5.88267 44.8621 5.52C44.5101 5.14667 44.0301 4.96 43.4221 4.96C42.8035 4.96 42.3128 5.14667 41.9501 5.52C41.5981 5.88267 41.4221 6.41067 41.4221 7.104V12H39.1821V3.136H41.4221V4.208C41.7101 3.83467 42.0781 3.54133 42.5261 3.328C42.9848 3.11467 43.4861 3.008 44.0301 3.008C44.7235 3.008 45.3421 3.15733 45.8861 3.456C46.4301 3.744 46.8515 4.16 47.1501 4.704C47.4381 4.192 47.8541 3.78133 48.3981 3.472C48.9528 3.16267 49.5501 3.008 50.1901 3.008ZM55.8717 7.536C55.8717 6.64 56.0477 5.84533 56.3997 5.152C56.7624 4.45867 57.2478 3.92533 57.8558 3.552C58.4744 3.17867 59.1624 2.992 59.9198 2.992C60.5811 2.992 61.1571 3.12533 61.6478 3.392C62.1491 3.65867 62.5491 3.99467 62.8478 4.4V3.136H65.1038V12H62.8478V10.704C62.5598 11.12 62.1598 11.4667 61.6478 11.744C61.1464 12.0107 60.5651 12.144 59.9038 12.144C59.1571 12.144 58.4744 11.952 57.8558 11.568C57.2478 11.184 56.7624 10.6453 56.3997 9.952C56.0477 9.248 55.8717 8.44267 55.8717 7.536ZM62.8478 7.568C62.8478 7.024 62.7411 6.56 62.5278 6.176C62.3144 5.78133 62.0264 5.48267 61.6638 5.28C61.3011 5.06667 60.9118 4.96 60.4958 4.96C60.0798 4.96 59.6958 5.06133 59.3438 5.264C58.9918 5.46667 58.7038 5.76533 58.4798 6.16C58.2664 6.544 58.1598 7.00267 58.1598 7.536C58.1598 8.06933 58.2664 8.53867 58.4798 8.944C58.7038 9.33867 58.9918 9.64267 59.3438 9.856C59.7064 10.0693 60.0904 10.176 60.4958 10.176C60.9118 10.176 61.3011 10.0747 61.6638 9.872C62.0264 9.65867 62.3144 9.36 62.5278 8.976C62.7411 8.58133 62.8478 8.112 62.8478 7.568ZM72.7035 3.008C73.7595 3.008 74.6128 3.344 75.2635 4.016C75.9142 4.67733 76.2395 5.60533 76.2395 6.8V12H73.9995V7.104C73.9995 6.4 73.8235 5.86133 73.4715 5.488C73.1195 5.104 72.6395 4.912 72.0315 4.912C71.4128 4.912 70.9222 5.104 70.5595 5.488C70.2075 5.86133 70.0315 6.4 70.0315 7.104V12H67.7915V3.136H70.0315V4.24C70.3302 3.856 70.7088 3.55733 71.1675 3.344C71.6368 3.12 72.1488 3.008 72.7035 3.008ZM87.3496 3.136L81.8616 16.192H79.4776L81.3976 11.776L77.8456 3.136H80.3576L82.6456 9.328L84.9656 3.136H87.3496ZM104.378 3.008C105.466 3.008 106.34 3.344 107.002 4.016C107.674 4.67733 108.01 5.60533 108.01 6.8V12H105.77V7.104C105.77 6.41067 105.594 5.88267 105.242 5.52C104.89 5.14667 104.41 4.96 103.802 4.96C103.194 4.96 102.708 5.14667 102.346 5.52C101.994 5.88267 101.818 6.41067 101.818 7.104V12H99.5776V7.104C99.5776 6.41067 99.4016 5.88267 99.0496 5.52C98.6976 5.14667 98.2176 4.96 97.6096 4.96C96.991 4.96 96.5003 5.14667 96.1376 5.52C95.7856 5.88267 95.6096 6.41067 95.6096 7.104V12H93.3696V3.136H95.6096V4.208C95.8976 3.83467 96.2656 3.54133 96.7136 3.328C97.1723 3.11467 97.6736 3.008 98.2176 3.008C98.911 3.008 99.5296 3.15733 100.074 3.456C100.618 3.744 101.039 4.16 101.338 4.704C101.626 4.192 102.042 3.78133 102.586 3.472C103.14 3.16267 103.738 3.008 104.378 3.008ZM114.571 12.144C113.718 12.144 112.95 11.9573 112.267 11.584C111.585 11.2 111.046 10.6613 110.651 9.968C110.267 9.27467 110.075 8.47467 110.075 7.568C110.075 6.66133 110.273 5.86133 110.667 5.168C111.073 4.47467 111.622 3.94133 112.315 3.568C113.009 3.184 113.782 2.992 114.635 2.992C115.489 2.992 116.262 3.184 116.955 3.568C117.649 3.94133 118.193 4.47467 118.587 5.168C118.993 5.86133 119.195 6.66133 119.195 7.568C119.195 8.47467 118.987 9.27467 118.571 9.968C118.166 10.6613 117.611 11.2 116.907 11.584C116.214 11.9573 115.435 12.144 114.571 12.144ZM114.571 10.192C114.977 10.192 115.355 10.096 115.707 9.904C116.07 9.70133 116.358 9.40267 116.571 9.008C116.785 8.61333 116.891 8.13333 116.891 7.568C116.891 6.72533 116.667 6.08 116.219 5.632C115.782 5.17333 115.243 4.944 114.603 4.944C113.963 4.944 113.425 5.17333 112.987 5.632C112.561 6.08 112.347 6.72533 112.347 7.568C112.347 8.41067 112.555 9.06133 112.971 9.52C113.398 9.968 113.931 10.192 114.571 10.192ZM123.578 4.512C123.866 4.04267 124.24 3.67467 124.698 3.408C125.168 3.14133 125.701 3.008 126.298 3.008V5.36H125.706C125.002 5.36 124.469 5.52533 124.106 5.856C123.754 6.18667 123.578 6.76267 123.578 7.584V12H121.338V3.136H123.578V4.512ZM136.547 7.376C136.547 7.696 136.526 7.984 136.483 8.24H130.003C130.056 8.88 130.28 9.38133 130.675 9.744C131.07 10.1067 131.555 10.288 132.131 10.288C132.963 10.288 133.555 9.93067 133.907 9.216H136.323C136.067 10.0693 135.576 10.7733 134.851 11.328C134.126 11.872 133.235 12.144 132.179 12.144C131.326 12.144 130.558 11.9573 129.875 11.584C129.203 11.2 128.675 10.6613 128.291 9.968C127.918 9.27467 127.731 8.47467 127.731 7.568C127.731 6.65067 127.918 5.84533 128.291 5.152C128.664 4.45867 129.187 3.92533 129.859 3.552C130.531 3.17867 131.304 2.992 132.179 2.992C133.022 2.992 133.774 3.17333 134.435 3.536C135.107 3.89867 135.624 4.416 135.987 5.088C136.36 5.74933 136.547 6.512 136.547 7.376ZM134.227 6.736C134.216 6.16 134.008 5.70133 133.603 5.36C133.198 5.008 132.702 4.832 132.115 4.832C131.56 4.832 131.091 5.00267 130.707 5.344C130.334 5.67467 130.104 6.13867 130.019 6.736H134.227ZM139.674 12.112C139.269 12.112 138.933 11.9893 138.666 11.744C138.41 11.488 138.282 11.1733 138.282 10.8C138.282 10.4267 138.41 10.1173 138.666 9.872C138.933 9.616 139.269 9.488 139.674 9.488C140.069 9.488 140.394 9.616 140.65 9.872C140.906 10.1173 141.034 10.4267 141.034 10.8C141.034 11.1733 140.906 11.488 140.65 11.744C140.394 11.9893 140.069 12.112 139.674 12.112Z" fill="black"/>
</svg>
