<svg width="162" height="162" viewBox="0 0 162 162" fill="none" xmlns="http://www.w3.org/2000/svg">
<g clip-path="url(#clip0_9653_0)">
<path d="M144.52 0H17.48C7.82606 0 0 7.82606 0 17.48V144.52C0 154.174 7.82606 162 17.48 162H144.52C154.174 162 162 154.174 162 144.52V17.48C162 7.82606 154.174 0 144.52 0Z" fill="#008FCA" fill-opacity="0.78"/>
<path d="M119.06 0C119.06 0 111.39 123.57 0 128.17V144.71C0 146.981 0.447219 149.229 1.31612 151.327C2.18503 153.424 3.4586 155.33 5.06412 156.936C6.66965 158.541 8.57568 159.815 10.6734 160.684C12.7711 161.553 15.0194 162 17.29 162H144.84C149.391 162 153.756 160.192 156.974 156.974C160.192 153.756 162 149.391 162 144.84V17.84C162.001 15.4977 161.541 13.1781 160.646 11.0137C159.75 8.84929 158.437 6.88255 156.781 5.22582C155.125 3.56909 153.159 2.25485 150.996 1.35818C148.832 0.461517 146.512 -3.68393e-07 144.17 0L119.06 0Z" fill="#008FCA"/>
<path d="M81 29.62V132.38" stroke="white" stroke-width="4.3" stroke-miterlimit="10"/>
<path d="M81.0001 29.62C85.076 29.62 88.3801 26.3158 88.3801 22.24C88.3801 18.1641 85.076 14.86 81.0001 14.86C76.9243 14.86 73.6201 18.1641 73.6201 22.24C73.6201 26.3158 76.9243 29.62 81.0001 29.62Z" stroke="white" stroke-width="4.3" stroke-miterlimit="10"/>
<path d="M81.0001 147.14C85.076 147.14 88.3801 143.836 88.3801 139.76C88.3801 135.684 85.076 132.38 81.0001 132.38C76.9243 132.38 73.6201 135.684 73.6201 139.76C73.6201 143.836 76.9243 147.14 81.0001 147.14Z" stroke="white" stroke-width="4.3" stroke-miterlimit="10"/>
<path d="M132.38 81H29.6201" stroke="white" stroke-width="4.3" stroke-miterlimit="10"/>
<path d="M139.76 88.38C143.836 88.38 147.14 85.0759 147.14 81C147.14 76.9241 143.836 73.62 139.76 73.62C135.684 73.62 132.38 76.9241 132.38 81C132.38 85.0759 135.684 88.38 139.76 88.38Z" stroke="white" stroke-width="4.3" stroke-miterlimit="10"/>
<path d="M22.2399 88.38C26.3157 88.38 29.6199 85.0759 29.6199 81C29.6199 76.9241 26.3157 73.62 22.2399 73.62C18.164 73.62 14.8599 76.9241 14.8599 81C14.8599 85.0759 18.164 88.38 22.2399 88.38Z" stroke="white" stroke-width="4.3" stroke-miterlimit="10"/>
<path d="M113.16 48.84L48.8398 113.16" stroke="white" stroke-width="4.3" stroke-miterlimit="10"/>
<path d="M117.78 50.75C121.386 50.75 124.31 47.8264 124.31 44.22C124.31 40.6136 121.386 37.69 117.78 37.69C114.174 37.69 111.25 40.6136 111.25 44.22C111.25 47.8264 114.174 50.75 117.78 50.75Z" stroke="white" stroke-width="4.3" stroke-miterlimit="10"/>
<path d="M44.2199 124.31C47.8264 124.31 50.7499 121.386 50.7499 117.78C50.7499 114.174 47.8264 111.25 44.2199 111.25C40.6135 111.25 37.6899 114.174 37.6899 117.78C37.6899 121.386 40.6135 124.31 44.2199 124.31Z" stroke="white" stroke-width="4.3" stroke-miterlimit="10"/>
<path d="M113.16 113.16L48.8398 48.84" stroke="white" stroke-width="4.3" stroke-miterlimit="10"/>
<path d="M117.78 124.31C121.386 124.31 124.31 121.386 124.31 117.78C124.31 114.174 121.386 111.25 117.78 111.25C114.174 111.25 111.25 114.174 111.25 117.78C111.25 121.386 114.174 124.31 117.78 124.31Z" stroke="white" stroke-width="4.3" stroke-miterlimit="10"/>
<path d="M44.2199 50.75C47.8264 50.75 50.7499 47.8264 50.7499 44.22C50.7499 40.6136 47.8264 37.69 44.2199 37.69C40.6135 37.69 37.6899 40.6136 37.6899 44.22C37.6899 47.8264 40.6135 50.75 44.2199 50.75Z" stroke="white" stroke-width="4.3" stroke-miterlimit="10"/>
<path d="M80.9999 114.89C99.7168 114.89 114.89 99.7169 114.89 81C114.89 62.2831 99.7168 47.11 80.9999 47.11C62.2829 47.11 47.1099 62.2831 47.1099 81C47.1099 99.7169 62.2829 114.89 80.9999 114.89Z" fill="white" stroke="#008FCA" stroke-opacity="0.78" stroke-width="3.57" stroke-miterlimit="10"/>
<path d="M95.5098 95.64C96.0439 95.6391 96.5708 95.5167 97.0506 95.282C97.5303 95.0473 97.9504 94.7065 98.279 94.2855C98.6076 93.8644 98.836 93.374 98.9471 92.8516C99.0581 92.3292 99.0487 91.7883 98.9198 91.27C97.9371 87.2591 95.6372 83.6938 92.3883 81.1448C89.1394 78.5958 85.1293 77.2104 80.9998 77.2104C76.8702 77.2104 72.8601 78.5958 69.6112 81.1448C66.3623 83.6938 64.0624 87.2591 63.0798 91.27C62.9508 91.7883 62.9414 92.3292 63.0525 92.8516C63.1635 93.374 63.3919 93.8644 63.7205 94.2855C64.0491 94.7065 64.4692 95.0473 64.949 95.282C65.4287 95.5167 65.9556 95.6391 66.4898 95.64H95.5098Z" fill="#008FCA" fill-opacity="0.78"/>
<path d="M81.0001 81.84C86.5948 81.84 91.1301 77.3047 91.1301 71.71C91.1301 66.1154 86.5948 61.58 81.0001 61.58C75.4055 61.58 70.8701 66.1154 70.8701 71.71C70.8701 77.3047 75.4055 81.84 81.0001 81.84Z" fill="#008FCA" fill-opacity="0.78"/>
</g>
<defs>
<clipPath id="clip0_9653_0">
<rect width="162" height="162" fill="white"/>
</clipPath>
</defs>
</svg>
