<svg width="158" height="158" viewBox="0 0 158 158" fill="none" xmlns="http://www.w3.org/2000/svg">
<path d="M137.2 4.51001H20.3798C11.4991 4.51001 4.2998 11.7093 4.2998 20.59V137.41C4.2998 146.291 11.4991 153.49 20.3798 153.49H137.2C146.081 153.49 153.28 146.291 153.28 137.41V20.59C153.28 11.7093 146.081 4.51001 137.2 4.51001Z" fill="#ED9FB2"/>
<path d="M114.21 4.51001C114.21 4.51001 107.21 118.15 4.71973 122.38V137.59C4.71973 141.807 6.3949 145.851 9.37673 148.833C12.3586 151.815 16.4028 153.49 20.6197 153.49H137.92C142.105 153.49 146.119 151.827 149.078 148.868C152.037 145.909 153.7 141.895 153.7 137.71V20.9C153.7 16.5531 151.973 12.3843 148.899 9.31053C145.825 6.23681 141.657 4.51001 137.31 4.51001H114.21Z" fill="#EB92A7"/>
<path d="M109.13 57.14H26.0001C24.649 57.187 23.3718 57.7684 22.4492 58.7566C21.5267 59.7448 21.0342 61.0589 21.0801 62.41V110.82C21.0342 112.171 21.5267 113.485 22.4492 114.473C23.3718 115.462 24.649 116.043 26.0001 116.09H109.16C110.512 116.043 111.79 115.462 112.714 114.474C113.639 113.486 114.133 112.172 114.09 110.82V62.41C114.111 61.7381 114 61.0685 113.762 60.4397C113.524 59.8109 113.165 59.2352 112.704 58.7457C112.243 58.2561 111.69 57.8623 111.077 57.5868C110.464 57.3112 109.802 57.1594 109.13 57.14ZM112.69 83.4H22.4201V67.85H112.69V83.4ZM49.1401 95.1H26.8101C26.5888 95.1166 26.3699 95.0449 26.2013 94.9006C26.0326 94.7564 25.928 94.5512 25.9101 94.33V91.17C25.928 90.9488 26.0326 90.7437 26.2013 90.5994C26.3699 90.4551 26.5888 90.3834 26.8101 90.4H49.1401C49.3614 90.3834 49.5803 90.4551 49.7489 90.5994C49.9175 90.7437 50.0222 90.9488 50.0401 91.17V94.33C50.0222 94.5512 49.9175 94.7564 49.7489 94.9006C49.5803 95.0449 49.3614 95.1166 49.1401 95.1Z" fill="white"/>
<path d="M112.67 53.84C112.817 52.6049 112.469 51.3617 111.703 50.3819C110.937 49.402 109.814 48.7651 108.58 48.61L32.34 41.92C31.098 41.8574 29.8818 42.2894 28.9578 43.1216C28.0337 43.9538 27.4772 45.1183 27.41 46.36L26.71 54.28L112.67 53.84Z" fill="white"/>
<path d="M112.46 110.29C99.8203 108.56 91.5303 97.9999 88.5503 93.4999C87.3917 91.7619 86.7756 89.7188 86.7803 87.6299V54.6299L113.36 49.6899L138.59 54.6899V87.6899C138.594 89.774 137.981 91.8126 136.83 93.5499C133.83 98.0199 125.56 108.62 112.91 110.35H112.69L112.46 110.29Z" fill="white"/>
<path d="M113.35 51.32L137 56V87.63C137.013 89.408 136.494 91.1493 135.51 92.63C132.42 97.27 124.59 107.09 112.74 108.72C100.84 107.05 92.9998 97.24 89.9198 92.59C88.933 91.1099 88.4107 89.3688 88.4198 87.59V56L113.35 51.37V51.32ZM113.35 48.03L112.74 48.14L87.8198 52.73L85.1398 53.23V87.63C85.127 90.0372 85.8225 92.3951 87.1398 94.41C89.5805 98.081 92.5147 101.399 95.8598 104.27C100.46 108.334 106.132 110.99 112.2 111.92L112.65 111.98L113.09 111.92C119.163 110.993 124.841 108.334 129.44 104.26C132.786 101.386 135.72 98.065 138.16 94.39C139.479 92.3833 140.175 90.0313 140.16 87.63V53.25L137.51 52.73L114 48.1L113.38 47.98L113.35 48.03Z" fill="#EB92A7"/>
<path d="M110.62 89.42C110.255 89.8498 109.735 90.1183 109.173 90.1669C108.612 90.2156 108.053 90.0406 107.62 89.68L96.8 80.74C96.3657 80.3793 96.0916 79.8616 96.0373 79.2997C95.983 78.7378 96.1529 78.1772 96.51 77.74L96.85 77.33C97.0271 77.1131 97.2453 76.9333 97.492 76.8008C97.7387 76.6683 98.0091 76.5858 98.2878 76.5579C98.5664 76.53 98.8478 76.5574 99.1159 76.6384C99.384 76.7194 99.6334 76.8525 99.85 77.03L107.07 82.93C107.502 83.2918 108.06 83.4685 108.621 83.4217C109.183 83.3749 109.704 83.1084 110.07 82.68L125.2 65.18C125.572 64.7575 126.095 64.4985 126.657 64.4592C127.218 64.4199 127.773 64.6034 128.2 64.97L128.59 65.31C129.014 65.6806 129.275 66.2033 129.316 66.7648C129.357 67.3264 129.175 67.8816 128.81 68.31L110.62 89.42Z" fill="#EB92A7"/>
</svg>
