<svg width="158" height="158" viewBox="0 0 158 158" fill="none" xmlns="http://www.w3.org/2000/svg">
<path d="M122.871 136.55C134.239 127.522 142.546 115.207 146.659 101.285C150.773 87.3634 150.493 72.5116 145.858 58.7545C141.223 44.9975 132.458 33.0047 120.758 24.4111C109.057 15.8175 94.9918 11.0413 80.4781 10.7335C65.9644 10.4258 51.709 14.6015 39.6552 22.6915C27.6013 30.7814 18.3357 42.3919 13.1215 55.9401C7.90723 69.4883 6.99808 84.3149 10.518 98.3986C14.0379 112.482 21.8155 125.138 32.7906 134.64L35.3206 136.55" fill="#FBE9ED"/>
<path d="M116.349 135.44C126.787 135.44 135.249 127.3 135.249 117.26C135.249 107.219 126.787 99.08 116.349 99.08C105.911 99.08 97.4492 107.219 97.4492 117.26C97.4492 127.3 105.911 135.44 116.349 135.44Z" fill="#EB92A7"/>
<path d="M97.45 135.44C102.669 135.44 106.9 131.37 106.9 126.35C106.9 121.33 102.669 117.26 97.45 117.26C92.2309 117.26 88 121.33 88 126.35C88 131.37 92.2309 135.44 97.45 135.44Z" fill="#EB92A7"/>
<path d="M135.251 135.44C141.663 135.44 146.861 130.439 146.861 124.27C146.861 118.101 141.663 113.1 135.251 113.1C128.839 113.1 123.641 118.101 123.641 124.27C123.641 130.439 128.839 135.44 135.251 135.44Z" fill="#EB92A7"/>
<path d="M76.8594 136.55H157.999C157.999 136.55 125.789 123.78 76.8594 136.55Z" fill="#EB92A7"/>
<path d="M46.0805 135.14C57.4134 135.14 66.6005 126.302 66.6005 115.4C66.6005 104.498 57.4134 95.66 46.0805 95.66C34.7477 95.66 25.5605 104.498 25.5605 115.4C25.5605 126.302 34.7477 135.14 46.0805 135.14Z" fill="#EB92A7"/>
<path d="M66.5998 135.14C72.2663 135.14 76.8598 130.721 76.8598 125.27C76.8598 119.819 72.2663 115.4 66.5998 115.4C60.9334 115.4 56.3398 119.819 56.3398 125.27C56.3398 130.721 60.9334 135.14 66.5998 135.14Z" fill="#EB92A7"/>
<path d="M25.5609 135.15C32.5197 135.15 38.1609 129.719 38.1609 123.02C38.1609 116.321 32.5197 110.89 25.5609 110.89C18.6021 110.89 12.9609 116.321 12.9609 123.02C12.9609 129.719 18.6021 135.15 25.5609 135.15Z" fill="#EB92A7"/>
<path d="M102.52 136.55H0C0 136.55 40.7 120.41 102.52 136.55Z" fill="#EB92A7"/>
<path d="M81.0596 135.39C86.4223 135.39 90.7696 131.258 90.7696 126.16C90.7696 121.062 86.4223 116.93 81.0596 116.93C75.6969 116.93 71.3496 121.062 71.3496 126.16C71.3496 131.258 75.6969 135.39 81.0596 135.39Z" fill="#F3BDCA"/>
<path d="M71.3598 135.39C74.0383 135.39 76.2098 133.326 76.2098 130.78C76.2098 128.234 74.0383 126.17 71.3598 126.17C68.6812 126.17 66.5098 128.234 66.5098 130.78C66.5098 133.326 68.6812 135.39 71.3598 135.39Z" fill="#F3BDCA"/>
<path d="M90.7705 135.39C94.0622 135.39 96.7306 132.852 96.7306 129.72C96.7306 126.589 94.0622 124.05 90.7705 124.05C87.4789 124.05 84.8105 126.589 84.8105 129.72C84.8105 132.852 87.4789 135.39 90.7705 135.39Z" fill="#F3BDCA"/>
<path d="M55 136.38H108.22C108.22 136.38 87.1 128.1 55 136.38Z" fill="#F3BDCA"/>
<path d="M18.0399 93.9C22.5245 93.9 26.1599 90.672 26.1599 86.69C26.1599 82.708 22.5245 79.48 18.0399 79.48C13.5554 79.48 9.91992 82.708 9.91992 86.69C9.91992 90.672 13.5554 93.9 18.0399 93.9Z" fill="#F3BDCA"/>
<path d="M26.1596 93.9099C28.4019 93.9099 30.2196 92.2937 30.2196 90.2999C30.2196 88.3062 28.4019 86.6899 26.1596 86.6899C23.9173 86.6899 22.0996 88.3062 22.0996 90.2999C22.0996 92.2937 23.9173 93.9099 26.1596 93.9099Z" fill="#F3BDCA"/>
<path d="M9.91969 93.9C12.6756 93.9 14.9097 91.9167 14.9097 89.47C14.9097 87.0234 12.6756 85.04 9.91969 85.04C7.16379 85.04 4.92969 87.0234 4.92969 89.47C4.92969 91.9167 7.16379 93.9 9.91969 93.9Z" fill="#F3BDCA"/>
<path d="M40.9996 94.94H0.599609C0.599609 94.94 16.6296 87 40.9996 94.94Z" fill="#F3BDCA"/>
<path d="M24.0906 33.14C27.1006 33.14 29.5406 30.7134 29.5406 27.72C29.5406 24.7267 27.1006 22.3 24.0906 22.3C21.0807 22.3 18.6406 24.7267 18.6406 27.72C18.6406 30.7134 21.0807 33.14 24.0906 33.14Z" fill="#F3BDCA"/>
<path d="M29.5403 33.14C31.0425 33.14 32.2603 31.9267 32.2603 30.43C32.2603 28.9333 31.0425 27.72 29.5403 27.72C28.0381 27.72 26.8203 28.9333 26.8203 30.43C26.8203 31.9267 28.0381 33.14 29.5403 33.14Z" fill="#F3BDCA"/>
<path d="M18.6391 33.14C20.4892 33.14 21.9891 31.6491 21.9891 29.81C21.9891 27.9709 20.4892 26.48 18.6391 26.48C16.7889 26.48 15.2891 27.9709 15.2891 29.81C15.2891 31.6491 16.7889 33.14 18.6391 33.14Z" fill="#F3BDCA"/>
<path d="M38 33.53H11C11 33.53 21.7 27.56 38 33.53Z" fill="#F3BDCA"/>
<path d="M128.25 60.52C134.243 60.52 139.1 55.6936 139.1 49.74C139.1 43.7863 134.243 38.96 128.25 38.96C122.258 38.96 117.4 43.7863 117.4 49.74C117.4 55.6936 122.258 60.52 128.25 60.52Z" fill="#F3BDCA"/>
<path d="M117.4 60.52C120.394 60.52 122.82 58.1068 122.82 55.13C122.82 52.1532 120.394 49.74 117.4 49.74C114.407 49.74 111.98 52.1532 111.98 55.13C111.98 58.1068 114.407 60.52 117.4 60.52Z" fill="#F3BDCA"/>
<path d="M139.099 60.52C142.778 60.52 145.759 57.5562 145.759 53.9C145.759 50.2439 142.778 47.28 139.099 47.28C135.421 47.28 132.439 50.2439 132.439 53.9C132.439 57.5562 135.421 60.52 139.099 60.52Z" fill="#F3BDCA"/>
<path d="M98.5098 61.37H158C158 61.37 134.38 51.69 98.5098 61.37Z" fill="#F3BDCA"/>
<path d="M78.9994 26.48L43.3594 33.24V80.72C43.3536 83.3612 44.1182 85.9467 45.5594 88.16C50.1094 95.16 71.2494 112.26 78.9994 112.26C87.1694 112.26 107.919 95.11 112.449 88.14C113.886 85.9325 114.647 83.3538 114.639 80.72V33.24L78.9994 26.48Z" fill="#D7244F"/>
<path d="M79.0004 34.35L49.9004 39.87V78.64C49.8961 80.7955 50.5217 82.9053 51.7004 84.71C55.4104 90.41 72.7004 104.39 79.0004 104.39C85.6704 104.39 102.61 90.39 106.32 84.7C107.489 82.8952 108.107 80.7898 108.1 78.64V39.87L79.0004 34.35Z" fill="#DF4E71" stroke="#C83256" stroke-width="1.99" stroke-miterlimit="10"/>
<path opacity="0.1" d="M79 26.48V112.26C79 112.26 90.32 111.75 111.51 89.45C113.29 87.57 114.64 83.24 114.64 80.66V33.24L79 26.48Z" fill="#231F20"/>
<path d="M62.0293 68.3899L74.0593 76.8999L95.9693 56.5699" stroke="white" stroke-width="5.98" stroke-linecap="round" stroke-linejoin="round"/>
<path d="M29.9798 145.26C34.7957 145.26 38.6998 141.49 38.6998 136.84C38.6998 132.19 34.7957 128.42 29.9798 128.42C25.1638 128.42 21.2598 132.19 21.2598 136.84C21.2598 141.49 25.1638 145.26 29.9798 145.26Z" fill="#F3BDCA"/>
<path d="M35.7804 145.26C37.7852 145.26 39.4104 143.689 39.4104 141.75C39.4104 139.811 37.7852 138.24 35.7804 138.24C33.7756 138.24 32.1504 139.811 32.1504 141.75C32.1504 143.689 33.7756 145.26 35.7804 145.26Z" fill="#F3BDCA"/>
<path d="M21.2608 145.26C23.724 145.26 25.7208 143.33 25.7208 140.95C25.7208 138.57 23.724 136.64 21.2608 136.64C18.7976 136.64 16.8008 138.57 16.8008 140.95C16.8008 143.33 18.7976 145.26 21.2608 145.26Z" fill="#F3BDCA"/>
<path d="M48.4191 145.8H8.61914C8.61914 145.8 24.4191 139.51 48.4191 145.8Z" fill="#F3BDCA"/>
<path d="M39.6098 145.28C43.4869 145.28 46.6298 142.24 46.6298 138.49C46.6298 134.74 43.4869 131.7 39.6098 131.7C35.7328 131.7 32.5898 134.74 32.5898 138.49C32.5898 142.24 35.7328 145.28 39.6098 145.28Z" fill="#F3BDCA"/>
<path d="M46.6409 145.27C48.5794 145.27 50.1509 143.752 50.1509 141.88C50.1509 140.008 48.5794 138.49 46.6409 138.49C44.7023 138.49 43.1309 140.008 43.1309 141.88C43.1309 143.752 44.7023 145.27 46.6409 145.27Z" fill="#F3BDCA"/>
<path d="M32.5895 145.28C34.9754 145.28 36.9095 143.413 36.9095 141.11C36.9095 138.807 34.9754 136.94 32.5895 136.94C30.2037 136.94 28.2695 138.807 28.2695 141.11C28.2695 143.413 30.2037 145.28 32.5895 145.28Z" fill="#F3BDCA"/>
<path d="M58.8796 145.8H20.3496C20.3496 145.8 35.6496 139.72 58.8796 145.8Z" fill="#F3BDCA"/>
<path d="M38.5 88.16C37.7183 87.5884 36.7783 87.2739 35.81 87.26C32.19 85.17 30.12 89.41 29.81 90.89C29.7393 91.7991 29.4709 92.6818 29.0236 93.4764C28.5762 94.271 27.9607 94.9582 27.22 95.49C21.22 99.87 31.02 102.49 31.02 102.49C32.14 98.12 37.47 99.71 37.13 100.1C43.51 103.27 40.88 90.21 38.5 88.16Z" fill="#1E1C1F"/>
<path d="M51.3594 105.94L54.2594 104.47C54.2594 104.47 54.6494 103.12 55.0594 102.89C55.4694 102.66 55.2294 103.89 55.2294 103.89C55.7716 103.695 56.2808 103.419 56.7394 103.07C57.4194 102.4 59.7394 104.53 58.5094 105.84C58.1028 106.231 57.6155 106.529 57.0817 106.712C56.5479 106.895 55.9806 106.959 55.4194 106.9L52.7194 108.76L51.3594 105.94Z" fill="#F2AA91"/>
<path d="M25.8308 116.53H33.6608L30.4008 128.82C30.126 129.832 29.4648 130.696 28.5596 131.225C27.6543 131.754 26.5775 131.907 25.5608 131.65L14.0508 128.65L16.7208 125.02L23.0008 125.72C23.2095 125.807 23.4357 125.844 23.6613 125.828C23.8868 125.812 24.1055 125.743 24.2998 125.628C24.4942 125.512 24.6588 125.353 24.7805 125.162C24.9022 124.971 24.9776 124.755 25.0008 124.53L25.8308 116.53Z" fill="#6C6D6D"/>
<path d="M31.7809 116.53H39.5909L35.6809 144.1L31.2109 143.22L31.7809 116.53Z" fill="#6C6D6D"/>
<g opacity="0.2">
<path opacity="0.2" d="M28.2193 147.23C35.9181 147.23 42.1593 146.836 42.1593 146.35C42.1593 145.864 35.9181 145.47 28.2193 145.47C20.5204 145.47 14.2793 145.864 14.2793 146.35C14.2793 146.836 20.5204 147.23 28.2193 147.23Z" fill="#727272"/>
</g>
<path d="M40.4903 118.84L24.5803 118.34C24.5803 118.34 26.0803 105.6 25.9703 104.16C25.9703 104.16 20.2203 104.81 14.5703 95.6L17.6803 93.25C17.6803 93.25 22.6803 99.25 28.0803 98.25C32.2803 97.45 37.1503 98.25 39.5803 98.81C40.5307 99.0252 41.3699 99.5799 41.9403 100.37C43.9403 103.16 48.1003 108 51.9403 105.29L53.7203 108.77C53.7203 108.77 45.2703 112.94 40.6503 106.6L40.4903 118.84Z" fill="#DB284E"/>
<path d="M17.2804 93.5501L15.3704 90.93C15.3704 90.93 15.7804 89.4701 15.3704 89.1601C14.9604 88.8501 14.8304 90.1 14.8304 90.1C14.4405 89.6114 14.1052 89.0816 13.8304 88.52C13.4604 87.58 10.4504 88.45 10.9904 90.2C11.1782 90.7292 11.4783 91.2115 11.8702 91.6137C12.262 92.0159 12.7363 92.3285 13.2604 92.53L14.8304 95.42L17.2804 93.5501Z" fill="#F2AA91"/>
<path d="M38.6409 90.42C38.6409 90.42 39.2609 95.48 37.9609 97.31C37.8282 97.5085 37.6519 97.6741 37.4455 97.7943C37.2391 97.9144 37.008 97.9859 36.7699 98.0032C36.5317 98.0206 36.2927 97.9834 36.0711 97.8944C35.8494 97.8055 35.651 97.6672 35.4909 97.49L35.6009 98.8C35.0831 99.0664 34.5065 99.1979 33.9244 99.1821C33.3423 99.1664 32.7736 99.004 32.2709 98.71C32.2709 98.71 32.8509 98.12 32.8609 94.71C32.8609 94.71 31.1509 93.64 32.4709 92.33C33.7909 91.02 33.4709 93.09 33.4709 93.09C33.4709 93.09 34.5309 86.42 38.6409 90.42Z" fill="#F2AA91"/>
<path d="M15.7907 124.07L14.3207 123.7L13.9007 124.62L14.7707 124.92L13.6507 125.14L11.4707 129.89C11.9112 129.969 12.365 129.926 12.7828 129.766C13.2006 129.605 13.5665 129.334 13.8407 128.98L16.3607 125.71C16.4765 125.577 16.5551 125.416 16.5886 125.243C16.6221 125.07 16.6093 124.891 16.5514 124.725C16.4936 124.558 16.3927 124.41 16.2591 124.295C16.1255 124.18 15.9639 124.102 15.7907 124.07Z" fill="#DB284E"/>
<path d="M30.7608 144.45L31.0408 145.94H32.0408L32.0008 145L32.6608 145.92H37.8908C37.7667 145.484 37.5245 145.091 37.191 144.784C36.8575 144.477 36.4456 144.268 36.0008 144.18L32.0008 143.25C31.8328 143.203 31.6554 143.201 31.4863 143.244C31.3173 143.287 31.1624 143.373 31.037 143.495C30.9116 143.616 30.8202 143.768 30.7718 143.936C30.7233 144.103 30.7195 144.28 30.7608 144.45Z" fill="#DB284E"/>
<path d="M124.56 145.18C129.575 145.18 133.64 140.895 133.64 135.61C133.64 130.325 129.575 126.04 124.56 126.04C119.546 126.04 115.48 130.325 115.48 135.61C115.48 140.895 119.546 145.18 124.56 145.18Z" fill="#F3BDCA"/>
<path d="M115.689 145.19C118.169 145.19 120.179 143.404 120.179 141.2C120.179 138.996 118.169 137.21 115.689 137.21C113.209 137.21 111.199 138.996 111.199 141.2C111.199 143.404 113.209 145.19 115.689 145.19Z" fill="#F3BDCA"/>
<path d="M133.641 145.18C136.684 145.18 139.151 142.986 139.151 140.28C139.151 137.574 136.684 135.38 133.641 135.38C130.598 135.38 128.131 137.574 128.131 140.28C128.131 142.986 130.598 145.18 133.641 145.18Z" fill="#F3BDCA"/>
<path d="M100.061 145.8H149.271C149.271 145.8 129.741 138.65 100.061 145.8Z" fill="#F3BDCA"/>
<path d="M114.129 144.81C118.923 144.81 122.809 141.358 122.809 137.1C122.809 132.842 118.923 129.39 114.129 129.39C109.335 129.39 105.449 132.842 105.449 137.1C105.449 141.358 109.335 144.81 114.129 144.81Z" fill="#F3BDCA"/>
<path d="M105.44 144.81C107.837 144.81 109.78 143.082 109.78 140.95C109.78 138.818 107.837 137.09 105.44 137.09C103.043 137.09 101.1 138.818 101.1 140.95C101.1 143.082 103.043 144.81 105.44 144.81Z" fill="#F3BDCA"/>
<path d="M122.81 144.81C125.754 144.81 128.14 142.688 128.14 140.07C128.14 137.452 125.754 135.33 122.81 135.33C119.867 135.33 117.48 137.452 117.48 140.07C117.48 142.688 119.867 144.81 122.81 144.81Z" fill="#F3BDCA"/>
<path d="M90.8105 145.64H138.431C138.431 145.64 119.531 138.72 90.8105 145.64Z" fill="#F3BDCA"/>
<path d="M28 43.92C28 43.92 27.89 57.24 37.21 57.24C37.21 57.24 28 59.35 28 69.24C28 69.24 27.37 57.73 19.34 57.73C19.3 57.71 27.74 58.36 28 43.92Z" fill="#F3BDCA"/>
<path d="M126.87 71.51C126.87 71.51 126.8 79.9 132.67 79.9C130.998 80.3275 129.517 81.3039 128.466 82.6728C127.414 84.0417 126.852 85.7239 126.87 87.45C126.87 87.45 126.47 80.19 121.41 80.19C121.41 80.19 126.73 80.61 126.87 71.51Z" fill="#F3BDCA"/>
<g opacity="0.2">
<path opacity="0.2" d="M122.62 147.23C130.319 147.23 136.56 146.836 136.56 146.35C136.56 145.864 130.319 145.47 122.62 145.47C114.921 145.47 108.68 145.864 108.68 146.35C108.68 146.836 114.921 147.23 122.62 147.23Z" fill="#727272"/>
</g>
<path d="M113.659 93.8C113.659 93.8 112.049 90.65 114.659 89.54C117.269 88.43 119.429 89.67 120.869 92.49C120.869 92.49 125.569 93.77 119.789 100.41L113.659 93.8Z" fill="#221F20"/>
<path d="M114.08 116.94H125.73L127.35 126.72C127.787 129.417 128.608 132.037 129.79 134.5L134.06 143.91H128.79L124.28 137.24C122.985 135.329 121.975 133.241 121.28 131.04L118.68 124.24L117.13 127.24C115.758 130.485 115.295 134.042 115.79 137.53L117.51 143.88H112.8L110.71 138.05C109.182 133.723 109.268 128.99 110.95 124.72L114.08 116.94Z" fill="#6C6D6D"/>
<path d="M111.91 121.09L127.27 120.61C127.27 120.61 125.82 109.19 125.93 107.8C125.93 107.8 131.81 108.18 136.93 98.66L133.93 96.39C133.93 96.39 129.08 102.21 123.93 101.21C120.217 100.663 116.43 100.946 112.84 102.04C112.482 102.156 112.144 102.328 111.84 102.55C110.84 103.26 107.43 104.72 102.11 101.95L100.34 104.16C100.34 104.16 105.59 108.74 111.78 108.39L111.91 121.09Z" fill="#DB284E"/>
<path d="M110.289 146.35H117.569L116.959 143.94H112.119C111.879 143.939 111.641 143.985 111.42 144.076C111.198 144.166 110.996 144.3 110.826 144.469C110.656 144.639 110.521 144.84 110.429 145.061C110.336 145.283 110.289 145.52 110.289 145.76V146.35Z" fill="#DB284E"/>
<path d="M127 146.35H134.28L133.67 143.94H128.83C128.59 143.939 128.352 143.985 128.13 144.076C127.908 144.166 127.707 144.3 127.537 144.469C127.367 144.639 127.232 144.84 127.139 145.061C127.047 145.283 127 145.52 127 145.76V146.35Z" fill="#DB284E"/>
<path d="M134.32 96.6799L136.16 94.1399C136.16 94.1399 135.76 92.7299 136.16 92.4299C136.56 92.1299 136.68 93.3499 136.68 93.3499C137.066 92.8763 137.401 92.3635 137.68 91.8199C138.03 90.9099 140.94 91.7499 140.42 93.4399C140.24 93.9525 139.951 94.4199 139.573 94.8101C139.195 95.2002 138.737 95.5038 138.23 95.6999L136.71 98.4799L134.32 96.6799Z" fill="#F2AA91"/>
<path d="M101.841 102.24L100.451 101.24C100.451 101.24 100.201 100.11 99.8805 99.89C99.5605 99.67 99.6805 100.68 99.6805 100.68C99.2448 100.489 98.843 100.229 98.4905 99.91C97.9705 99.32 95.9005 100.91 96.8705 102.1C97.1869 102.436 97.5725 102.7 98.0007 102.872C98.4288 103.045 98.8894 103.123 99.3505 103.1L100.471 103.95" fill="#F2AA91"/>
<path d="M113.701 93.66C113.701 93.66 113.101 98.54 114.351 100.3C114.479 100.492 114.649 100.653 114.848 100.77C115.048 100.886 115.271 100.956 115.502 100.973C115.732 100.991 115.963 100.955 116.178 100.87C116.393 100.784 116.585 100.651 116.741 100.48L116.631 101.75C117.131 102.005 117.687 102.13 118.248 102.113C118.81 102.095 119.357 101.936 119.841 101.65C119.841 101.65 119.291 101.09 119.271 97.76C119.271 97.76 120.931 96.76 119.661 95.46C118.391 94.16 118.661 96.19 118.661 96.19C118.661 96.19 117.661 89.79 113.701 93.66Z" fill="#F2AA91"/>
</svg>
