<svg width="935" height="140" fill="none" xmlns="http://www.w3.org/2000/svg"><g clip-path="url(#a)"><path d="M934.18 0H0v140h934.18V0Z" fill="#DB284E"/><path d="m173.312 29.46-10.86-.726a.712.712 0 0 0-.758.663l-.321 4.812a.712.712 0 0 0 .663.757l10.86.725a.712.712 0 0 0 .758-.662l.321-4.813a.712.712 0 0 0-.663-.757Z" fill="url(#b)"/><path d="m177.333 34.386-2.759 41.379a1.31 1.31 0 0 1-1.392 1.219l-16.908-1.128a1.311 1.311 0 0 1-1.219-1.394l2.76-41.378a1.308 1.308 0 0 1 1.393-1.219l16.908 1.128a1.307 1.307 0 0 1 1.218 1.392l-.001.002Z" fill="url(#c)"/><path d="m175.32 64.577-.746 11.188a1.31 1.31 0 0 1-1.392 1.219l-16.908-1.128a1.311 1.311 0 0 1-1.219-1.394l1.9-28.49a37.47 37.47 0 0 0 2.181 3.797 38.838 38.838 0 0 0 2.774 3.736c3.167 3.765 6.949 6.93 11.074 9.62.768.498 1.545.98 2.337 1.451l-.001.001Z" fill="#CE679B" style="mix-blend-mode:multiply" opacity=".16"/><path d="m170.637 25.3-4.983-.333-.264 3.963 4.983.333.264-3.963Z" fill="#3A2738"/><path d="m176.737 24.28-14.265-.952a.37.37 0 0 0-.394.345l-.139 2.078a.37.37 0 0 0 .345.394l11.447.764a2.824 2.824 0 0 0 3.006-2.63Z" fill="url(#d)"/><path opacity=".78" d="m174.651 38.124-2.074 31.106a.984.984 0 0 1-1.048.916l-12.711-.848a.983.983 0 0 1-.916-1.047l2.075-31.106a.984.984 0 0 1 1.047-.917l12.711.848a.985.985 0 0 1 .916 1.048Z" fill="#fff" fill-opacity=".5"/><g opacity=".17" fill="#fff"><path d="m157.031 44.832 2.586-2.289-.325 4.883-2.587 2.288.326-4.882ZM175.638 32.962l-4.458 3.944-4.827-.322 4.458-3.944 4.827.322ZM156.59 51.44l2.587-2.288-.15 2.248-2.586 2.289.149-2.249ZM177.333 34.386l-.057.867-2.709 2.398a.989.989 0 0 0-.832-.575l-.846-.056 4.09-3.62c.242.256.38.608.355.986h-.001ZM176.719 43.592l-.325 4.88-2.585 2.289.326-4.882 2.584-2.287ZM176.278 50.2l-.149 2.248-2.585 2.288.149-2.249 2.585-2.287Z"/></g><path d="m161.284 58.686-1.378 13.959a.968.968 0 0 1-1.057.867l-16.548-1.635a.967.967 0 0 1-.867-1.057l1.379-13.958a10.246 10.246 0 0 1 .095-.687 8.85 8.85 0 0 1 1.096-2.966 8.94 8.94 0 0 1 2.702-2.863l.464-4.692 12.034 1.188-.463 4.691a8.886 8.886 0 0 1 2.584 6.46c0 .074-.003.146-.006.22a9.585 9.585 0 0 1-.035.473Z" fill="url(#e)"/><path d="m159.204 46.844-12.035-1.19-.464 4.692 12.035 1.19.464-4.692Z" fill="#D166B5" style="mix-blend-mode:multiply" opacity=".16"/><path opacity=".51" d="m161.306 58.469-1.004 10.163-18.471-1.825 1.004-10.163c.016-.159.036-.315.059-.47l18.446 1.822a9.57 9.57 0 0 1-.034.473Z" fill="#fff"/><path d="M152.184 59.894a.474.474 0 0 0-.801-.067l-1.501 2.186a1.69 1.69 0 0 0-.135 1.678c.432.917 1.581 1.348 2.567.964.986-.385 1.435-1.44 1.003-2.356l-1.133-2.405Z" fill="url(#f)"/><path d="M152.049 57.776a4.45 4.45 0 0 0-4.861 3.987 4.45 4.45 0 0 0 3.986 4.86 4.45 4.45 0 0 0 4.861-3.987 4.448 4.448 0 0 0-3.986-4.86Zm-.81 8.197a3.797 3.797 0 0 1-3.401-4.146 3.797 3.797 0 0 1 4.147-3.401 3.798 3.798 0 0 1 3.401 4.146 3.797 3.797 0 0 1-4.147 3.401Z" fill="url(#g)"/><path d="m161.349 45-.401 4.07a.59.59 0 0 1-.646.53l-14.747-1.456a.59.59 0 0 1-.53-.646l.402-4.072a.593.593 0 0 1 .647-.53l4.155.41.41-4.144a3.233 3.233 0 1 1 6.435.636l-.409 4.144 4.155.41a.592.592 0 0 1 .53.646l-.001.001Z" fill="#47333F"/><path d="m160.303 68.624-.397 4.02a.967.967 0 0 1-1.056.867l-16.549-1.634a.967.967 0 0 1-.867-1.057l1.401-14.176c.016-.159.036-.315.059-.47h.015a8.87 8.87 0 0 1 1.096-2.966c.122 1.07.362 2.123.705 3.144a17.215 17.215 0 0 0 3.123 5.558c.665.8 1.401 1.54 2.195 2.207l.001.001c.163.138.326.271.494.401l.027.022a18.886 18.886 0 0 0 2.74 1.775c2.173 1.163 4.56 1.924 7.015 2.308h-.002Z" fill="#D166B5" style="mix-blend-mode:multiply" opacity=".15"/><path opacity=".5" d="M158.504 53.944a.88.88 0 1 1-1.75-.173.88.88 0 0 1 1.75.172Z" fill="#fff"/><path d="m97.303 23.675 3.375-.533a.907.907 0 0 1 1.038.754l.534 3.376a.909.909 0 0 1-.755 1.038l-3.375.533a.908.908 0 0 1-1.038-.755l-.534-3.375a.908.908 0 0 1 .755-1.038Z" fill="#47333F"/><path d="m97.303 23.675 3.375-.533a.907.907 0 0 1 1.038.754l.534 3.376a.909.909 0 0 1-.755 1.038l-3.375.533a.908.908 0 0 1-1.038-.755l-.534-3.375a.908.908 0 0 1 .755-1.038Z" fill="#D166B5" style="mix-blend-mode:multiply" opacity=".39"/><path d="M100.282 26.387a.981.981 0 1 0-1.787-.81.981.981 0 0 0 1.787.81Z" fill="#56404E"/><path d="m108.315 29.098.423 2.673-16.8 2.655-.422-2.673a.608.608 0 0 1 .506-.697l15.597-2.465a.607.607 0 0 1 .696.507Z" fill="#47333F"/><path d="m108.491 30.197-16.8 2.655.249 1.571 16.799-2.655-.248-1.571Z" fill="#D166B5" style="mix-blend-mode:multiply" opacity=".39"/><path d="m106.552 27.618.176 1.114-13.814 2.183-.176-1.114a1.43 1.43 0 0 1 1.191-1.638l10.986-1.736a1.43 1.43 0 0 1 1.637 1.191Z" fill="#47333F"/><path d="m106.552 27.618.175 1.114-13.813 2.183-.176-1.114c-.003-.018-.006-.037-.006-.055l13.809-2.182a.25.25 0 0 1 .011.054Z" fill="#D166B5" style="mix-blend-mode:multiply" opacity=".39"/><path d="m111.683 33.498 8.661 54.811a2.166 2.166 0 0 1-1.801 2.477l-17.379 2.746a2.165 2.165 0 0 1-2.476-1.8L90.027 36.92a2.166 2.166 0 0 1 1.8-2.477l17.379-2.746a2.166 2.166 0 0 1 2.477 1.8Z" fill="url(#h)"/><path opacity=".9" d="M113.681 46.128 92.024 49.55l4.669 29.545 21.657-3.422-4.669-29.545ZM112.995 41.783l-21.657 3.423.444 2.807 21.656-3.422-.443-2.808Z" fill="#fff"/><path opacity=".3" d="M934 129.94a130.094 130.094 0 0 1-91.838-38.102A130.095 130.095 0 0 1 804.06 0h60A70 70 0 0 0 934 69.94v60Z" fill="#FBE9ED"/><g opacity=".3" fill="#DB284E"><path opacity=".3" d="M528.46 32.8h-9.25l-35.58 35.59v9.24l44.83-44.83ZM483.63 41.99l9.18-9.19h-9.18v9.19ZM510.63 32.8h-9.24l-17.76 17.77v9.24l27-27.01ZM532.75 72.74l-9.18 9.18h9.18v-9.18ZM532.75 64.16v-9.24l-27.01 27h9.25l17.76-17.76ZM532.75 46.34v-9.25l-44.83 44.83h9.24l35.59-35.58Z"/></g><path d="M187.9 125.01c8.003 0 14.49-6.268 14.49-14s-6.487-14-14.49-14-14.49 6.268-14.49 14 6.487 14 14.49 14Z" fill="#F3BDCA"/><path d="M178.26 125.01c3.33 0 6.03-2.61 6.03-5.83s-2.7-5.83-6.03-5.83-6.03 2.61-6.03 5.83 2.7 5.83 6.03 5.83Z" fill="#DB284E"/><path d="M202.4 125.01c4.092 0 7.41-3.206 7.41-7.16s-3.318-7.16-7.41-7.16c-4.092 0-7.41 3.206-7.41 7.16s3.318 7.16 7.41 7.16Z" fill="#F3BDCA"/><path d="M157.24 125.92h66.18s-26.27-10.46-66.18 0Z" fill="#F3BDCA"/><path d="M168.31 125.04c6.451 0 11.68-5.05 11.68-11.28 0-6.23-5.229-11.28-11.68-11.28s-11.68 5.05-11.68 11.28c0 6.23 5.229 11.28 11.68 11.28Z" fill="#DB284E"/><path d="M156.63 125.04c3.225 0 5.84-2.525 5.84-5.64 0-3.115-2.615-5.64-5.84-5.64-3.225 0-5.84 2.525-5.84 5.64 0 3.115 2.615 5.64 5.84 5.64ZM179.99 125.04c3.965 0 7.18-3.103 7.18-6.93 0-3.827-3.215-6.93-7.18-6.93s-7.18 3.103-7.18 6.93c0 3.827 3.215 6.93 7.18 6.93Z" fill="#DB284E"/><path d="M136.29 125.92h64.05s-25.43-10.12-64.05 0Z" fill="#DB284E"/><path d="M68.93 123.44c8.781 0 15.9-6.85 15.9-15.3 0-8.45-7.119-15.3-15.9-15.3s-15.9 6.85-15.9 15.3c0 8.45 7.119 15.3 15.9 15.3Z" fill="#F3BDCA"/><path d="M84.83 123.44c4.39 0 7.95-3.425 7.95-7.65 0-4.225-3.56-7.65-7.95-7.65-4.39 0-7.95 3.425-7.95 7.65 0 4.225 3.56 7.65 7.95 7.65Z" fill="#DB284E"/><path d="M53.02 123.44c5.396 0 9.77-4.209 9.77-9.4 0-5.191-4.374-9.4-9.77-9.4s-9.77 4.209-9.77 9.4c0 5.191 4.374 9.4 9.77 9.4Z" fill="#F3BDCA"/><path d="M112.53 124.64H25.32s34.62-13.73 87.21 0Z" fill="#F3BDCA"/><path d="M80 74a13.77 13.77 0 0 1 15 .68c7.57 5.43 13.13 2.56 13.13 2.56l3.11 6.6-21.78 10.23L80 74Z" fill="#A9EDFF"/><path d="M108.09 77.21a10.002 10.002 0 0 0 11.3-2l1.82 3.86-10 4.73-3.12-6.59Z" fill="#88D1E2"/><path d="M131.238 61.168a109.816 109.816 0 0 1-.428 3.578 107.098 107.098 0 0 1-.644 4.166c-.388 2.172-.83 4.337-1.429 6.49a1.451 1.451 0 0 1-1.543 1.059l-17.764-1.806a1.457 1.457 0 0 1-1.301-1.348c-.008-.115-.016-.23-.022-.346-.127-2.111-.123-4.207-.072-6.298a112.73 112.73 0 0 1 .51-7.8 99.926 99.926 0 0 1 1.049-7.744c.388-2.178.828-4.35 1.445-6.504a1.45 1.45 0 0 1 1.541-1.045l17.783 1.807c.698.07 1.246.634 1.3 1.333.169 2.233.164 4.45.107 6.661l-.002.076a99.897 99.897 0 0 1-.53 7.721Z" fill="url(#i)"/><g opacity=".17" fill="#fff"><path d="m124.552 44.788-15.911 13.124c.233-2.187.531-4.37.909-6.542l8.751-7.217 6.252.635h-.001ZM112.667 56.638a9.836 9.836 0 0 0-.611 3.173l-3.848 3.173c.06-.95.132-1.9.217-2.848l4.241-3.498h.001ZM129.644 45.305l-7.391 6.096a7.133 7.133 0 0 0-2.861-.308l7.373-6.08 2.88.294-.001-.002ZM119.014 68.636c.456.046.908.047 1.351.006l-7.689 6.343-3.246-.33a1.456 1.456 0 0 1-1.301-1.35c-.008-.114-.016-.23-.022-.345l7.137-5.886a7.166 7.166 0 0 0 3.771 1.56l-.001.002ZM127.167 63.034a9.869 9.869 0 0 0 .237-5.988l4.362-3.598c-.06 2.04-.185 4.07-.37 6.098l-4.229 3.488ZM131.172 61.78c-.107.99-.228 1.98-.362 2.967l-13.043 10.757-2.88-.293 16.285-13.43Z"/></g><path d="m129.921 43.215-.212 2.097-16.476-1.675.212-2.097a1.43 1.43 0 0 1 1.565-1.28l13.634 1.386c.784.08 1.358.782 1.279 1.569h-.002Z" fill="#47333F"/><path d="m113.401 41.865-.179 1.76 16.477 1.675.179-1.761-16.477-1.674Z" fill="#D166B5" style="mix-blend-mode:multiply" opacity=".18"/><path d="m122.917 33.807-3.987-.406-3.944-.401-.227 2.224 1.325.135a2.634 2.634 0 0 1 2.354 2.886l-.416 4.1 7.524.764.744-7.321A1.631 1.631 0 0 0 124.831 34l-1.913-.195-.001.002Z" fill="#47333F"/><path d="m125.643 76.305-16.215-1.648a1.457 1.457 0 0 1-1.301-1.349c-.151-2.229-.147-4.44-.093-6.644.079-2.61.252-5.21.51-7.802.253-2.59.595-5.172 1.048-7.745.388-2.176.829-4.348 1.446-6.502a1.452 1.452 0 0 1 1.542-1.045l2.137.218c-.167.77-1.005 4.985-.665 10.368.272 4.418 1.34 9.623 4.217 14.363 1.726 2.855 4.113 5.542 7.375 7.786h-.001Z" fill="#D166B5" style="mix-blend-mode:multiply" opacity=".19"/><path d="M127.708 60.66a9.823 9.823 0 0 1-.541 2.374c-1.136 3.123-3.779 5.336-6.802 5.61-.443.04-.895.04-1.351-.007a7.163 7.163 0 0 1-3.771-1.56c-2.018-1.618-3.269-4.3-3.187-7.265a9.85 9.85 0 0 1 .611-3.173c1.142-3.072 3.744-5.251 6.725-5.546a7.047 7.047 0 0 1 2.86.308c2.487.804 4.395 2.95 5.152 5.645a9.68 9.68 0 0 1 .304 3.614Z" fill="#fff" fill-opacity=".26"/><path d="M153.241 55.589h-21.678c-.111-1.331.612-2.704 1.696-3.528 1.262-.961 2.907-1.278 4.493-1.278 1.585.002 3.154.293 4.734.423 1.58.132 3.221.093 4.68-.528.725-.31 1.405-.775 1.853-1.425.446-.652.634-1.505.381-2.253 0 0 .958.465 1.945 1.467 1.329 1.347 2.714 3.663 1.897 7.122h-.001Z" fill="url(#j)"/><path d="M153.24 55.589h-16.227c.547-1.026 1.662-1.723 2.809-2.008 1.364-.339 2.793-.203 4.195-.117 1.404.086 2.857.115 4.158-.417a5.156 5.156 0 0 0 2.699-2.57c.294-.629.45-1.317.47-2.012 1.329 1.347 2.714 3.663 1.896 7.122v.002Z" fill="#D166B5" style="mix-blend-mode:multiply" opacity=".28"/><path d="M154.935 59.56v13.004c0 .89-.725 1.61-1.615 1.61h-21.705c-.889 0-1.615-.72-1.615-1.61V59.56c0-.137.018-.265.05-.392a1.61 1.61 0 0 1 1.564-1.223h21.714a1.615 1.615 0 0 1 1.605 1.615h.002Z" fill="url(#k)"/><path opacity=".25" d="M154.933 61.221h-24.931v9.68h24.931v-9.68Z" fill="#fff"/><path d="M154.935 59.56v14.614h-9.681V60.901c0-.958-.776-1.734-1.734-1.734h-13.469a1.61 1.61 0 0 1 1.564-1.222h21.714a1.615 1.615 0 0 1 1.605 1.614l.001.001Z" fill="#D166B5" style="mix-blend-mode:multiply" opacity=".16"/><path d="M154.933 55.589a2.352 2.352 0 0 1-2.356 2.357h-20.219a2.358 2.358 0 0 1-2.357-2.357H154.933Z" fill="#EB557B"/><path d="m105.741 57.18 2.78 11.527a1.473 1.473 0 0 1-1.088 1.774l-19.241 4.64a1.472 1.472 0 0 1-1.777-1.083l-2.78-11.527a1.469 1.469 0 0 1 1.087-1.777l19.25-4.642a1.47 1.47 0 0 1 1.768 1.088h.001Z" fill="url(#l)"/><path d="m104.343 51.38.816 3.385a1.011 1.011 0 0 1-.746 1.22l-20.138 4.856a1.012 1.012 0 0 1-1.22-.746l-.817-3.385c-.13-.543.204-1.09.746-1.22l20.139-4.856a1.012 1.012 0 0 1 1.22.746Z" fill="url(#m)"/><path opacity=".51" d="m106.095 58.653-22.102 5.33 2.07 8.58 22.101-5.329-2.069-8.58Z" fill="#fff"/><path d="m105.741 57.18 3.124 12.955-8.582 2.07-2.838-11.766a1.58 1.58 0 0 0-1.907-1.166l-11.94 2.88a1.469 1.469 0 0 1 1.127-1.42l19.249-4.641a1.47 1.47 0 0 1 1.768 1.088h-.001Z" fill="#D166B5" style="mix-blend-mode:multiply" opacity=".16"/><path d="M67.91 37.08 48.08 25.57l5.18-5.39 14.65 16.9ZM69.88 34.26l-8.72-14.54 5.28-1.63 3.44 16.17ZM65.52 40.01l-13.01-.42 1.15-4.08 11.86 4.5Z" fill="#EB92A7"/><path d="M185.67 84.25H161.8l-8.59-14h23.25a4.768 4.768 0 0 1 4 2.28l6.14 10a1.15 1.15 0 0 1-.93 1.72Z" fill="#E0AC69"/><path d="m159.502 70.193-83.11-.117a2.25 2.25 0 0 0-2.253 2.247l-.077 54.98a2.25 2.25 0 0 0 2.247 2.253l83.11.117a2.25 2.25 0 0 0 2.253-2.247l.077-54.98a2.25 2.25 0 0 0-2.247-2.253Z" fill="#E0AC69"/><path d="M99.92 70.17h76.59a2.998 2.998 0 0 1 3 3v53.43c0 .796-.316 1.559-.879 2.121a2.996 2.996 0 0 1-2.121.879H99.92V70.17Z" fill="#F7CD97"/><path d="M125.52 99.76c-.88-.26-2.09-.61-2.09-1s.86-1 1.84-1c.98 0 1.84.47 1.84 1v.42h1.53v-.42c0-1.36-1.51-2.48-3.37-2.48s-3.37 1.11-3.38 2.48c0 1.54 1.83 2.07 3.42 2.53.93.27 2.09.61 2.09 1s-1 1-2.14 1c-1.14 0-2.13-.48-2.13-1v-.42h-1.54v.41c0 1.39 1.61 2.49 3.67 2.49 2.06 0 3.67-1.09 3.67-2.47 0-1.54-1.8-2.07-3.41-2.55M133.6 96.28a4.257 4.257 0 0 0-4.466 4.255 4.262 4.262 0 0 0 2.774 3.992c.54.202 1.116.291 1.692.263a4.378 4.378 0 0 0 3.61-1.69l.27-.35-1.25-.86-.24.31a2.873 2.873 0 0 1-2.39 1.12 2.712 2.712 0 0 1-2.63-2h6.89v-.74a4.259 4.259 0 0 0-4.25-4.26l-.01-.04Zm-2.6 3.51a2.717 2.717 0 0 1 2.63-2 2.77 2.77 0 0 1 2.68 2H131Z" fill="#231F20"/><path d="M140.85 94.29h-1.53v2h-1.42v1.47h1.42v4.52c0 1.59 1.18 2.51 3.19 2.51h.77v-1.47h-.77c-1.09 0-1.65-.36-1.66-1v-4.55h2.43V96.3h-2.43v-2.01Z" fill="#30C495"/><path d="M147.58 96.3a4.263 4.263 0 0 0-3.936 2.63 4.266 4.266 0 0 0 .924 4.642 4.258 4.258 0 0 0 6.554-.645 4.262 4.262 0 0 0-3.542-6.627Zm0 1.48a2.781 2.781 0 0 1 2.03 4.731 2.79 2.79 0 0 1-1.425.773 2.787 2.787 0 0 1-2.868-1.182c-.306-.459-.469-1-.467-1.552a2.76 2.76 0 0 1 2.73-2.77ZM164.72 96.33a4.26 4.26 0 1 0 0 8.522 4.26 4.26 0 0 0 0-8.522Zm0 7a2.783 2.783 0 0 1-2.604-1.681 2.786 2.786 0 0 1 .57-3.046 2.781 2.781 0 0 1 4.764 1.947 2.76 2.76 0 0 1-2.73 2.78ZM154.46 99.83l.01-.51V92.8l-1.53-.01-.02 12.03h1.54v-4.99Z" fill="#30C495"/><path d="m159.81 97.61 1.5-1.29h-2.29l-4.23 3.51v1.48l4 3.35.21.17h2.3l-5.03-4.26 3.54-2.96ZM110.48 100.78v-3.46a4.486 4.486 0 0 0 4.172-2.758c.229-.545.347-1.13.348-1.722h3.47a7.999 7.999 0 0 1-8 7.93" fill="#30C495"/><path d="m114.955 101.231-.005 3.47 3.47.005.005-3.47-3.47-.005Z" fill="#231F20"/><path d="m91.652 70.098-10.14-.014-.008 5.97 10.14.014.008-5.97ZM91.577 123.608l-10.14-.014-.008 5.97 10.14.014.008-5.97Z" fill="#F1C27D"/><path d="M66.57 84.15h24.22a1.14 1.14 0 0 0 1-.54l8.3-13.47H75.6a2.56 2.56 0 0 0-2.18 1.22l-7.35 11.88a.59.59 0 0 0 .5.91Z" fill="#F1C27D"/><path d="M82.38 129.54c5.512 0 9.98-4.71 9.98-10.52s-4.468-10.52-9.98-10.52c-5.512 0-9.98 4.71-9.98 10.52s4.468 10.52 9.98 10.52Z" fill="#FBE9ED"/><path d="M92.12 129.54c2.723 0 4.93-1.961 4.93-4.38 0-2.419-2.207-4.38-4.93-4.38s-4.93 1.961-4.93 4.38c0 2.419 2.207 4.38 4.93 4.38Z" fill="#56CCA5"/><path d="M72.4 129.54c3.347 0 6.06-2.409 6.06-5.38s-2.713-5.38-6.06-5.38c-3.347 0-6.06 2.409-6.06 5.38s2.713 5.38 6.06 5.38Z" fill="#FBE9ED"/><path d="M109.31 130.23h-54.1s21.48-7.86 54.1 0Z" fill="#FBE9ED"/><path d="M93.85 129.13c5.274 0 9.55-3.797 9.55-8.48s-4.276-8.48-9.55-8.48c-5.274 0-9.55 3.797-9.55 8.48s4.276 8.48 9.55 8.48Z" fill="#FBE9ED"/><path d="M103.4 129.13c2.634 0 4.77-1.898 4.77-4.24 0-2.342-2.136-4.24-4.77-4.24-2.635 0-4.77 1.898-4.77 4.24 0 2.342 2.135 4.24 4.77 4.24ZM84.3 129.14c3.236 0 5.86-2.333 5.86-5.21s-2.624-5.21-5.86-5.21-5.86 2.333-5.86 5.21 2.624 5.21 5.86 5.21Z" fill="#FBE9ED"/><path d="M119.48 130.05H67.13s20.78-7.61 52.35 0ZM167.18 129.33c4.716 0 8.54-3.694 8.54-8.25s-3.824-8.25-8.54-8.25c-4.717 0-8.54 3.694-8.54 8.25s3.823 8.25 8.54 8.25Z" fill="#FBE9ED"/><path d="M172.86 129.32c1.961 0 3.55-1.536 3.55-3.43 0-1.894-1.589-3.43-3.55-3.43-1.961 0-3.55 1.536-3.55 3.43 0 1.894 1.589 3.43 3.55 3.43Z" fill="#56CCA5"/><path d="M158.64 129.33c2.413 0 4.37-1.889 4.37-4.22 0-2.331-1.957-4.22-4.37-4.22-2.413 0-4.37 1.889-4.37 4.22 0 2.331 1.957 4.22 4.37 4.22Z" fill="#FBE9ED"/><path d="M185.24 129.86h-39s15.49-6.16 39 0Z" fill="#FBE9ED"/><path d="M178.72 129.34c3.8 0 6.88-2.977 6.88-6.65 0-3.673-3.08-6.65-6.88-6.65s-6.88 2.977-6.88 6.65c0 3.673 3.08 6.65 6.88 6.65Z" fill="#FBE9ED"/><path d="M185.6 129.34c1.9 0 3.44-1.486 3.44-3.32 0-1.834-1.54-3.32-3.44-3.32s-3.44 1.486-3.44 3.32c0 1.834 1.54 3.32 3.44 3.32ZM171.84 129.34c2.336 0 4.23-1.827 4.23-4.08s-1.894-4.08-4.23-4.08c-2.336 0-4.23 1.827-4.23 4.08s1.894 4.08 4.23 4.08Z" fill="#FBE9ED"/><path d="M197.58 129.86h-37.73s14.98-5.96 37.73 0Z" fill="#FBE9ED"/><path d="m151.17 70.22 17.58-.02-7.78 10.96-9.43-3.95-.37-6.99Z" fill="#F7CD97"/><path d="M238.396 34.674c4.675-.352 8.213-4.003 7.901-8.155-.312-4.153-4.356-7.234-9.032-6.883-4.675.352-8.213 4.003-7.901 8.156.313 4.152 4.356 7.233 9.032 6.882Z" fill="#F3BDCA"/><path d="M246.862 34.038c2.335-.176 4.101-2.001 3.945-4.078-.156-2.076-2.175-3.617-4.51-3.441-2.335.175-4.102 2-3.946 4.077.156 2.076 2.176 3.617 4.511 3.442ZM229.93 35.31c2.875-.216 5.05-2.458 4.858-5.008-.192-2.55-2.678-4.442-5.552-4.226-2.875.216-5.05 2.459-4.859 5.009.192 2.55 2.678 4.441 5.553 4.225Z" fill="#F3BDCA"/><path d="m261.655 33.517-46.429 3.49s17.92-8.136 46.429-3.49ZM675.75 108.88c6.799 0 12.31-4.898 12.31-10.94S682.549 87 675.75 87s-12.31 4.898-12.31 10.94 5.511 10.94 12.31 10.94Z" fill="#F3BDCA"/><path d="M688.07 109.21c3.402 0 6.16-2.449 6.16-5.47s-2.758-5.47-6.16-5.47-6.16 2.449-6.16 5.47 2.758 5.47 6.16 5.47ZM663.44 109.21c4.175 0 7.56-3.009 7.56-6.72s-3.385-6.72-7.56-6.72-7.56 3.009-7.56 6.72 3.385 6.72 7.56 6.72Z" fill="#F3BDCA"/><path d="M709.55 110.06H642s26.8-9.81 67.55 0Z" fill="#F3BDCA"/><rect x="751" y="46" width="154" height="48" rx="4" fill="#FBE9ED"/><path d="M792.444 75.098c-.681 0-1.297-.117-1.848-.35a3.035 3.035 0 0 1-1.288-1.008c-.317-.439-.48-.957-.49-1.554h2.1c.028.401.168.719.42.952.262.233.616.35 1.064.35.458 0 .817-.107 1.078-.322.262-.224.392-.513.392-.868a.992.992 0 0 0-.266-.714 1.776 1.776 0 0 0-.672-.434 9.166 9.166 0 0 0-1.092-.364 13.17 13.17 0 0 1-1.554-.546 2.886 2.886 0 0 1-1.022-.826c-.28-.373-.42-.868-.42-1.484 0-.579.145-1.083.434-1.512.29-.43.696-.756 1.218-.98.523-.233 1.12-.35 1.792-.35 1.008 0 1.825.247 2.45.742.635.485.985 1.167 1.05 2.044h-2.156a1.088 1.088 0 0 0-.434-.826c-.261-.224-.611-.336-1.05-.336-.382 0-.69.098-.924.294-.224.196-.336.48-.336.854 0 .261.084.48.252.658.178.168.392.308.644.42.262.103.626.224 1.092.364.635.187 1.153.373 1.554.56.402.187.747.467 1.036.84.29.373.434.863.434 1.47 0 .523-.135 1.008-.406 1.456-.27.448-.667.807-1.19 1.078-.522.261-1.143.392-1.862.392Zm13.514-9.87V75h-1.96v-4.158h-4.186V75h-1.96v-9.772h1.96v4.018h4.186v-4.018h1.96Zm6.715 9.87a5.062 5.062 0 0 1-2.52-.644 4.826 4.826 0 0 1-1.82-1.778c-.448-.765-.672-1.629-.672-2.59 0-.952.224-1.806.672-2.562a4.795 4.795 0 0 1 1.82-1.792 5.062 5.062 0 0 1 2.52-.644c.924 0 1.764.215 2.52.644a4.697 4.697 0 0 1 1.806 1.792c.448.756.672 1.61.672 2.562 0 .961-.224 1.825-.672 2.59a4.726 4.726 0 0 1-1.806 1.778 5.062 5.062 0 0 1-2.52.644Zm0-1.75c.588 0 1.106-.13 1.554-.392.448-.27.798-.653 1.05-1.148.252-.495.378-1.069.378-1.722s-.126-1.223-.378-1.708a2.689 2.689 0 0 0-1.05-1.134c-.448-.261-.966-.392-1.554-.392-.588 0-1.111.13-1.568.392-.448.261-.798.64-1.05 1.134-.252.485-.378 1.055-.378 1.708s.126 1.227.378 1.722c.252.495.602.877 1.05 1.148.457.261.98.392 1.568.392Zm13.832-5.096c0 .523-.126 1.013-.378 1.47-.243.457-.63.826-1.162 1.106-.523.28-1.185.42-1.988.42h-1.638V75h-1.96v-9.772h3.598c.756 0 1.4.13 1.932.392.532.261.929.62 1.19 1.078.271.457.406.975.406 1.554Zm-3.612 1.414c.541 0 .943-.121 1.204-.364.261-.252.392-.602.392-1.05 0-.952-.532-1.428-1.596-1.428h-1.554v2.842h1.554ZM840.091 75h-1.96l-4.438-6.706V75h-1.96v-9.786h1.96l4.438 6.72v-6.72h1.96V75Zm6.723.098a5.062 5.062 0 0 1-2.52-.644 4.819 4.819 0 0 1-1.82-1.778c-.448-.765-.672-1.629-.672-2.59 0-.952.224-1.806.672-2.562a4.788 4.788 0 0 1 1.82-1.792 5.062 5.062 0 0 1 2.52-.644c.924 0 1.764.215 2.52.644a4.697 4.697 0 0 1 1.806 1.792c.448.756.672 1.61.672 2.562 0 .961-.224 1.825-.672 2.59a4.726 4.726 0 0 1-1.806 1.778 5.067 5.067 0 0 1-2.52.644Zm0-1.75c.588 0 1.106-.13 1.554-.392.448-.27.798-.653 1.05-1.148.252-.495.378-1.069.378-1.722s-.126-1.223-.378-1.708a2.689 2.689 0 0 0-1.05-1.134c-.448-.261-.966-.392-1.554-.392-.588 0-1.111.13-1.568.392-.448.261-.798.64-1.05 1.134-.252.485-.378 1.055-.378 1.708s.126 1.227.378 1.722c.252.495.602.877 1.05 1.148.457.261.98.392 1.568.392Zm19.768-8.12L863.852 75h-2.31l-1.834-6.958L857.79 75l-2.296.014-2.632-9.786h2.1l1.722 7.588 1.988-7.588h2.184l1.876 7.546 1.736-7.546h2.114Z" fill="#DB284E"/><g clip-path="url(#n)"><path fill="#F7CD97" d="M108.084 90.625 170.328 90l-.084 17.745-62.244.625z"/><path d="m114.911 95.823.188-.041c-.289 1.885-.576 4.27-.554 5.022.011.39.288.668.659.665a.77.77 0 0 0 .338-.086c1.683-.855 2.723-1.135 4.447-1.6.405-.107.513-.458.481-.724-.036-.31-.27-.623-.646-.619-.06.001-.12.01-.179.025-1.475.397-2.464.68-3.692 1.226.028-.294.064-.633.109-1.01l.669-.288c1.149-.499 1.908-.828 3.271-1.222.405-.117.508-.47.475-.74-.039-.303-.269-.609-.635-.605a.693.693 0 0 0-.189.029c-1.38.4-2.145.732-3.304 1.235l-.087.038a73 73 0 0 1 .304-1.998c.974-.444 1.873-.678 3.293-.98.332-.07.525-.336.494-.677-.029-.323-.278-.664-.68-.66a.73.73 0 0 0-.145.017c-1.12.238-1.988.451-2.844.779a.558.558 0 0 0-.078-.102.694.694 0 0 0-.507-.206.636.636 0 0 0-.633.501 5.992 5.992 0 0 1-.046.17v.007a7.683 7.683 0 0 0-.103.392c-.173.054-.803.173-1.413.287l-.03.006c-.716.133-1.526.284-2.044.41.017-.404.033-.76.049-1.087.01-.195.016-.398.021-.595l.001-.114c.595-.096 1.188-.195 1.9-.315l.017-.003c.777-.13 1.658-.28 2.514-.412a.536.536 0 0 0 .367-.253.73.73 0 0 0 .097-.555c-.077-.293-.315-.465-.637-.462a.935.935 0 0 0-.129.01c-.809.127-1.633.265-2.427.4l-.036.006c-.526.089-1.043.176-1.568.262.028-.188.068-.374.12-.557a.59.59 0 0 0-.087-.546.674.674 0 0 0-.544-.262.598.598 0 0 0-.379.127.625.625 0 0 0-.222.34c-.1.36-.166.728-.195 1.1-.732.111-1.384.2-1.993.272-.371.043-.625.308-.627.657-.001.319.287.687.649.645a62.452 62.452 0 0 0 1.903-.256l-.013.31c-.025.483-.048.994-.074 1.662-.241.08-.461.16-.673.241-.279.106-.48.457-.448.776.027.265.2.445.469.482.155.026.313.02.467-.014.035-.009.078-.018.127-.031l-.02.517c-.052 1.335-.105 2.717-.187 4.075a.612.612 0 0 0 .027.241.574.574 0 0 0 .12.209.626.626 0 0 0 .459.185c.315-.003.645-.221.669-.633.083-1.37.136-2.756.188-4.096l.033-.856c.704-.192 2.27-.531 3.025-.695l.118-.026ZM144.051 98.025c-.037-.31-.271-.624-.647-.62a.715.715 0 0 0-.178.025c-1.55.417-2.666.734-3.968 1.308.022-.29.053-.63.096-1.01.01-.004.02-.007.029-.012a51.3 51.3 0 0 0 .953-.417c.832-.37 1.291-.574 2.517-.93.405-.118.508-.47.474-.74-.038-.304-.268-.61-.634-.606a.713.713 0 0 0-.189.029c-1.245.361-1.708.567-2.548.94-.127.057-.26.117-.405.18.105-.738.22-1.493.331-2.131.426-.188.889-.32 1.325-.436.594-.158.961-.226 1.387-.305h.004c.219-.04.492-.09.841-.163.331-.07.525-.334.495-.677-.029-.324-.279-.669-.683-.665a.737.737 0 0 0-.142.016c-.346.072-.684.133-1.012.192-.657.118-1.341.24-1.995.453a.585.585 0 0 0-.14-.232.695.695 0 0 0-.504-.205.636.636 0 0 0-.633.5c-.034.137-.076.337-.125.596-.277.18-.537.384-.777.613a.621.621 0 0 0-.172.694.718.718 0 0 0 .645.463c-.296 1.89-.58 4.174-.493 4.947.045.389.318.658.664.655a.742.742 0 0 0 .332-.086c1.669-.847 2.93-1.186 4.675-1.656.401-.106.507-.455.477-.72ZM125.901 101.511c.079-.934.196-2.024.311-3.076v-.024c.079-.738.162-1.5.228-2.19a105.132 105.132 0 0 1 .279-2.64c.047-.405.094-.824.194-1.222a.57.57 0 0 0-.095-.489.667.667 0 0 0-.523-.249.588.588 0 0 0-.525.313c-.255.45-.481.912-.701 1.36-.138.28-.295.6-.452.9-.289.557-.534 1-.777 1.396a9.201 9.201 0 0 1-.22.346c-.12-.34-.397-1.167-.568-1.796a32.334 32.334 0 0 0-.369-1.227 53.098 53.098 0 0 1-.174-.56 2.186 2.186 0 0 0-.022-.148l-.003-.007a1.662 1.662 0 0 0-.069-.18.575.575 0 0 0-.532-.297.673.673 0 0 0-.311.079.58.58 0 0 0-.178.15.564.564 0 0 0-.154.313c-.042.179-.065.361-.071.544-.005.083-.01.17-.02.239a26.758 26.758 0 0 0-.206 2.499c-.068 1.59-.133 3.745-.17 5.624a.567.567 0 0 0 .15.408.625.625 0 0 0 .458.18c.306-.004.621-.209.629-.596.019-.968.056-2.084.091-3.164a266.5 266.5 0 0 0 .06-1.925c.005-.169.01-.343.018-.517.268.764.589 1.325 1.005 1.76a.595.595 0 0 0 .434.167.564.564 0 0 0 .329-.103c.575-.425.966-1.104 1.317-1.773l-.053.542c-.064.666-.145 1.41-.222 2.131l-.004.034a143.55 143.55 0 0 0-.323 3.218.502.502 0 0 0 .124.404.577.577 0 0 0 .435.175c.315-.003.65-.21.68-.599ZM127.876 100.808c.269-.85.518-1.71.705-2.37.667-.354 1.276-.672 1.86-.974a31.303 31.303 0 0 0 1.297 3.604c.092.211.319.345.58.342a.675.675 0 0 0 .341-.093c.31-.188.411-.56.251-.926-.45-1.03-.855-2.191-1.246-3.548.332-.166.631-.317.911-.453a.595.595 0 0 0 .341-.681c-.062-.287-.322-.583-.69-.58a.695.695 0 0 0-.3.075c-.206.1-.414.203-.626.308a75.834 75.834 0 0 1-.495-2.069 23.338 23.338 0 0 0-.211-.86 5.54 5.54 0 0 1-.085-.373l-.006-.031a.646.646 0 0 0-.29-.834.707.707 0 0 0-.342-.092.548.548 0 0 0-.33.111.904.904 0 0 0-.342.52l-.023-.006-.028.127c-.612 1.682-1.103 3.422-1.578 5.108l-.112.39-.047.027a.738.738 0 0 0-.115.052 3.41 3.41 0 0 0-.124.073 2.635 2.635 0 0 1-.113.065l-.117.063.004.011a.61.61 0 0 0-.213.637.758.758 0 0 0 .329.462 68.643 68.643 0 0 1-.472 1.555.626.626 0 0 0 .074.567c.068.089.155.16.255.207a.69.69 0 0 0 .319.069.639.639 0 0 0 .398-.131.667.667 0 0 0 .24-.352Zm1.214-4.167c.162-.57.374-1.306.608-2.067l.011.052c.073.327.156.698.248 1.063.037.15.076.299.114.446-.31.157-.631.321-.981.506Z" fill="#D7244F"/><path d="M136.966 98.776a.663.663 0 0 0-.325.092c-.553.312-.999.511-1.446.647-.232.071-.471.11-.712.115l-.025-.003c-.033-.189.016-.458.054-.678.067-.379.144-.808.208-1.242.365-2.492.563-4.492.644-6.486a.638.638 0 0 0-.162-.47.668.668 0 0 0-.484-.194c-.331.004-.675.234-.692.668-.106 2.581-.336 4.793-.726 6.96l-.042.22-.005.028c-.156.81-.354 1.82.427 2.348.227.153.504.226.841.223.306-.012.61-.059.906-.14.669-.164 1.298-.489 1.874-.817a.628.628 0 0 0 .318-.727c-.064-.271-.312-.547-.653-.544ZM159.969 98.976h-.051c-.544.006-.84.455-.852.895-.011.424.24.889.816.909h.045c.547-.006.845-.454.857-.895.011-.423-.24-.889-.815-.909ZM153.3 94.021c-.178-1.342-.978-2.484-2.088-2.983a2.873 2.873 0 0 0-1.203-.257c-.779.008-1.459.345-1.916.95-.13.168-.243.35-.337.544a.722.722 0 0 0 .03.702c.098.16.249.278.427.332a63.14 63.14 0 0 0-.037 3.121c.01.74.033 1.615.131 2.498l.017.152a3.63 3.63 0 0 1-.321.027c-.45.015-.682.385-.68.742.002.333.211.689.663.685h.017a4.83 4.83 0 0 0 .645-.067c.032.065.07.128.113.187.155.213.374.333.601.331a.66.66 0 0 0 .341-.102.767.767 0 0 0 .34-.501.642.642 0 0 0-.021-.353 5.808 5.808 0 0 0 1.936-1.525c1.06-1.281 1.549-2.915 1.342-4.483Zm-3.643-1.772a.764.764 0 0 1 .308-.055h.079c.161.004.319.036.469.095.69.232 1.243.989 1.409 1.927.186 1.06-.197 2.374-.976 3.345a4.34 4.34 0 0 1-1.269 1.074 27.586 27.586 0 0 1-.105-2.38c-.016-1.36.012-2.709.085-4.006ZM158.185 96.778c-.097-.954-.202-1.941-.376-2.9-.122-.665-.26-1.368-.502-2.035-.11-.302-.226-.589-.448-.795a.86.86 0 0 0-.594-.235.822.822 0 0 0-.607.284.705.705 0 0 0-.148.718l.004.013a.717.717 0 0 0-.027.063c-.256.688-.483 1.391-.705 2.071v.005a55.35 55.35 0 0 1-.722 2.113c-.34.115-.431.427-.405.66a.72.72 0 0 0 .062.219 12.72 12.72 0 0 0-.351.95c-.14.445-.301 1.104-.093 1.667.116.31.372.503.668.5a.67.67 0 0 0 .446-.175.778.778 0 0 0 .186-.24.637.637 0 0 0 .037-.511c-.106-.288.03-.685.151-1.035l.028-.083c.095-.279.209-.555.318-.822l.03-.073a38.64 38.64 0 0 1 1.666-.333l.033.319c.124 1.213.253 2.467.533 3.677a.637.637 0 0 0 .224.376.611.611 0 0 0 .41.137.77.77 0 0 0 .591-.292.707.707 0 0 0 .122-.601c-.277-1.192-.406-2.437-.531-3.642Zm-1.531-1.247c-.383.07-.7.129-.994.187.151-.44.3-.895.44-1.323l.016-.047.226-.688a23.103 23.103 0 0 1 .227 1.266l.016.111.017.122.008.063c.016.102.03.206.044.309ZM160.648 94.845l.026-.39v-.013c.017-.28.03-.446.04-.57v-.028c.017-.218.028-.35.046-.85 0-.048.004-.097.006-.147l.003-.076c.022-.496.045-1.01-.08-1.484a.677.677 0 0 0-.245-.383.66.66 0 0 0-.428-.138.734.734 0 0 0-.323.076.765.765 0 0 0-.261.21.644.644 0 0 0-.103.58c.017.073.03.145.037.219v.045a15.29 15.29 0 0 1-.011 1.236c-.02.496-.034.667-.055.908v.007c-.012.155-.028.345-.049.69l-.018.274c-.038.592-.065 1.02-.062 1.69v.128c-.003.538-.007 1.437.662 1.537.056.008.112.012.169.012.231-.002.405-.087.525-.254.188-.268.139-.655.079-.841a.682.682 0 0 1-.025-.135c0-.005 0-.022-.003-.047v-.013c0-.022-.004-.045-.005-.056a6.433 6.433 0 0 1-.006-.194v-.015c-.003-.152.002-.31.002-.445.018-.61.044-.998.079-1.533ZM169.739 91.045a.572.572 0 0 0-.486.263l-.022-.006-.051.155a46.775 46.775 0 0 1-.916 2.387l-.003.01c-.142.349-.259.642-.374.933a54.419 54.419 0 0 1-.931-1.413 5.49 5.49 0 0 0-.224-.329 3.252 3.252 0 0 1-.239-.375 10.91 10.91 0 0 1-.27-.496 4.712 4.712 0 0 1-.093-.196l-.013-.032c-.009-.023-.016-.047-.023-.071a.557.557 0 0 0-.204-.3.54.54 0 0 0-.342-.108.614.614 0 0 0-.492.248.564.564 0 0 0-.073.509v.006c.303.716.454.95.784 1.465.046.072.095.15.15.233l.003.005c.512.805.99 1.52 1.463 2.183-.537 1.51-.822 2.734-.896 3.85a.553.553 0 0 0 .134.412.558.558 0 0 0 .415.169.601.601 0 0 0 .606-.57c.127-1.918.933-3.885 1.712-5.792l.006-.015c.26-.636.506-1.237.729-1.84a.64.64 0 0 0 .087-.175c.02-.064.038-.128.057-.199a4.64 4.64 0 0 1 .052-.176c.03-.082.04-.17.03-.256a.537.537 0 0 0-.092-.239.602.602 0 0 0-.484-.24ZM165.243 98.313a.676.676 0 0 0-.329.092c-.507.287-.917.47-1.327.595-.2.06-.407.095-.615.103-.014-.16.024-.375.053-.552l.004-.019c.063-.35.134-.745.192-1.141.326-2.233.525-4.253.602-6.177a.661.661 0 0 0-.167-.478.665.665 0 0 0-.49-.197c-.334.003-.681.236-.699.676-.08 1.949-.301 4.11-.677 6.606-.014.094-.032.194-.052.314-.132.735-.296 1.651.431 2.142.22.149.485.22.81.217.288-.011.573-.055.852-.132.625-.153 1.21-.457 1.751-.76a.64.64 0 0 0 .323-.738c-.067-.277-.317-.555-.662-.551Z" fill="#D7244F"/><path d="m170.267 102.809-27.289.274-.023 4.936 27.289-.274.023-4.936Z" fill="#D8254F"/><path d="M147.321 105.939a.6.6 0 0 0-.233-.152 2.73 2.73 0 0 0-.318-.101 3.075 3.075 0 0 1-.35-.108 1.67 1.67 0 0 1-.318-.155.667.667 0 0 1-.232-.262.862.862 0 0 1-.09-.412.806.806 0 0 1 .278-.616c.184-.166.432-.25.744-.253a1.23 1.23 0 0 1 .594.14c.064.034.125.073.184.115.041.03.08.064.114.102l.034.044-.31.32a.557.557 0 0 0-.097-.094.9.9 0 0 0-.123-.081.863.863 0 0 0-.398-.09.59.59 0 0 0-.386.126.362.362 0 0 0-.058.53.6.6 0 0 0 .234.153c.104.039.21.073.318.1.118.029.234.065.349.107.111.04.218.091.318.154a.68.68 0 0 1 .233.263.862.862 0 0 1 .089.41.888.888 0 0 1-.297.687c-.197.179-.468.27-.813.274a1.533 1.533 0 0 1-.718-.168 1.617 1.617 0 0 1-.213-.143.992.992 0 0 1-.131-.12l-.043-.055.31-.319a.464.464 0 0 0 .121.126.93.93 0 0 0 .156.109 1.122 1.122 0 0 0 .518.12.686.686 0 0 0 .456-.149.451.451 0 0 0 .168-.357.337.337 0 0 0-.09-.245ZM151.535 103.882l-.002.452-.931.01-.013 2.714-.484.004.013-2.713-.93.009.002-.453 2.345-.023ZM154.949 106.353a.847.847 0 0 0 .246-.607l.009-1.901.488-.005-.009 1.901a1.272 1.272 0 0 1-.385.93c-.249.249-.581.39-.926.393a1.286 1.286 0 0 1-1.3-1.296l.009-1.902.488-.005-.009 1.901a.83.83 0 0 0 .24.605.78.78 0 0 0 .887.178.805.805 0 0 0 .262-.19v-.002ZM158.677 103.81a1.484 1.484 0 0 1 1.106.457 1.534 1.534 0 0 1 .457 1.11 1.598 1.598 0 0 1-.468 1.12 1.527 1.527 0 0 1-1.11.48l-1.085.01.015-3.166 1.085-.011Zm-.601.459-.01 2.261.598-.006c.143.001.285-.028.417-.086a1.06 1.06 0 0 0 .351-.25c.204-.218.318-.506.319-.806a1.151 1.151 0 0 0-.312-.799 1.005 1.005 0 0 0-.764-.32l-.599.006ZM162.015 103.776l.487-.004-.015 3.166-.486.005.014-3.167ZM164.738 104.177a1.604 1.604 0 0 1 1.165-.484 1.564 1.564 0 0 1 1.509.987 1.666 1.666 0 0 1-.357 1.784 1.6 1.6 0 0 1-1.167.484 1.549 1.549 0 0 1-1.161-.461 1.594 1.594 0 0 1-.346-.526 1.666 1.666 0 0 1 .357-1.784Zm.34 1.987c.188.194.437.315.704.341a1.15 1.15 0 0 0 .763-.197 1.216 1.216 0 0 0 .444-1.446 1.155 1.155 0 0 0-.521-.591 1.134 1.134 0 0 0-.775-.113 1.185 1.185 0 0 0-.676.417 1.225 1.225 0 0 0-.269.757 1.127 1.127 0 0 0 .33.832Z" fill="#fff"/></g><path d="m255.56 44.272-5.448 10.416V61h-2.184v-6.312l-5.472-10.416h2.424l4.128 8.472 4.128-8.472h2.424Zm8.29 16.944c-1.232 0-2.352-.28-3.36-.84A6.105 6.105 0 0 1 258.138 58c-.56-1.04-.84-2.24-.84-3.6 0-1.344.288-2.528.864-3.552.592-1.04 1.392-1.832 2.4-2.376 1.008-.56 2.136-.84 3.384-.84 1.248 0 2.376.28 3.384.84a5.897 5.897 0 0 1 2.376 2.352c.592 1.024.888 2.216.888 3.576 0 1.36-.304 2.56-.912 3.6a6.178 6.178 0 0 1-2.424 2.376c-1.024.56-2.16.84-3.408.84Zm0-1.92c.784 0 1.52-.184 2.208-.552.688-.368 1.24-.92 1.656-1.656.432-.736.648-1.632.648-2.688 0-1.056-.208-1.952-.624-2.688-.416-.736-.96-1.28-1.632-1.632a4.474 4.474 0 0 0-2.184-.552c-.8 0-1.536.184-2.208.552-.656.352-1.184.896-1.584 1.632-.4.736-.6 1.632-.6 2.688 0 1.072.192 1.976.576 2.712.4.736.928 1.288 1.584 1.656a4.496 4.496 0 0 0 2.16.528Zm21.529-11.448V61h-2.184v-1.944c-.416.672-1 1.2-1.752 1.584-.736.368-1.552.552-2.448.552-1.024 0-1.944-.208-2.76-.624-.816-.432-1.464-1.072-1.944-1.92-.464-.848-.696-1.88-.696-3.096v-7.704h2.16v7.416c0 1.296.328 2.296.984 3 .656.688 1.552 1.032 2.688 1.032 1.168 0 2.088-.36 2.76-1.08.672-.72 1.008-1.768 1.008-3.144v-7.224h2.184Zm6.122 2.136a4.212 4.212 0 0 1 1.632-1.752c.72-.416 1.592-.624 2.616-.624v2.256h-.576c-2.448 0-3.672 1.328-3.672 3.984V61h-2.184V47.848h2.184v2.136Zm15.851.312c.448-.784 1.104-1.424 1.968-1.92.864-.496 1.848-.744 2.952-.744 1.184 0 2.248.28 3.192.84.944.56 1.688 1.352 2.232 2.376.544 1.008.816 2.184.816 3.528 0 1.328-.272 2.512-.816 3.552-.544 1.04-1.296 1.848-2.256 2.424-.944.576-2 .864-3.168.864-1.136 0-2.136-.248-3-.744-.848-.496-1.488-1.128-1.92-1.896V61h-2.184V43.24h2.184v7.056Zm8.928 4.08c0-.992-.2-1.856-.6-2.592-.4-.736-.944-1.296-1.632-1.68a4.419 4.419 0 0 0-2.232-.576c-.8 0-1.544.2-2.232.6-.672.384-1.216.952-1.632 1.704-.4.736-.6 1.592-.6 2.568 0 .992.2 1.864.6 2.616.416.736.96 1.304 1.632 1.704a4.505 4.505 0 0 0 2.232.576c.816 0 1.56-.192 2.232-.576a4.295 4.295 0 0 0 1.632-1.704c.4-.752.6-1.632.6-2.64Zm17.357-.456c0 .416-.024.856-.072 1.32h-10.512c.08 1.296.52 2.312 1.32 3.048.816.72 1.8 1.08 2.952 1.08.944 0 1.728-.216 2.352-.648a3.535 3.535 0 0 0 1.344-1.776h2.352a5.712 5.712 0 0 1-2.112 3.096c-1.056.784-2.368 1.176-3.936 1.176-1.248 0-2.368-.28-3.36-.84-.976-.56-1.744-1.352-2.304-2.376-.56-1.04-.84-2.24-.84-3.6 0-1.36.272-2.552.816-3.576.544-1.024 1.304-1.808 2.28-2.352.992-.56 2.128-.84 3.408-.84 1.248 0 2.352.272 3.312.816a5.55 5.55 0 0 1 2.208 2.256c.528.944.792 2.016.792 3.216Zm-2.256-.456c0-.832-.184-1.544-.552-2.136a3.474 3.474 0 0 0-1.512-1.368c-.624-.32-1.32-.48-2.088-.48-1.104 0-2.048.352-2.832 1.056-.768.704-1.208 1.68-1.32 2.928h8.304Zm4.573.912c0-1.344.272-2.52.816-3.528.544-1.024 1.288-1.816 2.232-2.376.96-.56 2.024-.84 3.192-.84 1.152 0 2.152.248 3 .744.848.496 1.48 1.12 1.896 1.872v-2.4h2.208V61h-2.208v-2.448c-.432.768-1.08 1.408-1.944 1.92-.848.496-1.84.744-2.976.744-1.168 0-2.224-.288-3.168-.864-.944-.576-1.688-1.384-2.232-2.424-.544-1.04-.816-2.224-.816-3.552Zm11.136.024c0-.992-.2-1.856-.6-2.592-.4-.736-.944-1.296-1.632-1.68-.672-.4-1.416-.6-2.232-.6-.816 0-1.56.192-2.232.576-.672.384-1.208.944-1.608 1.68-.4.736-.6 1.6-.6 2.592 0 1.008.2 1.888.6 2.64.4.736.936 1.304 1.608 1.704a4.419 4.419 0 0 0 2.232.576c.816 0 1.56-.192 2.232-.576a4.295 4.295 0 0 0 1.632-1.704c.4-.752.6-1.624.6-2.616Zm17.813-6.552V61h-2.184v-1.944c-.416.672-1 1.2-1.752 1.584-.736.368-1.552.552-2.448.552-1.024 0-1.944-.208-2.76-.624-.816-.432-1.464-1.072-1.944-1.92-.464-.848-.696-1.88-.696-3.096v-7.704h2.16v7.416c0 1.296.328 2.296.984 3 .656.688 1.552 1.032 2.688 1.032 1.168 0 2.088-.36 2.76-1.08.672-.72 1.008-1.768 1.008-3.144v-7.224h2.184Zm6.601 1.8V57.4c0 .64.136 1.096.408 1.368.272.256.744.384 1.416.384h1.608V61h-1.968c-1.216 0-2.128-.28-2.736-.84-.608-.56-.912-1.48-.912-2.76v-7.752h-1.704v-1.8h1.704v-3.312h2.184v3.312h3.432v1.8h-3.432Zm17.656-1.8-7.92 19.344h-2.256l2.592-6.336-5.304-13.008h2.424l4.128 10.656 4.08-10.656h2.256Zm8.278 6.528c0-1.344.272-2.52.816-3.528.544-1.024 1.288-1.816 2.232-2.376.96-.56 2.032-.84 3.216-.84a5.87 5.87 0 0 1 2.856.72c.88.464 1.552 1.08 2.016 1.848v-6.96h2.208V61h-2.208v-2.472c-.432.784-1.072 1.432-1.92 1.944-.848.496-1.84.744-2.976.744-1.168 0-2.232-.288-3.192-.864-.944-.576-1.688-1.384-2.232-2.424-.544-1.04-.816-2.224-.816-3.552Zm11.136.024c0-.992-.2-1.856-.6-2.592-.4-.736-.944-1.296-1.632-1.68-.672-.4-1.416-.6-2.232-.6-.816 0-1.56.192-2.232.576-.672.384-1.208.944-1.608 1.68-.4.736-.6 1.6-.6 2.592 0 1.008.2 1.888.6 2.64.4.736.936 1.304 1.608 1.704a4.419 4.419 0 0 0 2.232.576c.816 0 1.56-.192 2.232-.576a4.295 4.295 0 0 0 1.632-1.704c.4-.752.6-1.624.6-2.616Zm8.333-4.416a4.212 4.212 0 0 1 1.632-1.752c.72-.416 1.592-.624 2.616-.624v2.256h-.576c-2.448 0-3.672 1.328-3.672 3.984V61h-2.184V47.848h2.184v2.136Zm19.019 3.936c0 .416-.024.856-.072 1.32h-10.512c.08 1.296.52 2.312 1.32 3.048.816.72 1.8 1.08 2.952 1.08.944 0 1.728-.216 2.352-.648a3.535 3.535 0 0 0 1.344-1.776h2.352a5.712 5.712 0 0 1-2.112 3.096c-1.056.784-2.368 1.176-3.936 1.176-1.248 0-2.368-.28-3.36-.84-.976-.56-1.744-1.352-2.304-2.376-.56-1.04-.84-2.24-.84-3.6 0-1.36.272-2.552.816-3.576.544-1.024 1.304-1.808 2.28-2.352.992-.56 2.128-.84 3.408-.84 1.248 0 2.352.272 3.312.816a5.55 5.55 0 0 1 2.208 2.256c.528.944.792 2.016.792 3.216Zm-2.256-.456c0-.832-.184-1.544-.552-2.136a3.474 3.474 0 0 0-1.512-1.368c-.624-.32-1.32-.48-2.088-.48-1.104 0-2.048.352-2.832 1.056-.768.704-1.208 1.68-1.32 2.928h8.304Zm4.573.912c0-1.344.272-2.52.816-3.528.544-1.024 1.288-1.816 2.232-2.376.96-.56 2.024-.84 3.192-.84 1.152 0 2.152.248 3 .744.848.496 1.48 1.12 1.896 1.872v-2.4h2.208V61h-2.208v-2.448c-.432.768-1.08 1.408-1.944 1.92-.848.496-1.84.744-2.976.744-1.168 0-2.224-.288-3.168-.864-.944-.576-1.688-1.384-2.232-2.424-.544-1.04-.816-2.224-.816-3.552Zm11.136.024c0-.992-.2-1.856-.6-2.592-.4-.736-.944-1.296-1.632-1.68-.672-.4-1.416-.6-2.232-.6-.816 0-1.56.192-2.232.576-.672.384-1.208.944-1.608 1.68-.4.736-.6 1.6-.6 2.592 0 1.008.2 1.888.6 2.64.4.736.936 1.304 1.608 1.704a4.419 4.419 0 0 0 2.232.576c.816 0 1.56-.192 2.232-.576a4.295 4.295 0 0 0 1.632-1.704c.4-.752.6-1.624.6-2.616Zm21.965-6.792c1.024 0 1.936.216 2.736.648.8.416 1.432 1.048 1.896 1.896.464.848.696 1.88.696 3.096V61h-2.16v-7.44c0-1.312-.328-2.312-.984-3-.64-.704-1.512-1.056-2.616-1.056-1.136 0-2.04.368-2.712 1.104-.672.72-1.008 1.768-1.008 3.144V61h-2.16v-7.44c0-1.312-.328-2.312-.984-3-.64-.704-1.512-1.056-2.616-1.056-1.136 0-2.04.368-2.712 1.104-.672.72-1.008 1.768-1.008 3.144V61h-2.184V47.848h2.184v1.896a4.336 4.336 0 0 1 1.728-1.584 5.343 5.343 0 0 1 2.424-.552c1.104 0 2.08.248 2.928.744.848.496 1.48 1.224 1.896 2.184a4.314 4.314 0 0 1 1.824-2.16c.848-.512 1.792-.768 2.832-.768Zm13.816 13.608c-1.008 0-1.912-.168-2.712-.504-.8-.352-1.432-.832-1.896-1.44a3.892 3.892 0 0 1-.768-2.136h2.256c.064.656.368 1.192.912 1.608.56.416 1.288.624 2.184.624.832 0 1.488-.184 1.968-.552.48-.368.72-.832.72-1.392 0-.576-.256-1-.768-1.272-.512-.288-1.304-.568-2.376-.84-.976-.256-1.776-.512-2.4-.768a4.557 4.557 0 0 1-1.584-1.176c-.432-.528-.648-1.216-.648-2.064 0-.672.2-1.288.6-1.848.4-.56.968-1 1.704-1.32.736-.336 1.576-.504 2.52-.504 1.456 0 2.632.368 3.528 1.104.896.736 1.376 1.744 1.44 3.024h-2.184c-.048-.688-.328-1.24-.84-1.656-.496-.416-1.168-.624-2.016-.624-.784 0-1.408.168-1.872.504-.464.336-.696.776-.696 1.32 0 .432.136.792.408 1.08.288.272.64.496 1.056.672.432.16 1.024.344 1.776.552.944.256 1.712.512 2.304.768a3.82 3.82 0 0 1 1.512 1.104c.432.496.656 1.144.672 1.944 0 .72-.2 1.368-.6 1.944-.4.576-.968 1.032-1.704 1.368-.72.32-1.552.48-2.496.48Zm32.302-13.368L513.358 61h-2.256l-3.168-10.44L504.766 61h-2.256l-4.128-13.152h2.232l3.024 11.04 3.264-11.04h2.232l3.192 11.064 2.976-11.064h2.16Zm3.545-2.136c-.416 0-.768-.144-1.056-.432a1.436 1.436 0 0 1-.432-1.056c0-.416.144-.768.432-1.056.288-.288.64-.432 1.056-.432.4 0 .736.144 1.008.432.288.288.432.64.432 1.056 0 .416-.144.768-.432 1.056a1.331 1.331 0 0 1-1.008.432Zm1.056 2.136V61h-2.184V47.848h2.184Zm6.157-4.608V61h-2.184V43.24h2.184Zm6.156 0V61h-2.184V43.24h2.184Zm9.804 11.16c0-1.36.272-2.544.816-3.552.544-1.024 1.296-1.816 2.256-2.376.976-.56 2.088-.84 3.336-.84 1.616 0 2.944.392 3.984 1.176 1.056.784 1.752 1.872 2.088 3.264h-2.352c-.224-.8-.664-1.432-1.32-1.896-.64-.464-1.44-.696-2.4-.696-1.248 0-2.256.432-3.024 1.296-.768.848-1.152 2.056-1.152 3.624 0 1.584.384 2.808 1.152 3.672.768.864 1.776 1.296 3.024 1.296.96 0 1.76-.224 2.4-.672.64-.448 1.08-1.088 1.32-1.92h2.352c-.352 1.344-1.056 2.424-2.112 3.24-1.056.8-2.376 1.2-3.96 1.2-1.248 0-2.36-.28-3.336-.84-.96-.56-1.712-1.352-2.256-2.376-.544-1.024-.816-2.224-.816-3.6Zm21.381 6.816c-1.232 0-2.352-.28-3.36-.84A6.105 6.105 0 0 1 559.849 58c-.56-1.04-.84-2.24-.84-3.6 0-1.344.288-2.528.864-3.552.592-1.04 1.392-1.832 2.4-2.376 1.008-.56 2.136-.84 3.384-.84 1.248 0 2.376.28 3.384.84a5.897 5.897 0 0 1 2.376 2.352c.592 1.024.888 2.216.888 3.576 0 1.36-.304 2.56-.912 3.6a6.178 6.178 0 0 1-2.424 2.376c-1.024.56-2.16.84-3.408.84Zm0-1.92c.784 0 1.52-.184 2.208-.552.688-.368 1.24-.92 1.656-1.656.432-.736.648-1.632.648-2.688 0-1.056-.208-1.952-.624-2.688-.416-.736-.96-1.28-1.632-1.632a4.474 4.474 0 0 0-2.184-.552c-.8 0-1.536.184-2.208.552-.656.352-1.184.896-1.584 1.632-.4.736-.6 1.632-.6 2.688 0 1.072.192 1.976.576 2.712.4.736.928 1.288 1.584 1.656a4.496 4.496 0 0 0 2.16.528Zm25.681-11.688c1.024 0 1.936.216 2.736.648.8.416 1.432 1.048 1.896 1.896.464.848.696 1.88.696 3.096V61h-2.16v-7.44c0-1.312-.328-2.312-.984-3-.64-.704-1.512-1.056-2.616-1.056-1.136 0-2.04.368-2.712 1.104-.672.72-1.008 1.768-1.008 3.144V61h-2.16v-7.44c0-1.312-.328-2.312-.984-3-.64-.704-1.512-1.056-2.616-1.056-1.136 0-2.04.368-2.712 1.104-.672.72-1.008 1.768-1.008 3.144V61h-2.184V47.848h2.184v1.896a4.336 4.336 0 0 1 1.728-1.584 5.343 5.343 0 0 1 2.424-.552c1.104 0 2.08.248 2.928.744.848.496 1.48 1.224 1.896 2.184a4.314 4.314 0 0 1 1.824-2.16c.848-.512 1.792-.768 2.832-.768Zm21.161 6.312c0 .416-.024.856-.072 1.32h-10.512c.08 1.296.52 2.312 1.32 3.048.816.72 1.8 1.08 2.952 1.08.944 0 1.728-.216 2.352-.648a3.535 3.535 0 0 0 1.344-1.776h2.352a5.712 5.712 0 0 1-2.112 3.096c-1.056.784-2.368 1.176-3.936 1.176-1.248 0-2.368-.28-3.36-.84-.976-.56-1.744-1.352-2.304-2.376-.56-1.04-.84-2.24-.84-3.6 0-1.36.272-2.552.816-3.576.544-1.024 1.304-1.808 2.28-2.352.992-.56 2.128-.84 3.408-.84 1.248 0 2.352.272 3.312.816a5.55 5.55 0 0 1 2.208 2.256c.528.944.792 2.016.792 3.216Zm-2.256-.456c0-.832-.184-1.544-.552-2.136a3.474 3.474 0 0 0-1.512-1.368c-.624-.32-1.32-.48-2.088-.48-1.104 0-2.048.352-2.832 1.056-.768.704-1.208 1.68-1.32 2.928h8.304Zm14.701-3.816V57.4c0 .64.136 1.096.408 1.368.272.256.744.384 1.416.384h1.608V61h-1.968c-1.216 0-2.128-.28-2.736-.84-.608-.56-.912-1.48-.912-2.76v-7.752h-1.704v-1.8h1.704v-3.312h2.184v3.312h3.432v1.8h-3.432Zm8.512.336a4.212 4.212 0 0 1 1.632-1.752c.72-.416 1.592-.624 2.616-.624v2.256h-.576c-2.448 0-3.672 1.328-3.672 3.984V61h-2.184V47.848h2.184v2.136Zm18.683-2.136V61h-2.184v-1.944c-.416.672-1 1.2-1.752 1.584-.736.368-1.552.552-2.448.552-1.024 0-1.944-.208-2.76-.624-.816-.432-1.464-1.072-1.944-1.92-.464-.848-.696-1.88-.696-3.096v-7.704h2.16v7.416c0 1.296.328 2.296.984 3 .656.688 1.552 1.032 2.688 1.032 1.168 0 2.088-.36 2.76-1.08.672-.72 1.008-1.768 1.008-3.144v-7.224h2.184Zm15.938 6.072c0 .416-.024.856-.072 1.32h-10.512c.08 1.296.52 2.312 1.32 3.048.816.72 1.8 1.08 2.952 1.08.944 0 1.728-.216 2.352-.648a3.535 3.535 0 0 0 1.344-1.776h2.352a5.712 5.712 0 0 1-2.112 3.096c-1.056.784-2.368 1.176-3.936 1.176-1.248 0-2.368-.28-3.36-.84-.976-.56-1.744-1.352-2.304-2.376-.56-1.04-.84-2.24-.84-3.6 0-1.36.272-2.552.816-3.576.544-1.024 1.304-1.808 2.28-2.352.992-.56 2.128-.84 3.408-.84 1.248 0 2.352.272 3.312.816a5.55 5.55 0 0 1 2.208 2.256c.528.944.792 2.016.792 3.216Zm-2.256-.456c0-.832-.184-1.544-.552-2.136a3.474 3.474 0 0 0-1.512-1.368c-.624-.32-1.32-.48-2.088-.48-1.104 0-2.048.352-2.832 1.056-.768.704-1.208 1.68-1.32 2.928h8.304Zm8.221-9.192-.264 12h-1.824l-.264-12h2.352Zm-1.08 16.872c-.416 0-.768-.144-1.056-.432a1.436 1.436 0 0 1-.432-1.056c0-.416.144-.768.432-1.056.288-.288.64-.432 1.056-.432.4 0 .736.144 1.008.432.288.288.432.64.432 1.056 0 .416-.144.768-.432 1.056a1.331 1.331 0 0 1-1.008.432ZM246.032 78.272V95h-2.184V78.272h2.184Zm10.38 3.336c1.6 0 2.896.488 3.888 1.464.992.96 1.488 2.352 1.488 4.176V95h-2.16v-7.44c0-1.312-.328-2.312-.984-3-.656-.704-1.552-1.056-2.688-1.056-1.152 0-2.072.36-2.76 1.08-.672.72-1.008 1.768-1.008 3.144V95h-2.184V81.848h2.184v1.872a4.354 4.354 0 0 1 1.752-1.56 5.547 5.547 0 0 1 2.472-.552Zm25.298-3.336v1.776h-7.272v5.64h5.904v1.776h-5.904V95h-2.184V78.272h9.456Zm14.888 9.648c0 .416-.024.856-.072 1.32h-10.512c.08 1.296.52 2.312 1.32 3.048.816.72 1.8 1.08 2.952 1.08.944 0 1.728-.216 2.352-.648a3.535 3.535 0 0 0 1.344-1.776h2.352a5.712 5.712 0 0 1-2.112 3.096c-1.056.784-2.368 1.176-3.936 1.176-1.248 0-2.368-.28-3.36-.84-.976-.56-1.744-1.352-2.304-2.376-.56-1.04-.84-2.24-.84-3.6 0-1.36.272-2.552.816-3.576.544-1.024 1.304-1.808 2.28-2.352.992-.56 2.128-.84 3.408-.84 1.248 0 2.352.272 3.312.816a5.55 5.55 0 0 1 2.208 2.256c.528.944.792 2.016.792 3.216Zm-2.256-.456c0-.832-.184-1.544-.552-2.136a3.474 3.474 0 0 0-1.512-1.368c-.624-.32-1.32-.48-2.088-.48-1.104 0-2.048.352-2.832 1.056-.768.704-1.208 1.68-1.32 2.928h8.304Zm21.205-5.856c1.024 0 1.936.216 2.736.648.8.416 1.432 1.048 1.896 1.896.464.848.696 1.88.696 3.096V95h-2.16v-7.44c0-1.312-.328-2.312-.984-3-.64-.704-1.512-1.056-2.616-1.056-1.136 0-2.04.368-2.712 1.104-.672.72-1.008 1.768-1.008 3.144V95h-2.16v-7.44c0-1.312-.328-2.312-.984-3-.64-.704-1.512-1.056-2.616-1.056-1.136 0-2.04.368-2.712 1.104-.672.72-1.008 1.768-1.008 3.144V95h-2.184V81.848h2.184v1.896a4.336 4.336 0 0 1 1.728-1.584 5.343 5.343 0 0 1 2.424-.552c1.104 0 2.08.248 2.928.744.848.496 1.48 1.224 1.896 2.184a4.314 4.314 0 0 1 1.824-2.16c.848-.512 1.792-.768 2.832-.768Zm8.344 6.768c0-1.344.272-2.52.816-3.528.544-1.024 1.288-1.816 2.232-2.376.96-.56 2.024-.84 3.192-.84 1.152 0 2.152.248 3 .744.848.496 1.48 1.12 1.896 1.872v-2.4h2.208V95h-2.208v-2.448c-.432.768-1.08 1.408-1.944 1.92-.848.496-1.84.744-2.976.744-1.168 0-2.224-.288-3.168-.864-.944-.576-1.688-1.384-2.232-2.424-.544-1.04-.816-2.224-.816-3.552Zm11.136.024c0-.992-.2-1.856-.6-2.592-.4-.736-.944-1.296-1.632-1.68-.672-.4-1.416-.6-2.232-.6-.816 0-1.56.192-2.232.576-.672.384-1.208.944-1.608 1.68-.4.736-.6 1.6-.6 2.592 0 1.008.2 1.888.6 2.64.4.736.936 1.304 1.608 1.704a4.419 4.419 0 0 0 2.232.576c.816 0 1.56-.192 2.232-.576a4.295 4.295 0 0 0 1.632-1.704c.4-.752.6-1.624.6-2.616Zm8.333-11.16V95h-2.184V77.24h2.184Zm15.972 10.68c0 .416-.024.856-.072 1.32h-10.512c.08 1.296.52 2.312 1.32 3.048.816.72 1.8 1.08 2.952 1.08.944 0 1.728-.216 2.352-.648a3.535 3.535 0 0 0 1.344-1.776h2.352a5.712 5.712 0 0 1-2.112 3.096c-1.056.784-2.368 1.176-3.936 1.176-1.248 0-2.368-.28-3.36-.84-.976-.56-1.744-1.352-2.304-2.376-.56-1.04-.84-2.24-.84-3.6 0-1.36.272-2.552.816-3.576.544-1.024 1.304-1.808 2.28-2.352.992-.56 2.128-.84 3.408-.84 1.248 0 2.352.272 3.312.816a5.55 5.55 0 0 1 2.208 2.256c.528.944.792 2.016.792 3.216Zm-2.256-.456c0-.832-.184-1.544-.552-2.136a3.474 3.474 0 0 0-1.512-1.368c-.624-.32-1.32-.48-2.088-.48-1.104 0-2.048.352-2.832 1.056-.768.704-1.208 1.68-1.32 2.928h8.304Zm17.246-9.192c1.824 0 3.4.344 4.728 1.032 1.344.672 2.368 1.64 3.072 2.904.72 1.264 1.08 2.752 1.08 4.464 0 1.712-.36 3.2-1.08 4.464-.704 1.248-1.728 2.208-3.072 2.88-1.328.656-2.904.984-4.728.984h-5.208V78.272h5.208Zm0 14.928c2.16 0 3.808-.568 4.944-1.704 1.136-1.152 1.704-2.76 1.704-4.824 0-2.08-.576-3.704-1.728-4.872-1.136-1.168-2.776-1.752-4.92-1.752h-3.024V93.2h3.024Zm11.194-4.824c0-1.344.272-2.52.816-3.528.544-1.024 1.288-1.816 2.232-2.376.96-.56 2.024-.84 3.192-.84 1.152 0 2.152.248 3 .744.848.496 1.48 1.12 1.896 1.872v-2.4h2.208V95h-2.208v-2.448c-.432.768-1.08 1.408-1.944 1.92-.848.496-1.84.744-2.976.744-1.168 0-2.224-.288-3.168-.864-.944-.576-1.688-1.384-2.232-2.424-.544-1.04-.816-2.224-.816-3.552Zm11.136.024c0-.992-.2-1.856-.6-2.592-.4-.736-.944-1.296-1.632-1.68-.672-.4-1.416-.6-2.232-.6-.816 0-1.56.192-2.232.576-.672.384-1.208.944-1.608 1.68-.4.736-.6 1.6-.6 2.592 0 1.008.2 1.888.6 2.64.4.736.936 1.304 1.608 1.704a4.419 4.419 0 0 0 2.232.576c.816 0 1.56-.192 2.232-.576a4.295 4.295 0 0 0 1.632-1.704c.4-.752.6-1.624.6-2.616Zm7.277-8.688c-.416 0-.768-.144-1.056-.432a1.436 1.436 0 0 1-.432-1.056c0-.416.144-.768.432-1.056.288-.288.64-.432 1.056-.432.4 0 .736.144 1.008.432.288.288.432.64.432 1.056 0 .416-.144.768-.432 1.056a1.331 1.331 0 0 1-1.008.432Zm1.056 2.136V95h-2.184V81.848h2.184Zm6.156-4.608V95h-2.184V77.24h2.184Zm15.301 4.608-7.92 19.344h-2.256l2.592-6.336-5.304-13.008h2.424l4.128 10.656 4.08-10.656h2.256Zm4.701 10.128-2.688 6.456h-1.464l1.752-6.456h2.4Zm26.92-10.128L453.959 95h-2.256l-3.168-10.44L445.367 95h-2.256l-4.128-13.152h2.232l3.024 11.04 3.264-11.04h2.232l3.192 11.064 2.976-11.064h2.16Zm14.418 6.072c0 .416-.024.856-.072 1.32h-10.512c.08 1.296.52 2.312 1.32 3.048.816.72 1.8 1.08 2.952 1.08.944 0 1.728-.216 2.352-.648a3.535 3.535 0 0 0 1.344-1.776h2.352a5.712 5.712 0 0 1-2.112 3.096c-1.056.784-2.368 1.176-3.936 1.176-1.248 0-2.368-.28-3.36-.84-.976-.56-1.744-1.352-2.304-2.376-.56-1.04-.84-2.24-.84-3.6 0-1.36.272-2.552.816-3.576.544-1.024 1.304-1.808 2.28-2.352.992-.56 2.128-.84 3.408-.84 1.248 0 2.352.272 3.312.816a5.55 5.55 0 0 1 2.208 2.256c.528.944.792 2.016.792 3.216Zm-2.256-.456c0-.832-.184-1.544-.552-2.136a3.474 3.474 0 0 0-1.512-1.368c-.624-.32-1.32-.48-2.088-.48-1.104 0-2.048.352-2.832 1.056-.768.704-1.208 1.68-1.32 2.928h8.304ZM489.606 95l-5.16-5.808V95h-2.184V77.24h2.184v10.44l5.064-5.832h3.048l-6.192 6.552 6.216 6.6h-2.976Zm11.666-13.392c1.6 0 2.896.488 3.888 1.464.992.96 1.488 2.352 1.488 4.176V95h-2.16v-7.44c0-1.312-.328-2.312-.984-3-.656-.704-1.552-1.056-2.688-1.056-1.152 0-2.072.36-2.76 1.08-.672.72-1.008 1.768-1.008 3.144V95h-2.184V81.848h2.184v1.872a4.354 4.354 0 0 1 1.752-1.56 5.547 5.547 0 0 1 2.472-.552Zm14.929 13.608c-1.232 0-2.352-.28-3.36-.84A6.105 6.105 0 0 1 510.489 92c-.56-1.04-.84-2.24-.84-3.6 0-1.344.288-2.528.864-3.552.592-1.04 1.392-1.832 2.4-2.376 1.008-.56 2.136-.84 3.384-.84 1.248 0 2.376.28 3.384.84a5.897 5.897 0 0 1 2.376 2.352c.592 1.024.888 2.216.888 3.576 0 1.36-.304 2.56-.912 3.6a6.178 6.178 0 0 1-2.424 2.376c-1.024.56-2.16.84-3.408.84Zm0-1.92c.784 0 1.52-.184 2.208-.552.688-.368 1.24-.92 1.656-1.656.432-.736.648-1.632.648-2.688 0-1.056-.208-1.952-.624-2.688-.416-.736-.96-1.28-1.632-1.632a4.474 4.474 0 0 0-2.184-.552c-.8 0-1.536.184-2.208.552-.656.352-1.184.896-1.584 1.632-.4.736-.6 1.632-.6 2.688 0 1.072.192 1.976.576 2.712.4.736.928 1.288 1.584 1.656a4.496 4.496 0 0 0 2.16.528Zm27.386-11.448L539.483 95h-2.256l-3.168-10.44L530.891 95h-2.256l-4.128-13.152h2.232l3.024 11.04 3.264-11.04h2.232l3.192 11.064 2.976-11.064h2.16Zm11.25 2.448c.448-.784 1.104-1.424 1.968-1.92.864-.496 1.848-.744 2.952-.744 1.184 0 2.248.28 3.192.84.944.56 1.688 1.352 2.232 2.376.544 1.008.816 2.184.816 3.528 0 1.328-.272 2.512-.816 3.552-.544 1.04-1.296 1.848-2.256 2.424-.944.576-2 .864-3.168.864-1.136 0-2.136-.248-3-.744-.848-.496-1.488-1.128-1.92-1.896V95h-2.184V77.24h2.184v7.056Zm8.928 4.08c0-.992-.2-1.856-.6-2.592-.4-.736-.944-1.296-1.632-1.68a4.419 4.419 0 0 0-2.232-.576c-.8 0-1.544.2-2.232.6-.672.384-1.216.952-1.632 1.704-.4.736-.6 1.592-.6 2.568 0 .992.2 1.864.6 2.616.416.736.96 1.304 1.632 1.704a4.505 4.505 0 0 0 2.232.576c.816 0 1.56-.192 2.232-.576a4.295 4.295 0 0 0 1.632-1.704c.4-.752.6-1.632.6-2.64Zm17.356-.456c0 .416-.024.856-.072 1.32h-10.512c.08 1.296.52 2.312 1.32 3.048.816.72 1.8 1.08 2.952 1.08.944 0 1.728-.216 2.352-.648a3.535 3.535 0 0 0 1.344-1.776h2.352a5.712 5.712 0 0 1-2.112 3.096c-1.056.784-2.368 1.176-3.936 1.176-1.248 0-2.368-.28-3.36-.84-.976-.56-1.744-1.352-2.304-2.376-.56-1.04-.84-2.24-.84-3.6 0-1.36.272-2.552.816-3.576.544-1.024 1.304-1.808 2.28-2.352.992-.56 2.128-.84 3.408-.84 1.248 0 2.352.272 3.312.816a5.55 5.55 0 0 1 2.208 2.256c.528.944.792 2.016.792 3.216Zm-2.256-.456c0-.832-.184-1.544-.552-2.136a3.474 3.474 0 0 0-1.512-1.368c-.624-.32-1.32-.48-2.088-.48-1.104 0-2.048.352-2.832 1.056-.768.704-1.208 1.68-1.32 2.928h8.304Zm4.573.912c0-1.344.272-2.52.816-3.528.544-1.024 1.288-1.816 2.232-2.376.96-.56 2.024-.84 3.192-.84 1.152 0 2.152.248 3 .744.848.496 1.48 1.12 1.896 1.872v-2.4h2.208V95h-2.208v-2.448c-.432.768-1.08 1.408-1.944 1.92-.848.496-1.84.744-2.976.744-1.168 0-2.224-.288-3.168-.864-.944-.576-1.688-1.384-2.232-2.424-.544-1.04-.816-2.224-.816-3.552Zm11.136.024c0-.992-.2-1.856-.6-2.592-.4-.736-.944-1.296-1.632-1.68-.672-.4-1.416-.6-2.232-.6-.816 0-1.56.192-2.232.576-.672.384-1.208.944-1.608 1.68-.4.736-.6 1.6-.6 2.592 0 1.008.2 1.888.6 2.64.4.736.936 1.304 1.608 1.704a4.419 4.419 0 0 0 2.232.576c.816 0 1.56-.192 2.232-.576a4.295 4.295 0 0 0 1.632-1.704c.4-.752.6-1.624.6-2.616Zm17.813-6.552V95h-2.184v-1.944c-.416.672-1 1.2-1.752 1.584-.736.368-1.552.552-2.448.552-1.024 0-1.944-.208-2.76-.624-.816-.432-1.464-1.072-1.944-1.92-.464-.848-.696-1.88-.696-3.096v-7.704h2.16v7.416c0 1.296.328 2.296.984 3 .656.688 1.552 1.032 2.688 1.032 1.168 0 2.088-.36 2.76-1.08.672-.72 1.008-1.768 1.008-3.144v-7.224h2.184Zm6.602 1.8V91.4c0 .64.136 1.096.408 1.368.272.256.744.384 1.416.384h1.608V95h-1.968c-1.216 0-2.128-.28-2.736-.84-.608-.56-.912-1.48-.912-2.76v-7.752h-1.704v-1.8h1.704v-3.312h2.184v3.312h3.432v1.8h-3.432Zm17.656-1.8-7.92 19.344h-2.256l2.592-6.336-5.304-13.008h2.424l4.128 10.656 4.08-10.656h2.256Z" fill="#fff"/></g><defs><linearGradient id="i" x1="113.976" y1="52.742" x2="138.355" y2="82.632" gradientUnits="userSpaceOnUse"><stop stop-color="#FFBF61"/><stop offset=".18" stop-color="#FBAD5B"/><stop offset=".48" stop-color="#F79653"/><stop offset=".76" stop-color="#F4884E"/><stop offset="1" stop-color="#F4844D"/></linearGradient><linearGradient id="b" x1="168.403" y1="21.261" x2="167.583" y2="33.54" gradientUnits="userSpaceOnUse"><stop stop-color="#47333F"/><stop offset=".57" stop-color="#44303D"/><stop offset=".97" stop-color="#3B2838"/><stop offset="1" stop-color="#3A2738"/></linearGradient><linearGradient id="d" x1="170.153" y1="12.784" x2="169.176" y2="27.419" gradientUnits="userSpaceOnUse"><stop stop-color="#47333F"/><stop offset=".68" stop-color="#45313D"/><stop offset=".92" stop-color="#3E2B3A"/><stop offset="1" stop-color="#3A2738"/></linearGradient><linearGradient id="e" x1="146.979" y1="54.972" x2="158.75" y2="69.321" gradientUnits="userSpaceOnUse"><stop stop-color="#EB557B"/><stop offset=".31" stop-color="#E65077"/><stop offset=".62" stop-color="#DA446D"/><stop offset=".93" stop-color="#C6305D"/><stop offset="1" stop-color="#C12B59"/></linearGradient><linearGradient id="f" x1="150.131" y1="60.845" x2="152.99" y2="64.187" gradientUnits="userSpaceOnUse"><stop stop-color="#EB557B"/><stop offset=".31" stop-color="#E65077"/><stop offset=".62" stop-color="#DA446D"/><stop offset=".93" stop-color="#C6305D"/><stop offset="1" stop-color="#C12B59"/></linearGradient><linearGradient id="g" x1="148.713" y1="58.799" x2="154.488" y2="65.552" gradientUnits="userSpaceOnUse"><stop stop-color="#EB557B"/><stop offset=".31" stop-color="#E65077"/><stop offset=".62" stop-color="#DA446D"/><stop offset=".93" stop-color="#C6305D"/><stop offset="1" stop-color="#C12B59"/></linearGradient><linearGradient id="h" x1="107.8" y1="46.385" x2="102.321" y2="80.503" gradientUnits="userSpaceOnUse"><stop stop-color="#EB557B"/><stop offset=".31" stop-color="#E65077"/><stop offset=".62" stop-color="#DA446D"/><stop offset=".93" stop-color="#C6305D"/><stop offset="1" stop-color="#C12B59"/></linearGradient><linearGradient id="c" x1="167.388" y1="36.484" x2="164.598" y2="78.294" gradientUnits="userSpaceOnUse"><stop stop-color="#FFBF61"/><stop offset=".18" stop-color="#FBAD5B"/><stop offset=".48" stop-color="#F79653"/><stop offset=".76" stop-color="#F4884E"/><stop offset="1" stop-color="#F4844D"/></linearGradient><linearGradient id="j" x1="142.518" y1="37.989" x2="142.518" y2="59.922" gradientUnits="userSpaceOnUse"><stop stop-color="#fff"/><stop offset=".4" stop-color="#FEFDFD"/><stop offset=".55" stop-color="#FDF6F8"/><stop offset=".65" stop-color="#FCEAEF"/><stop offset=".74" stop-color="#FAD9E1"/><stop offset=".81" stop-color="#F8C3D0"/><stop offset=".87" stop-color="#F4A8BB"/><stop offset=".93" stop-color="#F188A2"/><stop offset=".98" stop-color="#EC6386"/><stop offset="1" stop-color="#EB557B"/></linearGradient><linearGradient id="k" x1="127.462" y1="51.054" x2="144.797" y2="68.389" gradientUnits="userSpaceOnUse"><stop stop-color="#EB557B"/><stop offset=".54" stop-color="#E8537A"/><stop offset=".78" stop-color="#E14C7A"/><stop offset=".96" stop-color="#D54079"/><stop offset="1" stop-color="#D13D79"/></linearGradient><linearGradient id="l" x1="79.567" y1="55.513" x2="98.64" y2="67.175" gradientUnits="userSpaceOnUse"><stop stop-color="#8E8FD7"/><stop offset=".48" stop-color="#8B8DD4"/><stop offset=".69" stop-color="#8486CD"/><stop offset=".85" stop-color="#787CC1"/><stop offset=".99" stop-color="#676CAF"/><stop offset="1" stop-color="#656BAD"/></linearGradient><linearGradient id="m" x1="89.759" y1="53.328" x2="95.713" y2="56.97" gradientUnits="userSpaceOnUse"><stop stop-color="#47333F"/><stop offset=".43" stop-color="#3E2B3A"/><stop offset="1" stop-color="#3A2738"/></linearGradient><clipPath id="a"><rect width="934.18" height="140" rx="16" fill="#fff"/></clipPath><clipPath id="n"><path fill="#fff" transform="matrix(.99995 -.01004 -.00472 .99999 108.084 90.625)" d="M0 0h62.247v17.745H0z"/></clipPath></defs></svg>