<svg width="158" height="158" viewBox="0 0 158 158" fill="none" xmlns="http://www.w3.org/2000/svg">
<g clip-path="url(#clip0_26907_393586)">
<path d="M137.2 4.51001H20.3798C11.4991 4.51001 4.2998 11.7093 4.2998 20.59V137.41C4.2998 146.291 11.4991 153.49 20.3798 153.49H137.2C146.081 153.49 153.28 146.291 153.28 137.41V20.59C153.28 11.7093 146.081 4.51001 137.2 4.51001Z" fill="#ED9FB2"/>
<path d="M114.21 4.51001C114.21 4.51001 107.21 118.15 4.71973 122.38V137.59C4.71973 141.807 6.3949 145.851 9.37673 148.833C12.3586 151.815 16.4028 153.49 20.6197 153.49H137.92C142.105 153.49 146.119 151.827 149.078 148.868C152.037 145.909 153.7 141.895 153.7 137.71V20.9C153.7 16.5531 151.973 12.3843 148.899 9.31053C145.825 6.23681 141.657 4.51001 137.31 4.51001H114.21Z" fill="#EB92A7"/>
<path d="M106 110.26C105.643 111.17 105.02 111.951 104.211 112.501C103.403 113.05 102.447 113.343 101.47 113.34C101.247 113.355 101.023 113.355 100.8 113.34L91.3598 112L90.7998 112.43L101 130.56C101.12 130.774 101.298 130.95 101.513 131.068C101.728 131.187 101.972 131.243 102.217 131.231C102.462 131.218 102.699 131.138 102.901 130.998C103.103 130.858 103.262 130.665 103.36 130.44L108 119.63C108.114 119.363 108.313 119.142 108.567 119.001C108.82 118.86 109.113 118.807 109.4 118.85L121.05 120.48C121.3 120.52 121.556 120.487 121.788 120.386C122.02 120.284 122.218 120.118 122.358 119.908C122.498 119.697 122.575 119.45 122.578 119.197C122.582 118.944 122.513 118.695 122.38 118.48L112.14 100.3L109.57 101.3L106 110.26Z" fill="white"/>
<path d="M57.8103 113.3C56.7342 113.442 55.6412 113.225 54.701 112.683C53.7608 112.14 53.0259 111.303 52.6103 110.3L49.0803 101.39L46.0003 100.11L35.6003 118.52C35.4658 118.736 35.3964 118.986 35.4006 119.24C35.4047 119.494 35.4822 119.742 35.6238 119.953C35.7653 120.164 35.9648 120.33 36.1984 120.431C36.432 120.531 36.6896 120.562 36.9403 120.52L48.5803 118.89C48.8671 118.847 49.1601 118.9 49.4135 119.041C49.6669 119.182 49.8662 119.403 49.9803 119.67L54.6303 130.48C54.7285 130.705 54.8874 130.898 55.0893 131.038C55.2912 131.177 55.528 131.258 55.7732 131.27C56.0183 131.283 56.2621 131.227 56.4771 131.108C56.6921 130.99 56.8698 130.814 56.9903 130.6L67.4003 112.07L67.2903 111.99L57.8103 113.3Z" fill="white"/>
<path d="M122.34 72C122.645 71.6031 122.811 71.1161 122.811 70.615C122.811 70.114 122.645 69.627 122.34 69.2301L116.34 61.46C115.979 60.9831 115.821 60.3829 115.9 59.7901L117.23 50.16C117.3 49.6608 117.201 49.1523 116.947 48.7168C116.693 48.2812 116.299 47.9441 115.83 47.76L106.77 44.17C106.484 44.0558 106.225 43.8841 106.008 43.6657C105.791 43.4472 105.622 43.1866 105.51 42.9L102 33.82C101.835 33.4005 101.547 33.0406 101.174 32.7872C100.801 32.5339 100.36 32.3989 99.9097 32.4H99.6097L89.9997 33.75C89.8966 33.7597 89.7928 33.7597 89.6897 33.75C89.195 33.7508 88.7137 33.5892 88.3197 33.29L80.4297 27.21C80.0177 26.9024 79.5135 26.7438 78.9997 26.76C78.5034 26.7599 78.0213 26.9253 77.6297 27.23L69.8397 33.23C69.445 33.5279 68.9641 33.6893 68.4697 33.69C68.3666 33.7 68.2628 33.7 68.1597 33.69L58.5297 32.36H58.2197C57.7703 32.3596 57.3312 32.4949 56.96 32.7483C56.5889 33.0017 56.3029 33.3613 56.1397 33.78L52.5397 42.84C52.4277 43.1266 52.258 43.3872 52.0413 43.6057C51.8246 43.8241 51.5654 43.9958 51.2797 44.11L42.2097 47.7C41.7632 47.8845 41.388 48.2077 41.1395 48.6219C40.891 49.0361 40.7823 49.5193 40.8297 50L42.1597 59.6301C42.1997 59.9244 42.1804 60.2237 42.1032 60.5105C42.0259 60.7972 41.8921 61.0657 41.7097 61.3L35.6397 69.1901C35.3364 69.5824 35.1719 70.0642 35.1719 70.56C35.1719 71.0559 35.3364 71.5377 35.6397 71.93L41.6397 79.7201C42.0012 80.2006 42.1593 80.804 42.0797 81.4001L40.7497 91.03C40.68 91.5279 40.779 92.0347 41.0309 92.4697C41.2828 92.9047 41.6732 93.2428 42.1397 93.43L48.2697 95.85L51.2097 97.02C51.4941 97.1337 51.7525 97.304 51.9691 97.5206C52.1857 97.7372 52.356 97.9956 52.4697 98.28L56.0697 107.35C56.2341 107.768 56.5203 108.127 56.8912 108.38C57.2621 108.633 57.7006 108.769 58.1497 108.77C58.2527 108.78 58.3566 108.78 58.4597 108.77L68.0897 107.44H68.3997C68.8679 107.44 69.3238 107.591 69.6997 107.87H69.7697L77.5597 113.87C77.954 114.169 78.4351 114.33 78.9297 114.33C79.4243 114.33 79.9053 114.169 80.2997 113.87L87.6997 108.19L88.0897 107.89C88.4806 107.584 88.9632 107.418 89.4597 107.42H89.7697L99.3997 108.75C99.4994 108.76 99.5999 108.76 99.6997 108.75C100.15 108.748 100.589 108.612 100.962 108.359C101.334 108.106 101.622 107.748 101.79 107.33L105.39 98.25C105.503 97.9684 105.673 97.7125 105.887 97.4978C106.102 97.283 106.358 97.1137 106.64 97L109.05 96L115.73 93.29C116.171 93.1028 116.54 92.7798 116.785 92.3679C117.03 91.956 117.136 91.4768 117.09 91L115.76 81.38C115.72 81.0796 115.741 80.7743 115.822 80.4823C115.903 80.1903 116.041 79.9174 116.23 79.68L122.34 72ZM104.9 88.7301C100.553 94.91 94.1386 99.3306 86.8161 101.192C79.4937 103.054 71.7467 102.234 64.9763 98.8806C58.2058 95.5271 52.8589 89.8616 49.9025 82.9086C46.9461 75.9556 46.5754 68.1742 48.8574 60.9716C51.1394 53.769 55.9234 47.6208 62.3444 43.6389C68.7654 39.6569 76.3993 38.1041 83.8656 39.2613C91.3319 40.4184 98.1376 44.2092 103.052 49.9479C107.966 55.6867 110.665 62.9946 110.66 70.5501C110.651 77.0576 108.64 83.4049 104.9 88.7301Z" fill="white"/>
<path d="M78.9999 43.1301C72.0951 43.1356 65.4465 45.7449 60.3811 50.4372C55.3158 55.1295 52.2064 61.5595 51.6736 68.4436C51.1409 75.3277 53.224 82.1596 57.5071 87.5753C61.7902 92.991 67.9582 96.5923 74.7799 97.6601C76.1759 97.8803 77.5866 97.994 78.9999 98C80.167 97.9995 81.3328 97.9226 82.4899 97.77C89.4414 96.9272 95.8071 93.4568 100.282 88.0704C104.756 82.6839 107 75.7898 106.554 68.8016C106.107 61.8134 103.004 55.2607 97.881 50.4874C92.7576 45.714 86.0021 43.0816 78.9999 43.1301ZM76.7299 84C76.3239 84.4661 75.7524 84.7559 75.1366 84.8082C74.5207 84.8604 73.9086 84.671 73.4299 84.28L61.4299 74.4001C60.9454 74.0016 60.6386 73.4274 60.5768 72.8032C60.5149 72.1791 60.703 71.5558 61.0999 71.07L61.4799 70.6101C61.8765 70.1262 62.449 69.8197 63.0716 69.7578C63.6941 69.6959 64.3158 69.8838 64.7999 70.28L72.7999 76.81C73.277 77.2004 73.8874 77.3895 74.5016 77.3373C75.1159 77.285 75.6856 76.9954 76.0899 76.53L92.8399 57.2201C93.0442 56.9855 93.2929 56.7937 93.5717 56.6556C93.8504 56.5175 94.1537 56.4359 94.4641 56.4155C94.7745 56.395 95.0859 56.4361 95.3803 56.5365C95.6748 56.6368 95.9465 56.7943 96.1799 57.0001L96.6099 57.3801C96.8444 57.5829 97.0366 57.8299 97.1756 58.1071C97.3146 58.3843 97.3976 58.6861 97.4198 58.9953C97.4421 59.3046 97.4033 59.6152 97.3055 59.9094C97.2077 60.2036 97.0528 60.4757 96.8499 60.71L76.7299 84Z" fill="white"/>
</g>
<defs>
<clipPath id="clip0_26907_393586">
<rect width="158" height="158" fill="white"/>
</clipPath>
</defs>
</svg>
