<svg width="40" height="70" viewBox="0 0 40 70" fill="none" xmlns="http://www.w3.org/2000/svg">
<circle cx="20" cy="62" r="8" fill="#49A09D"/>
<g clip-path="url(#clip0_28671_3931)">
<path d="M37.6258 36.3125H2.37578C1.99007 36.3092 1.62128 36.1537 1.34971 35.8797C1.07813 35.6058 0.925767 35.2357 0.925781 34.85V14.0625C0.925781 13.8139 1.02455 13.5754 1.20037 13.3996C1.37618 13.2238 1.61464 13.125 1.86328 13.125H38.1133C38.3609 13.1282 38.5975 13.228 38.7726 13.4032C38.9477 13.5783 39.0475 13.8149 39.0508 14.0625V34.85C39.0478 35.2305 38.8978 35.5951 38.6323 35.8677C38.3667 36.1402 38.0061 36.2996 37.6258 36.3125ZM2.80078 34.4375H37.2133V15H2.80078V34.4375Z" fill="#49A09D"/>
<path d="M38.1509 14.9997H1.90093C1.74959 15.0023 1.59987 14.9682 1.46457 14.9004C1.32926 14.8325 1.21239 14.7329 1.12395 14.6101C1.03551 14.4872 0.978127 14.3448 0.956704 14.195C0.93528 14.0452 0.950455 13.8924 1.00093 13.7497L5.11343 4.26216C5.19267 4.10282 5.31618 3.96972 5.46916 3.87882C5.62215 3.78791 5.7981 3.74307 5.97593 3.74966H34.0384C34.2196 3.74986 34.3968 3.80327 34.5479 3.90327C34.699 4.00327 34.8174 4.14545 34.8884 4.31216L39.0009 13.7497C39.0665 13.8914 39.0941 14.0477 39.0809 14.2033C39.0678 14.3589 39.0144 14.5084 38.9259 14.6372C38.8362 14.7563 38.7187 14.8517 38.5835 14.9149C38.4484 14.9781 38.2999 15.0072 38.1509 14.9997ZM3.28843 13.1247H36.7134L33.4134 5.62466H6.58843L3.28843 13.1247Z" fill="#49A09D"/>
<path d="M24.8504 25.8629L20.0004 23.8879L15.1504 25.8629V16.1504H24.8504V25.8629Z" fill="#49A09D"/>
<path d="M23.2754 6.5127H16.7254L15.1504 11.8002H24.8504L23.2754 6.5127Z" fill="#49A09D"/>
</g>
<defs>
<clipPath id="clip0_28671_3931">
<rect width="40" height="40" fill="white"/>
</clipPath>
</defs>
</svg>
