<svg width="40" height="70" viewBox="0 0 40 70" fill="none" xmlns="http://www.w3.org/2000/svg">
<g clip-path="url(#clip0_28671_3910)">
<path d="M39.3384 24.8625C39.2602 24.7971 39.1765 24.7386 39.0884 24.6875V19.175C39.0546 17.1293 38.2145 15.1796 36.7509 13.75C36.1347 13.0947 35.3938 12.5691 34.5716 12.2042C33.7495 11.8393 32.8627 11.6423 31.9634 11.625H26.1259V9.125C26.1335 8.08008 25.7293 7.07418 25.0009 6.325C24.6775 5.9874 24.2895 5.71827 23.86 5.53359C23.4306 5.34892 22.9683 5.25248 22.5009 5.25H3.58836C3.22349 5.25297 2.86297 5.32953 2.52838 5.4751C2.19379 5.62066 1.89201 5.83223 1.6411 6.09714C1.39018 6.36206 1.1953 6.67488 1.06811 7.01687C0.940915 7.35887 0.88403 7.72301 0.900857 8.0875V24.7125C0.685788 24.8682 0.51114 25.0732 0.391529 25.3102C0.271918 25.5473 0.210823 25.8095 0.213357 26.075V28.4375C0.20213 28.9753 0.39406 29.4975 0.750857 29.9C0.912768 30.0685 1.10679 30.2029 1.32148 30.2952C1.53617 30.3875 1.76717 30.4359 2.00086 30.4375H3.05086C3.30274 31.5751 3.90937 32.6032 4.78327 33.3738C5.65718 34.1444 6.75321 34.6175 7.91336 34.725H8.41336C9.65549 34.7144 10.8578 34.2855 11.8262 33.5076C12.7947 32.7297 13.4727 31.6481 13.7509 30.4375H26.2509C26.5099 31.5961 27.1369 32.6397 28.0381 33.4125C28.9393 34.1852 30.0663 34.6457 31.2509 34.725H31.7384C32.9888 34.721 34.2007 34.2919 35.1752 33.5083C36.1496 32.7246 36.8287 31.633 37.1009 30.4125H38.5134C38.7021 30.4076 38.8881 30.3656 39.0607 30.2889C39.2332 30.2121 39.389 30.1021 39.519 29.9651C39.649 29.8281 39.7507 29.6669 39.8184 29.4905C39.8861 29.3142 39.9183 29.1263 39.9134 28.9375V26.1C39.9046 25.8659 39.8492 25.6358 39.7505 25.4233C39.6517 25.2109 39.5116 25.0202 39.3384 24.8625ZM26.1384 13.4625H31.9634C33.2701 13.5042 34.5086 14.0561 35.4134 15C36.5237 16.0967 37.1531 17.5894 37.1634 19.15V24.375H34.3134C33.5044 23.9263 32.5946 23.6908 31.6696 23.6908C30.7446 23.6908 29.8348 23.9263 29.0259 24.375H26.1259L26.1384 13.4625ZM35.3009 29.5625C35.2729 29.8617 35.2056 30.1559 35.1009 30.4375C34.8541 31.1493 34.3916 31.7666 33.7778 32.2035C33.164 32.6403 32.4293 32.8751 31.6759 32.8751C30.9224 32.8751 30.1878 32.6403 29.5739 32.2035C28.9601 31.7666 28.4976 31.1493 28.2509 30.4375C28.0711 29.9505 28.0028 29.4294 28.0509 28.9125C28.0438 28.7959 28.0438 28.6791 28.0509 28.5625C28.2065 27.7299 28.6487 26.978 29.3009 26.4375L29.5384 26.275C30.1455 25.8338 30.8754 25.5935 31.6259 25.5875H31.9634C32.6075 25.6455 33.2245 25.8742 33.7509 26.25C34.0088 26.4243 34.2403 26.6348 34.4384 26.875C34.8394 27.3507 35.1068 27.9245 35.2134 28.5375C35.2895 28.8735 35.3189 29.2184 35.3009 29.5625ZM12.0384 29.5625C12.0061 29.8622 11.9346 30.1564 11.8259 30.4375C11.5791 31.1493 11.1166 31.7666 10.5028 32.2035C9.88896 32.6403 9.15427 32.8751 8.40086 32.8751C7.64745 32.8751 6.91276 32.6403 6.29893 32.2035C5.68511 31.7666 5.22265 31.1493 4.97586 30.4375C4.80829 29.9476 4.74029 29.4291 4.77586 28.9125C4.79356 28.7944 4.81861 28.6775 4.85086 28.5625C5.00134 27.728 5.44456 26.9745 6.10086 26.4375L6.31336 26.25C6.92052 25.8088 7.65037 25.5685 8.40086 25.5625H8.75086C9.38538 25.6302 9.98991 25.8677 10.5009 26.25C10.7653 26.4207 11.0015 26.6315 11.2009 26.875C11.6019 27.3507 11.8693 27.9245 11.9759 28.5375C12.0436 28.8747 12.0646 29.2196 12.0384 29.5625ZM13.0384 26.275H27.0509C26.6103 26.9651 26.3364 27.7483 26.2509 28.5625H13.8759C13.7787 27.7374 13.4921 26.9459 13.0384 26.25V26.275ZM2.77586 8.0875C2.77586 7.5 3.10086 7.125 3.58836 7.125H22.5009C22.9283 7.15313 23.3297 7.34045 23.6259 7.65C23.8226 7.84217 23.9791 8.07154 24.0864 8.32475C24.1937 8.57797 24.2496 8.84999 24.2509 9.125V24.4H11.0509C10.3854 24.0404 9.65407 23.8192 8.90086 23.75C7.81225 23.6512 6.71909 23.882 5.76336 24.4125H2.72586L2.77586 8.0875ZM2.02586 28.4375V26.25H3.75086C3.29704 26.9367 3.01023 27.7201 2.91336 28.5375H2.03836C2.02514 28.5059 2.02082 28.4714 2.02586 28.4375ZM37.9759 28.5625H37.1384C37.0317 27.7318 36.7273 26.9388 36.2509 26.25H37.9259L37.9759 28.5625Z" fill="#49A09D"/>
<path d="M8.41211 27.8125C8.15497 27.8107 7.90229 27.8797 7.68179 28.012C7.46129 28.1443 7.28149 28.3348 7.16211 28.5625H9.66211C9.54057 28.3366 9.36028 28.1476 9.14027 28.0156C8.92026 27.8836 8.66869 27.8134 8.41211 27.8125Z" fill="#49A09D"/>
<path d="M8.41172 30.65C8.65986 30.6431 8.9016 30.5697 9.11172 30.4375H7.69922C7.91322 30.5713 8.15941 30.6447 8.41172 30.65Z" fill="#49A09D"/>
<path d="M7.7 30.4377H9.1125C9.33148 30.3113 9.51289 30.1289 9.6381 29.9092C9.76331 29.6895 9.82782 29.4405 9.825 29.1877C9.81619 28.9511 9.75197 28.7199 9.6375 28.5127H7.1375C7.01339 28.7165 6.94446 28.9492 6.9375 29.1877C6.93961 29.4455 7.01164 29.698 7.14592 29.9181C7.28021 30.1382 7.4717 30.3178 7.7 30.4377Z" fill="#49A09D"/>
<path d="M31.6758 27.8125C31.4186 27.8107 31.166 27.8797 30.9455 28.012C30.725 28.1443 30.5452 28.3348 30.4258 28.5625H32.9258C32.8053 28.3357 32.6253 28.146 32.405 28.0138C32.1848 27.8817 31.9326 27.8121 31.6758 27.8125Z" fill="#49A09D"/>
<path d="M31.6746 30.65C31.9231 30.6449 32.1653 30.5714 32.3746 30.4375H30.9746C31.1834 30.5726 31.426 30.6462 31.6746 30.65Z" fill="#49A09D"/>
<path d="M30.9754 30.4377H32.3754C32.5971 30.3144 32.7808 30.1326 32.9064 29.9123C33.032 29.6919 33.0948 29.4413 33.0879 29.1877C33.0853 28.9502 33.0207 28.7175 32.9004 28.5127H30.4004C30.2802 28.7175 30.2155 28.9502 30.2129 29.1877C30.2108 29.4464 30.2811 29.7006 30.4159 29.9215C30.5506 30.1423 30.7444 30.3212 30.9754 30.4377Z" fill="#49A09D"/>
<path d="M34.8379 17.9625C34.8379 17.0773 34.4863 16.2284 33.8604 15.6025C33.2345 14.9766 32.3856 14.625 31.5004 14.625H27.9004V19.4625H34.8379V17.9625Z" fill="#49A09D"/>
</g>
<circle cx="20" cy="62" r="8" fill="#49A09D"/>
<defs>
<clipPath id="clip0_28671_3910">
<rect width="40" height="40" fill="white"/>
</clipPath>
</defs>
</svg>
