<svg width="40" height="70" viewBox="0 0 40 70" fill="none" xmlns="http://www.w3.org/2000/svg">
<circle cx="19" cy="62" r="8" fill="#49A09D"/>
<g clip-path="url(#clip0_28671_3956)">
<path d="M31.8504 8.40039H27.1879V10.4129H30.8379V34.5504H9.17539V10.4129H12.8254V8.40039H8.16289C8.03052 8.39874 7.89914 8.42338 7.77637 8.4729C7.6536 8.52241 7.54188 8.59581 7.44769 8.68883C7.3535 8.78185 7.27872 8.89265 7.22769 9.0148C7.17665 9.13695 7.15038 9.26801 7.15039 9.40039V35.5504C7.15039 35.8189 7.25706 36.0765 7.44695 36.2663C7.63683 36.4562 7.89436 36.5629 8.16289 36.5629H31.9129C32.0453 36.5629 32.1763 36.5366 32.2985 36.4856C32.4206 36.4346 32.5314 36.3598 32.6245 36.2656C32.7175 36.1714 32.7909 36.0597 32.8404 35.9369C32.8899 35.8141 32.9145 35.6828 32.9129 35.5504V9.40039C32.9132 9.26364 32.8854 9.12829 32.8313 9.0027C32.7771 8.87712 32.6978 8.76396 32.5983 8.67024C32.4987 8.57651 32.3809 8.50421 32.2523 8.4578C32.1237 8.41138 31.9869 8.39185 31.8504 8.40039Z" fill="#49A09D"/>
<path d="M26.1743 11.0371H13.8243V10.4121H12.8243V11.0371C12.8226 11.1695 12.8473 11.3009 12.8968 11.4236C12.9463 11.5464 13.0197 11.6581 13.1127 11.7523C13.2058 11.8465 13.3166 11.9213 13.4387 11.9723C13.5609 12.0233 13.6919 12.0496 13.8243 12.0496H26.1743C26.4428 12.0496 26.7004 11.9429 26.8902 11.7531C27.0801 11.5632 27.1868 11.3056 27.1868 11.0371V10.4121H26.1743V11.0371Z" fill="#49A09D"/>
<path d="M13.825 7.26275H17.1875C17.2351 6.54761 17.5528 5.87732 18.0762 5.38765C18.5996 4.89799 19.2895 4.62556 20.0062 4.62556C20.723 4.62556 21.4129 4.89799 21.9363 5.38765C22.4597 5.87732 22.7773 6.54761 22.825 7.26275H26.175V8.40025H27.1875V7.26275C27.1842 6.99639 27.0761 6.74206 26.8866 6.55487C26.697 6.36769 26.4414 6.26273 26.175 6.26275H23.75C23.5275 5.45552 23.0463 4.74359 22.3802 4.23623C21.714 3.72887 20.8998 3.4541 20.0625 3.4541C19.2252 3.4541 18.411 3.72887 17.7448 4.23623C17.0787 4.74359 16.5975 5.45552 16.375 6.26275H13.875C13.6098 6.26275 13.3554 6.36811 13.1679 6.55564C12.9804 6.74318 12.875 6.99753 12.875 7.26275V8.40025H13.875L13.825 7.26275Z" fill="#49A09D"/>
<path d="M13.8367 8.40039H12.8242V10.4254H13.8367V8.40039Z" fill="#49A09D"/>
<path d="M27.1883 8.40039H26.1758V10.4254H27.1883V8.40039Z" fill="#49A09D"/>
<path d="M26.1742 10.4121H13.8242V11.0371H26.1742V10.4121Z" fill="#49A09D"/>
<path d="M14.8367 8.27469H17.1867C17.3191 8.2747 17.4502 8.24842 17.5723 8.19739C17.6945 8.14635 17.8053 8.07158 17.8983 7.97739C17.9913 7.8832 18.0647 7.77148 18.1142 7.64871C18.1637 7.52594 18.1884 7.39456 18.1867 7.26219C18.1867 6.78148 18.3777 6.32047 18.7176 5.98056C19.0575 5.64065 19.5185 5.44969 19.9992 5.44969C20.4799 5.44969 20.9409 5.64065 21.2808 5.98056C21.6208 6.32047 21.8117 6.78148 21.8117 7.26219C21.8117 7.53072 21.9184 7.78825 22.1083 7.97813C22.2982 8.16801 22.5557 8.27469 22.8242 8.27469H25.1617V8.39969H26.1742V7.26219H22.8242C22.7766 6.54705 22.4589 5.87675 21.9355 5.38709C21.4121 4.89742 20.7222 4.625 20.0055 4.625C19.2887 4.625 18.5988 4.89742 18.0754 5.38709C17.5521 5.87675 17.2344 6.54705 17.1867 7.26219H13.8242V8.39969H14.8367V8.27469Z" fill="#49A09D"/>
<path d="M26.1742 8.3877H25.1617V10.0252H14.8367V8.3877H13.8242V10.4127H26.1742V8.3877Z" fill="#49A09D"/>
<path d="M19.9992 16.0254C18.6315 16.0229 17.2938 16.4262 16.1554 17.1843C15.017 17.9423 14.1291 19.0211 13.604 20.2839C13.0789 21.5468 12.9402 22.9371 13.2055 24.2788C13.4708 25.6205 14.1282 26.8534 15.0944 27.8213C16.0607 28.7893 17.2923 29.4489 18.6336 29.7166C19.9748 29.9844 21.3653 29.8482 22.6291 29.3254C23.893 28.8026 24.9733 27.9166 25.7334 26.7796C26.4935 25.6426 26.8992 24.3056 26.8992 22.9379C26.8992 21.1068 26.1727 19.3504 24.879 18.0544C23.5854 16.7585 21.8304 16.0287 19.9992 16.0254ZM24.2117 21.4629L19.7742 25.8379C19.6811 25.9316 19.57 26.0054 19.4475 26.0548C19.325 26.1042 19.1938 26.1282 19.0617 26.1254C18.8017 26.127 18.5511 26.0285 18.3617 25.8504L15.7867 23.3504C15.5989 23.1608 15.4936 22.9047 15.4936 22.6379C15.4936 22.3711 15.5989 22.115 15.7867 21.9254C15.9784 21.7368 16.2366 21.6312 16.5055 21.6312C16.7744 21.6312 17.0325 21.7368 17.2242 21.9254L19.0617 23.7504L22.8117 20.0629C23.0013 19.8751 23.2574 19.7698 23.5242 19.7698C23.7911 19.7698 24.0471 19.8751 24.2367 20.0629C24.4166 20.2531 24.5148 20.5062 24.5101 20.768C24.5055 21.0298 24.3983 21.2793 24.2117 21.4629Z" fill="#49A09D"/>
</g>
<defs>
<clipPath id="clip0_28671_3956">
<rect width="40" height="40" fill="white"/>
</clipPath>
</defs>
</svg>
