<svg width="40" height="70" viewBox="0 0 40 70" fill="none" xmlns="http://www.w3.org/2000/svg">
<circle cx="20" cy="62" r="8" fill="#49A09D"/>
<g clip-path="url(#clip0_28671_3943)">
<path d="M37.6258 36.3125H2.37578C1.99007 36.3092 1.62128 36.1537 1.34971 35.8797C1.07813 35.6058 0.925767 35.2357 0.925781 34.85V14.0625C0.925781 13.8139 1.02455 13.5754 1.20037 13.3996C1.37618 13.2238 1.61464 13.125 1.86328 13.125H38.1133C38.3609 13.1282 38.5975 13.228 38.7726 13.4032C38.9477 13.5783 39.0475 13.8149 39.0508 14.0625V34.85C39.0478 35.2305 38.8978 35.5951 38.6323 35.8677C38.3667 36.1402 38.0061 36.2996 37.6258 36.3125ZM2.80078 34.4375H37.2133V15H2.80078V34.4375Z" fill="#49A09D"/>
<path d="M31.3411 24C30.4178 23.9983 29.5147 24.2706 28.7462 24.7824C27.9776 25.2941 27.3782 26.0224 27.0237 26.875C26.6692 27.7275 26.5755 28.6661 26.7547 29.5719C26.9338 30.4777 27.3776 31.31 28.0299 31.9635C28.6822 32.617 29.5137 33.0623 30.4192 33.243C31.3246 33.4238 32.2634 33.3319 33.1166 32.9789C33.9698 32.6259 34.6991 32.0278 35.2123 31.2602C35.7254 30.4926 35.9993 29.59 35.9993 28.6667C35.9993 27.4305 35.5088 26.2447 34.6355 25.3698C33.7622 24.4949 32.5773 24.0022 31.3411 24ZM34.185 27.6709L31.1892 30.6245C31.1264 30.6877 31.0513 30.7375 30.9686 30.7709C30.886 30.8043 30.7974 30.8205 30.7082 30.8186C30.5327 30.8197 30.3635 30.7532 30.2356 30.6329L28.4972 28.9452C28.3705 28.8172 28.2994 28.6443 28.2994 28.4641C28.2994 28.284 28.3705 28.1111 28.4972 27.9831C28.6267 27.8558 28.8009 27.7845 28.9825 27.7845C29.164 27.7845 29.3383 27.8558 29.4677 27.9831L30.7082 29.2152L33.2399 26.7257C33.3679 26.599 33.5407 26.5279 33.7209 26.5279C33.901 26.5279 34.0739 26.599 34.2019 26.7257C34.3233 26.8541 34.3896 27.025 34.3865 27.2018C34.3833 27.3785 34.311 27.5469 34.185 27.6709Z" fill="#49A09D"/>
<path d="M38.1509 14.9997H1.90093C1.74959 15.0023 1.59987 14.9682 1.46457 14.9004C1.32926 14.8325 1.21239 14.7329 1.12395 14.6101C1.03551 14.4872 0.978127 14.3448 0.956704 14.195C0.93528 14.0452 0.950455 13.8924 1.00093 13.7497L5.11343 4.26216C5.19267 4.10282 5.31618 3.96972 5.46916 3.87882C5.62215 3.78791 5.7981 3.74307 5.97593 3.74966H34.0384C34.2196 3.74986 34.3968 3.80327 34.5479 3.90327C34.699 4.00327 34.8174 4.14545 34.8884 4.31216L39.0009 13.7497C39.0665 13.8914 39.0941 14.0477 39.0809 14.2033C39.0678 14.3589 39.0144 14.5084 38.9259 14.6372C38.8362 14.7563 38.7187 14.8517 38.5835 14.9149C38.4484 14.9781 38.2999 15.0072 38.1509 14.9997ZM3.28843 13.1247H36.7134L33.4134 5.62466H6.58843L3.28843 13.1247Z" fill="#49A09D"/>
<path d="M24.8504 25.8629L20.0004 23.8879L15.1504 25.8629V16.1504H24.8504V25.8629Z" fill="#49A09D"/>
<path d="M23.2754 6.5127H16.7254L15.1504 11.8002H24.8504L23.2754 6.5127Z" fill="#49A09D"/>
</g>
<defs>
<clipPath id="clip0_28671_3943">
<rect width="40" height="40" fill="white"/>
</clipPath>
</defs>
</svg>
